<svg width="420" height="311" xmlns="http://www.w3.org/2000/svg"><g fill-rule="nonzero" fill="none"><path d="m351.291 262.15 26.212-71.333a6.48 6.48 0 0 0-7.333-8.598l-79.63 17.547 60.751 62.384ZM285.933 195.62l18.858-77.979a6.48 6.48 0 0 0-8.573-7.398l-74.98 26.72 64.695 58.656ZM214.34 134.352l9.842-75.346a6.47 6.47 0 0 0-9.066-6.744l-73.233 35.16 36.144 21.463 36.312 25.467ZM135.466 83.114 131.948 9.76a6.48 6.48 0 0 0-10.137-5.018L56.183 52.42l40.305 12.46 38.978 18.234Z" fill="#E13248"/><path d="M356.159 303.861c-4.194-4.903-5.192-9.54-2.746-12.936 2.085-2.895 6.271-4.052 10.508-3.277 8.734 1.597 20.134 11.362 22.807 21.471l1.606.305c9.89 1.913 14.455 3.548 16.845 6.848l.195.29c2.871 4.51 2.96 8.632-.007 11.016-2.503 2.012-6.551 2.05-10.54.378-2.7-1.131-5.102-3.401-7.289-6.51-1.894-2.694-3.393-5.646-4.473-8.287l-2.929-.526c-13.927-2.516-20.319-4.494-23.977-8.772Zm32.462 10.344.152.302a35.545 35.545 0 0 0 2.553 4.275c1.73 2.46 3.538 4.17 5.29 4.904 2.577 1.08 4.887 1.058 5.85.283.784-.629.75-2.175-.959-4.862l-.117-.174c-1.272-1.756-4.945-3.116-12.251-4.623l-.518-.105ZM357.17 293.63c-.97 1.347-.45 3.763 2.507 7.221 2.515 2.94 8.1 4.768 19.573 6.911l2.284.418-.07-.174c-3.136-7.358-11.712-14.42-18.087-15.748l-.289-.056c-2.635-.482-5.017.176-5.918 1.428Z" fill="#F798A0"/><path d="m387.898 312.153-4.019-2.299.265-.472.233-.434a71.87 71.87 0 0 0 4.78-11.267c3.251-10.017 3.434-18.69-.593-24.671-1.14-1.695-2.621-3.172-4.474-4.426l2.593-3.835c2.343 1.584 4.248 3.486 5.721 5.675 4.368 6.487 4.772 14.91 2.393 24.401l-.158.616.116-.116a45.247 45.247 0 0 1 6.234-5.128l.458-.307c4.796-3.16 9.459-4.804 13.675-5.333 1.488-.187 2.603-.199 3.273-.14l-.408 4.612-.167-.007a10.08 10.08 0 0 0-.336-.001 15.76 15.76 0 0 0-1.785.13c-3.534.444-7.522 1.849-11.704 4.605-5.651 3.725-10.977 9.505-15.719 17.735l-.378.662ZM-20.342 47.565c-3.55-3.152-5.432-7.156-4.629-10.574.95-4.042 5.055-5.896 10.853-5.202 4.686.56 8.688 4.648 16.151 14.82 11.23-2.183 26.352 4.382 31.962 12.225 2.74 3.83 3.58 8.489 1.738 11.906-2.17 4.025-7.198 5.244-14.025 3.446-5.659-1.49-10.5-6.472-18.709-17.64l-3.204-4.41-.84.042c-.303.012-.627.022-.971.03-2.282.053-4.625-.035-6.913-.316-4.777-.586-8.706-1.923-11.413-4.327Zm25.936 3.698-.177.01.586.807c8.05 11.08 12.745 16.094 16.994 17.213 4.814 1.268 7.425.635 8.282-.955.8-1.484.318-4.16-1.4-6.56-4.095-5.725-15.395-10.96-24.285-10.515Zm-25.64-13.113c-.307 1.308.767 3.592 3.063 5.631 1.783 1.583 4.82 2.616 8.67 3.089 1.264.155 2.56.244 3.856.277l.585.01-.173-.228c-5.078-6.67-8.232-9.726-10.546-10.098l-.128-.018c-3.532-.422-5.077.275-5.326 1.337Z" fill="#F798A0"/><path d="M2.668 49.767-1.5 46.899l.018-.025a76.68 76.68 0 0 0 4.409-7.093c4.697-8.608 6.59-16.411 6.367-23.334-.081-2.522-.444-4.787-1.007-6.784-.348-1.232-.729-2.22-1.082-2.95l-.197-.388a2.53 2.53 0 0 1 4.35-2.584l.188.34.06.118c1.429 2.797 2.578 6.868 2.745 12.085.157 4.874-.6 10.081-2.43 15.583l-.162.48.191-.163c2.725-2.289 5.535-4.257 8.413-5.822l.617-.33c8.513-4.442 16.943-4.943 24.758-.388a2.53 2.53 0 1 1-2.547 4.371c-6.159-3.589-12.783-3.195-19.87.503-4.791 2.5-9.507 6.37-13.941 11.081a80.47 80.47 0 0 0-4.935 5.765l-.484.63-.441.588-.569.782-.282.403Z" fill="#F798A0"/><path d="M2.176 48.068a2.53 2.53 0 0 1 .012-5.06c38.855.095 79.816 11.272 122.361 32.153 36.935 18.127 74.399 43.231 111.877 73.971 38.888 31.897 75.735 68.098 109.378 105.657l2.264 2.534c10.864 12.203 20.635 23.713 29.193 34.229l1.76 2.17a670.22 670.22 0 0 1 6.628 8.326l1.69 2.173 1.22 1.594a2.53 2.53 0 1 1-4.038 3.049l-.717-.94a386.732 386.732 0 0 0-1.836-2.368l-1.677-2.138a727.412 727.412 0 0 0-6.955-8.672c-9.099-11.181-19.582-23.498-31.3-36.581-33.483-37.379-70.15-73.404-108.819-105.12C152.405 86.76 73.921 48.242 2.176 48.067Z" fill="#F798A0"/><text fill="#FFF" transform="rotate(-139.15 226.62 202.528)" font-family="Dylan" font-size="38.59">
                <tspan x="121.413" y="288.147">L</tspan>
            </text><text fill="#FFF" transform="rotate(-145.71 234.714 180.912)" font-family="Dylan" font-size="38.59">
                <tspan x="213.069" y="251.96">O</tspan>
            </text><text fill="#FFF" transform="rotate(-149.98 238.482 151.1)" font-family="Dylan" font-size="38.59">
                <tspan x="291.411" y="204.578">V</tspan>
            </text><text fill="#FFF" transform="rotate(-153.16 235.985 113.71)" font-family="Dylan" font-size="38.59">
                <tspan x="372.689" y="138.862">E</tspan>
            </text></g></svg>