<svg width="431" height="296" xmlns="http://www.w3.org/2000/svg"><g fill-rule="nonzero" fill="none"><path d="m53.909 57.979 55.42-52a6.48 6.48 0 0 1 10.78 3.39l14.962 80.156-81.162-31.546ZM140.688 92.146 205.1 44.319a6.48 6.48 0 0 1 10.16 5l4.7 79.46-79.27-36.633ZM225.059 134.109l65.51-38.5a6.47 6.47 0 0 1 9.75 5.71l-3.75 81.15-33.88-24.885-37.63-23.475ZM303.042 186.692l68.897-25.423a6.48 6.48 0 0 1 8.58 7.37l-18.245 79.04-27.218-32.232-32.014-28.755Z" fill="#E13248"/><path d="M13.611 69.796c6.152 1.945 10.811 1.051 12.981-2.527 1.85-3.05 1.28-7.356-1.09-10.953C20.62 48.9 7.178 42.222-3.172 43.712l-.908-1.36c-5.625-8.357-8.914-11.92-12.886-12.83l-.343-.067c-5.273-.88-9.102.649-10.137 4.311-.874 3.09.673 6.832 3.77 9.85 2.097 2.044 5.125 3.367 8.841 4.165 3.22.692 6.523.919 9.376.88l1.628 2.491C3.927 62.99 8.244 68.1 13.611 69.796Zm-22.205-25.84-.337-.022a35.545 35.545 0 0 1-4.932-.68c-2.943-.631-5.222-1.627-6.582-2.953-2-1.95-2.883-4.085-2.547-5.275.273-.966 1.71-1.54 4.85-1.016l.207.04c2.113.484 4.8 3.334 9.042 9.47l.3.436Zm31.227 20.912c-.86 1.42-3.287 1.885-7.626.513-3.689-1.165-7.553-5.592-14.01-15.316L-.28 48.126l.188-.003c7.998.01 17.85 5.146 21.563 10.496l.165.243c1.473 2.237 1.798 4.687.997 6.006Z" fill="#F798A0"/><path d="m-6.423 43.82 3.687 2.8.331-.427c.088-.111.19-.24.308-.385a71.87 71.87 0 0 1 8.504-8.801c7.95-6.907 15.863-10.464 22.942-9.095 2.005.388 3.944 1.173 5.821 2.39l2.518-3.886c-2.374-1.538-4.868-2.548-7.46-3.05-7.677-1.485-15.589 1.435-23.396 7.333l-.505.386.062-.153a45.247 45.247 0 0 0 2.284-7.742l.103-.541c1.036-5.65.727-10.584-.433-14.672-.41-1.442-.835-2.474-1.151-3.067L3.106 7.088l.072.15c.035.077.08.18.133.31.193.469.39 1.034.578 1.693.972 3.427 1.236 7.646.333 12.573-1.22 6.658-4.46 13.818-10.183 21.399l-.462.606ZM396.644 316.224c4.288 2.036 8.71 2.204 11.542.13 3.349-2.455 3.452-6.958.548-12.023-2.347-4.095-7.674-6.182-19.954-9.077-2.377-11.19-14.33-22.545-23.74-24.644-4.596-1.026-9.213.02-11.639 3.052-2.857 3.57-2.014 8.675 2.308 14.256 3.583 4.627 10.06 7.137 23.547 10.33l5.312 1.225.29.79c.107.284.224.586.351.907.844 2.12 1.84 4.243 2.993 6.239 2.406 4.168 5.17 7.262 8.442 8.815Zm-13.538-22.43.06.168-.972-.224c-13.344-3.081-19.794-5.444-22.485-8.918-3.048-3.936-3.485-6.587-2.357-7.997 1.054-1.317 3.705-1.918 6.586-1.275 6.87 1.533 16.104 9.889 19.168 18.247Zm22.089 18.478c-1.085.794-3.606.699-6.38-.619-2.154-1.022-4.291-3.414-6.231-6.774a40.279 40.279 0 0 1-1.762-3.44l-.238-.535.278.07c8.123 2.068 12.168 3.777 13.416 5.762l.066.111c1.77 3.086 1.73 4.78.85 5.425Z" fill="#F798A0"/><path d="m385.627 295.903 4.268 2.717.016-.025a76.68 76.68 0 0 1 4.807-6.83c6.088-7.687 12.531-12.479 18.991-14.979 2.353-.91 4.58-1.462 6.638-1.724 1.27-.161 2.329-.196 3.14-.157l.432.03a2.53 2.53 0 0 0 .68-5.013l-.388-.04-.131-.01c-3.133-.222-7.33.311-12.197 2.195-4.548 1.76-9.045 4.492-13.395 8.326l-.378.337.075-.24c1.043-3.403 1.757-6.758 2.073-10.019l.061-.697c.763-9.572-2.07-17.527-9.316-22.942a2.53 2.53 0 1 0-3.028 4.053c5.71 4.267 7.935 10.518 7.3 18.487-.43 5.387-2.148 11.24-4.752 17.163a80.47 80.47 0 0 1-3.379 6.795l-.39.692c-.128.221-.25.433-.37.635l-.497.829-.26.417Z" fill="#F798A0"/><path d="M387.383 295.693a2.53 2.53 0 0 0 4.653-1.988c-15.27-35.73-41.563-69.067-77.408-100.072-31.117-26.915-68.864-51.592-111.804-74.08-44.557-23.334-92.277-43.106-139.995-59.4L59.61 59.06c-15.477-5.233-29.89-9.73-42.914-13.498l-2.684-.772a670.22 670.22 0 0 0-10.256-2.848l-2.66-.706-1.944-.501a2.53 2.53 0 1 0-1.228 4.908l1.145.293c.834.217 1.801.471 2.897.764l2.624.71c3.189.87 6.764 1.873 10.7 3.012 13.847 4.007 29.28 8.844 45.903 14.52 47.49 16.215 94.977 35.892 139.282 59.094 92.59 48.488 158.712 105.683 186.907 171.657Z" fill="#F798A0"/><text fill="#FFF" transform="scale(1 -1) rotate(-26.15 -565.686 175.343)" font-family="Dylan" font-size="38.59">
                <tspan x="121.413" y="288.147">L</tspan>
            </text><text fill="#FFF" transform="scale(1 -1) rotate(-32.71 -331.297 126.72)" font-family="Dylan" font-size="38.59">
                <tspan x="213.069" y="251.96">O</tspan>
            </text><text fill="#FFF" transform="scale(1 -1) rotate(-36.98 -183.66 73.563)" font-family="Dylan" font-size="38.59">
                <tspan x="291.411" y="204.578">V</tspan>
            </text><text fill="#FFF" transform="scale(1 -1) rotate(-40.16 -64.885 4.32)" font-family="Dylan" font-size="38.59">
                <tspan x="372.689" y="138.862">E</tspan>
            </text></g></svg>