<svg width="527" height="124" xmlns="http://www.w3.org/2000/svg"><g fill-rule="nonzero" fill="none"><path d="m85.962 104.77 18.158-73.795a6.48 6.48 0 0 1 10.887-3.028l56.204 59.076-85.25 17.746ZM177.35 86.16l27.97-75.19a6.48 6.48 0 0 1 11.245-1.34l47.219 64.08-86.434 12.45ZM270.964 75.402l33.972-67.968a6.47 6.47 0 0 1 11.287-.521l41.053 70.1-41.967-2.417-44.345.806ZM365.005 77.03l43.935-58.846a6.48 6.48 0 0 1 11.21 1.508l27.747 76.226-40.382-12.208-42.51-6.68Z" fill="#E13248"/><path d="M58.602 136.628c6.218-1.72 9.639-5.007 9.51-9.189-.11-3.566-2.934-6.866-6.88-8.593-8.133-3.56-23.044-1.84-30.913 5.047l-1.502-.646c-9.27-3.944-13.968-5.141-17.795-3.741l-.324.13c-4.902 2.133-7.28 5.502-6.154 9.137.95 3.068 4.285 5.362 8.527 6.208 2.87.572 6.131.032 9.683-1.323 3.076-1.173 5.97-2.782 8.343-4.368l2.721 1.202c12.954 5.702 19.358 7.636 24.784 6.136Zm-32.696-9.578-.295.166a35.545 35.545 0 0 1-4.507 2.116c-2.812 1.073-5.266 1.479-7.129 1.108-2.74-.546-4.643-1.856-5.009-3.037-.297-.96.595-2.223 3.515-3.494l.195-.08c2.036-.744 5.841.183 12.741 3.019l.489.202Zm37.578.531c.051 1.66-1.73 3.372-6.117 4.585-3.728 1.03-9.38-.577-20.091-5.216l-2.127-.93.156-.105c6.713-4.347 17.773-5.406 23.8-2.942l.271.115c2.454 1.074 4.06 2.951 4.108 4.493Z" fill="#F798A0"/><path d="m27.652 125.753 4.617.342.045-.54.049-.49a71.87 71.87 0 0 1 2.338-12.013c2.906-10.122 7.605-17.415 14.288-20.122 1.893-.767 3.946-1.164 6.183-1.167l-.005-4.63c-2.828.004-5.47.515-7.916 1.506-7.249 2.935-12.294 9.693-15.629 18.891l-.213.6-.032-.162a45.247 45.247 0 0 0-2.3-7.737l-.209-.51c-2.208-5.303-5.155-9.272-8.354-12.07-1.129-.986-2.047-1.62-2.636-1.945l-2.24 4.052.142.087c.071.046.165.108.28.187.418.288.891.655 1.407 1.106 2.681 2.344 5.201 5.739 7.127 10.362 2.602 6.25 3.785 14.019 3.115 23.493l-.057.76ZM514.054 134.686c4.706-.628 8.505-2.896 9.75-6.178 1.472-3.883-.894-7.715-6.088-10.382-4.199-2.156-9.802-1.005-21.678 3.255-8.089-8.09-24.296-11.103-33.333-7.738-4.413 1.643-7.715 5.035-8.098 8.898-.452 4.551 3.035 8.373 9.7 10.7 5.525 1.929 12.324.506 25.374-4.162l5.122-1.865.674.504c.244.18.507.37.788.57 1.862 1.319 3.854 2.556 5.908 3.603 4.288 2.184 8.292 3.274 11.881 2.795Zm-23.57-11.438.141.108-.937.34c-12.869 4.684-19.565 6.216-23.714 4.767-4.7-1.64-6.51-3.625-6.332-5.422.166-1.679 2.062-3.626 4.829-4.656 6.597-2.457 18.892-.478 26.014 4.863Zm28.589 3.465c-.477 1.258-2.644 2.55-5.688 2.957-2.363.315-5.458-.526-8.915-2.288a40.279 40.279 0 0 1-3.351-1.926l-.492-.318.272-.093c7.94-2.69 12.263-3.46 14.39-2.474l.116.056c3.164 1.625 4.055 3.067 3.668 4.086Z" fill="#F798A0"/><path d="m493.747 123.643 5.06-.046-.001-.03a76.68 76.68 0 0 1 .311-8.346c.92-9.763 3.714-17.29 7.77-22.906 1.477-2.045 3.044-3.72 4.628-5.06.977-.828 1.845-1.434 2.547-1.842l.38-.21a2.53 2.53 0 0 0-2.161-4.575l-.347.177-.116.064c-2.748 1.52-5.977 4.252-9.033 8.484-2.855 3.952-5.14 8.693-6.7 14.277l-.133.489-.068-.243c-.979-3.42-2.207-6.624-3.718-9.53l-.328-.619c-4.573-8.443-11.282-13.572-20.308-14.167a2.53 2.53 0 1 0-.333 5.05c7.113.468 12.384 4.498 16.192 11.527 2.574 4.752 4.32 10.597 5.361 16.983.43 2.636.71 5.182.868 7.539l.049.793c.014.254.026.5.037.734l.034.965.009.492Z" fill="#F798A0"/><path d="M495.105 122.51a2.53 2.53 0 0 0 2.82-4.201C465.658 96.659 425.45 83.02 378.501 76.54c-40.756-5.626-85.854-5.763-134.114-1.236-50.076 4.698-100.867 14.106-149.761 26.43l-3.294.836c-15.83 4.04-30.367 8.12-43.342 12.052l-2.672.814a670.22 670.22 0 0 0-10.152 3.197l-2.616.857-1.903.638a2.53 2.53 0 1 0 1.643 4.786l1.12-.377c.818-.274 1.767-.587 2.846-.938l2.586-.834a727.412 727.412 0 0 1 10.615-3.3c13.796-4.182 29.374-8.531 46.406-12.824 48.66-12.266 99.203-21.628 148.997-26.299 104.06-9.762 190.666 2.193 250.244 42.168Z" fill="#F798A0"/><text fill="#FFF" transform="scale(1 -1) rotate(6.85 2961.395 5.634)" font-family="Dylan" font-size="38.59">
                <tspan x="121.413" y="288.147">L</tspan>
            </text><text fill="#FFF" transform="scale(1 -1) rotate(.29 56247.2 -1280.283)" font-family="Dylan" font-size="38.59">
                <tspan x="213.069" y="251.96">O</tspan>
            </text><text fill="#FFF" transform="scale(1 -1) rotate(-3.98 -3024.921 -6.963)" font-family="Dylan" font-size="38.59">
                <tspan x="291.411" y="204.578">V</tspan>
            </text><text fill="#FFF" transform="scale(1 -1) rotate(-7.16 -1027.572 -194.613)" font-family="Dylan" font-size="38.59">
                <tspan x="372.689" y="138.862">E</tspan>
            </text></g></svg>