<svg width="370" height="504" xmlns="http://www.w3.org/2000/svg"><g fill="none" fill-rule="evenodd"><path d="m109.892 3.062.62.036c13.03.844 25.633 8.566 37.998 20.694a140.32 140.32 0 0 1 7.566 8.046l.101.117.425-.544C173.092 10.464 193.583.875 212.814 4.64l.687.14c22.32 4.746 35.757 26.437 31.733 51.945-2.47 15.657-11.208 32.501-24.702 50.271l-1.405 1.831.058.118c2.724 5.672 4.244 12.135 4.47 19.166l.018.66c.108 4.233-.268 8.71-1.116 13.473a88.205 88.205 0 0 1-1.62 7.226c-7.1 26.552-26.184 52.229-52.48 76.313a304.11 304.11 0 0 1-2.813 2.544c-1.461 10.875-2.456 21.123-2.93 30.467-.46 9.058-.416 17.022.146 23.742l.145 1.678c.855 10.7-.43 21.277-3.876 32.443-2.945 9.538-7.345 19.348-14.385 32.24l-.936 1.699a794.437 794.437 0 0 1-4.049 7.143l-.485.845c.463 2.925.827 5.475 1.127 7.89l.145 1.207c1.268 10.81 1.214 19.455-.246 27.811-1.602 9.171-4.945 17.906-10.28 26.807l-.916 1.511a105.443 105.443 0 0 0-4.136 7.536c1.621 3.16 3.565 6.51 5.875 10.16l.988 1.544c.269.415.63.966 1.072 1.635l6.552 9.819.668 1.02c2.715 4.174 4.42 7.145 5.696 9.97 5.597 12.4 5.89 22.427.947 29.378-1.482 2.083-3.259 3.63-5.121 4.563a9 9 0 0 1-9.757-14.991l.24-.19.025-.117c.05-.249.082-.555.091-.918l.003-.225c0-2.44-.923-5.86-2.833-10.093-.753-1.666-1.898-3.684-3.675-6.468l-.763-1.182-2.048-3.079c-1.031-1.54-1.877-2.804-2.707-4.048l-2.82-4.249c-2.166 12.579-.672 24.59 4.429 35.43a9 9 0 1 1-16.288 7.663c-9.36-19.894-9.456-42.648-.32-65.513-1.61-4.021-2.817-7.942-3.692-11.955-3.177-14.564-1.16-28.62 6.283-42.217l.657-1.178c.302-.535.677-1.195 1.128-1.986l10.863-18.927-.071-.424-1.525-8.722-1.257-7.297c-.302-1.8-.58-3.502-.84-5.157l-.307-1.966c-.092-.596-.181-1.195-.269-1.797-2.81-19.415-3.162-40.787-1.333-62.754-6.903-.434-11.365-7.697-8.447-14.116l2.82-6.205-2.684-2.325a464.032 464.032 0 0 1-5.366-4.759l-.546-.492a561.226 561.226 0 0 1-18.198-17.058 459.403 459.403 0 0 1-9.144-9.205c-7.29-7.546-13.862-14.9-19.533-21.957-3.517-4.39-6.632-8.57-9.352-12.585-5.58-8.262-9.56-15.944-11.706-23.023l-.23-.786a52.794 52.794 0 0 1-.48-1.88c-.962-4.078-1.577-8.05-1.833-11.87-1.48-21.177 7.467-39.217 23.443-49.535 6.228-4.01 13.263-6.659 20.626-7.796l.308-.046-.183-.402c-3.894-8.665-6.425-17.329-7.192-25.581l-.063-.728c-1.304-16.048 2.788-31.158 11.896-41.28 7.702-8.602 18.437-13.028 30.897-12.383Zm13.392 383.454-.008.013c-3.515 6.617-5.216 13.184-5.196 19.96 2.192-4.697 3.655-9.324 4.489-14.096a57.73 57.73 0 0 0 .715-5.877Zm21.37-126.922-.007.031c-1.084 4.117-4.767 7.348-9.415 7.467l-.266.004h-2.043c-1.855 21.124-1.58 41.745 1.084 60.154.08.548.16 1.094.244 1.634l.145.916c3.39-6.916 5.792-12.813 7.534-18.454 2.857-9.254 3.857-17.772 3.073-26.395l-.073-.838c-.603-7.148-.687-15.328-.275-24.52Zm1.023-14.887-.233.175c-.656.493-1.3.972-1.93 1.436l-1.184.868 2.174 6.907c.161.51.279 1.02.356 1.53.206-3.536.479-7.178.817-10.916Z" fill="#FFF" fill-rule="nonzero"/><path d="M235.356 55.166c-3.94 24.98-27.23 53.19-45.74 72.18-12.94 13.29-23.55 22.05-23.55 22.05l7.47 16.77h-22.36l4.48-14.16s-36.52-27.93-47.31-37.62c-10.8-9.68-29.42-35.39-31.28-58.47-1.07-13.17 2.1-25.71 9.38-33.8 5.47-6.11 13.28-9.69 23.39-9.04 23.46 1.49 46.93 35.76 46.93 35.76 34.26-57.37 85.29-36.14 78.59 6.33Z" stroke="#FFF" stroke-width="15" stroke-linecap="round" stroke-linejoin="round"/><path d="m166.066 149.396 7.47 16.77h-22.36l4.48-14.16s-36.52-27.93-47.31-37.62c-10.8-9.68-29.42-35.39-31.28-58.47-1.07-13.17 2.1-25.71 9.38-33.8.97 4.49 2.47 10.52 4.65 17.38 1.09 3.42 2.33 7.06 3.79 10.79 6.39 16.52 16.52 35.26 32.08 48.45 21.59 18.31 46.89 25.66 62.65 28.61-12.94 13.29-23.55 22.05-23.55 22.05Z" stroke="#FFF" stroke-width="15" stroke-linecap="round" stroke-linejoin="round"/><path d="M93.446 50.316c-10.43-.37-1.86-13.41 5.59-20.86 7.45-7.44 21.23 0 21.23 3.73 0 3.72-10.06 5.21-10.06 5.21-6.33.38-6.33 12.3-16.76 11.92ZM213.676 129.026c.09 3.53-.23 7.34-.96 11.44-.39 2.16-.87 4.3-1.44 6.42-7.51 28.09-30.18 53.76-49.57 71.52-16.77 15.35-31.11 24.81-31.11 24.81l4.37 13.88h-19.45l5.95-13.09s-2.71-2.22-7.14-6.07c-2.01-1.73-4.38-3.83-7.01-6.2a554.61 554.61 0 0 1-17.88-16.76 450.09 450.09 0 0 1-8.95-9.01c-6.56-6.79-13.11-14.03-18.92-21.26-3.22-4.02-6.22-8.02-8.87-11.93-4.97-7.36-8.74-14.48-10.58-20.86-.14-.51-.27-1.02-.39-1.53-.84-3.56-1.37-6.99-1.59-10.27-1.3-18.59 6.85-32.66 18.88-40.43 6.71-4.32 14.62-6.71 22.77-6.832 1.82-.018 3.61.162 5.39.552 4.2.86 8.25 2.77 12.05 5.32 3.65 2.43 7.09 5.47 10.21 8.69 3.69 3.81 6.95 7.91 9.68 11.72 5.71 7.93 9.1 14.58 9.1 14.58 13.76-29.01 39.75-40.862 59.47-37.17 5.5 1.02 10.52 3.24 14.64 6.67 6.72 5.52 11.11 14.19 11.35 25.81Z" stroke="#FFF" stroke-width="15" stroke-linecap="round" stroke-linejoin="round"/><path d="m99.226 98.726-34.5 32.13-22.61 21.06c-.14-.51-.27-1.02-.39-1.53-.84-3.56-1.37-6.99-1.59-10.27l21.86-21.69 25.18-25.02c4.2.86 8.25 2.77 12.05 5.32ZM119.116 119.136l-41.55 47.32-16 18.25c-3.22-4.02-6.22-8.02-8.87-11.93l18.37-21.16 38.37-44.2c3.69 3.81 6.95 7.91 9.68 11.72ZM202.326 103.216l-112.89 111.76a450.09 450.09 0 0 1-8.95-9.01l107.2-109.42c5.5 1.02 10.52 3.24 14.64 6.67ZM213.676 129.026c.09 3.53-.23 7.34-.96 11.44-.39 2.16-.87 4.3-1.44 6.42l-96.95 91.05c-2.01-1.73-4.38-3.83-7.01-6.2l106.36-102.71Z" stroke="#FFF" stroke-width="15" stroke-linecap="round" stroke-linejoin="round"/><path d="m130.596 243.216 4.37 13.88h-19.45l5.95-13.09s-2.71-2.22-7.14-6.07c-2.01-1.73-4.38-3.83-7.01-6.2a554.61 554.61 0 0 1-17.88-16.76 450.09 450.09 0 0 1-8.95-9.01c-6.56-6.79-13.11-14.03-18.92-21.26-3.22-4.02-6.22-8.02-8.87-11.93-4.97-7.36-8.74-14.48-10.58-20.86-.14-.51-.27-1.02-.39-1.53-.84-3.56-1.37-6.99-1.59-10.27-1.3-18.59 6.85-32.66 18.88-40.43.53 4.44 1.45 11.03 2.98 18.74.75 3.91 1.65 8.09 2.73 12.43 1.67 6.73 3.75 13.81 6.34 20.76 1.9 5.07 4.04 10.09 6.5 14.84 5.14 9.97 11.61 18.82 19.7 24.79 23.67 17.47 50.74 24.55 64.44 27.16-16.77 15.35-31.11 24.81-31.11 24.81Z" stroke-opacity=".38" stroke="#FFF" stroke-width="15" stroke-linecap="round" stroke-linejoin="round"/><path d="M202.406 132.536c-1.39 11.5-15.28 3.37-18.05-4.57-2.78-7.93-11.71-12.1-14.09-18.64-2.38-6.55 8.13-5.56 8.13-5.56 8.73.99 25.4 17.26 24.01 28.77Z" stroke="#FFF" stroke-width="15" stroke-linecap="round" stroke-linejoin="round"/><path d="M158.423 203.783a2 2 0 0 1 3.95.618l-.033.196-.287 1.528-.376 2.082c-.131.742-.269 1.531-.411 2.365l-.376 2.235a481.05 481.05 0 0 0-2.015 13.336c-1.523 11.126-2.633 22.066-3.153 32.294-.468 9.216-.437 17.523.164 24.695l.072.823c.927 10.195-.28 20.15-3.518 30.636-2.796 9.056-7.004 18.36-13.393 30.128l-1.255 2.291a704.856 704.856 0 0 1-3.637 6.427l-3.334 5.82-11.598 20.188c-.61 1.07-1.11 1.95-1.462 2.579-6.541 11.668-8.082 23.222-5.484 35.13 2.017 9.244 6.223 18.037 13.101 28.803l.855 1.323c.424.65.974 1.483 1.581 2.398l5.792 8.671.901 1.38c2.209 3.415 3.706 5.992 4.792 8.339l.14.305c4.807 10.65 4.807 17.964 1.622 22.441a8.66 8.66 0 0 1-1.626 1.745c-.37.297-.688.497-.924.615a2 2 0 0 1-1.927-3.501l.137-.076c-.009.005.07-.045.21-.158.286-.229.584-.54.87-.943 2.226-3.128 2.262-8.826-1.801-18.015l-.207-.462c-1.084-2.4-2.694-5.145-5.23-9.018l-6.58-9.862a280.234 280.234 0 0 1-1.38-2.103l-.113-.175c-7.396-11.47-11.936-20.839-14.12-30.854-2.758-12.636-1.182-24.993 5.565-37.332l1.233-2.193 13.403-23.34 2.822-4.937a488.709 488.709 0 0 0 3.243-5.754l.89-1.63c6.276-11.56 10.386-20.645 13.092-29.41 2.999-9.713 4.165-18.886 3.428-28.243l-.072-.851c-.688-7.566-.742-16.338-.246-26.083.526-10.353 1.646-21.403 3.184-32.633a481.008 481.008 0 0 1 2.411-15.702l.315-1.82.53-2.945.255-1.351Z" fill="#E83648" fill-rule="nonzero"/><path d="m123.368 253.555.01-.069a2 2 0 0 1 3.972.451l-.037.287-.087.616c-.073.526-.153 1.13-.239 1.807l-.052.415c-.301 2.428-.603 5.21-.885 8.3-1.875 20.557-1.932 42.431 1.03 62.89l.124.852.129.848c.347 2.259.716 4.546 1.124 6.983l.567 3.333c.664 3.83 2.132 12.176 2.483 14.232l.36 2.144c.769 4.622 1.315 8.333 1.727 11.851 1.164 9.927 1.174 17.987-.19 25.791-1.44 8.243-4.448 16.168-9.375 24.392l-.467.772c-15.944 26.051-18.018 51.685-8.066 72.834a2 2 0 1 1-3.62 1.703c-10.436-22.18-8.396-48.917 7.78-75.81l.494-.816c4.947-8.08 7.918-15.77 9.315-23.763 1.248-7.147 1.278-14.585.258-23.745l-.102-.892c-.444-3.792-1.05-7.836-1.935-13.068l-2.812-16.157-.362-2.142c-.41-2.453-.782-4.757-1.133-7.034-.088-.576-.175-1.154-.259-1.735-2.942-20.331-2.956-41.953-1.183-62.37l.13-1.457c.262-2.873.541-5.486.822-7.804l.232-1.845.247-1.794Z" fill="#E83648" fill-rule="nonzero"/><path d="M235.356 55.166c-3.94 24.98-27.23 53.19-45.74 72.18-12.94 13.29-23.55 22.05-23.55 22.05l7.47 16.77h-22.36l4.48-14.16s-36.52-27.93-47.31-37.62c-10.8-9.68-29.42-35.39-31.28-58.47-1.07-13.17 2.1-25.71 9.38-33.8 5.47-6.11 13.28-9.69 23.39-9.04 23.46 1.49 46.93 35.76 46.93 35.76 34.26-57.37 85.29-36.14 78.59 6.33Z" fill="#E83648"/><path d="m166.066 149.396 7.47 16.77h-22.36l4.48-14.16s-36.52-27.93-47.31-37.62c-10.8-9.68-29.42-35.39-31.28-58.47-1.07-13.17 2.1-25.71 9.38-33.8.97 4.49 2.47 10.52 4.65 17.38 1.09 3.42 2.33 7.06 3.79 10.79 6.39 16.52 16.52 35.26 32.08 48.45 21.59 18.31 46.89 25.66 62.65 28.61-12.94 13.29-23.55 22.05-23.55 22.05Z" fill="#DE1C30"/><path d="M93.446 50.316c-10.43-.37-1.86-13.41 5.59-20.86 7.45-7.44 21.23 0 21.23 3.73 0 3.72-10.06 5.21-10.06 5.21-6.33.38-6.33 12.3-16.76 11.92Z" fill="#F1A4A7"/><path d="M213.676 129.026c.09 3.53-.23 7.34-.96 11.44-.39 2.16-.87 4.3-1.44 6.42-7.51 28.09-30.18 53.76-49.57 71.52-16.77 15.35-31.11 24.81-31.11 24.81l4.37 13.88h-19.45l5.95-13.09s-2.71-2.22-7.14-6.07c-2.01-1.73-4.38-3.83-7.01-6.2a554.61 554.61 0 0 1-17.88-16.76 450.09 450.09 0 0 1-8.95-9.01c-6.56-6.79-13.11-14.03-18.92-21.26-3.22-4.02-6.22-8.02-8.87-11.93-4.97-7.36-8.74-14.48-10.58-20.86-.14-.51-.27-1.02-.39-1.53-.84-3.56-1.37-6.99-1.59-10.27-1.3-18.59 6.85-32.66 18.88-40.43 6.71-4.32 14.62-6.71 22.77-6.83 1.82-.02 3.61.16 5.39.55 4.2.86 8.25 2.77 12.05 5.32 3.65 2.43 7.09 5.47 10.21 8.69 3.69 3.81 6.95 7.91 9.68 11.72 5.71 7.93 9.1 9.58 9.1 9.58 13.76-29.01 39.75-35.86 59.47-32.17 5.5 1.02 10.52 3.24 14.64 6.67 6.72 5.52 11.11 14.19 11.35 25.81Z" fill="#F49BA2"/><path d="m99.226 98.726-34.5 32.13-22.61 21.06c-.14-.51-.27-1.02-.39-1.53-.84-3.56-1.37-6.99-1.59-10.27l21.86-21.69 25.18-25.02c4.2.86 8.25 2.77 12.05 5.32ZM119.116 119.136l-41.55 47.32-16 18.25c-3.22-4.02-6.22-8.02-8.87-11.93l18.37-21.16 38.37-44.2c3.69 3.81 6.95 7.91 9.68 11.72ZM202.326 103.216l-112.89 111.76a450.09 450.09 0 0 1-8.95-9.01l107.2-109.42c5.5 1.02 10.52 3.24 14.64 6.67ZM213.676 129.026c.09 3.53-.23 7.34-.96 11.44-.39 2.16-.87 4.3-1.44 6.42l-96.95 91.05c-2.01-1.73-4.38-3.83-7.01-6.2l106.36-102.71Z" fill="#F35E75"/><path d="m130.596 243.216 4.37 13.88h-19.45l5.95-13.09s-2.71-2.22-7.14-6.07c-2.01-1.73-4.38-3.83-7.01-6.2a554.61 554.61 0 0 1-17.88-16.76 450.09 450.09 0 0 1-8.95-9.01c-6.56-6.79-13.11-14.03-18.92-21.26-3.22-4.02-6.22-8.02-8.87-11.93-4.97-7.36-8.74-14.48-10.58-20.86-.14-.51-.27-1.02-.39-1.53-.84-3.56-1.37-6.99-1.59-10.27-1.3-18.59 6.85-32.66 18.88-40.43.53 4.44 1.45 11.03 2.98 18.74.75 3.91 1.65 8.09 2.73 12.43 1.67 6.73 3.75 13.81 6.34 20.76 1.9 5.07 4.04 10.09 6.5 14.84 5.14 9.97 11.61 18.82 19.7 24.79 23.67 17.47 50.74 24.55 64.44 27.16-16.77 15.35-31.11 24.81-31.11 24.81Z" fill-opacity=".38" fill="#BC4B59"/><path d="M202.406 132.536c-1.39 11.5-15.28 3.37-18.05-4.57-2.78-7.93-11.71-12.1-14.09-18.64-2.38-6.55 8.13-5.56 8.13-5.56 8.73.99 25.4 17.26 24.01 28.77Z" fill="#FFD6D4"/><path d="M52.396 370.41c-16.71-1.646-31.362 3.775-40.682 14.38-8.979 10.217-11.752 24.035-6.821 36.034l.178.425c3.763 8.774 10.2 14.516 18.133 17.596l.447.169-.138.263c-5.126 9.837-6.276 19.53-2.921 28.087l.155.388c5.256 12.826 19.238 19.326 36.26 18.19 12.475-.836 26.263-8.69 41.64-21.655 6.147-5.182 12.165-10.868 17.873-16.714l.515-.53.2.416c3.647 7.49 7.233 13.783 10.79 18.634l.38.515.597.783c5.464 7.077 11.018 11.158 18.16 10.769 6.7-.369 12.325-3.694 16.84-8.938 3.12-3.622 5.592-8.003 7.607-12.885a68.547 68.547 0 0 0 2.265-6.374l.18-.607c.282-.972.482-1.743.604-2.269a10 10 0 0 0-2.979-9.627l-10.09-9.264 34.282 8.854c7.137 1.843 13.709-4.396 12.322-11.567l-.06-.287-3.92-17.623 49.735-17.064 7.721 24.819c3.135 10.094 13.723 15.808 23.84 12.971l.337-.097.53-.167c8.715-2.876 13.999-11.307 13.3-20.034l-.04-.433.243.12a19.554 19.554 0 0 0 13.797 1.206l.34-.098.404-.127.135-.043a19.555 19.555 0 0 0 10.63-8.487l.268-.46.553 1.78c3.136 10.096 13.738 15.82 23.856 12.967l.337-.098.513-.163c10.392-3.428 15.92-14.755 12.224-25.044l-11.584-32.373.06-.03c10.746-5.764 16.073-18.571 12.142-30.469l-.17-.497-.148-.408c-4.802-12.886-18.95-19.66-31.992-15.305L190.81 356.885l-.01-.152a9.979 9.979 0 0 0-.727-2.987l-.114-.264-11.099-24.77c-3.075-6.863-12.339-8.004-16.987-2.092l-23.883 30.375 1.157-19.83a10 10 0 0 0-2.224-6.89l-.22-.261c-.207-.238-.533-.6-.968-1.062a64.622 64.622 0 0 0-2.32-2.336c-2.468-2.367-5.136-4.586-7.979-6.495-6.422-4.312-12.885-6.57-19.614-5.45-8.865 1.478-15.022 8.423-18.123 19.418-2.986 10.602-2.405 22.203.895 34.432.683 2.53 1.47 5.046 2.35 7.54l.074.203-.688-.13a554.074 554.074 0 0 0-19.884-3.419l-2.163-.324-1.584-.23a326.77 326.77 0 0 0-14.304-1.751Zm-15.827 40.912-.272-.12.032-.005c2.532-.387 6.318-.257 11.13.676l.469.092.78.161c3.952.83 8.345 1.987 13.067 3.417 5.173 1.567 10.504 3.387 15.763 5.335l1.393.519-.27.49c-.34.61-.69 1.225-1.047 1.842l-.541.928c-3.526 5.986-7.332 11.386-11.276 15.74-4.666 5.151-9.18 8.432-13.147 9.585-.655.191-1.282.362-1.88.513l-.471.115.198-.298c2.837-4.243 7.302-9.546 13.375-15.773l1.106-1.126c5.832-5.9 2.35-15.884-5.801-16.945l-1.189-.14-1.3-.17c-.46-.063-.943-.132-1.45-.207-2.892-.43-5.876-.969-8.76-1.618-2.544-.573-4.88-1.205-6.919-1.884a37.967 37.967 0 0 1-2.99-1.127Z" fill="#FFF" fill-rule="nonzero"/><path d="m321.035 351.815 14.52 46.677c1.574 5.064 6.994 7.852 12.024 6.177 5.05-1.667 7.74-7.174 5.942-12.179l-15.006-41.935s-8.935-34.902-17.48 1.26ZM285.55 351.188l13.67 41.79c1.664 5.078 7.123 7.835 12.189 6.155 5.066-1.679 7.802-7.16 6.102-12.221l-11.502-34.211s-11.921-37.683-20.459-1.513ZM256.699 365.685l14.52 46.677c1.573 5.063 6.987 7.844 12.023 6.176 5.05-1.666 7.726-7.174 5.942-12.178l-15.012-41.943s-8.936-34.902-17.473 1.268Z" fill="#EF7B7B"/><path d="M56.34 475.964c26.696-1.789 67.593-51.418 67.593-51.418l220.417-75.624c8.254-2.827 12.555-11.906 9.516-20.086-2.92-7.836-11.525-11.96-19.458-9.311l-217.333 72.501s-36.622-8.811-65.66-11.664c-29.043-2.86-44.412 19.957-37.153 36.946 7.286 16.991 27.21 14.007 27.21 14.007-23.725 25.742-11.821 46.43 14.867 44.649Zm1.526-49.582s-30.475-3.212-33.151-12.454c-2.696-9.265 6.003-15.637 25.191-11.765 19.18 3.878 42.852 13.949 42.852 13.949s-16.054 37.294-37.306 43.47c-21.255 6.204-27.48-2.958 2.414-33.2Z" fill="#FF9897"/><path d="m125.64 396.992.483-8.277 3.042-52.132s-24.008-27.554-31.84.217c-7.824 27.779 16.385 62.449 16.385 62.449l11.93-2.257Z" fill="#CF110D"/><path fill="#CF110D" d="m169.735 332.8-50.693 62.488 8.547 8.123 52.74-45.54z"/><path fill="#CF110D" d="m128.078 409.215 70.294 18.153-5.176-23.266-65.256-4.262zM114.476 415.08s19.092 53.806 32.137 53.095c13.052-.718 18.304-23.348 18.304-23.348l-43.345-39.787-7.096 10.04Z"/><path d="M116.19 415.273c6.541 1.665 13.198-2.288 14.863-8.829 1.665-6.54-2.288-13.196-8.829-14.862-6.54-1.665-13.197 2.288-14.862 8.829-1.665 6.54 2.288 13.197 8.829 14.862Z" fill="#BC1314"/><path d="m242.753 361.682.159.951a4.278 4.278 0 0 0 5.49 3.355l79.615-24.848a4.267 4.267 0 0 0 2.787-5.406c-.723-2.2-3.072-3.428-5.28-2.762l-79.787 23.896a4.283 4.283 0 0 0-2.984 4.814Z" fill-opacity=".459" fill="#FFFDFE"/><path d="M99.718 395.455c1.256-4.944-17.435-9.39-37.01-11.592-19.57-2.195-10.08 7.962-10.08 7.962 33.154 8.444 45.82 8.573 47.09 3.63Z" fill-opacity=".471" fill="#FFFDFE"/></g></svg>