<svg width="214" height="262" xmlns="http://www.w3.org/2000/svg"><g fill="none" fill-rule="evenodd"><path d="M148.952 21.257c13.496 10.11 27.493 23.419 35.847 33.743l.33.412c8.487 10.707 10.36 21.182 7.2 30.008l-.07.191.267.189a67.346 67.346 0 0 1 5.903 4.69c8.044 7.175 13.244 15.548 13.894 25.327l.033.554c.513 9.94-3.023 18.414-9.12 25.203l-.335.365.12.128c.83.901 1.709 1.873 2.64 2.922 4.412 4.964 5.886 11.057 4.548 17.157l-.12.52c-.803 3.276-2.335 6.33-4.433 9.244l-4.416 25.638a10 10 0 0 1-.53 1.914l-25.33 65.39a10 10 0 0 1-7.223 6.165l-1.169.24c-.867.171-2.01.387-3.412.637l-1.55.27c-3.16.54-6.66 1.074-10.46 1.576-13.485 1.781-27.81 2.799-42.347 2.66-19.218-.172-37.29-2.362-53.583-7.035-19.827-5.686-36.382-14.877-48.813-28.121a10 10 0 0 1-2.699-6.409l-2.65-60.85-.01-.323c-.008-.86.093-1.711.298-2.533l.024-.092.014-.282c.177-3.135.793-6.544 1.763-10.259.701-2.685 1.577-5.474 2.588-8.328l.39-1.089a140.073 140.073 0 0 1 2.032-5.24l.343-.83-.014-.068a35.735 35.735 0 0 1-.619-5.387c-.108-2.795.417-5.524 1.446-8.19 1.906-4.938 5.43-9.507 10.12-14.013l.811-.766.73-.67-.05-.089c-3.739-6.941-4.73-14.871-1.371-23.146 3.125-7.695 10.063-14.064 19.622-19.992l1.165-.712c1.169-.703 2.347-1.38 3.527-2.031l1.284-.697-.013-.094c-.72-5.512-.07-11.516 2.29-17.8 3.194-8.532 8.17-13.535 15.997-14.507 2.64-.328 5.23-.163 8.562.38l.596.1c1.595.275 7.7 1.5 8.848 1.714l1.535.278c.502.09.998.174 1.491.255l7.36 1.161.073-.768c.033-.364.067-.753.101-1.169l.188-2.48-1.457.097c-1.284.081-1.95.105-2.889.093-2.098-.027-3.977-.293-5.907-1.036-6.817-2.615-9.814-9.785-7.298-16.48 3.185-8.478 14.06-14.344 28.804-16.37 12.295-1.683 27.544 5.48 45.104 18.635Z" fill="#FFF" fill-rule="nonzero"/><path d="m11.465 173.55 2.65 60.85c23.68 25.23 62.66 31.71 95.2 32 31.35.3 56.74-5.16 56.74-5.16l25.33-65.39 4.84-28.09.83-4.79-5.36-.39-8.24-.59-13.89-1-8.52-.61-14.73-1.06-24.54-1.77-11.78-.84-32.45-2.34-18.57-1.33-9.19-.67-15.64-1.12-4.34 4.27-18.04 17.73-.3.3Z" fill="#86303D"/><path d="M19.405 145.96s-13.61 29.48-4.54 33.64 23.44-5.29 23.44-5.29 3.4 16.63 15.12 19.65c11.71 3.03 15.7-3.74 15.7-3.74s.55 7.14 12.27 9.41c11.71 2.27 12.85-5.29 12.85-5.29s2.64 8.32 13.6 11.72c10.97 3.4 17.01-11.72 17.01-11.72s9.45 10.96 19.66 11.34c10.2.38 15.81-12.48 15.81-12.48s7.24 10.59 14.8 8.32c7.56-2.27 11.34-11.72 11.34-11.72l4.92 6.05 4.88-29.63-176.86-20.26Z" fill="#FC525C"/><path d="M18.275 139.15c.11 2.72.59 4.98 1.23 6.82 1.67 4.81 4.44 6.79 4.44 6.79s2.07 1.05 5.86 2.76c15.9 7.14 62.06 25.71 112.03 25.59 15.54-.04 31.43-1.88 46.9-6.43 0 0 1.98-1.38 4.33-3.59 1.03-.96 2.13-2.09 3.16-3.33 3.83-4.58 6.76-10.73 1.96-16.13-9.07-10.21-10.58-10.21-10.58-10.21s15.87-7.94 14.74-24.94c-1.13-17.01-24.19-27.6-24.19-27.6s13.23-9.82-1.13-27.59c-14.37-17.76-52.54-51.4-71.82-48.76-13.03 1.79-19.5 6.52-20.8 9.98-.62 1.65-.06 3.02 1.53 3.63 4.91 1.89 17.76-4.91 16.63 10.96-1.14 15.88-1.89 15.12-18.52 12.47-16.64-2.64-22.31-6.8-26.84 5.3-4.54 12.09.38 19.65.38 19.65s-23.44 9.83-28.35 21.92c-4.91 12.1 6.05 21.17 6.05 21.17s-17.39 11.72-17.01 21.54Z" fill="#F79CA1"/><path d="M110.115 155.03c-1.13 8.69 4.92 20.41 4.92 20.41s22.67-4.91 22.3-11.34c-.38-6.42-13.61-1.51-13.61-1.51-2.65-10.58-12.47-16.25-13.61-7.56Z" fill="#E83648"/><path d="M100.285 119.69c0 2.82 2.29 5.1 5.11 5.1 2.82 0 5.1-2.28 5.1-5.1s-2.28-5.1-5.1-5.1-5.11 2.28-5.11 5.1ZM95.755 129.14a2.456 2.456 0 1 0-4.91 0 2.456 2.456 0 1 0 4.91 0ZM49.265 150.12c0 2.92 2.37 5.29 5.29 5.29s5.29-2.37 5.29-5.29-2.37-5.29-5.29-5.29-5.29 2.37-5.29 5.29ZM78.745 66.21c0 1.88 1.52 3.4 3.4 3.4s3.4-1.52 3.4-3.4-1.52-3.4-3.4-3.4-3.4 1.52-3.4 3.4ZM91.215 67.72c0 1.67 1.36 3.02 3.03 3.02 1.67 0 3.02-1.35 3.02-3.02s-1.35-3.02-3.02-3.02-3.03 1.35-3.03 3.02ZM152.825 57.52c0 2.5 2.03 4.53 4.54 4.53 2.5 0 4.53-2.03 4.53-4.53a4.535 4.535 0 1 0-9.07 0ZM136.195 55.63a2.646 2.646 0 1 0 5.292-.012 2.646 2.646 0 0 0-5.292.012Z" fill="#C44759"/><path d="M200.455 117.99s-72.2 6.43-142.88-43.47M197.805 153.14s-48.76 23.06-162.53-33.64M177.775 83.6s-49.89-7.94-79.75-29.86" stroke="#E27A84" stroke-width="2.91" stroke-linecap="round" stroke-linejoin="round"/><path stroke="#FC525C" stroke-width="3" stroke-linecap="round" stroke-linejoin="round" d="m160.385 192.83-21.54 71.81M124.855 194.34l-16.16 71.12M97.645 187.92l-14.36 75.59M70.055 187.54l-7.94 72.19M37.925 168.64l-2.27 80.51"/><path d="M172.485 155.41c0-3.76-3.05-6.8-6.81-6.8a6.8 6.8 0 0 0 0 13.6c3.76 0 6.81-3.04 6.81-6.8ZM191.755 161.84a4.155 4.155 0 1 0-8.31 0c0 2.29 1.86 4.15 4.16 4.15 2.29 0 4.15-1.86 4.15-4.15Z" fill="#C44759"/><path d="M160.615 105.81c-.88 6.69 3.78 15.71 3.78 15.71s17.46-3.78 17.17-8.73c-.29-4.95-10.48-1.16-10.48-1.16-2.03-8.15-9.6-12.52-10.47-5.82ZM70.115 82.73s-10.19-3.78-10.48 1.17c-.29 4.94 17.17 8.73 17.17 8.73s4.66-9.02 3.79-15.72c-.88-6.69-8.44-2.33-10.48 5.82ZM115.775 56.35c-.87 6.7 3.79 15.72 3.79 15.72s17.46-3.79 17.17-8.73c-.3-4.95-10.48-1.17-10.48-1.17-2.04-8.15-9.6-12.51-10.48-5.82Z" fill="#E83648"/><path d="M70.115 82.73s-10.19-3.78-10.48 1.17c-.29 4.94 17.17 8.73 17.17 8.73s4.66-9.02 3.79-15.72c-.88-6.69-8.44-2.33-10.48 5.82ZM127.445 122.65s-10.18-3.78-10.47 1.17c-.29 4.95 17.17 8.73 17.17 8.73s4.65-9.02 3.78-15.72c-.87-6.69-8.44-2.32-10.48 5.82ZM56.785 119.67c-.87 6.69 3.78 15.71 3.78 15.71s17.46-3.78 17.17-8.73c-.29-4.94-10.47-1.16-10.47-1.16-2.04-8.15-9.61-12.51-10.48-5.82Z" fill="#E83648"/><path d="M84.665 22.25c.04.08.1.16.16.23 0 0 20.44-12.26 42.04 7.58 11.74 10.78 19.68 28.46 23.83 46.95 2.86 12.74 3.92 25.85 3.18 37.36-.16 2.54-.4 4.99-.74 7.35-1.11 7.75-3.25 20.21-6.01 34.54-.18.93-.37 1.87-.55 2.8a1129.756 1129.756 0 0 1-4.48 21.79c-1.61 7.51-3.33 15.1-5.09 22.44-6.08 25.24-12.8 47.55-18.32 53.87-2.95 3.38-6.07 6.38-9.11 8.98 31.35.3 56.74-5.16 56.74-5.16l25.33-65.39 4.84-28.09c3.83-4.58 6.76-10.73 1.96-16.13-9.07-10.21-10.58-10.21-10.58-10.21s15.87-7.94 14.74-24.94c-1.13-17.01-24.19-27.6-24.19-27.6s13.23-9.82-1.13-27.59c-14.37-17.76-52.54-51.4-71.82-48.76-13.03 1.79-19.5 6.52-20.8 9.98Z" fill-opacity=".322" fill="#FFA4B1"/></g></svg>