<svg width="197" height="271" xmlns="http://www.w3.org/2000/svg"><g fill="none" fill-rule="evenodd"><path d="M148.826 3.688c8.515 2.768 18.423 7.628 25.98 12.934 4.511 3.167 8.197 6.473 10.86 9.95l.268.356c1.592 2.141 2.818 4.37 3.592 6.673l.073.224.107.073c5.314 3.7 5.8 11.714.528 15.961l-.267.21-.088.076c-.147.128-.318.284-.51.47l-.347.343c-3.334 3.365-6.74 8.703-9.361 16.34l-.38 1.139-3.545 10.84-1.147 3.437c-3.776 10.98-7.293 18.04-13.16 25.21l-.348.417a31.404 31.404 0 0 1-6.188 5.603l-.183.123.21.341c3.66 6.02 5.426 12.44 4.42 19.147l-.253 1.65c-1.401 8.945-2.785 14.2-4.012 16.917a10 10 0 0 1-1.722 2.619l-.287.301c-4.981 5.052-13.46 3.442-16.278-3.005l-.514-1.235-.569-1.332c-.345-.798-.721-1.653-1.126-2.554-1.598-3.55-3.332-7.127-5.131-10.492-2.226-4.16-4.39-7.683-6.36-10.28l-.242-.316c-.712-.919-1.37-1.675-1.946-2.25l-.248-.242-5.646 9.896a7045.91 7045.91 0 0 0-12.041 21.229l-5.065 8.986-4.906 8.746-4.778 8.571c-7.098 12.78-12.286 22.363-15.05 27.858l-.712 1.436a54.09 54.09 0 0 0-.835 1.78l-.359.828c-.74 1.734-1.906 4.602-3.464 8.51l-1.332 3.352.057-.1c2.456-4.185 5.852-8.447 10.248-12.769 10.893-10.71 27.405-12.101 46.814-7.587l.607.143c13.006 3.097 27.722 9.326 31.825 13.156a10 10 0 0 1 2.251 11.507l-.359.752c-.119.244-.257.523-.414.834l-.248.49a114.71 114.71 0 0 1-2.712 4.986c-2.946 5.12-6.353 10.243-10.215 15.067-10.795 13.485-23.09 22.307-37.27 23.658l-.671.06c-6.92.59-13.174-.01-18.735-1.635l-.397-.119.336.192a38.892 38.892 0 0 1 5.773 4.107c3.123 2.667 5.982 5.942 8.542 9.837 4.436 6.748 6.263 14.794 6.056 23.701-.178 7.648-1.83 15.562-4.457 23.436a104.666 104.666 0 0 1-3.011 7.947l-.39.903a57.705 57.705 0 0 1-1.087 2.352 10 10 0 0 1-10.41 5.448c-4.869-.715-16.412-6.9-25.278-13.698l-.42-.324c-13.604-10.564-21.726-22.467-20.38-35.9 1.064-10.548 4.17-18.362 9.018-23.624l.342-.364.319-.328-3.131-7.46-6.656 17.262c-3.644 9.465-7.402 19.248-11.177 29.09l-12.202 31.87c-2.087 5.464-8.398 7.979-13.671 5.446l-10.12-4.86a10 10 0 0 1-5.07-12.429l.678-1.722 7.475-18.843A25538.438 25538.438 0 0 1 16.27 269.94l10.472-26.154c9.956-24.786 16.166-39.957 17.868-43.513l.253-.517.572-1.133c.271-.53.583-1.13.937-1.8l1.416-2.668-5.242-12.917-.34-.021c-6.495-.47-13.325-3.013-19.74-8.501-3.115-2.665-5.967-5.934-8.522-9.822-6.903-10.502-7.498-23.7-4.096-38.332 1.12-4.814 2.617-9.476 4.327-13.851a98.5 98.5 0 0 1 1.529-3.695l.48-1.075c.261-.573.477-1.027.637-1.353a10 10 0 0 1 10.69-5.428l.374.069c5.06 1.016 16.65 7.32 25.364 14.147l.456.359.92.738c11.988 9.75 19.272 20.62 18.82 32.747l-.022.495 7.6-13.602 3.353-5.992-.162-.333c-2.493-5.255-2.66-11.57.247-18.191l.091-.202-.06.004c-.917.062-1.743.192-2.458.394-3.044.862-5.346 1.783-6.998 2.684-.451.246-.81.467-1.085.658l-.205.147-.149.16c-5.738 5.964-16.128 2.623-17.09-5.836l-.028-.268c-.017-.217-.017-.217-.032-.48-.213-4.613 1.553-10 6.474-14.693l.306-.287c4.233-3.902 10.159-6.643 17.93-8.153l.299-.057-.006-.06c-.394-4.148-.012-8.421 1.043-12.707 1.588-6.451 4.737-12.756 8.098-16.951l.315-.387c3.698-4.465 8.328-14.677 10.093-23.876l.491-2.597c.64-3.44 1.084-6.073 1.362-7.99l.104-.739c.03-.224.056-.426.078-.607l.07-.62-.003.149a10 10 0 0 1 2.421-6.367l.24-.268.114-.122.21-.215.326-.317c3.553-3.357 8.778-5.346 15.106-4.593l.24.031.154-.086a29.56 29.56 0 0 1 5.231-2.206c6.436-2.03 13.767-2.019 21.683.549Z" fill="#FFF" fill-rule="nonzero"/><path d="m47.18 168.81 3.88.57s10.24-.8 12.31-21.34c2.06-20.54-33.7-38.47-37.58-39.03l6.05 43.11 15.34 16.69Z" fill="#86303D"/><path d="m61.51 194.11-35.72-85.1S10.6 139.6 22.3 157.4s26.79 13.37 26.79 13.37l10.59 26.09 1.83-2.75Z" fill="#5B1D29"/><path d="M130.17 37.74s46.83 13.8 50 3.56c3.18-10.23-19.91-23.38-34.43-28.1-14.52-4.71-22.06 3.09-22.06 3.09l6.49 21.45Z" fill="#7F0505"/><path d="m146.18 35.73-15.23 74.33s14.4 1.71 22.74-8.47c8.34-10.19 10.82-20.41 16.27-36.82 5.45-16.41 13.99-22.69 13.99-22.69-28.52-12.64-37.77-6.35-37.77-6.35Z" fill="#9E0505"/><path d="M148.83 22.99c-2.16-.17-3.64-1.06-3.68-3.5-.04-2.44 10.76 1.01 15.69 4.07 4.93 3.05 10.39 8.26.45 6.27-9.94-2-17.88-5.98-20.76-6.84-2.87-.86-.59 2.31 2.73 4.42 3.31 2.1 23.22 8.19 26.73 5.2 3.5-2.99-9.82-11.62-15.99-13.54s-10.3-2.69-11.86-.16c-1.56 2.54 10.28 10.3 13.87 7.87 3.59-2.44-6.37-5.48-6.37-5.48s1.36 1.86-.81 1.69Z" fill="#540505"/><path d="M107.68 107.02s-49.19 87.45-54.05 97.57C48.78 214.72-.43 338.99-.43 338.99l10.12 4.86S56.42 221.5 62.47 207.8c6.05-13.71 53.44-96.31 53.44-96.31l-8.23-4.47Z" fill="#5B1D29"/><path d="m103.85 251.69 45.34-27.01c-3.47-3.24-47.57-23.43-65.41-5.89-17.85 17.55-10.83 27.83-10.83 27.83l3.48 3.24 27.42 1.83Z" fill="#86303D"/><path d="m40.44 259.33 32.69-9.8s7.26 17.64 32.97 15.18c25.71-2.45 43.09-40.03 43.09-40.03L41.64 255.51l-1.2 3.82Z" fill="#5B1D29"/><path d="m68.66 281.19-3.88-.56s-10.24.8-12.31 21.34c-2.06 20.54 33.7 38.46 37.58 39.03L84 297.89l-15.34-16.7Z" fill="#86303D"/><path d="M54.33 255.9 90.05 341s15.19-30.6 3.49-48.4c-11.7-17.8-26.8-13.36-26.8-13.36l-10.58-26.09-2.65.62.82 2.13Z" fill="#5B1D29"/><path d="M94.81 92.38c-29.56.7-28.37 14.07-28.37 14.07s2.67-3.39 12.87-6.28c10.21-2.89 25.58 2.92 25.58 2.92s19.48-11.41-10.08-10.71Z" fill="#A34053"/><path d="M103.05 101.17s-4.02 1.88-8.89 11.31c-4.86 9.43 1.5 14.2 1.5 14.2s3.41-4.24 9.73-10.2c6.32-5.97 18.09-3.09 18.09-3.09 9.82 3.32 22.47 34.64 22.47 34.64s1.62-3.37 3.5-15.96c1.89-12.59-13.5-23.77-13.5-23.77-7.32 4.44-32.9-7.13-32.9-7.13Z" fill="#86303D"/><path d="M110.82 31.57C108.51 43.61 102.7 55 98.6 59.95c-4.11 4.95-11.8 20.29-3.79 32.43 8.01 12.14 33.13 21.07 41.14 15.92 8-5.16 23.77-21.46 24.46-38.77.69-17.31-14.71-37.84-28-48.36-13.29-10.52-19.31-3.73-19.31-3.73s.03 2.09-2.28 14.13Z" fill="#B90A03"/></g></svg>