<svg width="421" height="577" xmlns="http://www.w3.org/2000/svg"><g fill="none" fill-rule="evenodd"><path d="M175.913.096c12.692-.817 23.637 3.607 31.47 12.327 9.117 10.157 13.212 25.26 11.91 41.286-.92 11.425-5.26 23.663-11.938 35.598l-.567 1 .226.206c7.86 7.234 13.293 16.828 15.531 27.9l.038.191.187-.21a140.585 140.585 0 0 1 5.493-5.836l.955-.947c12.426-12.202 25.094-19.97 38.186-20.805 12.724-.816 23.692 3.62 31.532 12.36 9.135 10.175 13.24 25.321 11.927 41.37-.993 12.36-5.966 25.637-13.682 38.654-6.308 10.641-14.224 20.572-20.967 26.618l-.714.635c-4.142 3.653-11.187 9.38-20.502 16.735l-4.418 3.476-2.536 1.986a2503.55 2503.55 0 0 1-9.973 7.755l-4.33 3.343 2.379 7.523c1.501 4.75-.716 9.566-4.692 11.772l-.172.092.105.57c1.962 10.895 1.941 21.748-.322 32.083l-.179.794c-1.745 7.56-4.489 13.69-9.433 21.484l-4.181 6.452-.204.323c-3.25 5.226-4.15 8.148-3.857 12.187l.026.33c.304 3.487.462 3.752 3.773 6.247l1.476 1.105c8.307 6.309 12.118 12.766 13.393 23.413 1.27 10.571.224 21.706-2.826 32.94a93.923 93.923 0 0 1-2.331 7.399l-.311.841-.317.825-.195.489-.27.654-.073.174c-2.535 5.823-9.31 8.49-15.134 5.955a11.5 11.5 0 0 1-6.345-14.108 10 10 0 0 1 .242-.662l.272-.672.19-.485.11-.288.228-.616a70.73 70.73 0 0 0 1.738-5.532c2.307-8.499 3.083-16.712 2.185-24.174l-.115-.898c-.497-3.577-1.187-4.537-4.288-6.89l-1.064-.796c-8.681-6.463-12.34-12.478-13.25-22.925-.82-9.399 1.312-17.01 6.879-26.119l.595-.956 3.895-6.006.344-.538c3.613-5.686 5.326-9.51 6.437-14.325 1.924-8.338 1.738-17.49-.373-26.821l-.07-.304h-3.831c-7.152 0-11.964-7.275-9.238-13.828l.101-.237 4.47-10.045-1.49-1.336a371.05 371.05 0 0 1-24.111-23.868l-.757-.828-.597.591-1.288 1.263a507.74 507.74 0 0 1-7.685 7.395l-1.11 1.04.262.828c.849 2.736 1.661 5.574 2.423 8.48l.377 1.458c3.535 13.895 5.402 27.143 5.366 39.33-.036 12.405-2.066 23.328-6.302 32.676l-.207.447.307.117c6.037 2.362 10.89 7.598 12.363 14.727l.078.398c1.477 7.862-2.148 15.059-8.885 18.56a18.74 18.74 0 0 1-4.188 1.57l-.298.07 3.375 8.087.561 1.374.565 1.403c1.829 4.584 3.15 8.281 4.243 11.908 4.775 15.831 4.724 29.982-.347 46.58-1.856 6.075-8.284 9.495-14.358 7.639-6.074-1.856-9.494-8.284-7.638-14.358 3.683-12.058 3.773-21.443.512-32.584l-.189-.635-.274-.89c-.936-2.987-2.122-6.211-3.814-10.384l-.896-2.182-5.509-13.192c-.149-.362-.278-.677-.388-.949-3.435-8.463-4.328-16.526-2.274-23.345l.112-.36-.017-.435c-.193-6.366 1.584-13.4 5.14-20.826l.292-.603.237-.478c3.136-6.273 4.77-14.448 4.8-24.403.016-5.514-.454-11.404-1.385-17.584l-.046-.291-.064.097a10 10 0 0 1-3.977 3.372l-.087.039.035.175c2.581 13.525 2.153 26.782-1.706 39.198l-.183.579c-.033.12-.067.24-.104.361l-.117.365-1.088 3.23-1.287 3.762-3.526 10.203-1.03 3.015c-1.915 5.628-3.403 10.212-4.562 14.08l-.238.799.189.124.305.211.38.28.208.16c4.73 3.738 6.167 9.447 5.286 15.304-.735 4.887-2.958 9.437-6.413 12.612a16.966 16.966 0 0 1-3.301 2.381l-.497.261.092.072c17.026 13.445 23.57 42.142 7.575 53.483l-.502.345c-5.283 3.524-12.424 2.098-15.948-3.186-3.292-4.936-2.265-11.491 2.192-15.206l.262-.213.02-.104c.2-1.151.082-2.926-.435-4.976-1.217-4.826-4.198-9.643-7.566-12.208l-.27-.202c-14.248-10.455-17.228-27.2-7.519-40.076l.244-.318.02-.132c.141-.888.306-1.812.496-2.777l.147-.73.099-.474.244-1.125c1.458-6.568 3.832-14.403 7.965-26.52l4.957-14.378 1.552-4.553.024-.084.116-.365c3.195-9.577 3.347-20.482.683-31.92l-.134-.561h-.268c-6.574.002-11.31-6.21-9.69-12.484l.071-.258.076-.254 2.171-6.911-.233-.17a278.87 278.87 0 0 1-3.34-2.481l-.697-.528a311.783 311.783 0 0 1-21.865-18.23c-26.295-24.084-45.377-49.76-52.45-76.254a84.53 84.53 0 0 1-1.65-7.306c-.844-4.739-1.22-9.216-1.113-13.408.3-13.97 5.618-25.62 14.96-33.28a39.553 39.553 0 0 1 7.474-4.9l.306-.152-.206-.362C46.732 73.72 42.863 63.852 41.263 54.43l-.116-.706C37.123 28.21 50.559 6.52 72.88 1.774c19.43-4.13 40.214 5.434 56.905 26.628l.426.546.58-.665a140.413 140.413 0 0 1 6.36-6.78l.952-.939C150.414 8.552 162.957.92 175.913.096Z" fill="#FFF" fill-rule="nonzero"/><path d="M127.258 249.003a1.5 1.5 0 0 1 1.95.836l.215.57.206.575c.107.306.22.638.337.995a75.578 75.578 0 0 1 1.632 5.758c3.172 13.06 3.518 26.86-.892 40.03l.082-.197-1.079 3.203a973.875 973.875 0 0 1-1.271 3.714l-3.535 10.233-1.037 3.031c-3.895 11.452-6.226 19.145-7.548 25.412-.176.835-.329 1.63-.46 2.384l-.054.32.239-.172c2.924-2.09 5.418-2.614 7.207-1.348l.166.124c1.51 1.194 1.98 3.43 1.597 5.971-.823 5.473-4.808 9.832-9.435 7.977-1.743-.697-2.751-2.223-3.14-4.56l-.047-.303-.13.198c-4.297 6.661-2.65 14.566 5.227 20.518l.314.234c12.856 9.43 18.607 31.52 8.505 38.258a1.5 1.5 0 0 1-1.665-2.496c7.852-5.237 2.91-24.572-8.274-33.088l-.34-.255c-10.774-7.905-11.866-19.45-3.797-27.942l.143-.15.02-.214c.166-1.674.47-3.55.896-5.627l.093-.448c1.38-6.545 3.804-14.506 7.878-26.449l4.967-14.408 1.795-5.262-.081.196c4.123-12.36 3.79-25.617.74-38.176a73.83 73.83 0 0 0-1.388-4.98l-.177-.548a52.41 52.41 0 0 0-.318-.938l-.307-.846a11.25 11.25 0 0 0-.07-.18 1.5 1.5 0 0 1 .836-1.95Zm-5.703 97.822c-.494-.391-1.713-.157-3.769 1.312a24.654 24.654 0 0 0-2.29 1.843l-.197.183-.013.278c-.122 2.93.347 4.673 1.315 5.151l.092.041c2.294.92 4.776-1.793 5.353-5.637.24-1.589-.013-2.794-.49-3.171ZM148.84 220.215a1.5 1.5 0 0 1 1.936.865l.354.962.088.249c.304.85.637 1.82.994 2.9l.155.468a186.709 186.709 0 0 1 3.474 11.995c3.19 12.538 5.092 25.089 5.058 36.834-.034 11.33-1.89 21.317-5.884 29.59l-.289.589c-2.766 5.53-4.128 10.285-4.322 14.168l-.004.1.184-.15a10.853 10.853 0 0 1 1.919-1.241l.233-.116c6.036-2.897 13.28.39 14.573 7.3 1.381 7.356-6.704 11.076-13.379 7.436-1.84-1.004-3.318-2.387-4.399-4.112l-.229-.382-.012.11c-.302 3.168.357 7.143 2.194 11.805l.518 1.275 5.881 14.09.552 1.351c1.97 4.861 3.37 8.694 4.501 12.442 4.109 13.621 4.253 25.747-.337 40.771a1.5 1.5 0 1 1-2.869-.877c4.336-14.192 4.278-25.564.534-38.354l-.2-.674c-1.1-3.648-2.472-7.403-4.412-12.188l-.919-2.234-5.489-13.145-.37-.902c-3.08-7.59-3.345-13.947-1.345-18.355l.083-.176-.023-.157c-.675-4.954.616-11.304 4.234-18.683l.22-.444c3.963-7.925 5.823-17.674 5.856-28.846.033-11.46-1.833-23.773-4.966-36.085a184.864 184.864 0 0 0-3.149-10.973l-.268-.828c-.357-1.088-.69-2.068-.995-2.932l-.37-1.034-.177-.476a1.5 1.5 0 0 1 .865-1.936Zm15.52 105.067c-.918-4.907-6.014-7.219-10.326-5.149a7.725 7.725 0 0 0-3.182 2.805l-.12.19.031.141c.67 2.803 2.195 4.875 4.407 6.15l.197.111c4.717 2.573 9.832.22 8.993-4.248ZM216.798 253.661a1.5 1.5 0 0 1 1.931.878l.136.378.048.14c.14.408.294.884.46 1.425a71.762 71.762 0 0 1 1.383 5.228c2.37 10.476 2.88 21.69.36 32.613-1.526 6.611-3.938 11.763-8.08 18.292l-4.024 6.207c-.188.294-.346.543-.46.727-4.258 6.843-5.893 11.895-5.303 18.667.58 6.653 2.428 9.38 7.746 13.388l1.417 1.06c5.904 4.483 8.525 8.4 9.512 16.643 1.162 9.66.036 19.61-2.547 29.126a83.664 83.664 0 0 1-2.062 6.555l-.288.78c-.14.37-.272.712-.397 1.022l-.27.654a1.5 1.5 0 0 1-2.802-1.062l.287-.707.245-.625c.128-.332.263-.694.405-1.084a80.677 80.677 0 0 0 1.986-6.319c2.49-9.173 3.575-18.752 2.464-27.983-.878-7.336-3.042-10.583-8.345-14.61l-1.08-.807c-6.184-4.603-8.582-7.995-9.26-15.771-.64-7.34 1.09-12.902 5.43-20.002l.314-.51c.847-1.361 3.947-6.093 4.074-6.291 4.24-6.59 6.627-11.58 8.115-18.025 2.406-10.426 1.915-21.205-.363-31.276a70.015 70.015 0 0 0-1.174-4.513l-.15-.496a49.067 49.067 0 0 0-.269-.847l-.317-.924a1.5 1.5 0 0 1 .878-1.93Z" fill="#E83648" fill-rule="nonzero"/><path d="M129.625 45.826s23.46-34.26 46.93-35.75c10.1-.65 17.91 2.93 23.39 9.03 7.27 8.1 10.45 20.63 9.38 33.8-1.86 23.09-20.48 48.79-31.28 58.48-10.79 9.68-47.31 37.61-47.31 37.61l4.47 14.16h-22.35l7.46-16.76s-10.6-8.77-23.54-22.05c-18.51-18.99-41.8-47.2-45.75-72.18-6.7-42.48 44.33-63.7 78.6-6.34Z" fill="#E83648"/><path d="M96.775 124.346c15.75-2.95 41.06-10.3 62.65-28.62 15.56-13.19 25.68-31.93 32.08-48.44 1.45-3.74 2.7-7.37 3.79-10.8a193.36 193.36 0 0 0 4.65-17.38c7.27 8.1 10.45 20.63 9.38 33.8-1.86 23.09-20.48 48.79-31.28 58.48-10.79 9.68-47.31 37.61-47.31 37.61l4.47 14.16h-22.35l7.46-16.76s-10.6-8.77-23.54-22.05Z" fill="#DE1C30"/><path d="M176.185 35.396s-10.06-1.49-10.06-5.22c0-3.72 13.78-11.17 21.23-3.72 7.45 7.45 16.02 20.49 5.59 20.86-10.43.37-10.43-11.55-16.76-11.92Z" fill="#F1A4A7"/><path d="M220.985 136.636s23.53-34.35 47.06-35.85c10.13-.65 17.96 2.94 23.45 9.06 7.29 8.12 10.48 20.69 9.4 33.89-1.86 23.15-20.53 48.92-31.36 58.63-10.82 9.71-47.44 37.71-47.44 37.71l4.49 14.2h-22.41l7.48-16.81s-10.63-8.79-23.6-22.11c-18.56-19.03-41.92-47.32-45.87-72.37-6.72-42.58 44.45-63.86 78.8-6.35Z" fill="#F35E75"/><path d="M188.055 215.356c15.79-2.95 41.16-10.32 62.81-28.69 15.6-13.22 25.76-32.01 32.17-48.57 1.45-3.74 2.7-7.39 3.8-10.82 2.18-6.87 3.68-12.92 4.66-17.43 7.29 8.12 10.48 20.69 9.4 33.89-1.86 23.15-20.53 48.92-31.36 58.63-10.82 9.71-47.44 37.71-47.44 37.71l4.49 14.2h-22.41l7.48-16.81s-10.63-8.79-23.6-22.11Z" fill="#EB4B59"/><path d="M267.665 126.176s-10.08-1.49-10.08-5.23c0-3.73 13.82-11.2 21.29-3.73 7.47 7.47 16.06 20.54 5.6 20.91-10.46.38-10.46-11.58-16.81-11.95Z" fill="#F1A4A7"/><path d="M51.375 97.096c4.12-3.43 9.13-5.65 14.64-6.67 19.71-3.692 45.71 8.16 59.47 37.17 0 0 3.38-6.65 9.09-14.58 2.73-3.81 5.99-7.91 9.68-11.72 3.12-3.22 6.57-6.26 10.22-8.69 3.79-2.55 7.85-4.46 12.05-5.32 1.77-.39 3.57-.57 5.38-.552 8.15.122 16.07 2.512 22.77 6.832 12.03 7.77 20.19 21.84 18.88 40.43-.21 3.28-.74 6.71-1.59 10.28-.12.51-.25 1.02-.39 1.52-1.83 6.39-5.6 13.5-10.58 20.86-2.65 3.92-5.64 7.91-8.87 11.93-5.81 7.24-12.35 14.47-18.92 21.26-3.02 3.13-6 6.13-8.95 9.01-6.5 6.39-12.7 12.11-17.88 16.76-2.63 2.37-4.99 4.47-7.01 6.2-4.42 3.85-7.13 6.08-7.13 6.08l5.95 13.08h-19.45l4.36-13.88s-14.33-9.46-31.11-24.81c-19.39-17.76-42.06-43.43-49.56-71.52-.58-2.12-1.06-4.26-1.45-6.42-.73-4.1-1.05-7.91-.96-11.44.25-11.62 4.63-20.29 11.36-25.81Z" fill="#F49BA2"/><path d="m166.525 87.286 25.18 25.02 21.85 21.69c-.21 3.28-.74 6.71-1.59 10.28-.12.51-.25 1.02-.39 1.52l-22.61-21.06-34.49-32.13c3.79-2.55 7.85-4.46 12.05-5.32ZM144.255 101.296l38.37 44.2 18.37 21.16c-2.65 3.92-5.64 7.91-8.87 11.93l-16-18.25-41.55-47.32c2.73-3.81 5.99-7.91 9.68-11.72ZM66.015 90.426l107.19 109.42c-3.02 3.13-6 6.13-8.95 9.01L51.375 97.096c4.12-3.43 9.13-5.65 14.64-6.67ZM146.375 225.616c-2.63 2.37-4.99 4.47-7.01 6.2l-96.94-91.05c-.58-2.12-1.06-4.26-1.45-6.42-.73-4.1-1.05-7.91-.96-11.44l106.36 102.71Z" fill="#F35E75"/><path d="M91.985 212.286c13.7-2.61 40.78-9.69 64.45-27.16 8.09-5.97 14.55-14.82 19.69-24.79 2.47-4.75 4.61-9.76 6.5-14.84 2.59-6.95 4.67-14.03 6.34-20.76 1.08-4.34 1.98-8.52 2.74-12.43 1.53-7.71 2.44-14.29 2.97-18.74 12.03 7.77 20.19 21.84 18.88 40.43-.21 3.28-.74 6.71-1.59 10.28-.12.51-.25 1.02-.39 1.52-1.83 6.39-5.6 13.5-10.58 20.86-2.65 3.92-5.64 7.91-8.87 11.93-5.81 7.24-12.35 14.47-18.92 21.26-3.02 3.13-6 6.13-8.95 9.01-6.5 6.39-12.7 12.11-17.88 16.76-2.63 2.37-4.99 4.47-7.01 6.2-4.42 3.85-7.13 6.08-7.13 6.08l5.95 13.08h-19.45l4.36-13.88s-14.33-9.46-31.11-24.81Z" fill-opacity=".38" fill="#BC4B59"/><path d="M75.295 97.646s10.51-.99 8.13 5.56c-2.38 6.54-11.3 10.71-14.08 18.64-2.78 7.94-16.66 16.07-18.05 4.57-1.39-11.51 15.27-27.77 24-28.77Z" fill="#FFD6D4"/><path d="m233.537 307.474-.782.189c-9.352 2.321-17.854 6.552-25.333 12.447l-.687.547-.303.19c-8.416 5.315-16.192 13.991-23.23 26.338-24.936 43.73-27.808 60.306-14.257 94.753 6.049 15.371 22.542 37.576 46.296 64.682 8.242 9.403 16.82 18.765 25.281 27.7l2.071 2.182a960.702 960.702 0 0 0 5.783 6.02l2.139 2.2 2.17 2.21.205.206a10 10 0 0 0 10.969 2.18l.368-.162c.571-.261 1.33-.612 2.262-1.049l1.346-.634a541.597 541.597 0 0 0 7.163-3.455l.781-.384a612.567 612.567 0 0 0 24.787-12.918l1.07-.59c22.76-12.608 41.67-25.102 54.525-37.017l.394-.368.73-.448c25.75-15.923 44.118-33.619 52.694-53.579 13.044-30.363 8.416-64.1-11.684-84.555l-.667-.668c-20.343-20.086-51.413-23.043-85.946-6.672l-.869.416.27.38c-3.947-5.601-8.5-11.198-13.63-16.453-8.144-8.34-16.986-15.042-26.554-19.47-11.996-5.55-24.576-7.232-37.362-4.218Z" fill="#FFF" fill-rule="nonzero"/><path d="M357.57 477.107c-23.58 29.38-97.58 62.99-97.58 62.99s-69.01-69.47-81.74-101.82c-12.73-32.36-9.01-46.42 13.64-86.14 22.64-39.72 46-24.74 46-24.74s143.25 120.33 119.68 149.71Z" fill="#D33545"/><path d="M400.79 434.767c-23.38 54.42-131.79 85.51-131.79 85.51s-72.07-80.5-81.2-110.85c-9.12-30.35 6.53-82.44 48.03-92.22 41.5-9.78 71.58 43.09 71.58 43.09 75.45-42.55 116.76 20.05 93.38 74.47Z" fill="#F1444F"/><path d="M305.462 359.847a2 2 0 0 1 3.926.753l-.56 2.445-5.271 22.742-4.58 19.665c-2.609 11.177-5.19 22.195-7.685 32.785l-4.71 19.925c-8.82 37.152-14.375 59.572-15.708 62.82l-.428.968a335.54 335.54 0 0 1-2.05 4.485l-.896 1.917-1.216 2.574a835.947 835.947 0 0 1-1.889 3.95l-1.68 3.472-.659 1.35a2 2 0 0 1-3.654-1.619l.184-.39 1.57-3.233 1.267-2.63c.63-1.315 1.253-2.623 1.858-3.904l.97-2.064 1.01-2.17a278.225 278.225 0 0 0 1.909-4.216c1.08-2.454 6.572-24.592 15.005-60.068l4.602-19.446 3.78-16.076c2.77-11.806 5.611-23.982 8.449-36.184l6.456-27.85Z" fill="#AF192F" fill-rule="nonzero"/><path d="M183.938 381.943a2 2 0 0 1 2.147-.62l206.32 66.54a2 2 0 0 1-1.228 3.807l-205.038-66.127-13.595 16.228a2 2 0 0 1-2.688.35l-.13-.101a2 2 0 0 1-.248-2.817l14.46-17.26Z" fill="#AF192F" fill-rule="nonzero"/><path d="M303.403 401.927c-2.476 2.982-4.745 6.168-6.763 9.353a89.726 89.726 0 0 0-1.634 2.678l-.501.871-.408.735a2 2 0 0 0 1.22 2.868c13.7 3.868 27.585.1 36.352-8.259 8.569-8.168 9.003-18.23-.955-21.487-9.143-2.996-18.398 2.51-27.311 13.241Zm26.065-9.44c6.413 2.097 6.14 8.405-.559 14.791l-.317.298c-7.146 6.605-18.062 9.875-29.194 7.718l-.476-.096.017-.029c.334-.554.694-1.139 1.08-1.749 1.932-3.05 4.104-6.099 6.46-8.937 7.964-9.589 15.91-14.315 22.989-11.996Z" fill="#AF192F" fill-rule="nonzero"/><path d="M259.55 382.482c-.107 3.446 2.086 7.959 6.034 13.189 7.198 9.534 19.198 19.949 26.816 23.131a2 2 0 0 0 2.762-1.656l.01-.284v-.41c-.01-2.084-.157-4.718-.52-7.698-.537-4.407-1.457-8.72-2.849-12.728-3.89-11.207-10.856-18.447-21.544-19.568-6.64-.7-10.563 1.381-10.708 6.024Zm10.291-2.046c8.9.934 14.752 7.016 18.183 16.901 1.29 3.715 2.152 7.757 2.657 11.901l.066.558c.148 1.293.252 2.51.32 3.628l.014.245-.17-.098c-6.878-4.019-16.252-12.519-22.134-20.31-3.436-4.551-5.299-8.385-5.228-10.654.056-1.804 1.666-2.658 6.292-2.171Z" fill="#AF192F" fill-rule="nonzero"/><path d="M294.805 417.063a2 2 0 1 1 3.832 1.148c-1.223 4.08-.461 6.053 2.858 8.896l.617.515 2.439 1.971c2.976 2.472 4.872 4.666 6.21 7.686 2.247 5.093 1.19 9.41-2.317 11.914a9.177 9.177 0 0 1-.502.335l-.062.036.022.225c.241 3.08-1.114 6.473-3.643 9.533l-.22.261c-4.091 4.792-9.742 7.19-13.218 4.263-1.997-1.685-2.786-3.619-2.152-5.546.463-1.406 1.56-2.47 3.06-3.356 1.013-.596 2-.996 2.706-1.216a2 2 0 0 1 1.333 3.768l-.356.124c-.095.035-.212.08-.345.134-.45.182-.9.397-1.306.636-.743.438-1.2.883-1.292 1.16-.017.05-.015.082.025.182.108.263.393.623.905 1.055 1.223 1.03 4.752-.467 7.598-3.801 1.73-2.027 2.717-4.098 2.874-5.916l.008-.124-.15.018c-1.632.17-3.205-.096-4.36-.851l-.198-.139c-2.037-1.508-3.244-4.718-2.507-6.854.585-1.698 2.234-2.467 4.058-1.935 1.356.395 2.9 1.497 4.726 3.33.345.348.652.71.923 1.083l.065.094.148-.127c1.493-1.356 1.866-3.429.642-6.38l-.124-.288c-1.043-2.354-2.562-4.114-5.107-6.226l-2.55-2.063c-4.857-3.996-6.454-7.492-4.64-13.545Zm5.943 28.619.053.109c.198.385.458.753.746.966.126.093.355.171.656.216l.044.005-.085-.082a16.905 16.905 0 0 0-1.16-1.02l-.254-.194ZM290.134 415.762a2 2 0 1 1 3.793 1.27l-.102.294a36.6 36.6 0 0 1-.798 2.019 39.28 39.28 0 0 1-2.559 5.014c-1.106 1.815-2.287 3.372-3.552 4.611l-.38.359.015.09c.032.21.061.422.086.634l.036.32c.656 6.413-2.216 11.483-8.334 11.938-.232.018-.467.031-.703.04-2.586.105-5.053-.206-8.418-.917l-3.229-.69c-1.125-.231-1.815-.357-2.243-.41l-.226-.024.009.042c.189.904.784 2.334 1.835 4.323l4.824 8.987c.882 1.614 1.14 2.01 1.315 2.124l.027.016.053.021.142.029c.046.01.098.026.164.057l.07.038c.261.15 1.611-1.227 5.019-6.882a2 2 0 1 1 3.426 2.064l-.454.75c-1.92 3.146-3.237 5.024-4.424 6.235-1.775 1.81-3.67 2.39-5.566 1.297-1.156-.666-2.112-1.846-3.33-3.905l-.373-.645a64.12 64.12 0 0 1-.607-1.109l-1.732-3.252-2.225-4.212c-2.683-5.133-3.162-7.955-.56-9.426 1.044-.59 2.26-.629 3.987-.365l.455.074c.314.055.651.12 1.032.199l.91.195 1.983.439c3.354.73 5.667 1.044 7.974.95.192-.007.381-.018.568-.032 3.182-.236 4.809-2.64 4.723-6.425l-.006-.188-.136.05a8.691 8.691 0 0 1-2.318.464l-.301.013c-4.48.12-7.681-2.962-8.121-6.918-.457-4.113 2.352-7.404 6.765-6.674 2.725.451 5.042 2.83 6.495 6.012l.093.209.132-.16c.5-.624.993-1.324 1.478-2.094l.207-.334a35.354 35.354 0 0 0 2.295-4.502c.138-.324.264-.633.38-.925l.302-.793c.05-.138.085-.238.104-.295Zm-12.14 6.828c-1.57-.26-2.32.62-2.136 2.286.22 1.97 1.729 3.423 4.04 3.362.654-.018 1.315-.192 1.976-.512l.144-.073-.09-.26c-.9-2.526-2.391-4.434-3.79-4.773l-.144-.03Z" fill="#AF192F" fill-rule="nonzero"/><path d="M400.5 421.917c-5.16 10.53-13.69 7.05-14.05-20.3-.36-27.35-24.44-25.03-24.65-33.96-.21-8.93 10.02-6.03 10.02-6.03 31.4 10.8 33.84 49.76 28.68 60.29ZM249.14 477.257c-5.1.32-31.72-33.2-34.52-46.22-2.8-13.01 10.43-6.88 10.43-6.88 40.21 48.29 29.19 52.77 24.09 53.1Z" fill-opacity=".278" fill="#FAFBF6"/><path d="M74.71 351.133c-13.496 10.112-27.493 23.42-35.846 33.744l-.33.412c-8.488 10.707-10.36 21.182-7.2 30.008l.07.191-.268.188a67.346 67.346 0 0 0-5.903 4.691c-8.044 7.175-13.244 15.548-13.893 25.327l-.033.554c-.514 9.94 3.022 18.414 9.12 25.202l.334.366-.119.127c-.83.902-1.71 1.874-2.64 2.922-4.413 4.964-5.887 11.058-4.548 17.158l.12.52c.802 3.276 2.335 6.33 4.432 9.244l4.417 25.638a10 10 0 0 0 .53 1.914l25.33 65.39a10 10 0 0 0 7.222 6.164l1.17.24c.866.172 2.01.388 3.411.637l1.55.27c3.16.54 6.66 1.074 10.46 1.577 13.485 1.781 27.811 2.798 42.347 2.66 19.218-.172 37.29-2.363 53.584-7.035 19.827-5.686 36.381-14.877 48.812-28.122a10 10 0 0 0 2.7-6.408l2.65-60.85.009-.323c.009-.86-.093-1.712-.298-2.533l-.024-.092-.014-.282c-.176-3.136-.792-6.544-1.762-10.259-.702-2.685-1.577-5.475-2.588-8.328l-.391-1.089a140.073 140.073 0 0 0-2.031-5.24l-.344-.83.014-.068c.334-1.716.544-3.513.62-5.387.108-2.796-.417-5.524-1.446-8.19-1.907-4.938-5.43-9.507-10.121-14.013l-.81-.767-.73-.67.049-.088c3.74-6.942 4.73-14.871 1.372-23.146-3.125-7.696-10.064-14.064-19.623-19.992l-1.165-.712a107.934 107.934 0 0 0-3.527-2.031l-1.284-.697.013-.094c.72-5.512.07-11.516-2.289-17.8-3.194-8.533-8.17-13.535-15.998-14.507-2.64-.328-5.23-.163-8.562.38l-.596.1c-1.595.274-7.7 1.499-8.847 1.713l-1.535.28c-.503.088-.999.173-1.492.254l-7.359 1.161-.074-.768c-.033-.364-.066-.753-.1-1.17l-.189-2.48 1.458.097c1.283.082 1.95.105 2.888.093 2.098-.026 3.977-.292 5.907-1.035 6.817-2.615 9.814-9.785 7.299-16.48-3.186-8.478-14.061-14.344-28.805-16.37-12.295-1.683-27.544 5.48-45.103 18.634Z" fill="#FFF" fill-rule="nonzero"/><path d="m212.198 503.427-2.65 60.85c-23.68 25.23-62.66 31.71-95.2 32-31.35.3-56.74-5.16-56.74-5.16l-25.33-65.39-4.84-28.09-.83-4.79 5.36-.39 8.24-.59 13.89-1 8.52-.61 14.73-1.06 24.54-1.77 11.78-.84 32.45-2.34 18.57-1.33 9.19-.67 15.64-1.12 4.34 4.27 18.04 17.73.3.3Z" fill="#86303D"/><path d="M204.258 475.837s13.61 29.48 4.54 33.64-23.44-5.29-23.44-5.29-3.4 16.63-15.12 19.65c-11.71 3.03-15.7-3.74-15.7-3.74s-.55 7.14-12.27 9.41c-11.71 2.27-12.85-5.29-12.85-5.29s-2.64 8.32-13.6 11.72c-10.97 3.4-17.01-11.72-17.01-11.72s-9.45 10.96-19.66 11.34c-10.2.38-15.81-12.48-15.81-12.48s-7.24 10.59-14.8 8.32c-7.56-2.27-11.34-11.72-11.34-11.72l-4.92 6.05-4.88-29.63 176.86-20.26Z" fill="#FC525C"/><path d="M205.388 469.027c-.11 2.72-.59 4.98-1.23 6.82-1.67 4.81-4.44 6.79-4.44 6.79s-2.07 1.05-5.86 2.76c-15.9 7.14-62.06 25.71-112.03 25.59-15.54-.04-31.43-1.88-46.9-6.43 0 0-1.98-1.38-4.33-3.59-1.03-.96-2.13-2.09-3.16-3.33-3.83-4.58-6.76-10.73-1.96-16.13 9.07-10.21 10.58-10.21 10.58-10.21s-15.87-7.94-14.74-24.94c1.13-17.01 24.19-27.6 24.19-27.6s-13.23-9.82 1.13-27.59c14.37-17.76 52.54-51.4 71.82-48.76 13.03 1.79 19.5 6.52 20.8 9.98.62 1.65.06 3.02-1.53 3.63-4.91 1.89-17.76-4.91-16.63 10.96 1.14 15.88 1.89 15.12 18.52 12.47 16.64-2.64 22.31-6.8 26.84 5.3 4.54 12.09-.38 19.65-.38 19.65s23.44 9.83 28.35 21.92c4.91 12.1-6.05 21.17-6.05 21.17s17.39 11.72 17.01 21.54Z" fill="#F79CA1"/><path d="M113.548 484.907c1.13 8.69-4.92 20.41-4.92 20.41s-22.67-4.91-22.3-11.34c.38-6.42 13.61-1.51 13.61-1.51 2.65-10.58 12.47-16.25 13.61-7.56Z" fill="#E83648"/><path d="M123.378 449.567c0 2.82-2.29 5.1-5.11 5.1-2.82 0-5.1-2.28-5.1-5.1s2.28-5.1 5.1-5.1 5.11 2.28 5.11 5.1ZM127.908 459.017a2.456 2.456 0 1 1 4.91 0 2.456 2.456 0 1 1-4.91 0ZM174.398 479.997c0 2.92-2.37 5.29-5.29 5.29s-5.29-2.37-5.29-5.29 2.37-5.29 5.29-5.29 5.29 2.37 5.29 5.29ZM144.918 396.087c0 1.88-1.52 3.4-3.4 3.4s-3.4-1.52-3.4-3.4 1.52-3.4 3.4-3.4 3.4 1.52 3.4 3.4ZM132.448 397.597c0 1.67-1.36 3.02-3.03 3.02-1.67 0-3.02-1.35-3.02-3.02s1.35-3.02 3.02-3.02 3.03 1.35 3.03 3.02ZM70.838 387.397c0 2.5-2.03 4.53-4.54 4.53-2.5 0-4.53-2.03-4.53-4.53a4.535 4.535 0 1 1 9.07 0ZM87.468 385.507a2.646 2.646 0 1 1-5.292-.012 2.646 2.646 0 0 1 5.292.012Z" fill="#C44759"/><path d="M23.208 447.867s72.2 6.43 142.88-43.47M25.858 483.017s48.76 23.06 162.53-33.64M45.888 413.477s49.89-7.94 79.75-29.86" stroke="#E27A84" stroke-width="2.91" stroke-linecap="round" stroke-linejoin="round"/><path stroke="#FC525C" stroke-width="3" stroke-linecap="round" stroke-linejoin="round" d="m63.278 522.706 21.54 71.81M98.808 524.216l16.16 71.12M126.018 517.796l14.36 75.59M153.608 517.416l7.94 72.19M185.738 498.516l2.27 80.51"/><path d="M51.178 485.287c0-3.76 3.05-6.8 6.81-6.8a6.8 6.8 0 0 1 0 13.6c-3.76 0-6.81-3.04-6.81-6.8ZM31.908 491.717a4.155 4.155 0 1 1 8.31 0c0 2.29-1.86 4.15-4.16 4.15-2.29 0-4.15-1.86-4.15-4.15Z" fill="#C44759"/><path d="M63.048 435.687c.88 6.69-3.78 15.71-3.78 15.71s-17.46-3.78-17.17-8.73c.29-4.95 10.48-1.16 10.48-1.16 2.03-8.15 9.6-12.52 10.47-5.82ZM153.548 412.607s10.19-3.78 10.48 1.17c.29 4.94-17.17 8.73-17.17 8.73s-4.66-9.02-3.79-15.72c.88-6.69 8.44-2.33 10.48 5.82ZM107.888 386.227c.87 6.7-3.79 15.72-3.79 15.72s-17.46-3.79-17.17-8.73c.3-4.95 10.48-1.17 10.48-1.17 2.04-8.15 9.6-12.51 10.48-5.82Z" fill="#E83648"/><path d="M153.548 412.607s10.19-3.78 10.48 1.17c.29 4.94-17.17 8.73-17.17 8.73s-4.66-9.02-3.79-15.72c.88-6.69 8.44-2.33 10.48 5.82ZM96.218 452.527s10.18-3.78 10.47 1.17c.29 4.95-17.17 8.73-17.17 8.73s-4.65-9.02-3.78-15.72c.87-6.69 8.44-2.32 10.48 5.82ZM166.878 449.547c.87 6.69-3.78 15.71-3.78 15.71s-17.46-3.78-17.17-8.73c.29-4.94 10.47-1.16 10.47-1.16 2.04-8.15 9.61-12.51 10.48-5.82Z" fill="#E83648"/><path d="M138.998 352.127c-.04.08-.1.16-.16.23 0 0-20.44-12.26-42.04 7.58-11.74 10.78-19.68 28.46-23.83 46.95-2.86 12.74-3.92 25.85-3.18 37.36.16 2.54.4 4.99.74 7.35 1.11 7.75 3.25 20.21 6.01 34.54.18.93.37 1.87.55 2.8a1129.756 1129.756 0 0 0 4.48 21.79c1.61 7.51 3.33 15.1 5.09 22.44 6.08 25.24 12.8 47.55 18.32 53.87 2.95 3.38 6.07 6.38 9.11 8.98-31.35.3-56.74-5.16-56.74-5.16l-25.33-65.39-4.84-28.09c-3.83-4.58-6.76-10.73-1.96-16.13 9.07-10.21 10.58-10.21 10.58-10.21s-15.87-7.94-14.74-24.94c1.13-17.01 24.19-27.6 24.19-27.6s-13.23-9.82 1.13-27.59c14.37-17.76 52.54-51.4 71.82-48.76 13.03 1.79 19.5 6.52 20.8 9.98Z" fill-opacity=".322" fill="#FFA4B1"/></g></svg>