<svg width="340" height="291" xmlns="http://www.w3.org/2000/svg"><g fill-rule="nonzero" fill="none"><path d="M146.192 71.771c11.875-8.88 27.671-13.287 43.898-9.961 13.852 2.839 24.006 14.052 31.26 26.786 11.755 4.518 19.272 9.17 22.06 11.036l-.008.312.848 2.376 80.201 124.627c.748.856 1.285 1.667 1.579 2.423 4.49 11.54-136.05 100.33-154.94 107.72-17.946 7.02-23.807 5.955-24.348 5.83l-.035-.008-.4-.432C132.764 327.388 66.05 222.37 66.05 222.37l-1.837-2.75a5.292 5.292 0 0 1-.023-.02l.001-.017v-.004l.003-.018c.07-.741 1.162-12.102 2.952-28.172-13.38-18.887-14.226-38.9 1.364-57.109a45.592 45.592 0 0 1 6.855-6.508c3.837-24.953 8.242-46.64 12.505-52.072 5.964-7.6 31.357-6.863 57.74-3.487ZM136.7 36.13s-5.75-7.61-11.7-3.19c-5.95 4.42-2.25 14.55 2.81 19.19 5.06 4.64 14 8.47 14 8.47s11-9.26 11-22-11.3-10.69-16.11-2.47ZM23.48 100.6s-4.84-8.21 1.51-12c6.35-3.79 14.31 3.47 16.67 9.91 2.36 6.44 2.48 16.21 2.48 16.21s-12.76 6.66-24.55 1.78c-11.79-4.88-5.55-14.6 3.89-15.9Zm36.38-77.58s-8-5.16-12.08 1 2.91 14.43 9.26 17c6.35 2.57 16.09 3.12 16.09 3.12s7.16-12.5 2.74-24.46-14.31-6.08-16.01 3.34Z" fill="#FF746C"/><path d="M146.329 19.505h.383c9.88.153 16.098 8.214 16.098 19.095 0 5.434-1.325 10.544-3.628 15.3a64.282 64.282 0 0 1 32.916-1.886c14.746 3.022 26.537 13.116 35.9 28.2l.213.347.047.02c8.373 3.435 15.14 7.067 20.226 10.417l.487.323a10 10 0 0 1 4.177 6.035l79.375 123.655.113.138c1.05 1.309 1.902 2.67 2.531 4.148l.182.447c1.7 4.37.691 8.163-1.583 11.878-1.227 2.004-2.936 4.072-5.162 6.36-3.6 3.701-8.765 8.172-15.416 13.41l-.648.51c-12.12 9.498-29.019 21.45-48.657 34.533l-1.018.678a1516.55 1516.55 0 0 1-7.789 5.145l-2.236 1.465c-33.93 22.183-68.467 42.909-78.107 46.68l-1.282.496c-11.211 4.292-19.284 6.113-24.982 6.15h-.303c-1.42-.012-2.634-.146-3.66-.382l-.164-.039a10 10 0 0 1-4.963-2.912l-.516-.558-.392-.443c-6.584-7.555-22.233-30.505-44.638-64.789l-3.695-5.664a5571.088 5571.088 0 0 1-16.915-26.136l-5.1-7.938c-1.98-3.088-3.862-6.028-5.626-8.79l-4.838-7.587-1.554-2.326a10 10 0 0 1-1.91-6.191l.016-.337.059-.668.457-4.629.35-3.454c.376-3.676.783-7.559 1.22-11.61l.507-4.671-.157-.246c-13.879-21.951-13.03-45.228 3.727-65.264l.54-.639a55.79 55.79 0 0 1 4.97-5.108l.18-.161.403-2.53c4.366-27.201 8.347-43.594 13.372-50.238l.164-.213c5.29-6.74 14.792-9.218 28.75-9.68 3.914-.13 8.203-.082 12.829.13l-.53-.476c-4.101-3.76-7.297-9.293-8.538-14.88-1.675-7.545.188-15.002 6.523-19.707 5.2-3.863 11.012-4.212 16.238-2.1l.37.153.157-.104c3.07-2.016 6.537-3.23 10.083-3.348l.444-.01ZM19.865 80.013c6.758-4.033 14.347-2.91 20.675 1.502 4.696 3.274 8.596 8.332 10.51 13.554 1.343 3.666 2.161 7.927 2.65 12.623a87.82 87.82 0 0 1 .316 3.86l.04.737c.05.945.074 1.708.083 2.257v.341a10 10 0 0 1-5.096 8.548l-.409.218-.196.099c-2.787 1.38-6.555 2.773-11.044 3.676-7.345 1.478-14.697 1.181-21.628-1.688C5.7 121.574.639 112.725 4.274 103.53c1.413-3.571 4.004-6.589 7.28-8.822l.16-.106-.002-.262c.002-.347.014-.696.036-1.047l.04-.53c.47-5.211 3.207-9.843 8.077-12.75ZM63.49 3.912C72.821.59 81.471 5.99 85.25 16.213c2.38 6.442 2.588 13.192 1.232 19.933A47.058 47.058 0 0 1 82.5 47.802l-.121.242c-.131.257-.254.49-.367.699l-.204.367a10 10 0 0 1-9.24 5.014l-.846-.056a84.523 84.523 0 0 1-3.06-.293c-2.847-.32-5.706-.77-8.445-1.387-2.52-.567-4.834-1.251-6.928-2.098-5.163-2.09-10.095-6.187-13.2-11.015-4.19-6.516-5.015-14.18-.645-20.777 2.946-4.448 7.36-6.97 12.289-7.426a18.545 18.545 0 0 1 2.387-.067l.205.011.115-.159c2.27-3.08 5.241-5.496 8.693-6.813l.36-.132Z" fill="#FFF"/><path d="M64.19 219.6S76.53 90.15 87.87 75.7c11.34-14.45 92.93 1.24 118 7.9 20.794 5.524 33.76 13.497 37.577 16.056l-.547 24.194S83.95 235.84 64.19 219.6Z" fill="#FF746C"/><path fill="#751C0D" d="m66.05 222.37-1.86-2.79L243.32 99.71l.93 2.61-5.01 59.51-28.85 64.95-69.91 13.25z"/><path d="M126.59 118.44s-37-8.78-58.08 15.84c-21.08 24.62-12.11 52.54 17.26 76.51 29.37 23.97 57.59 26.9 57.59 26.9l68.34-10.17 25.45-94.18s-11-64.14-47.06-71.53c-36.06-7.39-69.99 23.4-63.5 56.63Z" fill="#FFDFCB"/><path d="M146.7 342.91s5.5 1.57 24.39-5.82c18.89-7.39 159.43-96.18 154.94-107.72-4.49-11.54-65.71-36-65.71-36l-63.74 15.23-7.81 7.65-57.58 86.6 15.51 40.06Z" fill="#D11112"/><path d="M66.05 222.37s68.07 107.15 80.65 120.54l43.45-127.64-124.1 7.1ZM244.25 102.32 196.58 208.6s89.49 5.16 129.46 20.82l-81.79-127.1ZM120.582 169.437c-.096.012-.227.049-.323.061-.001-.31-.001-.31.176-.586.216.166.146.37.111.549l.57-.541c-.013-.251-.217-.477-.015-.717.274-.133.634.092.895-.292-.144-.06-.264-.082-.348-.13-.06-.011-.215-.01-.203-.07-.097-.143.01-.371-.254-.453-.024-.036 0-.156-.013-.251.011-.06-.001-.156-.013-.251-.062-.323-.206-.382-.587-.176-.179.12-.299.097-.407-.141.154-.157.285-.349.403-.48-.049-.228-.11-.395-.146-.526a16.493 16.493 0 0 0-1.006-.413c-.072.048-.142.252-.334.122-.049-.072-.073-.108-.061-.167.2-.396.164-.527-.052-.693a7.016 7.016 0 0 0-.528-.32l-.096-.143a2.31 2.31 0 0 1 .273-.444c-.097-.143-.11-.239-.182-.346.072-.048.155-.156.226-.204-.048-.072-.085-.203-.168-.25-.168-.095-.074-.263-.146-.37-.072-.107-.204-.226-.336-.19-.18-.034-.322.062-.513.087-.06.144-.094.323-.165.527-.205-.381-.493-.655-.436-1.11.095-.012.227-.048.322-.06.023-.276.033-.491.056-.766-.168-.095-.336-.19-.492-.344-.132-.119-.193-.286-.278-.489l-.429.29c.034-.335.092-.635-.279-.8-.06-.011-.156-.154-.133-.274.01-.215-.097-.298-.194-.441-.205-.382-.565-.607-.925-.832-.037-.287-.063-.633-.1-.92-.3-.213-.565-.451-.948-.556-.12-.024-.228-.107-.336-.19.107-.228.141-.407.248-.635-.3-.213-.529-.475-.805-.653-.252-.142-.42-.237-.385-.571.047-.084-.098-.299-.182-.346-.43-.022-.444-.428-.649-.654-.144-.214-.253-.453-.421-.548-.252-.142-.361-.38-.53-.63-.434-.643-.975-1.214-1.444-1.833-.097-.143-.265-.238-.325-.405-.097-.143-.098-.298-.158-.465-.061-.167-.312-.154-.433-.332a8.913 8.913 0 0 0-.95-1.179c-.073-.107-.18-.19-.276-.177-.37-.01-.516-.225-.649-.499a3.132 3.132 0 0 1-.46-.99c-.012-.095-.168-.25-.252-.297-.431-.177-.884.077-1.001.52-.048.084.001.31.061.322.395.046.385.416.339.656-.046.394.254.608.387.882.06.167.324.25.456.368.301.37.805.653.653 1.276-.047.084.109.238.181.345.542.727.542.727.738 1.479l.048.071c.144.059.311.154.455.213-.07.359-.07.359.027.502.132.118.24.201.372.32.37.01.6.272.792.558.11.238.17.56.232.883.002.31.1.61.315.775.3.214.242.513.244.824.155-.001.347-.026.597-.04-.177.277-.128.503.028.658.372.32.352.906.76 1.203.015.562.435.799.854 1.035.048.072.145.215.098.299-.154.311-.022.43.266.548.18.035.24.357.29.584.098.454.208 1.003.83 1.155-.02.586.245.979.713 1.287.252.142.48.404.458.679.027.502.304.835.58 1.168.109.083.17.25.242.358l.626.929c.455.057.445.427.447.738.036.131.049.227.085.358.217.166.444.273.576.392.11.238.158.465.266.548.084.047.323-.062.454-.098.06.012.108.083.168.095 0 .155.038.286-.021.43-.06.144-.143.252.097.298-.13.192-.07.36.062.478.265.238.29.584.436.954.178-.276.479.093.68-.147.167-.216.348.13.586.02.203-.084.478-.062.73-.075.07-.204.057-.3-.122-.334Zm-3.906-5.944c.011-.06-.013-.095-.037-.131.024.036.013.096.013.096l.289.428c.167-.06.274-.133.417-.23.049.228.05.383-.201.396-.036.025-.132-.118-.18-.19-.275.133-.324-.094-.42-.237 0 0 .083-.108.119-.132Zm-.89-1.01c-.085-.204-.206-.382-.29-.585-.025-.036.058-.144.13-.192.035-.024.155 0 .18.035.024.191.204.226.336.345a.265.265 0 0 1 .133.274c-.035.18-.179.12-.334.121-.036.024-.096.013-.156.001Zm.493-1.581c.215.01.335.034.514.068-.142.252-.224.516-.558.637-.013-.25.021-.43.044-.705Zm-.52 3.158c-.18-.035-.276-.022-.336-.034a.547.547 0 0 1-.18-.19s.047-.084.083-.108a.337.337 0 0 1 .24.046c.06.012.072.108.192.286Zm-3.252-8.517c.048-.084.12-.132.19-.18.036-.024.06.011.12.023-.011.06-.047.084-.083.108-.035.024-.13.037-.227.05Zm.412.918c-.07.204-.082.264-.118.288-.012.06-.035.18-.143.096-.024-.035-.036-.131 0-.155.01-.06.082-.108.261-.229Zm-1.52-2.561c-.012.06-.048.084-.083.108-.06-.012-.084-.048-.144-.06.071-.048.083-.107.119-.131.06.011.084.047.108.083Zm8.003 11.861c.024.036.084.048.108.084l-.036.024c-.036.024-.06-.012-.095.012l.023-.12Zm1.576 1.797-.215.144-.024-.035.215-.145.024.036Zm-8.21-8.083c.036-.025.048-.084.083-.109.036-.024.084.048.144.06-.036.024-.047.083-.083.108-.036.024-.12-.024-.144-.06Zm-.22-.788c-.023-.036-.012-.096-.012-.096.06.012.096-.012.132-.036.024.035.012.095.012.095-.06-.011-.095.013-.131.037Zm7.103 8.986.049.071-.12-.023c-.024-.036.012-.06.012-.06.035-.024.06.012.06.012Zm-11.438-14.796.073.107-.073-.107ZM127.312 147.894c-.072.048-.155.156-.214.145-.372-.165-.78-.307-1.092-.771.179.035.286-.038.37.01.348.13.672.379.924.676a.52.52 0 0 1 .3.058c.046-.24.164-.527-.076-.729l.357-.24c-.193-.286-.421-.548-.519-.847-.098-.453-.494-.81-.557-1.287-.012-.096-.24-.202-.348-.285-.178.276-.284.503-.655.493-.096-.143-.312-.309-.313-.464-.002-.31-.313-.31-.29-.429.023-.275-.145-.37-.337-.5-.192-.13-.324-.25-.456-.368.057-.455.644-.279.725-.697-.132-.12-.3-.214-.456-.369-.132-.118-.229-.261-.481-.559.323.094.467.153.646.188-.157-.31-.302-.524-.435-.799-.454-.057-.505-.594-.936-.771-.228-.107-.277-.334-.135-.585.072-.049.059-.144.07-.204-.204-.226-.382-.105-.585-.02-.143.096-.299.097-.466.002l-.073-.107.073.107c.13-.192.56-.17.475-.529a1.672 1.672 0 0 1-.817-.748.613.613 0 0 0-.073-.263c-.193-.286-.446-.583-.84-.629-.25.324-.25.324-.525.302.118-.287.212-.61.294-.874-.275-.023-.574-.08-.91-.115.096-.168.179-.276.238-.42a1.617 1.617 0 0 1-.206-.38c-.261.228-.454-.058-.705-.045-.06.144-.118.288-.213.456-.264-.238-.433-.488-.649-.654-.024-.036-.191.025-.191.025-.033.49-.415.54-.677.769-.228-.107-.456-.213-.624-.308.1.61.59.798 1.046 1.01.228.107.43.022.633-.063-.154.157-.309.313-.26.54.061.167.074.418.242.512.216.166.254.453.481.56.252.142.301.368.375.631a.8.8 0 0 0 .24.202c.371.165.433.488.494.81.039.442.375.787.45 1.205.023.036.107.083.131.119.386.571 1.046 1.01 1.05 1.787-.011.06.049.071.097.143.24.357.506.75.711 1.132l.145.214c-.047.24-.117.443-.188.646.145.215.206.382.326.56.156 0 .335.035.515.07-.047.239-.046.394-.057.61.276.177.528.32.72.45.025.19.026.346.038.442.037.131.05.227.062.322 0 .156-.082.264-.141.407.384.261.648.499.948.712.012.096-.023.12 0 .156-.058.143-.081.263-.14.407.155 0 .346-.026.49.033.263.082.086.358.242.513.024.035.084.047.108.083l.024.036c-.024-.036.012-.06.012-.06l.071-.048c.072.107.18.19.193.285-.044.706.305 1.146.774 1.61.024.036.012.095.025.191-.251.013-.466.003-.658.028.099.453.123.489.445.427.096-.012.227-.049.31-.001.229.106.42.236.637.403.024.035-.024.12 0 .155-.274.133-.384-.416-.693-.104.048.072.072.107.084.203.05.227.016.562.136.74.169.25.087.514.124.8a.368.368 0 0 0 .169.25c.336.19.373.477.339.812-.036.024.048.071.072.107.096-.013.227-.05.227-.05.239-.108-.002-.31.261-.383.396.2.744.486.544 1.037l.035-.024c.24.202.123.49.196.752l-.322.217c.039.442.22.787.675 1 .06.012.578.702.59.798.073.107.11.238.229.261.24.047.455.213.647.344.168.094.371.01.406-.17a.942.942 0 0 1-.013-.251c.022-.275.284-.504.499-.493.215.01.24.202.3.369.026.191.146.37.421.392.142-.252.309-.468.415-.695-.072-.108-.109-.239-.146-.37.277.333.478-.063.753-.04.275.022.538-.051.884-.077.011-.215.058-.454.068-.67.192-.025.407-.014.598-.039.096-.012.25-.169.226-.204-.121-.334.153-.467.356-.552.393-.265.845-.519 1.058-.974.524-.302.486-.744.328-1.21l.18.035c.539.26.634.248.99-.149.322-.372.474-.839.675-1.235.167-.06.334-.12.501-.182-.036-.13-.108-.238-.12-.334-.1-.453-.1-.453-.554-.51-.275-.023-.538-.105-.635-.404.118-.132.237-.264.38-.36-.454.098-.92.1-1.024.639-.012.06-.12.132-.155.156-.131.037-.25.014-.334.122-.226.204-.548.266-.618.625-.118.287-.549.266-.702.577-.083.108-.058.3-.105.539-.408-.297-.825-.067-.919.256-.188.491-.57.541-.916.722-.07.36-.08.73-.15 1.089a11.351 11.351 0 0 0-.731-.39c-.19.18-.164.526-.523.457-.001-.156-.002-.311.021-.43.095-.169.322-.062.26-.385a5.495 5.495 0 0 1-.538-.26 1.018 1.018 0 0 1-.003-.466c-.478.062-.92.1-1.268-.184-.072-.107-.073-.263-.11-.394.275.022.419.081.492.344.037.131.228.106.275.022.048-.084.142-.252.094-.323-.265-.393-.53-.786-1.033-.915-.013-.25-.05-.537-.04-.753-.18-.19-.575-.236-.35-.595l-.61-.212c-.085-.048-.121-.179-.23-.262.18-.12.346-.181.549-.266-.384-.26-.66-.439-.603-.893l.18.035c.068-.67-.496-.966-.82-1.37-.479.062-.66-.44-1.055-.485-.05-.382-.1-.764-.126-1.11Zm-.669-1.992c.409.296.804.497.89 1.01-.177.277-.501.027-.692.208-.17-.406-.446-.739-.198-1.218Zm3.804 11.263c.321-.372.321-.372.718-.016-.239.11-.478.063-.718.016Zm-6.431-10.842c-.085-.203-.265-.393.045-.55.3.368.3.368-.045.55Zm-1.823-3.242c.18.035.347.13.55.2-.309.158-.309.158-.55-.2Zm-1.75-2.979c.048.072.132.12.156.155l-.011.06c-.06-.012-.084-.048-.144-.06-.024-.035-.013-.095 0-.155Zm9.289 13.074c.084.048.132.12.216.167l-.059.143-.252-.142c-.024-.035.024-.12.095-.168Zm-8.485-14.656c-.12-.179-.204-.226-.193-.286-.024-.035.012-.06.024-.12.06.012.12.024.143.06-.011.06.001.155.026.346Zm8.476 17.262c.011-.06-.037-.13-.014-.25 0 0 .012-.06.048-.084.06.011.083.047.108.083.12.178.049.226-.142.251Zm-6.658-12.873c.06.012.084.047.143.059-.035.024-.083.108-.118.132 0 0-.084-.047-.108-.083.035-.024.047-.084.083-.108Zm1.703 5.454c.06.011.096-.013.156-.001.024.035.012.095.012.095-.011.06-.107.073-.143.097.012-.06-.036-.132-.025-.191Zm6.774 7.804c-.06-.012-.12-.023-.144-.06.012-.059.023-.119.095-.167l.12.023c-.012.06-.06.144-.071.204Zm-3.644-6.017c-.011.06-.083.108-.119.132 0 0-.024-.035-.06-.011.012-.06.048-.084.12-.132 0 0 .024.035.06.011Zm.577.547c-.036.024-.036.024-.047.084-.024-.036-.084-.047-.108-.083-.024-.036.011-.06.011-.06.06.012.084.047.144.059Zm3.904 7.713s-.036.024-.06-.012c0 0 .012-.06.047-.084 0 0 .025.036.06.012-.035.024-.011.06-.047.084Zm-6.596-12.551c-.06-.012-.096.012-.156 0l.012-.06c.035-.023.095-.012.131-.036 0 0-.012.06.013.096Zm3.036 10.897-.035.024-.29-.429c-.322.062-.393.265-.344.492.013.096.252.142.3.214.155-.157.262-.229.37-.301Zm-3.182-13.347c-.13.192-.2.395-.056.61.227-.05.358-.086.225-.36a.547.547 0 0 0-.109-.239l-.06-.011Zm.075 6.969-.024-.036c-.167.06-.323.061-.585.135.132.118.204.226.288.273.119-.132.202-.24.32-.372Zm-.015-6.958c.225-.36.225-.36-.23-.417.062.167.098.299.17.406l.06.011Zm7.607 15.821-.071.048c.024.036.083.048.108.084l.071-.049c-.06-.011-.084-.047-.108-.083Zm-7.599-14.422c.214-.145.31-.157.346-.181.047-.084.035-.18.046-.24-.071.049-.131.037-.203.085-.071.048-.083.108-.189.336Zm2.654 4.396-.06-.011-.071.048c.06.012.084.047.084.047.036-.024.036-.024.047-.084Zm10.764 3.085c-.036.024-.131.036-.167.06l-.012.06c.06.012.12.023.156 0l.023-.12Zm-22.193-16.17c.036-.025.096-.013.132-.037 0 0 .011-.06-.013-.096l-.011.06-.108.072Zm2.554-.84c-.012.06-.047.084-.047.084.06.012.084.048.143.06l.012-.06c-.024-.036-.084-.048-.108-.084ZM155.345 141.51c-.06-.01-.12-.022-.18-.034-.024-.036-.012-.096-.037-.131.025.035.06.011.12.023l.097.143c-.001-.155.01-.37.045-.395.394-.11.297-.408.307-.623-.037-.287-.134-.585-.196-.908.119-.132.202-.24.32-.372a2.272 2.272 0 0 1-.182-.656c-.05-.227-.038-.442-.063-.634.107-.072.214-.144.345-.18-.18-.191-.3-.37-.444-.429-.288-.118-.063-.477-.362-.536l.024.036c-.084-.047-.144-.059-.168-.095-.347-.13-.384-.26-.182-.5.155-.157.453-.254.535-.518-.168-.094-.276-.177-.348-.285-.169-.25-.195-.596-.435-.798-.06-.012.082-.264.082-.264.18.035.311-.001.322-.216-.145-.215-.337-.5-.494-.655-.215-.011-.406.014-.561.015-.193-.286-.051-.538.055-.766.237-.42.213-.455-.148-.835-.084-.048-.096-.143-.109-.239.083-.108.142-.252.19-.336-.17-.25-.278-.488-.459-.679a1.722 1.722 0 0 1-.386-.727c-.062-.322-.135-.585-.4-.822a.368.368 0 0 1-.168-.25c-.086-.358-.337-.5-.66-.594-.24-.047-.444-.117-.588-.332-.156-.154-.325-.404-.623-.307-.036.024-.097-.143-.11-.239-.024-.035.084-.108.155-.156.06.012.12.023.156 0 .071-.049.083-.109.13-.193-.096.013-.18-.035-.24-.046-.07.048-.178.12-.31.157-.035.024-.119-.023-.227-.106l.393-.266c-.18-.19-.527-.164-.529-.475-.013-.25-.026-.502-.051-.693-.264-.082-.444-.272-.706-.044-.143.097-.286.038-.383-.105-.132-.119-.025-.191.034-.335.178-.276.092-.634-.159-.62-.346.025-.574-.081-.826-.223-.12-.024-.322.061-.478.062-.12-.179-.098-.454-.337-.5-.275-.023-.193-.286-.29-.429-.49-.033-.49-.033-.825-.222a6.956 6.956 0 0 0-2.024-.61c-.419-.082-.861-.044-1.267-.03-.682-.008-1.29.091-1.887.441-.238.109-.512.242-.728.231-.43-.021-.74.136-1.037.389-.512.397-1.121.496-1.804.332a5.473 5.473 0 0 0-.67-.068c-.274-.022-.322.062-.248.48-.131.036-.286.037-.394.11-.107.072-.25.168-.261.228.122.49-.38.36-.571.541.145.37.145.37.004.777.132.119.264.238.456.368l-.857.579c-.071.048-.155.156-.142.252-.034.335-.26.384-.548.421-.19.025-.393.265-.368.456a.33.33 0 0 0 .05.227c.3.37.123.645-.115.91a.547.547 0 0 0-.19.18c-.083.108.001.31.121.334.12.023.24.046.37.01.132-.037.24.046.217.166-.023.12-.13.192-.214.3-.252-.142-.48-.249-.671-.379-.214.3-.44.505-.223.826.145.214.074.418-.056.61l-.25.324c.337.345.1.765.233 1.039-.13.192-.225.36-.415.54.252.142.491.189.338.5-.06.144.001.311.026.502l-.679.458c.12.179.253.298.41.452-.31.313-.404.636-.438.97.432.178.432.178.374.632a3.32 3.32 0 0 1-.681-.008l.506.75c-.106.228-.177.432-.271.6.313.464.507.905.665 1.37.036.132.109.24.18.346l.266.393c-.237.42-.282.815-.173 1.209.146.37.528.32.756.426.11.55.066 1.1.653 1.43.084.048.085.203.158.31.108.24.241.513.35.752.266.548.83.844 1.06 1.416.013.096.132.12.216.167.108.083.252.142.324.249.89 1.011 1.983 1.782 3.039 2.577.167-.06.37-.145.537-.206.095-.013.275.022.323.094.47.619.47.619 1.152.782.275.023.527.165.743.33.216.167.371.166.538.105.227-.049.406-.17.561-.17.191-.025.383.105.587.176.19-.18.416-.385.642-.59.432.178.862.2 1.34.137.538-.051 1.062-.353 1.612-.308.084.047.227-.05.298-.097.56-.326 1.181-.485 1.73-.751.5-.182 1.05-.293 1.442-.713.154-.157.357-.241.62-.315.238-.108.453-.253.679-.458.166-.216.548-.266.822-.399l.072-.048c.296-.408.725-.697.878-1.164.046-.24.154-.312.38-.36.096-.013.19-.181.202-.241-.085-.358.153-.467.355-.707.143-.097.106-.228-.05-.383-.324-.249-.36-.38-.195-.596.297-.408.354-.863.496-1.27Zm-3.685-4.844-.5.338c.183.656.246 1.29.44 1.886.05.227-.08.574-.186.802a2.11 2.11 0 0 0-.116.754c.013.095.097.298.097.298-.417.23-.139.718-.436.97-.155.157-.261.384-.392.576.084.048.144.06.228.107-.178.276-.32.528-.533.828.096.142.204.226.325.404l-.5.338c.06.167.18.345.241.512.096-.012.156 0 .167-.06.083-.264.345-.337.668-.398.12.178.3.368.421.547-.154.312-.356.552-.402.791-.152.623-.58.912-1.034 1.166-.69.362-1.455.617-2.134.92-.036.024-.107.072-.167.06-.813.029-1.66.237-2.474.11-.3-.058-.598.039-1.04.077-.084-.047-.217-.321-.455-.212-.131.036-.274.133-.382.205 0 0-.024-.036.012-.06-.013-.25-.276-.178-.337-.345-.084-.202-.24-.201-.455-.212-.43-.022-.731-.39-1.15-.472-.29-.429-.743-.33-1.161-.257-.097-.143-.157-.31-.301-.369-.084-.047-.144-.058-.085-.202-.002-.311-.038-.442-.265-.393-.31.001-.455-.058-.492-.344-.528-.32-.878-.916-1.56-1.08-.06-.011-.168-.094-.156-.154-.133-.274-.373-.476-.506-.75-.158-.31-.326-.56-.662-.75-.228-.106-.372-.32-.553-.51.035-.18.01-.371.045-.55-.504-.285-.54-.26-.554-.667-.013-.251-.002-.466-.218-.632-.349-.285-.447-.74-.58-1.169-.11-.238-.242-.512-.447-.738.345-.337.151-.778.137-1.185-.074-.418-.148-.836-.235-1.35.155-.155.237-.419.187-.801-.05-.538-.03-1.124-.045-1.685 0-.156-.026-.347-.027-.502-.012-.096-.049-.227-.001-.311.19-.18.212-.455.259-.695.115-.754.422-1.377.682-2.072.059-.143.13-.347.2-.55.083-.109.106-.228.19-.336.094-.168.248-.324.343-.492.343-.648.662-1.33 1.09-1.931.272-.288.474-.529.88-.698.405-.17.763-.41 1.24-.473.096-.013.203-.085.31-.157.274-.289.536-.362.908-.197.108.083.299.058.43.022.358-.086.728-.231 1.122-.341.227-.05.442-.038.634.092.3.214.6.272.91.115.07-.049.214.01.298.058.084.047.157.154.228.106.454-.098.778.151 1.114.34.371.166.719.295.995.629.229.261.529.475.853.724.132.119.431.177.373.476-.011.06.097.143.157.155l.503.284c.013.095.073.107.061.167.1.764.136.74.653 1.43.17.25.385.417.483.715.11.394.35.751.782.928.084.048.096.143.144.215.184.811.487 1.491 1.1 2.014.18.19.205.381.194.596-.046.395-.046.395.039.598.146.37.458.679.186 1.122-.048.084.013.251.05.383.133.43.112.86.15 1.302.119-.132.25-.169.382-.05.049.071.025.191.038.287-.287.037-.312-.154-.408-.297Zm2.326-.79c.084.048.192.13.276.178-.011.06-.083.108-.094.168-.108-.083-.18-.19-.265-.238.012-.06.048-.084.083-.108Zm-1.303-4.32a.093.093 0 0 1-.023.12l-.12-.024.012-.06c.036-.023.072-.048.131-.036Zm.928 3.378c-.096.012-.167.06-.299.097l-.048-.071.023-.12c.096-.012.216.01.311-.002.024.036-.011.06.013.096Zm-20.001 6.112c.012.095.036.13.049.226l-.3-.058c.036-.024.024-.12.06-.143.06.011.155-.001.19-.025Zm15.175-16.27c-.107.228-.13.347-.393.265l.393-.265Zm-10.6 20.046c.048.071.072.107.06.167-.048-.072-.107-.083-.167-.095-.024-.036-.013-.096-.001-.155.024.035.084.047.108.083Zm15.591-12.34c-.035.025-.035.025-.047.084-.024-.035-.048-.071-.084-.047.012-.06.047-.084.047-.084.025.036.025.036.084.047Zm1.036 7.777c-.036.024-.048.084-.083.108-.036.024-.06-.012-.06-.012.011-.06.047-.084.059-.144 0 0 .06.012.084.048Zm.303-3.48c.083-.109.25-.17.141-.408-.035.024-.19.025-.167.06-.047.085-.01.216.002.312-.036.024.024.035.048.071l-.024-.036Zm-21.682-8.248c-.024-.036-.084-.048-.108-.083 0 0-.048.084-.012.06.024.035.048.071.108.083 0 0 .036-.025.012-.06ZM158.306 110.76c-.048-.07-.096-.142-.109-.238-.06-.167.011-.215.226-.204.06.012.144.059.252.142l-.393.265c.17.406.017.873.496 1.121.024.036.037.131.001.155-.094.324.098.454.35.596.084.048.168.095.276.178l-.059.144c-.155 0-.31.001-.454-.058-.12-.023-.121-.178-.205-.225-.024-.036-.06-.012-.18-.035.001.155.002.31-.021.43.156.155.288.273.42.392a.902.902 0 0 0-.117.288c-.06.144-.023.275-.046.395.071-.049.119-.133.19-.18.036-.025.12.022.204.07l-.012.06c-.035.024-.095.012-.131.036-.096.013-.155.001-.251.014.025.19.11.393.17.56.037.132-.153.312-.248.48.168.095.276.178.396.201.037.287-.177.431-.356.552-.071.048-.095.168-.154.311.407-.014.718-.015.992-.148.107-.073.24.046.37.01.096-.013.155-.157.226-.205-.034.18-.118.288-.212.455-.083.108.037.287-.117.443-.155.157.001.311.18.346l.253.142c-.083.108-.178.276-.166.372-.045.394-.055.765-.16 1.148-.13.503.028.813.4 1.133.227-.049.466-.158.728-.23.002.31-.02.585-.007.836-.48-.248-.48-.248-.739.446.348.13.719.295 1.126.437-.178.275-.332.432-.498.648.108.083.192.13.276.178.3.213.336.344.05.537-.214.145-.034.335-.236.42-.18-.19-.18-.19-.49.122.097.143.253.298.385.416.202-.24.357-.396.668-.242.168.094.289.273.158.465-.321.217-.824.088-.964.65.693.105 1.036-.543 1.622-.522l.29.429c-.227.049-.418.074-.61.099-.25.013-.442.038-.633.063-.142.252.051.538-.15.778-.155.156.107.083.131.119.17.25.302.524.411.762-.106.228-.405.325-.272.6.133.274-.044.55-.09.789.192.286.432.488.779.462-.084-.047-.168-.095-.192-.13-.024-.036-.037-.132-.001-.156.107-.072.12.023.132.119.024.036.013.095.037.131-.071.204-.166.372-.26.54-.237.42-.187.801.114 1.17.25-.168.332-.432.414-.695.144.059.264.082.348.13.024.035.072.106.036.13-.118.288-.2.552-.163.838.085.203.015.407-.2.551-.168-.094-.3-.213-.468-.308.011-.215-.002-.466.009-.681-.18.12-.358.24-.525.301-.407-.14-.337-.5-.482-.714-.287-.118-.646-.188-.696-.57-.11-.394-.303-.68-.674-.845-.084-.047-.085-.203-.158-.31-.06-.012-.132-.119-.192-.13-.477.062-.671-.38-1.054-.485.022-.275.045-.55-.219-.632-.24-.047-.371-.165-.36-.38-.014-.252-.159-.466-.398-.512-.323-.094-.492-.344-.696-.57-.229-.262-.47-.464-.733-.702-.205-.226-.457-.368-.53-.63-.157-.31-.373-.476-.613-.678-.373-.32-.828-.534-.843-1.095-.013-.096-.085-.203-.145-.215-.443-.117-.612-.522-.912-.736-.157-.154-.337-.345-.588-.331-.31.002-.491-.189-.529-.475-.049-.227-.205-.382-.433-.488a.8.8 0 0 1-.24-.202c-.194-.441-.59-.642-.913-.892-.276-.177-.564-.295-.78-.461-.553-.511-1.174-.508-1.831-.48-.096.012-.203.084-.31.157.168.25.253.453.434.643l.24.357.574-.075c.037.287.075.574.124.8.276.178.576.392.816.594.168.094.3.213.372.32.229.262.362.536.566.762.193.286.375.632.662.75.336.19.397.512.614.678.324.249.505.595.758.892.18.035.394.046.634.092-.011.215-.093.479.027.657.12.18.42.237.54.416.133.274.384.26.565.451.18.19.468.308.53.63.024.192.156.31.277.49.312.308.553.666.913.89.084.048.192.131.229.262.218.477.59.798.95 1.179.085.047.228.106.241.201.098.454.505.595.841.785.025.19.062.322.087.513.143.06.287.118.43.177.408.141.566.607 1.01.724.083.047.18.19.192.286.085.202.371.165.385.416.026.502.375.787.687 1.096l.286-.193.723 1.072c.096-.013.251-.013.347-.026.036.131.096.143.085.203-.082.419.075.729.435.954.156.154.313.309.54.415.192.13.325.25.433.488.085.203.242.357.433.488.133.118.372.165.504.284.192.13.277.333.41.452.154-.001.25-.014.346-.026l.096.143.096.143c.253.297.433.332.635.092.201-.24.343-.492.667-.398.06.011.167-.061.238-.11.107-.072.19-.18.298-.252.167-.06.298-.097.43-.134-.061-.167-.122-.334-.219-.477-.133-.274-.003-.621-.374-.787-.084-.047-.062-.322-.015-.406.154-.312.284-.66.222-.982-.073-.262.129-.502-.136-.74-.096-.143-.11-.394-.23-.572-.085-.203-.23-.418-.374-.632.286-.193.428-.445.366-.767-.035.024-.095.012-.13.037.01-.06.022-.12.058-.144-.205-.382-.076-.729.09-1.1-.396-.202-.589-.487-.412-.919.012-.06.035-.18-.013-.25-.23-.418-.16-.932-.379-1.41-.143-.058-.287-.117-.49-.188.022-.275.044-.55-.005-.777-.038-.286-.206-.536-.28-.799.156 0 .276.022.407-.014-.073-.263-.087-.514-.171-.716l-.4-.823c-.467-.153-.146-.525-.219-.788-.072-.107-.109-.238-.193-.286-.312-.309-.208-.847-.603-1.048-.122-.334-.207-.692-.317-1.086.154-.157.177-.432.2-.707.02-.43-.04-.442-.422-.547-.038-.287.044-.55-.029-.813-.085-.358-.004-.777-.197-1.063-.3-.369-.303-.835-.509-1.216-.072-.107.023-.275-.014-.407 0-.155-.252-.142-.265-.393-.025-.19-.241-.357-.326-.56-.072-.107-.145-.214.034-.335.143-.096.082-.263.046-.394-.28-.8-.559-1.6-1.256-2.169-.061-.322-.015-.562-.076-.884-.22-.788-.618-1.455-1.088-2.074-.204-.226-.408-.452-.506-.75-.12-.18-.371-.166-.43-.022-.082.419-.403.636-.64.9.06.167.037.287.097.454-.359-.07-.548.266-.871.172-.024-.036-.132.037-.179.12-.178.276-.104.54.136.741.18.035.335.034.514.069Zm6.436 22.486c-.408-.296-.435-.953-.998-1.094.106-.227.237-.42.307-.623.06.012.156 0 .18.035.325.404.579.857.63 1.395.012.095.048.227-.119.287Zm-2.144-7.34c-.264-.082-.337-.344-.422-.547.012-.06.024-.12.06-.144l.07-.048c.109.083.193.13.265.238.097.143.085.202.027.502Zm-3.109-10.848c.144.059.348.13.516.224.035-.024.06.167.025.191-.036.024-.203.085-.227.05l-.397-.357c.036-.024.048-.084.083-.108Zm3.38 16.49c.248-.48.522-.613.75-.507v.156c-.202.084-.405.17-.75.35Zm-1.836-18.364c-.037-.13-.097-.298-.122-.49.24.203.24.203.122.49Zm2.434 14.32c-.108-.083-.203-.07-.227-.107-.108-.083-.002-.31.13-.347.059.012.167.095.191.13a1.64 1.64 0 0 1-.094.324Zm-.343 2.727c.228.106.384.26.134.43-.144-.06-.001-.156-.05-.227.012-.06-.036-.131-.084-.203Zm-.936-7.012c-.275-.022-.275-.022-.623-.307.204.07.323.094.407.141.084.047.216.01.216.166Zm2.35 12.037c.024.036.084.047.049.071-.024.12-.047.24-.13.348a.327.327 0 0 1-.168-.095c-.06-.167.047-.24.19-.336l.06.012Zm-1.066-6.975c.012.095.036.13 0 .155l-.107.072c-.084-.047-.156-.154-.204-.226l.011-.06c.12.024.204.071.3.059Zm-2.74-17.546c-.143-.059-.203-.07-.287-.118-.024-.035-.037-.13-.085-.202.036-.024.072-.048.096-.013.06.012.084.048.108.083l.169.25Zm-1.604-.529c-.06-.011-.084-.047-.108-.083.011-.06.047-.084.083-.108.036-.024.084.048.108.083-.036.024-.072.049-.083.108Zm3.27 16.252c-.012.06.036.13 0 .155-.011.06-.071.048-.13.037.01-.06-.013-.096-.002-.156.036-.024.096-.012.132-.036Zm1.366 2.873c.06.012.12.023.204.07l-.023.12-.18-.035c-.06-.011-.012-.095 0-.155Zm-3.987-11.92c-.18-.035-.299-.058-.394-.046-.167.061-.31.313-.225.36.108.083.287.118.394.046.072-.048.13-.192.225-.36Zm1.068 5.05c-.12-.023-.203-.07-.299-.057-.036.024-.119.132-.07.203-.024.12.204.226.311.154l.058-.3ZM181.843 128l.284-.504c.011-.215.201-.396.021-.586l.679-.458c-.073-.263.069-.514.295-.719-.074-.418.2-.55.559-.481.431.177.681.008.907-.352a.327.327 0 0 1 .094-.168c.466-.002.56-.48.905-.662.107-.072.13-.192-.037-.287-.203.085-.417.23-.668.398-.013-.25-.014-.406.021-.585.382-.05.668-.243.594-.661-.096-.143-.204-.226-.469-.464.611.212.983.377 1.414.554.081-.419.235-.73-.053-1.004-.156.001-.323.062-.514.087.106-.383.188-.647.63-.685.19-.025.297-.253.248-.48-.384-.26-.503-.284-.634-.092-.296.564-.845.674-1.334.797-.06-.012-.132.036-.167.06l-.012.06.072-.048c.035-.024.047-.084.083-.108-.264-.082-.516-.224-.78-.307-.023-.035-.095.013-.214-.01l-.033.645c-.047.084-.154.157-.202.24-.296.409-.64.745-1.13.868-.203.084-.43.289-.427.6-.023.275-.297.408-.427.6-.012.06-.192.025-.287.037 0 .156.002.31-.033.49a2.721 2.721 0 0 1-.36-.225c-.06.144-.214.3-.165.372.206.537-.08.73-.534.828-.167.06-.274.133-.285.348.025.19-.105.383-.285.348-.263-.082-.322.062-.452.254-.012.06-.168.06-.216-.011-.084-.048-.144-.215-.168-.25.321-.217.057-.455.032-.646.214-.145.31-.002.443.117.132.119.24.047.358-.086.047-.084.166-.216-.038-.286-.18-.035-.18-.19-.217-.322a.355.355 0 0 0-.371-.165l.036-.024c.024.036.048.071.036.131l-.142.252c-.048-.072-.132-.119-.18-.19-.179.12-.347.025-.514-.07l.035-.023c-.155 0-.275-.023-.454-.058.083-.108.19-.18.202-.24-.11-.238-.17-.56-.339-.655-.228-.107-.492-.344-.767-.367-.299-.058-.371-.165-.3-.369.128-.502-.149-.836-.532-.941-.503-.129-.731-.39-.925-.832-.024-.035-.084-.047-.168-.094-.179.12-.381.205-.62.314-.156-.155-.277-.333-.457-.524.226-.204.38-.36.642-.589-.155.001-.215-.01-.31.002a.595.595 0 0 0-.204-.07c.009-.527.009-.527-.376-.943a6.477 6.477 0 0 1-.723-1.072c.167-.06.263-.073.394-.11l.011-.06c-.024-.035-.036-.13-.072-.107-.12-.023-.24-.046-.322.062-.25.169-.418.074-.801-.032.49-.122.511-.397.654-.649-.192-.13-.313-.309-.611-.211-.203.084-.467.002-.694-.104.237-.42.597-.04.788-.22a5.23 5.23 0 0 0 .02-.741c.01-.06-.037-.131-.061-.167-.097-.143-.17-.406-.314-.465-.311-.153.046-.394-.062-.477-.312-.154-.302-.525-.435-.799 0 0 .012-.06.059-.144.18.035.37.01.55.045.142-.252.249-.48.62-.314.43-.134.92-.256 1.384-.414.021-.586.546-.732.904-.973-.015-.407.223-.671.58-.912.084.047.204.07.323.094.083-.264.249-.48.571-.541.191-.025.347-.026.514-.087.107-.072.238-.109.286-.193.152-.467.618-.625.855-1.045-.063-.477-.006-.932.543-1.198.203-.085.178-.276.153-.467.011-.06-.037-.131-.085-.203a1.29 1.29 0 0 1-.454.098l-.169-.25c.083-.108.287-.037.334-.276l-.718-.14c-.298.253-.01.37.015.562-.095.168-.214.3-.333.432-.168-.095-.287-.118-.395-.201-.238.264-.356.552-.714.637-.298.098-.572.386-.847.364-.43-.022-.668.243-.93.471-.452.41-.687 1.14-1.427 1.275-.06-.011-.095.168-.202.24-.19.18-.368.457-.606.566a1.69 1.69 0 0 0-.796.9c-.239.11-.406.17-.537.207-.082.263.3.369-.02.586-.47-.464-1.271-.65-1.324-1.5.131-.036.263-.072.514-.086-.674-.69-.679-1.622-1.244-2.228.095-.168.154-.312.248-.48-.287-.118-.527-.32-.589-.642.036-.024-.084-.047-.108-.083-.203.085-.346.181-.513.242-.133-.274-.133-.274.272-.6-.05-.226-.062-.477-.207-.692-.23-.417-.495-.81-.748-1.263.215.011.478.093.645.033.18-.12.321-.373.523-.613.443.117.716-.171.99-.46.273-.288.535-.517.88-.698.299-.097.56-.326.87-.483l.93-.627c.106-.072.285-.192.344-.336.165-.372.536-.362.834-.459.334-.121.38-.672.821-.71.156 0 .311-.002.418-.074.06.012.06-.144.106-.228-.263-.082-.502-.128-.766-.21 0-.156-.013-.252-.014-.407.3.058.574.08.812-.184-.132-.119-.23-.417-.325-.404-.455-.058-.54-.416-.71-.666.179-.276.332-.587.546-.887-.323-.094-.514-.07-.789.064-.214.144-.49.122-.752.195-.035.18-.034.335-.033.49-.262.074-.465.158-.656.183-.86.268-.895.292-.854 1.2-.12-.023-.264-.082-.443-.117l-.465.314c-.107.072-.19.18-.333.277-.309.312-.32.372-.33.898-.131.037-.31.002-.382.05-.179.12-.322.061-.454.098-.286.037-.393.265-.355.552-.012.06.036.131.049.227-.323.061-.323.061-.656.338-.261.229-.261.229-.104.539l.144.214c-.272.444-.437.97-.853 1.355l-.771-1.143a8.63 8.63 0 0 0-.886-.234c-.405.325-.247.79-.4 1.102.097.298.194.597.267.86.048.07.12.178.18.19.3.058.23.261.243.512.05.382.1.765.542.882.06.011.049.071.097.143a1.31 1.31 0 0 0-.13.347c.132.119.24.202.348.285-.083.108-.154.156-.273.288.515.225.459.835.831 1.155-.2.396.16.621.256.92.037.13.074.262.075.417 0 .156-.154.312-.034.49.061.168.026.347.087.514.405-.17.49-.122.587.176.109.239-.214.3-.165.527.384.261.384.261.506.75-.13.192-.296.408-.462.625.108.083.251.142.36.225.348.285.684.63.507 1.06-.093.324-.009.527.183.657s.205.226.17.406c0 .155.037.286.134.43.145.214.409.451.386.726-.07.36.35.44.291.74.003.466.482.56.639.869.133.274.395.046.587.176.06.012.083.047.132.119-.083.108-.226.204-.31.312-.141.252-.105.384.159.466.155-.001.31-.002.335.19.098.453.71.665.629 1.239-.012.06.132.119.18.19.12.179.277.333.362.536.267.704.76 1.203 1.205 1.786.301.37.662.75.677 1.312.012.095.18.19.288.273.3.214.624.463.639.87.014.405.218.631.483.87.24.201.396.356.326.715-.023.12.098.298.158.465.145.214.382-.05.539.104-.012.06-.024.12-.06.144a.613.613 0 0 1-.165.216c-.083.108-.19.18-.298.253-.119.132-.094.323.05.382.048.072.168.095.252.142.276.178.718.14.733.702-.01.215.791.402 1.065.269.035-.18.106-.384.13-.503.226-.05.417-.074.608-.1a3.852 3.852 0 0 0-.064-.788c.346-.181.348.285.6.272.166-.06.405-.17.583-.29.036-.024.048-.084.06-.144-.085-.203-.17-.406-.23-.573.19-.18.297-.097.37.01.18.19.348.285.634.092l-.29-.428-.24-.358c.274-.133.512-.242.75-.35.215-.145.394-.266.596-.35Zm-9.943-25.527c-.12.132-.275.133-.347.026-.072-.107-.073-.263-.074-.418l.107-.072c.06.011.12.023.144.059.072.107.133.274.17.405Zm-1.045 1.38c-.024-.035-.06-.011-.048-.07.012-.06.035-.18.07-.204.036-.025.156-.001.24.046-.047.084-.059.144-.13.192-.036.024-.096.013-.132.037Zm.786 16.732c-.06-.012-.13.036-.155 0a.327.327 0 0 1-.025-.19c.036-.025.131-.037.155-.001a.327.327 0 0 1 .025.19Zm9.567 7.012c-.036.024-.012.06-.012.06-.047.083-.155.156-.226.204l-.048-.072c.047-.083.119-.132.166-.216.036-.024.06.012.12.024Zm-12.676-18.016c.024.035.048.071.037.13-.036.025-.096.013-.132.037.012-.06-.012-.095-.025-.19.025.035.06.01.12.023Zm-2.717-2.795c-.036.024-.036.024-.047.084-.024-.035-.084-.047-.108-.083l.011-.06c.06.012.084.048.144.06Zm2.73 7.36c.025.037.013.096.037.132-.06-.011-.095.013-.155.001-.024-.036-.013-.096-.001-.155.024.035.06.011.12.023Zm.926.833c-.072.048-.143.096-.239.108l-.024-.035c.071-.049.143-.097.19-.18l.073.107Zm3.683 4.534c-.036.024-.048.084-.083.108l-.06-.012c.011-.06.047-.084.083-.108l.06.012Zm-.243 3.647c.024.036-.012.06.012.095-.024-.035-.084-.047-.084-.047-.024-.036-.024-.036.012-.06l.06.012Zm3.647 2.323-.012.06c-.06-.012-.084-.048-.108-.084 0 0-.024-.035.012-.06.024.036.084.048.108.084Zm8.505-3.191c.024.035.013.095.013.095-.06-.011-.096.013-.156.001.036-.024.048-.084.083-.108l.06.012Zm-2.973 7.153c-.278-.644-.386-.727-.744-.642.109.239.23.417.338.656.131-.037.251-.014.406-.014Zm-3.884-4.294c.321-.217.321-.217.514.069l.286-.193-.036.024c-.013-.251-.121-.334-.337-.345-.18-.035-.238.109-.321.217-.012.06-.06.144-.07.204l-.036.024Zm-2.38-13.16-.43.289c.491.033.491.033.43-.29Zm3.43-4.394c-.096.012-.156 0-.251.013l-.012.06c.06.011.144.059.204.07.011-.06.011-.06.059-.143Zm-4.384 13.615a.595.595 0 0 0-.215-.01c-.024-.036-.071.048-.047.084.036.13.096.143.203.07.036-.024.048-.084.06-.144Zm7.605 6.88.215-.145c.154-.156.106-.228-.097-.298-.06-.012-.096.012-.132.036-.023.12.014.251.014.407Zm4.956-7.451c-.024-.036-.048-.072-.108-.083-.036.024-.072.048-.047.084-.012.06.048.071.108.083 0 0 .035-.024.047-.084Zm-4.97 7.044c-.144-.059-.121-.334-.395-.2.143.058.251.141.395.2Zm-.404.325c.252.298.252.298.454.058-.155 0-.31.001-.454-.058ZM136.7 36.13s-5.75-7.61-11.7-3.19c-5.95 4.42-2.25 14.55 2.81 19.19 5.06 4.64 14 8.47 14 8.47s11-9.26 11-22-11.3-10.69-16.11-2.47Z" fill="#B90A03"/><path d="M23.48 100.6s-4.84-8.21 1.51-12c6.35-3.79 14.31 3.47 16.67 9.91 2.36 6.44 2.48 16.21 2.48 16.21s-12.76 6.66-24.55 1.78c-11.79-4.88-5.55-14.6 3.89-15.9Z" fill="#FD9393"/><path d="M59.86 23.02s-8-5.16-12.08 1 2.91 14.43 9.26 17c6.35 2.57 16.09 3.12 16.09 3.12s7.16-12.5 2.74-24.46-14.31-6.08-16.01 3.34Z" fill="#F74B55"/></g></svg>