<svg width="359" height="213" xmlns="http://www.w3.org/2000/svg"><g fill="none" fill-rule="evenodd"><path d="M45.648 112.584c-16.743 1.281-30.23 9.164-37.567 21.226-7.069 11.62-7.4 25.71-.46 36.67l.249.389c5.229 7.987 12.566 12.523 20.913 14.179l.47.09-.091.282c-3.34 10.578-2.79 20.324 2 28.168l.221.355c7.402 11.718 22.301 15.692 38.868 11.616 12.14-2.989 24.354-13.117 37.246-28.555 5.154-6.171 10.093-12.815 14.7-19.564l.414-.612.27.375c4.892 6.743 9.516 12.318 13.862 16.478l.464.44.723.669c6.61 6.02 12.788 9.075 19.754 7.451 6.535-1.526 11.497-5.778 15.033-11.726 2.443-4.11 4.117-8.853 5.253-14.01a68.547 68.547 0 0 0 1.124-6.67l.072-.63c.11-1.006.172-1.8.201-2.34a10 10 0 0 0-4.605-8.963l-11.546-7.37 35.3 2.766c7.347.575 12.736-6.71 10.125-13.531l-.109-.273-6.92-16.674 46.016-25.441 11.913 23.1c4.84 9.397 16.26 13.185 25.73 8.635l.315-.155.493-.256c8.084-4.345 11.823-13.565 9.62-22.04l-.115-.418.26.075a19.554 19.554 0 0 0 13.797-1.207l.318-.156.375-.195.126-.066a19.555 19.555 0 0 0 8.994-10.204l.185-.5.853 1.657c4.842 9.399 16.277 13.195 25.745 8.628l.315-.155.477-.25c9.64-5.18 13.116-17.295 7.69-26.786l-17.03-29.87.054-.04c9.582-7.542 12.604-21.08 6.667-32.114l-.254-.46-.216-.376c-6.967-11.856-22.077-16.07-34.164-9.517L179.61 75.229l-.037-.148a9.979 9.979 0 0 0-1.234-2.815l-.158-.24-15.232-22.468c-4.22-6.224-13.541-5.738-17.092.89L127.613 84.51l-2.304-19.73a10 10 0 0 0-3.387-6.4l-.261-.218c-.246-.199-.63-.498-1.139-.878a64.622 64.622 0 0 0-2.69-1.898c-2.841-1.902-5.855-3.624-8.985-5.01-7.074-3.132-13.83-4.234-20.263-1.96-8.473 2.994-13.331 10.902-14.476 22.268-1.1 10.96 1.487 22.284 6.86 33.754a104.788 104.788 0 0 0 3.625 7.017l.107.188-.7-.01a554.074 554.074 0 0 0-20.175.087l-2.186.056-1.6.049a326.77 326.77 0 0 0-14.391.76Zm-8.482 43.039-.29-.072.032-.01c2.426-.82 6.176-1.35 11.077-1.267l.478.01.797.023c4.035.132 8.563.508 13.462 1.096 5.366.645 10.932 1.512 16.45 2.516l1.462.27-.182.529c-.23.66-.466 1.326-.71 1.996l-.373 1.008c-2.432 6.507-5.243 12.486-8.37 17.459-3.701 5.883-7.577 9.898-11.284 11.722-.611.302-1.2.58-1.762.832l-.444.195.143-.328c2.057-4.671 5.534-10.669 10.433-17.856l.894-1.301c4.719-6.823-.444-16.05-8.656-15.68l-1.194.068-1.31.059c-.464.018-.952.034-1.464.048-2.924.079-5.956.066-8.908-.073-2.605-.122-5.015-.339-7.141-.654a37.967 37.967 0 0 1-3.14-.59Z" fill="#FFF" fill-rule="nonzero"/><path d="m306.977 47.623 22.405 43.446c2.428 4.714 8.25 6.518 12.913 3.995 4.684-2.518 6.377-8.408 3.737-13.025l-22.06-38.692s-14.86-32.82-16.995 4.276ZM271.922 53.167l20.719 38.781c2.52 4.713 8.375 6.48 13.072 3.946 4.697-2.533 6.44-8.407 3.887-13.095l-17.267-31.694s-18.284-35.041-20.411 2.062ZM246.026 72.454 268.43 115.9c2.428 4.714 8.243 6.512 12.913 3.995 4.685-2.518 6.363-8.407 3.737-13.025L263.013 68.17s-14.86-32.82-16.987 4.283Z" fill="#EF7B7B"/><path d="M67.86 215.85c25.98-6.398 57.638-62.374 57.638-62.374L329.435 40.725c7.638-4.217 10.296-13.904 5.883-21.433-4.237-7.21-13.426-9.777-20.779-5.79L113.097 122.64s-37.595-2.318-66.687-.085c-29.099 2.226-40.272 27.366-30.174 42.836 10.127 15.468 29.229 9.07 29.229 9.07-18.894 29.47-3.578 47.778 22.395 41.388Zm-7.106-49.094s-30.57 2.128-34.81-6.508c-4.264-8.656 3.196-16.442 22.765-15.961 19.563.489 44.623 6.296 44.623 6.296s-9.334 39.515-29.19 49.288c-19.856 9.8-27.577 1.859-3.388-33.115Z" fill="#FF9897"/><path d="m122.395 126.043-.961-8.235-6.057-51.868s-28.429-22.966-31.319 5.743c-2.882 28.715 26.98 58.655 26.98 58.655l11.357-4.295Z" fill="#CF110D"/><path fill="#CF110D" d="m154.673 55.17-39.072 70.342 9.828 6.515 44.03-54.007z"/><path fill="#CF110D" d="m126.918 137.658 72.378 5.67-9.137-22.014-65.005 7.135zM114.541 145.796s28.146 49.673 40.869 46.707c12.729-2.973 13.972-26.172 13.972-26.172l-49.596-31.655-5.245 11.12Z"/><path d="M116.264 145.688c6.73.504 12.598-4.545 13.103-11.276.504-6.73-4.545-12.599-11.276-13.103-6.73-.504-12.599 4.545-13.103 11.276-.504 6.73 4.545 12.598 11.276 13.103Z" fill="#BC1314"/><path d="m231.597 70.934.321.909a4.278 4.278 0 0 0 5.99 2.35l74.09-38.295a4.267 4.267 0 0 0 1.806-5.808c-1.094-2.041-3.62-2.842-5.68-1.803L233.7 65.675a4.283 4.283 0 0 0-2.103 5.259Z" fill-opacity=".459" fill="#FFFDFE"/><path d="M96.6 129.031c.378-5.087-18.8-6.22-38.461-4.99-19.653 1.237-8.545 9.592-8.545 9.592 34.117 2.56 46.613.486 47.006-4.602Z" fill-opacity=".471" fill="#FFFDFE"/></g></svg>