<svg width="500" height="325" xmlns="http://www.w3.org/2000/svg"><g fill="none" fill-rule="evenodd"><g fill-rule="nonzero"><path d="M146.05 78.795c11.874-8.88 27.67-13.286 43.897-9.961 13.852 2.839 24.006 14.052 31.26 26.787 11.755 4.517 19.272 9.17 22.06 11.035l-.008.312.848 2.376 80.201 124.627c.748.856 1.285 1.667 1.579 2.423 4.49 11.54-136.05 100.33-154.94 107.72-17.946 7.02-23.807 5.955-24.348 5.83l-.035-.008-.401-.432c-13.54-15.092-80.256-120.11-80.256-120.11l-1.837-2.75a5.292 5.292 0 0 1-.023-.02l.001-.017v-.004l.003-.018c.07-.741 1.162-12.102 2.952-28.172-13.38-18.887-14.226-38.9 1.364-57.109a45.592 45.592 0 0 1 6.855-6.508c3.837-24.953 8.242-46.64 12.505-52.072 5.964-7.6 31.357-6.863 57.74-3.487Zm-9.493-35.641s-5.75-7.61-11.7-3.19c-5.95 4.42-2.25 14.55 2.81 19.19 5.06 4.64 14 8.47 14 8.47s11-9.26 11-22-11.3-10.69-16.11-2.47Zm-113.22 64.47s-4.84-8.21 1.51-12c6.35-3.79 14.31 3.47 16.67 9.91 2.36 6.44 2.48 16.21 2.48 16.21s-12.76 6.66-24.55 1.78c-11.79-4.88-5.55-14.6 3.89-15.9Zm36.38-77.58s-8-5.16-12.08 1 2.91 14.43 9.26 17c6.35 2.57 16.09 3.12 16.09 3.12s7.16-12.5 2.74-24.46-14.31-6.08-16.01 3.34Z" fill="#FF746C"/><path d="M146.186 26.529h.383c9.88.153 16.098 8.214 16.098 19.095 0 5.434-1.325 10.544-3.628 15.3a64.282 64.282 0 0 1 32.916-1.886c14.746 3.022 26.537 13.116 35.9 28.2l.213.347.047.02c8.373 3.435 15.14 7.067 20.226 10.417l.487.323a10 10 0 0 1 4.177 6.035l79.375 123.655.113.138c1.05 1.309 1.902 2.67 2.531 4.148l.182.447c1.7 4.37.691 8.163-1.583 11.878-1.227 2.004-2.937 4.072-5.162 6.36-3.6 3.701-8.765 8.172-15.416 13.41l-.648.51c-12.12 9.498-29.019 21.45-48.657 34.533l-1.018.678a1516.55 1516.55 0 0 1-7.789 5.145l-2.236 1.465c-33.931 22.183-68.467 42.909-78.107 46.68l-1.282.496c-11.211 4.292-19.284 6.113-24.982 6.15h-.303c-1.42-.012-2.634-.146-3.66-.382l-.164-.039a10 10 0 0 1-4.964-2.912l-.515-.558-.392-.443c-6.584-7.555-22.233-30.505-44.638-64.789l-3.695-5.664A5571.088 5571.088 0 0 1 73.08 259.15l-5.1-7.938c-1.98-3.088-3.862-6.028-5.626-8.79l-4.838-7.587-1.554-2.326a10 10 0 0 1-1.91-6.191l.016-.337.059-.668.457-4.629.35-3.454c.376-3.676.783-7.559 1.22-11.61l.507-4.671-.157-.246c-13.879-21.951-13.031-45.228 3.727-65.264l.54-.639a55.79 55.79 0 0 1 4.97-5.108l.18-.161.403-2.53C70.69 99.8 74.67 83.406 79.696 76.762l.164-.213c5.29-6.74 14.792-9.218 28.75-9.68 3.914-.13 8.203-.082 12.829.13l-.53-.476c-4.101-3.76-7.298-9.293-8.538-14.88-1.675-7.545.188-15.002 6.523-19.707 5.2-3.863 11.012-4.212 16.238-2.1l.37.153.157-.104c3.07-2.016 6.537-3.23 10.083-3.348l.444-.01ZM19.722 87.037c6.758-4.033 14.346-2.91 20.675 1.502 4.696 3.274 8.596 8.332 10.51 13.554 1.343 3.666 2.161 7.927 2.65 12.623a87.82 87.82 0 0 1 .316 3.861l.04.736c.05.945.074 1.708.083 2.257v.341a10 10 0 0 1-5.096 8.548l-.409.218-.196.099c-2.788 1.38-6.555 2.773-11.044 3.676-7.345 1.478-14.697 1.181-21.629-1.688-10.065-4.166-15.126-13.015-11.49-22.21 1.411-3.571 4.003-6.589 7.28-8.822l.159-.106-.002-.262c.002-.347.014-.696.036-1.047l.04-.53c.47-5.211 3.207-9.843 8.077-12.75Zm43.626-76.101c9.33-3.322 17.98 2.078 21.759 12.302 2.38 6.441 2.588 13.191 1.232 19.932a47.058 47.058 0 0 1-3.983 11.656l-.121.242c-.131.257-.254.49-.367.699l-.204.367a10 10 0 0 1-9.24 5.014l-.846-.056a84.523 84.523 0 0 1-3.06-.293c-2.847-.32-5.706-.77-8.445-1.387-2.52-.567-4.834-1.251-6.928-2.098-5.163-2.09-10.095-6.187-13.2-11.015-4.19-6.516-5.015-14.18-.645-20.777 2.946-4.448 7.36-6.97 12.288-7.426a18.545 18.545 0 0 1 2.388-.067l.205.011.115-.159c2.27-3.08 5.241-5.496 8.693-6.813l.36-.132Z" fill="#FFF"/><path d="M64.047 226.624s12.34-129.45 23.68-143.9c11.34-14.45 92.93 1.24 118 7.9 20.794 5.524 33.76 13.497 37.577 16.057l-.547 24.193s-158.95 111.99-178.71 95.75Z" fill="#FF746C"/><path fill="#751C0D" d="m65.907 229.394-1.86-2.79 179.13-119.87.93 2.61-5.01 59.51-28.85 64.95-69.91 13.25z"/><path d="M126.447 125.464s-37-8.78-58.08 15.84c-21.08 24.62-12.11 52.54 17.26 76.51 29.37 23.97 57.59 26.9 57.59 26.9l68.34-10.17 25.45-94.18s-11-64.14-47.06-71.53c-36.06-7.39-69.99 23.4-63.5 56.63Z" fill="#FFDFCB"/><path d="M146.557 349.934s5.5 1.57 24.39-5.82c18.89-7.39 159.43-96.18 154.94-107.72-4.49-11.54-65.71-36-65.71-36l-63.74 15.23-7.81 7.65-57.58 86.6 15.51 40.06Z" fill="#D11112"/><path d="M65.907 229.394s68.07 107.15 80.65 120.54l43.45-127.64-124.1 7.1ZM244.107 109.344l-47.67 106.28s89.49 5.16 129.46 20.82l-81.79-127.1Z" fill="#B90A03"/><g fill="#B90A03"><path d="M189.011 135.208c.048-.084.13-.192.178-.276-.287-.118-.287-.118-.61-.057.073.263.289.274.468.309l-.715.326c-.228-.106-.361-.38-.66-.283-.225.204-.151.622-.605.72-.001-.155.022-.275.01-.37.011-.06.07-.204.01-.216-.096-.143-.347-.13-.324-.404-.024-.036-.144-.06-.228-.107-.06-.011-.144-.059-.228-.106-.276-.178-.276-.333.057-.61.179-.12.202-.24.022-.43-.203.084-.43.133-.597.194-.192-.13-.324-.25-.432-.332a16.493 16.493 0 0 1-.006-1.088c.071-.048.287-.038.238-.265-.048-.071-.073-.107-.132-.118-.443.038-.55-.045-.624-.308-.049-.227-.074-.418-.098-.609l-.097-.143c-.155 0-.382.05-.513.086-.097-.142-.18-.19-.253-.297-.072.048-.203.085-.274.133-.048-.072-.156-.155-.169-.25-.025-.191-.216-.166-.288-.274-.073-.107-.133-.274-.05-.382.035-.18.178-.276.272-.444.156 0 .335.034.55.045-.276-.333-.422-.703-.864-.82-.048.084-.13.192-.178.276-.264-.082-.467-.153-.73-.235a2.165 2.165 0 0 0-.135-.585c-.06-.167-.193-.286-.35-.44.18-.121.25-.17.43-.29-.324-.094-.623-.152-.637-.558.012-.06-.085-.203-.204-.227-.204-.07-.24-.201-.337-.344-.277-.334-.35-.752-.424-1.17-.252-.142-.564-.296-.816-.438-.085-.358-.207-.692-.16-1.087.022-.12-.014-.25-.05-.382-.252.013-.431-.022-.682-.008-.086-.358-.243-.668-.304-.99-.037-.288-.062-.479-.386-.573-.095.013-.24-.202-.252-.297.141-.407-.23-.573-.363-.847-.145-.214-.325-.405-.35-.596-.038-.286-.218-.477-.387-.727-.433-.643-.76-1.359-1.158-2.026-.096-.143-.121-.334-.253-.453-.097-.143-.24-.202-.372-.32-.133-.12-.026-.347-.147-.526a8.913 8.913 0 0 1-.736-1.323c-.072-.107-.109-.238-.061-.322.13-.348-.015-.562-.22-.788a3.132 3.132 0 0 0-.745-.797c-.084-.047-.169-.25-.181-.346-.003-.466.402-.79.857-.734.095-.012.287.119.276.178-.106.383.241.513.48.56.384.105.47.463.674.69.132.118.11.393.17.56.23.418.304.99.938 1.083.096-.012.18.19.253.298.47.774.47.774 1.094 1.237l.048.072c.001.155.026.346.027.502.359.07.359.07.455.212.06.167.097.299.158.466-.13.347.027.657.22.943.18.19.456.368.732.546.288.118.528.32.601.582.086.359.385.417.672.535-.059.144-.153.311-.26.54.323-.062.515.068.6.27.157.466.708.667.83 1.156.515.225.578.702.64 1.18.048.072.145.215.24.202.347-.026.407.141.409.452-.035.18.24.358.433.488.384.261.852.57.76 1.203.55.2.815.594.926 1.143.037.287.194.597.458.679.455.213.66.594.865.976.037.131.17.25.241.357l.627.93c-.117.442.23.572.518.69.108.083.192.13.3.213.073.263.086.514.147.68.18.191.372.322.408.453.013.096-.177.276-.26.384-.012.06.036.131.024.191.144.059.252.142.408.141.155 0 .286-.037.24.202.227-.049.359.07.42.237.12.334.432.488.72.761-.322.062-.092.479-.39.576-.263.073-.01.37-.201.551-.155.156-.237.42-.343.648-.216-.011-.3-.059-.265-.238Zm-4.047-5.848c-.06-.012-.084-.048-.108-.083.024.035.084.047.084.047l.29.429a1.768 1.768 0 0 1-.37.3c.192.131.336.19.442-.038.036-.024-.06-.167-.109-.238.226-.204.034-.335-.062-.478 0 0-.131.037-.167.06Zm-.604-1.204c-.156-.155-.277-.334-.433-.488-.024-.036-.155 0-.227.049-.036.024-.059.144-.035.18.168.094.133.274.194.44a.265.265 0 0 0 .204.227c.18.035.179-.12.238-.265.036-.024.047-.084.059-.143Zm-1.65-.135c-.071.203-.094.323-.13.503.287-.038.563-.015.8-.28-.227-.106-.407-.14-.67-.223Zm3.123.7c.035-.179.083-.263.094-.323a.547.547 0 0 0-.109-.238s-.095.012-.131.036a.337.337 0 0 0-.047.24c-.011.06.073.107.193.286Zm-6.679-6.204a.547.547 0 0 0-.238.109c-.036.024-.012.06-.024.12.06.011.096-.013.132-.037.035-.024.083-.108.13-.192Zm.697.725c.216.011.275.023.311-.001.06.011.18.035.143-.097-.024-.035-.108-.083-.144-.059-.06-.011-.131.037-.31.157Zm-1.805-2.369c.06.012.095-.012.131-.036.012-.06-.012-.096 0-.156-.072.048-.132.037-.168.06-.012.06.013.096.037.132Zm8 11.864c.024.036.012.096.036.131l.036-.024c.036-.024.012-.06.047-.084l-.12-.023Zm1.075 2.134.214-.144-.024-.036-.214.144.024.036Zm-4.42-10.64c-.035.025-.095.013-.13.037-.036.024.012.096 0 .155.036-.024.096-.012.131-.036.036-.024.024-.12 0-.155Zm-.648-.498c-.024-.036-.084-.047-.084-.047-.011.06-.047.083-.083.108.024.035.084.047.084.047.012-.06.048-.084.083-.108Zm5.671 9.952.048.071.024-.12c-.024-.035-.06-.011-.06-.011-.036.024-.012.06-.012.06Zm-9.433-16.148ZM166.516 133.378c.072-.048.203-.085.215-.145-.014-.406.007-.836-.306-1.3-.035.179-.142.25-.13.346-.01.371.1.765.281 1.11a.52.52 0 0 0-.058.3c-.24-.047-.55-.045-.647-.343l-.358.24c-.192-.285-.35-.595-.59-.797-.384-.261-.565-.762-.985-1-.084-.047-.097-.297-.134-.429.323-.061.573-.075.703-.422-.096-.143-.17-.405-.313-.464-.288-.118-.17-.406-.29-.43-.263-.082-.288-.273-.337-.5a4.003 4.003 0 0 0-.17-.56c-.443-.118-.5.492-.918.41-.06-.166-.086-.357-.17-.56-.061-.167-.158-.31-.339-.656-.034.335-.033.49-.068.67-.228-.262-.373-.476-.577-.702.117-.443-.363-.692-.365-1.158-.013-.25-.205-.381-.492-.344-.072.048-.155 0-.215-.01-.133-.275.045-.395.2-.552.143-.096.202-.24.177-.431l-.072-.107.072.107c-.227.049-.368.456-.668.243a1.672 1.672 0 0 0-.388-1.038.613.613 0 0 1-.216-.167c-.193-.285-.374-.631-.268-1.014.393-.11.393-.11.476-.373-.311.001-.646-.033-.921-.055.082-.264.14-.563.234-.886-.19.025-.322.061-.477.062a1.617 1.617 0 0 0-.277-.333c.31-.157.117-.443.223-.67.156-.001.311-.002.502-.027-.12-.334-.29-.584-.363-.847-.024-.036.095-.168.095-.168.467.153.657-.183.966-.34a10.001 10.001 0 0 0-.051-.693c.528.32.519.846.545 1.348.013.251-.141.407-.296.564.203-.085.406-.17.598-.04.132.12.36.226.384.417.074.263.325.405.339.656.037.286.229.417.445.583a.8.8 0 0 1 .097.298c.014.407.29.585.566.762.396.202.59.643.949.868.024.036.037.131.06.167.386.572.546 1.348 1.264 1.643.06.012.049.072.097.143.24.357.506.75.783 1.084l.144.214c.24.047.455.057.67.068.145.215.277.334.397.512a2.788 2.788 0 0 0-.129.503c.24.047.383.106.587.176.061.323.099.61.148.836.168.095.311.154.395.201.108.083.192.13.276.178.144.06.275.023.43.022.099.454.22.788.306 1.146.084.047.12.023.143.059.156-.001.275.022.43.021-.058.144-.153.312-.152.467-.023.275.3.214.385.417.024.036.012.095.036.131l.024.036c-.024-.036-.06-.012-.06-.012l-.071.048c.072.108.109.239.193.286.67.224.948.712 1.202 1.32.024.037.084.048.168.096.106-.228.177-.432.272-.6.384.261.408.297.23.573-.048.084-.13.192-.118.288.013.25.062.477.135.74.024.036.12.023.144.059.226-.204-.242-.513.164-.682.048.071.072.107.156.154.192.13.515.225.636.403.168.25.443.273.695.415a.368.368 0 0 1 .169.25c.05.382.301.525.625.619.035-.025.048.071.072.107a2.03 2.03 0 0 1-.13.192c-.19.18-.288-.118-.454.098.038.442.172.871.758.892l-.036.024c.097.299.408.297.624.463l.322-.217c.395.202.648.499.674 1.001-.011.06.435.799.519.846.072.107.18.19.157.31-.047.24.026.502.075.729.025.19-.13.347-.309.312a.942.942 0 0 0-.228-.106c-.263-.083-.573.075-.644.278-.07.204.098.298.23.417a.428.428 0 0 1 .206.537c-.287.038-.55.11-.8.124a1.258 1.258 0 0 0-.289-.274c.205.382-.237.42-.319.684-.082.263-.248.479-.402.79-.204-.07-.443-.117-.647-.187-.094.168-.165.371-.26.54-.047.083-.25.168-.274.132-.264-.238-.49-.033-.645.123-.393.265-.798.59-1.3.616-.476.374-.871.172-1.244-.148l-.035.18c.04.597-.008.68-.509.863-.465.157-.956.124-1.398.162l-.356.397c-.108-.083-.18-.19-.265-.238-.383-.261-.383-.261-.266-.704.082-.263.104-.538-.136-.74-.167.06-.334.121-.477.217.261-.384.438-.815.977-.71.06.012.167-.06.203-.085.083-.108.106-.228.237-.264.274-.133.452-.409.811-.34.311 0 .452-.408.799-.434.131-.036.3.059.538.105-.122-.49.247-.79.582-.756.526.01.716-.327 1.013-.58.36.07.707.2 1.066.27-.038-.287-.075-.573-.088-.824.238-.11.55.045.62-.314-.144-.06-.288-.118-.408-.142-.19.025-.178.276-.453.098-.001-.155-.015-.406-.04-.597a1.018 1.018 0 0 0-.43-.177c.236-.42.437-.815.303-1.245-.072-.107-.216-.166-.324-.25-.082.264-.081.42.135.586.108.083.013.25-.082.263-.096.013-.287.038-.335-.034-.265-.393-.53-.786-.461-1.3-.228-.107-.48-.249-.683-.32-.11-.238-.004-.621-.422-.547l.033-.646c-.013-.095-.12-.179-.157-.31-.179.12-.298.253-.452.409-.098-.454-.16-.776-.603-.893l-.035.18c-.646-.189-.71-.822-.963-1.275.237-.42-.16-.776-.054-1.16-.335-.189-.671-.378-.983-.532Zm-1.597-1.366c.122.49.16.931.604 1.204.323-.062.213-.455.452-.564-.313-.31-.518-.69-1.056-.64Zm9.019 7.746c-.466.158-.466.158-.284.66.19-.181.237-.42.284-.66Zm-7.644-10.025c-.156-.154-.265-.393-.527-.164.23.417.23.417.527.164Zm-2.323-2.904c-.034.18-.01.37-.02.586.261-.229.261-.229.02-.586Zm-2.106-2.739c.048.072.06.168.085.203l.06.012c.011-.06-.013-.096-.001-.155-.024-.036-.084-.048-.144-.06Zm8.642 13.51c.013.096.061.168.073.263h.156l-.038-.287c-.024-.036-.12-.024-.19.025Zm-10.41-13.357c-.12-.178-.133-.274-.193-.286-.024-.035-.06-.011-.12-.023-.011.06-.023.12.001.156.06.011.144.059.312.153Zm12.83 14.325c-.06-.012-.108-.083-.228-.106 0 0-.06-.012-.095.012-.012.06.012.096.036.131.12.18.192.131.287-.037Zm-9.442-10.996c-.011.06.013.096.001.156.036-.024.131-.037.167-.06 0 0-.012-.096-.036-.132-.036.024-.096.012-.132.036Zm4.418 3.623c-.011.06-.047.084-.059.144.025.036.084.047.084.047.06.012.108-.072.143-.096-.06-.012-.108-.083-.168-.095Zm4.7 9.204c.01-.06.022-.12-.002-.156-.06-.011-.12-.023-.19.025l-.024.12c.06.012.155 0 .215.01Zm-4.215-5.632c.06.011.132-.037.168-.06 0 0-.025-.037.011-.06-.06-.012-.095.012-.167.06 0 0 .024.036-.012.06Zm.291.74c.036-.025.036-.025.096-.013-.024-.036-.013-.096-.037-.131-.024-.036-.06-.012-.06-.012-.011.06.013.096.001.155Zm5.689 6.508s.036-.024.012-.06c0 0-.06-.011-.096.013 0 0 .024.036-.012.06.036-.024.06.011.096-.013Zm-9.166-10.818c.011-.06.047-.083.059-.143l-.06-.012c-.036.024-.047.084-.083.108 0 0 .06.012.084.047Zm8.966 6.898.036-.024-.29-.429c.178-.275.394-.265.585-.134.084.047.038.287.086.358-.203.085-.31.157-.417.23Zm-11.183-7.95c.227-.049.442-.038.586.176-.13.192-.213.3-.418.074a.547.547 0 0 1-.18-.19l.012-.06Zm6.433 2.68-.024-.036c.119-.132.178-.276.344-.492.06.167.133.274.146.37-.167.06-.299.097-.466.158Zm-6.445-2.62c-.418.074-.418.074-.3-.369.132.119.24.202.312.31l-.012.06Zm11.82 12.98.07-.049c.025.036.013.096.037.132l-.071.048c.012-.06-.012-.096-.037-.132Zm-10.526-12.449c-.214.145-.262.229-.298.253-.095.012-.179-.035-.239-.047.072-.048.083-.108.155-.156.071-.048.131-.037.382-.05Zm3.082 4.108.012-.06.071-.048c-.012.06.012.096.012.096-.035.024-.035.024-.095.012Zm-1.173 11.135c.036-.024.084-.108.12-.132l.06.012c-.013.06-.024.12-.06.144l-.12-.024Zm-6.679-26.634c-.036.024-.047.084-.083.108 0 0-.06-.011-.084-.047l.06.012.107-.073Zm-1.734 2.054c.06.011.095-.013.095-.013-.011.06.013.096.001.156l-.06-.012c-.024-.036-.012-.096-.036-.131ZM150.097 156.978l.035-.18c-.025-.035-.084-.047-.108-.082.024.035-.012.06-.024.12l.097.142c-.144-.059-.348-.13-.383-.105-.25.324-.49.122-.693.051-.252-.142-.492-.344-.768-.522-.167.06-.299.097-.466.158-.18-.19-.372-.32-.54-.416-.192-.13-.395-.2-.563-.295-.107.072-.215.144-.298.252-.109-.238-.229-.417-.23-.572-.001-.311-.42-.237-.361-.536l.024.035c-.013-.095-.001-.155-.025-.19.01-.371-.098-.455-.396-.357-.203.084-.405.325-.68.302-.025-.191-.062-.322-.134-.43-.169-.25-.48-.403-.578-.702.012-.06-.275-.022-.275-.022-.034.18-.118.287-.321.217-.145-.215-.338-.5-.422-.703.07-.204.165-.372.224-.516-.193-.285-.48-.248-.73-.235-.478.062-.502.027-.72-.45-.012-.096-.096-.143-.18-.19-.132.036-.287.037-.383.05-.168-.25-.349-.441-.457-.68a1.722 1.722 0 0 0-.53-.63c-.276-.178-.492-.345-.613-.679a.368.368 0 0 0-.169-.25c-.3-.213-.337-.5-.303-.835.047-.24.058-.454-.087-.669-.085-.203-.253-.453-.051-.693.035-.024-.097-.143-.18-.19-.025-.036-.132.036-.204.085-.011.06-.023.12-.059.143-.071.048-.13.037-.226.05.047-.085.034-.18.046-.24.072-.048.179-.12.262-.229.036-.024.023-.12-.013-.25l-.393.265c-.11-.239.044-.55-.243-.669-.228-.106-.455-.212-.623-.307.022-.275-.087-.514.223-.67.143-.097.142-.252.046-.395-.06-.167-.168-.095-.323-.094-.323.061-.623-.152-.516-.38.153-.312.14-.563.103-.85.023-.12.178-.275.237-.42-.12-.178-.384-.26-.338-.5.083-.263-.192-.285-.289-.428.153-.467.153-.467.103-.85a6.956 6.956 0 0 1 .192-2.104c.082-.42.283-.815.448-1.186.248-.635.568-1.163 1.116-1.584.19-.18.416-.385.487-.588.141-.407.403-.636.748-.817.56-.326.88-.853.984-1.547.035-.18.118-.443.188-.647.083-.263.178-.276.538-.05.083-.109.142-.252.25-.325.107-.072.25-.168.31-.157.407.297.476-.217.715-.326.288.273.288.273.719.295.06.167.12.334.17.56l.858-.578c.071-.048.202-.084.286-.037.324.094.454-.098.596-.35.095-.168.393-.265.561-.17a.33.33 0 0 1 .192.13c.23.418.552.356.886.235.071-.048.143-.097.238-.109.132-.037.288.118.265.238-.024.12-.047.239-.13.347-.083.108-.047.24.073.263.12.023.227-.05.358-.086-.037-.287-.05-.538-.1-.764.359-.086.633-.219.85.103.144.214.36.225.586.176l.394-.11c.194.442.672.38.876.605.227-.049.418-.074.657-.183.037.287-.01.527.337.5.155 0 .288.119.455.214l.68-.458c.12.178.18.345.265.548.406-.17.74-.135 1.064-.041.002.466.002.466.445.583a3.32 3.32 0 0 0 .248-.635l.506.75c.251-.013.466-.002.657-.027.314.465.65.81 1.022 1.13.108.084.18.19.253.298l.265.393c.478-.062.861.043 1.185.293.288.273.099.609.112.86.468.308.995.473 1.082 1.142.013.095.156.154.229.261.18.19.384.417.565.607.408.452.472 1.085.916 1.513.084.048.06.167.073.263.037.131.038.287.11.394.604 1.204.91 2.505 1.251 3.783-.119.132-.273.288-.392.42-.048.084-.082.264-.034.335.398.667.398.667.294 1.361-.082.264-.045.55.028.813.073.263.014.406-.105.538-.13.192-.309.313-.368.457-.095.168-.046.394-.056.61-.239.108-.513.241-.787.374.002.467-.14.874-.376 1.293-.249.48-.725.853-.89 1.38.013.095-.13.192-.201.24-.512.397-.892.913-1.344 1.322-.357.396-.665.864-1.202 1.07-.203.085-.357.241-.523.457-.19.18-.405.325-.68.458-.262.073-.451.409-.678.613l-.071.048c-.49.123-.918.412-1.409.378-.239-.046-.346.026-.477.218-.047.084-.238.109-.298.097-.3-.213-.49-.033-.789.064-.142.097-.25.014-.335-.19-.11-.393-.218-.476-.48-.403-.49.122-.933.005-1.363-.017Zm-3.112-5.231.5-.338c.54.416 1.104.712 1.584 1.116.192.13.563.14.814.127.275.022.514.069.742.175.084.048.24.202.24.202.369-.3.718.14 1.063-.041.203-.085.454-.098.681-.147.013.095 0 .155.013.25.323-.06.61-.098.968-.184.096.143.133.275.253.453l.5-.337c.132.119.253.297.385.416-.047.084-.059.144-.119.132-.275-.022-.441.194-.619.47.12.179.23.417.35.596.346-.026.645-.123.884-.077.634.093 1.063-.197 1.468-.521.595-.506 1.117-1.118 1.653-1.635.035-.024.107-.072.118-.132.331-.743.842-1.45 1.029-2.253.058-.299.26-.54.46-.935-.012-.095-.216-.321-.026-.502.083-.108.226-.204.334-.276 0 0-.025-.036-.06-.012-.228-.106-.062-.322-.194-.441-.156-.155-.097-.299-.026-.502.14-.407-.088-.824-.007-1.243-.29-.43-.028-.813.197-1.173-.096-.143-.228-.262-.23-.417-.012-.096 0-.155-.156-.155-.287-.118-.395-.2-.265-.393.118-.287.118-.443-.134-.585-.099-.609-.52-1.156-.416-1.85.011-.06-.025-.191-.085-.203-.205-.226-.302-.524-.506-.75-.229-.262-.397-.512-.447-.895-.013-.25-.158-.465-.267-.704-.18-.035-.347-.13-.527-.164-.074-.574-.039-.598-.41-.763-.228-.106-.431-.177-.505-.44-.133-.43-.517-.69-.865-.975-.18-.19-.385-.417-.518-.691-.441.194-.778-.151-1.15-.317-.36-.225-.719-.45-1.163-.723-.202.085-.477.063-.813-.127-.48-.248-1.03-.449-1.546-.673-.144-.06-.311-.154-.455-.213-.084-.047-.192-.13-.288-.118-.238.109-.502.027-.74-.02-.743-.175-1.436-.124-2.177-.144-.156.001-.37-.01-.586-.02-.131.036-.251.013-.382.05-.192.024-.394.109-.585.134-.73.075-1.482.115-2.198.286-.37.146-.669.243-.978.555-.309.313-.666.554-.903.973-.048.084-.155.157-.262.229-.37.145-.536.361-.522.768.037.131-.058.299-.141.407-.214.3-.487.588-.736.912-.131.192-.202.396-.153.623.086.358.028.657-.234.886-.071.048-.07.203-.058.299.012.095.085.202.013.25-.26.385-.151.778-.101 1.16.014.407.004.778.209 1.16.157.31.243.667.352 1.061.06.167.003.466.302.525.06.011.096.143.085.202l.074.574c.084.047.073.107.132.119.672.379.636.403 1.082 1.141.169.25.242.513.482.715.324.25.565.607.568 1.073.012.096.096.143.144.214.684.475 1.201 1.01 1.456 1.774.109.238.277.333.48.404.384.105.384.105.54.26.288.273.458.679.971.592.096-.012.228.107.336.19.348.285.755.426 1.15.627-.166.061-.25.17-.189.336.048.072.168.095.252.142.142-.251-.026-.346-.122-.49Zm-1.604 1.861c.012.096.049.227.061.323.06.011.132-.037.192-.025-.037-.132-.11-.239-.122-.334-.06-.012-.095.012-.131.036Zm-3.517-2.826a.093.093 0 0 0 .12.023l.022-.12-.06-.011c-.035.024-.07.048-.082.108Zm2.784 2.125c.047-.084.119-.132.202-.24l-.048-.072-.12-.023c-.047.084-.07.203-.118.287.024.036.06.012.084.048Zm13.16-16.255c.083.047.107.083.191.13l.058-.3c-.035.025-.12-.022-.155.002a.327.327 0 0 1-.095.168Zm-20.77 7.975c.25-.013.37.01.393-.265l-.393.265Zm22.556-2.319c.049.072.073.108.132.12-.048-.072-.036-.132-.024-.192-.025-.036-.084-.047-.144-.059.024.036.012.096.036.131Zm-17.281 9.834c.036-.024.036-.024.096-.012-.025-.036-.049-.072-.013-.096-.06-.012-.095.012-.095.012.024.036.024.036.012.096Zm6.822 3.873c.036-.024.096-.012.132-.037.035-.024.011-.06.011-.06-.06-.011-.095.013-.155.001 0 0-.012.06.012.096Zm-3.34-1.022c-.132.036-.25.168-.43-.022.035-.024.094-.168.118-.132.096-.013.204.07.288.118.035-.024.024.036.048.071l-.024-.035Zm.475-23.194c-.024-.035-.012-.095-.037-.13 0 0 .096-.013.06.01.024.037.048.072.037.132 0 0-.036.024-.06-.012ZM120.476 148.205a.547.547 0 0 0-.18-.19c-.132-.12-.204-.071-.274.133-.012.06 0 .155.037.286l.393-.265c.313.31.803.343.854.88.024.036.108.083.143.06.335.033.384.26.422.547.012.096.024.191.061.322h.155c.06-.144.118-.288.118-.443.023-.12-.12-.179-.133-.275-.024-.035.011-.06.035-.18.143.06.287.119.407.142.085.203.145.37.206.537.095-.012.191-.025.31-.002.156 0 .264.083.384.106-.072.048-.167.06-.239.109-.036.024-.023.12-.01.215l.06.012c.035-.024.047-.084.082-.108.048-.084.06-.144.107-.228.168.095.324.25.456.368.108.083.346-.026.538-.05.024.19.061.322.038.442.252.142.466-.003.645-.123.071-.049.19-.025.346-.026-.165.371-.283.659-.51.863-.107.073-.046.24-.129.348-.047.084-.203.084-.274.133.18.034.31-.002.502-.027.131-.037.252.142.454.057.203-.084.288.118.253.298l.037.287c.132-.037.323-.062.407-.015.383.106.73.236 1.125.281.514.07.743.331.9.797-.13.192-.32.372-.486.588.287.118.55.2.778.307-.05-.538-.05-.538.69-.518-.01.37.005.777-.017 1.207.323-.061.525-.146.788-.219.037.131.049.227.061.322.086.359.194.442.48.249.214-.145.323.094.478-.062-.11-.239-.11-.239.296-.408.097.143.182.345.242.512-.298.098-.5.182-.475.529.025.191.145.37.372.32.322-.216.39-.73.965-.65-.164.682-.893.758-1.093 1.309l.29.429c.13-.192.225-.36.32-.528.106-.228.2-.396.295-.563.287-.038.48.248.778.15.203-.084.037.132.06.168.17.25.374.476.554.666.251-.013.453-.253.657-.027.205.226.527.165.766.211.193.286.29.584.137.896-.013-.096-.025-.191-.05-.227-.023-.036-.107-.083-.143-.059-.107.072-.023.12.06.167.025.036.085.048.109.083.215.011.406-.014.597-.039.478-.062.814.127 1.043.545-.25.168-.525.146-.8.123 0 .156-.023.275-.01.371.024.036.072.107.108.083.31-.001.586.021.837.163.157.155.372.165.586.02-.025-.19-.085-.357-.11-.548-.204-.071-.432-.177-.635-.248.179-.12.357-.241.476-.373.022-.43-.337-.5-.482-.715-.001-.31.068-.67-.267-.86-.324-.248-.517-.534-.531-.94-.013-.096-.157-.155-.229-.262.012-.06-.06-.168-.049-.227.237-.42-.1-.765-.054-1.16-.263-.082-.527-.164-.504-.44.046-.239-.014-.406-.218-.476-.228-.107-.372-.321-.326-.56.035-.335-.134-.585-.267-.86-.157-.31-.254-.608-.376-.942-.133-.274-.17-.56-.386-.727-.229-.262-.302-.525-.399-.823-.158-.465-.184-.967-.7-1.192-.083-.047-.156-.154-.144-.214.057-.455-.255-.764-.34-1.122-.085-.203-.194-.441-.088-.669.118-.287.01-.526-.242-.668-.192-.13-.277-.333-.29-.584a.8.8 0 0 0-.098-.299c-.336-.344-.374-.786-.484-1.18-.062-.323-.063-.634-.136-.896-.267-.704-.03-1.28.24-1.878.048-.084.155-.156.263-.229.168.25.325.405.433.643l.241.358-.284.503c.252.142.504.285.696.415.061.323.147.68.244.979.025.191.085.358.158.465.157.31.361.536.494.81.193.287.445.584.447.895.05.382.326.56.399.823.11.393.362.691.543 1.037-.035.18-.105.383-.152.622.204.07.479.093.6.272.12.179.062.478.182.656.205.226.098.454.207.693.109.238.11.549.386.727.168.095.229.262.35.44.169.406.41.763.484 1.181a.458.458 0 0 0 .157.31c.36.38.518.846.736 1.323.012.096.013.251.097.298.384.261.362.692.412 1.074.168.095.276.178.444.273l.002.466c-.021.43.351.751.294 1.206a.476.476 0 0 0 .193.286c.156.154.014.406.241.512.456.213.59.643.759 1.048l-.286.193.723 1.072c-.047.084-.106.228-.154.312.108.083.097.143.156.154.42.082.648.344.722.762.084.202.17.405.182.656.05.227.11.394.29.584.157.155.241.358.29.584.061.167.014.407.075.574.05.227.205.381.266.548-.059.144-.106.228-.154.312l.097.143.096.143c.181.346.146.525-.152.622-.298.097-.585.135-.62.47-.01.06-.118.132-.19.18-.107.072-.238.109-.345.181-.12.132-.202.24-.285.348-.132-.119-.265-.237-.36-.38-.205-.226-.576-.236-.59-.643-.013-.095-.276-.178-.371-.165-.347.026-.718.016-.994-.162-.216-.166-.514-.07-.635-.403-.097-.143-.324-.25-.445-.428-.156-.155-.3-.37-.445-.584-.286.193-.573.23-.849.053.036-.025.048-.084.084-.108-.06-.012-.12-.024-.156 0-.277-.333-.647-.343-1.054-.329-.038-.442-.23-.728-.697-.725-.06-.012-.18-.035-.227-.107-.301-.369-.804-.497-1.165-.878 0-.156-.001-.31.01-.526-.264-.082-.527-.165-.72-.295-.251-.142-.42-.392-.636-.559-.059.144-.082.264-.165.372-.216-.166-.444-.273-.6-.427l-.613-.679c.033-.49-.432-.332-.648-.498-.073-.107-.18-.19-.193-.286-.17-.406-.708-.51-.746-.952-.265-.238-.565-.452-.889-.701-.202.085-.466.002-.73-.08-.406-.141-.395-.201-.35-.596-.25-.142-.526-.164-.742-.33-.3-.214-.719-.296-.912-.581-.229-.418-.66-.595-.937-.928-.072-.107-.263-.082-.371-.165-.144-.06-.038-.287-.265-.393-.168-.095-.241-.358-.398-.512-.072-.107-.144-.215-.323-.094-.143.096-.275-.023-.383-.106-.636-.558-1.273-1.117-1.54-1.976-.276-.178-.516-.224-.792-.402-.648-.499-1.117-1.118-1.515-1.785-.133-.275-.266-.549-.506-.75-.12-.18-.014-.407.141-.408.419.082.74-.135 1.075-.257.132.12.251.142.384.261.07-.359.452-.409.486-.743-.024-.036.083-.108.178-.12.323-.062.539.104.636.402-.035.18-.094.323-.129.503Zm18.437 14.39c-.122-.489-.72-.76-.64-1.335-.251.014-.478.063-.693.052-.012.06-.06.144-.035.18.253.452.578.857 1.058 1.105.084.048.192.13.31-.001Zm-6.001-4.737c.022-.275-.194-.441-.35-.596-.06-.012-.12-.023-.156 0l-.071.049c.036.131.049.227.121.334.097.143.156.155.456.213Zm-8.895-6.946c0 .155-.01.37.015.561-.036.025.132.12.168.095.035-.024.154-.156.13-.192l-.182-.5c-.035.023-.095.012-.131.036Zm14.023 9.31c-.537.05-.763.255-.75.506l.144.059c.154-.157.309-.313.606-.565Zm-16.338-8.58c-.108-.084-.24-.203-.408-.297.097.298.097.298.408.296Zm12.364 7.62c-.036-.131.011-.215-.013-.25-.036-.132-.287-.119-.37-.01a.455.455 0 0 0 .049.226c.06.012.18.035.334.034Zm2.658.704c.013.25.098.453.348.285 0-.156-.144-.06-.192-.13-.06-.013-.108-.084-.156-.155Zm-6.15-3.494c.081-.264.081-.264-.052-.693-.011.215-.034.334-.022.43.013.096-.07.204.073.263Zm10.279 6.687c.024.036.012.096.048.072.12.023.24.046.37.01a.327.327 0 0 0-.024-.191c-.132-.12-.24-.047-.382.05l-.012.06Zm-6.068-3.602c.084.048.108.083.144.06l.107-.073c-.012-.095-.084-.203-.133-.274l-.06-.012c-.023.12-.01.215-.058.3Zm-15.241-9.112c-.001-.155.01-.215-.002-.31-.024-.036-.108-.084-.156-.155-.036.024-.072.048-.048.084-.011.06.013.095.037.131l.169.25Zm.11-1.686c.012-.06-.012-.095-.036-.131-.06-.012-.096.012-.132.036-.035.025.013.096.037.132.036-.024.072-.048.131-.037Zm13.843 9.12c.06.011.108.083.144.059.06.011.072-.049.083-.108-.06-.012-.084-.048-.144-.06-.035.025-.047.085-.083.109Zm2.152 2.343a.595.595 0 0 0-.01.215l.12.024.034-.18c.012-.06-.084-.047-.144-.059Zm-9.558-8.162c.035-.18.058-.299.106-.383.118-.132.405-.17.418-.074.036.132.001.311-.106.383-.071.049-.227.05-.418.074Zm4.283 2.883c.023-.12.01-.216.058-.3.036-.024.167-.06.215.011.12.023.133.274.026.347l-.3-.058ZM127.643 176.486l-.574.075c-.203-.07-.442.038-.55-.2l-.68.457c-.216-.166-.503-.129-.777.004-.36-.225-.586-.02-.655.339.002.466-.248.634-.666.708a.327.327 0 0 0-.191.025c-.177.432-.656.338-.953.591-.108.072-.227.05-.252-.142.154-.156.369-.3.619-.47-.228-.106-.372-.165-.551-.2-.19.336-.475.529-.835.303-.097-.143-.133-.274-.254-.608-.033.646-.019 1.052-.016 1.518-.42-.081-.766-.055-.911-.425.059-.144.178-.276.272-.444-.394-.046-.67-.068-.87.327-.095.168-.346.182-.538.051-.098-.454-.075-.573.152-.622.633-.063.942-.531 1.238-.94.012-.06.083-.107.12-.131l.059.011-.072.048c-.035.025-.095.013-.13.037.022-.275-.016-.562.007-.837-.024-.036.047-.084.07-.203.204.07.408.14.611.212.096-.013.203-.085.298-.098.49-.122.931-.315 1.228-.723.154-.157.429-.29.716-.172.264.083.49-.122.717-.17.06.011.094-.169.142-.252.143.059.287.118.467.152a2.721 2.721 0 0 0-.074-.418c.155 0 .358-.085.406-.014.42.393.706.2.967-.184.12-.132.226-.204.43-.134.168.095.395.046.43-.134.022-.275.178-.275.404-.324.06.011.12-.133.071-.204-.012-.096-.145-.214-.169-.25-.321.217-.443-.117-.61-.212-.215.144-.118.287-.058.454.06.167-.046.24-.213.3-.096.013-.263.074-.252-.142.035-.18-.109-.238-.217-.321a.355.355 0 0 1-.014-.407l-.036.024c.024.036.048.072.108.084l.287-.038c-.048-.071-.06-.167-.109-.238.179-.12.154-.312.129-.503l-.036.024c.06-.144.082-.263.117-.443-.13.037-.238.109-.298.097-.18-.19-.456-.368-.481-.559-.013-.251-.135-.585-.052-.848.058-.3-.014-.407-.23-.418-.514-.069-.72-.45-.674-.845.07-.514-.088-.824-.424-1.17-.024-.035-.013-.095-.025-.19.179-.12.333-.277.524-.457-.085-.203-.206-.382-.315-.62-.274.133-.477.218-.787.375.06-.144.071-.204.118-.288a.595.595 0 0 1 .011-.215c-.49-.189-.49-.189-.733-.702a6.477 6.477 0 0 0-.723-1.072c-.118.132-.166.216-.249.324l-.06-.011c-.024-.036-.108-.083-.072-.107.023-.12.047-.24.178-.276.25-.169.225-.36.27-.755-.296.408-.56.326-.846.363-.049-.227-.17-.405.033-.645.154-.157.177-.432.163-.683-.478.063-.26.54-.498.649a5.23 5.23 0 0 1-.695-.26c-.06-.011-.108-.083-.132-.119-.097-.143-.313-.309-.313-.464-.026-.347-.384-.106-.42-.237-.026-.347-.373-.476-.578-.702 0 0-.06-.012-.155 0-.035.18-.13.348-.165.527-.286.038-.537.051-.523.457-.285.349-.582.757-.903 1.129-.55-.2-.883.232-1.24.473-.372-.166-.706-.045-1.063.196.012.096-.011.216-.034.335-.275-.022-.538.051-.716.327-.095.168-.154.311-.272.444-.108.072-.19.18-.286.192-.49-.033-.811.34-1.29.402-.419-.237-.862-.354-1.314.054-.154.157-.322.062-.49-.033-.06-.012-.108-.083-.156-.154a1.29 1.29 0 0 0 .26-.384l-.168-.25c-.131.036-.142.251-.382.205l.14-.718c.346-.181.347.13.515.224.191-.025.358-.085.526-.146-.025-.191-.002-.31-.039-.442.334-.121.645-.123.859-.423.202-.24.572-.386.654-.649.141-.407.475-.529.785-.686.549-.265 1.314-.21 1.717-.845.012-.06.191-.025.298-.098.239-.108.561-.17.752-.35.369-.301.763-.41 1.133-.4.19-.181.31-.313.392-.421.275.022.23.417.551.2-.254-.608-.127-1.422-.894-1.788a2.063 2.063 0 0 0-.272.444c-.387-.883-1.25-1.237-1.6-1.988-.192.025-.347.025-.538.05-.002-.31-.1-.609-.375-.787-.036.024-.012-.095-.037-.131.155-.156.298-.253.417-.385-.205-.226-.205-.226-.658.028-.192-.13-.42-.237-.564-.452-.3-.369-.566-.762-.89-1.166-.071.203-.094.478-.212.61-.18.12-.466.158-.764.255-.058.455-.427.6-.797.746-.37.145-.68.302-.977.555-.202.24-.512.397-.774.626l-.93.626c-.106.072-.285.193-.44.194-.407.014-.537.361-.739.601-.237.264-.764.1-.965.495-.06.144-.118.288-.225.36-.012.06-.156.001-.251.014.022-.276.069-.515.091-.79-.144-.059-.228-.106-.371-.165-.059.299-.14.562-.475.684-.06-.167-.3-.37-.253-.453.117-.443-.183-.657-.352-.907-.322.061-.669.087-1.027.173.034-.335.129-.503.355-.707.214-.145.297-.408.463-.624.18.034.323.094.467.153.166-.217.32-.373.415-.54.57-.697.606-.721 1.433-.343.023-.12.023-.275.058-.454l.464-.314c.107-.072.239-.109.381-.205.406-.17.466-.158.957.03.083-.107.118-.287.19-.335.178-.12.177-.276.26-.384.143-.251.394-.265.645-.123.06.012.108.083.192.13.178-.275.178-.275.56-.48.31-.157.31-.157.538.104l.145.215c.513-.087 1.063-.042 1.576-.283l-.771-1.144a8.63 8.63 0 0 1 .115-.909c.453-.253.825.067 1.171.042.24.202.48.404.697.57.048.071.12.178.109.238-.059.3.157.31.384.417.336.19.672.379.614.833-.011.06.049.072.097.143a1.31 1.31 0 0 1 .37.01c.061.167.098.298.134.43.131-.037.203-.085.37-.146.015.562.602.738.76 1.204.441-.039.515.38.756.581.108.083.216.167.36.226.143.059.346-.026.466.153.132.118.312.153.444.272-.31.313-.297.408-.056.61.18.19.358-.085.55.045.098.454.098.454.506.75.227-.049.49-.122.752-.195.036.132.037.287.074.418.133.43.327.871.793.869.335.034.491.188.54.415.05.227.133.274.313.31a.728.728 0 0 1 .348.284c.145.215.266.549.53.631.358.07.277.489.576.547.431.177.338.656.567.917.204.227-.106.384-.057.61-.012.06.013.096.06.167.132-.036.275-.132.406-.169.287-.037.395.046.373.32-.06.145-.118.288.05.383.383.261.35.907.913 1.047.06.012.061.167.11.239.12.178.204.381.36.536.553.51.832 1.155 1.206 1.786.229.418.447.895.962 1.119.084.047.109.238.145.37.086.358.195.752.567.917.371.166.504.44.626.774.097.298.181.501.54.57.12.024.24.203.373.322.144.214-.19.335-.105.538.06.012.12.023.155 0 .096-.013.191-.026.263-.074.131-.036.238-.109.346-.18.167-.062.335.033.335.189.049.071.025.19.038.286.061.323-.14.718.375.943.204.07.077.884-.15 1.088-.179-.035-.394-.045-.514-.069-.13.192-.225.36-.32.528a3.852 3.852 0 0 1-.707-.355c-.297.253.134.43.028.657-.12.132-.31.313-.488.433-.036.024-.096.013-.156.001a14.02 14.02 0 0 0-.444-.428c-.239.109-.202.24-.13.347.109.239.134.43-.152.623l-.29-.429-.24-.357c-.226.204-.417.384-.607.565-.214.144-.393.265-.547.421ZM107.7 157.704c.167-.06.226-.204.154-.312-.073-.107-.216-.166-.36-.225l-.107.072c-.012.06-.024.12 0 .156.073.107.205.226.313.309Zm1.671-.451c-.024-.036.012-.06-.048-.072-.06-.011-.18-.034-.215-.01-.036.024-.06.143-.047.239.096-.012.155 0 .227-.05.036-.023.047-.083.083-.107Zm15.218 6.996c.012-.06.084-.108.06-.143a.327.327 0 0 0-.168-.095c-.036.024-.084.108-.06.144a.327.327 0 0 0 .168.094Zm2.918 11.497c.036-.025.06.011.06.011.096-.012.203-.085.274-.133l-.048-.071c-.096.012-.167.06-.263.073-.035.024-.011.06-.023.12Zm-11.956-18.502c.024.036.048.072.108.083.036-.024.048-.084.083-.108-.06-.011-.084-.047-.168-.094.024.035-.011.06-.023.12Zm-1.573-3.566c.036-.024.036-.024.096-.012-.024-.036-.013-.096-.037-.131l-.06-.012c-.011.06.013.095.001.155Zm5.802 5.29c.024.035.084.047.108.082.012-.06.047-.084.059-.143-.024-.036-.084-.048-.144-.06.024.036-.011.06-.023.12Zm.425 1.168c.071-.048.142-.096.19-.18l-.024-.036c-.072.049-.143.097-.239.11l.073.106Zm2.824 5.114c.035-.024.095-.013.131-.037l.012-.06c-.06-.011-.096.013-.132.037l-.011.06Zm3.472 1.141c.025.036.06.012.084.047-.024-.035-.012-.095-.012-.095-.024-.036-.024-.036-.06-.012l-.012.06Zm.788 4.251.06.012c.011-.06-.013-.096-.037-.131 0 0-.024-.036-.06-.012.024.036.013.096.037.131Zm-6.145 6.691c.024.036.084.048.084.048.012-.06.047-.084.059-.144-.036.024-.096.012-.131.036l-.012.06Zm7.746-.077c-.493-.499-.53-.63-.316-.93.18.19.3.369.481.559-.083.108-.106.228-.165.371Zm-2.526-5.21c-.322.217-.322.217-.129.503l-.286.192.036-.024c-.228-.106-.264-.237-.194-.441.035-.18.19-.18.322-.217.06.012.155 0 .215.011l.036-.024Zm-11.31-7.137.428-.289c-.152.467-.152.467-.428.29Zm-5.36 1.535c.048-.084.06-.144.107-.228l.06.012c-.012.06 0 .155-.011.215-.06-.012-.06-.012-.156 0Zm14.267 1.036c.012-.06.023-.12.07-.203-.023-.036.072-.049.096-.013.108.083.097.143-.01.215-.036.024-.096.013-.156.001Zm3.53 9.628-.215.145c-.203.085-.251.013-.24-.202.011-.06.047-.084.083-.108.12.023.228.106.371.165Zm-8.765 1.804c-.024-.036-.048-.072-.037-.131.036-.024.072-.049.096-.013.06.012.048.072.036.131 0 0-.035.025-.095.013Zm8.393-1.969c0-.155-.264-.238-.038-.442 0 .155.037.287.038.442Zm.453-.253c.181.345.181.345-.117.443.059-.144.118-.288.117-.443Z"/></g><path d="M136.557 43.154s-5.75-7.61-11.7-3.19c-5.95 4.42-2.25 14.55 2.81 19.19 5.06 4.64 14 8.47 14 8.47s11-9.26 11-22-11.3-10.69-16.11-2.47Z" fill="#B90A03"/><path d="M23.337 107.624s-4.84-8.21 1.51-12c6.35-3.79 14.31 3.47 16.67 9.91 2.36 6.44 2.48 16.21 2.48 16.21s-12.76 6.66-24.55 1.78c-11.79-4.88-5.55-14.6 3.89-15.9Z" fill="#FD9393"/><path d="M59.717 30.044s-8-5.16-12.08 1 2.91 14.43 9.26 17c6.35 2.57 16.09 3.12 16.09 3.12s7.16-12.5 2.74-24.46-14.31-6.08-16.01 3.34Z" fill="#F74B55"/></g><path d="M380.58 13.903c4.022-7.566 12.872-9.815 19.435-4.146.11.094.218.19.325.288l.15.143.1-.007c2.558-.13 5.269.492 7.988 2.062l.326.193c5.435 3.294 7.077 9.358 5.114 14.832-.993 2.767-2.734 5.15-5.067 7.506-3.288 3.321-7.994 6.665-11.42 8.13-5.685 2.444-11.138.27-14.493-3.994l-.254-.332c-.004 5.39-1.833 11.417-4.705 16.66-1.908 3.482-4.192 6.41-6.897 8.451-2.731 2.06-5.931 3.2-9.148 3.052a9.934 9.934 0 0 1-.357 3.056l-.17.556-1.52 4.695c-.358 1.099-.727 2.23-1.108 3.393l52.695-14.515a10 10 0 0 1 11.922 5.882c5.822 14.349 13.024 36.034 17.916 55.05l.265 1.035c5.429 21.362 7.875 38.131 6.199 49.87l-.062.412.018-.004c4.386-1.319 8.744-1.55 12.277-.1l.293.124c2.908 1.289 5.065 3.276 6.508 5.672l.045.077.29.015c11.059.64 17.795 10.124 16.446 24.489l-.059.585c-1.004 9.28-6.343 16.184-14.313 19.682-.87.382-1.764.72-2.677 1.014l-.361.112.128.226c1.351 2.438 2.312 4.889 2.83 7.3l.098.481c1.243 6.518-.832 12.904-6.717 16.257a12.471 12.471 0 0 1-3.413 1.344l-.339.072-.18.205-.254.272-.263.27c-.44.44-.907.84-1.394 1.198l-.03.021.697 1.527c1.971 4.286 3.852 8.097 5.545 11.199l.544.985c3.364 6.002 7.77 9.213 13.018 10.594 1.9.5 3.799.719 5.587.72.505 0 .969-.018 1.385-.048l.302-.025c.27-.024.437-.046.43-.045l.054-.01c8.86-1.538 15.09 8.487 9.788 15.75-11.126 15.24-27.057 23.438-45.408 26.21-6.349.96-12.582 1.196-18.496.9a85.104 85.104 0 0 1-5.893-.494l-.762-.096a52.683 52.683 0 0 1-1.588-.231l-.558-.095c-8.69-1.57-11.194-12.77-4.125-17.913l.29-.21.187-.144.417-.334c.293-.24.612-.514.953-.82a35.547 35.547 0 0 0 4.507-4.908c1.733-2.28 3.181-4.752 4.258-7.395 1.233-3.025 1.267-7.763-.114-15.479l-.176-.923-.087-.431-.061.014c-1.841.368-3.792.297-5.71-.224l-.303-.086c-4.268-1.265-7.093-3.948-9.316-7.721l-.108-.186-.172-.004a12.907 12.907 0 0 1-4.052-.824l-.366-.144a13.74 13.74 0 0 1-4.274-2.791c-1.965-1.868-3.139-4.05-3.728-6.425l-.021-.092-.332.041c-6.177.702-12.353-1.035-17.723-5.39l-.364-.302c-11.317-9.497-13.176-21.207-5.544-29.436l.137-.146-.039-.166c-.567-2.541-.412-5.303.71-8.215l.14-.35c1.555-3.83 5.214-6.91 9.721-9.08l.497-.234-.064-.046c-4.149-3.008-8.13-7.276-12.309-13.392l-.37-.544c-3.984-5.926-9.429-21.263-16.786-45.344l-1.11-3.654-.944-3.14-.397-1.327a1750.615 1750.615 0 0 1-6.778-23.352c-.819 2.362-1.634 4.694-2.445 6.99l-1.112 3.14-.888 2.488c-.452 1.26-.899 2.502-1.344 3.73l-1.759 4.819c-7.069 19.214-12.334 31.606-16.186 36.925l-.14.192c-5.112 6.891-9.843 11.475-14.733 14.528l-.352.217.044.02c5.135 2.448 9.35 5.955 11.002 10.225l.114.306c1.166 3.264 1.195 6.304.395 9.045l-.076.249.039.043c7.8 8.78 5.559 20.746-6.417 30.149l-.484.374c-6.044 4.621-12.882 6.188-19.573 4.965l-.407-.078-.022.096c-.637 2.497-1.874 4.76-3.933 6.653l-.3.268a14.98 14.98 0 0 1-.692.567c-2.58 1.984-5.556 2.92-8.539 2.849l-.331-.013-.183.29c-2.427 3.781-5.382 6.444-9.657 7.609l-.38.099c-2.154.531-4.365.537-6.43-.038l-.397-.119-.23.932-.05.207c-2.078 8.841-2.342 14.258-1.074 17.83 1.88 5.306 5.015 9.883 8.567 13.465l.295.295c.45.445.867.831 1.238 1.158l.515.44c7.011 5.328 4.196 16.414-4.408 17.826l-.266.04a50.3 50.3 0 0 1-2.873.291c-12.601.976-27.071-.388-41.114-6.04-12.874-5.182-23.709-13.516-31.59-25.428-4.94-7.466 1.663-17.111 10.341-15.316l.217.045.275.047c.103.016.22.032.346.049 4.31.565 9.38-.043 14.034-2.674 3.27-1.85 6.178-4.635 8.668-8.634 2.222-3.57 4.778-8.184 7.488-13.46l.689-1.351-.087-.063a12.474 12.474 0 0 1-1.513-1.35l-.199-.214c-.179-.196-.35-.394-.514-.596l-.241-.305-.074-.017a13.048 13.048 0 0 1-3.627-1.523l-.302-.187c-5.85-3.703-7.668-10.314-6.083-16.943.687-2.872 2.005-5.786 3.869-8.657l.15-.23-.24-.078a29.961 29.961 0 0 1-3.156-1.268l-.508-.245c-8.112-4.014-13.316-11.422-13.914-21.105-.972-15.57 6.64-25.355 18.538-25.215l.145.002.057-.09c1.525-2.407 3.754-4.375 6.721-5.61l.36-.144c3.959-1.547 8.893-.97 13.763.89l.203.079-.024-.178c-1.544-12.213 1.659-29.773 8.356-52.167l.522-1.734c6.151-20.257 15.07-43.545 22.086-58.787a10 10 0 0 1 12.182-5.327l56.098 18.276a56.007 56.007 0 0 1-3.428-5.206c-2.113-3.672-3.465-7.123-3.767-10.6-.558-6.42 2.819-12.28 9.48-14.236 4.325-1.271 8.25-.92 11.55.602l.264.125.222-.156c.613-.421 1.24-.8 1.88-1.134l.385-.194c5.954-2.91 11.91-1.512 15.745 2.761-.496-4.575.039-9.188 1.963-12.794Zm-61.187-8.808c6.77-5.854 15.776-3.656 20.099 4.108l.157.29c2.752 5.175 2.899 12.45 1.27 19.009-.84 3.383-2.134 6.402-4.033 8.814-3.517 4.465-9.15 6.71-15.027 4.188-3.871-1.665-9.296-5.523-13.059-9.322-2.61-2.635-4.541-5.276-5.615-8.26-2.06-5.726-.37-11.99 5.288-15.42 3.318-2.008 6.623-2.683 9.693-2.334l.094.013.167-.177c.208-.212.42-.417.637-.616l.33-.293Z" fill="#FFF" fill-rule="nonzero"/><path d="M434.9 221.167c1.64-.83 13.59.01 19.48 7.04 5.89 7.04 6.71 13.26 3.27 15.22-3.44 1.97-7.36-5.89-7.36-5.89s3.43 7.04.81 9.66c-2.61 2.61-3.92-5.89-6.71-12.93-2.78-7.04-12.11-9.33-12.11-9.33s.99-2.95 2.62-3.77Z" fill="#D21112"/><path d="M424.92 193.567c1.31 13.97 18.76 60.66 29.89 80.52 11.13 19.86 31.21 16.15 31.21 16.15-21.82 29.89-62.85 22.25-62.85 22.25s9.17-6.33 13.97-18.11c4.8-11.78-1.75-29.45-7.64-56.51s-19.85-42.33-19.85-42.33 13.96-15.93 15.27-1.97Z" fill="#FFC7CF"/><path d="M414.23 73.567c9.38 23.12 30.55 87.49 22.25 106.48-8.29 18.98-31.63 18.76-35.78 17.67-4.15-1.09-10.47-3.27-18.55-15.27-8.07-12-29.67-91.87-29.67-91.87l61.75-17.01Z" fill="#FFC7CF"/><path d="M427.87 226.407c-.01.01-.1.25-.27.73-.99 2.82-4.36 13.27-2.68 20.71 1.96 8.67 3.76 17.35-.65 16.04-4.42-1.31-6.88-11.78-6.88-11.78s-3.93 5.72-7.36 2.45c-3.44-3.27 2.29-14.89 2.94-17.18.66-2.29 9.33-12.11 9.33-12.11l5.57 1.14Z" fill="#D21112"/><path d="M389.76 222.697s-5.95-3.15-4.12-7.61c1.82-4.48 14.74-7.57 20.49-6.07 5.76 1.51 15.63 5.41 18.36 8.25 2.71 2.83 1.42 8.82 1.42 8.82s-8.38 2.15-13.49 9.57c-5.13 7.42-15.69 14.15-25.02 6.32s-8.94-15.01 2.36-19.28Zm16.63 7.63c4.35-3.27 8.55-5.03 11.43-4.63 2.88.4 7-1.94 7-1.94l-1.43-3.85s-10.02-2.64-15.63-.2c-5.6 2.42-10.87 4.98-12.34 9.12-1.47 4.14 6.62 4.77 10.97 1.5Z" fill="#D21112"/><path d="m421.43 126.587 3.05 2.83s9.82 31.86 3.49 44.73c-6.32 12.88-14.18 13.97-23.56 10.48-9.38-3.49-16.8-15.06-22.26-29.24-5.45-14.18-16.8-46.26-16.8-46.26l56.08 17.46Z" fill="#FFB878"/><path d="M435.07 219.207c0 3.98-3.23 7.2-7.2 7.2-3.98 0-7.21-3.22-7.21-7.2 0-3.97 3.23-7.2 7.21-7.2 3.97 0 7.2 3.23 7.2 7.2Z" fill="#D21112"/><path d="M473.69 205.957c-1.31 12.11-13.59 14.57-22.42 12.77-8.83-1.82-16.37 2.44-16.37 2.44s-5.08-3.43-5.08-7.35c0-3.94 4.43-13.59 7.54-18.67 3.11-5.06 14.56-11.77 18.99-9.81 4.4 1.95 2.28 8.35 2.28 8.35 11.12-4.75 16.37.16 15.06 12.27Zm-14.89-3.93c-3.93-1.97-9.5-.17-15.22 1.97-5.73 2.12-11.13 10.96-11.13 10.96l1.63 3.77s4.59-1.16 6.39-3.45c1.8-2.29 6.05-3.92 11.45-4.57 5.4-.66 10.8-6.71 6.88-8.68Z" fill="#D21112"/><path d="M376.7 109.567c10.04 5.45 24 6.98 30.33 8.94 6.33 1.97 15.49 1.53 17.45 8.51 1.97 6.99-3.71 15.5-22.69 11.13-18.98-4.36-24.87-19.64-29.89-23.13-5.02-3.49-6.55-5.89-6.55-5.89.87-7.2 1.31-5.02 11.35.44Z" fill="#EF9D59"/><path d="M393.34 147.367c0 2.08-1.69 3.76-3.77 3.76s-3.76-1.68-3.76-3.76 1.68-3.76 3.76-3.76 3.77 1.68 3.77 3.76ZM404.3 151.377a1.72 1.72 0 1 1-3.44 0 1.72 1.72 0 0 1 3.44 0ZM406.59 168.317c0 1.81-1.46 3.27-3.27 3.27s-3.27-1.46-3.27-3.27 1.46-3.28 3.27-3.28 3.27 1.47 3.27 3.28ZM420.5 151.457c0 1-.8 1.8-1.8 1.8a1.799 1.799 0 1 1 0-3.6c1 0 1.8.81 1.8 1.8ZM421.65 166.677c0 1.18-.96 2.13-2.13 2.13-1.18 0-2.13-.95-2.13-2.13 0-1.17.95-2.13 2.13-2.13 1.17 0 2.13.96 2.13 2.13ZM381.23 134.437c0 1-.81 1.8-1.8 1.8-1 0-1.8-.8-1.8-1.8a1.799 1.799 0 1 1 3.6 0ZM396.44 159.807a2.62 2.62 0 0 1-2.61 2.62c-1.45 0-2.62-1.18-2.62-2.62a2.616 2.616 0 1 1 5.23 0ZM414.61 176.827a2.29 2.29 0 1 1-4.58 0c0-1.27 1.02-2.29 2.29-2.29a2.29 2.29 0 0 1 2.29 2.29Z" fill="#FFD0A9"/><path d="M406.92 78.257c2.07-.22 4.36.32 3.6 2.94-.77 2.62-48.55 14.51-50.3 13.53-1.74-.98-1.74-2.95-1.74-2.95s46.37-13.31 48.44-13.52ZM440.63 264.537s5.56 10.97 4.09 20.95c-1.47 9.98-4.09 19.15-7.85 18.82-3.77-.33 5.23-8.35 4.74-17.51-.49-9.16-6.87-24.22-.98-22.26Z" fill="#FFEAED"/><path d="M260.44 206.357s-10.05 1.99-13.36 9.35c-3.31 7.36-5.12 16.36-7.78 13.44-2.66-2.91 1.34-10.24 1.34-10.24s-4.57 8.17-8.13 5.91c-3.57-2.26-2.39-8.84 4.23-16.05 6.62-7.21 19.39-7.51 21.09-6.55 1.71.96 2.61 4.14 2.61 4.14Z" fill="#D21112"/><path d="M286 176.147s-15.63 15.59-23.23 44.12c-7.6 28.54-15.44 47.05-10.9 59.84 4.53 12.79 13.99 19.98 13.99 19.98s-44.08 6.13-65.86-26.79c0 0 21.2 4.93 34.03-15.68 12.83-20.61 33.71-69.5 35.79-84.31 2.08-14.82 16.18 2.84 16.18 2.84Z" fill="#FFC7CF"/><path d="M352.04 67.127s-26.92 84.02-36.11 96.41c-9.19 12.39-16.04 14.41-20.51 15.37-4.47.96-29.35.05-37.26-20.58-7.9-20.63 17.8-88.18 28.93-112.36l64.95 21.16Z" fill="#FFC7CF"/><path d="M271.06 207.197s8.76 10.89 9.34 13.36c.59 2.47 6.12 15.13 2.3 18.45-3.82 3.32-7.72-2.98-7.72-2.98s-3.13 11.04-7.9 12.22c-4.78 1.18-2.43-7.97.08-17.12 2.16-7.84-.92-19.14-1.84-22.2-.16-.51-.24-.77-.24-.78l5.98-.95Z" fill="#D21112"/><path d="M307.42 226.707c-10.32 7.89-21.24.2-26.34-7.95-5.08-8.16-13.91-10.86-13.91-10.86s-1.08-6.45 1.95-9.33c3.04-2.89 13.76-6.56 19.97-7.89 6.2-1.31 19.8 2.61 21.53 7.48 1.73 4.84-4.77 7.89-4.77 7.89 11.84 5.11 11.9 12.78 1.57 20.66Zm-7.89-14.4c-1.37-4.48-6.85-7.47-12.71-10.32-5.85-2.87-16.66-.55-16.66-.55l-1.71 4.03s4.27 2.7 7.36 2.41c3.09-.29 7.48 1.8 11.95 5.49 4.48 3.7 13.13 3.42 11.77-1.06Z" fill="#D21112"/><path d="M337.42 86.257s-13.66 33.61-20.16 48.46c-6.51 14.84-14.98 26.8-25.15 30.06-10.17 3.26-18.48 1.71-24.59-12.31-6.11-14.03 5.91-47.49 5.91-47.49l3.39-2.87 60.6-15.85Z" fill="#FFB878"/><path d="M265.78 192.807c4.24.19 7.51 3.78 7.32 8.02a7.685 7.685 0 0 1-8.02 7.32c-4.24-.2-7.52-3.79-7.32-8.03a7.665 7.665 0 0 1 8.02-7.31Z" fill="#D21112"/><path d="M233.9 171.767s-1.95-6.91 2.84-8.77c4.81-1.88 16.69 5.83 19.75 11.37 3.07 5.57 7.31 16.07 7.12 20.26-.2 4.18-5.78 7.59-5.78 7.59s-7.81-4.91-17.31-3.4c-9.5 1.48-22.46-1.74-23.26-14.7-.81-12.97 5.02-17.94 16.64-12.35Zm6.31 18.47c5.72.96 10.18 2.91 11.98 5.43 1.81 2.53 6.64 3.99 6.64 3.99l1.93-3.94s-5.32-9.69-11.33-12.22c-5.99-2.56-11.83-4.75-16.12-2.85-4.27 1.91 1.18 8.62 6.9 9.59Z" fill="#D21112"/><path d="M337.42 86.257s-1.74 2.48-7.26 5.95c-5.52 3.48-12.54 19.46-32.98 23.18-20.44 3.72-26.07-5.62-23.63-12.97 2.43-7.34 12.17-6.43 19.01-8.21 6.84-1.78 21.79-2.72 32.75-8.04 10.96-5.32 11.53-7.63 12.11.09Z" fill="#EF9D59"/><path d="M309.93 121.797c2.21.1 3.93 1.98 3.82 4.2a4.012 4.012 0 0 1-4.19 3.82 4.02 4.02 0 0 1-3.83-4.19 4.022 4.022 0 0 1 4.2-3.83ZM295.77 127.607c1.01.05 1.79.91 1.75 1.92a1.848 1.848 0 0 1-1.92 1.75 1.833 1.833 0 0 1-1.74-1.92c.04-1.01.9-1.79 1.91-1.75ZM294.23 143.967a3.489 3.489 0 1 1-3.64 3.32 3.48 3.48 0 0 1 3.64-3.32ZM278.6 126.827c1.06.04 1.88.94 1.83 2a1.923 1.923 0 0 1-3.84-.17c.05-1.06.95-1.88 2.01-1.83ZM277 142.647a2.268 2.268 0 1 1-2.37 2.16 2.256 2.256 0 0 1 2.37-2.16ZM321.28 110.617c1.05.04 1.87.94 1.82 2a1.908 1.908 0 0 1-2 1.83 1.92 1.92 0 0 1-1.83-2c.05-1.06.95-1.88 2.01-1.83ZM304.73 136.057a2.794 2.794 0 0 1-.26 5.58 2.785 2.785 0 0 1-2.66-2.91 2.796 2.796 0 0 1 2.92-2.67ZM284.18 153.637a2.44 2.44 0 0 1 2.33 2.55 2.448 2.448 0 0 1-2.56 2.33 2.431 2.431 0 0 1-2.32-2.55 2.44 2.44 0 0 1 2.55-2.33Z" fill="#FFD0A9"/><path d="M345.59 68.107s-.09 2.09-2 3.05c-1.91.97-52.24-14.04-52.92-16.87-.69-2.83 1.78-3.3 3.98-2.96 2.19.33 50.94 16.78 50.94 16.78ZM247.47 271.807c-.97 9.74 8.23 18.73 4.2 18.89-4.02.16-6.37-9.73-7.45-20.44-1.08-10.7 5.39-22.11 5.39-22.11 6.37-1.81-1.17 13.92-2.14 23.66Z" fill="#FFEAED"/><path d="M372.55 36.247c1.75 7.42-6.54 23.79-11.56 19.86-5.02-3.93-17.02-19.64-9.6-21.82 7.42-2.18 8.94 6.76 8.94 6.76 3.93-7.85 10.48-12.22 12.22-4.8ZM330.82 14.187c2.93 5.51-.21 20.19-5.01 18.13-4.79-2.06-17.57-11.98-12.16-15.26 5.42-3.28 8.5 3.48 8.5 3.48 1.47-7.03 5.73-11.86 8.67-6.35ZM396.64 23.897s2.57-5.64 7.08-2.91c4.52 2.74-6.14 11.02-10.14 12.73-4 1.72-6.62-10.53-4.17-15.12 2.44-4.59 6-.57 7.23 5.3Z" fill="#D21112"/></g></svg>