<?xml version="1.0" encoding="UTF-8"?>
<svg width="340px" height="291px" viewBox="0 0 340 291" version="1.1" xmlns="http://www.w3.org/2000/svg" xmlns:xlink="http://www.w3.org/1999/xlink">
    <title>decoration-20</title>
    <g id="decoration-20" stroke="none" stroke-width="1" fill="none" fill-rule="evenodd">
        <g id="Love/Features/Letter" transform="translate(4.085158, 2.934101)" fill-rule="nonzero">
            <path d="M143.093864,68.8369413 C154.969037,59.9563488 170.764712,55.5503988 186.991712,58.8758988 C200.843826,61.7146986 210.997984,72.9277599 218.251182,85.6623885 C230.006933,90.1794853 237.524037,94.8324262 240.311673,96.6977401 L240.303781,97.0098631 L241.151712,99.3858988 L321.352939,224.013103 C322.100388,224.869108 322.637686,225.680205 322.931712,226.435899 C327.421712,237.975899 186.881712,326.765899 167.991712,334.155899 C150.046212,341.176399 144.185187,340.110499 143.643949,339.986358 L143.608376,339.977699 L143.207789,339.546272 C129.667119,324.453614 62.9517124,219.435899 62.9517124,219.435899 L61.1151157,216.68502 C61.107293,216.678666 61.0994919,216.672292 61.0917124,216.665899 L61.0927813,216.648863 L61.0927813,216.644863 L61.095401,216.627308 C61.1663798,215.885744 62.2579888,204.52487 64.0477008,188.454866 C50.6677309,169.567969 49.8213187,149.554414 65.4117124,131.345899 C67.5512587,128.847055 69.8548055,126.692282 72.2670212,124.837479 C76.1037161,99.8853208 80.5083852,78.1984453 84.7717124,72.7658988 C90.7354975,65.166543 116.128898,65.9032525 142.512661,69.2785795 Z M133.601712,33.1958988 C133.601712,33.1958988 127.851712,25.5858988 121.901712,30.0058988 C115.951712,34.4258988 119.651712,44.5558988 124.711712,49.1958988 C129.771712,53.8358988 138.711712,57.6658988 138.711712,57.6658988 C138.711712,57.6658988 149.711712,48.4058988 149.711712,35.6658988 C149.711712,22.9258988 138.411712,24.9758988 133.601712,33.1958988 Z M20.3817124,97.6658988 C20.3817124,97.6658988 15.5417124,89.4558988 21.8917124,85.6658988 C28.2417124,81.8758988 36.2017124,89.1358988 38.5617124,95.5758988 C40.9217124,102.015899 41.0417124,111.785899 41.0417124,111.785899 C41.0417124,111.785899 28.2817124,118.445899 16.4917124,113.565899 C4.70171238,108.685899 10.9417124,98.9658988 20.3817124,97.6658988 Z M56.7617124,20.0858988 C56.7617124,20.0858988 48.7617124,14.9258988 44.6817124,21.0858988 C40.6017124,27.2458988 47.5917124,35.5158988 53.9417124,38.0858988 C60.2917124,40.6558988 70.0317124,41.2058988 70.0317124,41.2058988 C70.0317124,41.2058988 77.1917124,28.7058988 72.7717124,16.7458988 C68.3517124,4.78589878 58.4617124,10.6658988 56.7617124,20.0858988 Z" id="Combined-Shape" fill="#FF746C"></path>
            <path d="M143.230605,16.5705209 L143.613673,16.5705209 C153.493801,16.7234645 159.711712,24.7850835 159.711712,35.6658988 C159.711712,41.1003076 158.386785,46.2098114 156.08331,50.96565 C166.531066,47.553735 177.832642,46.7910391 188.999349,49.0795017 C203.74568,52.1015589 215.537195,62.1962684 224.899776,77.2799953 L225.112781,77.6268631 L225.159376,77.6466209 C233.532713,81.0816736 240.298925,84.713445 245.38585,88.0634337 L245.872888,88.3867305 C248.005416,89.8136868 249.479626,91.9838545 250.04954,94.4223297 L329.424781,218.076863 L329.538175,218.21511 C330.587126,219.523709 331.439929,220.885369 332.069128,222.363035 L332.251153,222.809877 C333.951327,227.179591 332.942132,230.972473 330.667793,234.687475 C329.440711,236.691842 327.731271,238.759868 325.506072,241.047385 C321.905322,244.748976 316.740583,249.219947 310.08969,254.457915 L309.441418,254.967209 C297.321564,264.465658 280.422733,276.417251 260.785084,289.501093 L259.766911,290.178846 C257.185224,291.895806 254.585032,293.613206 251.977943,295.323991 L249.741877,296.788595 C215.810806,318.972189 181.274631,339.697461 171.634962,343.468617 L170.352358,343.96504 C159.141476,348.256582 151.068852,350.078295 145.370303,350.11517 L145.068157,350.11517 C143.646874,350.102554 142.433834,349.96847 141.40835,349.73326 L141.243295,349.693994 C139.339367,349.230552 137.613551,348.217954 136.280237,346.78199 L135.76438,346.22427 L135.372639,345.780993 C128.788863,338.22604 113.139291,315.275513 90.7351803,280.992342 L87.0393015,275.327495 C81.4675338,266.773669 75.7807924,257.982899 70.1248533,249.192295 L65.0254012,241.253869 C63.0446391,238.165446 61.1629766,235.225692 59.3986738,232.464303 L54.5607813,224.876863 L53.0064296,222.55067 C51.7125452,220.772784 51.0276853,218.59836 51.0963841,216.359853 L51.1124089,216.02263 L51.1715963,215.355091 L51.6287245,210.726345 L51.9789363,207.27165 C52.354903,203.596194 52.7621116,199.713092 53.1984079,195.662093 L53.7057813,190.990863 L53.5483701,190.744669 C39.670048,168.793708 40.5178134,145.517141 57.2754418,125.480416 L57.8156629,124.842051 C59.3776358,123.017774 61.0361664,121.315602 62.7857218,119.734148 L62.9657813,119.572863 L63.3684529,117.042046 C67.7345027,89.8417442 71.7156726,73.4492202 76.7409168,66.8051789 L76.904941,66.5922526 C82.1948987,59.8515216 91.6971832,57.3739823 105.654013,56.9122021 C109.568382,56.7826901 113.857946,56.8299232 118.483744,57.0418201 L117.953147,56.5662308 C113.852572,52.8060201 110.656224,47.2730637 109.4157,41.6859406 C107.740484,34.1410356 109.604021,26.6840526 115.938472,21.9784603 C121.138089,18.1158882 126.950456,17.766975 132.176803,19.8784312 L132.546781,20.0318631 L132.70372,19.9281725 C135.773373,17.9116507 139.240345,16.6969948 142.786895,16.5794753 L143.230605,16.5705209 Z M16.7666548,77.0790609 C23.5247687,73.045478 31.1132613,74.1695681 37.4417041,78.5812353 C42.1375288,81.8547761 46.0374266,86.9129978 47.9511037,92.1350659 C49.2943086,95.8004216 50.1127553,100.062298 50.6020121,104.757458 C50.7404317,106.085803 50.8438404,107.380767 50.9177282,108.618821 L50.9585622,109.354637 C51.0070525,110.299824 51.0314811,111.062561 51.0403408,111.611444 L51.0403408,111.952908 C50.9814982,115.504328 49.0408098,118.760173 45.9449413,120.501334 L45.5361021,120.719243 L45.3393849,120.817869 C42.5522231,122.197116 38.7847215,123.591314 34.2960074,124.49415 C26.9510297,125.971481 19.5991769,125.674871 12.6672715,122.805685 C2.60205103,118.639589 -2.45959907,109.791315 1.1759995,100.596445 C2.58823341,97.0247338 5.17980175,94.0072307 8.45616066,91.7742524 L8.61578131,91.6678631 L8.61377135,91.40592 C8.61597272,91.0590024 8.62772854,90.7098952 8.64949144,90.3585184 L8.68969768,89.829741 C9.15954621,84.61791 11.896337,79.985912 16.7666548,77.0790609 Z M60.393028,0.97752828 C69.7235376,-2.34398905 78.3734372,3.05597799 82.1516574,13.2793974 C84.5322805,19.7210834 84.7395762,26.4710485 83.3839289,33.2118673 C82.4915109,37.6493256 81.0394255,41.5771362 79.40097,44.8682721 L79.2795248,45.1094632 C79.1485023,45.3671021 79.0258919,45.600427 78.91307,45.8086521 L78.7090129,46.1762565 C76.8266013,49.4625895 73.2491808,51.4035139 69.4679288,51.1899935 L68.6229394,51.1335854 C67.8209155,51.0732122 66.7818405,50.978363 65.5628191,50.841089 C62.7154663,50.5204486 59.8571709,50.0701999 57.1180064,49.4541791 C54.5970068,48.8872222 52.2834304,48.2027164 50.1900834,47.3554878 C45.0264916,45.2656561 40.0943644,41.1693067 36.9894347,36.3409022 C32.7990298,29.8245002 31.975201,22.1608279 36.3445894,15.5639082 C39.2909551,11.1154737 43.7054452,8.59380485 48.6332649,8.13773349 C49.441306,8.06294901 50.2367714,8.04246461 51.020634,8.07102159 L51.2257813,8.08186315 L51.3411391,7.92286314 C53.6113568,4.84283228 56.5819045,2.42683498 60.0341859,1.10983184 L60.393028,0.97752828 Z" id="Combined-Shape" fill="#FFFFFF"></path>
            <path d="M61.0917124,216.665899 C61.0917124,216.665899 73.4317124,87.2158988 84.7717124,72.7658988 C96.1117124,58.3158988 177.701712,74.0058988 202.771712,80.6658988 C223.565877,86.1899966 236.530856,94.1632946 240.348475,96.722388 L239.801712,120.915899 C239.801712,120.915899 80.8517124,232.905899 61.0917124,216.665899 Z" id="Path" fill="#FF746C"></path>
            <polygon id="Path" fill="#751C0D" points="62.9517124 219.435899 61.0917124 216.645899 240.221712 96.7758988 241.151712 99.3858988 236.141712 158.895899 207.291712 223.845899 137.381712 237.095899"></polygon>
            <path d="M123.491712,115.505899 C123.491712,115.505899 86.4917124,106.725899 65.4117124,131.345899 C44.3317124,155.965899 53.3017124,183.885899 82.6717124,207.855899 C112.041712,231.825899 140.261712,234.755899 140.261712,234.755899 L208.601712,224.585899 L234.051712,130.405899 C234.051712,130.405899 223.051712,66.2658988 186.991712,58.8758988 C150.931712,51.4858988 117.001712,82.2758988 123.491712,115.505899 Z" id="Path" fill="#FFDFCB"></path>
            <path d="M143.601712,339.975899 C143.601712,339.975899 149.101712,341.545899 167.991712,334.155899 C186.881712,326.765899 327.421712,237.975899 322.931712,226.435899 C318.441712,214.895899 257.221712,190.435899 257.221712,190.435899 L193.481712,205.665899 L185.671712,213.315899 L128.091712,299.915899 L143.601712,339.975899 Z" id="Path" fill="#D11112"></path>
            <path d="M62.9517124,219.435899 C62.9517124,219.435899 131.021712,326.585899 143.601712,339.975899 L187.051712,212.335899 L62.9517124,219.435899 Z" id="Path" fill="#B90A03"></path>
            <path d="M241.151712,99.3858988 L193.481712,205.665899 C193.481712,205.665899 282.971712,210.825899 322.941712,226.485899 L241.151712,99.3858988 Z" id="Path" fill="#B90A03"></path>
            <path d="M101.398703,147.989049 C101.482643,148.036399 101.638901,148.190935 101.651384,148.286498 C101.737046,148.644643 101.918271,148.990304 102.111118,149.276131 C102.244131,149.550335 102.388766,149.764705 102.759394,149.774606 C102.854957,149.762123 102.963003,149.845202 103.03532,149.952387 C103.396048,150.332916 103.696941,150.701822 103.986211,151.130562 C104.106741,151.309204 104.3577,151.29586 104.418395,151.462879 C104.479091,151.629898 104.479952,151.785295 104.576375,151.928209 C104.63707,152.095228 104.804951,152.18993 104.901374,152.332843 C105.371008,152.951848 105.912099,153.522641 106.346005,154.165751 C106.514747,154.41585 106.623654,154.654326 106.875474,154.796379 C107.043354,154.89108 107.152261,155.129556 107.296897,155.343927 C107.501366,155.569919 107.515571,155.976276 107.946034,155.997799 C108.029974,156.04515 108.174609,156.25952 108.127258,156.34346 C108.093252,156.67836 108.261132,156.773061 108.512952,156.915114 C108.788879,157.092895 109.017454,157.354616 109.317486,157.568125 C109.211162,157.79584 109.176295,157.975342 109.069971,158.203057 C109.178017,158.286136 109.286063,158.369215 109.405731,158.39246 C109.788843,158.497924 110.053146,158.735539 110.353179,158.949048 C110.390629,159.235736 110.416457,159.582258 110.453907,159.868946 C110.813773,160.094078 111.17364,160.319209 111.37897,160.700599 C111.475394,160.843512 111.58344,160.926592 111.572678,161.141823 C111.549433,161.261491 111.645857,161.404405 111.705691,161.416027 C112.07718,161.581325 112.019068,161.880496 111.985061,162.215396 C112.163703,162.094866 112.23516,162.046654 112.413801,161.926125 C112.498602,162.128873 112.559298,162.295892 112.69145,162.4147 C112.847707,162.569236 113.015588,162.663937 113.183468,162.758639 C113.161084,163.033704 113.150322,163.248936 113.127938,163.524001 C113.032376,163.536484 112.901085,163.573074 112.805522,163.585557 C112.748271,164.040125 113.03668,164.313469 113.242011,164.694858 C113.312607,164.49125 113.347474,164.311747 113.406447,164.167972 C113.597573,164.143006 113.740486,164.046582 113.919989,164.08145 C114.05128,164.04486 114.183432,164.163668 114.255749,164.270853 C114.328067,164.378038 114.233365,164.545918 114.401246,164.64062 C114.485186,164.687971 114.521775,164.819262 114.569987,164.890719 C114.49853,164.93893 114.415451,165.046976 114.343994,165.095188 C114.416312,165.202373 114.428795,165.297936 114.525219,165.440849 C114.44214,165.548895 114.31171,165.740882 114.252736,165.884656 C114.300948,165.956113 114.325054,165.991841 114.34916,166.027569 C114.51704,166.122271 114.68492,166.216973 114.876906,166.347403 C115.092999,166.513561 115.129588,166.644852 114.928562,167.040447 C114.916939,167.100281 114.941045,167.13601 114.989257,167.207466 C115.181243,167.337897 115.251839,167.134288 115.323296,167.086076 C115.670679,167.215645 115.958228,167.333592 116.329717,167.498889 C116.366306,167.63018 116.427001,167.7972 116.476074,168.024053 C116.357266,168.156205 116.226836,168.348191 116.0723,168.504449 C116.181207,168.742925 116.300876,168.76617 116.479517,168.645641 C116.860907,168.44031 117.004681,168.499284 117.066238,168.8217 C117.078721,168.917263 117.091204,169.012825 117.079582,169.072659 C117.092065,169.168222 117.06882,169.287891 117.092926,169.323619 C117.356369,169.405837 117.250045,169.633552 117.346468,169.776465 C117.334846,169.8363 117.490243,169.835439 117.550077,169.847061 C117.634017,169.894412 117.753686,169.917657 117.89746,169.97663 C117.6366,170.360603 117.276734,170.135471 117.002529,170.268484 C116.800642,170.508682 117.005112,170.734674 117.018456,170.985634 L116.73306,171.256179 L116.470471,171.504159 L116.483392,171.502619 C116.640457,171.533128 116.669647,171.610107 116.627197,171.765277 L116.604782,171.836658 C116.353822,171.850002 116.078757,171.827618 115.876009,171.912419 C115.637533,172.021326 115.456309,171.675665 115.29015,171.891757 C115.088263,172.131955 114.78737,171.763049 114.609589,172.038975 C114.464093,171.669208 114.438265,171.322686 114.173962,171.085071 C114.04181,170.966263 113.981115,170.799244 114.111545,170.607257 C113.872208,170.560767 113.955287,170.452721 114.01426,170.308947 C114.073233,170.165173 114.036644,170.033882 114.035783,169.878485 C113.975949,169.866862 113.927737,169.795406 113.867903,169.783783 C113.736612,169.820372 113.498136,169.929279 113.414196,169.881929 C113.30615,169.798849 113.257077,169.571996 113.14817,169.33352 C113.016018,169.214712 112.788304,169.108388 112.572212,168.942229 C112.535622,168.810938 112.523139,168.715376 112.48655,168.584085 C112.484828,168.273291 112.494728,167.902663 112.04016,167.845412 C111.823207,167.523856 111.606254,167.202301 111.413407,166.916474 C111.341089,166.809289 111.280394,166.64227 111.172348,166.55919 C110.895561,166.226013 110.618774,165.892835 110.592085,165.390916 C110.614469,165.11585 110.385894,164.854129 110.134073,164.712077 C109.666161,164.403866 109.400996,164.010854 109.421658,163.424995 C108.79921,163.273041 108.688581,162.723772 108.590436,162.270064 C108.541363,162.043211 108.479807,161.720795 108.300304,161.685927 C108.012755,161.56798 107.880603,161.449173 108.034278,161.137518 C108.081629,161.053578 107.985206,160.910665 107.936994,160.839208 C107.517293,160.602454 107.097593,160.365699 107.082526,159.803946 C106.674448,159.507358 106.69511,158.921498 106.32276,158.600804 C106.166503,158.446268 106.11743,158.219415 106.295211,157.943488 C106.044251,157.956833 105.853126,157.981799 105.697729,157.98266 C105.696007,157.671867 105.75412,157.372695 105.454088,157.159186 C105.237996,156.993028 105.140711,156.694717 105.138989,156.383923 C105.077433,156.061507 105.015877,155.739091 104.90697,155.500615 C104.714123,155.214788 104.485548,154.953067 104.11492,154.943166 C103.982768,154.824359 103.874722,154.74128 103.74257,154.622472 C103.646146,154.479558 103.646146,154.479558 103.715881,154.120553 C103.572107,154.06158 103.404226,153.966878 103.260452,153.907905 C103.236346,153.872176 103.21224,153.836448 103.21224,153.836448 C103.01681,153.08443 103.01681,153.08443 102.474858,152.35824 C102.402541,152.251055 102.246283,152.096519 102.293634,152.012579 C102.445587,151.390131 101.941946,151.106026 101.641053,150.73712 C101.508901,150.618312 101.245458,150.536094 101.184763,150.369074 C101.155205,150.30814 101.117398,150.250203 101.07697,150.192608 L100.953447,150.018197 C100.853334,149.869286 100.771997,149.705923 100.797347,149.486627 C100.843837,149.24729 100.853737,148.876662 100.459004,148.831033 C100.399169,148.81941 100.350097,148.592557 100.397447,148.508616 C100.514533,148.065671 100.96738,147.812129 101.398703,147.989049 Z M116.337034,170.977455 C116.159254,171.253381 116.159254,171.253381 116.160975,171.564175 C116.224684,171.555853 116.304271,171.536817 116.378566,171.521352 L116.451471,171.508159 L116.475475,171.38854 C116.495838,171.271222 116.498671,171.150499 116.40526,171.0414 L116.337034,170.977455 Z M111.293786,165.789167 L111.227878,165.793828 C111.19215,165.817934 111.144799,165.901874 111.144799,165.901874 C111.19301,165.973331 111.241222,166.044788 111.325162,166.092139 C111.384997,166.103761 111.480559,166.091278 111.660062,166.126145 C111.539533,165.947503 111.527049,165.851941 111.467215,165.840318 C111.425245,165.816643 111.389301,165.8019 111.351905,165.794636 L111.293786,165.789167 Z M111.56721,163.762201 L111.52748,163.771947 C111.456023,163.820159 111.372944,163.928205 111.39705,163.963933 C111.481851,164.166681 111.60238,164.345323 111.687181,164.548071 C111.747015,164.559693 111.80685,164.571316 111.842578,164.54721 C111.997975,164.546349 112.141749,164.605322 112.176617,164.425819 C112.199862,164.306151 112.127544,164.198966 112.043604,164.151615 C111.911452,164.032807 111.731949,163.99794 111.706982,163.806815 C111.694929,163.78895 111.658986,163.774207 111.621589,163.766943 L111.56721,163.762201 Z M112.180491,162.967413 C112.158107,163.242479 112.123239,163.421981 112.136584,163.672941 C112.470622,163.551551 112.552841,163.288108 112.694893,163.036287 C112.515391,163.00142 112.395722,162.978175 112.180491,162.967413 Z M114.323762,137.708749 C114.539855,137.874907 114.708596,138.125006 114.9729,138.362621 C115.067601,138.194741 115.126575,138.050966 115.185548,137.907192 C115.436507,137.893848 115.629354,138.179675 115.891076,137.951099 C115.951771,138.118118 116.024088,138.225304 116.096406,138.332489 C116.037433,138.476263 115.954353,138.584309 115.859652,138.752189 C116.194551,138.786196 116.493723,138.844308 116.768788,138.866692 C116.68657,139.130135 116.592729,139.453412 116.474782,139.740961 C116.749848,139.763345 116.749848,139.763345 116.999085,139.439207 C117.393819,139.484836 117.646501,139.782286 117.839348,140.068113 C117.887559,140.139569 117.900043,140.235132 117.912526,140.330694 C118.069645,140.640627 118.358055,140.913971 118.729544,141.079268 C118.815206,141.437413 118.384743,141.41589 118.254313,141.607876 L118.337213,141.647263 C118.473646,141.699636 118.601409,141.685646 118.720504,141.605293 L118.852646,141.547661 C119.003924,141.484036 119.147331,141.450183 119.306363,141.625955 C119.294741,141.68579 119.307224,141.781352 119.235767,141.829564 C119.093715,142.081384 119.142787,142.308238 119.370502,142.414562 C119.801825,142.591482 119.85262,143.12913 120.307188,143.186381 C120.440201,143.460586 120.584836,143.674956 120.741955,143.984889 C120.562452,143.950021 120.418678,143.891048 120.0954,143.797207 C120.348082,144.094656 120.444505,144.23757 120.576657,144.356378 C120.732915,144.510913 120.900795,144.605615 121.032947,144.724423 C120.95159,145.143263 120.36487,144.967203 120.307618,145.421772 C120.43977,145.540579 120.571922,145.659387 120.763908,145.789817 C120.955894,145.920247 121.123775,146.014949 121.101391,146.290014 C121.078146,146.409682 121.388939,146.407961 121.390661,146.718754 C121.391522,146.874151 121.607614,147.04031 121.704038,147.183223 C122.074666,147.193124 122.18099,146.965409 122.358771,146.689483 C122.466817,146.772562 122.694532,146.878886 122.707015,146.974449 C122.769432,147.452262 123.165888,147.808685 123.264033,148.262392 C123.361318,148.560702 123.589893,148.822423 123.78274,149.10825 C123.639827,149.204674 123.532642,149.276992 123.425456,149.349309 C123.665654,149.551196 123.547708,149.838745 123.501218,150.078082 C123.438263,150.042569 123.35521,150.020615 123.277303,150.017124 L123.218471,150.018159 L123.246639,150.317244 C123.259713,150.439367 123.274571,150.564138 123.290323,150.690231 L123.339364,151.071158 C123.734098,151.116787 123.916183,151.617845 124.393997,151.555428 C124.718996,151.960063 125.282471,152.25579 125.214458,152.92559 C125.154623,152.913967 125.094789,152.902345 125.034955,152.890722 C124.977703,153.34529 125.25363,153.523071 125.637602,153.783931 C125.434854,153.868733 125.267835,153.929428 125.089193,154.049957 C125.197239,154.133036 125.233828,154.264327 125.317769,154.311678 C125.521377,154.382274 125.724986,154.45287 125.928594,154.523466 C125.703463,154.883332 126.098197,154.928961 126.27856,155.119225 C126.267799,155.334456 126.305249,155.621144 126.318593,155.872104 C126.821373,156.000812 127.086538,156.393824 127.351703,156.786836 C127.399914,156.858293 127.305213,157.026173 127.257862,157.110113 C127.210511,157.194053 127.019386,157.21902 126.982797,157.087729 C126.909618,156.825147 126.765844,156.766174 126.490778,156.74379 C126.527367,156.875081 126.528228,157.030478 126.600546,157.137663 C126.94879,157.422629 127.390875,157.384318 127.868688,157.321901 C127.83382,157.501404 127.834681,157.6568 127.871271,157.788091 C128.039151,157.882793 128.266865,157.989117 128.41064,158.048091 C128.472196,158.370507 128.244481,158.264183 128.14978,158.432063 C128.126535,158.551731 128.127396,158.707128 128.128257,158.862525 C128.487262,158.93226 128.461434,158.585738 128.651699,158.405374 C128.879413,158.511698 129.131234,158.653751 129.383054,158.795804 C129.452789,158.436798 129.46269,158.06617 129.532424,157.707164 C129.878086,157.52594 130.260336,157.476006 130.448879,156.984849 C130.542719,156.661572 130.959837,156.432135 131.367916,156.728724 C131.414405,156.489387 131.389439,156.298261 131.472518,156.190215 C131.626193,155.878561 132.056655,155.900084 132.174602,155.612535 C132.244337,155.25353 132.566753,155.191973 132.792746,154.987504 C132.875825,154.879458 132.995493,154.902703 133.126784,154.866114 C133.162513,154.842008 133.269698,154.76969 133.28132,154.709856 C133.385923,154.171347 133.852113,154.168765 134.30582,154.070619 C134.162907,154.167043 134.044099,154.299195 133.925292,154.431347 C134.022576,154.729657 134.286019,154.811875 134.561085,154.834259 C135.015653,154.891511 135.015653,154.891511 135.113798,155.345218 C135.126282,155.440781 135.198599,155.547966 135.235188,155.679257 C135.068169,155.739952 134.90115,155.800647 134.73413,155.861342 C134.533105,156.256937 134.38029,156.723989 134.059596,157.096339 C133.703173,157.492794 133.607611,157.505278 133.068241,157.245278 C133.008407,157.233656 132.948573,157.222033 132.888739,157.210411 C133.046718,157.675741 133.08503,158.117825 132.560726,158.419579 C132.348078,158.875009 131.895232,159.128551 131.50222,159.393716 C131.299472,159.478517 131.025268,159.611529 131.146658,159.945568 C131.170764,159.981297 131.016228,160.137554 130.920665,160.150038 C130.72954,160.175005 130.514309,160.164243 130.323184,160.18921 C130.312422,160.404441 130.265932,160.643778 130.255171,160.859009 C129.908649,160.884837 129.646067,160.958015 129.371001,160.935631 C129.095936,160.913247 128.89491,161.308842 128.618123,160.975664 C128.654712,161.106955 128.691301,161.238246 128.763619,161.345431 C128.657295,161.573146 128.491136,161.789238 128.349084,162.041058 C128.074018,162.018674 127.953489,161.840033 127.928522,161.648907 C127.867827,161.481888 127.84286,161.290763 127.627629,161.280001 C127.412398,161.26924 127.150677,161.497815 127.128293,161.77288 C127.11667,161.832715 127.129154,161.928277 127.141637,162.02384 C127.10677,162.203343 126.904022,162.288144 126.736142,162.193442 C126.544156,162.063012 126.328063,161.896854 126.088726,161.850364 C125.969058,161.827119 125.932469,161.695828 125.860151,161.588643 C125.847668,161.49308 125.329821,160.802619 125.269987,160.790996 C124.814558,160.578348 124.633334,160.232687 124.595022,159.790602 C124.702207,159.718284 124.773664,159.670072 124.916578,159.573649 C124.843399,159.311067 124.961346,159.023518 124.721148,158.821631 L124.711885,158.827881 L124.689471,158.842159 L124.656458,158.865693 C124.59101,158.911099 124.522154,158.962547 124.43966,159.038171 L124.352242,159.122524 C124.30403,159.051068 124.064693,159.004578 124.052209,158.909015 C124.003137,158.682161 124.073733,158.478553 124.396149,158.416997 C124.492572,158.55991 124.588996,158.702824 124.685419,158.845737 L124.720101,158.731673 C124.835594,158.254464 124.509084,157.99542 124.141746,157.808754 C123.879164,157.881932 124.119362,158.083819 123.880886,158.192726 C123.880886,158.192726 123.749595,158.229315 123.654032,158.241799 C123.629926,158.20607 123.545986,158.158719 123.581714,158.134613 C123.615721,157.799714 123.578271,157.513026 123.24251,157.323623 C123.15857,157.276272 123.086252,157.169087 123.073769,157.073524 C123.036319,156.786836 123.118537,156.523393 122.949796,156.273295 C122.829266,156.094653 122.863273,155.759753 122.8142,155.5329 C122.801717,155.437337 122.777611,155.401609 122.729399,155.330152 C123.038471,155.017636 123.1491,155.566906 123.423304,155.433893 C123.399198,155.398165 123.446549,155.314225 123.422443,155.278496 C123.206351,155.112338 123.014365,154.981908 122.78665,154.875584 C122.70271,154.828233 122.571419,154.864822 122.475857,154.877306 C122.15344,154.938862 122.129335,154.903133 122.031189,154.449426 C122.222314,154.424459 122.437546,154.435221 122.688505,154.421877 C122.676022,154.326314 122.687644,154.26648 122.663538,154.230751 C122.194765,153.767143 121.84566,153.326781 121.889567,152.621253 C121.877084,152.52569 121.769038,152.442611 121.69672,152.335426 C121.69672,152.335426 121.660992,152.359532 121.625263,152.383638 C121.625263,152.383638 121.589535,152.407744 121.613641,152.443472 C121.494833,152.575624 121.411754,152.68367 121.292946,152.815822 C121.209006,152.768471 121.136689,152.661286 121.004537,152.542478 C121.267119,152.4693 121.422516,152.468439 121.589535,152.407744 L121.556166,152.378265 C121.529509,152.361588 121.497559,152.348483 121.481489,152.324664 C121.325231,152.170128 121.503012,151.894202 121.239569,151.811984 C121.095795,151.753011 120.904669,151.777977 120.749273,151.778838 C120.808246,151.635064 120.831491,151.515395 120.890464,151.371621 C120.866358,151.335893 120.902087,151.311787 120.889603,151.216224 C120.589571,151.002715 120.325267,150.7651 119.941295,150.504239 C120.000268,150.360465 120.083347,150.252419 120.082487,150.097022 C120.070003,150.00146 120.05752,149.905897 120.02093,149.774606 C120.008447,149.679043 120.007586,149.523646 119.982619,149.332521 C119.790633,149.202091 119.538813,149.060039 119.262886,148.882258 C119.273648,148.667027 119.272787,148.51163 119.319277,148.272293 C119.139774,148.237425 118.960271,148.202558 118.804875,148.203419 C118.684345,148.024777 118.62365,147.857758 118.479015,147.643387 C118.54961,147.439779 118.620206,147.23617 118.666696,146.996833 C118.618484,146.925376 118.570273,146.85392 118.522061,146.782463 C118.31673,146.401073 118.051566,146.008061 117.810507,145.650778 C117.762295,145.579321 117.702461,145.567698 117.714083,145.507864 C117.709779,144.73088 117.04988,144.292239 116.664186,143.720585 C116.64008,143.684856 116.55614,143.637506 116.532034,143.601777 C116.457994,143.183798 116.121373,142.838998 116.083062,142.396913 C116.021506,142.074497 115.95995,141.752081 115.588461,141.586783 C115.50452,141.539433 115.396474,141.456353 115.348263,141.384897 C115.275084,141.122315 115.226011,140.895461 114.974191,140.753408 C114.746476,140.647084 114.709026,140.360396 114.492934,140.194238 C114.325054,140.099536 114.31171,139.848577 114.251014,139.681557 C114.201942,139.454704 114.356478,139.298446 114.511014,139.142188 C114.308266,139.226989 114.105518,139.31179 113.877804,139.205466 C113.422374,138.992818 112.931217,138.804275 112.832211,138.195171 C113.000091,138.289873 113.227806,138.396197 113.45552,138.502521 C113.717241,138.273946 114.099492,138.224012 114.132637,137.733716 C114.132637,137.733716 114.299657,137.673021 114.323762,137.708749 Z M126.349156,159.231001 C126.588493,159.277491 126.82783,159.323981 127.066306,159.215074 C126.66985,158.858651 126.66985,158.858651 126.349156,159.231001 Z M139.868684,124.633027 C140.562589,124.736769 141.268978,124.936073 141.892287,125.243423 C142.228048,125.432826 142.228048,125.432826 142.718344,125.465972 C142.739772,125.49773 142.752377,125.535441 142.762043,125.575136 L142.788097,125.696204 C142.81226,125.79544 142.854801,125.882277 143.007615,125.894712 C143.246952,125.941202 143.224568,126.216268 143.345097,126.394909 C143.500494,126.394048 143.703242,126.309247 143.822911,126.332492 C144.074731,126.474545 144.302445,126.580869 144.648968,126.555041 C144.899927,126.541697 144.985589,126.899842 144.807808,127.175768 C144.748835,127.319542 144.64165,127.39186 144.773802,127.510668 C144.870225,127.653581 145.014,127.712554 145.156913,127.616131 C145.418634,127.387555 145.598998,127.57782 145.862441,127.660038 C145.887408,127.851163 145.900752,128.102123 145.914096,128.353082 C145.915818,128.663876 146.26234,128.638048 146.442704,128.828312 C146.29979,128.924736 146.192605,128.997054 146.049692,129.093477 C146.157738,129.176556 146.241678,129.223907 146.277406,129.199801 C146.408697,129.163212 146.515882,129.090894 146.587339,129.042683 C146.647173,129.054305 146.731114,129.101656 146.826676,129.089173 C146.779325,129.173113 146.767703,129.232947 146.696246,129.281159 C146.660518,129.305265 146.600683,129.293642 146.540849,129.28202 C146.469393,129.330231 146.362207,129.402549 146.386313,129.438278 C146.398797,129.53384 146.459492,129.700859 146.49522,129.676754 C146.793531,129.579469 146.962272,129.829568 147.11853,129.984104 C147.263165,130.198474 147.466774,130.26907 147.706111,130.31556 C148.029388,130.4094 148.281208,130.551453 148.36687,130.909598 C148.379354,131.00516 148.451671,131.112345 148.535611,131.159696 C148.799915,131.397311 148.873094,131.659893 148.93465,131.982309 C149.007828,132.244891 149.116735,132.483368 149.321205,132.70936 C149.501569,132.899625 149.610476,133.138101 149.779217,133.388199 C149.731866,133.472139 149.672893,133.615914 149.589813,133.72396 C149.602297,133.819522 149.61478,133.915085 149.69872,133.962436 C150.059448,134.342964 150.083554,134.378693 149.846799,134.798394 C149.740475,135.026108 149.598423,135.277929 149.79127,135.563755 C149.946667,135.562895 150.137792,135.537928 150.353023,135.548689 C150.509281,135.703225 150.702128,135.989052 150.846763,136.203422 C150.836002,136.418653 150.704711,136.455243 150.525208,136.420375 C150.525208,136.420375 150.383155,136.672196 150.44299,136.683818 C150.545932,136.770341 150.609499,136.88343 150.661818,137.004109 L150.759787,137.249964 C150.792999,137.331541 150.829545,137.410869 150.877756,137.482326 C150.950074,137.589511 151.05812,137.67259 151.226,137.767292 C151.143782,138.030735 150.845472,138.128019 150.690936,138.284277 C150.489049,138.524475 150.525638,138.655766 150.873021,138.785335 C150.897127,138.821063 150.956962,138.832686 151.040902,138.880037 L151.018175,138.857189 C150.992851,138.837717 150.965894,138.826659 150.99269,138.80858 C150.980207,138.713017 150.943617,138.581726 150.990968,138.497786 C150.981326,138.483495 151.000404,138.474782 151.029055,138.467929 L151.124584,138.44923 L151.157987,138.437091 C151.266894,138.675567 151.099875,138.736262 151.016796,138.844308 L151.098523,138.874109 C151.272267,138.979404 151.122785,139.275392 151.378384,139.380234 C151.522158,139.439207 151.642688,139.617849 151.823052,139.808113 C151.691761,139.844703 151.584576,139.91702 151.47739,139.989338 C151.502357,140.180463 151.491596,140.395694 151.540668,140.622548 C151.565635,140.813673 151.614708,141.040527 151.723615,141.279003 C151.604807,141.411155 151.521728,141.519201 151.40292,141.651353 C151.464477,141.973769 151.561761,142.272079 151.599211,142.558767 C151.58845,142.773998 151.685734,143.072309 151.291861,143.182076 C151.256133,143.206182 151.245371,143.421414 151.246232,143.57681 L151.189918,143.753958 C151.083799,144.112956 151.005419,144.496893 150.751201,144.846674 C150.585042,145.062766 150.621631,145.194057 150.94577,145.443295 C151.102027,145.597831 151.138617,145.729122 150.995703,145.825545 C150.793816,146.065743 150.55534,146.17465 150.641002,146.532795 C150.62938,146.592629 150.534678,146.760509 150.439115,146.772993 C150.212262,146.822065 150.105077,146.894383 150.058587,147.13372 C149.905773,147.600772 149.477032,147.890042 149.180444,148.29812 C149.144715,148.322226 149.144715,148.322226 149.108987,148.346332 C148.834783,148.479345 148.452532,148.529279 148.286374,148.745371 C148.060381,148.94984 147.846011,149.094476 147.607535,149.203383 C147.344953,149.276561 147.142205,149.361362 146.987669,149.51762 C146.595518,149.938182 146.046248,150.04881 145.54519,150.230896 C144.996781,150.496922 144.376055,150.655762 143.816023,150.981622 C143.744566,151.029834 143.601653,151.126257 143.517713,151.078907 C142.967582,151.034139 142.443279,151.335893 141.905632,151.386687 C141.427819,151.449104 140.997356,151.427581 140.566033,151.250661 C140.34004,151.455131 140.114048,151.6596 139.923783,151.839964 C139.720175,151.769368 139.528189,151.638938 139.337063,151.663905 C139.181666,151.664766 139.003025,151.785295 138.776171,151.834368 C138.609152,151.895063 138.453755,151.895924 138.237663,151.729766 C138.021571,151.563607 137.76975,151.421555 137.494685,151.399171 C136.812402,151.235595 136.812402,151.235595 136.342768,150.61659 C136.294556,150.545133 136.115053,150.510266 136.019491,150.522749 C135.852471,150.583445 135.649724,150.668246 135.482704,150.728941 C134.42635,149.933877 133.334267,149.162919 132.444071,148.151763 C132.371754,148.044578 132.227979,147.985605 132.119933,147.902526 C132.035993,147.855175 131.916324,147.83193 131.903841,147.736367 C131.673544,147.163852 131.110069,146.868125 130.844043,146.319716 C130.735136,146.08124 130.602123,145.807035 130.493216,145.568559 C130.420899,145.461374 130.420038,145.305977 130.336098,145.258626 C129.748517,144.92717 129.793285,144.37704 129.682656,143.82777 C129.454941,143.721446 129.072691,143.771379 128.927195,143.401612 C128.817427,143.007739 128.863056,142.613005 129.09981,142.193305 C129.027492,142.08612 128.931069,141.943206 128.834645,141.800293 C128.762328,141.693108 128.69001,141.585922 128.653421,141.454631 C128.495441,140.989302 128.301733,140.548078 127.988356,140.083609 C128.083058,139.915729 128.153654,139.71212 128.259978,139.484406 C128.115343,139.270035 127.946602,139.019937 127.753754,138.73411 C128.02882,138.756494 128.244051,138.767256 128.435176,138.742289 C128.492428,138.287721 128.492428,138.287721 128.061104,138.110801 C128.095111,137.775901 128.188952,137.452624 128.498024,137.140108 C128.341766,136.985572 128.209614,136.866765 128.089085,136.688123 C128.339183,136.519382 128.553553,136.374746 128.767924,136.230111 C128.742957,136.038986 128.682262,135.871966 128.741235,135.728192 C128.89491,135.416537 128.655573,135.370047 128.403752,135.227995 C128.594017,135.047631 128.688718,134.879751 128.819149,134.687765 C128.686136,134.41356 128.92289,133.99386 128.586268,133.649059 L128.835506,133.324921 C128.965936,133.132935 129.036532,132.929326 128.891897,132.714956 C128.674944,132.393401 128.900936,132.188931 129.114446,131.888899 C129.306432,132.019329 129.534146,132.125653 129.785967,132.267706 C129.869046,132.15966 129.976231,132.087342 129.999476,131.967674 C130.022721,131.848005 129.914675,131.764926 129.783384,131.801515 C129.652093,131.838105 129.532424,131.81486 129.412756,131.791615 C129.293087,131.76837 129.208286,131.565622 129.291366,131.457576 C129.338716,131.373636 129.410173,131.325424 129.48163,131.277212 C129.719245,131.012908 129.897026,130.736982 129.596133,130.368076 C129.547921,130.296619 129.535438,130.201057 129.54706,130.141222 C129.522093,129.950097 129.72398,129.709899 129.915105,129.684932 C130.201793,129.647482 130.428647,129.598409 130.462653,129.26351 C130.45017,129.167947 130.533249,129.059901 130.604706,129.011689 C130.890533,128.818842 131.140631,128.650101 131.462187,128.433148 C131.270201,128.302718 131.138049,128.18391 131.005897,128.065103 C131.147088,127.657886 131.147088,127.657886 131.001592,127.288119 C131.055953,127.236586 131.135826,127.210284 131.219343,127.187586 L131.344619,127.153539 C131.508009,127.10454 131.642243,127.026705 131.572385,126.747027 C131.584008,126.687193 131.726921,126.59077 131.834106,126.518452 C131.941291,126.446134 132.096688,126.445273 132.227979,126.408684 C132.15394,125.990705 132.20129,125.906765 132.476356,125.929149 C132.691587,125.939911 132.966652,125.962295 133.146155,125.997162 C133.828438,126.160738 134.437542,126.061732 134.949362,125.664415 C135.246811,125.411734 135.556744,125.254615 135.987206,125.276138 C136.202437,125.286899 136.476642,125.153887 136.715118,125.04498 C137.310877,124.695014 137.919982,124.596008 138.601403,124.604186 C139.00776,124.589981 139.449844,124.55167 139.868684,124.633027 Z M121.907216,149.333813 C122.220593,149.798281 122.62781,149.939473 122.999299,150.104771 C123.047166,150.114069 123.10991,150.046779 123.169679,149.994806 L123.069974,149.875593 C122.886534,149.689331 122.674906,149.529789 122.449375,149.418139 L122.277844,149.343713 C122.193904,149.296362 122.086719,149.36868 121.907216,149.333813 Z M137.642764,126.342823 C137.248891,126.452591 136.879124,126.598088 136.520979,126.68375 C136.389688,126.720339 136.198563,126.745306 136.090517,126.662226 C135.719028,126.496929 135.456446,126.570107 135.183103,126.858517 C135.075917,126.930835 134.968732,127.003153 134.87317,127.015636 C134.395357,127.078053 134.038073,127.319112 133.632578,127.488714 C133.227082,127.658316 133.025195,127.898514 132.751852,128.186924 C132.324833,128.786988 132.005861,129.470132 131.662782,130.117547 C131.568081,130.285427 131.413545,130.441685 131.318843,130.609565 C131.235764,130.717611 131.212519,130.83728 131.129439,130.945326 C131.058844,131.148935 130.988248,131.352543 130.929275,131.496318 C130.670136,132.191084 130.362786,132.814393 130.247422,133.568132 C130.200932,133.807469 130.178548,134.082535 129.988284,134.262898 C129.940933,134.346839 129.977522,134.47813 129.990006,134.573692 C129.990867,134.729089 130.015834,134.920214 130.016695,135.075611 C130.031761,135.637364 130.011099,136.223224 130.061893,136.760871 C130.111827,137.143121 130.029608,137.406564 129.875072,137.562822 C129.961595,138.076364 130.035635,138.494342 130.109674,138.912321 C130.12388,139.318678 130.317588,139.759902 129.972787,140.096523 C130.177257,140.322516 130.31027,140.59672 130.419177,140.835196 C130.553051,141.264798 130.651196,141.718505 130.99944,142.003471 C131.215532,142.169629 131.20477,142.38486 131.218115,142.63582 C131.23232,143.042176 131.268048,143.01807 131.771689,143.302175 C131.736822,143.481678 131.761789,143.672803 131.726921,143.852306 C131.907285,144.042571 132.05192,144.256941 132.279635,144.363265 C132.615395,144.552668 132.784136,144.802767 132.941255,145.1127 C133.074268,145.386904 133.314466,145.588791 133.447479,145.862995 C133.435856,145.92283 133.543902,146.005909 133.603737,146.017531 C134.286019,146.181107 134.635985,146.776867 135.163732,147.0967 C135.201182,147.383388 135.344956,147.442361 135.65575,147.44064 C135.882604,147.391567 135.919193,147.522858 135.920915,147.833652 C135.861942,147.977426 135.921776,147.989049 136.005716,148.036399 C136.14949,148.095373 136.210186,148.262392 136.306609,148.405306 C136.724588,148.331266 137.178295,148.233121 137.467566,148.661861 C137.886406,148.743218 138.187299,149.112125 138.617761,149.133648 C138.832992,149.144409 138.988389,149.143548 139.07319,149.346296 C139.133885,149.513315 139.396467,149.440137 139.409811,149.691096 C139.374083,149.715202 139.398189,149.750931 139.398189,149.750931 C139.505374,149.678613 139.648288,149.582189 139.779579,149.5456 C140.018055,149.436693 140.151067,149.710898 140.235008,149.758248 C140.677092,149.719937 140.975403,149.622653 141.274574,149.680765 C142.088148,149.807752 142.935728,149.599838 143.748441,149.571428 C143.808275,149.58305 143.879732,149.534838 143.91546,149.510733 C144.59516,149.208118 145.3588,148.952854 146.050122,148.590404 C146.502969,148.336862 146.931709,148.047591 147.083662,147.425143 C147.130152,147.185806 147.332039,146.945608 147.485714,146.633953 C147.365184,146.455311 147.184821,146.265047 147.064291,146.086405 C146.741875,146.147961 146.479293,146.22114 146.397075,146.484583 C146.385452,146.544417 146.325618,146.532795 146.230055,146.545278 C146.16936,146.378259 146.048831,146.199617 145.988136,146.032598 C146.166778,145.912068 146.345419,145.791539 146.488333,145.695115 C146.367803,145.516473 146.259757,145.433394 146.163334,145.290481 C146.376843,144.990448 146.518896,144.738628 146.696677,144.462702 C146.612736,144.415351 146.552902,144.403728 146.468962,144.356378 C146.599392,144.164391 146.705716,143.936677 146.860252,143.780419 C147.157702,143.527738 146.880053,143.039163 147.297171,142.809727 C147.297171,142.809727 147.21237,142.606979 147.199887,142.511416 C147.186543,142.260457 147.233033,142.02112 147.315251,141.757677 C147.421575,141.529962 147.551144,141.182579 147.502071,140.955726 C147.307503,140.359105 147.244225,139.725895 147.061278,139.06944 C147.180373,138.989087 147.283588,138.919448 147.392096,138.846237 L147.546471,138.741159 L147.532324,138.52785 C147.518532,138.26513 147.510784,138.005819 147.462589,137.747594 L147.399191,137.489644 C147.362602,137.358353 147.301907,137.191333 147.349257,137.107393 C147.530912,136.811522 147.452568,136.575533 147.337045,136.341521 L147.246913,136.165478 C147.216866,136.106317 147.187977,136.046375 147.163728,135.984748 C147.078927,135.782 147.078927,135.782 147.124556,135.387266 C147.135318,135.172035 147.110351,134.98091 146.929987,134.790645 C146.317439,134.268064 146.014824,133.588364 145.831017,132.776512 C145.782805,132.705056 145.770322,132.609493 145.686382,132.562142 C145.255058,132.385222 145.014,132.027938 144.904232,131.634065 C144.806947,131.335755 144.590855,131.169597 144.422114,130.919498 C143.904268,130.229037 143.86854,130.253143 143.768672,129.488642 C143.780295,129.428807 143.720461,129.417185 143.707977,129.321622 L143.204336,129.037517 C143.144502,129.025895 143.036456,128.942815 143.048078,128.882981 C143.106191,128.58381 142.80702,128.525698 142.674868,128.40689 C142.35073,128.157652 142.050697,127.944143 141.822122,127.682422 C141.545335,127.349244 141.197952,127.219675 140.826463,127.054378 C140.490702,126.864974 140.166564,126.615736 139.712857,126.713882 C139.6414,126.762094 139.569083,126.654909 139.485142,126.607558 C139.401202,126.560207 139.257428,126.501234 139.185971,126.549445 C138.876038,126.706564 138.576867,126.648452 138.276835,126.434942 C138.084849,126.304512 137.869618,126.293751 137.642764,126.342823 Z M122.545161,147.967525 C122.296784,148.44706 122.573572,148.780238 122.743174,149.185734 C122.933438,149.00537 123.257576,149.254608 123.435357,148.978681 C123.348834,148.46514 122.953239,148.264114 122.545161,147.967525 Z M119.962388,147.838387 C119.652455,147.995505 119.832818,148.18577 119.91762,148.388517 C120.263281,148.207293 120.263281,148.207293 119.962388,147.838387 Z M121.369569,145.069223 C121.824137,145.126475 121.824137,145.126475 121.599005,145.486341 L121.645894,145.55869 C121.675388,145.608114 121.69959,145.661109 121.707912,145.724817 C121.840925,145.999022 121.709634,146.035611 121.48278,146.084683 C121.338145,145.870313 121.408741,145.666705 121.539171,145.474718 L121.490697,145.389628 C121.447052,145.299655 121.41509,145.194488 121.369569,145.069223 Z M155.580987,110.392475 C155.678272,110.690785 155.882741,110.916778 156.087211,111.142771 C156.556845,111.761775 156.955023,112.428992 157.174558,113.216738 C157.189947,113.297342 157.198584,113.372753 157.203843,113.445569 L157.221896,113.872076 L157.251181,114.100907 C157.947669,114.670839 158.227039,115.470208 158.506409,116.269576 C158.542998,116.400867 158.603693,116.567886 158.46078,116.66431 C158.282138,116.784839 158.354455,116.892025 158.426773,116.99921 C158.511574,117.201957 158.727666,117.368116 158.752633,117.559241 C158.765977,117.810201 159.016937,117.796856 159.017798,117.952253 C159.054387,118.083544 158.959685,118.251424 159.032003,118.358609 C159.237334,118.739999 159.239916,119.20619 159.540809,119.575096 C159.733657,119.860923 159.652299,120.279763 159.737961,120.637907 C159.81114,120.900489 159.728921,121.163932 159.766372,121.45062 C160.149483,121.556083 160.209317,121.567706 160.187794,121.998168 C160.16541,122.273233 160.143026,122.548299 159.98849,122.704556 C160.098258,123.098429 160.18392,123.456574 160.30531,123.790613 C160.700905,123.991639 160.596303,124.530147 160.908818,124.839219 C160.992759,124.88657 161.029348,125.017861 161.101666,125.125046 C161.174844,125.387628 160.85415,125.759978 161.321201,125.912792 C161.454214,126.186996 161.587227,126.461201 161.72024,126.735405 C161.805041,126.938153 161.818385,127.189112 161.891564,127.451694 C161.760273,127.488283 161.640604,127.465039 161.485207,127.465899 C161.558386,127.728481 161.727127,127.97858 161.764577,128.265268 C161.81365,128.492121 161.791266,128.767187 161.768882,129.042252 C161.972491,129.112848 162.116265,129.171821 162.26004,129.230795 C162.477853,129.707747 162.408979,130.222149 162.638416,130.639267 C162.686628,130.710724 162.663383,130.830392 162.65176,130.890227 C162.47484,131.32155 162.667687,131.607377 163.063282,131.808403 C162.897985,132.179892 162.768415,132.527275 162.973746,132.908664 C162.938018,132.93277 162.926395,132.992604 162.914773,133.052439 C162.950501,133.028333 163.010335,133.039955 163.046064,133.015849 C163.10762,133.338266 162.965567,133.590086 162.67974,133.782933 C162.824376,133.997303 162.969011,134.211673 163.053812,134.414421 C163.174341,134.593063 163.187686,134.844023 163.284109,134.986936 C163.548413,135.224551 163.346526,135.464749 163.419705,135.727331 C163.481261,136.049747 163.351692,136.39713 163.198017,136.708785 C163.150666,136.792725 163.128282,137.067791 163.212222,137.115141 C163.583711,137.280439 163.454142,137.627822 163.587155,137.902026 C163.683578,138.04494 163.744273,138.211959 163.804969,138.378979 C163.673678,138.415568 163.542387,138.452157 163.375367,138.512852 C163.268182,138.58517 163.185103,138.693216 163.077918,138.765534 C163.006461,138.813745 162.899276,138.886063 162.839442,138.874441 C162.516165,138.7806 162.374112,139.03242 162.172225,139.272618 C161.970338,139.512816 161.790836,139.477949 161.538154,139.180499 C161.514048,139.144771 161.489943,139.109043 161.441731,139.037586 C161.417625,139.001857 161.393519,138.966129 161.345307,138.894672 C161.249745,138.907156 161.154182,138.919639 160.998785,138.9205 C160.866633,138.801693 160.781832,138.598945 160.589846,138.468515 C160.556808,138.438813 160.517071,138.413631 160.473984,138.390709 L160.202067,138.262216 L160.086205,138.18441 C159.894219,138.05398 159.737961,137.899444 159.65316,137.696696 C159.544253,137.45822 159.412101,137.339412 159.220115,137.208982 C158.992401,137.102658 158.836143,136.948122 158.679885,136.793586 C158.320018,136.568454 158.1629,136.258522 158.244257,135.839682 C158.25588,135.779847 158.196045,135.768225 158.159456,135.636934 C158.063893,135.649417 157.908497,135.650278 157.812934,135.662762 C157.571875,135.305478 157.330816,134.948194 157.089757,134.590911 C157.018301,134.639123 156.946844,134.687334 156.80393,134.783758 C156.491415,134.474686 156.143171,134.18972 156.116482,133.687801 C156.103138,133.436841 155.81645,133.474292 155.731649,133.271544 C155.719166,133.175981 155.622742,133.033068 155.538802,132.985717 C155.095856,132.868631 154.937877,132.403302 154.530659,132.26211 L154.099336,132.08519 C154.074369,131.894065 154.03778,131.762774 154.012813,131.571648 C153.677053,131.382245 153.269835,131.241053 153.17169,130.787346 C153.159206,130.691784 153.015432,130.63281 152.931492,130.585459 C152.570765,130.204931 152.198415,129.884236 151.980601,129.407284 C151.944012,129.275993 151.835965,129.192914 151.752025,129.145563 C151.392159,128.920431 151.1511,128.563148 150.838584,128.254076 C150.718055,128.075434 150.585903,127.956626 150.560936,127.765501 C150.49938,127.443085 150.211831,127.325138 150.031468,127.134874 C149.979935,127.080513 149.92264,127.042773 149.863979,127.010198 L149.688298,126.916515 C149.602806,126.865967 149.524137,126.801266 149.467132,126.68375 C149.346602,126.505108 149.047431,126.446995 148.926902,126.268353 C148.806372,126.089712 148.88859,125.826269 148.899352,125.611038 C148.660015,125.564548 148.444784,125.553786 148.265281,125.518919 C148.0126,125.221469 147.831375,124.875808 147.507237,124.62657 C147.291145,124.460412 147.229589,124.137996 146.893828,123.948592 C146.60628,123.830646 146.425055,123.484984 146.232208,123.199158 C146.027738,122.973165 145.894725,122.69896 145.66615,122.437239 C145.593832,122.330054 145.46168,122.211247 145.2938,122.116545 C145.053602,121.914658 144.75357,121.701149 144.477644,121.523368 C144.428571,121.296514 144.391121,121.009826 144.353671,120.723139 C144.162545,120.748105 143.97142,120.773072 143.780295,120.798039 C143.707977,120.690854 143.635659,120.583669 143.539236,120.440755 C143.358872,120.250491 143.274071,120.047743 143.10533,119.797645 C143.212515,119.725327 143.3197,119.653009 143.415263,119.640526 C144.072579,119.612976 144.694166,119.609533 145.24688,120.120491 C145.462972,120.28665 145.750521,120.404597 146.026447,120.582377 C146.350585,120.831615 146.74618,121.032641 146.939888,121.473865 C146.9881,121.545322 147.096146,121.628401 147.180086,121.675752 C147.4078,121.782076 147.564058,121.936612 147.613131,122.163465 C147.650581,122.450153 147.830945,122.640418 148.141738,122.638696 C148.392698,122.625351 148.573062,122.815616 148.729319,122.970152 C149.029352,123.183661 149.198954,123.589156 149.641899,123.706242 C149.701734,123.717865 149.774051,123.82505 149.786535,123.920612 C149.801601,124.482366 150.25703,124.695014 150.62938,125.015708 C150.869578,125.217595 151.08567,125.383754 151.242788,125.693686 C151.315967,125.956268 151.567787,126.098321 151.772257,126.324314 C152.036561,126.561929 152.276759,126.763816 152.505334,127.025537 C152.709804,127.251529 152.878545,127.501628 153.201822,127.595469 C153.441159,127.641959 153.585795,127.856329 153.599139,128.107288 C153.588377,128.322519 153.720529,128.441327 153.959866,128.487817 C154.223309,128.570035 154.200925,128.845101 154.178541,129.120166 C154.561652,129.225629 154.755361,129.666853 155.233174,129.604436 C155.248132,129.607342 155.263871,129.61622 155.28,129.628084 L155.378334,129.711217 L155.42516,129.734866 C155.497477,129.842051 155.498338,129.997448 155.582279,130.044799 C155.953767,130.210096 156.146615,130.495923 156.256382,130.889796 C156.306316,131.272047 156.665322,131.341782 156.95287,131.459728 C157.097506,131.674098 157.027771,132.033104 157.434988,132.174296 C157.602007,132.1136 157.780649,131.993071 157.959291,131.872542 L157.900694,131.797174 C157.700418,131.499721 157.663044,131.192185 157.806863,130.862223 L157.869324,130.737413 C157.932459,130.625492 157.995593,130.513572 158.051585,130.391066 L158.114471,130.232159 L158.041779,130.234144 C157.790073,130.216255 157.598722,130.070276 157.439979,129.863855 L157.373862,129.771886 C157.420352,129.532549 157.598133,129.256622 157.46512,128.982418 C157.332108,128.708214 157.630418,128.610929 157.736742,128.383215 C157.627835,128.144738 157.494822,127.870534 157.326081,127.620435 C157.301975,127.584707 157.039393,127.657886 157.193929,127.501628 C157.395816,127.26143 157.202969,126.975603 157.345021,126.723783 C157.536147,126.698816 157.727272,126.673849 157.978231,126.660505 C158.169357,126.635538 158.360482,126.610571 158.587336,126.561498 C158.466806,126.382856 158.370383,126.239943 158.298065,126.132758 C157.712206,126.112096 157.369127,126.759511 156.675222,126.655769 C156.815553,126.093155 157.318333,126.221864 157.639888,126.004911 C157.770318,125.812924 157.649789,125.634283 157.481908,125.539581 C157.170254,125.385906 157.015718,125.542164 156.813831,125.782362 C156.681679,125.663554 156.525421,125.509018 156.428998,125.366105 C156.73807,125.053589 156.73807,125.053589 156.918433,125.243853 C157.121181,125.159052 156.940817,124.968788 157.155188,124.824153 C157.441015,124.631305 157.404425,124.500014 157.104393,124.286505 C157.020453,124.239154 156.936513,124.191804 156.828467,124.108724 C156.994625,123.892632 157.149161,123.736374 157.326942,123.460448 C156.919725,123.319257 156.548236,123.153959 156.200853,123.02439 C156.459991,122.329624 156.459991,122.329624 156.939526,122.578001 C156.926182,122.327041 156.948566,122.051976 156.946844,121.741182 C156.684262,121.81436 156.445786,121.923267 156.218932,121.97234 C155.846582,121.651646 155.689464,121.341713 155.818172,120.838933 C155.923635,120.455822 155.933536,120.085194 155.979165,119.69046 C155.966681,119.594897 156.061383,119.427017 156.144462,119.318971 C156.060522,119.27162 155.976582,119.224269 155.892642,119.176918 C155.713139,119.142051 155.556881,118.987515 155.711417,118.831257 C155.777647,118.764289 155.793354,118.69321 155.79622,118.625339 L155.795991,118.496042 C155.79765,118.455815 155.804766,118.419182 155.828503,118.388311 C155.923205,118.220431 156.006284,118.112385 156.041151,117.932882 C155.969695,117.981094 155.910721,118.124868 155.815159,118.137352 C155.683868,118.173941 155.551716,118.055134 155.444531,118.127451 C155.170326,118.260464 154.859532,118.262186 154.453176,118.276391 C154.512149,118.132617 154.535394,118.012948 154.606851,117.964736 C154.785493,117.844207 154.999863,117.699572 154.962413,117.412884 C154.842744,117.389639 154.734698,117.30656 154.566818,117.211858 C154.580347,117.187875 154.595826,117.163637 154.612315,117.139324 L154.715855,116.993979 C154.782936,116.898394 154.836103,116.807346 154.815195,116.732323 C154.7545,116.565304 154.669699,116.362556 154.644732,116.171431 L154.653375,116.079487 C154.655655,115.985337 154.646131,115.884528 154.690361,115.776697 C154.713606,115.657028 154.760957,115.573088 154.808307,115.489148 C154.676155,115.37034 154.544004,115.251533 154.387746,115.096997 C154.410991,114.977328 154.41013,114.821932 154.409269,114.666535 C154.528937,114.68978 154.564666,114.665674 154.588772,114.701402 C154.672712,114.748753 154.673573,114.90415 154.793241,114.927395 C154.937016,114.986368 155.092412,114.985507 155.247809,114.984646 C155.247809,114.984646 155.306783,114.840872 155.306783,114.840872 C155.198737,114.757793 155.114796,114.710442 155.030856,114.663091 C154.779036,114.521038 154.58705,114.390608 154.680891,114.067331 C154.716619,114.043225 154.704135,113.947663 154.68003,113.911934 C154.240456,113.684256 154.332231,113.272829 154.219943,112.893505 L154.195471,112.824159 L154.034559,112.801134 C153.978296,112.794805 153.922926,112.789799 153.866663,112.78347 L153.69341,112.757865 C153.453212,112.555978 153.380034,112.293396 153.557815,112.01747 C153.605165,111.93353 153.71235,111.861212 153.736456,111.89694 C154.059733,111.990781 154.249137,111.655021 154.608142,111.724756 C154.592969,111.683001 154.583041,111.644205 154.575737,111.60689 L154.542403,111.388914 L154.509997,111.271048 C154.747612,111.006745 155.069167,110.789792 155.150525,110.370952 C155.209498,110.227177 155.460458,110.213833 155.580987,110.392475 Z M147.601501,138.741181 L147.579471,138.762159 L147.591427,138.781001 C147.657272,138.897831 147.702284,139.025222 147.883227,139.032943 L147.969553,139.028546 C147.95707,138.932984 147.980315,138.813315 147.932103,138.741858 C147.81883,138.640023 147.70619,138.652357 147.601501,138.741181 Z M159.953192,133.594821 C159.882596,133.79843 159.752166,133.990416 159.645842,134.21813 C160.208456,134.358461 160.236006,135.015777 160.644084,135.312365 C160.811104,135.25167 160.774514,135.120379 160.762031,135.024817 C160.711236,134.487169 160.457694,134.034323 160.132695,133.629689 C160.108589,133.59396 160.013027,133.606444 159.953192,133.594821 Z M169.181012,101.11257 C169.455216,100.979557 169.646341,100.95459 169.969619,101.048431 C169.756109,101.348463 169.602434,101.660118 169.424653,101.936044 C169.593395,102.186142 169.679057,102.544287 170.133625,102.601538 C170.229187,102.589055 170.326472,102.887365 170.458624,103.006173 C170.221009,103.270477 169.945943,103.248093 169.646772,103.18998 C169.647633,103.345377 169.660116,103.44094 169.660977,103.596337 C169.92442,103.678555 170.163757,103.725045 170.4272,103.807263 C170.379849,103.891203 170.38071,104.0466 170.320876,104.034978 C170.213691,104.107295 170.058294,104.108156 169.902897,104.109017 C169.460812,104.147328 169.416044,104.697459 169.082005,104.81885 C168.783695,104.916134 168.413067,104.906233 168.24777,105.277722 C168.188796,105.421497 168.010154,105.542026 167.902969,105.614344 C167.581414,105.831297 167.295587,106.024144 166.974032,106.241097 C166.664099,106.398216 166.402378,106.626791 166.104067,106.724076 C165.758406,106.9053 165.496685,107.133876 165.223342,107.422285 C164.949998,107.710695 164.676655,107.999105 164.233709,107.882019 C164.031822,108.122217 163.88977,108.374037 163.711128,108.494567 C163.544108,108.555262 163.280666,108.473044 163.065434,108.462282 C163.318977,108.915128 163.584141,109.30814 163.813578,109.725258 C163.958213,109.939629 163.971557,110.190588 164.02063,110.417442 C163.615996,110.742441 163.615996,110.742441 163.749008,111.016645 C163.916028,110.95595 164.058941,110.859526 164.261689,110.774725 C164.285795,110.810454 164.405463,110.833699 164.369735,110.857805 C164.431291,111.180221 164.671489,111.382108 164.959038,111.500054 C164.864336,111.667935 164.805363,111.811709 164.710661,111.979589 C165.275858,112.586111 165.281024,113.518492 165.954267,114.208092 C165.703307,114.221437 165.572016,114.258026 165.440725,114.294615 C165.493242,115.143056 166.295193,115.329877 166.763966,115.793485 C167.085521,115.576532 166.70241,115.471069 166.784628,115.207626 C166.915919,115.171036 167.082939,115.110341 167.321415,115.001434 C167.450984,114.654051 167.700222,114.329913 168.117339,114.100477 C168.355816,113.99157 168.533596,113.715644 168.723861,113.53528 C168.831046,113.462962 168.865913,113.283459 168.925748,113.295082 C169.666143,113.159486 169.901175,112.428992 170.35316,112.020053 C170.614881,111.791477 170.852497,111.527173 171.282959,111.548697 C171.558024,111.571081 171.831368,111.282671 172.129678,111.185386 C172.487823,111.099724 172.605769,110.812176 172.843385,110.547872 C172.951431,110.630951 173.071099,110.654196 173.238979,110.748898 C173.357787,110.616746 173.476595,110.484594 173.571296,110.316714 C173.546329,110.125588 173.258781,110.007642 173.55623,109.75496 L174.274241,109.89443 C174.227751,110.133767 174.024143,110.063171 173.941063,110.171217 C173.989275,110.242674 174.061593,110.349859 174.109805,110.421316 C174.265201,110.420455 174.396492,110.383866 174.563512,110.32317 C174.611724,110.394627 174.659935,110.466084 174.648313,110.525918 C174.67328,110.717043 174.698246,110.908169 174.495499,110.99297 C173.94709,111.258995 173.889838,111.713564 173.952255,112.191377 C173.715501,112.611077 173.250171,112.769057 173.097357,113.236109 C173.050006,113.320049 172.918715,113.356638 172.81153,113.428956 C172.644511,113.489651 172.489114,113.490512 172.297989,113.515479 C171.975573,113.577035 171.809414,113.793127 171.727196,114.05657 C171.607527,114.033325 171.487859,114.01008 171.403919,113.962729 C171.046635,114.203788 170.80902,114.468092 170.823225,114.874448 C170.465942,115.115507 169.940778,115.261864 169.920115,115.847723 C169.454786,116.005703 168.96535,116.127954 168.535749,116.261828 C168.16426,116.09653 168.057936,116.324245 167.915883,116.576065 C167.73638,116.541198 167.545255,116.566165 167.365752,116.531297 C167.318402,116.615237 167.306779,116.675072 167.306779,116.675072 C167.439792,116.949276 167.429891,117.319904 167.741546,117.473579 C167.849592,117.556658 167.492308,117.797717 167.803963,117.951392 C167.947737,118.010365 168.020916,118.272947 168.117339,118.415861 C168.141445,118.451589 168.189657,118.523046 168.178035,118.58288 C168.191379,118.83384 168.180617,119.049071 168.158233,119.324136 C167.967969,119.5045 167.607242,119.123971 167.370487,119.543672 C167.598202,119.649996 167.861645,119.732215 168.064393,119.647413 C168.362703,119.550129 168.483232,119.728771 168.675219,119.859201 C168.661013,119.884383 168.648005,119.909797 168.635606,119.935268 L168.56384,120.087362 C168.477701,120.262307 168.363951,120.422762 168.021346,120.508338 C168.404458,120.613801 168.572338,120.708503 168.822437,120.539762 C168.905516,120.431716 169.025184,120.454961 169.144853,120.478206 C169.180581,120.4541 169.193065,120.549662 169.217171,120.585391 C169.217171,120.585391 169.205548,120.645225 169.205548,120.645225 C169.074257,120.681814 168.978694,120.694298 168.811675,120.754993 C169.041111,121.172111 169.258064,121.493666 169.534852,121.826844 C169.919685,122.243101 169.919685,122.243101 169.910645,122.769126 C169.970479,122.780748 170.030314,122.792371 170.114254,122.839722 C170.209816,122.827238 170.269651,122.838861 170.425048,122.838 C170.320359,122.92943 170.23282,123.009289 170.150998,123.085292 L169.911248,123.309442 L169.782798,123.427303 C169.963162,123.617567 170.083691,123.796209 170.239949,123.950745 C170.478425,123.841838 170.681173,123.757037 170.859815,123.636507 C170.943755,123.683858 171.003589,123.695481 171.027695,123.731209 C171.221403,124.172433 171.449978,124.434154 171.952758,124.562862 C172.33587,124.668325 172.612657,125.001503 172.483949,125.504283 C172.413353,125.707892 172.48567,125.815077 172.784842,125.873189 C173.059907,125.895573 173.324211,126.133188 173.551925,126.239512 C173.647857,126.293628 173.709071,126.422099 173.76424,126.566774 L173.846045,126.788672 L173.890269,126.895106 C173.878646,126.954941 173.771461,127.027258 173.688382,127.135304 C173.867885,127.170172 173.987553,127.193417 174.14295,127.192556 L174.107222,127.216662 C174.275102,127.311363 174.442982,127.406065 174.621624,127.285536 C174.669836,127.356992 174.753776,127.404343 174.801988,127.4758 L174.94404,127.22398 C174.955663,127.164145 174.931557,127.128417 174.907451,127.092689 L174.920471,127.114159 L174.960581,127.112926 C175.070413,127.118738 175.146828,127.166352 175.203856,127.230897 L175.243212,127.282092 C175.279801,127.413383 175.280662,127.56878 175.460165,127.603647 C175.663773,127.674243 175.544966,127.806395 175.497615,127.890335 C175.378807,128.022487 175.271622,128.094805 175.13947,127.975997 C175.007318,127.85719 174.910895,127.714276 174.696525,127.858911 C174.721491,128.050037 174.985795,128.287652 174.66424,128.504605 C174.688346,128.540333 174.749041,128.707353 174.832981,128.754703 C174.881193,128.82616 175.03659,128.825299 175.048212,128.765465 C175.178642,128.573479 175.237616,128.429704 175.501059,128.511923 C175.680561,128.54679 175.810991,128.354804 175.786025,128.163679 C175.796786,127.948448 175.903971,127.87613 176.070991,127.815435 C176.524698,127.717289 176.810525,127.524442 176.604333,126.987656 C176.556122,126.916199 176.710658,126.759941 176.769631,126.616167 C176.877677,126.699246 176.961617,126.746597 177.129497,126.841299 C177.164365,126.661796 177.163504,126.506399 177.162643,126.351002 C177.258206,126.338519 177.437708,126.373386 177.449331,126.313552 C177.579761,126.121566 177.853965,125.988553 177.876349,125.713488 C177.874627,125.402694 178.10062,125.198224 178.303368,125.113423 C178.792803,124.991172 179.137604,124.65455 179.434192,124.246472 C179.481543,124.162532 179.588728,124.090214 179.636079,124.006274 L179.668364,123.360581 C179.788032,123.383826 179.859489,123.335614 179.883595,123.371342 C180.147038,123.453561 180.398858,123.595613 180.662301,123.677832 C180.650392,123.685867 180.641161,123.697872 180.632822,123.7112 L180.628471,123.718159 L180.640092,123.71475 L180.686407,123.71356 C181.175843,123.591309 181.725112,123.48068 182.02084,122.917205 C182.15127,122.725219 182.270939,122.748464 182.654911,123.009324 C182.703984,123.236177 182.597659,123.463892 182.406534,123.488859 C181.964449,123.52717 181.882231,123.790613 181.776768,124.173724 C181.967893,124.148757 182.134912,124.088062 182.290309,124.087201 C182.578719,124.360545 182.425044,124.672199 182.343687,125.091039 C181.912363,124.914119 181.540875,124.748822 180.930049,124.537034 C181.194352,124.774649 181.302398,124.857729 181.398822,125.000642 C181.472861,125.418621 181.187035,125.611468 180.804784,125.661402 C180.769917,125.840904 180.770778,125.996301 180.784122,126.247261 C181.03422,126.07852 181.248591,125.933884 181.451338,125.849083 C181.619219,125.943785 181.595974,126.063453 181.488789,126.135771 C181.143127,126.316996 181.050148,126.79567 180.583957,126.798252 C180.548229,126.822358 180.500878,126.906299 180.489255,126.966133 C180.264123,127.325999 180.014025,127.49474 179.582702,127.31782 C179.223696,127.248086 178.949492,127.381098 179.023531,127.799077 C178.797539,128.003547 178.655486,128.255367 178.728665,128.517949 C178.478566,128.68669 178.264196,128.831326 178.049826,128.975961 C178.230189,129.166225 178.039925,129.346589 178.029163,129.56182 L178.033471,129.525159 L177.969329,129.550198 L178.020471,129.575159 L177.745058,130.065461 C177.592998,130.129062 177.454496,130.21276 177.304312,130.311652 L177.149299,130.415427 C176.910822,130.524334 176.672346,130.633241 176.398142,130.766254 C176.47046,130.873439 176.566883,131.016352 176.639201,131.123537 C176.735624,131.266451 176.832048,131.409364 176.928471,131.552278 C176.642644,131.745125 176.474764,131.650423 176.294401,131.460159 C176.222083,131.352974 176.114037,131.269894 175.923773,131.450258 C175.984468,131.617277 176.069269,131.820025 176.15407,132.022773 C176.142447,132.082607 176.130825,132.142441 176.095096,132.166547 C175.916455,132.287077 175.677979,132.395984 175.510959,132.456679 C175.26,132.470023 175.257417,132.003833 174.911756,132.185057 C174.960828,132.411911 174.974173,132.66287 174.975895,132.973664 C174.784769,132.998631 174.593644,133.023598 174.366791,133.07267 C174.343546,133.192339 174.27295,133.395948 174.238082,133.57545 C173.963878,133.708463 173.161927,133.521642 173.172688,133.306411 C173.157622,132.744658 172.715537,132.782969 172.439611,132.605188 C172.355671,132.557837 172.236002,132.534593 172.187791,132.463136 C172.044016,132.404162 172.019049,132.213037 172.137857,132.080885 C172.245042,132.008568 172.352227,131.93625 172.435306,131.828204 C172.506763,131.779992 172.554114,131.696052 172.601465,131.612112 C172.637193,131.588006 172.648816,131.528172 172.660438,131.468338 C172.50418,131.313802 172.266565,131.578105 172.12193,131.363735 C172.061235,131.196716 171.940705,131.018074 171.96395,130.898405 C172.033685,130.5394 171.877427,130.384864 171.637229,130.182977 C171.372926,129.945362 171.168456,129.719369 171.154251,129.313013 C171.140045,128.906657 170.815907,128.657419 170.515875,128.44391 C170.407829,128.36083 170.239949,128.266129 170.227465,128.170566 C170.212399,127.608813 169.851672,127.228284 169.550779,126.859378 C169.10525,126.276102 168.612371,125.776766 168.345484,125.07296 C168.260683,124.870212 168.104426,124.715676 167.983896,124.537034 C167.935684,124.465578 167.79191,124.406604 167.803532,124.34677 C167.884029,123.772533 167.273203,123.560746 167.175058,123.107039 C167.150091,122.915913 166.994694,122.916774 166.839297,122.917635 C166.575854,122.835417 166.539265,122.704126 166.681317,122.452306 C166.764397,122.344259 166.90731,122.247836 166.990389,122.13979 C166.942177,122.068333 166.918072,122.032605 166.858237,122.020982 C166.666251,121.890552 166.40453,122.119128 166.271517,121.844923 C166.114399,121.53499 165.635725,121.442011 165.633142,120.97582 C165.691254,120.676649 165.272414,120.595291 165.342149,120.236286 C165.364533,119.96122 165.100229,119.723605 164.955594,119.509235 C164.859171,119.366322 164.822581,119.235031 164.82172,119.079634 C164.856588,118.900131 164.844104,118.804568 164.652118,118.674138 C164.460132,118.543708 164.375331,118.34096 164.469172,118.017683 C164.646092,117.58636 164.30947,117.24156 163.961226,116.956594 C163.85318,116.873515 163.709406,116.814541 163.60136,116.731462 C163.767518,116.51537 163.933677,116.299278 164.064107,116.107292 C163.941856,115.617856 163.941856,115.617856 163.557883,115.356996 C163.508811,115.130143 163.831227,115.068586 163.72232,114.83011 C163.625035,114.5318 163.541095,114.484449 163.1356,114.654051 C163.074905,114.487032 163.109772,114.307529 163.049077,114.14051 C162.928547,113.961868 163.083083,113.80561 163.082222,113.650213 C163.081362,113.494816 163.044772,113.363525 163.008183,113.232234 C162.910898,112.933924 162.551032,112.708792 162.752058,112.313197 C162.379708,111.992503 162.436099,111.382538 161.920835,111.158267 C162.039643,111.026115 162.1111,110.977904 162.194179,110.869858 C162.086133,110.786778 161.978087,110.703699 161.845935,110.584892 C161.86918,110.465223 161.928153,110.321449 161.975504,110.237508 C161.927292,110.166052 161.938915,110.106218 161.87908,110.094595 C161.436135,109.977509 161.386201,109.595259 161.336268,109.213008 C161.322923,108.962049 161.393519,108.75844 161.094348,108.700328 C161.034513,108.688705 160.962196,108.58152 160.913984,108.510063 C160.840805,108.247481 160.743521,107.949171 160.646237,107.650861 C160.799912,107.339206 160.641932,106.873876 161.046566,106.548877 C161.345738,106.60699 161.669015,106.700831 161.932458,106.783049 C162.197622,107.176061 162.438681,107.533345 162.703846,107.926357 C163.120103,107.541523 163.28454,107.014638 163.557022,106.570831 C163.484705,106.463646 163.436493,106.392189 163.412387,106.356461 C163.255268,106.046528 163.255268,106.046528 163.516989,105.817952 C163.850167,105.541165 163.850167,105.541165 164.172583,105.479609 C164.1601,105.384047 164.111888,105.31259 164.123511,105.252756 C164.08606,104.966068 164.192385,104.738353 164.479072,104.700903 C164.610363,104.664314 164.754138,104.723287 164.93278,104.602758 C165.004236,104.554546 165.183739,104.589413 165.31503,104.552824 C165.32407,104.026799 165.335692,103.966965 165.644764,103.654449 C165.787678,103.558026 165.870757,103.44998 165.977942,103.377662 C166.156584,103.257133 166.299497,103.160709 166.442411,103.064285 C166.621914,103.099153 166.765688,103.158126 166.885356,103.181371 C166.844463,102.273096 166.880191,102.24899 167.739394,101.981242 C167.930519,101.956276 168.133267,101.871475 168.395849,101.798296 C168.394988,101.642899 168.394127,101.487502 168.428994,101.307999 C168.691576,101.234821 168.966641,101.257205 169.181012,101.11257 Z M158.769852,133.613331 C159.115513,133.432106 159.31826,133.347305 159.521008,133.262504 L159.520578,133.184806 L159.52037,133.147395 L159.520147,133.107107 C159.292433,133.000783 159.018228,133.133796 158.769852,133.613331 Z M158.397932,131.212643 C158.315714,131.476086 158.233496,131.739529 157.983397,131.90827 L157.958471,131.875159 L157.954779,132.097036 C157.954763,132.174072 157.95564,132.252432 157.955624,132.329469 L157.951112,132.553963 C158.118993,132.648665 158.251145,132.767473 158.419025,132.862174 C158.633395,132.717539 158.703991,132.51393 158.61919,132.311183 C158.58174,132.024495 158.663958,131.761052 158.781904,131.473503 C158.817633,131.449397 158.769421,131.37794 158.745315,131.342212 C158.661375,131.294861 158.541707,131.271616 158.397932,131.212643 Z M177.247444,130.869134 C177.605589,130.783472 177.713635,130.866551 177.992144,131.510523 C177.836747,131.511384 177.717078,131.488139 177.585787,131.524728 C177.47688,131.286252 177.356351,131.10761 177.247444,130.869134 Z M159.27091,129.115861 C159.139619,129.152451 159.033294,129.380165 159.14134,129.463244 C159.165446,129.498973 159.261009,129.486489 159.369055,129.569569 C159.404439,129.483304 159.426961,129.405717 159.441827,129.344526 L159.462896,129.246291 C159.43879,129.210563 159.330744,129.127484 159.27091,129.115861 Z M158.208529,127.233019 C158.208529,127.233019 158.1728,127.257125 158.137072,127.281231 C158.101344,127.305337 158.089721,127.365171 158.078099,127.425006 C158.1629,127.627753 158.236078,127.890335 158.499521,127.972554 C158.557634,127.673382 158.569256,127.613548 158.472833,127.470635 C158.400515,127.363449 158.316575,127.316099 158.208529,127.233019 Z M174.465129,126.767363 L174.535101,126.771994 C174.750332,126.782756 174.858378,126.865835 174.871723,127.116795 L174.801589,127.164114 C174.732779,127.21054 174.669262,127.253395 174.621624,127.285536 C174.428777,126.999709 174.428777,126.999709 174.107222,127.216662 L174.14295,127.192556 C174.154573,127.132722 174.201923,127.048782 174.213546,126.988947 L174.282227,126.892586 C174.340163,126.813327 174.406885,126.747089 174.535101,126.771994 Z M156.747109,124.527564 C156.723864,124.647233 156.700619,124.766901 156.688997,124.826735 C156.581812,124.899053 156.354097,124.792729 156.377342,124.67306 C156.329131,124.601604 156.41221,124.493558 156.447938,124.469452 C156.543501,124.456968 156.627441,124.504319 156.747109,124.527564 Z M155.679133,119.47695 C155.584431,119.644831 155.525457,119.788605 155.454001,119.836817 C155.346816,119.909135 155.167313,119.874267 155.059267,119.791188 C154.975327,119.743837 155.117379,119.492017 155.284399,119.431321 C155.379961,119.418838 155.49963,119.442083 155.679133,119.47695 Z M155.391153,117.123613 C155.355425,117.147719 155.343802,117.207553 155.308074,117.231659 C155.440226,117.350467 155.572378,117.469274 155.70453,117.588082 C155.728636,117.62381 155.895655,117.563115 155.931383,117.539009 C155.967112,117.514903 155.942145,117.323778 155.906417,117.347884 C155.738536,117.253182 155.534928,117.182587 155.391153,117.123613 Z M154.098906,112.588263 C154.107228,112.651971 154.131429,112.704966 154.160924,112.754389 L154.183471,112.790159 L154.301478,112.71155 C154.343823,112.682981 154.388814,112.652625 154.435128,112.621377 L154.576719,112.525846 C154.468673,112.442767 154.384733,112.395416 154.324898,112.383793 C154.109667,112.373032 154.03821,112.421244 154.098906,112.588263 Z M167.488004,104.07458 C167.452275,104.098686 167.380819,104.146898 167.380819,104.146898 C167.381679,104.302295 167.38254,104.457692 167.454858,104.564877 C167.527176,104.672062 167.682573,104.671201 167.80138,104.539049 C167.764791,104.407758 167.704096,104.240739 167.631778,104.133554 C167.607672,104.097825 167.547838,104.086203 167.488004,104.07458 Z" id="Combined-Shape" fill="#B90A03" transform="translate(141.856541, 136.515567) scale(-1, 1) rotate(68.000000) translate(-141.856541, -136.515567) "></path>
            <path d="M133.601712,33.1958988 C133.601712,33.1958988 127.851712,25.5858988 121.901712,30.0058988 C115.951712,34.4258988 119.651712,44.5558988 124.711712,49.1958988 C129.771712,53.8358988 138.711712,57.6658988 138.711712,57.6658988 C138.711712,57.6658988 149.711712,48.4058988 149.711712,35.6658988 C149.711712,22.9258988 138.411712,24.9758988 133.601712,33.1958988 Z" id="Path" fill="#B90A03"></path>
            <path d="M20.3817124,97.6658988 C20.3817124,97.6658988 15.5417124,89.4558988 21.8917124,85.6658988 C28.2417124,81.8758988 36.2017124,89.1358988 38.5617124,95.5758988 C40.9217124,102.015899 41.0417124,111.785899 41.0417124,111.785899 C41.0417124,111.785899 28.2817124,118.445899 16.4917124,113.565899 C4.70171238,108.685899 10.9417124,98.9658988 20.3817124,97.6658988 Z" id="Path" fill="#FD9393"></path>
            <path d="M56.7617124,20.0858988 C56.7617124,20.0858988 48.7617124,14.9258988 44.6817124,21.0858988 C40.6017124,27.2458988 47.5917124,35.5158988 53.9417124,38.0858988 C60.2917124,40.6558988 70.0317124,41.2058988 70.0317124,41.2058988 C70.0317124,41.2058988 77.1917124,28.7058988 72.7717124,16.7458988 C68.3517124,4.78589878 58.4617124,10.6658988 56.7617124,20.0858988 Z" id="Path" fill="#F74B55"></path>
        </g>
    </g>
</svg>