<svg width="361" height="282" xmlns="http://www.w3.org/2000/svg"><g fill="none" fill-rule="evenodd"><path d="M179.566 3.6c2.262-.157 4.724.095 7.339 1.177 3.061 1.266 5.668 3.5 7.327 6.662l.187.369.134.276a15.418 15.418 0 0 1 1.287 4.324l.06.444c.21 1.654.293 3.475.262 5.373l-.024 1.069-.014.501a93.385 93.385 0 0 1-.419 6.175l-.096.93.034.072c1.94 4.003 3.827 6.143 5.81 7.235l.181.097.275.136c1.713.818 3.733 1.149 8.505 1.398l2.456.12c10.351.533 15.946 1.65 23.315 5.787 20.515 11.546 34.879 39.21 36.562 64.742a60.284 60.284 0 0 0 3.04 15.222l.321.927 17.681-4.5-.073-.281c-1.35-5.328-.704-10.906 2.25-16.17l.232-.404c5.009-8.562 11.447-13.384 20.032-13.495 6.852-.09 13.745 2.829 23.048 8.875l.55.36c11.222 7.366 16.763 12.232 18.906 16.205l.19.365.063.131c.158.328.3.66.425 1l.073.202.064.189c.137.418.187.613.331 1.28a10 10 0 0 1 .157 1.216l.023.432a10.11 10.11 0 0 1-.39 3.025l-.14.449-.075.223a109.315 109.315 0 0 1-2.672 7.05c-1.753 4.219-3.752 8.394-6.004 12.348-6.907 12.123-14.928 20.351-25.33 22.456-12.681 2.561-21.932-4.601-24.925-16.133a33.211 33.211 0 0 1-.93-5.563l-.026-.343-16.832 4.288-4.891 9.84a4.148 4.148 0 0 0-.136.3c-.351.876-.35 1.983.23 4.136l.083.3c.36 1.281.876 2.757 1.705 4.905l2.054 5.237c.344.886.646 1.677.946 2.48 2.309 6.186 3.928 11.699 5.045 17.858 1.707 9.474.073 20.28-4.119 32.7-2.1 6.222-4.78 12.664-8.133 19.819l-.848 1.791a802.372 802.372 0 0 1-4.004 8.151l-5.378 10.843c-.051.107-.095.198-.128.27-.738 1.571-.922 3.855-.421 6.867.558 3.362 1.893 7.206 3.907 11.57a110.758 110.758 0 0 0 1.696 3.498l.619 1.214c.48.936 1.235 2.402 1.446 2.82l.472.947c.477.978.807 1.733 1.086 2.525.469 1.328.746 2.542.707 4.186-.117 4.854-3.608 9.52-9.375 9.96-9.703.778-19.432-7.843-29.75-27.95-3.33-6.47-4.77-13.331-4.624-20.69l.007-.285-5.042-1.767L72.693 207.63 65.18 222.22a10 10 0 0 1-5.846 4.947l-.305.092-37.15 10.58c-8.04 2.29-15.174-5.712-11.98-13.438l8.774-21.227-10.51-6.686c-6.91-4.396-5.877-14.738 1.664-17.726l.262-.1 35.26-12.92a10 10 0 0 1 10.028 1.865l11.153 9.765 95.288-143.644.001-.503c.065-6.473 2.01-12.625 5.201-18.33l.277-.487a46.812 46.812 0 0 1 3.624-5.408c.36-.462.704-.886 1.03-1.27l.24-.282c.267-.309.486-.55.649-.723a10 10 0 0 1 6.02-3.056c.207-.026.442-.049.706-.067Zm57.741 157.813L107.881 194.38l128.022 44.915.49-1.394a316.267 316.267 0 0 1 2.586-6.956l1.908-4.98c2.327-6.106 3.48-9.366 4.286-12.31l.115-.426c.224-.848.423-1.68.616-2.558 2.13-9.684 2.015-15.737.067-22.56l-.2-.68c-.479-1.601-1.074-3.332-1.9-5.558l-3.306-8.703c-.215-.57-.4-1.067-.538-1.44-1.256-3.41-2.119-6.63-2.617-9.656l-.103-.66ZM173.683 59.515 99.338 171.622l134.199-34.15-.062-.45c-.55-4.18-.336-8.8.54-13.745l.1-.55c1.535-8.32-.973-19.099-5.894-24.405-1.12-1.214-4.207-3.447-9.543-6.843l-10.992-6.855-5.481-3.448a347.7 347.7 0 0 1-3.652-2.336c-10.574-6.897-18.63-12.994-24.723-19.174l-.147-.15Z" fill="#FFF" fill-rule="nonzero"/><path d="m252.14 259.97-22.94-8.04-173.54-60.87.69-4.16 170.68 59.88 21.81 7.65c1 1.25 1.91 2.54 2.57 3.69.38.66.63 1.27.73 1.85ZM185.98 18.12c.17 1.33.22 2.9.17 4.51l-12.77 19.25-99.97 150.75-3.07-2.91L172 36.47l13.44-20.26c.27.53.45 1.16.54 1.91Z" fill="#70111D"/><path d="M262.77 111.16c1.36 20.16 11.3 33.65 11.3 33.65l-5.18 10.42c-5.18 10.42 5.24 20.47 9.04 41.44 3.78 20.98-14.85 52.73-21.82 67.55-6.96 14.82 10.49 37.71 8.39 37.87-2.12.17-9.13-1.26-20.06-22.56-10.95-21.27 6.73-46.21 11.23-66.71 4.51-20.5-.22-28.13-6.26-44.55-6.05-16.41.76-21.96.76-21.96-6.52-3.22-8.16-11.35-6.22-21.77 1.92-10.41-.71-24.73-8.38-33-7.65-8.29-42.33-24.31-57.49-42.01-2.2-2.57-3.7-5.12-4.7-7.65-.71-1.83-1.17-3.64-1.38-5.41-1.58-12.62 8.11-22.88 8.11-22.88s3.81-.48 5.33 2.62c.27.53.45 1.16.54 1.91.17 1.33.22 2.9.17 4.51-.08 4.75-.8 9.82-.8 9.82 11.12 26.65 27.19 11.49 45.93 22.01 18.71 10.53 30.16 36.53 31.49 56.7Z" fill="#CF110D"/><path fill="#991F28" d="M321.53 129.64 63.96 195.25l-.33-4.22 256.9-65.38z"/><path d="M350.06 122.28v.02c-.31.94-10.58 32.25-26.59 35.49-16.24 3.28-16.07-20.34-10.89-26.72.01-.01.01-.01.02-.01 0 0-14.5-9.24-7.77-20.73 6.71-11.47 14.2-11 29.51-.95 15.31 10.05 15.72 12.9 15.72 12.9Z" fill="#FF354F"/><path fill="#FE786C" d="m68.11 194.69-11.82 22.95-37.15 10.58 11.98-28.98-17.59-11.19 35.26-12.92 17.69 15.49z"/><path stroke="#FFF" stroke-width="1.98" stroke-linecap="round" stroke-linejoin="round" d="M41.56 196.21 24.58 183.8M38.72 178.95l14.33 12.69M34.76 223.21l7.03-19.96M49.9 218.02l4.44-19.49"/><path d="M214.91 56.03c9.03-.02 15.76 2.92 21.84 7.17s16.7 17.11 12.69 24.75c-4 7.64-5.34-5.32-14.23-16.29-8.88-10.98-13.22-7.61-22.99-9.8-9.77-2.2-17.17-9.56-17.17-9.56.31-6.4 10.84 3.75 19.86 3.73ZM272.61 215.65c-1.29 10.84-9.64 21.85-12.35 19.47-2.71-2.37 4.57-11.66 6.76-20.6 2.2-8.95-.27-14.69-2.09-20.1-1.82-5.41 3.85-4.85 3.85-4.85 1.97.98 5.12 15.25 3.83 26.08Z" fill="#F26B6B"/><path d="M350.06 122.28v.02c-.31.94-10.58 32.25-26.59 35.49-16.24 3.28-16.07-20.34-10.89-26.72.01-.01.01-.01.02-.01l37.46-8.78Z" fill="#E21E3F"/></g></svg>