<svg width="393" height="315" xmlns="http://www.w3.org/2000/svg"><g fill="none" fill-rule="evenodd"><path d="M344.876 4c8.515 2.768 18.423 7.628 25.98 12.934 4.511 3.166 8.197 6.473 10.86 9.95l.268.356c1.592 2.14 2.818 4.37 3.592 6.673l.073.224.107.073c5.314 3.7 5.8 11.714.528 15.961l-.267.21-.088.076c-.147.127-.318.284-.51.47l-.347.343c-3.334 3.365-6.74 8.703-9.361 16.34l-.38 1.139-3.545 10.84-1.147 3.437c-3.776 10.979-7.293 18.04-13.16 25.21l-.348.417a31.404 31.404 0 0 1-6.188 5.603l-.183.123.21.34c3.66 6.02 5.426 12.44 4.42 19.147l-.253 1.65c-1.401 8.945-2.785 14.2-4.012 16.918a10 10 0 0 1-1.722 2.619l-.287.301c-4.981 5.052-13.46 3.442-16.278-3.005l-.514-1.235-.569-1.333c-.345-.798-.721-1.652-1.126-2.553-1.598-3.55-3.332-7.128-5.131-10.492-2.226-4.16-4.39-7.683-6.36-10.28l-.242-.317c-.712-.918-1.37-1.674-1.946-2.25l-.248-.241-5.646 9.896a7045.91 7045.91 0 0 0-12.041 21.229l-5.065 8.986-4.906 8.746-4.778 8.57c-7.098 12.78-12.286 22.364-15.05 27.859l-.712 1.435a54.09 54.09 0 0 0-.835 1.78l-.359.829c-.74 1.734-1.906 4.602-3.464 8.51l-1.332 3.352.057-.1c2.456-4.185 5.852-8.447 10.248-12.769 10.893-10.71 27.405-12.101 46.814-7.588l.607.143c13.006 3.098 27.722 9.326 31.825 13.157a10 10 0 0 1 2.251 11.506l-.359.753c-.119.244-.257.522-.414.833l-.248.49a114.71 114.71 0 0 1-2.712 4.987c-2.946 5.12-6.353 10.242-10.215 15.067-10.795 13.485-23.09 22.306-37.27 23.658l-.671.06c-6.92.59-13.174-.01-18.735-1.635l-.397-.119.336.192a38.892 38.892 0 0 1 5.773 4.107c3.123 2.667 5.982 5.941 8.542 9.837 4.436 6.748 6.263 14.794 6.056 23.701-.178 7.648-1.83 15.562-4.457 23.436a104.666 104.666 0 0 1-3.011 7.947l-.39.903a57.705 57.705 0 0 1-1.087 2.352 10 10 0 0 1-10.41 5.448c-4.869-.716-16.412-6.9-25.278-13.698l-.42-.324c-13.604-10.564-21.726-22.468-20.38-35.9 1.064-10.549 4.17-18.363 9.018-23.624l.342-.364.319-.328-3.131-7.46-6.656 17.262c-3.644 9.464-7.402 19.248-11.177 29.09l-12.202 31.87c-2.087 5.464-8.398 7.978-13.671 5.446l-10.12-4.86a10 10 0 0 1-5.07-12.43l.678-1.721 7.475-18.843a25538.438 25538.438 0 0 1 17.946-45.072l10.472-26.153c9.956-24.786 16.166-39.957 17.868-43.514l.253-.516.572-1.133c.271-.53.583-1.13.937-1.801l1.416-2.667-5.242-12.917-.34-.021c-6.495-.471-13.325-3.014-19.74-8.501-3.115-2.665-5.967-5.935-8.522-9.823-6.903-10.501-7.498-23.7-4.096-38.331 1.12-4.814 2.617-9.476 4.327-13.851a98.5 98.5 0 0 1 1.529-3.696l.48-1.074c.261-.573.477-1.027.637-1.354a10 10 0 0 1 10.69-5.427l.374.069c5.06 1.016 16.65 7.32 25.364 14.147l.456.359.92.738c11.988 9.75 19.272 20.62 18.82 32.747l-.022.495 7.6-13.602 3.353-5.992-.162-.333c-2.493-5.256-2.66-11.57.247-18.192l.091-.201-.06.004c-.917.062-1.743.191-2.458.394-3.044.862-5.346 1.783-6.998 2.684-.451.246-.81.467-1.085.658l-.205.147-.149.16c-5.738 5.964-16.128 2.622-17.09-5.836l-.028-.269c-.017-.216-.017-.216-.032-.48-.213-4.613 1.553-10 6.474-14.692l.306-.288c4.233-3.9 10.159-6.642 17.93-8.152l.299-.057-.006-.061c-.394-4.147-.012-8.42 1.043-12.706 1.588-6.451 4.737-12.756 8.098-16.951l.315-.387c3.698-4.465 8.328-14.677 10.093-23.876l.491-2.597c.64-3.44 1.084-6.074 1.362-7.99l.104-.739c.03-.224.056-.426.078-.607l.07-.62-.003.148a10 10 0 0 1 2.421-6.367l.24-.267.114-.123.21-.214.326-.318c3.553-3.357 8.778-5.345 15.106-4.592l.24.031.154-.086a29.56 29.56 0 0 1 5.231-2.206c6.436-2.03 13.767-2.019 21.683.549Z" fill="#FFF" fill-rule="nonzero"/><path d="m243.23 169.122 3.88.57s10.24-.8 12.31-21.34c2.06-20.54-33.7-38.47-37.58-39.03l6.05 43.11 15.34 16.69Z" fill="#86303D"/><path d="m257.56 194.422-35.72-85.1s-15.19 30.59-3.49 48.39 26.79 13.37 26.79 13.37l10.59 26.09 1.83-2.75Z" fill="#5B1D29"/><path d="M326.22 38.052s46.83 13.8 50 3.56c3.18-10.23-19.91-23.38-34.43-28.1-14.52-4.71-22.06 3.09-22.06 3.09l6.49 21.45Z" fill="#7F0505"/><path d="M342.23 36.042 327 110.372s14.4 1.71 22.74-8.47c8.34-10.19 10.82-20.41 16.27-36.82 5.45-16.41 13.99-22.69 13.99-22.69-28.52-12.64-37.77-6.35-37.77-6.35Z" fill="#9E0505"/><path d="M344.88 23.302c-2.16-.17-3.64-1.06-3.68-3.5-.04-2.44 10.76 1.01 15.69 4.07 4.93 3.05 10.39 8.26.45 6.27-9.94-2-17.88-5.98-20.76-6.84-2.87-.86-.59 2.31 2.73 4.42 3.31 2.1 23.22 8.19 26.73 5.2 3.5-2.99-9.82-11.62-15.99-13.54s-10.3-2.69-11.86-.16c-1.56 2.54 10.28 10.3 13.87 7.87 3.59-2.44-6.37-5.48-6.37-5.48s1.36 1.86-.81 1.69Z" fill="#540505"/><path d="M303.73 107.332s-49.19 87.45-54.05 97.57c-4.85 10.13-54.06 134.4-54.06 134.4l10.12 4.86s46.73-122.35 52.78-136.05c6.05-13.71 53.44-96.31 53.44-96.31l-8.23-4.47Z" fill="#5B1D29"/><path d="m299.9 252.002 45.34-27.01c-3.47-3.24-47.57-23.43-65.41-5.89-17.85 17.55-10.83 27.83-10.83 27.83l3.48 3.24 27.42 1.83Z" fill="#86303D"/><path d="m236.49 259.642 32.69-9.8s7.26 17.64 32.97 15.18c25.71-2.45 43.09-40.03 43.09-40.03l-107.55 30.83-1.2 3.82Z" fill="#5B1D29"/><path d="m264.71 281.502-3.88-.56s-10.24.8-12.31 21.34c-2.06 20.54 33.7 38.46 37.58 39.03l-6.05-43.11-15.34-16.7Z" fill="#86303D"/><path d="m250.38 256.212 35.72 85.1s15.19-30.6 3.49-48.4c-11.7-17.8-26.8-13.36-26.8-13.36l-10.58-26.09-2.65.62.82 2.13Z" fill="#5B1D29"/><path d="M290.86 92.692c-29.56.7-28.37 14.07-28.37 14.07s2.67-3.39 12.87-6.28c10.21-2.89 25.58 2.92 25.58 2.92s19.48-11.41-10.08-10.71Z" fill="#A34053"/><path d="M299.1 101.482s-4.02 1.88-8.89 11.31c-4.86 9.43 1.5 14.2 1.5 14.2s3.41-4.24 9.73-10.2c6.32-5.97 18.09-3.09 18.09-3.09 9.82 3.32 22.47 34.64 22.47 34.64s1.62-3.37 3.5-15.96c1.89-12.59-13.5-23.77-13.5-23.77-7.32 4.44-32.9-7.13-32.9-7.13Z" fill="#86303D"/><path d="M306.87 31.882c-2.31 12.04-8.12 23.43-12.22 28.38-4.11 4.95-11.8 20.29-3.79 32.43 8.01 12.14 33.13 21.07 41.14 15.92 8-5.16 23.77-21.46 24.46-38.77.69-17.31-14.71-37.84-28-48.36-13.29-10.52-19.31-3.73-19.31-3.73s.03 2.09-2.28 14.13Z" fill="#B90A03"/><path d="m24.745 27.033.5-.187c6.696-2.447 14.421-3.042 21.727-1.926l.412.065.197-.474c2.674-6.33 6.652-11.856 12.377-15.877 7.57-5.317 17.102-7.016 28.047-4.589 11.733 2.606 19.294 10.789 22.707 22.35l.195.683c.764 2.743 1.297 5.63 1.623 8.648l.022.207.056.004a9.962 9.962 0 0 1 7.247 3.974l.213.296.33.483c.12.18.253.38.395.599l.146.225c.517.802 1.06 1.687 1.618 2.644 1.557 2.678 2.976 5.502 4.141 8.417l.18.457c3.204 8.21 4.01 15.851.684 22.455l-.198.382.171.306c3.52 6.19 7.503 9.968 10.83 10.028 11.539.205 21.204 1.386 30.54 4.344 12.304 3.9 22.563 10.623 30.203 20.763l.414.556c2.824 3.837 7.625 11.357 14.102 22.014l3.72 6.153 2.049 3.43 3.263 5.505 1.627 2.763c1.429 2.429 2.861 4.874 4.299 7.338l1.398 2.401.205.345 2.367 4.101 2.41 4.155c1.41 2.452 2.796 4.878 4.178 7.31l4.806 8.464 4.905 8.72c2.7 4.828 5.412 9.736 8.124 14.697l3.633 6.68 2.88 5.339c14.598 27.185 22.303 43.525 22.718 50.146.685 11.212-9.687 23.557-27.863 37.593-16.05 12.396-37.116 24.842-58.235 34.231l-3.057 1.352c-6.425 2.83-11.61 5.037-16.33 6.936l-1.567.628c-15.78 6.278-26.844 9.215-36.62 9.24-11.833.032-21.501-4.37-30.003-13.477-4.838-5.194-12.305-17.498-22.116-35.844l-2.92-5.527-.082-.137c-.062-.11-.123-.222-.182-.335l-.153-.304-2.594-4.984-2.396-4.65-3.186-6.288c-.933-1.85-1.843-3.663-2.734-5.452l-2.221-4.492-.437-.9-1.224-2.451-.753-1.53-.148-.313-.103-.242-1.694-3.453a655.235 655.235 0 0 1-2.36-4.888l-.596-1.216-3.612-7.584-1.292-2.768-.871-1.845c-.294-.626-.592-1.262-.894-1.91l-2.862-6.14-2.816-6.142a804.316 804.316 0 0 1-3.315-7.352l-.787-1.775-.469-1.034a76.916 76.916 0 0 1-.313-.713l-.061-.148-2.618-5.952-1.22-2.81c-9.575-22.135-14.65-36.13-14.614-42.34.028-4.831 1.18-9.452 3.278-14.225l.28-.629c1.315-2.902 2.707-5.37 5.347-9.716l.99-1.629c4.55-7.533 5.906-10.755 5.833-14.128l-.024-.74c-.18-4.438-1.033-8.967-2.32-13.26l-.212-.693-.364.054c-3.065.415-5.725.293-8.189-.465-7.318-2.26-12.135-7.823-15.072-15.172-1.779-4.45-2.72-9.14-3.127-13.65l-.033-.377a37.042 37.042 0 0 1-.121-2.067l-.003-.307a9.989 9.989 0 0 1 1.916-5.817l.116-.155-.363-.338C11.347 76.054 6.645 68.17 5.624 59.134c-1.731-15.395 5.905-27.048 19.12-32.1Z" fill="#FFF" fill-rule="nonzero"/><path d="M55.881 217.546c.878 2.003 1.774 4.047 2.694 6.124v.014c.24.554.487 1.1.742 1.653a793.722 793.722 0 0 0 4.905 10.878c.648 1.406 1.298 2.825 1.947 4.245a843.666 843.666 0 0 0 1.956 4.187 606.523 606.523 0 0 0 2.663 5.694c.429.92.865 1.848 1.293 2.769.477.987.947 1.982 1.418 2.978.728 1.512 1.443 3.025 2.165 4.545.198.401.389.796.587 1.197a747.086 747.086 0 0 0 4.172 8.579c.027.062.055.137.083.213a416.245 416.245 0 0 0 1.955 3.939c.45.925.9 1.851 1.348 2.75 1.82 3.68 3.634 7.29 5.435 10.838.712 1.407 1.424 2.814 2.135 4.207.496.965.991 1.915 1.478 2.859.453.876.89 1.74 1.342 2.601.631 1.208 1.253 2.396 1.868 3.577a.478.478 0 0 0 .099.162c.666 1.29 1.338 2.559 1.993 3.8 9.288 17.48 17.288 31.033 21.683 35.752 13.267 14.214 28.127 12.87 57.148 1.154 5.773-2.322 12.086-5.054 19.055-8.148 42.1-18.717 81.002-48.617 80.18-62.06-.323-5.153-10.796-26.213-24.392-51.315-.66-1.205-1.312-2.419-1.972-3.639-.017-.027-.026-.047-.042-.074a1748.646 1748.646 0 0 0-9.677-17.545c-1.672-2.97-3.344-5.94-5.018-8.923a1591.043 1591.043 0 0 1-3.305-5.815 1727.38 1727.38 0 0 0-5.484-9.614 477.387 477.387 0 0 1-1.839-3.175c-.976-1.668-1.931-3.33-2.877-4.973-.084-.148-.159-.277-.242-.411a2349.667 2349.667 0 0 0-7.142-12.195c-1.151-1.957-2.29-3.866-3.39-5.715-.016-.027-.032-.054-.041-.075a946.917 946.917 0 0 0-3.898-6.494c-6.922-11.461-12.477-20.274-15.442-24.301-13.77-18.734-36.686-21.293-53.278-21.588-11.304-.203-18.708-12.865-22.282-20.942a3.986 3.986 0 0 0-.3-.577c-1.688-2.919-5.529-3.896-8.46-2.035L66.272 98.61l-11.975 7.628a5.89 5.89 0 0 0-2.28 2.655 6.053 6.053 0 0 0-.117 4.667c1.902 4.859 4.494 13.157 4.713 22.308.313 14.531-15.64 25.92-15.726 40.6-.026 4.574 6.078 20.635 14.993 41.078Z" fill="#CEDDF0"/><path d="M113.888 154.608c-42.106 27.42-56.585 16.719-58.13 32.406-1.553 15.68 67.436 148.277 86.627 153.114 19.184 4.845 120.51-50.803 123.056-65.023 2.37-13.233-69.484-137.53-79.478-154.727a6.007 6.007 0 0 0-3.493-2.76c-19.957-5.977-28.026 10.593-68.582 36.99Z" fill="#F63D4B"/><path d="M58.575 223.67v.014c.053.11.099.226.152.35.194.436.395.866.59 1.303a793.722 793.722 0 0 0 4.905 10.878c.648 1.406 1.298 2.825 1.947 4.245a843.666 843.666 0 0 0 1.956 4.187 606.523 606.523 0 0 0 2.663 5.694c.429.92.865 1.848 1.293 2.769.477.987.947 1.982 1.418 2.978a637.646 637.646 0 0 0 2.165 4.545c.198.401.389.796.587 1.197a765.465 765.465 0 0 0 4.172 8.579c.027.062.055.137.083.213a489.594 489.594 0 0 0 1.955 3.939c.45.925.9 1.851 1.348 2.75 1.82 3.68 3.634 7.29 5.435 10.838.712 1.407 1.424 2.814 2.135 4.207.496.965.991 1.915 1.478 2.859.453.876.89 1.74 1.342 2.601.631 1.208 1.253 2.396 1.868 3.577a.478.478 0 0 0 .099.162c1.271 2.28 3.888 3.472 6.456 2.963 2.616-.52 5.59-1.17 8.914-1.958a290.838 290.838 0 0 0 24.317-6.905c31.656-10.485 74.408-30.522 109.625-67.887a176.43 176.43 0 0 0 3.508-3.792 6.055 6.055 0 0 0 .875-6.877c-.017-.027-.026-.047-.042-.074a1748.646 1748.646 0 0 0-9.677-17.545c-1.664-2.963-3.33-5.94-5.018-8.923a1591.043 1591.043 0 0 1-3.305-5.815c-1.83-3.233-3.667-6.458-5.484-9.614a477.387 477.387 0 0 1-1.839-3.175c-.976-1.668-1.931-3.33-2.877-4.973-.084-.148-.159-.277-.242-.411a1122.745 1122.745 0 0 0-7.142-12.195c-1.151-1.957-2.29-3.866-3.39-5.715-.016-.027-.032-.054-.041-.075-2.01-3.252-6.469-3.834-9.266-1.247-.035.01-.048.025-.06.055h-.013c-14.874 13.76-47.948 38.692-108.63 59.22-8.665 2.937-17.895 5.753-27.694 8.47l-2.453.683a6.044 6.044 0 0 0-4.113 7.905Z" fill="#FFE3D1"/><path d="M154.772 144.295c2.711 7.379 23.072 17.153 23.072 17.153s9.754-26.108-.803-30.594c-10.55-4.492-6.694 14.513-6.694 14.513-3.59-5.493-18.3-8.45-15.575-1.072ZM125.158 168.215c-1.496 5.298 6.018 19.213 6.018 19.213s16.269-10.785 12.139-17.671c-4.144-6.885-9.771 5.469-9.771 5.469.223-4.591-6.89-12.309-8.386-7.01ZM85.187 192.297s-12.3-5.753-10.975 2.174c1.318 7.92 20.689 5.572 20.689 5.572s-3.305-15.462-7.88-18.518c-4.57-3.064-4.98 7.427-1.834 10.772ZM235.255 249.176c-1.495 5.298 6.018 19.213 6.018 19.213s16.27-10.786 12.132-17.678c-4.137-6.878-9.764 5.475-9.764 5.475.223-4.59-6.898-12.315-8.386-7.01ZM230.244 279.277s-12.3-5.752-10.982 2.168c1.325 7.926 20.696 5.578 20.696 5.578s-3.305-15.462-7.888-18.524c-4.57-3.065-4.972 7.433-1.826 10.778ZM193.647 277.979c-1.496 5.298 6.018 19.213 6.018 19.213s16.262-10.778 12.132-17.664c-4.13-6.886-9.757 5.467-9.757 5.467.217-4.583-6.904-12.307-8.393-7.016ZM176.224 307.3s-12.286-5.754-10.975 2.173c1.317 7.92 20.696 5.578 20.696 5.578s-3.312-15.467-7.882-18.532c-4.57-3.064-4.971 7.434-1.84 10.78ZM137.73 306.955s-12.301-5.753-10.976 2.174c1.318 7.92 20.689 5.572 20.689 5.572s-3.305-15.462-7.881-18.518c-4.577-3.07-4.979 7.427-1.833 10.772Z" fill="#C6243B"/><path d="M38.403 85.276C49.598 92.098 60.67 95.892 60.67 95.892L99.037 70.78s14.73-50.77-13.197-56.972C57.907 7.613 54.215 37.372 54.215 37.372 39.31 30.492 12.94 34.71 15.562 58.016c1.289 11.408 12.11 20.71 22.841 27.26Z" fill="#F63D4B"/><path d="M38.448 111.422c2.407.74 7.31-.327 13.57-2.529 5.84-2.044 12.857-5.086 20.098-8.565l.014-.002c17.639-8.513 36.673-19.668 43.475-25.644.883-.773 1.548-1.456 1.98-2.033 6.8-8.928-5.733-26.74-5.733-26.74-2.736 2.467-5.942 4.934-9.49 7.374-12.72 8.765-29.684 17.127-44.298 23.622a456.614 456.614 0 0 1-9.426 4.062 581.59 581.59 0 0 1-10.354 4.249c-6.805 2.696-11.133 4.26-11.133 4.26s.442 18.594 11.297 21.946Z" fill="#A3BCD0"/><path d="M126.007 224.734c5.037 13.677 42.78 31.811 42.78 31.811s18.083-48.4-1.484-56.725c-19.567-8.325-12.417 26.902-12.417 26.902-6.653-10.165-33.922-15.658-28.879-1.988Z" fill="#9E0505"/><path d="M140.279 104.293c-14.338.4-12.677-2.522-22.236-9.526-9.565-7.012-15.377 1.898-12.701 7.094 2.683 5.19 17.087 14.825 29.651 19.111 12.559 4.28 14.766-5.288 14.766-5.288s4.857-11.79-9.48-11.391Z" fill="#EFF8FE"/><path d="m38.403 85.276 10.37-4.222S30.886 69.78 32.221 55.991c1.337-13.76 21.994-18.619 21.994-18.619-14.905-6.88-41.275-2.663-38.653 20.644 1.289 11.408 12.11 20.71 22.841 27.26Z" fill="#C6243B"/><path d="M55.881 217.546c.878 2.003 1.774 4.047 2.694 6.124v.014c.053.11.099.226.152.35.194.436.395.866.59 1.303a793.722 793.722 0 0 0 4.905 10.878c.648 1.406 1.298 2.825 1.947 4.245a843.666 843.666 0 0 0 1.956 4.187 606.523 606.523 0 0 0 2.663 5.694c.429.92.865 1.848 1.293 2.769.477.987.947 1.982 1.418 2.978a637.646 637.646 0 0 0 2.165 4.545c.198.401.389.796.587 1.197a765.465 765.465 0 0 0 4.172 8.579c.027.062.055.137.083.213a489.594 489.594 0 0 0 1.955 3.939c.45.925.9 1.851 1.348 2.75 1.82 3.68 3.634 7.29 5.435 10.838.712 1.407 1.424 2.814 2.135 4.207.496.965.991 1.915 1.478 2.859.453.876.89 1.74 1.342 2.601.631 1.208 1.253 2.396 1.868 3.577a.478.478 0 0 0 .099.162c.666 1.29 1.338 2.559 1.993 3.8 9.288 17.48 17.288 31.033 21.683 35.752 13.267 14.214 28.127 12.87 57.148 1.154-3.669-1.12-7.488-3.476-11.394-6.832-6.013-5.202-12.218-12.758-18.377-21.738-3.618-5.256-7.214-10.988-10.75-17.01-.2-.338-.408-.682-.616-1.026-15.992-27.426-30.63-60.386-39.513-80.541a192.873 192.873 0 0 1-3.505-8.502c-.83-2.185-1.58-4.277-2.237-6.264-2.437-7.488-3.626-13.694-3.938-19.047-.294-4.66.099-8.69.888-12.4 1.526-7.062 4.555-12.927 7.414-19.679 3.537-8.415-1.403-20.575-7.236-30.627l-.008-.006a127.16 127.16 0 0 0-5.727-8.996c-3.76-5.4-6.77-8.983-6.77-8.983s-1.11.061-3.091-.284l-.014.002c-1.501-.28-3.483-.782-5.843-1.718a41.422 41.422 0 0 1-5.604-2.718c-8.066-4.653-3.345-17.14-2.605-18.987a1.9 1.9 0 0 1 .1-.228l-9.85 4.07-10.345 4.27-10.818 4.46s.442 18.593 11.297 21.945c2.407.74 7.31-.327 13.57-2.529a6.053 6.053 0 0 0-.117 4.667c1.902 4.859 4.494 13.157 4.713 22.308.313 14.531-15.64 25.92-15.726 40.6-.026 4.574 6.078 20.635 14.993 41.078Z" fill-opacity=".349" fill="#9E0505"/></g></svg>