<svg width="325" height="206" xmlns="http://www.w3.org/2000/svg"><g fill="none" fill-rule="evenodd"><path d="M310.296 12.682h-.169l-18.138.632c-1.278.044-1.93 1.554-1.085 2.514l4.225 4.805-54.14 37.305c-4.55-5.912-10.398-10.817-17.44-14.152l-.662-.307c-24.625-11.196-51.485-1.74-61.826 24.864-.415 1.072-.866 2.133-1.3 3.199-.29-.011-.58-.02-.87-.028-.43-1.064-.854-2.122-1.288-3.18-5.867-14.26-15.484-24.602-30.917-28.272-22.71-5.404-45.594 6.488-55.45 28.398-7.249 16.112-6.09 32.376-.838 48.647l.146.446.173.528a114.003 114.003 0 0 0 1.666 4.666l.05.132a114.684 114.684 0 0 0 2.237 5.42l.225.507.142.315.125.276a116.893 116.893 0 0 0 1.636 3.445l.119.24.12.24a119.281 119.281 0 0 0 2.277 4.331l.253.455a123.595 123.595 0 0 0 .763 1.349l.148.257.295.509.315.537.156.263.13.22.321.535.064.106a127.376 127.376 0 0 0 2.403 3.823l.278.424a133.213 133.213 0 0 0 2.784 4.064 144.378 144.378 0 0 0 4.736 6.278l.04.052-49.765 34.287-12.793.108L13 203.192l12.925 5.273.245 13.695 19.79-13.686 1.569-9.595 51.083-34.6.025.028c.259.284.518.568.779.851l.223.242.044.048c.45.486.902.97 1.358 1.451l.686.722c16.049 16.78 34.807 29.98 55.104 41.08.517.284 1.206.478 1.916.561l.267.026c.88.067 1.76-.042 2.367-.374 26.529-14.464 50.232-32.381 68.42-56.85 10.947-14.726 18.654-30.917 21.778-49.14 2.168-12.653.206-25.76-5.418-36.786l55.766-37.773 4.618 5.253c.788.897 2.235.567 2.582-.539l.035-.13 3.77-16.888a2.776 2.776 0 0 0-2.47-3.37l-.166-.01Z" fill="#FFF"/><path d="M310.244 2.682c.197 0 .394.004.59.014l.167.01a10 10 0 0 1 .296.02c7.682.643 13.088 7.93 11.395 15.514l-3.77 16.887-.048.205-.088.335a10 10 0 0 1-.119.409l-.089.273c-2.61 7.675-12.06 10.181-18.12 5.245l-.102-.086-41.781 28.3.182.527c3.695 10.854 4.655 22.74 2.679 34.278-3.28 19.13-11.252 36.794-23.61 53.418-17.891 24.07-41.463 43.2-71.658 59.663-2.501 1.367-5.216 1.77-7.91 1.565l-.203-.017-.464-.047c-1.937-.226-3.853-.782-5.585-1.736l-1.21-.666c-20.529-11.34-37.989-23.973-52.848-38.745l-.739-.74-40.506 27.435-.875 5.345a10 10 0 0 1-4.18 6.61l-19.79 13.686-.215.145c-6.545 4.296-15.33-.295-15.472-8.19l-.126-7.105-6.823-2.783c-7.204-2.94-8.439-12.62-2.203-17.273l16.441-12.272.305-.218a10 10 0 0 1 5.592-1.767l9.729-.083 38.712-26.672-.171-.246-.709-1.043c-.28-.415-.556-.83-.83-1.247l-.632-.968c-.295-.456-.587-.913-.875-1.37l-.414-.661-.817-1.33-.706-1.175-.508-.864-.652-1.13-.652-1.155-.5-.905-.405-.746-.781-1.472-.577-1.117-.6-1.19-.587-1.194-.496-1.037-.577-1.235-.539-1.184-.53-1.2-.696-1.628-.345-.83-.474-1.171-.318-.805-.365-.944-.28-.74a124.005 124.005 0 0 1-1.534-4.34l-.333-1.017c-6.52-20.201-6.61-38.455 1.221-55.865 11.83-26.298 39.515-40.537 66.885-34.023l.583.142c12.6 3.133 22.468 10.06 29.759 20.272l.298-.406c15.388-20.642 42.203-27.416 67.385-15.967l.733.34.678.327a57.33 57.33 0 0 1 13.374 9.078l.686.634 38.513-26.536-.014-.044c-2.082-6.811 2.68-14.576 10.644-14.854l18.287-.635.317-.003ZM37.073 200.855l-4.273.036-.187.14.053.047c.854.78 1.565 1.702 2.103 2.72l.097.19 1.911-1.323.296-1.81ZM80.355 72.562c-5.598 12.446-5.533 25.698-.44 41.473l.305.933c.392 1.179.821 2.392 1.273 3.597l.28.742.26.673.382.96.284.699.498 1.19.617 1.423.66 1.46.486 1.042.495 1.03.69 1.394.609 1.188.44.838.339.633.536.984.638 1.14.438.765.819 1.396.72 1.19.11.18c.233.38.468.756.705 1.133l.373.588.663 1.027.732 1.108a125.044 125.044 0 0 0 2.103 3.047 133.162 133.162 0 0 0 3.493 4.683l.955 1.21.18.233a9.941 9.941 0 0 1 1.82 4.082l.039.216.125.044a9.962 9.962 0 0 1 3.766 2.41l.292.311.733.801.253.275c.421.455.848.912 1.28 1.368l.667.7.799.83c13.37 13.795 29.32 25.678 48.39 36.442l1.14.64.466-.261c26.28-14.751 46.613-31.57 62.006-52.28 10.555-14.198 17.225-28.975 19.949-44.865 1.8-10.504.184-21.428-4.47-30.552l-.129-.26a9.965 9.965 0 0 1-.935-3.518l-.012-.2-.114-.061a9.97 9.97 0 0 1-2.999-2.606c-3.723-4.838-8.38-8.649-13.796-11.214l-.592-.274c-19.754-8.981-39.872-1.362-48.05 18.802l-.68 1.714-.925 2.25a10 10 0 0 1-9.357 6.226l-1.054-.03a10 10 0 0 1-8.984-6.237l-1.275-3.144c-5.106-12.411-12.716-19.66-23.979-22.339-17.887-4.257-36.063 5.091-44.017 22.771Z" fill="#FFF" fill-rule="nonzero"/><path d="M302.427 28.027 241.37 69.383l-6.17-7.456 61.55-42.41a5.115 5.115 0 0 1 5.678 8.51" fill="#441A1B"/><path fill="#441A1B" d="m242.084 67.79-1.775 10.842-19.788 13.686-.245-13.694-12.926-5.274 16.443-12.272 13.054-.11 5.237 6.821"/><path fill="#83262D" d="m238.679 69.155-.281 8.846-3.402 1.965-.042-8.815 3.725-1.996M232.63 72.44l-.282 8.845-3.402 1.965-.042-8.815 3.725-1.996M226.647 75.853l-.281 8.846-3.402 1.964-.042-8.815 3.725-1.995"/><path d="m303.498 23.156-83.222 55.468-12.926-5.274 16.443-12.272 13.054-.11 59.902-41.45s6.3-2.088 6.749 3.638" fill="#291515"/><path d="m278.601 36.686-9.532 6.723a.964.964 0 0 1-1.125-1.566l9.391-6.877a.964.964 0 0 1 1.281.128l.14.154a.964.964 0 0 1-.155 1.438" fill="#6C282E"/><path d="m306.545 33.618-15.641-17.79c-.845-.96-.193-2.47 1.085-2.514l18.138-.631a2.775 2.775 0 0 1 2.805 3.378l-3.77 16.887c-.27 1.21-1.798 1.601-2.617.67" fill="#291515"/><path d="m307.765 16.302-11.665.023a.964.964 0 0 1-.02-1.927l11.637-.23a.964.964 0 0 1 .975.84l.026.206a.964.964 0 0 1-.953 1.088" fill="#6C282E"/><path d="M71.236 68.46c9.856-21.91 32.74-33.802 55.45-28.398 15.433 3.67 25.05 14.011 30.917 28.272.434 1.058.857 2.116 1.286 3.177l.003.003c.29.008.58.017.868.028.435-1.066.886-2.127 1.3-3.2 10.342-26.604 37.202-36.06 61.827-24.863 22.17 10.084 32.782 35.572 28.692 59.445-3.124 18.223-10.831 34.414-21.779 49.14-18.187 24.469-41.89 42.386-68.42 56.85-.606.332-1.486.44-2.366.374-.802-.062-1.6-.267-2.183-.588-20.297-11.098-39.055-24.299-55.104-41.08-13.997-14.634-25.07-31.117-31.33-50.513-5.252-16.271-6.41-32.535.839-48.647Zm143.241 88.363c-4.405-.027-7.893-3.474-7.856-7.766.037-4.242 3.62-7.845 7.868-7.91 4.394-.069 7.977 3.59 7.92 8.087-.054 4.39-3.425 7.615-7.932 7.589Zm31.442-61.419c.328 10.85-4.242 23.4-10.226 35.548-2.319 4.706-6.615 6.262-10.786 4.28-4.26-2.024-5.638-6.543-3.46-11.343 1.33-2.93 2.854-5.79 3.953-8.804 3.795-10.397 6.757-20.906 3.727-32.132-4.116-15.247-17.29-24.367-31.647-21.344-3.214.677-6.202 2.788-9.084 4.576-3.425 2.124-7.017 2.346-9.93.123-2.65-2.021-3.965-5.75-2.507-8.94.873-1.912 2.509-3.67 4.201-4.986 12.222-9.5 32.03-9.712 45.653-.222 13.932 9.706 20.168 23.445 20.106 43.244Z" fill="#D63645"/><path d="M245.92 95.404c.061-19.8-6.175-33.538-20.107-43.244-13.623-9.49-33.431-9.278-45.653.222-1.692 1.315-3.328 3.074-4.201 4.986-1.458 3.19-.143 6.919 2.507 8.94 2.913 2.223 6.505 2 9.93-.123 2.882-1.788 5.87-3.9 9.084-4.576 14.356-3.023 27.531 6.097 31.647 21.344 3.03 11.226.068 21.735-3.727 32.132-1.1 3.014-2.623 5.874-3.953 8.804-2.178 4.8-.8 9.319 3.46 11.343 4.17 1.982 8.467.426 10.786-4.28 5.984-12.148 10.554-24.698 10.226-35.548M214.477 156.823c4.507.026 7.878-3.199 7.933-7.589.056-4.498-3.527-8.156-7.921-8.087-4.247.065-7.83 3.668-7.868 7.91-.037 4.292 3.45 7.74 7.856 7.766" fill="#EA9498"/><path d="M70.398 117.107c6.259 19.396 17.332 35.879 31.329 50.514 16.049 16.78 34.807 29.98 55.104 41.08.582.32 1.381.525 2.183.587-6.67-7.68-27.77-32.02-44.688-52.173-20.373-24.273-31.641-76.287-9.536-91.025 21.982-14.654 53.737 5.196 54.099 5.421-.429-1.06-.852-2.119-1.286-3.177-5.867-14.26-15.484-24.602-30.917-28.272-22.71-5.404-45.594 6.488-55.45 28.398-7.249 16.112-6.09 32.376-.838 48.647" fill="#AA283B"/><path d="m108.077 157.869-61.06 41.356-6.17-7.456 61.551-42.41a5.115 5.115 0 0 1 5.679 8.51" fill="#441A1B"/><path fill="#441A1B" d="m47.732 197.631-1.773 10.843-19.79 13.686-.244-13.695L13 203.192l16.442-12.272 13.053-.11 5.237 6.821"/><path fill="#83262D" d="m44.33 198.997-.284 8.847-3.4 1.964-.044-8.815 3.727-1.996M38.278 202.28l-.28 8.847-3.403 1.965-.041-8.815 3.724-1.996M32.297 205.694l-.283 8.847-3.4 1.964-.044-8.814 3.727-1.997"/><path d="m109.147 152.998-83.222 55.467L13 203.192l16.442-12.272 13.053-.11 59.903-41.45s6.3-2.088 6.75 3.638" fill="#291515"/><path d="m84.25 166.528-9.532 6.723a.964.964 0 0 1-1.125-1.566l9.391-6.877a.964.964 0 0 1 1.281.128l.141.154a.964.964 0 0 1-.156 1.438" fill="#6C282E"/></g></svg>