<svg width="222" height="506" xmlns="http://www.w3.org/2000/svg"><g fill="none" fill-rule="evenodd"><path d="m82.826 3.497.62.036c13.03.843 25.633 8.565 37.998 20.693a140.32 140.32 0 0 1 7.566 8.046l.101.117.425-.543c16.49-20.948 36.981-30.537 56.212-26.772l.687.14c22.32 4.746 35.757 26.436 31.733 51.944-2.47 15.657-11.208 32.502-24.702 50.272l-1.405 1.83.058.118c2.724 5.672 4.244 12.135 4.47 19.166l.018.661c.108 4.232-.268 8.71-1.116 13.472a88.205 88.205 0 0 1-1.62 7.226c-7.1 26.553-26.184 52.23-52.48 76.313a304.11 304.11 0 0 1-2.813 2.544c-1.461 10.875-2.456 21.123-2.93 30.467-.46 9.058-.416 17.022.146 23.743l.145 1.677c.855 10.7-.43 21.278-3.876 32.443-2.945 9.538-7.345 19.349-14.385 32.24l-.936 1.699a794.437 794.437 0 0 1-4.049 7.144l-.485.845c.463 2.925.827 5.474 1.127 7.889l.145 1.208c1.268 10.81 1.214 19.454-.246 27.81-1.602 9.171-4.945 17.906-10.28 26.807l-.916 1.512a105.443 105.443 0 0 0-4.136 7.535c1.621 3.16 3.565 6.51 5.875 10.16l.988 1.545c.269.415.63.965 1.072 1.634l6.552 9.82.668 1.02c2.715 4.174 4.42 7.144 5.696 9.97 5.597 12.398 5.89 22.427.947 29.378-1.482 2.082-3.259 3.63-5.121 4.562a9 9 0 0 1-9.757-14.99l.24-.191.025-.117c.05-.249.082-.555.091-.918l.003-.225c0-2.44-.923-5.86-2.833-10.093-.753-1.666-1.898-3.684-3.675-6.468l-.763-1.182-2.048-3.078c-1.031-1.54-1.877-2.805-2.707-4.049l-2.82-4.248c-2.166 12.578-.672 24.589 4.429 35.43a9 9 0 1 1-16.288 7.663c-9.36-19.895-9.456-42.649-.32-65.514-1.61-4.02-2.817-7.942-3.692-11.955-3.177-14.564-1.16-28.62 6.283-42.217l.657-1.178c.302-.535.677-1.195 1.128-1.986l10.863-18.926-.071-.425-1.525-8.722-1.257-7.297c-.302-1.8-.579-3.502-.84-5.157l-.307-1.966c-.092-.596-.181-1.195-.269-1.797-2.81-19.415-3.162-40.786-1.333-62.754-6.903-.434-11.365-7.696-8.447-14.116l2.82-6.205-2.684-2.324a464.032 464.032 0 0 1-5.366-4.76l-.546-.491a561.226 561.226 0 0 1-18.198-17.058 459.403 459.403 0 0 1-9.144-9.206c-7.29-7.545-13.862-14.9-19.533-21.956-3.517-4.391-6.632-8.571-9.352-12.586-5.58-8.261-9.56-15.943-11.706-23.023l-.23-.786a52.794 52.794 0 0 1-.48-1.88c-.962-4.078-1.577-8.05-1.833-11.87-1.48-21.176 7.467-39.216 23.443-49.535 6.228-4.01 13.263-6.659 20.626-7.796l.308-.046-.183-.402c-3.894-8.665-6.425-17.329-7.192-25.581l-.063-.727C38.729 41.11 42.82 26.002 51.93 15.88c7.7-8.602 18.436-13.03 30.896-12.383ZM96.218 386.95l-.008.012c-3.515 6.617-5.216 13.184-5.196 19.96 2.192-4.696 3.655-9.323 4.489-14.095a57.73 57.73 0 0 0 .715-5.877Zm21.37-126.923-.007.032c-1.084 4.117-4.767 7.348-9.415 7.467l-.266.003h-2.043c-1.855 21.125-1.58 41.746 1.084 60.154.08.549.16 1.094.244 1.634l.145.916c3.39-6.916 5.792-12.812 7.534-18.454 2.857-9.254 3.857-17.772 3.073-26.395l-.073-.838c-.603-7.148-.687-15.328-.275-24.519Zm1.023-14.886-.233.174c-.656.493-1.3.972-1.93 1.437l-1.184.867 2.174 6.907c.161.51.279 1.021.356 1.53.206-3.536.479-7.178.817-10.915Z" fill="#FFF" fill-rule="nonzero"/><path d="M208.29 55.6c-3.94 24.98-27.23 53.19-45.74 72.18-12.94 13.29-23.55 22.05-23.55 22.05l7.47 16.77h-22.36l4.48-14.16s-36.52-27.93-47.31-37.62C70.48 105.14 51.86 79.43 50 56.35c-1.07-13.17 2.1-25.71 9.38-33.8 5.47-6.11 13.28-9.69 23.39-9.04C106.23 15 129.7 49.27 129.7 49.27c34.26-57.37 85.29-36.14 78.59 6.33Z" stroke="#FFF" stroke-width="15" stroke-linecap="round" stroke-linejoin="round"/><path d="m139 149.83 7.47 16.77h-22.36l4.48-14.16s-36.52-27.93-47.31-37.62C70.48 105.14 51.86 79.43 50 56.35c-1.07-13.17 2.1-25.71 9.38-33.8.97 4.49 2.47 10.52 4.65 17.38 1.09 3.42 2.33 7.06 3.79 10.79 6.39 16.52 16.52 35.26 32.08 48.45 21.59 18.31 46.89 25.66 62.65 28.61-12.94 13.29-23.55 22.05-23.55 22.05Z" stroke="#FFF" stroke-width="15" stroke-linecap="round" stroke-linejoin="round"/><path d="M66.38 50.75c-10.43-.37-1.86-13.41 5.59-20.86 7.45-7.44 21.23 0 21.23 3.73 0 3.72-10.06 5.21-10.06 5.21-6.33.38-6.33 12.3-16.76 11.92ZM186.61 129.46c.09 3.53-.23 7.34-.96 11.44-.39 2.16-.87 4.3-1.44 6.42-7.51 28.09-30.18 53.76-49.57 71.52-16.77 15.35-31.11 24.81-31.11 24.81l4.37 13.88H88.45l5.95-13.09s-2.71-2.22-7.14-6.07c-2.01-1.73-4.38-3.83-7.01-6.2a554.61 554.61 0 0 1-17.88-16.76 450.09 450.09 0 0 1-8.95-9.01c-6.56-6.79-13.11-14.03-18.92-21.26-3.22-4.02-6.22-8.02-8.87-11.93-4.97-7.36-8.74-14.48-10.58-20.86-.14-.51-.27-1.02-.39-1.53-.84-3.56-1.37-6.99-1.59-10.27-1.3-18.59 6.85-32.66 18.88-40.43 6.71-4.32 14.62-6.71 22.77-6.831 1.82-.019 3.61.161 5.39.551 4.2.86 8.25 2.77 12.05 5.32 3.65 2.43 7.09 5.47 10.21 8.69 3.69 3.81 6.95 7.91 9.68 11.72 5.71 7.93 9.1 14.58 9.1 14.58 13.76-29.01 39.75-40.861 59.47-37.17 5.5 1.02 10.52 3.24 14.64 6.67 6.72 5.52 11.11 14.19 11.35 25.81Z" stroke="#FFF" stroke-width="15" stroke-linecap="round" stroke-linejoin="round"/><path d="m72.16 99.16-34.5 32.13-22.61 21.06c-.14-.51-.27-1.02-.39-1.53-.84-3.56-1.37-6.99-1.59-10.27l21.86-21.69 25.18-25.02c4.2.86 8.25 2.77 12.05 5.32ZM92.05 119.57 50.5 166.89l-16 18.25c-3.22-4.02-6.22-8.02-8.87-11.93L44 152.05l38.37-44.2c3.69 3.81 6.95 7.91 9.68 11.72ZM175.26 103.65 62.37 215.41a450.09 450.09 0 0 1-8.95-9.01l107.2-109.42c5.5 1.02 10.52 3.24 14.64 6.67ZM186.61 129.46c.09 3.53-.23 7.34-.96 11.44-.39 2.16-.87 4.3-1.44 6.42l-96.95 91.05c-2.01-1.73-4.38-3.83-7.01-6.2l106.36-102.71Z" stroke="#FFF" stroke-width="15" stroke-linecap="round" stroke-linejoin="round"/><path d="m103.53 243.65 4.37 13.88H88.45l5.95-13.09s-2.71-2.22-7.14-6.07c-2.01-1.73-4.38-3.83-7.01-6.2a554.61 554.61 0 0 1-17.88-16.76 450.09 450.09 0 0 1-8.95-9.01c-6.56-6.79-13.11-14.03-18.92-21.26-3.22-4.02-6.22-8.02-8.87-11.93-4.97-7.36-8.74-14.48-10.58-20.86-.14-.51-.27-1.02-.39-1.53-.84-3.56-1.37-6.99-1.59-10.27-1.3-18.59 6.85-32.66 18.88-40.43.53 4.44 1.45 11.03 2.98 18.74.75 3.91 1.65 8.09 2.73 12.43 1.67 6.73 3.75 13.81 6.34 20.76 1.9 5.07 4.04 10.09 6.5 14.84 5.14 9.97 11.61 18.82 19.7 24.79 23.67 17.47 50.74 24.55 64.44 27.16-16.77 15.35-31.11 24.81-31.11 24.81Z" stroke-opacity=".38" stroke="#FFF" stroke-width="15" stroke-linecap="round" stroke-linejoin="round"/><path d="M175.34 132.97c-1.39 11.5-15.28 3.37-18.05-4.57-2.78-7.93-11.71-12.1-14.09-18.64-2.38-6.55 8.13-5.56 8.13-5.56 8.73.99 25.4 17.26 24.01 28.77Z" stroke="#FFF" stroke-width="15" stroke-linecap="round" stroke-linejoin="round"/><path d="M131.357 204.217a2 2 0 0 1 3.95.618l-.033.196-.287 1.529-.376 2.081c-.131.742-.269 1.532-.411 2.366l-.376 2.234a481.05 481.05 0 0 0-2.015 13.337c-1.523 11.125-2.633 22.065-3.153 32.294-.468 9.216-.437 17.522.164 24.694l.072.823c.927 10.196-.28 20.15-3.518 30.636-2.796 9.057-7.004 18.36-13.393 30.128l-1.255 2.291a704.856 704.856 0 0 1-3.637 6.428l-3.334 5.82-11.598 20.188c-.61 1.07-1.11 1.948-1.462 2.578-6.541 11.668-8.082 23.222-5.484 35.13 2.017 9.244 6.223 18.037 13.101 28.803l.855 1.324c.424.65.974 1.482 1.581 2.397l5.792 8.672.901 1.38c2.209 3.414 3.706 5.99 4.792 8.338l.14.305c4.807 10.65 4.807 17.964 1.622 22.441a8.66 8.66 0 0 1-1.626 1.745c-.37.297-.688.497-.924.615a2 2 0 0 1-1.927-3.501l.137-.075c-.009.004.07-.046.21-.159.286-.229.584-.54.87-.943 2.226-3.128 2.262-8.825-1.801-18.014l-.207-.463c-1.084-2.4-2.694-5.144-5.23-9.017l-6.58-9.863a280.234 280.234 0 0 1-1.38-2.103l-.113-.174c-7.396-11.47-11.936-20.84-14.12-30.855-2.758-12.636-1.182-24.993 5.565-37.332l1.233-2.192 13.403-23.34 2.822-4.938a488.709 488.709 0 0 0 3.243-5.754l.89-1.629c6.276-11.56 10.386-20.645 13.092-29.41 2.999-9.713 4.165-18.887 3.428-28.244l-.072-.85c-.688-7.567-.742-16.339-.246-26.083.526-10.354 1.646-21.404 3.184-32.634a481.008 481.008 0 0 1 2.411-15.702l.315-1.82.53-2.945.255-1.351Z" fill="#E83648" fill-rule="nonzero"/><path d="m96.302 253.989.01-.069a2 2 0 0 1 3.972.451l-.037.287-.087.616c-.073.527-.153 1.13-.239 1.807l-.052.415c-.301 2.428-.603 5.21-.885 8.3-1.875 20.557-1.932 42.431 1.03 62.89l.124.852.129.848c.347 2.259.716 4.546 1.124 6.984l.567 3.332c.664 3.83 2.132 12.176 2.483 14.232l.36 2.144c.769 4.622 1.315 8.333 1.727 11.852 1.164 9.927 1.174 17.986-.19 25.79-1.44 8.243-4.448 16.168-9.375 24.392l-.467.772c-15.944 26.051-18.018 51.685-8.066 72.834a2 2 0 1 1-3.62 1.704c-10.436-22.18-8.396-48.918 7.78-75.811l.494-.815c4.947-8.08 7.918-15.77 9.315-23.764 1.248-7.147 1.278-14.584.258-23.745l-.102-.892c-.444-3.792-1.05-7.836-1.935-13.068l-2.812-16.156-.362-2.143c-.41-2.453-.782-4.757-1.133-7.034-.088-.576-.175-1.154-.259-1.734-2.942-20.332-2.956-41.954-1.183-62.371l.13-1.456c.262-2.873.541-5.486.822-7.805l.232-1.845.247-1.794Z" fill="#E83648" fill-rule="nonzero"/><path d="M208.29 55.6c-3.94 24.98-27.23 53.19-45.74 72.18-12.94 13.29-23.55 22.05-23.55 22.05l7.47 16.77h-22.36l4.48-14.16s-36.52-27.93-47.31-37.62C70.48 105.14 51.86 79.43 50 56.35c-1.07-13.17 2.1-25.71 9.38-33.8 5.47-6.11 13.28-9.69 23.39-9.04C106.23 15 129.7 49.27 129.7 49.27c34.26-57.37 85.29-36.14 78.59 6.33Z" fill="#E83648"/><path d="m139 149.83 7.47 16.77h-22.36l4.48-14.16s-36.52-27.93-47.31-37.62C70.48 105.14 51.86 79.43 50 56.35c-1.07-13.17 2.1-25.71 9.38-33.8.97 4.49 2.47 10.52 4.65 17.38 1.09 3.42 2.33 7.06 3.79 10.79 6.39 16.52 16.52 35.26 32.08 48.45 21.59 18.31 46.89 25.66 62.65 28.61-12.94 13.29-23.55 22.05-23.55 22.05Z" fill="#DE1C30"/><path d="M66.38 50.75c-10.43-.37-1.86-13.41 5.59-20.86 7.45-7.44 21.23 0 21.23 3.73 0 3.72-10.06 5.21-10.06 5.21-6.33.38-6.33 12.3-16.76 11.92Z" fill="#F1A4A7"/><path d="M186.61 129.46c.09 3.53-.23 7.34-.96 11.44-.39 2.16-.87 4.3-1.44 6.42-7.51 28.09-30.18 53.76-49.57 71.52-16.77 15.35-31.11 24.81-31.11 24.81l4.37 13.88H88.45l5.95-13.09s-2.71-2.22-7.14-6.07c-2.01-1.73-4.38-3.83-7.01-6.2a554.61 554.61 0 0 1-17.88-16.76 450.09 450.09 0 0 1-8.95-9.01c-6.56-6.79-13.11-14.03-18.92-21.26-3.22-4.02-6.22-8.02-8.87-11.93-4.97-7.36-8.74-14.48-10.58-20.86-.14-.51-.27-1.02-.39-1.53-.84-3.56-1.37-6.99-1.59-10.27-1.3-18.59 6.85-32.66 18.88-40.43 6.71-4.32 14.62-6.71 22.77-6.83 1.82-.02 3.61.16 5.39.55 4.2.86 8.25 2.77 12.05 5.32 3.65 2.43 7.09 5.47 10.21 8.69 3.69 3.81 6.95 7.91 9.68 11.72 5.71 7.93 9.1 9.58 9.1 9.58 13.76-29.01 39.75-35.86 59.47-32.17 5.5 1.02 10.52 3.24 14.64 6.67 6.72 5.52 11.11 14.19 11.35 25.81Z" fill="#F49BA2"/><path d="m72.16 99.16-34.5 32.13-22.61 21.06c-.14-.51-.27-1.02-.39-1.53-.84-3.56-1.37-6.99-1.59-10.27l21.86-21.69 25.18-25.02c4.2.86 8.25 2.77 12.05 5.32ZM92.05 119.57 50.5 166.89l-16 18.25c-3.22-4.02-6.22-8.02-8.87-11.93L44 152.05l38.37-44.2c3.69 3.81 6.95 7.91 9.68 11.72ZM175.26 103.65 62.37 215.41a450.09 450.09 0 0 1-8.95-9.01l107.2-109.42c5.5 1.02 10.52 3.24 14.64 6.67ZM186.61 129.46c.09 3.53-.23 7.34-.96 11.44-.39 2.16-.87 4.3-1.44 6.42l-96.95 91.05c-2.01-1.73-4.38-3.83-7.01-6.2l106.36-102.71Z" fill="#F35E75"/><path d="m103.53 243.65 4.37 13.88H88.45l5.95-13.09s-2.71-2.22-7.14-6.07c-2.01-1.73-4.38-3.83-7.01-6.2a554.61 554.61 0 0 1-17.88-16.76 450.09 450.09 0 0 1-8.95-9.01c-6.56-6.79-13.11-14.03-18.92-21.26-3.22-4.02-6.22-8.02-8.87-11.93-4.97-7.36-8.74-14.48-10.58-20.86-.14-.51-.27-1.02-.39-1.53-.84-3.56-1.37-6.99-1.59-10.27-1.3-18.59 6.85-32.66 18.88-40.43.53 4.44 1.45 11.03 2.98 18.74.75 3.91 1.65 8.09 2.73 12.43 1.67 6.73 3.75 13.81 6.34 20.76 1.9 5.07 4.04 10.09 6.5 14.84 5.14 9.97 11.61 18.82 19.7 24.79 23.67 17.47 50.74 24.55 64.44 27.16-16.77 15.35-31.11 24.81-31.11 24.81Z" fill-opacity=".38" fill="#BC4B59"/><path d="M175.34 132.97c-1.39 11.5-15.28 3.37-18.05-4.57-2.78-7.93-11.71-12.1-14.09-18.64-2.38-6.55 8.13-5.56 8.13-5.56 8.73.99 25.4 17.26 24.01 28.77Z" fill="#FFD6D4"/></g></svg>