<svg width="289" height="428" xmlns="http://www.w3.org/2000/svg"><g fill="none" fill-rule="evenodd"><path d="M148.778.15c12.693-.816 23.638 3.607 31.471 12.327 9.116 10.157 13.21 25.26 11.909 41.286-.92 11.425-5.26 23.664-11.938 35.598l-.567 1 .227.206c7.859 7.235 13.292 16.829 15.53 27.9l.038.191.187-.21a140.585 140.585 0 0 1 5.493-5.835l.955-.947c12.426-12.203 25.094-19.97 38.187-20.805 12.723-.817 23.69 3.618 31.531 12.358 9.136 10.176 13.24 25.322 11.927 41.372-.993 12.36-5.966 25.637-13.682 38.653-6.308 10.642-14.223 20.572-20.967 26.619l-.714.634c-4.142 3.653-11.187 9.381-20.502 16.735l-4.417 3.477-2.537 1.986a2503.55 2503.55 0 0 1-9.973 7.755l-4.33 3.342 2.379 7.523c1.502 4.75-.716 9.566-4.692 11.772l-.172.092.105.57c1.962 10.895 1.941 21.748-.322 32.084l-.179.794c-1.745 7.56-4.488 13.69-9.433 21.483l-4.181 6.453-.204.323c-3.25 5.225-4.15 8.148-3.857 12.186l.027.33c.303 3.487.46 3.752 3.772 6.248l1.477 1.104c8.306 6.309 12.117 12.767 13.392 23.413 1.27 10.571.224 21.706-2.825 32.94a93.923 93.923 0 0 1-2.332 7.4l-.31.84-.318.825-.195.49-.27.653-.073.174c-2.535 5.824-9.31 8.49-15.134 5.956a11.5 11.5 0 0 1-6.345-14.109 10 10 0 0 1 .242-.661l.272-.673.19-.484.11-.288.228-.617a70.73 70.73 0 0 0 1.738-5.531c2.307-8.5 3.083-16.713 2.186-24.175l-.116-.898c-.497-3.577-1.187-4.536-4.288-6.89l-1.064-.796c-8.681-6.462-12.34-12.478-13.25-22.925-.82-9.398 1.312-17.01 6.88-26.119l.594-.956 3.895-6.005.344-.539c3.614-5.686 5.326-9.51 6.437-14.324 1.924-8.339 1.739-17.491-.372-26.822l-.07-.304-3.832.001c-7.152 0-11.963-7.276-9.238-13.829l.102-.236 4.47-10.046-1.491-1.336a371.05 371.05 0 0 1-24.111-23.868l-.757-.828-.597.591-1.288 1.263a507.74 507.74 0 0 1-7.685 7.395l-1.11 1.04.262.828c.85 2.737 1.661 5.574 2.423 8.48l.377 1.458c3.535 13.895 5.402 27.143 5.367 39.33-.037 12.405-2.066 23.328-6.303 32.676l-.207.447.307.118c6.037 2.361 10.89 7.597 12.363 14.726l.078.398c1.477 7.862-2.148 15.059-8.885 18.56a18.74 18.74 0 0 1-4.188 1.57l-.298.07 3.376 8.087.56 1.374.565 1.403c1.829 4.584 3.15 8.281 4.243 11.908 4.775 15.832 4.724 29.983-.347 46.58-1.855 6.075-8.284 9.495-14.358 7.64-6.074-1.856-9.494-8.285-7.638-14.359 3.683-12.057 3.773-21.443.512-32.584l-.189-.635-.273-.89c-.937-2.987-2.123-6.211-3.814-10.384l-.897-2.182-5.509-13.192-.388-.948c-3.435-8.463-4.327-16.527-2.274-23.346l.112-.36-.016-.435c-.194-6.366 1.584-13.4 5.14-20.826l.291-.603.237-.478c3.136-6.273 4.77-14.447 4.8-24.403.016-5.514-.454-11.404-1.385-17.584l-.046-.29-.064.097a10 10 0 0 1-3.977 3.372l-.087.038.035.175c2.582 13.526 2.153 26.782-1.706 39.198l-.183.58c-.033.12-.067.24-.104.36l-.117.365-1.087 3.23-1.288 3.762-3.525 10.204-1.032 3.014c-1.914 5.629-3.402 10.212-4.56 14.08l-.239.8.189.123.306.212.38.28.207.16c4.73 3.737 6.167 9.446 5.286 15.303-.735 4.888-2.958 9.437-6.413 12.613a16.966 16.966 0 0 1-3.301 2.38l-.497.261.092.072c17.026 13.445 23.57 42.142 7.575 53.483l-.502.345c-5.283 3.524-12.424 2.098-15.948-3.186-3.292-4.935-2.265-11.491 2.192-15.206l.262-.213.02-.104c.2-1.15.082-2.926-.435-4.976-1.217-4.825-4.198-9.643-7.565-12.208l-.27-.202c-14.249-10.455-17.228-27.199-7.52-40.075l.244-.319.02-.132c.141-.888.307-1.812.497-2.776l.147-.731.098-.474.244-1.125c1.459-6.568 3.832-14.403 7.965-26.52l4.957-14.378 1.552-4.553.024-.084.116-.364c3.195-9.577 3.347-20.483.683-31.92l-.134-.562-.268.001c-6.574.002-11.31-6.21-9.689-12.485l.07-.257.077-.255 2.17-6.91-.233-.17a278.87 278.87 0 0 1-3.34-2.482l-.697-.527a311.783 311.783 0 0 1-21.864-18.23C31.8 195.63 12.718 169.954 5.644 143.46a84.53 84.53 0 0 1-1.65-7.306c-.843-4.739-1.219-9.216-1.112-13.408.3-13.97 5.619-25.619 14.96-33.28a39.553 39.553 0 0 1 7.474-4.9l.306-.152-.206-.361c-5.819-10.28-9.688-20.146-11.288-29.568l-.116-.706C9.988 28.266 23.424 6.574 45.747 1.828c19.428-4.13 40.213 5.435 56.904 26.628l.426.546.58-.665a140.413 140.413 0 0 1 6.361-6.78l.952-.938C123.28 8.607 135.823.973 148.778.15Z" fill="#FFF" fill-rule="nonzero"/><path d="M100.123 249.057a1.5 1.5 0 0 1 1.95.836l.215.57.206.576c.107.305.22.637.338.994a75.578 75.578 0 0 1 1.631 5.759c3.172 13.06 3.518 26.86-.891 40.029l.081-.197-1.079 3.204a973.875 973.875 0 0 1-1.271 3.713l-3.535 10.233-1.037 3.031c-3.895 11.452-6.226 19.145-7.548 25.412-.176.835-.329 1.63-.46 2.385l-.054.32.239-.172c2.924-2.09 5.418-2.615 7.207-1.349l.166.124c1.51 1.194 1.98 3.43 1.597 5.972-.822 5.473-4.808 9.831-9.435 7.976-1.743-.697-2.75-2.223-3.14-4.559l-.047-.304-.13.198c-4.297 6.662-2.65 14.567 5.227 20.519l.314.233c12.857 9.43 18.607 31.52 8.505 38.258a1.5 1.5 0 0 1-1.664-2.496c7.85-5.237 2.91-24.571-8.275-33.088l-.34-.255c-10.774-7.904-11.866-19.449-3.796-27.942l.142-.149.021-.214c.165-1.674.468-3.551.895-5.628l.093-.448c1.38-6.545 3.804-14.505 7.878-26.449l4.967-14.408 1.795-5.262-.08.196c4.122-12.36 3.79-25.616.74-38.175a73.83 73.83 0 0 0-1.388-4.98l-.178-.549a52.41 52.41 0 0 0-.318-.938l-.307-.845a11.25 11.25 0 0 0-.07-.18 1.5 1.5 0 0 1 .836-1.95ZM94.42 346.88c-.495-.391-1.714-.157-3.77 1.312a24.654 24.654 0 0 0-2.29 1.843l-.197.183-.012.278c-.123 2.93.346 4.673 1.314 5.152l.092.04c2.295.92 4.776-1.793 5.354-5.636.239-1.59-.014-2.795-.491-3.172ZM121.705 220.269a1.5 1.5 0 0 1 1.936.866l.354.962.089.248c.303.851.637 1.82.993 2.9l.155.469a186.709 186.709 0 0 1 3.474 11.994c3.19 12.538 5.092 25.09 5.058 36.834-.033 11.33-1.89 21.318-5.884 29.591l-.288.588c-2.767 5.531-4.129 10.285-4.322 14.168l-.005.101.184-.151a10.853 10.853 0 0 1 1.919-1.241l.233-.115c6.036-2.897 13.28.389 14.573 7.3 1.381 7.355-6.704 11.076-13.379 7.435-1.84-1.003-3.318-2.387-4.399-4.112l-.229-.382-.011.11c-.303 3.168.356 7.143 2.193 11.806l.518 1.274 5.881 14.09.552 1.352c1.97 4.86 3.371 8.693 4.501 12.44 4.109 13.622 4.253 25.748-.336 40.772a1.5 1.5 0 1 1-2.87-.876c4.336-14.193 4.279-25.565.535-38.354l-.2-.675c-1.101-3.647-2.473-7.402-4.413-12.188l-.918-2.233-5.49-13.146-.369-.902c-3.08-7.59-3.346-13.946-1.346-18.354l.083-.177-.023-.157c-.675-4.953.616-11.304 4.234-18.683l.22-.444c3.963-7.925 5.823-17.673 5.856-28.846.033-11.46-1.833-23.772-4.966-36.085a184.864 184.864 0 0 0-3.149-10.973l-.268-.828c-.356-1.088-.69-2.068-.994-2.932l-.371-1.033-.177-.477a1.5 1.5 0 0 1 .866-1.936Zm15.52 105.067c-.918-4.907-6.014-7.218-10.326-5.149a7.725 7.725 0 0 0-3.182 2.806l-.12.19.032.14c.67 2.803 2.194 4.876 4.406 6.15l.197.111c4.718 2.574 9.833.22 8.994-4.248ZM189.664 253.715a1.5 1.5 0 0 1 1.93.879l.136.378.048.14c.14.408.295.883.46 1.424a71.762 71.762 0 0 1 1.383 5.228c2.37 10.477 2.88 21.691.36 32.613-1.526 6.611-3.937 11.763-8.08 18.292l-4.024 6.207c-.188.294-.346.543-.46.727-4.258 6.843-5.893 11.896-5.303 18.667.58 6.653 2.429 9.38 7.746 13.388l1.417 1.06c5.904 4.484 8.525 8.4 9.512 16.643 1.162 9.661.036 19.61-2.547 29.126a83.664 83.664 0 0 1-2.062 6.555l-.288.78c-.14.37-.272.712-.397 1.023l-.27.654a1.5 1.5 0 0 1-2.802-1.062l.288-.708.245-.625c.127-.332.262-.694.404-1.084a80.677 80.677 0 0 0 1.987-6.318c2.49-9.173 3.574-18.752 2.464-27.984-.879-7.335-3.042-10.583-8.346-14.61l-1.08-.806c-6.184-4.604-8.582-7.996-9.26-15.772-.64-7.34 1.09-12.902 5.43-20.002l.314-.51c.847-1.36 3.947-6.093 4.075-6.291 4.238-6.59 6.627-11.579 8.114-18.024 2.406-10.427 1.915-21.205-.363-31.277a70.015 70.015 0 0 0-1.174-4.512l-.15-.497a49.067 49.067 0 0 0-.268-.847l-.318-.924a1.5 1.5 0 0 1 .879-1.93Z" fill="#E83648" fill-rule="nonzero"/><path d="M102.49 45.88s23.46-34.26 46.93-35.75c10.1-.65 17.91 2.93 23.39 9.03 7.27 8.1 10.45 20.63 9.38 33.8-1.86 23.09-20.48 48.79-31.28 58.48-10.79 9.68-47.31 37.61-47.31 37.61l4.47 14.16H85.72l7.46-16.76s-10.6-8.77-23.54-22.05c-18.51-18.99-41.8-47.2-45.75-72.18-6.7-42.48 44.33-63.7 78.6-6.34Z" fill="#E83648"/><path d="M69.64 124.4c15.75-2.95 41.06-10.3 62.65-28.62 15.56-13.19 25.68-31.93 32.08-48.44 1.45-3.74 2.7-7.37 3.79-10.8a193.36 193.36 0 0 0 4.65-17.38c7.27 8.1 10.45 20.63 9.38 33.8-1.86 23.09-20.48 48.79-31.28 58.48-10.79 9.68-47.31 37.61-47.31 37.61l4.47 14.16H85.72l7.46-16.76s-10.6-8.77-23.54-22.05Z" fill="#DE1C30"/><path d="M149.05 35.45s-10.06-1.49-10.06-5.22c0-3.72 13.78-11.17 21.23-3.72 7.45 7.45 16.02 20.49 5.59 20.86-10.43.37-10.43-11.55-16.76-11.92Z" fill="#F1A4A7"/><path d="M193.85 136.69s23.53-34.35 47.06-35.85c10.13-.65 17.96 2.94 23.45 9.06 7.29 8.12 10.48 20.69 9.4 33.89-1.86 23.15-20.53 48.92-31.36 58.63-10.82 9.71-47.44 37.71-47.44 37.71l4.49 14.2h-22.41l7.48-16.81s-10.63-8.79-23.6-22.11c-18.56-19.03-41.92-47.32-45.87-72.37-6.72-42.58 44.45-63.86 78.8-6.35Z" fill="#F35E75"/><path d="M160.92 215.41c15.79-2.95 41.16-10.32 62.81-28.69 15.6-13.22 25.76-32.01 32.17-48.57 1.45-3.74 2.7-7.39 3.8-10.82 2.18-6.87 3.68-12.92 4.66-17.43 7.29 8.12 10.48 20.69 9.4 33.89-1.86 23.15-20.53 48.92-31.36 58.63-10.82 9.71-47.44 37.71-47.44 37.71l4.49 14.2h-22.41l7.48-16.81s-10.63-8.79-23.6-22.11Z" fill="#EB4B59"/><path d="M240.53 126.23s-10.08-1.49-10.08-5.23c0-3.73 13.82-11.2 21.29-3.73 7.47 7.47 16.06 20.54 5.6 20.91-10.46.38-10.46-11.58-16.81-11.95Z" fill="#F1A4A7"/><path d="M24.24 97.15c4.12-3.43 9.13-5.65 14.64-6.67 19.71-3.691 45.71 8.16 59.47 37.17 0 0 3.38-6.65 9.09-14.58 2.73-3.81 5.99-7.91 9.68-11.72 3.12-3.22 6.57-6.26 10.22-8.69 3.79-2.55 7.85-4.46 12.05-5.32 1.77-.39 3.57-.57 5.38-.551 8.15.121 16.07 2.511 22.77 6.831 12.03 7.77 20.19 21.84 18.88 40.43-.21 3.28-.74 6.71-1.59 10.28-.12.51-.25 1.02-.39 1.52-1.83 6.39-5.6 13.5-10.58 20.86-2.65 3.92-5.64 7.91-8.87 11.93-5.81 7.24-12.35 14.47-18.92 21.26-3.02 3.13-6 6.13-8.95 9.01-6.5 6.39-12.7 12.11-17.88 16.76-2.63 2.37-4.99 4.47-7.01 6.2-4.42 3.85-7.13 6.08-7.13 6.08l5.95 13.08H91.6l4.36-13.88s-14.33-9.46-31.11-24.81c-19.39-17.76-42.06-43.43-49.56-71.52-.58-2.12-1.06-4.26-1.45-6.42-.73-4.1-1.05-7.91-.96-11.44.25-11.62 4.63-20.29 11.36-25.81Z" fill="#F49BA2"/><path d="m139.39 87.34 25.18 25.02 21.85 21.69c-.21 3.28-.74 6.71-1.59 10.28-.12.51-.25 1.02-.39 1.52l-22.61-21.06-34.49-32.13c3.79-2.55 7.85-4.46 12.05-5.32ZM117.12 101.35l38.37 44.2 18.37 21.16c-2.65 3.92-5.64 7.91-8.87 11.93l-16-18.25-41.55-47.32c2.73-3.81 5.99-7.91 9.68-11.72ZM38.88 90.48 146.07 199.9c-3.02 3.13-6 6.13-8.95 9.01L24.24 97.15c4.12-3.43 9.13-5.65 14.64-6.67ZM119.24 225.67c-2.63 2.37-4.99 4.47-7.01 6.2l-96.94-91.05c-.58-2.12-1.06-4.26-1.45-6.42-.73-4.1-1.05-7.91-.96-11.44l106.36 102.71Z" fill="#F35E75"/><path d="M64.85 212.34c13.7-2.61 40.78-9.69 64.45-27.16 8.09-5.97 14.55-14.82 19.69-24.79 2.47-4.75 4.61-9.76 6.5-14.84 2.59-6.95 4.67-14.03 6.34-20.76 1.08-4.34 1.98-8.52 2.74-12.43 1.53-7.71 2.44-14.29 2.97-18.74 12.03 7.77 20.19 21.84 18.88 40.43-.21 3.28-.74 6.71-1.59 10.28-.12.51-.25 1.02-.39 1.52-1.83 6.39-5.6 13.5-10.58 20.86-2.65 3.92-5.64 7.91-8.87 11.93-5.81 7.24-12.35 14.47-18.92 21.26-3.02 3.13-6 6.13-8.95 9.01-6.5 6.39-12.7 12.11-17.88 16.76-2.63 2.37-4.99 4.47-7.01 6.2-4.42 3.85-7.13 6.08-7.13 6.08l5.95 13.08H91.6l4.36-13.88s-14.33-9.46-31.11-24.81Z" fill-opacity=".38" fill="#BC4B59"/><path d="M48.16 97.7s10.51-.99 8.13 5.56c-2.38 6.54-11.3 10.71-14.08 18.64-2.78 7.94-16.66 16.07-18.05 4.57-1.39-11.51 15.27-27.77 24-28.77Z" fill="#FFD6D4"/></g></svg>