<svg width="271" height="307" xmlns="http://www.w3.org/2000/svg"><g fill="none" fill-rule="evenodd"><path d="M78.676 5.376c4.325-2.085 8.98-1.723 13.406.49 6.632 3.32 13.11 13.747 23.01 33.227a631.093 631.093 0 0 1 8.648 17.76l.936 2.005.374-.797a612.517 612.517 0 0 1 8.673-17.737l.803-1.566c9.295-18.03 15.41-27.682 21.812-30.882 4.425-2.213 9.078-2.576 13.402-.49 3.21 1.546 5.238 3.787 7.267 7.018l.29.48c.74 1.248 2.433 4.18 3.079 5.184l.078.12c1.379 2.074 2.644 3.298 4.283 4.086 1.959.946 3.616 1.625 5.74 2.385l2.69.94c.64.224 1.151.41 1.646.6 7.533 2.885 11.174 7.677 12.397 16.65.68 5.028-1.291 9.34-4.903 13.88-.359.451-.737.907-1.136 1.367l-.212.242 46.712 19.853.236.036c4.804.797 8.262 4.971 8.339 9.687v.209l10.842 21.192c2.777 5.427.09 12.03-5.632 14.004l-.27.09-17.746 5.58-4.301 13.216a10 10 0 0 1-9.415 6.905l-.286-.002-1.686-.032-8.95 46.939-4.839 25.358-16.63 87.22a10 10 0 0 1-9.823 8.127H54.01a10 10 0 0 1-9.928-8.8l-10.55-87.218-3.07-25.363-5.56-46.023-.525-4.33-1.405-.028a10 10 0 0 1-9.564-7.828l-.057-.276-9.5-49.25c-1.198-6.21 3.598-11.958 9.922-11.893l58.382.599-.575-.377a203.078 203.078 0 0 1-4.836-3.28l-.598-.42c-6.547-4.615-12.217-9.227-16.353-13.404-6.17-6.231-9.462-11.552-8.58-18.005 1.207-8.821 4.755-13.6 12.046-16.494l.374-.145c.894-.342 4.101-1.45 4.682-1.661a56.582 56.582 0 0 0 5.372-2.252c1.625-.783 2.89-2.009 4.27-4.085l.168-.261c.83-1.318 2.888-4.9 3.283-5.53 2.03-3.231 4.06-5.472 7.268-7.02Z" fill="#FFF" fill-rule="nonzero"/><path d="M120.98 74.88s-1.64 5.43-7.19 7.87c-2.06.91-4.67 1.4-7.94 1.04-.51-.06-1.08-.16-1.71-.32-13.98-3.41-54.3-29.92-53.02-39.29 1.34-9.79 4.9-7.12 16.91-12.9 12.01-5.79 10.68-20.92 19.58-16.47 8.39 4.2 30.63 53.88 33.14 59.55l.23.52ZM143.89 85.55c-.48.11-.93.19-1.33.23-5.22.58-8.76-1.02-11.09-3.01-3.04-2.6-4.03-5.88-4.03-5.88s.35-.79.98-2.2c4.64-10.36 24.55-53.95 32.39-57.87 8.9-4.45 7.56 10.68 19.58 16.46 3.19 1.54 5.79 2.48 7.9 3.21 5.85 2.04 8.03 2.51 9.01 9.7 1.28 9.46-39.79 36.35-53.41 39.36Z" fill="#B90A03"/><path d="M145.24 91.57c0 9.59-9.77 17.35-21.81 17.35s-21.8-7.76-21.8-17.35c0-1.33.19-2.61.55-3.86.42-1.5 1.08-2.91 1.96-4.24.67-1 1.45-1.95 2.35-2.82 3.46-3.4 8.52-5.74 14.26-6.29a26.31 26.31 0 0 1 7.67.33c4.64.85 8.7 2.89 11.67 5.69 1.62 1.52 2.91 3.27 3.8 5.17.41.89.73 1.8.95 2.74.26 1.06.39 2.16.4 3.28Z" fill="#9B0404"/><path d="m224 117.38-4.3 22.51-.19 1.02-2.74 14.37-7.79 40.86-4.84 25.36-16.63 87.22H54.01L43.46 221.5l-3.07-25.36-5.56-46.03-1.11-9.14-.45-3.81-2.4-19.78c0 .54 17.51.75 41.99.78 11.02.02 23.45 0 36.33-.04 9.57-.03 19.4-.08 29.07-.12 44.42-.24 85.74-.62 85.74-.62Z" fill="#E54554"/><path fill="#FC525C" d="m246.24 90.09-16.61 51.02-6.77-.13-3.35-.07-81.25-1.63-13.95-.29-15.12-.3-46.94-.95-28.98-.58-10.1-.2-9.5-49.25 95.52.98.61.01 28.46.28z"/><path fill="#B90A03" d="m208.98 196.14-4.84 25.36H43.46l-3.07-25.36z"/><path d="M181.57 180.27c0 4.75-9.49 14.54-9.49 14.54s-10.98-12.76-5.93-17.51c5.04-4.74 6.82 6.83 6.82 6.83.89-3.86 8.6-8.61 8.6-3.86ZM161.87 230.93c0 3.91-7.81 11.96-7.81 11.96s-9.03-10.49-4.88-14.4c4.14-3.9 5.61 5.62 5.61 5.62.73-3.18 7.08-7.08 7.08-3.18ZM189.25 241.39c0 3.91-7.81 11.96-7.81 11.96s-9.03-10.5-4.88-14.4c4.15-3.9 5.61 5.61 5.61 5.61.74-3.17 7.08-7.07 7.08-3.17ZM159.28 274.4c0 3.9-7.81 11.95-7.81 11.95s-9.03-10.49-4.88-14.39c4.15-3.91 5.61 5.61 5.61 5.61.74-3.17 7.08-7.08 7.08-3.17ZM184.6 290.44c0 3.9-7.81 11.95-7.81 11.95s-9.03-10.49-4.88-14.39c4.15-3.91 5.62 5.61 5.62 5.61.73-3.17 7.07-7.08 7.07-3.17ZM188.95 144.68c0 3.91-7.81 11.96-7.81 11.96s-9.02-10.49-4.88-14.4c4.15-3.9 5.62 5.62 5.62 5.62.73-3.18 7.07-7.08 7.07-3.18ZM156.32 163.67c0 3.9-7.81 11.96-7.81 11.96s-9.03-10.5-4.88-14.4c4.15-3.91 5.62 5.61 5.62 5.61.73-3.17 7.07-7.08 7.07-3.17ZM205.57 165.15c0 3.91-7.81 11.96-7.81 11.96s-9.03-10.49-4.88-14.4c4.14-3.9 5.61 5.61 5.61 5.61.73-3.17 7.08-7.07 7.08-3.17ZM66.14 232.79c0 3.9-7.81 11.96-7.81 11.96s-9.03-10.5-4.88-14.4c4.15-3.91 5.61 5.61 5.61 5.61.74-3.17 7.08-7.08 7.08-3.17Z" fill="#FFDCD1"/><path fill-opacity=".49" fill="#9B1F34" d="m223.1 139.92-.24 1.06-3.35-.07-2.74 14.37-158.89-4.52-23.05-.65-1.11-9.14.71-2.82 27.56.26 62.32.58 95.39.9z"/><path fill="#B90A03" d="M138.26 88.98v219.74h-29.07V88.69z"/><path d="M102.24 233.31c0 3.9-7.81 11.95-7.81 11.95s-9.03-10.49-4.88-14.39c4.15-3.91 5.61 5.61 5.61 5.61.73-3.17 7.08-7.08 7.08-3.17ZM98.77 266.61c0 3.9-7.81 11.95-7.81 11.95s-9.03-10.49-4.88-14.39c4.15-3.91 5.62 5.61 5.62 5.61.73-3.17 7.07-7.08 7.07-3.17ZM69.11 287.96c0 3.91-7.81 11.96-7.81 11.96s-9.03-10.49-4.88-14.4c4.15-3.9 5.61 5.62 5.61 5.62.73-3.18 7.08-7.08 7.08-3.18ZM99.37 150.32c0 3.9-7.81 11.96-7.81 11.96s-9.03-10.5-4.88-14.4c4.14-3.9 5.61 5.61 5.61 5.61.73-3.17 7.08-7.07 7.08-3.17ZM85.72 179.09c0 3.91-7.81 11.96-7.81 11.96s-9.03-10.49-4.88-14.4c4.15-3.9 5.61 5.62 5.61 5.62.74-3.18 7.08-7.08 7.08-3.18ZM61.1 153.58c0 3.91-7.81 11.96-7.81 11.96s-9.03-10.49-4.88-14.4c4.15-3.9 5.61 5.62 5.61 5.62.73-3.18 7.08-7.08 7.08-3.18ZM43.08 97.44c0 3.91-7.81 11.96-7.81 11.96S26.24 98.91 30.39 95c4.15-3.9 5.61 5.61 5.61 5.61.73-3.17 7.08-7.07 7.08-3.17ZM72.89 118.36c0 3.9-7.81 11.95-7.81 11.95s-9.03-10.49-4.88-14.39c4.15-3.91 5.61 5.61 5.61 5.61.74-3.17 7.08-7.08 7.08-3.17ZM104.04 104.56c0 3.91-7.81 11.96-7.81 11.96s-9.03-10.49-4.88-14.4c4.15-3.9 5.61 5.61 5.61 5.61.73-3.17 7.08-7.07 7.08-3.17ZM163.43 120.44c0 3.9-7.8 11.95-7.8 11.95s-9.03-10.49-4.89-14.39c4.15-3.91 5.62 5.61 5.62 5.61.73-3.17 7.07-7.08 7.07-3.17ZM181.46 99.67c0 3.9-7.81 11.95-7.81 11.95s-9.02-10.49-4.88-14.39c4.15-3.91 5.62 5.61 5.62 5.61.73-3.17 7.07-7.08 7.07-3.17ZM203.71 116.13c0 3.91-7.81 11.96-7.81 11.96s-9.03-10.49-4.88-14.4c4.15-3.9 5.61 5.61 5.61 5.61.74-3.17 7.08-7.07 7.08-3.17ZM237.08 105.45c0 3.91-7.8 11.96-7.8 11.96s-9.03-10.49-4.89-14.4c4.15-3.9 5.62 5.61 5.62 5.61.73-3.17 7.07-7.07 7.07-3.17Z" fill="#FFDCD1"/><path d="M55.8 159.65c-2.23 11.31-2.81 23.76-2.28 36.49.33 8.41 1.16 16.95 2.3 25.36 6.1 44.95 21.33 86.33 21.33 86.33l-3.73.89H54.01L43.46 221.5l-3.07-25.36-5.56-46.03-1.11-9.14-.45-3.81-10.1-.2-9.5-49.25 95.52.98.61.01c-3.83 1.3-22.12 8.41-36.94 29.46-3.88 5.52-7.53 12-10.61 19.58-.09.23-.18.45-.26.67-1.54 3.83-2.91 7.95-4.11 12.35-.78 2.84-1.47 5.8-2.08 8.89Z" fill-opacity=".38" fill="#9B0A0A"/><path d="M181.17 58.05s9.88 2.18 9.49 13.84c-.4 11.67-17.01 11.08-18.59-.98" stroke="#3F0606" stroke-width=".76" stroke-linecap="round" stroke-linejoin="round"/><path d="M143.89 85.55c.41.89.73 1.8.95 2.74l-.5.17-42.16-.75c.42-1.5 1.08-2.91 1.96-4.24-13.98-3.41-54.3-29.92-53.02-39.29 1.34-9.79 4.9-7.12 16.91-12.9 0 0 4.67 21.13 13.58 31.81 6.15 7.4 15.09 13.94 24.88 17.56 2.4.89 4.84 1.59 7.3 2.1 2.02.42 4.05.69 6.08.82 3.7.22 7.59-.03 11.6-.8 2.83-.54 5.7-1.33 8.62-2.39 9.35-3.38 18.96-9.48 27.84-18.62 9.59-9.88 16.49-19.41 20.36-25.27 5.85 2.04 8.03 2.51 9.01 9.7 1.28 9.46-39.79 36.35-53.41 39.36Z" fill-opacity=".478" fill="#9B0A0A"/><path d="m258.186 115.87-25.703 8.082-63.288-26.725 15.214-33.057 60.478 25.703 13.299 25.996Zm-64.12-29.833a6.71 6.71 0 0 0-4.011-8.601c-3.472-1.264-7.338.539-8.601 4.01a6.71 6.71 0 0 0 4.01 8.601 6.693 6.693 0 0 0 8.601-4.01Z" fill="#FFDCD1"/><path d="M181.17 58.05s9.88 2.18 9.49 13.84c-.124 3.605-1.794 6.04-4.09 7.329" stroke="#3F0606" stroke-width=".76" stroke-linecap="round" stroke-linejoin="round"/><path d="M225.952 93.874c-1.897 5.212-16.209 12.157-16.209 12.157s-6.95-18.365.466-21.568c7.437-3.197 4.76 10.205 4.76 10.205 2.52-3.875 12.88-6.007 10.983-.794Z" fill="#B90A03"/></g></svg>