<svg width="379" height="288" xmlns="http://www.w3.org/2000/svg"><g fill="none" fill-rule="evenodd"><path d="M45.857 32.051c3.35-3.44 7.849-4.691 12.765-4.125 7.367.851 17.02 8.435 32.986 23.354 4.606 4.304 9.4 8.952 14.2 13.73l1.566 1.564.08-.877a612.517 612.517 0 0 1 2.083-19.633l.22-1.746c2.566-20.122 5.012-31.283 9.933-36.48 3.401-3.593 7.65-5.525 12.426-5.045 3.545.356 6.217 1.768 9.23 4.11l.435.352c1.123.92 3.717 3.096 4.667 3.818l.115.086c2.005 1.478 3.612 2.195 5.422 2.375 2.164.219 3.954.29 6.21.278l2.848-.037a60.811 60.811 0 0 1 1.753 0c8.066.136 13.125 3.394 17.343 11.407 2.36 4.492 1.982 9.219.14 14.72a42.763 42.763 0 0 1-.6 1.673l-.116.3 50.685 2.679.234-.047c4.787-.894 9.464 1.846 11.15 6.251l.07.196L259.14 67.16c4.466 4.15 4.199 11.274-.502 15.086l-.224.177-14.767 11.312.479 13.891a10 10 0 0 1-6.486 9.708l-.27.097-1.595.546 7.645 47.169 4.125 25.484 14.204 87.648a10 10 0 0 1-6.45 10.996l-125.45 45.66a10 10 0 0 1-12.338-4.873l-39.745-78.35-11.56-22.784-20.964-41.346-1.975-3.89-1.33.455a10 10 0 0 1-11.664-4.084l-.149-.24L4.352 136.79c-3.25-5.426-.71-12.468 5.255-14.57l55.067-19.405-.669-.157c-1.89-.447-3.784-.924-5.667-1.428l-.705-.19c-7.73-2.098-14.636-4.492-19.952-7.003-7.929-3.745-12.842-7.62-14.22-13.984-1.883-8.703-.183-14.406 5.678-19.62l.302-.264c.723-.627 3.358-2.765 3.832-3.163a56.582 56.582 0 0 0 4.278-3.953c1.258-1.291 2.029-2.876 2.615-5.298l.069-.304c.328-1.521 1.037-5.592 1.193-6.318.803-3.731 1.943-6.531 4.429-9.083Z" fill="#FFF" fill-rule="nonzero"/><path d="M109.381 82.894s.316 5.664-4.065 9.855c-1.624 1.56-3.91 2.913-7.105 3.693-.5.118-1.07.219-1.716.284-14.304 1.577-61.259-9.544-63.26-18.787-2.09-9.658 2.168-8.366 11.477-17.905 9.306-9.549 2.881-23.311 12.766-22.174 9.32 1.077 47.211 40.155 51.51 44.624.256.269.393.41.393.41ZM134.559 85.085c-.414.268-.81.497-1.171.671-4.707 2.33-8.58 2.038-11.451.965-3.746-1.404-5.798-4.147-5.798-4.147s.059-.862.168-2.403c.817-11.322 4.618-59.093 10.644-65.458 6.842-7.225 10.757 7.45 24.03 8.77 3.524.357 6.288.35 8.52.315 6.196-.084 8.405-.388 11.785 6.034 4.438 8.451-24.958 47.766-36.727 55.253Z" fill="#B90A03"/><path d="M137.886 90.28c3.28 9.012-3.246 19.646-14.56 23.764-11.314 4.117-23.14.164-26.42-8.848a13.85 13.85 0 0 1-.803-3.815c-.118-1.554.02-3.104.392-4.655a17.328 17.328 0 0 1 1.243-3.454c2.089-4.378 6.043-8.308 11.25-10.788a26.31 26.31 0 0 1 7.32-2.313c4.65-.788 9.163-.26 12.912 1.356 2.042.874 3.853 2.077 5.339 3.558.69.696 1.301 1.442 1.83 2.25a14.296 14.296 0 0 1 1.497 2.945Z" fill="#9B0404"/><path d="m220.724 87.596 3.658 22.624.17 1.023 2.34 14.44 6.655 41.06 4.126 25.487 14.204 87.647-125.45 45.66-39.744-78.352-11.558-22.78-20.968-41.353-4.17-8.209-1.725-3.426-9.02-17.766c.184.507 16.71-5.284 39.724-13.629 10.362-3.75 22.036-8.02 34.125-12.463 8.983-3.301 18.203-6.71 27.276-10.055 41.659-15.418 80.357-29.908 80.357-29.908Z" fill="#E54554"/><path fill="#FC525C" d="m232.29 54.346 1.84 53.624-6.405 2.193-3.172 1.08-76.908 26.257-13.208 4.5-14.31 4.889-44.435 15.161-27.43 9.367-9.56 3.266-25.771-43.03 90.094-31.75.577-.198 26.84-9.471z"/><path fill="#B90A03" d="m233.547 166.744 4.126 25.486-150.99 54.955-11.558-22.78z"/><path d="M202.363 161.206c1.624 4.463-3.945 16.908-3.945 16.908s-14.682-8.235-11.561-14.425c3.115-6.178 8.744 4.085 8.744 4.085-.483-3.931 5.137-11.032 6.762-6.568ZM201.177 215.548c1.338 3.674-3.248 13.91-3.248 13.91s-12.073-6.769-9.51-11.862c2.556-5.081 7.193 3.362 7.193 3.362-.402-3.238 4.232-9.075 5.565-5.41ZM230.484 216.013c1.337 3.674-3.249 13.91-3.249 13.91s-12.076-6.779-9.51-11.863c2.565-5.084 7.19 3.353 7.19 3.353-.389-3.232 4.235-9.065 5.569-5.4ZM213.611 257.282c1.334 3.665-3.252 13.901-3.252 13.901s-12.073-6.769-9.507-11.853c2.562-5.094 7.19 3.353 7.19 3.353-.388-3.232 4.232-9.075 5.57-5.4ZM242.89 263.695c1.334 3.665-3.252 13.9-3.252 13.9s-12.073-6.768-9.507-11.852c2.562-5.094 7.2 3.35 7.2 3.35-.398-3.23 4.222-9.072 5.56-5.398ZM197.125 125.238c1.337 3.674-3.248 13.91-3.248 13.91s-12.064-6.773-9.511-11.863c2.566-5.084 7.203 3.36 7.203 3.36-.402-3.239 4.222-9.072 5.556-5.407ZM172.958 154.243c1.334 3.664-3.249 13.91-3.249 13.91s-12.076-6.779-9.51-11.863c2.562-5.094 7.2 3.35 7.2 3.35-.399-3.229 4.222-9.072 5.559-5.397ZM219.744 138.789c1.337 3.674-3.249 13.91-3.249 13.91s-12.073-6.77-9.51-11.863c2.556-5.08 7.19 3.353 7.19 3.353-.398-3.228 4.235-9.065 5.569-5.4ZM111.857 250.038c1.334 3.664-3.249 13.91-3.249 13.91s-12.076-6.779-9.51-11.863c2.562-5.094 7.19 3.353 7.19 3.353-.389-3.232 4.231-9.075 5.569-5.4Z" fill="#FFDCD1"/><path fill-opacity=".49" fill="#9B1F34" d="m227.588 109.085.137 1.078-3.172 1.08 2.34 14.44L76.039 175.78l-21.882 7.272-4.17-8.209-.297-2.892 25.987-9.182 58.76-20.77 89.945-31.78z"/><path fill="#B90A03" d="m130.441 90.234 75.156 206.488-27.317 9.943-75.255-206.761z"/><path d="M145.958 238.18c1.333 3.664-3.252 13.9-3.252 13.9s-12.074-6.77-9.508-11.853c2.563-5.094 7.19 3.353 7.19 3.353-.398-3.229 4.232-9.075 5.57-5.4ZM154.086 270.658c1.334 3.665-3.252 13.9-3.252 13.9s-12.073-6.769-9.507-11.853c2.562-5.093 7.2 3.35 7.2 3.35-.399-3.229 4.222-9.071 5.56-5.397ZM133.517 300.865c1.337 3.674-3.249 13.91-3.249 13.91s-12.073-6.77-9.51-11.863c2.566-5.084 7.194 3.362 7.194 3.362-.402-3.238 4.231-9.074 5.565-5.41ZM114.876 161.176c1.334 3.665-3.248 13.91-3.248 13.91s-12.077-6.779-9.51-11.863c2.556-5.08 7.19 3.353 7.19 3.353-.399-3.228 4.234-9.065 5.568-5.4ZM111.89 192.88c1.337 3.674-3.249 13.91-3.249 13.91s-12.073-6.77-9.51-11.863c2.565-5.084 7.193 3.362 7.193 3.362-.392-3.241 4.232-9.074 5.565-5.41ZM80.03 177.328c1.337 3.675-3.25 13.91-3.25 13.91s-12.072-6.769-9.51-11.862c2.566-5.084 7.194 3.362 7.194 3.362-.402-3.238 4.231-9.074 5.565-5.41ZM43.895 130.737c1.337 3.674-3.248 13.91-3.248 13.91s-12.074-6.769-9.511-11.862c2.566-5.085 7.19 3.353 7.19 3.353-.398-3.229 4.235-9.066 5.569-5.4ZM79.062 140.2c1.334 3.665-3.252 13.9-3.252 13.9s-12.073-6.768-9.507-11.853c2.563-5.093 7.19 3.353 7.19 3.353-.388-3.232 4.232-9.074 5.57-5.4ZM103.614 116.578c1.337 3.674-3.249 13.91-3.249 13.91s-12.073-6.769-9.51-11.862c2.565-5.085 7.19 3.353 7.19 3.353-.398-3.229 4.235-9.066 5.569-5.4ZM164.854 111.188c1.333 3.665-3.243 13.897-3.243 13.897s-12.073-6.769-9.517-11.85c2.563-5.093 7.2 3.35 7.2 3.35-.398-3.229 4.222-9.071 5.56-5.397ZM174.692 85.504c1.334 3.665-3.251 13.9-3.251 13.9s-12.064-6.772-9.508-11.853c2.563-5.093 7.2 3.35 7.2 3.35-.398-3.229 4.222-9.071 5.56-5.397ZM201.23 93.361c1.338 3.675-3.248 13.91-3.248 13.91s-12.073-6.769-9.511-11.862c2.566-5.084 7.19 3.353 7.19 3.353-.388-3.232 4.235-9.065 5.57-5.4ZM228.935 71.912c1.337 3.674-3.24 13.907-3.24 13.907s-12.072-6.77-9.52-11.86c2.567-5.084 7.2 3.35 7.2 3.35-.398-3.228 4.226-9.062 5.56-5.397Z" fill="#FFDCD1"/><path d="M77.125 184.845c1.773 11.39 5.486 23.288 10.338 35.07 3.186 7.79 6.887 15.53 10.835 23.043 21.106 40.153 49.57 73.829 49.57 73.829l-3.2 2.112-18.24 6.638-39.745-78.352-11.558-22.78-20.968-41.353-4.17-8.209-1.725-3.426-9.56 3.266-25.771-43.03 90.094-31.75.577-.198c-3.154 2.531-17.91 15.468-24.636 40.317-1.758 6.514-2.972 13.852-3.274 22.028-.006.247-.015.485-.015.719-.137 4.126-.015 8.466.362 13.01.238 2.936.602 5.954 1.086 9.066Z" fill-opacity=".38" fill="#9B0A0A"/><path d="M160.185 46.493s10.03-1.33 13.651 9.76c3.616 11.103-12.194 16.23-17.804 5.437" stroke="#3F0606" stroke-width=".76" stroke-linecap="round" stroke-linejoin="round"/><path d="M134.559 85.085c.69.696 1.301 1.442 1.83 2.25l-.412.33-39.874 13.716c-.118-1.554.02-3.104.392-4.655-14.304 1.577-61.259-9.544-63.26-18.787-2.09-9.658 2.168-8.366 11.477-17.905 0 0 11.616 18.258 23.641 25.247 8.31 4.85 18.948 7.938 29.385 7.991 2.56.016 5.092-.161 7.578-.523a43.506 43.506 0 0 0 5.994-1.31c3.552-1.058 7.122-2.623 10.627-4.718a55.98 55.98 0 0 0 7.283-5.194c7.63-6.374 14.574-15.393 19.792-27.02 5.633-12.563 8.857-23.879 10.49-30.709 6.195-.084 8.404-.388 11.784 6.034 4.438 8.451-24.958 47.766-36.727 55.253Z" fill-opacity=".478" fill="#9B0A0A"/><path d="M252.331 74.485 230.943 90.87l-68.612-3.468 2.991-36.267 65.621 3.469 21.388 19.88Zm-70.456-6.103a6.71 6.71 0 0 0-6.71-6.71c-3.695 0-6.711 3.015-6.711 6.71a6.71 6.71 0 0 0 6.71 6.71c3.72 0 6.71-2.99 6.71-6.71Z" fill="#FFDCD1"/><path d="M160.185 46.493s10.03-1.33 13.651 9.76c1.117 3.43.38 6.29-1.337 8.285" stroke="#3F0606" stroke-width=".76" stroke-linecap="round" stroke-linejoin="round"/><path d="M214.519 64.84c0 5.547-11.074 16.968-11.074 16.968s-12.813-14.88-6.938-20.427c5.895-5.547 7.962 7.962 7.962 7.962 1.044-4.503 10.05-10.05 10.05-4.503Z" fill="#B90A03"/><path d="M353.967 77.228c-7.594-4.744-17.686-9.21-26.608-11.588-5.325-1.42-10.227-2.118-14.603-1.923l-.445.023c-2.663.157-5.159.65-7.421 1.538l-.218.088-.125-.035c-6.25-1.693-12.702 3.086-12.566 9.855l.01.34-.001.116c-.003.194-.013.425-.032.693l-.04.486c-.434 4.717-2.334 10.758-6.5 17.674l-.628 1.023-6.025 9.683-1.896 3.088c-5.984 9.95-9.132 17.183-10.852 26.286l-.096.535a31.404 31.404 0 0 0-.315 8.342l.023.219-.396.059c-6.963 1.065-13.017 3.838-17.508 8.921l-1.102 1.254c-5.951 6.823-9.087 11.26-10.38 13.948a10 10 0 0 0-.9 3.002l-.046.413c-.668 7.064 6.016 12.524 12.766 10.539l1.276-.4 1.386-.421c.833-.25 1.73-.51 2.68-.779 3.747-1.058 7.602-2.03 11.336-2.813 4.617-.97 8.707-1.576 11.963-1.737l.398-.018c1.161-.045 2.163-.027 2.975.045l.344.035-3.952 10.686a7045.91 7045.91 0 0 1-8.522 22.87l-3.628 9.656-3.546 9.38-3.495 9.17c-5.228 13.651-9.234 23.785-11.667 29.435l-.642 1.468a54.09 54.09 0 0 1-.826 1.784l-.404.808c-.854 1.68-2.3 4.418-4.293 8.123l-1.711 3.175.039-.108c1.628-4.57 2.71-9.912 3.195-16.058 1.202-15.229-8.346-28.772-24.28-40.739l-.5-.373c-10.732-7.972-24.963-15.242-30.534-15.922a10 10 0 0 0-10.262 5.671l-.345.759c-.11.248-.235.533-.373.853l-.216.506a114.71 114.71 0 0 0-2.076 5.282c-2.03 5.548-3.763 11.45-4.976 17.51-3.391 16.937-2.246 32.026 5.833 43.757l.386.554c3.996 5.679 8.476 10.084 13.295 13.3l.346.228-.363-.134a38.892 38.892 0 0 0-6.856-1.783c-4.051-.678-8.397-.763-13.027-.22-8.02.94-15.359 4.712-22.049 10.596-5.744 5.052-10.744 11.405-15.087 18.478a104.666 104.666 0 0 0-4.153 7.415l-.44.88a57.705 57.705 0 0 0-1.104 2.344 10 10 0 0 0 2.518 11.476c3.677 3.27 15.835 8.137 26.741 10.559l.518.113c16.837 3.631 31.177 2.202 40.601-7.464 7.397-7.595 11.386-14.998 12.301-22.093l.06-.495.045-.456 7.727-2.397-8.944 16.195c-4.909 8.875-9.987 18.043-15.1 27.26l-16.57 29.834c-2.845 5.11-.714 11.561 4.615 13.973l10.228 4.628a10 10 0 0 0 12.78-4.105l.883-1.626 9.63-17.839c7.797-14.457 15.63-29.007 22.991-42.718l13.304-24.834c12.587-23.559 20.217-38.067 21.847-41.658l.234-.525.5-1.166c.231-.549.49-1.174.778-1.876l1.132-2.799 13.265-4.287.235.247c4.535 4.672 10.873 8.27 19.2 9.657 4.044.673 8.382.756 13.003.215 12.482-1.463 22.974-9.491 31.996-21.502 2.968-3.952 5.577-8.095 7.83-12.218a98.5 98.5 0 0 0 1.847-3.546l.515-1.059c.27-.568.48-1.025.627-1.358a10 10 0 0 0-2.714-11.678l-.293-.242c-4.031-3.223-16.31-8.05-27.14-10.337l-.568-.118-1.157-.23c-15.176-2.916-28.184-1.51-37.184 6.632l-.365.335 5.535-14.564 2.435-6.42.359-.09c5.628-1.47 10.573-5.4 13.776-11.884l.097-.199.035.049c.542.742.974 1.459 1.279 2.136 1.295 2.886 2.07 5.242 2.441 7.086.102.504.163.92.194 1.254l.019.252-.026.216c-.881 8.23 8.357 14.041 15.455 9.342l.224-.152c.177-.126.177-.126.388-.284 3.67-2.802 6.662-7.618 7.094-14.403l.023-.42c.268-5.75-1.441-12.051-5.28-18.976l-.148-.265.05-.035c3.43-2.363 6.458-5.403 9.063-8.966 3.921-5.363 6.727-11.828 7.78-17.099l.094-.49c1.043-5.703 5.89-15.814 11.803-23.08l1.673-2.044c2.225-2.702 3.956-4.735 5.245-6.18l.5-.554c.152-.168.29-.317.414-.45l.43-.453-.111.098a10 10 0 0 0 3.32-5.947l.052-.355.02-.167.03-.299.033-.453c.288-4.88-1.548-10.16-6.192-14.524l-.178-.164-.033-.173a29.56 29.56 0 0 0-1.672-5.425c-2.582-6.236-7.303-11.845-14.358-16.258Z" fill="#FFF" fill-rule="nonzero"/><path d="m292.813 261.232-2.931-2.606s-5.97-8.359 8.435-23.147c14.41-14.781 51.131 1.087 54.054 3.7l-36.913 23.076-22.645-1.023Z" fill="#86303D"/><path d="m264.22 266.517 88.151-27.338s-13.669 31.299-34.825 33.778c-21.156 2.479-27.462-11.929-27.462-11.929l-26.794 8.658.93-3.17Z" fill="#5B1D29"/><path d="M339.873 113.408S299.2 86.404 305.007 77.394c5.792-9.012 30.708.223 43.657 8.312 12.941 8.096 11.813 18.885 11.813 18.885l-20.604 8.817Z" fill="#7F0505"/><path d="m331.122 99.851-47.15 59.445s-10.567-9.931-8.13-22.864c2.446-12.939 8.68-21.408 17.748-36.13 9.068-14.724 8.39-25.303 8.39-25.303 28.015 13.723 29.142 24.852 29.142 24.852Z" fill="#9E0505"/><path d="M339.178 89.632c1.519 1.545 3.152 2.107 5.047.57 1.894-1.538-7.69-7.594-13.204-9.404-5.505-1.816-13.006-2.65-5.092 3.686 7.921 6.329 16.074 9.853 18.584 11.506 2.504 1.646-1.39 1.937-5.14.75-3.737-1.186-21.2-12.523-21.166-17.134.04-4.603 15.214.054 20.65 3.546 5.437 3.492 8.682 6.161 7.747 8.982-.943 2.828-14.498-1.254-14.945-5.566-.438-4.318 8.293 1.357 8.293 1.357s-2.3.154-.774 1.707Z" fill="#540505"/><path d="M301.258 175.168s-35.372 93.894-40 104.122c-4.643 10.226-68.208 127.803-68.208 127.803l-10.228-4.629s63.688-114.442 70.294-127.883c6.614-13.447 39.428-102.844 39.428-102.844l8.714 3.431Z" fill="#5B1D29"/><path d="M192.896 271.094 184.443 219c4.712.576 48.526 21.38 46.557 46.321-1.97 24.955-14.358 26.185-14.358 26.185l-4.719-.583-19.027-19.829Z" fill="#86303D"/><path d="m227.803 324.58-13.506-31.341s-18.18 5.777-32.821-15.5c-14.65-21.27 2.967-58.739 2.967-58.739l45.515 102.205-2.155 3.375Z" fill="#5B1D29"/><path d="m192.918 317.014 2.923 2.612s5.969 8.358-8.435 23.147c-14.41 14.78-51.124-1.094-54.055-3.7l36.913-23.076 22.654 1.017Z" fill="#86303D"/><path d="m221.502 311.735-88.15 27.338s13.676-31.305 34.832-33.784c21.157-2.48 27.461 11.942 27.461 11.942l26.787-8.666 1.23 2.43-2.16.74Z" fill="#5B1D29"/><path d="M320.745 175.617c18.465 23.094 7.458 30.777 7.458 30.777s.88-4.225-3.462-13.896c-4.349-9.68-18.68-17.719-18.68-17.719s-3.78-22.256 14.684.838Z" fill="#A34053"/><path d="M308.715 174.955s1.144 4.288-2.95 14.08c-4.099 9.784-11.841 7.978-11.841 7.978s1.056-5.337 1.56-14.01c.51-8.679-9.262-15.844-9.262-15.844-8.855-5.388-40.979 5.053-40.979 5.053s1.54-3.407 9.976-12.94c8.43-9.54 26.887-4.937 26.887-4.937 1.304 8.461 26.61 20.62 26.61 20.62Z" fill="#86303D"/><path d="M357.038 124.265c-7.739 9.508-12.73 21.28-13.886 27.603-1.15 6.33-7.958 22.081-22.407 23.749-14.448 1.667-37.436-11.836-38.64-21.282-1.189-9.445 1.161-32.003 13.978-43.658 12.816-11.656 38.442-13.055 55.044-9.636 16.601 3.418 15.27 12.394 15.27 12.394s-1.621 1.32-9.36 10.83Z" fill="#B90A03"/></g></svg>