<svg width="285" height="319" xmlns="http://www.w3.org/2000/svg"><g fill="none" fill-rule="evenodd"><path d="m263.383 27.09-.5-.187c-6.696-2.447-14.422-3.043-21.728-1.926l-.411.065-.197-.474c-2.674-6.33-6.653-11.856-12.378-15.877-7.57-5.318-17.101-7.016-28.047-4.589-11.733 2.606-19.294 10.789-22.706 22.35l-.196.683c-.763 2.742-1.297 5.63-1.623 8.648l-.022.206-.055.005a9.962 9.962 0 0 0-7.247 3.974l-.214.296-.33.483c-.12.18-.252.38-.395.599l-.146.225a68.046 68.046 0 0 0-1.617 2.644c-1.557 2.678-2.977 5.502-4.142 8.417l-.18.457c-3.203 8.21-4.01 15.851-.683 22.455l.197.382-.17.305c-3.521 6.19-7.503 9.969-10.831 10.029-11.539.204-21.203 1.385-30.54 4.344-12.304 3.9-22.562 10.622-30.202 20.762l-.414.557c-2.825 3.837-7.626 11.357-14.103 22.013l-3.719 6.154c-.581.97-1.24 2.074-2.05 3.43l-3.263 5.505-1.627 2.762a2356.383 2356.383 0 0 0-4.298 7.339l-1.399 2.4-.205.346-2.366 4.1-2.411 4.156c-1.41 2.452-2.796 4.878-4.178 7.31l-4.806 8.464-4.904 8.72c-2.7 4.828-5.413 9.736-8.125 14.697l-3.632 6.68-2.88 5.338c-14.598 27.186-22.303 43.526-22.718 50.147-.685 11.212 9.687 23.557 27.862 37.593 16.051 12.395 37.116 24.841 58.236 34.23l3.056 1.353c6.425 2.83 11.61 5.037 16.33 6.936l1.567.628c15.78 6.278 26.845 9.215 36.62 9.24 11.833.032 21.502-4.37 30.003-13.477 4.838-5.195 12.305-17.498 22.117-35.845l2.92-5.527.081-.136c.063-.11.124-.222.183-.335l.153-.304 2.594-4.985 2.395-4.65 3.186-6.287c.934-1.85 1.843-3.663 2.734-5.452l2.221-4.492.438-.9 1.223-2.451.754-1.53.147-.313.104-.242 1.693-3.453c.83-1.701 1.608-3.311 2.361-4.889l.596-1.215 3.611-7.584 1.293-2.769.87-1.844c.295-.626.592-1.263.894-1.91l2.862-6.14 2.817-6.142a804.316 804.316 0 0 0 3.315-7.352l.787-1.775.468-1.034c.108-.242.212-.478.314-.713l.06-.148 2.618-5.953 1.22-2.809c9.576-22.136 14.65-36.13 14.615-42.34-.029-4.831-1.18-9.453-3.278-14.225l-.281-.63c-1.314-2.902-2.707-5.37-5.347-9.715l-.99-1.63c-4.55-7.532-5.905-10.755-5.833-14.128l.024-.738c.181-4.439 1.034-8.968 2.32-13.26l.212-.694.364.053c3.065.416 5.726.293 8.19-.464 7.317-2.26 12.135-7.823 15.072-15.172 1.778-4.45 2.72-9.14 3.127-13.651l.032-.376c.076-.925.11-1.613.121-2.068l.003-.306a9.989 9.989 0 0 0-1.916-5.818l-.115-.154.363-.338c7.472-7.043 12.174-14.927 13.195-23.963 1.732-15.396-5.904-27.048-19.12-32.1Z" fill="#FFF" fill-rule="nonzero"/><path d="M232.246 217.603c-.877 2.003-1.773 4.047-2.693 6.124l-.001.014c-.24.554-.487 1.1-.741 1.653a793.722 793.722 0 0 1-4.906 10.878c-.648 1.406-1.297 2.825-1.947 4.245a843.666 843.666 0 0 1-1.956 4.187 606.523 606.523 0 0 1-2.663 5.694c-.428.92-.864 1.848-1.293 2.769-.477.987-.947 1.982-1.417 2.977-.729 1.512-1.443 3.026-2.165 4.545-.199.402-.39.797-.588 1.198a747.086 747.086 0 0 1-4.172 8.579 4.396 4.396 0 0 0-.082.213 416.245 416.245 0 0 1-1.956 3.938c-.45.926-.9 1.852-1.348 2.75a1141.04 1141.04 0 0 1-5.434 10.839c-.712 1.407-1.425 2.814-2.136 4.207-.496.964-.99 1.915-1.478 2.859-.453.876-.89 1.739-1.342 2.6-.63 1.21-1.253 2.397-1.867 3.578a.478.478 0 0 1-.1.162c-.666 1.29-1.338 2.559-1.993 3.8-9.287 17.48-17.287 31.033-21.682 35.752-13.268 14.213-28.127 12.87-57.148 1.154-5.774-2.322-12.086-5.054-19.056-8.148-42.1-18.717-81.001-48.617-80.18-62.06.323-5.154 10.797-26.213 24.392-51.315.66-1.206 1.312-2.419 1.973-3.639.016-.027.025-.047.042-.074a1748.646 1748.646 0 0 1 9.676-17.545c1.672-2.97 3.345-5.94 5.018-8.923 1.106-1.933 2.206-3.874 3.306-5.815a1727.38 1727.38 0 0 1 5.483-9.614 477.387 477.387 0 0 0 1.84-3.175c.976-1.668 1.93-3.33 2.876-4.973.084-.149.16-.277.242-.412 2.448-4.207 4.826-8.265 7.143-12.194 1.15-1.957 2.29-3.867 3.389-5.715.016-.027.033-.054.042-.075a946.917 946.917 0 0 1 3.897-6.494c6.923-11.461 12.478-20.274 15.442-24.302 13.77-18.733 36.686-21.293 53.279-21.587 11.304-.204 18.707-12.865 22.282-20.942.08-.199.183-.389.299-.577 1.689-2.919 5.529-3.896 8.461-2.035l40.87 25.963 11.975 7.627a5.89 5.89 0 0 1 2.28 2.656 6.053 6.053 0 0 1 .117 4.666c-1.901 4.86-4.494 13.157-4.713 22.309-.313 14.53 15.641 25.92 15.727 40.6.026 4.573-6.078 20.635-14.994 41.078Z" fill="#CEDDF0"/><path d="M174.24 154.664c42.105 27.42 56.585 16.72 58.13 32.407 1.552 15.68-67.437 148.277-86.627 153.114-19.184 4.845-120.51-50.803-123.056-65.024-2.37-13.232 69.484-137.529 79.478-154.726a6.007 6.007 0 0 1 3.492-2.761c19.958-5.977 28.026 10.593 68.582 36.99Z" fill="#F63D4B"/><path d="m229.553 223.727-.001.014c-.052.11-.098.226-.152.349-.194.437-.395.867-.59 1.304a793.722 793.722 0 0 1-4.905 10.878c-.648 1.406-1.297 2.825-1.947 4.245a843.666 843.666 0 0 1-1.956 4.187 606.523 606.523 0 0 1-2.663 5.694c-.428.92-.864 1.848-1.293 2.769-.477.987-.947 1.982-1.417 2.977a637.646 637.646 0 0 1-2.165 4.545c-.199.402-.39.797-.588 1.198a765.465 765.465 0 0 1-4.172 8.579 4.396 4.396 0 0 0-.082.213c-.647 1.313-1.295 2.626-1.956 3.938-.45.926-.9 1.852-1.348 2.75a1141.04 1141.04 0 0 1-5.434 10.839c-.712 1.407-1.425 2.814-2.136 4.207-.496.964-.99 1.915-1.478 2.859-.453.876-.89 1.739-1.342 2.6-.63 1.21-1.253 2.397-1.867 3.578a.478.478 0 0 1-.1.162c-1.27 2.28-3.888 3.471-6.455 2.963-2.617-.52-5.59-1.17-8.915-1.958a290.838 290.838 0 0 1-24.317-6.905c-31.656-10.485-74.407-30.522-109.624-67.887a176.43 176.43 0 0 1-3.509-3.792 6.055 6.055 0 0 1-.874-6.877c.016-.027.025-.047.042-.074a1748.646 1748.646 0 0 1 9.676-17.545c1.665-2.963 3.33-5.94 5.018-8.923 1.106-1.933 2.206-3.874 3.306-5.815 1.83-3.233 3.667-6.458 5.483-9.614a477.387 477.387 0 0 0 1.84-3.175c.976-1.668 1.93-3.33 2.876-4.973.084-.149.16-.277.242-.412 2.435-4.223 4.828-8.294 7.143-12.194 1.15-1.957 2.29-3.867 3.389-5.715.016-.027.033-.054.042-.075 2.01-3.252 6.468-3.835 9.266-1.248.034.01.047.026.059.055l.014.002c14.873 13.758 47.948 38.691 108.63 59.218 8.665 2.938 17.894 5.754 27.693 8.47l2.453.684a6.044 6.044 0 0 1 4.114 7.905Z" fill="#FFE3D1"/><path d="M133.355 144.351c-2.711 7.38-23.072 17.154-23.072 17.154s-9.754-26.109.803-30.594c10.55-4.492 6.694 14.512 6.694 14.512 3.59-5.492 18.3-8.45 15.575-1.072ZM162.97 168.272c1.495 5.298-6.018 19.213-6.018 19.213s-16.27-10.785-12.14-17.671c4.145-6.885 9.772 5.468 9.772 5.468-.223-4.59 6.89-12.308 8.385-7.01ZM202.94 192.353s12.3-5.752 10.975 2.174c-1.317 7.92-20.688 5.572-20.688 5.572s3.304-15.461 7.88-18.518c4.57-3.064 4.98 7.428 1.833 10.772ZM52.872 249.233c1.495 5.298-6.018 19.213-6.018 19.213s-16.27-10.786-12.131-17.678c4.136-6.878 9.763 5.475 9.763 5.475-.223-4.59 6.898-12.315 8.386-7.01ZM57.883 279.334s12.3-5.752 10.983 2.167c-1.325 7.927-20.696 5.579-20.696 5.579s3.304-15.462 7.888-18.525c4.57-3.064 4.971 7.434 1.825 10.779ZM94.48 278.035c1.496 5.299-6.017 19.214-6.017 19.214S72.2 286.47 76.33 279.585c4.13-6.886 9.757 5.467 9.757 5.467-.216-4.583 6.905-12.307 8.394-7.017ZM111.904 307.356s12.286-5.754 10.975 2.174c-1.318 7.92-20.696 5.578-20.696 5.578s3.312-15.468 7.881-18.532c4.57-3.064 4.972 7.434 1.84 10.78ZM150.398 307.011s12.3-5.752 10.975 2.174c-1.317 7.92-20.688 5.572-20.688 5.572s3.305-15.461 7.88-18.518c4.578-3.07 4.98 7.428 1.833 10.772Z" fill="#C6243B"/><path d="M249.724 85.333C238.53 92.155 227.46 95.95 227.46 95.95L189.09 70.836s-14.73-50.769 13.197-56.971c27.933-6.195 31.626 23.564 31.626 23.564 14.904-6.88 41.274-2.664 38.653 20.644-1.29 11.408-12.111 20.71-22.842 27.26Z" fill="#F63D4B"/><path d="M249.68 111.479c-2.407.74-7.311-.328-13.57-2.53-5.84-2.043-12.857-5.085-20.098-8.565h-.014c-17.64-8.514-36.673-19.67-43.475-25.645-.884-.773-1.548-1.456-1.98-2.033-6.8-8.928 5.732-26.741 5.732-26.741 2.737 2.468 5.942 4.935 9.49 7.375 12.72 8.764 29.684 17.127 44.299 23.622a456.614 456.614 0 0 0 9.426 4.062 581.59 581.59 0 0 0 10.353 4.249c6.805 2.696 11.133 4.26 11.133 4.26s-.441 18.594-11.296 21.946Z" fill="#A3BCD0"/><path d="M162.12 224.79c-5.036 13.678-42.78 31.812-42.78 31.812s-18.082-48.4 1.484-56.726c19.567-8.324 12.418 26.903 12.418 26.903 6.653-10.165 33.921-15.658 28.878-1.988Z" fill="#9E0505"/><path d="M147.849 104.35c14.337.4 12.676-2.522 22.235-9.526 9.565-7.012 15.377 1.898 12.702 7.094-2.684 5.19-17.087 14.825-29.652 19.111-12.558 4.279-14.765-5.288-14.765-5.288s-4.858-11.79 9.48-11.391Z" fill="#EFF8FE"/><path d="m249.724 85.333-10.37-4.222s17.887-11.275 16.552-25.063c-1.337-13.76-21.993-18.619-21.993-18.619 14.904-6.88 41.274-2.664 38.653 20.644-1.29 11.408-12.111 20.71-22.842 27.26Z" fill="#C6243B"/><path d="M232.246 217.603c-.877 2.003-1.773 4.047-2.693 6.124l-.001.014c-.052.11-.098.226-.152.349-.194.437-.395.867-.59 1.304a793.722 793.722 0 0 1-4.905 10.878c-.648 1.406-1.297 2.825-1.947 4.245a843.666 843.666 0 0 1-1.956 4.187 606.523 606.523 0 0 1-2.663 5.694c-.428.92-.864 1.848-1.293 2.769-.477.987-.947 1.982-1.417 2.977a637.646 637.646 0 0 1-2.165 4.545c-.199.402-.39.797-.588 1.198a765.465 765.465 0 0 1-4.172 8.579 4.396 4.396 0 0 0-.082.213c-.647 1.313-1.295 2.626-1.956 3.938-.45.926-.9 1.852-1.348 2.75a1141.04 1141.04 0 0 1-5.434 10.839c-.712 1.407-1.425 2.814-2.136 4.207-.496.964-.99 1.915-1.478 2.859-.453.876-.89 1.739-1.342 2.6-.63 1.21-1.253 2.397-1.867 3.578a.478.478 0 0 1-.1.162c-.666 1.29-1.338 2.559-1.993 3.8-9.287 17.48-17.287 31.033-21.682 35.752-13.268 14.213-28.127 12.87-57.148 1.154 3.668-1.12 7.487-3.476 11.394-6.832 6.013-5.203 12.217-12.759 18.376-21.738 3.618-5.256 7.215-10.989 10.751-17.01.2-.338.408-.682.615-1.026 15.993-27.426 30.63-60.386 39.513-80.542a192.873 192.873 0 0 0 3.505-8.502c.83-2.184 1.581-4.276 2.238-6.263 2.436-7.488 3.625-13.695 3.937-19.048.294-4.659-.098-8.69-.888-12.4-1.526-7.06-4.555-12.926-7.414-19.678-3.536-8.416 1.403-20.575 7.237-30.627l.008-.006a127.16 127.16 0 0 1 5.727-8.997c3.759-5.399 6.77-8.983 6.77-8.983s1.109.062 3.09-.283l.015.001c1.5-.28 3.482-.78 5.843-1.717a41.422 41.422 0 0 0 5.604-2.718c8.066-4.654 3.345-17.14 2.605-18.987a1.9 1.9 0 0 0-.1-.229l9.85 4.07 10.345 4.27 10.817 4.46s-.441 18.594-11.296 21.946c-2.407.74-7.311-.328-13.57-2.53a6.053 6.053 0 0 1 .116 4.667c-1.901 4.86-4.494 13.157-4.713 22.309-.313 14.53 15.641 25.92 15.727 40.6.026 4.573-6.078 20.635-14.994 41.078Z" fill-opacity=".349" fill="#9E0505"/></g></svg>