<svg width="264" height="220" xmlns="http://www.w3.org/2000/svg"><g fill="none" fill-rule="evenodd"><path d="m76.056 4.057-.782.189c-9.352 2.321-17.854 6.552-25.333 12.447l-.687.547-.303.19C40.535 22.745 32.76 31.42 25.722 43.768.785 87.498-2.087 104.074 11.464 138.521c6.049 15.371 22.542 37.576 46.297 64.682 8.24 9.403 16.82 18.765 25.28 27.7l2.072 2.182a960.702 960.702 0 0 0 5.782 6.02l2.14 2.2 2.17 2.21.204.206a10 10 0 0 0 10.97 2.18l.367-.162c.571-.261 1.33-.612 2.262-1.049l1.346-.634a541.597 541.597 0 0 0 7.163-3.455l.782-.384a612.567 612.567 0 0 0 24.786-12.918l1.07-.59c22.76-12.608 41.67-25.102 54.525-37.017l.394-.368.73-.448c25.75-15.923 44.119-33.619 52.694-53.579 13.045-30.363 8.416-64.1-11.684-84.555l-.667-.668c-20.343-20.086-51.413-23.043-85.946-6.672l-.869.416.27.38c-3.947-5.601-8.5-11.198-13.63-16.452-8.144-8.341-16.986-15.043-26.554-19.47-11.996-5.552-24.576-7.233-37.362-4.22Z" fill="#FFF" fill-rule="nonzero"/><path d="M200.09 173.69c-23.58 29.38-97.58 62.99-97.58 62.99S33.5 167.21 20.77 134.86C8.04 102.5 11.76 88.44 34.41 48.72c22.64-39.72 46-24.74 46-24.74s143.25 120.33 119.68 149.71Z" fill="#D33545"/><path d="M243.31 131.35c-23.38 54.42-131.79 85.51-131.79 85.51s-72.07-80.5-81.2-110.85c-9.12-30.35 6.53-82.44 48.03-92.22 41.5-9.78 71.58 43.09 71.58 43.09 75.45-42.55 116.76 20.05 93.38 74.47Z" fill="#F1444F"/><path d="M147.981 56.43a2 2 0 0 1 3.926.753l-.559 2.445-5.272 22.742-4.58 19.666c-2.608 11.176-5.19 22.194-7.685 32.784l-4.71 19.925c-8.819 37.152-14.375 59.572-15.707 62.82l-.429.968a335.54 335.54 0 0 1-2.05 4.485l-.895 1.917-1.217 2.574a835.947 835.947 0 0 1-1.888 3.95l-1.681 3.473-.658 1.349a2 2 0 0 1-3.655-1.619l.184-.39 1.57-3.233 1.267-2.63c.63-1.315 1.253-2.623 1.858-3.904l.971-2.064 1.01-2.17a278.225 278.225 0 0 0 1.908-4.216c1.08-2.454 6.572-24.592 15.005-60.068l4.602-19.446 3.78-16.076c2.77-11.806 5.612-23.982 8.45-36.184l6.455-27.85Z" fill="#AF192F" fill-rule="nonzero"/><path d="M26.457 78.526a2 2 0 0 1 2.147-.62l206.32 66.54a2 2 0 0 1-1.228 3.807L28.658 82.126 15.063 98.354a2 2 0 0 1-2.687.35l-.13-.1a2 2 0 0 1-.25-2.818l14.46-17.26Z" fill="#AF192F" fill-rule="nonzero"/><path d="M145.922 98.51c-2.476 2.982-4.745 6.168-6.763 9.353a89.726 89.726 0 0 0-1.633 2.678l-.502.871-.408.735a2 2 0 0 0 1.22 2.868c13.701 3.868 27.585.1 36.353-8.259 8.568-8.168 9.003-18.23-.956-21.487-9.143-2.996-18.398 2.51-27.311 13.242Zm26.065-9.44c6.413 2.097 6.14 8.405-.558 14.791l-.318.298c-7.146 6.605-18.062 9.875-29.194 7.718l-.476-.096.017-.029c.334-.554.694-1.139 1.08-1.749 1.932-3.05 4.104-6.099 6.461-8.937 7.964-9.589 15.91-14.315 22.988-11.995Z" fill="#AF192F" fill-rule="nonzero"/><path d="M102.07 79.065c-.107 3.446 2.086 7.959 6.034 13.189 7.197 9.534 19.197 19.949 26.815 23.131a2 2 0 0 0 2.762-1.656l.01-.284v-.41c-.01-2.084-.156-4.718-.52-7.698-.537-4.407-1.457-8.72-2.848-12.728-3.89-11.207-10.857-18.447-21.544-19.568-6.641-.7-10.564 1.381-10.709 6.024Zm10.29-2.046c8.9.934 14.752 7.016 18.184 16.902 1.29 3.714 2.151 7.756 2.657 11.9l.066.558c.147 1.293.251 2.51.32 3.628l.013.245-.17-.098c-6.878-4.019-16.252-12.519-22.134-20.31-3.435-4.551-5.299-8.385-5.228-10.654.056-1.804 1.666-2.658 6.293-2.171Z" fill="#AF192F" fill-rule="nonzero"/><path d="M137.324 113.646a2 2 0 1 1 3.832 1.148c-1.222 4.08-.461 6.053 2.858 8.896l.617.515 2.439 1.972c2.977 2.471 4.872 4.665 6.21 7.685 2.247 5.093 1.19 9.41-2.316 11.914a9.177 9.177 0 0 1-.503.335l-.061.036.02.225c.242 3.08-1.113 6.473-3.642 9.533l-.22.261c-4.09 4.792-9.742 7.19-13.218 4.263-1.996-1.685-2.786-3.619-2.152-5.546.463-1.406 1.56-2.47 3.06-3.355 1.014-.597 2-.997 2.706-1.217a2 2 0 0 1 1.333 3.768l-.356.124c-.095.035-.211.08-.345.134-.45.182-.9.397-1.306.636-.743.438-1.2.883-1.292 1.16-.016.05-.015.082.026.182.107.263.392.623.904 1.055 1.223 1.03 4.752-.467 7.598-3.801 1.731-2.027 2.717-4.097 2.874-5.916l.009-.124-.15.018c-1.632.17-3.206-.096-4.36-.851l-.2-.139c-2.036-1.508-3.242-4.718-2.506-6.854.585-1.698 2.234-2.467 4.059-1.935 1.355.395 2.9 1.497 4.725 3.33.346.348.653.71.923 1.084l.066.093.147-.127c1.493-1.356 1.866-3.429.642-6.38l-.124-.288c-1.042-2.354-2.562-4.114-5.106-6.226l-2.55-2.063c-4.858-3.996-6.455-7.492-4.64-13.545Zm5.944 28.619.053.109c.197.385.457.753.745.966.127.093.356.171.657.216l.044.005-.085-.082a16.905 16.905 0 0 0-1.16-1.02l-.254-.194ZM132.654 112.345a2 2 0 1 1 3.792 1.27l-.101.294a36.6 36.6 0 0 1-.799 2.019 39.28 39.28 0 0 1-2.559 5.014c-1.106 1.815-2.287 3.372-3.552 4.611l-.38.359.015.09c.032.21.061.422.087.634l.035.32c.656 6.413-2.216 11.483-8.334 11.938-.232.018-.467.031-.703.04-2.586.105-5.052-.206-8.418-.917l-3.229-.69c-1.124-.231-1.815-.357-2.242-.41l-.227-.024.01.042c.188.904.783 2.334 1.834 4.323l4.824 8.987c.882 1.615 1.14 2.01 1.315 2.124l.028.016.052.021.143.029c.045.01.097.026.163.057l.07.038c.261.15 1.611-1.227 5.019-6.882a2 2 0 1 1 3.426 2.064l-.454.75c-1.92 3.146-3.237 5.024-4.423 6.235-1.775 1.81-3.672 2.39-5.567 1.297-1.156-.666-2.112-1.846-3.33-3.905l-.372-.645a64.12 64.12 0 0 1-.608-1.109l-1.732-3.252-2.225-4.212c-2.683-5.133-3.162-7.955-.56-9.426 1.045-.59 2.26-.629 3.987-.365l.455.074c.314.055.652.12 1.032.199l.911.195 1.982.439c3.354.73 5.667 1.044 7.975.951.191-.008.38-.019.568-.032 3.181-.237 4.808-2.64 4.722-6.425l-.006-.189-.135.05a8.691 8.691 0 0 1-2.319.464l-.3.013c-4.48.12-7.682-2.962-8.122-6.918-.457-4.113 2.352-7.404 6.765-6.674 2.725.451 5.042 2.83 6.495 6.012l.093.209.132-.16c.5-.624.994-1.324 1.478-2.094l.207-.334a35.354 35.354 0 0 0 2.295-4.502c.138-.323.265-.633.38-.925l.302-.793.105-.295Zm-12.14 6.828c-1.57-.26-2.321.62-2.136 2.286.219 1.97 1.728 3.423 4.039 3.362.654-.018 1.315-.192 1.976-.512l.144-.073-.09-.26c-.9-2.525-2.391-4.434-3.79-4.773l-.143-.03Z" fill="#AF192F" fill-rule="nonzero"/><path d="M243.02 118.5c-5.16 10.53-13.69 7.05-14.05-20.3-.36-27.35-24.44-25.03-24.65-33.96-.21-8.93 10.02-6.03 10.02-6.03 31.4 10.8 33.84 49.76 28.68 60.29ZM91.66 173.84c-5.1.32-31.72-33.2-34.52-46.22-2.8-13.01 10.43-6.88 10.43-6.88 40.21 48.29 29.19 52.77 24.09 53.1Z" fill-opacity=".278" fill="#FAFBF6"/></g></svg>