<svg width="310" height="299" xmlns="http://www.w3.org/2000/svg"><g fill="none" fill-rule="evenodd"><path d="M192.89 14.156c4.022-7.566 12.872-9.815 19.435-4.146.11.094.218.19.325.288l.15.143.1-.007c2.558-.13 5.269.492 7.988 2.062l.326.193c5.435 3.294 7.077 9.358 5.114 14.832-.993 2.766-2.734 5.15-5.067 7.506-3.288 3.321-7.994 6.665-11.42 8.13-5.685 2.444-11.138.27-14.493-3.994l-.254-.332c-.004 5.39-1.833 11.417-4.705 16.66-1.908 3.482-4.192 6.41-6.897 8.451-2.731 2.06-5.931 3.2-9.148 3.052a9.934 9.934 0 0 1-.357 3.056l-.17.556-1.52 4.695c-.358 1.098-.727 2.23-1.108 3.393l52.695-14.515a10 10 0 0 1 11.922 5.882c5.822 14.349 13.024 36.034 17.916 55.05l.265 1.035c5.429 21.362 7.875 38.131 6.199 49.87l-.062.412.018-.004c4.386-1.319 8.744-1.55 12.277-.101l.293.125c2.908 1.288 5.065 3.276 6.508 5.672l.045.077.29.015c11.059.64 17.795 10.124 16.446 24.488l-.059.585c-1.004 9.28-6.343 16.185-14.313 19.683-.87.382-1.764.72-2.677 1.014l-.361.112.128.226c1.351 2.438 2.312 4.888 2.83 7.3l.098.481c1.243 6.518-.832 12.904-6.717 16.257a12.471 12.471 0 0 1-3.413 1.344l-.339.072-.18.205-.254.272-.263.27c-.44.44-.907.84-1.394 1.198l-.03.02.697 1.527c1.971 4.287 3.852 8.097 5.545 11.2l.544.985c3.364 6.002 7.77 9.213 13.018 10.594 1.9.5 3.799.719 5.587.72.505 0 .969-.018 1.385-.048l.302-.025c.27-.025.437-.046.43-.045l.054-.01c8.86-1.538 15.09 8.486 9.788 15.75-11.126 15.24-27.057 23.438-45.408 26.21-6.349.96-12.582 1.196-18.496.9a85.104 85.104 0 0 1-5.893-.494l-.762-.096a52.683 52.683 0 0 1-1.588-.231l-.558-.095c-8.69-1.57-11.194-12.77-4.125-17.914l.29-.209.187-.145.417-.334c.293-.24.612-.513.953-.82a35.547 35.547 0 0 0 4.507-4.907c1.733-2.28 3.181-4.752 4.258-7.395 1.233-3.025 1.267-7.763-.114-15.479l-.176-.923-.087-.431-.061.014c-1.841.367-3.792.297-5.71-.224l-.303-.086c-4.268-1.265-7.093-3.948-9.316-7.721l-.108-.186-.172-.004a12.907 12.907 0 0 1-4.052-.824l-.366-.144a13.74 13.74 0 0 1-4.274-2.791c-1.965-1.868-3.139-4.05-3.728-6.425l-.021-.092-.332.041c-6.177.702-12.353-1.035-17.723-5.391l-.364-.301c-11.317-9.497-13.176-21.207-5.544-29.436l.137-.146-.039-.166c-.567-2.541-.412-5.303.71-8.216l.14-.35c1.555-3.83 5.214-6.909 9.721-9.08l.497-.233-.064-.046c-4.149-3.008-8.13-7.276-12.309-13.392l-.37-.545c-3.984-5.925-9.429-21.262-16.786-45.343l-1.11-3.655-.944-3.14-.397-1.326a1750.615 1750.615 0 0 1-6.778-23.353c-.819 2.363-1.634 4.694-2.445 6.991l-1.112 3.14-.888 2.488c-.452 1.26-.899 2.502-1.344 3.73l-1.759 4.819c-7.069 19.214-12.334 31.606-16.186 36.925l-.14.191c-5.112 6.892-9.843 11.476-14.733 14.53l-.352.216.044.02c5.135 2.447 9.35 5.954 11.002 10.225l.114.306c1.166 3.264 1.195 6.304.395 9.045l-.076.249.039.043c7.8 8.78 5.559 20.746-6.417 30.149l-.484.374c-6.044 4.621-12.882 6.188-19.573 4.965l-.407-.078-.022.096c-.637 2.497-1.874 4.76-3.933 6.653l-.3.268a14.98 14.98 0 0 1-.692.567c-2.58 1.984-5.556 2.92-8.539 2.849l-.331-.013-.183.29c-2.427 3.781-5.382 6.443-9.657 7.609l-.38.099c-2.154.531-4.365.537-6.43-.038l-.397-.12-.23.933-.05.207c-2.078 8.841-2.342 14.258-1.074 17.83 1.88 5.306 5.015 9.882 8.567 13.465l.295.294c.45.445.867.832 1.238 1.159l.515.44c7.011 5.328 4.196 16.414-4.408 17.825l-.266.04a50.3 50.3 0 0 1-2.873.292c-12.601.976-27.071-.388-41.114-6.04-12.874-5.182-23.709-13.516-31.59-25.428-4.94-7.466 1.663-17.111 10.341-15.316l.217.045.275.047c.103.016.22.032.346.049 4.31.565 9.38-.043 14.034-2.675 3.27-1.849 6.178-4.634 8.668-8.633 2.222-3.57 4.778-8.184 7.488-13.46l.689-1.351-.087-.063a12.474 12.474 0 0 1-1.513-1.35l-.199-.214c-.179-.196-.35-.394-.514-.596l-.241-.305-.074-.017a13.048 13.048 0 0 1-3.627-1.523l-.302-.187c-5.85-3.704-7.668-10.314-6.083-16.943.687-2.872 2.005-5.786 3.869-8.657l.15-.23-.24-.078a29.961 29.961 0 0 1-3.156-1.268l-.508-.245c-8.112-4.014-13.316-11.422-13.914-21.105-.972-15.57 6.64-25.355 18.538-25.216l.145.003.057-.091c1.525-2.406 3.754-4.374 6.721-5.608l.36-.145c3.959-1.547 8.893-.971 13.763.89l.203.079-.024-.179c-1.544-12.212 1.659-29.772 8.356-52.166l.522-1.734C74.381 80.569 83.3 57.28 90.316 42.039a10 10 0 0 1 12.182-5.327l56.098 18.276a56.007 56.007 0 0 1-3.428-5.206c-2.113-3.672-3.465-7.123-3.767-10.6-.558-6.42 2.819-12.28 9.48-14.236 4.325-1.271 8.25-.92 11.55.602l.264.125.222-.157c.613-.42 1.24-.8 1.88-1.133l.385-.194c5.954-2.91 11.91-1.513 15.745 2.761-.496-4.575.039-9.188 1.963-12.794Zm-61.187-8.808c6.77-5.854 15.776-3.656 20.099 4.108l.157.289c2.752 5.176 2.899 12.451 1.27 19.01-.84 3.382-2.134 6.402-4.033 8.814-3.517 4.465-9.15 6.71-15.027 4.187-3.871-1.665-9.296-5.522-13.059-9.321-2.61-2.635-4.541-5.276-5.615-8.26-2.06-5.726-.37-11.99 5.288-15.42 3.318-2.009 6.623-2.683 9.693-2.334l.094.013.167-.177c.208-.212.42-.418.637-.616l.33-.293Z" fill="#FFF" fill-rule="nonzero"/><path d="M247.21 221.42c1.64-.83 13.59.01 19.48 7.04 5.89 7.04 6.71 13.26 3.27 15.22-3.44 1.97-7.36-5.89-7.36-5.89s3.43 7.04.81 9.66c-2.61 2.61-3.92-5.89-6.71-12.93-2.78-7.04-12.11-9.33-12.11-9.33s.99-2.95 2.62-3.77Z" fill="#D21112"/><path d="M237.23 193.82c1.31 13.97 18.76 60.66 29.89 80.52 11.13 19.86 31.21 16.15 31.21 16.15-21.82 29.89-62.85 22.25-62.85 22.25s9.17-6.33 13.97-18.11c4.8-11.78-1.75-29.45-7.64-56.51s-19.85-42.33-19.85-42.33 13.96-15.93 15.27-1.97Z" fill="#FFC7CF"/><path d="M226.54 73.82c9.38 23.12 30.55 87.49 22.25 106.48-8.29 18.98-31.63 18.76-35.78 17.67-4.15-1.09-10.47-3.27-18.55-15.27-8.07-12-29.67-91.87-29.67-91.87l61.75-17.01Z" fill="#FFC7CF"/><path d="M240.18 226.66c-.01.01-.1.25-.27.73-.99 2.82-4.36 13.27-2.68 20.71 1.96 8.67 3.76 17.35-.65 16.04-4.42-1.31-6.88-11.78-6.88-11.78s-3.93 5.72-7.36 2.45c-3.44-3.27 2.29-14.89 2.94-17.18.66-2.29 9.33-12.11 9.33-12.11l5.57 1.14Z" fill="#D21112"/><path d="M202.07 222.95s-5.95-3.15-4.12-7.61c1.82-4.48 14.74-7.57 20.49-6.07 5.76 1.51 15.63 5.41 18.36 8.25 2.71 2.83 1.42 8.82 1.42 8.82s-8.38 2.15-13.49 9.57c-5.13 7.42-15.69 14.15-25.02 6.32s-8.94-15.01 2.36-19.28Zm16.63 7.63c4.35-3.27 8.55-5.03 11.43-4.63 2.88.4 7-1.94 7-1.94l-1.43-3.85s-10.02-2.64-15.63-.2c-5.6 2.42-10.87 4.98-12.34 9.12-1.47 4.14 6.62 4.77 10.97 1.5Z" fill="#D21112"/><path d="m233.74 126.84 3.05 2.83s9.82 31.86 3.49 44.73c-6.32 12.88-14.18 13.97-23.56 10.48-9.38-3.49-16.8-15.06-22.26-29.24-5.45-14.18-16.8-46.26-16.8-46.26l56.08 17.46Z" fill="#FFB878"/><path d="M247.38 219.46c0 3.98-3.23 7.2-7.2 7.2-3.98 0-7.21-3.22-7.21-7.2 0-3.97 3.23-7.2 7.21-7.2 3.97 0 7.2 3.23 7.2 7.2Z" fill="#D21112"/><path d="M286 206.21c-1.31 12.11-13.59 14.57-22.42 12.77-8.83-1.82-16.37 2.44-16.37 2.44s-5.08-3.43-5.08-7.35c0-3.94 4.43-13.59 7.54-18.67 3.11-5.06 14.56-11.77 18.99-9.81 4.4 1.95 2.28 8.35 2.28 8.35 11.12-4.75 16.37.16 15.06 12.27Zm-14.89-3.93c-3.93-1.97-9.5-.17-15.22 1.97-5.73 2.12-11.13 10.96-11.13 10.96l1.63 3.77s4.59-1.16 6.39-3.45c1.8-2.29 6.05-3.92 11.45-4.57 5.4-.66 10.8-6.71 6.88-8.68Z" fill="#D21112"/><path d="M189.01 109.82c10.04 5.45 24 6.98 30.33 8.94 6.33 1.97 15.49 1.53 17.45 8.51 1.97 6.99-3.71 15.5-22.69 11.13-18.98-4.36-24.87-19.64-29.89-23.13-5.02-3.49-6.55-5.89-6.55-5.89.87-7.2 1.31-5.02 11.35.44Z" fill="#EF9D59"/><path d="M205.65 147.62c0 2.08-1.69 3.76-3.77 3.76s-3.76-1.68-3.76-3.76 1.68-3.76 3.76-3.76 3.77 1.68 3.77 3.76ZM216.61 151.63a1.72 1.72 0 1 1-3.44 0 1.72 1.72 0 0 1 3.44 0ZM218.9 168.57c0 1.81-1.46 3.27-3.27 3.27s-3.27-1.46-3.27-3.27 1.46-3.28 3.27-3.28 3.27 1.47 3.27 3.28ZM232.81 151.71c0 1-.8 1.8-1.8 1.8a1.799 1.799 0 1 1 0-3.6c1 0 1.8.81 1.8 1.8ZM233.96 166.93c0 1.18-.96 2.13-2.13 2.13-1.18 0-2.13-.95-2.13-2.13 0-1.17.95-2.13 2.13-2.13 1.17 0 2.13.96 2.13 2.13ZM193.54 134.69c0 1-.81 1.8-1.8 1.8-1 0-1.8-.8-1.8-1.8a1.799 1.799 0 1 1 3.6 0ZM208.75 160.06a2.62 2.62 0 0 1-2.61 2.62c-1.45 0-2.62-1.18-2.62-2.62a2.616 2.616 0 1 1 5.23 0ZM226.92 177.08a2.29 2.29 0 1 1-4.58 0c0-1.27 1.02-2.29 2.29-2.29a2.29 2.29 0 0 1 2.29 2.29Z" fill="#FFD0A9"/><path d="M219.23 78.51c2.07-.22 4.36.32 3.6 2.94-.77 2.62-48.55 14.51-50.3 13.53-1.74-.98-1.74-2.95-1.74-2.95s46.37-13.31 48.44-13.52ZM252.94 264.79s5.56 10.97 4.09 20.95c-1.47 9.98-4.09 19.15-7.85 18.82-3.77-.33 5.23-8.35 4.74-17.51-.49-9.16-6.87-24.22-.98-22.26Z" fill="#FFEAED"/><path d="M72.75 206.61s-10.05 1.99-13.36 9.35c-3.31 7.36-5.12 16.36-7.78 13.44-2.66-2.91 1.34-10.24 1.34-10.24s-4.57 8.17-8.13 5.91c-3.57-2.26-2.39-8.84 4.23-16.05 6.62-7.21 19.39-7.51 21.09-6.55 1.71.96 2.61 4.14 2.61 4.14Z" fill="#D21112"/><path d="M98.31 176.4s-15.63 15.59-23.23 44.12c-7.6 28.54-15.44 47.05-10.9 59.84 4.53 12.79 13.99 19.98 13.99 19.98s-44.08 6.13-65.86-26.79c0 0 21.2 4.93 34.03-15.68 12.83-20.61 33.71-69.5 35.79-84.31 2.08-14.82 16.18 2.84 16.18 2.84Z" fill="#FFC7CF"/><path d="M164.35 67.38s-26.92 84.02-36.11 96.41c-9.19 12.39-16.04 14.41-20.51 15.37-4.47.96-29.35.05-37.26-20.58-7.9-20.63 17.8-88.18 28.93-112.36l64.95 21.16Z" fill="#FFC7CF"/><path d="M83.37 207.45s8.76 10.89 9.34 13.36c.59 2.47 6.12 15.13 2.3 18.45-3.82 3.32-7.72-2.98-7.72-2.98s-3.13 11.04-7.9 12.22c-4.78 1.18-2.43-7.97.08-17.12 2.16-7.84-.92-19.14-1.84-22.2-.16-.51-.24-.77-.24-.78l5.98-.95Z" fill="#D21112"/><path d="M119.73 226.96c-10.32 7.89-21.24.2-26.34-7.95-5.08-8.16-13.91-10.86-13.91-10.86s-1.08-6.45 1.95-9.33c3.04-2.89 13.76-6.56 19.97-7.89 6.2-1.31 19.8 2.61 21.53 7.48 1.73 4.84-4.77 7.89-4.77 7.89 11.84 5.11 11.9 12.78 1.57 20.66Zm-7.89-14.4c-1.37-4.48-6.85-7.47-12.71-10.32-5.85-2.87-16.66-.55-16.66-.55l-1.71 4.03s4.27 2.7 7.36 2.41c3.09-.29 7.48 1.8 11.95 5.49 4.48 3.7 13.13 3.42 11.77-1.06Z" fill="#D21112"/><path d="M149.73 86.51s-13.66 33.61-20.16 48.46c-6.51 14.84-14.98 26.8-25.15 30.06-10.17 3.26-18.48 1.71-24.59-12.31-6.11-14.03 5.91-47.49 5.91-47.49l3.39-2.87 60.6-15.85Z" fill="#FFB878"/><path d="M78.09 193.06c4.24.19 7.51 3.78 7.32 8.02a7.685 7.685 0 0 1-8.02 7.32c-4.24-.2-7.52-3.79-7.32-8.03a7.665 7.665 0 0 1 8.02-7.31Z" fill="#D21112"/><path d="M46.21 172.02s-1.95-6.91 2.84-8.77c4.81-1.88 16.69 5.83 19.75 11.37 3.07 5.57 7.31 16.07 7.12 20.26-.2 4.18-5.78 7.59-5.78 7.59s-7.81-4.91-17.31-3.4c-9.5 1.48-22.46-1.74-23.26-14.7-.81-12.97 5.02-17.94 16.64-12.35Zm6.31 18.47c5.72.96 10.18 2.91 11.98 5.43 1.81 2.53 6.64 3.99 6.64 3.99l1.93-3.94s-5.32-9.69-11.33-12.22c-5.99-2.56-11.83-4.75-16.12-2.85-4.27 1.91 1.18 8.62 6.9 9.59Z" fill="#D21112"/><path d="M149.73 86.51s-1.74 2.48-7.26 5.95c-5.52 3.48-12.54 19.46-32.98 23.18-20.44 3.72-26.07-5.62-23.63-12.97 2.43-7.34 12.17-6.43 19.01-8.21 6.84-1.78 21.79-2.72 32.75-8.04 10.96-5.32 11.53-7.63 12.11.09Z" fill="#EF9D59"/><path d="M122.24 122.05c2.21.1 3.93 1.98 3.82 4.2a4.012 4.012 0 0 1-4.19 3.82 4.02 4.02 0 0 1-3.83-4.19 4.022 4.022 0 0 1 4.2-3.83ZM108.08 127.86c1.01.05 1.79.91 1.75 1.92a1.848 1.848 0 0 1-1.92 1.75 1.833 1.833 0 0 1-1.74-1.92c.04-1.01.9-1.79 1.91-1.75ZM106.54 144.22a3.489 3.489 0 1 1-3.64 3.32 3.48 3.48 0 0 1 3.64-3.32ZM90.91 127.08c1.06.04 1.88.94 1.83 2a1.923 1.923 0 0 1-3.84-.17c.05-1.06.95-1.88 2.01-1.83ZM89.31 142.9a2.268 2.268 0 1 1-2.37 2.16 2.256 2.256 0 0 1 2.37-2.16ZM133.59 110.87c1.05.04 1.87.94 1.82 2a1.908 1.908 0 0 1-2 1.83 1.92 1.92 0 0 1-1.83-2c.05-1.06.95-1.88 2.01-1.83ZM117.04 136.31a2.794 2.794 0 0 1-.26 5.58 2.785 2.785 0 0 1-2.66-2.91 2.796 2.796 0 0 1 2.92-2.67ZM96.49 153.89a2.44 2.44 0 0 1 2.33 2.55 2.448 2.448 0 0 1-2.56 2.33 2.431 2.431 0 0 1-2.32-2.55 2.44 2.44 0 0 1 2.55-2.33Z" fill="#FFD0A9"/><path d="M157.9 68.36s-.09 2.09-2 3.05c-1.91.97-52.24-14.04-52.92-16.87-.69-2.83 1.78-3.3 3.98-2.96 2.19.33 50.94 16.78 50.94 16.78ZM59.78 272.06c-.97 9.74 8.23 18.73 4.2 18.89-4.02.16-6.37-9.73-7.45-20.44-1.08-10.7 5.39-22.11 5.39-22.11 6.37-1.81-1.17 13.92-2.14 23.66Z" fill="#FFEAED"/><path d="M184.86 36.5c1.75 7.42-6.54 23.79-11.56 19.86-5.02-3.93-17.02-19.64-9.6-21.82 7.42-2.18 8.94 6.76 8.94 6.76 3.93-7.85 10.48-12.22 12.22-4.8ZM143.13 14.44c2.93 5.51-.21 20.19-5.01 18.13-4.79-2.06-17.57-11.98-12.16-15.26 5.42-3.28 8.5 3.48 8.5 3.48 1.47-7.03 5.73-11.86 8.67-6.35ZM208.95 24.15s2.57-5.64 7.08-2.91c4.52 2.74-6.14 11.02-10.14 12.73-4 1.72-6.62-10.53-4.17-15.12 2.44-4.59 6-.57 7.23 5.3Z" fill="#D21112"/></g></svg>