<svg width="500" height="325" xmlns="http://www.w3.org/2000/svg"><g fill="none" fill-rule="evenodd"><g fill-rule="nonzero"><path d="M146.05 78.795c11.874-8.88 27.67-13.286 43.897-9.961 13.852 2.839 24.006 14.052 31.26 26.787 11.755 4.517 19.272 9.17 22.06 11.035l-.008.312.848 2.376 80.201 124.627c.748.856 1.285 1.667 1.579 2.423 4.49 11.54-136.05 100.33-154.94 107.72-17.946 7.02-23.807 5.955-24.348 5.83l-.035-.008-.401-.432c-13.54-15.092-80.256-120.11-80.256-120.11l-1.837-2.75a5.292 5.292 0 0 1-.023-.02l.001-.017v-.004l.003-.018c.07-.741 1.162-12.102 2.952-28.172-13.38-18.887-14.226-38.9 1.364-57.109a45.592 45.592 0 0 1 6.855-6.508c3.837-24.953 8.242-46.64 12.505-52.072 5.964-7.6 31.357-6.863 57.74-3.487Zm-9.493-35.641s-5.75-7.61-11.7-3.19c-5.95 4.42-2.25 14.55 2.81 19.19 5.06 4.64 14 8.47 14 8.47s11-9.26 11-22-11.3-10.69-16.11-2.47Zm-113.22 64.47s-4.84-8.21 1.51-12c6.35-3.79 14.31 3.47 16.67 9.91 2.36 6.44 2.48 16.21 2.48 16.21s-12.76 6.66-24.55 1.78c-11.79-4.88-5.55-14.6 3.89-15.9Zm36.38-77.58s-8-5.16-12.08 1 2.91 14.43 9.26 17c6.35 2.57 16.09 3.12 16.09 3.12s7.16-12.5 2.74-24.46-14.31-6.08-16.01 3.34Z" fill="#FF746C"/><path d="M146.186 26.529h.383c9.88.153 16.098 8.214 16.098 19.095 0 5.434-1.325 10.544-3.628 15.3a64.282 64.282 0 0 1 32.916-1.886c14.746 3.022 26.537 13.116 35.9 28.2l.213.347.047.02c8.373 3.435 15.14 7.067 20.226 10.417l.487.323a10 10 0 0 1 4.177 6.035l79.375 123.655.113.138c1.05 1.309 1.902 2.67 2.531 4.148l.182.447c1.7 4.37.691 8.163-1.583 11.878-1.227 2.004-2.937 4.072-5.162 6.36-3.6 3.701-8.765 8.172-15.416 13.41l-.648.51c-12.12 9.498-29.019 21.45-48.657 34.533l-1.018.678a1516.55 1516.55 0 0 1-7.789 5.145l-2.236 1.465c-33.931 22.183-68.467 42.909-78.107 46.68l-1.282.496c-11.211 4.292-19.284 6.113-24.982 6.15h-.303c-1.42-.012-2.634-.146-3.66-.382l-.164-.039a10 10 0 0 1-4.964-2.912l-.515-.558-.392-.443c-6.584-7.555-22.233-30.505-44.638-64.789l-3.695-5.664A5571.088 5571.088 0 0 1 73.08 259.15l-5.1-7.938c-1.98-3.088-3.862-6.028-5.626-8.79l-4.838-7.587-1.554-2.326a10 10 0 0 1-1.91-6.191l.016-.337.059-.668.457-4.629.35-3.454c.376-3.676.783-7.559 1.22-11.61l.507-4.671-.157-.246c-13.879-21.951-13.031-45.228 3.727-65.264l.54-.639a55.79 55.79 0 0 1 4.97-5.108l.18-.161.403-2.53C70.69 99.8 74.67 83.406 79.696 76.762l.164-.213c5.29-6.74 14.792-9.218 28.75-9.68 3.914-.13 8.203-.082 12.829.13l-.53-.476c-4.101-3.76-7.298-9.293-8.538-14.88-1.675-7.545.188-15.002 6.523-19.707 5.2-3.863 11.012-4.212 16.238-2.1l.37.153.157-.104c3.07-2.016 6.537-3.23 10.083-3.348l.444-.01ZM19.722 87.037c6.758-4.033 14.346-2.91 20.675 1.502 4.696 3.274 8.596 8.332 10.51 13.554 1.343 3.666 2.161 7.927 2.65 12.623a87.82 87.82 0 0 1 .316 3.861l.04.736c.05.945.074 1.708.083 2.257v.341a10 10 0 0 1-5.096 8.548l-.409.218-.196.099c-2.788 1.38-6.555 2.773-11.044 3.676-7.345 1.478-14.697 1.181-21.629-1.688-10.065-4.166-15.126-13.015-11.49-22.21 1.411-3.571 4.003-6.589 7.28-8.822l.159-.106-.002-.262c.002-.347.014-.696.036-1.047l.04-.53c.47-5.211 3.207-9.843 8.077-12.75Zm43.626-76.101c9.33-3.322 17.98 2.078 21.759 12.302 2.38 6.441 2.588 13.191 1.232 19.932a47.058 47.058 0 0 1-3.983 11.656l-.121.242c-.131.257-.254.49-.367.699l-.204.367a10 10 0 0 1-9.24 5.014l-.846-.056a84.523 84.523 0 0 1-3.06-.293c-2.847-.32-5.706-.77-8.445-1.387-2.52-.567-4.834-1.251-6.928-2.098-5.163-2.09-10.095-6.187-13.2-11.015-4.19-6.516-5.015-14.18-.645-20.777 2.946-4.448 7.36-6.97 12.288-7.426a18.545 18.545 0 0 1 2.388-.067l.205.011.115-.159c2.27-3.08 5.241-5.496 8.693-6.813l.36-.132Z" fill="#FFF"/><path d="M64.047 226.624s12.34-129.45 23.68-143.9c11.34-14.45 92.93 1.24 118 7.9 20.794 5.524 33.76 13.497 37.577 16.057l-.547 24.193s-158.95 111.99-178.71 95.75Z" fill="#FF746C"/><path fill="#751C0D" d="m65.907 229.394-1.86-2.79 179.13-119.87.93 2.61-5.01 59.51-28.85 64.95-69.91 13.25z"/><path d="M126.447 125.464s-37-8.78-58.08 15.84c-21.08 24.62-12.11 52.54 17.26 76.51 29.37 23.97 57.59 26.9 57.59 26.9l68.34-10.17 25.45-94.18s-11-64.14-47.06-71.53c-36.06-7.39-69.99 23.4-63.5 56.63Z" fill="#FFDFCB"/><path d="M146.557 349.934s5.5 1.57 24.39-5.82c18.89-7.39 159.43-96.18 154.94-107.72-4.49-11.54-65.71-36-65.71-36l-63.74 15.23-7.81 7.65-57.58 86.6 15.51 40.06Z" fill="#D11112"/><path d="M65.907 229.394s68.07 107.15 80.65 120.54l43.45-127.64-124.1 7.1ZM244.107 109.344l-47.67 106.28s89.49 5.16 129.46 20.82l-81.79-127.1ZM120.439 176.46c-.096.013-.227.05-.323.062-.002-.31-.002-.31.176-.586.216.166.146.37.11.549l.572-.541c-.014-.251-.218-.477-.016-.717.274-.133.634.092.895-.292-.144-.06-.264-.082-.348-.13-.06-.011-.215-.01-.203-.07-.097-.143.01-.371-.254-.453-.024-.036 0-.156-.013-.251.011-.06-.001-.156-.014-.251-.061-.323-.205-.382-.586-.176-.179.12-.299.097-.407-.141.154-.157.284-.349.403-.48-.049-.228-.11-.395-.146-.526a16.493 16.493 0 0 0-1.006-.413c-.072.048-.143.252-.335.122-.048-.072-.072-.108-.06-.167.2-.396.164-.527-.052-.693a7.016 7.016 0 0 0-.528-.32l-.096-.143a2.31 2.31 0 0 1 .272-.444c-.096-.143-.108-.238-.18-.346.07-.048.154-.156.225-.204-.048-.072-.085-.203-.169-.25-.167-.095-.073-.263-.145-.37-.072-.107-.205-.226-.336-.19-.18-.034-.322.062-.513.087-.06.144-.094.323-.165.527-.205-.381-.494-.655-.436-1.11.095-.012.227-.048.322-.06.023-.276.033-.491.056-.766-.168-.095-.336-.19-.492-.344-.132-.119-.193-.286-.278-.489l-.429.29c.034-.335.092-.635-.28-.8-.059-.011-.155-.154-.132-.274.01-.215-.097-.298-.194-.441-.205-.382-.565-.607-.925-.832-.037-.287-.063-.633-.1-.92-.3-.213-.565-.45-.948-.556-.12-.024-.228-.107-.336-.19.107-.228.141-.407.248-.635-.3-.213-.529-.475-.805-.653-.252-.142-.42-.237-.386-.571.048-.084-.097-.299-.18-.346-.431-.022-.445-.428-.65-.654-.145-.214-.253-.453-.421-.547-.252-.143-.361-.381-.53-.631-.434-.643-.975-1.214-1.444-1.833-.097-.143-.265-.238-.325-.405-.097-.143-.098-.298-.158-.465-.061-.167-.312-.154-.433-.332a8.913 8.913 0 0 0-.95-1.178c-.073-.108-.18-.19-.276-.178-.371-.01-.516-.225-.649-.499a3.132 3.132 0 0 1-.46-.99c-.012-.095-.168-.25-.252-.297-.431-.177-.884.077-1.001.52-.048.084.001.31.061.322.395.046.385.416.339.656-.046.394.254.608.387.882.06.167.324.25.456.368.301.37.805.653.653 1.276-.047.084.109.238.181.345.542.727.542.727.737 1.479l.049.071c.143.059.311.154.455.213-.07.359-.07.359.027.502.132.118.24.201.372.32.37.01.6.272.792.558.11.238.17.56.232.883.002.31.1.61.315.775.3.214.242.513.244.824.155-.001.346-.026.597-.04-.177.277-.128.503.028.658.372.32.352.906.76 1.203.015.562.435.799.854 1.035.048.072.145.215.097.299-.153.311-.021.43.267.548.179.035.24.357.29.584.098.454.208 1.003.83 1.155-.02.586.245.979.713 1.287.252.142.48.404.458.68.027.501.304.834.58 1.167.109.083.17.25.242.358l.626.929c.455.057.445.427.447.738.036.132.049.227.085.358.217.167.444.273.576.392.11.238.158.465.266.548.084.047.323-.061.454-.098.06.012.108.083.168.095 0 .155.037.286-.022.43-.058.144-.142.252.098.298-.13.192-.07.36.062.478.264.238.29.584.436.954.178-.276.478.093.68-.147.167-.216.348.13.586.02.203-.084.478-.062.729-.075.07-.204.058-.3-.121-.334Zm-3.906-5.943c.011-.06-.013-.095-.037-.13.024.035.012.095.012.095l.29.428c.167-.06.274-.133.417-.23.049.228.05.383-.201.397-.036.024-.132-.12-.18-.19-.275.132-.324-.095-.42-.237 0 0 .083-.109.119-.133Zm-.89-1.01c-.085-.204-.206-.382-.29-.585-.025-.036.058-.144.13-.192.035-.024.155 0 .18.035.024.191.204.226.336.345a.265.265 0 0 1 .133.274c-.035.18-.179.12-.334.121-.036.024-.096.013-.156.001Zm.493-1.581c.215.01.335.034.514.068-.142.252-.224.516-.558.637-.014-.25.021-.43.044-.705Zm-.52 3.158c-.18-.035-.276-.022-.336-.034a.547.547 0 0 1-.18-.19s.047-.084.083-.108a.337.337 0 0 1 .24.046c.06.012.072.108.192.286Zm-3.252-8.517c.048-.084.12-.132.19-.18.036-.024.06.011.12.023-.011.06-.047.084-.083.108-.035.024-.131.037-.227.05Zm.412.918c-.07.204-.082.264-.118.288-.012.06-.035.18-.143.096-.024-.035-.036-.131 0-.155.01-.06.082-.108.261-.229Zm-1.52-2.561c-.012.06-.048.084-.084.108-.06-.012-.083-.048-.143-.06.071-.047.083-.107.119-.131.06.011.083.047.108.083Zm8.003 11.861c.024.036.084.048.108.084l-.036.024c-.036.024-.06-.012-.096.012l.024-.12Zm1.576 1.797-.215.144-.024-.035.215-.145.024.036Zm-8.21-8.083c.036-.025.048-.084.083-.108.036-.025.084.047.144.058-.036.025-.047.084-.083.109-.036.024-.12-.024-.144-.06Zm-.22-.788c-.023-.036-.012-.096-.012-.096.06.012.096-.012.132-.036.024.035.012.095.012.095-.06-.011-.096.013-.131.037Zm7.103 8.986.049.071-.12-.023c-.024-.036.012-.06.012-.06.035-.024.06.012.06.012ZM108.07 159.9l.072.107-.072-.107ZM127.169 154.918c-.072.048-.155.157-.214.145-.372-.165-.78-.307-1.093-.771.18.035.287-.037.371.01.347.13.672.379.924.676a.52.52 0 0 1 .3.058c.046-.24.164-.527-.076-.729l.357-.24c-.193-.286-.421-.548-.519-.846-.098-.454-.494-.81-.557-1.288-.012-.096-.24-.202-.348-.285-.178.276-.284.503-.655.493-.096-.143-.312-.309-.313-.464-.002-.31-.313-.31-.29-.429.023-.275-.145-.37-.337-.5-.192-.13-.324-.25-.456-.368.057-.455.644-.279.725-.697-.132-.12-.3-.214-.456-.368-.132-.12-.229-.262-.481-.56.323.094.467.153.646.188-.157-.31-.302-.524-.435-.798-.454-.058-.505-.595-.936-.772-.228-.107-.277-.333-.135-.585.071-.049.059-.144.07-.204-.204-.226-.383-.105-.585-.02-.143.096-.299.097-.466.002l-.073-.107.073.107c.13-.192.56-.17.475-.529a1.672 1.672 0 0 1-.817-.748.613.613 0 0 0-.073-.263c-.193-.286-.446-.583-.84-.629-.25.324-.25.324-.525.302.118-.287.212-.61.294-.874-.275-.023-.574-.08-.91-.115.096-.168.179-.276.238-.42a1.617 1.617 0 0 1-.206-.38c-.261.228-.454-.058-.705-.045-.06.144-.118.288-.213.456-.264-.238-.433-.488-.649-.654-.024-.036-.191.025-.191.025-.033.49-.416.54-.677.769a10.001 10.001 0 0 1-.624-.308c.1.61.59.798 1.046 1.01.228.107.43.022.633-.063-.154.157-.309.313-.26.54.06.167.074.418.242.512.216.167.254.453.481.56.252.142.301.368.374.631a.8.8 0 0 0 .24.202c.372.165.434.488.495.81.039.442.375.787.45 1.205.023.036.107.083.131.119.386.571 1.046 1.01 1.05 1.787-.011.06.049.071.097.143.24.357.506.75.711 1.132l.145.214c-.047.24-.117.443-.188.647.145.214.206.38.326.56.155-.001.335.034.514.068-.046.24-.045.395-.056.61.276.178.528.32.72.45.025.192.026.347.038.443.037.131.05.227.062.322 0 .156-.083.264-.141.407.383.261.648.499.948.712.012.096-.023.12 0 .156-.058.144-.082.263-.14.407.155 0 .346-.026.49.033.263.082.085.358.242.513.024.036.084.047.108.083l.024.036c-.024-.036.011-.06.011-.06l.072-.048c.072.107.18.19.193.285-.044.706.305 1.146.774 1.61.024.036.012.095.025.191-.251.013-.466.003-.658.028.099.453.123.489.445.427.096-.012.227-.049.31-.001.229.106.42.236.637.403.024.035-.024.12 0 .155-.274.133-.384-.416-.693-.104.048.072.072.107.084.203.05.227.015.562.136.74.169.25.087.514.124.8a.368.368 0 0 0 .169.25c.335.19.373.477.339.812-.036.024.048.071.072.107.096-.013.227-.05.227-.05.239-.108-.002-.31.261-.383.396.2.744.486.544 1.037l.035-.024c.24.202.123.49.196.752l-.322.217c.039.442.22.787.675 1 .06.012.578.702.59.798.073.107.11.238.229.262.24.046.455.212.647.343.168.094.371.01.406-.17a.942.942 0 0 1-.013-.251c.022-.275.284-.504.499-.493.215.01.24.202.3.369.026.191.146.37.421.392.142-.252.309-.468.415-.695-.072-.108-.11-.239-.146-.37.277.333.478-.063.753-.04.275.022.538-.051.884-.077.011-.215.058-.454.068-.67.192-.025.407-.014.598-.039.095-.012.25-.169.226-.204-.122-.334.153-.467.355-.552.393-.265.846-.519 1.059-.974.524-.302.486-.744.328-1.21l.18.035c.539.26.634.248.99-.149.322-.372.474-.839.675-1.235.167-.06.334-.12.501-.182-.036-.13-.108-.238-.121-.334-.098-.453-.098-.453-.553-.51-.275-.023-.538-.105-.635-.404.118-.132.237-.264.38-.36-.454.098-.92.1-1.024.639-.012.06-.12.132-.155.156-.131.037-.251.014-.334.122-.226.204-.548.266-.618.625-.118.287-.549.266-.702.577-.083.108-.058.3-.105.539-.408-.297-.825-.067-.919.256-.188.491-.57.541-.916.722-.07.36-.08.73-.15 1.089a11.351 11.351 0 0 0-.731-.39c-.19.18-.165.526-.524.457 0-.156-.001-.311.022-.43.095-.169.322-.062.26-.385a5.495 5.495 0 0 1-.539-.26 1.018 1.018 0 0 1-.002-.466c-.478.062-.92.1-1.268-.184-.073-.107-.073-.263-.11-.394.275.022.419.081.492.344.037.131.228.106.275.022.047-.084.142-.252.094-.323-.265-.393-.53-.786-1.033-.915-.014-.25-.051-.537-.04-.753-.18-.19-.575-.236-.35-.595l-.611-.212c-.084-.048-.12-.179-.229-.262.18-.12.346-.181.549-.266-.384-.26-.66-.439-.603-.893l.18.035c.068-.67-.496-.966-.82-1.37-.479.062-.66-.44-1.055-.485-.05-.382-.1-.764-.126-1.11Zm-.669-1.992c.408.296.804.497.89 1.01-.177.277-.501.028-.692.208-.17-.406-.446-.739-.198-1.218Zm3.804 11.263c.321-.372.321-.372.718-.016-.239.11-.478.063-.718.016Zm-6.431-10.842c-.085-.203-.265-.393.045-.55.3.368.3.368-.045.55Zm-1.823-3.242c.18.035.347.13.55.2-.31.158-.31.158-.55-.2Zm-1.75-2.979c.048.072.132.12.156.155l-.011.06c-.06-.012-.084-.048-.144-.06-.024-.035-.013-.095-.001-.155Zm9.289 13.074c.084.048.132.12.216.167l-.059.143-.252-.142c-.024-.035.023-.12.095-.168Zm-8.485-14.656c-.12-.179-.204-.226-.193-.286-.024-.035.012-.06.024-.12.06.012.12.024.143.06-.011.06.001.155.026.346Zm8.475 17.262c.012-.06-.036-.13-.013-.25 0 0 .012-.06.047-.084.06.011.084.047.109.083.12.178.049.227-.143.251Zm-6.657-12.873c.06.012.083.047.143.06-.035.023-.083.107-.119.131 0 0-.083-.047-.108-.083.036-.024.048-.084.084-.108Zm1.703 5.454c.06.011.096-.013.156-.001.024.035.012.095.012.095-.011.06-.107.073-.143.097.012-.06-.036-.132-.025-.191Zm6.774 7.804c-.06-.012-.12-.023-.144-.06.011-.059.023-.119.095-.167l.12.023c-.012.06-.06.144-.071.204Zm-3.644-6.017c-.011.06-.083.108-.119.132 0 0-.024-.035-.06-.011.012-.06.048-.084.12-.132 0 0 .023.035.06.011Zm.577.547c-.036.024-.036.024-.047.084-.024-.036-.084-.047-.108-.083-.025-.036.011-.06.011-.06.06.012.084.047.144.059Zm3.904 7.713s-.036.024-.06-.012c0 0 .012-.06.047-.084 0 0 .024.036.06.012-.036.024-.011.06-.047.084Zm-6.597-12.551c-.06-.012-.095.012-.155 0l.012-.06c.035-.023.095-.012.131-.036 0 0-.012.06.012.096Zm3.037 10.897-.035.024-.29-.429c-.322.062-.393.265-.344.492.013.096.252.142.3.214.155-.157.262-.229.37-.301Zm-3.182-13.347c-.13.192-.2.395-.056.61.227-.05.358-.086.225-.36a.547.547 0 0 0-.109-.239l-.06-.011Zm.075 6.969-.024-.036c-.167.06-.323.061-.585.135.132.118.204.226.288.273.119-.132.202-.24.32-.372Zm-.015-6.958c.225-.36.225-.36-.23-.417.061.167.098.299.17.406l.06.011Zm7.607 15.821-.072.048c.025.036.084.048.109.084l.071-.049c-.06-.011-.084-.047-.108-.083Zm-7.599-14.422c.214-.145.31-.157.346-.181.047-.084.035-.18.046-.24-.071.049-.131.037-.203.085-.071.049-.083.108-.189.336Zm2.654 4.396-.06-.011-.071.048c.06.012.084.047.084.047.036-.024.036-.024.047-.084Zm10.764 3.085c-.036.024-.131.036-.167.06l-.012.06c.06.012.12.023.156 0l.023-.12Zm-22.193-16.17c.036-.025.096-.013.132-.037 0 0 .011-.06-.013-.096l-.011.06-.108.072Zm2.554-.84c-.012.06-.047.084-.047.084.06.012.084.048.143.06l.012-.06c-.024-.036-.084-.048-.108-.084ZM155.201 148.535l-.18-.035c-.023-.036-.012-.095-.036-.131.024.036.06.011.12.023l.096.143c0-.155.01-.37.046-.395.394-.11.297-.408.307-.623-.037-.287-.134-.585-.196-.908.119-.132.202-.24.32-.372a2.272 2.272 0 0 1-.182-.656c-.05-.227-.038-.442-.063-.634.107-.072.214-.144.345-.18-.18-.191-.3-.37-.444-.429-.288-.118-.063-.477-.362-.536l.024.036c-.084-.047-.144-.059-.168-.095-.347-.13-.384-.26-.182-.5.155-.157.453-.254.535-.518-.168-.094-.276-.177-.348-.285-.169-.25-.195-.596-.435-.798-.06-.012.082-.263.082-.263.18.034.311-.002.322-.217-.145-.215-.337-.5-.494-.655-.215-.01-.406.014-.562.015-.192-.286-.05-.538.056-.765.237-.42.213-.456-.148-.836-.084-.048-.096-.143-.109-.239.083-.108.142-.252.19-.336-.17-.25-.278-.488-.459-.679a1.722 1.722 0 0 1-.386-.727c-.062-.322-.135-.585-.4-.822a.368.368 0 0 1-.168-.25c-.086-.358-.337-.5-.66-.594-.24-.047-.444-.117-.588-.332-.157-.154-.325-.404-.624-.307-.035.024-.096-.143-.108-.239-.025-.035.083-.108.154-.156.06.012.12.023.155 0 .072-.049.084-.109.13-.193-.095.013-.179-.035-.238-.046-.072.048-.18.12-.31.157-.036.024-.12-.023-.228-.106l.393-.266c-.18-.19-.527-.164-.529-.475-.013-.25-.026-.502-.051-.693-.264-.082-.444-.272-.706-.044-.143.097-.287.038-.383-.105-.132-.119-.025-.191.034-.335.178-.276.092-.634-.159-.62-.346.025-.574-.081-.826-.223-.12-.024-.322.061-.478.062-.12-.179-.098-.454-.337-.5-.275-.023-.193-.286-.29-.429-.49-.033-.49-.033-.825-.222a6.956 6.956 0 0 0-2.024-.61c-.419-.082-.861-.044-1.267-.03-.682-.008-1.29.091-1.887.441-.238.109-.512.242-.728.231-.43-.021-.74.136-1.037.389-.512.397-1.121.496-1.804.332a5.473 5.473 0 0 0-.67-.068c-.274-.022-.322.062-.248.48-.131.036-.286.037-.394.11-.107.072-.25.168-.261.228.122.49-.38.36-.571.541.145.37.145.37.004.777.132.119.264.238.456.368l-.857.579c-.072.048-.155.156-.142.252-.034.335-.261.384-.548.421-.19.025-.393.265-.368.456a.33.33 0 0 0 .05.227c.3.37.122.645-.115.91-.072.048-.143.096-.19.18-.083.108.001.31.121.334.12.023.24.046.37.01.132-.037.24.046.217.166-.024.12-.13.192-.214.3-.252-.142-.48-.249-.671-.379-.214.3-.44.505-.223.826.145.214.074.418-.056.61l-.25.324c.337.345.1.765.233 1.039-.13.192-.225.36-.415.54.252.142.491.189.337.5-.059.144.002.311.027.502l-.679.458c.12.179.253.298.41.452-.31.313-.404.636-.438.97.432.178.432.178.374.632a3.32 3.32 0 0 1-.681-.008l.506.75c-.106.228-.177.432-.271.6.313.464.507.905.665 1.37.036.132.109.24.18.346l.266.393c-.237.42-.282.815-.173 1.209.146.37.528.32.756.426.11.55.066 1.1.653 1.43.084.048.085.204.157.31.11.24.242.513.351.752.266.548.83.844 1.06 1.417.013.095.132.118.216.166.108.083.252.142.324.249.89 1.011 1.983 1.782 3.039 2.577.167-.06.37-.145.537-.206.095-.013.275.022.323.094.47.619.47.619 1.152.782.275.023.527.165.743.33.216.167.371.166.538.106.227-.05.406-.17.561-.171.191-.025.383.106.587.176.19-.18.416-.385.642-.59.432.178.862.2 1.34.137.537-.051 1.062-.353 1.612-.308.084.047.227-.049.298-.097.56-.326 1.181-.485 1.73-.751.5-.182 1.05-.293 1.442-.713.154-.157.357-.241.62-.314.238-.11.453-.254.679-.458.166-.217.548-.267.822-.4l.072-.048c.296-.408.725-.697.878-1.164.046-.24.153-.312.38-.36.096-.013.19-.181.202-.241-.085-.358.153-.467.355-.707.143-.097.106-.228-.05-.383-.324-.249-.36-.38-.195-.596.297-.408.354-.863.495-1.27Zm-3.684-4.845-.5.338c.182.656.246 1.29.44 1.886.05.227-.08.574-.187.802a2.11 2.11 0 0 0-.115.754c.013.095.097.298.097.298-.417.23-.14.718-.437.97-.154.157-.26.385-.39.577.083.047.143.058.227.106-.178.276-.32.528-.533.828.096.143.204.226.325.404l-.5.338c.06.167.18.345.241.512.096-.012.156 0 .167-.06.083-.264.345-.337.668-.398.12.178.3.368.42.547-.153.312-.355.552-.401.791-.152.623-.58.912-1.034 1.166-.691.362-1.455.617-2.134.92-.036.024-.108.072-.167.06-.813.029-1.66.237-2.474.11-.3-.058-.598.04-1.04.077-.084-.047-.217-.321-.455-.212-.131.036-.274.133-.382.205 0 0-.024-.036.012-.06-.013-.25-.276-.178-.337-.345-.084-.202-.24-.201-.455-.212-.43-.022-.731-.39-1.15-.472-.29-.429-.743-.33-1.161-.257-.097-.142-.157-.31-.301-.368-.084-.048-.144-.06-.085-.203-.002-.311-.038-.442-.265-.393-.31.001-.455-.057-.492-.344-.528-.32-.878-.916-1.56-1.08-.06-.011-.168-.094-.156-.154-.133-.274-.374-.476-.507-.75-.157-.31-.325-.56-.661-.75-.228-.106-.372-.32-.553-.51.035-.18.01-.371.045-.55-.504-.285-.54-.26-.554-.667-.013-.251-.002-.466-.218-.632-.349-.285-.447-.74-.58-1.169-.11-.238-.243-.512-.447-.738.345-.337.151-.778.137-1.185-.074-.418-.148-.836-.235-1.349.155-.156.237-.42.187-.802-.05-.538-.03-1.123-.045-1.685 0-.156-.026-.347-.027-.502-.012-.096-.049-.227-.001-.311.19-.18.212-.455.259-.695.115-.753.422-1.377.681-2.072.06-.143.13-.347.2-.55.084-.109.107-.228.19-.336.095-.168.25-.324.344-.492.343-.648.662-1.33 1.09-1.93.272-.29.474-.53.88-.7.405-.169.763-.41 1.24-.472.096-.013.203-.085.31-.157.274-.289.536-.362.908-.197.108.083.299.058.43.022.358-.086.728-.231 1.122-.341.227-.05.442-.038.634.092.3.214.6.272.91.115.07-.049.214.01.298.058.084.047.157.154.228.106.454-.098.778.151 1.114.34.371.166.719.295.995.629.229.261.529.475.853.724.132.119.431.177.373.476-.011.06.097.143.157.155l.503.284c.013.095.073.107.06.167.1.764.136.74.654 1.43.17.25.385.417.482.715.11.394.351.751.783.928.084.048.096.143.144.215.184.812.487 1.491 1.1 2.014.18.19.205.381.194.596-.046.395-.046.395.039.598.145.37.458.679.185 1.123-.047.083.014.25.05.382.134.43.113.86.151 1.302.119-.132.25-.169.382-.05.049.071.025.191.038.287-.287.037-.312-.154-.408-.297Zm2.326-.79c.084.048.192.13.276.178-.011.06-.083.108-.094.168-.108-.083-.18-.19-.265-.238.012-.06.048-.084.083-.108Zm-1.303-4.32a.093.093 0 0 1-.023.12l-.12-.023.012-.06c.036-.024.071-.049.131-.037Zm.928 3.378c-.096.012-.167.06-.299.097l-.048-.071.023-.12c.096-.012.216.01.311-.002.024.036-.012.06.013.096Zm-20.001 6.112c.012.095.036.13.049.226l-.3-.058c.036-.024.024-.12.06-.143.06.011.155-.001.19-.025Zm15.175-16.27c-.107.228-.13.347-.393.265l.393-.265Zm-10.6 20.046c.048.071.072.107.06.167-.048-.072-.107-.083-.167-.095-.024-.036-.013-.096-.001-.155.024.035.084.047.108.083Zm15.591-12.34c-.035.025-.035.025-.047.084-.024-.035-.048-.071-.084-.047.012-.06.047-.084.047-.084.024.036.024.036.084.047Zm1.036 7.777c-.036.024-.048.084-.084.108-.035.024-.06-.012-.06-.012.012-.06.048-.084.06-.144 0 0 .06.012.084.048Zm.303-3.48c.083-.109.25-.17.141-.408-.036.024-.19.025-.167.06-.047.085-.01.216.002.312-.036.024.024.035.048.071l-.024-.036Zm-21.682-8.248c-.024-.036-.084-.048-.108-.083 0 0-.048.084-.012.06.024.035.048.071.108.083 0 0 .036-.024.012-.06ZM158.163 117.785c-.048-.072-.096-.143-.109-.239-.06-.167.01-.215.226-.204.06.012.144.059.252.142l-.393.265c.17.406.017.873.496 1.121.024.036.037.131.001.155-.094.324.098.454.35.596.084.048.168.095.276.178l-.059.144c-.155 0-.31.002-.455-.057-.12-.024-.12-.18-.204-.226-.024-.036-.06-.012-.18-.035.001.155.002.31-.021.43.156.155.288.273.42.392a.902.902 0 0 0-.117.288c-.06.144-.023.275-.046.395.071-.049.119-.133.19-.18.036-.025.12.022.204.07l-.012.06c-.036.024-.095.012-.131.036-.096.013-.155.001-.251.014.025.19.11.393.17.56.037.132-.153.312-.248.48.168.095.276.178.396.201.037.287-.177.431-.356.552-.071.048-.095.168-.154.312.407-.015.718-.016.992-.15.107-.072.24.047.37.01.096-.012.155-.156.226-.204-.034.18-.118.288-.212.455-.083.108.037.287-.117.443-.155.157.001.311.18.346l.253.142c-.083.108-.178.276-.166.372-.045.394-.055.765-.16 1.148-.13.503.028.813.4 1.133.227-.049.465-.158.728-.23.002.31-.02.585-.007.836-.48-.248-.48-.248-.739.447.347.13.719.294 1.126.436-.178.276-.332.432-.498.648.108.083.192.13.276.178.3.213.336.344.05.537-.214.145-.034.335-.236.42-.18-.19-.18-.19-.49.122.097.143.253.298.385.416.202-.24.356-.396.668-.242.168.094.289.273.158.465-.321.217-.824.088-.965.65.694.105 1.037-.543 1.623-.522l.29.429c-.227.049-.418.074-.61.099-.25.013-.442.038-.633.063-.142.252.051.538-.15.778-.155.156.107.083.131.119.169.25.302.524.411.762-.106.228-.405.325-.272.6.133.274-.044.55-.09.789.192.286.432.488.779.462-.084-.047-.168-.095-.192-.13-.024-.036-.037-.132-.001-.156.107-.072.12.023.132.119.024.036.012.095.037.131-.071.204-.166.372-.26.54-.237.42-.187.802.114 1.17.25-.168.332-.432.414-.695.144.059.264.082.348.13.024.035.072.107.036.13-.118.288-.2.552-.163.838.085.203.015.407-.2.551-.168-.094-.3-.213-.468-.308.011-.215-.002-.466.009-.681-.18.12-.358.24-.525.301-.407-.14-.337-.5-.482-.714-.287-.118-.646-.188-.696-.57-.11-.394-.303-.68-.675-.845-.083-.047-.084-.203-.157-.31-.06-.012-.132-.119-.192-.13-.477.062-.671-.38-1.054-.485.022-.275.045-.55-.219-.632-.24-.047-.371-.165-.36-.38-.014-.252-.159-.466-.398-.512-.323-.094-.492-.344-.696-.57-.229-.262-.47-.464-.734-.702-.204-.226-.456-.368-.529-.63-.157-.31-.373-.476-.613-.678-.373-.32-.828-.533-.843-1.095-.013-.096-.085-.203-.145-.215-.443-.117-.612-.522-.912-.736-.157-.154-.337-.345-.588-.331-.31.002-.491-.189-.529-.475-.049-.227-.205-.382-.433-.488a.8.8 0 0 1-.24-.202c-.194-.441-.59-.642-.913-.891-.276-.178-.564-.296-.78-.462-.553-.511-1.174-.508-1.832-.48-.095.012-.202.084-.31.157.17.25.254.453.434.643l.242.357.573-.075c.037.287.075.574.124.8.276.178.576.392.816.594.168.094.3.213.372.32.229.262.362.536.566.762.193.286.374.632.662.75.336.19.397.512.613.678.325.249.506.595.759.892.179.035.394.046.634.092-.011.215-.093.479.027.657.12.18.42.237.54.416.133.274.384.26.565.451.18.19.468.308.53.63.024.192.156.31.277.49.312.308.553.666.913.89.084.048.192.131.229.262.218.477.59.798.95 1.179.085.047.228.106.24.201.1.454.506.595.842.785.025.19.062.322.087.513.143.06.287.118.43.177.408.141.566.607 1.009.724.084.047.18.19.193.286.085.202.371.165.385.416.026.502.375.787.687 1.096l.286-.193.723 1.072c.096-.013.251-.013.347-.026.036.131.096.143.084.203-.08.419.076.729.436.954.156.154.313.309.54.415.192.13.324.25.433.488.085.203.241.357.433.488.133.118.372.165.504.284.192.13.277.333.409.452.155-.001.251-.014.347-.026l.096.143.096.143c.253.297.433.332.634.092.202-.24.344-.492.668-.398.06.011.167-.061.238-.11.107-.072.19-.18.298-.252.167-.06.298-.097.43-.134-.062-.167-.122-.334-.219-.477-.133-.274-.003-.621-.375-.787-.083-.047-.061-.322-.014-.406.154-.312.283-.66.222-.982-.073-.262.129-.502-.136-.74-.096-.143-.11-.394-.23-.572-.085-.203-.23-.418-.374-.632.286-.193.428-.445.366-.767-.035.024-.095.012-.131.037.012-.06.023-.12.059-.144-.205-.382-.076-.729.09-1.1-.396-.201-.589-.487-.412-.919.012-.06.035-.18-.013-.25-.23-.418-.16-.932-.379-1.41-.144-.058-.287-.117-.49-.188.021-.275.044-.55-.005-.777-.038-.286-.206-.536-.28-.799.156 0 .275.022.407-.014-.073-.263-.087-.514-.172-.716l-.399-.823c-.467-.153-.146-.525-.22-.788-.071-.107-.108-.238-.192-.286-.312-.309-.208-.847-.603-1.048-.122-.334-.208-.692-.317-1.086.154-.157.177-.432.199-.707.022-.43-.038-.442-.421-.547-.038-.287.044-.55-.029-.813-.085-.358-.004-.777-.197-1.063-.3-.369-.303-.835-.509-1.216-.072-.107.023-.275-.014-.407 0-.155-.252-.142-.265-.393-.025-.19-.241-.357-.326-.56-.072-.107-.145-.214.034-.335.143-.096.082-.263.046-.394-.28-.8-.56-1.599-1.256-2.169-.061-.322-.015-.562-.076-.884-.22-.788-.618-1.455-1.088-2.074-.204-.226-.409-.452-.506-.75-.12-.179-.371-.166-.43-.022-.082.419-.403.636-.64.9.06.167.037.287.097.454-.359-.07-.548.266-.871.172-.024-.036-.132.037-.179.12-.178.277-.105.54.136.741.18.035.335.034.514.069Zm6.436 22.486c-.408-.297-.435-.954-.998-1.095.106-.227.237-.42.307-.623.06.012.156 0 .18.035.325.404.578.857.63 1.395.012.096.048.227-.119.288Zm-2.144-7.34c-.264-.083-.337-.345-.422-.548.012-.06.024-.12.06-.144l.07-.048c.109.083.193.13.265.238.096.143.085.203.027.502Zm-3.109-10.85c.144.06.348.13.516.225.035-.024.06.167.025.191-.036.024-.203.085-.227.05l-.397-.357c.036-.024.048-.084.083-.108Zm3.38 16.49c.247-.48.522-.612.75-.506v.156c-.203.084-.405.17-.75.35Zm-1.836-18.363c-.037-.13-.097-.298-.122-.49.24.203.24.203.122.49Zm2.434 14.32c-.108-.083-.203-.07-.227-.107-.108-.083-.002-.31.13-.347.059.012.167.095.191.13a1.64 1.64 0 0 1-.094.324Zm-.343 2.727c.227.106.384.261.134.43-.144-.06-.001-.156-.05-.227.012-.06-.036-.131-.084-.203Zm-.936-7.012c-.275-.022-.275-.022-.623-.307.204.07.323.094.407.141.084.048.216.01.216.166Zm2.35 12.037c.024.036.084.047.048.071-.023.12-.046.24-.13.348a.327.327 0 0 1-.167-.095c-.06-.167.047-.24.19-.336l.06.012Zm-1.066-6.975c.012.095.036.131 0 .155l-.107.072c-.084-.047-.156-.154-.204-.226l.011-.06c.12.024.204.071.3.059Zm-2.74-17.546c-.143-.058-.203-.07-.287-.117-.024-.036-.037-.132-.085-.203.036-.024.072-.048.096-.013.06.012.084.048.108.083l.169.25Zm-1.604-.529c-.06-.011-.084-.047-.108-.083.011-.06.047-.084.083-.108.036-.024.084.048.108.083-.036.025-.072.049-.083.108Zm3.27 16.252c-.012.06.036.131 0 .155-.011.06-.071.048-.13.037.01-.06-.013-.096-.002-.156.036-.024.096-.012.132-.036Zm1.366 2.873c.06.012.12.023.204.07l-.023.12-.18-.035c-.06-.011-.012-.095 0-.155Zm-3.987-11.92c-.18-.035-.299-.058-.394-.046-.167.061-.31.313-.226.36.109.083.288.118.395.046.072-.048.13-.192.225-.36Zm1.068 5.05c-.12-.023-.203-.07-.299-.057-.036.024-.119.132-.07.203-.024.12.204.226.311.154l.058-.3ZM181.7 135.024l.284-.504c.011-.215.201-.396.021-.586l.679-.458c-.073-.262.069-.514.295-.719-.074-.418.2-.55.559-.481.431.177.681.008.906-.352a.327.327 0 0 1 .095-.168c.466-.002.56-.48.905-.662.107-.072.13-.192-.037-.287-.203.085-.418.23-.668.398-.013-.25-.014-.406.021-.585.382-.05.668-.243.594-.661-.096-.143-.204-.226-.469-.464.611.212.983.377 1.414.554.081-.419.235-.73-.053-1.004-.156.001-.323.062-.514.087.105-.383.188-.647.63-.685.19-.025.297-.253.248-.48-.384-.26-.504-.284-.634-.092-.296.564-.845.674-1.334.797-.06-.012-.132.036-.167.06l-.012.06.071-.048c.036-.024.048-.084.084-.108-.264-.082-.516-.224-.78-.307-.023-.035-.095.013-.214-.01l-.033.645c-.047.084-.154.157-.202.24-.296.409-.641.745-1.13.868-.203.084-.43.289-.427.6-.023.275-.297.408-.427.6-.012.06-.192.025-.287.037 0 .156.002.31-.033.49a2.721 2.721 0 0 1-.36-.225c-.06.144-.214.3-.165.372.206.537-.08.73-.534.828-.167.06-.274.133-.285.348.025.19-.105.383-.285.348-.263-.082-.322.062-.453.254-.011.06-.167.06-.215-.011-.084-.048-.144-.215-.169-.25.322-.217.058-.455.033-.646.214-.145.31-.002.443.117.132.119.239.047.358-.086.047-.083.166-.216-.038-.286-.18-.035-.18-.19-.217-.322a.355.355 0 0 0-.371-.165l.036-.024c.024.036.048.071.036.131l-.142.252c-.048-.072-.132-.119-.18-.19-.179.12-.347.026-.515-.07l.036-.023c-.155 0-.275-.023-.454-.058.083-.108.19-.18.201-.24-.108-.238-.17-.56-.338-.655-.228-.107-.492-.344-.767-.367-.3-.058-.371-.165-.3-.369.128-.502-.149-.836-.532-.941-.503-.129-.731-.39-.925-.832-.024-.035-.084-.047-.168-.094-.179.12-.381.205-.62.314-.156-.155-.277-.333-.457-.524.226-.204.38-.36.642-.589-.155.001-.215-.01-.31.002a.595.595 0 0 0-.204-.07c.009-.527.009-.527-.376-.943a6.477 6.477 0 0 1-.723-1.072c.167-.06.262-.073.394-.11l.011-.06c-.024-.035-.036-.13-.072-.107-.12-.023-.24-.046-.322.062-.25.169-.418.074-.801-.032.489-.122.511-.397.653-.649-.192-.13-.312-.309-.61-.211-.203.084-.467.002-.694-.104.236-.42.597-.04.787-.22a5.23 5.23 0 0 0 .02-.741c.012-.06-.036-.131-.06-.167-.097-.143-.17-.405-.314-.464-.311-.154.046-.395-.062-.478-.312-.154-.302-.525-.435-.799 0 0 .012-.06.059-.144.18.035.37.01.55.045.142-.252.248-.48.62-.314.43-.134.919-.256 1.384-.414.021-.586.546-.732.903-.973-.014-.407.224-.671.581-.912.084.047.204.07.323.094.083-.264.249-.48.571-.541.191-.025.347-.026.514-.087.107-.072.238-.109.286-.193.152-.467.618-.625.854-1.044-.062-.478-.005-.933.544-1.199.202-.085.177-.276.153-.467.011-.06-.037-.131-.085-.203a1.29 1.29 0 0 1-.454.098l-.169-.25c.083-.108.287-.037.333-.276l-.718-.14c-.297.253-.01.37.016.562-.095.168-.214.3-.333.432-.168-.095-.287-.118-.395-.201-.238.264-.356.552-.714.638-.298.097-.572.385-.847.363-.43-.022-.668.243-.93.471-.452.41-.687 1.14-1.427 1.275-.06-.011-.095.168-.202.24-.19.18-.368.457-.606.566a1.69 1.69 0 0 0-.796.9c-.239.11-.406.17-.537.207-.082.263.3.369-.02.586-.47-.464-1.272-.65-1.324-1.5.131-.036.263-.072.513-.086-.673-.69-.678-1.622-1.243-2.228.095-.168.154-.312.248-.48-.287-.118-.527-.32-.589-.642.036-.024-.084-.047-.108-.083-.203.085-.346.181-.513.242-.133-.274-.133-.274.272-.6-.05-.226-.063-.477-.207-.692-.23-.417-.495-.81-.748-1.263.215.011.478.093.645.033.179-.12.321-.373.523-.613.443.117.716-.171.99-.46.273-.288.535-.517.88-.698.299-.097.56-.326.87-.483l.93-.627c.106-.072.285-.192.344-.336.165-.372.536-.362.834-.459.334-.121.379-.672.821-.71.156 0 .31-.002.418-.074.06.012.06-.144.106-.228-.263-.082-.502-.128-.766-.21 0-.156-.013-.251-.014-.407.3.058.574.08.812-.184-.132-.118-.23-.417-.325-.404-.455-.058-.54-.416-.71-.666.179-.276.332-.587.546-.887-.323-.094-.515-.07-.789.064-.214.144-.49.122-.752.195-.035.18-.034.335-.033.49-.263.074-.465.158-.656.183-.86.268-.895.292-.854 1.2-.12-.023-.264-.082-.443-.117l-.465.314c-.107.072-.19.18-.333.277-.31.312-.32.372-.33.898-.131.037-.31.002-.382.05-.179.12-.322.061-.454.098-.286.037-.393.265-.355.552-.012.06.036.131.049.227-.323.061-.323.061-.656.338-.262.229-.262.229-.104.539l.144.214c-.272.444-.437.97-.853 1.355l-.771-1.143a8.63 8.63 0 0 0-.886-.234c-.405.325-.247.79-.4 1.102.097.298.194.597.267.86.048.07.12.178.18.19.3.058.23.261.242.512.05.382.1.765.543.882.06.011.049.071.097.143a1.31 1.31 0 0 0-.13.347c.132.119.24.202.348.285-.083.108-.154.156-.273.288.515.225.459.835.831 1.155-.2.396.16.621.256.92.037.13.074.262.074.417.001.156-.153.312-.033.49.061.168.026.347.087.514.405-.17.49-.122.587.176.108.239-.214.3-.165.527.384.261.384.261.506.75-.13.192-.296.409-.462.625.108.083.251.142.36.225.348.285.684.63.507 1.06-.093.324-.009.527.183.657s.205.226.17.406c0 .155.037.286.134.43.144.214.409.451.386.726-.07.36.35.44.291.74.003.466.482.56.639.87.133.273.394.045.586.175.06.012.084.047.133.119-.083.108-.226.204-.31.312-.142.252-.105.384.159.466.155-.001.31-.002.335.19.098.453.71.665.629 1.239-.012.06.132.119.18.19.12.179.277.333.362.536.267.704.76 1.203 1.205 1.787.3.368.662.749.677 1.31.012.096.18.191.288.274.3.214.624.463.638.87.015.406.22.631.483.87.24.201.397.356.327.715-.023.12.097.298.158.465.145.214.382-.05.539.104-.012.06-.024.12-.06.144-.047.084-.094.168-.165.216-.084.108-.19.18-.298.253-.119.132-.094.323.05.382.048.072.168.095.252.142.276.178.718.14.733.702-.01.215.791.402 1.065.269.035-.18.106-.384.129-.503.227-.05.418-.074.61-.1a3.852 3.852 0 0 0-.065-.788c.346-.181.348.285.6.272.166-.06.405-.17.583-.29.036-.024.048-.084.06-.144-.086-.203-.17-.406-.231-.573.19-.18.298-.097.37.01.181.19.349.285.635.092l-.29-.428-.24-.358c.274-.133.512-.242.75-.35.215-.145.394-.266.596-.35Zm-9.943-25.527c-.12.132-.275.133-.347.026-.072-.107-.073-.263-.074-.418l.107-.072c.06.011.12.023.144.059.072.107.133.274.17.405Zm-1.045 1.38c-.024-.035-.06-.01-.048-.07.012-.06.035-.18.07-.204.036-.024.156-.001.24.046-.047.084-.059.144-.13.192-.036.024-.096.013-.132.037Zm.786 16.732c-.06-.012-.131.036-.155 0a.327.327 0 0 1-.025-.19c.036-.024.131-.037.155-.001a.327.327 0 0 1 .025.19Zm9.566 7.012c-.035.024-.011.06-.011.06-.047.083-.155.156-.226.204l-.048-.071c.047-.084.118-.133.166-.217.036-.024.06.012.12.024Zm-12.675-18.016c.024.035.048.071.037.13-.036.025-.096.013-.132.037.012-.06-.012-.095-.025-.19.025.035.06.01.12.023Zm-2.717-2.795c-.036.025-.036.025-.047.084-.024-.035-.084-.047-.108-.083l.011-.06c.06.012.084.048.144.06Zm2.73 7.36c.025.037.013.096.037.132-.06-.011-.096.013-.155.001-.024-.036-.013-.096-.001-.155.024.035.06.011.12.023Zm.926.833c-.072.048-.143.096-.239.108l-.024-.035c.071-.048.143-.097.19-.18l.073.107Zm3.683 4.534c-.036.024-.048.084-.084.108l-.06-.012c.012-.06.048-.084.084-.108l.06.012Zm-.243 3.647c.024.036-.012.06.012.095-.024-.035-.084-.047-.084-.047-.024-.036-.024-.036.012-.06l.06.012Zm3.647 2.323-.012.06c-.06-.012-.084-.048-.108-.084 0 0-.024-.035.012-.06.024.036.084.048.108.084Zm8.505-3.191c.024.035.013.095.013.095-.06-.011-.096.013-.156.001.036-.024.048-.084.083-.108l.06.012Zm-2.973 7.153c-.278-.644-.386-.727-.744-.642.109.239.23.417.338.656.131-.037.251-.013.406-.014Zm-3.885-4.294c.322-.217.322-.217.515.069l.286-.193-.036.024c-.013-.251-.121-.334-.337-.345-.18-.035-.238.109-.321.217-.012.06-.06.144-.07.204l-.037.024Zm-2.38-13.16-.428.289c.49.033.49.033.428-.29Zm3.43-4.394c-.095.012-.155 0-.25.013l-.012.06c.06.011.144.059.204.07.011-.06.011-.06.059-.143Zm-4.383 13.615c-.06-.011-.12-.023-.215-.01-.024-.036-.071.048-.047.084.036.131.096.143.203.07.036-.024.048-.084.06-.144Zm7.605 6.88.215-.145c.154-.156.106-.228-.098-.298-.06-.012-.095.012-.13.036-.024.12.012.251.013.407Zm4.956-7.451c-.024-.036-.048-.072-.108-.083-.036.024-.072.048-.048.084-.011.06.049.071.108.083 0 0 .036-.024.048-.084Zm-4.97 7.044c-.144-.059-.121-.334-.395-.2.143.058.251.141.395.2Zm-.404.325c.252.298.252.298.454.058-.155 0-.31.001-.454-.058ZM136.557 43.154s-5.75-7.61-11.7-3.19c-5.95 4.42-2.25 14.55 2.81 19.19 5.06 4.64 14 8.47 14 8.47s11-9.26 11-22-11.3-10.69-16.11-2.47Z" fill="#B90A03"/><path d="M23.337 107.624s-4.84-8.21 1.51-12c6.35-3.79 14.31 3.47 16.67 9.91 2.36 6.44 2.48 16.21 2.48 16.21s-12.76 6.66-24.55 1.78c-11.79-4.88-5.55-14.6 3.89-15.9Z" fill="#FD9393"/><path d="M59.717 30.044s-8-5.16-12.08 1 2.91 14.43 9.26 17c6.35 2.57 16.09 3.12 16.09 3.12s7.16-12.5 2.74-24.46-14.31-6.08-16.01 3.34Z" fill="#F74B55"/></g><path d="M380.58 13.903c4.022-7.566 12.872-9.815 19.435-4.146.11.094.218.19.325.288l.15.143.1-.007c2.558-.13 5.269.492 7.988 2.062l.326.193c5.435 3.294 7.077 9.358 5.114 14.832-.993 2.767-2.734 5.15-5.067 7.506-3.288 3.321-7.994 6.665-11.42 8.13-5.685 2.444-11.138.27-14.493-3.994l-.254-.332c-.004 5.39-1.833 11.417-4.705 16.66-1.908 3.482-4.192 6.41-6.897 8.451-2.731 2.06-5.931 3.2-9.148 3.052a9.934 9.934 0 0 1-.357 3.056l-.17.556-1.52 4.695c-.358 1.099-.727 2.23-1.108 3.393l52.695-14.515a10 10 0 0 1 11.922 5.882c5.822 14.349 13.024 36.034 17.916 55.05l.265 1.035c5.429 21.362 7.875 38.131 6.199 49.87l-.062.412.018-.004c4.386-1.319 8.744-1.55 12.277-.1l.293.124c2.908 1.289 5.065 3.276 6.508 5.672l.045.077.29.015c11.059.64 17.795 10.124 16.446 24.489l-.059.585c-1.004 9.28-6.343 16.184-14.313 19.682-.87.382-1.764.72-2.677 1.014l-.361.112.128.226c1.351 2.438 2.312 4.889 2.83 7.3l.098.481c1.243 6.518-.832 12.904-6.717 16.257a12.471 12.471 0 0 1-3.413 1.344l-.339.072-.18.205-.254.272-.263.27c-.44.44-.907.84-1.394 1.198l-.03.021.697 1.527c1.971 4.286 3.852 8.097 5.545 11.199l.544.985c3.364 6.002 7.77 9.213 13.018 10.594 1.9.5 3.799.719 5.587.72.505 0 .969-.018 1.385-.048l.302-.025c.27-.024.437-.046.43-.045l.054-.01c8.86-1.538 15.09 8.487 9.788 15.75-11.126 15.24-27.057 23.438-45.408 26.21-6.349.96-12.582 1.196-18.496.9a85.104 85.104 0 0 1-5.893-.494l-.762-.096a52.683 52.683 0 0 1-1.588-.231l-.558-.095c-8.69-1.57-11.194-12.77-4.125-17.913l.29-.21.187-.144.417-.334c.293-.24.612-.514.953-.82a35.547 35.547 0 0 0 4.507-4.908c1.733-2.28 3.181-4.752 4.258-7.395 1.233-3.025 1.267-7.763-.114-15.479l-.176-.923-.087-.431-.061.014c-1.841.368-3.792.297-5.71-.224l-.303-.086c-4.268-1.265-7.093-3.948-9.316-7.721l-.108-.186-.172-.004a12.907 12.907 0 0 1-4.052-.824l-.366-.144a13.74 13.74 0 0 1-4.274-2.791c-1.965-1.868-3.139-4.05-3.728-6.425l-.021-.092-.332.041c-6.177.702-12.353-1.035-17.723-5.39l-.364-.302c-11.317-9.497-13.176-21.207-5.544-29.436l.137-.146-.039-.166c-.567-2.541-.412-5.303.71-8.215l.14-.35c1.555-3.83 5.214-6.91 9.721-9.08l.497-.234-.064-.046c-4.149-3.008-8.13-7.276-12.309-13.392l-.37-.544c-3.984-5.926-9.429-21.263-16.786-45.344l-1.11-3.654-.944-3.14-.397-1.327a1750.615 1750.615 0 0 1-6.778-23.352c-.819 2.362-1.634 4.694-2.445 6.99l-1.112 3.14-.888 2.488c-.452 1.26-.899 2.502-1.344 3.73l-1.759 4.819c-7.069 19.214-12.334 31.606-16.186 36.925l-.14.192c-5.112 6.891-9.843 11.475-14.733 14.528l-.352.217.044.02c5.135 2.448 9.35 5.955 11.002 10.225l.114.306c1.166 3.264 1.195 6.304.395 9.045l-.076.249.039.043c7.8 8.78 5.559 20.746-6.417 30.149l-.484.374c-6.044 4.621-12.882 6.188-19.573 4.965l-.407-.078-.022.096c-.637 2.497-1.874 4.76-3.933 6.653l-.3.268a14.98 14.98 0 0 1-.692.567c-2.58 1.984-5.556 2.92-8.539 2.849l-.331-.013-.183.29c-2.427 3.781-5.382 6.444-9.657 7.609l-.38.099c-2.154.531-4.365.537-6.43-.038l-.397-.119-.23.932-.05.207c-2.078 8.841-2.342 14.258-1.074 17.83 1.88 5.306 5.015 9.883 8.567 13.465l.295.295c.45.445.867.831 1.238 1.158l.515.44c7.011 5.328 4.196 16.414-4.408 17.826l-.266.04a50.3 50.3 0 0 1-2.873.291c-12.601.976-27.071-.388-41.114-6.04-12.874-5.182-23.709-13.516-31.59-25.428-4.94-7.466 1.663-17.111 10.341-15.316l.217.045.275.047c.103.016.22.032.346.049 4.31.565 9.38-.043 14.034-2.674 3.27-1.85 6.178-4.635 8.668-8.634 2.222-3.57 4.778-8.184 7.488-13.46l.689-1.351-.087-.063a12.474 12.474 0 0 1-1.513-1.35l-.199-.214c-.179-.196-.35-.394-.514-.596l-.241-.305-.074-.017a13.048 13.048 0 0 1-3.627-1.523l-.302-.187c-5.85-3.703-7.668-10.314-6.083-16.943.687-2.872 2.005-5.786 3.869-8.657l.15-.23-.24-.078a29.961 29.961 0 0 1-3.156-1.268l-.508-.245c-8.112-4.014-13.316-11.422-13.914-21.105-.972-15.57 6.64-25.355 18.538-25.215l.145.002.057-.09c1.525-2.407 3.754-4.375 6.721-5.61l.36-.144c3.959-1.547 8.893-.97 13.763.89l.203.079-.024-.178c-1.544-12.213 1.659-29.773 8.356-52.167l.522-1.734c6.151-20.257 15.07-43.545 22.086-58.787a10 10 0 0 1 12.182-5.327l56.098 18.276a56.007 56.007 0 0 1-3.428-5.206c-2.113-3.672-3.465-7.123-3.767-10.6-.558-6.42 2.819-12.28 9.48-14.236 4.325-1.271 8.25-.92 11.55.602l.264.125.222-.156c.613-.421 1.24-.8 1.88-1.134l.385-.194c5.954-2.91 11.91-1.512 15.745 2.761-.496-4.575.039-9.188 1.963-12.794Zm-61.187-8.808c6.77-5.854 15.776-3.656 20.099 4.108l.157.29c2.752 5.175 2.899 12.45 1.27 19.009-.84 3.383-2.134 6.402-4.033 8.814-3.517 4.465-9.15 6.71-15.027 4.188-3.871-1.665-9.296-5.523-13.059-9.322-2.61-2.635-4.541-5.276-5.615-8.26-2.06-5.726-.37-11.99 5.288-15.42 3.318-2.008 6.623-2.683 9.693-2.334l.094.013.167-.177c.208-.212.42-.417.637-.616l.33-.293Z" fill="#FFF" fill-rule="nonzero"/><path d="M434.9 221.167c1.64-.83 13.59.01 19.48 7.04 5.89 7.04 6.71 13.26 3.27 15.22-3.44 1.97-7.36-5.89-7.36-5.89s3.43 7.04.81 9.66c-2.61 2.61-3.92-5.89-6.71-12.93-2.78-7.04-12.11-9.33-12.11-9.33s.99-2.95 2.62-3.77Z" fill="#D21112"/><path d="M424.92 193.567c1.31 13.97 18.76 60.66 29.89 80.52 11.13 19.86 31.21 16.15 31.21 16.15-21.82 29.89-62.85 22.25-62.85 22.25s9.17-6.33 13.97-18.11c4.8-11.78-1.75-29.45-7.64-56.51s-19.85-42.33-19.85-42.33 13.96-15.93 15.27-1.97Z" fill="#FFC7CF"/><path d="M414.23 73.567c9.38 23.12 30.55 87.49 22.25 106.48-8.29 18.98-31.63 18.76-35.78 17.67-4.15-1.09-10.47-3.27-18.55-15.27-8.07-12-29.67-91.87-29.67-91.87l61.75-17.01Z" fill="#FFC7CF"/><path d="M427.87 226.407c-.01.01-.1.25-.27.73-.99 2.82-4.36 13.27-2.68 20.71 1.96 8.67 3.76 17.35-.65 16.04-4.42-1.31-6.88-11.78-6.88-11.78s-3.93 5.72-7.36 2.45c-3.44-3.27 2.29-14.89 2.94-17.18.66-2.29 9.33-12.11 9.33-12.11l5.57 1.14Z" fill="#D21112"/><path d="M389.76 222.697s-5.95-3.15-4.12-7.61c1.82-4.48 14.74-7.57 20.49-6.07 5.76 1.51 15.63 5.41 18.36 8.25 2.71 2.83 1.42 8.82 1.42 8.82s-8.38 2.15-13.49 9.57c-5.13 7.42-15.69 14.15-25.02 6.32s-8.94-15.01 2.36-19.28Zm16.63 7.63c4.35-3.27 8.55-5.03 11.43-4.63 2.88.4 7-1.94 7-1.94l-1.43-3.85s-10.02-2.64-15.63-.2c-5.6 2.42-10.87 4.98-12.34 9.12-1.47 4.14 6.62 4.77 10.97 1.5Z" fill="#D21112"/><path d="m421.43 126.587 3.05 2.83s9.82 31.86 3.49 44.73c-6.32 12.88-14.18 13.97-23.56 10.48-9.38-3.49-16.8-15.06-22.26-29.24-5.45-14.18-16.8-46.26-16.8-46.26l56.08 17.46Z" fill="#FFB878"/><path d="M435.07 219.207c0 3.98-3.23 7.2-7.2 7.2-3.98 0-7.21-3.22-7.21-7.2 0-3.97 3.23-7.2 7.21-7.2 3.97 0 7.2 3.23 7.2 7.2Z" fill="#D21112"/><path d="M473.69 205.957c-1.31 12.11-13.59 14.57-22.42 12.77-8.83-1.82-16.37 2.44-16.37 2.44s-5.08-3.43-5.08-7.35c0-3.94 4.43-13.59 7.54-18.67 3.11-5.06 14.56-11.77 18.99-9.81 4.4 1.95 2.28 8.35 2.28 8.35 11.12-4.75 16.37.16 15.06 12.27Zm-14.89-3.93c-3.93-1.97-9.5-.17-15.22 1.97-5.73 2.12-11.13 10.96-11.13 10.96l1.63 3.77s4.59-1.16 6.39-3.45c1.8-2.29 6.05-3.92 11.45-4.57 5.4-.66 10.8-6.71 6.88-8.68Z" fill="#D21112"/><path d="M376.7 109.567c10.04 5.45 24 6.98 30.33 8.94 6.33 1.97 15.49 1.53 17.45 8.51 1.97 6.99-3.71 15.5-22.69 11.13-18.98-4.36-24.87-19.64-29.89-23.13-5.02-3.49-6.55-5.89-6.55-5.89.87-7.2 1.31-5.02 11.35.44Z" fill="#EF9D59"/><path d="M393.34 147.367c0 2.08-1.69 3.76-3.77 3.76s-3.76-1.68-3.76-3.76 1.68-3.76 3.76-3.76 3.77 1.68 3.77 3.76ZM404.3 151.377a1.72 1.72 0 1 1-3.44 0 1.72 1.72 0 0 1 3.44 0ZM406.59 168.317c0 1.81-1.46 3.27-3.27 3.27s-3.27-1.46-3.27-3.27 1.46-3.28 3.27-3.28 3.27 1.47 3.27 3.28ZM420.5 151.457c0 1-.8 1.8-1.8 1.8a1.799 1.799 0 1 1 0-3.6c1 0 1.8.81 1.8 1.8ZM421.65 166.677c0 1.18-.96 2.13-2.13 2.13-1.18 0-2.13-.95-2.13-2.13 0-1.17.95-2.13 2.13-2.13 1.17 0 2.13.96 2.13 2.13ZM381.23 134.437c0 1-.81 1.8-1.8 1.8-1 0-1.8-.8-1.8-1.8a1.799 1.799 0 1 1 3.6 0ZM396.44 159.807a2.62 2.62 0 0 1-2.61 2.62c-1.45 0-2.62-1.18-2.62-2.62a2.616 2.616 0 1 1 5.23 0ZM414.61 176.827a2.29 2.29 0 1 1-4.58 0c0-1.27 1.02-2.29 2.29-2.29a2.29 2.29 0 0 1 2.29 2.29Z" fill="#FFD0A9"/><path d="M406.92 78.257c2.07-.22 4.36.32 3.6 2.94-.77 2.62-48.55 14.51-50.3 13.53-1.74-.98-1.74-2.95-1.74-2.95s46.37-13.31 48.44-13.52ZM440.63 264.537s5.56 10.97 4.09 20.95c-1.47 9.98-4.09 19.15-7.85 18.82-3.77-.33 5.23-8.35 4.74-17.51-.49-9.16-6.87-24.22-.98-22.26Z" fill="#FFEAED"/><path d="M260.44 206.357s-10.05 1.99-13.36 9.35c-3.31 7.36-5.12 16.36-7.78 13.44-2.66-2.91 1.34-10.24 1.34-10.24s-4.57 8.17-8.13 5.91c-3.57-2.26-2.39-8.84 4.23-16.05 6.62-7.21 19.39-7.51 21.09-6.55 1.71.96 2.61 4.14 2.61 4.14Z" fill="#D21112"/><path d="M286 176.147s-15.63 15.59-23.23 44.12c-7.6 28.54-15.44 47.05-10.9 59.84 4.53 12.79 13.99 19.98 13.99 19.98s-44.08 6.13-65.86-26.79c0 0 21.2 4.93 34.03-15.68 12.83-20.61 33.71-69.5 35.79-84.31 2.08-14.82 16.18 2.84 16.18 2.84Z" fill="#FFC7CF"/><path d="M352.04 67.127s-26.92 84.02-36.11 96.41c-9.19 12.39-16.04 14.41-20.51 15.37-4.47.96-29.35.05-37.26-20.58-7.9-20.63 17.8-88.18 28.93-112.36l64.95 21.16Z" fill="#FFC7CF"/><path d="M271.06 207.197s8.76 10.89 9.34 13.36c.59 2.47 6.12 15.13 2.3 18.45-3.82 3.32-7.72-2.98-7.72-2.98s-3.13 11.04-7.9 12.22c-4.78 1.18-2.43-7.97.08-17.12 2.16-7.84-.92-19.14-1.84-22.2-.16-.51-.24-.77-.24-.78l5.98-.95Z" fill="#D21112"/><path d="M307.42 226.707c-10.32 7.89-21.24.2-26.34-7.95-5.08-8.16-13.91-10.86-13.91-10.86s-1.08-6.45 1.95-9.33c3.04-2.89 13.76-6.56 19.97-7.89 6.2-1.31 19.8 2.61 21.53 7.48 1.73 4.84-4.77 7.89-4.77 7.89 11.84 5.11 11.9 12.78 1.57 20.66Zm-7.89-14.4c-1.37-4.48-6.85-7.47-12.71-10.32-5.85-2.87-16.66-.55-16.66-.55l-1.71 4.03s4.27 2.7 7.36 2.41c3.09-.29 7.48 1.8 11.95 5.49 4.48 3.7 13.13 3.42 11.77-1.06Z" fill="#D21112"/><path d="M337.42 86.257s-13.66 33.61-20.16 48.46c-6.51 14.84-14.98 26.8-25.15 30.06-10.17 3.26-18.48 1.71-24.59-12.31-6.11-14.03 5.91-47.49 5.91-47.49l3.39-2.87 60.6-15.85Z" fill="#FFB878"/><path d="M265.78 192.807c4.24.19 7.51 3.78 7.32 8.02a7.685 7.685 0 0 1-8.02 7.32c-4.24-.2-7.52-3.79-7.32-8.03a7.665 7.665 0 0 1 8.02-7.31Z" fill="#D21112"/><path d="M233.9 171.767s-1.95-6.91 2.84-8.77c4.81-1.88 16.69 5.83 19.75 11.37 3.07 5.57 7.31 16.07 7.12 20.26-.2 4.18-5.78 7.59-5.78 7.59s-7.81-4.91-17.31-3.4c-9.5 1.48-22.46-1.74-23.26-14.7-.81-12.97 5.02-17.94 16.64-12.35Zm6.31 18.47c5.72.96 10.18 2.91 11.98 5.43 1.81 2.53 6.64 3.99 6.64 3.99l1.93-3.94s-5.32-9.69-11.33-12.22c-5.99-2.56-11.83-4.75-16.12-2.85-4.27 1.91 1.18 8.62 6.9 9.59Z" fill="#D21112"/><path d="M337.42 86.257s-1.74 2.48-7.26 5.95c-5.52 3.48-12.54 19.46-32.98 23.18-20.44 3.72-26.07-5.62-23.63-12.97 2.43-7.34 12.17-6.43 19.01-8.21 6.84-1.78 21.79-2.72 32.75-8.04 10.96-5.32 11.53-7.63 12.11.09Z" fill="#EF9D59"/><path d="M309.93 121.797c2.21.1 3.93 1.98 3.82 4.2a4.012 4.012 0 0 1-4.19 3.82 4.02 4.02 0 0 1-3.83-4.19 4.022 4.022 0 0 1 4.2-3.83ZM295.77 127.607c1.01.05 1.79.91 1.75 1.92a1.848 1.848 0 0 1-1.92 1.75 1.833 1.833 0 0 1-1.74-1.92c.04-1.01.9-1.79 1.91-1.75ZM294.23 143.967a3.489 3.489 0 1 1-3.64 3.32 3.48 3.48 0 0 1 3.64-3.32ZM278.6 126.827c1.06.04 1.88.94 1.83 2a1.923 1.923 0 0 1-3.84-.17c.05-1.06.95-1.88 2.01-1.83ZM277 142.647a2.268 2.268 0 1 1-2.37 2.16 2.256 2.256 0 0 1 2.37-2.16ZM321.28 110.617c1.05.04 1.87.94 1.82 2a1.908 1.908 0 0 1-2 1.83 1.92 1.92 0 0 1-1.83-2c.05-1.06.95-1.88 2.01-1.83ZM304.73 136.057a2.794 2.794 0 0 1-.26 5.58 2.785 2.785 0 0 1-2.66-2.91 2.796 2.796 0 0 1 2.92-2.67ZM284.18 153.637a2.44 2.44 0 0 1 2.33 2.55 2.448 2.448 0 0 1-2.56 2.33 2.431 2.431 0 0 1-2.32-2.55 2.44 2.44 0 0 1 2.55-2.33Z" fill="#FFD0A9"/><path d="M345.59 68.107s-.09 2.09-2 3.05c-1.91.97-52.24-14.04-52.92-16.87-.69-2.83 1.78-3.3 3.98-2.96 2.19.33 50.94 16.78 50.94 16.78ZM247.47 271.807c-.97 9.74 8.23 18.73 4.2 18.89-4.02.16-6.37-9.73-7.45-20.44-1.08-10.7 5.39-22.11 5.39-22.11 6.37-1.81-1.17 13.92-2.14 23.66Z" fill="#FFEAED"/><path d="M372.55 36.247c1.75 7.42-6.54 23.79-11.56 19.86-5.02-3.93-17.02-19.64-9.6-21.82 7.42-2.18 8.94 6.76 8.94 6.76 3.93-7.85 10.48-12.22 12.22-4.8ZM330.82 14.187c2.93 5.51-.21 20.19-5.01 18.13-4.79-2.06-17.57-11.98-12.16-15.26 5.42-3.28 8.5 3.48 8.5 3.48 1.47-7.03 5.73-11.86 8.67-6.35ZM396.64 23.897s2.57-5.64 7.08-2.91c4.52 2.74-6.14 11.02-10.14 12.73-4 1.72-6.62-10.53-4.17-15.12 2.44-4.59 6-.57 7.23 5.3Z" fill="#D21112"/></g></svg>