<svg width="24" height="24" viewBox="0 0 24 24" fill="none" xmlns="http://www.w3.org/2000/svg">
<path d="M12 2C6.4879 2 2 6.48387 2 12C2 17.5121 6.4879 22 12 22C17.5121 22 22 17.5121 22 12C22 6.48387 17.5121 2 12 2ZM3.00806 12C3.00806 10.6976 3.28629 9.45968 3.78629 8.34274L8.07661 20.0927C5.07661 18.6331 3.00806 15.5565 3.00806 12ZM12 20.9919C11.1169 20.9919 10.2661 20.8629 9.45968 20.625L12.1573 12.7863L14.9194 20.3589C14.9395 20.4032 14.9597 20.4435 14.9839 20.4839C14.0524 20.8105 13.0484 20.9919 12 20.9919ZM13.2379 7.78629C13.7782 7.75806 14.2661 7.70161 14.2661 7.70161C14.75 7.64516 14.6935 6.93145 14.2097 6.95968C14.2097 6.95968 12.754 7.07258 11.8145 7.07258C10.9315 7.07258 9.44758 6.95968 9.44758 6.95968C8.96371 6.93145 8.90726 7.67339 9.39113 7.70161C9.39113 7.70161 9.85081 7.75806 10.3347 7.78629L11.7339 11.625L9.76613 17.5242L6.49194 7.78629C7.03226 7.75806 7.52016 7.70161 7.52016 7.70161C8.00403 7.64516 7.94758 6.93145 7.46371 6.95968C7.46371 6.95968 6.00806 7.07258 5.06855 7.07258C4.89919 7.07258 4.70161 7.06855 4.4879 7.06048C6.09677 4.62097 8.85887 3.00806 12 3.00806C14.3387 3.00806 16.4718 3.90323 18.0726 5.36694C18.0323 5.3629 17.996 5.35887 17.9556 5.35887C17.0726 5.35887 16.4476 6.12903 16.4476 6.95564C16.4476 7.69758 16.875 8.32258 17.3306 9.06452C17.6734 9.66129 18.0726 10.4315 18.0726 11.5444C18.0726 12.3145 17.7782 13.2056 17.3871 14.4516L16.4919 17.4476L13.2379 7.78629ZM16.5202 19.7702L19.2661 11.8306C19.7782 10.5484 19.9516 9.52419 19.9516 8.60887C19.9516 8.27823 19.9315 7.97177 19.8911 7.68548C20.5927 8.96774 20.9919 10.4355 20.9919 12C20.9919 15.3185 19.1935 18.2137 16.5202 19.7702Z" fill="#727586"/>
</svg>
