<svg width="24" height="24" viewBox="0 0 24 24" fill="none" xmlns="http://www.w3.org/2000/svg">
<g clip-path="url(#clip0_814_31010)">
<path fill-rule="evenodd" clip-rule="evenodd" d="M12 18.6249C5.37269 18.6249 0 15.7987 0 12.3124C0 8.82625 5.37269 6 12 6C18.6273 6 24 8.82625 24 12.3124C24 15.7987 18.6273 18.6249 12 18.6249ZM13.0236 14.2957C12.9847 14.2957 12.9478 14.2783 12.9231 14.2483C12.8983 14.2183 12.8883 14.1788 12.8957 14.1406L13.4396 11.3416C13.4913 11.0754 13.4786 10.8844 13.4037 10.8037C13.3579 10.7543 13.2202 10.6715 12.8131 10.6715H11.8278L11.144 14.1903C11.1321 14.2515 11.0785 14.2957 11.0162 14.2957H9.64899C9.6101 14.2957 9.57325 14.2783 9.54851 14.2483C9.52377 14.2183 9.51375 14.1788 9.52117 14.1406L10.7507 7.81464C10.7626 7.75349 10.8162 7.7093 10.8785 7.7093H12.2457C12.2846 7.7093 12.3214 7.72666 12.3462 7.75665C12.3709 7.78669 12.3809 7.82614 12.3735 7.86434L12.0768 9.39116H13.1368C13.9443 9.39116 14.4919 9.53352 14.8108 9.8264C15.1359 10.1252 15.2373 10.6029 15.1123 11.2465L14.5403 14.1903C14.5284 14.2515 14.4748 14.2957 14.4124 14.2957H13.0236ZM6.51972 13.037C7.04337 13.037 7.4343 12.9404 7.68165 12.75C7.92635 12.5616 8.09536 12.2352 8.18395 11.7799C8.26655 11.3543 8.23508 11.0571 8.09046 10.8967C7.94259 10.7329 7.62288 10.6498 7.14024 10.6498H6.3034L5.83947 13.037H6.51972ZM3.78261 15.9775C3.74377 15.9775 3.70687 15.9602 3.68218 15.9301C3.65744 15.9001 3.64741 15.8606 3.65483 15.8225L4.88435 9.4965C4.89624 9.43534 4.94984 9.39116 5.01217 9.39116H7.66208C8.49489 9.39116 9.11476 9.61729 9.50439 10.0633C9.8961 10.5117 10.0171 11.1385 9.8639 11.9262C9.80157 12.2471 9.69436 12.5452 9.54528 12.812C9.39601 13.0792 9.19875 13.3264 8.95886 13.5468C8.67171 13.8156 8.34671 14.0105 7.99376 14.1251C7.64641 14.2383 7.20031 14.2957 6.66789 14.2957H5.59489L5.28847 15.8721C5.27658 15.9333 5.22302 15.9775 5.16069 15.9775H3.78261ZM18.4375 12.75C18.1902 12.9404 17.7992 13.037 17.2756 13.037H16.5953L17.0593 10.6498H17.8961C18.3787 10.6498 18.6984 10.7329 18.8463 10.8967C18.991 11.0571 19.0224 11.3543 18.9399 11.7799C18.8512 12.2352 18.6822 12.5617 18.4375 12.75ZM14.4381 15.9301C14.4628 15.9602 14.4997 15.9775 14.5385 15.9775H15.9165C15.9789 15.9775 16.0325 15.9333 16.0444 15.8721L16.3507 14.2957H17.4238C17.9562 14.2957 18.4023 14.2383 18.7496 14.1251C19.1026 14.0105 19.4276 13.8156 19.7147 13.5468C19.9546 13.3264 20.1519 13.0792 20.3011 12.812C20.4502 12.5452 20.5574 12.2471 20.6198 11.9262C20.7729 11.1385 20.652 10.5117 20.2603 10.0633C19.8706 9.61729 19.2508 9.39116 18.4179 9.39116H15.7681C15.7057 9.39116 15.6521 9.43534 15.6402 9.4965L14.4107 15.8225C14.4033 15.8606 14.4133 15.9001 14.4381 15.9301Z" fill="#727586"/>
</g>
<defs>
<clipPath id="clip0_814_31010">
<rect width="24" height="24" fill="white"/>
</clipPath>
</defs>
</svg>
