<?xml version="1.0" encoding="UTF-8"?>
<svg width="326px" height="383px" viewBox="0 0 326 383" version="1.1" xmlns="http://www.w3.org/2000/svg" xmlns:xlink="http://www.w3.org/1999/xlink">
    <title>corner-1</title>
    <g id="corner-1" stroke="none" stroke-width="1" fill="none" fill-rule="evenodd">
        <g id="Group" transform="translate(-11.000000, 99.000000)" fill="#5B2622">
            <g id="Thanksgiving/Stuffs/Leaf7-Copy" transform="translate(145.000000, 137.090909) scale(-1, 1) rotate(50.000000) translate(-145.000000, -137.090909) ">
                <path d="M206.280304,48.7841648 C218.120228,58.4440572 233.445865,62.213259 242.790251,62.182111 C245.323748,62.182111 247.415655,62.0562424 248.871428,61.9294424 C250.920161,61.0852577 252.953,60.2130112 254.951326,59.3207351 C258.504731,57.741995 261.949589,56.0998928 265.190165,54.486588 L266.26266,53.9500127 C275.312325,49.4003377 282.636679,45.1640455 286.058247,43.3373357 C286.220113,43.2523464 286.37549,43.1704468 286.524379,43.091637 C287.444811,42.604405 288.585904,42.9460898 289.087104,43.8589904 C289.598976,44.7913276 289.28184,45.9615372 288.369255,46.5078456 C280.684411,51.1081556 272.033829,55.6399461 262.417509,60.1032171 C259.518229,61.4485908 256.503327,62.7868104 253.427581,64.0865666 L245.086869,93.8517223 C249.940113,104.307492 268.832835,149.503152 244.746456,172.903317 C218.186893,198.765612 210.452196,114.328363 241.279764,93.3046288 L248.583766,66.0801821 C236.677302,70.8486557 224.301172,74.8218462 214.487225,76.2667874 C202.213955,78.0945267 188.884752,81.4022812 176.044652,87.6526506 C175.414848,88.9425638 174.578584,90.7007285 173.782687,92.5105534 L173.530639,93.0887294 C172.697014,95.01849 171.938604,96.9566951 171.551784,98.4045079 C170.378061,102.675556 168.813097,108.511567 167.150323,114.771424 C164.550206,124.499576 163.343731,135.20242 162.240943,142.389683 C165.370388,154.062432 173.670955,191.902505 153.130853,202.474617 C129.346182,214.716727 129.471664,157.399209 158.951484,140.161908 C161.133982,128.379685 163.057776,112.956733 169.480565,91.3466141 L169.555,91.095 L168.898916,91.4771725 C156.867302,98.5305736 145.479815,108.493642 135.981456,122.726657 C125.189724,138.930556 115.115268,155.916936 105.334243,170.653681 C104.119046,172.480528 102.797979,174.283841 101.397474,176.055025 C100.465087,181.725691 99.7076588,187.494932 99.1229408,193.361425 C98.5124685,199.486312 98.0026343,206.59631 97.593438,214.69142 C102.386976,226.971571 117.255008,269.103438 97.7050434,274.136928 C76.3492044,279.673627 82.6408027,236.92666 93.7756051,215.580043 L93.6888024,217.276568 C94.0952064,208.929213 94.7281321,200.723945 95.5875796,192.660763 C96.0999287,187.853996 96.5942722,184.021899 97.0706099,181.164473 C88.3319822,190.870731 77.8481076,199.253272 70.5381508,204.714572 C63.1591257,239.016183 4.46952966,263.583316 0.188221526,236.447378 C-3.77608338,211.34983 56.0572453,202.801096 68.7796328,201.271427 C78.0529808,194.362016 93.1219537,182.185272 102.171712,168.534459 C109.71151,157.186681 117.508281,144.356369 125.731333,131.536508 C122.762519,132.039507 119.791713,132.366665 116.81914,132.519956 C113.566121,132.68771 107.438608,132.335735 98.4366008,131.464033 C69.4386937,140.415259 11.2913546,115.938881 44.5288694,97.556819 C75.0605917,80.6711999 96.4417704,118.613217 101.158279,128.018176 C106.992244,128.612166 112.224733,128.756881 116.856146,128.452095 C121.117668,128.17165 124.986366,127.790171 128.462239,127.307656 C129.910957,125.076859 131.37404,122.851847 132.851527,120.640039 C143.838879,104.110106 157.431244,93.024944 171.581127,85.6565716 C175.467448,83.6290037 179.394879,81.875501 183.325475,80.3571815 L164.504676,71.2857693 C143.34014,77.1147677 88.188207,78.6990062 113.974149,59.8672684 C136.026344,43.7815191 157.569997,60.3484819 165.093099,67.3751651 L188.171058,78.6015127 C196.963761,75.6199391 205.694145,73.7374065 213.936227,72.5173944 C220.988849,71.4775455 229.778128,69.0253804 238.802568,65.8030111 C228.778798,64.9028035 214.651344,60.7625569 203.218239,51.1903039 C197.08635,51.3815561 183.17318,50.9008069 173.084145,43.6307664 C159.78195,34.0127583 148.696788,0.757272384 177.51821,0.00739378062 C202.738776,-0.620338379 205.887255,38.9056983 206.280304,48.7841648 Z" id="Combined-Shape"></path>
            </g>
        </g>
        <g id="Group" transform="translate(-10.000000, 184.000000)" fill="#993735">
            <g id="Thanksgiving/Stuffs/Leaf7" transform="translate(166.153846, 157.090909) scale(-1, -1) translate(-166.153846, -157.090909) ">
                <path d="M236.374275,55.901923 C249.940747,66.970198 267.50273,71.2894646 278.21058,71.2537717 C281.114895,71.2537717 283.512776,71.10942 285.181017,70.9640599 C287.528076,69.9962454 289.856707,68.9970679 292.145817,67.9749537 C308.206831,60.8392158 322.332603,52.5738296 327.790882,49.6597586 C327.976371,49.5623659 328.154424,49.468514 328.325042,49.3782029 C329.379753,48.8199193 330.687303,49.2114472 331.261615,50.2575168 C331.848163,51.3258714 331.484761,52.6668012 330.43904,53.2928098 C321.633065,58.5642525 311.720462,63.7571795 300.70123,68.8715909 C297.378229,70.4135868 293.922679,71.9473814 290.39739,73.4370732 L280.841862,107.542787 C286.402524,119.52237 308.053117,171.313337 280.452173,198.127939 C250.018011,227.763112 241.154853,131.008452 276.479244,106.917041 L284.849281,75.7205356 C271.205806,81.1846712 257.024148,85.737501 245.778464,87.3932417 C231.714267,89.4876865 216.440019,93.2781599 201.72631,100.44078 C200.161746,103.64886 197.483811,109.374894 196.579233,112.760603 C195.234277,117.654748 193.441002,124.342167 191.535648,131.515265 C188.556337,142.662147 187.173841,154.925818 185.910215,163.161612 C189.495675,176.536713 199.00802,219.898658 175.470898,232.013354 C148.216527,246.041339 148.360101,180.362981 182.139904,160.610393 C184.677314,146.915985 186.908961,128.930068 194.524439,103.607432 L194.290975,104.385722 C180.226973,112.492133 166.901263,124.025525 155.819599,140.631077 C143.453477,159.198939 131.909273,178.663439 120.701308,195.550107 C119.308808,197.643498 117.79499,199.709922 116.190143,201.739528 C115.121718,208.237993 114.253839,214.848607 113.583847,221.570652 C112.88422,228.590027 112.299945,236.738533 111.831019,246.016168 C117.327037,260.092546 134.359224,308.363063 111.959095,314.130379 C87.4879325,320.474755 94.6970059,271.492559 107.456005,247.031462 L107.35693,248.974741 C107.822624,239.409602 108.547886,230.007278 109.532717,220.767771 C110.119667,215.261111 110.685995,210.870764 111.2317,207.596729 C101.218878,218.716173 89.2067183,228.320877 80.8305348,234.578844 C72.3738134,273.885712 5.12160099,302.037229 0.215680899,270.942353 C-4.32699755,242.18319 64.2361635,232.387348 78.8140536,230.634602 C89.4402347,222.717044 106.707449,208.763928 117.077399,193.121714 C125.717159,180.118439 134.65138,165.416348 144.07407,150.726231 C140.672474,151.302532 137.26811,151.677444 133.86172,151.853107 C130.133795,152.04535 123.111439,151.641939 112.794652,150.642872 C79.5674837,160.899602 12.9390699,132.852801 51.0251235,111.789246 C86.0104618,92.4405473 110.510665,135.916007 115.915833,146.694 C122.600898,147.375206 128.596911,147.54105 133.904125,147.19179 C138.787283,146.870437 143.220321,146.433312 147.203239,145.880416 C148.863771,143.323709 150.540159,140.774313 152.23305,138.240044 C164.823331,119.298583 180.398667,106.596222 196.612856,98.1528884 C201.065533,95.8298418 205.565304,93.8207568 210.068708,92.0810973 L188.504883,81.6853156 C164.25331,88.3648902 101.053515,90.180546 130.601677,68.60122 C155.872688,50.1675385 180.560889,69.1551191 189.179989,77.206012 L215.622742,90.0686878 C225.69831,86.6520724 235.702472,84.4948682 245.147082,83.0968551 C253.228765,81.9052799 263.300545,79.0952821 273.641768,75.4026951 C262.154934,74.3713166 245.96699,69.6271932 232.866165,58.6589734 C225.839874,58.8775692 209.896375,58.3268822 198.335147,49.9959976 C183.092314,38.9748317 170.389954,0.867749787 203.416091,0.00847244887 C232.316651,-0.710853607 235.924006,44.5834767 236.374275,55.901923 Z" id="Combined-Shape"></path>
            </g>
        </g>
        <g id="Group" transform="translate(-10.810000, 27.148420)">
            <g id="Thanksgiving/Stuffs/Leaves" transform="translate(121.500000, 175.829268) scale(1, -1) translate(-121.500000, -175.829268) ">
                <path d="M85.0411605,139.006713 C85.0411605,139.006713 147.606881,199.954793 178.547738,169.771721 C209.477953,139.598348 136.114231,99.9394212 85.0411605,139.006713" id="Fill-2690" fill="#C13E2B"></path>
                <path d="M44.0878918,142.789296 C44.0878918,142.789296 89.0078131,201.875181 75.4631459,225.598765 C61.9184787,249.332048 28.4621832,255.558761 16.3019745,214.144328 C4.1311235,172.720196 44.0878918,142.789296 44.0878918,142.789296" id="Fill-2691" fill="#C13E2B"></path>
                <path d="M89.336755,214.018242 C89.336755,214.018242 128.80011,247.14009 127.609147,271.785072 C126.400769,296.420356 88.0306621,310.638988 75.4244468,273.792751 C62.8279063,236.946514 89.336755,214.018242 89.336755,214.018242" id="Fill-2692" fill="#C13E2B"></path>
                <path d="M188.841685,294.422376 C200.97287,328.775988 189.044855,361.199513 163.290638,346.719009 C137.536421,332.248205 130.778061,257.973795 139.195104,248.051789 C164.198274,256.05664 180.747134,271.513502 188.841685,294.422376 Z" id="Fill-2693" fill="#C13E2B"></path>
                <path d="M129.961082,198.102297 C129.961082,198.102297 181.710418,173.04026 210.387381,199.819008 C239.073051,226.597755 227.278548,239.070579 203.818217,247.295273 C180.347244,255.529665 129.961082,198.102297 129.961082,198.102297" id="Fill-2694" fill="#C13E2B"></path>
                <path d="M30.1465593,90.7351361 C30.1465593,90.7351361 30.5045255,91.171588 31.1914336,92.0153949 C36.3480819,98.3875923 59.82873,127.775352 86.3569282,166.406192 C112.894801,205.037032 142.460875,252.930351 159.769024,296.226377 L162.023244,295.324377 C143.428351,248.818005 110.940499,197.326383 83.0868586,157.415283 C55.2428927,117.504184 32.0428127,89.2027051 32.0234632,89.1833072 L30.1465593,90.7351361" id="Fill-2695" fill="#201711"></path>
                <path d="M98.6729006,268.08978 C98.6729006,268.08978 98.6438763,267.963694 98.576153,267.72122 C98.1117644,265.868725 95.9929914,257.275472 93.9999904,246.015014 C91.9973146,234.754555 90.1300855,220.826891 90.1300855,208.344368 C90.1300855,202.34073 90.5654498,196.666855 91.6103241,191.81739 C92.6551985,186.967925 94.3086153,182.952567 96.66055,180.217469 L94.8213777,178.626844 C92.0843875,181.827492 90.3332555,186.211408 89.2293651,191.303347 C88.1370845,196.395285 87.7007527,202.224342 87.7007527,208.344368 C87.7007527,221.913171 89.8591922,236.97561 92.0069894,248.672521 C94.1644614,260.369431 96.3122586,268.681414 96.3219334,268.700812 L98.6729006,268.08978" id="Fill-2696" fill="#201711"></path>
                <path d="M46.9806457,116.010549 C46.9806457,116.029947 44.5909794,124.758984 42.2109879,137.357895 C39.8213216,149.956806 37.4316553,166.415891 37.4316553,181.963277 C37.4413301,193.601993 38.7570977,204.716968 42.5205803,213.387811 L44.7457756,212.417918 C41.1951378,204.261118 39.8600206,193.408015 39.8600206,181.963277 C39.8600206,166.668063 42.2206626,150.315666 44.5909794,137.804046 C45.7809752,131.557935 46.9612962,126.262319 47.8513743,122.52823 C48.2964134,120.666036 48.6640543,119.191798 48.9243054,118.192808 C49.0510448,117.688464 49.1477924,117.300507 49.2251905,117.038636 C49.2929139,116.786463 49.3209707,116.650678 49.3209707,116.650678 L46.9806457,116.010549" id="Fill-2697" fill="#201711"></path>
                <polyline id="Fill-2698" fill="#201711" points="61.3186434 131.082687 149.300932 149.384569 149.794345 146.998632 61.8120563 128.706449"></polyline>
                <path d="M106.364337,196.637758 C106.364337,196.637758 106.403036,196.637758 106.490109,196.647457 C109.266765,196.734748 155.918469,198.790921 203.5183,225.812141 L204.71797,223.697775 C155.009041,195.493285 106.538482,194.213026 106.431092,194.203327 L106.364337,196.637758" id="Fill-2699" fill="#201711"></path>
                <path d="M167.179892,36.168953 C184.459018,-3.48027498 101.594679,-16.3712324 69.0100794,39.1357469 C122.930755,63.5907029 155.654026,62.6017716 167.179892,36.168953 Z" id="Fill-2700" fill="#F3B428"></path>
                <path d="M92.7422713,126.873351 C89.133585,153.972163 60.4962886,172.400131 33.6391485,138.638154 C6.78200837,104.885876 30.5475239,62.0553985 30.5475239,62.0553985 C74.4164797,87.2014924 95.1480622,108.807477 92.7422713,126.873351 Z" id="Fill-2701" fill="#F3B428"></path>
                <path d="M101.227038,110.899213 C101.227038,110.899213 150.249058,126.640577 158.414558,149.908311 C166.580057,173.176046 136.385124,200.866492 110.853426,171.517528 C85.3120539,142.158866 101.227038,110.899213 101.227038,110.899213" id="Fill-2702" fill="#F3B428"></path>
                <path d="M223.641805,147.706654 C247.819036,174.931552 248.970333,209.459745 219.675153,205.803248 C190.370298,202.146751 154.040489,135.185335 158.103889,122.809499 C185.677679,121.25767 207.523651,129.556722 223.641805,147.706654 Z" id="Fill-2703" fill="#F3B428"></path>
                <path d="M132.853836,80.7840334 C132.853836,80.7840334 171.34004,37.9923519 207.978365,51.939414 C244.61669,65.8864761 238.405492,81.8994104 219.761258,98.3972912 C201.128633,114.895172 132.853836,80.7840334 132.853836,80.7840334" id="Fill-2704" fill="#F3B428"></path>
                <path d="M0,19.1182331 C0,19.1182331 0.492445401,19.3898032 1.45121434,19.9135454 C8.6202132,23.8707091 41.4370069,42.1919888 80.5423961,67.9329504 C119.65746,93.673912 165.070794,126.834555 197.394175,160.373457 L199.145307,158.685843 C164.422585,122.664015 114.945851,87.262919 74.1280287,60.8430322 C33.3198813,34.4231455 1.17064624,16.9941673 1.15129671,16.9844684 L0,19.1182331" id="Fill-2705" fill="#201711"></path>
                <path d="M130.231975,157.434681 C130.231975,157.434681 130.096529,157.250402 129.825635,156.891541 C127.861658,154.204937 118.960877,141.819403 110.572858,127.057631 C106.374011,119.676745 102.310611,111.694525 99.3017601,104.051768 C96.2929091,96.4090104 94.3676314,89.0960168 94.3676314,83.1408735 C94.3676314,80.8034312 94.667549,78.6793655 95.277059,76.8171708 L92.9744656,76.0509553 C92.2575657,78.2138168 91.939266,80.5997537 91.939266,83.1408735 C91.9489408,90.0368131 94.261209,98.145119 97.6764001,106.505597 C102.794349,119.036615 110.447086,132.110774 116.81308,142.071575 C123.179073,152.032377 128.267998,158.879822 128.277673,158.889521 L130.231975,157.434681" id="Fill-2706" fill="#201711"></path>
                <path d="M25.1060081,36.1592541 C29.273032,53.2270757 27.1377082,53.1323825 32.1976089,73.0539858 C34.7227219,83.0244863 38.0024663,93.7321056 42.1819636,103.469832 C46.3711357,113.197859 51.4310363,121.955993 57.6315915,128.027524 L59.3256424,126.291415 C53.4917607,120.578745 48.5179654,112.063084 44.4168337,102.499939 C38.2540101,88.1552206 34.0164642,71.4730601 31.3365551,58.3989017 C29.9917631,51.8618226 29.3951613,41.2560294 27.5730725,36.2950391 C25.7509838,31.3340487 25.4758065,31.4331653 25.4758065,31.4331653 C23.6600646,30.5873874 22.353613,29.9325298 21.5564516,29.4685925 C22.8629032,30.7783077 24.0460887,33.0085282 25.1060081,36.1592541 Z" id="Fill-2707" fill="#201711"></path>
                <polyline id="Fill-2708" fill="#201711" points="44.0588675 44.7040118 132.428146 28.351615 131.983107 25.9559791 43.6138284 42.308376"></polyline>
                <path d="M110.455794,88.3588981 L110.534159,88.3298013 C112.285291,87.679973 142.296404,76.8171708 183.104551,76.8171708 C192.082731,76.8171708 201.573672,77.340913 211.403231,78.6114729 L211.722498,76.2061382 C201.776842,74.9161804 192.169803,74.3827392 183.104551,74.3827392 C140.53463,74.3924382 109.68278,86.0505527 109.595707,86.0796494 L110.455794,88.3588981" id="Fill-2709" fill="#201711"></path>
            </g>
        </g>
        <g id="Group" transform="translate(-10.000000, -0.409091)">
            <g id="Thanksgiving/Stuffs/Leaf6" transform="translate(27.000000, 56.793103) scale(-1, -1) rotate(30.000000) translate(-27.000000, -56.793103) ">
                <path d="M16.8285764,34.3261529 C16.8285764,34.3261529 55.1997405,66.4510672 54.0417384,90.3542611 C52.8668038,114.248048 15.558631,128.038714 3.30130648,92.3015106 C-8.94661106,56.5643073 16.8285764,34.3261529 16.8285764,34.3261529" id="Fill-2692-Copy" fill="#C13E2B"></path>
                <path d="M21.3627517,65.3598549 C19.4155021,54.4383247 17.5999506,40.9298688 17.5999506,28.8230563 C17.5999506,23.0001216 18.0232657,17.497025 19.039222,12.7935237 C19.663724,9.90231077 21.1039656,6.48859795 23.3599469,2.55238523 C23.6980508,1.96241557 23.5704069,1.21555032 23.0555418,0.771374223 C22.644748,0.416980816 22.0244412,0.462702386 21.6700478,0.873496206 C21.6293801,0.920636027 21.5932858,0.971535141 21.5622765,1.02552077 C19.001962,5.4782113 17.389256,9.23468856 16.7241587,12.2949525 C15.662108,17.233629 15.2378522,22.8872376 15.2378522,28.8230563 C15.2378522,41.9834531 17.3365545,56.5925283 19.4249091,67.9373736 C20.7254916,74.9710168 22.026074,81.0636256 23.3266565,86.2151999 C23.4857903,86.8455307 24.1257787,87.2275099 24.7561091,87.0683747 C24.7585358,87.0677621 24.7609605,87.0671417 24.7633832,87.0665136 C25.3959791,86.9025073 25.7795203,86.2607807 25.624372,85.6259542 C24.0047986,78.9995389 22.5842585,72.2441724 21.3627517,65.3598549 Z" id="Fill-2696-Copy" fill="#201711"></path>
            </g>
        </g>
    </g>
</svg>