<?xml version="1.0" encoding="UTF-8"?>
<svg width="316px" height="248px" viewBox="0 0 316 248" version="1.1" xmlns="http://www.w3.org/2000/svg" xmlns:xlink="http://www.w3.org/1999/xlink">
    <title>decoration-7</title>
    <g id="decoration-7" stroke="none" stroke-width="1" fill="none" fill-rule="evenodd">
        <g id="Thanksgiving/Stickers/Leaf1" transform="translate(2.609468, 6.918911)">
            <path d="M122.227322,4.48069646 C127.38893,-1.68604304 136.921381,-1.43588442 141.765307,4.91298899 L141.959091,5.17371611 L159.451044,29.3355401 C160.113517,30.250621 160.648436,31.2506587 161.041666,32.3081276 L161.182459,32.7073168 L164.807034,43.5701605 L177.768785,42.6824647 C181.608743,42.4194737 185.049931,43.8834051 187.479834,46.3230466 L187.82814,46.6869453 C190.498867,49.59068 191.801402,53.7284396 190.813049,57.9685937 L190.746842,58.23937 L190.327875,59.7952663 L190.027561,60.9431021 L189.702423,62.2153417 C188.951051,65.189122 188.198583,68.3923568 187.498079,71.6887428 C187.111307,73.5087873 186.752906,75.2994668 186.427237,77.0483182 L186.185703,78.3662179 L186.669078,77.6317538 C189.025138,74.0259359 191.387379,70.1890835 193.67505,66.3035776 L194.529273,64.8445885 L195.740328,62.7483372 L196.781621,60.9187305 L197.429481,59.7664632 L198.978377,56.9572928 C202.141525,51.0694803 208.904847,49.0947807 214.440423,51.1681272 L214.44835,51.1287475 C214.625376,50.2826329 214.819199,49.5532643 215.011555,48.9372222 L215.093851,48.6801325 C219.12475,36.4672946 235.069608,38.1596846 238.752483,47.9521288 C239.440815,47.6929552 240.061198,47.4406561 240.614589,47.1978448 C243.021652,38.1832662 254.816315,34.6462246 261.744593,41.9136911 C265.051878,45.3828907 266.843018,50.5219098 265.287572,55.9837336 C265.457291,58.5710478 265.810057,60.9982145 266.35085,62.8892401 C266.424404,63.1464413 266.497578,63.3797349 266.567659,63.5873092 L266.655446,63.8391939 L266.895329,63.9513643 C272.81827,66.8065243 275.655765,73.9856291 272.878204,80.2501622 L272.743884,80.5431223 L272.540528,80.9690986 L272.36084,81.3774411 L272.302104,81.5146563 C271.95508,82.3301701 271.599561,83.2663298 271.266467,84.2849312 C270.711784,85.9811568 270.297797,87.6682616 270.059694,89.2588555 L269.969029,89.930237 L270.049952,89.9893585 C270.58138,90.3704648 271.245483,90.7888112 272.016319,91.2194101 L272.353137,91.4046298 L272.663135,91.5701756 C274.22728,92.3941016 275.983882,93.158005 277.749644,93.8177301 L278.116849,93.9533486 L278.810986,94.2008039 C278.921872,94.2393618 279.030247,94.2765632 279.135947,94.312387 L279.905378,94.5637449 C289.695598,97.4719481 292.028063,110.20581 284.025934,116.408847 L281.868062,118.033882 L280.916264,118.760157 L279.916483,119.528975 L278.334299,120.757338 C274.204505,123.981711 270.078193,127.340667 266.255066,130.643644 C264.675568,132.008245 263.180977,133.335285 261.784976,134.615262 L260.663091,135.653687 L260.301491,135.992313 L260.709669,135.942398 L261.525855,135.830768 C267.264263,134.919179 272.461832,138.012155 274.759132,142.73252 L274.883761,142.996422 L274.960921,143.171325 L300.371621,146.032802 C313.292485,147.48764 315.574231,165.068642 303.891826,169.950095 L303.533536,170.094101 L302.23032,170.57547 L301.377492,170.899699 L300.462999,171.255572 L299.4929,171.641681 C296.660721,172.781388 293.835778,174.024447 291.253158,175.3066 L290.483807,175.693849 L289.743242,176.07709 L289.03308,176.455043 L288.354936,176.826426 C288.24467,176.887704 288.135806,176.948656 288.028376,177.009253 L287.401293,177.368379 C287.299739,177.427455 287.199688,177.486123 287.101173,177.544358 L286.528787,177.888343 L285.994887,178.220634 C285.909201,178.27497 285.825186,178.328766 285.742875,178.381994 L285.269736,178.69434 L284.839125,178.991787 C284.566587,179.184835 284.323478,179.367096 284.111955,179.536863 L283.930915,179.685385 L283.921198,179.721317 C283.607699,180.845816 283.403831,182.334957 283.344782,184.014869 L283.333057,184.43872 L283.32768,184.838887 C283.320728,185.880571 283.366429,186.897473 283.447867,187.833648 L283.479467,188.176313 L283.546286,188.78174 L283.567542,188.933945 C284.418111,194.475636 281.47247,199.891118 276.38894,202.203962 L275.046044,202.796369 L274.223411,203.169845 L273.348843,203.574844 L272.42662,204.01017 C272.269182,204.085186 272.109937,204.161415 271.948975,204.238834 C268.740514,205.782007 265.538691,207.463863 262.603803,209.200576 C262.316239,209.370741 262.033359,209.540306 261.755368,209.709099 L260.936265,210.212992 L260.147723,210.711223 L259.390971,211.202761 C259.267564,211.28407 259.145531,211.365056 259.024901,211.445699 L258.318138,211.925267 L257.646237,212.395565 C257.537227,212.473119 257.429721,212.550243 257.323744,212.626916 L256.706441,213.081379 C255.50936,213.978801 254.539885,214.805148 253.842257,215.523314 L253.673539,215.70058 L253.521205,215.866445 L253.520533,216.002909 C253.535945,216.752505 253.744104,217.495665 254.133351,218.261107 L254.287785,218.549249 L254.441178,218.81064 C254.629225,219.118756 254.826205,219.396268 255.013085,219.62968 L255.23354,219.890451 L255.2707,219.925897 C262.865098,227.328405 258.293716,240.22063 247.834848,241.285858 L247.516117,241.3145 L246.077084,241.390562 L244.170066,241.472554 L242.046532,241.551604 C241.860448,241.558023 241.672146,241.56439 241.481673,241.5707 C235.435889,241.770964 229.1932,241.855765 223.094178,241.770801 L220.814445,241.730876 L218.877193,241.682487 L227.455867,254.06192 L233.495564,262.753634 L247.110135,282.267757 C251.646343,288.81496 250.057181,297.805747 243.511594,302.384093 C237.05188,306.902374 228.173232,305.420155 223.51851,299.092674 L217.390566,290.321822 L210.548264,280.502742 L205.965874,273.916412 L197.441601,261.634677 L193.575465,256.046511 L184.507046,288.721489 C182.087125,297.439937 171.537886,300.726341 164.600269,295.112573 L164.375337,294.926356 L163.656521,294.311094 L163.119201,293.866334 L162.525099,293.385999 C162.317879,293.220333 162.10161,293.0493 161.876708,292.873464 C159.928307,291.350134 157.790982,289.822701 155.565632,288.413955 C151.84828,286.060706 148.313651,284.318853 145.334897,283.435599 C143.988559,283.036386 142.851039,282.842221 141.977031,282.82929 C141.495927,282.822172 141.210428,282.86394 141.066161,282.91182 L141.018576,282.929978 L140.378439,283.217428 C135.510895,285.427118 131.699404,287.710929 128.829401,289.908649 C128.202233,290.388906 127.669237,290.828142 127.225917,291.219834 L126.812323,291.595436 L126.548909,291.8475 L126.359055,292.03857 L126.333074,292.069581 C119.924298,299.41758 107.936887,296.88173 105.004057,287.6644 L104.91797,287.383045 L104.835934,287.091753 L104.733915,286.78401 C103.549578,283.323842 101.243257,279.598094 97.9862135,277.243916 C93.1911239,273.778046 86.351,273.223945 75.4537802,277.683033 L74.9479435,277.892404 C64.8772689,282.107811 54.6727708,272.326092 58.3333249,262.158294 L58.6234455,261.374277 L58.9098168,260.548001 L59.0516185,260.124753 C59.5742491,258.54965 60.1023893,256.775047 60.5961936,254.859308 C61.9971687,249.424154 62.819946,244.040022 62.7964505,239.280795 C62.7706238,234.049348 61.7269178,230.287343 59.9372801,228.140431 L59.7673246,227.943895 C52.4152511,219.751565 58.4833653,206.811837 69.3835613,207.101832 L70.1043397,207.12962 L70.6210037,207.144622 L71.3513521,207.159029 L72.1262542,207.1665 L72.7662839,207.167116 C73.9230087,207.163985 75.0668862,207.136933 76.1764617,207.087382 L77.0018764,207.046022 L77.2437598,207.03143 L76.7427789,206.649044 C73.7546983,204.396507 70.3281805,202.217619 66.5304246,200.136257 L65.7109621,199.691753 L64.9785865,199.302064 C58.6943642,195.988153 51.8706714,193.136854 45.0370327,190.78019 L43.621666,190.299379 C43.1573669,190.144066 42.700728,189.993712 42.2522606,189.848321 L40.9318849,189.427039 C40.2844658,189.223846 39.6565835,189.031828 39.049964,188.851 L37.8021271,188.486152 L36.4686714,188.115362 L36.1774306,188.038451 C30.6317352,186.631928 26.7612565,181.651521 26.7453486,175.960675 L26.7483167,175.649578 L27.1356901,157.893349 L12.5567871,145.296686 C9.37137094,142.544235 7.79729862,138.387296 8.3322262,134.244059 L8.3816961,133.898851 L8.43930698,133.562963 L9.74112743,126.551297 L4.1148688,121.463175 C-1.85229588,116.065639 -1.21184486,106.581155 5.27188471,102.000543 L5.53434849,101.819956 L5.79950498,101.646967 L9.38084652,99.3712525 L5.57103901,85.0976823 C2.94278662,75.2483471 12.5512811,66.6609989 21.9597678,70.1381752 L22.2447994,70.2472481 L22.5325075,70.3649888 L32.6559943,74.6442118 L39.4595982,73.6264372 C43.2267287,73.0627165 47.0314552,74.2457375 49.808172,76.8133398 L50.0654449,77.0580979 L50.3242424,77.3189315 L56.9149092,84.1592275 L69.0179643,77.2073791 C74.8062173,73.8824217 82.1458245,75.6958988 85.7406449,81.230153 L85.9116431,81.5008373 L86.5928337,82.6423152 L87.1866535,83.6137977 C87.2719734,83.7519826 87.3589475,83.8922765 87.4475404,84.0345933 L88.2876182,85.367741 C88.3856024,85.5214209 88.4850985,85.6768656 88.5860707,85.833989 C89.0339521,86.5309392 89.4893781,87.2276563 89.9511082,87.9214168 L90.6482763,88.9594996 L91.2676944,89.8642369 L91.0564032,88.8844115 L90.8025396,87.7464496 L90.3934921,86.0026219 L84.2216154,61.8507288 C82.1002945,53.5495401 88.7698305,45.6563705 97.2650038,46.2920153 L97.5457166,46.3160712 L98.8005678,46.4361652 L98.2626366,38.5337506 C98.060319,35.5639521 98.9254823,32.6280967 100.688239,30.2484284 L100.913247,29.9539044 L101.14753,29.6654008 L122.227322,4.48069646 Z" id="Sticker" fill="#FFFFFF" fill-rule="nonzero"></path>
            <g id="Leaf1-Copy" transform="translate(12.510287, 12.500109)">
                <path d="M159.94205,273.77896 C159.94205,273.77896 137.321773,253.672477 123.427597,259.859854 C109.543359,266.04723 104.405097,272.234607 104.405097,272.234607 C104.405097,272.234607 95.6591205,238.717159 57.6041831,254.698725 C57.6041831,254.698725 69.9479366,222.735594 56.5705677,207.780276 C56.5705677,207.780276 97.1996051,209.852699 79.2007825,191.290569 C61.2019599,172.728439 26.7447993,163.960498 26.7447993,163.960498 L27.261607,140.247203 L8.22916902,123.747532 L10.803269,109.828426 L0,100.024273 L11.3200767,92.810649 L5.14819994,69.6054959 L18.5156303,75.2747668 L28.8020916,73.7304136 L42.1695219,87.64952 L62.7424445,75.7928725 C62.7424445,75.7928725 77.6602979,101.57859 88.4635669,104.667297 C99.2568973,107.765967 90.0040515,70.6417071 90.0040515,70.6417071 L83.8321747,46.4103063 L99.773705,47.9546595 L98.2332205,25.267612 L119.313012,0 L136.804966,24.2413644 L143.49365,44.3478474 L166.113926,42.7935306 C166.113926,42.7935306 153.780111,87.141378 162.516149,93.3287546 C171.262126,99.5161312 197.490118,50.535224 197.490118,50.535224 C197.490118,50.535224 203.145187,59.8113071 207.776579,56.7226006 C212.407971,53.6239305 212.407971,53.6239305 212.407971,53.6239305 L214.465264,40.2229297 C214.465264,40.2229297 214.721059,53.8685362 227.315886,48.4727651 C239.910714,43.0769941 240.176447,38.1604708 240.176447,38.1604708 C240.176447,38.1604708 239.152771,60.8475183 248.922424,62.9099772 C248.922424,62.9099772 244.80784,71.1498491 244.80784,79.9177902 C244.80784,88.6857313 263.830339,94.3550022 263.830339,94.3550022 C263.830339,94.3550022 226.292209,122.193215 227.315886,130.961156 C228.349502,139.729097 250.979716,136.122285 250.979716,136.122285 L249.946101,142.309662 L286.460554,146.43458 C286.460554,146.43458 263.32347,154.684415 260.232562,161.898039 C257.151593,169.111663 258.692078,178.915816 258.692078,178.915816 C258.692078,178.915816 230.923602,190.772463 228.866309,200.566652 C226.809017,210.360841 234.004571,217.066323 234.004571,217.066323 C234.004571,217.066323 186.17998,219.646887 176.917195,212.4233 L159.94205,273.77896 Z" id="Fill-2525" fill="#DD612A"></path>
                <path d="M139.127743,134.528114 C139.853262,135.155819 140.916693,135.175746 141.662089,134.577932 C141.910554,134.378661 142.069572,134.189353 142.228589,134.000045 C142.526748,133.631393 142.785151,133.222886 143.073371,132.744635 C143.590179,131.847914 144.186495,130.69214 144.842444,129.307204 C147.128324,124.484836 150.199354,116.982268 152.723761,110.655402 C155.23823,104.328535 157.186197,99.197297 157.186197,99.1873334 C157.573803,98.1610858 157.066934,97.0152753 156.043257,96.6266961 C155.01958,96.2281533 153.87664,96.7462589 153.489034,97.7725066 C153.479096,97.7725066 153.290262,98.2806486 152.952349,99.1674063 C151.759716,102.27604 148.72844,110.107405 145.72698,117.360884 C144.22625,120.97766 142.735458,124.464909 141.483194,127.115218 C141.072398,127.998655 140.606465,128.999753 140.085395,130.118511 L101.599552,96.975421 C100.764709,96.258044 99.5124438,96.3576797 98.8068025,97.184656 C98.0912226,98.0215958 98.1806701,99.2770055 99.0155133,99.984419 L139.127743,134.528114 Z" id="Fill-2526" fill="#E6784C"></path>
                <path d="M128.900913,95.4182396 C129.407782,95.8167824 130.083608,95.9463088 130.699802,95.7669646 C131.315996,95.5876203 131.812926,95.109369 132.011698,94.4916277 L143.331775,60.9841438 C143.679626,59.9479326 143.123064,58.8120857 142.089449,58.4633607 C141.045895,58.1146358 139.922832,58.6725957 139.57498,59.7088069 L129.159317,90.5460542 L101.023113,68.0782052 C100.168392,67.3907189 98.9260658,67.5302089 98.2403018,68.3870759 C97.5644763,69.2439428 97.7036168,70.4993526 98.5583373,71.1868389 L128.900913,95.4182396 Z" id="Fill-2527" fill="#E6784C"></path>
                <path d="M15.2060732,95.3812499 C15.2160118,95.3912135 44.8032535,119.632578 79.1013964,145.62753 C96.2554371,158.629988 114.582234,172.070844 130.990879,183.150333 C139.210109,188.690077 146.932409,193.632008 153.819866,197.647326 C160.707322,201.662645 166.720181,204.741388 171.600039,206.554757 C172.633654,206.933373 173.766656,206.415267 174.144323,205.379056 C174.531929,204.352808 174.005183,203.206998 172.981506,202.828382 C168.469377,201.154503 162.58572,198.165432 155.807588,194.209895 C143.950826,187.295178 129.370885,177.461135 114.184689,166.600844 C91.4053955,150.310408 67.2843892,131.728351 48.8582064,117.231358 C39.645115,109.977879 31.8532448,103.740685 26.3770707,99.3268234 C23.6340144,97.114911 21.4673974,95.3613228 19.9865446,94.1557309 C18.5056917,92.950139 17.7106029,92.302507 17.7106029,92.302507 C16.865821,91.6050571 15.6135562,91.7345835 14.9277921,92.5814869 C14.2320894,93.4283903 14.3513527,94.6838 15.2060732,95.3812499" id="Fill-2528" fill="#E6784C"></path>
                <path d="M124.540721,141.901155 L126.488689,178.108767 L86.7740032,181.057983 C85.6807562,181.137692 84.8558515,182.084231 84.9353604,183.180223 C85.0248079,184.276216 85.9689758,185.103192 87.0622229,185.023484 L128.724876,181.924814 C129.798246,181.845105 130.613212,180.918493 130.55358,179.832464 L128.496288,141.681957 C128.436656,140.585964 127.502427,139.749024 126.40918,139.808806 C125.315933,139.868587 124.481089,140.805163 124.540721,141.901155" id="Fill-2529" fill="#E6784C"></path>
                <path d="M49.9912079,153.05039 L89.0797608,150.997894 C89.6065071,150.968004 90.1034376,150.728878 90.4512889,150.330335 C90.8090789,149.931792 90.9879739,149.413687 90.9482194,148.885618 L88.8909272,115.378134 C88.8312955,114.282141 87.8871276,113.445201 86.7938805,113.514946 C85.7006334,113.584691 84.8757288,114.521267 84.9353604,115.617259 L86.8733893,147.132029 L49.7824971,149.084889 C48.68925,149.14467 47.8544068,150.081246 47.9040998,151.177239 C47.9637315,152.273231 48.8979608,153.110171 49.9912079,153.05039" id="Fill-2530" fill="#E6784C"></path>
                <path d="M34.1093093,129.845236 L58.2800086,127.782778 C58.8663866,127.742923 59.4030715,127.434053 59.7310456,126.955801 C60.0689584,126.47755 60.1782831,125.869772 60.0391426,125.311812 L52.8336504,97.4636359 C52.5553693,96.4074975 51.4819994,95.7698291 50.4185681,96.0388455 C49.3551369,96.3178254 48.7190658,97.4038545 48.9973469,98.4599928 L55.6065225,124.026512 L33.7713965,125.889699 C32.688088,125.979372 31.873122,126.945838 31.9725081,128.04183 C32.0619556,129.127859 33.0260008,129.944872 34.1093093,129.845236" id="Fill-2531" fill="#E6784C"></path>
                <path d="M218.848191,69.2667345 C218.828313,69.2866616 208.27351,91.3659314 197.380793,119.154326 C191.934435,133.043542 186.398629,148.367512 182.065395,163.093668 C177.732161,177.819823 174.571683,191.938201 173.905796,203.545759 C173.846165,204.641752 174.681008,205.578327 175.774255,205.648072 C176.867502,205.707854 177.801732,204.870914 177.871302,203.774921 C178.487496,192.695432 181.568465,178.776326 185.861944,164.219551 C192.302163,142.369443 201.445685,119.034764 208.979151,101.190011 C212.745884,92.2626527 216.105134,84.7003035 218.530155,79.3797574 C219.732727,76.7194844 220.716649,74.6171713 221.382536,73.1824173 C221.720449,72.4650403 221.978853,71.917044 222.157748,71.5384283 C222.326704,71.1697762 222.416151,70.9804684 222.416151,70.9804684 C222.893205,69.9940751 222.475783,68.8084103 221.491861,68.330159 C220.498,67.8618712 219.315305,68.2703776 218.848191,69.2667345" id="Fill-2532" fill="#E6784C"></path>
                <path d="M177.086152,108.380843 L188.913097,146.013245 C189.091992,146.581169 189.509414,147.039493 190.065976,147.258691 C190.6126,147.487853 191.228794,147.447999 191.75554,147.169019 L215.409431,134.27616 C216.373477,133.748091 216.721328,132.542499 216.20452,131.576033 C215.677774,130.61953 214.475202,130.260842 213.511157,130.778947 L191.974189,142.516032 L180.862823,107.185215 C180.534849,106.13904 179.421725,105.561153 178.378171,105.889951 C177.334617,106.218749 176.758178,107.334669 177.086152,108.380843" id="Fill-2533" fill="#E6784C"></path>
                <path d="M196.595643,82.4485368 L202.76752,108.224291 C202.90666,108.832069 203.324082,109.330247 203.900521,109.579336 C204.467022,109.828426 205.113032,109.798535 205.659655,109.499628 L218.520216,102.27604 C219.474323,101.738007 219.812236,100.532415 219.275551,99.5759126 C218.738866,98.61941 217.536294,98.270685 216.582187,98.8087178 L206.007507,104.747005 L200.441885,81.5219249 C200.19342,80.4558229 199.12005,79.7982274 198.056619,80.0473166 C196.993187,80.3063694 196.337239,81.3824349 196.595643,82.4485368" id="Fill-2534" fill="#E6784C"></path>
                <path d="M240.564053,157.185271 L171.649732,206.684284 C170.755257,207.321952 170.556485,208.567398 171.192556,209.454156 C171.828627,210.350877 173.070953,210.560112 173.95549,209.91248 L242.869811,160.423431 C243.764286,159.785763 243.972996,158.540316 243.326987,157.643595 C242.690916,156.756837 241.458528,156.547602 240.564053,157.185271" id="Fill-2535" fill="#E6784C"></path>
                <path d="M213.053981,175.328931 C212.785638,176.395033 211.264658,179.487476 214.845415,179.487476 C216.029766,178.0768 216.714702,177.019416 216.900223,176.315324 L223.0721,152.07396 C223.340442,151.017821 222.694433,149.931792 221.64094,149.662776 C220.577509,149.39376 219.4942,150.031428 219.225858,151.09753 L213.053981,175.328931 Z" id="Fill-2536" fill="#E6784C"></path>
                <path d="M174.760517,205.897162 L79.1013964,237.35215 C78.0578423,237.690912 77.4913416,238.816795 77.8292543,239.853006 C78.1771057,240.899181 79.29023,241.467104 80.333784,241.128343 L175.992905,209.673355 C177.036459,209.334593 177.602959,208.20871 177.255108,207.162535 C176.917195,206.126324 175.794132,205.5584 174.760517,205.897162" id="Fill-2537" fill="#E6784C"></path>
                <path d="M123.199009,224.578854 C123.874834,224.851192 125.777581,224.17973 128.907249,222.56447 C126.778068,221.728692 125.375564,221.174635 124.699739,220.902297 L90.7494472,206.973227 C89.735709,206.564721 88.5828303,207.052936 88.1654086,208.059256 C87.7579256,209.07554 88.2349789,210.241278 89.2487171,210.659748 L123.199009,224.578854 Z" id="Fill-2538" fill="#E6784C"></path>
                <path d="M146.385786,217.654174 L133.008417,241.885574 C132.48167,242.842077 132.829522,244.057633 133.783628,244.585702 C134.747673,245.113771 135.950245,244.765046 136.476991,243.808543 L149.85436,219.577143 C150.381107,218.610676 150.033255,217.405084 149.079149,216.877015 C148.115104,216.338982 146.912532,216.687707 146.385786,217.654174" id="Fill-2539" fill="#E6784C"></path>
                <path d="M224.314426,277.794279 C224.314426,277.794279 223.737987,276.967302 222.704371,275.492694 C219.106594,270.321601 209.973012,257.199581 200.799675,243.908179 C191.616399,230.626741 182.373492,217.155995 178.576943,211.337271 C154.962806,175.15955 140.074768,127.244745 131.149897,88.4266785 C126.687461,69.0076817 123.705878,51.8703423 121.837419,39.5852612 C120.90319,33.4477025 120.25718,28.5256992 119.839758,25.1380856 C119.621109,23.4442788 119.47203,22.1290876 119.372644,21.2522935 C119.322951,20.8039329 119.293135,20.4751351 119.263319,20.245973 C119.243442,20.0168109 119.233503,19.9171752 119.233503,19.9171752 C119.124179,18.8211826 118.150195,18.0240971 117.056948,18.1336963 C115.973639,18.2432956 115.17855,19.2197254 115.287875,20.315718 C115.297814,20.3655359 118.299274,50.2462805 127.283777,89.3134361 C136.278219,128.390555 151.21595,176.634158 175.257447,213.509329 C179.660252,220.264629 191.099592,236.883863 201.455623,251.83918 C211.811655,266.794498 221.064501,280.075936 221.064501,280.075936 C221.690633,280.972657 222.932959,281.191856 223.827434,280.564151 C224.721909,279.936446 224.940558,278.700963 224.314426,277.794279" id="Fill-2540" fill="#E6784C"></path>
            </g>
        </g>
    </g>
</svg>