<?xml version="1.0" encoding="UTF-8"?>
<svg width="430px" height="225px" viewBox="0 0 430 225" version="1.1" xmlns="http://www.w3.org/2000/svg" xmlns:xlink="http://www.w3.org/1999/xlink">
    <title>decoration-3</title>
    <g id="decoration-3" stroke="none" stroke-width="1" fill="none" fill-rule="evenodd">
        <g id="Group" transform="translate(-1.010033, 9.045623)">
            <g id="Thanksgiving/Stickers/Nut" transform="translate(214.544410, 154.335955) scale(-1, -1) translate(-214.544410, -154.335955) ">
                <path d="M109.900304,4.42142422 C105.997216,7.73072573 103.885943,11.2226466 101.771757,16.6175515 L101.39827,17.5896978 C101.273521,17.9205648 101.148396,18.2583666 101.022531,18.6034535 L100.762891,19.3208402 L100.011701,18.5144639 C96.6686727,14.9383403 93.0703368,11.2045593 89.2898154,7.42431777 C81.7191017,-0.14583554 71.8880998,-1.23245849 63.7147781,3.96434119 L63.2507329,4.26667943 C59.2685687,6.92460186 56.3082719,10.5570431 53.8453851,14.8065876 L53.4671008,15.4709323 L53.7342075,15.0464728 C52.7971617,16.4982193 52.0137943,18.0811261 51.366281,19.7900101 C46.9518375,31.4403839 50.572878,42.6508525 59.2091186,51.6145543 L59.675905,52.0917675 C63.9072261,56.3533014 69.2620689,60.0401785 74.6928491,62.7258183 L75.5126642,63.1222833 L75.4076497,63.525149 L74.3122166,67.5983361 C74.2598132,67.7963255 74.2084761,67.9917746 74.1581892,68.1848319 L73.8689386,69.3156654 L73.6041121,70.3962377 C72.8454911,73.5697021 72.4060943,76.1610236 72.1914054,79.037657 C71.9603221,82.1339609 72.0779472,85.1286052 72.620989,88.0725898 L72.6959079,88.4601171 C73.1810602,90.8586854 74.0197021,93.0192537 75.1561148,94.9031004 L75.424646,95.335044 L75.3074624,95.4503117 C70.266381,100.486586 67.4724608,107.99686 68.4143576,116.904633 L68.4512025,117.224777 L67.9748355,116.949305 C64.179634,114.777426 60.6960068,113.314538 57.2173894,112.64174 C47.7069847,110.802336 38.8568362,115.759188 36.9324517,126.118006 C35.8668391,131.865228 36.7768937,136.50156 39.1188798,142.946208 L39.4431979,143.8285 L37.2066157,143.556205 L35.1615505,143.316957 L33.0607183,143.081086 L30.907179,142.849503 C30.5440336,142.811314 30.1788195,142.773341 29.8116005,142.735605 L27.5847383,142.512167 C27.2097548,142.47545 26.832894,142.439006 26.4542195,142.402855 L24.1609192,142.189618 C23.7752452,142.154715 23.3878851,142.120142 22.9989027,142.08592 C14.0606053,141.299536 6.52871578,145.004071 2.66426571,152.295552 C0.161490762,157.017812 -0.354789363,162.118202 0.204026609,167.612299 L0.255456599,168.08763 L0.331521072,168.708492 C0.437218331,169.52496 0.560004442,170.298057 0.699603521,171.052008 L0.734185186,171.231373 L0.6673767,170.750541 C0.883907925,172.464201 1.30257888,174.179678 1.9063996,175.904445 C6.02296753,187.663099 16.0119487,193.926209 28.3967677,195.248576 L29.0985339,195.317857 C35.2005976,195.871721 41.8103614,195.219424 47.7869896,193.727183 L48.2980308,193.595602 L50.0020693,197.24778 L50.6264556,198.572347 L51.1362825,199.635103 L51.2366447,199.839505 C54.3491154,206.131957 57.5304359,210.767448 62.135396,214.567004 C69.3584456,220.526747 78.2899569,220.565903 85.2801269,215.123341 C88.2318633,212.825113 90.3310848,210.224021 92.8324538,206.202719 L93.3954432,205.285264 L93.9747318,204.318329 L94.5733791,203.299188 L96.1729408,200.524237 L98.1598541,203.2526 L98.8139742,204.134233 L99.1963813,204.638184 C102.890581,209.47485 106.520848,213.300941 110.585905,216.143184 L111.006011,216.432329 L110.991863,216.544616 C109.732652,226.279237 111.009592,236.552505 114.337669,247.007558 C117.76854,257.785535 123.326049,268.37769 129.383068,276.707093 L129.771662,277.235654 L129.953933,277.490429 L129.928956,277.45318 C130.600247,278.405324 131.132806,279.631245 131.531785,281.189676 L131.634215,281.604048 L131.728111,282.015225 L131.814097,282.427987 L131.892792,282.847119 L131.964819,283.277401 L132.030798,283.723617 L132.119785,284.433278 L132.198658,285.205691 L132.246657,285.763465 L132.291713,286.361085 L132.334449,287.003332 L132.395559,288.060843 L132.568183,291.640835 L132.626759,292.622211 L132.669823,293.214031 L132.717593,293.765524 L132.771347,294.284934 L132.832366,294.780503 L132.901928,295.260475 C132.926682,295.418782 132.953073,295.575863 132.981315,295.733093 L133.071806,296.2066 L133.174681,296.689241 C133.192929,296.7709 133.211748,296.853283 133.231162,296.936562 C133.748845,299.157213 134.588749,301.190771 136.164986,303.16906 C138.718391,306.373763 142.556834,308.312728 146.789288,308.344168 L147.045364,308.344168 L147.42447,308.333373 C147.587834,308.327901 147.751075,308.319229 147.914099,308.307364 L148.417695,308.261717 C149.085448,308.189234 149.738351,308.070658 150.376175,307.910755 L150.47118,307.884124 L150.322902,307.922885 C153.998412,307.043161 156.763309,305.122535 160.205017,301.922607 C160.534701,301.615085 161.21498,301.315342 162.440638,301.090325 L162.896186,301.014119 L163.398927,300.944773 C163.662414,300.911924 163.944312,300.881892 164.245692,300.855046 L164.917895,300.802418 L165.649483,300.759498 L166.398915,300.731313 L167.182797,300.718269 L167.803305,300.718668 L168.687428,300.733102 L169.402186,300.754577 L170.169012,300.785371 L171.284549,300.841221 L172.851947,300.935381 L175.836005,301.144178 L180.337354,301.488131 L183.044932,301.68295 L184.513673,301.778731 L186.327515,301.8827 L187.184502,301.924798 L188.015305,301.960474 L188.82525,301.989856 L190.012713,302.022406 L191.183214,302.041511 L192.354733,302.047599 L193.14519,302.044639 L193.54525,302.041101 C202.618241,301.945949 210.477412,300.569448 217.789396,297.269252 C225.583213,293.741335 233.840677,287.173097 242.706757,278.105952 L243.866665,276.909155 C244.060563,276.707341 244.254751,276.504358 244.449231,276.30021 L245.619628,275.061399 C245.815282,274.852616 246.011232,274.642681 246.207478,274.431598 L247.388524,273.151373 C247.783401,272.72007 248.179475,272.284222 248.57676,271.843873 L249.772256,270.509365 L250.757784,269.395092 C256.992557,262.305105 263.084966,254.608254 268.395635,247.373075 L268.689651,246.96987 L268.880625,246.924308 C276.614424,244.997404 284.077407,241.311121 290.468708,235.374418 L291.037277,234.835767 L291.111649,234.831148 C295.992249,234.425911 300.824885,232.521242 305.216681,229.325522 L305.440259,229.1598 L305.439214,229.630564 C305.449929,233.322757 305.793085,236.572501 306.579182,239.507947 C306.973097,240.978906 307.499155,242.370743 308.144752,243.662497 L308.428718,244.209917 C312.263005,251.33533 319.846305,255.178588 328.913955,251.973588 L329.352205,251.814825 C334.698204,249.832137 338.034175,246.873995 342.511428,241.550667 L343.019038,240.942277 L343.449509,241.957353 C345.366267,246.459743 347.468947,251.197491 349.726914,256.041131 C354.248624,265.7408 363.114625,270.120027 372.574703,268.028527 L373.1143,267.902933 C377.766528,266.765556 381.792243,264.363374 385.561875,261.211397 L386.141964,260.717258 L385.748498,261.023955 C387.12619,259.979842 388.404388,258.759983 389.598067,257.375339 C397.736011,247.935482 398.172422,236.16419 393.126671,224.791044 L392.858646,224.198734 C390.317489,218.690486 386.496129,213.341067 382.259967,208.933677 L381.757056,208.416848 L384.440006,204.567156 L384.855792,203.966316 C389.096671,197.800146 391.618872,192.927673 392.797426,187.092419 L392.820346,186.972642 L392.90629,186.977488 C404.942153,187.540326 415.4726,183.058352 421.416698,172.467357 L421.70804,171.935211 C422.277015,170.869162 422.763471,169.792398 423.162835,168.701867 L423.378672,168.081721 L423.645532,167.36738 C425.38637,162.574006 426.271971,157.798006 425.617801,152.847315 C424.350127,143.253692 417.197422,136.430729 406.524622,135.504583 L405.000352,135.374933 C400.496521,134.999564 396.106995,134.701888 391.911727,134.472506 L390.023767,134.37355 L390.312418,133.880088 L390.668515,133.262739 C393.956778,127.512736 395.628105,123.075632 395.579113,117.367123 C395.481076,106.387989 387.139621,100.109739 377.180287,100.598566 L376.683716,100.627755 C373.531458,100.843397 370.23707,101.642429 366.611758,102.944782 L366.086812,103.135753 L366.180102,102.822653 C372.058812,82.3829378 355.818638,66.0445123 334.611244,71.469448 L334.187652,71.5818556 C332.64101,72.0036966 331.16452,72.5325741 329.70345,73.1870458 L329.588257,73.2385306 L329.443454,73.0399559 C326.120565,68.5491907 321.671478,65.819165 316.713592,65.4478115 L316.656517,65.1955594 C315.102233,58.5641215 310.991642,53.2599123 303.989183,51.1379913 L303.57196,51.0148914 C297.598122,49.3218249 291.897157,50.6885979 286.408568,53.9711677 L286.063248,54.1797883 L286.025548,54.1518993 C284.817354,53.2934449 283.501818,52.5190742 282.07962,51.8367738 L281.693101,51.6544903 C272.932784,47.6119267 264.232182,49.6244934 257.057419,55.6144862 L256.772185,55.8550077 L256.675581,55.7334723 C251.626182,49.4759301 243.520746,47.2721457 235.560452,51.5512918 L235.122436,51.7906817 C233.230968,52.847343 231.424626,54.1546286 229.678157,55.6992606 L229.524544,55.8370268 L229.53663,55.3933308 C229.585257,53.1977374 229.52261,51.2342891 229.336202,49.2768617 C228.61624,41.7166858 225.973786,35.5645347 219.87392,31.618822 C212.93144,27.094995 205.319663,28.0566096 198.643246,32.3249935 L198.256167,32.5763425 C195.049361,34.6910996 192.170553,37.4017281 188.601897,41.3435366 L188.10197,41.8978429 L188.099707,41.3392472 C188.097045,40.9130656 188.092674,40.4938897 188.086461,40.0814114 L188.062168,38.863761 L188.026033,37.6844465 C188.011927,37.2975255 187.995715,36.9166856 187.977265,36.5416186 L187.915069,35.4334279 C187.557669,29.7940703 186.630857,25.4675918 184.642361,21.306186 L184.338484,20.6888986 C174.678271,1.53286616 152.06398,-0.166999015 140.286851,17.2897922 L140.109036,17.5567153 L140.091709,17.5055946 C138.63784,13.4625983 136.982773,10.1278374 134.87863,7.37619376 C128.844156,-0.515246551 118.686571,-2.81368548 110.240548,4.13713691 L109.900304,4.42142422 Z" id="Path" fill="#FFFFFF" fill-rule="nonzero"></path>
                <g id="Group" transform="translate(205.052479, 59.493920)" fill="#52201D">
                    <g id="Thanksgiving/Stuffs/Leaf4" transform="translate(95.419752, 76.031987) scale(-1, 1) rotate(-50.000000) translate(-95.419752, -76.031987) ">
                        <path d="M176.90724,101.562305 C176.90724,101.562305 181.85714,153.234239 161.997904,151.236536 C142.10885,149.26865 155.050154,113.488891 141.124834,116.470538 C127.229332,119.452184 128.213348,163.163122 113.30103,147.270946 C98.3916941,131.37877 110.826081,101.562305 97.9175772,99.5944183 C85.0060921,97.5967151 72.0647882,124.908597 62.1351703,111.521004 C52.2055524,98.103595 63.6231221,76.7251894 55.1874197,72.7595995 C46.7487354,68.7940096 25.3687473,86.6838888 22.8937974,73.2664794 C20.4188476,59.84907 32.8234154,44.4339574 22.8937974,40.9752474 C12.9641795,37.486721 -4.42010649,26.0670147 1.03671057,11.665662 C6.49352762,-2.73569078 22.38688,15.6312519 22.38688,15.6312519 L142.615767,78.7228925 L176.90724,101.562305" id="Fill-2764"></path>
                        <path d="M18.4209966,3.70466573 C8.49137867,-6.22421723 1.03671057,11.665662 1.03671057,11.665662 L178.912034,107.339275 C178.912034,107.339275 191.816577,86.1770089 189.311808,74.2504227 C186.836858,62.3238366 163.995755,85.1930655 156.03417,76.7251894 C148.072584,68.2871297 161.010906,35.9958977 151.054451,29.5555412 C141.124834,23.0853682 127.229332,53.378897 118.28373,52.3949536 C109.338129,51.4110103 116.792797,25.5601348 111.33598,14.1404286 C105.849344,2.72072238 93.9188933,1.73677902 87.47806,13.6335487 C81.01039,25.5601348 73.0786231,37.486721 71.0807721,28.0647179 C69.082921,18.6128984 64.6101201,-5.71733732 56.168454,1.22989911 C47.7327516,8.17713553 51.6956531,26.0670147 35.3281838,21.5945449 C35.3281838,21.5945449 28.3506145,13.6335487 18.4209966,3.70466573 Z" id="Fill-2765"></path>
                        <path d="M37.6510584,35.1610367 C49.9393333,41.6013932 80.9507526,57.8215503 110.918518,74.0417075 C125.917311,82.151786 140.647735,90.2320482 152.634841,97.0898352 C158.658213,100.518729 163.965937,103.619641 168.289644,106.273307 C170.570468,107.66704 173.053214,109.275299 175.73788,111.098084 C176.917122,111.898719 178.516319,111.639453 179.38219,110.507245 C180.191835,109.448557 179.989945,107.933975 178.931258,107.124331 C178.89309,107.095141 178.854058,107.067098 178.814216,107.040239 C175.237923,104.629345 171.968281,102.52508 169.005292,100.727444 C150.398441,89.516453 116.822616,71.2985927 87.8358841,55.8536636 C69.4099727,46.0527673 52.3844195,37.0835265 36.7592247,28.9459411 C35.5089368,28.2947968 33.9675202,28.7804944 33.3163725,30.0307805 C33.3160559,30.0313884 33.3157396,30.0319965 33.3154234,30.0326046 C32.664691,31.2845542 33.1520737,32.8269828 34.4040233,33.4777153 C34.404346,33.4778831 34.4046687,33.4780507 34.4049942,33.4782131 C35.3505869,33.969196 36.4326083,34.5301372 37.6510584,35.1610367 Z" id="Fill-2766"></path>
                        <path d="M44.6103616,56.118849 L62.6192121,47.7063445 L62.6192121,47.7063445 L59.1234844,44.1059763 L42.5675212,51.5060565 C41.2837345,52.0798754 40.7059804,53.5840285 41.275518,54.8697203 C41.83323,56.1287162 43.3059627,56.6972193 44.5649587,56.1395074 C44.5801615,56.1327728 44.5952966,56.1258863 44.6103616,56.118849 Z" id="Fill-2767"></path>
                        <path d="M72.8551393,79.7822579 L102.748202,69.2114401 L102.748202,69.2114401 L101.018719,64.3811727 L71.15453,74.9791393 C69.8289808,75.4495397 69.1352997,76.9050341 69.6047478,78.2309209 C70.0741512,79.5566814 71.5291943,80.25114 72.8551393,79.7822579 Z" id="Fill-2768"></path>
                        <path d="M109.969809,96.977918 L140.14776,89.449396 L140.14776,89.449396 L136.502939,84.6861856 L108.679687,91.9974638 C107.312761,92.3566587 106.493838,93.7537804 106.84827,95.1219485 C107.20327,96.4923133 108.596304,97.3205676 109.969809,96.977918 Z" id="Fill-2769"></path>
                        <path d="M131.464058,112.596227 L164.002698,101.375982 L164.002698,101.375982 L157.674197,98.1632279 L129.794484,107.766749 C128.461612,108.225874 127.7533,109.678574 128.212424,111.011447 C128.212732,111.01234 128.21304,111.013232 128.213348,111.014125 C128.674569,112.348272 130.12955,113.056403 131.464058,112.596227 Z" id="Fill-2770"></path>
                        <path d="M138.446661,59.7143561 L142.175234,87.8754265 L142.175234,87.8754265 L147.625304,90.2916811 L143.486306,59.0583555 C143.301827,57.6662576 142.025346,56.686162 140.632825,56.8674234 C139.244298,57.0481651 138.265195,58.3203088 138.445936,59.7088359 C138.446176,59.7106762 138.446417,59.7125163 138.446661,59.7143561 Z" id="Fill-2771"></path>
                        <path d="M88.8038483,36.964949 L87.8985033,58.2389808 L87.8985033,58.2389808 L92.9974963,61.4293426 L93.9148908,37.1741485 C93.9682017,35.7646494 92.8711615,34.5776701 91.4618346,34.5199827 C90.0531186,34.4623202 88.863794,35.5563283 88.8038483,36.964949 Z" id="Fill-2772"></path>
                        <path d="M59.1869468,23.9188935 L68.6952783,48.3399144 L68.6952783,48.3399144 L74.546681,50.6879911 L63.9206365,22.0844607 C63.4354268,20.7783576 61.9832809,20.112892 60.6771779,20.5981017 C60.6661685,20.6021916 60.6551879,20.6063583 60.6442367,20.6106016 C59.3289141,21.1202514 58.6757872,22.5996838 59.185437,23.9150064 C59.1859392,23.9163025 59.1864425,23.9175982 59.1869468,23.9188935 Z" id="Fill-2773"></path>
                    </g>
                </g>
                <g id="Thanksgiving/Stuffs/Leaf4" transform="translate(62.022872, 12.543823)" fill="#62261D">
                    <path d="M176.90724,101.562305 C176.90724,101.562305 181.85714,153.234239 161.997904,151.236536 C142.10885,149.26865 155.050154,113.488891 141.124834,116.470538 C127.229332,119.452184 128.213348,163.163122 113.30103,147.270946 C98.3916941,131.37877 110.826081,101.562305 97.9175772,99.5944183 C85.0060921,97.5967151 72.0647882,124.908597 62.1351703,111.521004 C52.2055524,98.103595 63.6231221,76.7251894 55.1874197,72.7595995 C46.7487354,68.7940096 25.3687473,86.6838888 22.8937974,73.2664794 C20.4188476,59.84907 32.8234154,44.4339574 22.8937974,40.9752474 C12.9641795,37.486721 -4.42010649,26.0670147 1.03671057,11.665662 C6.49352762,-2.73569078 22.38688,15.6312519 22.38688,15.6312519 L142.615767,78.7228925 L176.90724,101.562305" id="Fill-2764"></path>
                    <path d="M18.4209966,3.70466573 C8.49137867,-6.22421723 1.03671057,11.665662 1.03671057,11.665662 L178.912034,107.339275 C178.912034,107.339275 191.816577,86.1770089 189.311808,74.2504227 C186.836858,62.3238366 163.995755,85.1930655 156.03417,76.7251894 C148.072584,68.2871297 161.010906,35.9958977 151.054451,29.5555412 C141.124834,23.0853682 127.229332,53.378897 118.28373,52.3949536 C109.338129,51.4110103 116.792797,25.5601348 111.33598,14.1404286 C105.849344,2.72072238 93.9188933,1.73677902 87.47806,13.6335487 C81.01039,25.5601348 73.0786231,37.486721 71.0807721,28.0647179 C69.082921,18.6128984 64.6101201,-5.71733732 56.168454,1.22989911 C47.7327516,8.17713553 51.6956531,26.0670147 35.3281838,21.5945449 C35.3281838,21.5945449 28.3506145,13.6335487 18.4209966,3.70466573 Z" id="Fill-2765"></path>
                    <path d="M37.6510584,35.1610367 C49.9393333,41.6013932 80.9507526,57.8215503 110.918518,74.0417075 C125.917311,82.151786 140.647735,90.2320482 152.634841,97.0898352 C158.658213,100.518729 163.965937,103.619641 168.289644,106.273307 C170.570468,107.66704 173.053214,109.275299 175.73788,111.098084 C176.917122,111.898719 178.516319,111.639453 179.38219,110.507245 C180.191835,109.448557 179.989945,107.933975 178.931258,107.124331 C178.89309,107.095141 178.854058,107.067098 178.814216,107.040239 C175.237923,104.629345 171.968281,102.52508 169.005292,100.727444 C150.398441,89.516453 116.822616,71.2985927 87.8358841,55.8536636 C69.4099727,46.0527673 52.3844195,37.0835265 36.7592247,28.9459411 C35.5089368,28.2947968 33.9675202,28.7804944 33.3163725,30.0307805 C33.3160559,30.0313884 33.3157396,30.0319965 33.3154234,30.0326046 C32.664691,31.2845542 33.1520737,32.8269828 34.4040233,33.4777153 C34.404346,33.4778831 34.4046687,33.4780507 34.4049942,33.4782131 C35.3505869,33.969196 36.4326083,34.5301372 37.6510584,35.1610367 Z" id="Fill-2766"></path>
                    <path d="M44.6103616,56.118849 L62.6192121,47.7063445 L62.6192121,47.7063445 L59.1234844,44.1059763 L42.5675212,51.5060565 C41.2837345,52.0798754 40.7059804,53.5840285 41.275518,54.8697203 C41.83323,56.1287162 43.3059627,56.6972193 44.5649587,56.1395074 C44.5801615,56.1327728 44.5952966,56.1258863 44.6103616,56.118849 Z" id="Fill-2767"></path>
                    <path d="M72.8551393,79.7822579 L102.748202,69.2114401 L102.748202,69.2114401 L101.018719,64.3811727 L71.15453,74.9791393 C69.8289808,75.4495397 69.1352997,76.9050341 69.6047478,78.2309209 C70.0741512,79.5566814 71.5291943,80.25114 72.8551393,79.7822579 Z" id="Fill-2768"></path>
                    <path d="M109.969809,96.977918 L140.14776,89.449396 L140.14776,89.449396 L136.502939,84.6861856 L108.679687,91.9974638 C107.312761,92.3566587 106.493838,93.7537804 106.84827,95.1219485 C107.20327,96.4923133 108.596304,97.3205676 109.969809,96.977918 Z" id="Fill-2769"></path>
                    <path d="M131.464058,112.596227 L164.002698,101.375982 L164.002698,101.375982 L157.674197,98.1632279 L129.794484,107.766749 C128.461612,108.225874 127.7533,109.678574 128.212424,111.011447 C128.212732,111.01234 128.21304,111.013232 128.213348,111.014125 C128.674569,112.348272 130.12955,113.056403 131.464058,112.596227 Z" id="Fill-2770"></path>
                    <path d="M138.446661,59.7143561 L142.175234,87.8754265 L142.175234,87.8754265 L147.625304,90.2916811 L143.486306,59.0583555 C143.301827,57.6662576 142.025346,56.686162 140.632825,56.8674234 C139.244298,57.0481651 138.265195,58.3203088 138.445936,59.7088359 C138.446176,59.7106762 138.446417,59.7125163 138.446661,59.7143561 Z" id="Fill-2771"></path>
                    <path d="M88.8038483,36.964949 L87.8985033,58.2389808 L87.8985033,58.2389808 L92.9974963,61.4293426 L93.9148908,37.1741485 C93.9682017,35.7646494 92.8711615,34.5776701 91.4618346,34.5199827 C90.0531186,34.4623202 88.863794,35.5563283 88.8038483,36.964949 Z" id="Fill-2772"></path>
                    <path d="M59.1869468,23.9188935 L68.6952783,48.3399144 L68.6952783,48.3399144 L74.546681,50.6879911 L63.9206365,22.0844607 C63.4354268,20.7783576 61.9832809,20.112892 60.6771779,20.5981017 C60.6661685,20.6021916 60.6551879,20.6063583 60.6442367,20.6106016 C59.3289141,21.1202514 58.6757872,22.5996838 59.185437,23.9150064 C59.1859392,23.9163025 59.1864425,23.9175982 59.1869468,23.9188935 Z" id="Fill-2773"></path>
                </g>
                <g id="Group" transform="translate(32.016661, 84.467375)">
                    <g id="Thanksgiving/Stuffs/Leaf4" transform="translate(95.419752, 76.031987) rotate(-40.000000) translate(-95.419752, -76.031987) ">
                        <path d="M176.90724,101.562305 C176.90724,101.562305 181.85714,153.234239 161.997904,151.236536 C142.10885,149.26865 155.050154,113.488891 141.124834,116.470538 C127.229332,119.452184 128.213348,163.163122 113.30103,147.270946 C98.3916941,131.37877 110.826081,101.562305 97.9175772,99.5944183 C85.0060921,97.5967151 72.0647882,124.908597 62.1351703,111.521004 C52.2055524,98.103595 63.6231221,76.7251894 55.1874197,72.7595995 C46.7487354,68.7940096 25.3687473,86.6838888 22.8937974,73.2664794 C20.4188476,59.84907 32.8234154,44.4339574 22.8937974,40.9752474 C12.9641795,37.486721 -4.42010649,26.0670147 1.03671057,11.665662 C6.49352762,-2.73569078 22.38688,15.6312519 22.38688,15.6312519 L142.615767,78.7228925 L176.90724,101.562305" id="Fill-2764" fill="#E47B2C"></path>
                        <path d="M18.4209966,3.70466573 C8.49137867,-6.22421723 1.03671057,11.665662 1.03671057,11.665662 L178.912034,107.339275 C178.912034,107.339275 191.816577,86.1770089 189.311808,74.2504227 C186.836858,62.3238366 163.995755,85.1930655 156.03417,76.7251894 C148.072584,68.2871297 161.010906,35.9958977 151.054451,29.5555412 C141.124834,23.0853682 127.229332,53.378897 118.28373,52.3949536 C109.338129,51.4110103 116.792797,25.5601348 111.33598,14.1404286 C105.849344,2.72072238 93.9188933,1.73677902 87.47806,13.6335487 C81.01039,25.5601348 73.0786231,37.486721 71.0807721,28.0647179 C69.082921,18.6128984 64.6101201,-5.71733732 56.168454,1.22989911 C47.7327516,8.17713553 51.6956531,26.0670147 35.3281838,21.5945449 C35.3281838,21.5945449 28.3506145,13.6335487 18.4209966,3.70466573 Z" id="Fill-2765" fill="#9E3C2A"></path>
                        <path d="M37.6510584,35.1610367 C49.9393333,41.6013932 80.9507526,57.8215503 110.918518,74.0417075 C125.917311,82.151786 140.647735,90.2320482 152.634841,97.0898352 C158.658213,100.518729 163.965937,103.619641 168.289644,106.273307 C170.570468,107.66704 173.053214,109.275299 175.73788,111.098084 C176.917122,111.898719 178.516319,111.639453 179.38219,110.507245 C180.191835,109.448557 179.989945,107.933975 178.931258,107.124331 C178.89309,107.095141 178.854058,107.067098 178.814216,107.040239 C175.237923,104.629345 171.968281,102.52508 169.005292,100.727444 C150.398441,89.516453 116.822616,71.2985927 87.8358841,55.8536636 C69.4099727,46.0527673 52.3844195,37.0835265 36.7592247,28.9459411 C35.5089368,28.2947968 33.9675202,28.7804944 33.3163725,30.0307805 C33.3160559,30.0313884 33.3157396,30.0319965 33.3154234,30.0326046 C32.664691,31.2845542 33.1520737,32.8269828 34.4040233,33.4777153 C34.404346,33.4778831 34.4046687,33.4780507 34.4049942,33.4782131 C35.3505869,33.969196 36.4326083,34.5301372 37.6510584,35.1610367 Z" id="Fill-2766" fill="#62261D"></path>
                        <path d="M44.6103616,56.118849 L62.6192121,47.7063445 L62.6192121,47.7063445 L59.1234844,44.1059763 L42.5675212,51.5060565 C41.2837345,52.0798754 40.7059804,53.5840285 41.275518,54.8697203 C41.83323,56.1287162 43.3059627,56.6972193 44.5649587,56.1395074 C44.5801615,56.1327728 44.5952966,56.1258863 44.6103616,56.118849 Z" id="Fill-2767" fill="#62261D"></path>
                        <path d="M72.8551393,79.7822579 L102.748202,69.2114401 L102.748202,69.2114401 L101.018719,64.3811727 L71.15453,74.9791393 C69.8289808,75.4495397 69.1352997,76.9050341 69.6047478,78.2309209 C70.0741512,79.5566814 71.5291943,80.25114 72.8551393,79.7822579 Z" id="Fill-2768" fill="#62261D"></path>
                        <path d="M109.969809,96.977918 L140.14776,89.449396 L140.14776,89.449396 L136.502939,84.6861856 L108.679687,91.9974638 C107.312761,92.3566587 106.493838,93.7537804 106.84827,95.1219485 C107.20327,96.4923133 108.596304,97.3205676 109.969809,96.977918 Z" id="Fill-2769" fill="#62261D"></path>
                        <path d="M131.464058,112.596227 L164.002698,101.375982 L164.002698,101.375982 L157.674197,98.1632279 L129.794484,107.766749 C128.461612,108.225874 127.7533,109.678574 128.212424,111.011447 C128.212732,111.01234 128.21304,111.013232 128.213348,111.014125 C128.674569,112.348272 130.12955,113.056403 131.464058,112.596227 Z" id="Fill-2770" fill="#62261D"></path>
                        <path d="M138.446661,59.7143561 L142.175234,87.8754265 L142.175234,87.8754265 L147.625304,90.2916811 L143.486306,59.0583555 C143.301827,57.6662576 142.025346,56.686162 140.632825,56.8674234 C139.244298,57.0481651 138.265195,58.3203088 138.445936,59.7088359 C138.446176,59.7106762 138.446417,59.7125163 138.446661,59.7143561 Z" id="Fill-2771" fill="#62261D"></path>
                        <path d="M88.8038483,36.964949 L87.8985033,58.2389808 L87.8985033,58.2389808 L92.9974963,61.4293426 L93.9148908,37.1741485 C93.9682017,35.7646494 92.8711615,34.5776701 91.4618346,34.5199827 C90.0531186,34.4623202 88.863794,35.5563283 88.8038483,36.964949 Z" id="Fill-2772" fill="#62261D"></path>
                        <path d="M59.1869468,23.9188935 L68.6952783,48.3399144 L68.6952783,48.3399144 L74.546681,50.6879911 L63.9206365,22.0844607 C63.4354268,20.7783576 61.9832809,20.112892 60.6771779,20.5981017 C60.6661685,20.6021916 60.6551879,20.6063583 60.6442367,20.6106016 C59.3289141,21.1202514 58.6757872,22.5996838 59.185437,23.9150064 C59.1859392,23.9163025 59.1864425,23.9175982 59.1869468,23.9188935 Z" id="Fill-2773" fill="#62261D"></path>
                    </g>
                </g>
                <g id="Thanksgiving/Stuffs/Nut" transform="translate(123.035501, 94.853556)">
                    <path d="M25.1518035,60.2159959 C25.2298196,62.5734901 26.5120851,65.3305596 28.5725116,68.3273742 C31.3530871,72.4429997 35.6339733,76.998158 40.6150043,81.6332313 C56.5583046,96.4175169 79.202992,111.441548 79.202992,111.441548 L133.97433,141.169949 C133.97433,141.169949 135.694686,141.229885 138.397245,140.810331 C143.956396,140.03116 153.778429,137.393963 161.31999,128.922967 C166.10098,123.588637 169.941775,116.056642 171.382073,105.168216 C176.283087,68.5471406 150.637779,29.0691022 96.5865904,19.3794015 C65.1800893,13.7653687 45.9561099,23.0954516 35.4719397,34.9628377 C28.9325861,42.3549805 25.791936,50.7660403 25.2918325,57.23916 C25.1518035,58.2980345 25.0917911,59.2969727 25.1518035,60.2159959" id="Fill-2812" fill="#822D24"></path>
                    <path d="M16.8880929,175.093891 C24.9317579,186.042254 19.5906523,202.265011 24.3736424,200.926433 C25.2918325,200.706667 26.6521141,199.787644 28.6505277,197.929619 C40.4729749,186.901341 68.1807104,200.706667 89.6051452,191.036945 C106.906727,183.205269 130.133535,152.47793 138.397245,140.810331 C140.455671,138.033283 141.595907,136.335088 141.595907,136.335088 C126.712826,72.6028298 79.202992,62.9131291 51.497257,63.0529804 C39.1146938,63.1328955 30.7129546,65.0508569 30.7129546,65.0508569 C30.7129546,65.0508569 29.9327931,66.2695615 28.5725116,68.3273742 C24.149596,75.299963 13.4673848,92.4417428 4.4275136,110.082992 C-7.39493362,132.918719 7.12807261,161.927885 16.8880929,175.093891" id="Fill-2813" fill="#E98558"></path>
                    <path d="M16.8880929,175.093891 C24.9317579,186.042254 19.5906523,202.265011 24.3736424,200.926433 L24.511671,200.706667 C31.4130996,185.482849 26.5720975,167.481982 23.091377,138.392901 C21.1709795,121.950378 31.3530871,98.6950961 40.6150043,81.6332313 C44.8758863,73.6617043 48.9367269,67.0487333 51.497257,63.0529804 C53.2176131,60.3558472 51.1771907,63.3326831 51.1771907,63.3326831 L26.5720975,65.4104746 C26.4320685,66.4693491 26.5120851,65.8699862 26.5720975,66.7890094 C26.6521141,69.1465036 26.5120851,65.3305596 28.5725116,68.3273742 C24.149596,75.299963 13.4673848,92.4417428 4.4275136,110.082992 C-7.39493362,132.918719 7.12807261,161.927885 16.8880929,175.093891" id="Fill-2814" fill="#C7663C"></path>
                    <path d="M35.4719397,34.9628377 C57.7785572,32.0459381 101.065517,29.4886562 129.853477,47.7692257 C156.837062,64.9909206 161.31999,104.748662 161.31999,128.922967 C166.10098,123.588637 169.941775,116.056642 171.382073,105.168216 C176.283087,68.5471406 150.637779,29.0691022 96.5865904,19.3794015 C65.1800893,13.7653687 45.9561099,23.0954516 35.4719397,34.9628377" id="Fill-2815" fill="#52201D"></path>
                    <path d="M120.131464,0 C120.131464,0 134.674474,0 134.674474,12.466749 C134.674474,24.9135192 133.294189,33.2246852 133.294189,33.2246852 L124.272321,29.7683589 L120.131464,0" id="Fill-2816" fill="#52201D"></path>
                    <path d="M102.565828,125.266853 C102.565828,125.266853 113.650122,107.745476 117.350889,123.428806 C121.051655,139.112136 104.408209,159.410561 89.6251494,162.187609 C74.8420893,164.944679 81.3234309,152.038397 89.6251494,143.727231 C97.9468719,135.416065 102.565828,125.266853 102.565828,125.266853" id="Fill-2817" fill="#FADDB8"></path>
                </g>
                <g id="Group" transform="translate(218.055170, 80.471622)">
                    <g id="Thanksgiving/Stuffs/Leaf4-Copy" transform="translate(95.419752, 76.031987) scale(-1, -1) rotate(20.000000) translate(-95.419752, -76.031987) ">
                        <path d="M176.90724,101.562305 C176.90724,101.562305 181.85714,153.234239 161.997904,151.236536 C142.10885,149.26865 155.050154,113.488891 141.124834,116.470538 C127.229332,119.452184 128.213348,163.163122 113.30103,147.270946 C98.3916941,131.37877 110.826081,101.562305 97.9175772,99.5944183 C85.0060921,97.5967151 72.0647882,124.908597 62.1351703,111.521004 C52.2055524,98.103595 63.6231221,76.7251894 55.1874197,72.7595995 C46.7487354,68.7940096 25.3687473,86.6838888 22.8937974,73.2664794 C20.4188476,59.84907 32.8234154,44.4339574 22.8937974,40.9752474 C12.9641795,37.486721 -4.42010649,26.0670147 1.03671057,11.665662 C6.49352762,-2.73569078 22.38688,15.6312519 22.38688,15.6312519 L142.615767,78.7228925 L176.90724,101.562305" id="Fill-2764" fill="#E47B2C"></path>
                        <path d="M18.4209966,3.70466573 C8.49137867,-6.22421723 1.03671057,11.665662 1.03671057,11.665662 L178.912034,107.339275 C178.912034,107.339275 191.816577,86.1770089 189.311808,74.2504227 C186.836858,62.3238366 163.995755,85.1930655 156.03417,76.7251894 C148.072584,68.2871297 161.010906,35.9958977 151.054451,29.5555412 C141.124834,23.0853682 127.229332,53.378897 118.28373,52.3949536 C109.338129,51.4110103 116.792797,25.5601348 111.33598,14.1404286 C105.849344,2.72072238 93.9188933,1.73677902 87.47806,13.6335487 C81.01039,25.5601348 73.0786231,37.486721 71.0807721,28.0647179 C69.082921,18.6128984 64.6101201,-5.71733732 56.168454,1.22989911 C47.7327516,8.17713553 51.6956531,26.0670147 35.3281838,21.5945449 C35.3281838,21.5945449 28.3506145,13.6335487 18.4209966,3.70466573 Z" id="Fill-2765" fill="#9E3C2A"></path>
                        <path d="M37.6510584,35.1610367 C49.9393333,41.6013932 80.9507526,57.8215503 110.918518,74.0417075 C125.917311,82.151786 140.647735,90.2320482 152.634841,97.0898352 C158.658213,100.518729 163.965937,103.619641 168.289644,106.273307 C170.570468,107.66704 173.053214,109.275299 175.73788,111.098084 C176.917122,111.898719 178.516319,111.639453 179.38219,110.507245 C180.191835,109.448557 179.989945,107.933975 178.931258,107.124331 C178.89309,107.095141 178.854058,107.067098 178.814216,107.040239 C175.237923,104.629345 171.968281,102.52508 169.005292,100.727444 C150.398441,89.516453 116.822616,71.2985927 87.8358841,55.8536636 C69.4099727,46.0527673 52.3844195,37.0835265 36.7592247,28.9459411 C35.5089368,28.2947968 33.9675202,28.7804944 33.3163725,30.0307805 C33.3160559,30.0313884 33.3157396,30.0319965 33.3154234,30.0326046 C32.664691,31.2845542 33.1520737,32.8269828 34.4040233,33.4777153 C34.404346,33.4778831 34.4046687,33.4780507 34.4049942,33.4782131 C35.3505869,33.969196 36.4326083,34.5301372 37.6510584,35.1610367 Z" id="Fill-2766" fill="#62261D"></path>
                        <path d="M44.6103616,56.118849 L62.6192121,47.7063445 L62.6192121,47.7063445 L59.1234844,44.1059763 L42.5675212,51.5060565 C41.2837345,52.0798754 40.7059804,53.5840285 41.275518,54.8697203 C41.83323,56.1287162 43.3059627,56.6972193 44.5649587,56.1395074 C44.5801615,56.1327728 44.5952966,56.1258863 44.6103616,56.118849 Z" id="Fill-2767" fill="#62261D"></path>
                        <path d="M72.8551393,79.7822579 L102.748202,69.2114401 L102.748202,69.2114401 L101.018719,64.3811727 L71.15453,74.9791393 C69.8289808,75.4495397 69.1352997,76.9050341 69.6047478,78.2309209 C70.0741512,79.5566814 71.5291943,80.25114 72.8551393,79.7822579 Z" id="Fill-2768" fill="#62261D"></path>
                        <path d="M109.969809,96.977918 L140.14776,89.449396 L140.14776,89.449396 L136.502939,84.6861856 L108.679687,91.9974638 C107.312761,92.3566587 106.493838,93.7537804 106.84827,95.1219485 C107.20327,96.4923133 108.596304,97.3205676 109.969809,96.977918 Z" id="Fill-2769" fill="#62261D"></path>
                        <path d="M131.464058,112.596227 L164.002698,101.375982 L164.002698,101.375982 L157.674197,98.1632279 L129.794484,107.766749 C128.461612,108.225874 127.7533,109.678574 128.212424,111.011447 C128.212732,111.01234 128.21304,111.013232 128.213348,111.014125 C128.674569,112.348272 130.12955,113.056403 131.464058,112.596227 Z" id="Fill-2770" fill="#62261D"></path>
                        <path d="M138.446661,59.7143561 L142.175234,87.8754265 L142.175234,87.8754265 L147.625304,90.2916811 L143.486306,59.0583555 C143.301827,57.6662576 142.025346,56.686162 140.632825,56.8674234 C139.244298,57.0481651 138.265195,58.3203088 138.445936,59.7088359 C138.446176,59.7106762 138.446417,59.7125163 138.446661,59.7143561 Z" id="Fill-2771" fill="#62261D"></path>
                        <path d="M88.8038483,36.964949 L87.8985033,58.2389808 L87.8985033,58.2389808 L92.9974963,61.4293426 L93.9148908,37.1741485 C93.9682017,35.7646494 92.8711615,34.5776701 91.4618346,34.5199827 C90.0531186,34.4623202 88.863794,35.5563283 88.8038483,36.964949 Z" id="Fill-2772" fill="#62261D"></path>
                        <path d="M59.1869468,23.9188935 L68.6952783,48.3399144 L68.6952783,48.3399144 L74.546681,50.6879911 L63.9206365,22.0844607 C63.4354268,20.7783576 61.9832809,20.112892 60.6771779,20.5981017 C60.6661685,20.6021916 60.6551879,20.6063583 60.6442367,20.6106016 C59.3289141,21.1202514 58.6757872,22.5996838 59.185437,23.9150064 C59.1859392,23.9163025 59.1864425,23.9175982 59.1869468,23.9188935 Z" id="Fill-2773" fill="#62261D"></path>
                    </g>
                </g>
            </g>
        </g>
    </g>
</svg>