<?xml version="1.0" encoding="UTF-8"?>
<svg width="529px" height="403px" viewBox="0 0 529 403" version="1.1" xmlns="http://www.w3.org/2000/svg" xmlns:xlink="http://www.w3.org/1999/xlink">
    <title>decoration-11</title>
    <g id="decoration-11" stroke="none" stroke-width="1" fill="none" fill-rule="evenodd">
        <g id="Group" transform="translate(0.259333, 8.176943)">
            <path d="M340.140985,4.683739 C350.119642,0.0854827111 362.971895,-1.26264567 373.984051,1.24440333 C386.319389,4.04359651 397.606882,12.3480872 402.985365,23.3822699 C409.578047,36.9074324 406.495575,52.1385632 393.942458,64.7019252 C386.996518,71.6499291 378.623335,75.3132296 369.091805,76.1492436 C362.077643,76.7644583 355.191034,75.9393287 345.777767,73.870396 L345.777767,73.870396 L344.369694,73.5562567 L342.511889,73.1305754 L337.654447,71.9935339 L335.93519,71.5995008 L334.304649,71.236925 L332.758606,70.9055247 L331.772772,70.7017719 L330.358189,70.4217051 L329.456091,70.2519138 L328.161253,70.0223982 L327.33508,69.886047 L326.537091,69.7629258 L325.766036,69.6529511 C325.639702,69.6357129 325.514438,69.619019 325.390218,69.6028676 L325.390218,69.6028676 L324.657222,69.5124563 L323.948036,69.4349829 C323.831753,69.4231442 323.71641,69.4118411 323.601981,69.4010719 L323.601981,69.4010719 L322.926168,69.342849 L322.926168,69.342849 L322.596097,69.3185162 L321.950846,69.279356 L321.324407,69.2528 L320.715531,69.2387647 C320.515361,69.2361638 320.317909,69.2356357 320.122969,69.2371667 L320.122969,69.2371667 L319.54547,69.2479225 C319.355343,69.2535575 319.167517,69.2612375 318.981786,69.2709487 L318.981786,69.2709487 L318.430668,69.3061619 C317.97629,69.340561 317.5337,69.3875678 317.099643,69.4469653 L317.099643,69.4469653 L316.582662,69.5241757 C316.326011,69.5657407 316.071964,69.6117351 315.819817,69.6621118 C310.062287,70.8144576 305.420822,72.7257964 302.032245,75.0709326 L302.032245,75.0709326 L302.022,75.077 L302.201167,75.2249715 C304.704703,77.2977651 307.235001,79.5989853 309.792659,82.1359074 L309.792659,82.1359074 L310.045,82.388 L310.926147,82.248184 C319.368553,80.9391195 328.447638,80.3725182 337.876269,80.8918884 L337.876269,80.8918884 L339.009364,80.9594475 C357.031218,82.1159049 373.999111,87.1905753 388.946165,97.1609325 C405.057538,107.903587 421.710099,131.565625 437.15911,162.674613 L437.15911,162.674613 L438.273785,164.936351 C439.571737,167.59 440.860828,170.29568 442.140014,173.050108 L442.140014,173.050108 L443.234008,175.422908 C444.325528,177.807493 445.40955,180.227204 446.485414,182.679973 C446.639611,183.031513 446.793333,183.38308 446.946573,183.734653 L446.946573,183.734653 L447.860173,185.843994 C448.011457,186.195507 448.162245,186.546984 448.31253,186.898404 L448.31253,186.898404 L449.208156,189.006077 C449.356404,189.357187 449.504134,189.708198 449.651342,190.05909 L449.651342,190.05909 L450.528252,192.16284 L451.392272,194.262723 L452.243072,196.357735 L453.080323,198.446876 C453.218717,198.794521 453.356533,199.141879 453.493763,199.488931 L453.493763,199.488931 L454.31007,201.567384 L455.112001,203.63746 L455.112001,203.63746 L455.507473,204.669043 L456.287223,206.724674 C456.415924,207.0664 456.543991,207.407672 456.671419,207.748471 L456.671419,207.748471 L457.428244,209.787401 L458.169375,211.813946 L458.89448,213.827103 L459.603229,215.82587 L460.295293,217.809244 L460.970342,219.776223 L461.628045,221.725807 L462.268072,223.656991 L462.890094,225.568774 C462.992245,225.885733 463.093633,226.201841 463.194249,226.517078 L463.194249,226.517078 L463.788644,228.397881 L464.364207,230.256778 L464.920609,232.092766 C465.193965,233.004867 465.460012,233.908 465.718564,234.801604 L465.718564,234.801604 L466.225621,236.575938 L466.712361,238.323855 C466.871185,238.901981 467.026568,239.475536 467.178455,240.044355 L467.178455,240.044355 L467.623573,241.736435 C467.985672,243.134381 468.325578,244.50168 468.64243,245.83572 L468.64243,245.83572 L469.011532,247.420438 C469.130841,247.943245 469.246406,248.460563 469.358173,248.972226 L469.358173,248.972226 L469.682022,250.490083 C471.191681,257.742772 471.891123,263.77132 471.612645,268.066538 L471.612645,268.066538 L471.605,268.156 L471.910637,268.481254 L472.360307,268.97946 C477.159491,274.392331 480.066042,281.07321 480.557022,287.413987 L480.542398,287.259001 L480.53,287.106 L480.553891,287.299141 C480.655513,288.234507 480.698104,289.16092 480.665982,290.108351 L480.665982,290.108351 L480.633591,290.773821 C480.602505,291.267339 480.549831,291.752831 480.476861,292.231201 L480.476861,292.231201 L480.404,292.662 L480.723259,293.183881 C483.574576,297.878011 486.34281,302.705852 488.866279,307.524338 L488.866279,307.524338 L489.615816,308.96946 C493.963825,317.34905 494.191053,326.717974 491.464473,336.197008 C490.111128,340.901947 488.035666,345.532452 485.618659,349.62748 L485.059694,349.128808 C495.726269,358.585772 502.570335,367.111367 506.117281,377.533758 L506.314534,378.125749 L506.441984,378.526859 L506.524911,378.535822 L506.973486,378.593435 C512.330625,379.357181 516.728825,383.065089 518.389357,388.412264 C520.008829,393.70117 518.912716,399.160346 515.328429,403.23702 C513.25061,405.600277 511.226652,406.812078 508.395544,408.05605 L508.154784,408.158844 L507.911924,408.256574 L491.205984,414.775859 L491.093589,415.152403 C490.995151,415.475293 490.891422,415.803671 490.782544,416.138391 L490.615383,416.645333 L490.440606,417.162427 L489.925916,418.659714 L489.709984,419.313859 L492.401418,424.162305 L492.939163,425.155258 L493.657638,426.492316 L493.922198,426.971259 C495.365921,429.584253 496.116145,431.175613 496.747905,433.568954 C497.844344,437.72267 497.591156,442.053131 495.584496,446.196675 C493.32608,450.83237 489.38771,454.170922 484.20814,455.069596 C482.1758,455.422215 480.273299,455.346668 478.40791,454.99116 C477.481836,454.814668 476.70043,454.602628 475.791842,454.308431 L475.535984,454.223859 L474.964591,454.28765 C474.190179,454.373376 473.420703,454.455593 472.654821,454.534357 L471.508526,454.649918 L469.837246,454.809909 L468.252502,454.952055 L466.670699,455.084442 L465.089114,455.207182 L462.975968,455.356021 L460.851916,455.488173 L458.710506,455.6039 L457.089175,455.680076 L455.451728,455.747274 L453.238689,455.823097 L450.985705,455.88342 L448.686324,455.928508 L446.927457,455.952484 L445.136139,455.968151 L442.69253,455.976305 L440.814906,455.973015 L437.591908,455.949945 L434.921988,455.915959 L431.459598,455.854496 L427.846568,455.772426 L424.070294,455.670264 L419.305535,455.521876 L414.265776,455.34619 L408.009429,455.107912 L395.151226,454.59166 L390.297847,454.412759 L386.511605,454.286593 L382.420856,454.168786 L379.649173,454.102633 L376.416947,454.041529 L374.282855,454.011105 L333.073934,453.545826 L262.593976,452.831982 L185.833517,452.57491 L161.711602,452.445888 L145.762461,452.326887 L135.28247,452.22926 L124.599678,452.112713 L115.309984,451.997859 L113.74591,452.264393 L113.044744,452.377245 L112.416254,452.470144 L111.733715,452.559362 L111.480212,452.58951 L111.101578,452.630781 C108.945528,452.85183 106.938114,452.848807 104.827263,452.470026 C101.258975,451.829717 97.9456825,450.174033 95.3868503,447.147232 C94.3842152,445.961231 93.5980032,444.730403 93.0078094,443.455676 C88.6580739,447.959956 82.9116505,450.706886 76.1245257,451.378461 C68.8064514,452.114664 62.1311282,449.764349 56.9455508,444.879542 C56.1570608,444.136785 55.4126716,443.347158 54.7096434,442.51205 L49.214984,442.622859 L49.1410306,442.6511 C42.6960372,445.034066 37.0686091,445.356687 31.8091736,442.440739 L31.4590848,442.241531 L31.1245788,442.041548 C27.5997824,439.88413 25.3231082,436.671522 24.1362713,432.989963 C23.4535936,430.872302 23.1654727,428.769058 23.1072888,426.468503 L23.0969322,425.77779 L23.0969322,425.243628 C23.0969322,424.843199 23.1097534,424.444156 23.1245813,424.031513 L23.1619148,423.183651 L23.2146336,422.272876 L23.2467764,421.78557 L23.4259285,419.308024 L23.4753276,418.519414 C23.6124019,416.049458 24.4782466,413.687511 25.9468907,411.724338 L26.1837729,411.41772 L26.269984,411.312859 L26.3682693,410.808597 L26.5315778,409.858138 L26.6716335,409.003276 C27.4135028,404.526325 28.2534766,401.645714 30.4817621,398.255876 C31.0539984,397.385346 31.7328154,396.589766 32.5024236,395.88764 L33.9233976,394.589001 L29.535,391.178 L28.8436155,390.641163 C26.2277664,388.593891 23.6409589,386.451317 21.1509255,384.238135 L21.1509255,384.238135 L20.0898907,383.285377 C11.3096598,375.319125 5.23853469,367.808038 2.68071016,360.000812 C-0.378415357,350.73866 3.55729283,342.291821 11.8115431,338.254473 C14.5837307,336.898531 17.3599609,336.108009 21.0869333,335.507356 L21.0869333,335.507356 L22.0390315,335.360932 C22.2011983,335.337114 22.3651527,335.313572 22.5309631,335.290279 L22.5309631,335.290279 L23.548646,335.153276 L24.6141611,335.020924 L25.7307954,334.89192 L27.537444,334.698876 L30.5911832,334.392701 L31.71,334.277 L31.8028817,334.141205 C33.007083,332.391196 34.510571,330.89436 36.2842001,329.71977 L36.2842001,329.71977 L36.293,329.713 L36.1452759,329.475379 L35.6919113,328.760839 L35.207074,328.014002 L34.6896194,327.232875 L34.1384031,326.415467 L33.5522803,325.559786 L32.9301067,324.663841 L32.2707376,323.72564 L31.3676173,322.455124 L28.995557,319.155565 L27.105885,316.521407 L26.329454,315.426749 L25.5888801,314.372469 L24.8827514,313.355826 L24.2096559,312.374079 L23.5681818,311.424486 L22.9569172,310.504305 C22.8574788,310.353241 22.7592403,310.203287 22.6621723,310.054388 L22.6621723,310.054388 L22.0935746,309.173186 L21.5516566,308.314542 C21.4634818,308.173163 21.3763598,308.032609 21.2902613,307.892823 L21.2902613,307.892823 L20.7857156,307.062878 C20.703593,306.925938 20.6224351,306.789653 20.5422123,306.653965 L20.5422123,306.653965 L20.0718621,305.846549 C19.6888631,305.178913 19.3277726,304.523352 18.9849138,303.872728 L18.9849138,303.872728 L18.5819991,303.093891 C18.2531373,302.446074 17.9410365,301.800336 17.6420197,301.14954 C14.0385998,293.306861 13.1462879,285.916061 16.7379453,278.897851 C20.6314497,271.226539 27.9234631,267.921399 36.2968438,268.078462 C40.326515,268.154049 44.4593015,268.950228 49.556467,270.445988 L49.556467,270.445988 L49.632,270.468 L49.5974794,269.830233 C49.3508973,264.84403 49.5964471,259.653611 50.3414099,254.178034 L50.3414099,254.178034 L50.428,253.552 L50.3040514,253.192755 C49.3646937,250.418558 48.7440051,247.732532 48.4797496,245.050832 L48.4797496,245.050832 L48.425112,244.432017 C47.4956419,232.183531 52.3316029,221.371831 61.3851085,215.888723 L61.3851085,215.888723 L61.507,215.815 L61.9055038,214.870925 C62.1094889,214.390829 62.3181648,213.905124 62.5314296,213.413996 L62.5314296,213.413996 L63.1848891,211.924534 C63.40723,211.42275 63.634058,210.915731 63.8652714,210.403665 L63.8652714,210.403665 L64.5719657,208.852513 C64.8118479,208.33054 65.0560137,207.803708 65.3043611,207.272205 L65.3043611,207.272205 L66.0618469,205.663865 L66.8438121,204.028621 L67.649646,202.367597 L68.4787377,200.681918 C68.6188239,200.39898 68.7598536,200.115061 68.9018143,199.830185 L68.9018143,199.830185 L69.7646474,198.109636 L70.6492112,196.367246 L71.554895,194.604142 C71.7075683,194.308627 71.8610962,194.012297 72.0154659,193.715173 L72.0154659,193.715173 L72.9516841,191.923107 C73.1093702,191.622907 73.2678726,191.32196 73.4271787,191.020291 L73.4271787,191.020291 L74.3925571,189.201797 L75.376612,187.367089 L76.3787326,185.517295 L77.3983082,183.65354 L78.4347277,181.776949 L79.4873805,179.888648 L80.5556557,177.989763 L81.6389424,176.081419 L82.7366298,174.164741 L83.8481071,172.240856 L84.9727634,170.310889 L86.109988,168.375965 L87.2591699,166.43721 L88.4196983,164.495749 L89.5909625,162.552709 C89.7870339,162.2288 89.9835271,161.904872 90.1804295,161.580948 L90.1804295,161.580948 L91.3666519,159.637649 C91.56514,159.313837 91.7640118,158.990077 91.9632545,158.666392 L91.9632545,158.666392 L93.1630608,156.725366 L94.3711594,154.787262 L95.5869395,152.853206 L96.7477134,151.021847 L97.852231,149.293066 C99.5427465,146.657363 101.240122,144.057842 102.944471,141.495176 L102.944471,141.495176 L104.052747,139.834667 L105.343943,137.914978 C105.558504,137.597336 105.772747,137.280849 105.986669,136.965524 L105.986669,136.965524 L107.26636,135.087543 L108.538339,133.237664 C108.749692,132.931705 108.960721,132.626928 109.171427,132.323336 L109.171427,132.323336 L110.431777,130.516053 L111.684332,128.737464 C111.89244,128.443437 112.100222,128.150615 112.307677,127.859004 L112.307677,127.859004 L113.548478,126.1239 C113.754623,125.837149 113.960439,125.55162 114.165927,125.267315 L114.165927,125.267315 L115.394899,123.576229 L116.615944,121.914785 C116.818789,121.640361 117.021302,121.367182 117.223483,121.095253 L117.223483,121.095253 L118.432574,119.478715 L119.633654,117.892412 L120.82669,116.33658 L122.011648,114.811456 C122.208467,114.559841 122.404947,114.309515 122.601088,114.060483 L122.601088,114.060483 L123.773869,112.581865 L124.938489,111.134548 C125.325331,110.657352 125.710808,110.185412 126.094914,109.718768 L126.094914,109.718768 L127.243113,108.334762 C139.065214,94.1983504 149.564284,85.1890742 158.575113,82.4834634 C170.146911,79.0048951 183.96107,80.406935 199.633683,85.0981128 C205.888533,86.9703351 212.005502,89.238096 217.766086,91.6861608 L217.766086,91.6861608 L217.977,91.776 L218.558243,90.9758573 C226.318138,80.3830227 235.093019,72.3330525 245.089269,67.2004151 L245.089269,67.2004151 L245.265,67.111 L245.560264,66.5300034 C248.705524,60.4036525 253.013218,53.9581443 258.672271,47.48378 L258.672271,47.48378 L259.283778,46.7900009 C267.285657,37.7868346 279.835435,32.4624247 294.437117,30.3758503 C303.959563,29.0150967 313.919926,29.1642365 322.190126,30.7241731 L322.190126,30.7241731 L322.761,30.835 L322.739494,30.6299312 C322.238367,25.5184296 323.472254,20.5173158 326.27507,16.1220923 L326.27507,16.1220923 L326.51915,15.7468542 C329.66731,11.0009988 334.4015,7.32854586 340.140985,4.683739 Z" id="Path-2" fill="#FFFFFF" fill-rule="nonzero"></path>
            <g id="Straw" transform="translate(35.679528, 298.809859)">
                <path d="M442.821139,125.912197 C444.121139,128.272197 445.461139,130.612197 446.721139,132.992197 C448.201139,135.782197 450.291139,138.732197 448.751139,141.912197 C446.661139,146.202197 443.181139,142.452197 440.361139,142.782197 C406.521139,146.792197 372.681139,143.122197 338.841139,142.702197 C301.571139,142.242197 264.301139,141.912197 227.041139,141.522197 C221.400139,138.312197 214.561139,135.782197 218.871139,126.992197 C222.781139,123.352197 227.661139,122.392197 232.730139,121.972197 C264.021139,122.602197 295.431139,119.942197 326.121139,123.772197 C322.951139,120.172197 313.481139,116.842197 320.771139,108.682197 C307.440139,105.452197 291.261139,103.022197 275.061139,97.5321974 C278.211139,101.402197 282.331139,103.012197 285.301139,105.972197 C288.150139,108.802197 292.611139,111.372197 290.671139,116.002197 C288.511139,121.112197 283.161139,120.592197 278.691139,119.902197 C267.461139,118.172197 256.261139,116.182197 245.041139,114.322197 C233.391139,112.392197 221.901139,109.522197 209.961139,109.852197 C208.151139,109.902197 210.411139,110.022197 208.601139,109.802197 C203.541139,109.212197 196.941139,108.582197 197.271139,102.542197 C197.601139,96.5321974 204.391139,98.9021974 207.631139,98.1621974 C199.881139,96.8421974 191.121139,96.3721974 182.331139,96.0321974 C167.851139,93.3221974 153.431139,92.7021974 138.871139,95.7521974 C133.701139,96.8421974 128.331139,97.8021974 123.561139,93.0221974 C119.961139,89.4121974 114.900139,91.9521974 110.441139,92.2621974 C105.241139,92.6221974 97.5711387,95.3721974 96.4411387,88.6521974 C95.4111387,82.6021974 103.371139,81.0821974 108.471139,79.8421974 C119.981139,77.0321974 131.661139,74.5121974 143.421139,73.3721974 C156.871139,72.0621974 170.400139,68.6421974 183.821139,71.9321974 C180.591139,67.9021974 170.221139,75.5421974 170.670139,64.4921974 C195.621139,54.8521974 220.920139,58.6621974 246.051139,63.1921974 C268.511139,67.2421974 289.751139,76.0121974 311.891139,81.4721974 C320.341139,83.5521974 328.381139,87.8221974 334.551139,93.8221974 C350.831139,109.662197 371.991139,113.192197 395.371139,119.742197 C382.121139,102.162197 365.731139,93.7321974 349.081139,85.7521974 C343.741139,83.1921974 337.951139,81.6121974 332.861139,78.5321974 C330.511139,77.1021974 328.121139,75.2421974 328.591139,72.1521974 C329.101139,68.8321974 332.261139,68.3821974 334.881139,67.9221974 C343.381139,66.4221974 352.051139,68.0121974 360.980139,66.7721974 C357.121139,61.8921974 345.791139,63.2021974 348.461139,55.1821974 C350.671139,48.5521974 359.631139,51.1621974 365.761139,50.9421974 C386.610139,50.1921974 405.101139,57.3421974 422.311139,68.4821974 C426.831139,71.4121974 430.161139,72.4321974 427.011139,64.9321974 C428.581139,52.9021974 428.581139,52.9021974 441.171139,59.6721974 C449.901139,67.4121974 457.691139,75.9221974 460.021139,87.7821974 C461.041139,92.9621974 464.061139,92.8421974 467.801139,92.4721974 C469.021139,92.0021974 470.400139,91.8421974 470.841139,93.2621974 C471.631139,95.8421974 469.751139,96.9321974 467.771139,97.8021974 C459.871139,100.882197 451.971139,103.972197 444.071139,107.052197 C445.320139,113.452197 438.521139,119.312197 442.821139,125.912197" id="Fill-2710" fill="#ECAB2C"></path>
                <path d="M172.361139,65.3621974 C178.351139,70.9921974 186.631139,69.0321974 196.371139,72.7421974 C161.381139,74.5521974 129.241139,77.3321974 95.3511387,87.6621974 C102.621139,90.9221974 106.650139,88.4421974 110.681139,88.4221974 C116.231139,88.3821974 123.881139,81.9021974 127.571139,92.5621974 C127.971139,93.7121974 135.971139,92.9221974 140.201139,91.9521974 C154.691139,88.6221974 169.001139,88.9921974 183.301139,92.7021974 C187.671139,101.052197 182.751139,104.472197 175.821139,106.822197 C172.701139,107.482197 169.131139,108.382197 166.391139,107.262197 C139.011139,96.0221974 111.451139,110.882197 83.1211387,105.842197 C101.291139,107.182197 118.101139,111.602197 135.411139,111.822197 C139.851139,111.882197 145.691139,113.532197 145.041139,120.652197 C135.701139,126.032197 125.501139,124.202197 115.751139,123.392197 C82.0311387,120.592197 48.7601387,125.342197 15.3811387,128.472197 C13.4511387,128.652197 12.0411387,129.682197 11.0811387,131.362197 C-2.07886131,137.072197 -0.0588613108,127.952197 0.360138689,120.402197 C4.13113869,116.452197 2.51113869,110.602197 5.33113869,106.312197 C15.4811387,97.0521974 25.4611387,87.5821974 38.0111387,81.4721974 C40.4011387,79.4321974 42.1911387,76.9021974 44.0701387,74.1721974 C39.9411387,74.3221974 35.8411387,72.9021974 32.3211387,75.7921974 C28.0611387,75.5021974 23.5111387,78.1921974 18.0311387,73.4421974 C40.5211387,50.0121974 66.1911387,33.1621974 98.1811387,26.6521974 C101.851139,25.3921974 105.831139,25.1421974 109.291139,23.1721974 C113.581139,20.7421974 112.281139,18.6721974 108.971139,16.6721974 C103.451139,15.1421974 97.0611387,18.1821974 91.9011387,13.4321974 C94.3911387,7.13219744 100.081139,8.47219744 104.831139,7.57219744 C133.351139,2.24219744 161.451139,3.00219744 188.851139,13.3721974 C201.801139,18.2621974 213.401139,15.4121974 226.671139,11.8621974 C254.521139,4.41219744 282.931139,-6.38780256 312.621139,4.86219744 C290.571139,20.0621974 267.451139,30.3621974 239.321139,27.7721974 C225.321139,26.4821974 211.941139,32.5621974 201.441139,42.9321974 C199.061139,45.3021974 195.980139,46.9421974 192.831139,46.3321974 C176.871139,43.2521974 161.091139,48.7621974 145.271139,47.1421974 C128.981139,45.4821974 114.141139,53.3121974 98.1611387,53.4921974 C93.6911387,53.5421974 90.8111387,56.8621974 89.7211387,61.2521974 C87.5701387,69.9821974 81.5911387,75.1721974 73.9201387,79.2421974 C93.5211387,73.7221974 113.011139,67.7821974 133.041139,63.9821974 C136.131139,63.3921974 139.531139,62.7121974 141.831139,60.4721974 C159.251139,43.4521974 179.561139,51.1521974 199.271139,53.5321974 C201.241139,60.2021974 195.900139,59.4821974 192.461139,59.6921974 C185.291139,60.1321974 178.691139,62.1821974 172.361139,65.3621974" id="Fill-2711" fill="#F7C93E"></path>
                <path d="M172.361139,65.3621974 C178.641139,54.6121974 191.471139,60.2621974 199.730139,54.4721974 C206.961139,48.5521974 215.541139,49.8721974 223.191139,51.8321974 C244.691139,57.3521974 267.431139,56.8221974 288.241139,65.5421974 C291.531139,66.9121974 295.331139,67.3221974 298.811139,63.9521974 C297.471139,59.1621974 293.151139,58.8021974 289.351139,58.4321974 C280.171139,57.5221974 271.701139,54.0921974 263.101139,51.2321974 C259.221139,49.9421974 253.581139,49.5121974 254.421139,42.9021974 C278.471139,32.3321974 303.561139,35.9821974 328.521139,36.1921974 C308.331139,35.9221974 288.191139,32.8221974 268.151139,31.6921974 C247.471139,30.5221974 226.860139,36.9321974 207.031139,43.8821974 C203.651139,45.0421974 201.241139,43.9121974 199.730139,40.7421974 C209.961139,27.9421974 224.691139,22.9621974 239.561139,24.0721974 C261.521139,25.7221974 280.961139,21.2721974 298.561139,8.76219744 C303.150139,5.50219744 307.751139,5.44219744 312.621139,4.86219744 C327.651139,1.60219744 340.591139,12.9521974 355.431139,10.9721974 C356.501139,12.2121974 356.421139,13.3821974 355.211139,14.4721974 C340.811139,20.8321974 325.371139,14.9621974 312.150139,18.1021974 C343.981139,19.7521974 376.431139,25.2821974 407.131139,38.7621974 C418.821139,43.8921974 427.771139,51.7621974 429.631139,65.3921974 C430.961139,69.7621974 436.581139,71.4121974 437.021139,80.0721974 C409.131139,64.2921974 382.501139,48.1721974 349.501139,56.0121974 C355.061139,62.5621974 365.971139,59.9221974 372.111139,69.9521974 C357.551139,69.9521974 344.171139,69.9521974 330.791139,69.9521974 C343.841139,80.9921974 359.171139,84.9721974 372.150139,93.8121974 C382.341139,100.752197 392.161139,107.712197 399.031139,118.162197 C400.251139,120.022197 402.401139,121.772197 400.501139,124.012197 C398.751139,126.062197 396.381139,124.932197 394.211139,124.152197 C371.041139,115.872197 347.451139,110.052197 327.121139,93.7521974 C306.360139,77.0921974 278.051139,76.3121974 253.091139,68.5921974 C226.781139,60.4621974 199.501139,60.7721974 172.361139,65.3621974" id="Fill-2712" fill="#F7C73D"></path>
                <path d="M11.0811387,131.362197 C3.22113869,128.242197 8.51113869,126.272197 11.9611387,125.792197 C27.5111387,123.602197 43.1211387,121.722197 58.7511387,120.082197 C87.4811387,117.082197 116.231139,120.202197 144.980139,120.042197 C151.281139,123.482197 145.891139,125.492197 143.741139,126.912197 C139.081139,129.972197 133.261139,129.082197 128.991139,130.282197 C145.011139,131.752197 161.621139,124.522197 178.671139,128.622197 C185.271139,131.082197 192.271139,139.382197 197.851139,127.222197 C205.061139,123.802197 212.131139,122.932197 218.891139,128.222197 C218.621139,134.482197 224.831139,136.782197 227.041139,141.522197 C177.791139,141.352197 128.551139,141.322197 79.3201387,140.682197 C76.0411387,140.632197 64.8711387,145.282197 69.8211387,132.492197 C70.7711387,130.042197 64.5711387,130.462197 61.6811387,130.482197 C44.8111387,130.612197 27.9511387,131.032197 11.0811387,131.362197" id="Fill-2713" fill="#ECAC2D"></path>
                <path d="M429.631139,65.3921974 C420.501139,61.8521974 423.271139,49.8821974 412.761139,45.1621974 C389.371139,34.6721974 365.361139,28.0221974 340.281139,24.4421974 C326.091139,22.4221974 311.861139,20.4421974 297.321139,20.1121974 C316.201139,10.6821974 336.411139,15.1021974 355.931139,13.2521974 C370.401139,9.10219744 378.731139,19.9921974 388.780139,26.6521974 C408.741139,33.7121974 425.471139,45.8721974 441.171139,59.6721974 C437.741139,62.4121974 427.291139,51.0421974 429.631139,65.3921974" id="Fill-2714" fill="#EBAE2D"></path>
                <path d="M218.891139,128.222197 C211.601139,129.352197 203.691139,125.542197 196.920139,130.932197 C191.491139,135.042197 186.051139,134.422197 180.581139,131.022197 C159.461139,129.302197 138.581139,136.822197 115.701139,132.512197 C122.941139,126.962197 130.291139,126.572197 137.491139,125.412197 C140.551139,124.922197 146.741139,127.652197 144.980139,120.042197 C142.771139,118.542197 140.411139,115.572197 138.371139,115.782197 C118.071139,117.812197 98.8611387,107.212197 78.5211387,110.822197 C75.7711387,111.302197 72.6411387,112.162197 72.0101387,108.512197 C71.2111387,103.812197 75.1411387,103.672197 78.2811387,103.732197 C96.3211387,104.042197 114.111139,103.522197 131.771139,98.4321974 C146.491139,94.1921974 160.001139,106.792197 175.091139,103.642197 C193.571139,106.642197 212.321139,107.712197 230.670139,111.582197 C234.791139,112.452197 240.741139,110.812197 241.581139,116.952197 C242.400139,122.982197 235.691139,122.692197 232.561139,125.482197 C228.010139,126.392197 223.451139,127.312197 218.891139,128.222197" id="Fill-2715" fill="#F8D336"></path>
                <path d="M232.561139,125.482197 C234.881139,122.832197 237.191139,120.182197 241.521139,115.242197 C222.821139,116.182197 207.731139,106.662197 190.421139,108.942197 C184.891139,109.672197 178.371139,110.622197 175.091139,103.642197 C182.181139,103.252197 183.561139,98.5921974 183.301139,92.7021974 C195.591139,91.8521974 207.301139,94.9021974 221.491139,97.6221974 C213.471139,103.562197 205.691139,98.5621974 199.421139,103.792197 C229.241139,106.082197 258.230139,113.532197 290.051139,117.692197 C283.351139,105.632197 271.860139,102.242197 261.871139,92.6621974 C280.011139,93.0421974 293.451139,100.682197 308.101139,102.012197 C314.791139,102.622197 321.311139,105.042197 327.961139,106.362197 C331.631139,107.102197 336.461139,107.642197 334.981139,112.302197 C333.751139,116.162197 329.621139,113.282197 326.661139,112.552197 C324.561139,112.032197 322.301139,112.142197 318.431139,111.842197 C323.781139,120.412197 333.021139,122.002197 341.021139,130.622197 C302.861139,122.182197 267.631139,126.732197 232.561139,125.482197" id="Fill-2716" fill="#F6C63C"></path>
                <path d="M199.730139,40.7421974 C201.581139,41.6321974 203.431139,42.5121974 205.271139,43.4021974 C221.691139,38.6021974 238.091139,35.6121974 254.461139,43.5921974 C265.941139,48.8021974 277.571139,53.6121974 290.371139,54.4021974 C296.521139,54.7721974 302.171139,56.0821974 305.571139,61.7521974 C306.821139,63.8321974 306.301139,66.5121974 304.481139,68.0221974 C298.941139,72.6621974 292.141139,71.9321974 286.341139,69.7621974 C258.371139,59.2721974 229.151139,56.4121974 199.730139,54.4721974 C185.591139,54.4621974 171.451139,54.3821974 157.320139,54.4921974 C153.021139,54.5221974 147.481139,53.1821974 149.251139,61.2221974 C150.101139,65.0421974 146.400139,64.7921974 143.771139,65.3921974 C120.961139,70.6521974 98.0111387,75.3821974 75.8911387,83.3121974 C72.3311387,84.5821974 67.0811387,86.7521974 65.3611387,82.1021974 C63.8311387,77.9621974 69.0411387,77.0421974 72.3011387,75.4521974 C79.5411387,71.9121974 86.7611387,69.0921974 85.5711387,57.8421974 C84.9001387,51.4621974 92.2011387,49.9721974 98.5811387,48.7421974 C123.401139,43.9221974 148.801139,44.9721974 173.591139,40.7521974 C182.531139,39.2321974 191.101139,48.1621974 199.730139,40.7421974" id="Fill-2717" fill="#F8D435"></path>
                <path d="M205.601139,23.3421974 C199.991139,28.5021974 194.191139,32.4521974 186.551139,29.7021974 C184.641139,29.0121974 183.621139,26.7321974 184.761139,25.4221974 C190.811139,18.5221974 198.411139,22.5421974 205.601139,23.3421974" id="Fill-2718" fill="#F8D435"></path>
                <path d="M205.271139,43.4021974 C205.961139,35.8321974 212.871139,37.5921974 216.911139,36.6521974 C234.871139,32.4821974 252.651139,26.9721974 271.401139,27.0621974 C277.331139,27.0921974 282.831139,27.3321974 288.171139,31.0121974 C291.621139,33.3921974 296.201139,34.3421974 300.991139,32.8921974 C312.341139,29.4321974 323.001139,33.9721974 333.791139,37.3421974 C307.021139,35.9721974 280.741139,39.8821974 254.461139,43.5921974 C238.061139,43.5221974 221.670139,43.4621974 205.271139,43.4021974 Z" id="Fill-2719" fill="#EDAD2C"></path>
                <path d="M180.581139,131.022197 C186.031139,130.992197 191.471139,130.962197 196.920139,130.932197 C198.431139,132.502197 201.121139,134.002197 201.230139,135.662197 C201.441139,138.972197 198.431139,138.862197 196.510139,137.522197 C191.651139,134.142197 182.731139,140.782197 180.581139,131.022197" id="Fill-2720" fill="#ECAB2C"></path>
            </g>
            <g transform="translate(62.177313, 12.498733)" id="Thanksgiving/Stuffs/Pumpkin">
                <g transform="translate(198.543354, 179.592545) scale(-1, 1) translate(-198.543354, -179.592545) ">
                    <path d="M205.976968,68.0583951 C205.976968,68.0583951 202.896295,56.4824299 190.5536,42.5952738 C178.210905,28.7081177 148.124335,27.1673237 134.241303,31.7897056 C120.358272,36.4220927 76.3986729,49.5388519 74.8583366,32.5701078 C73.307998,15.5913585 93.3623771,-2.15778768 108.025579,13.2801676 C122.677778,28.7081177 91.8220408,26.3969267 91.8220408,26.3969267 C91.8220408,26.3969267 118.817936,33.3405048 123.448947,19.4533486 C128.079958,5.56619253 104.934904,-2.92818467 87.9711999,0.933805434 C70.9964933,4.78579038 54.8039575,24.0757306 74.0781662,43.3656708 C93.3623771,62.655611 122.677778,40.2840828 145.81383,44.9064648 C168.958884,49.5388519 177.439736,64.196405 173.579893,71.139983 C169.728052,78.0835611 205.976968,68.0583951 205.976968,68.0583951" id="Fill-2804" fill="#501D1C"></path>
                    <path d="M387.996714,285.620506 C377.204357,304.140049 321.672231,351.214307 290.815493,348.893111 C267.840476,347.172224 247.896121,341.16913 239.184219,338.217609 C236.183564,337.207089 234.513199,336.556754 234.513199,336.556754 L233.743031,96.6131095 C233.743031,96.6131095 273.841787,74.991968 297.006845,81.9555563 C308.56937,85.4273454 327.443491,108.359162 345.277385,135.092938 C363.11128,161.796699 379.884942,192.272403 387.226545,210.801952 C401.879745,247.821028 398.78907,267.120973 387.996714,285.620506" id="Fill-2805" fill="#E57544"></path>
                    <path d="M387.996714,285.620506 C377.204357,304.140049 321.672231,351.214307 290.815493,348.893111 C267.840476,347.172224 247.896121,341.16913 239.184219,338.217609 L256.097912,286.390903 C256.097912,286.390903 322.452401,294.124888 349.437294,264.799777 C369.802741,242.678378 354.199334,169.640741 345.277385,135.092938 C363.11128,161.796699 379.884942,192.272403 387.226545,210.801952 C401.879745,247.821028 398.78907,267.120973 387.996714,285.620506" id="Fill-2806" fill="#DF6337"></path>
                    <path d="M159.696862,85.0271391 C159.696862,85.0271391 114.186924,70.369586 77.1688411,95.0623103 C40.1507578,119.745029 -1.50833888,230.852284 0.0419996534,254.764606 C1.582336,278.686933 32.4290717,330.373567 47.8624417,341.949533 C63.2848094,353.525498 83.3391885,357.387488 112.646588,336.546748 C141.96399,315.716014 159.696862,85.0271391 159.696862,85.0271391" id="Fill-2807" fill="#DC5731"></path>
                    <path d="M155.065851,86.5779383 C155.065851,86.5779383 124.219115,75.0019731 92.5912087,98.9142953 C60.9753051,122.836623 40.1507578,197.675187 36.2899148,237.025465 C32.4290717,276.375742 69.4571572,333.46516 79.4793456,340.408739 C89.5115363,347.352317 102.6244,352.755101 125.758451,327.291979 C148.904505,301.828858 176.670568,100.465094 155.065851,86.5779383" id="Fill-2808" fill="#E67544"></path>
                    <path d="M249.166399,330.373567 C242.694985,340.748914 236.363603,347.822559 228.511888,352.40492 C217.629512,358.768199 203.866507,360.258967 182.851918,358.918277 C146.583999,356.59708 106.47524,329.593165 101.844229,282.548923 C100.864015,272.533762 100.413917,260.787709 100.623963,248.00112 C101.484151,200.656724 111.886422,139.165037 140.422653,99.6746871 C176.670568,49.5388519 197.505118,61.885214 197.505118,61.885214 C239.92438,71.1299779 257.638248,142.106552 266.919275,183.798036 C276.162293,225.459505 264.599769,305.690848 249.166399,330.373567" id="Fill-2809" fill="#EA8C50"></path>
                    <path d="M169.728052,97.3735013 C169.728052,97.3735013 122.677778,150.610935 121.12844,202.307574 C119.588104,253.994209 128.079958,273.284149 137.331978,267.881365 C146.583999,262.478581 154.295683,175.303659 165.098041,146.748945 C175.9004,118.204235 184.382252,90.4299232 169.728052,97.3735013" id="Fill-2810" fill="#F2B666"></path>
                    <path d="M228.511888,352.40492 C217.629512,358.768199 203.866507,360.258967 182.851918,358.918277 C146.583999,356.59708 106.47524,329.593165 101.844229,282.548923 C100.864015,272.533762 100.413917,260.787709 100.623963,248.00112 C109.215839,268.011432 138.052136,328.702706 172.799723,331.914361 C214.448818,335.786357 253.807412,243.959038 253.807412,243.959038 C257.818288,294.094873 246.465809,329.56315 228.511888,352.40492" id="Fill-2811" fill="#E67644"></path>
                </g>
            </g>
            <g transform="translate(394.847893, 259.839924)" id="Thanksgiving/Stuffs/Nut">
                <g transform="translate(42.984336, 50.304480) scale(-1, 1) translate(-42.984336, -50.304480) ">
                    <path d="M12.5687183,30.0233073 C12.6077041,31.1987387 13.2484706,32.5733958 14.2780954,34.0675883 C15.667589,36.1196126 17.8068095,38.3907851 20.2959024,40.7018028 C28.2629991,48.0731523 39.5788754,55.5640373 39.5788754,55.5640373 L66.9489013,70.3864265 C66.9489013,70.3864265 67.808588,70.4163104 69.1590958,70.2071234 C71.9370835,69.8186334 76.8452949,68.503744 80.6139215,64.28016 C83.0030509,61.6204974 84.9223515,57.8650937 85.6420892,52.4361944 C88.0911967,34.1771624 75.2758668,14.4936669 48.2657097,9.66244463 C32.571429,6.86332407 22.9649298,11.5152433 17.725839,17.4322455 C14.4580298,21.1179202 12.8886017,25.3116204 12.6386928,28.5390761 C12.5687183,29.0670241 12.5387292,29.5650883 12.5687183,30.0233073" id="Fill-2812" fill="#822D24"></path>
                    <path d="M8.43922317,87.3006853 C12.4587584,92.7594684 9.78973102,100.84803 12.17986,100.180624 C12.6386928,100.07105 13.3184451,99.6128312 14.3170812,98.6864319 C20.2249283,93.1878036 34.0708826,100.07105 44.7769811,95.2497892 C53.4228304,91.3449662 65.0296007,76.0245128 69.1590958,70.2071234 C70.187721,68.8225051 70.7575134,67.975796 70.7575134,67.975796 C63.3202236,36.1993029 39.5788754,31.3680805 25.7339207,31.4378095 C19.5461756,31.4776547 15.3477056,32.4339378 15.3477056,32.4339378 C15.3477056,32.4339378 14.9578477,33.0415761 14.2780954,34.0675883 C12.0679008,37.5440761 6.72984609,46.090857 2.21249229,54.88667 C-3.69535479,66.2724166 3.56200051,80.7361997 8.43922317,87.3006853" id="Fill-2813" fill="#E98558"></path>
                    <path d="M8.43922317,87.3006853 C12.4587584,92.7594684 9.78973102,100.84803 12.17986,100.180624 L12.2488349,100.07105 C15.6975781,92.4805525 13.2784597,83.5054364 11.5390935,69.0018082 C10.5794432,60.8036722 15.667589,49.2087386 20.2959024,40.7018028 C22.4251265,36.7272509 24.454387,33.4300662 25.7339207,31.4378095 C26.5936074,30.0930363 25.573979,31.5772675 25.573979,31.5772675 L13.2784597,32.6132409 C13.2084852,33.1411889 13.2484706,32.8423505 13.2784597,33.3005695 C13.3184451,34.4760009 13.2484706,32.5733958 14.2780954,34.0675883 C12.0679008,37.5440761 6.72984609,46.090857 2.21249229,54.88667 C-3.69535479,66.2724166 3.56200051,80.7361997 8.43922317,87.3006853" id="Fill-2814" fill="#C7663C"></path>
                    <path d="M17.725839,17.4322455 C28.8727768,15.9778981 50.5038941,14.7028539 64.8896517,23.8174279 C78.3737379,32.404054 80.6139215,52.2270074 80.6139215,64.28016 C83.0030509,61.6204974 84.9223515,57.8650937 85.6420892,52.4361944 C88.0911967,34.1771624 75.2758668,14.4936669 48.2657097,9.66244463 C32.571429,6.86332407 22.9649298,11.5152433 17.725839,17.4322455" id="Fill-2815" fill="#52201D"></path>
                    <path d="M60.0314221,0 C60.0314221,0 67.2987738,0 67.2987738,6.21584067 C67.2987738,12.4217201 66.6090251,16.5656138 66.6090251,16.5656138 L62.1006681,14.8423119 L60.0314221,0" id="Fill-2816" fill="#52201D"></path>
                    <path d="M51.2536209,62.4572452 C51.2536209,62.4572452 56.7926024,53.7211999 58.6419285,61.5408071 C60.4912545,69.3604144 52.1742854,79.481078 44.7869774,80.8656964 C37.3996695,82.2403535 40.6384892,75.8053646 44.7869774,71.6614708 C48.945462,67.517577 51.2536209,62.4572452 51.2536209,62.4572452" id="Fill-2817" fill="#FADDB8"></path>
                </g>
            </g>
            <g transform="translate(-1.709833, 205.902057)" fill="#62261D" id="Thanksgiving/Stuffs/Leaf4-Copy">
                <g transform="translate(118.000000, 94.031250) scale(-1, 1) rotate(30.000000) translate(-118.000000, -94.031250) ">
                    <path d="M218.770789,125.605432 C218.770789,125.605432 224.892039,189.509807 200.333289,187.039182 C175.737664,184.605432 191.741414,140.355432 174.520789,144.042932 C157.337039,147.730432 158.553914,201.789182 140.112727,182.134807 C121.675227,162.480432 137.052102,125.605432 121.088914,123.171682 C105.122039,120.701057 89.118289,154.478557 76.838914,137.921682 C64.559539,121.327932 78.6789765,94.8885565 68.247039,89.9841815 C57.811414,85.0798065 31.372039,107.204807 28.311414,90.6110565 C25.250789,74.0173065 40.590789,54.9529315 28.311414,50.6754315 C16.032039,46.3610565 -5.46608596,32.2379315 1.28203904,14.4273065 C8.03016404,-3.38331846 27.684539,19.3316815 27.684539,19.3316815 L176.364539,97.3591815 L218.770789,125.605432" id="Fill-2764"></path>
                    <path d="M22.780164,4.58168154 C10.500789,-7.69769346 1.28203904,14.4273065 1.28203904,14.4273065 L221.25,132.75 C221.25,132.75 237.208289,106.577932 234.110789,91.8279315 C231.050164,77.0779315 202.803914,105.361057 192.958289,94.8885565 C183.112664,84.4529315 199.112727,44.5173065 186.800164,36.5523065 C174.520789,28.5504315 157.337039,66.0154315 146.274539,64.7985565 C135.212039,63.5816815 144.430789,31.6110565 137.682664,17.4879315 C130.897664,3.36480654 116.143977,2.14793154 108.178977,16.8610565 C100.180789,31.6110565 90.372039,46.3610565 87.901414,34.7085565 C85.430789,23.0191815 79.899539,-7.07081846 69.4602265,1.52105654 C59.028289,10.1129315 63.9289765,32.2379315 43.688289,26.7066815 C43.688289,26.7066815 35.059539,16.8610565 22.780164,4.58168154 Z" id="Fill-2765"></path>
                    <path d="M46.5608515,43.4848065 C61.757039,51.4498065 100.107039,71.5098065 137.166414,91.5698065 C155.714539,101.599807 173.930789,111.592932 188.754539,120.074182 C196.203289,124.314807 202.767039,128.149807 208.113914,131.431682 C210.934452,133.155344 214.004691,135.144312 217.324629,137.398587 C218.782932,138.38879 220.760655,138.068155 221.831414,136.667932 C222.832732,135.358516 222.582969,133.485296 221.273554,132.483978 C221.226401,132.44792 221.178184,132.413277 221.128951,132.380116 C216.706392,129.398508 212.663046,126.796113 208.998914,124.572932 C185.988914,110.707932 144.467664,88.1773065 108.621477,69.0760565 C85.8352741,56.9549879 64.7808065,45.8624511 45.4580737,35.7984464 C43.9119448,34.9931935 42.0057643,35.593764 41.2004885,37.139881 C41.2000675,37.1406893 41.1996468,37.1414979 41.1992265,37.1423065 C40.3944515,38.6907345 40.9973013,40.5983824 42.5457292,41.4031574 C42.5460718,41.4033355 42.5464144,41.4035134 42.546767,41.4036722 C43.7160945,42.0108705 45.0541227,42.7045819 46.5608515,43.4848065 Z" id="Fill-2766"></path>
                    <path d="M55.1671514,69.4039552 L77.4375,59 L77.4375,59 L73.114539,54.5473065 L52.6408944,63.6991647 C51.0532068,64.4088719 50.3386827,66.269099 51.0430078,67.8591815 C51.7326589,69.4161363 53.5538927,70.1192248 55.1108474,69.4295737 C55.1297006,69.4212227 55.1484696,69.4126828 55.1671514,69.4039552 Z" id="Fill-2767"></path>
                    <path d="M90.0958406,98.669273 L127.062664,85.5960565 L127.062664,85.5960565 L124.923914,79.6223065 L87.9927968,92.7290986 C86.3534514,93.3108996 85.4955548,95.1109541 86.0761015,96.750744 C86.6565772,98.3903332 88.4560504,99.2491803 90.0958406,98.669273 Z" id="Fill-2768"></path>
                    <path d="M135.9934,119.93572 L173.3125,110.625 L173.3125,110.625 L168.805164,104.734182 L134.39798,113.776227 C132.707457,114.220488 131.694668,115.948355 132.132977,117.640432 C132.57198,119.335189 134.294774,120.359509 135.9934,119.93572 Z" id="Fill-2769"></path>
                    <path d="M162.574049,139.251384 L202.8125,125.375 L202.8125,125.375 L194.986414,121.401682 L160.509386,133.27861 C158.86093,133.846484 157.984944,135.643175 158.552818,137.291631 C158.553183,137.29269 158.553548,137.293748 158.553914,137.294807 C159.124271,138.944768 160.923668,139.820524 162.574049,139.251384 Z" id="Fill-2770"></path>
                    <path d="M171.208821,73.8504787 L175.819758,108.67842 L175.819758,108.67842 L182.559539,111.666682 L177.441054,73.0391813 C177.212937,71.3176608 175.63439,70.1056358 173.912352,70.3298065 C172.195209,70.5533399 170.984399,72.1265687 171.207933,73.8437115 C171.208226,73.8459675 171.208522,73.8482233 171.208821,73.8504787 Z" id="Fill-2771"></path>
                    <path d="M109.818511,45.7155315 L108.698914,72.0260565 L108.698914,72.0260565 L115.004539,75.9716815 L116.139036,45.9742553 C116.204957,44.2312071 114.848311,42.7633381 113.105477,42.691994 C111.363403,42.6206811 109.892637,43.9735758 109.818511,45.7155315 Z" id="Fill-2772"></path>
                    <path d="M73.1929566,29.5811186 L84.951414,59.7835565 L84.951414,59.7835565 L92.1875,62.6875 L79.0468341,27.3124121 C78.4468665,25.6972804 76.6511737,24.8743273 75.036042,25.4742949 C75.02238,25.4793699 75.0087536,25.4845406 74.995164,25.4898065 C73.3685006,26.1201386 72.5608144,27.949795 73.1911465,29.5764585 C73.1917486,29.5780123 73.192352,29.5795657 73.1929566,29.5811186 Z" id="Fill-2773"></path>
                </g>
            </g>
            <g transform="translate(39.290167, 251.902057)" id="Thanksgiving/Stuffs/Leaf4">
                <g transform="translate(118.000000, 94.031250) scale(-1, 1) translate(-118.000000, -94.031250) ">
                    <path d="M218.770789,125.605432 C218.770789,125.605432 224.892039,189.509807 200.333289,187.039182 C175.737664,184.605432 191.741414,140.355432 174.520789,144.042932 C157.337039,147.730432 158.553914,201.789182 140.112727,182.134807 C121.675227,162.480432 137.052102,125.605432 121.088914,123.171682 C105.122039,120.701057 89.118289,154.478557 76.838914,137.921682 C64.559539,121.327932 78.6789765,94.8885565 68.247039,89.9841815 C57.811414,85.0798065 31.372039,107.204807 28.311414,90.6110565 C25.250789,74.0173065 40.590789,54.9529315 28.311414,50.6754315 C16.032039,46.3610565 -5.46608596,32.2379315 1.28203904,14.4273065 C8.03016404,-3.38331846 27.684539,19.3316815 27.684539,19.3316815 L176.364539,97.3591815 L218.770789,125.605432" id="Fill-2764" fill="#E47B2C"></path>
                    <path d="M22.780164,4.58168154 C10.500789,-7.69769346 1.28203904,14.4273065 1.28203904,14.4273065 L221.25,132.75 C221.25,132.75 237.208289,106.577932 234.110789,91.8279315 C231.050164,77.0779315 202.803914,105.361057 192.958289,94.8885565 C183.112664,84.4529315 199.112727,44.5173065 186.800164,36.5523065 C174.520789,28.5504315 157.337039,66.0154315 146.274539,64.7985565 C135.212039,63.5816815 144.430789,31.6110565 137.682664,17.4879315 C130.897664,3.36480654 116.143977,2.14793154 108.178977,16.8610565 C100.180789,31.6110565 90.372039,46.3610565 87.901414,34.7085565 C85.430789,23.0191815 79.899539,-7.07081846 69.4602265,1.52105654 C59.028289,10.1129315 63.9289765,32.2379315 43.688289,26.7066815 C43.688289,26.7066815 35.059539,16.8610565 22.780164,4.58168154 Z" id="Fill-2765" fill="#9E3C2A"></path>
                    <path d="M46.5608515,43.4848065 C61.757039,51.4498065 100.107039,71.5098065 137.166414,91.5698065 C155.714539,101.599807 173.930789,111.592932 188.754539,120.074182 C196.203289,124.314807 202.767039,128.149807 208.113914,131.431682 C210.934452,133.155344 214.004691,135.144312 217.324629,137.398587 C218.782932,138.38879 220.760655,138.068155 221.831414,136.667932 C222.832732,135.358516 222.582969,133.485296 221.273554,132.483978 C221.226401,132.44792 221.178184,132.413277 221.128951,132.380116 C216.706392,129.398508 212.663046,126.796113 208.998914,124.572932 C185.988914,110.707932 144.467664,88.1773065 108.621477,69.0760565 C85.8352741,56.9549879 64.7808065,45.8624511 45.4580737,35.7984464 C43.9119448,34.9931935 42.0057643,35.593764 41.2004885,37.139881 C41.2000675,37.1406893 41.1996468,37.1414979 41.1992265,37.1423065 C40.3944515,38.6907345 40.9973013,40.5983824 42.5457292,41.4031574 C42.5460718,41.4033355 42.5464144,41.4035134 42.546767,41.4036722 C43.7160945,42.0108705 45.0541227,42.7045819 46.5608515,43.4848065 Z" id="Fill-2766" fill="#62261D"></path>
                    <path d="M55.1671514,69.4039552 L77.4375,59 L77.4375,59 L73.114539,54.5473065 L52.6408944,63.6991647 C51.0532068,64.4088719 50.3386827,66.269099 51.0430078,67.8591815 C51.7326589,69.4161363 53.5538927,70.1192248 55.1108474,69.4295737 C55.1297006,69.4212227 55.1484696,69.4126828 55.1671514,69.4039552 Z" id="Fill-2767" fill="#62261D"></path>
                    <path d="M90.0958406,98.669273 L127.062664,85.5960565 L127.062664,85.5960565 L124.923914,79.6223065 L87.9927968,92.7290986 C86.3534514,93.3108996 85.4955548,95.1109541 86.0761015,96.750744 C86.6565772,98.3903332 88.4560504,99.2491803 90.0958406,98.669273 Z" id="Fill-2768" fill="#62261D"></path>
                    <path d="M135.9934,119.93572 L173.3125,110.625 L173.3125,110.625 L168.805164,104.734182 L134.39798,113.776227 C132.707457,114.220488 131.694668,115.948355 132.132977,117.640432 C132.57198,119.335189 134.294774,120.359509 135.9934,119.93572 Z" id="Fill-2769" fill="#62261D"></path>
                    <path d="M162.574049,139.251384 L202.8125,125.375 L202.8125,125.375 L194.986414,121.401682 L160.509386,133.27861 C158.86093,133.846484 157.984944,135.643175 158.552818,137.291631 C158.553183,137.29269 158.553548,137.293748 158.553914,137.294807 C159.124271,138.944768 160.923668,139.820524 162.574049,139.251384 Z" id="Fill-2770" fill="#62261D"></path>
                    <path d="M171.208821,73.8504787 L175.819758,108.67842 L175.819758,108.67842 L182.559539,111.666682 L177.441054,73.0391813 C177.212937,71.3176608 175.63439,70.1056358 173.912352,70.3298065 C172.195209,70.5533399 170.984399,72.1265687 171.207933,73.8437115 C171.208226,73.8459675 171.208522,73.8482233 171.208821,73.8504787 Z" id="Fill-2771" fill="#62261D"></path>
                    <path d="M109.818511,45.7155315 L108.698914,72.0260565 L108.698914,72.0260565 L115.004539,75.9716815 L116.139036,45.9742553 C116.204957,44.2312071 114.848311,42.7633381 113.105477,42.691994 C111.363403,42.6206811 109.892637,43.9735758 109.818511,45.7155315 Z" id="Fill-2772" fill="#62261D"></path>
                    <path d="M73.1929566,29.5811186 L84.951414,59.7835565 L84.951414,59.7835565 L92.1875,62.6875 L79.0468341,27.3124121 C78.4468665,25.6972804 76.6511737,24.8743273 75.036042,25.4742949 C75.02238,25.4793699 75.0087536,25.4845406 74.995164,25.4898065 C73.3685006,26.1201386 72.5608144,27.949795 73.1911465,29.5764585 C73.1917486,29.5780123 73.192352,29.5795657 73.1929566,29.5811186 Z" id="Fill-2773" fill="#62261D"></path>
                </g>
            </g>
        </g>
    </g>
</svg>