<?xml version="1.0" encoding="UTF-8"?>
<svg width="390px" height="280px" viewBox="0 0 390 280" version="1.1" xmlns="http://www.w3.org/2000/svg" xmlns:xlink="http://www.w3.org/1999/xlink">
    <title>decoration-8</title>
    <g id="decoration-8" stroke="none" stroke-width="1" fill="none" fill-rule="evenodd">
        <g id="Thanksgiving/Stickers/Turkey-Copy" transform="translate(0.691517, 6.785844)">
            <path d="M163.01895,19.7169596 L163.152201,20.4709517 L163.365349,21.5997359 L163.749166,23.5222477 L164.230481,25.8363412 L165.178114,30.243543 L166.588307,36.6267686 L167.552232,40.9254651 L168.807681,46.4734045 L169.851979,51.0550991 L170.890951,55.5935938 L170.849249,55.7241137 C170.674246,56.2852126 170.537701,56.8625945 170.442399,57.452958 L170.046007,60.4126639 L169.804963,62.149015 L169.627883,63.3910887 C169.015802,67.640222 168.31905,72.0455895 167.553138,76.3595605 L167.409521,77.1627984 L167.048511,79.1313882 L166.750136,80.7046367 L166.426426,82.3568053 L166.091611,84.0059283 C165.902257,84.9217825 165.709575,85.8235881 165.515724,86.7000091 L165.285647,87.7221517 L165.130761,88.3445856 L165.002526,88.8289077 L164.854534,89.3678493 L164.595922,90.2770356 L164.325571,91.1935055 L163.207519,91.6093197 C162.410952,91.9036085 161.6178,92.1947208 160.828984,92.4822412 L158.476466,93.3336108 L156.155492,94.1609362 C153.084345,95.2468993 150.112055,96.2620976 147.29758,97.1799445 L145.599477,97.7279328 L144.327864,98.1300215 C144.11917,98.1953836 143.91211,98.259914 143.706709,98.3236049 L142.494374,98.6956135 L141.322906,99.0470967 L140.193382,99.3776771 L139.10688,99.6869771 C138.929442,99.7367327 138.753841,99.785586 138.5801,99.8335289 L137.560154,100.1102 C137.393943,100.154471 137.229637,100.197815 137.067258,100.240226 L136.116294,100.483419 L135.212666,100.703822 L134.621376,100.840772 L133.116204,96.8093713 L130.78861,90.5209849 L128.593813,84.5444436 L126.965726,80.0866961 L124.87695,74.3410376 L123.511355,70.5695148 L119.865769,60.4452189 L119.992146,59.5305371 L120.191583,58.1503653 L120.39655,56.8121525 L120.606936,55.5182875 C120.748974,54.6710243 120.894549,53.8549186 121.043513,53.0731555 L121.269482,51.926666 C121.345639,51.5533538 121.422625,51.1890254 121.50042,50.8340789 L121.683405,50.0238297 L121.873744,49.2321212 C121.936971,48.9776497 121.999918,48.7327521 122.062408,48.4978559 L122.24832,47.8235992 L122.430406,47.2119169 C122.460375,47.1153269 122.49014,47.021451 122.519678,46.9303428 L122.649506,46.5451579 L122.699988,46.5031498 C128.075794,41.8291419 130.244257,34.835882 129.3613,28.025789 C128.913298,24.5704205 127.670243,21.2379 125.631912,18.4686474 C122.683567,14.4630585 118.19473,11.7715406 112.778763,11.8101269 L112.341152,11.8200883 C110.749169,11.877664 109.294455,12.1653951 107.935136,12.637036 L107.817906,12.678755 L107.59127,12.4587229 C105.536722,10.4988842 103.117994,8.95743948 100.458654,7.96862514 C89.9433936,4.05876846 78.657953,10.2049479 77.7083504,22.4830826 L77.6299012,23.6685941 L77.538406,25.4295081 L77.4336519,27.9282378 L77.2755619,32.6180812 L77.1154933,38.3942691 L76.9525146,45.2075783 L76.834505,50.6669738 L76.6658478,59.2165671 L76.6045912,59.3147695 C76.2988154,59.8169904 76.0264332,60.3443381 75.7909499,60.8942811 L74.5970935,63.9021383 L73.716261,66.0837502 L73.239061,67.251214 C71.3778995,71.7860579 69.4035509,76.3888453 67.4118639,80.7593909 L67.0677428,81.5117936 C66.7890889,82.1188428 66.5048151,82.7323605 66.2222769,83.336139 L65.8569554,84.1134727 C65.1983525,85.5088685 64.5467797,86.8549639 63.9099736,88.1337355 L63.4642602,89.0203823 L63.2191206,89.4818035 L62.660283,90.4869814 L61.9592785,91.7041874 L61.0327758,93.2760865 L59.5590104,95.7134995 L57.4263793,99.1533054 L55.205371,102.673269 L51.98127,107.723496 L46.9497662,115.536663 L28.0382026,144.728176 L22.3597082,153.550361 L18.3748919,159.793526 L15.4542342,164.412507 L13.1087508,168.160679 L10.7458395,171.98754 L9.5568624,173.940043 L8.03803279,176.470831 L7.24536655,177.813017 L6.33035222,179.386662 L5.49848415,180.846845 L4.7485875,182.195916 L4.33750707,182.953001 L3.83420732,183.902417 L3.60159149,184.351736 L3.27624882,184.9944 L2.88608186,185.793622 L2.7095249,186.168858 C-0.740234787,193.596495 -0.674455811,202.158206 1.66063021,211.780642 C2.87672032,216.791913 4.69806355,221.960227 6.96303578,227.198083 C8.23374179,230.136652 9.5790623,232.946132 10.9354556,235.567795 L11.6172437,236.868335 L12.2619843,238.067506 L12.5547483,238.601502 L13.1917752,239.736548 L13.5158104,240.295253 L13.8292731,240.85481 C14.558256,242.132338 15.3261815,243.364184 16.1324761,244.549704 L16.5405248,245.138881 L16.5664947,245.274648 C17.9648717,252.501157 20.7029478,259.031218 24.8405275,264.633439 L25.5257647,265.550536 C28.9683384,270.104744 32.6562562,274.190058 36.5681074,277.816486 L36.9595969,278.175519 L37.4770536,278.713485 C49.7602958,291.314229 67.4740076,298.028591 88.2122972,299.518504 C105.817528,300.783327 125.076514,298.139869 141.577656,292.625538 L142.371702,292.357721 C144.001946,291.803406 145.661214,291.211973 147.342945,290.587156 L149.031921,289.951348 C149.314584,289.843571 149.59781,289.734901 149.881569,289.625356 L151.590274,288.957718 C152.447581,288.618784 153.309137,288.272281 154.174121,287.918676 L155.908419,287.202134 L157.650402,286.467482 C158.232181,286.219672 158.814999,285.968981 159.398612,285.715549 L161.151592,284.947165 C161.736551,284.688387 162.322062,284.427005 162.907883,284.163158 L164.666027,283.364359 L166.424567,282.551596 L168.182044,281.7257 C168.474788,281.587002 168.767426,281.447791 169.059929,281.308085 L170.813079,280.464042 L172.561521,279.608939 C173.143388,279.322153 173.724228,279.033662 174.303797,278.743604 L176.03845,277.868867 C176.326843,277.72234 176.614857,277.575456 176.902462,277.428232 L178.622946,276.540947 L180.332161,275.646333 C180.61601,275.496667 180.899329,275.346729 181.182087,275.196538 L182.871666,274.292486 C183.432454,273.990214 183.990757,273.687065 184.546331,273.383179 L186.204624,272.469447 L187.845088,271.552117 L189.466264,270.632021 C190.00328,270.324953 190.536837,270.017562 191.066695,269.709986 L192.644922,268.786843 C192.906028,268.632939 193.166149,268.479024 193.425253,268.325115 L194.967441,267.401864 L196.48378,266.479578 C196.734269,266.32599 196.983619,266.172477 197.231801,266.019056 L198.706634,265.099772 L200.151973,264.183526 C200.628675,263.878709 201.100218,263.574537 201.56636,263.271148 L202.948338,262.363467 L204.296448,261.461311 C206.292484,260.112638 208.169296,258.785415 209.904741,257.492237 L210.712191,256.883552 L210.198855,257.105578 C240.125321,244.423078 269.410232,207.289691 269.930328,182.129836 L269.944829,181.187854 C270.227524,152.280927 256.162936,109.178559 241.712569,88.4991059 L239.522122,85.3490784 L236.140713,80.4445083 L232.517561,75.148527 L228.951311,69.9049857 L225.755608,65.1858962 L221.052006,58.2104658 L217.299167,52.6215635 L213.114964,46.3672083 L213.043145,45.7094642 C213.006677,45.3680175 212.971442,45.029118 212.937478,44.6929244 L212.852196,43.8267682 C212.813976,43.4283357 212.777836,43.0356095 212.743803,42.6488948 L212.648054,41.5070903 C212.633159,41.319897 212.618797,41.1342829 212.604973,40.950286 L212.5285,39.8660176 L212.465087,38.8223953 L212.414899,37.8212497 C212.407645,37.6580336 212.40095,37.4966636 212.394816,37.3371779 L212.364777,36.4031805 C212.341531,35.492405 212.338745,34.6522104 212.357168,33.8908356 L212.377818,33.2666235 L212.39198,32.9695396 L212.425936,32.4281606 C212.432104,32.3438565 212.438487,32.2625354 212.445028,32.1842275 L212.489895,32.1239843 C216.568939,26.2967121 216.980169,18.9858934 214.473823,12.5921038 C213.201983,9.34758994 211.187998,6.41494419 208.538253,4.2218049 C204.706686,1.05049632 199.698989,-0.472012254 194.454725,0.877359608 L194.041347,0.989761541 C192.542199,1.41868683 191.223841,2.03126512 190.037593,2.79514133 L189.85816,2.91452194 L189.583214,2.75347794 C187.115869,1.34815646 184.396913,0.437093803 181.578261,0.120173067 C170.422212,-1.13417904 160.959258,7.57028753 163.01895,19.7169596 Z" id="Path" fill="#FFFFFF" fill-rule="nonzero"></path>
            <g id="Thanksgiving/Stuffs/Turkey" transform="translate(12.524904, 12.495807)">
                <path d="M76.4194595,58.5495094 C76.4194595,58.5495094 77.0492704,18.5829223 77.6290964,10.9473953 C78.2189194,3.32186242 88.8957147,6.94973717 89.5055317,15.7046085 C90.1253457,24.4694739 96.1135483,11.8468684 100.322285,11.8068918 C104.531022,11.7769094 106.790344,21.5611776 101.07206,25.229029 C95.3537763,28.8868861 93.1544365,64.0662777 93.1544365,64.0662777 L76.4194595,58.5495094" id="Fill-2635" fill="#F6ECE4"></path>
                <path d="M117.527121,190.112438 C112.588603,208.311777 79.8984153,235.295969 50.777156,239.44354 C35.1518459,241.692222 20.5462298,237.344769 11.8188493,221.494055 C11.8188493,221.494055 -5.05608565,193.040723 1.52193996,178.879019 C8.09996556,164.707321 55.7056767,94.7083272 62.1537413,81.9957744 C68.5718149,69.2632332 74.7399636,53.3025832 74.7399636,53.3025832 L87.0262758,52.6929403 L95.5937043,52.2531979 C95.5937043,52.2531979 106.120545,81.6859559 113.208417,100.205107 C120.29629,118.724258 125.134838,162.118837 117.527121,190.112438" id="Fill-2636" fill="#843D32"></path>
                <path d="M92.5846075,109.729528 C91.3849676,85.8735027 88.6757807,64.2861489 87.0262758,52.6929403 L95.5937043,52.2531979 C95.5937043,52.2531979 106.120545,81.6859559 113.208417,100.205107 C113.388363,100.69482 113.578306,101.194528 113.758252,101.714223 C108.999681,102.563725 101.391964,105.152209 92.5846075,109.729528" id="Fill-2637" fill="#76342A"></path>
                <path d="M169.281587,85.3338189 C169.281587,85.3338189 126.72436,102.383831 117.527121,101.424393 C108.329882,100.474949 58.8347375,119.004094 36.1015609,167.965412 C13.3783812,216.936724 10.3892784,227.160735 30.3932742,253.365384 C50.39727,279.560039 95.7236653,278.000952 125.064859,268.196696 C154.406052,258.382445 189.79543,237.304793 197.483122,228.260091 C205.180812,219.225384 169.281587,85.3338189 169.281587,85.3338189" id="Fill-2638" fill="#6D2E25"></path>
                <path d="M173.130432,51.6135726 C173.130432,51.6135726 164.063153,12.6763824 162.783537,5.13080272 C161.503921,-2.41477699 172.740549,-1.47532733 175.459733,6.87977815 C178.168919,15.2348836 180.938088,1.53291041 185.006867,0.483525148 C189.085643,-0.56586011 193.644274,8.37889995 188.985673,13.3160077 C184.327071,18.2531155 190.705157,52.9128115 190.705157,52.9128115 L173.130432,51.6135726" id="Fill-2639" fill="#F6ECE4"></path>
                <path d="M244.858902,169.324616 C244.469019,188.183568 219.276581,222.263604 192.024761,233.337117 C177.409147,239.293628 162.183717,238.604031 149.877411,225.341801 C149.877411,225.341801 126.614393,201.815583 129.573505,186.484564 C132.532617,171.143551 161.783837,91.7100836 164.952886,77.8082275 C168.101941,63.9063713 170.221305,46.9363126 170.221305,46.9363126 L181.99777,43.3684027 L190.205307,40.8698664 C190.205307,40.8698664 207.540104,66.8746325 218.896695,83.1351069 C230.253286,99.3855872 245.458722,140.331601 244.858902,169.324616" id="Fill-2640" fill="#843D32"></path>
                <path d="M192.024761,233.337117 C197.103236,224.112521 203.311373,212.129541 210.329266,197.128328 C227.234192,160.979505 193.294379,71.172115 181.99777,43.3684027 L190.205307,40.8698664 C190.205307,40.8698664 207.540104,66.8746325 218.896695,83.1351069 C230.033352,99.0757687 244.858902,138.742531 244.868899,167.605623 C244.868899,168.185284 244.868899,168.75495 244.858902,169.324616 C244.469019,188.183568 219.276581,222.263604 192.024761,233.337117" id="Fill-2641" fill="#76342A"></path>
                <path d="M117.527121,101.424393 C117.527121,101.424393 32.2427191,170.44396 38.0709698,213.078984 C43.8892234,255.714008 89.1556367,273.153792 89.1556367,273.153792 C89.1556367,273.153792 50.417264,282.618247 22.3656837,244.640495 C-5.68589661,206.662743 56.4954397,107.380903 117.527121,101.424393" id="Fill-2642" fill="#54211E"></path>
                <polyline id="Fill-2643" fill="#B5564B" points="170.621185 85.1139477 170.741149 100.914691 173.940189 100.894703 173.830222 85.0939594"></polyline>
                <polyline id="Fill-2644" fill="#B5564B" points="183.507317 92.9893342 183.287383 113.61725 186.49642 113.657227 186.716354 93.0193166"></polyline>
                <polyline id="Fill-2645" fill="#B5564B" points="164.023165 123.451489 164.103141 133.6755 167.302181 133.655512 167.232202 123.431501"></polyline>
                <polyline id="Fill-2646" fill="#B5564B" points="179.278586 124.071126 179.188613 137.633181 182.387653 137.65317 182.477626 124.091114"></polyline>
                <polyline id="Fill-2647" fill="#B5564B" points="190.655172 127.389182 193.004467 142.990043 196.173515 142.510324 193.82422 126.919458"></polyline>
                <polyline id="Fill-2648" fill="#B5564B" points="163.513318 180.008357 162.483627 192.650951 165.682667 192.910799 166.702361 180.268205"></polyline>
                <polyline id="Fill-2649" fill="#B5564B" points="154.116139 166.096507 153.2464 174.471601 156.435443 174.801408 157.305182 166.426314"></polyline>
                <polyline id="Fill-2650" fill="#B5564B" points="189.025661 161.559165 189.185613 182.936642 192.384653 182.916654 192.234698 161.539177"></polyline>
                <polyline id="Fill-2651" fill="#B5564B" points="175.089844 157.631466 173.290384 166.936015 176.439438 167.545658 178.228901 158.241109"></polyline>
                <polyline id="Fill-2652" fill="#B5564B" points="200.332267 156.162327 199.172615 174.95132 202.371655 175.141209 203.531307 156.36221"></polyline>
                <polyline id="Fill-2653" fill="#B5564B" points="179.968379 63.3666875 181.327971 71.5418984 184.487023 71.0122087 183.127431 62.8469919"></polyline>
                <path d="M49.2576121,218.665712 C49.2576121,218.675706 49.2576121,218.765653 49.2576121,218.925559 C49.2576121,219.934968 49.3075971,223.802702 50.177336,227.990249 C50.617204,230.08902 51.257012,232.267743 52.2467149,234.246584 C53.2264209,236.215431 54.5760158,238.014377 56.4954397,239.163704 L58.1449446,236.425308 C56.9453046,235.705729 55.9256107,234.436473 55.1158538,232.817421 C53.8962198,230.388844 53.1964299,227.230694 52.8465349,224.532275 C52.4866429,221.833856 52.4566519,219.585173 52.4566519,218.925559 L52.4566519,218.725676 L49.2576121,218.665712" id="Fill-2654" fill="#B5564B"></path>
                <path d="M67.762058,234.346526 C67.772055,234.376508 68.5918089,235.985565 69.8514309,237.984394 C71.1310468,239.993218 72.8005457,242.391813 74.7099726,244.070829 L76.8193395,241.66224 C75.3497805,240.392984 73.7402636,238.164289 72.5706147,236.28539 C71.9807917,235.34594 71.4809418,234.486444 71.1410438,233.866807 C70.9710948,233.566982 70.8411338,233.317129 70.7511608,233.147228 L70.6511908,232.957339 L70.6112028,232.88738 L67.762058,234.346526" id="Fill-2655" fill="#B5564B"></path>
                <path d="M67.882022,205.163621 C67.842034,205.223586 67.02228,206.332936 66.1825321,208.111894 C65.3627781,209.880858 64.5030362,212.319429 64.5030362,215.067819 C64.4930392,216.936724 64.9129132,218.955542 66.0325771,220.864424 L68.8017459,219.255366 C68.001986,217.876174 67.702076,216.476994 67.702076,215.067819 C67.702076,213.009025 68.381872,210.97022 69.0916589,209.471098 C69.4415539,208.721537 69.7914489,208.1019 70.0513709,207.682146 C70.1913288,207.472269 70.2912988,207.302368 70.3612778,207.202427 L70.4412538,207.082497 L70.4612478,207.062509 L67.882022,205.163621" id="Fill-2656" fill="#B5564B"></path>
                <path d="M63.4933392,181.407538 C63.4833422,181.427526 61.8638283,184.465746 60.2243204,188.213551 C59.4145635,190.09245 58.5948095,192.14125 57.9649986,194.120091 C57.3351876,196.098931 56.8953196,197.967837 56.8853226,199.646853 C56.8853226,200.366432 56.9652986,201.076016 57.2352176,201.765612 L60.2143234,200.576309 C60.1543414,200.426396 60.0843625,200.106584 60.0843625,199.646853 C60.0843625,198.577479 60.4342574,196.898463 61.0140834,195.089523 C61.8838223,192.361121 63.2134233,189.292918 64.3230902,186.9343 C64.8829222,185.754991 65.3827721,184.745582 65.7426641,184.035998 C65.9226101,183.676209 66.0725651,183.396373 66.1725351,183.206484 C66.2225201,183.116537 66.2625081,183.036584 66.2825021,182.986613 L66.3224901,182.916654 L63.4933392,181.407538" id="Fill-2657" fill="#B5564B"></path>
                <path d="M90.6951746,214.108381 C90.6951746,214.148358 90.9450996,216.506976 91.5749106,219.275354 C91.8848176,220.664541 92.2846975,222.143674 92.8145385,223.512872 C93.3543765,224.892064 93.9941844,226.151326 94.9638934,227.130753 L97.2132182,224.852088 C96.7833473,224.442328 96.2435093,223.512872 95.8036413,222.363545 C95.1338424,220.634558 94.6339924,218.455835 94.3240854,216.736842 C94.1641334,215.867351 94.0541664,215.127784 93.9841874,214.5881 C93.9441994,214.328253 93.9242054,214.118375 93.9042114,213.978457 L93.8842174,213.818551 L93.8742204,213.76858 L90.6951746,214.108381" id="Fill-2658" fill="#B5564B"></path>
                <path d="M79.0686643,227.250682 C79.0786613,227.260677 80.6481902,230.099014 82.5576171,233.157222 C83.5073321,234.676332 84.54702,236.255407 85.5467199,237.584629 C86.0465699,238.244242 86.5264259,238.843891 87.0062818,239.363587 C87.4961348,239.873288 87.9459998,240.303036 88.5258258,240.632843 L90.0953547,237.834482 C90.0153787,237.8045 89.7054717,237.554646 89.3455797,237.174869 C88.7157687,236.495267 87.8860178,235.405905 87.0562668,234.186619 C85.7966449,232.367685 84.497035,230.228938 83.5173291,228.559915 C83.0274761,227.730401 82.6175991,227.010823 82.3276861,226.501122 C82.1877281,226.251268 82.0777611,226.051385 81.9977851,225.911467 C81.9178091,225.771549 81.8778211,225.70159 81.8778211,225.70159 L79.0786613,227.250682" id="Fill-2659" fill="#B5564B"></path>
            </g>
        </g>
        <g id="Thanksgiving/Stickers/Leaf1" transform="translate(106.840194, 123.275178)">
            <path d="M78.7697702,4.485961 C74.0078326,8.41190183 71.3553258,12.7562959 68.7379632,19.4361826 L68.3453631,20.4559214 L67.9517345,21.5121304 L66.7400002,24.885805 L66.2852452,26.1252382 L65.989117,26.9020537 L65.7219497,27.5713583 L65.4751415,28.1542353 L65.3176655,28.505216 L65.1628664,28.8334018 L65.1064575,28.9470608 L63.6497451,27.3488356 L62.110615,25.6744164 L60.0708136,23.4755223 C56.9727807,20.1527036 53.7048353,16.7236369 50.3017608,13.2409949 L48.0134069,10.9118745 C47.2442037,10.1332407 46.4687092,9.3525392 45.6873051,8.57034808 C37.0283743,-0.0973032874 26.1407267,-1.30786365 16.9446013,4.53753096 L16.4529537,4.85727597 C11.5765614,8.10125387 7.89625117,12.7346349 4.83282079,18.1784547 L4.71267023,18.3964306 L4.98304284,17.9642017 C3.89839129,19.642702 2.98360536,21.4911215 2.22126763,23.5052196 C-2.99224279,37.2793267 1.29234628,50.5584338 11.718234,61.3913409 L12.2070853,61.8927588 C18.454076,68.2188414 26.7660146,73.5784029 34.8311481,77.0025944 L35.0569243,77.0959368 L34.8494364,77.9896168 L34.5887509,79.0383897 L33.9543179,81.4653414 L32.8907022,85.4105403 L32.5410308,86.7274949 C32.4847971,86.9420437 32.4295767,87.1542004 32.3753559,87.3640848 L32.0619187,88.5970803 L31.77182,89.7812842 L31.5044055,90.9224412 C31.3762604,91.4832154 31.2563766,92.0300013 31.1443862,92.5660305 L30.9308208,93.6247037 C30.4565501,96.0659437 30.1488378,98.3198395 29.97029,100.714802 C29.6892667,104.484327 29.8313169,108.104728 30.4825506,111.639069 C32.2337729,121.14321 38.7552482,127.419557 47.8293377,128.433839 C52.7886595,128.988181 57.519044,128.086007 63.8634539,125.99206 L65.1120534,125.57197 L66.131946,125.218085 L67.1363559,124.861793 L69.0972462,124.151065 L71.3613219,123.321484 L72.604322,122.870217 L73.8957972,122.411179 L75.068607,122.007094 L75.7898001,121.766751 L76.7884377,121.447582 L77.3059006,121.289577 L77.2600209,122.208299 L77.1464485,124.036208 L76.9855597,126.297644 L76.7532795,129.415137 L76.6389259,131.07354 L76.5436173,132.609316 L76.4906483,133.575117 L76.4461284,134.501528 L76.4100512,135.394597 L76.3824108,136.260367 C76.3785067,136.402723 76.374954,136.544193 76.3717523,136.684904 L76.3567553,137.52106 L76.3501795,138.34503 L76.3520188,139.162859 L76.362267,139.980592 C76.3646755,140.117208 76.367434,140.254073 76.3705426,140.391311 L76.3933927,141.220233 C76.3979007,141.359471 76.4027584,141.499333 76.4079657,141.639948 C76.7757788,151.572091 79.1272799,160.049701 84.5467925,167.380742 C90.727811,175.723314 99.4913302,179.023142 108.742591,176.549922 C113.654057,175.236898 117.667029,172.86553 123.064134,168.639825 L124.031398,167.874701 C124.195158,167.743918 124.360231,167.611491 124.526676,167.477399 L125.542271,166.652704 L126.988294,165.461235 L129.657253,163.249588 L130.430773,162.615621 L131.11771,162.058623 L131.487818,161.761527 C131.757393,161.546061 132.020089,161.338185 132.276249,161.137673 L133.025464,160.558009 C133.14718,160.465006 133.267348,160.373789 133.38601,160.284329 L134.080266,159.768436 L134.740459,159.29338 C134.847767,159.217533 134.953742,159.143331 135.058426,159.070747 L135.671388,158.654433 C136.169857,158.32331 136.638211,158.031233 137.081816,157.774711 L137.602605,157.483728 L137.77162,157.393733 L137.847639,157.944127 L137.927519,158.620251 L138.002342,159.360689 L138.072706,160.171386 L138.117434,160.753819 L138.202454,162.027335 L138.302241,163.841114 L138.416129,166.379405 L138.633529,171.862739 L138.751732,174.39444 L138.855143,176.254997 L138.921519,177.28932 L139.017257,178.599465 L139.095855,179.547064 L139.152074,180.169284 C139.258184,181.305963 139.381542,182.426736 139.53081,183.637479 C141.146953,196.746308 145.081964,207.260697 153.046475,215.759416 C162.06109,225.376751 173.452043,227.564789 182.450453,219.124884 C184.935299,216.794266 186.804189,214.196899 188.570654,210.685098 L188.934837,209.945258 C189.055856,209.694154 189.176557,209.438488 189.297107,209.178048 L189.658476,208.382193 L190.019954,207.556418 C190.080265,207.416225 190.140624,207.274731 190.201049,207.131912 L190.564586,206.258867 L190.930758,205.352716 C190.992063,205.198861 191.053519,205.043573 191.115149,204.886827 L191.48717,203.928626 L192.055196,202.422875 L192.442019,201.371551 L192.83653,200.280746 L195.510551,192.663189 L196.114141,190.981892 L196.498764,189.934169 L196.870534,188.942079 L197.262263,187.921556 L197.427964,189.395781 L197.623753,190.986204 C198.672381,199.233072 200.193163,205.250341 203.311567,210.743351 C207.898431,218.823027 215.390311,223.914423 225.23326,224.889369 C233.781608,225.75022 241.354458,222.534345 246.894284,216.223287 C251.017164,211.526437 253.839495,205.408692 255.797624,198.017061 L256.003475,197.222882 C258.230559,188.43988 259.231016,178.111242 259.352523,166.891133 L259.358437,166.174257 L261.388211,163.517717 L261.582232,163.25692 C262.829962,161.534274 263.575477,159.5948 263.843565,157.617108 L263.891143,157.207722 L263.932814,157.118484 C266.582664,151.208683 269.087377,144.888313 271.116585,138.555164 C274.940903,126.619488 276.525778,116.544031 274.755006,108.103293 C272.495603,97.2034623 263.581707,92.2544107 253.498381,93.8033542 L252.912867,93.899744 L252.220902,94.0242414 L251.77358,94.1109073 L251.118041,94.2482554 L250.688079,94.3457981 L250.048193,94.5029258 L249.621743,94.6159644 L249.19282,94.7364947 L248.539953,94.9329539 L247.869058,95.1504267 L247.172659,95.3914076 L246.443277,95.6583907 L245.935006,95.852057 L245.134034,96.1679203 L244.280139,96.5164376 L243.365842,96.9001031 L242.039895,97.4706434 L239.785934,98.4648629 L235.026875,100.601517 L233.919677,101.089356 L233.504883,101.269308 C233.195203,101.402944 232.893924,101.531314 232.600837,101.654502 L231.745947,102.008602 L230.938969,102.332102 C230.677823,102.434891 230.424456,102.532663 230.178659,102.6255 L229.463771,102.889291 L228.793061,103.12397 C228.576716,103.1974 228.367527,103.26606 228.165285,103.330034 L227.6245,103.493514 L227.595488,103.202739 C227.548279,102.705068 227.512039,102.158779 227.488263,101.565295 L227.466925,100.887989 L227.454841,100.21553 L227.45128,99.5343512 L227.456565,98.8377942 L227.477934,97.8736193 L227.516378,96.8544804 L227.572666,95.7645918 L227.627055,94.8912501 L227.692239,93.9625728 L227.82575,92.2737221 L228.028851,89.976376 L228.376698,86.3663576 L228.841452,81.7055372 L229.043224,79.5827281 L229.21908,77.6243484 L229.334142,76.2529647 L229.434915,74.9568813 L229.547268,73.3331699 L229.615184,72.1841355 L229.652745,71.446757 L229.697604,70.3781986 L229.728794,69.3481023 L229.742055,68.6791009 L229.75074,67.6967354 L229.746085,66.733185 L229.735634,66.0976325 L229.709024,65.1490679 L229.68405,64.516684 L229.635829,63.5626394 L229.616905,63.2420747 C229.017379,53.4286649 226.089095,45.8128204 218.794201,41.0889989 C211.634174,36.4183729 203.628642,37.0661258 196.355037,41.2833448 C192.162216,43.7143319 188.313779,47.1549437 183.72336,52.1241947 L182.746712,53.1917607 L181.770751,54.2775647 L180.170409,56.0920896 L175.29448,61.6982254 L174.909438,62.1360432 L174.929829,59.7652654 L175.001421,53.7281296 L175.007205,52.3559572 L175.00541,51.0191537 C175.004435,50.7993712 175.003116,50.5810815 175.001443,50.3642604 L174.987064,49.0807615 C174.983932,48.8697172 174.980424,48.6600929 174.976532,48.4518642 L174.948479,47.2190447 L174.910702,46.018553 L174.862716,44.8492224 C174.844966,44.4645094 174.825433,44.0847954 174.804037,43.7098861 L174.734179,42.5993773 C174.721577,42.4166299 174.70849,42.2350351 174.694906,42.0545686 L174.60737,40.9851134 C174.076678,34.9993826 172.949108,30.2616801 170.827366,25.8166212 C159.052349,1.281919 130.320947,0.0837712836 117.070668,24.5846324 L116.571601,25.5016006 C116.250707,26.0884594 115.920542,26.6864703 115.592993,27.2737041 L114.678711,28.8967646 L114.539628,29.1390723 L114.420396,28.6978285 C112.241476,20.7287093 109.8507,14.5009436 106.7227,9.77024838 C103.919712,5.53109265 100.471721,2.37180622 95.7978472,0.847745969 C89.7712701,-1.11740479 83.6912873,0.431321825 78.7697702,4.485961 Z" id="Sticker" fill="#FFFFFF" fill-rule="nonzero"></path>
            <g id="Leaf4-Copy" transform="translate(12.530264, 12.512079)">
                <path d="M232.159664,133.586371 C232.159664,133.586371 238.655538,201.551215 212.593781,198.923607 C186.492892,196.335217 203.476079,149.273582 185.201544,153.195385 C166.96614,157.117188 168.257488,214.610818 148.687691,193.707609 C129.121808,172.8044 145.439755,133.586371 128.499613,130.997981 C111.555557,128.370373 94.5723703,164.294088 81.5414918,146.685193 C68.5106132,129.03708 83.494167,100.917753 72.42379,95.7017552 C61.3494998,90.4857573 33.2920226,114.016575 30.0440859,96.3684617 C26.7961492,78.7203487 43.0749644,58.4446278 30.0440859,53.8953365 C17.0132074,49.3068271 -5.800613,34.2863221 1.36050043,15.3440142 C8.52161386,-3.59829372 29.3788459,20.560012 29.3788459,20.560012 L187.158132,103.545361 L232.159664,133.586371" id="Fill-2764" fill="#E47B2C"></path>
                <path d="M24.1743208,4.8728005 C11.1434423,-8.18680308 1.36050043,15.3440142 1.36050043,15.3440142 L234.790604,141.184904 C234.790604,141.184904 251.725548,113.349868 248.43848,97.6626566 C245.190543,81.9754451 215.215609,112.055673 204.767427,100.917753 C194.319245,89.8190509 211.298519,47.3459257 198.232422,38.8748315 C185.201544,30.3645192 166.96614,70.2100365 155.22661,68.9158415 C143.48708,67.6216466 153.270021,33.6196156 146.108908,18.5991106 C138.908663,3.57860555 123.252043,2.2844106 114.799581,17.9324041 C106.311901,33.6196156 95.9028504,49.3068271 93.281022,36.91393 C90.6591936,24.4818149 84.7894285,-7.52009659 73.7112251,1.61770411 C62.6408481,10.7555048 67.84146,34.2863221 46.3620329,28.4036178 C46.3620329,28.4036178 37.2051993,17.9324041 24.1743208,4.8728005 Z" id="Fill-2765" fill="#9E3C2A"></path>
                <path d="M49.4103976,46.2478209 C65.5365989,54.7189151 106.233637,76.0535228 145.561063,97.3881304 C165.244342,108.055434 184.575435,118.68352 200.306406,127.703667 C208.211023,132.21374 215.176477,136.292415 220.850584,139.78282 C223.843202,141.615674 227.100708,143.73059 230.623099,146.127568 C232.170841,147.180806 234.271965,146.840116 235.407601,145.35178 C236.47241,143.956267 236.204322,141.961783 234.80881,140.896974 C234.760308,140.859966 234.71075,140.824361 234.660201,140.790203 C229.967739,137.619693 225.677587,134.852381 221.789746,132.488266 C197.371523,117.742287 153.309153,93.7800718 115.269162,73.4651329 C91.0899114,60.5746823 68.748154,48.7779828 48.2438896,38.0750341 C46.6040222,37.2190785 44.5807478,37.8545326 43.7247663,39.4943865 C43.7233869,39.4970291 43.722011,39.4996736 43.7206386,39.5023199 C42.8659443,41.1504201 43.5075306,43.179348 45.1544032,44.0364054 C46.3944036,44.6817191 47.8130684,45.4188576 49.4103976,46.2478209 Z" id="Fill-2766" fill="#62261D"></path>
                <path d="M58.5477845,73.8118166 L82.1767115,62.7488461 L82.1767115,62.7488461 L77.5891833,58.0132295 L55.8670378,67.7445805 C54.178893,68.5008562 53.4190775,70.4790155 54.1668639,72.1709379 C54.897508,73.8240745 56.829944,74.5719023 58.4830806,73.8412583 C58.5047545,73.8316789 58.5263238,73.8218645 58.5477845,73.8118166 Z" id="Fill-2767" fill="#62261D"></path>
                <path d="M95.6151465,104.936782 L134.838959,91.0348097 L134.838959,91.0348097 L132.569316,84.6814891 L93.3833884,98.6191662 C91.6400295,99.2392452 90.7276732,101.153574 91.3439995,102.898263 C91.9592988,104.640045 93.8700907,105.55324 95.6118725,104.937941 C95.6129641,104.937555 95.6140554,104.937169 95.6151465,104.936782 Z" id="Fill-2768" fill="#62261D"></path>
                <path d="M144.322564,127.554831 L183.919307,117.654086 L183.919307,117.654086 L179.13612,111.388967 L142.62944,121.003898 C140.831442,121.477445 139.754297,123.315122 140.219577,125.115277 C140.685306,126.91717 142.517041,128.006283 144.322564,127.554831 Z" id="Fill-2769" fill="#62261D"></path>
                <path d="M172.529157,148.097484 L215.224721,133.341298 L215.224721,133.341298 L206.919674,129.115516 L170.338137,141.745203 C168.583743,142.350903 167.652304,144.263914 168.257488,146.018486 C168.862245,147.771818 170.773853,148.702921 172.527185,148.098164 C172.527842,148.097938 172.528499,148.097711 172.529157,148.097484 Z" id="Fill-2770" fill="#62261D"></path>
                <path d="M181.685951,78.5358803 L186.58001,115.583822 L186.58001,115.583822 L193.732269,118.761956 L188.299599,77.6730336 C188.058076,75.8463224 186.382994,74.560171 184.555869,74.7985458 C182.732601,75.0364176 181.447383,76.7073021 181.685254,78.5305708 C181.685485,78.5323408 181.685718,78.5341107 181.685951,78.5358803 Z" id="Fill-2771" fill="#62261D"></path>
                <path d="M116.539767,48.6129364 L115.351339,76.6025752 L115.351339,76.6025752 L122.042871,80.7989042 L123.247077,48.8880952 C123.316883,47.0382656 121.877175,45.4805144 120.027585,45.4046333 C118.178995,45.3287932 116.618253,46.7644572 116.539767,48.6129364 Z" id="Fill-2772" fill="#62261D"></path>
                <path d="M77.6704227,31.4556059 L90.1504806,63.5821896 L90.1504806,63.5821896 L97.8294184,66.6706489 L83.8826131,29.0426443 C83.2479032,27.3302184 81.3451736,26.4565571 79.6327478,27.091267 C79.616753,27.0971955 79.6008045,27.1032476 79.5849034,27.1094228 C77.8561198,27.7808032 76.9989251,29.7265205 77.6703055,31.4553041 C77.6703445,31.4554047 77.6703836,31.4555053 77.6704227,31.4556059 Z" id="Fill-2773" fill="#62261D"></path>
            </g>
        </g>
    </g>
</svg>