<?xml version="1.0" encoding="UTF-8"?>
<svg width="578px" height="466px" viewBox="0 0 578 466" version="1.1" xmlns="http://www.w3.org/2000/svg" xmlns:xlink="http://www.w3.org/1999/xlink">
    <title>decoration-10</title>
    <g id="decoration-10" stroke="none" stroke-width="1" fill="none" fill-rule="evenodd">
        <g id="Group" transform="translate(1.493249, 2.499930)">
            <path d="M206.168936,0.123138313 C212.99741,-0.407092084 221.460538,0.803445635 230.6158,3.20676216 L232.106355,3.60685795 C234.101454,4.15402864 236.126528,4.75557632 238.17205,5.40596192 C242.887312,6.90520665 247.408524,8.59094803 250.989181,10.1693658 C252.865358,10.9964183 254.48085,11.791823 255.810389,12.562055 C256.728639,13.0940182 257.55366,13.6351518 258.341946,14.2585219 C260.282498,15.7930938 261.745272,17.4079725 262.797943,20.3040543 C263.489451,22.2065123 263.711167,24.127683 263.548485,25.9761179 L263.507772,26.3710645 L263.458751,26.7370701 L261.590751,65.1960701 L262.109379,65.4552599 C263.965669,66.3892514 265.838364,67.3708353 267.67138,68.3829873 L269.037826,69.1475669 L270.001836,69.6998293 C273.953908,71.9871218 277.167261,74.1501169 279.651627,76.3543979 C281.615266,78.0966577 283.191209,79.8989082 284.381286,82.0946987 C286.690324,86.3550632 287.126826,91.5027925 284.335419,96.2863166 C281.581124,101.013928 277.590841,102.914574 272.566934,103.881386 C269.948698,104.385246 266.925383,104.585131 263.371066,104.565 C261.100404,104.552139 258.57835,104.446768 255.825786,104.255209 L254.993122,104.195162 L254.471751,104.15507 L252.484214,126.747037 L251.915625,133.332012 L250.671631,148.047857 L249.634602,160.92012 L249.381255,164.247608 L249.346283,164.75416 C248.971681,170.802271 250.276765,176.273432 252.956129,181.453461 C254.339776,184.128471 255.815856,186.333249 257.800122,188.785022 L258.233251,189.314445 L258.509751,189.64607 L261.578751,189.59007 L263.253478,189.343486 C276.10534,187.474496 289.388737,186.049619 302.553311,185.306686 L304.875126,185.182708 L305.747751,185.14007 L305.752356,184.611539 C305.766578,183.479389 305.800503,182.358194 305.855917,181.251699 L305.918559,180.150244 L305.995924,179.059422 C306.344607,174.600209 307.065591,170.650445 308.335949,167.16494 C310.286432,161.813363 313.508114,157.514146 318.640602,155.150624 L319.006751,154.98607 L318.806365,153.029382 L318.689089,151.849157 C318.157177,146.428301 317.730785,141.130056 317.44845,136.120193 L317.341633,134.140081 L317.248348,132.220487 L317.16939,130.360297 L317.105556,128.558394 L317.057641,126.813664 L317.026442,125.124991 L317.015321,124.029801 L317.01222,122.958699 C317.012384,122.78217 317.012892,122.606632 317.013749,122.432077 L317.023118,121.396487 L317.041094,120.384158 C317.04482,120.217357 317.048915,120.051511 317.053384,119.886614 L317.084714,118.908558 L317.125243,117.952937 L317.175204,117.019422 L317.234836,116.10768 C317.25635,115.807359 317.279516,115.510611 317.304372,115.217383 L317.384049,114.348198 L317.474103,113.499797 C317.489989,113.36011 317.506318,113.221276 317.523094,113.083286 L317.629155,112.265439 C317.814997,110.919083 318.046532,109.655878 318.328672,108.46894 L318.504068,107.765874 C319.321031,104.642765 320.514074,102.065598 322.179896,99.8988422 C327.225549,93.3420991 334.625813,90.5019353 342.245572,92.4036774 C347.049925,93.6027493 351.029467,96.334244 354.932281,100.282236 L355.335777,100.694975 L355.922354,101.31402 L356.484828,101.927852 L356.871659,102.360649 C358.016331,103.65524 359.122589,105.020205 360.267487,106.522808 C361.541138,108.19285 362.795278,110.539744 364.134905,113.705203 L364.577751,114.77507 L364.765473,113.947403 C366.292846,107.283505 368.00638,101.402179 369.951924,96.4038781 L370.231442,95.6958529 L370.501789,95.0299133 C372.421779,90.36511 374.577804,86.4778612 377.168891,83.3548245 C380.914683,78.8400226 385.627326,75.8492696 391.382596,75.3361735 C400.072849,74.5617567 407.388833,78.5260105 412.423078,85.4534713 C415.819001,90.1264904 418.124216,95.9737352 419.731168,102.849103 C420.401726,105.718098 420.941694,108.808904 421.355649,111.890923 L421.504984,113.045818 L421.557751,113.47707 L421.567858,113.461227 C425.904658,106.861637 430.00803,101.401968 433.926799,97.1914536 L434.378148,96.7111748 L434.827876,96.2420204 C437.666417,93.3107986 440.459983,90.9878878 443.366986,89.3021462 C447.586343,86.8553829 452.096456,85.7007713 456.870314,86.5432168 C468.234873,88.5487272 476.123681,93.8183061 479.538672,103.028433 C481.474835,108.250207 481.707882,113.494399 480.715895,120.516071 L480.557969,121.582873 C480.502304,121.943063 480.443636,122.307916 480.382026,122.677652 L480.188424,123.801727 C480.154706,123.991587 480.120266,124.182723 480.085114,124.375161 L479.865697,125.545646 L479.629519,126.748716 L479.192308,128.873452 L478.207117,133.454958 L476.879773,139.454353 L474.287268,150.945274 L471.587751,162.75807 L471.349813,164.060573 L471.033971,165.709061 L470.704338,167.3617 L470.370751,168.97107 L471.237736,168.298253 L472.529835,167.302997 L473.810328,166.326633 L475.079272,165.369311 C475.289803,165.211352 475.499855,165.054194 475.709429,164.897837 L476.961148,163.969359 C477.168814,163.816227 477.376006,163.663903 477.582723,163.512392 L478.817338,162.613096 C479.022161,162.464846 479.226512,162.317414 479.430392,162.170804 L480.648026,161.301027 C480.850025,161.157716 481.051556,161.015232 481.252619,160.87358 L482.453392,160.03366 L483.642992,159.213833 C483.840331,159.078878 484.037206,158.944766 484.233619,158.811501 L485.406561,158.022094 C485.60113,157.892228 485.795239,157.763215 485.988889,157.635057 L487.145294,156.876408 C487.528933,156.626966 487.910746,156.380972 488.290742,156.138453 L489.425287,155.42134 C489.613472,155.303566 489.801205,155.186668 489.988487,155.070647 L491.106778,154.38508 L492.2143,153.720732 L493.311108,153.077752 C493.856843,152.761629 494.398579,152.453576 494.936348,152.153676 L496.006606,151.564774 L497.066338,150.997766 C504.272001,147.198357 510.744206,144.942943 516.560398,144.447063 L516.984803,144.413922 L517.402091,144.38735 C524.068881,144.013253 529.376878,144.428301 533.837897,145.905765 C539.988522,147.942817 544.595949,152.122691 546.592662,158.114233 C548.109899,162.667009 547.890054,167.246637 546.584698,172.472555 L546.49937,172.809432 L546.321246,173.484466 L546.132205,174.164509 L545.9311,174.853515 L545.716779,175.555441 L545.488095,176.274244 L545.243896,177.01388 L544.983035,177.778305 L544.557986,178.980078 L544.088981,180.259882 L543.749974,181.163029 L543.199087,182.602558 L542.593898,184.155725 C541.4243,187.140862 539.3845,190.664757 536.509286,194.765227 L535.773099,195.802378 C535.270731,196.501849 534.745237,197.217424 534.19678,197.949278 L533.35689,199.059288 L533.067751,199.43607 L533.080976,199.432525 C535.04964,198.782795 536.953176,198.217386 538.790198,197.739831 L539.70316,197.508391 L540.405552,197.338568 C552.149315,194.56066 561.731034,195.230982 568.714587,202.067927 C572.67576,205.945899 574.642173,211.027786 574.622603,216.482475 C574.603345,220.561319 573.51104,224.618994 571.583914,228.801196 C568.734498,234.98493 563.940735,241.65042 557.453008,248.977854 C553.998318,252.879685 550.097677,256.922097 545.828118,261.069361 C540.140215,266.594342 534.079919,272.037867 528.02279,277.183246 L526.769824,278.243273 L525.554821,279.262768 L524.380087,280.240354 L523.247926,281.174654 L521.250188,282.803198 L519.856987,283.918529 C518.3574,285.101004 516.64688,285.89695 514.86214,286.298197 L514.47861,286.378134 L514.177751,286.43107 L512.928134,287.358787 L510.809305,288.915638 L509.769486,289.673441 L508.74453,290.416374 L497.363751,298.73007 L497.124944,298.969541 C493.459237,302.605772 488.928402,306.374529 483.812078,310.204952 L482.768751,310.98007 L482.694032,311.067488 C482.323241,311.493522 481.947141,311.90783 481.565683,312.30971 L480.973751,312.91707 L480.880642,313.57724 C480.768712,314.310501 480.635569,315.045012 480.48096,315.781571 L480.319187,316.518841 L480.117149,317.360266 L479.968361,317.938416 C478.443476,323.719027 475.617838,329.63044 471.30469,336.24108 C466.32096,343.893102 459.121098,351.389396 450.245673,358.795555 C444.616235,363.493078 438.635273,367.881099 432.65769,371.86498 L431.965728,372.324309 L431.022751,372.94307 L431.151279,375.423401 C431.413251,380.396585 430.072288,385.708676 427.595806,391.99973 C426.780572,394.070684 425.849462,396.206572 424.823435,398.390339 C424.291752,399.521957 423.745889,400.642928 423.191877,401.746238 L422.635372,402.8434 L422.356751,403.38207 L422.465383,403.644636 L422.629005,404.054687 L422.787918,404.463522 L423.091192,405.277556 C424.116936,408.115348 424.747943,410.698625 424.818919,413.410686 C424.886057,415.976098 424.449939,418.502671 423.137784,421.017988 C421.228806,424.677377 417.842552,427.292391 413.747863,428.209761 C413.088289,428.356333 412.427127,428.458156 411.766356,428.518372 L411.264751,428.55507 L411.478471,432.104801 L411.509751,432.58807 L413.680006,436.126019 L414.290379,437.143862 C414.679431,437.801434 415.0356,438.422536 415.37596,439.040241 C416.367346,440.839466 417.171085,442.513845 417.807263,444.208586 C418.448425,445.919229 419.005065,447.829652 419.41206,449.761722 L419.577585,450.594702 L419.674875,451.133714 C420.504221,455.948294 420.400787,460.459992 418.613462,464.734389 C415.519381,472.133897 408.20812,475.970677 400.026647,474.709005 C394.476426,473.85916 389.990771,470.727746 387.208846,466.18078 C386.936724,465.736006 386.684312,465.285392 386.450534,464.829044 L386.222928,464.370789 L386.165751,464.24707 L384.759636,464.622231 L383.378663,464.979001 L382.594827,465.176418 C378.585177,466.176117 375.088911,466.895078 372.106952,467.28053 C366.307145,468.025628 360.957116,467.776112 356.474164,466.589305 C354.015664,465.938447 351.772575,464.997512 349.817419,463.702095 C346.515256,461.5142 343.970309,458.426025 343.238462,453.961147 C342.636125,450.376503 343.544841,447.319217 345.174885,444.840069 C345.961526,443.643659 346.807677,442.747413 347.735583,441.959053 C348.650069,441.182095 349.545395,440.597265 350.567899,440.024398 L350.864033,439.861004 L351.235751,439.66207 L351.199935,439.563622 C350.433143,437.40613 350.207342,435.006439 350.778784,432.364844 L350.875674,431.94574 L350.975443,431.561247 C351.906833,428.141061 354.036181,425.527321 356.70855,423.827984 C358.297633,422.817499 359.892474,422.22823 361.550408,421.866892 C362.72689,421.610484 363.898899,421.478673 365.128052,421.436608 L365.65851,421.423973 L365.828751,421.42207 L365.732443,421.23603 C365.043952,419.871687 364.540337,418.384056 364.256928,416.793977 L364.178546,416.313901 L364.157751,416.16807 L363.926104,415.770987 L363.607866,415.252824 L363.249962,414.693845 L362.853995,414.096299 C362.784917,413.993618 362.714321,413.889425 362.642238,413.783765 L362.192179,413.132584 L361.708061,412.448457 L361.191486,411.733632 L360.644055,410.99036 L360.35927,410.608758 L359.927565,410.035795 L359.489929,409.461349 L358.775948,408.53646 C357.970466,407.500841 357.131741,406.447393 356.276151,405.393047 L355.343751,404.25207 L333.537751,405.80907 L329.043751,408.76207 L329.059742,408.827174 C329.515008,410.93018 329.710037,413.014952 329.549268,415.139491 L329.501608,415.671488 L329.438792,416.205344 C328.847341,420.692065 326.625393,424.804558 322.655354,427.584953 C321.678057,428.269285 320.655628,428.824979 319.604122,429.255502 L319.116751,429.44407 L319.224748,431.16775 L319.248751,431.53607 L321.419635,435.075318 C322.066801,436.141727 322.618946,437.086867 323.1348,438.024808 C324.118973,439.81426 324.917881,441.482118 325.547848,443.162892 C327.262041,447.734541 328.259417,453.095715 327.777139,457.918499 C326.772704,467.962844 319.011729,475.39845 307.752419,473.662972 C302.398064,472.837589 298.012789,469.879973 295.210666,465.548548 C294.837381,464.971536 294.498591,464.383477 294.191857,463.784749 L293.967778,463.333709 L293.905751,463.20107 L293.347145,463.352334 L292.33253,463.620065 L291.550721,463.822467 C287.031528,464.981962 283.120895,465.808637 279.85866,466.227797 C274.056049,466.977916 268.703091,466.730974 264.216724,465.543521 C261.755786,464.892159 259.510301,463.949627 257.553203,462.651658 C254.258977,460.466891 251.719184,457.383749 250.97487,452.903165 C250.363522,449.253105 251.311856,446.166814 252.989053,443.674275 C253.784594,442.491995 254.633605,441.609873 255.563735,440.832776 C256.478159,440.068801 257.374943,439.490852 258.402059,438.921807 L258.702428,438.757892 L259.023751,438.58707 L259.005089,438.537052 C258.226189,436.316034 257.989303,433.870567 258.52405,431.318921 L258.620359,430.892684 L258.720005,430.505448 C259.643762,427.118086 261.745906,424.518322 264.388583,422.818115 C265.837868,421.885695 267.294414,421.306426 268.79948,420.932713 L269.237751,420.82907 L269.216798,420.792611 C268.183926,418.942298 267.335189,416.922236 266.605758,414.731774 L266.366944,413.995308 L266.18892,413.420203 C265.951659,412.638098 265.731516,411.844137 265.52497,411.031805 L265.422178,410.620355 L265.323152,410.212065 L265.246751,409.88407 L264.588417,409.522359 C253.563095,403.405174 243.48629,396.052479 234.322802,387.663795 L233.378112,386.792313 L232.546751,386.01307 L232.388373,386.060418 C231.179781,386.410885 229.947954,386.755352 228.689996,387.093003 L227.42322,387.428351 L226.138382,387.758975 C211.890488,391.358644 199.090724,392.98473 188.529741,391.432454 C175.520215,389.513583 161.2704,385.880753 147.913931,380.386499 C129.531899,372.824952 114.419347,362.417812 104.070958,348.569089 L102.983368,347.101339 C102.439933,346.362082 101.897122,345.614924 101.355304,344.860641 L100.273099,343.342805 C99.7327683,342.579366 99.1936759,341.809319 98.6561913,341.03344 L97.5834756,339.474133 L96.5157039,337.900651 L95.4535327,336.314371 L94.3976185,334.716674 L93.3486175,333.108936 L92.3071863,331.492537 C92.1342817,331.222492 91.9617198,330.952144 91.7895144,330.681521 L90.7606684,329.054715 C90.5899434,328.783107 90.4196022,328.511283 90.2496584,328.23927 L89.2348745,326.605159 L88.230286,324.967901 L87.236549,323.328874 L86.2543201,321.689458 C86.0916108,321.416266 85.9294083,321.143115 85.7677263,320.870034 L84.8039902,319.232618 L83.8534031,317.598258 L82.9166214,315.968334 L81.9943015,314.344223 L81.0870999,312.727305 L80.1956728,311.118958 L79.3206766,309.52056 C79.1762497,309.255066 79.0325347,308.990044 78.8895453,308.725523 L78.0404264,307.144634 C77.7603623,306.619827 77.4833102,306.097253 77.2093794,305.577141 L76.3970608,304.024423 L75.6041269,302.487858 L74.8312342,300.968824 C74.7041253,300.71719 74.5778788,300.466343 74.4525084,300.216313 L73.710908,298.726162 L72.9909898,297.256989 L72.2934101,295.810173 L71.6188253,294.387092 C71.5083472,294.151966 71.3988546,293.917887 71.2903611,293.684883 L70.6514994,292.299989 L70.0372735,290.942278 L69.4483399,289.613127 C69.256317,289.174989 69.0686189,288.741842 68.8853549,288.313914 L68.348975,287.046019 C68.261832,286.83739 68.1758247,286.630123 68.0909671,286.424247 L67.5957255,285.205913 C67.5155209,285.005716 67.4364931,284.806967 67.358656,284.609696 L67.051751,283.82407 L65.969254,284.429874 L63.6929959,285.725154 L62.7748939,286.238495 L61.9075055,286.713094 L61.0836094,287.151515 L60.295984,287.556324 L59.537408,287.930089 C57.9200812,288.708132 56.4564591,289.285632 54.8160101,289.780032 C49.2334129,291.46252 43.6044878,291.194237 38.4909494,287.868614 C34.4560636,285.244499 31.8530674,281.418558 30.4598916,276.999138 C29.5174701,274.009597 29.165842,270.897451 29.2162759,267.644367 C29.242683,265.941058 29.3797066,264.265481 29.5995447,262.631458 L29.719751,261.79007 L29.5065471,261.571686 C28.0643137,260.068831 26.7486936,258.257775 25.4065447,256.113896 L25.0703661,255.570978 L24.7960401,255.119587 C22.8575422,251.904673 20.8775426,247.928786 18.8234216,243.275793 C17.3909282,240.03091 16.0123346,236.672146 14.7306391,233.378989 L14.0980653,231.738708 L13.796751,230.94707 L13.5503702,230.889123 L13.0385124,230.760357 L12.5371838,230.62539 C10.4898608,230.055391 8.65757511,229.320084 6.92335281,228.22192 C3.56704572,226.096602 0.971167646,222.890796 0.27144159,218.29428 C-0.193004708,215.21005 -0.107022443,212.226516 0.88684901,209.071187 C2.91856678,202.619558 8.00115907,198.0377 15.4719067,195.036705 C18.4931234,193.819579 22.050202,192.795551 26.2308775,191.934016 L27.0220833,191.774375 L27.342751,191.71207 L27.4911818,191.549621 L27.9221794,191.08445 C30.7308289,188.077598 33.9749731,185.065409 37.6533005,182.198104 C48.2318054,173.952019 60.4210383,168.359395 74.1077536,166.938148 C79.9011679,166.334451 85.9916104,165.998583 92.1461793,165.934569 L93.6860227,165.924231 L94.5137428,165.923449 L95.9867676,165.929677 L97.4502732,165.945194 L98.9038756,165.970035 C99.145296,165.974954 99.3862878,165.980263 99.6268429,165.985962 L101.06487,166.024855 C101.303646,166.03212 101.54197,166.039778 101.779833,166.047828 L103.201419,166.100853 C103.437408,166.110478 103.67292,166.120497 103.907947,166.130912 L105.312228,166.198148 L106.704492,166.274903 C106.935514,166.288491 107.166018,166.302477 107.395998,166.316862 L108.769517,166.407962 L110.130057,166.50867 L111.477235,166.619021 L112.810667,166.739051 L114.129969,166.868796 L115.434755,167.00829 C115.650988,167.032354 115.866601,167.056825 116.081585,167.081705 L117.363878,167.235891 L118.630695,167.399915 L119.881652,167.573814 L121.116365,167.757623 L122.334448,167.951377 C122.536055,167.9845 122.736953,168.018039 122.937135,168.051995 L124.129555,168.260733 C124.326836,168.296358 124.523385,168.332401 124.719193,168.368863 L125.885085,168.592666 L127.032811,168.826557 L128.161986,169.07057 C130.588159,169.610259 132.881002,170.221479 135.022923,170.905859 L136.000721,171.226927 C141.318969,173.021439 145.647275,175.288982 148.697911,178.056157 L149.468167,178.776688 L150.873872,180.117964 L157.435392,186.544749 L159.217471,188.267338 L160.502391,189.487139 L161.393205,190.317563 L162.228145,191.081263 L163.013142,191.783317 L163.511655,192.219613 L164.174751,192.78707 L167.776689,179.254008 L169.461515,173.015924 L169.641765,172.35679 C169.700441,172.14174 169.72947,171.824033 169.729118,171.411773 L169.72335,171.084976 L169.706589,170.723482 L169.678861,170.32805 L169.64019,169.899441 C169.632834,169.825283 169.625023,169.749775 169.616759,169.672932 L169.53012,168.945729 L169.458772,168.422147 L169.331428,167.580502 L169.233021,166.983 L169.123833,166.357259 L169.003892,165.70404 L168.803868,164.674352 L168.579788,163.587113 L168.417077,162.831579 L168.153088,161.654119 L167.963851,160.840814 L167.764046,160.00573 L167.444581,158.71393 L167.218468,157.827722 L166.981876,156.922395 L166.734829,155.998709 L166.477354,155.057422 L166.209473,154.099297 L165.931214,153.125091 L165.494419,151.635295 C165.444595,151.467942 165.394341,151.299998 165.343658,151.131479 C163.409032,144.698953 161.057811,137.870932 158.536521,131.110489 L157.951778,129.551797 L157.492751,128.34207 L156.651294,128.069884 C155.300581,127.633055 153.943004,127.195728 152.591782,126.761941 L149.792751,125.86607 L148.430114,125.712973 L147.202896,125.563164 L146.432849,125.460986 C137.0077,124.145695 132.450653,113.20016 138.157623,105.584786 L138.386248,105.286315 L138.663839,104.936984 L138.991003,104.537884 C139.049694,104.46728 139.110477,104.394648 139.173363,104.320011 L139.368344,104.090106 C140.154198,103.169344 141.088453,102.144873 142.177475,101.028392 C144.974342,98.161003 148.392017,95.0894282 152.467548,91.8962612 L152.812751,91.6270701 L152.893124,90.4795093 C153.053506,88.2175213 153.232015,85.9032062 153.416729,83.6452087 L153.566751,81.8400701 L153.255118,81.7223868 C149.858808,80.4315515 146.836692,79.158337 144.222977,77.9048223 L143.627077,77.6159004 L143.117632,77.3636719 C139.960688,75.7849585 137.366168,74.1981095 135.255512,72.4391864 C131.369332,69.2006246 128.76926,65.3102093 128.76926,59.8189084 C128.76926,54.2297775 131.666238,49.908991 135.833714,47.1251821 C138.132322,45.5897485 140.711512,44.5748566 143.704227,43.8079642 C147.622393,42.8039225 152.41716,42.2107951 158.132303,41.8946616 L158.882979,41.8549867 L159.749133,41.8139312 L161.218118,41.7548794 L162.161914,41.7234951 C163.599498,41.6795098 165.063912,41.6512762 166.548556,41.6374566 L168.0397,41.6283921 L168.384751,41.6280701 L168.689413,41.1324037 C168.798618,40.9542012 168.912254,40.7788007 169.030208,40.6063641 L169.210363,40.3499524 L169.492559,39.9739366 L196.83409,4.93463636 C198.896826,2.29115458 201.931597,0.591250008 205.252545,0.207225646 L205.609424,0.171132394 L206.168936,0.123138313 Z" id="Sticker" fill="#FFFFFF" fill-rule="nonzero"></path>
            <g id="Turkey" transform="translate(12.506751, 12.500070)">
                <g id="Wing" transform="translate(29.204986, 240.524409)">
                    <path d="M0.902281483,7.91676782 C0.902281483,7.91676782 -2.38668911,20.4755913 3.59419325,24.3652972 C9.5750756,28.2550031 19.1449285,18.0858855 26.0228697,17.1888266 C32.9015462,16.2917678 36.1912521,14.4976502 36.1912521,14.4976502 L27.8177227,2.53441488 L7.18242854,1.04176782 L0.902281483,7.91676782" id="Fill-2266" fill="#7A2022"></path>
                    <path d="M7.18242854,1.04176782 C7.18242854,1.04176782 17.0515462,11.8064737 22.7338991,12.7035325 C28.4155168,13.6005913 35.8919874,12.7035325 35.8919874,12.7035325 L27.8177227,2.53441488 L7.18242854,1.04176782" id="Fill-2267" fill="#421717"></path>
                    <path d="M195.887576,118.269709 C195.887576,118.269709 194.71184,118.69618 192.694929,119.343238 C190.101546,120.181474 186.090517,121.416768 181.364781,122.615297 C171.498605,125.107944 158.497134,127.490297 148.641987,126.041768 C130.396399,123.350591 91.818458,114.085885 72.373605,88.0638266 C52.9405168,62.0491208 38.2794874,31.5344149 35.2941932,21.3726502 C32.3088991,11.2035325 26.0272815,2.53441488 26.0272815,2.53441488 C33.7956638,1.04176782 61.6081638,4.62265017 61.6081638,4.62265017 L117.832429,6.71823841 L139.663311,21.0711796 C139.663311,21.0711796 145.195664,29.2917678 151.200811,43.4314737 C153.46037,48.7476502 155.776546,54.8873561 157.908899,61.7476502 C158.162576,62.5564737 158.439046,63.3726502 158.739046,64.2035325 C167.603017,88.8579443 195.887576,118.269709 195.887576,118.269709" id="Fill-2277" fill="#A43131"></path>
                    <path d="M139.365517,19.8800031 C139.365517,19.8800031 127.702281,3.13000311 118.730958,0.740297231 C109.758899,-1.65676159 26.0228697,2.53441488 26.0228697,2.53441488 L30.1603697,9.07117958 C30.1603697,9.07117958 50.8449285,-6.14205571 55.0316932,10.3064737 C59.218458,26.7550031 67.8912521,57.5564737 93.0118403,70.4167678 C118.132429,83.2770619 116.039046,70.7182384 104.375811,62.9461796 C92.7133109,55.1667678 68.7883109,24.3652972 73.573605,15.394709 C78.3581638,6.42412076 90.0213991,6.71823841 98.993458,22.8726502 C107.964781,39.019709 121.123605,47.9902972 122.618458,44.1005913 C124.114046,40.2108855 108.562576,24.6667678 105.572134,18.0858855 C102.581693,11.5050031 106.469929,4.32853252 119.030223,13.2991208 C131.590517,22.269709 137.272134,26.7550031 137.272134,26.7550031 L139.365517,19.8800031" id="Fill-2278" fill="#8D2526"></path>
                    <path d="M125.608899,28.2550031 C125.608899,28.2550031 123.216252,19.5785325 116.936105,15.394709 C110.655958,11.2035325 105.871399,16.5932384 125.608899,28.2550031" id="Fill-2279" fill="#C53F41"></path>
                    <path d="M111.852281,49.4829443 C111.852281,49.4829443 89.1243403,20.7770619 83.7412521,21.0785325 C78.3581638,21.3726502 78.3581638,24.9608855 85.5353697,36.3285325 C92.7133109,47.6888266 110.955223,62.3432384 118.132429,62.0491208 C125.31037,61.7476502 111.852281,49.4829443 111.852281,49.4829443" id="Fill-2280" fill="#C53F41"></path>
                    <path d="M47.255958,22.8726502 C47.255958,22.8726502 39.480958,18.9829443 41.2750756,26.4608855 C43.0691932,33.9314737 68.4890462,76.9976502 76.5640462,78.1961796 C84.6383109,79.394709 74.4699285,67.4314737 69.386105,59.9535325 C64.3022815,52.4755913 47.255958,22.8726502 47.255958,22.8726502" id="Fill-2281" fill="#C53F41"></path>
                    <path d="M89.7221344,74.3064737 C89.7221344,74.3064737 89.7221344,82.9829443 106.768458,86.5711796 C123.814781,90.1594149 126.506693,85.3726502 117.23537,81.7844149 C107.964781,78.1961796 89.7221344,74.3064737 89.7221344,74.3064737" id="Fill-2282" fill="#C53F41"></path>
                    <path d="M102.880958,98.2329443 C102.880958,99.1300031 98.3949285,101.82118 110.955223,107.505003 C123.515517,113.181474 143.552281,121.262356 149.234634,120.063827 C154.916987,118.865297 147.739046,116.777062 134.880223,110.791768 C122.020664,104.813827 102.880958,98.2329443 102.880958,98.2329443" id="Fill-2283" fill="#C53F41"></path>
                </g>
                <g id="Thanksgiving/Stuffs/Tart" transform="translate(0.000000, 165.923258)">
                    <path d="M27.8719068,75.7524648 C34.2977433,78.1315247 145.942244,78.6732183 147.137167,77.0334971 C148.332825,75.3937758 154.727797,46.4204868 154.727797,46.4204868 L141.832851,40.2610131 L29.3954096,37.3329394 L10.2140842,40.469177 C10.2140842,40.469177 21.4453353,73.3660848 27.8719068,75.7524648 Z" id="Fill-2284" fill="#241411"></path>
                    <path d="M163.993965,37.1165326 C163.83229,37.489862 163.659592,37.8705116 163.464113,38.2658016 L163.464113,38.2731218 C161.321187,42.7018332 157.507868,47.5111942 150.100959,46.2740831 C142.025305,44.9418096 136.196931,44.2610324 136.196931,44.2610324 C136.196931,44.2610324 127.004251,51.1859267 117.592576,48.060208 C108.180166,44.9418096 101.672022,43.5948957 101.672022,43.5948957 C101.672022,43.5948957 90.0138026,52.7524461 82.6179176,48.2798135 C75.2227674,43.8145012 74.5540218,43.5948957 74.5540218,43.5948957 C74.5540218,43.5948957 62.8965373,52.5255204 55.9496671,50.3001844 C48.9917737,48.060208 43.1626639,43.8145012 43.1626639,43.8145012 C43.1626639,43.8145012 29.7194083,48.5067393 26.8055883,41.5891652 C26.8055883,41.5891652 0.805348496,42.4749075 0.12557965,38.0095951 C-0.34695156,34.8765563 0.182900698,31.2018238 7.6361068,28.2078685 C10.8159552,26.9268362 15.2627458,25.7775673 21.4254934,24.8332636 L21.4365167,24.8259434 C21.9208061,24.1817672 37.5187453,3.58276884 62.8965373,0.947502531 C88.6777813,-1.73900507 119.827362,1.39403377 127.902281,8.99238496 C133.881307,14.6142864 140.596689,21.8173477 146.230319,26.004493 C148.200546,27.4612097 150.043638,28.5519171 151.667735,29.0789704 C157.945859,31.0920211 166.009755,32.4316148 163.993965,37.1165326" id="Fill-2285" fill="#ED9B2D"></path>
                    <path d="M146.230319,26.004493 C139.59504,22.9885771 129.560917,18.4354226 125.886491,16.8030215 C120.207298,14.2702378 116.624732,8.01148028 110.345873,9.05826662 C104.067748,10.105053 98.8383046,7.71867291 97.4905251,12.330389 C96.1427455,16.9567454 93.6081263,26.480305 88.6777813,23.9402011 C83.7474362,21.4147375 80.9019605,25.1333911 78.5054998,21.8612688 C76.1207972,18.5818263 75.8216989,6.81829026 71.6402019,6.38639939 C67.4469467,5.93986815 62.9656165,20.9682063 58.7841195,16.2100866 C54.6026225,11.4446467 57.1365068,8.91186294 54.3027893,9.50479786 C51.4918532,10.0904126 22.1515601,24.4818947 21.4365167,24.8259434 C21.9208061,24.1817672 37.5187453,3.58276884 62.8965373,0.947502531 C88.6777813,-1.73900507 119.827362,1.39403377 127.902281,8.99238496 C133.881307,14.6142864 140.596689,21.8173477 146.230319,26.004493" id="Fill-2286" fill="#F4B838"></path>
                    <path d="M71.1882474,5.33961305 C71.1882474,5.33961305 57.5142378,12.4841128 61.3246178,17.6155619 C65.1357326,22.7543313 71.8606674,10.9175934 71.1882474,5.33961305" id="Fill-2287" fill="#3B1717"></path>
                    <path d="M86.6553771,6.7524086 C86.6553771,6.7524086 79.0338823,17.9156895 85.3105371,23.50099 C91.5871919,29.0789704 90.9147719,21.9344706 90.9147719,16.5760958 C90.9147719,11.217721 86.6553771,6.7524086 86.6553771,6.7524086" id="Fill-2288" fill="#3B1717"></path>
                    <path d="M99.8818416,8.09200231 C99.8818416,8.09200231 105.934356,20.3752714 110.417156,19.9287402 C114.901426,19.4822089 112.435151,10.0977328 99.8818416,8.09200231" id="Fill-2289" fill="#3B1717"></path>
                    <path d="M40.7132914,26.67795 C37.4121869,28.1127061 34.7056046,23.6400735 37.4151265,21.275654 C41.8163542,17.4325573 49.3327604,11.3494843 51.6109047,12.4841128 C53.8941931,13.6187414 46.8076947,24.0207231 40.7132914,26.67795" id="Fill-2290" fill="#F4B838"></path>
                    <path d="M117.66533,16.6492976 C117.66533,16.6492976 135.150454,25.4335187 131.265116,29.1521722 C127.379043,32.878146 111.089576,19.328485 117.66533,16.6492976" id="Fill-2291" fill="#F4B838"></path>
                    <path d="M163.463861,38.2731218 C161.320935,42.7018332 157.507616,47.5111942 150.100707,46.2740831 C142.025788,44.9418096 136.196679,44.2610324 136.196679,44.2610324 C136.196679,44.2610324 127.003999,51.1859267 117.592324,48.060208 C108.180649,44.9418096 101.67177,43.5948957 101.67177,43.5948957 C101.67177,43.5948957 90.0142856,52.7524461 82.6184005,48.2798135 C75.2225155,43.8145012 74.5545048,43.5948957 74.5545048,43.5948957 C74.5545048,43.5948957 62.8962854,52.5255204 55.9501501,50.3001844 C48.9922566,48.060208 43.1631469,43.8145012 43.1631469,43.8145012 C43.1631469,43.8145012 29.7191563,48.5067393 26.8053364,41.5891652 C26.8053364,41.5891652 0.805096584,42.4749075 0.125327737,38.0095951 C-0.346468587,34.8765563 0.182648786,31.2018238 7.63658977,28.2078685 C7.27943555,29.0496897 4.80287229,35.3450481 8.41924255,36.5967996 C12.3016413,37.9437135 30.0880687,34.3568232 30.0880687,34.3568232 C30.0880687,34.3568232 23.8099441,39.7225182 33.5324758,41.2085156 C43.2439843,42.7018332 52.2059098,37.1970547 52.2059098,37.1970547 C52.2059098,37.1970547 47.7253145,43.1483644 56.1000667,44.1951508 C64.4630607,45.2272967 73.2758045,36.5967996 72.9759713,36.1502683 C72.6886312,35.7037371 80.751792,42.4017056 88.8274459,42.5554295 C96.8913417,42.7018332 102.869633,34.0640158 102.869633,34.0640158 C102.869633,34.0640158 110.645454,42.1088983 119.009183,42.8555571 C127.383935,43.5948957 137.993473,36.296672 137.993473,36.296672 C137.993473,36.296672 158.913451,41.0621119 163.244865,38.3902447 C163.325702,38.3390034 163.394781,38.2950823 163.463861,38.2731218" id="Fill-2295" fill="#E8802C"></path>
                </g>
                <g id="Thanksgiving/Stuffs/Turkey" transform="translate(125.283979, 0.000000)">
                    <g id="Group-3" transform="translate(26.833516, 60.088235)">
                        <path d="M132.173016,364.5 C132.173016,364.5 107.051692,357.919118 106.155369,361.205882 C105.25831,364.5 123.200957,371.375 123.200957,371.375 L132.173016,364.5" id="Fill-2268" fill="#E8802C"></path>
                        <path d="M127.59581,337.029412 C127.59581,337.029412 133.967869,359.117647 131.275957,363 C128.584781,366.889706 98.3796334,376.463235 98.6788982,378.25 C98.9781629,380.051471 104.360516,382.441176 113.631839,381.242647 C122.902428,380.051471 139.948751,374.367647 139.948751,374.367647 C139.948751,374.367647 137.257575,387.522059 145.032575,388.720588 C152.80831,389.919118 151.014192,379.75 149.219339,374.963235 C147.425222,370.176471 142.639928,364.198529 142.341398,362.102941 C142.041398,360.014706 140.84581,335.191176 140.84581,335.191176 L127.59581,337.029412" id="Fill-2269" fill="#EA9D2E"></path>
                        <path d="M224.434045,365.544118 C224.434045,365.544118 199.309045,358.963235 198.411986,362.257353 C197.514928,365.544118 215.463457,372.419118 215.463457,372.419118 L224.434045,365.544118" id="Fill-2270" fill="#E8802C"></path>
                        <path d="M219.59581,339.463235 C219.59581,339.463235 226.228163,360.161765 223.536986,364.051471 C220.84581,367.933824 190.639928,377.507353 190.941398,379.301471 C191.235516,381.095588 196.617869,383.485294 205.889928,382.294118 C215.161986,381.095588 232.206104,375.411765 232.206104,375.411765 C232.206104,375.411765 229.514928,388.573529 237.294339,389.764706 C245.066398,390.963235 243.272281,380.794118 241.478163,376.007353 C239.684045,371.227941 234.897281,365.242647 234.603163,363.154412 C234.301692,361.058824 233.103163,336.235294 233.103163,336.235294 L219.59581,339.463235" id="Fill-2271" fill="#EA9D2E"></path>
                        <path d="M168.059781,91.7573529 C168.059781,91.7573529 161.481104,42.7132353 167.461986,34.9338235 C173.442869,27.1617647 180.919339,35.2352941 185.703898,41.5147059 C190.492869,47.7941176 203.051692,94.75 203.051692,94.75 L205.742869,89.3676471 C205.742869,89.3676471 211.125222,16.6911765 227.867869,15.1985294 C244.617869,13.7058824 245.514928,50.7867647 245.213457,56.1691176 C244.919339,61.5514706 241.625222,94.75 241.625222,94.75 C241.625222,94.75 274.823751,23.5735294 290.073751,26.2647059 C305.323751,28.9558824 305.625222,37.625 302.632575,52.2794118 C299.647281,66.9338235 284.691398,130.933824 284.691398,130.933824 C284.691398,130.933824 332.242869,85.4779412 353.478163,84.2794118 C374.706104,83.0882353 372.316398,91.7573529 366.331104,107.007353 C360.353163,122.264706 311.007575,171.007353 311.007575,171.007353 C311.007575,171.007353 380.985516,124.352941 395.34581,138.411765 C409.698751,152.463235 347.492869,201.514706 347.492869,201.514706 L168.059781,91.7573529" id="Fill-2272" fill="#F1AD73"></path>
                        <path d="M168.359045,88.7647059 C168.359045,88.7647059 163.274486,55.8676471 171.947281,48.6911765 C180.620075,41.5147059 193.478163,67.8308824 196.169339,75.3088235 C198.860516,82.7867647 204.84581,94.75 204.84581,94.75 C204.84581,94.75 214.117869,41.5147059 219.794339,32.2426471 C225.478163,22.9779412 235.34581,23.5735294 238.934045,34.6397059 C242.522281,45.7058824 243.419339,90.2647059 243.419339,90.2647059 C243.419339,90.2647059 276.617869,34.9338235 289.478163,38.8235294 C302.338457,42.7132353 298.147281,86.0735294 286.184045,120.169118 C274.228163,154.257353 297.250222,124.955882 297.250222,124.955882 C297.250222,124.955882 335.529633,86.9705882 351.382575,91.7573529 C367.235516,96.5441176 360.353163,107.007353 353.478163,118.073529 C346.59581,129.139706 319.978163,159.345588 319.978163,159.345588 L300.838457,176.389706 C300.838457,176.389706 377.397281,136.014706 383.382575,144.389706 C389.360516,152.764706 384.875222,160.242647 376.500222,173.102941 C368.125222,185.963235 332.206104,210.970588 332.206104,210.970588 L168.359045,88.7647059" id="Fill-2273" fill="#4E1719"></path>
                        <path d="M168.059781,98.0367647 L168.359045,88.7647059 C168.359045,88.7647059 182.115663,97.1397059 186.003163,93.8529412 C189.889928,90.5588235 197.066398,81.5882353 197.066398,81.5882353 L203.051692,94.75 L205.360516,91.7794118 L207.007575,83.2647059 C207.007575,83.2647059 212.617869,95.0441176 223.684045,96.5441176 C234.750222,98.0367647 243.206104,80.3308824 243.206104,80.3308824 L243.492869,90.2058824 L249.860516,80.2647059 C249.860516,80.2647059 260.169339,100.132353 259.867869,108.801471 C259.573751,117.477941 259.573751,130.933824 259.573751,130.933824 C259.573751,130.933824 286.169339,116.852941 287.066398,117.75 C287.963457,118.647059 284.691398,130.933824 284.691398,130.933824 L298.507575,123.617647 C298.507575,123.617647 297.551692,142.595588 296.654633,150.073529 C295.757575,157.551471 290.97081,162.933824 290.97081,162.933824 C290.97081,162.933824 306.823751,155.757353 314.301692,154.860294 C321.772281,153.963235 323.566398,154.558824 323.566398,154.558824 L311.007575,171.007353 L337.323751,159.647059 C337.323751,159.647059 327.154633,187.455882 322.073751,191.345588 C316.992869,195.227941 316.992869,195.227941 316.992869,195.227941 C316.992869,195.227941 336.250222,198.139706 339.242869,205.911765 L317.036986,222.132353 L165.069339,118.669118 L168.059781,98.0367647" id="Fill-2274" fill="#3C1819"></path>
                        <path d="M154.602428,127.941176 C154.602428,127.941176 150.415663,97.7352941 159.386986,93.8529412 C168.359045,89.9632353 186.003163,125.551471 186.003163,125.551471 C186.003163,125.551471 190.191398,84.8823529 202.154633,89.0661765 C214.117869,93.25 217.103163,129.735294 215.309045,135.117647 C215.309045,135.117647 230.264928,98.6323529 241.331104,100.132353 C252.397281,101.625 255.088457,116.279412 251.794339,130.338235 C248.507575,144.389706 244.316398,154.860294 244.316398,154.860294 C244.316398,154.860294 275.419339,121.963235 284.691398,130.933824 C293.963457,139.904412 269.742869,178.779412 269.742869,178.779412 C269.742869,178.779412 299.647281,158.448529 311.904633,168.617647 C324.169339,178.779412 301.735516,206 301.735516,206 C301.735516,206 325.066398,197.323529 329.853163,205.397059 C334.632575,213.470588 301.139928,235.007353 301.139928,235.007353 L154.602428,127.941176" id="Fill-2275" fill="#A72F31"></path>
                        <path d="M154.602428,124.352941 C154.602428,124.352941 162.078163,105.514706 173.143604,110.897059 C184.209045,116.279412 186.601692,129.441176 186.601692,129.441176 C186.601692,129.441176 190.191398,108.801471 200.059045,112.992647 C209.926692,117.176471 213.514928,137.808824 213.514928,137.808824 C213.514928,137.808824 231.456104,116.279412 240.132575,122.860294 C248.801692,129.441176 242.522281,157.551471 242.522281,157.551471 C242.522281,157.551471 263.456104,142.595588 270.639928,144.691176 C277.816398,146.786765 274.522281,174.294118 269.742869,178.779412 C269.742869,178.779412 290.375222,167.419118 300.544339,177.882353 C310.713457,188.352941 289.478163,213.176471 289.478163,213.176471 C289.478163,213.176471 304.132575,206.897059 313.103163,209.286765 C322.073751,211.676471 308.911986,235.301471 301.139928,235.007353 C293.367869,234.705882 154.602428,124.352941 154.602428,124.352941" id="Fill-2276" fill="#7B2022"></path>
                        <path d="M303.257575,242.161765 C302.132575,246.426471 299.919339,251.139706 296.206104,256.830882 C283.639928,276.125 253.59581,293.625 253.59581,293.625 C253.59581,293.625 253.59581,294.963235 254.044339,303.492647 C254.492869,312.007353 243.713457,330.404412 243.713457,330.404412 C243.713457,330.404412 250.448751,342.514706 246.411986,343.419118 C242.375222,344.316176 235.198751,337.132353 235.198751,337.132353 C235.198751,337.132353 235.154633,337.661765 235.044339,338.492647 C234.669339,341.419118 233.500222,348.095588 230.713457,348.801471 C227.117869,349.698529 222.632575,340.272059 222.632575,340.272059 C222.632575,340.272059 222.632575,340.272059 220.397281,343.419118 C218.154633,346.551471 211.867869,345.654412 211.867869,341.169118 C211.867869,336.683824 196.169339,318.742647 196.169339,318.742647 L164.773016,320.985294 L149.074486,331.301471 C149.074486,331.301471 155.344339,341.617647 150.861251,344.757353 C146.377428,347.897059 140.545075,336.235294 140.545075,336.235294 C140.545075,336.235294 141.444339,346.102941 135.162722,347 C130.863457,347.610294 130.563457,341.308824 130.793604,337.25 C130.114192,339.808824 128.223751,343.316176 123.072281,345.639706 L123.048016,345.654412 C114.081104,349.698529 111.83331,329.051471 111.83331,329.051471 C95.5237511,320.963235 82.3266923,310.485294 71.8612511,299.779412 C47.4833099,274.882353 37.8244864,248.764706 37.8244864,248.764706 C37.800957,248.544118 37.7899276,248.323529 37.7781629,248.095588 C37.7200746,247.080882 37.7663982,245.919118 37.9046334,244.639706 C40.2450746,221.470588 71.4230158,158.308824 81.681104,138.029412 C83.7097805,134.007353 84.9200746,131.683824 84.9200746,131.683824 C84.9200746,131.683824 89.8531629,130.713235 97.9450746,129.492647 C119.994339,126.169118 165.464928,120.985294 197.97081,128.544118 C242.375222,138.860294 291.72081,194.485294 298.000222,211.970588 C302.426692,224.308824 305.97081,231.955882 303.257575,242.161765" id="Fill-2292" fill="#4D1619"></path>
                        <path d="M120.212722,338.176471 C121.964192,341.808824 122.748016,344.125 123.07081,345.639706 L123.047281,345.647059 C114.080369,349.691176 111.832575,329.051471 111.832575,329.051471 C95.5237511,320.955882 82.325957,310.477941 71.8605158,299.772059 C71.7105158,299.625 71.5722805,299.470588 71.4340452,299.323529 C51.1480158,278.463235 41.1774276,256.852941 38.5494864,250.566176 C38.5038982,250.455882 38.4575746,250.338235 38.4112511,250.235294 C38.0193393,249.279412 37.8237511,248.757353 37.8237511,248.757353 C37.8002217,248.536765 37.7891923,248.323529 37.7774276,248.088235 C37.6163982,247.963235 37.4546334,247.823529 37.293604,247.683824 C32.2333099,243.558824 27.8877217,239.132353 24.1649276,234.558824 L29.3288982,225.661765 L30.3656629,223.860294 L66.0053687,162.367647 L66.4428687,161.617647 L75.9178687,145.264706 L79.6862511,138.75 L80.0208099,138.191176 L84.9193393,129.727941 L85.7722805,129.720588 L85.7950746,129.720588 L86.4869864,129.691176 L89.2068393,129.647059 L97.9443393,129.485294 L117.515663,129.132353 L114.529633,149.772059 C114.529633,149.772059 111.740663,157.198529 109.642869,164.308824 C108.374486,168.617647 107.349486,172.816176 107.349486,175.183824 C107.349486,177.794118 108.225222,182.970588 109.250957,188.132353 C110.149486,192.698529 111.164192,197.235294 111.809781,200.014706 L111.809781,200.036765 C112.190663,201.683824 112.432575,202.698529 112.432575,202.698529 L112.27081,202.669118 L107.267869,201.441176 L103.867869,200.610294 L91.500957,197.617647 C91.500957,197.617647 92.3075746,199.955882 93.2524276,203.492647 C95.5693393,212.139706 98.7274276,227.941176 92.9994864,234.095588 C84.9193393,242.779412 58.6053687,231.713235 58.6053687,231.713235 L47.8399276,255.941176 C47.8399276,255.941176 78.0377217,297.801471 93.5987511,305.580882 C109.147281,313.352941 123.197281,324.117647 123.197281,324.117647 C123.197281,324.117647 116.328163,330.095588 120.212722,338.176471" id="Fill-2293" fill="#2F1514"></path>
                        <path d="M303.257575,242.161765 C302.132575,246.426471 299.919339,251.139706 296.206104,256.830882 C283.639928,276.125 253.59581,293.625 253.59581,293.625 C253.59581,293.625 253.59581,294.963235 254.044339,303.492647 C254.492869,312.007353 243.713457,330.404412 243.713457,330.404412 C243.713457,330.404412 250.448751,342.514706 246.411986,343.419118 C242.375222,344.316176 235.198751,337.132353 235.198751,337.132353 C235.198751,337.132353 235.154633,337.661765 235.044339,338.492647 C231.397281,329.720588 237.919339,318.367647 239.529633,314.852941 C241.331104,310.970588 240.132575,303.786765 237.448751,299.007353 C234.750222,294.220588 220.397281,292.125 216.206104,295.110294 C212.022281,298.110294 197.367869,302.889706 182.120075,300.794118 C166.859045,298.705882 153.40831,286.441176 153.40831,286.441176 L153.500222,286.352941 L166.651692,273.639706 L177.981839,262.676471 L189.669339,251.382353 L243.713457,199.117647 C243.713457,199.117647 257.514928,208.051471 269.669339,217.860294 C274.309045,221.610294 278.706104,225.485294 282.007575,229.022059 C282.463457,229.514706 282.904633,230.014706 283.309045,230.492647 C293.338457,242.389706 285.647281,248.463235 279.610516,248.463235 C273.323751,248.463235 278.411986,252.345588 276.911986,264.610294 C275.426692,276.875 257.478163,270.595588 257.478163,270.595588 C257.478163,270.595588 252.691398,278.360294 261.059045,281.360294 C268.073751,283.852941 294.706104,252.507353 303.257575,242.161765" id="Fill-2294" fill="#2F1514"></path>
                        <path d="M283.639928,240.683824 C283.191398,247.867647 270.639928,240.683824 270.639928,240.683824 C270.639928,240.683824 271.978163,265.808824 269.294339,269.845588 C266.59581,273.882353 250.000222,259.529412 250.000222,259.529412 C250.000222,259.529412 255.382575,282.411765 243.713457,286.889706 C232.066398,291.375 213.669339,277.029412 213.669339,277.029412 C213.669339,277.029412 219.500222,293.625 206.934045,294.522059 C196.654633,295.25 164.427428,293.580882 143.967869,281.882353 C139.438457,279.286765 135.484781,276.205882 132.477428,272.544118 C132.338457,272.367647 132.188457,272.183824 132.061986,272.014706 L132.039192,272 C115.659781,251.544118 103.765663,206.588235 103.765663,206.588235 C103.246545,204.919118 103.361986,201.485294 104.745075,197.205882 C108.225957,186.580882 119.636986,170.823529 149.074486,164.426471 C190.338457,155.463235 215.014928,158.595588 250.000222,182.823529 C268.742869,195.786765 277.191398,209.411765 280.911986,220.367647 C284.161986,229.860294 283.853163,237.352941 283.639928,240.683824" id="Fill-2296" fill="#A62E30"></path>
                        <path d="M237.889928,200.911765 C237.889928,200.911765 246.500222,196.176471 246.500222,194.088235 C246.500222,191.992647 246.110516,200.316176 246.110516,200.316176 L242.823751,202.705882 L237.889928,200.911765" id="Fill-2297" fill="#C14A4B"></path>
                        <path d="M136.659045,235.154412 C136.659045,235.154412 151.014192,235.602941 155.648751,230.816176 L150.564928,240.985294 L143.387722,241.286765 L136.659045,235.154412" id="Fill-2298" fill="#C14A4B"></path>
                        <path d="M181.667133,186.860294 C181.667133,186.860294 189.588457,182.970588 194.081104,178.485294 C198.566398,174 199.757575,172.5 199.757575,172.5 L199.014928,184.316176 L190.941398,188.352941 L181.667133,186.860294" id="Fill-2299" fill="#C14A4B"></path>
                        <path d="M170.303163,256.235294 C170.303163,256.235294 184.850222,250.147059 187.690663,244.169118 L184.807575,254.294118 L178.676692,257.735294 L170.303163,256.235294" id="Fill-2300" fill="#C14A4B"></path>
                        <path d="M177.031104,217.411765 C177.031104,217.411765 184.507575,212.875 185.554633,209.139706 C186.601692,205.397059 190.338457,206.147059 194.823751,204.801471 C199.309045,203.455882 203.000222,198.522059 203.000222,198.522059 C203.000222,198.522059 206.191398,206.294118 200.809045,209.433824 C195.426692,212.573529 187.648016,213.625 187.648016,213.625 L178.975222,218.110294 L177.031104,217.411765" id="Fill-2301" fill="#C14A4B"></path>
                        <path d="M124.546545,196.573529 C124.546545,196.573529 136.359781,196.426471 138.453163,191.639706 C140.546545,186.860294 145.630369,191.191176 150.116398,188.801471 C154.602428,186.411765 157.500222,182.713235 157.500222,182.713235 L153.854633,195.382353 L140.84581,198.669118 L134.117133,202.110294 C134.117133,202.110294 127.089192,201.066176 124.546545,196.573529" id="Fill-2302" fill="#C14A4B"></path>
                        <path d="M283.639928,240.683824 C283.191398,247.867647 270.639928,240.683824 270.639928,240.683824 C270.639928,240.683824 271.978163,265.808824 269.294339,269.845588 C266.59581,273.882353 250.000222,259.529412 250.000222,259.529412 C250.000222,259.529412 255.382575,282.411765 243.713457,286.889706 C232.066398,291.375 213.669339,277.029412 213.669339,277.029412 C213.669339,277.029412 219.500222,293.625 206.934045,294.522059 C196.654633,295.25 164.366398,294.639706 143.906839,282.941176 C143.85831,282.904412 123.665663,269.257353 118.009045,256.897059 C108.611986,236.375 103.765663,206.588235 103.765663,206.588235 C103.246545,204.919118 103.361986,201.485294 104.745075,197.205882 C113.839192,212.720588 147.460516,267.735294 172.841398,276.573529 C202.448751,286.889706 202.904633,275.227941 202.904633,265.360294 C202.904633,255.492647 204.250222,261.764706 220.397281,268.948529 C236.544339,276.125 247.757575,281.955882 237.448751,255.941176 C227.117869,229.919118 221.294339,231.264706 240.132575,238.448529 C258.978163,245.617647 265.706104,244.727941 258.081104,229.470588 C250.448751,214.220588 244.161986,205.25 250.000222,210.632353 C254.286986,214.588235 271.875222,218.544118 280.911986,220.367647 C284.161986,229.860294 283.853163,237.352941 283.639928,240.683824" id="Fill-2303" fill="#842124"></path>
                        <path d="M136.659045,235.154412 C136.659045,235.154412 147.873751,243.676471 155.648751,230.816176 C155.648751,230.816176 157.294339,248.610294 147.574486,247.264706 C137.855369,245.919118 136.509781,235.904412 136.509781,235.904412 L136.659045,235.154412" id="Fill-2304" fill="#842124"></path>
                        <path d="M170.303163,256.235294 C170.303163,256.235294 181.069339,256.088235 184.35831,250.558824 C187.648016,245.022059 187.498751,243.830882 187.498751,243.830882 C187.498751,243.830882 194.375222,261.022059 186.003163,263.566176 C177.629633,266.110294 170.303163,256.235294 170.303163,256.235294" id="Fill-2305" fill="#842124"></path>
                        <path d="M176.732575,217.213235 C176.732575,217.213235 188.397281,214.970588 190.786986,208.691176 C190.786986,208.691176 203.500222,208.088235 203.051692,198.220588 C203.051692,198.220588 206.639928,211.529412 199.309045,213.919118 C191.985516,216.316176 192.286986,214.367647 192.286986,214.367647 C192.286986,214.367647 183.012722,226.632353 176.732575,217.213235" id="Fill-2306" fill="#842124"></path>
                        <path d="M124.546545,196.573529 C124.546545,196.573529 132.92081,204.051471 139.051692,199.566176 C145.181839,195.080882 144.88331,193.433824 144.88331,193.433824 C144.88331,193.433824 151.014192,193.735294 153.106839,192.088235 C155.200222,190.448529 157.592869,182.522059 157.592869,182.522059 C157.592869,182.522059 162.228163,194.036765 154.303163,197.029412 C146.378163,200.014706 146.228898,198.522059 146.228898,198.522059 C146.228898,198.522059 131.425222,216.911765 124.546545,196.573529" id="Fill-2307" fill="#842124"></path>
                        <path d="M181.667133,186.860294 C181.667133,186.860294 197.22081,189.698529 199.757575,172.5 C199.757575,172.5 207.536986,200.911765 181.667133,186.860294" id="Fill-2308" fill="#842124"></path>
                        <path d="M236.84581,200.610294 C236.84581,200.610294 244.169339,203.007353 246.559045,193.588235 C246.559045,193.588235 251.34581,209.735294 236.84581,200.610294" id="Fill-2309" fill="#842124"></path>
                        <path d="M64.9678687,253.205882 C64.9818393,253.235294 65.706104,254.683824 66.9913982,256.161765 C67.6355158,256.904412 68.4208099,257.647059 69.3443393,258.220588 C70.2656629,258.794118 71.3369864,259.198529 72.5193393,259.198529 C73.1097805,259.198529 73.7237511,259.095588 74.3472805,258.875 C77.025957,257.933824 78.4333099,256.308824 79.1200746,254.926471 C79.8112511,253.536765 79.8156629,252.404412 79.8163982,252.352941 L79.2399276,252.352941 L78.7663982,252.676471 C78.781104,252.698529 79.6869864,254.007353 81.1112511,255.338235 C81.8244864,256 82.6671334,256.676471 83.6068393,257.191176 C84.5465452,257.698529 85.5891923,258.058824 86.6928687,258.058824 C87.7097805,258.066176 88.7671334,257.742647 89.7531629,257 C91.3333099,255.816176 92.2752217,254.257353 92.8119864,252.705882 C93.3502217,251.154412 93.4943393,249.595588 93.4950746,248.345588 C93.4950746,246.779412 93.2671334,245.683824 93.2619864,245.654412 L92.1333099,245.889706 L92.1406629,245.926471 C92.1781629,246.125 92.3428687,247.073529 92.3421334,248.345588 C92.3428687,249.507353 92.2046334,250.941176 91.7230158,252.330882 C91.2406629,253.720588 90.4266923,255.051471 89.0619864,256.073529 C88.2546334,256.676471 87.4752217,256.904412 86.6928687,256.904412 C85.8465452,256.911765 84.9833099,256.625 84.1597805,256.176471 C82.9244864,255.5 81.7972805,254.463235 80.9943393,253.588235 C80.5921334,253.147059 80.268604,252.75 80.0480158,252.470588 C79.9377217,252.330882 79.8531629,252.213235 79.7965452,252.139706 L79.7325746,252.051471 L79.7141923,252.022059 L78.663457,250.507353 L78.663457,252.352941 C78.663457,252.419118 78.6303687,253.389706 78.0333099,254.522059 C77.4318393,255.654412 76.2958099,256.963235 73.9641923,257.786765 C73.4590452,257.963235 72.9796334,258.044118 72.5193393,258.044118 C71.6016923,258.044118 70.7428687,257.735294 69.9516923,257.242647 C68.7663982,256.514706 67.7619864,255.367647 67.0693393,254.404412 C66.7222805,253.926471 66.4524276,253.492647 66.2700746,253.183824 C66.1788982,253.022059 66.1097805,252.904412 66.0641923,252.816176 L66.013457,252.720588 L65.9987511,252.691176 L64.9678687,253.205882" id="Fill-2310" fill="#211311"></path>
                        <path d="M79.2627217,272.419118 C79.2678687,272.463235 79.3318393,273.727941 79.9649276,275.051471 C80.2825746,275.713235 80.7494864,276.397059 81.4458099,276.926471 C82.1406629,277.448529 83.0656629,277.801471 84.2031629,277.79423 C84.4568393,277.79423 84.7193393,277.779412 84.9928687,277.742647 C86.2818393,277.580882 87.3318393,277.132353 88.1605158,276.551471 C89.4046334,275.676471 90.150957,274.514706 90.5891923,273.580882 C91.0281629,272.647059 91.1641923,271.926471 91.1708099,271.897059 L90.6038982,271.786765 L90.1377217,272.125 C90.1524276,272.147059 90.881104,273.154412 91.9913982,274.176471 C92.5465452,274.683824 93.1980158,275.198529 93.9171334,275.602941 C94.6362511,276 95.4296334,276.286765 96.268604,276.286765 C97.2627217,276.294118 98.288457,275.845588 99.118604,274.852941 C101.647281,271.860294 101.989192,268.698529 101.988458,267.213235 C101.988458,266.669118 101.943604,266.345588 101.940663,266.323529 L100.799486,266.485294 L100.800222,266.492647 C100.805369,266.536765 100.836251,266.794118 100.836251,267.213235 C100.835516,268.536765 100.534045,271.397059 98.238457,274.110294 C97.568604,274.889706 96.9377217,275.125 96.268604,275.132353 C95.7016923,275.132353 95.0833099,274.933824 94.475957,274.595588 C93.5649276,274.088235 92.6980158,273.301471 92.0737511,272.632353 C91.7612511,272.301471 91.5075746,272 91.3333099,271.786765 C91.2465452,271.683824 91.1796334,271.595588 91.1347805,271.536765 L91.0847805,271.470588 L91.0700746,271.448529 L90.2840452,270.367647 L90.0377217,271.683824 L90.0369864,271.691176 C90.018604,271.786765 89.7700746,272.919118 89.000957,274.051471 C88.2237511,275.191176 86.981104,276.330882 84.850957,276.602941 C84.6208099,276.632353 84.4046334,276.639706 84.2031629,276.639706 C83.2921334,276.639706 82.6480158,276.382353 82.1399276,276.007353 C81.381104,275.433824 80.931104,274.529412 80.6899276,273.742647 C80.568604,273.352941 80.4987511,273 80.4597805,272.742647 C80.4399276,272.617647 80.4281629,272.514706 80.4215452,272.448529 L80.4149276,272.375 L80.413457,272.352941 L79.2627217,272.419118" id="Fill-2311" fill="#211311"></path>
                        <path d="M116.091398,286.522059 C116.079633,286.558824 115.414192,288.102941 115.40831,289.845588 C115.409045,290.654412 115.55831,291.529412 116.053898,292.294118 C116.546545,293.058824 117.398016,293.654412 118.602428,293.889706 C119.278163,294.022059 119.902428,294.080882 120.475222,294.080882 C122.196545,294.080882 123.450222,293.544118 124.259045,292.992647 C125.070075,292.441176 125.445075,291.889706 125.475222,291.845588 L124.99581,291.529412 L124.572281,291.919118 C124.591398,291.941176 125.247281,292.647059 126.298751,293.367647 C127.349486,294.088235 128.803163,294.830882 130.451692,294.838235 C131.084781,294.838235 131.742869,294.720588 132.394339,294.455882 C133.468604,294.007353 134.137722,293.117647 134.506104,292.139706 C134.878898,291.154412 134.991398,290.058824 134.992133,289.022059 C134.990663,286.955882 134.531839,285.132353 134.526692,285.110294 L133.409045,285.389706 L133.425957,285.455882 C133.506104,285.801471 133.840663,287.360294 133.839928,289.022059 C133.840663,289.970588 133.728898,290.948529 133.428898,291.727941 C133.124486,292.514706 132.672281,293.080882 131.951692,293.389706 C131.44581,293.595588 130.946545,293.683824 130.451692,293.683824 C129.169339,293.691176 127.894339,293.066176 126.950222,292.419118 C126.478163,292.095588 126.090663,291.772059 125.823016,291.529412 C125.689928,291.404412 125.586251,291.308824 125.517133,291.235294 L125.440663,291.161765 L125.423016,291.139706 L125.419339,291.139706 L124.922281,290.595588 L124.516398,291.205882 L124.675957,291.316176 L124.517869,291.205882 L124.516398,291.205882 L124.675957,291.316176 L124.517869,291.205882 C124.509045,291.220588 124.201692,291.654412 123.550957,292.080882 C122.898751,292.507353 121.909781,292.926471 120.475222,292.926471 C119.981104,292.926471 119.434045,292.875 118.828163,292.757353 C117.861986,292.558824 117.348016,292.154412 117.018604,291.661765 C116.691398,291.169118 116.560516,290.522059 116.561251,289.845588 C116.560516,289.125 116.70831,288.397059 116.859045,287.852941 C116.934045,287.580882 117.009781,287.352941 117.064928,287.198529 C117.092869,287.117647 117.115663,287.058824 117.131839,287.022059 L117.148751,286.977941 L117.153163,286.963235 L116.091398,286.522059" id="Fill-2312" fill="#211311"></path>
                        <path d="M120.811986,158.147059 C118.64581,161.823529 114.323016,163.573529 109.643604,164.308824 C101.045075,165.647059 91.2016923,163.529412 91.2016923,163.529412 C91.2016923,163.529412 108.536986,186.647059 111.810516,200.022059 L111.810516,200.044118 C112.029633,200.963235 112.191398,201.852941 112.271545,202.669118 C112.421545,204.205882 112.294339,205.529412 111.83331,206.588235 C109.873751,211.088235 101.621545,208.073529 93.2531629,203.5 C83.5597805,198.198529 73.693604,190.779412 73.2671334,190.455882 C73.5553687,191.397059 87.1788982,234.727941 75.0531629,233.514706 C63.0546334,232.301471 50.5031629,208.558824 49.9494864,207.522059 C50.1913982,209.191176 58.1333099,263.272059 40.9590452,250.558824 C39.8641923,249.757353 38.8038982,248.933824 37.7781629,248.095588 C32.5105158,243.845588 28.0038982,239.286765 24.1656629,234.566176 C-4.64977832,199.117647 3.58036874,153.970588 3.58036874,153.970588 L78.6958099,138.955882 L79.6869864,138.757353 L80.2516923,138.639706 C80.2516923,138.639706 75.6377217,129.794118 76.5487511,129.441176 C80.8590452,127.676471 99.1318393,131.830882 108.248751,138.411765 C110.900222,140.323529 113.355369,141.860294 115.475222,143.227941 C122.172281,147.551471 125.468604,150.213235 120.811986,158.147059" id="Fill-2313" fill="#DD905A"></path>
                        <path d="M88.8149276,132.125 C88.8149276,132.125 83.6399276,146.441176 72.0788982,157.404412 C70.2237511,159.176471 68.1950746,160.845588 66.0046334,162.367647 C61.9369864,165.183824 57.2913982,167.441176 52.0355158,168.698529 C26.2744864,174.830882 3.57889815,153.977941 3.57889815,153.977941 L3.59066286,153.970588 C3.60242756,153.911765 3.74066286,153.360294 3.99360404,152.397059 C4.02889815,152.264706 4.07522168,152.110294 4.10978051,151.948529 C4.52448639,150.397059 5.14654521,148.022059 5.90757462,145.117647 C6.50683933,142.860294 7.17522168,140.286765 7.90242756,137.529412 C11.013457,125.727941 15.0016923,110.632353 17.0766923,103.058824 C20.0619864,92.1176471 7.29139815,58.1397059 2.38110404,45.7132353 C1.64360404,43.8602941 1.08992756,42.4852941 0.790662859,41.75 C0.605368741,41.3235294 0.512721682,41.1029412 0.512721682,41.1029412 C0.306104035,40.5588235 0.178898153,39.6397059 0.0980157997,38.4264706 C-0.0975724356,35.5367647 0.0178687409,30.9926471 0.282574623,26.0367647 C0.825221682,15.7720588 1.97669227,3.69852941 2.27669227,0.705882353 C2.3230158,0.242647059 2.34580992,0 2.34580992,0 L27.0575746,3.95588235 L42.3193393,6.39705882 L79.0296334,12.2794118 C79.0296334,12.2794118 78.8450746,14.2941176 78.5333099,17.7279412 L78.5333099,17.7647059 C77.2428687,32.1029412 73.7627217,71.0147059 72.2869864,90.7941176 C70.8568393,109.830882 81.588457,124.205882 86.4869864,129.691176 C86.5450746,129.764706 86.6031629,129.830882 86.6597805,129.889706 C87.1097805,130.397059 87.500957,130.808824 87.8127217,131.147059 C88.2391923,131.573529 88.538457,131.875 88.7002217,132.007353 C88.7803687,132.088235 88.8149276,132.125 88.8149276,132.125" id="Fill-2314" fill="#F1AD74"></path>
                    </g>
                    <g id="Thanksgiving/Stuffs/Hat" transform="translate(3.478530, 0.000000)">
                        <path d="M132.265467,77.4937876 C130.508367,80.5097612 117.231237,79.870816 101.896552,77.8855218 C101.862323,77.8703089 101.828093,77.8703089 101.793864,77.8703089 C95.6516227,77.0716273 89.1899087,76.0561608 83.0020284,74.9836456 L82.7624239,74.9380066 C79.5749239,74.3903393 76.471856,73.8198525 73.5243408,73.2493656 C61.5136917,70.9293859 42.11714,66.1449032 26.2576065,60.9762926 C11.6227181,56.2146293 0,51.110674 0,47.3188383 C0,41.6558058 21.7469574,41.4047916 34.0656694,41.7128545 C37.4581643,41.7927226 40.1280426,41.9182297 41.4439655,41.9866882 C42.0144523,42.0209174 42.3339249,42.0437368 42.3339249,42.0437368 L44.6386917,42.6940918 L56.2956389,45.9953089 L68.0552738,49.3193454 L76.4946755,51.7039803 L76.5060852,51.7039803 L85.9913793,54.3852683 L93.5290314,56.5226922 L107.548174,60.485674 C107.548174,60.485674 107.707911,60.5503291 108.015974,60.6910492 C111.613844,62.3112318 134.882099,73.0097612 132.265467,77.4937876" id="Fill-2667" fill="#241313"></path>
                        <polyline id="Fill-2668" fill="#6D1C1F" points="65.4196247 0.124365648 38.0780933 35.1636659 44.5588235 48.3305016 85.4741379 55.8228951 101.474391 11.0586963 65.4196247 0.124365648"></polyline>
                        <path d="M74.13286,49.7453089 C74.13286,49.7453089 95.3968053,30.5046902 94.18357,16.7331385 C92.9665314,2.9577835 109.78068,12.0741628 109.78068,12.0741628 L107.75355,53.7995685 L84.4624746,58.2531689 L74.13286,49.7453089" id="Fill-2669" fill="#241313"></path>
                        <path d="M65.4196247,0.124365648 C65.4196247,0.124365648 68.2568458,9.84546098 84.0555274,15.1129559 C99.8542089,20.3766476 110.590771,14.3028646 109.78068,12.0741628 C108.970588,9.84546098 80.206643,-1.2942449 65.4196247,0.124365648" id="Fill-2670" fill="#481717"></path>
                        <path d="M38.0780933,35.1636659 C38.0780933,35.1636659 82.4349645,56.0244671 107.75355,53.7995685 L108.361689,70.001394 C108.361689,70.001394 45.5704868,66.5594569 30.3803245,47.7219823 L38.0780933,35.1636659" id="Fill-2671" fill="#DF4F2A"></path>
                        <path d="M55.0900101,36.3807044 C55.0900101,36.3807044 47.3960446,36.1753291 45.1673428,41.4428241 C42.938641,46.710319 40.3067951,51.9740107 45.3689148,59.6717794 C50.4310345,67.3695482 65.625,67.9780675 71.2956389,65.3424184 C76.9662779,62.7105725 78.1833164,51.5708667 74.5360041,45.4932805 C70.8886917,39.4156942 63.1947262,36.3807044 55.0900101,36.3807044" id="Fill-2672" fill="#ED984C"></path>
                        <path d="M55.4969574,45.9002277 C55.4969574,45.9002277 50.0278905,47.315035 52.659356,52.784102 C55.2953854,58.2531689 64.8149087,58.4585441 67.6483266,56.2298423 C70.4855477,54.0011405 69.2685091,49.1405928 66.229716,47.9235543 C63.1947262,46.710319 55.4969574,45.9002277 55.4969574,45.9002277" id="Fill-2673" fill="#C93B2B"></path>
                    </g>
                    <g id="Group-4" transform="translate(10.369767, 67.404324)">
                        <path d="M57.5617647,10.1692051 C57.5617647,12.4853816 56.1426471,14.3603816 54.3926471,14.3603816 C52.6419118,14.3603816 51.2227941,12.4853816 51.2227941,10.1692051 C51.2227941,7.85302867 52.6419118,5.97802867 54.3926471,5.97802867 C56.1426471,5.97802867 57.5617647,7.85302867 57.5617647,10.1692051" id="Fill-2322" fill="#201312"></path>
                        <path d="M28.5257353,7.61038161 C28.5257353,9.92655808 27.1066176,11.808911 25.3558824,11.808911 C23.6058824,11.808911 22.1867647,9.92655808 22.1867647,7.61038161 C22.1867647,5.30155808 23.6058824,3.41920514 25.3558824,3.41920514 C27.1066176,3.41920514 28.5257353,5.30155808 28.5257353,7.61038161" id="Fill-2323" fill="#201312"></path>
                        <path d="M20.1227941,5.83096984 L20.1272059,5.8236169 C20.1816176,5.72067573 20.8014706,4.60302867 21.7573529,3.54420514 C22.2330882,3.01479337 22.7926471,2.50744043 23.3845588,2.14714631 C23.9786765,1.7868522 24.5904412,1.5736169 25.2110294,1.5736169 C25.9132353,1.58096984 26.6786765,1.83096984 27.5794118,2.63244043 C28.475,3.42655808 29.4669118,4.79420514 30.4705882,6.92655808 L31.8970588,6.25744043 C30.8323529,4.00008749 29.7507353,2.46332279 28.6323529,1.45596984 C27.5198529,0.448616903 26.3323529,-0.00726545022 25.2110294,8.74909546e-05 C24.1926471,8.74909546e-05 23.2727941,0.353028667 22.4882353,0.853028667 C21.3095588,1.59567573 20.3933824,2.64714631 19.7485294,3.51479337 C19.1058824,4.38244043 18.7419118,5.0736169 18.7286765,5.09567573 L20.1235294,5.83096984" id="Fill-2324" fill="#201312"></path>
                        <path d="M49.4080882,7.56626396 L49.2389706,7.44126396 L49.4080882,7.56626396 L49.2389706,7.44126396 L49.4080882,7.56626396 C49.4183824,7.55155808 49.9889706,6.77214631 50.8919118,6.0368522 C51.3426471,5.6618522 51.8742647,5.30155808 52.45,5.0368522 C53.0264706,4.77949926 53.6411765,4.61038161 54.2794118,4.61038161 C55.0176471,4.61773455 55.8,4.8236169 56.6698529,5.41920514 C57.5360294,6.02214631 58.4816176,7.02949926 59.4419118,8.63244043 L60.7933824,7.8236169 C59.75,6.08096984 58.6720588,4.88979337 57.5676471,4.12508749 C56.4669118,3.36038161 55.3316176,3.0368522 54.2794118,3.0368522 C53.3544118,3.0368522 52.5044118,3.27949926 51.7602941,3.61773455 C50.6441176,4.13979337 49.7536765,4.88979337 49.1286765,5.50744043 C48.5051471,6.12508749 48.1485294,6.61773455 48.1301471,6.63979337 L49.4080882,7.56626396" id="Fill-2325" fill="#201312"></path>
                        <path d="M237.456618,105.970676 C237.456618,105.970676 236.559559,53.3383228 238.949265,39.8824404 C241.346324,26.4265581 249.419853,27.0221463 249.721324,42.2721463 C250.015441,57.5294993 237.456618,105.970676 237.456618,105.970676" id="Fill-2326" fill="#671B23"></path>
                        <path d="M277.530147,120.625087 C277.530147,120.625087 284.405147,78.1618522 289.191912,64.1030287 C293.978676,50.0515581 297.566912,40.183911 302.353676,46.1618522 C307.140441,52.1471463 277.530147,120.625087 277.530147,120.625087" id="Fill-2327" fill="#671B23"></path>
                        <path d="M313.419853,146.044205 C313.419853,146.044205 313.706618,145.683911 314.228676,145.022146 C319.258088,138.691264 346.125735,104.963323 352.890441,98.1986169 C360.368382,90.7206757 374.721324,85.6397934 368.743382,101.485382 C362.758088,117.338323 313.419853,146.044205 313.419853,146.044205" id="Fill-2328" fill="#671B23"></path>
                        <path d="M343.919853,180.441264 C343.919853,180.441264 382.199265,138.867735 390.574265,146.345676 C398.949265,153.823617 343.919853,180.441264 343.919853,180.441264" id="Fill-2329" fill="#671B23"></path>
                        <path d="M199.476471,93.4118522 C199.476471,93.4118522 189.009559,62.9118522 192,52.441264 C194.990441,41.9780287 201.271324,54.5368522 202.466912,69.4853816 C203.663235,84.441264 199.476471,93.4118522 199.476471,93.4118522" id="Fill-2330" fill="#671B23"></path>
                        <path d="M58.8264706,22.316264 C55.3889706,22.316264 52.6029412,20.8824404 52.6029412,19.1177345 C52.6029412,17.3530287 55.3889706,15.9192051 58.8264706,15.9192051 C62.2639706,15.9192051 65.0507353,17.3530287 65.0507353,19.1177345 C65.0507353,20.8824404 62.2639706,22.316264 58.8264706,22.316264" id="Fill-2331" fill="#D9744F"></path>
                        <path d="M24.8455882,18.8897934 C21.4080882,18.8897934 18.6220588,17.4633228 18.6220588,15.6986169 C18.6220588,13.9265581 21.4080882,12.5000875 24.8455882,12.5000875 C28.2838235,12.5000875 31.0698529,13.9265581 31.0698529,15.6986169 C31.0698529,17.4633228 28.2838235,18.8897934 24.8455882,18.8897934" id="Fill-2332" fill="#D9744F"></path>
                        <path d="M1.27132353,32.7280287 C1.27132353,32.7280287 13.5404412,36.6103816 23.3551471,39.8824404 C33.1705882,43.1544993 47.4845588,36.816264 47.4845588,36.816264 L47.6882353,27.816264 L1.27132353,32.7280287" id="Fill-2333" fill="#D58830"></path>
                        <path d="M33.7397059,14.566264 C33.7397059,14.566264 21.6757353,14.3603816 12.6786765,21.316264 C3.68088235,28.2647934 0,33.1765581 0,33.1765581 C0,33.1765581 36.1933824,38.2868522 47.2352941,28.058911 C47.2352941,28.058911 51.325,18.2500875 33.7397059,14.566264" id="Fill-2334" fill="#ED9F2D"></path>
                        <path d="M55.6191176,25.1986169 C55.6191176,25.1986169 60.5264706,32.3530287 58.0727941,52.191264 C55.6191176,72.0221463 54.8014706,77.5442051 48.6669118,72.2280287 C42.5323529,66.9118522 48.2580882,31.7427345 47.0308824,26.2206757 C45.8044118,20.6986169 30.0588235,13.7500875 30.0588235,13.7500875 C30.0588235,13.7500875 45.1904412,9.25008749 55.6191176,25.1986169" id="Fill-2335" fill="#A32629"></path>
                        <path d="M105.866912,123.470676 L105.808824,123.566264 L105.163235,124.691264 L102.058824,149.933911 C102.058824,149.933911 94.8477941,140.816264 93.7183824,139.551558 C93.3264706,139.103029 92.8654412,138.573617 92.3816176,137.948617 C91.3551471,136.661852 90.1566176,134.978029 88.8772059,132.889793 C87.5404412,130.676558 86.1345588,127.992735 84.7852941,124.808911 C79.8522059,113.147146 73.1213235,91.1618522 79.4029412,55.2868522 C85.6845588,19.3897934 74.4691176,7.2868522 74.4691176,7.2868522 L75.7830882,7.48538161 L76.0257353,7.52949926 L94.9977941,10.4118522 L95.1014706,10.4265581 L95.1014706,10.4559698 L94.9977941,10.4486169 C93.7066176,24.7868522 90.2257353,63.6986169 88.7507353,83.4780287 C87.3213235,102.514793 98.2816176,115.066264 103.180147,120.551558 L105.670588,122.33097 L105.808824,123.161852 L105.866912,123.470676" id="Fill-2336" fill="#DD905A"></path>
                        <path d="M86.8066176,126.38244 C86.8066176,126.38244 94.8816176,142.308911 84.3397059,155.992735 C73.7977941,169.676558 93.9838235,156.441264 93.9838235,156.441264 L102.058824,146.573617 L100.264706,135.801558 L86.8066176,126.38244" id="Fill-2337" fill="#DD905A"></path>
                        <path d="M30.8080882,197.485382 C30.8080882,197.485382 43.3691176,229.786852 55.0323529,232.176558 C66.6955882,234.566264 64.0036765,197.786852 64.0036765,197.786852 C64.0036765,197.786852 63.1066176,207.948617 58.0227941,216.323617 C52.9389706,224.698617 34.6963235,194.794205 33.2007353,193.000087 C31.7058824,191.20597 29.9110294,192.404499 30.8080882,197.485382" id="Fill-2338" fill="#F1AD74"></path>
                        <path d="M72.0779412,200.478029 C72.0779412,200.478029 75.6669118,213.036852 85.2367647,217.823617 C94.8066176,222.603029 90.9191176,206.154499 90.0220588,197.485382 C89.1242647,188.808911 88.5264706,180.735382 85.5360294,186.720676 C82.5455882,192.698617 88.5264706,206.75744 82.2463235,204.360382 C75.9661765,201.970676 72.0779412,200.478029 72.0779412,200.478029" id="Fill-2339" fill="#F1AD74"></path>
                        <path d="M94.8066176,178.647146 C94.8066176,178.647146 109.161029,195.691264 119.627941,196.889793 C130.095588,198.08097 114.245588,165.183911 111.255147,164.286852 C108.263971,163.389793 120.226471,185.220676 113.946324,185.522146 C107.666176,185.823617 94.8066176,178.647146 94.8066176,178.647146" id="Fill-2340" fill="#F1AD74"></path>
                        <path d="M109.460294,149.933911 C109.460294,149.933911 131.889706,155.617735 133.384559,146.044205 C134.880147,136.478029 108.563235,123.316264 107.366912,128.698617 C106.170588,134.088323 124.113971,136.478029 121.422794,142.161852 C118.731618,147.838323 106.769118,145.147146 109.460294,149.933911" id="Fill-2341" fill="#F1AD74"></path>
                    </g>
                </g>
            </g>
        </g>
    </g>
</svg>