<?xml version="1.0" encoding="UTF-8"?>
<svg width="384px" height="231px" viewBox="0 0 384 231" version="1.1" xmlns="http://www.w3.org/2000/svg" xmlns:xlink="http://www.w3.org/1999/xlink">
    <title>decoration-9</title>
    <g id="decoration-9" stroke="none" stroke-width="1" fill="none" fill-rule="evenodd">
        <g id="Thanksgiving/Stickers/Apple" transform="translate(2.986434, 5.731927)">
            <path d="M170.476543,70.3010584 L169.65642,70.1037091 L168.733966,69.8923802 L167.571742,69.6418596 C167.185338,69.5615129 166.799969,69.4843373 166.415732,69.410365 L165.095595,69.1663151 L164.185352,69.0115744 L163.379671,68.8836611 C158.820275,68.1839284 154.368529,67.9112759 150.203724,68.0768079 L149.545133,68.107434 L149.590549,68.0330448 C158.170054,53.6990223 160.191315,34.2126434 154.626043,9.74528365 C152.880544,2.07131173 144.606889,-2.08150091 137.457961,1.05119552 L137.04804,1.2389262 L136.53325,1.48777963 L135.905014,1.80238579 L135.167451,2.18290145 L134.617038,2.47327236 C132.803318,3.43825615 130.807859,4.5818572 128.674438,5.9067097 C122.62248,9.66497195 116.580569,14.1694173 110.903977,19.4618964 L110.386017,19.9479115 C101.444009,28.3924947 94.3763599,37.8937888 89.7948941,48.4483947 L89.6441226,48.7988941 L89.55124,48.7282444 C86.9018582,46.7678134 83.5768749,45.9299714 80.3004934,46.4183829 L64.3054439,48.8027717 C54.3039777,50.2936945 50.1601643,62.4306707 57.0308863,69.7549495 L59.3256706,72.1168354 L61.2566866,74.1212829 L62.806304,75.741334 L63.9984509,76.9943658 C65.902425,79.0002594 67.7876207,81.0091176 69.6228571,82.9915575 L71.5050771,85.0355925 L71.4269817,85.0312848 C58.2612147,84.1942497 45.3937154,86.9372937 33.5199008,94.2817309 C-1.63843306,116.016581 -9.69260342,163.708747 11.9827141,207.960698 C21.8470904,228.099449 38.3831762,243.16112 58.22837,252.649064 C59.6715582,253.339049 61.1256695,253.994372 62.5844229,254.613749 L63.8357734,255.13581 C65.0879677,255.649008 66.342254,256.135528 67.5946771,256.594562 L68.8463325,257.044404 C81.5622028,261.524036 93.9491999,263.134806 101.850844,261.027677 L102.539171,260.837707 C104.150655,260.381509 105.799701,259.835154 107.483097,259.206631 L108.096875,258.972746 L108.306328,259.171184 C111.681688,262.2927 116.332888,263.63593 121.051926,262.647336 L121.511217,262.544565 C124.239718,261.89455 126.484782,260.6461 128.62835,258.937718 L128.757563,258.832488 L129.167908,259.038514 C130.578331,259.72781 132.062636,260.242315 133.682894,260.541554 C137.991133,261.337226 142.501406,260.35983 146.107656,257.25635 L146.42013,256.979556 C148.057083,255.488148 149.222638,253.756137 150.002866,251.889071 L150.124591,251.587152 L150.671799,251.53118 C155.505671,251.007329 160.465819,249.946416 165.522491,248.295605 L166.438688,247.991703 L167.568827,247.598496 C168.699352,247.195781 169.831045,246.764482 170.964009,246.304014 L172.023986,245.867269 L172.124446,245.82336 C174.056118,245.005839 175.990363,244.10452 177.926252,243.117702 L179.075595,242.522131 L180.142008,241.951551 L181.015976,241.47118 L181.865214,240.994893 L182.366661,240.709343 L183.325666,240.154425 L184.022596,239.743644 L185.292753,238.977739 L185.87018,238.622121 C187.749012,237.456338 189.536922,236.273482 191.269153,235.050177 L192.384067,234.253056 L193.29279,233.585407 C198.11029,230.005372 202.463835,226.116599 206.370689,221.878445 L207.198955,220.968894 C208.920738,219.048508 210.550519,217.060492 212.087013,215.003529 L212.895862,213.904258 L213.558392,212.974681 L214.1598,212.107506 C215.001622,210.877526 215.81095,209.625985 216.58768,208.352304 L217.262052,207.22853 L217.863378,206.191777 L218.383745,205.267541 L218.884307,204.35191 L219.484426,203.218765 C220.005053,202.217767 220.506989,201.205197 220.990131,200.180898 L221.608905,198.841297 L222.040865,197.87012 C222.19087,197.52728 222.338917,197.183071 222.485005,196.837492 L222.925826,195.775378 L223.518066,194.286242 L223.966238,193.106094 L224.219091,192.418074 C224.753904,190.942942 225.242717,189.484371 225.699144,188.004527 L226.156514,186.478754 L226.510306,185.231868 L226.869893,183.896473 L227.125997,182.898274 L227.301697,182.188149 L227.514758,181.296487 C227.690627,180.545646 227.857379,179.796711 228.016316,179.043837 L228.365472,177.322116 L228.619577,175.969226 L228.881019,174.470588 L229.032463,173.542062 C229.103221,173.096041 229.16931,172.663686 229.232056,172.236398 L229.411104,170.971948 C229.595232,169.61539 229.755624,168.261719 229.893827,166.898695 L230.036351,165.40989 L230.087072,164.828379 L230.13956,164.190044 L230.223597,163.075973 L230.316082,161.672008 L230.381948,160.502524 C230.502693,158.170488 230.565024,155.798502 230.568773,153.386114 L230.559662,151.438455 L230.54253,150.273267 L230.525801,149.470399 C230.433576,145.577963 230.196485,141.615477 229.813459,137.545744 L229.733171,136.73063 L229.612418,135.630259 L229.539155,135.018728 L229.419484,134.090932 L229.311393,133.316304 L229.175845,132.410446 L228.992899,131.283516 L228.831381,130.364032 L228.633691,129.312109 L228.435533,128.327782 L228.280488,127.601114 C228.144909,126.977368 227.999308,126.345667 227.845283,125.712944 L227.548165,124.532161 L227.227829,123.340248 L226.982772,122.478267 L226.652267,121.369426 L226.324697,120.327306 L225.977226,119.27666 L225.663597,118.372387 L225.289247,117.33599 L224.851051,116.181521 L224.644321,115.658957 L224.459719,115.198965 L224.064517,114.245113 L223.643644,113.26821 L223.159398,112.193424 L222.493561,110.784297 L221.873893,109.5408 L221.540432,108.896461 L221.229389,108.308154 L220.619244,107.192378 C220.041382,106.159912 219.466247,105.186976 218.875387,104.240174 L218.142382,103.088938 L217.65392,102.349911 L217.205067,101.685239 L216.694702,100.950142 L216.237018,100.307966 L215.575208,99.4039494 L215.021961,98.6706767 L214.298058,97.7400768 L213.897928,97.2393914 C213.500638,96.7464723 213.110832,96.2755416 212.719175,95.8148035 L212.266349,95.2860508 L211.441327,94.3502424 L210.575004,93.4009269 L209.983087,92.7724803 L209.446428,92.2132066 L208.780961,91.5371436 L208.229911,90.9914702 L207.345121,90.1370253 L207.04764,89.8548917 L206.538686,89.3813248 L206.059716,88.9438527 L204.696674,87.7381674 L204.207158,87.3197531 L203.682673,86.8787549 L202.73462,86.1020353 L201.950597,85.4782482 L201.490588,85.1204241 L200.40475,84.2970003 L199.727315,83.7981032 L199.094985,83.3420544 L197.49501,82.2306819 L196.327068,81.4554961 L195.470567,80.905483 L194.939517,80.5729874 L193.984482,79.9872529 L193.002676,79.4042112 L192.202373,78.9422462 L191.463172,78.5270905 L190.44517,77.9700325 L189.566328,77.5044233 L188.339996,76.877479 L186.820855,76.1340687 L185.957296,75.7286018 L185.090594,75.3335507 C184.951694,75.2711776 184.814924,75.2102418 184.679315,75.1502977 L183.59807,74.6801949 L182.524475,74.2312816 C182.349007,74.1593155 182.17488,74.0886109 182.001507,74.0189203 L181.292461,73.7367529 L180.093515,73.2768989 L179.107564,72.914005 L178.011565,72.5265319 L177.598737,72.3865578 L177.380332,72.3106239 C176.805602,72.1167605 176.232326,71.9301677 175.660605,71.7509525 L174.579225,71.4189208 C174.190251,71.3024055 173.805634,71.1902125 173.424557,71.0822227 L172.59416,70.8503797 L171.588994,70.5822449 L170.476543,70.3010584 Z" id="Sticker" fill="#FFFFFF" fill-rule="nonzero"></path>
            <g id="Thanksgiving/Stuffs/Apple" transform="translate(12.487241, 12.530137)">
                <path d="M106.893386,223.518172 C106.893386,223.518172 100.895241,232.050932 103.639816,237.190666 C106.384392,242.340438 114.947468,229.250179 114.947468,229.250179 C114.947468,229.250179 122.112307,238.495676 125.356894,235.694923 C128.610464,232.884131 121.045415,216.952965 121.045415,216.952965 L106.893386,223.518172" id="Fill-2623" fill="#54211E"></path>
                <g id="Thanksgiving/Stuffs/Leaf5" transform="translate(83.785642, 0.000000)">
                    <path d="M45.9915594,0 C45.9915594,0 -3.63537246,23.3555813 0.212758462,70.2386249 C0.212758462,70.2386249 62.570424,73.7166855 45.9915594,0" id="Fill-2624" fill="#CB6E30"></path>
                    <path d="M6.42643155,66.0584591 L41.8714291,8.11320526 C42.1436835,7.66812553 42.0071489,7.08684363 41.5652119,6.8095169 C41.1297517,6.53625446 40.5552184,6.6677418 40.2819559,7.10320209 C40.2800697,7.10620794 40.2782006,7.10922455 40.2763489,7.11225177 L4.83135137,65.0575056 C4.55909698,65.5025854 4.6956315,66.0838673 5.1375685,66.361194 C5.57302879,66.6344564 6.14756207,66.5029691 6.42082451,66.0675088 C6.42271076,66.064503 6.4245798,66.0614863 6.42643155,66.0584591 Z" id="Fill-2625" fill="#54211E"></path>
                    <path d="M28.7646936,28.7647744 L44.190577,24.5960441 C44.7015822,24.4579487 45.0051414,23.9330998 44.8700187,23.4213005 C44.73591,22.9133424 44.2154121,22.6102775 43.7074539,22.7443861 C43.7056645,22.7448585 43.7038764,22.7453362 43.7020897,22.7458191 L29.6619262,26.5404333 L29.6619262,26.5404333 L25.2754976,19.0743762 C25.0150106,18.6310063 24.4444219,18.4827504 24.001052,18.7432373 C23.9971586,18.7455247 23.993282,18.7478404 23.9894223,18.7501842 C23.54143,19.0222309 23.3946146,19.6034193 23.6596609,20.0555884 L28.7646936,28.7647744 L28.7646936,28.7647744 Z" id="Fill-2626" fill="#54211E"></path>
                    <path d="M16.6616119,29.8899147 L19.6228903,42.9702254 L19.6228903,42.9702254 L37.8646742,38.6697971 C38.3785506,38.5486528 38.6979718,38.0350707 38.5794212,37.5205898 C38.461641,37.0094519 37.9518021,36.6905725 37.4406642,36.8083528 C37.4391075,36.8087115 37.4375517,36.8090741 37.4359968,36.8094407 L21.038524,40.6751098 L21.038524,40.6751098 L18.5055457,29.4653532 C18.3908262,28.9576593 17.8862605,28.6390906 17.3785666,28.7538101 C17.3773186,28.7540921 17.3760711,28.7543767 17.3748242,28.7546638 C16.864986,28.8720524 16.546092,29.3796499 16.6616119,29.8899147 Z" id="Fill-2627" fill="#54211E"></path>
                    <path d="M12.066198,54.5469097 L26.5732791,53.5129326 C27.1013667,53.4752937 27.4995304,53.017608 27.4637063,52.4893942 C27.4280585,51.9637794 26.9730652,51.5665826 26.4474504,51.6022305 C26.4462043,51.602315 26.4449583,51.6024019 26.4437125,51.6024914 L13.4519239,52.5348921 L13.4519239,52.5348921 L10.1781649,40.8767124 C10.0382987,40.3786351 9.52114329,40.0882476 9.02306598,40.2281137 C9.02057678,40.2288127 9.01809049,40.229522 9.01560717,40.2302416 C8.5134716,40.3757437 8.22272484,40.8990574 8.36443967,41.4022749 L12.066198,54.5469097 L12.066198,54.5469097 Z" id="Fill-2628" fill="#54211E"></path>
                </g>
                <path d="M53.5987189,48.7571975 C53.5987189,48.7571975 82.4716537,78.2403948 86.1344145,86.6025001 C89.7971753,94.9646054 89.7971753,94.9646054 89.7971753,94.9646054 C89.7971753,94.9646054 97.3921644,69.6674801 69.5771387,46.3680246 L53.5987189,48.7571975" id="Fill-2629" fill="#54211E"></path>
                <path d="M204.680118,126.445472 C209.191202,174.750936 191.526116,202.156155 162.26395,218.448708 C133.021745,234.741261 112.86159,223.608519 112.86159,223.608519 C112.86159,223.608519 111.743799,224.361409 109.897449,225.515841 C104.947232,228.577597 94.6276283,234.560568 86.0645526,236.869432 C74.3177692,240.011496 29.5961582,228.999215 10.6935179,190.290598 C-8.19914218,151.602058 -1.74190444,110.76527 27.5601821,92.5955095 C56.8622687,74.4157103 89.7971753,94.9545669 89.7971753,94.9545669 C89.7971753,94.9545669 106.334491,78.4712812 124.219143,71.333878 C126.65433,70.3601395 129.109477,69.5670947 131.554645,69.0049363 C151.994247,64.36713 200.169033,78.1500479 204.680118,126.445472" id="Fill-2630" fill="#D8412B"></path>
                <path d="M59.9461736,101.238694 C59.9461736,101.238694 74.2079862,104.01937 66.9623067,116.13589 C59.7166273,128.25241 46.9817968,127.830791 49.3970232,142.025289 C51.82223,156.219787 39.4466893,179.709975 31.7818384,167.553301 C24.1169874,155.386588 21.3524513,132.629214 34.4964731,118.003059 C47.6404949,103.366865 59.9461736,101.238694 59.9461736,101.238694" id="Fill-2631" fill="#E57556"></path>
                <path d="M112.86159,223.608519 C112.86159,223.608519 111.743799,224.361409 109.897449,225.515841 C109.747744,224.742874 110.626009,224.090369 112.86159,223.608519" id="Fill-2632" fill="#DC502C"></path>
                <path d="M130.895947,227.322779 C128.750188,227.322779 126.774093,227.192278 124.977644,226.97143 C117.282852,226.047884 112.86159,223.608519 112.86159,223.608519 C130.836065,219.753719 195.138975,175.303055 179.170535,118.876412 C167.224147,76.6643437 138.261389,71.333878 124.408768,71.333878 C124.348886,71.333878 124.279024,71.333878 124.219143,71.333878 C126.65433,70.3601395 129.109477,69.5670947 131.554645,69.0049363 C133.999812,68.4528165 136.854171,68.1616988 139.968016,68.1616988 C162.902688,68.1616988 200.70697,83.932248 204.680118,126.445472 C205.149191,131.444666 205.378777,136.223012 205.378777,140.790549 C205.408678,180.302249 188.502092,203.84263 162.26395,218.448708 C149.90837,225.335148 139.169594,227.322779 130.895947,227.322779" id="Fill-2633" fill="#AE382B"></path>
            </g>
        </g>
        <g id="Group" transform="translate(121.318135, 77.169217)">
            <g id="Thanksgiving/Stickers/Tart-Copy" transform="translate(139.304171, 104.312363) scale(-1, 1) translate(-139.304171, -104.312363) ">
                <path d="M140.014836,38.4829942 L138.874729,38.4790583 C129.603404,38.4680379 120.350058,38.9229629 111.614064,39.8354889 C93.9309232,41.6761625 78.1262006,48.9522739 64.3708694,59.7128224 C59.5699195,63.4685193 55.3348823,67.4148949 51.6741922,71.3481521 L50.8651651,72.2277311 L50.2465246,72.9150021 L49.9265123,73.2758703 L49.8435403,73.2912267 C43.1502493,74.5258061 37.6428499,76.0271794 33.1506499,77.8429726 C19.2425404,83.4485836 13.5421769,93.0387992 15.2853656,104.628988 C16.0065631,109.379782 18.7181089,112.733592 22.2805749,114.992265 C24.2136109,116.217848 26.3248256,117.065899 28.7252412,117.734587 L29.2495164,117.876431 C30.1327055,118.108475 31.0629446,118.318846 32.0412127,118.509711 L32.5454708,118.604222 L32.7722148,119.214034 C34.9504971,125.06364 37.4126428,131.260101 40.0112187,137.189697 C40.3687426,138.005518 40.7244163,138.805564 41.07827,139.589485 L41.7835593,141.135727 C43.8922004,145.709341 45.9360408,149.694165 47.9215888,153.015113 C51.9232349,159.708106 55.5273545,163.911019 60.9777734,165.942832 L61.1155562,165.99299 L61.4028363,166.091323 L61.7060055,166.187059 L62.0253876,166.280259 L62.5355684,166.415437 L63.08405,166.545247 L63.6719256,166.669895 L64.086268,166.750225 L64.7422291,166.86672 L65.440499,166.978594 L65.9300569,167.05071 L66.7012703,167.155336 L67.5177074,167.255884 L68.3804611,167.352557 L69.2906244,167.445561 L70.915887,167.592962 L71.60485,167.649436 L73.0511707,167.758457 L74.5908437,167.86264 L76.2264599,167.962469 L77.9606103,168.058425 L80.2708091,168.173661 L82.7440763,168.284542 L87.6230429,168.476163 L91.8132959,168.621076 L97.3955316,168.794448 L101.239573,168.900869 L107.295386,169.050388 L114.755484,169.208946 L119.187874,169.291607 L126.038243,169.404407 L131.908136,169.487857 L137.901623,169.561434 L143.997144,169.624872 L151.251384,169.686023 L158.168659,169.730026 L162.731723,169.751337 L169.472186,169.771267 L173.878056,169.776533 L180.801799,169.771502 L187.536062,169.749383 L191.842355,169.725121 L196.990499,169.68409 L201.848177,169.631169 L205.012264,169.587759 L208.530577,169.529396 L213.025041,169.435105 L216.461557,169.34269 L218.531785,169.275179 L220.420438,169.202977 L221.795043,169.142012 L223.094716,169.075684 L223.89716,169.029242 L225.006288,168.955915 C225.123282,168.94751 225.238209,168.939016 225.35108,168.930431 L226.003729,168.877802 L226.60762,168.82285 L228.965295,168.590191 L229.537149,168.52904 L230.068214,168.468211 L230.79363,168.375136 L231.233319,168.310241 L231.640698,168.241768 L232.018187,168.168605 C232.078746,168.155958 232.13816,168.14307 232.196481,168.129916 L232.533679,168.047628 C233.616604,167.761492 234.302311,167.350754 234.994511,166.629723 L235.20277,166.40392 C235.237647,166.364672 235.272641,166.324603 235.307803,166.283688 L235.521188,166.027869 L235.741018,165.750647 L236.088147,165.292247 L236.596153,164.595737 L237.684667,163.083582 L237.955189,162.686553 L238.209741,162.287545 L238.371707,162.017547 L238.52828,161.742329 L238.680142,161.460156 L238.827976,161.169291 L238.972462,160.867998 L239.114284,160.554542 L239.254123,160.227185 L239.39266,159.884193 L239.530579,159.523828 L239.737789,158.946912 L239.947441,158.321143 L240.161839,157.640662 L240.383284,156.899611 L240.693483,155.807195 L241.025757,154.582792 L241.577494,152.468333 L242.441326,149.057477 L243.057191,146.577264 L243.775115,143.625465 L244.73118,139.614785 L245.676723,135.577192 L246.419619,132.364133 L247.168102,129.094917 L247.917885,125.790608 L248.541458,123.018768 L248.735156,122.903702 C253.966256,119.692157 257.860653,114.712246 260.815011,108.583275 L262.052579,106.015873 L262.051668,105.789675 L262.174706,105.460615 C265.093181,97.3975747 261.766222,89.8961429 255.08185,85.4592048 C253.188992,84.2027676 251.295886,83.2631814 248.9162,82.36391 L248.104283,82.0652667 C247.965738,82.0156153 247.825524,81.9659934 247.683558,81.9163537 L246.810071,81.6179223 L245.890535,81.3167871 C245.733219,81.2662462 245.573818,81.2154977 245.412247,81.1644944 L244.416131,80.855036 L243.363959,80.5371839 L239.086143,79.2796341 L237.896582,78.9160878 L237.363186,78.746609 L237.276967,78.7161778 L237.174284,78.6751598 L236.933984,78.5658056 C236.890141,78.5445523 236.84443,78.5217879 236.796895,78.4975161 L236.490151,78.3338286 L236.141741,78.1341521 L235.753771,77.8986728 C235.68593,77.8564531 235.616527,77.8127493 235.545608,77.7675654 L235.102243,77.4787316 L234.624579,77.1545612 L234.114721,76.7952406 L233.637212,76.4475168 L233.025114,75.9839229 L232.55375,75.617912 L231.830277,75.0409415 L231.08355,74.4274044 L230.309586,73.7739015 L229.504401,73.0770336 L228.664014,72.3334016 L228.082231,71.8099882 L227.17432,70.9808622 L226.220583,70.0959075 L224.870767,68.8232481 L223.422961,67.4372374 L221.867724,65.9298181 L212.320716,56.5496188 L210.774834,55.0668784 L209.811301,54.1550567 C202.234082,46.9991568 187.071764,42.3380245 167.919277,40.0798491 L166.243874,39.8895404 C165.962993,39.858831 165.681296,39.8286257 165.398793,39.7989243 L163.694204,39.6267602 C163.408524,39.5990732 163.122061,39.5718896 162.834826,39.5452089 L161.102231,39.3911593 L159.351623,39.2491693 L157.583528,39.1192254 L155.79847,39.0013142 C155.499576,38.9826643 155.199997,38.9645152 154.899744,38.9468667 L153.090227,38.8469794 L151.26506,38.7590913 C150.95959,38.7454424 150.653491,38.732293 150.346772,38.7196427 L148.499116,38.6497282 L146.637124,38.5917794 C146.325626,38.5831176 146.013553,38.5749539 145.700916,38.5672879 L143.818404,38.5272623 L141.922869,38.4991689 L140.014836,38.4829942 Z" id="Path" fill="#FFFFFF" fill-rule="nonzero" transform="translate(139.109076, 104.127796) rotate(-20.000000) translate(-139.109076, -104.127796) "></path>
                <g id="Group" transform="translate(27.413101, 50.739513)">
                    <g id="Thanksgiving/Stuffs/Tart" transform="translate(112.279603, 53.166025) rotate(-20.000000) translate(-112.279603, -53.166025) ">
                        <path d="M37.8525813,102.838367 C46.5794511,106.068079 198.202825,106.803459 199.825639,104.577443 C201.449452,102.351426 210.134404,63.0185046 210.134404,63.0185046 L192.621896,54.6566616 L39.9216366,50.6816317 L13.8716542,54.9392562 C13.8716542,54.9392562 29.1247135,99.5987175 37.8525813,102.838367 Z" id="Fill-2284" fill="#241411"></path>
                        <path d="M222.718702,50.3878469 C222.499133,50.8946633 222.264593,51.4114172 221.999114,51.9480462 L221.999114,51.9579838 C219.088827,57.9702165 213.909993,64.4992032 203.850738,62.8197531 C192.883267,61.0111144 184.967804,60.08692 184.967804,60.08692 C184.967804,60.08692 172.48331,69.4878658 159.7014,65.2445213 C146.918492,61.0111144 138.079842,59.1826007 138.079842,59.1826007 C138.079842,59.1826007 122.246921,71.6145068 112.202637,65.5426486 C102.159352,59.4807279 101.251134,59.1826007 101.251134,59.1826007 C101.251134,59.1826007 85.4192113,71.306442 75.9847306,68.2854192 C66.5352792,65.2445213 58.6188186,59.4807279 58.6188186,59.4807279 C58.6188186,59.4807279 40.3616562,65.8507134 36.404424,56.4597052 C36.404424,56.4597052 1.09373642,57.6621517 0.170548572,51.6002311 C-0.471191736,47.346949 0.248395763,42.3582865 10.3705267,38.2938184 C14.6890498,36.5547428 20.7281953,34.9945435 29.0977664,33.7125964 L29.112737,33.7026588 C29.770446,32.8281522 50.9538644,4.86381661 85.4192113,1.28628967 C120.432483,-2.3608003 162.736443,1.89248173 173.702916,12.2076844 C181.822977,19.8397419 190.943075,29.6183155 198.594057,35.3026083 C201.269805,37.2801857 203.772891,38.7608844 205.978562,39.4763898 C214.504825,42.2092229 225.456328,44.027799 222.718702,50.3878469" id="Fill-2285" fill="#ED9B2D"></path>
                        <path d="M198.594057,35.3026083 C189.582745,31.2083275 175.955495,25.027156 170.96529,22.8110768 C163.25243,19.3726759 158.386981,10.8760494 149.859719,12.2971226 C141.333456,13.7181958 134.231396,10.4785464 132.400989,16.7392185 C130.570582,23.0197658 127.128339,35.9485507 120.432483,32.5002122 C113.736626,29.0717489 109.872212,34.1200369 106.6176,29.677941 C103.378958,25.2259075 102.972755,9.25622469 97.2939021,8.66990777 C91.5990807,8.06371571 85.5130272,28.4655569 79.8341744,22.0061332 C74.1553216,15.536772 77.5965666,12.0983711 73.7481209,12.9033147 C69.9306144,13.6983206 30.0838309,33.2355928 29.112737,33.7026588 C29.770446,32.8281522 50.9538644,4.86381661 85.4192113,1.28628967 C120.432483,-2.3608003 162.736443,1.89248173 173.702916,12.2076844 C181.822977,19.8397419 190.943075,29.6183155 198.594057,35.3026083" id="Fill-2286" fill="#F4B838"></path>
                        <path d="M96.680107,7.24883457 C96.680107,7.24883457 78.1095597,16.9479076 83.2844018,23.9141476 C88.460242,30.8903251 97.5933144,14.8212666 96.680107,7.24883457" id="Fill-2287" fill="#3B1717"></path>
                        <path d="M117.685874,9.16678652 C117.685874,9.16678652 107.335192,24.3215881 115.859459,31.9039577 C124.383727,39.4763898 123.470519,29.7773167 123.470519,22.5030119 C123.470519,15.2287072 117.685874,9.16678652 117.685874,9.16678652" id="Fill-2288" fill="#3B1717"></path>
                        <path d="M135.648614,10.9853627 C135.648614,10.9853627 143.868479,27.6606133 149.956529,27.0544212 C156.046575,26.4482292 152.697149,13.7082582 135.648614,10.9853627" id="Fill-2289" fill="#3B1717"></path>
                        <path d="M55.2923483,36.2168652 C50.8091485,38.1646299 47.1333638,32.0927717 50.8131407,28.882935 C56.7904077,23.6657082 66.9983702,15.4075835 70.092297,16.9479076 C73.1932101,18.4882317 63.5691016,32.6095256 55.2923483,36.2168652" id="Fill-2290" fill="#F4B838"></path>
                        <path d="M159.800207,22.6023877 C159.800207,22.6023877 183.546594,34.5274775 178.269952,39.5757655 C172.992311,44.6339911 150.869736,26.2395401 159.800207,22.6023877" id="Fill-2291" fill="#F4B838"></path>
                        <path d="M221.998772,51.9579838 C219.088485,57.9702165 213.909651,64.4992032 203.850396,62.8197531 C192.883923,61.0111144 184.967462,60.08692 184.967462,60.08692 C184.967462,60.08692 172.482968,69.4878658 159.701058,65.2445213 C146.919148,61.0111144 138.0795,59.1826007 138.0795,59.1826007 C138.0795,59.1826007 122.247577,71.6145068 112.203293,65.5426486 C102.159009,59.4807279 101.25179,59.1826007 101.25179,59.1826007 C101.25179,59.1826007 85.4188692,71.306442 75.9853865,68.2854192 C66.5359351,65.2445213 58.6194746,59.4807279 58.6194746,59.4807279 C58.6194746,59.4807279 40.3613141,65.8507134 36.4040818,56.4597052 C36.4040818,56.4597052 1.0933943,57.6621517 0.170206452,51.6002311 C-0.470535815,47.346949 0.248053643,42.3582865 10.3711826,38.2938184 C9.88613475,39.4366395 6.52273687,47.9829538 11.4340962,49.6822791 C16.7067464,51.5107929 40.8623306,46.6413812 40.8623306,46.6413812 C40.8623306,46.6413812 32.3360671,53.9256236 45.5401484,55.9429513 C58.7292591,57.9702165 70.900368,50.4971603 70.900368,50.4971603 C70.900368,50.4971603 64.8153126,58.5764086 76.1889868,59.9974818 C87.5466924,61.3986799 99.5151991,49.6822791 99.1079984,49.0760871 C98.7177644,48.469895 109.668269,57.562776 120.635741,57.7714651 C131.587244,57.9702165 139.706307,46.2438782 139.706307,46.2438782 C139.706307,46.2438782 150.266578,57.165273 161.625281,58.1789056 C172.998956,59.1826007 187.407672,49.2748386 187.407672,49.2748386 C187.407672,49.2748386 215.818903,55.7441998 221.701356,52.116985 C221.811141,52.0474219 221.904956,51.9877965 221.998772,51.9579838" id="Fill-2295" fill="#E8802C"></path>
                    </g>
                </g>
            </g>
        </g>
    </g>
</svg>