<?xml version="1.0" encoding="UTF-8"?>
<svg width="542px" height="322px" viewBox="0 0 542 322" version="1.1" xmlns="http://www.w3.org/2000/svg" xmlns:xlink="http://www.w3.org/1999/xlink">
    <title>decoration-4</title>
    <g id="decoration-4" stroke="none" stroke-width="1" fill="none" fill-rule="evenodd">
        <g id="Thanksgiving/Stickers/Cup" transform="translate(291.053356, 78.278351)">
            <path d="M14.3571069,109.319942 L13.9531893,108.916102 L13.2058954,108.149359 L12.4729962,107.377485 C10.8391047,105.633796 9.73838797,103.45701 9.30137989,101.10527 L9.23540471,100.728642 L9.16735239,100.292751 L9.09901988,99.7998953 L9.03220414,99.2523751 C8.75823392,96.8495872 8.70523228,94.3440238 9.04367797,91.7445024 C10.0940119,83.6771356 14.9457364,77.6810395 21.9494606,75.9308766 L22.3014325,75.8469168 L22.3817805,75.8294711 L22.6738432,75.199339 C22.9150969,74.6863189 23.1605228,74.1757618 23.4100555,73.6685797 L23.7874264,72.9104518 L24.3649258,71.7842484 C28.0517822,64.7239317 31.7018111,59.7728315 36.9481511,56.8903545 C37.4000049,56.6420941 37.8625068,56.4124735 38.336406,56.2029143 L38.907845,55.9620457 C40.5162076,55.3106676 42.3284438,54.6602522 44.3276033,54.0042957 L45.6878827,53.5660992 L46.315332,53.3690284 L46.9481393,53.173225 L47.6766215,52.9518536 L47.7181769,52.5013299 C48.4185363,45.2288884 50.4151059,39.2690561 53.8595647,34.5910693 L54.1766902,34.1693282 L54.4596872,33.8074148 C59.7885864,27.1150302 67.3459037,24.3073679 75.5157759,24.7201835 C79.0507389,24.8988017 82.5245626,25.6510248 85.9453509,26.8278383 L86.6288038,27.0688181 L86.8067624,27.1346147 L86.8598816,27.0716233 C87.5257984,26.2900737 88.242054,25.5488369 89.0081544,24.8489926 L89.4737921,24.4340618 L89.8308566,24.1294142 C93.5304768,21.0311794 97.3132008,19.3653687 102.587266,17.9068265 L103.454042,17.6723961 L103.399391,17.386594 C103.360293,17.192594 103.320093,17.0070966 103.27985,16.8324538 L103.219585,16.5789244 L103.117643,16.1815738 L103.035581,15.9005259 C100.357999,6.37810214 109.308279,-2.35847261 118.734722,0.577776526 L119.551411,0.851113542 L120.996991,1.35485935 L122.763085,1.9844004 L124.012151,2.4379459 L125.983893,3.16702033 C131.14497,5.09580859 136.312608,7.18164857 141.182863,9.36600771 C147.698998,12.2885607 153.206812,15.1714054 157.519131,18.0751962 C161.325365,20.6382046 164.273488,23.2370895 166.393805,26.3098988 C170.317147,32.0018597 172.493727,38.8690504 172.706863,45.7915643 L172.720318,46.385032 L172.720381,46.5113014 L172.995822,46.5715671 C182.622644,48.7185394 189.204049,55.0294236 191.36046,64.25855 L191.458296,64.6932979 L191.545727,65.1128356 C192.43361,69.5442535 192.335805,74.2877412 191.398996,79.8050818 L191.282561,80.4709067 L191.18841,80.9773103 L191.28286,81.0694101 C196.272,86.0458302 200.02784,93.5533361 201.572208,101.427743 L201.678746,101.990795 L201.76956,102.506872 C202.938367,109.397037 202.393533,116.211629 199.991826,122.368292 L199.761222,122.943534 L199.709197,123.066524 L199.921898,123.20061 L200.167552,123.36142 L200.410151,123.523824 L200.885947,123.853392 C207.8588,128.795907 210.619051,135.963201 208.860652,142.840731 L208.761037,143.208632 L209.098247,143.182126 C221.107948,142.264407 231.536049,145.654656 238.73361,154.957995 L239.044507,155.366219 L239.327232,155.748832 C250.162699,170.634156 251.799084,183.380226 245.21659,196.506102 C244.099266,198.734111 242.813497,200.885243 241.116747,203.44885 L240.102343,204.957573 L235.85915,211.124782 L235.38347,211.826458 C222.27696,231.388141 188.378531,245.783748 164.374744,243.865372 L163.650417,243.802234 L163.117525,243.747082 L162.984129,243.904165 C148.677977,260.377839 127.884189,270.621957 105.048437,272.834532 L104.311097,272.903117 L103.572374,272.966117 C101.844558,273.113599 100.108183,273.212131 98.3716772,273.261697 C97.4677262,273.288102 96.5657758,273.301382 95.6658517,273.301382 C94.0369564,273.301382 92.4181965,273.261036 90.7826307,273.176825 L89.2763534,273.086263 L88.2337368,273.019615 C84.2274839,272.737282 80.1862703,272.181868 76.1624976,271.369478 L74.9559414,271.118067 L73.8511194,270.874146 C70.1672384,270.056116 66.4515264,269.000584 62.7621205,267.729743 L61.6260499,267.319928 L61.058808,267.119377 L60.8556667,267.045748 C59.0027943,266.355929 57.1529171,265.614795 55.2288042,264.79658 C48.921624,262.103282 43.1778935,259.004583 37.9679084,255.477284 C15.1658311,240.121856 2.87886581,217.0856 0.329335892,186.802964 C-0.29878111,179.256867 -0.0135005199,171.059803 1.05759322,162.29071 C2.45327581,150.864193 5.12929447,138.824585 8.70999138,126.607909 C10.3163242,121.127398 12.0196357,115.904471 13.739276,111.047806 L14.3571069,109.319942 Z" id="Path" fill="#FFFFFF" fill-rule="nonzero"></path>
            <g id="Thanksgiving/Stuffs/Cup" transform="translate(12.478461, 12.527559)">
                <path d="M18.3562026,75.391057 C18.3562026,75.391057 24.7618787,57.6219525 30.9683114,55.0892294 C37.1747441,52.5565064 47.4357805,50.0137725 47.4357805,50.0137725 C47.4357805,50.0137725 76.0172499,75.9917028 116.62306,79.9859973 C136.388008,81.9280854 147.286623,79.8458466 154.119676,77.7736187 C161.333285,75.5912723 164.022075,73.3989152 167.82862,75.9216275 C175.240476,80.8168906 183.279948,101.679321 169.691546,113.582118 C156.113107,125.484916 130.311083,121.100201 130.311083,121.100201 C130.311083,121.100201 22.1119411,101.298912 18.3562026,75.391057" id="Fill-2565" fill="#FDECE8"></path>
                <path d="M77.2326347,29.922171 C77.2326347,29.922171 45.3238002,9.22992359 47.4357805,50.0137725 C49.5477608,90.7976215 115.557108,86.3428319 115.557108,86.3428319 C115.557108,86.3428319 159.978429,89.2459532 164.241242,74.0095717 C168.505052,58.7631795 168.60567,48.0816953 156.421934,46.0695319 C144.238199,44.0573685 137.812598,51.6255054 116.672871,46.8703929 C95.5331434,42.1152804 77.2326347,29.922171 77.2326347,29.922171" id="Fill-2566" fill="#F7E2C6"></path>
                <path d="M102.367193,0 C102.367193,0 106.571229,13.7848208 98.9402059,15.9571564 C91.2992206,18.1395028 81.5153722,18.7601701 80.339836,31.7140976 C79.1752581,44.668025 122.072368,59.9344388 135.899861,53.1871844 C149.737317,46.4399301 149.707431,30.132397 143.361528,20.9024734 C137.015625,11.6825606 102.367193,0 102.367193,0" id="Fill-2567" fill="#EDEBE2"></path>
                <path d="M50.5140914,66.3313164 C50.5140914,66.3313164 45.3636489,58.4228136 43.5306093,65.8608106 C41.6876077,73.2988075 46.359866,81.0871813 49.8864746,79.1651147 C53.4031211,77.2330375 50.5140914,66.3313164 50.5140914,66.3313164" id="Fill-2568" fill="#784330"></path>
                <path d="M102.984847,68.9441256 C102.984847,68.9441256 111.213601,64.3692068 109.380561,71.8072038 C107.547522,79.2552116 99.7969527,83.9502595 97.5753885,80.5966539 C95.3637865,77.2430482 102.984847,68.9441256 102.984847,68.9441256" id="Fill-2569" fill="#784330"></path>
                <path d="M135.431639,56.6408977 C135.431639,56.6408977 143.659397,52.065979 141.826357,59.503976 C139.994314,66.9519837 132.242748,71.6470316 130.02218,68.293426 C127.810578,64.9298096 135.431639,56.6408977 135.431639,56.6408977" id="Fill-2570" fill="#E26031"></path>
                <path d="M118.167196,19.7312141 C118.167196,19.7312141 126.39595,15.1562954 124.561914,22.5942924 C122.719909,30.0322894 114.96934,34.7273373 112.757737,31.3737316 C110.536173,28.020126 118.167196,19.7312141 118.167196,19.7312141" id="Fill-2571" fill="#E26031"></path>
                <path d="M114.799983,93.0300217 C114.799983,93.0300217 123.018774,88.4551029 121.185734,95.9031107 C119.352695,103.341108 111.602126,108.036156 109.390524,104.68255 C107.168959,101.328944 114.799983,93.0300217 114.799983,93.0300217" id="Fill-2572" fill="#B43342"></path>
                <path d="M75.8478929,39.0019331 C75.8478929,39.0019331 70.6974504,31.0934302 68.8544487,38.5314272 C67.0214092,45.979435 71.6936675,53.7678087 75.210314,51.8357314 C78.7369226,49.9136649 75.8478929,39.0019331 75.8478929,39.0019331" id="Fill-2573" fill="#E26031"></path>
                <path d="M72.7396955,77.463285 C72.7396955,77.463285 80.968449,72.8883663 79.1354095,80.336374 C77.3023699,87.774371 69.5518007,92.4694189 67.3302365,89.1158133 C65.1186345,85.7622076 72.7396955,77.463285 72.7396955,77.463285" id="Fill-2574" fill="#E26031"></path>
                <path d="M144.746269,86.7332517 C144.746269,86.7332517 152.975023,82.1583329 151.141983,89.5963299 C149.308944,97.0443377 141.558375,101.739386 139.33681,98.3857799 C137.124212,95.0221635 144.746269,86.7332517 144.746269,86.7332517" id="Fill-2575" fill="#B43342"></path>
                <path d="M101.510446,38.7716856 C101.510446,38.7716856 96.3600036,30.8631827 94.5269641,38.3011797 C92.6939246,45.7491874 97.3661829,53.5275504 100.882829,51.6054839 C104.399476,49.6734066 101.510446,38.7716856 101.510446,38.7716856" id="Fill-2576" fill="#784330"></path>
                <path d="M142.703028,220.997607 C130.131764,236.884688 110.825076,246.394913 89.8547057,248.106753 C85.7602534,248.45713 81.6159901,248.487162 77.421916,248.206861 C72.9489011,247.946581 68.4360375,247.285871 63.9430983,246.264773 C60.7053926,245.543998 57.4477626,244.612997 54.2299813,243.501802 C53.692024,243.301587 53.1540668,243.111382 52.6161095,242.921178 C50.8727296,242.270478 49.1891226,241.589746 47.5453644,240.888993 C41.9565863,238.496421 36.9256898,235.773493 32.3829397,232.690178 C12.5283324,219.285766 2.47650155,199.424412 0.284823871,173.326353 C-2.52450843,139.489973 16.3737305,93.7608074 16.3737305,93.7608074 L171.40504,133.383408 C171.40504,133.383408 162.578556,195.900623 142.703028,220.997607" id="Fill-2577" fill="#D54B2B"></path>
                <path d="M47.5453644,240.888993 L47.5453644,240.888993 C41.9565863,238.496421 36.9256898,235.773493 32.3829397,232.690178 C28.5375416,220.406972 24.2836945,201.396532 24.1840727,177.23055 C23.964905,132.852837 32.2733558,105.363282 32.2733558,105.363282 L36.7961816,106.484487 C44.7360321,110.678997 53.4230454,114.413012 62.4686969,117.686531 C59.1214074,136.026249 47.1070288,204.009342 48.9998414,224.691578 C49.677269,232.209661 48.920144,237.365204 47.5453644,240.888993" id="Fill-2578" fill="#DF5433"></path>
                <path d="M63.9430983,246.264773 L63.9430983,246.264773 C60.7053926,245.543998 57.4477626,244.612997 54.2299813,243.501802 C55.2959336,234.251857 58.5137149,217.854227 61.8211558,195.269945 C66.4236789,163.766074 75.6586117,129.789544 77.6410838,122.671891 C87.5634064,125.635077 97.6351615,128.077703 107.437938,130.019791 C105.076903,141.772427 93.7997256,195.870591 81.2075411,219.455949 C74.1244373,232.740232 68.346378,241.259391 63.9430983,246.264773" id="Fill-2579" fill="#DF5433"></path>
                <path d="M83.0206563,248.397065 C81.1676924,248.397065 79.2948042,248.337001 77.421916,248.206861 C79.6125975,238.676614 90.392663,219.626132 97.0573556,206.592118 C105.215378,190.685016 118.525835,139.780285 120.438572,132.342288 C131.058246,134.024097 141.040342,135.085238 149.727355,135.525711 C147.346396,147.098153 138.549799,186.250248 124.762154,207.362947 C114.082706,223.750566 99.9663096,239.757777 89.8547057,248.106753 C87.5932929,248.296958 85.3119556,248.397065 83.0206563,248.397065" id="Fill-2580" fill="#DF5433"></path>
                <path d="M21.7034921,78.2641461 C21.7034921,78.2641461 36.0689431,94.071141 78.7070361,106.214197 C121.355091,118.367263 156.211732,116.845627 161.462793,116.114841 C166.712857,115.384056 194.547164,121.810966 179.763301,132.392342 C164.979439,142.98373 48.7906358,128.828511 9.07145893,86.3328211 C9.07145893,86.3328211 5.80386675,68.7038673 21.7034921,78.2641461" id="Fill-2581" fill="#C23E2B"></path>
                <path d="M164.531142,155.096753 C164.531142,155.096753 202.327619,131.391266 216.334432,150.671996 C230.341245,169.962736 221.763816,178.01139 212.120434,192.426889 C198.492183,212.818813 154.528125,226.503526 140.661779,214.891041 C126.784475,203.288567 153.642488,203.348631 153.642488,203.348631 C153.642488,203.348631 193.97932,194.028611 202.535829,177.811174 C211.104292,161.603749 186.736821,155.537227 177.432153,160.352404 C168.127485,165.167581 160.376916,167.830444 160.376916,167.830444 L164.531142,157.138949 L164.531142,155.096753" id="Fill-2582" fill="#D54B2B"></path>
                <path d="M139.555978,131.871783 C130.331008,131.871783 118.037688,128.898586 115.278167,126.536046 C111.094055,122.942182 115.746389,118.497403 115.746389,118.497403 C115.746389,118.497403 153.712224,122.852085 149.667582,128.978672 C148.292802,131.070921 144.33782,131.871783 139.555978,131.871783" id="Fill-2583" fill="#D84D2D"></path>
                <path d="M186.368221,150.8622 C186.368221,150.8622 197.934302,143.033783 205.714758,156.698475 C213.505176,170.353156 216.224848,155.236904 212.628504,151.282652 C209.042123,147.328401 201.032537,140.751329 186.368221,150.8622" id="Fill-2584" fill="#E15E3D"></path>
                <path d="M32.3231667,131.861772 C32.3231667,131.861772 26.7742373,162.584804 30.8487653,168.70138 C34.9232934,174.807946 39.49593,135.685883 40.193282,128.728403 C40.9005961,121.770923 34.2159792,124.183516 32.3231667,131.861772" id="Fill-2585" fill="#E15E3D"></path>
                <path d="M143.700241,184.057891 C143.700241,184.057891 131.456733,209.034745 122.171989,222.008694 C112.887246,234.992653 130.171613,226.55358 139.456356,209.49524 C148.731138,192.44691 157.297609,182.34605 143.700241,184.057891" id="Fill-2586" fill="#E15E3D"></path>
            </g>
        </g>
        <g id="Thanksgiving/Stickers/Leg" transform="translate(58.051065, 7.528283)">
            <path d="M123.860559,0 C109.839014,-0.0690593199 95.7665956,2.51372758 81.8385038,8.06752745 C67.5276593,13.7092543 53.5005089,22.5172959 40.0316357,34.5933243 C2.8110434,67.8741402 -7.57762683,107.758681 5.22896029,148.868304 C15.0889806,180.519337 38.602079,211.223848 66.0303637,232.755862 C86.3929463,248.781501 113.297336,261.983932 143.78181,272.736258 C153.785731,276.26479 163.513949,279.28558 172.640755,281.812575 L174.156265,282.229171 C174.673078,282.370208 175.18232,282.508103 175.683815,282.642861 L177.887664,283.228126 L179.297039,283.594841 L180.657298,283.942828 L181.967384,284.272125 L184.431248,284.87447 L184.854894,284.975233 L212.540482,318.852371 L212.270257,319.365177 C210.274523,323.195527 208.676043,327.255693 207.648517,331.524953 C203.697962,347.939092 209.220272,363.534537 226.129719,374.050816 C232.881447,378.262607 239.558703,380.459172 246.088827,380.497136 L246.7633,380.493061 L247.489217,380.470689 L247.721178,380.461213 C259.978791,379.846346 268.690164,372.257485 274.50889,361.157268 L274.916049,360.365015 C275.316385,359.570381 275.696355,358.768807 276.056878,357.962095 L276.428455,357.110372 L276.551007,357.120946 C279.328182,357.327728 282.121616,357.315629 284.907175,357.032171 C300.145244,355.481548 311.546609,345.974971 313.782469,328.562093 C314.949076,319.349075 312.390596,311.128289 306.678556,304.724176 C302.222437,299.728152 296.26578,296.222321 289.187343,293.779068 L288.342882,293.493981 C282.448778,291.548283 276.332238,290.442994 270.490299,289.916443 L269.433801,289.827404 L250.652045,250.605773 L250.68083,250.535047 C250.914103,249.928528 251.147684,249.30638 251.381251,248.6685 L251.848269,247.371731 C252.315075,246.053925 252.78096,244.672913 253.243334,243.227871 L253.704442,241.761454 C254.853805,238.041901 255.975832,233.920435 257.030067,229.384158 C260.697955,213.601575 262.612779,196.36035 262.09943,177.960127 C260.68975,127.432264 241.481148,76.3215258 199.413566,27.6104061 C198.981607,27.1102308 198.510701,26.6451041 198.005271,26.2193968 L197.468162,25.7785409 L196.729019,25.194869 L196.284537,24.8522035 C195.878713,24.5416931 195.451679,24.2213425 195.00369,23.8919983 L194.079849,23.2215694 C193.445429,22.766957 192.774058,22.2973596 192.066338,21.8147841 C187.602028,18.7706863 182.492888,15.747467 176.790881,12.9317959 C161.119549,5.19323781 143.898217,0.395691466 125.555597,0.0228925351 L123.860559,0 Z" id="Path" fill="#FFFFFF" fill-rule="nonzero"></path>
            <g id="Thanksgiving/Stuffs/Leg" transform="translate(12.536784, 12.508180)">
                <path d="M61.2093879,210.55446 C104.888434,244.955041 176.830038,260.856398 176.830038,260.856398 C176.830038,260.856398 177.119663,260.367033 177.71098,259.491008 C181.67522,253.799869 198.799289,231.476345 222.500255,234.605867 L224.672441,237.940802 C224.672441,237.940802 224.744848,237.771639 224.931897,237.403104 L224.974134,237.378938 C228.703054,228.793897 269.413446,129.899778 177.415322,23.296643 C177.415322,23.296643 131.18999,-15.6653076 73.9287455,7.18383134 C61.6317575,12.0351953 48.785689,19.8046276 35.8370451,31.4225266 C-37.5225136,97.0639584 17.51224,176.226377 61.2093879,210.55446" id="Fill-2661" fill="#C34D2C"></path>
                <path d="M196.542629,140.073747 C211.440207,187.759695 220.002241,218.136604 224.974134,237.378938 C228.703054,228.793897 269.413446,129.899778 177.415322,23.296643 C177.415322,23.296643 131.18999,-15.6653076 73.9287455,7.18383134 C87.3781991,10.1743982 162.66859,31.6943963 196.542629,140.073747" id="Fill-2662" fill="#CF6C3A"></path>
                <path d="M61.2093879,210.55446 C104.888434,244.955041 176.830038,260.856398 176.830038,260.856398 C176.830038,260.856398 177.119663,260.367033 177.71098,259.491008 C159.868883,246.755422 133.060484,223.042342 100.610434,180.09901 C40.5917195,100.65868 35.8370451,31.4225266 35.8370451,31.4225266 C-37.5225136,97.0639584 17.51224,176.226377 61.2093879,210.55446" id="Fill-2663" fill="#963D29"></path>
                <path d="M220.18929,351.165475 C248.071715,368.571178 255.372675,330.594 255.372675,330.594 C255.372675,330.594 285.523827,340.544432 288.842445,314.68056 C292.112792,288.834812 248.880251,289.735003 248.880251,289.735003 L222.500255,234.605867 C210.698043,225.72479 200.862866,228.848271 193.441229,235.39731 C187.057415,241.028034 182.429452,249.159959 179.925404,254.391941 C179.852997,254.561104 179.780591,254.730267 179.708185,254.899431 C178.652261,257.110638 178.012673,258.747897 177.795454,259.255388 C177.723048,259.424551 177.71098,259.491008 177.71098,259.491008 L215.41048,305.654485 C215.41048,305.654485 192.270662,333.78998 220.18929,351.165475" id="Fill-2664" fill="#FFF6D2"></path>
                <path d="M220.18929,351.165475 C248.071715,368.571178 255.372675,330.594 255.372675,330.594 L193.797227,234.762947 L190.032104,237.886428 C184.185302,242.743834 180.643432,249.588909 178.610024,256.917308 L178.60399,256.929391 L177.795454,259.255388 C177.723048,259.424551 177.71098,259.491008 177.71098,259.491008 L215.41048,305.654485 C215.41048,305.654485 192.270662,333.78998 220.18929,351.165475" id="Fill-2665" fill="#EACB83"></path>
            </g>
        </g>
        <g id="Thanksgiving/Stickers/Leaf1" transform="translate(0.840194, 171.275178)">
            <path d="M78.7697702,4.485961 C74.0078326,8.41190183 71.3553258,12.7562959 68.7379632,19.4361826 L68.3453631,20.4559214 L67.9517345,21.5121304 L66.7400002,24.885805 L66.2852452,26.1252382 L65.989117,26.9020537 L65.7219497,27.5713583 L65.4751415,28.1542353 L65.3176655,28.505216 L65.1628664,28.8334018 L65.1064575,28.9470608 L63.6497451,27.3488356 L62.110615,25.6744164 L60.0708136,23.4755223 C56.9727807,20.1527036 53.7048353,16.7236369 50.3017608,13.2409949 L48.0134069,10.9118745 C47.2442037,10.1332407 46.4687092,9.3525392 45.6873051,8.57034808 C37.0283743,-0.0973032874 26.1407267,-1.30786365 16.9446013,4.53753096 L16.4529537,4.85727597 C11.5765614,8.10125387 7.89625117,12.7346349 4.83282079,18.1784547 L4.71267023,18.3964306 L4.98304284,17.9642017 C3.89839129,19.642702 2.98360536,21.4911215 2.22126763,23.5052196 C-2.99224279,37.2793267 1.29234628,50.5584338 11.718234,61.3913409 L12.2070853,61.8927588 C18.454076,68.2188414 26.7660146,73.5784029 34.8311481,77.0025944 L35.0569243,77.0959368 L34.8494364,77.9896168 L34.5887509,79.0383897 L33.9543179,81.4653414 L32.8907022,85.4105403 L32.5410308,86.7274949 C32.4847971,86.9420437 32.4295767,87.1542004 32.3753559,87.3640848 L32.0619187,88.5970803 L31.77182,89.7812842 L31.5044055,90.9224412 C31.3762604,91.4832154 31.2563766,92.0300013 31.1443862,92.5660305 L30.9308208,93.6247037 C30.4565501,96.0659437 30.1488378,98.3198395 29.97029,100.714802 C29.6892667,104.484327 29.8313169,108.104728 30.4825506,111.639069 C32.2337729,121.14321 38.7552482,127.419557 47.8293377,128.433839 C52.7886595,128.988181 57.519044,128.086007 63.8634539,125.99206 L65.1120534,125.57197 L66.131946,125.218085 L67.1363559,124.861793 L69.0972462,124.151065 L71.3613219,123.321484 L72.604322,122.870217 L73.8957972,122.411179 L75.068607,122.007094 L75.7898001,121.766751 L76.7884377,121.447582 L77.3059006,121.289577 L77.2600209,122.208299 L77.1464485,124.036208 L76.9855597,126.297644 L76.7532795,129.415137 L76.6389259,131.07354 L76.5436173,132.609316 L76.4906483,133.575117 L76.4461284,134.501528 L76.4100512,135.394597 L76.3824108,136.260367 C76.3785067,136.402723 76.374954,136.544193 76.3717523,136.684904 L76.3567553,137.52106 L76.3501795,138.34503 L76.3520188,139.162859 L76.362267,139.980592 C76.3646755,140.117208 76.367434,140.254073 76.3705426,140.391311 L76.3933927,141.220233 C76.3979007,141.359471 76.4027584,141.499333 76.4079657,141.639948 C76.7757788,151.572091 79.1272799,160.049701 84.5467925,167.380742 C90.727811,175.723314 99.4913302,179.023142 108.742591,176.549922 C113.654057,175.236898 117.667029,172.86553 123.064134,168.639825 L124.031398,167.874701 C124.195158,167.743918 124.360231,167.611491 124.526676,167.477399 L125.542271,166.652704 L126.988294,165.461235 L129.657253,163.249588 L130.430773,162.615621 L131.11771,162.058623 L131.487818,161.761527 C131.757393,161.546061 132.020089,161.338185 132.276249,161.137673 L133.025464,160.558009 C133.14718,160.465006 133.267348,160.373789 133.38601,160.284329 L134.080266,159.768436 L134.740459,159.29338 C134.847767,159.217533 134.953742,159.143331 135.058426,159.070747 L135.671388,158.654433 C136.169857,158.32331 136.638211,158.031233 137.081816,157.774711 L137.602605,157.483728 L137.77162,157.393733 L137.847639,157.944127 L137.927519,158.620251 L138.002342,159.360689 L138.072706,160.171386 L138.117434,160.753819 L138.202454,162.027335 L138.302241,163.841114 L138.416129,166.379405 L138.633529,171.862739 L138.751732,174.39444 L138.855143,176.254997 L138.921519,177.28932 L139.017257,178.599465 L139.095855,179.547064 L139.152074,180.169284 C139.258184,181.305963 139.381542,182.426736 139.53081,183.637479 C141.146953,196.746308 145.081964,207.260697 153.046475,215.759416 C162.06109,225.376751 173.452043,227.564789 182.450453,219.124884 C184.935299,216.794266 186.804189,214.196899 188.570654,210.685098 L188.934837,209.945258 C189.055856,209.694154 189.176557,209.438488 189.297107,209.178048 L189.658476,208.382193 L190.019954,207.556418 C190.080265,207.416225 190.140624,207.274731 190.201049,207.131912 L190.564586,206.258867 L190.930758,205.352716 C190.992063,205.198861 191.053519,205.043573 191.115149,204.886827 L191.48717,203.928626 L192.055196,202.422875 L192.442019,201.371551 L192.83653,200.280746 L195.510551,192.663189 L196.114141,190.981892 L196.498764,189.934169 L196.870534,188.942079 L197.262263,187.921556 L197.427964,189.395781 L197.623753,190.986204 C198.672381,199.233072 200.193163,205.250341 203.311567,210.743351 C207.898431,218.823027 215.390311,223.914423 225.23326,224.889369 C233.781608,225.75022 241.354458,222.534345 246.894284,216.223287 C251.017164,211.526437 253.839495,205.408692 255.797624,198.017061 L256.003475,197.222882 C258.230559,188.43988 259.231016,178.111242 259.352523,166.891133 L259.358437,166.174257 L261.388211,163.517717 L261.582232,163.25692 C262.829962,161.534274 263.575477,159.5948 263.843565,157.617108 L263.891143,157.207722 L263.932814,157.118484 C266.582664,151.208683 269.087377,144.888313 271.116585,138.555164 C274.940903,126.619488 276.525778,116.544031 274.755006,108.103293 C272.495603,97.2034623 263.581707,92.2544107 253.498381,93.8033542 L252.912867,93.899744 L252.220902,94.0242414 L251.77358,94.1109073 L251.118041,94.2482554 L250.688079,94.3457981 L250.048193,94.5029258 L249.621743,94.6159644 L249.19282,94.7364947 L248.539953,94.9329539 L247.869058,95.1504267 L247.172659,95.3914076 L246.443277,95.6583907 L245.935006,95.852057 L245.134034,96.1679203 L244.280139,96.5164376 L243.365842,96.9001031 L242.039895,97.4706434 L239.785934,98.4648629 L235.026875,100.601517 L233.919677,101.089356 L233.504883,101.269308 C233.195203,101.402944 232.893924,101.531314 232.600837,101.654502 L231.745947,102.008602 L230.938969,102.332102 C230.677823,102.434891 230.424456,102.532663 230.178659,102.6255 L229.463771,102.889291 L228.793061,103.12397 C228.576716,103.1974 228.367527,103.26606 228.165285,103.330034 L227.6245,103.493514 L227.595488,103.202739 C227.548279,102.705068 227.512039,102.158779 227.488263,101.565295 L227.466925,100.887989 L227.454841,100.21553 L227.45128,99.5343512 L227.456565,98.8377942 L227.477934,97.8736193 L227.516378,96.8544804 L227.572666,95.7645918 L227.627055,94.8912501 L227.692239,93.9625728 L227.82575,92.2737221 L228.028851,89.976376 L228.376698,86.3663576 L228.841452,81.7055372 L229.043224,79.5827281 L229.21908,77.6243484 L229.334142,76.2529647 L229.434915,74.9568813 L229.547268,73.3331699 L229.615184,72.1841355 L229.652745,71.446757 L229.697604,70.3781986 L229.728794,69.3481023 L229.742055,68.6791009 L229.75074,67.6967354 L229.746085,66.733185 L229.735634,66.0976325 L229.709024,65.1490679 L229.68405,64.516684 L229.635829,63.5626394 L229.616905,63.2420747 C229.017379,53.4286649 226.089095,45.8128204 218.794201,41.0889989 C211.634174,36.4183729 203.628642,37.0661258 196.355037,41.2833448 C192.162216,43.7143319 188.313779,47.1549437 183.72336,52.1241947 L182.746712,53.1917607 L181.770751,54.2775647 L180.170409,56.0920896 L175.29448,61.6982254 L174.909438,62.1360432 L174.929829,59.7652654 L175.001421,53.7281296 L175.007205,52.3559572 L175.00541,51.0191537 C175.004435,50.7993712 175.003116,50.5810815 175.001443,50.3642604 L174.987064,49.0807615 C174.983932,48.8697172 174.980424,48.6600929 174.976532,48.4518642 L174.948479,47.2190447 L174.910702,46.018553 L174.862716,44.8492224 C174.844966,44.4645094 174.825433,44.0847954 174.804037,43.7098861 L174.734179,42.5993773 C174.721577,42.4166299 174.70849,42.2350351 174.694906,42.0545686 L174.60737,40.9851134 C174.076678,34.9993826 172.949108,30.2616801 170.827366,25.8166212 C159.052349,1.281919 130.320947,0.0837712836 117.070668,24.5846324 L116.571601,25.5016006 C116.250707,26.0884594 115.920542,26.6864703 115.592993,27.2737041 L114.678711,28.8967646 L114.539628,29.1390723 L114.420396,28.6978285 C112.241476,20.7287093 109.8507,14.5009436 106.7227,9.77024838 C103.919712,5.53109265 100.471721,2.37180622 95.7978472,0.847745969 C89.7712701,-1.11740479 83.6912873,0.431321825 78.7697702,4.485961 Z" id="Sticker" fill="#FFFFFF" fill-rule="nonzero"></path>
            <g id="Leaf4-Copy" transform="translate(12.530264, 12.512079)">
                <path d="M232.159664,133.586371 C232.159664,133.586371 238.655538,201.551215 212.593781,198.923607 C186.492892,196.335217 203.476079,149.273582 185.201544,153.195385 C166.96614,157.117188 168.257488,214.610818 148.687691,193.707609 C129.121808,172.8044 145.439755,133.586371 128.499613,130.997981 C111.555557,128.370373 94.5723703,164.294088 81.5414918,146.685193 C68.5106132,129.03708 83.494167,100.917753 72.42379,95.7017552 C61.3494998,90.4857573 33.2920226,114.016575 30.0440859,96.3684617 C26.7961492,78.7203487 43.0749644,58.4446278 30.0440859,53.8953365 C17.0132074,49.3068271 -5.800613,34.2863221 1.36050043,15.3440142 C8.52161386,-3.59829372 29.3788459,20.560012 29.3788459,20.560012 L187.158132,103.545361 L232.159664,133.586371" id="Fill-2764" fill="#E47B2C"></path>
                <path d="M24.1743208,4.8728005 C11.1434423,-8.18680308 1.36050043,15.3440142 1.36050043,15.3440142 L234.790604,141.184904 C234.790604,141.184904 251.725548,113.349868 248.43848,97.6626566 C245.190543,81.9754451 215.215609,112.055673 204.767427,100.917753 C194.319245,89.8190509 211.298519,47.3459257 198.232422,38.8748315 C185.201544,30.3645192 166.96614,70.2100365 155.22661,68.9158415 C143.48708,67.6216466 153.270021,33.6196156 146.108908,18.5991106 C138.908663,3.57860555 123.252043,2.2844106 114.799581,17.9324041 C106.311901,33.6196156 95.9028504,49.3068271 93.281022,36.91393 C90.6591936,24.4818149 84.7894285,-7.52009659 73.7112251,1.61770411 C62.6408481,10.7555048 67.84146,34.2863221 46.3620329,28.4036178 C46.3620329,28.4036178 37.2051993,17.9324041 24.1743208,4.8728005 Z" id="Fill-2765" fill="#9E3C2A"></path>
                <path d="M49.4103976,46.2478209 C65.5365989,54.7189151 106.233637,76.0535228 145.561063,97.3881304 C165.244342,108.055434 184.575435,118.68352 200.306406,127.703667 C208.211023,132.21374 215.176477,136.292415 220.850584,139.78282 C223.843202,141.615674 227.100708,143.73059 230.623099,146.127568 C232.170841,147.180806 234.271965,146.840116 235.407601,145.35178 C236.47241,143.956267 236.204322,141.961783 234.80881,140.896974 C234.760308,140.859966 234.71075,140.824361 234.660201,140.790203 C229.967739,137.619693 225.677587,134.852381 221.789746,132.488266 C197.371523,117.742287 153.309153,93.7800718 115.269162,73.4651329 C91.0899114,60.5746823 68.748154,48.7779828 48.2438896,38.0750341 C46.6040222,37.2190785 44.5807478,37.8545326 43.7247663,39.4943865 C43.7233869,39.4970291 43.722011,39.4996736 43.7206386,39.5023199 C42.8659443,41.1504201 43.5075306,43.179348 45.1544032,44.0364054 C46.3944036,44.6817191 47.8130684,45.4188576 49.4103976,46.2478209 Z" id="Fill-2766" fill="#62261D"></path>
                <path d="M58.5477845,73.8118166 L82.1767115,62.7488461 L82.1767115,62.7488461 L77.5891833,58.0132295 L55.8670378,67.7445805 C54.178893,68.5008562 53.4190775,70.4790155 54.1668639,72.1709379 C54.897508,73.8240745 56.829944,74.5719023 58.4830806,73.8412583 C58.5047545,73.8316789 58.5263238,73.8218645 58.5477845,73.8118166 Z" id="Fill-2767" fill="#62261D"></path>
                <path d="M95.6151465,104.936782 L134.838959,91.0348097 L134.838959,91.0348097 L132.569316,84.6814891 L93.3833884,98.6191662 C91.6400295,99.2392452 90.7276732,101.153574 91.3439995,102.898263 C91.9592988,104.640045 93.8700907,105.55324 95.6118725,104.937941 C95.6129641,104.937555 95.6140554,104.937169 95.6151465,104.936782 Z" id="Fill-2768" fill="#62261D"></path>
                <path d="M144.322564,127.554831 L183.919307,117.654086 L183.919307,117.654086 L179.13612,111.388967 L142.62944,121.003898 C140.831442,121.477445 139.754297,123.315122 140.219577,125.115277 C140.685306,126.91717 142.517041,128.006283 144.322564,127.554831 Z" id="Fill-2769" fill="#62261D"></path>
                <path d="M172.529157,148.097484 L215.224721,133.341298 L215.224721,133.341298 L206.919674,129.115516 L170.338137,141.745203 C168.583743,142.350903 167.652304,144.263914 168.257488,146.018486 C168.862245,147.771818 170.773853,148.702921 172.527185,148.098164 C172.527842,148.097938 172.528499,148.097711 172.529157,148.097484 Z" id="Fill-2770" fill="#62261D"></path>
                <path d="M181.685951,78.5358803 L186.58001,115.583822 L186.58001,115.583822 L193.732269,118.761956 L188.299599,77.6730336 C188.058076,75.8463224 186.382994,74.560171 184.555869,74.7985458 C182.732601,75.0364176 181.447383,76.7073021 181.685254,78.5305708 C181.685485,78.5323408 181.685718,78.5341107 181.685951,78.5358803 Z" id="Fill-2771" fill="#62261D"></path>
                <path d="M116.539767,48.6129364 L115.351339,76.6025752 L115.351339,76.6025752 L122.042871,80.7989042 L123.247077,48.8880952 C123.316883,47.0382656 121.877175,45.4805144 120.027585,45.4046333 C118.178995,45.3287932 116.618253,46.7644572 116.539767,48.6129364 Z" id="Fill-2772" fill="#62261D"></path>
                <path d="M77.6704227,31.4556059 L90.1504806,63.5821896 L90.1504806,63.5821896 L97.8294184,66.6706489 L83.8826131,29.0426443 C83.2479032,27.3302184 81.3451736,26.4565571 79.6327478,27.091267 C79.616753,27.0971955 79.6008045,27.1032476 79.5849034,27.1094228 C77.8561198,27.7808032 76.9989251,29.7265205 77.6703055,31.4553041 C77.6703445,31.4554047 77.6703836,31.4555053 77.6704227,31.4556059 Z" id="Fill-2773" fill="#62261D"></path>
            </g>
        </g>
    </g>
</svg>