<?xml version="1.0" encoding="UTF-8"?>
<svg width="653px" height="248px" viewBox="0 0 653 248" version="1.1" xmlns="http://www.w3.org/2000/svg" xmlns:xlink="http://www.w3.org/1999/xlink">
    <title>decoration-5</title>
    <g id="decoration-5" stroke="none" stroke-width="1" fill="none" fill-rule="evenodd">
        <g id="Thanksgiving/Stickers/Mushroom2" transform="translate(2.760042, 8.103327)">
            <path d="M108.802691,3.08607948 C96.5319999,5.96153068 84.1192008,10.7231368 72.2580445,17.2927723 L71.4418422,17.7500547 C45.0906645,32.6213634 23.0958634,55.5238898 8.20576873,86.0118499 L7.55915426,87.34916 L7.31468141,87.7752549 L6.90577058,88.5118121 L6.60749246,89.0660868 C5.71297585,90.7487587 4.82725014,92.6047876 3.99858356,94.6077404 C1.53975812,100.550916 0.0255536066,106.614798 0,112.735938 C-0.0275479059,120.056789 2.14105803,126.867545 6.98465836,132.439651 L7.14067504,132.615469 C7.75697133,133.298214 8.53651863,134.028886 9.46817606,134.802482 L9.99137118,135.22867 L10.5443351,135.663192 C10.6389542,135.736297 10.7347969,135.809741 10.8318549,135.883522 L11.4287187,136.330206 C11.5306042,136.405315 11.6336883,136.480752 11.7379624,136.556515 L12.3778222,137.014955 L13.0458437,137.481006 L13.7416252,137.954489 L14.4647649,138.435223 L15.2148609,138.923027 C15.342101,139.004907 15.4704475,139.087074 15.599892,139.169525 L16.3896694,139.667596 L17.2053987,140.172288 L18.0466782,140.683418 C18.1889983,140.769133 18.3323663,140.855109 18.4767737,140.941342 L19.3556252,141.461792 L20.7198001,142.253639 L21.6592627,142.788721 L23.1124709,143.60167 L24.1100334,144.150257 L25.6485082,144.982616 L27.2363351,145.825809 L28.3216345,146.393657 L29.4278637,146.965868 L31.7015042,148.122662 L33.4586872,149.000372 L35.2588941,149.886074 L36.4822647,150.480682 L38.3511651,151.378352 L39.7846557,152.058089 L39.5233092,152.609512 C33.9795019,164.341059 28.4095909,177.337345 23.909579,190.015066 C19.7945304,201.608244 17.0322207,211.769975 15.9289252,220.30862 C15.2391007,225.647323 15.1854124,230.412049 15.9225811,234.687303 C16.9273904,240.514756 19.4150249,245.508991 23.8219931,249.080154 C28.2894205,252.699787 34.707253,256.111622 42.2505851,259.108751 L43.5545991,259.618444 C44.2119648,259.871221 44.8772532,260.120863 45.5499448,260.367242 L46.905045,260.855609 C51.4539226,262.468736 56.3164388,263.932935 61.3386755,265.209602 L62.8499842,265.586937 C63.1026163,265.648876 63.3556092,265.710336 63.6089437,265.771313 L65.1328956,266.131336 C66.151391,266.367434 67.1747361,266.595644 68.2016994,266.815657 L69.7447042,267.139492 L71.2922129,267.450801 C80.4859119,269.260336 89.1556861,270.214388 96.2480756,270.108515 C100.410399,270.046381 104.100973,269.626464 107.338261,268.750846 C112.097068,267.46369 116.072637,265.196026 118.85314,261.256448 L119.112436,260.87766 L119.368714,260.479566 C119.496116,260.275667 119.622426,260.06447 119.747702,259.845888 L119.996895,259.398849 L120.243439,258.931961 L120.487438,258.445066 L120.728999,257.93801 L120.968227,257.410636 L121.205227,256.862789 C121.244547,256.769766 121.283779,256.675884 121.322925,256.581139 L121.556781,256.00229 L121.788674,255.402578 C121.827164,255.300878 121.865578,255.198304 121.903916,255.09485 L122.13306,254.463552 L122.360504,253.811002 L122.586353,253.137044 L122.810713,252.441523 L123.033689,251.724283 L123.255386,250.985168 L123.47591,250.224022 L123.804728,249.040655 L124.131499,247.806843 L124.348386,246.956018 L124.564627,246.082382 L124.888009,244.728821 L125.210531,243.323063 L125.425244,242.356633 L125.639838,241.366616 L125.85442,240.352854 L126.069094,239.315193 L126.283966,238.253476 L126.606876,236.615457 L126.930825,234.922438 L127.147544,233.762943 L127.474014,231.977088 L127.802473,230.134832 L128.244126,227.589845 L128.578607,225.61394 L129.143306,222.191274 L129.71847,218.604636 L130.360403,214.49174 C131.851863,204.787967 133.268866,194.514206 134.556544,184.424198 L135.126142,184.527319 C145.551397,186.390659 155.012778,187.247665 163.380084,186.979289 C178.472053,186.495223 190.389396,182.366139 198.09429,173.356204 C205.582582,164.585307 209.379169,152.713044 210.156303,138.470404 L210.207162,137.535656 C210.60926,129.402693 210.006918,120.444344 208.504058,110.801556 L208.412781,110.232437 L208.394552,110.06346 C208.377828,109.934084 208.359056,109.804826 208.33823,109.675732 C204.390536,85.2049231 194.702906,57.0452588 183.386696,35.1079523 C179.222792,27.0190114 175.044983,20.2084953 171.107115,15.1821203 L170.881688,14.9027362 L170.80275,14.8103681 L170.721077,14.7073988 C168.597945,12.0581337 166.515352,9.88895827 164.381948,8.18160843 L163.895835,7.80129779 C155.938318,1.73655964 142.952919,-0.757033246 127.964737,0.198054722 L126.69343,0.28697316 C122.865613,0.578340598 118.914547,1.09114325 114.889527,1.8233856 L113.545182,2.07559104 C113.32069,2.11897894 113.095987,2.16304343 112.871082,2.20778418 L111.51928,2.48434102 C111.293597,2.53178543 111.067727,2.57990541 110.84168,2.62870062 L109.483335,2.9295719 C109.256611,2.98106666 109.029727,3.03323597 108.802691,3.08607948 Z" id="Sticker" fill="#FFFFFF" fill-rule="nonzero"></path>
            <g id="Thanksgiving/Stuffs/Mushroom2" transform="translate(12.481191, 12.487165)">
                <path d="M43.4900072,134.471711 C43.4900072,134.471711 3.02850019,213.407935 19.1632735,226.482588 C35.288081,239.547275 89.2832645,250.648772 96.0002733,241.13178 C102.717282,231.624753 111.706513,151.841467 111.706513,151.841467 C111.706513,151.841467 59.7244394,108.222751 43.4900072,134.471711" id="Fill-2608" fill="#F0EDDA"></path>
                <path d="M175.807108,152.479255 C148.101938,184.87689 13.8813527,122.991528 3.91546426,111.561172 C-6.02052649,100.130817 6.08802794,80.5985608 6.08802794,80.5985608 C21.176383,48.7689562 43.3604506,28.1205715 65.7039725,15.693672 C77.0750512,9.39551605 88.4660616,5.21003266 98.970108,2.74856981 C119.35035,-1.99497803 136.421917,-0.231095743 143.58739,5.22996353 C145.082274,6.37598875 146.746577,8.10997472 148.520505,10.3721288 L148.530471,10.3721288 C151.918873,14.6971283 155.695945,20.8557682 159.522846,28.2899839 C169.269485,47.1844518 179.19551,74.1608887 183.201797,98.9947568 L183.191831,99.0146877 C184.676748,108.172924 185.354429,117.022232 184.876066,125.074305 C184.268147,136.215663 181.507596,145.802413 175.807108,152.479255" id="Fill-2609" fill="#DF4F2A"></path>
                <path d="M150.992046,73.96158 C146.766509,84.8637677 134.4985,90.2749998 123.595818,86.0496546 C112.693136,81.8243095 107.281659,69.556857 111.507196,58.6546693 C115.732732,47.7524817 128.000741,42.3412496 138.903423,46.5665947 C149.806105,50.7919398 155.217582,63.0593923 150.992046,73.96158" id="Fill-2610" fill="#F0EDDA"></path>
                <path d="M101.810386,21.2045585 C98.0731781,30.8411357 87.2302915,35.6245453 77.5932774,31.8875065 C70.6071896,29.1769078 66.1823351,22.7292703 65.7039725,15.693672 C77.0750512,9.39551605 88.4660616,5.21003266 98.970108,2.74856981 C102.986361,7.79108075 104.301858,14.7768518 101.810386,21.2045585" id="Fill-2611" fill="#F0EDDA"></path>
                <path d="M159.044483,29.774834 C156.154376,37.2190151 147.773064,40.9261576 140.318579,38.0361809 C132.87406,35.1561697 129.16675,26.7553067 132.056858,19.3111255 C134.657954,12.5944212 141.693872,8.9470714 148.520505,10.3721288 L148.530471,10.3721288 C151.918873,14.6971283 155.695945,20.8557682 159.522846,28.2899839 C159.383324,28.7882557 159.233835,29.2865276 159.044483,29.774834" id="Fill-2612" fill="#F0EDDA"></path>
                <path d="M184.876066,125.074305 C179.604111,132.129834 170.126551,135.119465 161.496092,131.781043 C151.131568,127.755007 145.999135,116.125342 150.015389,105.751323 C154.031642,95.4071996 165.681765,90.2550689 176.046289,94.2811053 C178.836738,95.3573725 181.238517,96.9917041 183.201797,98.9947568 L183.191831,99.0146877 C184.676748,108.172924 185.354429,117.022232 184.876066,125.074305" id="Fill-2613" fill="#F0EDDA"></path>
                <path d="M58.3391809,63.0095651 C55.5188345,70.2843339 47.3368401,73.8918219 40.0717074,71.0716034 C32.7966089,68.2513848 29.1889573,60.0697613 32.0093037,52.804958 C34.8296501,45.5401547 43.0116445,41.9326667 50.2767772,44.7528852 C57.5419099,47.5631384 61.1495615,55.7447618 58.3391809,63.0095651" id="Fill-2614" fill="#F0EDDA"></path>
                <path d="M64.1094303,63.737042 C66.6507319,57.1997156 74.0055575,53.9509832 80.5531462,56.4921696 C87.090769,59.0233905 90.3396486,66.3878482 87.7983471,72.9251746 C85.2670114,79.4724665 77.9022199,82.7112334 71.3645971,80.1800125 C64.8170084,77.6388261 61.5681288,70.2843339 64.1094303,63.737042" id="Fill-2615" fill="#F0EDDA"></path>
                <path d="M76.2777801,155.628333 L70.5573601,172.34037 C70.0690316,173.755462 70.8264391,175.310071 72.2515612,175.788412 C73.6667173,176.276718 75.21143,175.519345 75.6997586,174.104253 L81.4201785,157.392216 C81.908507,155.977124 81.1510995,154.422515 79.7359434,153.944174 C78.3108213,153.455868 76.7661086,154.213241 76.2777801,155.628333" id="Fill-2616" fill="#EFD1A3"></path>
                <path d="M82.9748571,169.609841 L78.520105,183.023319 C78.0517082,184.448376 78.8190816,185.993019 80.2541696,186.461394 C81.6792916,186.939735 83.2140384,186.162431 83.6924011,184.737374 L88.1371873,171.323896 C88.6055841,169.898838 87.8382106,168.354196 86.4130886,167.88582 C84.9780007,167.417445 83.4432539,168.184783 82.9748571,169.609841" id="Fill-2617" fill="#EFD1A3"></path>
                <path d="M58.3192491,188.354827 L54.312962,206.491922 C53.9940536,207.956841 54.9208812,209.411795 56.3858668,209.730689 C57.8508524,210.059548 59.3058721,209.132763 59.6247805,207.657878 L63.6310677,189.530749 C63.9499761,188.065829 63.0231485,186.610876 61.5581629,186.291982 C60.0931773,185.963122 58.6381576,186.889908 58.3192491,188.354827" id="Fill-2618" fill="#EFD1A3"></path>
                <path d="M79.5665233,201.88789 L76.4372343,215.809605 C76.10836,217.28449 77.0252217,218.739443 78.4902073,219.068303 C79.9551929,219.397162 81.4102126,218.470377 81.7490528,217.005457 L84.8783418,203.083742 C85.2072161,201.618823 84.2803885,200.16387 82.8154029,199.825045 C81.3504173,199.496185 79.8953976,200.422971 79.5665233,201.88789" id="Fill-2619" fill="#EFD1A3"></path>
                <path d="M94.1565839,168.164853 L89.6420365,187.607419 C89.3031962,189.072339 90.2100921,190.527292 91.6750777,190.876083 C93.1400633,191.214907 94.6050489,190.298087 94.9438891,188.833168 L99.4584365,169.390601 C99.7972768,167.925682 98.8903809,166.460763 97.4253953,166.121938 C95.9604097,165.783113 94.4954241,166.699933 94.1565839,168.164853" id="Fill-2620" fill="#EFD1A3"></path>
                <path d="M66.3916188,200.901312 L64.7273154,216.905803 C64.5678612,218.400619 65.654143,219.735987 67.1490263,219.895434 C68.6439096,220.044916 69.9793386,218.968648 70.1387928,217.473833 L71.8030962,201.459376 C71.9625504,199.964561 70.8762686,198.629192 69.3813853,198.479711 C67.886502,198.320264 66.551073,199.406496 66.3916188,200.901312" id="Fill-2621" fill="#EFD1A3"></path>
            </g>
        </g>
        <g id="Thanksgiving/Stickers/Apple" transform="translate(120.986434, 11.731927)">
            <path d="M170.476543,70.3010584 L169.65642,70.1037091 L168.733966,69.8923802 L167.571742,69.6418596 C167.185338,69.5615129 166.799969,69.4843373 166.415732,69.410365 L165.095595,69.1663151 L164.185352,69.0115744 L163.379671,68.8836611 C158.820275,68.1839284 154.368529,67.9112759 150.203724,68.0768079 L149.545133,68.107434 L149.590549,68.0330448 C158.170054,53.6990223 160.191315,34.2126434 154.626043,9.74528365 C152.880544,2.07131173 144.606889,-2.08150091 137.457961,1.05119552 L137.04804,1.2389262 L136.53325,1.48777963 L135.905014,1.80238579 L135.167451,2.18290145 L134.617038,2.47327236 C132.803318,3.43825615 130.807859,4.5818572 128.674438,5.9067097 C122.62248,9.66497195 116.580569,14.1694173 110.903977,19.4618964 L110.386017,19.9479115 C101.444009,28.3924947 94.3763599,37.8937888 89.7948941,48.4483947 L89.6441226,48.7988941 L89.55124,48.7282444 C86.9018582,46.7678134 83.5768749,45.9299714 80.3004934,46.4183829 L64.3054439,48.8027717 C54.3039777,50.2936945 50.1601643,62.4306707 57.0308863,69.7549495 L59.3256706,72.1168354 L61.2566866,74.1212829 L62.806304,75.741334 L63.9984509,76.9943658 C65.902425,79.0002594 67.7876207,81.0091176 69.6228571,82.9915575 L71.5050771,85.0355925 L71.4269817,85.0312848 C58.2612147,84.1942497 45.3937154,86.9372937 33.5199008,94.2817309 C-1.63843306,116.016581 -9.69260342,163.708747 11.9827141,207.960698 C21.8470904,228.099449 38.3831762,243.16112 58.22837,252.649064 C59.6715582,253.339049 61.1256695,253.994372 62.5844229,254.613749 L63.8357734,255.13581 C65.0879677,255.649008 66.342254,256.135528 67.5946771,256.594562 L68.8463325,257.044404 C81.5622028,261.524036 93.9491999,263.134806 101.850844,261.027677 L102.539171,260.837707 C104.150655,260.381509 105.799701,259.835154 107.483097,259.206631 L108.096875,258.972746 L108.306328,259.171184 C111.681688,262.2927 116.332888,263.63593 121.051926,262.647336 L121.511217,262.544565 C124.239718,261.89455 126.484782,260.6461 128.62835,258.937718 L128.757563,258.832488 L129.167908,259.038514 C130.578331,259.72781 132.062636,260.242315 133.682894,260.541554 C137.991133,261.337226 142.501406,260.35983 146.107656,257.25635 L146.42013,256.979556 C148.057083,255.488148 149.222638,253.756137 150.002866,251.889071 L150.124591,251.587152 L150.671799,251.53118 C155.505671,251.007329 160.465819,249.946416 165.522491,248.295605 L166.438688,247.991703 L167.568827,247.598496 C168.699352,247.195781 169.831045,246.764482 170.964009,246.304014 L172.023986,245.867269 L172.124446,245.82336 C174.056118,245.005839 175.990363,244.10452 177.926252,243.117702 L179.075595,242.522131 L180.142008,241.951551 L181.015976,241.47118 L181.865214,240.994893 L182.366661,240.709343 L183.325666,240.154425 L184.022596,239.743644 L185.292753,238.977739 L185.87018,238.622121 C187.749012,237.456338 189.536922,236.273482 191.269153,235.050177 L192.384067,234.253056 L193.29279,233.585407 C198.11029,230.005372 202.463835,226.116599 206.370689,221.878445 L207.198955,220.968894 C208.920738,219.048508 210.550519,217.060492 212.087013,215.003529 L212.895862,213.904258 L213.558392,212.974681 L214.1598,212.107506 C215.001622,210.877526 215.81095,209.625985 216.58768,208.352304 L217.262052,207.22853 L217.863378,206.191777 L218.383745,205.267541 L218.884307,204.35191 L219.484426,203.218765 C220.005053,202.217767 220.506989,201.205197 220.990131,200.180898 L221.608905,198.841297 L222.040865,197.87012 C222.19087,197.52728 222.338917,197.183071 222.485005,196.837492 L222.925826,195.775378 L223.518066,194.286242 L223.966238,193.106094 L224.219091,192.418074 C224.753904,190.942942 225.242717,189.484371 225.699144,188.004527 L226.156514,186.478754 L226.510306,185.231868 L226.869893,183.896473 L227.125997,182.898274 L227.301697,182.188149 L227.514758,181.296487 C227.690627,180.545646 227.857379,179.796711 228.016316,179.043837 L228.365472,177.322116 L228.619577,175.969226 L228.881019,174.470588 L229.032463,173.542062 C229.103221,173.096041 229.16931,172.663686 229.232056,172.236398 L229.411104,170.971948 C229.595232,169.61539 229.755624,168.261719 229.893827,166.898695 L230.036351,165.40989 L230.087072,164.828379 L230.13956,164.190044 L230.223597,163.075973 L230.316082,161.672008 L230.381948,160.502524 C230.502693,158.170488 230.565024,155.798502 230.568773,153.386114 L230.559662,151.438455 L230.54253,150.273267 L230.525801,149.470399 C230.433576,145.577963 230.196485,141.615477 229.813459,137.545744 L229.733171,136.73063 L229.612418,135.630259 L229.539155,135.018728 L229.419484,134.090932 L229.311393,133.316304 L229.175845,132.410446 L228.992899,131.283516 L228.831381,130.364032 L228.633691,129.312109 L228.435533,128.327782 L228.280488,127.601114 C228.144909,126.977368 227.999308,126.345667 227.845283,125.712944 L227.548165,124.532161 L227.227829,123.340248 L226.982772,122.478267 L226.652267,121.369426 L226.324697,120.327306 L225.977226,119.27666 L225.663597,118.372387 L225.289247,117.33599 L224.851051,116.181521 L224.644321,115.658957 L224.459719,115.198965 L224.064517,114.245113 L223.643644,113.26821 L223.159398,112.193424 L222.493561,110.784297 L221.873893,109.5408 L221.540432,108.896461 L221.229389,108.308154 L220.619244,107.192378 C220.041382,106.159912 219.466247,105.186976 218.875387,104.240174 L218.142382,103.088938 L217.65392,102.349911 L217.205067,101.685239 L216.694702,100.950142 L216.237018,100.307966 L215.575208,99.4039494 L215.021961,98.6706767 L214.298058,97.7400768 L213.897928,97.2393914 C213.500638,96.7464723 213.110832,96.2755416 212.719175,95.8148035 L212.266349,95.2860508 L211.441327,94.3502424 L210.575004,93.4009269 L209.983087,92.7724803 L209.446428,92.2132066 L208.780961,91.5371436 L208.229911,90.9914702 L207.345121,90.1370253 L207.04764,89.8548917 L206.538686,89.3813248 L206.059716,88.9438527 L204.696674,87.7381674 L204.207158,87.3197531 L203.682673,86.8787549 L202.73462,86.1020353 L201.950597,85.4782482 L201.490588,85.1204241 L200.40475,84.2970003 L199.727315,83.7981032 L199.094985,83.3420544 L197.49501,82.2306819 L196.327068,81.4554961 L195.470567,80.905483 L194.939517,80.5729874 L193.984482,79.9872529 L193.002676,79.4042112 L192.202373,78.9422462 L191.463172,78.5270905 L190.44517,77.9700325 L189.566328,77.5044233 L188.339996,76.877479 L186.820855,76.1340687 L185.957296,75.7286018 L185.090594,75.3335507 C184.951694,75.2711776 184.814924,75.2102418 184.679315,75.1502977 L183.59807,74.6801949 L182.524475,74.2312816 C182.349007,74.1593155 182.17488,74.0886109 182.001507,74.0189203 L181.292461,73.7367529 L180.093515,73.2768989 L179.107564,72.914005 L178.011565,72.5265319 L177.598737,72.3865578 L177.380332,72.3106239 C176.805602,72.1167605 176.232326,71.9301677 175.660605,71.7509525 L174.579225,71.4189208 C174.190251,71.3024055 173.805634,71.1902125 173.424557,71.0822227 L172.59416,70.8503797 L171.588994,70.5822449 L170.476543,70.3010584 Z" id="Sticker" fill="#FFFFFF" fill-rule="nonzero"></path>
            <g id="Thanksgiving/Stuffs/Apple" transform="translate(12.487241, 12.530137)">
                <path d="M106.893386,223.518172 C106.893386,223.518172 100.895241,232.050932 103.639816,237.190666 C106.384392,242.340438 114.947468,229.250179 114.947468,229.250179 C114.947468,229.250179 122.112307,238.495676 125.356894,235.694923 C128.610464,232.884131 121.045415,216.952965 121.045415,216.952965 L106.893386,223.518172" id="Fill-2623" fill="#54211E"></path>
                <g id="Thanksgiving/Stuffs/Leaf5" transform="translate(83.785642, 0.000000)">
                    <path d="M45.9915594,0 C45.9915594,0 -3.63537246,23.3555813 0.212758462,70.2386249 C0.212758462,70.2386249 62.570424,73.7166855 45.9915594,0" id="Fill-2624" fill="#CB6E30"></path>
                    <path d="M6.42643155,66.0584591 L41.8714291,8.11320526 C42.1436835,7.66812553 42.0071489,7.08684363 41.5652119,6.8095169 C41.1297517,6.53625446 40.5552184,6.6677418 40.2819559,7.10320209 C40.2800697,7.10620794 40.2782006,7.10922455 40.2763489,7.11225177 L4.83135137,65.0575056 C4.55909698,65.5025854 4.6956315,66.0838673 5.1375685,66.361194 C5.57302879,66.6344564 6.14756207,66.5029691 6.42082451,66.0675088 C6.42271076,66.064503 6.4245798,66.0614863 6.42643155,66.0584591 Z" id="Fill-2625" fill="#54211E"></path>
                    <path d="M28.7646936,28.7647744 L44.190577,24.5960441 C44.7015822,24.4579487 45.0051414,23.9330998 44.8700187,23.4213005 C44.73591,22.9133424 44.2154121,22.6102775 43.7074539,22.7443861 C43.7056645,22.7448585 43.7038764,22.7453362 43.7020897,22.7458191 L29.6619262,26.5404333 L29.6619262,26.5404333 L25.2754976,19.0743762 C25.0150106,18.6310063 24.4444219,18.4827504 24.001052,18.7432373 C23.9971586,18.7455247 23.993282,18.7478404 23.9894223,18.7501842 C23.54143,19.0222309 23.3946146,19.6034193 23.6596609,20.0555884 L28.7646936,28.7647744 L28.7646936,28.7647744 Z" id="Fill-2626" fill="#54211E"></path>
                    <path d="M16.6616119,29.8899147 L19.6228903,42.9702254 L19.6228903,42.9702254 L37.8646742,38.6697971 C38.3785506,38.5486528 38.6979718,38.0350707 38.5794212,37.5205898 C38.461641,37.0094519 37.9518021,36.6905725 37.4406642,36.8083528 C37.4391075,36.8087115 37.4375517,36.8090741 37.4359968,36.8094407 L21.038524,40.6751098 L21.038524,40.6751098 L18.5055457,29.4653532 C18.3908262,28.9576593 17.8862605,28.6390906 17.3785666,28.7538101 C17.3773186,28.7540921 17.3760711,28.7543767 17.3748242,28.7546638 C16.864986,28.8720524 16.546092,29.3796499 16.6616119,29.8899147 Z" id="Fill-2627" fill="#54211E"></path>
                    <path d="M12.066198,54.5469097 L26.5732791,53.5129326 C27.1013667,53.4752937 27.4995304,53.017608 27.4637063,52.4893942 C27.4280585,51.9637794 26.9730652,51.5665826 26.4474504,51.6022305 C26.4462043,51.602315 26.4449583,51.6024019 26.4437125,51.6024914 L13.4519239,52.5348921 L13.4519239,52.5348921 L10.1781649,40.8767124 C10.0382987,40.3786351 9.52114329,40.0882476 9.02306598,40.2281137 C9.02057678,40.2288127 9.01809049,40.229522 9.01560717,40.2302416 C8.5134716,40.3757437 8.22272484,40.8990574 8.36443967,41.4022749 L12.066198,54.5469097 L12.066198,54.5469097 Z" id="Fill-2628" fill="#54211E"></path>
                </g>
                <path d="M53.5987189,48.7571975 C53.5987189,48.7571975 82.4716537,78.2403948 86.1344145,86.6025001 C89.7971753,94.9646054 89.7971753,94.9646054 89.7971753,94.9646054 C89.7971753,94.9646054 97.3921644,69.6674801 69.5771387,46.3680246 L53.5987189,48.7571975" id="Fill-2629" fill="#54211E"></path>
                <path d="M204.680118,126.445472 C209.191202,174.750936 191.526116,202.156155 162.26395,218.448708 C133.021745,234.741261 112.86159,223.608519 112.86159,223.608519 C112.86159,223.608519 111.743799,224.361409 109.897449,225.515841 C104.947232,228.577597 94.6276283,234.560568 86.0645526,236.869432 C74.3177692,240.011496 29.5961582,228.999215 10.6935179,190.290598 C-8.19914218,151.602058 -1.74190444,110.76527 27.5601821,92.5955095 C56.8622687,74.4157103 89.7971753,94.9545669 89.7971753,94.9545669 C89.7971753,94.9545669 106.334491,78.4712812 124.219143,71.333878 C126.65433,70.3601395 129.109477,69.5670947 131.554645,69.0049363 C151.994247,64.36713 200.169033,78.1500479 204.680118,126.445472" id="Fill-2630" fill="#D8412B"></path>
                <path d="M59.9461736,101.238694 C59.9461736,101.238694 74.2079862,104.01937 66.9623067,116.13589 C59.7166273,128.25241 46.9817968,127.830791 49.3970232,142.025289 C51.82223,156.219787 39.4466893,179.709975 31.7818384,167.553301 C24.1169874,155.386588 21.3524513,132.629214 34.4964731,118.003059 C47.6404949,103.366865 59.9461736,101.238694 59.9461736,101.238694" id="Fill-2631" fill="#E57556"></path>
                <path d="M112.86159,223.608519 C112.86159,223.608519 111.743799,224.361409 109.897449,225.515841 C109.747744,224.742874 110.626009,224.090369 112.86159,223.608519" id="Fill-2632" fill="#DC502C"></path>
                <path d="M130.895947,227.322779 C128.750188,227.322779 126.774093,227.192278 124.977644,226.97143 C117.282852,226.047884 112.86159,223.608519 112.86159,223.608519 C130.836065,219.753719 195.138975,175.303055 179.170535,118.876412 C167.224147,76.6643437 138.261389,71.333878 124.408768,71.333878 C124.348886,71.333878 124.279024,71.333878 124.219143,71.333878 C126.65433,70.3601395 129.109477,69.5670947 131.554645,69.0049363 C133.999812,68.4528165 136.854171,68.1616988 139.968016,68.1616988 C162.902688,68.1616988 200.70697,83.932248 204.680118,126.445472 C205.149191,131.444666 205.378777,136.223012 205.378777,140.790549 C205.408678,180.302249 188.502092,203.84263 162.26395,218.448708 C149.90837,225.335148 139.169594,227.322779 130.895947,227.322779" id="Fill-2633" fill="#AE382B"></path>
            </g>
        </g>
        <g id="Group" transform="translate(275.880000, 49.922877)">
            <g id="Thanksgiving/Stickers/Hat" transform="translate(186.669596, 117.102702) scale(-1, 1) translate(-186.669596, -117.102702) ">
                <path d="M184.887581,0.261817129 L183.597344,0.373147009 C180.134379,0.673309661 176.952378,2.40053721 174.814029,5.14083238 L102.858656,97.351704 L102.576553,97.7275661 C102.39324,97.9816063 102.219501,98.2424866 102.055715,98.5096623 L95.2385274,109.628272 L94.5133013,109.617426 C93.6171802,109.604242 92.7242789,109.592753 91.8347651,109.582989 L89.1765535,109.558911 C88.7352678,109.555772 88.294871,109.553072 87.8553839,109.550816 L85.2295458,109.542634 C84.7937815,109.542168 84.3589689,109.542154 83.925129,109.542595 L81.3339284,109.550743 C80.0443316,109.557582 78.7638659,109.568593 77.4930972,109.583885 L74.9646567,109.620208 L72.4630812,109.668137 L69.9893768,109.727865 C69.5794712,109.738813 69.1707688,109.750262 68.7632907,109.762213 L66.3332795,109.839999 C65.5282843,109.867964 64.7283535,109.897975 63.9336549,109.930064 L61.565423,110.0326 C61.1733897,110.050739 60.7827063,110.069406 60.3933938,110.088605 L58.0741378,110.210207 L55.78879,110.344761 C51.6306832,110.603432 47.6486034,110.928369 43.8704516,111.324897 C33.1175782,112.453443 24.3657539,114.131455 17.6660534,116.579007 C13.2992557,118.174297 9.66073218,120.135182 6.73574869,122.727109 C2.55092596,126.435423 0,131.35305 0,137.036308 C0,144.101333 3.77642947,149.680363 9.93691017,154.755713 C13.8871029,158.010103 19.1053029,161.227983 25.60199,164.526771 L27.0667475,165.261215 L28.3993554,165.914112 L29.7667099,166.570073 C30.2282564,166.789231 30.6955497,167.00889 31.1685456,167.229041 L32.6045969,167.89096 C32.8467753,168.001523 33.0903683,168.112206 33.3353703,168.223009 L34.8222469,168.88925 L36.3426752,169.558302 L37.8963895,170.230108 C38.158101,170.342303 38.4211883,170.454609 38.6856459,170.567027 L40.2887914,171.24286 C40.5587082,171.355719 40.8299842,171.468686 41.102614,171.581761 L42.7545931,172.261495 L44.4387959,172.943758 L46.154957,173.628496 C46.4436322,173.742822 46.733628,173.857249 47.0249388,173.971775 L48.7885392,174.660118 C49.0850879,174.775038 49.3829404,174.890055 49.6820914,175.005168 L51.4925337,175.696991 L53.3338718,176.391062 L55.2058404,177.087327 L57.1081737,177.785729 L59.0406063,178.486211 L61.0028725,179.188718 L62.9947067,179.893193 L65.0158435,180.599581 L68.10191,181.662625 L70.1951412,182.373547 L72.3167454,183.086185 L74.4664571,183.800483 L76.6440106,184.516384 L77.7431451,184.874918 C78.7030968,185.187755 79.6705345,185.500849 80.6450432,185.814099 L83.5893668,186.754221 C84.0834845,186.910953 84.5792661,187.0677 85.0766597,187.224448 L88.0799509,188.164865 C88.5835851,188.321572 89.0887275,188.478257 89.5953263,188.634906 L92.6519801,189.57428 L95.7410952,190.512216 L98.8601805,191.448119 L102.006745,192.381394 L105.178298,193.311447 C105.708834,193.466155 106.240307,193.620703 106.772666,193.77508 L109.97703,194.699185 C110.512723,194.852827 111.049198,195.006272 111.586403,195.159509 L114.817974,196.076328 C115.35789,196.228681 115.898432,196.380801 116.439549,196.532675 L119.692721,197.44087 L122.957181,198.342573 L126.230437,199.237189 L129.509999,200.124123 L132.793375,201.002781 C133.340783,201.148502 133.888247,201.293852 134.435714,201.438821 L137.720141,202.303949 L141.002154,203.159315 L144.279262,204.004324 L147.548975,204.83838 L150.808801,205.66089 L154.05625,206.471258 L157.28883,207.268891 L160.504051,208.053193 L163.69942,208.82357 L166.872448,209.579428 L170.020643,210.320171 L173.141515,211.045206 C174.176974,211.2842 175.207465,211.520476 176.232571,211.753937 L179.291321,212.44577 L182.315274,213.12011 L185.301939,213.776363 L188.248825,214.413934 C189.224214,214.623278 190.192558,214.82941 191.153441,215.032229 L194.013295,215.630653 L196.825898,216.20861 L199.588757,216.765508 L202.299381,217.300751 C202.746661,217.38812 203.19166,217.474563 203.634327,217.560066 L207.713208,218.34228 C213.159866,219.37715 218.635912,220.378933 224.102791,221.338618 L228.064204,222.025847 L228.608797,222.13017 L228.813148,222.167338 L232.720535,222.839319 L236.601836,223.496236 L240.455289,224.137703 L244.279129,224.763335 C244.91387,224.866266 245.547303,224.968521 246.179393,225.070092 L249.955507,225.671247 L253.6976,226.255604 L257.403906,226.822776 C258.018544,226.915851 258.631617,227.008194 259.243089,227.099797 L262.89241,227.64047 C263.497329,227.72908 264.100574,227.816935 264.702107,227.904025 L268.290474,228.41733 C269.479554,228.585333 270.661494,228.750214 271.836,228.91191 L275.336921,229.387378 C275.916593,229.465008 276.494333,229.541827 277.070104,229.617824 L278.77928,229.840701 L279.068634,229.884281 L282.520249,230.324237 L284.789768,230.605772 L287.033702,230.877817 L289.25176,231.140308 L291.44365,231.393182 L293.609081,231.636374 L295.747762,231.86982 L297.859402,232.093457 L299.943709,232.307221 L302.000393,232.511047 L304.029162,232.704872 L306.029725,232.888632 L308.001791,233.062263 L309.945068,233.2257 L311.859266,233.378881 L314.675402,233.58928 L316.515628,233.716539 L318.325755,233.833316 L320.105492,233.939549 L321.854547,234.035174 L323.572631,234.120126 C323.856381,234.133391 324.138829,234.14621 324.419968,234.158579 L326.091047,234.227403 C326.366927,234.237972 326.641486,234.248091 326.914718,234.257756 L328.538138,234.310307 L330.129421,234.351929 L331.688276,234.38256 C331.945367,234.386745 332.201095,234.39047 332.455453,234.393733 L333.96512,234.407755 C342.101537,234.453838 348.828089,234.009128 354.198362,232.975692 C362.126951,231.449944 367.952459,228.675235 371.408129,222.743935 C374.720095,217.068529 374.193291,210.856059 371.2206,205.371374 C369.409667,202.030159 366.713419,198.946823 363.166302,195.799705 C359.73234,192.752981 355.400029,189.577357 350.245369,186.25434 L348.819221,185.344395 C347.131728,184.278496 345.36168,183.197505 343.511526,182.100826 L341.906118,181.15696 C341.6353,180.999003 341.362861,180.840724 341.088808,180.682119 C333.836668,176.485018 325.73799,172.228227 317.233426,168.047881 L315.547842,167.222864 L313.714053,166.33329 C313.412044,166.187472 313.111898,166.042893 312.813692,165.899579 L311.048351,165.055085 L308.983722,164.077025 L308.611384,154.159327 L313.782082,47.7469999 L313.785679,47.7332862 C314.239115,45.3717375 314.13501,42.8976186 313.337763,40.4608067 L313.18254,40.0110354 C312.047895,36.8895295 310.330615,34.9937389 307.969861,33.1269336 C306.768408,32.1768643 305.371337,31.2605505 303.733368,30.311668 C301.696318,29.131596 299.195813,27.8538687 296.296835,26.5031602 L295.030209,25.9198888 L293.715927,25.3281125 L293.041271,25.02917 C292.495986,24.7888062 291.940955,24.547125 291.376659,24.3043184 L289.656461,23.5727147 C287.909433,22.8381196 286.083361,22.0951265 284.191254,21.3489254 L282.277617,20.6018472 L280.322847,19.8537837 C279.993785,19.7290884 279.66313,19.6044001 279.330941,19.4797429 L277.319892,18.7323639 L275.274937,17.986883 C274.931447,17.8628585 274.586664,17.738961 274.240649,17.6152148 L272.150256,16.8747434 C269.344636,15.8903795 266.467873,14.918766 263.550802,13.972205 L261.355922,13.2671739 C260.696982,13.0576666 260.03893,12.85024 259.381839,12.6449236 L257.413513,12.0353344 C257.085962,11.9348011 256.758669,11.8348028 256.431642,11.7353431 L254.472747,11.145078 L252.520669,10.5679171 L250.57583,10.0040378 C250.252317,9.91117453 249.929123,9.81887206 249.606257,9.72713406 L247.673072,9.18350934 C247.030036,9.00457869 246.388384,8.82793549 245.748185,8.65360926 L243.832019,8.13761107 C243.194798,7.96794836 242.5591,7.80063216 241.924998,7.63569203 L240.027546,7.14802938 L238.140085,6.67480038 C237.512644,6.51948268 236.886939,6.36660013 236.26304,6.21618227 L234.396833,5.77235231 L232.541889,5.34348775 L230.69863,4.92976583 C230.086205,4.794402 229.475798,4.66159147 228.86748,4.53136381 L227.048862,4.14845894 L225.243199,3.78122847 L223.450916,3.42984965 L221.672435,3.09449973 L219.90818,2.77535595 C218.444013,2.51620461 216.995106,2.27411931 215.56256,2.04956164 L213.85143,1.78853524 C213.567575,1.7464429 213.284391,1.70505905 213.001888,1.66438738 L211.315114,1.42893312 C209.077165,1.12646782 206.883926,0.870054929 204.739914,0.661585121 L203.141206,0.514251634 C196.518967,-0.0619361797 190.388482,-0.165313929 184.887581,0.261817129 Z" id="Sticker" fill="#FFFFFF" fill-rule="nonzero"></path>
                <g id="Thanksgiving/Stuffs/Hat" transform="translate(12.511367, 12.510096)">
                    <path d="M348.394535,204.137108 C343.766239,212.081902 308.793546,210.398768 268.401138,205.16903 C268.310977,205.128955 268.220815,205.128955 268.130654,205.128955 C251.951651,203.025038 234.93114,200.350057 218.631922,197.524796 L218.00079,197.404572 C209.604739,195.961886 201.431087,194.459088 193.66717,192.956289 C162.030457,186.84491 110.93887,174.241442 69.163984,160.62609 C30.6148805,148.082733 0,134.637698 0,124.649099 C0,109.731322 57.2826855,109.070091 89.7308524,109.881602 C98.6668712,110.091993 105.699478,110.422609 109.165691,110.602945 C110.668385,110.693113 111.509894,110.753225 111.509894,110.753225 L117.580776,112.466415 L148.285819,121.162607 L179.261346,129.918912 L201.491195,136.200609 L201.521249,136.200609 L226.506037,143.26376 L246.360628,148.894244 L283.287825,159.333683 C283.287825,159.333683 283.708579,159.504 284.520033,159.87469 C293.997022,164.142637 355.286891,192.325114 348.394535,204.137108" id="Fill-2667" fill="#241313"></path>
                    <polyline id="Fill-2668" fill="#6D1C1F" points="172.318901 0.327608761 100.299798 92.6294777 117.370399 127.314062 225.143595 147.050812 267.289145 29.131242 172.318901 0.327608761"></polyline>
                    <path d="M195.270043,131.041001 C195.270043,131.041001 251.280448,80.3566253 248.084719,44.0790754 C244.878972,7.79150677 289.168366,31.8062229 289.168366,31.8062229 L283.828794,141.720887 L222.478818,153.452733 L195.270043,131.041001" id="Fill-2669" fill="#241313"></path>
                    <path d="M172.318901,0.327608761 C172.318901,0.327608761 179.792297,25.9352911 221.406896,39.8111283 C263.021495,53.6769469 291.302191,37.6771548 289.168366,31.8062229 C287.034541,25.9352911 211.268722,-3.40934957 172.318901,0.327608761" id="Fill-2670" fill="#481717"></path>
                    <path d="M100.299798,92.6294777 C100.299798,92.6294777 217.138244,147.581801 283.828794,141.720887 L285.430666,184.400358 C285.430666,184.400358 120.035176,175.333475 80.0234508,125.711077 L100.299798,92.6294777" id="Fill-2671" fill="#DF4F2A"></path>
                    <path d="M145.110126,95.8354473 C145.110126,95.8354473 124.843796,95.29444 118.973273,109.170277 C113.102749,123.046114 106.170322,136.911933 119.504224,157.189691 C132.838127,177.467449 172.85987,179.070433 187.796646,172.127506 C202.733422,165.194596 205.939169,135.849956 196.331947,119.840145 C186.724725,103.830334 166.458395,95.8354473 145.110126,95.8354473" id="Fill-2672" fill="#ED984C"></path>
                    <path d="M146.182047,120.912141 C146.182047,120.912141 131.776223,124.639081 138.707649,139.045907 C145.651096,153.452733 170.726045,153.99374 178.189424,148.122808 C185.662821,142.251876 182.457074,129.448035 174.452726,126.242065 C166.458395,123.046114 146.182047,120.912141 146.182047,120.912141" id="Fill-2673" fill="#C93B2B"></path>
                </g>
            </g>
        </g>
    </g>
</svg>