<?xml version="1.0" encoding="UTF-8"?>
<svg width="600px" height="412px" viewBox="0 0 600 412" version="1.1" xmlns="http://www.w3.org/2000/svg" xmlns:xlink="http://www.w3.org/1999/xlink">
    <title>decoration-12</title>
    <g id="decoration-12" stroke="none" stroke-width="1" fill="none" fill-rule="evenodd">
        <g id="Thanksgiving/Stickers/Leaf1" transform="translate(75.609468, 10.918911)">
            <path d="M122.227322,4.48069646 C127.38893,-1.68604304 136.921381,-1.43588442 141.765307,4.91298899 L141.959091,5.17371611 L159.451044,29.3355401 C160.113517,30.250621 160.648436,31.2506587 161.041666,32.3081276 L161.182459,32.7073168 L164.807034,43.5701605 L177.768785,42.6824647 C181.608743,42.4194737 185.049931,43.8834051 187.479834,46.3230466 L187.82814,46.6869453 C190.498867,49.59068 191.801402,53.7284396 190.813049,57.9685937 L190.746842,58.23937 L190.327875,59.7952663 L190.027561,60.9431021 L189.702423,62.2153417 C188.951051,65.189122 188.198583,68.3923568 187.498079,71.6887428 C187.111307,73.5087873 186.752906,75.2994668 186.427237,77.0483182 L186.185703,78.3662179 L186.669078,77.6317538 C189.025138,74.0259359 191.387379,70.1890835 193.67505,66.3035776 L194.529273,64.8445885 L195.740328,62.7483372 L196.781621,60.9187305 L197.429481,59.7664632 L198.978377,56.9572928 C202.141525,51.0694803 208.904847,49.0947807 214.440423,51.1681272 L214.44835,51.1287475 C214.625376,50.2826329 214.819199,49.5532643 215.011555,48.9372222 L215.093851,48.6801325 C219.12475,36.4672946 235.069608,38.1596846 238.752483,47.9521288 C239.440815,47.6929552 240.061198,47.4406561 240.614589,47.1978448 C243.021652,38.1832662 254.816315,34.6462246 261.744593,41.9136911 C265.051878,45.3828907 266.843018,50.5219098 265.287572,55.9837336 C265.457291,58.5710478 265.810057,60.9982145 266.35085,62.8892401 C266.424404,63.1464413 266.497578,63.3797349 266.567659,63.5873092 L266.655446,63.8391939 L266.895329,63.9513643 C272.81827,66.8065243 275.655765,73.9856291 272.878204,80.2501622 L272.743884,80.5431223 L272.540528,80.9690986 L272.36084,81.3774411 L272.302104,81.5146563 C271.95508,82.3301701 271.599561,83.2663298 271.266467,84.2849312 C270.711784,85.9811568 270.297797,87.6682616 270.059694,89.2588555 L269.969029,89.930237 L270.049952,89.9893585 C270.58138,90.3704648 271.245483,90.7888112 272.016319,91.2194101 L272.353137,91.4046298 L272.663135,91.5701756 C274.22728,92.3941016 275.983882,93.158005 277.749644,93.8177301 L278.116849,93.9533486 L278.810986,94.2008039 C278.921872,94.2393618 279.030247,94.2765632 279.135947,94.312387 L279.905378,94.5637449 C289.695598,97.4719481 292.028063,110.20581 284.025934,116.408847 L281.868062,118.033882 L280.916264,118.760157 L279.916483,119.528975 L278.334299,120.757338 C274.204505,123.981711 270.078193,127.340667 266.255066,130.643644 C264.675568,132.008245 263.180977,133.335285 261.784976,134.615262 L260.663091,135.653687 L260.301491,135.992313 L260.709669,135.942398 L261.525855,135.830768 C267.264263,134.919179 272.461832,138.012155 274.759132,142.73252 L274.883761,142.996422 L274.960921,143.171325 L300.371621,146.032802 C313.292485,147.48764 315.574231,165.068642 303.891826,169.950095 L303.533536,170.094101 L302.23032,170.57547 L301.377492,170.899699 L300.462999,171.255572 L299.4929,171.641681 C296.660721,172.781388 293.835778,174.024447 291.253158,175.3066 L290.483807,175.693849 L289.743242,176.07709 L289.03308,176.455043 L288.354936,176.826426 C288.24467,176.887704 288.135806,176.948656 288.028376,177.009253 L287.401293,177.368379 C287.299739,177.427455 287.199688,177.486123 287.101173,177.544358 L286.528787,177.888343 L285.994887,178.220634 C285.909201,178.27497 285.825186,178.328766 285.742875,178.381994 L285.269736,178.69434 L284.839125,178.991787 C284.566587,179.184835 284.323478,179.367096 284.111955,179.536863 L283.930915,179.685385 L283.921198,179.721317 C283.607699,180.845816 283.403831,182.334957 283.344782,184.014869 L283.333057,184.43872 L283.32768,184.838887 C283.320728,185.880571 283.366429,186.897473 283.447867,187.833648 L283.479467,188.176313 L283.546286,188.78174 L283.567542,188.933945 C284.418111,194.475636 281.47247,199.891118 276.38894,202.203962 L275.046044,202.796369 L274.223411,203.169845 L273.348843,203.574844 L272.42662,204.01017 C272.269182,204.085186 272.109937,204.161415 271.948975,204.238834 C268.740514,205.782007 265.538691,207.463863 262.603803,209.200576 C262.316239,209.370741 262.033359,209.540306 261.755368,209.709099 L260.936265,210.212992 L260.147723,210.711223 L259.390971,211.202761 C259.267564,211.28407 259.145531,211.365056 259.024901,211.445699 L258.318138,211.925267 L257.646237,212.395565 C257.537227,212.473119 257.429721,212.550243 257.323744,212.626916 L256.706441,213.081379 C255.50936,213.978801 254.539885,214.805148 253.842257,215.523314 L253.673539,215.70058 L253.521205,215.866445 L253.520533,216.002909 C253.535945,216.752505 253.744104,217.495665 254.133351,218.261107 L254.287785,218.549249 L254.441178,218.81064 C254.629225,219.118756 254.826205,219.396268 255.013085,219.62968 L255.23354,219.890451 L255.2707,219.925897 C262.865098,227.328405 258.293716,240.22063 247.834848,241.285858 L247.516117,241.3145 L246.077084,241.390562 L244.170066,241.472554 L242.046532,241.551604 C241.860448,241.558023 241.672146,241.56439 241.481673,241.5707 C235.435889,241.770964 229.1932,241.855765 223.094178,241.770801 L220.814445,241.730876 L218.877193,241.682487 L227.455867,254.06192 L233.495564,262.753634 L247.110135,282.267757 C251.646343,288.81496 250.057181,297.805747 243.511594,302.384093 C237.05188,306.902374 228.173232,305.420155 223.51851,299.092674 L217.390566,290.321822 L210.548264,280.502742 L205.965874,273.916412 L197.441601,261.634677 L193.575465,256.046511 L184.507046,288.721489 C182.087125,297.439937 171.537886,300.726341 164.600269,295.112573 L164.375337,294.926356 L163.656521,294.311094 L163.119201,293.866334 L162.525099,293.385999 C162.317879,293.220333 162.10161,293.0493 161.876708,292.873464 C159.928307,291.350134 157.790982,289.822701 155.565632,288.413955 C151.84828,286.060706 148.313651,284.318853 145.334897,283.435599 C143.988559,283.036386 142.851039,282.842221 141.977031,282.82929 C141.495927,282.822172 141.210428,282.86394 141.066161,282.91182 L141.018576,282.929978 L140.378439,283.217428 C135.510895,285.427118 131.699404,287.710929 128.829401,289.908649 C128.202233,290.388906 127.669237,290.828142 127.225917,291.219834 L126.812323,291.595436 L126.548909,291.8475 L126.359055,292.03857 L126.333074,292.069581 C119.924298,299.41758 107.936887,296.88173 105.004057,287.6644 L104.91797,287.383045 L104.835934,287.091753 L104.733915,286.78401 C103.549578,283.323842 101.243257,279.598094 97.9862135,277.243916 C93.1911239,273.778046 86.351,273.223945 75.4537802,277.683033 L74.9479435,277.892404 C64.8772689,282.107811 54.6727708,272.326092 58.3333249,262.158294 L58.6234455,261.374277 L58.9098168,260.548001 L59.0516185,260.124753 C59.5742491,258.54965 60.1023893,256.775047 60.5961936,254.859308 C61.9971687,249.424154 62.819946,244.040022 62.7964505,239.280795 C62.7706238,234.049348 61.7269178,230.287343 59.9372801,228.140431 L59.7673246,227.943895 C52.4152511,219.751565 58.4833653,206.811837 69.3835613,207.101832 L70.1043397,207.12962 L70.6210037,207.144622 L71.3513521,207.159029 L72.1262542,207.1665 L72.7662839,207.167116 C73.9230087,207.163985 75.0668862,207.136933 76.1764617,207.087382 L77.0018764,207.046022 L77.2437598,207.03143 L76.7427789,206.649044 C73.7546983,204.396507 70.3281805,202.217619 66.5304246,200.136257 L65.7109621,199.691753 L64.9785865,199.302064 C58.6943642,195.988153 51.8706714,193.136854 45.0370327,190.78019 L43.621666,190.299379 C43.1573669,190.144066 42.700728,189.993712 42.2522606,189.848321 L40.9318849,189.427039 C40.2844658,189.223846 39.6565835,189.031828 39.049964,188.851 L37.8021271,188.486152 L36.4686714,188.115362 L36.1774306,188.038451 C30.6317352,186.631928 26.7612565,181.651521 26.7453486,175.960675 L26.7483167,175.649578 L27.1356901,157.893349 L12.5567871,145.296686 C9.37137094,142.544235 7.79729862,138.387296 8.3322262,134.244059 L8.3816961,133.898851 L8.43930698,133.562963 L9.74112743,126.551297 L4.1148688,121.463175 C-1.85229588,116.065639 -1.21184486,106.581155 5.27188471,102.000543 L5.53434849,101.819956 L5.79950498,101.646967 L9.38084652,99.3712525 L5.57103901,85.0976823 C2.94278662,75.2483471 12.5512811,66.6609989 21.9597678,70.1381752 L22.2447994,70.2472481 L22.5325075,70.3649888 L32.6559943,74.6442118 L39.4595982,73.6264372 C43.2267287,73.0627165 47.0314552,74.2457375 49.808172,76.8133398 L50.0654449,77.0580979 L50.3242424,77.3189315 L56.9149092,84.1592275 L69.0179643,77.2073791 C74.8062173,73.8824217 82.1458245,75.6958988 85.7406449,81.230153 L85.9116431,81.5008373 L86.5928337,82.6423152 L87.1866535,83.6137977 C87.2719734,83.7519826 87.3589475,83.8922765 87.4475404,84.0345933 L88.2876182,85.367741 C88.3856024,85.5214209 88.4850985,85.6768656 88.5860707,85.833989 C89.0339521,86.5309392 89.4893781,87.2276563 89.9511082,87.9214168 L90.6482763,88.9594996 L91.2676944,89.8642369 L91.0564032,88.8844115 L90.8025396,87.7464496 L90.3934921,86.0026219 L84.2216154,61.8507288 C82.1002945,53.5495401 88.7698305,45.6563705 97.2650038,46.2920153 L97.5457166,46.3160712 L98.8005678,46.4361652 L98.2626366,38.5337506 C98.060319,35.5639521 98.9254823,32.6280967 100.688239,30.2484284 L100.913247,29.9539044 L101.14753,29.6654008 L122.227322,4.48069646 Z" id="Sticker" fill="#FFFFFF" fill-rule="nonzero"></path>
            <g id="Leaf1-Copy" transform="translate(12.510287, 12.500109)">
                <path d="M159.94205,273.77896 C159.94205,273.77896 137.321773,253.672477 123.427597,259.859854 C109.543359,266.04723 104.405097,272.234607 104.405097,272.234607 C104.405097,272.234607 95.6591205,238.717159 57.6041831,254.698725 C57.6041831,254.698725 69.9479366,222.735594 56.5705677,207.780276 C56.5705677,207.780276 97.1996051,209.852699 79.2007825,191.290569 C61.2019599,172.728439 26.7447993,163.960498 26.7447993,163.960498 L27.261607,140.247203 L8.22916902,123.747532 L10.803269,109.828426 L0,100.024273 L11.3200767,92.810649 L5.14819994,69.6054959 L18.5156303,75.2747668 L28.8020916,73.7304136 L42.1695219,87.64952 L62.7424445,75.7928725 C62.7424445,75.7928725 77.6602979,101.57859 88.4635669,104.667297 C99.2568973,107.765967 90.0040515,70.6417071 90.0040515,70.6417071 L83.8321747,46.4103063 L99.773705,47.9546595 L98.2332205,25.267612 L119.313012,0 L136.804966,24.2413644 L143.49365,44.3478474 L166.113926,42.7935306 C166.113926,42.7935306 153.780111,87.141378 162.516149,93.3287546 C171.262126,99.5161312 197.490118,50.535224 197.490118,50.535224 C197.490118,50.535224 203.145187,59.8113071 207.776579,56.7226006 C212.407971,53.6239305 212.407971,53.6239305 212.407971,53.6239305 L214.465264,40.2229297 C214.465264,40.2229297 214.721059,53.8685362 227.315886,48.4727651 C239.910714,43.0769941 240.176447,38.1604708 240.176447,38.1604708 C240.176447,38.1604708 239.152771,60.8475183 248.922424,62.9099772 C248.922424,62.9099772 244.80784,71.1498491 244.80784,79.9177902 C244.80784,88.6857313 263.830339,94.3550022 263.830339,94.3550022 C263.830339,94.3550022 226.292209,122.193215 227.315886,130.961156 C228.349502,139.729097 250.979716,136.122285 250.979716,136.122285 L249.946101,142.309662 L286.460554,146.43458 C286.460554,146.43458 263.32347,154.684415 260.232562,161.898039 C257.151593,169.111663 258.692078,178.915816 258.692078,178.915816 C258.692078,178.915816 230.923602,190.772463 228.866309,200.566652 C226.809017,210.360841 234.004571,217.066323 234.004571,217.066323 C234.004571,217.066323 186.17998,219.646887 176.917195,212.4233 L159.94205,273.77896 Z" id="Fill-2525" fill="#DD612A"></path>
                <path d="M139.127743,134.528114 C139.853262,135.155819 140.916693,135.175746 141.662089,134.577932 C141.910554,134.378661 142.069572,134.189353 142.228589,134.000045 C142.526748,133.631393 142.785151,133.222886 143.073371,132.744635 C143.590179,131.847914 144.186495,130.69214 144.842444,129.307204 C147.128324,124.484836 150.199354,116.982268 152.723761,110.655402 C155.23823,104.328535 157.186197,99.197297 157.186197,99.1873334 C157.573803,98.1610858 157.066934,97.0152753 156.043257,96.6266961 C155.01958,96.2281533 153.87664,96.7462589 153.489034,97.7725066 C153.479096,97.7725066 153.290262,98.2806486 152.952349,99.1674063 C151.759716,102.27604 148.72844,110.107405 145.72698,117.360884 C144.22625,120.97766 142.735458,124.464909 141.483194,127.115218 C141.072398,127.998655 140.606465,128.999753 140.085395,130.118511 L101.599552,96.975421 C100.764709,96.258044 99.5124438,96.3576797 98.8068025,97.184656 C98.0912226,98.0215958 98.1806701,99.2770055 99.0155133,99.984419 L139.127743,134.528114 Z" id="Fill-2526" fill="#E6784C"></path>
                <path d="M128.900913,95.4182396 C129.407782,95.8167824 130.083608,95.9463088 130.699802,95.7669646 C131.315996,95.5876203 131.812926,95.109369 132.011698,94.4916277 L143.331775,60.9841438 C143.679626,59.9479326 143.123064,58.8120857 142.089449,58.4633607 C141.045895,58.1146358 139.922832,58.6725957 139.57498,59.7088069 L129.159317,90.5460542 L101.023113,68.0782052 C100.168392,67.3907189 98.9260658,67.5302089 98.2403018,68.3870759 C97.5644763,69.2439428 97.7036168,70.4993526 98.5583373,71.1868389 L128.900913,95.4182396 Z" id="Fill-2527" fill="#E6784C"></path>
                <path d="M15.2060732,95.3812499 C15.2160118,95.3912135 44.8032535,119.632578 79.1013964,145.62753 C96.2554371,158.629988 114.582234,172.070844 130.990879,183.150333 C139.210109,188.690077 146.932409,193.632008 153.819866,197.647326 C160.707322,201.662645 166.720181,204.741388 171.600039,206.554757 C172.633654,206.933373 173.766656,206.415267 174.144323,205.379056 C174.531929,204.352808 174.005183,203.206998 172.981506,202.828382 C168.469377,201.154503 162.58572,198.165432 155.807588,194.209895 C143.950826,187.295178 129.370885,177.461135 114.184689,166.600844 C91.4053955,150.310408 67.2843892,131.728351 48.8582064,117.231358 C39.645115,109.977879 31.8532448,103.740685 26.3770707,99.3268234 C23.6340144,97.114911 21.4673974,95.3613228 19.9865446,94.1557309 C18.5056917,92.950139 17.7106029,92.302507 17.7106029,92.302507 C16.865821,91.6050571 15.6135562,91.7345835 14.9277921,92.5814869 C14.2320894,93.4283903 14.3513527,94.6838 15.2060732,95.3812499" id="Fill-2528" fill="#E6784C"></path>
                <path d="M124.540721,141.901155 L126.488689,178.108767 L86.7740032,181.057983 C85.6807562,181.137692 84.8558515,182.084231 84.9353604,183.180223 C85.0248079,184.276216 85.9689758,185.103192 87.0622229,185.023484 L128.724876,181.924814 C129.798246,181.845105 130.613212,180.918493 130.55358,179.832464 L128.496288,141.681957 C128.436656,140.585964 127.502427,139.749024 126.40918,139.808806 C125.315933,139.868587 124.481089,140.805163 124.540721,141.901155" id="Fill-2529" fill="#E6784C"></path>
                <path d="M49.9912079,153.05039 L89.0797608,150.997894 C89.6065071,150.968004 90.1034376,150.728878 90.4512889,150.330335 C90.8090789,149.931792 90.9879739,149.413687 90.9482194,148.885618 L88.8909272,115.378134 C88.8312955,114.282141 87.8871276,113.445201 86.7938805,113.514946 C85.7006334,113.584691 84.8757288,114.521267 84.9353604,115.617259 L86.8733893,147.132029 L49.7824971,149.084889 C48.68925,149.14467 47.8544068,150.081246 47.9040998,151.177239 C47.9637315,152.273231 48.8979608,153.110171 49.9912079,153.05039" id="Fill-2530" fill="#E6784C"></path>
                <path d="M34.1093093,129.845236 L58.2800086,127.782778 C58.8663866,127.742923 59.4030715,127.434053 59.7310456,126.955801 C60.0689584,126.47755 60.1782831,125.869772 60.0391426,125.311812 L52.8336504,97.4636359 C52.5553693,96.4074975 51.4819994,95.7698291 50.4185681,96.0388455 C49.3551369,96.3178254 48.7190658,97.4038545 48.9973469,98.4599928 L55.6065225,124.026512 L33.7713965,125.889699 C32.688088,125.979372 31.873122,126.945838 31.9725081,128.04183 C32.0619556,129.127859 33.0260008,129.944872 34.1093093,129.845236" id="Fill-2531" fill="#E6784C"></path>
                <path d="M218.848191,69.2667345 C218.828313,69.2866616 208.27351,91.3659314 197.380793,119.154326 C191.934435,133.043542 186.398629,148.367512 182.065395,163.093668 C177.732161,177.819823 174.571683,191.938201 173.905796,203.545759 C173.846165,204.641752 174.681008,205.578327 175.774255,205.648072 C176.867502,205.707854 177.801732,204.870914 177.871302,203.774921 C178.487496,192.695432 181.568465,178.776326 185.861944,164.219551 C192.302163,142.369443 201.445685,119.034764 208.979151,101.190011 C212.745884,92.2626527 216.105134,84.7003035 218.530155,79.3797574 C219.732727,76.7194844 220.716649,74.6171713 221.382536,73.1824173 C221.720449,72.4650403 221.978853,71.917044 222.157748,71.5384283 C222.326704,71.1697762 222.416151,70.9804684 222.416151,70.9804684 C222.893205,69.9940751 222.475783,68.8084103 221.491861,68.330159 C220.498,67.8618712 219.315305,68.2703776 218.848191,69.2667345" id="Fill-2532" fill="#E6784C"></path>
                <path d="M177.086152,108.380843 L188.913097,146.013245 C189.091992,146.581169 189.509414,147.039493 190.065976,147.258691 C190.6126,147.487853 191.228794,147.447999 191.75554,147.169019 L215.409431,134.27616 C216.373477,133.748091 216.721328,132.542499 216.20452,131.576033 C215.677774,130.61953 214.475202,130.260842 213.511157,130.778947 L191.974189,142.516032 L180.862823,107.185215 C180.534849,106.13904 179.421725,105.561153 178.378171,105.889951 C177.334617,106.218749 176.758178,107.334669 177.086152,108.380843" id="Fill-2533" fill="#E6784C"></path>
                <path d="M196.595643,82.4485368 L202.76752,108.224291 C202.90666,108.832069 203.324082,109.330247 203.900521,109.579336 C204.467022,109.828426 205.113032,109.798535 205.659655,109.499628 L218.520216,102.27604 C219.474323,101.738007 219.812236,100.532415 219.275551,99.5759126 C218.738866,98.61941 217.536294,98.270685 216.582187,98.8087178 L206.007507,104.747005 L200.441885,81.5219249 C200.19342,80.4558229 199.12005,79.7982274 198.056619,80.0473166 C196.993187,80.3063694 196.337239,81.3824349 196.595643,82.4485368" id="Fill-2534" fill="#E6784C"></path>
                <path d="M240.564053,157.185271 L171.649732,206.684284 C170.755257,207.321952 170.556485,208.567398 171.192556,209.454156 C171.828627,210.350877 173.070953,210.560112 173.95549,209.91248 L242.869811,160.423431 C243.764286,159.785763 243.972996,158.540316 243.326987,157.643595 C242.690916,156.756837 241.458528,156.547602 240.564053,157.185271" id="Fill-2535" fill="#E6784C"></path>
                <path d="M213.053981,175.328931 C212.785638,176.395033 211.264658,179.487476 214.845415,179.487476 C216.029766,178.0768 216.714702,177.019416 216.900223,176.315324 L223.0721,152.07396 C223.340442,151.017821 222.694433,149.931792 221.64094,149.662776 C220.577509,149.39376 219.4942,150.031428 219.225858,151.09753 L213.053981,175.328931 Z" id="Fill-2536" fill="#E6784C"></path>
                <path d="M174.760517,205.897162 L79.1013964,237.35215 C78.0578423,237.690912 77.4913416,238.816795 77.8292543,239.853006 C78.1771057,240.899181 79.29023,241.467104 80.333784,241.128343 L175.992905,209.673355 C177.036459,209.334593 177.602959,208.20871 177.255108,207.162535 C176.917195,206.126324 175.794132,205.5584 174.760517,205.897162" id="Fill-2537" fill="#E6784C"></path>
                <path d="M123.199009,224.578854 C123.874834,224.851192 125.777581,224.17973 128.907249,222.56447 C126.778068,221.728692 125.375564,221.174635 124.699739,220.902297 L90.7494472,206.973227 C89.735709,206.564721 88.5828303,207.052936 88.1654086,208.059256 C87.7579256,209.07554 88.2349789,210.241278 89.2487171,210.659748 L123.199009,224.578854 Z" id="Fill-2538" fill="#E6784C"></path>
                <path d="M146.385786,217.654174 L133.008417,241.885574 C132.48167,242.842077 132.829522,244.057633 133.783628,244.585702 C134.747673,245.113771 135.950245,244.765046 136.476991,243.808543 L149.85436,219.577143 C150.381107,218.610676 150.033255,217.405084 149.079149,216.877015 C148.115104,216.338982 146.912532,216.687707 146.385786,217.654174" id="Fill-2539" fill="#E6784C"></path>
                <path d="M224.314426,277.794279 C224.314426,277.794279 223.737987,276.967302 222.704371,275.492694 C219.106594,270.321601 209.973012,257.199581 200.799675,243.908179 C191.616399,230.626741 182.373492,217.155995 178.576943,211.337271 C154.962806,175.15955 140.074768,127.244745 131.149897,88.4266785 C126.687461,69.0076817 123.705878,51.8703423 121.837419,39.5852612 C120.90319,33.4477025 120.25718,28.5256992 119.839758,25.1380856 C119.621109,23.4442788 119.47203,22.1290876 119.372644,21.2522935 C119.322951,20.8039329 119.293135,20.4751351 119.263319,20.245973 C119.243442,20.0168109 119.233503,19.9171752 119.233503,19.9171752 C119.124179,18.8211826 118.150195,18.0240971 117.056948,18.1336963 C115.973639,18.2432956 115.17855,19.2197254 115.287875,20.315718 C115.297814,20.3655359 118.299274,50.2462805 127.283777,89.3134361 C136.278219,128.390555 151.21595,176.634158 175.257447,213.509329 C179.660252,220.264629 191.099592,236.883863 201.455623,251.83918 C211.811655,266.794498 221.064501,280.075936 221.064501,280.075936 C221.690633,280.972657 222.932959,281.191856 223.827434,280.564151 C224.721909,279.936446 224.940558,278.700963 224.314426,277.794279" id="Fill-2540" fill="#E6784C"></path>
            </g>
        </g>
        <g id="Thanksgiving/Stickers/Mushroom2" transform="translate(2.760042, 172.103327)">
            <path d="M108.802691,3.08607948 C96.5319999,5.96153068 84.1192008,10.7231368 72.2580445,17.2927723 L71.4418422,17.7500547 C45.0906645,32.6213634 23.0958634,55.5238898 8.20576873,86.0118499 L7.55915426,87.34916 L7.31468141,87.7752549 L6.90577058,88.5118121 L6.60749246,89.0660868 C5.71297585,90.7487587 4.82725014,92.6047876 3.99858356,94.6077404 C1.53975812,100.550916 0.0255536066,106.614798 0,112.735938 C-0.0275479059,120.056789 2.14105803,126.867545 6.98465836,132.439651 L7.14067504,132.615469 C7.75697133,133.298214 8.53651863,134.028886 9.46817606,134.802482 L9.99137118,135.22867 L10.5443351,135.663192 C10.6389542,135.736297 10.7347969,135.809741 10.8318549,135.883522 L11.4287187,136.330206 C11.5306042,136.405315 11.6336883,136.480752 11.7379624,136.556515 L12.3778222,137.014955 L13.0458437,137.481006 L13.7416252,137.954489 L14.4647649,138.435223 L15.2148609,138.923027 C15.342101,139.004907 15.4704475,139.087074 15.599892,139.169525 L16.3896694,139.667596 L17.2053987,140.172288 L18.0466782,140.683418 C18.1889983,140.769133 18.3323663,140.855109 18.4767737,140.941342 L19.3556252,141.461792 L20.7198001,142.253639 L21.6592627,142.788721 L23.1124709,143.60167 L24.1100334,144.150257 L25.6485082,144.982616 L27.2363351,145.825809 L28.3216345,146.393657 L29.4278637,146.965868 L31.7015042,148.122662 L33.4586872,149.000372 L35.2588941,149.886074 L36.4822647,150.480682 L38.3511651,151.378352 L39.7846557,152.058089 L39.5233092,152.609512 C33.9795019,164.341059 28.4095909,177.337345 23.909579,190.015066 C19.7945304,201.608244 17.0322207,211.769975 15.9289252,220.30862 C15.2391007,225.647323 15.1854124,230.412049 15.9225811,234.687303 C16.9273904,240.514756 19.4150249,245.508991 23.8219931,249.080154 C28.2894205,252.699787 34.707253,256.111622 42.2505851,259.108751 L43.5545991,259.618444 C44.2119648,259.871221 44.8772532,260.120863 45.5499448,260.367242 L46.905045,260.855609 C51.4539226,262.468736 56.3164388,263.932935 61.3386755,265.209602 L62.8499842,265.586937 C63.1026163,265.648876 63.3556092,265.710336 63.6089437,265.771313 L65.1328956,266.131336 C66.151391,266.367434 67.1747361,266.595644 68.2016994,266.815657 L69.7447042,267.139492 L71.2922129,267.450801 C80.4859119,269.260336 89.1556861,270.214388 96.2480756,270.108515 C100.410399,270.046381 104.100973,269.626464 107.338261,268.750846 C112.097068,267.46369 116.072637,265.196026 118.85314,261.256448 L119.112436,260.87766 L119.368714,260.479566 C119.496116,260.275667 119.622426,260.06447 119.747702,259.845888 L119.996895,259.398849 L120.243439,258.931961 L120.487438,258.445066 L120.728999,257.93801 L120.968227,257.410636 L121.205227,256.862789 C121.244547,256.769766 121.283779,256.675884 121.322925,256.581139 L121.556781,256.00229 L121.788674,255.402578 C121.827164,255.300878 121.865578,255.198304 121.903916,255.09485 L122.13306,254.463552 L122.360504,253.811002 L122.586353,253.137044 L122.810713,252.441523 L123.033689,251.724283 L123.255386,250.985168 L123.47591,250.224022 L123.804728,249.040655 L124.131499,247.806843 L124.348386,246.956018 L124.564627,246.082382 L124.888009,244.728821 L125.210531,243.323063 L125.425244,242.356633 L125.639838,241.366616 L125.85442,240.352854 L126.069094,239.315193 L126.283966,238.253476 L126.606876,236.615457 L126.930825,234.922438 L127.147544,233.762943 L127.474014,231.977088 L127.802473,230.134832 L128.244126,227.589845 L128.578607,225.61394 L129.143306,222.191274 L129.71847,218.604636 L130.360403,214.49174 C131.851863,204.787967 133.268866,194.514206 134.556544,184.424198 L135.126142,184.527319 C145.551397,186.390659 155.012778,187.247665 163.380084,186.979289 C178.472053,186.495223 190.389396,182.366139 198.09429,173.356204 C205.582582,164.585307 209.379169,152.713044 210.156303,138.470404 L210.207162,137.535656 C210.60926,129.402693 210.006918,120.444344 208.504058,110.801556 L208.412781,110.232437 L208.394552,110.06346 C208.377828,109.934084 208.359056,109.804826 208.33823,109.675732 C204.390536,85.2049231 194.702906,57.0452588 183.386696,35.1079523 C179.222792,27.0190114 175.044983,20.2084953 171.107115,15.1821203 L170.881688,14.9027362 L170.80275,14.8103681 L170.721077,14.7073988 C168.597945,12.0581337 166.515352,9.88895827 164.381948,8.18160843 L163.895835,7.80129779 C155.938318,1.73655964 142.952919,-0.757033246 127.964737,0.198054722 L126.69343,0.28697316 C122.865613,0.578340598 118.914547,1.09114325 114.889527,1.8233856 L113.545182,2.07559104 C113.32069,2.11897894 113.095987,2.16304343 112.871082,2.20778418 L111.51928,2.48434102 C111.293597,2.53178543 111.067727,2.57990541 110.84168,2.62870062 L109.483335,2.9295719 C109.256611,2.98106666 109.029727,3.03323597 108.802691,3.08607948 Z" id="Sticker" fill="#FFFFFF" fill-rule="nonzero"></path>
            <g id="Thanksgiving/Stuffs/Mushroom2" transform="translate(12.481191, 12.487165)">
                <path d="M43.4900072,134.471711 C43.4900072,134.471711 3.02850019,213.407935 19.1632735,226.482588 C35.288081,239.547275 89.2832645,250.648772 96.0002733,241.13178 C102.717282,231.624753 111.706513,151.841467 111.706513,151.841467 C111.706513,151.841467 59.7244394,108.222751 43.4900072,134.471711" id="Fill-2608" fill="#F0EDDA"></path>
                <path d="M175.807108,152.479255 C148.101938,184.87689 13.8813527,122.991528 3.91546426,111.561172 C-6.02052649,100.130817 6.08802794,80.5985608 6.08802794,80.5985608 C21.176383,48.7689562 43.3604506,28.1205715 65.7039725,15.693672 C77.0750512,9.39551605 88.4660616,5.21003266 98.970108,2.74856981 C119.35035,-1.99497803 136.421917,-0.231095743 143.58739,5.22996353 C145.082274,6.37598875 146.746577,8.10997472 148.520505,10.3721288 L148.530471,10.3721288 C151.918873,14.6971283 155.695945,20.8557682 159.522846,28.2899839 C169.269485,47.1844518 179.19551,74.1608887 183.201797,98.9947568 L183.191831,99.0146877 C184.676748,108.172924 185.354429,117.022232 184.876066,125.074305 C184.268147,136.215663 181.507596,145.802413 175.807108,152.479255" id="Fill-2609" fill="#DF4F2A"></path>
                <path d="M150.992046,73.96158 C146.766509,84.8637677 134.4985,90.2749998 123.595818,86.0496546 C112.693136,81.8243095 107.281659,69.556857 111.507196,58.6546693 C115.732732,47.7524817 128.000741,42.3412496 138.903423,46.5665947 C149.806105,50.7919398 155.217582,63.0593923 150.992046,73.96158" id="Fill-2610" fill="#F0EDDA"></path>
                <path d="M101.810386,21.2045585 C98.0731781,30.8411357 87.2302915,35.6245453 77.5932774,31.8875065 C70.6071896,29.1769078 66.1823351,22.7292703 65.7039725,15.693672 C77.0750512,9.39551605 88.4660616,5.21003266 98.970108,2.74856981 C102.986361,7.79108075 104.301858,14.7768518 101.810386,21.2045585" id="Fill-2611" fill="#F0EDDA"></path>
                <path d="M159.044483,29.774834 C156.154376,37.2190151 147.773064,40.9261576 140.318579,38.0361809 C132.87406,35.1561697 129.16675,26.7553067 132.056858,19.3111255 C134.657954,12.5944212 141.693872,8.9470714 148.520505,10.3721288 L148.530471,10.3721288 C151.918873,14.6971283 155.695945,20.8557682 159.522846,28.2899839 C159.383324,28.7882557 159.233835,29.2865276 159.044483,29.774834" id="Fill-2612" fill="#F0EDDA"></path>
                <path d="M184.876066,125.074305 C179.604111,132.129834 170.126551,135.119465 161.496092,131.781043 C151.131568,127.755007 145.999135,116.125342 150.015389,105.751323 C154.031642,95.4071996 165.681765,90.2550689 176.046289,94.2811053 C178.836738,95.3573725 181.238517,96.9917041 183.201797,98.9947568 L183.191831,99.0146877 C184.676748,108.172924 185.354429,117.022232 184.876066,125.074305" id="Fill-2613" fill="#F0EDDA"></path>
                <path d="M58.3391809,63.0095651 C55.5188345,70.2843339 47.3368401,73.8918219 40.0717074,71.0716034 C32.7966089,68.2513848 29.1889573,60.0697613 32.0093037,52.804958 C34.8296501,45.5401547 43.0116445,41.9326667 50.2767772,44.7528852 C57.5419099,47.5631384 61.1495615,55.7447618 58.3391809,63.0095651" id="Fill-2614" fill="#F0EDDA"></path>
                <path d="M64.1094303,63.737042 C66.6507319,57.1997156 74.0055575,53.9509832 80.5531462,56.4921696 C87.090769,59.0233905 90.3396486,66.3878482 87.7983471,72.9251746 C85.2670114,79.4724665 77.9022199,82.7112334 71.3645971,80.1800125 C64.8170084,77.6388261 61.5681288,70.2843339 64.1094303,63.737042" id="Fill-2615" fill="#F0EDDA"></path>
                <path d="M76.2777801,155.628333 L70.5573601,172.34037 C70.0690316,173.755462 70.8264391,175.310071 72.2515612,175.788412 C73.6667173,176.276718 75.21143,175.519345 75.6997586,174.104253 L81.4201785,157.392216 C81.908507,155.977124 81.1510995,154.422515 79.7359434,153.944174 C78.3108213,153.455868 76.7661086,154.213241 76.2777801,155.628333" id="Fill-2616" fill="#EFD1A3"></path>
                <path d="M82.9748571,169.609841 L78.520105,183.023319 C78.0517082,184.448376 78.8190816,185.993019 80.2541696,186.461394 C81.6792916,186.939735 83.2140384,186.162431 83.6924011,184.737374 L88.1371873,171.323896 C88.6055841,169.898838 87.8382106,168.354196 86.4130886,167.88582 C84.9780007,167.417445 83.4432539,168.184783 82.9748571,169.609841" id="Fill-2617" fill="#EFD1A3"></path>
                <path d="M58.3192491,188.354827 L54.312962,206.491922 C53.9940536,207.956841 54.9208812,209.411795 56.3858668,209.730689 C57.8508524,210.059548 59.3058721,209.132763 59.6247805,207.657878 L63.6310677,189.530749 C63.9499761,188.065829 63.0231485,186.610876 61.5581629,186.291982 C60.0931773,185.963122 58.6381576,186.889908 58.3192491,188.354827" id="Fill-2618" fill="#EFD1A3"></path>
                <path d="M79.5665233,201.88789 L76.4372343,215.809605 C76.10836,217.28449 77.0252217,218.739443 78.4902073,219.068303 C79.9551929,219.397162 81.4102126,218.470377 81.7490528,217.005457 L84.8783418,203.083742 C85.2072161,201.618823 84.2803885,200.16387 82.8154029,199.825045 C81.3504173,199.496185 79.8953976,200.422971 79.5665233,201.88789" id="Fill-2619" fill="#EFD1A3"></path>
                <path d="M94.1565839,168.164853 L89.6420365,187.607419 C89.3031962,189.072339 90.2100921,190.527292 91.6750777,190.876083 C93.1400633,191.214907 94.6050489,190.298087 94.9438891,188.833168 L99.4584365,169.390601 C99.7972768,167.925682 98.8903809,166.460763 97.4253953,166.121938 C95.9604097,165.783113 94.4954241,166.699933 94.1565839,168.164853" id="Fill-2620" fill="#EFD1A3"></path>
                <path d="M66.3916188,200.901312 L64.7273154,216.905803 C64.5678612,218.400619 65.654143,219.735987 67.1490263,219.895434 C68.6439096,220.044916 69.9793386,218.968648 70.1387928,217.473833 L71.8030962,201.459376 C71.9625504,199.964561 70.8762686,198.629192 69.3813853,198.479711 C67.886502,198.320264 66.551073,199.406496 66.3916188,200.901312" id="Fill-2621" fill="#EFD1A3"></path>
            </g>
        </g>
        <g id="Thanksgiving/Stickers/Mushroom" transform="translate(389.998554, 199.260498)">
            <path d="M20.7551322,28.4622757 C9.14553854,43.4192063 1.10630571,63.7556569 0.738666759,75.8067469 L0.729448914,76.1674305 L0.634676415,77.6765512 L0.503086356,80.0268845 L0.407279022,81.9563267 C0.396849108,82.178197 0.386502112,82.4024991 0.376249171,82.6291687 C0.0343397665,90.1880186 -0.10302245,97.933685 0.0839946934,105.236851 L0.136117896,107.005929 C0.155622478,107.589322 0.177274323,108.166388 0.201124678,108.737049 L0.279322521,110.429732 L0.371018905,112.083501 C0.650238654,116.7136 1.0957059,120.869346 1.73889249,124.501796 C3.24195548,132.990471 5.59207435,138.887699 11.0763062,142.771496 C17.6363229,147.400848 26.6818575,147.852773 37.6804685,145.51571 L38.7685789,145.27689 C38.9509741,145.235604 39.1338895,145.19358 39.3173228,145.150826 L40.4241177,144.885573 L41.5432282,144.603065 L42.6745418,144.303597 C43.0536676,144.20098 43.4348085,144.095585 43.8179457,143.987461 L44.9733275,143.654952 C45.1668831,143.598185 45.360933,143.540749 45.5554749,143.482648 L46.7286124,143.126129 C47.1216138,143.004666 47.5165647,142.880596 47.9134461,142.753969 L48.7650528,142.478807 C59.2353157,139.053457 70.0586039,133.95774 79.0177534,128.182766 L79.9470116,127.575605 L79.8659156,127.264174 C80.184033,128.464414 80.4813781,129.651174 80.757035,130.821806 L81.0773542,132.218655 C82.8328405,140.088347 83.5685221,147.163386 82.9964058,152.611757 L80.4182613,176.688808 L77.8982924,199.884348 L76.4064706,213.53793 C75.6615987,220.33589 80.5163169,226.470847 87.30249,227.307342 L88.2250538,227.414838 L89.7022006,227.568881 L91.1222869,227.702113 L92.7357811,227.839129 C97.3912816,228.214235 102.097002,228.414394 106.581422,228.344185 C112.096868,228.257833 116.89569,227.773992 120.994009,226.703147 C123.924994,225.937314 126.534036,224.868095 128.858129,223.297004 L129.194794,223.064365 C129.612112,222.769605 130.016149,222.460002 130.405633,222.135663 L130.82219,221.777134 L130.666159,221.602374 C135.509289,227.144238 143.771321,229.055189 153.025232,229.051201 C156.948045,229.051201 160.716947,228.609979 163.982138,227.659144 C166.225701,227.005811 168.282722,226.106379 170.156387,224.824195 C173.049362,222.844477 175.323463,220.075628 176.41089,216.440075 C177.448079,212.990696 177.420834,208.750466 176.622858,203.630983 L176.453073,202.595336 C176.303168,201.722485 176.132397,200.825045 175.94212,199.902609 L175.704512,198.783662 C175.66338,198.595162 175.621488,198.405656 175.57885,198.21514 L175.314133,197.059902 L175.031996,195.880275 L174.732962,194.676101 L174.411369,193.424926 C172.626735,186.610842 170.366234,180.159709 168.054719,175.718461 L167.875134,175.379948 L167.870444,175.266444 C167.861914,175.028721 167.858128,174.763508 167.859449,174.472694 L167.869012,173.857494 C167.874542,173.641422 167.882451,173.414533 167.892846,173.177385 L167.931601,172.435728 L167.958677,172.014262 C167.991047,171.539406 168.031016,171.042772 168.078397,170.52532 L168.182985,169.462943 L168.307005,168.346758 L168.450123,167.17847 C168.526401,166.581585 168.609717,165.965801 168.699881,165.332078 L168.889287,164.040996 C168.922359,163.821925 168.956177,163.60093 168.990736,163.37805 L169.206915,162.018409 L169.387051,160.930333 L171.245487,161.539631 L172.393945,161.907232 L173.503127,162.254286 L174.575046,162.580622 L175.611715,162.886069 C175.781668,162.935227 175.950236,162.983507 176.11746,163.030906 L177.10503,163.304698 L178.062382,163.557174 C183.56272,164.967442 187.623497,165.280939 192.042951,164.344901 C203.041113,162.015495 207.944275,152.571305 206.819749,140.537678 C205.705475,128.644052 201.033473,115.12184 193.346431,104.467685 L193.009854,104.005523 C186.922102,95.7239347 179.250346,89.46071 170.180121,85.7586901 L169.782029,85.5979129 L170.008811,85.4037654 C170.423274,85.0410562 170.826588,84.6729424 171.218404,84.2995435 C183.509239,72.5864235 183.285321,56.1775715 168.985117,45.8662598 L168.245938,45.3433708 L167.647892,44.9097615 C167.349994,44.6895152 167.053242,44.4636663 166.755185,44.2302338 L166.156606,43.7526706 L165.550194,43.2513632 L164.931593,42.7227899 C164.827236,42.6322265 164.722189,42.5403804 164.616362,42.4471781 L163.971313,41.8711031 L163.30319,41.2589584 L162.607638,40.6072224 L161.880301,39.9123735 L161.116825,39.1708902 L158.256566,36.3334375 L157.061439,35.1442524 L155.900884,34.0016427 L154.827902,32.9606684 L153.788732,31.9705442 C150.715737,29.0705435 147.774919,26.5606575 144.527813,24.1436144 C136.21458,17.9555047 126.299214,12.7654925 113.67828,8.35178874 L112.119262,7.81520007 C108.973882,6.74972224 105.663534,5.7302606 102.172012,4.75355755 L100.411078,4.26875416 C100.115047,4.18854244 99.8177401,4.10862388 99.5191465,4.0289966 L97.7120747,3.5547132 L95.8736815,3.08733 C94.9465796,2.85534838 94.0075634,2.6259204 93.0563797,2.39899517 L91.1377138,1.94846662 C62.4929425,-4.67184522 38.492229,5.9690778 21.1712716,27.9304099 L20.7551322,28.4622757 Z" id="Path" fill="#FFFFFF" fill-rule="nonzero"></path>
            <g id="Thanksgiving/Stuffs/Mushrooms" transform="translate(12.500753, 12.526745)">
                <path d="M74.3012632,95.6290292 C74.3012632,95.6290292 84.9559615,122.064703 82.9265904,141.390782 C80.8972192,160.696834 76.3306343,202.373074 76.3306343,202.373074 C76.3306343,202.373074 109.312414,206.43856 111.341785,197.806912 C113.371156,189.155237 109.312414,124.608135 103.224301,112.912352 C97.1341877,101.236596 88.5088605,80.3884629 88.5088605,80.3884629 L74.3012632,95.6290292" id="Fill-2342" fill="#FEEED9"></path>
                <path d="M129.102282,123.086081 C129.102282,123.086081 124.027854,196.785534 127.578754,200.85102 C131.131653,204.916506 150.413678,205.417182 151.935206,200.330317 C153.458734,195.26348 147.876464,174.415347 143.817722,167.806428 C139.758979,161.19751 149.905835,121.043324 149.905835,121.043324 L129.102282,123.086081" id="Fill-2343" fill="#FEEED9"></path>
                <path d="M0.724063124,64.1265184 C0.724063124,64.1265184 -2.82683653,113.93373 5.79849067,120.041973 C14.4258172,126.130189 46.3919117,115.455784 64.6602507,101.737272 C82.9265904,88.0187595 85.4638041,77.8450307 115.90837,75.3015985 C146.352936,72.7581663 165.634961,54.9741678 148.89015,43.278385 C132.145339,31.6026293 128.594439,13.7986038 75.8227917,1.60214542 C23.0511444,-10.594313 0.724063124,50.408006 0.724063124,64.1265184" id="Fill-2344" fill="#782A22"></path>
                <path d="M61.1073517,66.1492479 C61.1073517,66.1492479 51.9741818,51.4293843 35.7372133,58.0182757 C19.5002448,64.627194 4.27696216,68.6926801 11.8886035,84.9746517 C19.5002448,101.236596 24.572673,94.6276779 33.1999995,85.976003 C41.8253267,77.3443551 56.5407667,70.7354367 61.1073517,70.7354367 C65.6739366,70.7354367 65.6739366,70.7354367 65.6739366,70.7354367 L61.1073517,66.1492479" id="Fill-2345" fill="#A54943"></path>
                <path d="M70.7483641,36.6694667 C70.7483641,36.6694667 64.1524081,37.1901694 66.6896218,42.2770338 C69.2268356,47.3438712 81.4050618,53.4521139 83.9422756,46.3425199 C86.4794894,39.2128989 70.7483641,36.6694667 70.7483641,36.6694667" id="Fill-2346" fill="#A54943"></path>
                <path d="M57.0486094,81.9105168 C57.0486094,81.9105168 36.7508992,93.105624 48.9291254,93.6062996 C61.1073517,94.1069752 63.1367228,85.976003 57.0486094,81.9105168" id="Fill-2347" fill="#A54943"></path>
                <path d="M136.713923,81.9105168 C136.713923,81.9105168 113.371156,94.6276779 106.267358,105.802758 C99.1635589,116.977838 90.5382317,119.52127 99.6714015,122.064703 C108.804571,124.608135 141.280508,130.195675 155.488105,134.781864 C169.695703,139.348025 183.395457,145.456268 181.873929,129.174297 C180.350401,112.912352 168.680017,81.4098412 136.713923,81.9105168" id="Fill-2348" fill="#782A22"></path>
            </g>
        </g>
    </g>
</svg>