<?xml version="1.0" encoding="UTF-8"?>
<svg width="291px" height="333px" viewBox="0 0 291 333" version="1.1" xmlns="http://www.w3.org/2000/svg" xmlns:xlink="http://www.w3.org/1999/xlink">
    <title>decoration-2</title>
    <g id="decoration-2" stroke="none" stroke-width="1" fill="none" fill-rule="evenodd">
        <g id="Group" transform="translate(106.745526, 194.107862) scale(-1, -1) translate(-106.745526, -194.107862) translate(-70.084454, 0.448678)">
            <g transform="translate(30.725041, 215.820322)" id="Thanksgiving/Stuffs/Leaf6">
                <path d="M9.04885427,18.5126505 C9.04885427,18.5126505 29.6813227,35.8381373 29.0586562,48.7295172 C28.4268848,61.6158236 8.36599493,69.0533532 1.77513775,49.7797004 C-4.81066121,30.5060475 9.04885427,18.5126505 9.04885427,18.5126505" id="Fill-2692-Copy" fill="#C13E2B"></path>
                <path d="M11.486915,35.2496289 C10.439864,29.3594707 9.46362809,22.0741415 9.46362809,15.5447413 C9.46362809,12.4043383 9.69124787,9.43642914 10.2375353,6.89975464 C10.5733616,5.34035236 11.3478872,3.49911249 12.5611123,1.37603503 C12.742877,1.05795871 12.6741759,0.655728483 12.3971412,0.416014618 C12.1768926,0.225436903 11.8438521,0.249489897 11.6532744,0.469738484 C11.6310877,0.495379426 11.6114256,0.523100369 11.5945333,0.552500366 C10.2176399,2.95416214 9.35036477,4.9802844 8.99270805,6.63086714 C8.42163532,9.29437537 8.19350972,12.3434581 8.19350972,15.5447413 C8.19350972,22.6423566 9.321998,30.5212676 10.4449222,36.6397265 C11.1443929,40.4338303 11.8438636,43.7202193 12.5433343,46.4988935 C12.6285681,46.8374578 12.97212,47.04283 13.3106861,46.9576034 C13.3122792,46.9572023 13.3138707,46.9567951 13.3154606,46.9563817 C13.6557341,46.8678987 13.862027,46.5227181 13.7788231,46.1811154 C12.9077991,42.6068534 12.1438297,38.9630246 11.486915,35.2496289 Z" id="Fill-2696-Copy" fill="#201711"></path>
            </g>
            <g transform="translate(111.725041, 305.820322)" id="Thanksgiving/Stuffs/Leaf6-Copy">
                <g transform="translate(19.258025, 40.629441) scale(-1, 1) rotate(-50.000000) translate(-19.258025, -40.629441) ">
                    <path d="M12.0031538,24.5567211 C12.0031538,24.5567211 39.371778,47.5386895 38.5458212,64.6388892 C37.7077871,81.7323591 11.0973523,91.5981177 2.35469052,66.0319397 C-6.3812616,40.4657616 12.0031538,24.5567211 12.0031538,24.5567211" id="Fill-2692-Copy" fill="#C13E2B"></path>
                    <path d="M15.2372006,46.7580429 C13.848305,38.9448466 12.5533443,29.2809794 12.5533443,20.6198393 C12.5533443,16.4541472 12.8552781,12.5172654 13.5799193,9.15240909 C14.0253873,7.08388805 15.0527826,4.64151417 16.6621053,1.82528745 C16.9032131,1.40336452 16.8120823,0.869812861 16.4446004,0.55183643 C16.1524443,0.299038279 15.7106717,0.330944174 15.4578735,0.623100239 C15.4284432,0.65711252 15.4023618,0.693883887 15.3799544,0.732882491 C13.5535283,3.91864665 12.4031024,6.60626393 11.9286768,8.79573432 C11.1711583,12.3288334 10.8685535,16.3733907 10.8685535,20.6198393 C10.8685535,30.0347072 12.3654744,40.4859508 13.8550146,48.6019841 C14.7828485,53.6347873 15.7106824,57.9941185 16.6385164,61.6799778 C16.7515547,62.1290988 17.2072852,62.4015305 17.656402,62.2884753 C17.6585153,62.2879433 17.6606266,62.2874031 17.6627357,62.2868546 C18.1141186,62.1694794 18.3877723,61.7115871 18.2773713,61.2584479 C17.1219754,56.5172585 16.1085852,51.6837901 15.2372006,46.7580429 Z" id="Fill-2696-Copy" fill="#201711"></path>
                </g>
            </g>
            <g transform="translate(213.725041, 246.820322)" id="Thanksgiving/Stuffs/Leaf6-Copy-2">
                <g transform="translate(14.518107, 35.629441) rotate(130.000000) translate(-14.518107, -35.629441) ">
                    <path d="M9.04885427,21.5346858 C9.04885427,21.5346858 29.6813227,41.6884134 29.0586562,56.6842032 C28.4268848,71.6740913 8.36599493,80.3257355 1.77513775,57.90582 C-4.81066121,35.4859046 9.04885427,21.5346858 9.04885427,21.5346858" id="Fill-2692-Copy" fill="#C13E2B"></path>
                    <path d="M11.486915,41.0038359 C10.439864,34.1521586 9.46362809,25.6775604 9.46362809,18.0822903 C9.46362809,14.4292428 9.69124787,10.9768473 10.2375353,8.02608186 C10.574676,6.2050207 11.3539567,4.05354304 12.5753774,1.57164889 C12.7542221,1.20819672 12.6826356,0.771285644 12.3971412,0.483925524 C12.2062384,0.291775166 11.8957125,0.290763812 11.7035621,0.481666602 C11.6651887,0.519790885 11.6333867,0.5640008 11.6094262,0.61249697 C10.223892,3.41942625 9.35165256,5.78636084 8.99270805,7.71330073 C8.42163532,10.8116044 8.19350972,14.3584244 8.19350972,18.0822903 C8.19350972,26.3385319 9.321998,35.5036092 10.4449222,42.6208553 C11.1508622,47.0751344 11.8568022,50.9278433 12.5627422,54.1789821 C12.6324193,54.4996523 12.9488293,54.7031677 13.2695094,54.6335364 C13.2849791,54.6301773 13.3003084,54.6262014 13.3154606,54.6216182 C13.6626787,54.5165905 13.8719611,54.163522 13.7974264,53.8085068 C12.9186729,49.6223615 12.1485024,45.3541379 11.486915,41.0038359 Z" id="Fill-2696-Copy" fill="#201711"></path>
                </g>
            </g>
            <g transform="translate(-2.915546, 18.551322)" fill="#62261D" id="Thanksgiving/Stuffs/Leaf7-Copy">
                <g transform="translate(55.000000, 52.084454) scale(-1, 1) rotate(-90.000000) translate(-55.000000, -52.084454) ">
                    <path d="M78.2442145,18.5334201 C82.734821,22.2043319 88.5482981,23.6364594 92.092854,23.624625 C93.0532907,23.624625 93.8464178,23.5768584 94.3985679,23.5287115 C95.1758215,23.2082416 95.9473006,22.876686 96.7056754,22.5375128 C102.022169,20.1716152 106.698061,17.4311757 108.504852,16.4649976 C108.566042,16.4328173 108.624787,16.401803 108.681087,16.3719546 C109.030391,16.1867291 109.463688,16.3164801 109.653729,16.6631879 C109.847977,17.0175704 109.727509,17.4621087 109.380888,17.6698897 C106.466086,19.417555 103.185015,21.1391912 99.5376757,22.8347984 C98.4379509,23.3459404 97.2943698,23.8543643 96.1277097,24.3481751 L92.963687,35.6561037 C93.0925157,35.9340886 93.2474471,36.2767594 93.4210615,36.6767473 L93.5742762,37.0334591 C93.679239,37.2803958 93.7896101,37.5453608 93.9040052,37.8269793 L94.0784429,38.2617253 C96.5874948,44.5927007 100.601062,58.1333367 92.8348628,65.6905333 C82.7606773,75.5161735 79.8267719,43.4372002 91.5194524,35.4492039 L94.2911596,25.1052981 C89.7746795,26.9171035 85.0799651,28.426763 81.3572231,28.9757653 C76.7015127,29.6702213 71.6452184,30.9270544 66.7745143,33.302064 C66.2570406,34.3658524 65.3707643,36.264046 65.0713664,37.3864696 C64.6261611,39.0091533 64.032554,41.2264082 63.4018466,43.6046928 C62.4155181,47.3009651 61.957895,51.3676066 61.5395693,54.0982421 C62.7271806,58.5345827 65.8745941,72.9091335 58.0841167,76.9254505 C49.0624375,81.5765034 49.1099406,59.8005605 60.2915981,53.2514096 C61.1099051,48.8286686 61.8320915,43.0534263 64.2007406,34.9928089 L64.314,34.609 L63.8499006,34.8818892 C59.3656628,37.5538651 55.1253192,41.3046685 51.5791728,46.6270961 C47.4857575,52.7833848 43.6644121,59.236959 39.9543681,64.8358373 C39.493904,65.5291924 38.993365,66.2136249 38.4627459,66.885879 C38.1076902,69.0405278 37.8202405,71.233328 37.5983568,73.4631085 C37.3667674,75.790426 37.1733612,78.4921136 37.0181383,81.5681713 C38.8380027,86.2369276 44.4750094,102.239763 37.0605337,104.151854 C28.9589148,106.255685 31.3471764,90.0101665 35.571822,81.9011594 L35.5371319,82.5491025 C35.6912852,79.3777219 35.9313605,76.2603239 36.2573578,73.1969086 C36.4518341,71.3694038 36.639471,69.9127242 36.8202685,68.8268699 C33.5056035,72.5166736 29.5277937,75.7022315 26.7547155,77.7773178 C23.9571984,90.8084349 1.69534936,100.142325 0.0713943718,89.832599 C-1.43221229,80.2979818 21.2602194,77.0498999 26.0879094,76.4684375 C29.6047807,73.8444916 35.3216632,69.2176837 38.7547871,64.0306888 C41.6145871,59.719555 44.571851,54.8452161 47.6907905,49.9748227 C46.5650721,50.1652959 45.4382255,50.28959 44.3107084,50.3478289 C43.0767356,50.4115664 40.7523154,50.2778235 37.3374478,49.9465999 C26.3386544,53.3473948 4.28297349,44.0482153 16.8902608,37.0644102 C28.4709556,30.6492859 36.5809364,45.0635366 38.370241,48.6372029 C40.5833403,48.8631581 42.5680355,48.9181349 44.324745,48.8023407 C45.9415009,48.6957717 47.4091961,48.5508017 48.7278306,48.3674308 C49.2766097,47.5199388 49.8315525,46.6746285 50.3919587,45.8343345 C54.5595749,39.5541769 59.7152994,35.3426313 65.0824965,32.5431922 C66.5564898,31.7729327 68.0460737,31.1067797 69.5368596,30.5299647 L62.3986539,27.0832545 C54.370969,29.297919 33.4505658,29.8999271 43.2315737,22.7451552 C51.5958038,16.6340437 59.7671566,22.9273855 62.6211153,25.5972244 L71.375616,29.8626576 C74.7106481,28.7299553 78.0220379,28.0147688 81.148224,27.551272 C83.8228173,27.1562856 87.1558772,26.2249392 90.5782148,25.0010407 C86.7765154,24.6577877 81.4189974,23.0847775 77.083049,19.4487727 C74.7591227,19.5212863 69.4802912,19.3391438 65.6526066,16.5764796 C60.6069467,12.9223445 56.4022301,0.287707764 67.3344933,0.00280909239 C76.9000897,-0.235662348 78.0949594,14.7787108 78.2442145,18.5334201 Z" id="Combined-Shape"></path>
                </g>
            </g>
            <g transform="translate(31.084454, 21.551322)" fill="#993735" id="Thanksgiving/Stuffs/Leaf7">
                <path d="M113.809821,26.9590653 C120.341751,32.2972576 128.797583,34.3803044 133.953242,34.363091 C135.350997,34.363091 136.505128,34.2935371 137.308311,34.2234667 C138.438439,33.757064 139.560143,33.2749861 140.662801,32.7818368 C148.395882,29.3405311 155.197179,25.3544373 157.82524,23.9490874 C157.914251,23.9022754 157.999705,23.8571597 158.081604,23.8137401 C158.589682,23.5443502 159.219917,23.7330743 159.496333,24.2373643 C159.778867,24.7528141 159.603646,25.3993957 159.099502,25.7016407 C154.859782,28.2437052 150.087306,30.747909 144.782074,33.2142522 C143.182337,33.9577951 141.518798,34.697384 139.821687,35.4157121 L135.220414,51.8645147 C137.898182,57.642879 148.321444,82.6185796 135.032528,95.5498666 C120.379097,109.841775 116.111627,63.1809372 133.119447,51.5623122 L137.150849,36.5167686 C130.581401,39.1521347 123.752696,41.3480161 118.337779,42.1465677 C111.566197,43.1566318 104.212009,44.984612 97.1276967,48.4388146 C96.374817,49.9846818 95.0849068,52.7471083 94.6492602,54.3803194 C94.0016889,56.7405867 93.1382604,59.9656847 92.2208677,63.4250077 C90.7862012,68.8014296 90.1205681,74.7165753 89.512092,78.6884092 C91.2391777,85.1395775 95.8180341,106.049421 84.485988,111.891564 C71.3635047,118.656753 71.4326413,86.9824364 87.6970216,77.456507 C88.8941285,70.9854667 89.949917,62.5252445 93.4429865,50.6946257 L93.548,50.34 L93.0143899,50.6530761 C86.4394692,54.5448791 80.2196483,60.0234352 75.0242513,67.8212306 C69.0701927,76.7758324 63.5118722,86.1628495 58.1154445,94.3066724 C57.4451162,95.3160358 56.7163992,96.3123989 55.943868,97.2910143 C55.4290522,100.424992 55.0111371,103.613337 54.688519,106.855431 C54.3516812,110.240424 54.0703762,114.169892 53.844604,118.643836 C56.4908355,125.433247 64.691452,148.712247 53.9062308,151.493606 C42.1226657,154.553566 45.5955346,130.926316 51.7398812,119.130784 L51.6903737,120.071422 C51.9145966,115.458505 52.263797,110.924107 52.7379749,106.468231 C53.0206903,103.811538 53.2934686,101.693621 53.55631,100.114479 C48.7356703,105.478255 42.9518749,110.110433 38.9187284,113.128565 C34.846581,132.085102 2.46595348,145.661505 0.103846359,130.665599 C-2.08330187,116.796532 30.9264909,112.072219 37.9468591,111.226721 C43.0633486,107.408673 51.3775201,100.679428 56.3705995,93.1355474 C60.5302846,86.8648434 64.8317338,79.7749412 69.3683444,72.6907733 C67.7306924,72.9677386 66.0918035,73.1485028 64.4519394,73.2332056 C62.6573076,73.3259026 59.2769903,73.1314311 54.3109878,72.6497912 C38.3115172,77.5965256 6.22956607,64.0702497 24.5676521,53.9118694 C41.4124085,44.5807188 53.208788,65.5472348 55.8113103,70.7451238 C59.0302591,71.0736831 61.9171186,71.1536524 64.4723563,70.9852229 C66.8244988,70.8301805 68.959734,70.6192587 70.878062,70.3524574 C71.6749713,69.1200593 72.482209,67.8904425 73.2973945,66.668123 C79.3593816,57.5333482 86.8586174,51.4074637 94.6654495,47.3355522 C96.8101395,46.2148091 98.9775217,45.2455925 101.146647,44.4063998 L90.7619342,39.3937541 C79.08549,42.6151421 48.6552645,43.490879 62.882289,33.0838622 C75.0493697,24.1942948 86.9358586,33.3503205 91.0862081,37.2332148 L103.818231,43.4368804 C108.669473,41.7891468 113.486336,40.7487939 118.03378,40.0745774 C121.924729,39.4999586 126.773757,38.1449268 131.752552,36.3642842 C126.222691,35.86654 118.428681,33.5786639 112.120963,28.2892614 C108.73931,28.3945557 101.061795,28.1293413 95.4947005,24.1112431 C88.1555588,18.7961375 82.0396074,0.418484021 97.9410811,0.00408595257 C111.855834,-0.342810465 113.592957,21.4999418 113.809821,26.9590653 Z" id="Combined-Shape"></path>
            </g>
            <g transform="translate(167.084454, 49.551322)" fill="#2F1612" id="Thanksgiving/Stuffs/Leaf8">
                <g transform="translate(80.000000, 70.461767) rotate(140.000000) translate(-80.000000, -70.461767) ">
                    <path d="M123.01,0 L123.008191,0.00396654193 L122.984815,0.0354441599 C122.577568,0.583826054 117.495398,7.42598706 111.299183,15.7081437 C104.81366,24.3215216 104.504826,35.094176 102.366741,43.3990858 C101.651586,46.1464171 100.195498,48.5250192 98.5669517,50.478198 C101.027613,51.0512906 107.39112,52.2487211 116.834447,52.0124637 C128.177699,51.7286731 155.184691,38.4306806 159.433213,36.3048181 L159.67763,36.1822629 C159.738019,36.1519147 159.790215,36.1256281 159.833972,36.1035596 L159.993235,36.0230176 L159.993235,36.0230176 L160,36.0195802 L159.963969,36.0641973 C159.441098,36.7132185 153.351073,44.32449 149.808463,51.1107878 C146.126206,58.1818253 137.502598,64.9443947 123.937639,65.5613308 C112.27347,66.0918188 95.5757739,58.8867793 91.1252707,56.8571509 C89.3843068,58.1466665 87.0641946,59.8816662 84.2880475,62.0020838 C77.8500371,66.937573 68.9413512,73.9374256 59.1299183,82.2186071 C57.880139,83.2732287 56.6155798,84.3486911 55.339481,85.4433209 C55.2654796,85.5363537 55.1903812,85.6277771 55.1149035,85.7182841 C57.5752958,86.2973245 63.9392383,87.5090266 73.3838159,87.2727379 C84.7270676,86.9889473 111.713953,73.6708712 115.959258,71.5417953 L116.203489,71.4190548 C116.384517,71.3278725 116.491873,71.2733 116.518852,71.2595687 L116.525612,71.2561261 L116.509544,71.2761224 C116.153199,71.7202661 109.954118,79.4812538 106.357832,86.3473336 C102.675575,93.4183711 94.0258352,100.204669 80.4870082,100.821605 C68.9459074,101.346496 52.2142605,94.3965661 47.4785234,92.3110573 C39.6830616,99.2465361 31.7111755,106.742724 24.2461475,114.445115 C23.9636351,114.834274 23.6704069,115.208221 23.3712834,115.567801 C25.829874,116.146259 32.1955554,117.35937 41.6451373,117.122957 C53.1116852,116.836081 80.5637939,103.250549 84.350903,101.34998 L84.6421903,101.20337 C84.7376344,101.155168 84.7869339,101.130073 84.7869339,101.130073 L84.7869339,101.130073 L84.7708716,101.150011 C84.414652,101.592857 78.2176775,109.331472 74.616778,116.197552 C70.9131403,123.292318 62.2895323,130.054888 48.7245731,130.671824 C36.6444548,131.222193 19.1362912,125.16315 15.4986984,123.849212 C10.7605574,129.17991 6.38642977,134.539642 2.59387709,139.816891 L1.92427617,140.756357 L0,139.380115 C4.36293232,133.212541 9.50800671,126.945192 15.103314,120.74443 C14.4472641,119.870584 13.7216692,118.438415 13.8975501,116.50602 C14.2063846,113.1366 23.1625835,103.882557 24.9918337,87.581206 C26.8448404,71.2561261 47.7980698,65.1104929 47.7980698,65.1104929 L47.7863823,65.1263019 C47.510745,65.4991047 42.3939551,72.4175133 36.0861173,80.7949082 C29.7571701,89.2544813 29.3308115,99.7627137 27.2847037,107.994376 C33.5306001,101.78074 40.0106888,95.7605051 46.3610939,90.1157552 C45.8960033,89.2595388 45.5285928,88.0994027 45.6599852,86.6558017 C45.9688196,83.2626529 54.9012621,74.0323388 56.7542687,57.707259 C58.5811433,41.4059075 79.5605048,35.2365459 79.5605048,35.2365459 L79.5487602,35.2524074 C79.2717874,35.6264401 74.130974,42.5672946 67.8485523,50.9446896 C61.363029,59.5580675 61.0541945,70.3307219 58.8923534,78.65936 C58.8197192,78.9414913 58.7392163,79.2197067 58.6514634,79.4939467 C72.3759238,67.9700421 84.1884163,59.0270069 89.8205061,54.8616804 C89.3501271,54.0010284 88.9793666,52.8375597 89.1106162,51.3955275 C89.4194506,48.026107 98.3518931,38.7957929 100.2049,22.4707131 C102.039376,6.30888405 122.593981,0.12393061 123.00489,0.00184772379 L123.01,0 Z" id="Combined-Shape"></path>
                </g>
            </g>
            <g transform="translate(79.496387, 0.000000)" id="Thanksgiving/Stuffs/Leaves">
                <g transform="translate(91.500000, 132.414634) scale(-1, 1) translate(-91.500000, -132.414634) ">
                    <path d="M64.0433431,104.684068 C64.0433431,104.684068 111.160737,150.583239 134.461877,127.852777 C157.755002,105.12962 102.505779,75.2630209 64.0433431,104.684068" id="Fill-2690" fill="#C13E2B"></path>
                    <path d="M33.2019926,107.53268 C33.2019926,107.53268 67.0305753,152.029457 56.8302703,169.895366 C46.6299654,187.768579 21.4344836,192.457833 12.2767956,161.269185 C3.111093,130.073234 33.2019926,107.53268 33.2019926,107.53268" id="Fill-2691" fill="#C13E2B"></path>
                    <path d="M67.278297,161.174232 C67.278297,161.174232 96.997614,186.117845 96.1007157,204.677647 C95.1907028,223.230144 66.2946961,233.938003 56.8011266,206.189602 C47.314843,178.441202 67.278297,161.174232 67.278297,161.174232" id="Fill-2692" fill="#C13E2B"></path>
                    <path d="M142.214109,221.725493 C151.349939,247.596732 142.367113,272.014448 122.971962,261.109377 C103.576811,250.211611 98.4871819,194.276562 104.825943,186.804434 C123.65549,192.832778 136.118212,204.473131 142.214109,221.725493 Z" id="Fill-2693" fill="#C13E2B"></path>
                    <path d="M97.8719258,149.18815 C97.8719258,149.18815 136.843648,130.31427 158.439879,150.480981 C180.042668,170.647692 171.160388,180.040807 153.492731,186.234711 C135.81706,192.43592 97.8719258,149.18815 97.8719258,149.18815" id="Fill-2694" fill="#C13E2B"></path>
                    <path d="M22.7029644,68.3313988 C22.7029644,68.3313988 22.9725439,68.6600848 23.4898451,69.2955443 C27.3732469,74.0943596 45.0562041,96.2258822 65.0342299,125.318243 C85.0195416,154.410605 107.28535,190.478413 120.319883,223.084062 L122.017505,222.404777 C108.013943,187.38146 83.5477833,148.603819 62.5715848,118.547312 C41.6026723,88.4908055 24.1310071,67.1773458 24.1164352,67.1627375 L22.7029644,68.3313988" id="Fill-2695" fill="#201711"></path>
                    <path d="M74.3092214,201.894772 C74.3092214,201.894772 74.2873636,201.799819 74.2363621,201.617215 C73.8866374,200.222126 72.2910182,193.750664 70.7901162,185.270566 C69.2819283,176.790468 67.8757434,166.301733 67.8757434,156.901314 C67.8757434,152.380056 68.2036103,148.107138 68.990491,144.455071 C69.7773717,140.803005 71.0225375,137.779094 72.7937476,135.719329 L71.4086919,134.521451 C69.3475017,136.931815 68.028748,140.233283 67.1974231,144.067952 C66.3748414,147.902622 66.0462459,152.292406 66.0462459,156.901314 C66.0462459,167.119796 67.6717373,178.463114 69.2892142,187.271898 C70.9139771,196.080683 72.531454,202.340324 72.5387399,202.354933 L74.3092214,201.894772" id="Fill-2696" fill="#201711"></path>
                    <path d="M35.3804863,87.365969 C35.3804863,87.3805773 33.580861,93.9542969 31.7885217,103.442365 C29.9888965,112.930434 28.1892713,125.325548 28.1892713,137.034072 C28.1965572,145.799032 29.187444,154.169568 32.0216716,160.699463 L33.6974359,159.96905 C31.0234989,153.826274 30.0180402,145.652949 30.0180402,137.034072 C30.0180402,125.515455 31.7958077,113.200687 33.580861,103.778356 C34.4770307,99.074494 35.3659144,95.0864375 36.0362201,92.2743463 C36.371373,90.8719528 36.6482384,89.7617246 36.84423,89.0093989 C36.9396757,88.629584 37.012535,88.3374187 37.0708225,88.1402071 C37.121824,87.9502997 37.1429532,87.8480418 37.1429532,87.8480418 L35.3804863,87.365969" id="Fill-2697" fill="#201711"></path>
                    <polyline id="Fill-2698" fill="#201711" points="46.1782376 98.7165915 112.436504 112.49949 112.808087 110.702674 46.5498202 96.9270789"></polyline>
                    <path d="M80.1015375,148.085226 C80.1015375,148.085226 80.1306812,148.085226 80.1962546,148.09253 C82.2873171,148.158267 117.420082,149.706743 153.266868,170.056057 L154.170323,168.463756 C116.735204,147.223338 80.2326842,146.259192 80.1518104,146.251888 L80.1015375,148.085226" id="Fill-2699" fill="#201711"></path>
                    <path d="M125.900907,27.2383473 C138.913581,-2.62094783 76.5095729,-12.3289528 51.9705536,29.4725995 C92.5774818,47.8892948 117.220933,47.1445441 125.900907,27.2383473 Z" id="Fill-2700" fill="#F3B428"></path>
                    <path d="M69.8429451,95.5465978 C67.1252924,115.954345 45.5589334,129.832197 25.3331859,104.406511 C5.1074384,78.9881286 23.0049254,46.7330779 23.0049254,46.7330779 C56.0420403,65.6702597 71.6547135,81.941433 69.8429451,95.5465978 Z" id="Fill-2701" fill="#F3B428"></path>
                    <path d="M76.2327075,83.516691 C76.2327075,83.516691 113.150525,95.3712986 119.299852,112.893913 C125.449179,130.416528 102.709785,151.269827 83.4822099,129.167521 C64.2473492,107.057911 76.2327075,83.516691 76.2327075,83.516691" id="Fill-2702" fill="#F3B428"></path>
                    <path d="M168.421606,111.235875 C186.629151,131.738576 187.496177,157.741289 165.434374,154.987631 C143.365286,152.233973 116.0058,101.80624 119.065892,92.4861662 C139.831339,91.3175049 156.283243,97.5674079 168.421606,111.235875 Z" id="Fill-2703" fill="#F3B428"></path>
                    <path d="M100.05042,60.8373585 C100.05042,60.8373585 129.033857,28.6115243 156.625682,39.1148673 C184.217507,49.6182104 179.539939,61.6773338 165.499219,74.1016637 C151.467242,86.5259937 100.05042,60.8373585 100.05042,60.8373585" id="Fill-2704" fill="#F3B428"></path>
                    <path d="M0,14.3976817 C0,14.3976817 0.370853944,14.6021975 1.09288981,14.9966206 C6.4917655,17.9767068 31.2056472,31.7742138 60.6553847,51.1593824 C90.1124082,70.544551 124.312573,95.5173813 148.654873,120.775073 L149.973626,119.504154 C123.824416,92.3766042 86.5641592,65.7165192 55.8248117,45.8200613 C25.0927501,25.9236034 0.881597784,12.7980766 0.867025919,12.7907725 L0,14.3976817" id="Fill-2705" fill="#201711"></path>
                    <path d="M98.0759319,118.56192 C98.0759319,118.56192 97.9739289,118.423142 97.7699228,118.152889 C96.2908786,116.129644 89.587821,106.802267 83.2709179,95.6853764 C80.1088234,90.1269312 77.0487319,84.1156299 74.782807,78.3599732 C72.5168821,72.6043165 71.0669817,67.0970003 71.0669817,62.6122628 C71.0669817,60.8519667 71.2928456,59.2523616 71.7518593,57.8499681 L70.0178074,57.2729416 C69.4779199,58.9017633 69.2382127,60.6985799 69.2382127,62.6122628 C69.2454986,67.8055012 70.9868364,73.9117563 73.5587704,80.2079188 C77.4130285,89.6448585 83.1762008,99.4908296 87.9703441,106.992174 C92.7644874,114.493518 96.5968877,119.650236 96.6041737,119.65754 L98.0759319,118.56192" id="Fill-2706" fill="#201711"></path>
                    <path d="M18.9069938,27.2310432 C22.0451229,40.0845879 20.4370395,40.0132757 24.247582,55.0159646 C26.1492103,62.5246132 28.6191413,70.5883758 31.7666639,77.9217252 C34.9214725,85.2477705 38.732015,91.8434025 43.4015689,96.4157896 L44.6773356,95.1083499 C40.2839186,90.8062156 36.5382209,84.3931869 33.4497142,77.1913119 C28.8085755,66.3884994 25.6173372,53.8253909 23.5991341,43.9794198 C22.5863895,39.0564343 22.1370968,31.0693555 20.7649065,27.333301 C19.3927162,23.5972466 19.1854839,23.6718899 19.1854839,23.6718899 C17.8180733,23.0349461 16.8342024,22.5417817 16.233871,22.1923968 C17.2177419,23.1787255 18.1087829,24.8582743 18.9069938,27.2310432 Z" id="Fill-2707" fill="#201711"></path>
                    <polyline id="Fill-2708" fill="#201711" points="33.1801348 33.6659842 99.7298385 21.3512162 99.3946856 19.5470954 32.8449819 31.8618634"></polyline>
                    <path d="M83.1827581,66.5418862 L83.2417742,66.5199738 C84.5605279,66.0305969 107.161489,57.8499681 137.893551,57.8499681 C144.654896,57.8499681 151.802395,58.2443913 159.204902,59.2012327 L159.445338,57.3898078 C151.9554,56.4183581 144.720469,56.0166308 137.893551,56.0166308 C105.834721,56.0239349 82.6006122,64.8035026 82.5350388,64.825415 L83.1827581,66.5418862" id="Fill-2709" fill="#201711"></path>
                </g>
            </g>
        </g>
    </g>
</svg>