<?xml version="1.0" encoding="UTF-8"?>
<svg width="421px" height="218px" viewBox="0 0 421 218" version="1.1" xmlns="http://www.w3.org/2000/svg" xmlns:xlink="http://www.w3.org/1999/xlink">
    <title>decoration-6</title>
    <g id="decoration-6" stroke="none" stroke-width="1" fill="none" fill-rule="evenodd">
        <g id="Group" transform="translate(31.973930, -27.214156)">
            <g id="Thanksgiving/Stickers/Turkey-Copy-2" transform="translate(134.987254, 149.957505) rotate(60.000000) translate(-134.987254, -149.957505) ">
                <path d="M163.01895,19.7169596 L163.152201,20.4709517 L163.365349,21.5997359 L163.749166,23.5222477 L164.230481,25.8363412 L165.178114,30.243543 L166.588307,36.6267686 L167.552232,40.9254651 L168.807681,46.4734045 L169.851979,51.0550991 L170.890951,55.5935938 L170.849249,55.7241137 C170.674246,56.2852126 170.537701,56.8625945 170.442399,57.452958 L170.046007,60.4126639 L169.804963,62.149015 L169.627883,63.3910887 C169.015802,67.640222 168.31905,72.0455895 167.553138,76.3595605 L167.409521,77.1627984 L167.048511,79.1313882 L166.750136,80.7046367 L166.426426,82.3568053 L166.091611,84.0059283 C165.902257,84.9217825 165.709575,85.8235881 165.515724,86.7000091 L165.285647,87.7221517 L165.130761,88.3445856 L165.002526,88.8289077 L164.854534,89.3678493 L164.595922,90.2770356 L164.325571,91.1935055 L163.207519,91.6093197 C162.410952,91.9036085 161.6178,92.1947208 160.828984,92.4822412 L158.476466,93.3336108 L156.155492,94.1609362 C153.084345,95.2468993 150.112055,96.2620976 147.29758,97.1799445 L145.599477,97.7279328 L144.327864,98.1300215 C144.11917,98.1953836 143.91211,98.259914 143.706709,98.3236049 L142.494374,98.6956135 L141.322906,99.0470967 L140.193382,99.3776771 L139.10688,99.6869771 C138.929442,99.7367327 138.753841,99.785586 138.5801,99.8335289 L137.560154,100.1102 C137.393943,100.154471 137.229637,100.197815 137.067258,100.240226 L136.116294,100.483419 L135.212666,100.703822 L134.621376,100.840772 L133.116204,96.8093713 L130.78861,90.5209849 L128.593813,84.5444436 L126.965726,80.0866961 L124.87695,74.3410376 L123.511355,70.5695148 L119.865769,60.4452189 L119.992146,59.5305371 L120.191583,58.1503653 L120.39655,56.8121525 L120.606936,55.5182875 C120.748974,54.6710243 120.894549,53.8549186 121.043513,53.0731555 L121.269482,51.926666 C121.345639,51.5533538 121.422625,51.1890254 121.50042,50.8340789 L121.683405,50.0238297 L121.873744,49.2321212 C121.936971,48.9776497 121.999918,48.7327521 122.062408,48.4978559 L122.24832,47.8235992 L122.430406,47.2119169 C122.460375,47.1153269 122.49014,47.021451 122.519678,46.9303428 L122.649506,46.5451579 L122.699988,46.5031498 C128.075794,41.8291419 130.244257,34.835882 129.3613,28.025789 C128.913298,24.5704205 127.670243,21.2379 125.631912,18.4686474 C122.683567,14.4630585 118.19473,11.7715406 112.778763,11.8101269 L112.341152,11.8200883 C110.749169,11.877664 109.294455,12.1653951 107.935136,12.637036 L107.817906,12.678755 L107.59127,12.4587229 C105.536722,10.4988842 103.117994,8.95743948 100.458654,7.96862514 C89.9433936,4.05876846 78.657953,10.2049479 77.7083504,22.4830826 L77.6299012,23.6685941 L77.538406,25.4295081 L77.4336519,27.9282378 L77.2755619,32.6180812 L77.1154933,38.3942691 L76.9525146,45.2075783 L76.834505,50.6669738 L76.6658478,59.2165671 L76.6045912,59.3147695 C76.2988154,59.8169904 76.0264332,60.3443381 75.7909499,60.8942811 L74.5970935,63.9021383 L73.716261,66.0837502 L73.239061,67.251214 C71.3778995,71.7860579 69.4035509,76.3888453 67.4118639,80.7593909 L67.0677428,81.5117936 C66.7890889,82.1188428 66.5048151,82.7323605 66.2222769,83.336139 L65.8569554,84.1134727 C65.1983525,85.5088685 64.5467797,86.8549639 63.9099736,88.1337355 L63.4642602,89.0203823 L63.2191206,89.4818035 L62.660283,90.4869814 L61.9592785,91.7041874 L61.0327758,93.2760865 L59.5590104,95.7134995 L57.4263793,99.1533054 L55.205371,102.673269 L51.98127,107.723496 L46.9497662,115.536663 L28.0382026,144.728176 L22.3597082,153.550361 L18.3748919,159.793526 L15.4542342,164.412507 L13.1087508,168.160679 L10.7458395,171.98754 L9.5568624,173.940043 L8.03803279,176.470831 L7.24536655,177.813017 L6.33035222,179.386662 L5.49848415,180.846845 L4.7485875,182.195916 L4.33750707,182.953001 L3.83420732,183.902417 L3.60159149,184.351736 L3.27624882,184.9944 L2.88608186,185.793622 L2.7095249,186.168858 C-0.740234787,193.596495 -0.674455811,202.158206 1.66063021,211.780642 C2.87672032,216.791913 4.69806355,221.960227 6.96303578,227.198083 C8.23374179,230.136652 9.5790623,232.946132 10.9354556,235.567795 L11.6172437,236.868335 L12.2619843,238.067506 L12.5547483,238.601502 L13.1917752,239.736548 L13.5158104,240.295253 L13.8292731,240.85481 C14.558256,242.132338 15.3261815,243.364184 16.1324761,244.549704 L16.5405248,245.138881 L16.5664947,245.274648 C17.9648717,252.501157 20.7029478,259.031218 24.8405275,264.633439 L25.5257647,265.550536 C28.9683384,270.104744 32.6562562,274.190058 36.5681074,277.816486 L36.9595969,278.175519 L37.4770536,278.713485 C49.7602958,291.314229 67.4740076,298.028591 88.2122972,299.518504 C105.817528,300.783327 125.076514,298.139869 141.577656,292.625538 L142.371702,292.357721 C144.001946,291.803406 145.661214,291.211973 147.342945,290.587156 L149.031921,289.951348 C149.314584,289.843571 149.59781,289.734901 149.881569,289.625356 L151.590274,288.957718 C152.447581,288.618784 153.309137,288.272281 154.174121,287.918676 L155.908419,287.202134 L157.650402,286.467482 C158.232181,286.219672 158.814999,285.968981 159.398612,285.715549 L161.151592,284.947165 C161.736551,284.688387 162.322062,284.427005 162.907883,284.163158 L164.666027,283.364359 L166.424567,282.551596 L168.182044,281.7257 C168.474788,281.587002 168.767426,281.447791 169.059929,281.308085 L170.813079,280.464042 L172.561521,279.608939 C173.143388,279.322153 173.724228,279.033662 174.303797,278.743604 L176.03845,277.868867 C176.326843,277.72234 176.614857,277.575456 176.902462,277.428232 L178.622946,276.540947 L180.332161,275.646333 C180.61601,275.496667 180.899329,275.346729 181.182087,275.196538 L182.871666,274.292486 C183.432454,273.990214 183.990757,273.687065 184.546331,273.383179 L186.204624,272.469447 L187.845088,271.552117 L189.466264,270.632021 C190.00328,270.324953 190.536837,270.017562 191.066695,269.709986 L192.644922,268.786843 C192.906028,268.632939 193.166149,268.479024 193.425253,268.325115 L194.967441,267.401864 L196.48378,266.479578 C196.734269,266.32599 196.983619,266.172477 197.231801,266.019056 L198.706634,265.099772 L200.151973,264.183526 C200.628675,263.878709 201.100218,263.574537 201.56636,263.271148 L202.948338,262.363467 L204.296448,261.461311 C206.292484,260.112638 208.169296,258.785415 209.904741,257.492237 L210.712191,256.883552 L210.198855,257.105578 C240.125321,244.423078 269.410232,207.289691 269.930328,182.129836 L269.944829,181.187854 C270.227524,152.280927 256.162936,109.178559 241.712569,88.4991059 L239.522122,85.3490784 L236.140713,80.4445083 L232.517561,75.148527 L228.951311,69.9049857 L225.755608,65.1858962 L221.052006,58.2104658 L217.299167,52.6215635 L213.114964,46.3672083 L213.043145,45.7094642 C213.006677,45.3680175 212.971442,45.029118 212.937478,44.6929244 L212.852196,43.8267682 C212.813976,43.4283357 212.777836,43.0356095 212.743803,42.6488948 L212.648054,41.5070903 C212.633159,41.319897 212.618797,41.1342829 212.604973,40.950286 L212.5285,39.8660176 L212.465087,38.8223953 L212.414899,37.8212497 C212.407645,37.6580336 212.40095,37.4966636 212.394816,37.3371779 L212.364777,36.4031805 C212.341531,35.492405 212.338745,34.6522104 212.357168,33.8908356 L212.377818,33.2666235 L212.39198,32.9695396 L212.425936,32.4281606 C212.432104,32.3438565 212.438487,32.2625354 212.445028,32.1842275 L212.489895,32.1239843 C216.568939,26.2967121 216.980169,18.9858934 214.473823,12.5921038 C213.201983,9.34758994 211.187998,6.41494419 208.538253,4.2218049 C204.706686,1.05049632 199.698989,-0.472012254 194.454725,0.877359608 L194.041347,0.989761541 C192.542199,1.41868683 191.223841,2.03126512 190.037593,2.79514133 L189.85816,2.91452194 L189.583214,2.75347794 C187.115869,1.34815646 184.396913,0.437093803 181.578261,0.120173067 C170.422212,-1.13417904 160.959258,7.57028753 163.01895,19.7169596 Z" id="Path" fill="#FFFFFF" fill-rule="nonzero"></path>
                <g id="Thanksgiving/Stuffs/Turkey" transform="translate(12.524904, 12.495807)">
                    <path d="M76.4194595,58.5495094 C76.4194595,58.5495094 77.0492704,18.5829223 77.6290964,10.9473953 C78.2189194,3.32186242 88.8957147,6.94973717 89.5055317,15.7046085 C90.1253457,24.4694739 96.1135483,11.8468684 100.322285,11.8068918 C104.531022,11.7769094 106.790344,21.5611776 101.07206,25.229029 C95.3537763,28.8868861 93.1544365,64.0662777 93.1544365,64.0662777 L76.4194595,58.5495094" id="Fill-2635" fill="#F6ECE4"></path>
                    <path d="M117.527121,190.112438 C112.588603,208.311777 79.8984153,235.295969 50.777156,239.44354 C35.1518459,241.692222 20.5462298,237.344769 11.8188493,221.494055 C11.8188493,221.494055 -5.05608565,193.040723 1.52193996,178.879019 C8.09996556,164.707321 55.7056767,94.7083272 62.1537413,81.9957744 C68.5718149,69.2632332 74.7399636,53.3025832 74.7399636,53.3025832 L87.0262758,52.6929403 L95.5937043,52.2531979 C95.5937043,52.2531979 106.120545,81.6859559 113.208417,100.205107 C120.29629,118.724258 125.134838,162.118837 117.527121,190.112438" id="Fill-2636" fill="#843D32"></path>
                    <path d="M92.5846075,109.729528 C91.3849676,85.8735027 88.6757807,64.2861489 87.0262758,52.6929403 L95.5937043,52.2531979 C95.5937043,52.2531979 106.120545,81.6859559 113.208417,100.205107 C113.388363,100.69482 113.578306,101.194528 113.758252,101.714223 C108.999681,102.563725 101.391964,105.152209 92.5846075,109.729528" id="Fill-2637" fill="#76342A"></path>
                    <path d="M169.281587,85.3338189 C169.281587,85.3338189 126.72436,102.383831 117.527121,101.424393 C108.329882,100.474949 58.8347375,119.004094 36.1015609,167.965412 C13.3783812,216.936724 10.3892784,227.160735 30.3932742,253.365384 C50.39727,279.560039 95.7236653,278.000952 125.064859,268.196696 C154.406052,258.382445 189.79543,237.304793 197.483122,228.260091 C205.180812,219.225384 169.281587,85.3338189 169.281587,85.3338189" id="Fill-2638" fill="#6D2E25"></path>
                    <path d="M173.130432,51.6135726 C173.130432,51.6135726 164.063153,12.6763824 162.783537,5.13080272 C161.503921,-2.41477699 172.740549,-1.47532733 175.459733,6.87977815 C178.168919,15.2348836 180.938088,1.53291041 185.006867,0.483525148 C189.085643,-0.56586011 193.644274,8.37889995 188.985673,13.3160077 C184.327071,18.2531155 190.705157,52.9128115 190.705157,52.9128115 L173.130432,51.6135726" id="Fill-2639" fill="#F6ECE4"></path>
                    <path d="M244.858902,169.324616 C244.469019,188.183568 219.276581,222.263604 192.024761,233.337117 C177.409147,239.293628 162.183717,238.604031 149.877411,225.341801 C149.877411,225.341801 126.614393,201.815583 129.573505,186.484564 C132.532617,171.143551 161.783837,91.7100836 164.952886,77.8082275 C168.101941,63.9063713 170.221305,46.9363126 170.221305,46.9363126 L181.99777,43.3684027 L190.205307,40.8698664 C190.205307,40.8698664 207.540104,66.8746325 218.896695,83.1351069 C230.253286,99.3855872 245.458722,140.331601 244.858902,169.324616" id="Fill-2640" fill="#843D32"></path>
                    <path d="M192.024761,233.337117 C197.103236,224.112521 203.311373,212.129541 210.329266,197.128328 C227.234192,160.979505 193.294379,71.172115 181.99777,43.3684027 L190.205307,40.8698664 C190.205307,40.8698664 207.540104,66.8746325 218.896695,83.1351069 C230.033352,99.0757687 244.858902,138.742531 244.868899,167.605623 C244.868899,168.185284 244.868899,168.75495 244.858902,169.324616 C244.469019,188.183568 219.276581,222.263604 192.024761,233.337117" id="Fill-2641" fill="#76342A"></path>
                    <path d="M117.527121,101.424393 C117.527121,101.424393 32.2427191,170.44396 38.0709698,213.078984 C43.8892234,255.714008 89.1556367,273.153792 89.1556367,273.153792 C89.1556367,273.153792 50.417264,282.618247 22.3656837,244.640495 C-5.68589661,206.662743 56.4954397,107.380903 117.527121,101.424393" id="Fill-2642" fill="#54211E"></path>
                    <polyline id="Fill-2643" fill="#B5564B" points="170.621185 85.1139477 170.741149 100.914691 173.940189 100.894703 173.830222 85.0939594"></polyline>
                    <polyline id="Fill-2644" fill="#B5564B" points="183.507317 92.9893342 183.287383 113.61725 186.49642 113.657227 186.716354 93.0193166"></polyline>
                    <polyline id="Fill-2645" fill="#B5564B" points="164.023165 123.451489 164.103141 133.6755 167.302181 133.655512 167.232202 123.431501"></polyline>
                    <polyline id="Fill-2646" fill="#B5564B" points="179.278586 124.071126 179.188613 137.633181 182.387653 137.65317 182.477626 124.091114"></polyline>
                    <polyline id="Fill-2647" fill="#B5564B" points="190.655172 127.389182 193.004467 142.990043 196.173515 142.510324 193.82422 126.919458"></polyline>
                    <polyline id="Fill-2648" fill="#B5564B" points="163.513318 180.008357 162.483627 192.650951 165.682667 192.910799 166.702361 180.268205"></polyline>
                    <polyline id="Fill-2649" fill="#B5564B" points="154.116139 166.096507 153.2464 174.471601 156.435443 174.801408 157.305182 166.426314"></polyline>
                    <polyline id="Fill-2650" fill="#B5564B" points="189.025661 161.559165 189.185613 182.936642 192.384653 182.916654 192.234698 161.539177"></polyline>
                    <polyline id="Fill-2651" fill="#B5564B" points="175.089844 157.631466 173.290384 166.936015 176.439438 167.545658 178.228901 158.241109"></polyline>
                    <polyline id="Fill-2652" fill="#B5564B" points="200.332267 156.162327 199.172615 174.95132 202.371655 175.141209 203.531307 156.36221"></polyline>
                    <polyline id="Fill-2653" fill="#B5564B" points="179.968379 63.3666875 181.327971 71.5418984 184.487023 71.0122087 183.127431 62.8469919"></polyline>
                    <path d="M49.2576121,218.665712 C49.2576121,218.675706 49.2576121,218.765653 49.2576121,218.925559 C49.2576121,219.934968 49.3075971,223.802702 50.177336,227.990249 C50.617204,230.08902 51.257012,232.267743 52.2467149,234.246584 C53.2264209,236.215431 54.5760158,238.014377 56.4954397,239.163704 L58.1449446,236.425308 C56.9453046,235.705729 55.9256107,234.436473 55.1158538,232.817421 C53.8962198,230.388844 53.1964299,227.230694 52.8465349,224.532275 C52.4866429,221.833856 52.4566519,219.585173 52.4566519,218.925559 L52.4566519,218.725676 L49.2576121,218.665712" id="Fill-2654" fill="#B5564B"></path>
                    <path d="M67.762058,234.346526 C67.772055,234.376508 68.5918089,235.985565 69.8514309,237.984394 C71.1310468,239.993218 72.8005457,242.391813 74.7099726,244.070829 L76.8193395,241.66224 C75.3497805,240.392984 73.7402636,238.164289 72.5706147,236.28539 C71.9807917,235.34594 71.4809418,234.486444 71.1410438,233.866807 C70.9710948,233.566982 70.8411338,233.317129 70.7511608,233.147228 L70.6511908,232.957339 L70.6112028,232.88738 L67.762058,234.346526" id="Fill-2655" fill="#B5564B"></path>
                    <path d="M67.882022,205.163621 C67.842034,205.223586 67.02228,206.332936 66.1825321,208.111894 C65.3627781,209.880858 64.5030362,212.319429 64.5030362,215.067819 C64.4930392,216.936724 64.9129132,218.955542 66.0325771,220.864424 L68.8017459,219.255366 C68.001986,217.876174 67.702076,216.476994 67.702076,215.067819 C67.702076,213.009025 68.381872,210.97022 69.0916589,209.471098 C69.4415539,208.721537 69.7914489,208.1019 70.0513709,207.682146 C70.1913288,207.472269 70.2912988,207.302368 70.3612778,207.202427 L70.4412538,207.082497 L70.4612478,207.062509 L67.882022,205.163621" id="Fill-2656" fill="#B5564B"></path>
                    <path d="M63.4933392,181.407538 C63.4833422,181.427526 61.8638283,184.465746 60.2243204,188.213551 C59.4145635,190.09245 58.5948095,192.14125 57.9649986,194.120091 C57.3351876,196.098931 56.8953196,197.967837 56.8853226,199.646853 C56.8853226,200.366432 56.9652986,201.076016 57.2352176,201.765612 L60.2143234,200.576309 C60.1543414,200.426396 60.0843625,200.106584 60.0843625,199.646853 C60.0843625,198.577479 60.4342574,196.898463 61.0140834,195.089523 C61.8838223,192.361121 63.2134233,189.292918 64.3230902,186.9343 C64.8829222,185.754991 65.3827721,184.745582 65.7426641,184.035998 C65.9226101,183.676209 66.0725651,183.396373 66.1725351,183.206484 C66.2225201,183.116537 66.2625081,183.036584 66.2825021,182.986613 L66.3224901,182.916654 L63.4933392,181.407538" id="Fill-2657" fill="#B5564B"></path>
                    <path d="M90.6951746,214.108381 C90.6951746,214.148358 90.9450996,216.506976 91.5749106,219.275354 C91.8848176,220.664541 92.2846975,222.143674 92.8145385,223.512872 C93.3543765,224.892064 93.9941844,226.151326 94.9638934,227.130753 L97.2132182,224.852088 C96.7833473,224.442328 96.2435093,223.512872 95.8036413,222.363545 C95.1338424,220.634558 94.6339924,218.455835 94.3240854,216.736842 C94.1641334,215.867351 94.0541664,215.127784 93.9841874,214.5881 C93.9441994,214.328253 93.9242054,214.118375 93.9042114,213.978457 L93.8842174,213.818551 L93.8742204,213.76858 L90.6951746,214.108381" id="Fill-2658" fill="#B5564B"></path>
                    <path d="M79.0686643,227.250682 C79.0786613,227.260677 80.6481902,230.099014 82.5576171,233.157222 C83.5073321,234.676332 84.54702,236.255407 85.5467199,237.584629 C86.0465699,238.244242 86.5264259,238.843891 87.0062818,239.363587 C87.4961348,239.873288 87.9459998,240.303036 88.5258258,240.632843 L90.0953547,237.834482 C90.0153787,237.8045 89.7054717,237.554646 89.3455797,237.174869 C88.7157687,236.495267 87.8860178,235.405905 87.0562668,234.186619 C85.7966449,232.367685 84.497035,230.228938 83.5173291,228.559915 C83.0274761,227.730401 82.6175991,227.010823 82.3276861,226.501122 C82.1877281,226.251268 82.0777611,226.051385 81.9977851,225.911467 C81.9178091,225.771549 81.8778211,225.70159 81.8778211,225.70159 L79.0786613,227.250682" id="Fill-2659" fill="#B5564B"></path>
                </g>
            </g>
        </g>
        <g id="Group" transform="translate(154.318135, 60.169217)">
            <g id="Thanksgiving/Stickers/Tart-Copy" transform="translate(139.304171, 104.312363) scale(-1, 1) translate(-139.304171, -104.312363) ">
                <path d="M140.014836,38.4829942 L138.874729,38.4790583 C129.603404,38.4680379 120.350058,38.9229629 111.614064,39.8354889 C93.9309232,41.6761625 78.1262006,48.9522739 64.3708694,59.7128224 C59.5699195,63.4685193 55.3348823,67.4148949 51.6741922,71.3481521 L50.8651651,72.2277311 L50.2465246,72.9150021 L49.9265123,73.2758703 L49.8435403,73.2912267 C43.1502493,74.5258061 37.6428499,76.0271794 33.1506499,77.8429726 C19.2425404,83.4485836 13.5421769,93.0387992 15.2853656,104.628988 C16.0065631,109.379782 18.7181089,112.733592 22.2805749,114.992265 C24.2136109,116.217848 26.3248256,117.065899 28.7252412,117.734587 L29.2495164,117.876431 C30.1327055,118.108475 31.0629446,118.318846 32.0412127,118.509711 L32.5454708,118.604222 L32.7722148,119.214034 C34.9504971,125.06364 37.4126428,131.260101 40.0112187,137.189697 C40.3687426,138.005518 40.7244163,138.805564 41.07827,139.589485 L41.7835593,141.135727 C43.8922004,145.709341 45.9360408,149.694165 47.9215888,153.015113 C51.9232349,159.708106 55.5273545,163.911019 60.9777734,165.942832 L61.1155562,165.99299 L61.4028363,166.091323 L61.7060055,166.187059 L62.0253876,166.280259 L62.5355684,166.415437 L63.08405,166.545247 L63.6719256,166.669895 L64.086268,166.750225 L64.7422291,166.86672 L65.440499,166.978594 L65.9300569,167.05071 L66.7012703,167.155336 L67.5177074,167.255884 L68.3804611,167.352557 L69.2906244,167.445561 L70.915887,167.592962 L71.60485,167.649436 L73.0511707,167.758457 L74.5908437,167.86264 L76.2264599,167.962469 L77.9606103,168.058425 L80.2708091,168.173661 L82.7440763,168.284542 L87.6230429,168.476163 L91.8132959,168.621076 L97.3955316,168.794448 L101.239573,168.900869 L107.295386,169.050388 L114.755484,169.208946 L119.187874,169.291607 L126.038243,169.404407 L131.908136,169.487857 L137.901623,169.561434 L143.997144,169.624872 L151.251384,169.686023 L158.168659,169.730026 L162.731723,169.751337 L169.472186,169.771267 L173.878056,169.776533 L180.801799,169.771502 L187.536062,169.749383 L191.842355,169.725121 L196.990499,169.68409 L201.848177,169.631169 L205.012264,169.587759 L208.530577,169.529396 L213.025041,169.435105 L216.461557,169.34269 L218.531785,169.275179 L220.420438,169.202977 L221.795043,169.142012 L223.094716,169.075684 L223.89716,169.029242 L225.006288,168.955915 C225.123282,168.94751 225.238209,168.939016 225.35108,168.930431 L226.003729,168.877802 L226.60762,168.82285 L228.965295,168.590191 L229.537149,168.52904 L230.068214,168.468211 L230.79363,168.375136 L231.233319,168.310241 L231.640698,168.241768 L232.018187,168.168605 C232.078746,168.155958 232.13816,168.14307 232.196481,168.129916 L232.533679,168.047628 C233.616604,167.761492 234.302311,167.350754 234.994511,166.629723 L235.20277,166.40392 C235.237647,166.364672 235.272641,166.324603 235.307803,166.283688 L235.521188,166.027869 L235.741018,165.750647 L236.088147,165.292247 L236.596153,164.595737 L237.684667,163.083582 L237.955189,162.686553 L238.209741,162.287545 L238.371707,162.017547 L238.52828,161.742329 L238.680142,161.460156 L238.827976,161.169291 L238.972462,160.867998 L239.114284,160.554542 L239.254123,160.227185 L239.39266,159.884193 L239.530579,159.523828 L239.737789,158.946912 L239.947441,158.321143 L240.161839,157.640662 L240.383284,156.899611 L240.693483,155.807195 L241.025757,154.582792 L241.577494,152.468333 L242.441326,149.057477 L243.057191,146.577264 L243.775115,143.625465 L244.73118,139.614785 L245.676723,135.577192 L246.419619,132.364133 L247.168102,129.094917 L247.917885,125.790608 L248.541458,123.018768 L248.735156,122.903702 C253.966256,119.692157 257.860653,114.712246 260.815011,108.583275 L262.052579,106.015873 L262.051668,105.789675 L262.174706,105.460615 C265.093181,97.3975747 261.766222,89.8961429 255.08185,85.4592048 C253.188992,84.2027676 251.295886,83.2631814 248.9162,82.36391 L248.104283,82.0652667 C247.965738,82.0156153 247.825524,81.9659934 247.683558,81.9163537 L246.810071,81.6179223 L245.890535,81.3167871 C245.733219,81.2662462 245.573818,81.2154977 245.412247,81.1644944 L244.416131,80.855036 L243.363959,80.5371839 L239.086143,79.2796341 L237.896582,78.9160878 L237.363186,78.746609 L237.276967,78.7161778 L237.174284,78.6751598 L236.933984,78.5658056 C236.890141,78.5445523 236.84443,78.5217879 236.796895,78.4975161 L236.490151,78.3338286 L236.141741,78.1341521 L235.753771,77.8986728 C235.68593,77.8564531 235.616527,77.8127493 235.545608,77.7675654 L235.102243,77.4787316 L234.624579,77.1545612 L234.114721,76.7952406 L233.637212,76.4475168 L233.025114,75.9839229 L232.55375,75.617912 L231.830277,75.0409415 L231.08355,74.4274044 L230.309586,73.7739015 L229.504401,73.0770336 L228.664014,72.3334016 L228.082231,71.8099882 L227.17432,70.9808622 L226.220583,70.0959075 L224.870767,68.8232481 L223.422961,67.4372374 L221.867724,65.9298181 L212.320716,56.5496188 L210.774834,55.0668784 L209.811301,54.1550567 C202.234082,46.9991568 187.071764,42.3380245 167.919277,40.0798491 L166.243874,39.8895404 C165.962993,39.858831 165.681296,39.8286257 165.398793,39.7989243 L163.694204,39.6267602 C163.408524,39.5990732 163.122061,39.5718896 162.834826,39.5452089 L161.102231,39.3911593 L159.351623,39.2491693 L157.583528,39.1192254 L155.79847,39.0013142 C155.499576,38.9826643 155.199997,38.9645152 154.899744,38.9468667 L153.090227,38.8469794 L151.26506,38.7590913 C150.95959,38.7454424 150.653491,38.732293 150.346772,38.7196427 L148.499116,38.6497282 L146.637124,38.5917794 C146.325626,38.5831176 146.013553,38.5749539 145.700916,38.5672879 L143.818404,38.5272623 L141.922869,38.4991689 L140.014836,38.4829942 Z" id="Path" fill="#FFFFFF" fill-rule="nonzero" transform="translate(139.109076, 104.127796) rotate(-20.000000) translate(-139.109076, -104.127796) "></path>
                <g id="Group" transform="translate(27.413101, 50.739513)">
                    <g id="Thanksgiving/Stuffs/Tart" transform="translate(112.279603, 53.166025) rotate(-20.000000) translate(-112.279603, -53.166025) ">
                        <path d="M37.8525813,102.838367 C46.5794511,106.068079 198.202825,106.803459 199.825639,104.577443 C201.449452,102.351426 210.134404,63.0185046 210.134404,63.0185046 L192.621896,54.6566616 L39.9216366,50.6816317 L13.8716542,54.9392562 C13.8716542,54.9392562 29.1247135,99.5987175 37.8525813,102.838367 Z" id="Fill-2284" fill="#241411"></path>
                        <path d="M222.718702,50.3878469 C222.499133,50.8946633 222.264593,51.4114172 221.999114,51.9480462 L221.999114,51.9579838 C219.088827,57.9702165 213.909993,64.4992032 203.850738,62.8197531 C192.883267,61.0111144 184.967804,60.08692 184.967804,60.08692 C184.967804,60.08692 172.48331,69.4878658 159.7014,65.2445213 C146.918492,61.0111144 138.079842,59.1826007 138.079842,59.1826007 C138.079842,59.1826007 122.246921,71.6145068 112.202637,65.5426486 C102.159352,59.4807279 101.251134,59.1826007 101.251134,59.1826007 C101.251134,59.1826007 85.4192113,71.306442 75.9847306,68.2854192 C66.5352792,65.2445213 58.6188186,59.4807279 58.6188186,59.4807279 C58.6188186,59.4807279 40.3616562,65.8507134 36.404424,56.4597052 C36.404424,56.4597052 1.09373642,57.6621517 0.170548572,51.6002311 C-0.471191736,47.346949 0.248395763,42.3582865 10.3705267,38.2938184 C14.6890498,36.5547428 20.7281953,34.9945435 29.0977664,33.7125964 L29.112737,33.7026588 C29.770446,32.8281522 50.9538644,4.86381661 85.4192113,1.28628967 C120.432483,-2.3608003 162.736443,1.89248173 173.702916,12.2076844 C181.822977,19.8397419 190.943075,29.6183155 198.594057,35.3026083 C201.269805,37.2801857 203.772891,38.7608844 205.978562,39.4763898 C214.504825,42.2092229 225.456328,44.027799 222.718702,50.3878469" id="Fill-2285" fill="#ED9B2D"></path>
                        <path d="M198.594057,35.3026083 C189.582745,31.2083275 175.955495,25.027156 170.96529,22.8110768 C163.25243,19.3726759 158.386981,10.8760494 149.859719,12.2971226 C141.333456,13.7181958 134.231396,10.4785464 132.400989,16.7392185 C130.570582,23.0197658 127.128339,35.9485507 120.432483,32.5002122 C113.736626,29.0717489 109.872212,34.1200369 106.6176,29.677941 C103.378958,25.2259075 102.972755,9.25622469 97.2939021,8.66990777 C91.5990807,8.06371571 85.5130272,28.4655569 79.8341744,22.0061332 C74.1553216,15.536772 77.5965666,12.0983711 73.7481209,12.9033147 C69.9306144,13.6983206 30.0838309,33.2355928 29.112737,33.7026588 C29.770446,32.8281522 50.9538644,4.86381661 85.4192113,1.28628967 C120.432483,-2.3608003 162.736443,1.89248173 173.702916,12.2076844 C181.822977,19.8397419 190.943075,29.6183155 198.594057,35.3026083" id="Fill-2286" fill="#F4B838"></path>
                        <path d="M96.680107,7.24883457 C96.680107,7.24883457 78.1095597,16.9479076 83.2844018,23.9141476 C88.460242,30.8903251 97.5933144,14.8212666 96.680107,7.24883457" id="Fill-2287" fill="#3B1717"></path>
                        <path d="M117.685874,9.16678652 C117.685874,9.16678652 107.335192,24.3215881 115.859459,31.9039577 C124.383727,39.4763898 123.470519,29.7773167 123.470519,22.5030119 C123.470519,15.2287072 117.685874,9.16678652 117.685874,9.16678652" id="Fill-2288" fill="#3B1717"></path>
                        <path d="M135.648614,10.9853627 C135.648614,10.9853627 143.868479,27.6606133 149.956529,27.0544212 C156.046575,26.4482292 152.697149,13.7082582 135.648614,10.9853627" id="Fill-2289" fill="#3B1717"></path>
                        <path d="M55.2923483,36.2168652 C50.8091485,38.1646299 47.1333638,32.0927717 50.8131407,28.882935 C56.7904077,23.6657082 66.9983702,15.4075835 70.092297,16.9479076 C73.1932101,18.4882317 63.5691016,32.6095256 55.2923483,36.2168652" id="Fill-2290" fill="#F4B838"></path>
                        <path d="M159.800207,22.6023877 C159.800207,22.6023877 183.546594,34.5274775 178.269952,39.5757655 C172.992311,44.6339911 150.869736,26.2395401 159.800207,22.6023877" id="Fill-2291" fill="#F4B838"></path>
                        <path d="M221.998772,51.9579838 C219.088485,57.9702165 213.909651,64.4992032 203.850396,62.8197531 C192.883923,61.0111144 184.967462,60.08692 184.967462,60.08692 C184.967462,60.08692 172.482968,69.4878658 159.701058,65.2445213 C146.919148,61.0111144 138.0795,59.1826007 138.0795,59.1826007 C138.0795,59.1826007 122.247577,71.6145068 112.203293,65.5426486 C102.159009,59.4807279 101.25179,59.1826007 101.25179,59.1826007 C101.25179,59.1826007 85.4188692,71.306442 75.9853865,68.2854192 C66.5359351,65.2445213 58.6194746,59.4807279 58.6194746,59.4807279 C58.6194746,59.4807279 40.3613141,65.8507134 36.4040818,56.4597052 C36.4040818,56.4597052 1.0933943,57.6621517 0.170206452,51.6002311 C-0.470535815,47.346949 0.248053643,42.3582865 10.3711826,38.2938184 C9.88613475,39.4366395 6.52273687,47.9829538 11.4340962,49.6822791 C16.7067464,51.5107929 40.8623306,46.6413812 40.8623306,46.6413812 C40.8623306,46.6413812 32.3360671,53.9256236 45.5401484,55.9429513 C58.7292591,57.9702165 70.900368,50.4971603 70.900368,50.4971603 C70.900368,50.4971603 64.8153126,58.5764086 76.1889868,59.9974818 C87.5466924,61.3986799 99.5151991,49.6822791 99.1079984,49.0760871 C98.7177644,48.469895 109.668269,57.562776 120.635741,57.7714651 C131.587244,57.9702165 139.706307,46.2438782 139.706307,46.2438782 C139.706307,46.2438782 150.266578,57.165273 161.625281,58.1789056 C172.998956,59.1826007 187.407672,49.2748386 187.407672,49.2748386 C187.407672,49.2748386 215.818903,55.7441998 221.701356,52.116985 C221.811141,52.0474219 221.904956,51.9877965 221.998772,51.9579838" id="Fill-2295" fill="#E8802C"></path>
                    </g>
                </g>
            </g>
        </g>
    </g>
</svg>