<?xml version="1.0" encoding="UTF-8"?>
<svg width="639px" height="450px" viewBox="0 0 639 450" version="1.1" xmlns="http://www.w3.org/2000/svg" xmlns:xlink="http://www.w3.org/1999/xlink">
    <title>decoration10</title>
    <g id="decoration10" stroke="none" stroke-width="1" fill="none" fill-rule="evenodd">
        <g id="Group" transform="translate(6.000000, 176.000000)" fill="#993735">
            <g id="Thanksgiving/Stuffs/Leaf7" transform="translate(165.001728, 156.255000) scale(1, -1) translate(-165.001728, -156.255000) ">
                <path d="M234.735208,55.603495 C248.207333,66.61376 265.647759,70.9101208 276.281456,70.8746176 C279.165076,70.8746176 281.545967,70.7310894 283.2026,70.5865311 C285.533764,69.6240324 287.846543,68.6300497 290.120065,67.6132467 C306.069712,60.5154794 320.097536,52.2940748 325.517967,49.3955101 C325.701562,49.298955 325.877822,49.2058987 326.046746,49.1163412 C327.094668,48.5607486 328.394526,48.9499911 328.964634,49.9900875 C329.547356,51.0531977 329.185966,52.3867662 328.14619,53.0101717 C319.401669,58.2532406 309.558324,63.4182209 298.616155,68.5051128 C295.31638,70.0388181 291.884989,71.5643665 288.384347,73.0460537 L278.89494,106.971497 C284.417757,118.889151 305.916324,170.402468 278.507506,197.073664 C248.284692,226.550836 239.482859,130.313346 274.561025,106.348868 L282.874344,75.3175249 C269.325406,80.752624 255.241993,85.2812674 244.074226,86.9282066 C230.107079,89.0115769 214.938189,92.7820652 200.326049,99.9070398 C199.686068,101.224086 198.856498,102.967559 198.040168,104.797882 L197.772834,105.401616 C196.707517,107.825476 195.703093,110.335045 195.216144,112.160584 C193.880514,117.028686 192.099674,123.68052 190.207532,130.815449 C187.759905,139.987948 186.397541,149.920697 185.289462,157.716392 L185.132805,158.815213 C184.957792,160.037942 184.788359,161.201561 184.621024,162.293935 C188.182448,175.600724 197.627171,218.729012 174.254176,230.778769 C147.188869,244.732066 147.331365,179.403633 180.876634,159.755935 C183.365193,146.304977 185.557372,128.690947 192.89449,103.997262 L192.944,103.83 L192.246355,104.236098 C178.536975,112.277174 165.56063,123.640728 154.739139,139.882754 C142.458765,158.351813 130.994609,177.712739 119.86436,194.509549 C118.481448,196.591904 116.978047,198.647431 115.384241,200.666333 C114.323559,207.129163 113.461636,213.704973 112.796252,220.391634 C112.101552,227.372903 111.521378,235.477051 111.05573,244.704078 C116.511148,258.70191 133.429109,306.721811 111.182766,312.458835 C86.881212,318.76947 94.0404175,270.047595 106.711019,245.716736 L106.612513,247.649902 C107.074977,238.13566 107.795211,228.783368 108.773213,219.593026 C109.356094,214.115662 109.918495,209.748672 110.460417,206.492058 C100.515921,217.553355 88.5869288,227.10691 80.2690215,233.331379 C71.8718416,272.428371 5.0860829,300.430005 0.214185359,269.50062 C-4.29691217,240.895009 63.788278,231.151126 78.2667661,229.407449 C88.8188963,221.532862 105.967188,207.653582 116.265579,192.094079 C124.84531,179.160179 133.717451,164.536552 143.074657,149.92481 C139.696297,150.497507 136.315913,150.87036 132.933518,151.045069 C129.231716,151.236276 122.258814,150.835084 112.01481,149.841495 C79.0184907,160.044578 12.8485693,132.146299 50.6713132,111.194395 C85.4149605,91.9481567 109.745638,135.195011 115.112484,145.914247 C121.751193,146.591007 127.705399,146.755945 132.975628,146.408556 C137.825281,146.088889 142.22787,145.65405 146.183395,145.104039 C147.831518,142.561096 149.496294,140.025246 151.17746,137.504444 C163.680439,118.663774 179.147775,106.029005 195.249535,97.6305992 C199.671267,95.3199501 204.139766,93.3215822 208.611873,91.5911985 L187.197683,81.2506807 C163.114199,87.8946897 100.352846,89.7006495 129.69608,68.2361805 C154.789785,49.902104 179.304818,68.7840094 187.866084,76.7931983 L214.127605,89.5894161 C224.133309,86.1909811 234.068101,84.0452558 243.447222,82.6546817 C251.473166,81.469403 261.475554,78.6741933 271.745475,75.0010527 C260.3385,73.9759982 244.261687,69.2570934 231.251026,58.3464733 C224.273433,58.5642552 208.440779,58.0163945 196.959883,49.7299599 C181.822745,38.7674396 169.208463,0.863132334 202.005596,0.00842736545 C230.704938,-0.707050612 234.287895,44.343669 234.735208,55.603495 Z" id="Combined-Shape"></path>
            </g>
        </g>
        <g id="Thanksgiving/Stuffs/Leaf8" transform="translate(273.000000, 154.000000)" fill="#2F1612">
            <path d="M253.697559,0 C253.697559,0 242.869602,14.5832728 229.542886,32.396398 C216.167175,50.160586 215.530236,72.3780552 211.120661,89.5060602 C209.645771,95.1719854 206.642867,100.077488 203.284274,104.105651 L203.282697,104.105259 L203.608306,104.180326 C208.906687,105.389226 221.887374,107.747385 240.958786,107.270248 C266.133051,106.640427 328.715109,74.9303825 329.964233,74.2962445 L329.98321,74.2866044 L329.967306,74.3062477 C329.935651,74.3453877 329.857204,74.4425769 329.736093,74.5938514 L329.600914,74.7630076 C327.911187,76.8811056 320.918505,85.7764518 314.635709,95.6787681 L314.08334,96.5549683 C312.24927,99.4833678 310.491907,102.484194 308.964235,105.410636 C301.369966,119.993909 283.58468,133.940999 255.608375,135.213365 C231.552992,136.307407 197.117128,121.448719 187.937157,117.262294 C184.346037,119.921185 179.560935,123.499522 173.835253,127.872791 C160.557532,138.05172 142.184302,152.488181 121.949252,169.567249 C119.373262,171.740988 116.766828,173.957657 114.136619,176.213811 C113.981434,176.40709 113.826033,176.596297 113.669843,176.783601 C118.746676,177.979875 131.870693,180.478116 151.346419,179.990864 C176.77497,179.354681 240.321848,146.958283 240.321848,146.958283 C240.321848,146.958283 226.990232,163.499042 219.351868,178.082314 C211.757599,192.665587 193.918418,206.661614 165.996008,207.93398 C142.190338,209.016665 107.676686,194.678963 97.9153358,190.380047 C81.8447288,204.683368 65.4092693,220.137947 50.0180512,236.017714 C49.4308062,236.822966 48.8229233,237.598531 48.2027439,238.344148 C53.2718495,239.539555 66.4002847,242.041378 85.8887256,241.553807 C111.317276,240.917624 174.864154,208.570163 174.864154,208.570163 C174.864154,208.570163 166.962744,218.348164 159.836456,229.50379 L159.282882,230.375701 C157.351927,233.436116 155.495389,236.582771 153.889274,239.645258 C146.25091,254.277468 128.465624,268.224558 100.489319,269.496924 C75.5761154,270.631967 39.4688323,258.136638 31.9651371,255.426254 C21.9892727,266.648635 12.7965479,277.933568 4.8633388,289.036232 L3.96861767,290.295215 L0,287.45686 C8.99820043,274.73673 19.6095264,261.81082 31.1494248,249.022245 C29.7947158,247.218031 28.2996544,244.265137 28.6622387,240.281441 C29.2991773,233.332365 47.7703978,214.246873 51.5430344,180.627047 C55.3646662,146.958283 98.578503,134.283559 98.578503,134.283559 C98.578503,134.283559 87.7995415,148.866832 74.4238301,166.63102 C61.3710455,184.077995 60.4917215,205.750112 56.2718428,222.727049 C69.1540428,209.911425 82.5186786,197.495228 95.6158325,185.853451 C94.6554291,184.087606 93.8979917,181.695259 94.1689278,178.718497 C94.8058665,171.720484 113.228092,152.68393 117.049724,119.015166 C120.409791,89.0330043 155.184491,75.6697148 162.670399,73.1289073 L163.123808,72.9770029 C163.605196,72.8179341 163.917478,72.7221499 164.033933,72.687012 L164.085192,72.6716782 C164.085192,72.6716782 153.252336,87.3038881 139.930519,105.068076 C126.554808,122.832264 125.917869,145.049733 121.459299,162.226676 C121.309655,162.807933 121.143817,163.38113 120.963057,163.946146 C149.26832,140.180694 173.629035,121.737572 185.244641,113.146996 C184.275377,111.371819 183.510586,108.972148 183.781295,105.997882 C184.418233,99.0488058 202.840459,80.0122517 206.66209,46.3434877 C210.483722,12.6747237 253.697559,0 253.697559,0 Z" id="Combined-Shape"></path>
        </g>
        <g id="Leaf4" transform="translate(1.382328, 340.786510)">
            <path d="M176.870621,101.670256 C176.870621,101.670256 181.819496,153.397113 161.964371,151.397287 C142.079433,149.427309 155.018058,113.609519 141.095621,116.594335 C127.202996,119.579151 128.186808,163.33655 113.277577,147.427482 C98.3713272,131.518414 110.80314,101.670256 97.8973085,99.7002781 C84.988496,97.7004515 72.049871,125.041364 62.1223085,111.639541 C52.194746,98.2078702 63.6099522,76.8067413 55.175996,72.8369363 C46.7390585,68.8671314 25.363496,86.7760259 22.8890585,73.344355 C20.414621,59.9126841 32.816621,44.4811866 22.8890585,41.0188004 C12.961496,37.5265659 -4.41919153,26.0947216 1.03649597,11.6780615 C6.49218347,-2.73859857 22.382246,15.6478665 22.382246,15.6478665 L142.586246,78.8065678 L176.870621,101.670256" id="Fill-2764" fill="#E47B2C"></path>
            <path d="M18.4171835,3.70860345 C8.48962097,-6.230833 1.03649597,11.6780615 1.03649597,11.6780615 L178.875,107.453367 C178.875,107.453367 191.776871,86.2686072 189.272621,74.3293442 C186.798183,62.3900812 163.961808,85.283618 156.001871,76.8067413 C148.041933,68.3597127 160.977577,36.0341581 151.023183,29.586956 C141.095621,23.1099059 127.202996,53.4356339 118.259246,52.4506447 C109.315496,51.4656555 116.768621,25.5873029 111.312933,14.1554586 C105.827433,2.72361426 93.8994522,1.73862506 87.4599522,13.6480399 C80.993621,25.5873029 73.063496,37.5265659 71.0660585,28.0945482 C69.068621,18.6326822 64.596746,-5.72341433 56.1568272,1.23120638 C47.722871,8.18582708 51.6849522,26.0947216 35.320871,21.617498 C35.320871,21.617498 28.344746,13.6480399 18.4171835,3.70860345 Z" id="Fill-2765" fill="#9E3C2A"></path>
            <path d="M37.6432647,35.1984097 C49.928996,41.6456117 80.933996,57.8830094 110.895558,74.1204071 C125.891246,82.2391059 140.618621,90.3279566 152.603246,97.1930329 C158.625371,100.625571 163.931996,103.729779 168.254808,106.386265 C170.53493,107.78134 173.01689,109.391124 175.700689,111.215618 C176.879773,112.017129 178.479662,111.75773 179.345058,110.624704 C180.155501,109.563626 179.952322,108.046459 178.891244,107.236017 C178.853757,107.207384 178.81544,107.179855 178.776357,107.153443 C175.201134,104.740224 171.932451,102.633913 168.970308,100.834508 C150.367308,89.6116008 116.798433,71.3743766 87.8177022,55.913031 C69.3962561,46.102064 52.3747794,37.1235776 36.7532722,28.9775718 C35.5036318,28.3259314 33.9623398,28.8107079 33.3107008,30.0603489 C33.309975,30.0617408 33.3092505,30.0631333 33.3085272,30.0645266 C32.6575312,31.3185739 33.1458834,32.8629205 34.3995418,33.5146653 C35.3445428,34.0059632 36.4257838,34.5672113 37.6432647,35.1984097 Z" id="Fill-2766" fill="#62261D"></path>
            <path d="M44.6030492,56.1775993 L62.60625,47.7570521 L62.60625,47.7570521 L59.111246,44.1528569 L42.5606836,51.5599194 C41.2757183,52.1349946 40.6973978,53.6406296 41.2669741,54.9280418 C41.8240372,56.1871704 43.2963515,56.7563069 44.5554801,56.1992438 C44.5714117,56.1921954 44.5872689,56.1849801 44.6030492,56.1775993 Z" id="Fill-2767" fill="#62261D"></path>
            <path d="M72.8424282,79.8662201 L102.726933,69.2850056 L102.726933,69.2850056 L100.997808,64.449604 L71.1421678,75.0579944 C69.8152754,75.5294695 69.1208791,76.9864668 69.5903397,78.3140732 C70.0594018,79.6405525 71.5149757,80.3356265 72.841455,79.8665644 C72.8417794,79.8664497 72.8421038,79.8663349 72.8424282,79.8662201 Z" id="Fill-2768" fill="#62261D"></path>
            <path d="M109.949812,97.0803055 L140.11875,89.5444726 L140.11875,89.5444726 L136.474683,84.7761993 L108.659929,92.094528 C107.291525,92.4545682 106.47173,93.8531844 106.826152,95.2230545 C107.181017,96.5946349 108.575301,97.4236417 109.949812,97.0803055 Z" id="Fill-2769" fill="#62261D"></path>
            <path d="M131.439259,112.715073 L163.96875,101.483736 L163.96875,101.483736 L157.641558,98.2675665 L129.770032,107.880462 C128.435059,108.340895 127.726103,109.796359 128.186536,111.131332 C128.186627,111.131596 128.186718,111.131859 128.186808,111.132122 C128.647828,112.467381 130.104,113.176092 131.439259,112.715073 C131.439259,112.715073 131.439259,112.715073 131.439259,112.715073 Z" id="Fill-2770" fill="#62261D"></path>
            <path d="M138.417594,59.7747365 L142.145804,87.9688301 L142.145804,87.9688301 L147.594746,90.3876529 L143.456196,59.1180388 C143.271999,57.7263024 141.995814,56.7464316 140.603715,56.9278683 C139.21502,57.1088614 138.235984,58.3813447 138.416978,59.7700393 C138.417182,59.7716052 138.417387,59.773171 138.417594,59.7747365 Z" id="Fill-2771" fill="#62261D"></path>
            <path d="M88.7856031,37.0010133 L87.8803085,58.3008836 L87.8803085,58.3008836 L92.978246,61.4946364 L93.8955725,37.2104333 C93.9488065,35.8011793 92.8519784,34.6144247 91.4429022,34.5566743 C90.0345214,34.4989523 88.8454589,35.5927215 88.7856031,37.0010133 Z" id="Fill-2772" fill="#62261D"></path>
            <path d="M59.1738265,23.9420831 L68.6810585,48.3912953 L68.6810585,48.3912953 L74.53125,50.7418678 L63.9065595,22.1056555 C63.4223187,20.8005049 61.9717304,20.1350259 60.6665797,20.6192667 C60.6549151,20.6235946 60.6432827,20.6280087 60.6316835,20.6325088 C59.3155059,21.1431376 58.6624796,22.6240568 59.1731084,23.9402344 C59.1733475,23.9408507 59.1735869,23.9414669 59.1738265,23.9420831 Z" id="Fill-2773" fill="#62261D"></path>
        </g>
        <g id="Group" transform="translate(292.640586, 277.269000)">
            <g id="Thanksgiving/Stuffs/Leaf6" transform="translate(43.555115, 91.890000) scale(1, -1) translate(-43.555115, -91.890000) ">
                <path d="M27.1470582,55.5389651 C27.1470582,55.5389651 89.0455933,107.516374 87.1775596,146.191219 C85.2822109,184.850844 25.0984428,207.163841 5.32551044,149.341827 C-14.432247,91.5198129 27.1470582,55.5389651 27.1470582,55.5389651" id="Fill-2692-Copy" fill="#C13E2B"></path>
                <path d="M34.461374,105.750817 C31.3201637,88.0800195 28.3914024,66.2236331 28.3914024,46.6350751 C28.3914024,37.2136941 29.0742742,28.3098041 30.7131665,20.6996417 C31.7206654,16.0213415 34.044291,10.4975102 37.6840432,4.12814779 C38.2293111,3.1739019 38.0232078,1.96720931 37.1921024,1.24806663 C36.5313277,0.676308398 35.5321623,0.748470546 34.960404,1.4092453 C34.8938409,1.48617162 34.8348519,1.56933824 34.7842147,1.65756628 C30.6534706,8.86266782 28.0516045,14.9411339 26.9786165,19.8929645 C25.265367,27.883635 24.5809778,37.0310502 24.5809778,46.6350751 C24.5809778,67.9283095 27.9665044,91.5654738 31.3353386,109.921186 C33.4337864,121.303691 35.5322342,131.163028 37.630682,139.499197 C37.8863623,140.514932 38.9170533,141.13107 39.9327865,140.875381 C39.937566,140.874178 39.9423408,140.872956 39.9471108,140.871716 C40.9680035,140.606248 41.5869261,139.570633 41.3371998,138.545776 C38.72409,127.822826 36.432148,116.891173 34.461374,105.750817 Z" id="Fill-2696-Copy" fill="#201711"></path>
            </g>
        </g>
        <g id="Group" transform="translate(153.640586, 326.269000)">
            <g id="Thanksgiving/Stuffs/Leaf6-Copy" transform="translate(43.555115, 91.890000) scale(1, -1) rotate(40.000000) translate(-43.555115, -91.890000) ">
                <path d="M27.1470582,55.5389651 C27.1470582,55.5389651 89.0455933,107.516374 87.1775596,146.191219 C85.2822109,184.850844 25.0984428,207.163841 5.32551044,149.341827 C-14.432247,91.5198129 27.1470582,55.5389651 27.1470582,55.5389651" id="Fill-2692-Copy" fill="#C13E2B"></path>
                <path d="M34.461374,105.750817 C31.3201637,88.0800195 28.3914024,66.2236331 28.3914024,46.6350751 C28.3914024,37.2136941 29.0742742,28.3098041 30.7131665,20.6996417 C31.7206654,16.0213415 34.044291,10.4975102 37.6840432,4.12814779 C38.2293111,3.1739019 38.0232078,1.96720931 37.1921024,1.24806663 C36.5313277,0.676308398 35.5321623,0.748470546 34.960404,1.4092453 C34.8938409,1.48617162 34.8348519,1.56933824 34.7842147,1.65756628 C30.6534706,8.86266782 28.0516045,14.9411339 26.9786165,19.8929645 C25.265367,27.883635 24.5809778,37.0310502 24.5809778,46.6350751 C24.5809778,67.9283095 27.9665044,91.5654738 31.3353386,109.921186 C33.4337864,121.303691 35.5322342,131.163028 37.630682,139.499197 C37.8863623,140.514932 38.9170533,141.13107 39.9327865,140.875381 C39.937566,140.874178 39.9423408,140.872956 39.9471108,140.871716 C40.9680035,140.606248 41.5869261,139.570633 41.3371998,138.545776 C38.72409,127.822826 36.432148,116.891173 34.461374,105.750817 Z" id="Fill-2696-Copy" fill="#201711"></path>
            </g>
        </g>
        <g id="Thanksgiving/Stuffs/Leaf5-Copy" transform="translate(303.003021, 289.239000)">
            <path d="M138.256175,0 C138.256175,0 -10.9283681,69.8021739 0.639577599,209.920217 C0.639577599,209.920217 188.094242,220.315 138.256175,0" id="Fill-2624" fill="#CB6E30"></path>
            <path d="M19.3224611,197.420843 L125.866733,24.2539394 C126.686048,22.9223031 126.276551,21.1790007 124.950041,20.351413 C123.634153,19.5304531 121.901896,19.9316711 121.080936,21.2475584 C121.077852,21.2525019 121.074783,21.2574551 121.07173,21.2624177 L14.5274577,194.429321 C13.7081428,195.760958 14.1176398,197.50426 15.4441506,198.331848 C16.7600379,199.152808 18.4922949,198.75159 19.3132548,197.435702 C19.316339,197.430759 19.3194078,197.425806 19.3224611,197.420843 Z" id="Fill-2625" fill="#54211E"></path>
            <path d="M86.4701384,85.9684783 L132.85618,73.5057555 C134.3833,73.0954582 135.29054,71.526894 134.884688,69.998587 C134.48037,68.4760532 132.918347,67.5695609 131.395813,67.9738796 C131.393117,67.9745956 131.390422,67.9753155 131.387728,67.9760393 L89.1673278,79.3206522 L89.1673278,79.3206522 L75.9851696,57.0137825 C75.1959157,55.6782056 73.4733999,55.2353234 72.1378231,56.0245774 C72.1302264,56.0290666 72.122651,56.0335916 72.115097,56.0381522 C70.7703657,56.8500105 70.3299825,58.5931943 71.1277703,59.9463205 L86.4701384,85.9684783 L86.4701384,85.9684783 Z" id="Fill-2626" fill="#54211E"></path>
            <path d="M50.0901178,89.3456574 L58.9887752,128.423913 L58.9887752,128.423913 L113.840323,115.567934 C115.375899,115.208029 116.330504,113.6732 115.974394,112.136739 C115.619419,110.605179 114.090081,109.651367 112.558521,110.006341 C112.556235,110.006871 112.553951,110.007403 112.551667,110.007939 L63.2443407,121.564565 L63.2443407,121.564565 L55.6331999,88.0767864 C55.2856493,86.5476208 53.7642702,85.5897324 52.2351046,85.937283 C52.2336752,85.9376078 52.2322461,85.9379338 52.2308173,85.9382609 C50.6993127,86.2888382 49.7412825,87.8137551 50.0901178,89.3456574 Z" id="Fill-2627" fill="#54211E"></path>
            <path d="M36.2724466,163.022826 L79.8989895,159.931438 C81.4769875,159.819621 82.6668799,158.451874 82.5592137,156.873587 C82.4519654,155.301426 81.0905351,154.11388 79.5183741,154.221128 C79.5154141,154.22133 79.5124543,154.221536 79.5094948,154.221748 L40.4381058,157.009565 L40.4381058,157.009565 L30.6005965,122.180561 C30.1767579,120.679991 28.6167158,119.807127 27.1161451,120.230966 C27.1114275,120.232298 27.1067133,120.233643 27.1020026,120.235 C25.5938716,120.669469 24.7205881,122.241233 25.1483282,123.751287 L36.2724466,163.022826 L36.2724466,163.022826 Z" id="Fill-2628" fill="#54211E"></path>
        </g>
        <g id="Group" transform="translate(370.000000, 306.508699)">
            <g id="Leaf3" transform="translate(132.720000, 117.642029) scale(1, -1) translate(-132.720000, -117.642029) ">
                <path d="M107.141809,19.598156 C128.080178,-1.53777483 124.241056,0.0259813836 124.241056,0.0259813836 L138.789308,59.4991614 C138.789308,59.4991614 192.458716,16.4454217 209.232143,21.2375778 C226.003043,26.0045121 213.626927,47.2161085 204.635299,60.3062614 C195.668929,73.3964142 152.55458,107.193726 152.55458,107.193726 C152.55458,107.193726 238.076071,126.387572 263.889115,177.20965 C263.889115,177.20965 204.43324,193.048987 137.930557,153.526309 C137.930557,153.526309 160.510655,195.369399 149.271121,233.580539 C149.271121,233.580539 104.540299,214.260583 98.5542999,164.724822 L52.2322635,219.103183 C52.2322635,219.103183 18.433686,176.711506 79.9328825,103.542848 C84.1132546,61.653526 93.1828969,33.6719619 107.141809,19.598156 Z" id="Fill-2739" fill="#C53D40"></path>
                <path d="M98.7866708,126.01408 L74.3274172,148.199658 C72.8652992,149.525861 72.7545032,151.786018 74.0798979,153.248869 C75.4043461,154.710675 77.6630514,154.822025 79.1248574,153.497577 C79.1253449,153.497135 79.1258323,153.496693 79.1263196,153.496251 L103.585573,131.310674 C105.047691,129.984471 105.158487,127.724314 103.833092,126.261463 C102.508644,124.799657 100.249939,124.688307 98.788133,126.012755 C98.7876455,126.013197 98.7871581,126.013638 98.7866708,126.01408 Z" id="Fill-2740" fill="#62261D"></path>
                <path d="M118.04028,102.434385 L119.831264,63.4249203 C119.921851,61.451845 118.395793,59.7789162 116.422718,59.6883293 C116.42269,59.688328 116.422662,59.6883267 116.422634,59.6883254 C114.449465,59.5977806 112.776455,61.1238652 112.685756,63.097027 L110.892636,102.10651 C110.801916,104.080136 112.328313,105.75362 114.30194,105.84434 C114.302052,105.844345 114.302165,105.844351 114.302277,105.844356 C116.276121,105.9349 117.949658,104.408226 118.04028,102.434385 Z" id="Fill-2741" fill="#62261D"></path>
                <path d="M92.0884104,113.146088 L163.972029,142.876657 C165.800146,143.632754 167.895352,142.766756 168.65616,140.940594 C169.414273,139.120904 168.553694,137.031182 166.734004,136.27307 C166.730933,136.27179 166.727861,136.270515 166.724786,136.269245 L94.917237,106.588401 L94.917237,106.588401 L6.13017491,67.7424179 C4.32431909,66.9523225 2.21988487,67.7757591 1.42978953,69.5816149 C1.42887167,69.5837128 1.42795583,69.5858115 1.42704202,69.5879112 C0.638487762,71.3997332 1.4658546,73.5079175 3.27623523,74.2997753 L92.0884104,113.146088 L92.0884104,113.146088 Z" id="Fill-2742" fill="#62261D"></path>
                <path d="M145.398931,76.4144654 L128.614219,97.8503153 C127.401527,99.3990513 127.673944,101.637631 129.22268,102.850323 C129.224914,102.852073 129.22715,102.85382 129.229389,102.855564 C130.785999,104.068431 133.030527,103.793017 134.247724,102.239791 L151.02769,80.8274227 C152.246279,79.2724201 151.973811,77.0240243 150.419068,75.8051032 C148.865368,74.586999 146.618376,74.8590539 145.400271,76.4127548 C145.399824,76.4133249 145.399378,76.4138951 145.398931,76.4144654 Z" id="Fill-2743" fill="#62261D"></path>
                <path d="M113.195113,138.662327 L117.303744,168.011964 C117.578163,169.972247 119.38843,171.33986 121.349086,171.068123 C123.306279,170.796866 124.673001,168.99035 124.401743,167.033157 C124.40152,167.031541 124.401295,167.029926 124.401068,167.028311 L120.292437,137.678674 C120.018018,135.718391 118.207752,134.350777 116.247095,134.622514 C114.289902,134.893772 112.923181,136.700287 113.194438,138.657481 C113.194662,138.659096 113.194887,138.660712 113.195113,138.662327 Z" id="Fill-2744" fill="#62261D"></path>
            </g>
        </g>
        <g id="Leaf1" transform="translate(171.110000, 315.419000)">
            <path d="M100.500989,172.165364 C100.500989,172.165364 86.28734,159.521442 77.5568123,163.412361 C68.8325296,167.303281 65.603858,171.194201 65.603858,171.194201 C65.603858,171.194201 60.1082469,150.116819 36.1960934,160.166796 C36.1960934,160.166796 43.9523991,140.066843 35.5466121,130.662221 C35.5466121,130.662221 61.0762238,131.96546 49.7665059,120.292701 C38.456788,108.619942 16.8053291,103.106239 16.8053291,103.106239 L17.1300697,88.1941797 L5.17087049,77.8183938 L6.78832877,69.0653909 L0,62.9000689 L7.11306942,58.3637954 L3.23491656,43.7712801 L11.6344586,47.3363901 L18.0980467,46.3652266 L26.4975887,55.1182295 L39.4247649,47.6621998 C39.4247649,47.6621998 48.798529,63.877498 55.5868577,65.819825 C62.3689415,67.7684177 56.5548347,44.4228995 56.5548347,44.4228995 L52.6766818,29.1850305 L62.6936821,30.156194 L61.7257052,15.8894885 L74.971377,0 L85.9625993,15.2441346 L90.1654928,27.8880572 L104.379142,26.9106281 C104.379142,26.9106281 96.6290809,54.7986854 102.118447,58.6896051 C107.614058,62.5805248 124.094647,31.7789769 124.094647,31.7789769 C124.094647,31.7789769 127.648059,37.6122237 130.558235,35.6698966 C133.468411,33.721304 133.468411,33.721304 133.468411,33.721304 L134.761128,25.2941108 C134.761128,25.2941108 134.921859,33.8751238 142.83593,30.4820037 C150.75,27.0888836 150.916976,23.9971375 150.916976,23.9971375 C150.916976,23.9971375 150.27374,38.2638431 156.412587,39.5608163 C156.412587,39.5608163 153.827152,44.7424437 153.827152,50.2561463 C153.827152,55.7698489 165.780106,59.3349589 165.780106,59.3349589 C165.780106,59.3349589 142.192693,76.8409647 142.83593,82.3546673 C143.485411,87.86837 157.705305,85.6002332 157.705305,85.6002332 L157.055823,89.4911529 L180,92.0850994 C180,92.0850994 165.461611,97.2729923 163.519412,101.809266 C161.583458,106.345539 162.551435,112.510861 162.551435,112.510861 C162.551435,112.510861 145.102869,119.966891 143.810152,126.125947 C142.517434,132.285004 147.038823,136.501733 147.038823,136.501733 C147.038823,136.501733 116.987822,138.124516 111.16747,133.581977 L100.500989,172.165364 Z" id="Fill-2525" fill="#DD612A"></path>
            <path d="M87.4221368,84.5977418 C87.8780228,84.9924728 88.5462391,85.0050039 89.0146151,84.6290697 C89.1707404,84.5037582 89.2706606,84.3847124 89.3705808,84.2656665 C89.5579312,84.0338404 89.7203015,83.776952 89.9014069,83.4762046 C90.2261475,82.9123032 90.6008483,82.1854969 91.0130191,81.3145825 C92.449372,78.2820461 94.3790809,73.564071 95.9653142,69.5854333 C97.5453024,65.6067956 98.7693248,62.3800265 98.7693248,62.3737609 C99.0128803,61.7284071 98.6943847,61.0078664 98.0511484,60.7635091 C97.4079121,60.5128863 96.6897356,60.838696 96.4461801,61.4840498 C96.4399351,61.4840498 96.3212799,61.8035939 96.1089495,62.3612298 C95.3595479,64.316088 93.4548191,69.2408269 91.5688252,73.8021627 C90.6258283,76.076565 89.6890764,78.2695149 88.9022048,79.9361569 C88.6440776,80.4917042 88.3513047,81.1212424 88.0238861,81.8247716 L63.840969,60.9828041 C63.316388,60.531683 62.5295164,60.5943387 62.0861205,61.1143811 C61.6364795,61.6406891 61.6926847,62.430151 62.2172657,62.8750066 L87.4221368,84.5977418 Z" id="Fill-2526" fill="#E6784C"></path>
            <path d="M80.9960188,60.0035737 C81.3145145,60.2541965 81.7391753,60.3356489 82.1263661,60.2228686 C82.5135569,60.1100884 82.8258075,59.809341 82.9507078,59.4208755 L90.0637772,38.3497597 C90.2823526,37.6981403 89.9326319,36.9838652 89.2831506,36.7645702 C88.6274243,36.5452752 87.9217378,36.8961472 87.7031624,37.5477666 L81.1583891,56.9397094 L63.4787583,42.8108464 C62.9416872,42.378522 62.1610606,42.46624 61.7301547,43.0050791 C61.3054939,43.5439182 61.3929241,44.3333802 61.9299951,44.7657046 L80.9960188,60.0035737 Z" id="Fill-2527" fill="#E6784C"></path>
            <path d="M9.55486938,59.9803127 C9.56111439,59.9865783 28.1525171,75.2307129 49.7040558,91.5775881 C60.4829476,99.7541585 71.998751,108.206414 82.3092669,115.173729 C87.4738924,118.657387 92.3262672,121.76511 96.654061,124.290135 C100.981855,126.81516 104.760087,128.751222 107.826389,129.891556 C108.47587,130.129647 109.187801,129.803838 109.425112,129.152218 C109.668667,128.506865 109.337682,127.786324 108.694445,127.548232 C105.85921,126.495616 102.162162,124.615945 97.9030635,122.128513 C90.4527634,117.780207 81.2913298,111.596088 71.7489505,104.766615 C57.4353815,94.5224065 42.2787357,82.8371163 30.7004823,73.7207103 C24.9113555,69.1593745 20.0152656,65.2371269 16.5742636,62.4614789 C14.8506401,61.0705221 13.4892274,59.9677816 12.5587205,59.2096475 C11.6282136,58.4515134 11.1286126,58.0442512 11.1286126,58.0442512 C10.5977865,57.6056613 9.81091489,57.6871137 9.38000902,58.2196872 C8.94285813,58.7522608 9.01779829,59.5417227 9.55486938,59.9803127" id="Fill-2528" fill="#E6784C"></path>
            <path d="M78.2562537,89.2342645 L79.4802762,112.00335 L54.5252056,113.857959 C53.8382542,113.908084 53.3199181,114.503313 53.3698782,115.192526 C53.4260833,115.881739 54.0193595,116.401781 54.7063109,116.351656 L80.885404,114.403064 C81.5598654,114.352939 82.0719564,113.770241 82.0344863,113.087294 L80.7417687,89.0964219 C80.7042987,88.4072091 80.1172675,87.8809011 79.4303161,87.9184945 C78.7433647,87.956088 78.2187836,88.5450516 78.2562537,89.2342645" id="Fill-2529" fill="#E6784C"></path>
            <path d="M31.4124137,96.2454386 L55.9740485,94.9547309 C56.3050342,94.9359342 56.6172848,94.7855605 56.8358603,94.5349377 C57.0606807,94.2843148 57.1730909,93.9585051 57.1481109,93.6264299 L55.8553933,72.555314 C55.8179232,71.8661012 55.224647,71.3397932 54.5376956,71.3836522 C53.8507442,71.4275112 53.3324081,72.0164749 53.3698782,72.7056878 L54.5876557,92.5236893 L31.2812684,93.7517413 C30.594317,93.7893347 30.069736,94.3782984 30.100961,95.0675112 C30.1384311,95.7567241 30.7254623,96.283032 31.4124137,96.2454386" id="Fill-2530" fill="#E6784C"></path>
            <path d="M21.4328835,81.6529234 L36.6207543,80.3559501 C36.98921,80.3308879 37.3264407,80.1366551 37.5325261,79.8359077 C37.7448565,79.5351603 37.8135517,79.1529605 37.7261215,78.8020885 L33.1984873,61.2898171 C33.023627,60.6256666 32.3491656,60.22467 31.6809492,60.3938404 C31.0127329,60.5692764 30.6130521,61.2522237 30.7879124,61.9163742 L34.9408459,77.9938298 L21.220553,79.1654916 C20.5398467,79.2218818 20.0277556,79.8296422 20.0902057,80.518855 C20.1464109,81.2018022 20.7521771,81.7155791 21.4328835,81.6529234" id="Fill-2531" fill="#E6784C"></path>
            <path d="M137.515179,43.5582507 C137.502689,43.5707819 130.870485,57.4552875 124.025951,74.9299655 C120.603685,83.6641717 117.125213,93.3006202 114.402387,102.561134 C111.679561,111.821649 109.693647,120.699963 109.275232,127.999353 C109.237762,128.688566 109.762343,129.27753 110.449294,129.321389 C111.136245,129.358982 111.723277,128.832674 111.766992,128.143461 C112.154182,121.176146 114.090136,112.423143 116.787982,103.269144 C120.83475,89.5287463 126.580162,74.8547787 131.313881,63.6331407 C133.680741,58.019189 135.791555,53.2636204 137.315338,49.9178054 C138.070985,48.2448979 138.689241,46.9228624 139.107657,46.0206202 C139.319988,45.5694991 139.482358,45.2248926 139.594768,44.9868009 C139.700933,44.7549748 139.757138,44.635929 139.757138,44.635929 C140.056899,44.0156374 139.794608,43.2700344 139.176352,42.969287 C138.551851,42.6748052 137.808694,42.9316936 137.515179,43.5582507" id="Fill-2532" fill="#E6784C"></path>
            <path d="M111.273636,68.1550817 L118.705201,91.820144 C118.817611,92.1772816 119.079901,92.4654978 119.429622,92.6033404 C119.773098,92.7474485 120.160289,92.7223863 120.491274,92.5469503 L135.354404,84.4393012 C135.960171,84.1072259 136.178746,83.3490918 135.854005,82.7413314 C135.52302,82.1398366 134.767373,81.914276 134.161607,82.2400857 L120.628665,89.6209285 L113.64674,67.4032132 C113.440655,66.7453282 112.741214,66.3819251 112.085487,66.5886889 C111.429761,66.7954528 111.06755,67.4971968 111.273636,68.1550817" id="Fill-2533" fill="#E6784C"></path>
            <path d="M123.532595,51.8476014 L127.410748,68.056634 C127.498179,68.4388338 127.760469,68.7521123 128.12268,68.9087516 C128.478646,69.0653909 128.884571,69.0465942 129.228047,68.8586271 L137.309093,64.316088 C137.908615,63.9777471 138.120945,63.219613 137.783714,62.6181182 C137.446484,62.0166234 136.690837,61.7973284 136.091316,62.1356692 L129.446622,65.8699496 L125.949415,51.2649032 C125.79329,50.5944871 125.118829,50.1809594 124.450612,50.3375987 C123.782396,50.5005036 123.370225,51.1771852 123.532595,51.8476014" id="Fill-2534" fill="#E6784C"></path>
            <path d="M151.160532,98.8456506 L107.857614,129.973008 C107.295563,130.374005 107.170662,131.157201 107.570343,131.714837 C107.970024,132.278738 108.750651,132.410315 109.306457,132.003053 L152.609374,100.881961 C153.171426,100.480965 153.302571,99.6977683 152.896645,99.1338669 C152.496964,98.5762311 151.722583,98.4446541 151.160532,98.8456506" id="Fill-2535" fill="#E6784C"></path>
            <path d="M133.874336,110.255256 C133.705721,110.925672 132.75,112.870348 135,112.870348 C135.744197,111.983248 136.174583,111.318314 136.291156,110.875547 L140.169309,95.6314126 C140.337925,94.9672621 139.931999,94.2843148 139.270027,94.1151444 C138.601811,93.945974 137.921105,94.3469705 137.752489,95.0173867 L133.874336,110.255256 Z" id="Fill-2536" fill="#E6784C"></path>
            <path d="M109.812303,129.478028 L49.7040558,149.258436 C49.0483295,149.471466 48.6923637,150.179475 48.9046942,150.831095 C49.1232696,151.48898 49.822711,151.846117 50.4784374,151.633088 L110.586684,131.85268 C111.242411,131.63965 111.598376,130.931641 111.379801,130.273756 C111.16747,129.622136 110.461784,129.264999 109.812303,129.478028" id="Fill-2537" fill="#E6784C"></path>
            <path d="M77.413177,141.225974 C77.8378378,141.397233 79.0334455,140.974986 81,139.959232 C79.6621101,139.433655 78.7808348,139.085237 78.3561739,138.913978 L57.0232106,130.15471 C56.3862193,129.897821 55.6617979,130.204834 55.3995073,130.837657 C55.1434618,131.476745 55.4432224,132.209817 56.0802137,132.472971 L77.413177,141.225974 Z" id="Fill-2538" fill="#E6784C"></path>
            <path d="M91.9827915,136.871402 L83.5770045,152.109271 C83.2460188,152.710766 83.4645942,153.475166 84.0641155,153.807241 C84.6698817,154.139316 85.4255282,153.920021 85.7565139,153.318526 L94.1623009,138.080657 C94.4932866,137.472897 94.2747112,136.714763 93.67519,136.382687 C93.0694237,136.044347 92.3137772,136.263642 91.9827915,136.871402" id="Fill-2539" fill="#E6784C"></path>
            <path d="M140.949936,174.69039 C140.949936,174.69039 140.587725,174.170347 139.938244,173.243043 C137.677549,169.991211 131.938383,161.739454 126.174236,153.381182 C120.403844,145.029176 114.595982,136.558123 112.210388,132.89903 C97.3722374,110.148741 88.0172085,80.0176093 82.4091871,55.6069441 C79.6051764,43.3953459 77.7316726,32.6185635 76.5576102,24.8931142 C75.9705791,21.0335224 75.5646532,17.9383302 75.3023627,15.808036 C75.1649724,14.7428889 75.0712972,13.9158335 75.0088471,13.3644633 C74.977622,13.0825126 74.958887,12.8757487 74.940152,12.7316406 C74.9276619,12.5875325 74.9214169,12.5248768 74.9214169,12.5248768 C74.8527218,11.8356639 74.2407105,11.3344182 73.5537592,11.4033395 C72.8730528,11.4722608 72.3734518,12.0862868 72.4421469,12.7754996 C72.4483919,12.8068275 74.3343857,31.5972754 79.9798772,56.1645799 C85.6316136,80.73815 95.0178677,111.076046 110.124553,134.264924 C112.891094,138.512982 120.079103,148.963954 126.586407,158.368577 C133.09371,167.773199 138.907817,176.125205 138.907817,176.125205 C139.301252,176.689107 140.081879,176.826949 140.64393,176.432218 C141.205981,176.037487 141.343372,175.260557 140.949936,174.69039" id="Fill-2540" fill="#E6784C"></path>
        </g>
    </g>
</svg>