<?xml version="1.0" encoding="UTF-8"?>
<svg width="400px" height="400px" viewBox="0 0 400 400" version="1.1" xmlns="http://www.w3.org/2000/svg" xmlns:xlink="http://www.w3.org/1999/xlink">
    <title>bat</title>
    <g id="bat" stroke="none" stroke-width="1" fill="none" fill-rule="evenodd">
        <path d="M235.920022,363.559841 C253.316971,348.553337 275.540986,340.321928 298.515888,340.375364 L298.567754,340.375364 C324.149434,340.300204 348.697193,350.466178 366.7356,368.605743 L398.129857,400 C404.748573,342.932471 393.348863,285.224031 365.527844,234.959718 L365.016585,234.048344 L361.48223,237.612336 C323.806131,275.101661 262.918962,275.101661 225.242863,237.612336 C223.85152,236.22254 223.069741,234.336644 223.069741,232.370081 C223.069741,230.403518 223.85152,228.517621 225.242863,227.127825 L257.400303,194.970385 L257.252112,194.970385 C230.875887,189.712595 210.257767,169.094474 204.999977,142.71825 L204.999977,142.570059 L172.842536,174.727499 C171.4533,176.117155 169.56896,176.898077 167.603986,176.898496 C165.636444,176.900043 163.749077,176.118972 162.358025,174.727499 C124.887499,137.052313 124.887499,76.185546 162.358025,38.5103603 L165.951656,34.953777 L165.010644,34.4276991 C114.751075,6.62316715 57.0573227,-4.77568831 0,1.82568598 L31.3942567,33.2199427 C49.5359242,51.2569416 59.7022786,75.8056188 59.6246363,101.387788 C59.6780718,124.36269 51.4466628,146.586705 36.4401592,163.983654 C76.8345596,204.25541 88.8421372,264.966894 66.8193078,317.583593 L55.6012515,344.354291 L82.3200832,333.239969 C134.925247,311.204245 195.63384,323.187822 235.920022,363.559841 L235.920022,363.559841 Z" fill="#000000" fill-rule="nonzero"></path>
    </g>
</svg>