<?xml version="1.0" encoding="UTF-8"?>
<svg width="400px" height="400px" viewBox="0 0 400 400" version="1.1" xmlns="http://www.w3.org/2000/svg" xmlns:xlink="http://www.w3.org/1999/xlink">
    <title>candy</title>
    <g id="candy" stroke="none" stroke-width="1" fill="none" fill-rule="evenodd">
        <path d="M279.134677,1.86962345 C284.459115,7.19477333 288.48997,9.10691636 292.726928,10.5994378 L293.348616,10.8152075 C293.972124,11.0286766 294.601611,11.2362862 295.24178,11.4474178 C301.16003,13.3988913 307.86806,15.6116393 316.378629,24.1213572 C324.888347,32.6319263 327.101095,39.3399568 329.05342,45.2582065 C330.77681,50.4871001 332.266159,55.001957 338.631214,61.3661605 C344.995418,67.731215 349.510274,69.2205646 354.739168,70.9439549 L355.045994,71.0452003 L355.045994,71.0452003 L355.663996,71.2498273 C361.356174,73.1420312 367.80565,75.5491852 375.876017,83.6187453 C384.385735,92.1293143 386.598483,98.8373448 388.549957,104.755595 C388.7259,105.289068 388.899397,105.815125 389.075877,106.336484 L389.289433,106.960035 C390.799213,111.311546 392.672719,115.408395 398.127751,120.862697 C399.541357,122.276303 400.210287,124.27118 399.937949,126.253292 C399.663909,128.234552 398.477535,129.972411 396.732869,130.948573 C394.537142,132.176648 350.123886,156.662406 301.093647,156.662406 C298.373669,156.662406 295.637521,156.576449 292.895416,156.417302 C315.667758,181.733291 315.114745,220.725527 291.23142,245.373653 L290.500542,246.116146 L246.11452,290.502168 C233.796323,302.818663 217.419435,309.602438 200,309.602438 C183.749921,309.602438 168.409621,303.694401 156.423335,292.902999 C159.444587,345.070234 132.243107,394.417067 130.946096,396.734495 C129.969083,398.479161 128.231224,399.666386 126.250815,399.939575 C125.959753,399.980426 125.666139,400 125.375928,400 C123.69424,400 122.06787,399.336176 120.861923,398.131079 C114.49857,391.766876 109.982862,390.277526 104.75482,388.553285 C98.83657,386.601811 92.1285395,384.389063 83.6179704,375.879345 C75.1082525,367.368776 72.8955045,360.660746 70.94318,354.742496 C69.2197898,349.513602 67.7304402,344.998746 61.3653856,338.634542 C55.0011821,332.269487 50.4863252,330.780138 45.2574316,329.056748 C39.3391819,327.104423 32.6311514,324.891675 24.1205824,316.381957 C16.1977415,308.458324 13.733273,302.097177 11.856104,296.481175 L11.649699,295.860199 C11.581538,295.654202 11.5139352,295.449186 11.446643,295.245108 C11.3058886,294.818329 11.1666995,294.396297 11.026296,293.977619 L10.8144326,293.351944 C9.28457066,288.883475 7.45376188,284.722171 1.86884859,279.138005 C0.455243072,277.724399 -0.213687654,275.729522 0.0603526692,273.749113 C0.334392992,271.767852 1.52076631,270.029994 3.26543297,269.053832 C5.58286091,267.757672 54.9262891,240.558745 107.095226,243.575741 C84.3287817,218.259752 84.8835226,179.273355 108.765229,154.626997 L109.496058,153.884556 L153.882079,109.498535 C166.200277,97.1820392 182.577165,90.3982646 199.996598,90.3982646 C216.246678,90.3982646 231.586979,96.3063016 243.573264,107.097703 C240.552012,54.9304682 267.754344,5.58363577 269.050504,3.26620783 C270.027517,1.52154118 271.765375,0.334316796 273.745785,0.0611275307 C275.728747,-0.215465963 277.721071,0.456868991 279.134677,1.86962345 Z M16.547027,276.652068 C20.5844409,282.197555 22.1461304,286.931984 23.5690975,291.245992 C23.7098519,291.672771 23.849041,292.094803 23.9894444,292.51348 L24.2013079,293.139155 C25.7311698,297.607625 27.5619786,301.768928 33.1468919,307.353094 C38.8616869,313.068654 43.0852969,314.852782 47.673745,316.405202 L48.3018781,316.615807 C48.6172497,316.720739 48.9347095,316.825375 49.2548459,316.930889 C55.1730956,318.883213 61.8811261,321.095961 70.3916951,329.605679 C78.9014131,338.116248 81.114161,344.824279 83.0664856,350.742529 C84.7898758,355.971422 86.2792254,360.486279 92.64428,366.850483 C99.0076324,373.214686 103.52334,374.704036 108.751383,376.428277 C113.066241,377.851244 117.79982,379.412934 123.345307,383.450347 C131.352901,366.532187 149.575731,321.922338 142.074516,279.99587 C133.109483,300.279961 116.806636,323.884024 103.710573,341.297499 C102.456115,342.965571 100.542088,343.843861 98.6042315,343.843861 C97.2689232,343.843861 95.9225511,343.426843 94.7727733,342.56217 C91.9557749,340.443038 91.3898221,336.442219 93.5081027,333.62437 C104.850167,318.54284 124.262957,291.114472 132.393039,270.021911 L132.672039,269.288723 L130.713757,267.330442 C124.484021,269.669997 117.241527,273.179756 109.091806,277.830782 C108.093516,278.40099 107.005865,278.670775 105.933533,278.670775 C103.715679,278.670775 101.561654,277.515039 100.383791,275.451226 C98.6357206,272.389975 99.7012438,268.491283 102.763347,266.744063 C108.964998,263.204518 114.726653,260.268371 120.021929,257.927114 C78.092058,250.418239 33.4728467,268.641069 16.547027,276.652068 Z M80.7141643,280.557568 C83.6358426,278.583967 87.6026189,279.354173 89.5762198,282.276703 C91.5489697,285.198381 90.7796143,289.166008 87.8570849,291.137907 C80.9235243,295.819571 73.6980512,300.982934 66.381515,306.485868 C65.2317371,307.350541 63.8853651,307.767559 62.5500568,307.767559 C60.6122002,307.767559 58.6990243,306.889268 57.4437154,305.221197 C55.3245837,302.404199 55.8905366,298.402529 58.708386,296.283397 C66.1959846,290.650252 73.6010307,285.360082 80.7141643,280.557568 Z M199.999151,103.16582 C186.201326,103.16582 173.218233,108.457036 163.36517,118.080993 L162.912644,118.528248 L118.526622,162.91427 C98.2810766,183.158973 98.0786212,215.973878 117.919256,236.469986 L118.526622,237.087283 L162.912644,281.473305 C172.818095,291.380459 185.989052,296.835733 199.999151,296.835733 C213.796975,296.835733 226.780068,291.544518 236.633132,281.920561 L237.085658,281.473305 L281.471679,237.087283 C301.717225,216.841738 301.919681,184.027658 282.079046,163.531568 L281.471679,162.91427 L237.085658,118.528248 C227.180206,108.621095 214.00925,103.16582 199.999151,103.16582 Z M153.884633,145.607177 C156.377378,143.115282 160.418196,143.115282 162.912644,145.607177 C165.40539,148.099923 165.40539,152.140741 162.912644,154.634338 L162.912644,154.634338 L136.580093,180.966889 C135.333294,182.212836 133.699265,182.83581 132.066087,182.83581 C130.432909,182.83581 128.798879,182.212836 127.552081,180.966889 C125.059335,178.474143 125.059335,174.433325 127.552081,171.939729 L127.552081,171.939729 Z M276.651293,16.549504 C268.642847,33.4685152 250.419166,78.0792159 257.922084,120.006534 C266.887117,99.722444 283.189963,76.1183808 296.286878,58.7040545 C298.405158,55.8870561 302.407679,55.3211033 305.224677,57.4393839 C308.041676,59.5585156 308.607629,63.5593341 306.489348,66.3771835 C295.146442,81.458714 275.733643,108.887081 267.603561,129.979642 L267.32456,130.71283 L269.287949,132.676218 C290.474159,124.720538 318.362443,104.988784 333.616787,93.5165371 C336.434636,91.3965543 340.435455,91.9633582 342.554586,94.7812076 C344.673718,97.5990571 344.107765,101.599876 341.289916,103.719007 C323.878994,116.813369 300.278335,133.112811 279.995947,142.077844 C321.918159,149.576506 366.525455,131.35708 383.449573,123.347784 C379.412159,117.802297 377.850469,113.067867 376.427502,108.75386 C374.703261,103.525817 373.213911,99.0101094 366.849708,92.6467569 C360.485504,86.2817024 355.970647,84.7923528 350.741754,83.0689625 C344.823504,81.116638 338.115474,78.9038901 329.604904,70.3941721 C321.095187,61.8836031 318.882439,55.1755726 316.930114,49.2573229 C315.206724,44.0284292 313.717374,39.5135724 307.35232,33.1493689 C302.027882,27.824219 297.997026,25.9120759 293.760068,24.4195546 L293.13838,24.2037848 C292.826627,24.0970503 292.513378,23.9917806 292.198046,23.8868031 L291.564433,23.6768902 L291.245217,23.5715745 C286.931209,22.1486073 282.197631,20.5869179 276.651293,16.549504 Z M228.058497,127.553707 C230.552094,130.045601 230.552094,134.087271 228.059348,136.580016 C225.566602,139.073613 221.524933,139.072762 219.033038,136.580867 C208.536103,126.085634 191.458795,126.085634 180.966114,136.580867 C179.719316,137.826815 178.085287,138.450001 176.452108,138.450001 C174.81893,138.450001 173.184901,137.826815 171.938103,136.580867 C169.445357,134.088122 169.445357,130.047304 171.938103,127.553707 C187.409466,112.081492 212.586282,112.081492 228.058497,127.553707 Z" fill="#000000" fill-rule="nonzero"></path>
    </g>
</svg>