<?xml version="1.0" encoding="UTF-8"?>
<svg width="400px" height="400px" viewBox="0 0 400 400" version="1.1" xmlns="http://www.w3.org/2000/svg" xmlns:xlink="http://www.w3.org/1999/xlink">
    <title>candy2</title>
    <g id="candy2" stroke="none" stroke-width="1" fill="none" fill-rule="evenodd">
        <path d="M304.321881,78.0055251 C297.040175,50.8309717 279.646551,28.1384316 255.343679,14.1078832 C231.042371,0.0765522661 202.694889,-3.6409836 175.517988,3.64072315 C148.343435,10.9224299 125.651677,28.3160533 111.620346,52.6181432 L96.6969945,78.4664025 C92.0295347,86.5501455 90.7900952,95.9672249 93.2055937,104.982895 C95.6218746,113.998565 101.40436,121.534576 109.487321,126.201253 C117.570282,130.868713 126.988143,132.108152 136.003813,129.692654 C145.019483,127.276373 152.555494,121.493887 157.222172,113.410927 L172.145523,87.5626674 C176.854454,79.4077192 184.473408,73.5696777 193.599406,71.1236627 C202.72697,68.6784302 212.243424,69.924912 220.398372,74.6330604 C228.554103,79.3419913 234.392144,86.9609446 236.837377,96.0869435 C239.283392,105.213725 238.03691,114.730961 233.328762,122.885909 L103.596071,347.589865 C98.9293939,355.673608 97.689172,365.090687 100.105453,374.106357 C102.521734,383.122027 108.303437,390.658038 116.38718,395.324715 C121.877021,398.494519 127.875469,400 133.800365,400 C145.885683,400 157.657227,393.731598 164.122031,382.534389 L293.854721,157.831216 C307.88527,133.529126 311.602806,105.179296 304.321881,78.0055251 L304.321881,78.0055251 Z M289.205258,82.0556126 C289.328889,82.5180549 289.443131,82.9820622 289.559719,83.4452871 C276.875027,86.0368423 264.058879,88.0165025 251.157441,89.3709657 C248.565103,81.414766 244.140993,74.340415 238.244266,68.6314818 C243.24506,55.8294181 247.539279,42.8927689 251.141009,29.8684825 C269.928219,41.9123285 283.373477,60.2942171 289.205258,82.0556126 Z M131.953726,114.576031 C126.976406,115.910932 121.776081,115.226267 117.312065,112.648797 C112.848831,110.072108 109.655553,105.91091 108.322217,100.932807 C106.988098,95.9547053 107.672763,90.7543805 110.249451,86.2911465 L118.654791,71.7316453 C128.964674,79.5759512 138.975651,87.987551 148.646252,96.9656622 L143.669715,105.5854 C141.093027,110.049417 136.931828,113.241912 131.953726,114.576031 L131.953726,114.576031 Z M175.897488,61.8818576 C166.463194,52.4968597 156.668962,43.683068 146.563305,35.4334405 C156.143139,27.7331099 167.320004,22.0390437 179.568076,18.7573461 C188.437423,16.3809713 197.45231,15.3856639 206.363911,15.7276052 C203.164374,28.8802174 199.261391,41.9569295 194.654182,54.9123581 C192.946823,55.1901366 191.242594,55.5539871 189.549319,56.0078223 C184.665114,57.3161195 180.081379,59.302822 175.897488,61.8818576 L175.897488,61.8818576 Z M181.481225,243.987907 C196.940572,243.962868 212.349058,243.035636 227.631566,241.233597 L197.728524,293.027142 C182.479663,294.758758 167.108736,295.624957 151.690078,295.587399 L181.481225,243.987907 Z M150.568792,374.710427 C145.249531,383.924063 133.42556,387.09152 124.211142,381.773041 C119.747908,379.196353 116.55463,375.035154 115.221293,370.057052 C113.887957,365.07895 114.57184,359.878625 117.148528,355.415391 L124.535869,342.62037 C139.38332,343.513956 154.224512,343.565599 168.989804,342.804251 L150.568792,374.710427 Z M257.426626,189.627063 C241.603428,192.53865 225.591655,194.503443 209.480507,195.491709 L242.949284,137.52131 C258.332731,136.061213 273.602719,133.715355 288.679436,130.500168 C286.691951,137.23336 283.897735,143.777193 280.301482,150.005689 L257.426626,189.627063 Z" fill="#000000" fill-rule="nonzero"></path>
    </g>
</svg>