<?xml version="1.0" encoding="UTF-8"?>
<svg width="400px" height="400px" viewBox="0 0 400 400" version="1.1" xmlns="http://www.w3.org/2000/svg" xmlns:xlink="http://www.w3.org/1999/xlink">
    <title>ghost</title>
    <g id="ghost" stroke="none" stroke-width="1" fill="none" fill-rule="evenodd">
        <path d="M356.687573,150.5 C353.020906,66 284.020906,0 199.520906,0 C115.020906,0 46.0209062,66 42.3542396,150.5 L33.0209062,367.833333 C32.6875729,376.666667 36.3542396,385.166667 43.0209062,390.833333 C49.8542396,396.666667 58.6875729,399 67.3542396,397.333333 L115.020906,387.666667 C122.35424,386.333333 129.687573,386.333333 136.85424,388 L182.687573,398.166667 C188.187573,399.333333 193.85424,400 199.520906,400 C205.187573,400 210.85424,399.333333 216.35424,398.166667 L262.187573,388 C269.35424,386.333333 276.687573,386.333333 284.020906,387.666667 L331.520906,397.333333 C340.35424,399 349.187573,396.666667 356.020906,390.833333 C362.687573,385.166667 366.35424,376.666667 366.020906,367.833333 L356.687573,150.5 Z M141.187573,233.333333 C117.85424,233.333333 99.5209062,207.666667 99.5209062,175 C99.5209062,142.333333 117.85424,116.666667 141.187573,116.666667 C164.520906,116.666667 182.85424,142.333333 182.85424,175 C182.85424,207.666667 164.520906,233.333333 141.187573,233.333333 Z M257.85424,233.333333 C234.520906,233.333333 216.187573,207.666667 216.187573,175 C216.187573,142.333333 234.520906,116.666667 257.85424,116.666667 C281.187573,116.666667 299.520906,142.333333 299.520906,175 C299.520906,207.666667 281.187573,233.333333 257.85424,233.333333 Z" fill="#000000" fill-rule="nonzero"></path>
    </g>
</svg>