<?xml version="1.0" encoding="UTF-8"?>
<svg width="400px" height="400px" viewBox="0 0 400 400" version="1.1" xmlns="http://www.w3.org/2000/svg" xmlns:xlink="http://www.w3.org/1999/xlink">
    <title>ghost2</title>
    <g id="ghost2" stroke="none" stroke-width="1" fill="none" fill-rule="evenodd">
        <path d="M199.805479,0 C283.746629,0 352.3333,65.685825 355.967693,149.560288 L365.587166,371.708415 C365.920596,379.444005 362.736334,386.746134 356.867956,391.780936 C350.982906,396.815738 343.247317,398.782978 335.695114,397.315884 L286.997577,387.563039 C278.9619,385.979244 270.842865,386.062602 262.890546,387.829784 L216.076892,398.232818 C210.758674,399.399825 205.290413,400 199.805479,400 C194.320546,400 188.852285,399.399825 183.534067,398.232818 L136.720413,387.829784 C128.73475,386.079273 120.632387,385.995915 112.59671,387.563039 L63.9158449,397.315884 C56.3469707,398.816321 48.6113811,396.832409 42.7430029,391.780936 C36.8746246,386.746134 33.6903625,379.444005 34.0237931,371.708415 L43.6432654,149.560288 C47.2776588,65.685825 115.86433,0 199.805479,0 Z M199.805479,16.6715292 C124.816941,16.6715292 63.5323998,75.355312 60.2981231,150.277164 L50.6786508,372.425291 C50.5619501,374.992706 51.6289279,377.443421 53.5794968,379.127245 C55.5467373,380.794398 58.1308243,381.511274 60.6482252,380.961114 L109.345762,371.208269 C114.23052,370.24132 119.165293,369.757846 124.066722,369.757846 C129.518312,369.757846 134.936559,370.358021 140.321463,371.5417 L187.151789,381.944734 C195.437539,383.795274 204.17342,383.795274 212.475842,381.944734 L259.289496,371.5417 C269.575829,369.274372 279.995535,369.157671 290.265197,371.208269 L338.979405,380.961114 C341.480135,381.477931 344.080893,380.777727 346.031462,379.127245 C347.982031,377.426749 349.049009,374.992706 348.932308,372.425291 L339.312836,150.277164 C336.078559,75.355312 274.794018,16.6715292 199.805479,16.6715292 Z M141.48847,116.65069 C164.878626,116.65069 183.200636,142.291502 183.200636,175.001042 C183.200636,207.710582 164.878626,233.351394 141.48847,233.351394 C118.098315,233.351394 99.7763042,207.710582 99.7763042,175.001042 C99.7763042,142.291502 118.098315,116.65069 141.48847,116.65069 Z M258.155832,116.65069 C281.545987,116.65069 299.867998,142.291502 299.867998,175.001042 C299.867998,207.710582 281.545987,233.351394 258.155832,233.351394 C234.765676,233.351394 216.443666,207.710582 216.443666,175.001042 C216.443666,142.291502 234.765676,116.65069 258.155832,116.65069 Z M141.48847,133.322219 C127.917846,133.322219 116.447833,152.41112 116.447833,175.001042 C116.447833,197.590964 127.917846,216.679865 141.48847,216.679865 C155.059095,216.679865 166.529107,197.590964 166.529107,175.001042 C166.529107,152.41112 155.059095,133.322219 141.48847,133.322219 Z M258.155832,133.322219 C244.585207,133.322219 233.115195,152.41112 233.115195,175.001042 C233.115195,197.590964 244.585207,216.679865 258.155832,216.679865 C271.726456,216.679865 283.196468,197.590964 283.196468,175.001042 C283.196468,152.41112 271.726456,133.322219 258.155832,133.322219 Z" fill="#000000" fill-rule="nonzero"></path>
    </g>
</svg>