<svg width="400" height="400" xmlns="http://www.w3.org/2000/svg"><g fill="#000" fill-rule="evenodd"><path d="M207.56 110.783a2 2 0 0 1 3.949.618l-.033.196-.286 1.528-.376 2.082c-.131.742-.269 1.531-.411 2.365l-.376 2.235a481.045 481.045 0 0 0-2.015 13.336c-1.524 11.126-2.633 22.066-3.153 32.294-.468 9.216-.437 17.523.164 24.695l.072.823c.927 10.195-.28 20.15-3.518 30.636-2.796 9.056-7.005 18.36-13.393 30.128l-1.255 2.291a704.852 704.852 0 0 1-3.638 6.427l-3.333 5.82-11.598 20.188c-.611 1.07-1.11 1.95-1.463 2.579-6.54 11.668-8.081 23.222-5.483 35.13 2.017 9.244 6.223 18.037 13.101 28.803l.854 1.323c.425.65.975 1.483 1.582 2.398l5.792 8.671.901 1.38c2.209 3.415 3.705 5.992 4.792 8.339l.14.305c4.807 10.65 4.807 17.964 1.622 22.441a8.66 8.66 0 0 1-1.626 1.745c-.37.297-.688.497-.924.615a2 2 0 0 1-1.928-3.501l.137-.076c-.008.005.071-.045.211-.158.286-.229.583-.54.87-.943 2.225-3.128 2.262-8.826-1.801-18.015l-.207-.462c-1.084-2.4-2.694-5.145-5.23-9.018l-6.58-9.862a280.277 280.277 0 0 1-1.38-2.103l-.113-.175c-7.397-11.47-11.936-20.839-14.121-30.854-2.757-12.636-1.181-24.993 5.566-37.332l1.233-2.193 13.402-23.34 2.823-4.937a488.735 488.735 0 0 0 3.243-5.754l.89-1.63c6.275-11.56 10.386-20.645 13.092-29.41 2.999-9.713 4.165-18.886 3.428-28.243l-.072-.851c-.688-7.566-.742-16.338-.247-26.083.527-10.353 1.647-21.403 3.185-32.633a481.009 481.009 0 0 1 2.41-15.702l.316-1.82.53-2.945.255-1.351Z" fill-rule="nonzero" opacity=".5"/><path d="M152.973.076c23.46 1.49 41.93 27.76 41.93 27.76C209.83 2.839 232.942.764 248.073.866c19.599.132 36.2 17.334 32.42 41.3-3.94 24.98-26.23 51.19-44.74 70.18-12.94 13.29-26.55 24.05-26.55 24.05l7.47 16.77h-22.36l4.48-14.16s-12.394-9.7-25.195-19.937l-1.372-1.099c-7.78-6.232-15.554-12.541-20.637-16.878l-.868-.744c-.84-.723-1.59-1.38-2.238-1.962-10.8-9.68-28.42-32.39-30.28-55.47-1.07-13.17 4.1-25.71 11.38-33.8 5.47-6.11 13.28-9.69 23.39-9.04ZM254.39 18.362c-9.568-9.568-27.265 0-27.265 4.777 0 4.79 12.92 6.704 12.92 6.704 8.129.475 8.129 15.784 21.524 15.308 13.394-.475 2.388-17.221-7.18-26.79Z"/><path d="M240.044 29.843s-12.92-1.913-12.92-6.704c0-4.777 17.698-14.345 27.266-4.777 9.567 9.568 20.573 26.314 7.179 26.79-13.395.475-13.395-14.834-21.525-15.309Z" opacity=".7"/></g></svg>