<svg width="400" height="400" xmlns="http://www.w3.org/2000/svg"><g fill="#000" fill-rule="evenodd"><path d="M201.333 197.93a1.839 1.839 0 0 0-2.39 1.025l-.265.7-.252.705c-.131.374-.27.781-.413 1.22a92.655 92.655 0 0 0-2 7.059c-3.889 16.01-4.313 32.928 1.092 49.073l-.1-.241 1.323 3.927c.473 1.393.986 2.89 1.559 4.553l4.333 12.544 1.272 3.716c4.774 14.04 7.632 23.471 9.252 31.154a82.42 82.42 0 0 1 .564 2.923l.067.393-.293-.212c-3.584-2.561-6.643-3.205-8.835-1.653l-.203.152c-1.853 1.464-2.427 4.206-1.959 7.321 1.009 6.71 5.895 12.053 11.567 9.778 2.137-.854 3.372-2.724 3.85-5.588l.057-.373.16.243c5.267 8.166 3.248 17.857-6.408 25.154l-.386.287c-15.76 11.56-22.81 38.64-10.426 46.9a1.839 1.839 0 0 0 2.04-3.059c-9.625-6.42-3.567-30.123 10.144-40.564l.418-.312c13.207-9.69 14.547-23.843 4.653-34.256l-.174-.182-.026-.263c-.202-2.052-.574-4.353-1.097-6.899l-.114-.549c-1.692-8.024-4.664-17.783-9.658-32.425l-6.09-17.663-2.2-6.45.1.24c-5.055-15.152-4.648-31.405-.909-46.801a90.512 90.512 0 0 1 1.702-6.106l.218-.672c.137-.415.267-.799.39-1.15l.376-1.037c.038-.1.067-.173.086-.22a1.839 1.839 0 0 0-1.025-2.391Zm6.991 119.924c.606-.48 2.1-.193 4.62 1.608a30.223 30.223 0 0 1 2.807 2.26l.243.224.015.34c.15 3.592-.424 5.73-1.611 6.316l-.113.051c-2.813 1.128-5.855-2.199-6.563-6.91-.293-1.949.017-3.427.602-3.89Z" fill-rule="nonzero" opacity=".5"/><path d="M306.767 57.94c-.258 4.02-.907 8.226-1.95 12.602-.146.625-.306 1.25-.477 1.864-2.244 7.833-6.866 16.55-12.97 25.573-3.25 4.805-6.915 9.697-10.875 14.625-7.123 8.876-15.14 17.74-23.195 26.063a520.847 520.847 0 0 1-10.972 11.046c-7.968 7.834-15.57 14.846-21.92 20.547-3.224 2.905-6.117 5.48-8.593 7.6-5.419 4.72-8.741 7.454-8.741 7.454l7.294 16.035h-23.844l5.345-17.016s-3.73-2.462-9.764-6.958c13.797-10.588 24.118-19.284 30.963-26.088 10.32-10.257 21.805-19.686 30.457-28.286 11.135-11.068 18.89-20.764 27.263-29.087 8.507-8.455 19.185-20.748 32.036-36.878-.017.299-.036.6-.057.904Zm-2.312-21.885-.287.358c-20.962 26.223-37.715 45.688-50.258 58.395-6.897 6.987-13.839 15.033-22.827 24.138-8.417 8.527-18.752 17.984-29.003 28.37-5.86 5.935-14.341 13.518-25.446 22.75a370.899 370.899 0 0 1-18.904-16.148 341.798 341.798 0 0 1-6.561-6.17c13.753-9.44 23.986-17.497 30.7-24.17 19.386-19.27 39.866-36.644 55.439-52.123 10.508-10.445 19.178-20.027 27.113-28.746.205.297.41.6.617.905l.359.53c3.244 4.797 6.946 10.105 15.407 9.805 12.92-.458 5.624-14.397-3.5-25.129a279.4 279.4 0 0 1 4.392-4.468c2.854-2.837 5.899-6.28 9.136-10.332 6.126 5.765 10.912 13.188 13.623 22.035ZM255.707 0c8.104.12 16.023 2.072 23.11 5.63-4.981 5.496-9.39 10.226-13.23 14.194-10.619-2.696-23.462 5.093-23.462 9.406 0 3.035 4.617 5.041 8.642 6.214-7.875 8.576-16.435 18.092-26.756 28.548-14.4 14.589-32.608 31.008-50.621 49.257-6.719 6.806-17.192 15.222-31.42 25.249l-.272-.286c-6.38-6.713-12.697-13.985-18.546-21.697 13.292-14.518 24.412-26.224 33.362-35.12 10.62-10.556 23.525-23.267 38.716-38.133a98.62 98.62 0 0 1 3.569 6.832l.008-.016c.206-.404 4.315-8.386 11.136-17.859 3.346-4.67 7.343-9.697 11.867-14.368 3.825-3.947 8.054-7.674 12.529-10.653 4.646-3.126 9.623-5.468 14.772-6.522A29.214 29.214 0 0 1 255.707 0ZM188.24 32.762c-16.029 14.567-30.594 26.292-41.107 36.943-8.792 8.907-19.44 20.758-31.943 35.553-5.82-8.87-10.85-18.201-14.563-27.834 13.328-16.91 24.944-30.285 34.846-40.128 9.98-9.92 19.48-18.467 28.5-25.642 8.733 4.803 17.1 11.815 24.267 21.108ZM149.575 5.776l-.657.49c-9.71 7.267-18.082 14.514-25.114 21.743-8.486 8.723-17.847 19.737-28.083 33.043a89.304 89.304 0 0 1-.526-2.683c-.895-5.027-1.287-9.698-1.177-14.025.307-14.245 5.676-24.874 13.927-31.641 5.05-4.205 11.193-6.927 17.947-8.177 7.39-1.384 15.5-.986 23.683 1.25Z"/><path d="m306.825 57.035-.461.578c-12.646 15.847-23.171 27.947-31.576 36.301-8.374 8.323-16.128 18.02-27.263 29.087-8.652 8.6-20.138 18.029-30.457 28.286-6.845 6.804-17.166 15.5-30.963 26.088a360.088 360.088 0 0 1-9.472-7.31c11.106-9.23 19.588-16.814 25.447-22.75 10.251-10.385 20.586-19.842 29.003-28.369 8.988-9.105 15.93-17.151 22.827-24.138 12.6-12.765 29.448-32.349 50.544-58.753 1.932 6.3 2.81 13.321 2.37 20.98Zm-56.059-21.591a50.593 50.593 0 0 0 5.11 1.188l.289.05c.3.051.468.076.468.076 3.474.203 5.626 2.819 7.788 5.952-7.935 8.718-16.605 18.3-27.113 28.745-15.573 15.48-36.053 32.854-55.44 52.123-6.712 6.673-16.945 14.73-30.698 24.17a314.538 314.538 0 0 1-8.738-8.767l-.461-.483c14.227-10.027 24.7-18.443 31.419-25.25C191.403 95 209.61 78.582 224.01 63.993c10.143-10.276 18.584-19.643 26.347-28.103Zm-55.535 7.816-.403.395c-15.016 14.697-27.788 27.277-38.314 37.74-8.95 8.896-20.07 20.602-33.36 35.12a201.103 201.103 0 0 1-7.964-11.256c12.505-14.796 23.152-26.647 31.944-35.554 10.514-10.652 25.082-22.379 41.107-36.942a92.165 92.165 0 0 1 6.99 10.497Zm-31.257-31.606-.41.327c-8.898 7.108-18.261 15.546-28.09 25.315-9.902 9.842-21.517 23.218-34.846 40.127a109.89 109.89 0 0 1-3.655-11.184 89.763 89.763 0 0 1-1.253-5.186c10.237-13.307 19.598-24.321 28.084-33.044 7.19-7.391 15.78-14.802 25.77-22.232 4.82 1.317 9.664 3.272 14.4 5.877Zm119.647-3.279a50.445 50.445 0 0 1 7.212 5.644c-3.238 4.052-6.283 7.496-9.137 10.333a282.258 282.258 0 0 0-4.391 4.468 84.152 84.152 0 0 0-4.563-4.955c-2.107-2.107-4.564-3.387-7.155-4.044 3.84-3.964 8.249-8.695 13.228-14.189a51.102 51.102 0 0 1 4.806 2.743Z" opacity=".8"/><path d="M256.633 36.758s-14.508-2.149-14.508-7.528c0-5.365 19.873-16.109 30.617-5.365 10.744 10.744 23.104 29.55 8.062 30.084-15.042.534-15.042-16.657-24.17-17.19Z" opacity=".7"/></g></svg>