<svg width="400" height="400" xmlns="http://www.w3.org/2000/svg"><g fill="#000" fill-rule="evenodd"><path d="m191.368 177.555.01-.069a2 2 0 0 1 3.972.451l-.037.287-.087.616c-.073.526-.153 1.13-.239 1.807l-.052.415c-.301 2.428-2.817 33.731.144 54.19l.125.852.129.848c.347 2.259.716 4.546 1.124 6.983l.567 3.333c.664 3.83 2.132 12.176 2.483 14.232l.36 2.144c.769 4.622 1.315 8.333 1.727 11.851 1.164 9.927 1.174 17.987-.19 25.791-1.44 8.243-4.448 16.168-9.375 24.392l-.467.772c-15.944 26.051-16.018 48.685-6.066 69.834a2 2 0 0 1-3.62 1.703c-10.436-22.18-10.396-45.917 5.78-72.81l.494-.816c4.947-8.08 7.918-15.77 9.315-23.763 1.248-7.147 1.278-14.585.258-23.745l-.102-.892c-.444-3.792-1.05-7.836-1.935-13.068l-2.812-16.157-.362-2.142c-.41-2.453-.782-4.757-1.133-7.034-.088-.576-.175-1.154-.259-1.735-2.942-20.331-.512-52.313-.231-54.631l.232-1.845.247-1.794Z" fill-rule="nonzero" opacity=".5"/><path d="M178.601 10.098c17.622 12.53 27.639 31.095 27.639 31.095C222.092 7.77 247.426-.121 270.145 4.13c6.337 1.175 12.12 3.733 16.866 7.685 7.742 6.36 12.8 16.348 13.076 29.735.104 4.066-.264 8.456-1.106 13.18a90.199 90.199 0 0 1-1.658 7.396c-8.653 32.361-40.53 61.935-62.87 82.396-19.32 17.684-35.84 28.583-35.84 28.583l5.034 15.99H181.24l6.854-15.08s-3.122-2.558-8.225-6.993c-1.044-.898-15.363-15.317-29.856-31.3l-1.048-1.158c-2.62-2.9-5.234-5.843-7.767-8.757-7.96-9.157-14.9-18.03-19.711-24.426l-.507-.675c-3.494-4.663-5.767-7.888-6.353-8.753-5.726-8.48-10.07-16.682-12.19-24.032a49.404 49.404 0 0 1-.449-1.763c-.967-4.101-1.578-8.053-1.831-11.832-1.498-21.417 7.891-37.627 21.75-46.578 7.731-4.977 16.844-7.73 26.234-7.869.545-.006 1.674-.165 3.357-.177h.399c4.895.034 14.017 1.374 26.704 10.396Zm91.141 13.767c-10.744-10.744-30.617 0-30.617 5.365 0 5.38 14.508 7.528 14.508 7.528 9.129.534 9.129 17.725 24.17 17.191 15.043-.534 2.683-19.34-8.06-30.084Z"/><path d="M253.633 36.758s-14.508-2.149-14.508-7.528c0-5.365 19.873-16.109 30.617-5.365 10.744 10.744 23.104 29.55 8.062 30.084-15.042.534-15.042-16.657-24.17-17.19Z" opacity=".7"/></g></svg>