<?xml version="1.0" encoding="UTF-8"?>
<svg width="400px" height="400px" viewBox="0 0 400 400" version="1.1" xmlns="http://www.w3.org/2000/svg" xmlns:xlink="http://www.w3.org/1999/xlink">
    <title>leaf1</title>
    <g id="leaf1" stroke="none" stroke-width="1" fill="none" fill-rule="evenodd">
        <path d="M243.249652,301.396024 L244.697248,303.616167 L245.811,305.298 L223.335531,386.334351 C223.335531,386.334351 191.749644,358.328939 172.348472,366.947056 C152.961177,375.565174 145.786351,384.183291 145.786351,384.183291 C145.786351,384.183291 133.573882,337.498352 80.4357631,359.758353 C80.4357631,359.758353 97.6719981,315.238351 78.9924713,294.407765 C78.9924713,294.407765 135.724942,297.294348 110.592235,271.439996 C85.4595288,245.585643 37.3451757,233.373174 37.3451757,233.373174 L38.0668216,200.343996 L11.4908233,177.36235 L15.085175,157.975055 L0,144.319294 L15.8068209,134.271762 L7.18870347,101.950352 L25.8543524,109.846824 L40.2178816,107.695764 L58.8835305,127.083059 L87.6105888,110.56847 C87.6105888,110.56847 108.441175,146.484231 123.52635,150.786351 C138.597648,155.102349 125.67741,103.393644 125.67741,103.393644 L117.059293,69.64282 L139.319294,71.7938799 L137.168234,40.1941158 L166.60306,5 L191.027998,38.7647018 L200.367762,66.7701141 L231.953648,64.6051764 C231.953648,64.6051764 231.946759,64.6298845 231.933354,64.6783812 L231.873966,64.894318 C230.622933,69.4617424 215.219235,126.720015 226.929882,134.993408 C239.142352,143.611526 275.765881,75.3882316 275.765881,75.3882316 C275.765881,75.3882316 283.662353,88.3084689 290.129411,84.0063491 C294.440782,81.1290173 295.877906,80.1699067 296.356947,79.8502032 L296.419071,79.8087429 C296.428408,79.8025118 296.437253,79.7966086 296.445633,79.7910161 L296.490532,79.7610515 C296.550121,79.7212827 296.576191,79.7038839 296.587597,79.6962719 L296.593235,79.692509 L296.59577,79.6908175 L296.596468,79.6903515 L298.693,66.063 L298.693705,66.1485116 C298.724803,71.2535475 301.545988,77.6482323 317.413177,72.5155258 C328.892898,68.7976616 333.548577,65.4016862 335.258943,62.8463002 L335.35,62.705 L335.352161,62.7784779 C335.553046,71.6652049 337.215696,90.4412101 347.583527,92.6244666 L347.548994,92.6945959 C347.073088,93.6693449 341.838115,104.656524 341.838115,116.313881 C341.838115,128.52635 368.400236,136.422822 368.400236,136.422822 C368.400236,136.422822 315.983763,175.197412 317.413177,187.409881 C318.856469,199.62235 350.456233,194.598584 350.456233,194.598584 L349.012941,203.216702 L400,208.962114 C400,208.962114 367.692468,220.452937 363.37647,230.500468 C359.07435,240.548 361.22541,254.203761 361.22541,254.203761 C361.22541,254.203761 322.450821,270.71835 319.578115,284.360233 C316.705409,298.002116 326.75294,307.34188 326.75294,307.34188 C326.75294,307.34188 273.828853,310.190454 253.08487,303.717272 L252.492564,302.837879 L250.7687,300.246795 L249.937112,298.982303 L248.830423,297.277275 L247.98529,295.953752 L248.033377,295.862025 C248.233011,295.426617 248.340636,294.953205 248.347308,294.471801 L248.341949,294.3356 L339.536024,229.010647 L339.736762,228.855897 C341.139217,227.677038 341.396946,225.64175 340.332845,224.168379 L340.177637,223.969065 L340.012034,223.78693 C338.818132,222.561207 336.915153,222.371675 335.510166,223.370777 L304.938417,245.273393 L312.159687,216.988569 L312.208929,216.762345 C312.526456,214.967603 311.41026,213.231866 309.660226,212.786103 C307.800205,212.31675 305.911808,213.432621 305.443842,215.287155 L296.826207,249.036077 L296.769075,249.308817 L296.735154,249.58031 C296.69574,250.031053 296.741477,250.472001 296.865565,250.887165 L296.911494,251.022968 L249.334212,285.11241 L249.363417,284.778967 C249.843075,279.435909 250.695301,273.585522 251.898119,267.275952 L252.337164,265.030058 C252.412753,264.65259 252.489546,264.273553 252.567538,263.892957 L253.049854,261.590745 C253.380948,260.043566 253.731094,258.471749 254.100005,256.875921 L254.667412,254.46425 C255.151919,252.439648 255.665525,250.378019 256.20767,248.280588 L256.871907,245.746565 L257.563326,243.178643 L258.281714,240.577292 C258.403681,240.140974 258.526762,239.703283 258.650954,239.264228 L259.409391,236.613616 L260.194259,233.930751 L260.791473,231.924988 C262.201003,227.226389 263.722462,222.39893 265.349517,217.453909 L265.844638,215.957916 L265.936556,215.975749 C266.657246,216.082492 267.410359,215.953717 268.082518,215.598615 L301.119011,197.636813 L301.329826,197.511544 C302.861116,196.515266 303.365051,194.534688 302.509347,192.93847 L302.387851,192.734764 C301.411316,191.215591 299.418577,190.6817 297.80906,191.544534 L268.768692,207.330084 L269.445666,205.382126 C274.471262,190.994166 280.195415,175.999905 286.406653,160.757466 L287.475974,158.140201 L305.470484,148.061029 L305.678831,147.933751 C307.19888,146.918501 307.678714,144.933101 306.79081,143.354605 L306.66755,143.151649 C305.677834,141.6388 303.679831,141.124308 302.084959,142.021423 L291.779482,147.791521 L293.113586,144.642012 L294.441159,141.526682 L296.417513,136.931004 L297.7218,133.925356 L299.65269,129.51539 L301.546187,125.237192 L302.783999,122.465799 L304.598319,118.441117 L305.776323,115.85286 C306.279886,114.741697 306.774158,113.660092 307.279176,112.562997 L309.757253,107.225203 L310.837691,104.939691 L311.198514,104.162534 C312.028468,102.450818 311.303601,100.383605 309.583509,99.5496303 C307.91037,98.7631917 305.946241,99.3946991 305.067436,100.975491 L304.959077,101.187026 L303.264259,104.766885 L301.861384,107.780357 L299.928218,111.982939 L298.343419,115.466046 L296.805445,118.87648 C296.547376,119.451223 296.288465,120.029088 296.028753,120.610004 L294.461211,124.131575 C294.198465,124.724422 293.935002,125.320182 293.670864,125.918785 L292.078273,129.543961 L290.471493,133.234021 L288.852531,136.985619 L287.223397,140.795407 L286.407383,142.715019 L280.562283,118.38612 L280.502607,118.166435 C279.956279,116.423667 278.165328,115.405917 276.399044,115.8186 L276.178911,115.879672 C274.446381,116.421354 273.409448,118.220061 273.842609,120.002685 L281.888769,153.52583 L281.974891,153.317752 C279.581311,159.120368 277.240949,164.925405 274.967411,170.710894 L273.72196,173.894309 C270.836499,181.305612 268.096039,188.599061 265.518767,195.749784 L265.118829,196.863442 L253.210096,159.084817 L253.129008,158.856356 C252.44903,157.16172 250.59833,156.284431 248.870814,156.827364 L248.65613,156.902562 C246.970658,157.555247 246.062577,159.416189 246.612779,161.16683 L261.295493,207.771398 L261.354,207.601 L260.753172,209.365016 C258.102273,217.182556 255.698306,224.727563 253.56199,231.969476 L253.160447,233.337656 C252.617728,235.196484 252.093706,237.030964 251.588609,238.840929 L250.845184,241.537468 C250.480596,242.876523 250.126717,244.20174 249.783642,245.513048 L249.111926,248.1171 C248.454671,250.702564 247.840887,253.232204 247.271338,255.705451 L246.716561,258.159879 C244.466666,268.308162 242.98915,277.474105 242.339273,285.616557 L242.26347,286.601499 L241.899453,285.980891 C226.336692,259.369176 212.908126,227.792512 201.483604,192.453968 L200.924262,190.71835 L201.211474,190.25283 C201.874733,189.105116 202.614166,187.688078 203.41252,186.034786 L203.954911,184.895637 L204.449244,183.835322 L204.961817,182.716853 L206.041082,180.307944 L206.897294,178.353237 L207.793026,176.273985 L208.727773,174.072291 L210.033916,170.949862 L211.761037,166.753557 L212.846779,164.083098 L214.351099,160.348722 L217.337648,152.802454 L220.136716,145.576684 L220.739559,143.969642 L220.954099,143.364501 L220.981867,143.374365 L221.050747,143.169162 C221.566632,141.413694 220.66637,139.578904 218.97381,138.938032 L218.759129,138.862619 C217.106639,138.34229 215.319698,139.144365 214.60026,140.726459 L214.538389,140.873434 L214.521228,140.886964 C214.459449,140.931596 214.476542,140.93424 214.508287,140.939149 L212.830035,145.29824 L211.352208,149.097013 L210.32519,151.715602 L208.738335,155.727382 L207.115533,159.785576 L205.508295,163.756837 L204.112147,167.161468 L202.692788,170.567023 L201.437776,173.528533 L200.558794,175.568302 L199.730682,177.457069 L198.951181,179.198844 L198.457403,180.280344 L197.983555,181.299483 L197.387718,179.341623 C194.053846,168.28842 190.944463,157.01623 188.056146,145.590802 L187.156091,141.998924 L187.219726,141.826148 L203.023385,95.1646509 L203.092739,94.9308026 C203.53982,93.1610676 202.563201,91.3489561 200.852764,90.7733282 L200.633775,90.7080477 C198.877957,90.2455962 197.046704,91.2090758 196.462708,92.9443775 L184.125178,129.378448 L183.807688,128.009677 C178.571536,105.280809 174.408298,83.1977676 171.195026,62.5079718 L170.591068,58.5620304 L170.162471,55.68187 L169.561018,51.5056545 L169.18639,48.813576 L168.831805,46.1919884 L168.496381,43.6381821 L168.179235,41.1494474 C168.127851,40.7399303 168.077192,40.3330117 168.02724,39.9286351 L167.802004,38.1495945 L167.527211,35.8449564 L167.341155,34.1989835 L167.221733,33.1099544 L167.182484,32.6726894 C166.991727,30.7651193 165.291948,29.3763407 163.383753,29.5671601 C161.48693,29.7585823 160.101586,31.4607304 160.292102,33.3658909 L160.271108,33.2778282 L160.262002,33.3372895 L160.327491,34.0498578 L160.689628,37.1377785 L161.479207,43.3299929 L162.181444,48.5793648 L162.819496,53.1818347 L163.086208,55.0584867 L163.527278,58.0968952 C163.675326,59.1024563 163.824054,60.0977171 163.972427,61.0735022 L164.354921,63.5655087 C167.581039,84.3900148 171.775424,106.648689 177.056908,129.556542 L177.419422,131.122888 L143.720678,104.280312 L143.517505,104.129763 C142.007467,103.106341 139.99298,103.40858 138.861338,104.819033 L138.714916,105.018196 C137.700458,106.505153 137.988036,108.551342 139.412413,109.694156 L180.036776,142.054436 L180.912077,145.579078 C183.730947,156.823348 186.753064,167.90332 189.988106,178.777325 L190.391007,180.121257 L143.157626,139.546333 L142.956371,139.386694 C141.478644,138.313741 139.447449,138.546577 138.278526,139.913065 L138.123493,140.107268 C137.045139,141.55979 137.253455,143.613891 138.649319,144.793728 L194.233772,192.543281 L194.864928,194.504747 C205.255749,226.66501 217.317298,255.803969 231.200933,281.120724 L231.986955,282.545016 L231.418718,282.264233 C227.647086,280.381808 223.478927,278.122559 218.960387,275.514536 L216.931212,274.334136 L215.940039,273.751128 L213.925053,272.553349 L211.866826,271.31346 L209.765694,270.031753 L207.621994,268.708519 L205.436062,267.344048 L203.208235,265.938632 C202.833458,265.701 202.456949,265.461674 202.078716,265.220661 L199.788677,263.754373 L197.457584,262.247868 L195.085772,260.701438 L192.67358,259.115372 L190.221342,257.489962 L187.729396,255.8255 L185.198078,254.122277 L182.912258,252.574506 L180.119031,200.917158 L180.098327,200.685561 C179.864779,198.869215 178.2877,197.553804 176.474021,197.652732 L176.247198,197.672476 C174.451003,197.887788 173.109928,199.464438 173.209926,201.297724 L175.708289,247.634008 L173.199053,245.895396 L169.461445,243.286447 L165.660996,240.613408 L161.798887,237.877295 L157.911829,235.104556 L155.965229,233.709181 L152.032486,230.876817 L148.047878,227.989751 C147.379512,227.504067 146.709027,227.016143 146.036445,226.525999 L141.975963,223.558645 L137.866181,220.538943 L133.708126,217.467835 L129.502825,214.346262 L127.639732,212.957534 L124.815676,167.050155 L124.795162,166.823438 C124.559838,165.004661 122.966462,163.689592 121.150812,163.805134 L120.924438,163.826846 C119.132345,164.057197 117.80697,165.632152 117.906869,167.463633 L120.374701,207.518822 L118.255467,205.925468 C108.265793,198.40208 98.0716489,190.610967 87.7659369,182.635768 L84.6074316,180.189259 L84.6041497,179.979314 C84.5904625,179.774857 84.5587389,179.571835 84.508998,179.372872 L74.4460783,140.578474 L74.3751093,140.343925 C73.7772955,138.623454 71.9863709,137.652764 70.2323372,138.09537 L70.012739,138.160436 C68.2855479,138.733414 67.2790998,140.547476 67.7467038,142.317692 L75.779,173.319 L73.01486,171.15927 C71.5581061,170.019579 70.1036581,168.879896 68.6516821,167.740401 L63.3735087,163.587421 L56.507816,158.161614 L49.8556459,152.878509 L45.017863,149.019854 L38.7842391,144.026577 L28.6866343,135.883365 L25.1678123,133.025456 C23.6963641,131.813656 21.5075996,132.034688 20.3057327,133.515249 C19.1435004,134.926505 19.2896657,136.989258 20.6079863,138.226878 L20.9581839,138.536597 L23.2111742,140.393731 L32.2595158,147.68491 L42.0661809,155.519171 L51.92922,163.354238 L62.6478788,171.818331 L66.1019458,174.532778 L70.1356556,177.692641 L47.0979273,179.654688 L46.870111,179.68165 C45.0638294,179.967096 43.7892312,181.595578 43.953861,183.406506 L43.9798692,183.631272 C44.2453372,185.410164 45.8722248,186.713509 47.6920233,186.546555 L78.165,183.951 L81.1906867,186.299587 C90.8999223,193.82614 100.541809,201.214552 110.034996,208.391522 L113.537106,211.03407 L69.4775532,213.348454 L69.2448702,213.369216 C67.4322656,213.602278 66.1154511,215.174463 66.19785,216.987238 L66.21763,217.214786 C66.4332203,219.01654 68.0098708,220.357615 69.8431562,220.257618 L122.17604,217.515005 L125.720567,220.157195 L129.427754,222.908829 C130.042518,223.364151 130.655722,223.817823 131.267353,224.269831 L134.91815,226.961826 L138.530524,229.613301 L142.10381,232.223648 L145.637344,234.792261 L149.130461,237.318532 L152.582496,239.801853 L155.992786,242.241617 L159.360666,244.637216 L162.685472,246.988042 L165.966538,249.293488 C166.5097,249.673914 167.051013,250.052423 167.590461,250.429004 L169.195434,251.546161 L121.115884,255.107713 L120.885838,255.13247 C119.069898,255.398445 117.775905,256.99429 117.907667,258.806013 L117.933562,259.033422 C118.196864,260.833057 119.792275,262.148057 121.619912,262.015138 L178.288173,257.809215 L181.056614,259.688464 L183.803968,261.537796 L186.336651,263.228237 L188.827247,264.877994 L191.275737,266.486967 L193.682102,268.055057 L196.046324,269.582164 L198.368383,271.06819 L200.648261,272.513035 L202.885938,273.916599 L205.081395,275.278784 L207.234614,276.599489 C207.589963,276.816144 207.943551,277.031067 208.295378,277.244256 L210.385204,278.502556 C210.729985,278.708798 211.073004,278.913302 211.414261,279.116064 L213.44065,280.311736 C213.774856,280.507528 214.107299,280.701574 214.437979,280.893874 L215.410199,281.457202 C216.031507,281.815878 216.645705,282.167875 217.252836,282.513197 L219.053077,283.529145 L220.811181,284.505076 C221.100702,284.664397 221.388478,284.822053 221.674515,284.978043 L223.369909,285.894002 L225.023825,286.770015 C225.296035,286.91269 225.566529,287.053702 225.83531,287.193051 L227.4275,288.009201 L228.978867,288.785478 C229.489214,289.037594 229.992802,289.28307 230.489674,289.521911 L231.960183,290.218528 C233.894115,291.120821 235.721286,291.917017 237.444499,292.607426 L237.887798,292.782674 L238.032127,293.02276 L175.984457,313.371786 L175.934295,313.290469 C175.558375,312.736508 175.024949,312.298798 174.383623,312.04101 L126.981063,292.64147 L126.748782,292.557554 C125.01279,292.009713 123.160507,292.867759 122.469315,294.529913 L122.383877,294.765736 L122.319912,294.993677 C121.908555,296.668663 122.759215,298.401547 124.358499,299.060076 L166.755716,316.398536 L110.237192,334.937765 L110.010757,335.020441 C108.320193,335.716182 107.456548,337.580007 108.017559,339.296041 L108.104124,339.528175 C108.813233,341.217674 110.663931,342.075216 112.388066,341.516925 L201.289248,312.355931 L185.119559,341.5755 L185.009866,341.792554 C184.254604,343.452255 184.894203,345.407787 186.473776,346.279842 C188.15617,347.199096 190.256402,346.593672 191.177493,344.925281 L209.856668,311.175094 L209.986157,310.912308 L210.088971,310.649286 C210.21158,310.296679 210.276424,309.93714 210.285201,309.579162 L210.282066,309.406897 L241.76942,299.079034 L241.480221,298.622625 C242.067353,299.553999 242.657161,300.478479 243.249652,301.396024 Z M299.469174,61.0247025 L298.693,66.063 L298.694213,65.913857 C298.716752,63.7331649 299.227747,61.828373 299.407396,61.2240043 L299.440522,61.1147746 C299.458827,61.0557222 299.469174,61.0247025 299.469174,61.0247025 L299.469174,61.0247025 Z M335.371058,58.1519967 C335.371058,58.1519967 337.11975,59.8969365 335.364153,62.6843371 L335.35,62.705 L335.344974,62.4328828 C335.334206,61.8656527 335.329353,61.342734 335.328351,60.8716677 L335.328866,60.3317599 C335.334465,58.9609506 335.371058,58.1519967 335.371058,58.1519967 Z" id="Fill-2526" fill="#000000"></path>
        <path d="M246.612779,161.16683 C246.062577,159.416189 246.970658,157.555247 248.65613,156.902562 L248.65613,156.902562 L248.870814,156.827364 C250.59833,156.284431 252.44903,157.16172 253.129008,158.856356 L253.129008,158.856356 L253.210096,159.084817 L265.118829,196.863442 L265.518767,195.749784 C268.096039,188.599061 270.836499,181.305612 273.72196,173.894309 L273.72196,173.894309 L274.967411,170.710894 C277.240949,164.925405 279.581311,159.120368 281.974891,153.317752 L281.974891,153.317752 L281.888769,153.52583 L273.842609,120.002685 C273.409448,118.220061 274.446381,116.421354 276.178911,115.879672 L276.178911,115.879672 L276.399044,115.8186 C278.165328,115.405917 279.956279,116.423667 280.502607,118.166435 L280.502607,118.166435 L280.562283,118.38612 L286.407383,142.715019 L287.223397,140.795407 L288.852531,136.985619 L290.471493,133.234021 L292.078273,129.543961 L293.670864,125.918785 C293.935002,125.320182 294.198465,124.724422 294.461211,124.131575 L294.461211,124.131575 L296.028753,120.610004 C296.288465,120.029088 296.547376,119.451223 296.805445,118.87648 L296.805445,118.87648 L298.343419,115.466046 L299.928218,111.982939 L301.861384,107.780357 L303.264259,104.766885 L304.959077,101.187026 L305.067436,100.975491 C305.946241,99.3946991 307.91037,98.7631917 309.583509,99.5496303 C311.303601,100.383605 312.028468,102.450818 311.198514,104.162534 L311.198514,104.162534 L310.837691,104.939691 L309.757253,107.225203 L307.279176,112.562997 C306.774158,113.660092 306.279886,114.741697 305.776323,115.85286 L305.776323,115.85286 L304.598319,118.441117 L302.783999,122.465799 L301.546187,125.237192 L299.65269,129.51539 L297.7218,133.925356 L296.417513,136.931004 L294.441159,141.526682 L293.113586,144.642012 L291.779482,147.791521 L302.084959,142.021423 C303.679831,141.124308 305.677834,141.6388 306.66755,143.151649 L306.66755,143.151649 L306.79081,143.354605 C307.678714,144.933101 307.19888,146.918501 305.678831,147.933751 L305.678831,147.933751 L305.470484,148.061029 L287.475974,158.140201 L286.406653,160.757466 C280.195415,175.999905 274.471262,190.994166 269.445666,205.382126 L269.445666,205.382126 L268.768692,207.330084 L297.80906,191.544534 C299.418577,190.6817 301.411316,191.215591 302.387851,192.734764 L302.387851,192.734764 L302.509347,192.93847 C303.365051,194.534688 302.861116,196.515266 301.329826,197.511544 L301.329826,197.511544 L301.119011,197.636813 L268.082518,215.598615 C267.410359,215.953717 266.657246,216.082492 265.936556,215.975749 L265.936556,215.975749 L265.844638,215.957916 L265.349517,217.453909 C263.722462,222.39893 262.201003,227.226389 260.791473,231.924988 L260.791473,231.924988 L260.194259,233.930751 L259.409391,236.613616 L258.650954,239.264228 C258.526762,239.703283 258.403681,240.140974 258.281714,240.577292 L258.281714,240.577292 L257.563326,243.178643 L256.871907,245.746565 L256.20767,248.280588 C255.665525,250.378019 255.151919,252.439648 254.667412,254.46425 L254.667412,254.46425 L254.100005,256.875921 C253.731094,258.471749 253.380948,260.043566 253.049854,261.590745 L253.049854,261.590745 L252.567538,263.892957 C252.489546,264.273553 252.412753,264.65259 252.337164,265.030058 L252.337164,265.030058 L251.898119,267.275952 C250.695301,273.585522 249.843075,279.435909 249.363417,284.778967 L249.363417,284.778967 L249.334212,285.11241 L296.911494,251.022968 L296.865565,250.887165 C296.741477,250.472001 296.69574,250.031053 296.735154,249.58031 L296.735154,249.58031 L296.769075,249.308817 L296.826207,249.036077 L305.443842,215.287155 C305.911808,213.432621 307.800205,212.31675 309.660226,212.786103 C311.41026,213.231866 312.526456,214.967603 312.208929,216.762345 L312.208929,216.762345 L312.159687,216.988569 L304.938417,245.273393 L335.510166,223.370777 C336.915153,222.371675 338.818132,222.561207 340.012034,223.78693 L340.012034,223.78693 L340.177637,223.969065 L340.332845,224.168379 C341.396946,225.64175 341.139217,227.677038 339.736762,228.855897 L339.736762,228.855897 L339.536024,229.010647 L248.341949,294.3356 L248.347308,294.471801 C248.340636,294.953205 248.233011,295.426617 248.033377,295.862025 L248.033377,295.862025 L247.98529,295.953752 L248.830423,297.277275 L249.937112,298.982303 L250.7687,300.246795 L252.492564,302.837879 L253.083854,303.716955 C250.526548,302.918867 248.45838,301.979091 247.038823,300.874822 L245.811065,305.29863 L244.697248,303.616167 L243.249652,301.396024 C242.657161,300.478479 242.067353,299.553999 241.480221,298.622625 L241.76942,299.079034 L210.282066,309.406897 L210.285201,309.579162 C210.276424,309.93714 210.21158,310.296679 210.088971,310.649286 L210.088971,310.649286 L209.986157,310.912308 L209.856668,311.175094 L191.177493,344.925281 C190.256402,346.593672 188.15617,347.199096 186.473776,346.279842 C184.894203,345.407787 184.254604,343.452255 185.009866,341.792554 L185.009866,341.792554 L185.119559,341.5755 L201.289248,312.355931 L112.388066,341.516925 C110.663931,342.075216 108.813233,341.217674 108.104124,339.528175 L108.104124,339.528175 L108.017559,339.296041 C107.456548,337.580007 108.320193,335.716182 110.010757,335.020441 L110.010757,335.020441 L110.237192,334.937765 L166.755716,316.398536 L124.358499,299.060076 C122.759215,298.401547 121.908555,296.668663 122.319912,294.993677 L122.319912,294.993677 L122.383877,294.765736 L122.469315,294.529913 C123.160507,292.867759 125.01279,292.009713 126.748782,292.557554 L126.748782,292.557554 L126.981063,292.64147 L174.383623,312.04101 C175.024949,312.298798 175.558375,312.736508 175.934295,313.290469 L175.934295,313.290469 L175.984457,313.371786 L238.032127,293.02276 L237.887798,292.782674 L237.444499,292.607426 C235.721286,291.917017 233.894115,291.120821 231.960183,290.218528 L231.960183,290.218528 L230.489674,289.521911 C229.992802,289.28307 229.489214,289.037594 228.978867,288.785478 L228.978867,288.785478 L227.4275,288.009201 L225.83531,287.193051 C225.566529,287.053702 225.296035,286.91269 225.023825,286.770015 L225.023825,286.770015 L223.369909,285.894002 L221.674515,284.978043 C221.388478,284.822053 221.100702,284.664397 220.811181,284.505076 L220.811181,284.505076 L219.053077,283.529145 L217.252836,282.513197 C216.645705,282.167875 216.031507,281.815878 215.410199,281.457202 L215.410199,281.457202 L214.437979,280.893874 C214.107299,280.701574 213.774856,280.507528 213.44065,280.311736 L213.44065,280.311736 L211.414261,279.116064 C211.073004,278.913302 210.729985,278.708798 210.385204,278.502556 L210.385204,278.502556 L208.295378,277.244256 C207.943551,277.031067 207.589963,276.816144 207.234614,276.599489 L207.234614,276.599489 L205.081395,275.278784 L202.885938,273.916599 L200.648261,272.513035 L198.368383,271.06819 L196.046324,269.582164 L193.682102,268.055057 L191.275737,266.486967 L188.827247,264.877994 L186.336651,263.228237 L183.803968,261.537796 L181.056614,259.688464 L178.288173,257.809215 L121.619912,262.015138 C119.792275,262.148057 118.196864,260.833057 117.933562,259.033422 L117.933562,259.033422 L117.907667,258.806013 C117.775905,256.99429 119.069898,255.398445 120.885838,255.13247 L120.885838,255.13247 L121.115884,255.107713 L169.195434,251.546161 L167.590461,250.429004 C167.051013,250.052423 166.5097,249.673914 165.966538,249.293488 L165.966538,249.293488 L162.685472,246.988042 L159.360666,244.637216 L155.992786,242.241617 L152.582496,239.801853 L149.130461,237.318532 L145.637344,234.792261 L142.10381,232.223648 L138.530524,229.613301 L134.91815,226.961826 L131.267353,224.269831 C130.655722,223.817823 130.042518,223.364151 129.427754,222.908829 L129.427754,222.908829 L125.720567,220.157195 L122.17604,217.515005 L69.8431562,220.257618 C68.0098708,220.357615 66.4332203,219.01654 66.21763,217.214786 L66.21763,217.214786 L66.19785,216.987238 C66.1154511,215.174463 67.4322656,213.602278 69.2448702,213.369216 L69.2448702,213.369216 L69.4775532,213.348454 L113.537106,211.03407 L110.034996,208.391522 C99.4870107,200.41711 88.7554449,192.18166 77.9518921,183.78572 L78.1640651,183.95063 L47.6920233,186.546555 C45.9349764,186.707752 44.3577657,185.498302 44.01214,183.813558 L43.9798692,183.631272 L43.953861,183.406506 C43.7892312,181.595578 45.0638294,179.967096 46.870111,179.68165 L46.870111,179.68165 L47.0979273,179.654688 L70.1356556,177.692641 L66.1019458,174.532778 L62.6478788,171.818331 L51.92922,163.354238 L42.0661809,155.519171 L32.2595158,147.68491 L23.2111742,140.393731 L20.9581839,138.536597 L20.6079863,138.226878 C19.2896657,136.989258 19.1435004,134.926505 20.3057327,133.515249 C21.5075996,132.034688 23.6963641,131.813656 25.1678123,133.025456 L25.1678123,133.025456 L28.6866343,135.883365 L38.7842391,144.026577 L45.017863,149.019854 L49.8556459,152.878509 L56.507816,158.161614 L63.3735087,163.587421 L68.6516821,167.740401 C71.5556341,170.019392 74.4694739,172.299132 77.3918733,174.578187 L75.7790651,173.31863 L67.7467038,142.317692 C67.2952241,140.608518 68.2178904,138.858469 69.8366659,138.224084 L70.012739,138.160436 L70.2323372,138.09537 C71.9863709,137.652764 73.7772955,138.623454 74.3751093,140.343925 L74.3751093,140.343925 L74.4460783,140.578474 L84.508998,179.372872 C84.5587389,179.571835 84.5904625,179.774857 84.6041497,179.979314 L84.6041497,179.979314 L84.6074316,180.189259 L87.7659369,182.635768 C98.0716489,190.610967 108.265793,198.40208 118.255467,205.925468 L118.255467,205.925468 L120.374701,207.518822 L117.906869,167.463633 C117.80697,165.632152 119.132345,164.057197 120.924438,163.826846 L120.924438,163.826846 L121.150812,163.805134 C122.966462,163.689592 124.559838,165.004661 124.795162,166.823438 L124.795162,166.823438 L124.815676,167.050155 L127.639732,212.957534 L129.502825,214.346262 L133.708126,217.467835 L137.866181,220.538943 L141.975963,223.558645 L146.036445,226.525999 C146.709027,227.016143 147.379512,227.504067 148.047878,227.989751 L148.047878,227.989751 L152.032486,230.876817 L155.965229,233.709181 L157.911829,235.104556 L161.798887,237.877295 L165.660996,240.613408 L169.461445,243.286447 L173.199053,245.895396 L175.708289,247.634008 L173.209926,201.297724 C173.109928,199.464438 174.451003,197.887788 176.247198,197.672476 L176.247198,197.672476 L176.474021,197.652732 C178.2877,197.553804 179.864779,198.869215 180.098327,200.685561 L180.098327,200.685561 L180.119031,200.917158 L182.912258,252.574506 L185.198078,254.122277 L187.729396,255.8255 L190.221342,257.489962 L192.67358,259.115372 L195.085772,260.701438 L197.457584,262.247868 L199.788677,263.754373 L202.078716,265.220661 C202.456949,265.461674 202.833458,265.701 203.208235,265.938632 L203.208235,265.938632 L205.436062,267.344048 L207.621994,268.708519 L209.765694,270.031753 L211.866826,271.31346 L213.925053,272.553349 L215.940039,273.751128 L216.931212,274.334136 L218.960387,275.514536 C223.478927,278.122559 227.647086,280.381808 231.418718,282.264233 L231.418718,282.264233 L231.986955,282.545016 L231.200933,281.120724 C217.317298,255.803969 205.255749,226.66501 194.864928,194.504747 L194.864928,194.504747 L194.233772,192.543281 L138.649319,144.793728 C137.253455,143.613891 137.045139,141.55979 138.123493,140.107268 L138.123493,140.107268 L138.278526,139.913065 C139.447449,138.546577 141.478644,138.313741 142.956371,139.386694 L142.956371,139.386694 L143.157626,139.546333 L190.391007,180.121257 L189.988106,178.777325 C186.753064,167.90332 183.730947,156.823348 180.912077,145.579078 L180.912077,145.579078 L180.036776,142.054436 L139.412413,109.694156 C137.988036,108.551342 137.700458,106.505153 138.714916,105.018196 L138.714916,105.018196 L138.861338,104.819033 C139.99298,103.40858 142.007467,103.106341 143.517505,104.129763 L143.517505,104.129763 L143.720678,104.280312 L177.419422,131.122888 L177.056908,129.556542 C171.775424,106.648689 167.581039,84.3900148 164.354921,63.5655087 L164.354921,63.5655087 L163.972427,61.0735022 C163.824054,60.0977171 163.675326,59.1024563 163.527278,58.0968952 L163.527278,58.0968952 L163.086208,55.0584867 L162.819496,53.1818347 L162.181444,48.5793648 L161.479207,43.3299929 L160.689628,37.1377785 L160.327491,34.0498578 L160.262002,33.3372895 L160.271108,33.2778282 L160.292102,33.3658909 C160.101586,31.4607304 161.48693,29.7585823 163.383753,29.5671601 C165.291948,29.3763407 166.991727,30.7651193 167.182484,32.6726894 L167.182484,32.6726894 L167.221733,33.1099544 L167.341155,34.1989835 L167.527211,35.8449564 L167.802004,38.1495945 L168.02724,39.9286351 C168.077192,40.3330117 168.127851,40.7399303 168.179235,41.1494474 L168.179235,41.1494474 L168.496381,43.6381821 L168.831805,46.1919884 L169.18639,48.813576 L169.561018,51.5056545 L170.162471,55.68187 L170.591068,58.5620304 L171.195026,62.5079718 C174.408298,83.1977676 178.571536,105.280809 183.807688,128.009677 L183.807688,128.009677 L184.125178,129.378448 L196.462708,92.9443775 C197.046704,91.2090758 198.877957,90.2455962 200.633775,90.7080477 L200.633775,90.7080477 L200.852764,90.7733282 C202.563201,91.3489561 203.53982,93.1610676 203.092739,94.9308026 L203.092739,94.9308026 L203.023385,95.1646509 L187.219726,141.826148 L187.156091,141.998924 L188.056146,145.590802 C190.944463,157.01623 194.053846,168.28842 197.387718,179.341623 L197.387718,179.341623 L197.983555,181.299483 L198.457403,180.280344 L198.951181,179.198844 L199.730682,177.457069 L200.558794,175.568302 L201.437776,173.528533 L202.692788,170.567023 L204.112147,167.161468 L205.508295,163.756837 L207.115533,159.785576 L208.738335,155.727382 L210.32519,151.715602 L211.352208,149.097013 L212.830035,145.29824 L214.508287,140.939149 C214.476542,140.93424 214.459449,140.931596 214.521228,140.886964 L214.521228,140.886964 L214.538389,140.873434 L214.60026,140.726459 C215.319698,139.144365 217.106639,138.34229 218.759129,138.862619 L218.759129,138.862619 L218.97381,138.938032 C220.66637,139.578904 221.566632,141.413694 221.050747,143.169162 L221.050747,143.169162 L220.981867,143.374365 L220.954099,143.364501 L220.739559,143.969642 L220.136716,145.576684 L217.337648,152.802454 L214.351099,160.348722 L212.846779,164.083098 L211.761037,166.753557 L210.033916,170.949862 L208.727773,174.072291 L207.793026,176.273985 L206.897294,178.353237 L206.041082,180.307944 L204.961817,182.716853 L204.449244,183.835322 L203.954911,184.895637 L203.41252,186.034786 C202.614166,187.688078 201.874733,189.105116 201.211474,190.25283 L201.211474,190.25283 L200.924262,190.71835 L201.483604,192.453968 C212.908126,227.792512 226.336692,259.369176 241.899453,285.980891 L241.899453,285.980891 L242.26347,286.601499 L242.339273,285.616557 C242.98915,277.474105 244.466666,268.308162 246.716561,258.159879 L246.716561,258.159879 L247.271338,255.705451 C247.840887,253.232204 248.454671,250.702564 249.111926,248.1171 L249.111926,248.1171 L249.783642,245.513048 C250.126717,244.20174 250.480596,242.876523 250.845184,241.537468 L250.845184,241.537468 L251.588609,238.840929 C252.093706,237.030964 252.617728,235.196484 253.160447,233.337656 L253.160447,233.337656 L253.56199,231.969476 C255.862638,224.170493 258.473697,216.019993 261.369292,207.556144 L261.295493,207.771398 Z" id="Path-2" fill="#000000" fill-rule="nonzero" opacity="0.7"></path>
        <path d="M247.038823,300.874822 C248.45838,301.979091 250.526548,302.918867 253.083854,303.716955 L255.864981,307.843288 L260.835772,315.143772 L269.857692,328.27943 L283.631694,348.19625 L294.799991,364.288474 L306.445824,381.01546 L313.792591,391.532138 C314.883248,393.107532 314.503202,395.259344 312.939987,396.353594 C311.37693,397.447734 309.209574,397.065892 308.115159,395.502443 L308.115159,395.502443 L285.852955,363.541768 L270.174031,340.932761 L259.745168,325.806366 L255.1024,319.031931 L248.984057,310.03176 L245.966191,305.532715 L245.811065,305.297822 Z" id="Path-2-Copy" fill="#000000" fill-rule="nonzero"></path>
    </g>
</svg>