<?xml version="1.0" encoding="UTF-8"?>
<svg width="400px" height="400px" viewBox="0 0 400 400" version="1.1" xmlns="http://www.w3.org/2000/svg" xmlns:xlink="http://www.w3.org/1999/xlink">
    <title>leaf4</title>
    <g id="leaf4" stroke="none" stroke-width="1" fill="none" fill-rule="evenodd">
        <path d="M149.923761,99.1985625 C154.137634,119.072948 170.867339,93.9154979 184.508967,68.7580473 C198.09399,43.6634903 223.25773,45.73898 234.830157,69.8272389 C246.339691,93.9154979 230.616284,148.444272 249.484372,150.519762 C268.35246,152.595251 297.66089,88.6953269 318.604468,102.343244 C339.60465,115.928267 312.315105,184.042065 329.107703,201.840961 C345.900302,219.702751 394.07682,171.463339 399.296991,196.62079 C403.361947,215.977723 385.812253,250.824243 377.503337,265.864217 C372.249805,262.230447 365.130324,257.727075 356.466431,252.47033 C343.991267,244.953244 328.325885,235.94273 310.795265,226.101377 L310.795265,226.101377 L302.641665,164.574888 L302.608198,164.356326 C302.11782,161.53685 299.48681,159.581021 296.623145,159.953806 C293.694404,160.335062 291.629259,163.018345 292.010516,165.947086 C292.011017,165.950934 292.011522,165.954782 292.012031,165.958628 L292.012031,165.958628 L299.110563,219.571642 C279.960698,208.915773 259.079797,197.506119 237.991377,186.104557 L237.991377,186.104557 L232.288174,183.023974 C220.192088,176.496292 208.072937,169.993793 196.217208,163.659742 L196.217208,163.659742 L198.068893,118.412568 L198.073474,118.196116 C198.077405,115.321868 195.808988,112.933641 192.911555,112.815033 C189.940293,112.693402 187.431768,115.000886 187.30534,117.971948 L187.30534,117.971948 L185.601267,157.995313 L185.601267,157.995313 L185.26369,157.815422 C175.403797,152.570474 165.797384,147.476077 156.619222,142.620129 L156.619222,142.620129 L134.892387,86.5568651 L134.805547,86.3458883 C133.655411,83.7089212 130.618588,82.4259626 127.910992,83.4751559 C125.136571,84.5502439 123.75899,87.6708873 124.837165,90.4532563 L124.837165,90.4532563 L142.174518,134.987417 C101.790141,113.674479 72.7532818,98.5696262 72.7532818,98.5696262 C66.2510939,96.1898754 62.3333333,96.3333333 61,99 C59.6666667,101.666667 61.9282284,104.709819 67.7846853,108.129457 C67.7896505,108.129457 67.8262175,108.146396 67.8938046,108.17989 L67.8938046,108.17989 L67.9897614,108.228005 L67.9897614,108.228005 L68.1211421,108.294868 C69.2506847,108.87256 73.1855007,110.942108 79.4137168,114.167246 C88.5396415,118.95055 102.561464,126.291355 119.659244,135.289161 L119.659244,135.289161 L89.7837764,148.64465 L89.5784261,148.741593 C87.0149268,150.017524 85.8879497,153.097443 87.0584371,155.739933 C88.2496114,158.429125 91.3952701,159.643509 94.0844625,158.452334 L94.0844625,158.452334 L94.120755,158.436096 L131.517046,141.535721 C152.677844,152.694601 177.37971,165.784621 202.844147,179.430993 L202.844147,179.430993 L150.079623,198.157811 L149.86719,198.238202 C147.210148,199.307389 145.845741,202.291993 146.810527,205.017089 C147.795052,207.797941 150.847494,209.254152 153.628346,208.269627 L153.628346,208.269627 L153.656001,208.25975 L215.227736,186.079382 C217.036549,187.052299 218.846925,188.02688 220.657888,189.002642 L220.657888,189.002642 L224.457134,191.050993 C227.623334,192.759121 230.789242,194.469828 233.949647,196.180535 C249.397035,204.533794 264.709461,212.872058 279.279175,220.902434 L279.279175,220.902434 L229.227833,234.05558 L229.013771,234.11648 C226.259671,234.960622 224.635781,237.83249 225.364666,240.646329 C226.111711,243.530267 229.053769,245.26387 231.938517,244.519961 L231.938517,244.519961 L293.338499,228.685652 C303.436023,234.302243 313.044853,239.709286 321.93783,244.797308 C324.140251,246.051161 326.297309,247.284223 328.406054,248.495183 L328.406054,248.495183 L273.763183,267.318648 L273.549525,267.397247 C270.876593,268.444191 269.482356,271.423717 270.426081,274.163215 C270.426703,274.165021 270.427326,274.166826 270.42795,274.168631 C271.395243,276.966873 274.447812,278.45115 277.246054,277.483856 C277.255268,277.480671 277.264474,277.477461 277.273671,277.474225 L277.273671,277.474225 L340.201749,255.336526 C345.569889,258.485396 350.510176,261.439125 354.956984,264.168545 C363.413345,269.336321 370.109594,273.681615 374.241927,276.743648 C374.757317,308.409736 371.293367,361.990609 341.686429,359.012134 C299.73638,354.861154 327.032214,279.388802 297.66089,285.678165 C268.35246,291.967528 270.42795,384.169584 238.974847,350.647281 C207.528034,317.124978 233.754676,254.231352 206.528025,250.080373 C179.295085,245.8665 151.999251,303.477061 131.055674,275.237823 C110.112096,246.935691 134.194065,201.840961 116.401459,193.476109 C109.640495,190.298695 98.941064,193.773118 87.9846607,197.75321 L86.9405345,198.133598 C86.4182008,198.324361 85.8955493,198.515827 85.3729777,198.707334 L83.6403997,199.341827 L82.6543282,199.701558 C66.5618527,205.558247 51.2036486,210.354871 48.287661,194.5453 C43.06749,166.243168 69.2312387,133.727163 48.287661,126.431503 C27.3440834,119.072948 -9.32290085,94.9846895 2.1866328,64.6070679 C2.93282253,62.6376163 3.77153699,60.9586923 4.68764257,59.5409029 C9.91960933,50.0345607 22.8655601,31.8264127 38.8536171,47.8144696 C59.7971947,68.7580473 74.5143033,85.5506455 74.5143033,85.5506455 C109.036615,94.9846895 100.678052,57.2485136 118.470659,42.5942986 C136.275845,27.9400837 145.709889,79.2612829 149.923761,99.1985625 Z" id="Combined-Shape" fill="#000000"></path>
        <path d="M127.910992,83.4751559 C130.68984,82.3983523 133.815472,83.7780604 134.892387,86.5568651 L134.892387,86.5568651 L156.619222,142.620129 C165.797384,147.476077 175.403797,152.570474 185.26369,157.815422 C185.376183,157.875366 185.488709,157.93533 185.601267,157.995313 L187.30534,117.971948 C187.431768,115.000886 189.940293,112.693402 192.911555,112.815033 C195.881424,112.936606 198.190433,115.442698 198.068893,118.412568 L198.068893,118.412568 L196.217208,163.659742 C208.072937,169.993793 220.192088,176.496292 232.288174,183.023974 L237.991377,186.104557 C259.079797,197.506119 279.960698,208.915773 299.110563,219.571642 L292.012031,165.958628 C292.011522,165.954782 292.011017,165.950934 292.010516,165.947086 C291.629259,163.018345 293.694404,160.335062 296.623145,159.953806 C299.560237,159.571462 302.252591,161.63868 302.641665,164.574888 L302.641665,164.574888 L310.795265,226.101377 C328.325885,235.94273 343.991267,244.953244 356.466431,252.47033 C365.130324,257.727075 372.249805,262.230447 377.504202,265.86384 C376.029999,268.531107 374.847213,270.575232 374.12701,271.799801 C374.17477,273.374803 374.21437,275.026664 374.242283,276.742892 C370.109594,273.681615 363.413345,269.336321 354.956984,264.168545 C350.510176,261.439125 345.569889,258.485396 340.201749,255.336526 L277.273671,277.474225 C277.264474,277.477461 277.255268,277.480671 277.246054,277.483856 C274.447812,278.45115 271.395243,276.966873 270.42795,274.168631 C270.427326,274.166826 270.426703,274.165021 270.426081,274.163215 C269.457521,271.351625 270.951593,268.287208 273.763183,267.318648 L273.763183,267.318648 L328.406054,248.495183 C326.297309,247.284223 324.140251,246.051161 321.93783,244.797308 C313.044853,239.709286 303.436023,234.302243 293.338499,228.685652 L231.938517,244.519961 C229.053769,245.26387 226.111711,243.530267 225.364666,240.646329 C224.617091,237.760341 226.344494,234.813308 229.227833,234.05558 L229.227833,234.05558 L279.279175,220.902434 C264.709461,212.872058 249.397035,204.533794 233.949647,196.180535 C230.789242,194.469828 227.623334,192.759121 224.457134,191.050993 L220.657888,189.002642 C218.846925,188.02688 217.036549,187.052299 215.227736,186.079382 L153.656001,208.25975 C153.646792,208.263068 153.637574,208.26636 153.628346,208.269627 C150.847494,209.254152 147.795052,207.797941 146.810527,205.017089 C145.820352,202.22028 147.283572,199.150125 150.079623,198.157811 L150.079623,198.157811 L202.844147,179.430993 C177.37971,165.784621 152.677844,152.694601 131.517046,141.535721 L94.120755,158.436096 C94.1086778,158.441554 94.0965802,158.446967 94.0844625,158.452334 C91.3952701,159.643509 88.2496114,158.429125 87.0584371,155.739933 C85.8571474,153.027904 87.0758324,149.85512 89.7837764,148.64465 L89.7837764,148.64465 L119.659244,135.289161 C102.561464,126.291355 88.5396415,118.95055 79.4137168,114.167246 C72.9147087,110.801885 68.9128622,108.694784 67.9897614,108.228005 L67.8938046,108.17989 C67.8262175,108.146396 67.7896505,108.129457 67.7846853,108.129457 C61.9282284,104.709819 59.6666667,101.666667 61,99 C62.3333333,96.3333333 66.2510939,96.1898754 72.7532818,98.5696262 C72.7532818,98.5696262 101.790141,113.674479 142.174518,134.987417 L124.837165,90.4532563 L124.837165,90.4532563 C123.75899,87.6708873 125.136571,84.5502439 127.910992,83.4751559 Z" id="Combined-Shape" fill="#000000" opacity="0.7"></path>
        <path d="M377.504202,265.86384 C379.039284,266.925342 380.415176,267.912589 381.623882,268.822673 C387.874627,272.274224 389.666667,275.333333 387,278 C384.333333,280.666667 380.360981,280.458735 375.082944,277.376206 C374.815718,277.171931 374.535283,276.961023 374.241927,276.743648 C374.214385,275.027302 374.174779,273.375107 374.12701,271.799801 C374.84428,270.580219 376.020372,268.547743 377.485351,265.896769 Z" id="Fill-2774" fill="#000000"></path>
    </g>
</svg>