<?xml version="1.0" encoding="UTF-8"?>
<svg width="400px" height="400px" viewBox="0 0 400 400" version="1.1" xmlns="http://www.w3.org/2000/svg" xmlns:xlink="http://www.w3.org/1999/xlink">
    <title>leaf2</title>
    <g id="leaf2" stroke="none" stroke-width="1" fill="none" fill-rule="evenodd">
        <path d="M211.616438,14 L246.465753,54 L329.041096,52.6849315 L331.616438,91.4246575 L400,97.890411 L336.767123,112.082192 L343.232877,143.041096 L274.849315,155.917808 L285.150685,181.726027 L345.808219,229.452055 L347.068493,315.917808 L265.808219,308.191781 L236.109589,268.191781 L205.150685,263.041096 L202.575342,319.808219 L162.575342,334 L156.109589,385.616438 L138.027397,334 L91.6164384,331.424658 L94.1917808,277.232877 L51.6164384,268.191781 L20.6575342,305.616438 L33.5342466,248.849315 L0,229.452055 C0,229.452055 14.5757613,136.376768 86.6288646,111.218152 L93.9178082,117.232877 L102.325708,123.755377 C99.5879879,125.184183 97.0348588,126.994421 94.630137,129.068493 C86.9589041,135.69863 80.6027397,145.013699 75.0684932,155.315068 C66.739726,170.767123 60.3287671,188.520548 55.890411,202.438356 C52.6625156,212.600249 50.5040643,220.733386 49.5668186,224.455955 L49.4825342,224.791952 C49.1866438,225.976027 49.0356164,226.630137 49.0356164,226.657534 C48.3452055,230.885845 50,233.333333 54,234 C58,234.666667 60.6392694,233.242009 61.9178082,229.726027 C61.9178082,229.726027 69.260274,200.958904 78.630137,178.821918 C83.2328767,167.753425 88.7671233,156.849315 94.7945205,148.630137 C97.7534247,144.520548 100.876712,141.068493 103.890411,138.60274 C106.427938,136.522799 110.718012,133.682577 113.577047,132.482917 L113.577047,132.482917 L116.618051,134.844248 C114.160219,138.796715 113.040987,143.428541 112.164384,148.739726 C111.287671,154.383562 110.958904,160.849315 110.958904,167.863014 C110.958904,188.246575 113.863014,213.506849 116.712329,233.780822 C117.961096,242.49863 119.199732,250.294471 120.210408,256.353671 L120.349932,257.187788 C121.614932,264.729041 122.490411,269.367123 122.520548,269.39726 C124.173516,273.799087 127,275.666667 131,275 C135,274.333333 136.520548,271.643836 135.561644,266.931507 C135.561644,266.931507 135.336986,266.054795 135.068493,264.30137 C133.972603,258.328767 131.227397,242.657534 128.821918,224.246575 C126.356164,205.835616 124.219178,184.630137 124.219178,167.863014 C124.219178,161.287671 124.547945,155.369863 125.260274,150.767123 L125.260274,150.767123 L125.321681,150.347358 C125.800023,147.188564 126.550421,144.668784 127.230654,143.076201 L127.230654,143.076201 L176.227523,181.088345 L180.006805,232.385046 L180.027882,232.616718 C180.410776,236.149546 183.523629,238.772533 187.09589,238.520548 L187.09589,238.520548 L187.327442,238.500202 C190.858559,238.128418 193.486025,235.021433 193.235837,231.451847 L193.235837,231.451847 L190.480523,192.145345 L313.290027,287.421619 L313.488801,287.570052 C316.365012,289.636326 320.384114,289.071057 322.572988,286.249612 C322.573773,286.2486 322.574558,286.247588 322.575342,286.246575 L322.575342,286.246575 L322.723776,286.047563 C324.790019,283.167959 324.223314,279.146296 321.399818,276.955605 L321.399818,276.955605 L210.148523,190.638345 L242.105305,175.087103 L242.321186,174.977198 C245.445487,173.315016 246.716163,169.463401 245.154963,166.25535 C245.153539,166.252424 245.152113,166.249499 245.150685,166.246575 L245.150685,166.246575 L245.040224,166.030376 C243.369894,162.90148 239.510886,161.629374 236.294246,163.19085 L236.294246,163.19085 L198.449523,181.561345 L147.448158,141.990144 C151.219991,136.304327 156.8829,131.51301 163.945205,127.534247 C175.616438,120.958904 191.013699,116.849315 206.30137,114.60274 C221.534247,112.246575 236.60274,111.69863 247.671233,111.69863 C253.041096,111.69863 257.473973,111.808219 260.547945,111.972603 C261.570776,112.009132 263.050228,112.082192 264.986301,112.191781 C268.328767,112.063927 270.333333,110 271,106 C271.666667,102 270.100457,99.6621005 266.30137,98.9863014 C266.193369,98.9863014 259.060621,98.4541235 248.154809,98.4386981 L248.154809,98.4386981 L247.671233,98.4383562 C232.273973,98.4383562 209.643836,99.4794521 188.049315,104.575342 C177.260274,107.150685 166.739726,110.767123 157.479452,115.972603 C149.359457,120.48905 142.166343,126.353686 136.971457,133.862056 L136.971457,133.862056 L102.393271,107.030569 C102.672407,106.978323 102.952275,106.927036 103.232877,106.876712 L103.268605,106.792522 C104.438268,104.057973 134.451507,35.4794521 211.616438,14 Z" id="Fill-2793" fill="#000000"></path>
        <path d="M248.154809,98.4386981 C259.060621,98.4541235 266.193369,98.9863014 266.30137,98.9863014 C270.100457,99.6621005 271.666667,102 271,106 C270.333333,110 268.328767,112.063927 264.986301,112.191781 C263.050228,112.082192 261.570776,112.009132 260.547945,111.972603 C257.473973,111.808219 253.041096,111.69863 247.671233,111.69863 C236.60274,111.69863 221.534247,112.246575 206.30137,114.60274 C191.013699,116.849315 175.616438,120.958904 163.945205,127.534247 C156.8829,131.51301 151.219991,136.304327 147.448158,141.990144 L198.450178,181.560356 L236.294246,163.19085 C239.510886,161.629374 243.369894,162.90148 245.040224,166.030376 L245.150685,166.246575 L245.150685,166.246575 C246.751644,169.536311 245.386266,173.490422 242.105305,175.087103 L242.105305,175.087103 L210.149178,190.638356 L321.399818,276.955605 C324.223314,279.146296 324.790019,283.167959 322.723776,286.047563 L322.575342,286.246575 C322.574558,286.247588 322.573773,286.2486 322.572988,286.249612 C320.33321,289.136672 316.177087,289.661397 313.290027,287.421619 L313.290027,287.421619 L190.481178,192.146356 L193.235837,231.451847 C193.486025,235.021433 190.858559,238.128418 187.327442,238.500202 L187.09589,238.520548 C183.445971,238.778011 180.275651,236.034145 180.006805,232.385046 L180.006805,232.385046 L176.227178,181.088356 L127.230654,143.076201 C126.550421,144.668784 125.800023,147.188564 125.321681,150.347358 L125.260274,150.767123 C124.547945,155.369863 124.219178,161.287671 124.219178,167.863014 C124.219178,184.630137 126.356164,205.835616 128.821918,224.246575 C131.227397,242.657534 133.972603,258.328767 135.068493,264.30137 C135.336986,266.054795 135.561644,266.931507 135.561644,266.931507 C136.520548,271.643836 135,274.333333 131,275 C127,275.666667 124.173516,273.799087 122.520548,269.39726 C122.490411,269.367123 121.614932,264.729041 120.349932,257.187788 L120.139529,255.928128 C119.142115,249.931375 117.932055,242.29589 116.712329,233.780822 C113.863014,213.506849 110.958904,188.246575 110.958904,167.863014 C110.958904,160.849315 111.287671,154.383562 112.164384,148.739726 C113.040987,143.428541 114.160219,138.796715 116.618051,134.844248 L113.577047,132.482917 C110.718012,133.682577 106.427938,136.522799 103.890411,138.60274 C100.876712,141.068493 97.7534247,144.520548 94.7945205,148.630137 C88.7671233,156.849315 83.2328767,167.753425 78.630137,178.821918 C69.260274,200.958904 61.9178082,229.726027 61.9178082,229.726027 C60.6392694,233.242009 58,234.666667 54,234 C50,233.333333 48.3452055,230.885845 49.0356164,226.657534 C49.0356164,226.547945 51.4520548,216.410959 55.890411,202.438356 C60.3287671,188.520548 66.739726,170.767123 75.0684932,155.315068 C80.6027397,145.013699 86.9589041,135.69863 94.630137,129.068493 C97.034832,126.994444 99.5879309,125.184223 102.325616,123.755425 L93.9178082,117.232877 L86.6288646,111.218152 C91.604833,109.480705 96.854925,108.067169 102.393271,107.030569 L136.971457,133.862056 C142.166343,126.353686 149.359457,120.48905 157.479452,115.972603 C166.739726,110.767123 177.260274,107.150685 188.049315,104.575342 C209.643836,99.4794521 232.273973,98.4383562 247.671233,98.4383562 Z" id="Combined-Shape" fill="#000000" opacity="0.7"></path>
        <path d="M46.4707806,69.473355 C48.8015596,66.6499888 52.9798198,66.2506679 55.803186,68.5814468 L55.803186,68.5814468 L102.191781,106.876712 L102.393271,107.030569 C96.854925,108.067169 91.604833,109.480705 86.6288646,111.218152 L47.3660999,78.8264832 C44.5379266,76.4931653 44.1349576,72.3097042 46.4657534,69.4794521 C46.4674279,69.4774187 46.4691037,69.4753864 46.4707806,69.473355 Z" id="Fill-2794" fill="#000000"></path>
    </g>
</svg>