<?xml version="1.0" encoding="UTF-8"?>
<svg width="400px" height="400px" viewBox="0 0 400 400" version="1.1" xmlns="http://www.w3.org/2000/svg" xmlns:xlink="http://www.w3.org/1999/xlink">
    <title>leaf7</title>
    <g id="leaf7" stroke="none" stroke-width="1" fill="none" fill-rule="evenodd">
        <path d="M284.524633,78.2904265 C300.855643,91.6125311 321.994344,96.8113915 334.883105,96.768429 C338.377195,96.768429 341.262331,96.5948556 343.270266,96.4199788 C346.096844,95.2554975 348.900724,94.0524137 351.657002,92.8217036 C370.989704,84.2323894 387.992948,74.2833135 394.563099,70.7756354 C394.786373,70.6584034 395.000696,70.5454335 395.206069,70.4367258 C396.475629,69.7647177 398.049531,70.2360013 398.740834,71.4951591 C399.446863,72.7811415 399.009435,74.3952237 397.750696,75.1487526 C387.150912,81.4940077 375.219075,87.7447532 361.955185,93.9009891 C357.955709,95.7568942 353.796719,97.6029293 349.553793,99.395894 L338.051035,140.451042 C344.745455,154.873529 370.80361,217.211536 337.581319,249.487334 C300.947855,285.15906 290.279134,168.696941 332.798225,139.697029 L342.873752,102.145242 C326.451168,108.722374 309.380814,114.202563 295.844448,116.195569 C278.915257,118.716669 260.529513,123.279301 242.818505,131.901038 C241.880817,133.824382 240.61026,136.499631 239.436625,139.204193 L239.154894,139.858491 C238.083891,142.365921 237.125943,144.848476 236.62315,146.730356 C236.46648,147.300462 236.304756,147.890784 236.138344,148.499895 L235.799381,149.742747 C234.304399,155.233333 232.475735,162.063754 230.552169,169.305412 C230.123633,170.90875 229.690866,172.531284 229.256745,174.162447 L228.884378,175.562453 C228.76019,176.029662 228.635958,176.497329 228.51175,176.965207 L227.767325,179.773042 C227.519636,180.708519 227.272579,181.64287 227.026691,182.574124 L226.658802,183.968435 C224.860288,190.78985 223.139488,197.390488 221.709878,202.986431 L222.412557,202.628353 C222.412557,202.628353 244.852703,272.961794 211.21497,290.275333 C179.520432,306.588698 178.607758,233.351195 215.248227,206.928868 C219.140931,190.313602 224.378895,168.302354 233.83978,136.74508 L233.868,136.649 L233.111286,137.089197 C216.461621,146.823007 200.70056,160.588342 187.560628,180.278148 C172.675482,202.628353 158.77968,226.057843 145.288611,246.384388 C143.611995,248.9049 141.789269,251.392934 139.85692,253.836623 C138.572271,261.65812 137.527704,269.614713 136.721298,277.705414 C135.879208,286.154121 135.175949,295.961791 134.611521,307.128426 C141.224982,324.068675 161.730015,382.177421 134.765577,389.119901 C105.31013,396.756499 113.986794,337.798927 129.344281,308.35443 L129.225934,310.691818 C129.786492,299.178225 130.659493,287.860613 131.844937,276.738984 C132.551492,270.110213 133.233221,264.825308 133.890124,260.884267 C121.836253,274.270689 107.376737,285.832049 97.294458,293.364586 C87.1163246,340.677373 6.16487904,374.563261 0.259615897,337.134314 C-5.20840074,302.516944 77.3206366,290.725607 94.8685541,288.61575 C107.659162,279.085638 128.444038,262.290086 140.926499,243.461323 C151.325859,227.80976 162.07964,210.113465 173.421344,192.431511 C169.32668,193.123561 165.229483,193.574735 161.129849,193.786147 C156.642514,194.017552 148.189632,193.53196 135.771203,192.329369 C95.7746862,204.675031 15.5750889,170.915252 61.4191302,145.56113 C103.531621,122.270747 133.022811,174.603868 139.528554,187.576583 C147.575705,188.396096 154.792822,188.595692 161.180891,188.175303 C167.059064,187.788469 172.395372,187.262267 177.189814,186.596696 C179.187476,183.519881 181.205547,180.450861 183.243486,177.400053 C198.398454,154.600146 217.146543,139.310268 236.663624,129.146995 C242.023658,126.350563 247.440387,123.932094 252.861486,121.83797 L226.904334,109.324832 C197.712854,117.36513 121.638365,119.550749 157.205722,93.5755426 C187.622523,71.3883173 217.337886,94.2392544 227.714598,103.931242 L259.545658,119.416093 C271.673736,115.303454 283.715865,112.706797 295.084451,111.023992 C304.812119,109.589731 316.935134,106.207481 329.382522,101.762892 C315.555844,100.520817 296.069925,94.8099549 280.300394,81.6067918 C271.841121,81.8710386 252.651894,81.2074555 238.736751,71.1803675 C220.388897,57.9141493 205.099018,12.0445136 244.852703,11.0101983 C279.641328,10.1443201 283.982829,64.6681634 284.524633,78.2904265 Z" id="Combined-Shape" fill="#000000"></path>
    </g>
</svg>