<?xml version="1.0" encoding="UTF-8"?>
<svg width="400px" height="400px" viewBox="0 0 400 400" version="1.1" xmlns="http://www.w3.org/2000/svg" xmlns:xlink="http://www.w3.org/1999/xlink">
    <title>leaf5</title>
    <g id="leaf5" stroke="none" stroke-width="1" fill="none" fill-rule="evenodd">
        <path d="M324.532957,0 C420.25128,419.65261 60.2283642,399.852789 60.2283642,399.852789 C38.0111227,132.958103 324.532957,0 324.532957,0 Z M305.774068,38.6451112 C303.247379,37.2255229 300.029284,38.0117965 298.450605,40.4745515 L298.450605,40.4745515 L231.931086,144.244181 L210.702733,108.61722 L210.578032,108.417724 C208.9952,106.001888 205.773974,105.242079 203.269059,106.734629 L203.269059,106.734629 L203.259051,106.740607 L203.0592,106.866116 C200.639098,108.458882 199.879074,111.68898 201.373679,114.203118 L201.373679,114.203118 L225.343086,154.522181 L179.280086,226.380181 L165.857423,167.806773 L165.804122,167.593578 C165.040677,164.777712 162.184206,163.042214 159.313808,163.693872 C156.38059,164.359792 154.542581,167.27747 155.209981,170.217188 L155.209981,170.217188 L155.211469,170.223687 L171.052086,239.217181 L139.426086,288.554181 L123.537293,232.764287 L123.471477,232.549762 C122.563483,229.791074 119.630649,228.217752 116.811955,229.020502 C116.810472,229.020925 116.808988,229.021348 116.807505,229.021771 L116.807505,229.021771 L116.592848,229.087827 C113.832503,229.99896 112.260177,232.935592 113.065762,235.756155 L113.065762,235.756155 L131.622086,300.727181 L86.9793778,370.371743 L86.8556439,370.57439 C85.4313045,373.026487 86.1790804,376.188751 88.5899278,377.734156 L88.5899278,377.734156 L88.6618286,377.779441 L88.8651342,377.899387 C91.3918234,379.318976 94.6099179,378.532702 96.188597,376.069947 L96.188597,376.069947 L138.383086,310.244181 L218.253373,304.631793 L218.471906,304.612098 C221.367432,304.293303 223.519553,301.742378 223.317881,298.810386 C223.111665,295.81232 220.514081,293.549079 217.516015,293.755295 L217.516015,293.755295 L217.50531,293.756042 L145.696086,298.837181 L181.879086,242.391181 L277.679595,220.122858 L277.896643,220.067754 C280.690799,219.297706 282.402493,216.451243 281.738866,213.596329 L281.738866,213.596329 L281.683424,213.379012 C280.908971,210.581428 278.057791,208.869043 275.204619,209.532265 L275.204619,209.532265 L190.289086,229.271181 L232.589086,163.282181 L319.955424,140.002539 L320.171148,139.940356 C322.946305,139.079052 324.570139,136.171824 323.813487,133.332228 L323.813487,133.332228 L323.750948,133.11624 C322.885018,130.337733 319.972922,128.713381 317.135134,129.46962 L317.135134,129.46962 L241.311086,149.675181 L307.659824,46.1727559 L307.783558,45.9701083 C309.207898,43.5180116 308.460122,40.3557479 306.049274,38.8103426 L306.049274,38.8103426 L305.977373,38.7650573 Z" id="Fill-2629" fill="#000000"></path>
        <path d="M298.450605,40.4745515 C300.071951,37.9452356 303.422527,37.1842462 305.977373,38.7650573 L305.977373,38.7650573 L306.049274,38.8103426 C308.52709,40.3986758 309.248157,43.6949405 307.659824,46.1727559 L307.659824,46.1727559 L241.311086,149.675181 L317.135134,129.46962 C319.972922,128.713381 322.885018,130.337733 323.750948,133.11624 L323.813487,133.332228 L323.813487,133.332228 C324.589541,136.244635 322.861466,139.228185 319.955424,140.002539 L319.955424,140.002539 L232.589086,163.282181 L190.289086,229.271181 L275.204619,209.532265 C278.057791,208.869043 280.908971,210.581428 281.683424,213.379012 L281.738866,213.596329 L281.738866,213.596329 C282.419509,216.524446 280.601459,219.443673 277.679595,220.122858 L277.679595,220.122858 L181.879086,242.391181 L145.696086,298.837181 L217.50531,293.756042 L217.50531,293.756042 L217.516015,293.755295 C220.514081,293.549079 223.111665,295.81232 223.317881,298.810386 C223.524595,301.815678 221.258354,304.420612 218.253373,304.631793 L218.253373,304.631793 L138.383086,310.244181 L96.188597,376.069947 C94.6099179,378.532702 91.3918234,379.318976 88.8651342,377.899387 L88.6618286,377.779441 L88.6618286,377.779441 L88.5899278,377.734156 C86.1121124,376.145823 85.3910446,372.849558 86.9793778,370.371743 L86.9793778,370.371743 L131.622086,300.727181 L113.065762,235.756155 C112.260177,232.935592 113.832503,229.99896 116.592848,229.087827 L116.807505,229.021771 C116.808988,229.021348 116.810472,229.020925 116.811955,229.020502 C119.702924,228.197169 122.71396,229.873319 123.537293,232.764287 L123.537293,232.764287 L139.426086,288.554181 L171.052086,239.217181 L155.211469,170.223687 C155.210971,170.221521 155.210475,170.219355 155.209981,170.217188 C154.542581,167.27747 156.38059,164.359792 159.313808,163.693872 C162.255966,163.025923 165.183491,164.865979 165.857423,167.806773 L165.857423,167.806773 L179.280086,226.380181 L225.343086,154.522181 L201.373679,114.203118 C199.879074,111.68898 200.639098,108.458882 203.0592,106.866116 L203.259051,106.740607 L203.259051,106.740607 L203.269059,106.734629 C205.841674,105.20174 209.169844,106.044604 210.702733,108.61722 L210.702733,108.61722 L231.931086,144.244181 Z" id="Combined-Shape" fill="#000000" opacity="0.7"></path>
    </g>
</svg>