<?xml version="1.0" encoding="UTF-8"?>
<svg width="400px" height="400px" viewBox="0 0 400 400" version="1.1" xmlns="http://www.w3.org/2000/svg" xmlns:xlink="http://www.w3.org/1999/xlink">
    <title>leaf6</title>
    <g id="leaf6" stroke="none" stroke-width="1" fill="none" fill-rule="evenodd">
        <path d="M294.506658,316.84277 C290.386548,400.630447 159.559018,448.989791 116.576599,323.671136 C79.8173609,216.414341 140.728062,143.832549 159.049462,125.138506 C160.953434,164.430724 167.047572,205.263493 173.116788,238.234095 C180.47295,278.016748 187.796125,306.286842 187.829112,306.352817 L195.84502,304.274618 C195.84502,304.274618 195.746058,303.845784 195.515147,303.021102 C195.483479,302.895091 195.449555,302.759909 195.413423,302.615667 L195.298453,302.155875 C195.278203,302.07475 195.257414,301.991388 195.236091,301.905802 L195.101797,301.36572 C192.922469,292.584341 186.231868,264.812932 179.912166,229.195582 C174.247916,197.426526 168.901445,159.415374 167.243115,123.145551 C187.672405,140.922356 298.192551,240.759491 294.506658,316.84277 Z" id="Fill-2693" fill="#000000"></path>
        <path d="M164.0123,120.370564 C164.0123,120.370564 165.158832,121.330458 167.237033,123.138963 C168.901353,159.414721 174.247867,197.426253 179.912166,229.195582 C186.43573,265.961879 193.354507,294.36788 195.298453,302.155875 L195.413423,302.615667 C195.449555,302.759909 195.483479,302.895091 195.515147,303.021102 C195.696577,303.669066 195.796549,304.072656 195.831063,304.215869 L195.843493,304.268067 L195.843493,304.268067 L195.84502,304.274618 L187.829112,306.352817 C187.796125,306.286842 180.47295,278.016748 173.116788,238.234095 C167.047572,205.263493 160.953434,164.430724 159.044366,125.143493 C162.134754,121.990461 164.0123,120.370564 164.0123,120.370564 Z" id="Fill-2697" fill="#000000" opacity="0.7"></path>
        <path d="M182.712786,0 L188.983667,5.40991299 C180.96446,14.7123244 175.326935,28.3690559 171.764309,44.8626931 C168.201684,61.3563303 166.717256,80.6538858 166.717256,101.073009 C166.717256,108.310446 166.902278,115.690724 167.243069,123.14455 C165.158832,121.330458 164.0123,120.370564 164.0123,120.370564 C164.0123,120.370564 162.134359,121.990802 159.048488,125.1395 C158.649951,117.027026 158.434152,108.975537 158.434152,101.073009 C158.434152,80.2580385 159.921878,60.4326866 163.646141,43.1143676 C167.409989,25.7960485 173.380686,10.8858005 182.712786,0 L182.712786,0 Z" id="Fill-2698" fill="#000000"></path>
    </g>
</svg>