<?xml version="1.0" encoding="UTF-8"?>
<svg width="400px" height="400px" viewBox="0 0 400 400" version="1.1" xmlns="http://www.w3.org/2000/svg" xmlns:xlink="http://www.w3.org/1999/xlink">
    <title>leaf8</title>
    <g id="leaf8" stroke="none" stroke-width="1" fill="none" fill-rule="evenodd">
        <path d="M307.52784,24 C307.52784,24 294.402376,41.6985895 278.247958,63.3170007 C262.03415,84.8760208 261.262064,111.839644 255.916852,132.626578 C254.129044,139.502763 250.489063,145.456112 246.417912,150.344738 C247.195311,150.526089 248.128334,150.732342 249.212838,150.953122 L249.767695,151.064675 C257.428152,152.585679 271.959003,154.689745 292.086117,154.185598 C322.910171,153.413512 400,114.155902 400,114.155902 C400,114.155902 383.780252,134.17075 374.521158,151.928731 C365.315516,169.62732 343.756496,186.553823 309.844098,188.097996 C280.68537,189.425713 238.944289,171.393896 227.815118,166.312587 C223.461386,169.538855 217.660857,173.881686 210.720119,179.18931 C194.625093,191.542687 172.353378,209.063103 147.824796,229.790646 C144.702779,232.428277 141.543871,235.117991 138.356151,237.855608 C138.167496,238.090228 137.978459,238.32067 137.78846,238.548787 C143.941292,240.000132 159.850361,243.032347 183.45954,242.44098 C213.975353,241.676615 289.778043,203.134379 291.291045,202.36361 L291.314031,202.351893 L291.294823,202.375803 C290.670377,203.153912 274.968493,222.780104 265.894581,240.124722 L265.614686,240.655451 C256.255229,258.161485 234.726117,274.824647 201.21752,276.353378 C172.361986,277.66729 130.527583,260.268347 118.692884,255.050229 C99.2111671,272.40798 79.2876606,291.164673 60.6300825,310.437406 C59.918422,311.414678 59.1817716,312.355613 58.430226,313.260225 C64.5750184,314.710579 80.4891359,317.74689 104.112843,317.15516 C131.546251,316.468003 195.579736,285.296463 209.335158,278.447039 L210.551448,277.839406 C211.47434,277.376713 211.967335,277.125464 211.967335,277.125464 C211.967335,277.125464 195.812918,297.140312 186.541945,314.838901 C177.282851,332.596882 155.723831,349.523385 121.811433,351.067558 C91.6118244,352.445084 47.8427202,337.280208 38.7473668,333.990994 C26.6554997,347.61022 15.5119634,361.306169 5.89525607,374.780904 L4.81069042,376.308834 L0,372.864143 C10.9075456,357.42659 23.7705235,341.739295 37.7591116,326.218678 C36.1164098,324.028926 34.3043853,320.445377 34.7438753,315.610987 C35.5159614,307.177431 57.9064588,284.014848 62.4795843,243.213066 C67.112101,202.351893 119.495174,186.969562 119.495174,186.969562 C119.495174,186.969562 106.429102,204.668151 90.2152932,226.227171 C74.3928882,247.401272 73.3270239,273.703129 68.2117233,294.306748 C83.8269386,278.753634 100.027434,263.684941 115.903691,249.556114 C114.73968,247.412843 113.821541,244.509451 114.149963,240.896808 C114.922049,232.40386 137.253155,209.300668 141.885672,168.439495 C146.452858,127.637713 198.901262,112.195991 198.901262,112.195991 C198.901262,112.195991 185.769859,129.953972 169.621381,151.512992 C153.407572,173.072012 152.635486,200.035635 147.230883,220.88196 C147.049398,221.587737 146.848262,222.283724 146.62902,222.969772 C180.939731,194.12705 210.469855,171.743686 224.550296,161.317817 C223.375274,159.162778 222.448424,156.250703 222.77654,152.641425 C223.548627,144.207869 245.879733,121.104677 250.512249,80.2435041 C255.144766,39.3823311 307.52784,24 307.52784,24 Z" id="Combined-Shape" fill="#000000"></path>
    </g>
</svg>