<?xml version="1.0" encoding="UTF-8"?>
<svg width="400px" height="400px" viewBox="0 0 400 400" version="1.1" xmlns="http://www.w3.org/2000/svg" xmlns:xlink="http://www.w3.org/1999/xlink">
    <title>leaf3</title>
    <g id="leaf3" stroke="none" stroke-width="1" fill="none" fill-rule="evenodd">
        <g id="Group" transform="translate(64.499978, 23.000538)" fill="#000000">
            <path d="M124.032,0.894 L145.875214,90.3145507 C145.875214,90.3145507 145.907754,90.2884098 145.971737,90.2372319 L146.256915,90.0096907 C152.293848,85.2025752 228.243667,25.2532949 252.65163,32.2364496 C278.072764,39.4722842 259.313192,71.669834 245.68379,91.5396655 C232.092672,111.409497 166.740451,162.711182 166.740451,162.711182 C166.740451,162.711182 296.372917,191.845944 335.500022,268.989895 C335.500022,268.989895 245.377511,293.032774 144.573529,233.040431 L144.613917,233.116096 C145.92209,235.578808 178.45944,297.71501 161.763422,354.556511 C161.763422,354.556511 93.9609719,325.230324 84.887465,250.0389 L14.6730699,332.581013 C14.6730699,332.581013 -36.2953542,269.81778 51.7536716,161.533645 L75.0865461,171.746404 L184.041903,216.873026 L184.25597,216.956532 C186.976595,217.953182 190.023708,216.636405 191.147036,213.936296 C192.297319,211.171396 190.988413,207.997513 188.223513,206.84723 C188.220509,206.845981 188.217504,206.844734 188.214499,206.843489 L188.214499,206.843489 L79.3744481,161.792345 L56.1272687,151.606058 C63.4249276,91.1193584 77.3506081,50.4999842 97.9043103,29.7479351 C117.899333,9.53583706 122.987813,2.99946646 124.01597,0.929588438 L124.032,0.894 Z M117.802341,208.761894 C117.287522,205.906833 114.605122,203.943574 111.705995,204.345944 C108.738164,204.75785 106.666177,207.497667 107.078818,210.470782 L107.078818,210.470782 L113.308669,255.035808 L113.343186,255.251587 C113.858005,258.106648 116.540405,260.069907 119.439532,259.667537 C122.407363,259.255632 124.479351,256.515814 124.067445,253.547983 C124.067201,253.546222 124.066955,253.54446 124.066709,253.542699 L124.066709,253.542699 L117.836858,208.977673 Z M92.8889964,191.65452 C90.8842221,189.438717 87.4627681,189.267644 85.246965,191.272418 L85.246965,191.272418 L85.2391379,191.279514 L48.1651948,224.954488 L47.985152,225.125555 C45.9400622,227.158243 45.8354443,230.459601 47.7894558,232.619298 C49.7942301,234.835101 53.2156841,235.006174 55.4314872,233.0014 C55.4340985,232.999037 55.4367075,232.996672 55.4393142,232.994304 L55.4393142,232.994304 L92.5132574,199.31933 L92.6933002,199.148263 C94.7383899,197.115575 94.8430078,193.814217 92.8889964,191.65452 Z M111.748517,90.5959459 C108.928378,90.5807933 106.563185,92.7398658 106.322429,95.5503676 L106.322429,95.5503676 L106.308108,95.7682387 L103.589421,154.996778 L103.583721,155.214859 C103.56537,158.111027 105.839111,160.528857 108.758062,160.662943 C111.74969,160.800367 114.286288,158.486578 114.423724,155.494709 L114.423724,155.494709 L117.139184,96.2659551 L117.144871,96.0479459 C117.163063,93.1527359 114.890055,90.7357759 111.972074,90.601687 L111.972074,90.601687 Z M163.503468,115.065699 C161.151601,113.219236 157.748182,113.628946 155.901719,115.980813 C155.899519,115.983615 155.897322,115.986419 155.895128,115.989225 L155.895128,115.989225 L130.450799,148.530066 L130.306542,148.723113 C128.634637,151.065949 129.090482,154.332531 131.384402,156.126189 L131.384402,156.126189 L131.577874,156.270461 C133.925781,157.942504 137.196178,157.485206 138.990001,155.192944 L138.990001,155.192944 L164.427132,122.687753 L164.571961,122.49411 C166.250613,120.144014 165.797352,116.86664 163.503468,115.065699 Z M124.046295,0.000390199081 C124.217723,0.0129837672 124.376885,0.160252374 124.061904,0.834362021 L124.032,0.894 L123.823146,0.0388998469 C123.823146,0.0388998469 123.906944,0.00471914242 123.999585,6.25246382e-14 Z" id="Fill-2745"></path>
            <path d="M111.705995,204.345944 C114.677601,203.933515 117.421507,206.006474 117.836858,208.977673 L117.836858,208.977673 L124.066709,253.542699 L124.066709,253.542699 C124.479351,256.515814 122.407363,259.255632 119.439532,259.667537 C116.467927,260.079966 113.72402,258.007007 113.308669,255.035808 L113.308669,255.035808 L107.078818,210.470782 C107.078572,210.469021 107.078326,210.46726 107.078082,210.465498 C106.666177,207.497667 108.738164,204.75785 111.705995,204.345944 Z M85.246965,191.272418 C87.4627681,189.267644 90.8842221,189.438717 92.8889964,191.65452 C94.8988367,193.875923 94.7307312,197.305156 92.5132574,199.31933 L92.5132574,199.31933 L55.4393142,232.994304 C55.4367075,232.996672 55.4340985,232.999037 55.4314872,233.0014 C53.2156841,235.006174 49.7942301,234.835101 47.7894558,232.619298 C45.7796154,230.397895 45.9477209,226.968662 48.1651948,224.954488 L48.1651948,224.954488 L85.2391379,191.279514 C85.2417446,191.277146 85.2443536,191.274781 85.246965,191.272418 Z M56.1272518,151.606198 L79.3744481,161.792345 L188.214499,206.843489 C188.217504,206.844734 188.220509,206.845981 188.223513,206.84723 C190.988413,207.997513 192.297319,211.171396 191.147036,213.936296 C189.994147,216.707461 186.814888,218.021528 184.041903,216.873026 L184.041903,216.873026 L75.0865461,171.746404 L51.7536716,161.533645 C52.9755158,160.031001 54.2241301,158.519592 55.5000224,156.999462 C55.7033555,155.184492 55.912432,153.386737 56.1272518,151.606198 Z M111.754084,90.5959786 L111.972074,90.601687 C114.963004,90.7391281 117.27631,93.2750107 117.139184,96.2659551 L117.139184,96.2659551 L114.423724,155.494709 L114.423724,155.494709 C114.286288,158.486578 111.74969,160.800367 108.758062,160.662943 C105.766137,160.525504 103.452087,157.988708 103.589421,154.996778 L103.589421,154.996778 L106.308108,95.7682387 L106.308108,95.7682387 L106.322429,95.5503676 C106.569521,92.6659052 109.054333,90.4676091 111.972074,90.601687 Z M155.901719,115.980813 C157.748182,113.628946 161.151601,113.219236 163.503468,115.065699 C165.861071,116.916666 166.274374,120.32723 164.427132,122.687753 L164.427132,122.687753 L138.990001,155.192944 C137.146349,157.54888 133.742953,157.966493 131.384402,156.126189 L131.384402,156.126189 C129.026762,154.282707 128.61073,150.883335 130.450799,148.530066 L130.450799,148.530066 L155.895128,115.989225 C155.897322,115.986419 155.899519,115.983615 155.901719,115.980813 Z" id="Combined-Shape" fill-opacity="0.7"></path>
        </g>
        <path d="M3.31699948,125.974047 C3.87815,124.693274 5.37132361,124.109906 6.65209609,124.671056 L6.65209609,124.671056 L9.75632705,126.031127 L120.627126,174.607593 C120.412342,176.387852 120.2033,178.185321 120,180 C118.724108,181.52013 117.475493,183.031539 116.253649,184.534183 L5.75727565,136.127822 L3.32838641,130.632427 C2.67405738,129.151999 2.66884304,127.465353 3.31400603,125.980907 C3.31500047,125.978619 3.31599829,125.976332 3.31699948,125.974047 Z" id="Fill-2746" fill="#000000"></path>
    </g>
</svg>