<?xml version="1.0" encoding="UTF-8"?>
<svg width="400px" height="400px" viewBox="0 0 400 400" version="1.1" xmlns="http://www.w3.org/2000/svg" xmlns:xlink="http://www.w3.org/1999/xlink">
    <title>pumpkin</title>
    <g id="pumpkin" stroke="none" stroke-width="1" fill="none" fill-rule="evenodd">
        <path d="M391.930484,167.6095 C371.001201,103.001712 321.862884,89.8071642 285.009146,89.8071642 C261.804941,89.8071642 242.695595,94.8119928 235.415844,97.0869149 L232.230953,97.9968838 L229.501047,96.1769461 C224.951203,93.4470396 219.946374,91.1721175 214.941546,89.8071642 C225.406187,45.6736756 274.08952,30.6591898 274.08952,30.6591898 L251.795283,7 C251.795283,7 238.145751,8.36495326 218.126436,24.2894079 C198.107122,40.668847 193.102293,81.6174447 193.102293,81.6174447 C193.102293,81.6174447 193.557278,84.3473512 194.922231,88.442211 C187.64248,89.3521798 180.36273,92.0820863 173.992948,96.6319305 L171.263041,98.4518682 L168.07815,97.0869149 C167.623166,97.0869149 144.418961,88.8971954 115.299958,88.8971954 C77.9912355,88.8971954 29.3079027,102.546728 8.37861938,166.699531 C-9.36577295,220.387692 1.5538531,282.720558 36.5876534,330.948906 C63.8867185,368.712613 100.285472,390.096881 136.684226,390.096881 C147.148867,390.096881 157.613509,388.276943 167.623166,384.637068 L170.808057,383.272114 L173.537963,385.092052 C189.917403,396.466663 212.666623,396.921647 229.501047,386.002021 L232.230953,384.182083 L235.415844,385.092052 C244.515533,387.821959 254.070206,389.641896 263.624878,389.641896 C281.824255,389.641896 300.023632,384.182083 316.858055,374.172426 C334.147463,364.162769 349.616934,349.148283 363.266466,330.493922 C398.300266,282.720558 409.219892,220.387692 391.930484,167.6095 Z M313.673164,158.964796 C285.009146,250.871649 229.046063,194.908565 229.046063,194.908565 L313.673164,158.964796 Z M175.357901,194.453581 C175.357901,194.453581 119.394818,250.416664 90.7307992,158.509811 L175.357901,194.453581 Z M297.293725,306.834732 L281.824255,290.455293 L230.411016,324.12414 L199.92706,299.099997 L169.898088,324.12414 L118.029864,290.455293 L102.10541,306.834732 L50.6921703,227.667443 L102.10541,260.426321 L118.029864,244.046882 L169.443104,277.715729 L199.472075,252.691586 L229.501047,277.715729 L281.824255,244.046882 L297.74871,260.426321 L349.161949,227.667443 L297.293725,306.834732 Z" fill="#000000" fill-rule="nonzero"></path>
    </g>
</svg>