<?xml version="1.0" encoding="UTF-8"?>
<svg width="400px" height="400px" viewBox="0 0 400 400" version="1.1" xmlns="http://www.w3.org/2000/svg" xmlns:xlink="http://www.w3.org/1999/xlink">
    <title>snowflake</title>
    <g id="snowflake" stroke="none" stroke-width="1" fill="none" fill-rule="evenodd">
        <path d="M366.319747,218.604651 L294.226724,243.410853 L265.156957,226.744186 L265.156957,173.643411 L294.226724,156.976744 L366.319747,181.782946 C371.358507,183.72093 377.172461,180.620155 378.722848,175.581395 C380.660833,170.542636 377.560058,164.728682 372.521298,163.178295 L316.707344,144.186047 L369.032926,113.953488 C373.684089,111.24031 375.234476,105.03876 372.521298,100.387597 C369.80812,95.7364341 363.606569,94.1860465 358.955406,96.8992248 L306.629825,127.131783 L317.870135,69.379845 C319.032926,63.9534884 315.544554,58.9147287 310.118197,57.751938 C304.691841,56.5891473 299.653081,60.0775194 298.49029,65.503876 L283.761608,140.310078 L254.691841,156.976744 L232.598817,144.186047 L232.21122,143.79845 L209.7306,130.620155 L209.7306,97.2868217 L267.094941,47.2868217 C271.358507,43.7984496 271.746104,37.5968992 267.870135,33.3333333 C264.381763,29.0697674 258.180213,28.6821705 253.916647,32.5581395 L209.7306,71.3178295 L209.7306,10.0775194 C209.7306,4.65116279 205.467034,0 199.653081,0 C194.226724,0 189.575561,4.26356589 189.575561,10.0775194 L189.575561,70.5426357 L145.389515,32.1705426 C141.125949,28.6821705 134.924399,29.0697674 131.436027,32.9457364 C127.947654,37.2093023 128.335251,43.4108527 132.21122,46.8992248 L189.575561,96.8992248 L189.575561,130.232558 L167.094941,143.410853 L144.614321,156.589147 L115.544554,139.922481 L100.815872,65.1162791 C99.6530808,59.6899225 94.6143211,56.2015504 89.1879645,57.3643411 C83.761608,58.5271318 80.2732359,63.5658915 81.4360266,68.9922481 L92.6763366,126.744186 L40.3507552,96.5116279 C35.6995925,93.7984496 29.4980421,95.3488372 26.7848638,100 C24.0716855,104.651163 25.6220731,110.852713 30.2732359,113.565891 L82.5988173,143.79845 L26.7848638,162.790698 C21.7461041,164.728682 18.6453289,170.155039 20.5833134,175.193798 C22.5212979,180.232558 27.9476545,183.333333 32.9864142,181.395349 L105.079437,156.589147 L134.149205,173.255814 L134.149205,226.356589 L134.536802,226.356589 L105.467034,243.023256 L33.3740111,218.217054 C28.3352514,216.27907 22.5212979,219.379845 20.9709103,224.418605 C19.0329258,229.457364 22.133701,235.271318 27.1724607,236.821705 L82.9864142,255.813953 L30.6608328,286.046512 C26.00967,288.75969 24.4592824,294.96124 27.1724607,299.612403 C29.885639,304.263566 36.0871894,305.813953 40.7383521,303.100775 L93.0639335,272.868217 L81.8236235,330.620155 C80.6608328,336.046512 84.1492049,341.085271 89.5755614,342.248062 C95.001918,343.410853 100.040678,339.922481 101.203468,334.496124 L115.932151,259.689922 L145.001918,243.023256 L167.870135,256.20155 L190.350755,269.379845 L190.350755,302.713178 L132.986414,352.713178 C128.722848,356.20155 128.335251,362.403101 132.21122,366.666667 C135.699592,370.930233 141.901143,371.317829 146.164709,367.44186 L190.350755,328.682171 L190.350755,389.922481 C190.350755,395.348837 194.614321,400 200.428275,400 C205.854631,400 210.505794,395.736434 210.505794,389.922481 L210.505794,329.457364 L254.691841,368.217054 C258.955406,371.705426 265.156957,371.317829 268.645329,367.44186 C272.133701,363.178295 271.746104,356.976744 267.870135,353.488372 L209.7306,303.100775 L209.7306,269.767442 L232.21122,256.589147 L254.691841,243.410853 L283.761608,260.077519 L298.49029,334.883721 C299.653081,340.310078 304.691841,343.79845 310.118197,342.635659 C315.544554,341.472868 319.032926,336.434109 317.870135,331.007752 L306.629825,273.255814 L358.955406,303.488372 C363.606569,306.20155 369.80812,304.651163 372.521298,300 C375.234476,295.348837 373.684089,289.147287 369.032926,286.434109 L316.707344,256.20155 L372.521298,237.209302 C377.560058,235.271318 380.660833,229.844961 378.722848,224.806202 C376.784864,219.767442 371.358507,216.666667 366.319747,218.604651 Z M244.226724,200 L244.226724,226.356589 L221.746104,239.534884 L199.653081,252.325581 L176.784864,239.147287 L154.304244,225.968992 L154.304244,173.643411 L176.784864,160.465116 L199.265484,147.286822 L221.746104,160.465116 L222.133701,160.852713 L244.226724,173.643411 L244.226724,200 L244.226724,200 Z" fill="#000000" fill-rule="nonzero"></path>
    </g>
</svg>