<?xml version="1.0" encoding="UTF-8"?>
<svg width="400px" height="400px" viewBox="0 0 400 400" version="1.1" xmlns="http://www.w3.org/2000/svg" xmlns:xlink="http://www.w3.org/1999/xlink">
    <title>snowflake2</title>
    <g id="snowflake2" stroke="none" stroke-width="1" fill="none" fill-rule="evenodd">
        <polygon fill="#000000" fill-rule="nonzero" points="366.375 237.960938 400 200.265625 366.375 162.570312 314.421875 188.546875 310.296875 188.546875 337.171875 161.671875 320.59375 145.109375 277.15625 188.546875 260.859375 188.546875 240.570312 153.390625 248.71875 139.28125 308.054687 123.382813 301.992187 100.75 265.289062 110.578125 267.5625 106.640625 317.757812 73.5 303.96875 22 252.46875 35.796875 249.117187 91.7109375 244.984375 98.8671875 235.140625 62.15625 212.507812 68.21875 228.414062 127.5625 220.273437 141.671875 179.671875 141.671875 171.53125 127.570312 187.429687 68.21875 164.796875 62.15625 154.960937 98.875 151.695312 93.2109375 148.257812 35.796875 96.7421875 22 82.96875 73.5 131.914062 105.8125 134.664062 110.578125 97.9609375 100.75 91.8984375 123.382812 151.234375 139.28125 159.375 153.40625 139.09375 188.546875 122.796875 188.546875 79.359375 145.109375 62.78125 161.671875 89.65625 188.546875 85.5859375 188.546875 33.625 162.570312 0 200.265625 33.625 237.960938 85.578125 211.984375 89.65625 211.984375 62.78125 238.859375 79.3515625 255.421875 122.796875 211.984375 139.09375 211.984375 159.375 247.125 151.226562 261.25 91.890625 277.148438 97.953125 299.78125 134.65625 289.953125 131.8125 294.875 82.71875 327.296875 96.5234375 378.78125 148.023438 364.992188 151.453125 307.742188 154.96875 301.664063 164.796875 338.375 187.429688 332.304688 171.53125 272.960938 179.671875 258.859375 220.273438 258.859375 228.414062 272.96875 212.507812 332.304688 235.140625 338.375 244.984375 301.671875 248.835938 308.34375 252.242188 364.984375 303.726563 378.78125 317.53125 327.296875 267.9375 294.546875 265.28125 289.953125 301.992188 299.78125 308.054688 277.148438 248.71875 261.25 240.570313 247.140625 260.859375 211.984375 277.15625 211.984375 320.59375 255.421875 337.164063 238.859375 310.296875 211.984375 314.414063 211.984375"></polygon>
    </g>
</svg>