<?xml version="1.0" encoding="UTF-8"?>
<svg width="400px" height="400px" viewBox="0 0 400 400" version="1.1" xmlns="http://www.w3.org/2000/svg" xmlns:xlink="http://www.w3.org/1999/xlink">
    <title>snowflake3</title>
    <g id="snowflake3" stroke="none" stroke-width="1" fill="none" fill-rule="evenodd">
        <path d="M361.882747,252.789503 C361.359479,250.783198 360.060136,249.067188 358.270917,248.019447 C356.481697,246.971705 354.349368,246.678178 352.343605,247.203519 L313.499531,257.359853 L291.577473,244.531621 L335.585653,231.953392 C338.269354,231.185822 340.339703,229.044822 341.016819,226.336884 C341.693935,223.628946 340.874948,220.765471 338.868364,218.825102 C336.861779,216.884734 333.972443,216.162259 331.288742,216.929829 L272.921068,233.59403 L250.991197,220.757986 L280.585194,207.898503 C283.441787,206.660172 285.290423,203.843927 285.290423,200.730475 C285.290423,197.617022 283.441787,194.800778 280.585194,193.562446 L249.139619,179.890457 L272.202312,166.40597 L330.569986,183.085796 C331.270531,183.289686 331.996645,183.392289 332.726254,183.390486 C336.634119,183.400295 339.948127,180.52113 340.484491,176.650237 C341.020855,172.779343 338.61457,169.107555 334.851272,168.054421 L290.858717,155.468379 L311.554203,143.35109 L352.343605,154.023054 C352.989595,154.187785 353.653523,154.27176 354.320184,154.273056 C357.875238,154.274953 360.983319,151.876465 361.882747,148.43707 L373.132841,105.467961 C373.658182,103.462198 373.364655,101.32987 372.316913,99.5406501 C371.269172,97.7514305 369.553162,96.4520876 367.546857,95.9288194 L324.577749,84.6943507 C322.571986,84.1690102 320.439657,84.4625373 318.650437,85.5102785 C316.861218,86.5580196 315.561875,88.2740301 315.038607,90.2803348 L304.882272,129.124409 L282.968027,141.952641 L293.538427,97.4210193 C294.535137,93.2205999 291.938017,89.0074945 287.737598,88.0107848 C283.537178,87.0140751 279.324073,89.6111949 278.327363,93.8116142 L264.303808,152.874607 L242.788004,165.476275 L246.170845,134.851019 C246.513411,131.778381 245.011801,128.79276 242.340786,127.235796 C239.669772,125.678831 236.331858,125.843438 233.826992,127.655647 L207.147082,146.905807 L207.147082,120.108709 L251.038073,78.1630462 C253.056082,76.2329586 253.89111,73.372889 253.22861,70.6601979 C252.566109,67.9475069 250.50673,65.7943167 247.826221,65.0117133 C245.145711,64.2291099 242.251304,64.9359893 240.233295,66.8660769 L207.147082,98.5147784 L207.147082,74.5380159 L236.95983,44.7330798 C238.426851,43.2676906 239.251151,41.279217 239.251151,39.20569 C239.251151,37.1321629 238.426851,35.1436893 236.95983,33.6783001 L205.568943,2.28741325 C202.518138,-0.762471084 197.572782,-0.762471084 194.521976,2.28741325 L163.131089,33.6783001 C161.664069,35.1436893 160.839768,37.1321629 160.839768,39.20569 C160.839768,41.279217 161.664069,43.2676906 163.131089,44.7330798 L191.521951,73.1161291 L191.521951,98.5147784 L158.435738,66.8973272 C156.417729,64.9672395 153.523322,64.26036 150.842812,65.0429634 C148.162303,65.8255668 146.102924,67.978757 145.440423,70.6914481 C144.777923,73.4041392 145.612951,76.2642088 147.63096,78.1942964 L191.521951,120.139959 L191.521951,146.952682 L164.826416,127.686897 C162.32155,125.874688 158.983636,125.710081 156.312621,127.267046 C153.641607,128.824011 152.139996,131.809631 152.482563,134.882269 L155.810716,165.038771 L135.083981,152.905857 L121.021363,93.8428645 C120.024653,89.6424451 115.811548,87.0453253 111.611129,88.0420349 C107.410709,89.0387446 104.813589,93.2518502 105.810299,97.4522696 L116.3807,141.983891 L94.505517,129.155659 L84.3491823,90.311585 C83.8259141,88.3052803 82.5265711,86.5892699 80.7373516,85.5415287 C78.9481321,84.4937876 76.8158033,84.2002605 74.8100402,84.7256009 L31.8409318,95.9600696 C27.6782717,97.0502147 25.1808078,101.301143 26.2549477,105.467961 L37.5050416,148.43707 C38.4044699,151.876465 41.5125506,154.274953 45.0676046,154.273056 C45.7342663,154.27176 46.3981937,154.187785 47.0441836,154.023054 L87.8335864,143.35109 L108.529072,155.468379 L64.5365171,168.054421 C60.7846431,169.119328 58.39282,172.788087 58.932244,176.650677 C59.4716679,180.513268 62.7770866,183.386387 66.6771599,183.382674 C67.4067695,183.384477 68.1328836,183.281874 68.8334279,183.077984 L127.185477,166.40597 L149.935667,179.687331 L118.060401,193.539009 C115.203808,194.77734 113.355173,197.593585 113.355173,200.707037 C113.355173,203.820489 115.203808,206.636734 118.060401,207.875066 L148.084089,220.92205 L126.466721,233.59403 L68.0990468,216.922016 C63.9504045,215.735457 59.6253691,218.1367 58.4388099,222.285342 C57.2522508,226.433984 59.6534936,230.75902 63.8021359,231.945579 L107.802503,244.531621 L85.9273205,257.367666 L47.0832465,247.211331 C45.0774834,246.685991 42.9451546,246.979518 41.1559351,248.027259 C39.3667156,249.075 38.0673726,250.791011 37.5441044,252.797315 L26.2549477,295.735174 C25.7296073,297.740937 26.0231344,299.873265 27.0708755,301.662485 C28.1186167,303.451704 29.8346271,304.751047 31.8409318,305.274316 L74.8100402,316.500972 C75.4549705,316.672066 76.1193801,316.758728 76.7866192,316.758786 C80.3439198,316.759757 83.4527427,314.357484 84.3491823,310.914988 L95.0055212,270.125585 L115.693194,258.016109 L105.122793,302.54773 C104.145553,306.735595 106.736509,310.925821 110.919716,311.922809 C111.513227,312.065645 112.121782,312.136468 112.732232,312.133748 C116.348999,312.130298 119.490573,309.644835 120.326045,306.125885 L134.388662,247.062893 L156.029468,234.375287 L152.482563,266.555243 C152.139996,269.627881 153.641607,272.613501 156.312621,274.170466 C158.983636,275.727431 162.32155,275.562824 164.826416,273.750615 L191.521951,254.484829 L191.521951,279.828791 L147.63096,321.774453 C145.612951,323.704541 144.777923,326.564611 145.440423,329.277302 C146.102923,331.989993 148.162302,334.143183 150.842812,334.925787 C153.523322,335.70839 156.417729,335.00151 158.435738,333.071423 L191.521951,301.453971 L191.521951,326.852621 L163.131089,355.274733 C160.081205,358.325538 160.081205,363.270894 163.131089,366.3217 L194.521976,397.712587 C197.572782,400.762471 202.518138,400.762471 205.568943,397.712587 L236.95983,366.3217 C240.009715,363.270894 240.009715,358.325538 236.95983,355.274733 L207.147082,325.461984 L207.147082,301.485222 L240.233295,333.102673 C242.251304,335.03276 245.145711,335.73964 247.826221,334.957036 C250.50673,334.174433 252.566109,332.021243 253.22861,329.308552 C253.89111,326.595861 253.056082,323.735791 251.038073,321.805704 L207.147082,279.860041 L207.147082,254.531705 L233.826992,273.781865 C236.331858,275.594074 239.669772,275.758681 242.340786,274.201716 C245.011801,272.644752 246.513411,269.659131 246.170845,266.586493 L242.569252,233.945596 L265.022564,247.094143 L279.085182,306.157136 C279.920654,309.676085 283.062228,312.161548 286.678995,312.164998 C287.289445,312.167718 287.898,312.096895 288.49151,311.954059 C292.674717,310.957071 295.265674,306.766845 294.288434,302.578981 L283.718033,258.047359 L304.382268,270.125585 L315.038607,310.938425 C315.935046,314.380922 319.043869,316.783194 322.60117,316.782224 C323.268409,316.782165 323.932818,316.695503 324.577749,316.52441 L367.546857,305.297753 C369.558367,304.774769 371.278579,303.471832 372.32691,301.677206 C373.375242,299.88258 373.665275,297.744202 373.132841,295.735174 L361.882747,252.789503 Z M257.866255,200.734381 L234.28012,210.984467 L215.162774,199.789061 L232.428543,189.679601 L257.866255,200.734381 Z M328.179341,101.827306 L355.999886,109.100804 L348.726388,136.929161 L320.913656,129.686913 L328.179341,101.827306 Z M228.701949,150.663651 L225.975364,175.343544 L207.147082,186.367074 L207.147082,166.210656 L228.701949,150.663651 Z M200.04546,18.8656765 L220.358129,39.178346 L200.04546,59.4910154 L179.73279,39.178346 L200.04546,18.8656765 Z M169.951459,150.663651 L191.521951,166.226281 L191.521951,185.937383 L172.615544,174.87479 L169.951459,150.663651 Z M50.6535887,136.929161 L43.3800906,109.100804 L71.2006351,101.827306 L78.4741333,129.686913 L50.6535887,136.929161 Z M140.779341,200.734381 L166.638931,189.499912 L184.225015,199.789061 L164.787353,211.164156 L140.779341,200.734381 Z M71.2006351,299.399267 L43.3800906,292.125768 L50.6535887,264.305224 L78.4741333,271.578722 L71.2006351,299.399267 Z M169.951459,250.781674 L172.842108,224.539267 L191.521951,213.601676 L191.521951,235.211231 L169.951459,250.781674 Z M200.04546,381.110886 L179.73279,360.798216 L200.04546,340.485547 L220.358129,360.798216 L200.04546,381.110886 Z M228.701949,250.781674 L207.147082,235.234669 L207.147082,213.211048 L225.756612,224.101764 L228.701949,250.781674 Z M328.187154,299.375829 L320.913656,271.555284 L348.7342,264.281786 L356.007698,292.102331 L328.187154,299.375829 Z" fill="#000000" fill-rule="nonzero"></path>
    </g>
</svg>