<?xml version="1.0" encoding="UTF-8"?>
<svg width="400px" height="400px" viewBox="0 0 400 400" version="1.1" xmlns="http://www.w3.org/2000/svg" xmlns:xlink="http://www.w3.org/1999/xlink">
    <title>sparkle2</title>
    <g id="sparkle2" stroke="none" stroke-width="1" fill="none" fill-rule="evenodd">
        <path d="M200.999352,0 C200.999352,0 212.697281,61.8820454 213.816774,170.386826 C214.559499,170.710665 215.288237,171.059973 216.001213,171.435191 C253.998587,122.118534 291.321932,109.677419 291.321932,109.677419 C275.263747,138.167226 254.329394,163.606079 229.480485,184.840046 C229.887267,185.60279 230.264726,186.384571 230.61083,187.1831 C339.117306,188.302071 400.999352,200 400.999352,200 L400.994244,200.000965 L400.953422,200.008623 C399.964003,200.193548 383.009029,203.322581 352.03161,206.451613 C323.152034,209.368742 282.137711,212.285871 230.61082,212.81744 C230.288373,213.560801 229.939211,214.289205 229.56416,215.001862 C278.880817,252.999236 291.321932,290.322581 291.321932,290.322581 C262.832126,274.264395 237.393272,253.330042 216.159306,228.481133 C215.396562,228.887915 214.614781,229.265374 213.816252,229.611478 C212.697281,338.117955 200.999352,400 200.999352,400 L200.998387,399.994892 L200.990729,399.95407 C200.805803,398.964652 197.676771,382.009677 194.547739,351.032258 C191.63061,322.152683 188.713481,281.138359 188.181911,229.611469 C187.43855,229.289021 186.710146,228.939859 185.99749,228.564809 C148.000116,277.881466 110.676771,290.322581 110.676771,290.322581 C126.734956,261.832774 147.669309,236.393921 172.518219,215.159954 C172.111436,214.39721 171.733977,213.615429 171.387873,212.8169 C62.881397,211.697929 0.999351595,200 0.999351595,200 L1.04528121,199.991377 C2.03469998,199.806452 18.9896742,196.677419 49.9670935,193.548387 C78.8466691,190.631258 119.860992,187.714129 171.387883,187.18256 C171.71033,186.439199 172.059492,185.710795 172.434543,184.998138 C123.117886,147.000764 110.676771,109.677419 110.676771,109.677419 C139.166578,125.735605 164.605431,146.669958 185.839397,171.518867 C186.602141,171.112085 187.383922,170.734626 188.182452,170.388522 C189.301422,61.8820454 200.999352,0 200.999352,0 Z" id="sparkle3" fill="#000000" fill-rule="nonzero"></path>
    </g>
</svg>