<?xml version="1.0" encoding="UTF-8"?>
<svg width="400px" height="400px" viewBox="0 0 400 400" version="1.1" xmlns="http://www.w3.org/2000/svg" xmlns:xlink="http://www.w3.org/1999/xlink">
    <title>sparkle2 2</title>
    <g id="sparkle2" stroke="none" stroke-width="1" fill="none" fill-rule="evenodd">
        <path d="M200,400 C196.184,400 192.904,397.312 192.16,393.568 L161.184,238.68 L22.264,207.808 C18.6,207 16,203.752 16,200 C16,196.248 18.6,193 22.264,192.192 L161.176,161.32 L192.16,6.432 C192.904,2.688 196.184,0 200,0 C203.816,0 207.096,2.688 207.84,6.432 L238.816,161.32 L377.728,192.192 C381.4,193 384,196.248 384,200 C384,203.752 381.4,207 377.736,207.808 L238.824,238.68 L207.84,393.568 C207.096,397.312 203.816,400 200,400 Z M60.872,200 L169.728,224.192 C172.824,224.88 175.224,227.328 175.84,230.432 L200,351.208 L224.16,230.432 C224.776,227.328 227.176,224.88 230.272,224.192 L339.128,200 L230.272,175.808 C227.176,175.12 224.776,172.672 224.16,169.568 L200,48.792 L175.84,169.568 C175.224,172.672 172.824,175.12 169.728,175.808 L60.872,200 Z" fill="#000000" fill-rule="nonzero"></path>
    </g>
</svg>