<?xml version="1.0" encoding="UTF-8"?>
<svg width="400px" height="400px" viewBox="0 0 400 400" version="1.1" xmlns="http://www.w3.org/2000/svg" xmlns:xlink="http://www.w3.org/1999/xlink">
    <title>star2</title>
    <g id="star2" stroke="none" stroke-width="1" fill="none" fill-rule="evenodd">
        <path d="M303.613664,391.686737 C298.354783,391.686737 293.175041,390.405946 288.52687,387.946202 L202.176099,342.561135 C200.81708,341.834576 199.185022,341.834576 197.826004,342.561135 L111.489087,387.946202 C100.574748,393.689671 87.3457521,392.736359 77.3676826,385.487334 C67.3896131,378.238309 62.3942218,365.951682 64.4831242,353.796571 L80.969153,257.665014 C81.2263699,256.135519 80.7072427,254.578138 79.5837724,253.508872 L9.78829946,185.38971 C0.947918345,176.776846 -2.22927584,163.888376 1.59508565,152.15347 C5.41944713,140.418564 15.5806041,131.877012 27.7982468,130.126879 L124.262296,116.120681 C125.786145,115.898959 127.102656,114.940083 127.781162,113.557727 L170.908059,26.0709444 C176.35743,15.0069908 187.619408,8 199.952563,8 C212.285718,8 223.547696,15.0069908 228.997067,26.0709444 L272.151671,113.53002 C272.835808,114.907634 274.149474,115.864438 275.670538,116.092974 L372.21771,130.113025 C384.429017,131.873069 394.581382,140.414753 398.404238,152.145037 C402.227093,163.875321 399.05708,176.758717 390.227657,185.375856 L320.362915,253.453457 C319.24367,254.525402 318.725305,256.080496 318.977534,257.609599 L335.463563,353.741156 C337.068808,363.142557 334.454486,372.773947 328.315999,380.073409 C322.177513,387.37287 313.137221,391.600336 303.59981,391.631315 L303.613664,391.686737 Z M200.001051,314.299371 C205.255245,314.298183 210.429962,315.58235 215.073992,318.039899 L301.410909,363.411112 C302.9735,364.304372 304.920451,364.167648 306.342864,363.064767 C307.826419,362.047143 308.561811,360.24407 308.213127,358.479158 L291.713245,262.333746 C289.924081,251.830362 293.403489,241.117719 301.023002,233.670222 L370.887744,165.578768 C372.160067,164.332854 372.615572,162.473097 372.063038,160.780226 C371.510504,159.087356 370.045574,157.854407 368.283229,157.598975 L271.749911,143.56507 C261.199146,142.03734 252.078509,135.409331 247.367213,125.846053 L204.157193,38.3731239 C203.367818,36.7762791 201.740789,35.7656046 199.95949,35.7656046 C198.178191,35.7656046 196.551161,36.7762791 195.761787,38.3731239 L152.63489,125.818345 C147.920903,135.385292 138.794248,142.013908 128.238338,143.537363 L31.7188738,157.598975 C29.9525696,157.848821 28.4830262,159.083334 27.9321844,160.780045 C27.3813426,162.476756 27.8454986,164.33905 29.1282122,165.578768 L98.9791004,233.670222 C106.598614,241.117719 110.078022,251.830362 108.288858,262.333746 L91.7889752,358.479158 C91.4835694,360.241487 92.208761,362.023855 93.6578063,363.072351 C95.1068515,364.120847 97.0266065,364.252302 98.6050476,363.411112 L184.928111,318.026045 C189.575373,315.578568 194.7487,314.299501 200.001051,314.299371 L200.001051,314.299371 Z" fill="#000000" fill-rule="nonzero"></path>
    </g>
</svg>