<?xml version="1.0" encoding="UTF-8"?>
<svg width="400px" height="400px" viewBox="0 0 400 400" version="1.1" xmlns="http://www.w3.org/2000/svg" xmlns:xlink="http://www.w3.org/1999/xlink">
    <title>star</title>
    <g id="star" stroke="none" stroke-width="1" fill="none" fill-rule="evenodd">
        <path d="M395.749715,167.590197 L308.097859,253.032816 L328.797149,373.710664 C329.69773,378.987506 327.530707,384.320634 323.196661,387.472667 C320.748207,389.259758 317.83539,390.160339 314.922574,390.160339 C312.685193,390.160339 310.43374,389.625619 308.37929,388.542107 L200,331.56629 L91.6347814,388.528036 C86.9067313,391.032776 81.1514561,390.624701 76.8174103,387.458596 C72.4833644,384.306562 70.3163414,378.973434 71.2169224,373.696593 L91.9162129,253.018744 L4.2502849,167.590197 C0.422815813,163.847157 -0.970270363,158.246669 0.690175786,153.16683 C2.35062194,148.08699 6.7550257,144.358022 12.0600104,143.584085 L133.202221,125.994614 L187.377795,16.2081656 C192.119917,6.59727814 207.880083,6.59727814 212.622205,16.2081656 L266.797779,125.994614 L387.93999,143.584085 C393.244974,144.358022 397.649378,148.072919 399.309824,153.16683 C400.97027,158.260741 399.577184,163.833086 395.749715,167.590197 Z" fill="#000000" fill-rule="nonzero"></path>
    </g>
</svg>