<svg xmlns="http://www.w3.org/2000/svg" viewBox="0 0 1620 87" preserveAspectRatio="none" aria-hidden="true" class="grimlock-divider-svg grimlock-divider-svg--triangles">
  <path fill-rule="evenodd" d="M1580.77.06 1620 20.11v67.41H0v-67.4L39.23.05 78.45 20.1 117.68.06l39.22 20.05h.01L196.13.06l36.9 18.86L269.93.06l39.22 20.05L348.38.06 384 18.26 419.61.06l39.23 20.05L498.07.06l39.22 20.05h.46L576.97.06l39.22 20.05h.01L655.42.06l39.23 20.05L733.88.06l39.22 20.05L812.33.06l36.9 18.86L886.12.06l39.23 20.05L964.58.06l35.61 18.2 35.62-18.2 39.22 20.05h.01L1114.26.06l39.23 20.05h.46L1193.17.06l39.22 20.05h.01L1271.62.06l39.22 20.05h.01L1350.08.06l39.22 20.05L1428.53.06l36.89 18.86 36.9-18.86 39.22 20.05h.01z"/>
</svg>