<?xml version="1.0" encoding="UTF-8"?>
<svg width="390px" height="385px" viewBox="0 0 390 385" version="1.1" xmlns="http://www.w3.org/2000/svg" xmlns:xlink="http://www.w3.org/1999/xlink">
    <title>corner-1</title>
    <g id="corner-1" stroke="none" stroke-width="1" fill="none" fill-rule="evenodd">
        <g id="Group" transform="translate(-18.000000, -11.000000)" fill="#15101B">
            <g id="Halloween/Features/Web" transform="translate(210.000000, 205.000000) scale(1, -1) translate(-210.000000, -205.000000) ">
                <path d="M407,13 L406.85,14.37 C406.83,14.47 396.48,79.04 342.34,147.74 C312.294175,185.853531 268.751207,225.217025 206.046465,255.503979 L209.93,377.29 L207.93,377.35 L204.071059,256.452077 C154.104611,280.281318 92.0881913,298.352577 15.21,305.54 L15.21,305.54 L14.1,305.64 L15.765,181.771 L15.71,181.76 L15.769,181.449 L18.02,13.99 L407,13 Z M16.134,303.442 L15.02,303.55 L15.02,303.55 L15.12,304.54 L16.12,304.56 L16.134,303.442 Z M34.622083,250.138813 C28.496021,250.589355 22.2624543,250.899012 15.92,251.06 L16.838,251.032 L16.134,303.442 L20.0701106,303.059369 C26.2159961,302.440548 32.2649551,301.751718 38.2184955,300.995576 Z M110.629987,236.294042 C87.9354532,243.101665 63.3040549,247.882782 36.62018,249.986577 L40.2062797,300.740155 C72.8634309,296.495158 102.634027,290.219385 129.769641,282.362773 L128.62,279.24 Z M170.116675,211.988714 C152.507195,221.260666 133.34818,229.337878 112.549338,235.712067 L130.46,278.47 L131.604733,281.827874 C157.855771,274.124736 181.624425,264.938687 203.141481,254.682484 Z M230.00565,171.831584 C212.89907,186.062206 193.591746,199.452375 171.912123,211.036366 L204.986453,253.797797 C233.449463,240.067803 257.936639,224.463535 278.991894,207.957778 Z M17.7651765,182.148389 L16.8680434,249.033298 C22.8361081,248.866111 28.7066058,248.566698 34.480748,248.141628 L29.9510154,184.053825 C25.9501697,183.541626 21.8883079,182.908427 17.7651765,182.148389 Z M88.2570597,182.890815 C78.0110464,184.739056 67.2276207,185.74 55.89,185.74 C48.1776642,185.74 40.2067772,185.278301 31.9750941,184.303274 L36.4761037,247.989443 C62.9304879,245.901451 87.3496305,241.171472 109.851393,234.438486 Z M135.421692,167.13222 C121.720207,174.011012 106.691799,179.354475 90.2658741,182.516314 L111.773538,233.857059 C132.400928,227.549927 151.404143,219.558582 168.875314,210.382505 Z M180.686176,135.461249 C171.32309,144.096927 160.986991,152.158477 149.62,159.19 C145.620918,161.663995 141.494004,164.009916 137.237085,166.207873 L170.670229,209.432773 C192.182437,197.965799 211.348569,184.707171 228.343754,170.606339 Z M277.526987,124.499375 C275.741823,126.613328 273.916327,128.731113 272.05,130.85 C260.242036,144.258809 246.793605,157.711782 231.58115,170.513376 L280.617971,206.675876 C302.482029,189.342575 320.597819,171.048216 335.59,152.91 C336.422918,151.901931 337.246258,150.894279 338.060125,149.887239 Z M28.4072599,133.847037 L31.8307725,182.271378 C40.1202714,183.267698 48.1384468,183.74 55.89,183.74 C66.9479935,183.74 77.4663879,182.778869 87.4653,181.001695 L69.0752586,137.104208 C65.4459034,137.456667 61.7603219,137.64 58.02,137.64 C48.4887399,137.64 38.6100036,136.45279 28.4072599,133.847037 Z M18.4545229,130.881975 L17.7929293,180.122346 C21.8587164,180.876293 25.8631608,181.506475 29.8067609,182.01837 L26.3644767,133.307471 C23.7487118,132.593719 21.1119303,131.786503 18.4545229,130.881975 Z M105.010366,127.815399 C94.3767049,132.313334 83.0724229,135.506913 71.1511313,136.883559 L89.4761227,180.632011 C105.734503,177.543284 120.603661,172.292725 134.171919,165.517316 Z M213.905133,97.8165802 C204.929462,110.162107 194.396943,122.598128 182.17446,134.076133 L229.922054,169.289203 C243.145166,158.190007 255.036322,146.590939 265.68,134.95 C269.113143,131.195189 272.416094,127.436066 275.591634,123.688074 Z M141.092707,106.263054 C135.569205,110.55881 129.768167,114.594427 123.7,118.25 C118.312463,121.493688 112.712195,124.437373 106.908117,126.995786 L135.990285,164.596232 C139.466283,162.810403 142.85568,160.924662 146.16,158.95 C158.242931,151.72924 169.183581,143.317143 179.046301,134.252245 Z M312.873645,75.9125136 C303.796969,90.4576505 292.540326,106.542326 278.872029,122.898251 L339.360097,148.269195 C355.782992,127.706884 368.27356,107.443165 377.714455,89.1311943 Z M26.6092184,108.400634 L28.2581336,131.738892 C38.5292965,134.421778 48.4558713,135.64 58.02,135.64 C61.4831755,135.64 64.8989888,135.480041 68.2664379,135.171609 L57.894909,110.41294 C55.3955853,110.575978 52.8540109,110.66 50.27,110.66 C42.74394,110.66 34.8560174,109.949677 26.6092184,108.400634 Z M87.0444676,104.58901 C78.6635211,107.460342 69.6519361,109.448368 59.998684,110.256319 L70.3463428,134.961646 C82.0907871,133.666099 93.2373463,130.572123 103.742756,126.175815 Z M169.888322,79.3558492 C161.809058,88.2393118 152.732652,97.0262611 142.722925,104.981345 L180.537458,132.869127 C190.470136,123.571855 199.288329,113.625899 207.06,103.6 C208.759351,101.408435 210.40861,99.213136 212.008499,97.0200869 Z M18.778921,106.700278 L18.4822131,128.77106 C21.080477,129.669768 23.6579277,130.473796 26.2142933,131.186893 L24.5770587,108.003351 C22.6633735,107.614601 20.7306487,107.180767 18.778921,106.700278 Z M117.539223,88.8925627 C114.022227,91.3610747 110.336619,93.6977588 106.48,95.86 C101.010524,98.9300978 95.1968004,101.646385 89.0342834,103.88654 L105.644239,125.362908 C110.883863,123.075524 115.960946,120.466909 120.87,117.6 C127.35454,113.813001 133.543347,109.574102 139.422209,105.030055 Z M237.15806,60.4789589 C235.561776,63.4813735 233.859958,66.5721105 232.05,69.73 C227.195938,78.1912353 221.564998,87.1356999 215.105166,96.1537022 L276.939952,122.088286 C290.522343,105.887537 301.727154,89.9362896 310.779599,75.4851611 Z M47.4328052,85.4400499 C42.6566363,85.8974542 37.6266914,86.14 32.33,86.14 C29.9478806,86.14 27.513731,86.0914384 25.0261065,85.9914261 L26.4628382,106.33512 C34.7801951,107.928504 42.7137955,108.66 50.27,108.66 C52.5736556,108.66 54.8425895,108.592175 57.0770658,108.460162 Z M69.1937575,81.5087122 C63.1816168,83.1672284 56.6365677,84.4382419 49.5135219,85.225507 L59.1849495,108.315906 C68.6648736,107.57809 77.5138551,105.683203 85.7526375,102.917284 Z M19.0614684,85.6589065 L18.8071213,104.648366 C20.7003518,105.119319 22.5746726,105.54608 24.4301527,105.930064 L23.0152414,85.8999117 C21.7118347,85.8337219 20.3939773,85.7535207 19.0614684,85.6589065 Z M141.744543,67.5516744 C135.237122,74.5903964 127.75111,81.5071877 119.250969,87.6712472 L141.057011,103.752369 C150.935295,95.946763 159.917175,87.3017433 167.9332,78.5344951 Z M93.6411266,71.2689889 C91.5362478,72.5117561 89.327508,73.7022346 87.01,74.83 C82.2347646,77.1560459 77.0008545,79.2141415 71.2666441,80.915432 L87.7493089,102.225801 C93.4786035,100.180636 98.9064227,97.7154535 104.04,94.93 C108.165456,92.6900806 112.099174,90.2430561 115.843334,87.6413896 Z M192.362588,51.3478516 C191.973096,51.8956046 191.578893,52.4463926 191.18,53 C185.489612,60.8924155 178.847227,69.3618388 171.307062,77.7835846 L213.210841,95.3595761 C221.999972,83.1299903 229.257332,71.0174843 235.10817,60.0616489 Z M405,15 L343.802,15.157 L343.76,15.32 C343.73953,15.3728265 334.807318,40.3800976 313.996828,74.1025864 L378.66028,87.283208 C397.634516,49.93802 403.863408,21.065722 405,15 L405,15 Z M113.234067,55.593337 C108.410462,60.7461309 102.563344,65.7418707 95.4891621,70.1481542 L117.562695,86.4264261 C125.935571,80.4106496 133.331934,73.6385889 139.777314,66.7252904 Z M40.9930319,70.0654418 C36.4528139,70.8495895 31.7198497,71.28 26.8,71.28 C25.8672036,71.28 24.9278824,71.2645777 23.9820363,71.2331552 L24.883351,83.9829389 C27.4237091,84.0884366 29.9053986,84.14 32.33,84.14 C37.3377317,84.14 42.0983297,83.9207766 46.6241399,83.5070219 Z M19.2602284,70.9455259 L19.0888609,83.6550522 C20.3643982,83.7459948 21.6258462,83.8238235 22.8733854,83.8888092 L21.9720824,71.1426503 C21.073902,71.0916142 20.1699507,71.0260663 19.2602284,70.9455259 Z M56.9479562,65.6759787 C52.5350141,67.3544351 47.8851301,68.7261902 43.0058618,69.6923723 L48.7072379,83.3011783 C55.6434997,82.5639597 62.0148494,81.3641143 67.8679322,79.7949325 Z M74.2471445,56.9661336 C71.0038886,59.0163749 67.5734666,60.9391986 63.96,62.67 C62.3076662,63.4594484 60.6171554,64.2088706 58.8889438,64.9120354 L69.9509398,79.2147515 C75.616972,77.5766893 80.7816212,75.5883636 85.49,73.34 C87.7238471,72.2749307 89.8552613,71.1507864 91.8888376,69.9769796 Z M159.729947,44.6960402 C159.430691,45.1422564 159.127374,45.5903237 158.82,46.04 C154.48201,52.3863189 149.277711,59.2199365 143.175755,65.9844198 L169.356661,76.9651587 C177.325329,68.1089023 184.301294,59.1761739 190.212716,50.9100017 Z M341.687912,15.1630938 L256.783139,15.3803457 C256.727673,15.5843175 256.663294,15.8108689 256.59,16.06 C256.581278,16.1036106 250.912552,34.230324 238.130675,58.635803 L311.907333,73.6747725 C330.920801,42.9801343 340.092849,19.4157367 341.64,15.29 C341.656976,15.2454386 341.672938,15.2031286 341.687912,15.1630938 Z M35.1645759,56.154733 C31.3537087,57.7902908 27.3536048,59.1018297 23.1862298,59.9668491 L23.8403875,69.2277126 C24.8344623,69.2628698 25.8209998,69.28 26.8,69.28 C31.4372454,69.28 35.9050996,68.8882385 40.1989902,68.1711996 Z M21.2083025,60.3412609 C20.6085966,60.4438197 20.0055815,60.5369693 19.3993202,60.620358 L19.2867138,68.9421465 C20.1398161,69.0190226 20.987613,69.0822567 21.8301044,69.1323784 Z M89.3223358,45.5651424 C85.3493471,49.0947869 80.9178578,52.5864012 76.0428113,55.8057362 L93.7559112,68.8689121 C100.72997,64.6144382 106.499713,59.7761298 111.267991,54.7695399 Z M45.4172352,50.7694296 C43.5988095,51.9002492 41.7220873,52.9729934 39.79,53.97 C38.8704529,54.4441415 37.938324,54.9009374 36.9939646,55.3384301 L42.2172589,67.8079946 C46.916364,66.9012236 51.4007968,65.6075985 55.6643282,64.0176925 Z M126.12655,37.8466316 C123.253481,43.0318682 119.511414,48.5917611 114.665236,54.026861 L141.216316,65.1623644 C141.492702,64.8584083 141.767262,64.5542695 142.04,64.25 C148.128899,57.4608472 153.310052,50.6057585 157.61006,44.2642906 Z M55.7394317,43.3181192 C53.0477833,45.5363859 50.1672723,47.689251 47.1126743,49.6876867 L57.6140647,63.2641179 C62.9420255,61.1321438 67.9121935,58.5448005 72.511811,55.6875834 Z M19.69,38.862 L19.4258924,58.5970374 C19.9753442,58.5183242 20.5221823,58.4312963 21.0663555,58.3362253 L19.69,38.862 Z M254.778922,15.3848385 L214.461852,15.4905886 C212.158322,19.972903 205.033023,33.2871038 193.622911,49.5628074 L236.085201,58.218255 C247.756801,36.0294345 253.545208,18.9497701 254.53,15.94 C254.5925,15.74 254.635469,15.6064063 254.658906,15.5343359 L254.677656,15.4770703 L254.677656,15.4770703 C254.713311,15.4411927 254.746285,15.4128055 254.778922,15.3848385 Z M20.43,20.98 L23.0432708,57.9534324 C26.9794231,57.1168189 30.7693728,55.8667782 34.3930223,54.309915 L20.43,20.98 Z M64.5972117,35.1942737 C62.3727812,37.4492019 59.9402604,39.7459828 57.3145835,41.9946328 L74.3216658,54.5373728 C79.0565414,51.4599409 83.3795117,48.1110923 87.2757269,44.7067462 Z M22.867,21.614 L36.2206505,53.4925871 C36.855854,53.1973492 37.485675,52.8929528 38.11,52.58 C40.1995749,51.5338917 42.2270411,50.3928756 44.18814,49.1801799 L22.867,21.614 Z M101.801404,32.8888169 C101.577249,33.1477065 101.350112,33.408139 101.12,33.67 C98.2066005,36.9892804 94.8152157,40.5392715 90.9609029,44.0839376 L112.716893,53.2097045 C113.832179,51.9785968 114.888894,50.7400062 115.89,49.5 C119.184009,45.4199212 121.876454,41.3228755 124.070451,37.4274373 Z M212.207821,15.4943928 L175.754315,15.5889222 C175.268889,16.7340797 174.065666,19.4884128 172.156814,23.3177573 L171.825419,23.9791932 C169.310117,28.9742408 165.667235,35.6403837 160.92139,42.8970139 L191.479269,49.1262619 C202.406557,33.6267824 209.479827,20.7224571 212.207821,15.4943928 Z M24.19,20.05 L45.8868576,48.1014851 C48.7751291,46.2192838 51.5107275,44.1905147 54.0792018,42.0940002 L24.19,20.05 Z M72.1581755,26.8455721 C71.3313342,27.8381604 70.4479474,28.87 69.51,29.93 C68.44073,31.1399237 67.3005515,32.3864452 66.0921976,33.6530978 L88.9320084,43.2332732 C92.9788662,39.5666274 96.5265673,35.8751306 99.5547008,32.4304885 Z M173.67216,15.5924708 L134.775353,15.6938735 C133.973339,19.2531958 131.870525,26.9476019 127.118496,36.0069836 L158.813607,42.46854 C168.038379,28.5429178 172.885213,17.4513365 173.65,15.64 C173.657863,15.6232906 173.665243,15.6074507 173.67216,15.5924708 Z M26.334,19.147 L55.6619598,40.7761197 C56.7893996,39.8187859 57.8821891,38.8509977 58.939,37.88 C60.2160958,36.7068917 61.4400515,35.5295594 62.6084245,34.3610558 L26.334,19.147 Z M132.723179,15.7000007 L113.17,15.75 L114.06,16.26 C114.041777,16.3055584 110.353956,22.7106446 103.283999,31.1482259 L125.076977,35.5904035 C129.723011,26.8704398 131.864824,19.3777516 132.723179,15.7000007 Z M28.77,18 L64.1178103,32.8252597 C66.2719496,30.5956375 68.2161255,28.420011 69.9329114,26.3914975 L28.77,18 Z M112.035496,15.7529412 L80.3652203,15.8348974 C79.6882806,16.890956 77.3498739,20.4283299 73.591924,25.0950928 L101.056806,30.6930425 C107.280649,23.3728633 111.011029,17.4501289 112.035496,15.7529412 Z M77.972445,15.8409771 L28.811,15.967 L71.3856709,24.6453556 C74.5725806,20.7485659 76.8156801,17.5599184 77.972445,15.8409771 Z" id="Web"></path>
                <path d="M231.3,365.87 L241.96,373.8 L240.77,375.4 L231.19,368.28 L221.277607,374.275647 C222.255578,375.968707 222.898818,377.879298 223.117242,379.916789 L232.12,376.06 L241.39,382.06 L240.3,383.74 L231.93,378.32 L223.187953,382.06527 C223.121552,383.702788 222.782423,385.269359 222.214703,386.720843 L230.73,384.94 L239.14,391.72 L237.88,393.28 L230.21,387.09 L221.077807,389.004102 C218.545872,393.12498 213.996882,395.87 208.8,395.87 C203.964523,395.87 199.683973,393.487515 197.072187,389.829631 L188.95,388.13 L181.28,394.32 L180.02,392.76 L188.44,385.98 L195.719464,387.501954 C195.0014,385.946785 194.552461,384.241433 194.432472,382.445361 L187.23,379.36 L178.86,384.78 L177.77,383.1 L187.04,377.1 L194.449029,380.273801 C194.62573,378.12731 195.273672,376.113908 196.289112,374.337342 L187.97,369.31 L178.399,376.44 L177.2,374.83 L187.86,366.91 L197.398988,372.674817 C200.032999,369.266078 204.161141,367.07 208.8,367.07 C213.414315,367.07 217.517853,369.237445 220.152211,372.60809 L231.3,365.87 Z" id="Spider"></path>
            </g>
        </g>
    </g>
</svg>