<?xml version="1.0" encoding="UTF-8"?>
<svg width="614px" height="309px" viewBox="0 0 614 309" version="1.1" xmlns="http://www.w3.org/2000/svg" xmlns:xlink="http://www.w3.org/1999/xlink">
    <title>decoration-7</title>
    <g id="decoration-7" stroke="none" stroke-width="1" fill="none" fill-rule="evenodd">
        <g id="Group" transform="translate(308.107374, 174.202000) scale(-1, 1) translate(-308.107374, -174.202000) translate(2.214748, 4.202000)">
            <g transform="translate(339.785252, 14.650110)">
                <path d="M146.805434,1.01476483 C148.868547,0.914839064 150.92427,1.32772438 152.788804,2.21650546 L154.255482,2.92297766 L156.993322,4.25896101 L160.138289,5.81291158 L162.625942,7.05493328 L165.216593,8.35977113 L167.903478,9.72490003 C179.19098,15.4845466 190.483384,21.5501454 201.05897,27.6569967 C208.019956,31.6766045 214.445952,35.587744 220.232535,39.3563386 C221.183924,39.9759442 222.116865,40.5909488 223.031047,41.2012901 L224.834305,42.4157369 C227.501397,44.2280256 229.997785,45.9979732 232.315061,47.7239029 L233.619821,48.699645 L235.529524,50.1438709 L236.771276,51.0937698 L237.988117,52.0333394 L239.180214,52.9625843 L240.347732,53.881509 L242.053289,55.2405557 L243.160091,56.1337 L244.242899,57.01654 L245.822484,58.3214897 L246.846034,59.1785892 L247.846173,60.0254005 L248.823067,60.8619281 L250.24519,62.0974476 L251.164703,62.908286 L252.061554,63.7088567 L253.364707,64.8904708 L254.205635,65.6653922 L255.024486,66.4300619 L255.821426,67.1844845 L256.596622,67.9286644 L257.35024,68.6626063 L258.082448,69.3863148 L258.793412,70.0997943 L259.483299,70.8030495 C259.596533,70.919407 259.708895,71.0353386 259.82039,71.1508444 L260.478973,71.8387717 C260.587011,71.952575 260.694187,72.0659528 260.800507,72.1789052 L261.428162,72.8515147 L262.035406,73.5139182 L262.622407,74.1661201 L263.189331,74.8081251 L263.736344,75.4399377 L264.263614,76.0615624 L264.771307,76.6730039 L265.259589,77.2742667 L265.728628,77.8653553 L266.178591,78.4462743 C266.252004,78.5422469 266.324629,78.637796 266.39647,78.7329217 L266.81813,79.2985949 L267.22113,79.8541099 L267.605636,80.3994714 C267.668189,80.4895191 267.729977,80.5791439 267.791006,80.6683459 L268.119115,81.1559672 L268.479359,81.7168386 L268.659349,82.0088982 L268.920598,82.4545941 C270.805521,85.7874412 271.055852,89.7936874 269.615343,93.3267478 L269.470659,93.6671412 L242.39,154.854 L242.399471,154.900256 C242.517668,155.526193 242.586042,156.157648 242.606567,156.788784 L242.613019,157.261984 L242.609036,157.495212 C242.590007,159.320805 242.165064,161.172002 241.274984,162.919353 L241.077112,163.292149 L240.980565,163.465075 C240.622496,164.108932 240.208702,164.722796 239.742357,165.297274 L239.456269,165.63716 L239.388,165.713 L224.578,184.629 L224.652082,184.740649 C225.658518,186.251023 226.662763,187.769011 227.656216,189.283131 L229.137226,191.549975 L230.595597,193.802405 L231.933386,195.888793 L233.176096,197.847021 L234.210581,199.49369 L235.197258,201.080295 L235.828348,202.104833 L237.0261,204.074686 L238.137407,205.939585 L238.660443,206.832929 L239.161625,207.700338 L239.640874,208.541914 L240.098108,209.357758 L240.533246,210.14797 L240.946209,210.912653 L241.336915,211.651908 L241.705284,212.365835 L242.051235,213.054537 L242.374687,213.718114 L242.675559,214.356668 C242.723819,214.461014 242.771134,214.564322 242.817503,214.666593 L243.084355,215.267802 L243.328426,215.844241 C243.367201,215.938256 243.405024,216.031243 243.441893,216.123204 C245.123725,220.316732 244.991542,225.987064 243.442056,232.442902 L243.211102,233.370434 C242.569743,235.857702 241.72544,238.45419 240.700125,241.121678 L240.30719,242.125239 C239.905856,243.131979 239.479452,244.148032 239.029136,245.171382 L238.570892,246.197089 L238.096963,247.227214 C238.016682,247.399244 237.935758,247.57144 237.854197,247.743792 L237.357223,248.779702 C237.189043,249.12558 237.018357,249.472007 236.845206,249.818909 L236.318405,250.860966 L235.777075,251.905424 C235.685657,252.079675 235.593645,252.254008 235.501043,252.428413 L234.938403,253.475633 L234.361877,254.524135 C234.264647,254.698967 234.166848,254.873834 234.068488,255.048727 L233.471616,256.098312 C233.270437,256.448225 233.067051,256.798165 232.861501,257.148058 L232.2384,258.197519 C232.133482,258.372381 232.028033,258.547212 231.92206,258.722003 L231.279961,259.770195 C231.171909,259.944789 231.063343,260.119324 230.954268,260.293792 L230.293751,261.339708 C217.636289,281.183176 200.216141,296.871099 179.538837,304.162987 C177.288411,304.961215 174.922031,305.656564 172.406099,306.26062 L171.455548,306.482884 L170.468101,306.700408 L169.493199,306.904359 L168.021497,307.190372 L166.94759,307.383519 L165.855134,307.567062 L164.572065,307.766032 L162.697502,308.026499 L160.828005,308.251536 L159.626264,308.380482 L158.379967,308.500239 L157.120496,308.607373 L155.123612,308.751236 L153.835,308.825 L153.773326,308.831097 L151.821204,308.921163 L150.476792,308.967548 L148.408725,309.014551 L147.09567,309.02954 L145.970156,309.033129 L144.862491,309.029313 L142.590725,308.998186 L140.578397,308.945091 C139.918964,308.923721 139.257767,308.898709 138.590362,308.869837 L137.584044,308.823608 L135.747007,308.725348 L134.190849,308.628252 L132.344095,308.497121 C131.664203,308.445715 130.981617,308.390701 130.292434,308.331737 L129.137952,308.229749 L127.722289,308.096285 L125.687605,307.888138 L123.910634,307.691145 L121.72973,307.43054 L119.918232,307.198396 L118.011153,306.939144 L116.041682,306.655605 L115.524136,306.578309 C113.936365,306.340132 112.340075,306.085286 110.729454,305.812904 L108.71774,305.464672 L107.198353,305.191461 L106.298719,305.025643 L104.132852,304.613448 L103.460612,304.48188 C102.873617,304.366416 102.284646,304.248542 101.6893,304.127367 L100.79095,303.943017 L98.7255339,303.507572 L96.8954808,303.108747 L95.5700045,302.811943 L94.1274033,302.481731 L91.6572771,301.898143 L90.2119108,301.546137 L89.1203984,301.275068 C88.1031476,301.020481 87.0880424,300.760562 86.0749367,300.495303 L83.927609,299.924219 L81.5108449,299.2603 L79.8343691,298.786288 L79.1465448,298.588583 C78.1061495,298.288128 77.0720145,297.982975 76.0419888,297.672498 L74.7548426,297.281055 L73.4304586,296.871001 L71.5003567,296.259786 C70.5624264,295.958964 69.6310541,295.654328 68.6997628,295.343762 L67.2904488,294.869105 L65.6573439,294.307079 L64.5536773,293.920052 L63.0189849,293.371419 L61.1569015,292.688886 L58.9623819,291.860367 L56.4226873,290.865728 L55.2635248,290.398252 L53.0275057,289.470419 L51.0427983,288.617096 L49.7417623,288.040258 C49.3017459,287.84313 48.8656568,287.645208 48.4254668,287.442685 L46.6116577,286.593019 L44.6011449,285.612248 L43.9188031,285.268877 L43.257805,284.931621 L42.5938914,284.587144 L41.7592842,284.145538 L40.2805952,283.339282 L39.3757943,282.829133 L38.5899249,282.374451 C37.8880343,281.963995 37.2074332,281.552162 36.5355726,281.130676 L35.4854951,280.458542 L34.6089868,279.876134 L34.155197,279.566452 L33.5909417,279.172209 L33.3411274,278.994391 C32.6881395,278.526359 32.062041,278.056018 31.4739808,277.591404 L30.8377336,277.079186 L30.1115288,276.469109 L29.8398623,276.233145 L29.4019119,275.843296 L29.0283278,275.500355 L28.5322962,275.029233 C28.2824894,274.786968 28.0392505,274.543545 27.7964117,274.29229 C21.0273357,267.279479 15.5649636,257.391422 11.2900892,245.360109 C4.75720904,227.091449 1.00015636,203.863397 1.00015636,184.669129 C1.00015636,167.810819 10.7879656,156.201935 25.6345077,149.659516 C27.6901952,148.753637 29.7852677,147.970348 31.9009349,147.297134 L32.8088555,147.015316 L33.144,146.916 L29.303,127.673 L29.2650835,127.518061 C28.7578985,125.351167 28.8593412,123.171626 29.457944,121.16379 L29.5759809,120.789378 L29.636,120.611 L29.4981152,119.975464 C29.0994567,118.134579 28.7003025,116.245276 28.3039155,114.316868 L27.7118181,111.396091 C26.8280088,106.974426 25.9664673,102.37837 25.16436,97.7140145 L24.8992431,96.1568451 L24.690525,94.9080537 L24.239904,92.1345898 L23.9547056,90.3160664 L23.6818827,88.5221748 L23.4216095,86.753146 L23.1740601,85.0092112 L22.9394084,83.2906014 C22.9013843,83.0062897 22.8639049,82.7230429 22.8269737,82.4408657 L22.6119952,80.7606768 L22.4103496,79.1063909 C22.3778628,78.8328479 22.3459387,78.5603939 22.3145811,78.2890337 L22.1332615,76.6740353 C22.0751066,76.1401031 22.0192465,75.6105843 21.96571,75.0855176 L21.8121008,73.5237116 C21.7632408,73.0075872 21.7167336,72.4959533 21.672608,71.9888484 L21.5474056,70.4811593 L21.4366677,69.0008752 C21.4021852,68.5120404 21.3701424,68.0278116 21.3405684,67.5482273 L21.2592817,66.1234468 L21.1929818,64.7267647 L21.1418427,63.3584121 L21.1060385,62.0186201 C21.0264821,58.2632222 21.1336795,54.8545251 21.4454483,51.8161843 C21.8745943,47.6339445 24.3757631,43.9556947 28.0882044,42.0149592 L29.2036969,41.4679463 L32.0797396,40.0934644 L34.1575196,39.1129337 L36.3543086,38.0856623 L38.6655678,37.0144898 L41.9174664,35.5228772 C52.2693368,30.8021811 63.1742619,26.0816974 74.1469134,21.6679512 C81.5065558,18.7075369 88.6563509,15.9842749 95.520317,13.5480263 L97.447112,12.8689482 C97.7664928,12.7571941 98.0849963,12.6461548 98.4026203,12.5358333 L100.297791,11.8825424 L102.171746,11.2466244 L104.024376,10.6282245 C104.331365,10.5266257 104.637461,10.425763 104.942662,10.3256392 L106.763106,9.73378861 L108.561958,9.15981904 L110.339111,8.60387567 C110.927867,8.4215817 111.512989,8.2423163 112.094458,8.06610365 L113.827892,7.54664816 C114.40204,7.37656521 114.972517,7.20955921 115.539306,7.04565436 L117.228592,6.56326744 L118.895643,6.09963256 C119.723592,5.87252732 120.543163,5.65250854 121.354295,5.43965787 L122.96529,5.02353821 C123.765144,4.82028132 124.55652,4.62424698 125.339356,4.43551685 L126.893625,4.06781973 L128.425017,3.71974568 L129.933424,3.39143987 C130.182903,3.33837766 130.431421,3.28614517 130.678974,3.23474542 L132.152702,2.93636416 C132.396389,2.88830752 132.639106,2.84108967 132.880853,2.79471365 L134.319661,2.52658358 C138.838873,1.70964752 143.005902,1.19879316 146.805434,1.01476483 Z" id="Sticker" fill="#FFFFFF" fill-rule="nonzero"></path>
                <path d="M41.4501564,58.3331287 C41.4501564,58.3331287 42.6101564,117.137129 51.9301564,131.111129 C61.2401564,145.085129 43.7801564,126.453129 43.7801564,126.453129 C43.7801564,126.453129 31.5501564,75.7991287 33.8801564,53.0921287 C33.8801564,53.0921287 111.320156,15.2481287 147.410156,13.5001287 C147.410156,13.5001287 197.490156,37.3721287 224.850156,57.7501287 C252.220156,78.1281287 258.040156,88.6081287 258.040156,88.6081287 L226.600156,159.641129 L220.780156,159.059129 L249.890156,88.6081287 C249.890156,88.6081287 189.330156,44.9401287 149.740156,26.3101287 C149.740156,26.3101287 75.2201564,37.9551287 41.4501564,58.3331287" id="Handle" fill="#16101C"></path>
                <g id="Cauldron" transform="translate(13.500156, 123.584662)">
                    <path d="M27.95,1.12246648 C27.95,1.12246648 161.86,-9.35753352 216.59,33.7274665 L124.6,36.0564665 C124.6,36.0564665 32.61,12.1844665 27.95,1.12246648" id="Fill-995" fill="#16101C"></path>
                    <path d="M161.86,168.797466 C159.52,169.627466 157.01,170.323466 154.39,170.884466 C112.65,179.905466 38.1,157.353466 23.29,142.026466 C17.68,136.214466 13.1,127.529466 9.56,117.566466 C3.14,99.6134665 0,77.5774665 0,61.0844665 C0,35.4804665 34.35,33.1454665 34.35,33.1454665 L27.96,1.12246648 C46.49,11.8724665 82.69,19.3454665 118.46,24.3934665 C134.64,26.6834665 150.73,28.4554665 165.07,29.8474665 C165.18,29.8474665 165.29,29.8694665 165.4,29.8694665 C194.71,32.6754665 216.59,33.7284665 216.59,33.7284665 L195.63,60.5004665 C195.63,60.5004665 214.84,88.4614665 218.34,97.1914665 C221.84,105.918466 201.44,154.839466 161.86,168.797466" id="Fill-996" fill="#6A4C8D"></path>
                    <path d="M132.47,172.948466 C90.55,172.948466 35.76,154.928466 23.29,142.026466 C17.68,136.214466 13.1,127.529466 9.56,117.566466 C15.59,121.896466 23.27,127.620466 32.02,134.462466 C40.92,141.437466 50.63,143.940466 59.56,143.940466 C72.24,143.940466 83.38,138.900466 88.5,134.462466 C97.23,126.879466 87.33,119.317466 86.75,98.9404665 C86.17,78.5654665 105.96,48.8754665 105.96,48.8754665 L103.65,22.6664665 L118.46,24.3934665 C134.64,26.6834665 150.73,28.4554665 165.07,29.8474665 C165.18,29.8474665 165.29,29.8694665 165.4,29.8694665 L183.4,31.9784665 L176.42,58.7734665 C176.42,58.7734665 191.55,70.9794665 191.55,109.421466 C191.55,128.786466 172.9,152.303466 154.39,170.884466 C147.78,172.311466 140.35,172.948466 132.47,172.948466" id="Fill-998" fill="#462B71"></path>
                    <path d="M33.36,35.1594665 C33.57,35.2584665 90.21,63.0254665 180.13,63.0294665 C185.22,63.0294665 190.41,62.9404665 195.71,62.7524665 L195.55,58.2674665 C190.31,58.4534665 185.16,58.5414665 180.13,58.5414665 C135.63,58.5414665 99.39,51.6664665 74.29,44.8004665 C61.74,41.3684665 51.97,37.9374665 45.36,35.3714665 C42.06,34.0884665 39.54,33.0224665 37.85,32.2794665 C37.01,31.9074665 36.37,31.6174665 35.95,31.4214665 C35.74,31.3234665 35.59,31.2494665 35.48,31.2004665 L35.37,31.1454665 L35.34,31.1304665 L33.36,35.1594665" id="Fill-999" fill="#16101C"></path>
                    <polyline id="Fill-1000" fill="#725291" points="41.34 15.6784665 43.67 31.3984665 57.06 36.0564665 54.15 16.8424665 41.34 15.6784665"></polyline>
                    <path d="M39.01,44.2074665 L51.82,51.7764665 C51.82,51.7764665 30.86,65.1684665 32.6,78.5594665 L11.06,78.5594665 C11.06,78.5594665 2.33,40.7144665 39.01,44.2074665" id="Fill-1001" fill="#725291"></path>
                </g>
                <g id="Bubbles" transform="translate(64.150156, 48.434129)">
                    <path d="M49.49,5.24 C49.49,8.134 47.15,10.48 44.25,10.48 C41.36,10.48 39.01,8.134 39.01,5.24 C39.01,2.346 41.36,0 44.25,0 C47.15,0 49.49,2.346 49.49,5.24" id="Fill-1002" fill="#5BAF45"></path>
                    <path d="M111.79,85.589 C111.79,81.408 115.18,78.019 119.36,78.019 C123.54,78.019 126.93,81.408 126.93,85.589 C126.93,89.769 123.54,93.158 119.36,93.158 C115.18,93.158 111.79,89.769 111.79,85.589" id="Fill-1003" fill="#5BAF45"></path>
                    <path d="M133.34,88.791 C133.34,85.093 136.33,82.095 140.03,82.095 C143.73,82.095 146.73,85.093 146.73,88.791 C146.73,92.489 143.73,95.487 140.03,95.487 C136.33,95.487 133.34,92.489 133.34,88.791" id="Fill-1004" fill="#5BAF45"></path>
                    <path d="M154.3,44.25 C154.3,48.43 150.91,51.819 146.73,51.819 C142.55,51.819 139.16,48.43 139.16,44.25 C139.16,40.07 142.55,36.681 146.73,36.681 C150.91,36.681 154.3,40.07 154.3,44.25" id="Fill-1005" fill="#5BAF45"></path>
                    <path d="M39.6,55.315 C39.6,58.793 38.37,61.979 36.35,64.493 L36.24,64.627 C35.83,65.099 35.41,65.548 34.96,65.974 C34.28,66.602 33.52,67.186 32.71,67.679 C31.57,68.397 30.33,68.959 29.01,69.317 C27.75,69.677 26.41,69.878 25.04,69.878 C23.96,69.878 22.93,69.766 21.92,69.541 C15.93,68.241 11.3,63.237 10.59,57.042 C10.52,56.481 10.47,55.898 10.47,55.315 C10.47,47.282 17.01,40.751 25.04,40.751 C28.16,40.751 31.03,41.738 33.41,43.421 C35.49,44.88 37.18,46.878 38.26,49.21 C39.04,50.917 39.51,52.801 39.58,54.776 C39.6,54.955 39.6,55.135 39.6,55.315" id="Fill-1006" fill="#5BAF45"></path>
                    <path d="M29.12,71.024 C29.12,75.265 27.33,79.056 24.43,81.705 C21.83,84.106 18.37,85.586 14.56,85.586 C6.52,85.586 0,79.079 0,71.024 C0,64.357 4.48,58.748 10.59,57.042 C11.84,56.662 13.19,56.481 14.56,56.481 C16.06,56.481 17.52,56.706 18.89,57.133 C20.06,57.491 21.16,58.007 22.17,58.635 C24.41,60.004 26.23,61.934 27.46,64.268 C28.27,65.794 28.81,67.5 29.01,69.317 C29.08,69.878 29.12,70.439 29.12,71.024" id="Fill-1007" fill="#5BAF45"></path>
                    <path d="M41.93,73.737 L41.93,73.94 C41.93,75.759 41.46,77.486 40.63,78.989 C40.39,79.416 40.12,79.841 39.83,80.223 C37.92,82.782 34.87,84.419 31.46,84.419 C28.76,84.419 26.29,83.411 24.43,81.705 C22.3,79.819 20.95,77.037 20.95,73.94 C20.95,72.37 21.29,70.888 21.92,69.541 C23.04,67.164 25.02,65.255 27.46,64.268 C28.7,63.731 30.04,63.461 31.46,63.461 C32.42,63.461 33.36,63.595 34.24,63.843 C34.53,63.91 34.82,64.022 35.09,64.133 C35.49,64.268 35.88,64.426 36.24,64.627 C37.18,65.099 38.05,65.727 38.79,66.49 C40.68,68.33 41.87,70.888 41.93,73.737" id="Fill-1008" fill="#5BAF45"></path>
                    <path d="M59.39,37.274 C59.39,39.629 58.77,41.828 57.64,43.714 C56.66,45.396 55.31,46.855 53.67,47.932 C52.84,48.47 51.97,48.92 51,49.255 C50.66,49.413 50.33,49.503 49.97,49.592 C49.25,49.817 48.49,49.952 47.7,49.997 C47.34,50.041 46.96,50.063 46.58,50.063 C43.62,50.063 40.9,49.053 38.73,47.371 C37.02,46.069 35.68,44.319 34.8,42.322 C34.13,40.773 33.77,39.068 33.77,37.274 C33.77,30.182 39.51,24.46 46.58,24.46 C50.08,24.46 53.22,25.85 55.53,28.118 C57.91,30.428 59.39,33.683 59.39,37.274" id="Fill-1009" fill="#5BAF45"></path>
                    <path d="M57.64,72.773 C57.64,74.188 57.37,75.511 56.86,76.746 C56.27,78.203 55.33,79.506 54.16,80.538 C52.82,81.794 51.16,82.647 49.29,83.052 L49.27,83.052 C48.6,83.186 47.88,83.253 47.16,83.253 C44.29,83.253 41.71,82.108 39.83,80.223 C38.14,78.608 37.02,76.386 36.75,73.918 L36.73,73.761 C36.71,73.424 36.68,73.109 36.68,72.773 C36.68,70.416 37.47,68.218 38.79,66.49 C39.02,66.154 39.29,65.861 39.58,65.57 C41.46,63.55 44.18,62.294 47.16,62.294 C48.22,62.294 49.25,62.451 50.22,62.743 C53.69,63.798 56.39,66.602 57.31,70.148 C57.37,70.372 57.42,70.597 57.46,70.843 C57.55,71.315 57.62,71.808 57.62,72.325 C57.64,72.483 57.64,72.615 57.64,72.773" id="Fill-1010" fill="#5BAF45"></path>
                    <path d="M54.73,52.981 C54.73,54.686 54.39,56.302 53.78,57.784 C53.02,59.713 51.79,61.419 50.22,62.743 C47.97,64.65 45.08,65.794 41.93,65.794 C41.13,65.794 40.34,65.727 39.58,65.57 C38.44,65.367 37.36,65.009 36.35,64.493 C35.92,64.314 35.52,64.089 35.14,63.843 C34.89,63.685 34.64,63.528 34.4,63.349 C31.19,61.014 29.12,57.245 29.12,52.981 C29.12,49.188 30.78,45.756 33.41,43.421 C33.83,43.018 34.3,42.659 34.8,42.322 C36.57,41.133 38.66,40.393 40.9,40.212 C41.24,40.19 41.6,40.168 41.93,40.168 C42.56,40.168 43.19,40.212 43.8,40.324 C44.18,40.369 44.56,40.436 44.92,40.55 C48.24,41.312 51.05,43.399 52.77,46.203 C53.13,46.743 53.42,47.326 53.67,47.932 C53.94,48.493 54.14,49.076 54.28,49.682 C54.57,50.738 54.73,51.837 54.73,52.981" id="Fill-1011" fill="#5BAF45"></path>
                    <path d="M82.1,14.855 C82.1,22.395 75.98,28.522 68.42,28.522 C64.37,28.522 60.76,26.771 58.27,24.011 C56.05,21.586 54.73,18.378 54.73,14.855 C54.73,7.293 60.85,1.166 68.42,1.166 C70.12,1.166 71.74,1.48 73.24,2.042 C78.42,3.993 82.1,8.999 82.1,14.855" id="Fill-1012" fill="#5BAF45"></path>
                    <path d="M23.29,19.207 C23.29,22.753 20.42,25.626 16.89,25.626 C13.35,25.626 10.47,22.753 10.47,19.207 C10.47,15.685 13.35,12.814 16.89,12.814 C20.42,12.814 23.29,15.685 23.29,19.207" id="Fill-1013" fill="#5BAF45"></path>
                    <path d="M72.78,53.566 C72.78,45.848 79.04,39.592 86.76,39.592 C94.47,39.592 100.73,45.848 100.73,53.566 C100.73,61.283 94.47,67.54 86.76,67.54 C79.04,67.54 72.78,61.283 72.78,53.566" id="Fill-1014" fill="#5BAF45"></path>
                    <path d="M66.38,51.528 C66.38,55.869 62.86,59.388 58.52,59.388 C54.18,59.388 50.66,55.869 50.66,51.528 C50.66,47.187 54.18,43.668 58.52,43.668 C62.86,43.668 66.38,47.187 66.38,51.528" id="Fill-1015" fill="#5BAF45"></path>
                    <path d="M68.71,66.377 C68.71,66.871 68.68,67.344 68.64,67.836 C68.5,69.451 68.15,71.024 67.54,72.483 C67.09,73.716 66.46,74.883 65.72,75.937 C63.21,79.595 59.28,82.22 54.75,82.984 C53.81,83.163 52.82,83.253 51.83,83.253 C50.98,83.253 50.13,83.186 49.29,83.052 L49.27,83.052 C45.97,82.558 43.01,81.121 40.63,78.989 C39.02,77.576 37.69,75.848 36.75,73.918 L36.66,73.761 C35.54,71.516 34.93,69.026 34.93,66.377 C34.93,66.243 34.93,66.109 34.96,65.974 C34.96,65.346 35,64.739 35.09,64.133 C35.09,64.022 35.11,63.932 35.14,63.843 C35.65,60.364 37.22,57.222 39.58,54.776 C41.71,52.487 44.52,50.781 47.7,49.997 C48.44,49.795 49.18,49.659 49.97,49.592 C50.28,49.547 50.6,49.525 50.93,49.525 C51.23,49.48 51.52,49.48 51.83,49.48 C52.66,49.48 53.49,49.547 54.28,49.682 C55.42,49.817 56.52,50.108 57.58,50.512 C60.56,51.567 63.14,53.453 65.05,55.898 C66.6,57.828 67.72,60.094 68.28,62.585 C68.53,63.662 68.66,64.784 68.68,65.93 C68.71,66.086 68.71,66.221 68.71,66.377" id="Fill-1016" fill="#5BAF45"></path>
                    <path d="M87.92,71.024 C87.92,71.583 87.87,72.123 87.78,72.639 C87.65,73.828 87.31,74.95 86.79,75.982 C85.56,78.63 83.34,80.74 80.6,81.818 C79.41,82.31 78.13,82.602 76.79,82.647 L76.76,82.647 C76.61,82.67 76.43,82.67 76.27,82.67 C71.6,82.67 67.56,79.908 65.72,75.937 C65,74.456 64.62,72.796 64.62,71.024 C64.62,70.911 64.62,70.821 64.64,70.709 C64.67,69.565 64.85,68.486 65.18,67.454 C65.41,66.737 65.72,66.019 66.1,65.367 C66.69,64.336 67.4,63.393 68.28,62.585 C69.87,61.059 71.92,60.004 74.18,59.6 C74.86,59.466 75.55,59.399 76.27,59.399 C77.86,59.399 79.37,59.713 80.76,60.297 C83.9,61.598 86.34,64.245 87.38,67.521 L87.42,67.612 C87.74,68.689 87.92,69.833 87.92,71.024" id="Fill-1017" fill="#5BAF45"></path>
                    <path d="M82.9,53.202 C82.9,60.276 77.16,66.011 70.09,66.011 C63.02,66.011 57.28,60.276 57.28,53.202 C57.28,46.128 63.02,40.392 70.09,40.392 C77.16,40.392 82.9,46.128 82.9,53.202" id="Fill-1018" fill="#5BAF45"></path>
                    <path d="M90.83,48.908 C90.83,45.049 93.96,41.921 97.82,41.921 C101.68,41.921 104.81,45.049 104.81,48.908 C104.81,52.766 101.68,55.894 97.82,55.894 C93.96,55.894 90.83,52.766 90.83,48.908" id="Fill-1019" fill="#5BAF45"></path>
                    <path d="M106.55,72.488 C106.55,78.116 101.99,82.677 96.36,82.677 C90.74,82.677 86.18,78.116 86.18,72.488 C86.18,66.861 90.74,62.299 96.36,62.299 C101.99,62.299 106.55,66.861 106.55,72.488" id="Fill-1020" fill="#5BAF45"></path>
                    <path d="M95.49,51.237 C95.49,45.449 100.18,40.757 105.97,40.757 C111.76,40.757 116.45,45.449 116.45,51.237 C116.45,57.025 111.76,61.717 105.97,61.717 C100.18,61.717 95.49,57.025 95.49,51.237" id="Fill-1021" fill="#5BAF45"></path>
                    <path d="M104.22,57.641 C104.22,52.818 108.13,48.908 112.96,48.908 C117.78,48.908 121.69,52.818 121.69,57.641 C121.69,62.465 117.78,66.375 112.96,66.375 C108.13,66.375 104.22,62.465 104.22,57.641" id="Fill-1022" fill="#5BAF45"></path>
                    <path d="M101.9,19.214 C101.9,21.465 100.07,23.29 97.82,23.29 C95.57,23.29 93.74,21.465 93.74,19.214 C93.74,16.963 95.57,15.138 97.82,15.138 C100.07,15.138 101.9,16.963 101.9,19.214" id="Fill-1023" fill="#5BAF45"></path>
                    <path d="M80.46,83.442 C80.46,77.01 85.68,71.797 92.11,71.797 C98.54,71.797 103.75,77.01 103.75,83.442 C103.75,89.873 98.54,95.087 92.11,95.087 C85.68,95.087 80.46,89.873 80.46,83.442" id="Fill-1024" fill="#5BAF45"></path>
                    <path d="M77.32,79.079 C77.32,80.313 77.12,81.503 76.79,82.625 L76.76,82.647 C75.26,87.337 70.86,90.725 65.68,90.725 C60.63,90.725 56.34,87.494 54.75,82.984 C54.46,82.198 54.25,81.39 54.16,80.538 C54.08,80.066 54.05,79.573 54.05,79.079 C54.05,77.958 54.21,76.881 54.5,75.87 C54.91,74.434 55.58,73.133 56.48,71.989 C56.77,71.583 57.11,71.203 57.46,70.843 C57.87,70.439 58.29,70.059 58.77,69.721 C60.56,68.376 62.78,67.545 65.18,67.454 C65.34,67.433 65.52,67.433 65.68,67.433 C66.71,67.433 67.7,67.567 68.64,67.836 C73.64,69.116 77.32,73.67 77.32,79.079" id="Fill-1025" fill="#5BAF45"></path>
                    <path d="M94.22,66.193 C94.22,59.761 99.43,54.549 105.86,54.549 C112.29,54.549 117.51,59.761 117.51,66.193 C117.51,72.624 112.29,77.838 105.86,77.838 C99.43,77.838 94.22,72.624 94.22,66.193" id="Fill-1026" fill="#5BAF45"></path>
                    <path d="M113.43,69.031 C113.43,62.6 118.64,57.386 125.08,57.386 C131.51,57.386 136.72,62.6 136.72,69.031 C136.72,75.463 131.51,80.676 125.08,80.676 C118.64,80.676 113.43,75.463 113.43,69.031" id="Fill-1027" fill="#5BAF45"></path>
                    <path d="M64.7,10.735 C64.7,12.242 63.48,13.465 61.98,13.465 C60.47,13.465 59.25,12.242 59.25,10.735 C59.25,9.228 60.47,8.005 61.98,8.005 C63.48,8.005 64.7,9.228 64.7,10.735" id="Fill-1028" fill="#F8EAD1"></path>
                    <path d="M13.18,75.909 C13.18,77.235 12.1,78.311 10.78,78.311 C9.45,78.311 8.37,77.235 8.37,75.909 C8.37,74.583 9.45,73.507 10.78,73.507 C12.1,73.507 13.18,74.583 13.18,75.909" id="Fill-1029" fill="#F8EAD1"></path>
                    <path d="M105.97,65.647 C105.97,67.215 104.7,68.485 103.13,68.485 C101.57,68.485 100.29,67.215 100.29,65.647 C100.29,64.08 101.57,62.808 103.13,62.808 C104.7,62.808 105.97,64.08 105.97,65.647" id="Fill-1030" fill="#F8EAD1"></path>
                    <path d="M90.69,82.459 C90.69,84.027 89.42,85.298 87.85,85.298 C86.28,85.298 85.01,84.027 85.01,82.459 C85.01,80.891 86.28,79.621 87.85,79.621 C89.42,79.621 90.69,80.891 90.69,82.459" id="Fill-1031" fill="#F8EAD1"></path>
                    <path d="M47.24,38.137 C47.24,39.463 46.16,40.538 44.84,40.538 C43.51,40.538 42.43,39.463 42.43,38.137 C42.43,36.81 43.51,35.735 44.84,35.735 C46.16,35.735 47.24,36.81 47.24,38.137" id="Fill-1032" fill="#F8EAD1"></path>
                    <path d="M132.83,70.123 C132.83,71.751 131.51,73.071 129.88,73.071 C128.25,73.071 126.93,71.751 126.93,70.123 C126.93,68.495 128.25,67.175 129.88,67.175 C131.51,67.175 132.83,68.495 132.83,70.123" id="Fill-1033" fill="#F8EAD1"></path>
                    <path d="M16.89,25.626 C13.35,25.626 10.47,22.753 10.47,19.207 C10.47,15.685 13.35,12.814 16.89,12.814 C20.42,12.814 23.29,15.685 23.29,19.207 C23.29,22.753 20.42,25.626 16.89,25.626" id="Fill-1034" fill="#3C8B42"></path>
                    <path d="M58.27,24.011 L58.27,24.011 C56.05,21.586 54.73,18.378 54.73,14.855 C54.73,7.293 60.85,1.166 68.42,1.166 C70.12,1.166 71.74,1.48 73.24,2.042 C72.01,3.097 68.17,6.44 64.69,10.456 C64.55,9.08 63.39,8.005 61.98,8.005 C60.47,8.005 59.25,9.228 59.25,10.735 C59.25,12.242 60.47,13.465 61.98,13.465 C62.09,13.465 62.2,13.458 62.31,13.445 C60.02,16.563 58.32,19.86 58.38,22.641 C58.41,23.135 58.36,23.584 58.27,24.011" id="Fill-1035" fill="#3C8B42"></path>
                    <path d="M61.98,13.465 C60.47,13.465 59.25,12.242 59.25,10.735 C59.25,9.228 60.47,8.005 61.98,8.005 C63.39,8.005 64.55,9.08 64.69,10.456 C64.69,10.457 64.69,10.457 64.69,10.457 C63.86,11.422 63.05,12.408 62.31,13.442 C62.31,13.443 62.31,13.444 62.31,13.445 C62.2,13.458 62.09,13.465 61.98,13.465" id="Fill-1036" fill="#7DA273"></path>
                    <path d="M27.46,64.268 L27.46,64.268 C26.24,61.948 24.43,60.027 22.21,58.66 C24.35,58.564 26.06,56.793 26.06,54.623 C26.06,52.39 24.25,50.582 22.02,50.582 C19.79,50.582 17.98,52.39 17.98,54.623 C17.98,55.565 18.31,56.432 18.85,57.119 C17.49,56.701 16.04,56.481 14.56,56.481 C13.19,56.481 11.84,56.662 10.59,57.042 C10.52,56.481 10.47,55.898 10.47,55.315 C10.47,47.282 17.01,40.751 25.04,40.751 C28.16,40.751 31.03,41.738 33.41,43.421 C30.78,45.756 29.12,49.188 29.12,52.981 C29.12,57.245 31.19,61.014 34.4,63.349 C34.35,63.528 34.3,63.685 34.24,63.843 C33.36,63.595 32.42,63.461 31.46,63.461 C30.04,63.461 28.7,63.731 27.46,64.268" id="Fill-1037" fill="#3C8B42"></path>
                    <path d="M14.56,85.586 C6.52,85.586 0,79.079 0,71.024 C0,64.357 4.48,58.748 10.59,57.042 C11.84,56.662 13.19,56.481 14.56,56.481 C16.04,56.481 17.49,56.701 18.85,57.119 C19.59,58.06 20.73,58.665 22.02,58.665 C22.08,58.665 22.15,58.663 22.21,58.66 C24.43,60.027 26.24,61.948 27.46,64.268 C25.02,65.255 23.04,67.164 21.92,69.541 C21.29,70.888 20.95,72.37 20.95,73.94 C20.95,77.037 22.3,79.819 24.43,81.705 C21.83,84.106 18.37,85.586 14.56,85.586 M10.78,73.507 C9.45,73.507 8.37,74.583 8.37,75.909 C8.37,77.235 9.45,78.311 10.78,78.311 C12.1,78.311 13.18,77.235 13.18,75.909 C13.18,74.583 12.1,73.507 10.78,73.507" id="Fill-1038" fill="#3C8B42"></path>
                    <path d="M31.46,84.419 C28.76,84.419 26.29,83.411 24.43,81.705 C22.3,79.819 20.95,77.037 20.95,73.94 C20.95,72.37 21.29,70.888 21.92,69.541 C23.04,67.164 25.02,65.255 27.46,64.268 C28.7,63.731 30.04,63.461 31.46,63.461 C32.42,63.461 33.36,63.595 34.24,63.843 C33.75,65.278 33.23,66.58 32.71,67.679 C32.06,69.004 33.64,70.113 32.9,70.742 C30.84,72.515 31.73,73.536 36.66,73.761 L36.75,73.918 C37.02,76.386 38.14,78.608 39.83,80.223 C37.92,82.782 34.87,84.419 31.46,84.419" id="Fill-1039" fill="#3C8B42"></path>
                    <path d="M34.8,42.322 L34.8,42.322 C34.13,40.773 33.77,39.068 33.77,37.274 C33.77,30.182 39.51,24.46 46.58,24.46 C50.08,24.46 53.22,25.85 55.53,28.118 C51.45,31.236 44.16,32.606 41.55,38.575 C41.33,39.091 41.13,39.629 40.9,40.212 C38.66,40.393 36.57,41.133 34.8,42.322" id="Fill-1040" fill="#3C8B42"></path>
                    <path d="M47.16,83.253 C44.29,83.253 41.71,82.108 39.83,80.223 C38.14,78.608 37.02,76.386 36.75,73.918 C37.69,75.848 39.02,77.576 40.63,78.989 C43.01,81.121 45.97,82.558 49.27,83.052 C48.6,83.186 47.88,83.253 47.16,83.253" id="Fill-1041" fill="#3C8B42"></path>
                    <path d="M34.4,63.349 L34.4,63.349 C31.19,61.014 29.12,57.245 29.12,52.981 C29.12,49.188 30.78,45.756 33.41,43.421 C33.83,43.018 34.3,42.659 34.8,42.322 C36.57,41.133 38.66,40.393 40.9,40.212 C40.16,42.254 39.45,44.723 38.73,47.371 C38.57,47.977 38.41,48.582 38.26,49.21 C37,54.036 35.79,59.22 34.4,63.349" id="Fill-1042" fill="#3C8B42"></path>
                    <path d="M51.83,83.253 C50.98,83.253 50.13,83.186 49.29,83.052 L49.27,83.052 C45.97,82.558 43.01,81.121 40.63,78.989 C39.02,77.576 37.69,75.848 36.75,73.918 L36.66,73.761 L36.73,73.761 C37.44,73.811 38.2,73.834 38.97,73.834 C39.93,73.834 40.92,73.799 41.93,73.737 C44.13,73.604 46.43,73.338 48.64,72.926 C48.55,73.398 48.5,73.884 48.5,74.377 C48.5,76.547 49.4,78.554 50.82,79.967 C51.8,80.946 53.05,81.678 54.44,82.035 C54.53,82.356 54.63,82.671 54.75,82.984 C53.81,83.163 52.82,83.253 51.83,83.253 M56.4,71.975 L56.4,71.282 L56.4,71.975" id="Fill-1043" fill="#3C8B42"></path>
                    <polyline id="Fill-1044" fill="#3C8B42" points="76.79 82.647 76.76 82.647 76.79 82.625 76.79 82.647"></polyline>
                    <path d="M65.68,90.725 C60.63,90.725 56.34,87.494 54.75,82.984 C54.63,82.671 54.53,82.356 54.44,82.035 C55.06,82.194 55.71,82.28 56.37,82.28 C56.38,82.28 56.39,82.28 56.4,82.28 C56.41,82.28 56.43,82.28 56.44,82.28 C58.59,82.28 60.59,81.382 61.99,79.967 C63.41,78.554 64.32,76.547 64.31,74.377 C64.31,72.806 63.84,71.311 63.03,70.07 C63.57,70.242 64.11,70.458 64.64,70.709 C65.63,71.18 66.62,71.786 67.54,72.483 C72.25,75.893 75.95,81.345 76.79,82.625 L76.76,82.647 C75.26,87.337 70.86,90.725 65.68,90.725 M58.6,76.574 L58.1,76.08 L58.6,76.574 M58.11,72.682 L58.6,72.191 L58.11,72.682" id="Fill-1045" fill="#3C8B42"></path>
                    <path d="M10.78,78.311 C9.45,78.311 8.37,77.235 8.37,75.909 C8.37,74.583 9.45,73.507 10.78,73.507 C12.1,73.507 13.18,74.583 13.18,75.909 C13.18,77.235 12.1,78.311 10.78,78.311" id="Fill-1046" fill="#7DA273"></path>
                </g>
            </g>
            <g transform="translate(0.000000, 161.513849)" id="Halloween/Stuffs/Crane-2">
                <path d="M126.199995,27.824777 L125.580263,27.6045984 L124.232043,27.1475447 C115.028913,24.1246377 104.597164,22.6680185 95.8653243,22.6680185 L95.2623244,22.6706214 C94.4668978,22.6775661 93.7064645,22.6984199 92.9894235,22.7333425 L92.324003,22.7696503 L91.6746794,22.8155231 L91.0227091,22.8759432 L90.6467619,22.9200496 L90.3565823,22.9580457 L89.8110707,23.0396123 L89.4945551,23.0931452 L89.2135825,23.1445149 L88.6315241,23.2620394 L88.1052803,23.3804313 L87.8666114,23.4381557 L87.2476149,23.5990443 L86.8253622,23.7175946 L86.1780302,23.9138793 C85.707515,24.0637309 85.2755178,24.2119757 84.8533878,24.3674729 L84.3553892,24.5557699 L83.6591986,24.8341358 C82.5810046,25.2800136 81.4986701,25.7926296 80.4102309,26.3693864 L79.6543698,26.7791716 L79.1354318,27.0719312 C78.0964714,27.6671274 77.0513305,28.3200724 76.0058792,29.0251379 L75.5655805,29.3251304 L75.5472169,29.1160852 C75.3746341,27.2090537 75.1690145,25.4671871 74.925335,23.8978101 C74.5571155,21.5263543 74.0997439,19.4988355 73.4501616,17.6777318 C72.9378636,16.2415044 72.3047188,14.9127754 71.4162226,13.6205696 C69.7767743,11.2361984 67.5079332,9.27758452 64.2693623,8.24454249 C59.0563153,6.56056634 54.670578,8.05167011 51.0915016,10.8502151 C49.4781818,12.1116991 48.1162475,13.6064844 46.766881,15.4068721 C44.9769493,17.7950825 43.1653325,20.8125111 41.2430908,24.4387881 L40.7121161,25.4507485 C40.0048704,26.8122019 39.3009559,28.2207752 38.6057482,29.6576201 L38.140039,30.6257702 L37.3102445,30.713043 C33.9985637,31.0759072 30.7076468,31.5523361 27.5377963,32.1649495 C22.5744391,33.1241805 18.210599,34.3557474 14.4840214,36.0076442 C8.47563187,38.67101 3.97934343,42.3749494 1.9084253,48.2378307 C-0.262891351,54.3635584 0.93476654,60.830983 4.66780689,66.1732116 C7.69052055,70.4989155 12.2448381,73.9416882 17.7602698,76.3109638 L18.2733156,76.5271811 C18.6169433,76.6692315 18.9637536,76.8070905 19.3136753,76.9407434 L19.9014439,77.159441 L19.7296249,77.3857458 C17.4570772,80.4475746 16.9038359,83.966277 17.3250817,87.4555626 C17.5667479,89.4573447 18.1382541,91.3425201 18.9736577,93.3502934 C20.0680503,95.9805101 21.6722707,98.9053935 23.738916,102.219401 L24.6068681,103.591044 L25.2362689,104.563067 L25.7014778,105.271028 L26.6229051,106.649813 C26.9332322,107.109345 27.2464946,107.56855 27.5619441,108.026638 L28.1619512,108.890311 L28.1179758,108.989679 C27.5330887,110.295352 26.957339,111.633363 26.3994494,112.993279 C25.2155676,115.879119 24.1782128,118.705247 23.3271392,121.439515 C21.977045,125.777002 21.1252079,129.762894 20.9020033,133.469756 C20.550463,139.307945 21.6821385,144.529601 25.4154474,148.839803 C29.6753512,153.768827 35.917921,155.9732 42.4462897,155.435916 C47.7324338,155.000867 53.0138977,152.808001 57.8391409,149.252347 L58.277518,148.924689 C66.4326251,142.742711 73.0174929,132.888581 77.0178207,120.489793 L77.1149854,120.182273 L77.9598439,119.685522 L77.0300217,132.497549 C76.5023701,139.759992 82.3904207,145.895641 89.7253673,145.726747 L98.3033185,145.529231 L140.747063,144.530012 L140.873611,144.770287 C142.164676,147.180461 143.625964,149.331722 145.316692,151.213532 C149.977494,156.401088 156.252773,159.256404 163.404134,158.207905 C171.501498,157.022073 176.835971,151.472004 179.195299,144.059635 C180.624333,139.569998 180.986914,134.500246 180.648293,128.763013 L180.579225,127.718593 C180.502596,126.670739 180.403503,125.612852 180.283889,124.547363 L180.231512,124.105919 L180.784743,123.982148 C191.442425,121.500146 199.685272,115.60847 202.178678,104.97952 C204.443883,95.3645766 198.840539,87.5184983 189.936614,85.1789558 C185.515301,84.0172379 180.544281,84.1213784 174.583924,85.0143432 L173.502373,85.1833488 C168.436814,86.0069341 163.126888,87.3118409 158.084001,88.7967182 L157.07602,89.0962919 L156.468995,88.7792795 L156.494731,88.1200393 C156.537667,86.917073 156.574069,85.7315588 156.603757,84.5640762 L156.654127,82.2533249 C156.702323,79.5858983 156.713309,77.0187477 156.684796,74.5592364 L156.66802,73.4293602 L157.392468,73.0037143 L157.052576,72.8866819 C161.10375,74.3054029 165.235126,75.5167714 169.301022,76.3782056 C175.032207,77.5924615 180.233843,78.0414271 185.003054,77.4073478 C192.735461,76.3793038 199.174162,72.4304787 202.127714,65.0257688 C205.411173,56.7979643 202.603372,49.0379979 196.45916,43.1385807 C192.857033,39.679968 188.156409,36.8350208 182.496696,34.2672435 L181.3398,33.7523625 L180.781815,33.5134472 L180.930645,33.0423995 C184.119308,22.6175258 183.11464,12.5627996 175.065707,5.08641409 C167.65511,-1.81011386 157.877099,-0.713803616 151.402369,5.97533663 C148.212747,9.27058204 145.827945,13.6884358 143.633264,19.3643683 C142.116822,23.2862219 140.762149,27.6848934 139.547178,32.3568227 L139.387617,32.9749973 L139.080234,34.191913 L138.827552,34.0237475 C136.017889,32.1680135 132.935342,30.552469 129.616569,29.1569282 C129.325449,29.0341286 129.026247,28.910566 128.722829,28.7878127 L128.005643,28.5024113 L126.199995,27.824777 Z" id="Sticker" fill="#FFFFFF" fill-rule="nonzero"></path>
                <path d="M160.669373,71.9852379 L56.8790528,76.3380972 C56.8790528,76.3380972 40.829007,47.4317501 36.7993213,48.3109763 C32.756894,49.1775095 35.8429617,74.6880756 35.8429617,74.6880756 C35.8429617,74.6880756 10.7095318,90.536532 12.4177833,99.7127681 C14.1132934,108.876311 34.5731565,110.82113 54.2376105,90.3933669 L158.312493,88.9049215 C158.312493,88.9049215 177.543293,114.642555 187.37386,106.86741 C197.191601,99.1050414 174.205753,76.2451086 174.205753,76.2451086 C174.205753,76.2451086 193.846074,66.9986565 190.128403,54.683512 C186.423515,42.3683256 160.669373,71.9852379 160.669373,71.9852379" id="bone" fill="#CEAB91" transform="translate(101.465573, 78.311113) rotate(30.000000) translate(-101.465573, -78.311113) "></path>
                <path d="M160.628752,72.3669743 L56.8649201,76.0371818 C56.8649201,76.0371818 40.6236511,47.0246275 36.5996835,47.877365 C32.5628903,48.7173254 35.8174767,74.2487462 35.8174767,74.2487462 C35.8174767,74.2487462 10.7881516,89.9322158 12.5570328,99.1198882 C14.3130885,108.294784 34.786238,110.374233 54.3162303,90.0753809 L158.383544,89.2715215 C158.383544,89.2715215 177.784713,115.136216 187.564153,107.425569 C197.330851,99.7276149 174.193554,76.7159816 174.193554,76.7159816 C174.193554,76.7159816 193.773246,67.5985253 189.974174,55.2586581 C186.187886,42.9188329 160.628752,72.3669743 160.628752,72.3669743" id="bone" fill="#CEAB91" transform="translate(101.465392, 78.359988) rotate(-30.000000) translate(-101.465392, -78.359988) "></path>
                <g id="crane" transform="translate(59.493617, 35.012739)">
                    <path d="M17.5041951,70.1278882 C17.5041951,70.1278882 27.5449756,72.5178261 33.1674146,75.6978261 C38.7799024,78.8877019 31.1572683,81.662795 31.1572683,81.662795 L29.9432195,98.3726087 L38.5211707,98.1750932 L80.9432195,97.1776398 C80.9432195,97.1776398 86.5756098,52.6181366 84.1674146,27.5534161 C83.0827317,16.3937888 74.9227317,9.56962733 65.2700488,5.51068323 C53.2589268,0.444409938 38.9490732,-0.335776398 33.1674146,0.10863354 C22.7186341,0.888819876 1.84097561,21.1934161 0.228878049,38.2883851 C-1.38321951,55.4031056 17.5041951,70.1278882 17.5041951,70.1278882" id="Fill-165" fill="#EFCDB4"></path>
                    <path d="M64.0360976,52.0255901 C64.0360976,52.0255901 68.5539512,50.5343478 69.1510244,55.4524845 C69.7580488,60.3804969 69.9073171,65.456646 67.9469268,66.9478882 C65.9964878,68.4391304 61.3194146,68.4391304 59.5182439,67.0960248 C57.707122,65.7529193 57.707122,62.1680124 59.2197073,58.8892547 C60.7223415,55.6006211 64.0360976,52.0255901 64.0360976,52.0255901 M71.2606829,29.0446584 C71.2606829,29.0446584 78.1867317,28.6002484 78.7937561,35.0195031 C79.3908293,41.428882 79.241561,48.8850932 74.2759024,50.2380745 C69.3002927,51.5713043 66.8920976,46.5050311 67.499122,40.0857764 C68.0961951,33.6665217 69.3002927,29.6470807 71.2606829,29.0446584 M46.1139512,28.8175155 C46.1139512,28.8175155 53.04,28.3731056 53.6470244,34.7923602 C54.2440976,41.2017391 54.0948293,48.6678261 49.1291707,50.0109317 C44.153561,51.3540373 41.7453659,46.2778882 42.3523902,39.8685093 C42.9494634,33.4492547 44.153561,29.4199379 46.1139512,28.8175155" id="face" fill="#1C110F"></path>
                    <path d="M81.4507317,78.1173913 L81.5502439,79.6481366 L73.2572927,80.2013913 L72.0866341,96.8418634 L70.5441951,96.7332298 L71.6992927,80.3063913 L61.5162927,80.9873913 L61.6478049,80.9912422 L61.1900488,96.8023602 L59.6476098,96.7628571 L60.0912927,81.0823913 L49.1532927,81.8133913 L49.4476098,96.6245963 L47.8952195,96.6542236 L47.6032927,81.9173913 L34.7198049,82.7787578 L34.6202927,81.2480124 L81.4507317,78.1173913 Z" id="tooth" fill="#1C110F"></path>
                    <path d="M36.3717073,0 C43.2579512,0 55.0899512,1.2147205 65.2700488,5.51068323 C58.6126829,5.77732919 21.5244878,8.26602484 13.5834146,30.2396273 C7.50849366,47.0681933 19.5211117,61.1468283 28.1992119,68.5450986 C31.4818636,71.0089741 35.4393547,73.8857395 35.8741463,74.0979503 C36.6403902,74.4732298 37.1976585,77.3273292 37.5857561,81.0504969 L34.6202927,81.2480124 L34.7198049,82.7787578 L37.7449756,82.5812422 C37.9639024,85.0008012 38.4913171,96.8813665 38.5211707,98.1750932 L37.3767805,98.1948447 L29.963122,98.1849689 L31.1572683,81.662795 C31.1572683,81.662795 35.2273171,80.1814286 35.2273171,78.1371429 C35.2273171,77.3865839 34.68,76.5570186 33.1674146,75.6978261 C31.5553171,74.7892547 29.5949268,73.9399379 27.5947317,73.1992547 C26.9768716,72.9873555 26.5134764,72.8284311 26.2045464,72.7224816 L26.149,72.674 L25.682476,72.5148099 C23.6923227,71.8404881 21.7908743,71.278796 20.3303415,70.8685714 C18.6187317,70.3945342 17.5041951,70.1278882 17.5041951,70.1278882 C17.5041951,70.1278882 14.4989268,67.7774534 10.9861463,63.8765217 C7.47336585,59.9755901 3.45307317,54.5142857 1.44292683,48.272795 C0.48097561,44.9593623 0,42.3096915 0,40.3237826 C0,38.8048882 0.48097561,36.197354 1.44292683,32.5011801 C6.34887805,16.917205 23.8829268,0.799937888 33.1674146,0.10863354 C34.043122,0.0395031056 35.1278049,0 36.3717073,0 Z" id="Fill-182" fill="#9A7A6B"></path>
                </g>
            </g>
            <g transform="translate(151.785252, 0.000000)">
                <path d="M118.709275,8.99645027 C133.503993,-0.680012793 151.09278,-2.99237915 164.020634,6.46753628 C170.780178,11.4134199 174.912576,17.6997738 176.266588,24.9899385 C176.725226,27.4592991 178.674751,32.3126768 182,34 C184.668412,35.354026 188.771167,33.8088713 189.576036,33.8269785 L190.002,33.844 L190.318702,33.6473476 L190.817045,33.3560197 C194.341454,31.3590165 198.348155,30.4420893 202.577292,31.156583 L203.015572,31.2363383 L203.602523,31.3561284 C208.451512,32.3910676 212.441663,34.3732101 215.630168,36.6735574 L216.02456,36.9627126 L216.567265,37.384159 C224.587372,43.8538368 221.686416,56.3935355 212.28317,59.1042962 L211.996237,59.1834155 L211.716,59.253 L211.663115,59.3141218 C210.810582,60.2668327 205.623776,63.900392 204,69 C202.233335,74.5483645 204.095029,81.5890133 205.07924,82.5023945 C214.860767,91.5799817 221.913194,101.520488 224.214386,111.127588 C228.415526,128.666664 217.130625,141.559786 195.636089,145.316318 L192.753199,145.800652 L191.32398,146.047382 L189.264903,146.413767 L187.307721,146.775093 L186.059648,147.01283 L184.857022,147.247815 L183.699906,147.479846 L182.049706,147.82191 L181.006648,148.045671 L179.905,148.288 L180.03193,148.445699 C184.86577,154.553299 185.438243,161.988552 181.536544,168.494381 L181.330741,168.830049 L181.194,169.043 L183.622185,168.375697 L184.616664,168.097736 C186.270398,167.633172 187.902428,167.162832 189.466855,166.697179 L191.031582,166.226881 L192.560047,165.758222 L194.050909,165.291538 C194.541447,165.136344 195.025494,164.981534 195.502826,164.827165 L196.914457,164.365439 L198.28446,163.906695 L199.611494,163.451268 L200.894216,162.999495 C201.104236,162.924523 201.312354,162.849717 201.518542,162.775084 L202.732282,162.32942 C203.327348,162.107684 203.90454,161.887633 204.463103,161.669455 L205.555166,161.235653 C205.732962,161.163788 205.908633,161.092144 206.082149,161.020731 L206.521712,160.838361 L207.3655,160.479497 C207.775453,160.302119 208.167333,160.127921 208.540413,159.957335 L209.261294,159.621109 L209.93075,159.295288 C210.466846,159.02832 210.94803,158.772994 211.370939,158.531318 L211.552882,158.426066 L211.877993,158.230631 C211.927788,158.199844 211.975361,158.169987 212.020671,158.141115 L212.265049,157.980146 L212.345,157.924 L212.525235,157.727366 C218.230293,151.609322 228.337197,152.757029 232.498931,160.079406 L232.646748,160.346758 L232.789278,160.619475 L233.541,162.1 L233.553856,162.098517 C236.12259,161.684448 238.835378,162.047192 241.320582,163.290322 L241.674023,163.473912 L241.959556,163.632406 C245.175546,165.47989 247.326759,168.550627 248.081987,171.974783 L248.152844,172.318344 L248.18,172.47 L264.237148,211.366356 L264.372967,211.709603 L264.4982,212.05553 L264.564,212.257 L264.651048,212.360479 C265.634546,213.556626 266.414281,214.968032 266.912175,216.570384 L267.030732,216.974936 L268.279319,221.827645 C269.03173,224.721037 269.809064,227.652085 270.580791,230.487843 L271.04291,232.176799 L271.834553,235.024148 L272.549461,237.537345 L273.01863,239.151046 L273.466138,240.659001 L273.751795,241.603067 L274.026853,242.496401 L274.418713,243.738014 L274.772981,244.822389 L275.166923,245.972347 L275.420742,246.669835 L275.527,246.947 L275.904373,247.491538 L276.500474,248.374106 L276.927176,249.01931 L277.612232,250.072964 L278.352549,251.230365 L279.149544,252.492335 L280.13075,254.06362 C280.721824,255.015322 281.32018,255.987222 281.912332,256.95572 L283.949217,260.313955 C286.808295,265.080018 286.172018,271.147658 282.422337,275.214878 L282.19818,275.451794 L277.177,280.622 C277.342575,281.189147 277.466883,281.761359 277.550475,282.339421 L277.605544,282.774078 L277.645371,283.210925 L277.669155,283.606762 L277.675088,283.743776 C277.755014,285.730007 277.599989,287.884837 276.940796,290.265836 C275.44697,295.661524 271.787556,300.275679 265.379335,301.802047 C265.180408,301.849429 264.980363,301.891919 264.779381,301.929481 L264.477229,301.982122 L245.400229,305.065122 C245.129316,305.108904 244.857035,305.143752 244.583829,305.169611 C228.785355,306.664896 212.526719,311.945629 196.678447,319.851988 C190.776955,322.796113 185.257929,325.947089 180.222785,329.145199 L179.215959,329.789349 L178.250086,330.41639 L177.325904,331.025237 L176.444153,331.614806 L175.2027,332.460641 L174.430257,332.997271 L173.70283,333.510827 L172.697711,334.235528 L171.577145,335.070414 C169.730987,336.501186 167.523178,337.384389 165.205306,337.623972 L164.795179,337.659551 L144.264179,339.100551 C138.226891,339.524287 132.769996,335.564586 131.279028,329.729588 L131.205463,329.426118 L129.663,322.702 L129.612087,322.687115 C128.983141,322.50182 128.288145,322.313421 127.534426,322.127459 L127.075208,322.016219 L126.721757,321.933333 C123.123838,321.1014 118.712386,320.412678 113.77186,319.875267 C109.806731,319.443956 105.734443,319.133647 101.788919,318.926839 L100.053806,318.842408 L98.4561314,318.776948 L96.690708,318.720938 L79.6033704,318.385832 C74.5958559,318.287814 70.141552,315.212181 68.265998,310.590129 L68.1498034,310.293018 L63.8741896,298.943154 L63.7545057,298.650882 L24.2904842,216.40558 L17.9404842,202.88358 C16.6392505,200.112669 16.4018647,196.964919 17.2647394,194.036985 L17.3783319,193.672181 L19.0013319,188.727181 C20.7053627,183.535294 25.5779339,180.06377 31.0182871,180.125979 L31.3268205,180.133286 L31.779,180.149 L34.8754232,175.755872 C35.7916383,174.45542 36.9272415,173.367546 38.2080766,172.522494 L38.5609404,172.298069 L38.823,172.141 L38.8716365,172.026782 C40.4456505,168.350376 43.7534834,165.457814 48.0386663,164.651027 L48.3882404,164.590208 L48.6679653,164.548645 L55.4489653,163.616645 C59.9759523,162.994443 64.4721726,164.892223 67.1860726,168.547185 L67.2901389,168.687577 L67.3908444,168.809283 L67.5361827,168.974584 C67.5638524,169.00521 67.5931773,169.037234 67.6240551,169.070447 C67.8339766,169.296246 68.0573149,169.511661 68.2779686,169.699559 L68.5919757,169.94923 L68.66,169.998 L74.5238091,169.665415 C75.307244,169.622587 76.0785292,169.582779 76.8389355,169.546141 L77.9715445,169.493579 L78.806,169.457 L78.6513656,169.28959 C73.7828029,163.924114 72.2093461,157.020881 73.4813441,149.262654 C74.1767648,145.021113 70.8715458,138.997821 66,137 C62.155394,135.423327 57.268394,135.425994 51.339,137.008 C43.8390866,142.342826 32.8149851,137.770343 31.7512573,128.176439 L31.7220858,127.884183 L31.6839899,127.324049 L31.6668444,126.802943 L31.6639185,126.579787 L31.6632137,126.297678 C31.6789615,122.99852 32.3150366,119.358084 34.0305615,115.621781 C35.7390368,111.899615 38.298649,109.487383 41.344917,107.988122 L41.754,107.793 L41.7775465,107.765339 C42.5282986,106.852046 43.4035823,106.044299 44.3705126,105.366963 L44.747,105.113 L44.8777982,105.001511 C46.0697194,104.004793 47.4391647,103.22695 48.9038856,102.711779 L49.319,102.573 L49.6215398,102.252436 L49.9706758,101.900335 L50.3314208,101.555217 L50.7044343,101.216927 C53.3329092,98.8950418 56.1739016,97.8005598 59.0964573,97.5242934 C57.8540982,87.4531294 60.6701909,76.8906643 67.1341443,68.8634892 L67.4839149,68.4359045 L67.663,68.223 L67.6085944,67.9515897 C66.954898,64.6107173 66.8831363,61.1006402 67.4344926,57.6048516 L67.5451841,56.9496035 L67.6364215,56.4656626 C69.1264165,48.8973532 74.4832061,43.4568927 81.5388291,41.3496286 C86.9199278,39.7424856 92.9261229,40.1713817 98.3265969,42.2811906 L98.5561605,42.3724143 L98.812,42.477 L98.8041986,42.4202839 C97.300046,30.2172063 105.443793,17.9885689 117.842411,9.57401117 L118.266732,9.28863444 L118.709275,8.99645027 Z M15.2095837,70.0340367 C19.6067302,67.8245104 23.8773925,67.6686076 27.9565515,68.8283968 L28.3384096,68.9409591 L28.537,69.003 L28.7381623,68.9376223 C30.3629461,68.4265489 32.0820084,68.247447 33.7728661,68.396996 L34.1949221,68.4412282 L34.344,68.461 L34.6227837,68.44537 C36.771665,68.3480332 38.9355675,68.792533 40.871719,69.7333823 L41.2558407,69.9281567 L41.332,69.97 L41.6243795,69.9043263 C42.4129827,69.7360467 43.2002879,69.6073814 43.9933769,69.522922 L44.5893888,69.4679377 L45.1882335,69.429961 C47.2299777,69.3307351 64,66 72,50 C84.4162815,45.4865873 93.9975031,52.4855151 95,56 C96.8845441,62.6067056 90.2417565,90.5395752 83,99 C79.2891466,103.335329 58,146 53,129 C48,112 27.7461973,107.186942 23.1230832,101.70371 L22.9124305,101.447095 L22.773,101.269 L22.6487681,101.285234 C19.9415268,101.606028 17.2424034,101.022814 14.9446112,99.7006034 L14.6338004,99.5157368 L14.388,99.361 L14.1087448,99.3697854 C4.39543865,99.5271959 -1.9196118,88.6475949 3.40833799,80.2225277 L3.57336333,79.9679878 L3.75680396,79.6989438 L4.04967245,79.293043 C4.47116185,78.7253594 5.01702117,78.0541258 5.69178231,77.3079001 C6.98054105,75.8826477 8.47779654,74.4808316 10.2034643,73.1673967 C11.7475922,71.992135 13.4132177,70.9371009 15.2095837,70.0340367 Z" id="Sticker" fill="#FFFFFF" fill-rule="nonzero"></path>
                <g id="Cloud" transform="translate(13.012592, 13.000000)">
                    <path d="M111.958408,184.273226 C111.958408,184.273226 116.181408,169.495226 104.780408,161.050226 C93.3794084,152.605226 66.7784084,155.139226 73.5344084,135.716226 C80.2904084,116.292226 88.3124084,111.225226 69.3124084,99.8252257 C50.3114084,88.4252257 57.9114084,58.8682257 76.9124084,55.9122257 C95.9134084,52.9562257 104.780408,46.2012257 98.8684084,30.5782257 C92.9574084,14.9552257 126.314408,-9.11277429 143.626408,3.55522571 C160.938408,16.2222257 142.782408,33.5342257 146.582408,44.0902257 C150.382408,54.6452257 158.405408,58.0232257 178.250408,74.0692257 C198.095408,90.1142257 213.296408,114.603226 179.939408,120.093226 C146.582408,125.582226 139.826408,130.226226 154.604408,140.783226 C169.383408,151.339226 138.981408,158.939226 128.847408,166.961226 C118.714408,174.984226 120.403408,194.407226 120.403408,194.407226 L111.958408,184.273226" id="Fill-680" fill="#14101A"></path>
                    <g id="Halloween/Features/Ghost" transform="translate(66.551030, 39.876681)">
                        <path d="M24.8525727,20.69653 C24.8525727,20.69653 28.6237043,20.1600665 28.5340103,19.4451123 C28.4443164,18.7301581 23.8639462,18.9978941 22.8763164,15.6928423 C21.8886865,12.3867989 19.9134268,3.2728683 14.1660389,1.0387604 C8.41865098,-1.1953475 1.50324876,0.0550786267 0.336231029,5.95320281 C-0.830786697,11.8503354 1.14447302,17.389495 4.6465228,20.3385571 C8.14857258,23.2876192 15.5134411,26.2356897 15.9619107,25.4314902 C16.4103804,24.6272907 15.5134411,24.0918187 16.2309925,24.1810641 C16.9495406,24.2703094 22.4278467,25.8787084 25.4804302,24.9852636 C28.5340103,24.0918187 28.8030921,22.9296463 28.8030921,22.9296463 C28.8030921,22.9296463 24.7628787,21.7684655 24.8525727,20.69653" id="Fill-724" fill="#F9F8E4"></path>
                        <path d="M10.843377,9.7054728 C10.843377,9.7054728 9.58566871,7.56160184 8.23926311,8.45504668 C6.89186092,9.34849151 7.52071505,11.0461359 7.96918472,11.2246265 C8.41865098,11.4031172 8.50834491,9.88495506 9.22689297,9.97320877 C9.94544104,10.0634457 10.9330709,10.3311817 10.843377,9.7054728" id="Fill-725" fill="#14101A"></path>
                        <path d="M15.0938728,7.11438361 C15.0938728,8.315229 14.1152123,9.28899463 12.9083306,9.28899463 C11.7014489,9.28899463 10.7227885,8.315229 10.7227885,7.11438361 C10.7227885,5.91353822 11.7014489,4.9397726 12.9083306,4.9397726 C14.1152123,4.9397726 15.0938728,5.91353822 15.0938728,7.11438361" id="Fill-726" fill="#14101A"></path>
                        <path d="M6.787218,8.79715374 C6.787218,9.99799914 5.80855753,10.9717648 4.60167584,10.9717648 C3.39479414,10.9717648 2.41613367,9.99799914 2.41613367,8.79715374 C2.41613367,7.59630835 3.39479414,6.62353434 4.60167584,6.62353434 C5.80855753,6.62353434 6.787218,7.59630835 6.787218,8.79715374" id="Fill-727" fill="#14101A"></path>
                    </g>
                    <g id="Group" transform="translate(144.976594, 79.839226)">
                        <g id="Halloween/Features/Ghost" transform="translate(14.500000, 13.000000) scale(-1, 1) translate(-14.500000, -13.000000) ">
                            <path d="M24.9373784,20.8715444 C24.9373784,20.8715444 28.7213784,20.3305444 28.6313784,19.6095444 C28.5413784,18.8885444 23.9453784,19.1585444 22.9543784,15.8255444 C21.9633784,12.4915444 19.9813784,3.30054438 14.2143784,1.04754438 C8.44737837,-1.20545562 1.50837837,0.0555443835 0.337378367,6.00354438 C-0.833621633,11.9505444 1.14837837,17.5365444 4.66237837,20.5105444 C8.17637837,23.4845444 15.5663784,26.4575444 16.0163784,25.6465444 C16.4663784,24.8355444 15.5663784,24.2955444 16.2863784,24.3855444 C17.0073784,24.4755444 22.5043784,26.0975444 25.5673784,25.1965444 C28.6313784,24.2955444 28.9013784,23.1235444 28.9013784,23.1235444 C28.9013784,23.1235444 24.8473784,21.9525444 24.9373784,20.8715444" id="Fill-724" fill="#F9F8E4"></path>
                            <path d="M10.8803784,9.78754438 C10.8803784,9.78754438 9.61837837,7.62554438 8.26737837,8.52654438 C6.91537837,9.42754438 7.54637837,11.1395444 7.99637837,11.3195444 C8.44737837,11.4995444 8.53737837,9.96854438 9.25837837,10.0575444 C9.97937837,10.1485444 10.9703784,10.4185444 10.8803784,9.78754438" id="Fill-725" fill="#14101A"></path>
                            <path d="M15.1453784,7.17454438 C15.1453784,8.38554438 14.1633784,9.36754438 12.9523784,9.36754438 C11.7413784,9.36754438 10.7593784,8.38554438 10.7593784,7.17454438 C10.7593784,5.96354438 11.7413784,4.98154438 12.9523784,4.98154438 C14.1633784,4.98154438 15.1453784,5.96354438 15.1453784,7.17454438" id="Fill-726" fill="#14101A"></path>
                            <path d="M6.81037837,8.87154438 C6.81037837,10.0825444 5.82837837,11.0645444 4.61737837,11.0645444 C3.40637837,11.0645444 2.42437837,10.0825444 2.42437837,8.87154438 C2.42437837,7.66054438 3.40637837,6.67954438 4.61737837,6.67954438 C5.82837837,6.67954438 6.81037837,7.66054438 6.81037837,8.87154438" id="Fill-727" fill="#14101A"></path>
                        </g>
                    </g>
                    <path d="M83.3874084,88.8472257 C83.3874084,89.4692257 82.8824084,89.9732257 82.2614084,89.9732257 C81.6394084,89.9732257 81.1354084,89.4692257 81.1354084,88.8472257 C81.1354084,88.2252257 81.6394084,87.7212257 82.2614084,87.7212257 C82.8824084,87.7212257 83.3874084,88.2252257 83.3874084,88.8472257" id="Fill-732" fill="#F3F0F4"></path>
                    <path d="M105.624408,76.4612257 C105.624408,77.0832257 105.120408,77.5872257 104.498408,77.5872257 C103.877408,77.5872257 103.372408,77.0832257 103.372408,76.4612257 C103.372408,75.8392257 103.877408,75.3352257 104.498408,75.3352257 C105.120408,75.3352257 105.624408,75.8392257 105.624408,76.4612257" id="Fill-733" fill="#F3F0F4"></path>
                    <path d="M93.2394084,102.499226 C93.2394084,103.510226 92.4194084,104.329226 91.4094084,104.329226 C90.3984084,104.329226 89.5794084,103.510226 89.5794084,102.499226 C89.5794084,101.489226 90.3984084,100.670226 91.4094084,100.670226 C92.4194084,100.670226 93.2394084,101.489226 93.2394084,102.499226" id="Fill-734" fill="#F3F0F4"></path>
                    <path d="M94.9284084,121.078226 C94.9284084,122.088226 94.1084084,122.908226 93.0984084,122.908226 C92.0874084,122.908226 91.2684084,122.088226 91.2684084,121.078226 C91.2684084,120.067226 92.0874084,119.248226 93.0984084,119.248226 C94.1084084,119.248226 94.9284084,120.067226 94.9284084,121.078226" id="Fill-735" fill="#F3F0F4"></path>
                    <path d="M116.040408,136.138226 C116.040408,136.449226 115.787408,136.701226 115.477408,136.701226 C115.166408,136.701226 114.914408,136.449226 114.914408,136.138226 C114.914408,135.827226 115.166408,135.575226 115.477408,135.575226 C115.787408,135.575226 116.040408,135.827226 116.040408,136.138226" id="Fill-736" fill="#F3F0F4"></path>
                    <path d="M140.248408,64.3572257 C140.248408,64.9792257 139.744408,65.4832257 139.122408,65.4832257 C138.500408,65.4832257 137.996408,64.9792257 137.996408,64.3572257 C137.996408,63.7352257 138.500408,63.2312257 139.122408,63.2312257 C139.744408,63.2312257 140.248408,63.7352257 140.248408,64.3572257" id="Fill-737" fill="#F3F0F4"></path>
                    <path d="M118.939408,24.9902257 C118.939408,25.7902257 118.290408,26.4402257 117.489408,26.4402257 C116.689408,26.4402257 116.040408,25.7902257 116.040408,24.9902257 C116.040408,24.1892257 116.689408,23.5402257 117.489408,23.5402257 C118.290408,23.5402257 118.939408,24.1892257 118.939408,24.9902257" id="Fill-738" fill="#F3F0F4"></path>
                    <path d="M140.530408,49.5782257 C140.530408,50.1232257 140.089408,50.5642257 139.544408,50.5642257 C139.000408,50.5642257 138.559408,50.1232257 138.559408,49.5782257 C138.559408,49.0352257 139.000408,48.5932257 139.544408,48.5932257 C140.089408,48.5932257 140.530408,49.0352257 140.530408,49.5782257" id="Fill-739" fill="#F3F0F4"></path>
                    <path d="M112.943408,49.8602257 C112.943408,50.5592257 112.376408,51.1272257 111.677408,51.1272257 C110.977408,51.1272257 110.410408,50.5592257 110.410408,49.8602257 C110.410408,49.1602257 110.977408,48.5932257 111.677408,48.5932257 C112.376408,48.5932257 112.943408,49.1602257 112.943408,49.8602257" id="Fill-740" fill="#F3F0F4"></path>
                    <path d="M136.870408,19.4592257 C136.870408,19.8482257 136.555408,20.1622257 136.166408,20.1622257 C135.778408,20.1622257 135.463408,19.8482257 135.463408,19.4592257 C135.463408,19.0702257 135.778408,18.7552257 136.166408,18.7552257 C136.555408,18.7552257 136.870408,19.0702257 136.870408,19.4592257" id="Fill-741" fill="#F3F0F4"></path>
                    <path d="M153.760408,76.4612257 C153.760408,77.2392257 153.130408,77.8682257 152.352408,77.8682257 C151.575408,77.8682257 150.945408,77.2392257 150.945408,76.4612257 C150.945408,75.6842257 151.575408,75.0542257 152.352408,75.0542257 C153.130408,75.0542257 153.760408,75.6842257 153.760408,76.4612257" id="Fill-742" fill="#F3F0F4"></path>
                    <path d="M121.078408,79.8392257 C121.078408,79.8392257 120.663408,81.6032257 119.418408,82.0192257 C119.418408,82.0192257 121.104408,82.8232257 121.130408,84.2242257 C121.130408,84.2242257 121.468408,82.1482257 122.635408,82.2262257 C122.635408,82.2262257 121.052408,81.6032257 121.078408,79.8392257" id="Fill-743" fill="#F3F0F4"></path>
                    <path d="M110.954408,109.244226 C110.954408,109.244226 110.539408,111.009226 109.294408,111.424226 C109.294408,111.424226 110.980408,112.228226 111.006408,113.629226 C111.006408,113.629226 111.344408,111.554226 112.511408,111.631226 C112.511408,111.631226 110.929408,111.009226 110.954408,109.244226" id="Fill-744" fill="#F3F0F4"></path>
                    <path d="M136.148408,117.548226 C136.148408,117.548226 135.733408,119.313226 134.488408,119.728226 C134.488408,119.728226 136.174408,120.532226 136.200408,121.933226 C136.200408,121.933226 136.537408,119.858226 137.705408,119.935226 C137.705408,119.935226 136.122408,119.313226 136.148408,117.548226" id="Fill-745" fill="#F3F0F4"></path>
                    <path d="M136.289408,92.2142257 C136.289408,92.2142257 135.873408,93.9782257 134.628408,94.3932257 C134.628408,94.3932257 136.315408,95.1982257 136.341408,96.5992257 C136.341408,96.5992257 136.678408,94.5232257 137.846408,94.6012257 C137.846408,94.6012257 136.263408,93.9782257 136.289408,92.2142257" id="Fill-746" fill="#F3F0F4"></path>
                    <path d="M73.2344084,73.9172257 C73.2344084,73.9172257 72.8194084,75.6812257 71.5744084,76.0972257 C71.5744084,76.0972257 73.2604084,76.9012257 73.2864084,78.3022257 C73.2864084,78.3022257 73.6234084,76.2262257 74.7914084,76.3042257 C74.7914084,76.3042257 73.2084084,75.6812257 73.2344084,73.9172257" id="Fill-747" fill="#F3F0F4"></path>
                    <path d="M181.187408,100.518226 C181.187408,100.518226 180.772408,102.283226 179.526408,102.698226 C179.526408,102.698226 181.213408,103.502226 181.239408,104.903226 C181.239408,104.903226 181.576408,102.827226 182.744408,102.905226 C182.744408,102.905226 181.161408,102.283226 181.187408,100.518226" id="Fill-748" fill="#F3F0F4"></path>
                    <g id="Group" transform="translate(124.145998, 138.429939)">
                        <g id="Halloween/Features/Ghost" transform="translate(9.000000, 8.068966) scale(-1, 1) rotate(30.000000) translate(-9.000000, -8.068966) ">
                            <path d="M15.4783728,12.9547517 C15.4783728,12.9547517 17.8270624,12.6189586 17.7712004,12.1714413 C17.7153383,11.7239241 14.8626486,11.8915103 14.2475452,9.82275169 C13.6324417,7.75337238 12.4022348,2.04861376 8.82271761,0.650199962 C5.24320037,-0.748213831 0.936234849,0.0344758242 0.209407262,3.72633789 C-0.517420324,7.41757927 0.712786573,10.8847517 2.89389002,12.7306827 C5.07499347,14.5766138 9.66189002,16.4219241 9.94120037,15.9185448 C10.2205107,15.4151655 9.66189002,15.0799931 10.1087866,15.1358551 C10.5563038,15.1917172 13.9682348,16.1984758 15.8694073,15.6392344 C17.7712004,15.0799931 17.9387866,14.3525448 17.9387866,14.3525448 C17.9387866,14.3525448 15.4225107,13.6257172 15.4783728,12.9547517" id="Fill-724" fill="#F9F8E4"></path>
                            <path d="M6.7533383,6.07502755 C6.7533383,6.07502755 5.97002795,4.73309651 5.13147623,5.29233789 C4.29230381,5.85157927 4.68395899,6.91419996 4.96326933,7.0259241 C5.24320037,7.13764824 5.29906243,6.18737238 5.74657968,6.24261376 C6.19409692,6.29909651 6.80920037,6.46668272 6.7533383,6.07502755" id="Fill-725" fill="#14101A"></path>
                            <path d="M9.40057968,4.45316548 C9.40057968,5.20482065 8.79106243,5.81433789 8.03940726,5.81433789 C7.28775209,5.81433789 6.67823485,5.20482065 6.67823485,4.45316548 C6.67823485,3.70151031 7.28775209,3.09199307 8.03940726,3.09199307 C8.79106243,3.09199307 9.40057968,3.70151031 9.40057968,4.45316548" id="Fill-726" fill="#14101A"></path>
                            <path d="M4.2271314,5.50647582 C4.2271314,6.258131 3.61761416,6.86764824 2.86595899,6.86764824 C2.11430381,6.86764824 1.50478657,6.258131 1.50478657,5.50647582 C1.50478657,4.75482065 2.11430381,4.1459241 2.86595899,4.1459241 C3.61761416,4.1459241 4.2271314,4.75482065 4.2271314,5.50647582" id="Fill-727" fill="#14101A"></path>
                        </g>
                    </g>
                    <path d="M42.2784084,103.729226 L39.9674084,101.535226 L40.1614084,102.684226 L39.5194084,103.361226 L38.5114084,102.618226 L39.5744084,105.449226 C39.5744084,105.449226 33.7834084,104.775226 32.3784084,107.836226 C30.9734084,110.896226 31.1584084,113.751226 31.1584084,113.751226 C31.1584084,113.751226 33.9404084,110.819226 34.8874084,111.289226 C35.8344084,111.760226 35.8344084,111.760226 35.8344084,111.760226 C35.8344084,111.760226 37.9974084,108.240226 40.8154084,108.771226 C43.6334084,109.303226 43.9664084,109.404226 43.9664084,109.404226 C43.9664084,109.404226 44.3954084,104.774226 46.0174084,103.742226 C47.6404084,102.710226 49.0664084,102.563226 49.0664084,102.563226 C49.0664084,102.563226 48.6374084,100.869226 49.9274084,99.7362257 C51.2174084,98.6032257 52.7534084,98.4532257 52.7534084,98.4532257 C52.7534084,98.4532257 47.9564084,95.8282257 45.9674084,97.5852257 C43.9784084,99.3412257 42.2784084,103.729226 42.2784084,103.729226" id="Fill-753" fill="#14101A"></path>
                    <path d="M174.240408,38.7922257 L173.602408,34.1582257 L174.806408,35.3742257 L176.162408,35.1882257 L176.139408,33.3482257 L178.605408,37.0402257 C178.605408,37.0402257 182.759408,29.5592257 187.610408,30.5052257 C192.461408,31.4502257 195.706408,34.1132257 195.706408,34.1132257 C195.706408,34.1132257 189.829408,34.9212257 189.579408,36.4522257 C189.329408,37.9842257 189.329408,37.9842257 189.329408,37.9842257 C189.329408,37.9842257 183.281408,37.5492257 181.503408,41.3632257 C179.724408,45.1782257 179.560408,45.6612257 179.560408,45.6612257 C179.560408,45.6612257 173.673408,42.2102257 171.054408,43.2612257 C168.434408,44.3122257 167.038408,45.8862257 167.038408,45.8862257 C167.038408,45.8862257 165.387408,43.9252257 162.931408,44.4932257 C160.476408,45.0602257 158.983408,46.7632257 158.983408,46.7632257 C158.983408,46.7632257 159.960408,38.7982257 163.757408,37.9312257 C167.553408,37.0632257 174.240408,38.7922257 174.240408,38.7922257" id="Fill-2858" fill="#14101A"></path>
                    <g id="Group" transform="translate(1.540376, 64.865419)" fill="#14101A">
                        <g id="Halloween/Features/Bat" transform="translate(18.350000, 8.167341) rotate(-16.000000) translate(-18.350000, -8.167341) ">
                            <path d="M21.4047977,8.34533672 L22.0390925,3.72495522 L20.8383873,4.93796447 L19.4868514,4.7519188 L19.5103988,2.9179795 L17.051711,6.59858643 C17.051711,6.59858643 12.910763,-0.859999115 8.07187861,0.0823211167 C3.23511561,1.02464135 0,3.67976967 0,3.67976967 C0,3.67976967 5.85927168,4.4856847 6.10959538,6.01244713 C6.35779769,7.53942169 6.35779769,7.53942169 6.35779769,7.53942169 C6.35779769,7.53942169 12.3886896,7.105598 14.1623815,10.9090333 C15.9358613,14.7122564 16.0992081,15.1938113 16.0992081,15.1938113 C16.0992081,15.1938113 21.9690867,11.752709 24.5805145,12.8008864 C27.1919422,13.8486396 28.5835723,15.4180419 28.5835723,15.4180419 C28.5835723,15.4180419 30.2297688,13.4627593 32.6778497,14.0291697 C35.1259306,14.5953679 36.6151445,16.2926899 36.6151445,16.2926899 C36.6151445,16.2926899 35.6414277,8.35085233 31.8568728,7.48596274 C28.0701965,6.62128528 21.4047977,8.34533672 21.4047977,8.34533672" id="Fill-1322"></path>
                        </g>
                    </g>
                </g>
                <g id="Book" transform="translate(29.255000, 166.279226)">
                    <path d="M192.389,0 L198.074,11.195 L103.436,40.676 C103.436,40.676 108.074,30.019 113.228,25.626 C118.382,21.232 131.391,20.364 136.333,19.454 C141.274,18.545 185.893,8.033 192.389,0" id="Fill-2822" fill="#14101A"></path>
                    <path d="M9.191,26.112 L15.839,16.676 L29.428,19.184 C29.428,19.184 22.166,13.273 21.115,10.653 L27.896,9.721 C27.896,9.721 32.621,16.442 39.043,16.249 C45.465,16.057 76.815,12.898 87.938,20.927 C99.061,28.955 103.436,40.676 103.436,40.676 C103.436,40.676 113.391,28.482 121.657,27.461 C129.923,26.439 176.033,17.565 184.837,15.433 C193.642,13.301 206.333,8.447 206.333,8.447 L223.428,49.857 C223.428,49.857 220.433,54.875 222.416,55.063 C224.399,55.251 225.729,54.032 225.729,54.032 C225.729,54.032 233.331,84.194 235.59,87.224 C237.849,90.253 243.975,100.465 243.975,100.465 L232.879,111.895 L227.042,111.316 L9.191,26.112" id="Fill-2823" fill="#F9F8E4"></path>
                    <polyline id="Fill-2824" fill="#EEA64F" points="214.151 126.446 233.228 123.363 227.923 109.352 223.189 109.542 210.195 120.005 214.151 126.446"></polyline>
                    <path d="M67.452,139.939 L50.593,139.609 L46.058,127.565 L54.893,125.659 C54.893,125.659 68.352,131.409 67.452,139.939" id="Fill-2825" fill="#F0A64E"></path>
                    <path d="M230.815,107.496 L235.924,117.848 C235.924,117.848 236.276,122.637 233.228,123.363 L227.892,109.126 L230.815,107.496" id="Fill-2826" fill="#E0572A"></path>
                    <polyline id="Fill-2827" fill="#171020" points="205.521 40.228 230.815 107.496 224.835 113.692 198.719 39.896 205.521 40.228"></polyline>
                    <path d="M202.293,43.55 L194.867,47.335 L181.507,38.117 L179.6,32.621 L196.651,30.162 C196.651,30.162 202.917,41.392 202.293,43.55" id="Fill-2828" fill="#F0A54B"></path>
                    <path d="M9.355,44.054 L6.35,44.813 L0,31.291 L17.131,31.93 C17.131,31.93 21.67,43.167 9.355,44.054" id="Fill-2829" fill="#EBA549"></path>
                    <polyline id="Fill-2830" fill="#FFFFFE" points="6.35 44.813 46.058 127.565 53.409 125.748 12.488 43.393 6.35 44.813"></polyline>
                    <path d="M16.899,26.895 C16.899,26.895 54.117,24.541 67.693,29.468 C81.268,34.396 89.547,40.167 92.652,51.026 C92.652,51.026 107.69,44.813 114.128,53.946 C114.128,53.946 140.729,36.354 182.459,29.119 L179.6,32.621 L113.362,58.427 L90.289,55.612 C90.289,55.612 62.337,32.393 45.973,33.146 C29.608,33.899 17.131,31.93 17.131,31.93 L16.899,26.895" id="Fill-2831" fill="#171020"></path>
                    <path d="M9.355,44.054 L51.128,126.753 L53.389,126.442 C53.389,126.442 52.925,134.797 66.502,136.384 L67.452,139.939 C67.452,139.939 102.782,140.609 111.875,148.11 C120.968,155.612 134.665,158.911 134.665,158.911 C134.665,158.911 171.181,130.513 214.151,126.446 L213.397,122.635 C213.397,122.635 230.396,123.983 227.658,110.77 L227.923,109.352 L202.293,43.55 L197.67,45.108 C197.67,45.108 196.443,32.839 181.609,37.182 L179.6,32.621 C179.6,32.621 127.483,45.546 113.125,57.539 L90.001,55.191 C90.001,55.191 84.882,22.153 17.131,31.93 L17.247,34.447 C17.247,34.447 4.777,30.864 9.355,44.054" id="Fill-2832" fill="#735292"></path>
                    <path d="M200.319,84.473 L201.394,84.325 C199.36,69.552 186.721,58.847 172.212,58.847 C170.874,58.847 169.52,58.938 168.159,59.126 C153.385,61.159 142.681,73.798 142.68,88.307 C142.68,89.645 142.771,90.999 142.959,92.36 C144.993,107.134 157.631,117.838 172.14,117.838 C173.478,117.838 174.832,117.747 176.194,117.56 C190.968,115.527 201.672,102.888 201.672,88.378 C201.672,87.04 201.581,85.687 201.394,84.325 L200.319,84.473 L199.244,84.621 C199.418,85.884 199.502,87.139 199.502,88.378 C199.502,101.812 189.585,113.531 175.898,115.41 C174.634,115.584 173.38,115.668 172.14,115.668 C158.707,115.668 146.988,105.751 145.108,92.065 C144.935,90.801 144.85,89.547 144.85,88.307 C144.85,74.874 154.768,63.155 168.454,61.275 C169.718,61.101 170.973,61.017 172.212,61.017 C185.645,61.017 197.364,70.934 199.244,84.621 L200.319,84.473" id="Fill-2833" fill="#2C1E49"></path>
                    <path d="M24.344,40.841 L24.443,41.117 C24.443,41.117 24.599,41.062 24.904,40.962 C27.039,40.263 36.361,37.453 48.034,37.454 C61.266,37.456 77.49,41.054 89.778,55.381 L90.001,55.191 L89.716,55.262 L110.418,137.979 L110.702,137.907 L110.779,137.625 C110.777,137.624 103.041,135.515 93.81,133.406 C84.575,131.298 73.863,129.186 67.835,129.184 C66.102,129.187 64.756,129.35 63.886,129.786 L64.019,130.047 L64.312,130.042 C64.311,130.004 64.272,128.05 62.665,125.587 C61.059,123.123 57.887,120.167 51.684,118.119 L51.592,118.397 L51.858,118.273 L20.81,51.604 L20.544,51.728 L20.763,51.923 C20.77,51.914 21.804,50.757 22.842,49.038 C23.877,47.318 24.927,45.039 24.93,42.753 C24.93,42.08 24.837,41.406 24.623,40.75 L24.344,40.841 L24.443,41.117 L24.344,40.841 L24.066,40.933 C24.259,41.523 24.344,42.133 24.344,42.753 C24.347,44.856 23.35,47.064 22.34,48.735 C21.835,49.57 21.33,50.272 20.951,50.764 C20.762,51.01 20.605,51.203 20.495,51.335 C20.385,51.466 20.325,51.533 20.325,51.533 C20.247,51.62 20.229,51.746 20.278,51.852 L51.326,118.521 L51.5,118.675 C57.602,120.693 60.643,123.562 62.174,125.907 C62.939,127.08 63.327,128.125 63.524,128.873 C63.622,129.247 63.673,129.546 63.699,129.75 C63.711,129.852 63.718,129.93 63.722,129.981 L63.725,130.052 C63.727,130.153 63.781,130.246 63.867,130.298 C63.954,130.35 64.061,130.354 64.151,130.308 C64.847,129.95 66.145,129.767 67.835,129.77 C73.745,129.768 84.466,131.871 93.68,133.978 C98.289,135.031 102.526,136.084 105.61,136.874 C107.152,137.269 108.406,137.598 109.275,137.828 C110.143,138.059 110.624,138.19 110.625,138.19 C110.725,138.217 110.833,138.189 110.907,138.117 C110.981,138.044 111.012,137.937 110.987,137.836 L90.285,55.119 L90.223,55 C77.793,40.504 61.363,36.866 48.034,36.8679992 C34.586,36.8679992 24.265,40.559 24.246,40.565 C24.096,40.619 24.016,40.781 24.066,40.933 L24.344,40.841" id="Fill-2834" fill="#2C1E49"></path>
                    <polyline id="Fill-2835" fill="#2C1E49" points="117.186 77.018 113.125 57.539 90.001 55.191 114.134 160.352 134.665 158.911 117.186 77.018"></polyline>
                    <path d="M120.341,54.379 L141.118,153.553 C141.151,153.712 141.306,153.813 141.465,153.78 C141.623,153.747 141.725,153.592 141.692,153.433 L120.915,54.259 C120.882,54.1 120.726,53.999 120.568,54.032 C120.409,54.065 120.308,54.221 120.341,54.379" id="Fill-2836" fill="#2C1E49"></path>
                    <path d="M113.293,68.532 L113.006,68.593 L129.922,149.181 L130.209,149.121 L129.997,148.919 C129.994,148.922 129.124,149.831 128.248,150.921 C127.81,151.466 127.37,152.056 127.035,152.608 C126.702,153.165 126.458,153.664 126.451,154.128 C126.451,154.24 126.467,154.353 126.511,154.462 L126.534,154.452 L126.51,154.452 L126.511,154.461 L126.534,154.452 L126.51,154.452 L126.551,154.452 L126.512,154.435 L126.51,154.452 L126.551,154.452 L126.512,154.435 L126.45,154.497 C126.265,154.649 125.688,154.839 124.983,154.973 C123.919,155.182 122.53,155.322 121.413,155.408 C120.295,155.494 119.451,155.526 119.449,155.527 L119.46,155.819 L119.729,155.701 C119.726,155.695 119.277,154.675 118.665,153.628 C118.358,153.103 118.012,152.572 117.65,152.151 C117.284,151.735 116.92,151.4 116.459,151.339 C115.954,151.281 115.564,150.982 115.131,150.272 C114.706,149.566 114.287,148.483 113.781,147.023 C113.727,146.868 113.604,146.4 113.437,145.698 C112.171,140.409 108.138,121.387 104.423,103.696 C102.566,94.849 100.788,86.334 99.474,80.031 C98.817,76.879 98.276,74.28 97.899,72.469 C97.523,70.658 97.311,69.638 97.31,69.635 L97.023,69.695 L97.27,69.854 C97.274,69.847 97.779,69.063 98.286,67.989 C98.792,66.912 99.309,65.553 99.312,64.344 C99.312,64.178 99.302,64.016 99.281,63.857 L99.276,63.787 C99.273,63.589 99.404,63.344 99.715,63.084 C100.175,62.697 100.987,62.33 101.938,62.075 C102.889,61.818 103.982,61.666 105.016,61.666 C105.968,61.665 106.871,61.797 107.564,62.079 C108.261,62.364 108.728,62.778 108.911,63.351 C109.454,65.047 109.885,66.239 110.514,67.115 C111.144,67.993 111.99,68.515 113.222,68.817 L113.293,68.532 L113.006,68.593 L113.293,68.532 L113.364,68.248 C112.211,67.957 111.546,67.534 110.99,66.772 C110.434,66.006 110.006,64.86 109.47,63.173 C109.219,62.386 108.577,61.855 107.785,61.536 C106.988,61.213 106.021,61.08 105.016,61.079 C103.56,61.08 102.027,61.361 100.832,61.817 C100.234,62.045 99.721,62.316 99.339,62.634 C98.961,62.95 98.692,63.333 98.689,63.787 L98.7,63.937 C98.717,64.066 98.726,64.202 98.726,64.344 C98.73,65.385 98.248,66.702 97.756,67.738 C97.511,68.257 97.265,68.709 97.081,69.029 C96.897,69.35 96.777,69.536 96.777,69.536 L96.736,69.755 C96.736,69.755 100.602,88.378 104.596,107.368 C106.592,116.863 108.621,126.45 110.214,133.846 C111.01,137.545 111.698,140.696 112.218,143.015 C112.478,144.174 112.697,145.126 112.867,145.834 C113.037,146.546 113.155,147.003 113.227,147.215 C113.738,148.685 114.158,149.79 114.629,150.574 C115.091,151.352 115.654,151.844 116.396,151.921 C116.559,151.927 116.886,152.151 117.205,152.533 C117.692,153.099 118.197,153.957 118.57,154.666 C118.758,155.022 118.914,155.341 119.023,155.57 C119.131,155.8 119.192,155.937 119.192,155.938 C119.241,156.048 119.352,156.117 119.472,156.112255 C119.476,156.112255 121.315,156.041 123.164,155.833 C124.09,155.728 125.016,155.591 125.729,155.406 C126.087,155.312 126.391,155.209 126.629,155.077 C126.749,155.011 126.854,154.937 126.941,154.838 C127.027,154.742 127.097,154.605 127.096,154.452 L127.055,154.243 L127.037,154.128 C127.029,153.898 127.219,153.425 127.536,152.913 C128.007,152.137 128.731,151.233 129.335,150.531 C129.637,150.179 129.909,149.877 130.105,149.662 C130.301,149.448 130.42,149.324 130.421,149.324 C130.488,149.254 130.516,149.156 130.496,149.061 L113.58,68.472 C113.557,68.362 113.473,68.275 113.364,68.248 L113.293,68.532" id="Fill-2837" fill="#FFFFFE"></path>
                    <path d="M161.062868,47.4788926 L161.156407,47.5815896 L176.585,66.418 L199.509748,57.3615624 L199.6437,57.3178538 C200.143725,57.1844696 200.675076,57.3514252 201.009573,57.7503773 C201.349118,58.1553494 201.416167,58.7130037 201.192309,59.1814661 L201.124031,59.3068355 L188.112,80.493 L207.103275,103.680429 C207.367355,104.002304 207.461583,104.424312 207.368941,104.826928 L207.325407,104.976766 L207.271083,105.108909 L207.195519,105.244839 C206.908188,105.69344 206.384099,105.925846 205.866685,105.845695 L205.737611,105.81909 L177.093,98.437 L159.724143,126.724653 C159.46206,127.152208 158.982337,127.392412 158.480222,127.355034 L158.342873,127.337891 L158.211902,127.306971 C157.679355,127.151409 157.302657,126.68193 157.256579,126.137568 L157.252049,126.000056 L157.895,93.491 L131.716611,86.7460901 C131.30364,86.6396635 130.972186,86.3433573 130.812967,85.9515642 L130.766398,85.8175594 L130.733334,85.6772584 L130.716479,85.5364618 C130.683534,85.0048075 130.972013,84.5069932 131.438787,84.2669974 L131.559112,84.2124993 L158.288,73.648 L158.789049,48.4010559 C158.797141,47.9919471 158.990526,47.6165532 159.304279,47.373011 L159.427453,47.2880549 L159.560226,47.2173957 L159.687147,47.1657796 C160.127735,47.0131106 160.607298,47.1027648 160.960773,47.3876254 L161.062868,47.4788926 Z M160.551,94.175 L160.018,121.143 L174.388,97.74 L160.551,94.175 Z M186.633,82.902 L178.555,96.057 L202.451,102.214 L186.633,82.902 Z M175.752,69.617 L160.922,75.478 L160.605,91.431 L175.85,95.359 L184.842,80.715 L175.752,69.617 Z M158.231,76.541 L136.359,85.185 L157.949,90.747 L158.231,76.541 Z M196.752,61.319 L178.36,68.587 L186.321,78.307 L196.752,61.319 Z M161.386,52.075 L160.978,72.585 L173.976,67.449 L161.386,52.075 Z" id="Star" fill="#2C1E49" fill-rule="nonzero"></path>
                    <polyline id="Fill-2839" fill="#E15F29" points="205.521 40.228 202.293 43.55 197.531 31.538 200.491 27.1 205.521 40.228"></polyline>
                    <polyline id="Fill-2840" fill="#E0572A" points="179.6 32.621 197.531 31.538 200.491 27.1 182.459 29.119 179.6 32.621"></polyline>
                    <polyline id="Fill-2841" fill="#E0572A" points="17.131 31.93 16.899 26.895 1.623 26.346 0 31.291 17.131 31.93"></polyline>
                    <path d="M138.723,135.667 C138.723,135.667 128.555,146.585 104.988,140.459 L103.048,133.048 C103.048,133.048 128.165,134.815 136.414,128.921 L138.723,135.667" id="Fill-2842" fill="#EEA950"></path>
                    <path d="M126.766,83.877 L124.695,76.638 L90.499,79.191 L92.734,87.635 C92.734,87.635 118.594,91.45 126.766,83.877" id="Fill-2843" fill="#EEA950"></path>
                    <path d="M124.695,76.638 L121.24,74.964 C121.24,74.964 118.5,80.714 91.544,76.744 L90.499,79.191 C90.499,79.191 119.278,84.139 124.695,76.638" id="Fill-2844" fill="#E05929"></path>
                    <path d="M136.414,128.921 L131.384,128.077 C131.384,128.077 128.026,132.685 119.832,132.276 C111.638,131.867 105.34,130.737 105.34,130.737 L103.048,133.048 C103.048,133.048 127.773,139.782 136.414,128.921" id="Fill-2845" fill="#E05929"></path>
                    <path d="M206.009,20.761 L233.047,95.121 C233.103,95.273 233.271,95.351 233.423,95.296 C233.575,95.241 233.654,95.073 233.598,94.92 L206.56,20.561 C206.505,20.408 206.337,20.33 206.184,20.385 C206.032,20.441 205.954,20.609 206.009,20.761" id="Fill-2846" fill="#2C1E49"></path>
                    <path d="M217.226,67.137 L233.414,106.138 C233.476,106.288 233.647,106.359 233.797,106.297 C233.946,106.235 234.017,106.063 233.955,105.914 L217.767,66.913 C217.705,66.763 217.534,66.692 217.384,66.754 C217.235,66.816 217.164,66.988 217.226,67.137" id="Fill-2847" fill="#2C1E49"></path>
                    <path d="M206.079,8.301 L195.217,27.299 C195.136,27.44 195.185,27.619 195.326,27.699 C195.466,27.78 195.645,27.731 195.726,27.59 L206.587,8.592 C206.668,8.452 206.619,8.273 206.478,8.192 C206.338,8.112 206.159,8.161 206.079,8.301" id="Fill-2848" fill="#2C1E49"></path>
                    <path d="M188.426,23.282 C188.426,23.282 177.861,25.598 167.064,28.12 C161.665,29.38 156.208,30.692 151.982,31.792 C149.869,32.342 148.064,32.839 146.725,33.251 C146.055,33.457 145.501,33.642 145.08,33.804 C144.655,33.97 144.378,34.091 144.191,34.25 C144.07,34.357 144.058,34.542 144.166,34.664 C144.273,34.785 144.458,34.796 144.58,34.689 C144.623,34.643 144.893,34.5 145.29,34.351 C146.799,33.771 150.281,32.815 154.624,31.721 C161.143,30.078 169.626,28.111 176.478,26.555 C179.904,25.777 182.923,25.102 185.085,24.621 C187.247,24.14 188.549,23.855 188.552,23.854 C188.71,23.82 188.81,23.663 188.776,23.505 C188.741,23.347 188.585,23.247 188.427,23.282" id="Fill-2849" fill="#2C1E49"></path>
                    <path d="M173.969,20.435 C173.965,20.436 172.223,20.92 169.48,21.667 C161.255,23.91 144.041,28.523 138.166,29.501 C134.222,30.159 128.134,31.225 122.732,33.243 C120.031,34.252 117.499,35.499 115.487,37.064 C113.478,38.628 111.982,40.52 111.401,42.809 C111.361,42.966 111.456,43.125 111.613,43.165 C111.77,43.205 111.929,43.11 111.969,42.953 C112.509,40.827 113.904,39.04 115.847,37.527 C121.675,32.979 132.361,31.058 138.263,30.079 C146.184,28.757 174.118,21.001 174.126,21 C174.282,20.957 174.374,20.795 174.33,20.639 C174.287,20.483 174.125,20.392 173.97,20.435" id="Fill-2850" fill="#2C1E49"></path>
                    <path d="M95.404,36.463 C95.396,36.452 92.355,32.094 87.467,27.728 C82.579,23.365 75.838,18.974 68.395,18.969 C67.921,18.969 67.444,18.987 66.965,19.024 C63.401,19.299 59.417,19.404 55.407,19.404 C48.85,19.404 42.223,19.122 37.237,18.84 C34.744,18.699 32.661,18.558 31.201,18.452 C29.742,18.346 28.909,18.276 28.907,18.275 C28.746,18.262 28.604,18.382 28.59,18.543 C28.577,18.704 28.696,18.846 28.858,18.86 C28.862,18.86 42.26,19.991 55.407,19.991 C59.427,19.991 63.424,19.885 67.01,19.608 C67.474,19.572 67.936,19.555 68.395,19.555 C75.598,19.55 82.242,23.843 87.077,28.165 C89.494,30.324 91.458,32.485 92.816,34.105 C93.496,34.915 94.023,35.59 94.381,36.062 C94.738,36.533 94.923,36.798 94.924,36.799 C95.016,36.932 95.199,36.964 95.332,36.871 C95.465,36.779 95.497,36.596 95.405,36.463" id="Fill-2851" fill="#2C1E49"></path>
                    <path d="M86.982,33.916 C86.948,33.868 77.488,22.373 52.827,22.376999 C47.808,22.376999 42.16,22.852 35.835,23.995 C35.675,24.024 35.569,24.177 35.598,24.336 C35.627,24.495 35.78,24.601 35.939,24.572 C42.232,23.435 47.845,22.963 52.827,22.963 C65.064,22.963 73.495,25.809 78.866,28.645 C81.552,30.064 83.472,31.48 84.719,32.539 C85.342,33.069 85.797,33.509 86.095,33.815 C86.244,33.968 86.353,34.088 86.425,34.169 L86.529,34.288 C86.631,34.413 86.816,34.432 86.941,34.329 C87.066,34.226 87.085,34.042 86.982,33.916" id="Fill-2852" fill="#2C1E49"></path>
                    <g id="Halloween/Features/Crane-2" transform="translate(163.550364, 75.871616)" fill="#FFFDED">
                        <path d="M0.85963595,4.28738396 C2.88563595,-0.520616038 13.670636,-1.92661604 15.482636,3.42838396 C17.293636,8.78438396 13.452636,11.001384 13.452636,11.001384 C13.452636,11.001384 13.986636,13.768384 12.881636,15.225384 C11.776636,16.682384 10.783636,13.364384 10.783636,13.364384 C10.587636,15.848384 10.080636,16.071384 8.95063595,16.226384 C8.23915447,16.3246062 7.87494871,15.1879381 7.70276357,14.3324883 L7.695,14.296 L7.69829596,14.3406467 C7.72932897,15.0228217 7.60905442,15.8934411 6.8788157,16.2422672 L6.73463595,16.301384 C5.44633292,16.7478082 5.33960014,13.7120754 5.33265376,12.9695812 L5.33263595,12.808384 L5.33263595,12.808384 L5.2070071,12.8089297 C5.1955863,12.8089793 5.18312724,12.8090334 5.16953554,12.8090925 L5.01408045,12.8097678 C4.99284342,12.80986 4.97019059,12.8099584 4.94602756,12.8100634 L4.78217205,12.8107752 C4.44577745,12.8122365 3.90380836,12.8145909 3.03063595,12.818384 C0.72863595,12.827384 -1.16636405,9.09538396 0.85963595,4.28738396 Z M8.62763595,9.13138396 C8.19063595,9.19138396 7.88463595,9.59438396 7.94563595,10.031384 C8.00563595,10.468384 8.40863595,10.773384 8.84563595,10.713384 C9.28163595,10.653384 9.58763595,10.250384 9.52763595,9.81338396 C9.46763595,9.37638396 9.06463595,9.07138396 8.62763595,9.13138396 Z M5.32863595,6.36038396 C4.55863595,6.46638396 4.02063595,7.17638396 4.12663595,7.94638396 C4.23263595,8.71638396 4.94263595,9.25438396 5.71263595,9.14838396 C6.48263595,9.04238396 7.02063595,8.33238396 6.91463595,7.56238396 C6.80863595,6.79238396 6.09863595,6.25438396 5.32863595,6.36038396 Z M10.099636,5.32038396 C9.32963595,5.42638396 8.79163595,6.13638396 8.89763595,6.90638396 C9.00263595,7.67638396 9.71263595,8.21438396 10.482636,8.10838396 C11.252636,8.00238396 11.790636,7.29238396 11.684636,6.52238396 C11.578636,5.75338396 10.869636,5.21438396 10.099636,5.32038396 Z" id="Combined-Shape"></path>
                    </g>
                </g>
            </g>
        </g>
    </g>
</svg>