<?xml version="1.0" encoding="UTF-8"?>
<svg width="689px" height="392px" viewBox="0 0 689 392" version="1.1" xmlns="http://www.w3.org/2000/svg" xmlns:xlink="http://www.w3.org/1999/xlink">
    <title>decoration-4</title>
    <g id="decoration-4" stroke="none" stroke-width="1" fill="none" fill-rule="evenodd">
        <g id="Halloween/Stuffs/Tomb" transform="translate(287.000000, 160.510989)">
            <path d="M81.5409346,12.751499 C34.6229148,33.7038466 3.02691194,68.0741663 0.925045961,103.8283 C0.82307614,105.55345 0.820471452,107.403897 0.914086611,109.378597 L0.968897949,110.376296 L1.03965856,111.394676 C1.05277625,111.566127 1.06655485,111.738439 1.08099254,111.911611 L1.17551324,112.960956 L1.28576479,114.030908 L1.41165982,115.121439 C1.45622237,115.488375 1.5033776,115.858737 1.55311096,116.232518 L1.71003085,117.364118 C1.76490589,117.744735 1.8223445,118.128767 1.8823321,118.51621 L2.06992736,119.688763 C2.16753393,120.280151 2.27084299,120.879201 2.37980539,121.485897 L2.60525342,122.709479 L2.84568966,123.953423 L3.10102675,125.217698 L3.37117731,126.502275 L3.65605397,127.807127 L3.95556937,129.132223 C4.00670365,129.354758 4.05844423,129.578135 4.1107893,129.802354 L4.43209898,131.157763 C4.48685472,131.385347 4.5422113,131.613771 4.5981669,131.843034 L4.9410743,133.228691 L5.29827095,134.634476 C5.35898964,134.87045 5.42030008,135.10726 5.48220045,135.344908 L5.86066717,136.780832 L6.25320473,138.236813 L6.65972576,139.71282 L7.08014289,141.208826 L7.51436875,142.724801 L7.96231596,144.260717 L8.42389717,145.816543 L9.1416416,148.187553 L9.88957106,150.6032 L10.6673907,153.063387 L11.2023971,154.728207 L11.7504696,156.412749 L12.5968862,158.97648 L13.4855337,161.62346 C17.7222396,174.139737 22.7138345,187.449551 28.1062675,200.918447 L29.657564,204.770484 L30.3447986,206.462909 L30.1823778,206.543768 C27.6588212,207.755546 24.7298003,208.425889 20.9184688,208.371358 L20.4162958,208.36012 C13.8648488,208.162053 8.36601916,209.774066 4.55399318,214.806816 C0.556879568,220.083924 0.806573886,225.839984 3.11286772,231.206686 C5.01859974,235.641289 8.22894256,239.618571 12.2332649,243.652622 L12.8357073,244.251615 L13.2771528,244.681049 L13.3546052,244.769951 C18.3777499,250.450112 25.5905185,253.902183 34.5313597,255.829317 C41.5727001,257.347027 49.7181542,257.906976 58.8233117,257.706171 C67.5849987,257.512941 76.8457794,256.626449 86.1454261,255.271095 C87.4850136,255.075861 88.792631,254.87551 90.0641232,254.671816 L91.9437479,254.363987 L93.7660681,254.052472 C94.0648396,254.000319 94.3610936,253.948068 94.6547651,253.895746 L96.3852849,253.58119 L97.3730694,253.395274 L98.5455069,253.708345 L99.9473903,254.074545 C104.229558,255.181791 108.916538,256.286911 113.873361,257.319274 C120.971671,258.796402 128.606383,257.815684 136.754002,255.317565 L137.750672,255.004752 C139.733333,254.368134 141.6507,253.667048 143.480678,252.928349 L144.001,252.71449 L145.964946,253.11361 L148.51831,253.618791 C148.949331,253.702855 149.382991,253.786822 149.819157,253.870648 L152.465148,254.371542 C155.139059,254.870016 157.893502,255.360152 160.699455,255.832228 C166.913157,256.877627 172.962533,257.76318 178.706393,258.438307 L179.559935,258.537372 L181.24618,258.725425 C181.524899,258.755639 181.802455,258.785285 182.078844,258.81436 L183.723154,258.981916 L185.339312,259.135543 C185.606316,259.159975 185.872141,259.183818 186.136784,259.207067 L187.710416,259.339406 L189.255501,259.45729 C189.765755,259.494152 190.271224,259.528569 190.771883,259.560507 L192.259402,259.648846 C192.995921,259.689261 193.721557,259.724018 194.436222,259.752999 L195.850899,259.803222 C200.984219,259.958875 205.524384,259.799617 209.436467,259.278671 C218.095763,258.124528 225.27321,255.993616 231.084489,253.073235 L231.604006,252.808327 C233.832581,251.655284 235.766951,250.436846 237.424645,249.194156 L237.777222,248.925525 L237.004172,248.878874 C242.406165,249.228051 247.931154,249.375591 253.18687,249.202996 L254.417608,249.15758 C254.82353,249.140885 255.225144,249.122599 255.622492,249.102626 L256.80178,249.037544 C256.99621,249.025819 257.189583,249.013649 257.381907,249.001019 L258.523283,248.919634 L259.639707,248.826641 L260.731436,248.72145 C269.187259,247.848128 275.393764,245.79758 279.90756,241.290741 C285.100632,236.097327 287.036624,228.710137 282.382842,221.957443 C280.027765,218.540199 277.435861,216.958363 273.294594,215.245884 L272.588799,214.959995 L271.762064,214.639152 L268.149643,213.254383 L267.623988,213.042467 L267.323885,212.916804 L266.775327,212.677763 C266.346623,212.485442 265.988542,212.310417 265.697758,212.1534 L265.550007,212.071928 L265.478838,211.90619 C262.415656,204.984675 256.198905,201.1546 248.346047,199.132588 L247.510823,198.92604 C244.436255,198.196525 241.231367,197.770733 237.979861,197.570535 L237.655076,197.55219 L237.483479,197.332216 C235.531681,194.864708 233.058387,192.534454 229.991528,190.490257 L229.683819,190.288848 L230.427811,187.74371 L231.193884,185.091918 L231.942533,182.471163 L232.673267,179.882534 L233.61886,176.482886 L234.305879,173.973453 L235.191405,170.683352 L235.832037,168.259045 L236.451969,165.873034 L237.050712,163.52641 L237.437858,161.984413 L237.815223,160.460727 L238.36261,158.210238 L238.714884,156.733743 L239.056866,155.276689 L239.388411,153.839398 L239.865842,151.721224 L240.170659,150.334754 L240.464529,148.969176 L240.747308,147.624814 L241.01885,146.30199 L241.279009,145.001027 L241.52764,143.722248 L241.764597,142.465974 C241.803108,142.258489 241.841128,142.051954 241.878652,141.846378 L242.097825,140.624469 L242.30496,139.425872 C242.338472,139.228067 242.371476,139.031246 242.403969,138.835417 L242.592775,137.672395 L242.769179,136.533492 L242.933037,135.419031 L243.084201,134.329335 L243.222528,133.264726 C243.244505,133.0894 243.26594,132.915133 243.286832,132.741931 L243.405628,131.715558 L243.511222,130.71508 C243.527713,130.550509 243.543648,130.387031 243.559023,130.224651 L243.644542,129.263619 C243.657669,129.105663 243.67023,128.94882 243.682223,128.793095 L243.747338,127.872235 C243.757046,127.721015 243.76618,127.570927 243.774736,127.421979 L243.858955,125.924623 L243.935379,124.473499 L244.003712,123.066772 L244.063662,121.702607 L244.114936,120.37917 L244.157239,119.094624 L244.190278,117.847135 L244.213759,116.634868 L244.22739,115.455989 C244.228824,115.262189 244.229836,115.069704 244.230419,114.878496 L244.228722,113.746257 L244.216441,112.642817 L244.19328,111.566343 C244.183715,111.211808 244.172287,110.861462 244.158948,110.514998 L244.11315,109.486948 L244.055593,108.480358 L243.985983,107.493394 C243.935494,106.841551 243.876773,106.201568 243.809431,105.570999 L243.701901,104.631899 L243.581144,103.705085 C243.262474,101.401875 242.817049,99.1966366 242.224227,96.9603477 L241.979188,96.0638702 L241.718133,95.1622458 L241.440769,94.2536395 C241.345564,93.9494031 241.247591,93.6436973 241.146802,93.3362162 L240.835938,92.4081411 C240.782703,92.2524723 240.728752,92.0962832 240.674079,91.9395356 C238.309887,85.1614646 234.632861,78.3797695 229.233674,70.9731418 L228.410829,69.857383 L227.561844,68.7317843 C226.987072,67.9780015 226.39467,67.2173482 225.784228,66.4492029 L224.854983,65.2912883 C224.383544,64.7094439 223.901842,64.1232105 223.409705,63.5323261 L222.411466,62.3442781 C222.074047,61.9461432 221.73194,61.5458634 221.385092,61.1433612 L220.330276,59.9291096 C220.152086,59.7255972 219.972698,59.5215097 219.792106,59.3168375 L218.694051,58.0817099 L217.566788,56.8320825 L216.410007,55.5674893 L215.223404,54.2874644 L214.00667,52.9915418 C213.596036,52.5568662 213.180329,52.1194633 212.759498,51.6792554 C206.526822,45.1589363 199.616093,39.1166987 192.145975,33.5295403 C180.651347,24.9323122 168.40023,17.8021381 156.147535,12.026458 C152.771132,10.4348877 149.576068,9.03395367 146.608082,7.81854075 L145.011976,7.17395629 L143.755164,6.6794475 L142.840896,6.32749334 L142.324722,6.1330038 L142.14719,5.98902303 C138.714344,3.27186672 133.853016,1.40666155 127.689092,0.951682883 C124.866691,0.7433526 121.783015,0.825898388 118.417765,1.21558157 L117.399722,1.34171691 C115.004485,1.6576082 112.470282,2.12479361 109.790151,2.74885079 L108.632569,3.02592452 C107.854864,3.21706495 107.065165,3.42107629 106.263311,3.63808862 L105.051392,3.97337412 C104.23734,4.20341996 103.411052,4.44653184 102.572364,4.70283986 L101.305012,5.09721524 C100.666665,5.29936774 100.021299,5.50897965 99.3688429,5.72610585 L98.0544592,6.17039357 L96.7210497,6.63481698 C96.4972226,6.71390428 96.2725976,6.79383462 96.0471723,6.87461006 L94.6849959,7.36941993 C94.4563591,7.45358383 94.2269168,7.53859688 93.9966665,7.62446111 L92.6054492,8.14987697 C91.9049724,8.41770826 91.1971783,8.69323678 90.4819984,8.97651742 L89.0417705,9.55343111 L87.5817252,10.1511147 C87.3367261,10.2524648 87.0908962,10.3546845 86.844233,10.4577756 L85.3542333,11.0867969 L83.8441118,11.7368321 L82.3137466,12.4079785 C82.056992,12.521601 81.7993889,12.6361071 81.5409346,12.751499 Z" id="Sticker" fill="#FFFFFF" fill-rule="nonzero"></path>
            <g id="Tomb" transform="translate(13.259059, 13.245813)">
                <path d="M122.203649,3.59712229 C122.203649,3.59712229 161.568371,16.7096432 190.524878,47.0025139 C219.483371,77.2943922 219.483371,89.9543808 218.122885,113.465221 C216.772329,136.976061 197.308441,197.108278 197.308441,197.108278 C197.308441,197.108278 66.5617531,198.917415 49.3729545,202.082164 C32.1732322,205.246913 18.1512878,98.9960957 18.1512878,98.9960957 L35.797885,46.5489892 C35.797885,46.5489892 109.542191,-0.924231327 122.203649,3.59712229" fill="#15101B"></path>
                <path d="M52.5408017,200.72556 C52.5408017,200.72556 19.9586489,105.779118 37.1484406,73.2245786 C54.3481628,40.671031 122.203649,3.59712229 122.203649,3.59712229 C122.203649,3.59712229 115.877885,-8.15780167 73.3453156,10.831685 C30.8226767,29.8211717 1.86517669,60.5655824 0.057815581,91.309993 C-1.75947609,122.055396 39.8684197,215.193693 39.8684197,215.193693 L52.5408017,200.72556" id="Shadow" fill="#725291"></path>
                <path d="M116.831218,29.4271907 C109.045663,34.0080881 100.568279,39.3696698 91.3990656,45.511936 C84.5171906,50.1216128 77.625385,54.9714493 72.4019128,59.2040158 C69.7901767,61.3247649 67.5855934,63.2827611 65.9669128,65.0422782 C65.1625378,65.9255101 64.4971906,66.7571375 63.9897392,67.5937268 C63.7325378,68.0135101 63.5140656,68.437263 63.3551767,68.8897953 C63.1962878,69.34332 63.0771211,69.832571 63.0771211,70.3783884 C63.0771211,70.8597002 63.1764267,71.3926166 63.4246906,71.8788903 C63.6630239,72.3651641 64.040385,72.778993 64.4465447,73.0727421 C66.9301767,74.8947801 69.3830239,76.8230044 71.1109406,78.6827535 C71.9739059,79.6086584 72.6601072,80.5147154 73.0871211,81.3344341 C73.5339961,82.1581223 73.7226767,82.8686774 73.7226767,83.4829702 C73.7127461,83.9077154 73.6333017,84.3036812 73.4346906,84.7512516 C73.2360795,85.1958447 72.8984406,85.6950196 72.3423295,86.2428219 C71.3194822,87.2689588 69.9887878,87.912031 68.3790447,88.4548713 C67.1784406,88.8627459 65.8378156,89.2011527 64.4673989,89.6447535 C63.4445517,89.9801831 62.3919128,90.3761489 61.3690656,90.9447915 C59.83976,91.7873352 58.3700378,93.0794341 57.3869128,94.9530767 C56.4137184,96.8247345 55.90726,99.1737345 55.90726,102.161837 C55.9171906,104.020594 56.2151072,106.603799 56.711635,109.852902 C58.4693434,121.177126 62.7990656,140.352191 66.7017739,156.762442 C70.6044822,173.162769 74.0702461,186.757594 74.0702461,186.764541 L74.6263572,188.935902 L91.210385,183.112525 L93.8121906,197.396073 L168.460177,195.507544 L172.928927,183.007331 L183.961774,183.92629 L184.378857,182.224331 C184.378857,182.2154 188.281566,166.333103 192.174343,148.585103 C194.130663,139.711103 196.077052,130.37167 197.546774,122.300518 C198.281635,118.265438 198.897329,114.546932 199.333281,111.351419 C199.761288,108.149951 200.019482,105.490331 200.019482,103.469814 C200.009552,102.422837 199.959899,101.561438 199.751357,100.740727 C199.056218,98.1208029 197.507052,95.8045519 195.659968,93.7254835 C192.879413,90.6153162 189.373927,88.0172249 186.543718,86.1515215 C184.656913,84.9110272 183.733473,84.3574028 183.773398,84.4906482 L191.429552,75.996339 L190.297468,74.6317953 C190.277607,74.6000386 182.780038,65.518628 173.077885,55.9410196 C168.231774,51.1517192 162.829552,46.2363846 157.496843,42.2499322 C154.834461,40.2572021 152.183996,38.4947078 149.602052,37.0954303 C147.020107,35.6981375 144.517607,34.6561223 142.084621,34.1430538 C140.227607,33.7530424 138.589066,33.5704417 137.119343,33.5694493 C135.719135,33.5694493 134.477816,33.7371641 133.375524,34.0587002 C131.439066,34.6114645 129.949482,35.679282 128.956427,36.9158067 C127.956751,38.1556394 127.29731,39.5921207 126.978106,41.2252506 C126.561058,40.592708 126.152687,39.8946142 125.768718,39.1645748 C124.606843,36.9535177 123.633649,34.4566508 122.957378,32.532396 C122.619739,31.5697725 122.362538,30.7480691 122.193718,30.1724797 C122.104343,29.8836926 122.034829,29.6574265 121.995107,29.5045976 L121.945454,29.3319208 L121.925593,29.2813086 L121.210593,26.6683314 L117.902864,28.8548252 C118.444141,31.4864872 118.734618,32.8619971 118.774295,32.981355 C119.072614,33.8787552 119.449708,34.9499996 119.89976,36.1030348 C120.514461,37.681936 121.259253,39.4146584 122.144066,41.0779132 C123.017954,42.7421603 124.020941,44.3369398 125.212607,45.6617877 L125.202677,45.6598029 C125.519461,46.0041641 125.807448,46.2929512 126.175871,46.560898 C126.354621,46.6938789 126.563163,46.8238827 126.831288,46.9360234 C127.099413,47.0461793 127.426128,47.1404569 127.833281,47.1414493 C128.132191,47.1424417 128.469829,47.0769436 128.766753,46.949917 C129.055732,46.8278523 129.303996,46.6551755 129.482746,46.4815063 C129.840246,46.1391299 130.009066,45.8166014 130.128232,45.5486546 C130.356635,45.0445177 130.426149,44.6455748 130.525454,44.2247991 C130.664482,43.5013428 130.783649,42.7352135 130.992191,41.9740462 C131.141149,41.4054037 131.338767,40.8496622 131.597954,40.3544569 C131.985246,39.6071831 132.481774,39.0038067 133.276218,38.5254721 C134.080593,38.0520995 135.262329,37.6759816 137.119343,37.6739968 C138.241496,37.6730044 139.611913,37.814917 141.239531,38.1582858 C143.107468,38.550282 145.301128,39.4295443 147.645732,40.7027877 C151.747052,42.9267459 156.324045,46.3336394 160.823579,50.1871109 C167.576357,55.9678143 174.170246,62.7478599 179.06601,68.0710691 C181.508927,70.7326736 183.53476,73.0310614 184.934968,74.6615672 C185.337078,75.1262324 185.690738,75.5366703 185.98858,75.8858856 L177.268579,85.5858561 L179.632052,86.8045177 L179.661843,86.8213884 C180.039204,87.0168903 183.703579,88.960993 187.457329,91.8151223 C189.334204,93.2392097 191.230941,94.8915481 192.740385,96.6212934 C194.25976,98.3490538 195.362052,100.151244 195.779135,101.779765 L195.779135,101.774803 C195.838718,101.98916 195.918163,102.621316 195.908232,103.469814 C195.918163,105.144978 195.679829,107.701388 195.262746,110.801632 C193.793024,121.685233 190.069066,139.346894 186.712538,154.225879 C185.044204,161.668845 183.455316,168.427058 182.293441,173.322544 C181.717468,175.769791 181.239809,177.752598 180.90217,179.122103 C180.864926,179.278218 180.829476,179.426325 180.795895,179.566224 L170.118579,178.65667 L165.540593,191.476434 L97.2173781,193.204195 L94.3881628,177.646411 L77.5335501,183.708337 C77.4559171,183.398492 77.3704666,183.055774 77.2778156,182.681826 C75.5498989,175.807503 71.2201767,158.429666 67.3273989,141.356495 C65.38101,132.819909 63.5438572,124.358746 62.2032322,117.339533 C61.5279545,113.830423 60.9817739,110.681552 60.5944822,108.076514 C60.2171211,105.479415 60.01851,103.400347 60.01851,102.161837 C60.01851,100.657366 60.1674684,99.4575595 60.4157322,98.5058523 C60.8526767,96.838628 61.4981628,95.9415025 62.34226,95.2220158 C62.9877461,94.6881071 63.7811975,94.2673314 64.7345309,93.9001451 C66.1754545,93.3434113 67.9331628,92.9385139 69.7802461,92.3133048 C71.6173989,91.6861109 73.5836489,90.8038713 75.2519822,89.1445862 C76.0861489,88.310974 76.731635,87.4128561 77.1685795,86.4522173 C77.6154545,85.4945557 77.8239961,84.4773504 77.8239961,83.4829702 C77.8239961,82.0231565 77.3761281,80.6506736 76.7117739,79.4022402 C75.7087878,77.5256204 74.1894128,75.8544265 72.4714267,74.2606394 C70.74351,72.6718143 68.7961281,71.1732972 66.8705934,69.7621109 L66.4137878,70.3813656 L67.0890656,70.040974 C67.0294822,69.9010462 66.9202461,69.7928751 66.8705934,69.7611185 L66.4137878,70.3813656 L67.0890656,70.040974 L66.4237184,70.3783884 L67.1784406,70.3783884 C67.1883711,70.3247991 67.16851,70.1799094 67.0890656,70.040974 L66.4237184,70.3783884 L67.1784406,70.3783884 L66.900385,70.3783884 L67.1784406,70.4081603 L67.1784406,70.3783884 L66.900385,70.3783884 L67.1784406,70.4081603 C67.1883711,70.3307535 67.34726,69.9020386 67.7444822,69.348282 C68.4694128,68.2913808 69.9093434,66.7799626 71.8060795,65.0849512 C75.1417531,62.1028029 79.9193434,58.4825443 85.1616836,54.769993 C90.4189197,51.0544645 101.30645,43.9300576 117.824274,33.3967725 L116.831218,29.4271907 Z" id="Decoration" fill="#725291"></path>
                <path d="M103.492104,79.2453566 C104.881751,79.539355 106.732548,80.0545192 108.509413,80.9285443 C110.237329,81.7710881 111.875871,82.9292135 113.047677,84.4604797 C114.219482,85.999685 114.994066,87.8901983 115.003996,90.5547801 C115.003996,91.3655672 114.924552,92.2507839 114.755732,93.217377 C114.120177,96.8495443 113.066545,99.5131337 111.895732,101.478077 C110.128093,104.420529 108.10226,105.83767 106.533232,106.585936 C105.738788,106.955107 105.073441,107.148624 104.616635,107.247864 C104.464367,107.280282 104.436002,109.140661 104.531541,112.829001 L118.003024,127.080887 L120.992121,124.263476 L107.946773,110.460085 C109.329178,109.718121 110.221463,109.20246 110.623628,108.913103 C112.263163,107.741084 113.961288,106.022255 115.421079,103.57997 C116.880871,101.136693 118.092399,97.9798827 118.797468,93.9279322 L118.886843,93.4228029 L118.807399,93.9259474 C119.00601,92.7469816 119.115246,91.62359 119.115246,90.5547801 C119.125177,86.9910881 117.963302,84.0516128 116.225454,81.8574265 C114.934482,80.2050881 113.345593,78.9556622 111.726913,78.0029626 C109.303857,76.575898 106.801357,75.7948827 104.88476,75.3492972 C102.958232,74.904704 101.627538,74.8024873 101.5471,74.7965329 L99.3236489,74.6298105 L99.8003156,124.334928 L103.901635,124.296225 L103.492104,79.2453566 Z M127.397329,74.1465139 L127.844204,127.950225 L131.955454,127.915491 L131.498649,74.1117801 M148.284145,79.901436 C149.173575,79.9527242 150.148781,80.1330419 151.209764,80.4423891 C152.801238,80.90641 154.48279,81.6836566 155.82851,82.9302059 C156.742121,83.7707649 157.536566,84.8167497 158.112538,86.2031261 C158.698441,87.5885101 159.075802,89.3281793 159.075802,91.5570995 C159.075802,91.7545862 159.075802,91.9570348 159.065871,92.1654379 L159.065871,92.2507839 L159.065871,92.1545215 C158.956635,95.7489778 158.231704,98.3421071 157.25851,100.24056 C155.808649,103.076826 153.812607,104.453278 152.124413,105.209484 C151.290246,105.580639 150.535524,105.780111 150.009204,105.882328 C149.741079,105.933932 149.542468,105.961719 149.413371,105.975613 C149.474778,108.715758 149.530433,110.084014 149.580336,110.080381 C149.89516,110.057461 150.646782,109.978969 151.657677,109.711982 C153.524621,109.218761 156.343906,108.052696 158.738163,105.332541 C159.929829,103.977921 161.01226,102.244206 161.796774,100.084753 C162.581288,97.925301 163.077816,95.3440805 163.167191,92.2746014 L163.167191,92.263685 C163.176128,92.0265025 163.176128,91.7913048 163.176128,91.5570995 C163.187052,87.9705824 162.352885,85.0588941 160.982468,82.8002021 C159.959621,81.1061831 158.648788,79.7962211 157.248579,78.8127573 C155.163163,77.3360729 152.908927,76.5719284 150.992329,76.1580995 C149.075732,75.7462554 147.486843,75.6857192 146.661614,75.6847268 C146.315038,75.6847268 146.106496,75.6966356 146.066774,75.6986204 L144.100524,75.8147307 L145.043927,124.355769 L149.145246,124.275385 L148.284145,79.901436 Z" id="RIP" fill="#725291"></path>
            </g>
            <g id="Ground" transform="translate(13.939773, 198.074275)">
                <path d="M8.35432392,38.056295 C8.35432392,38.056295 -8.83546775,22.2335421 6.10008781,22.685082 C21.0257128,23.1376143 27.3614073,15.4515117 29.1687684,14.9989794 C30.9761295,14.5474394 45.4548795,3.69559534 54.9584211,5.95627214 C54.9584211,5.95627214 77.5802267,-2.63390276 87.9874489,2.7915231 C87.9874489,2.7915231 129.159532,0.530846289 135.495227,5.0521999 C135.495227,5.0521999 171.235296,-2.18236284 180.282032,3.24306302 C180.282032,3.24306302 199.279185,-2.63390276 206.974373,1.43491853 C214.661616,5.50373983 216.478907,11.8322455 216.478907,11.8322455 C216.478907,11.8322455 237.283421,10.4776258 240.451268,19.520333 C243.619116,28.5630402 263.975761,27.658968 257.194185,34.4409984 C250.401685,41.2230288 219.189949,38.056295 219.189949,38.056295 C219.189949,38.056295 214.213748,46.1949299 193.857102,48.9081391 C173.489532,51.6203558 128.702727,41.6735763 128.702727,41.6735763 C128.702727,41.6735763 113.320296,49.359679 102.466199,47.100987 C91.6021711,44.8383254 83.9159211,42.5776486 83.9159211,42.5776486 C83.9159211,42.5776486 22.8330739,55.6901695 8.35432392,38.056295" id="Fill-942" fill="#392555"></path>
                <path d="M40.9563378,39.6471048 C31.6315461,39.6471048 21.5718934,37.439025 18.3146711,32.1803216 C14.5708517,26.1366334 19.6255045,25.0380516 23.7864073,25.0380516 C26.1697406,25.0380516 28.2650878,25.3963064 28.2650878,25.3963064 C28.2650878,25.3963064 62.1977961,19.0678007 68.5334906,14.9989794 C70.400435,13.7981809 73.2505045,13.2275535 76.56731,13.2275535 C84.521685,13.2275535 95.1771711,16.4945193 101.562518,22.2335421 C108.960782,28.8915231 92.1384211,29.4968843 85.772935,29.4968843 C84.3627961,29.4968843 83.4591156,29.4671124 83.4591156,29.4671124 C83.4591156,29.4671124 64.0051573,30.3701923 58.1262684,35.7956182 C55.5046017,38.2160706 48.4737684,39.6471048 40.9563378,39.6471048" id="Fill-943" fill="#502B79"></path>
                <path d="M186.617727,39.8664242 L163.995921,38.056295 C163.995921,38.056295 129.159532,37.6057474 127.799046,28.1095155 C126.557727,19.4409413 139.268838,19.0638311 141.492289,19.0638311 C141.711754,19.0638311 141.820991,19.0678007 141.820991,19.0678007 C142.922289,18.5587018 144.551893,18.3522836 146.468491,18.3522836 C154.780366,18.3522836 168.514324,22.2335421 168.514324,22.2335421 C168.514324,22.2335421 173.032727,20.5425003 179.140018,20.5425003 C183.976199,20.5425003 189.815366,21.6013862 195.207657,25.3963064 C207.422241,33.9874737 186.617727,39.8664242 186.617727,39.8664242" id="Fill-944" fill="#502B79"></path>
            </g>
        </g>
        <g id="Group" transform="translate(478.000000, 110.017000)">
            <path d="M251.370913,176.918933 L251.202857,176.810647 L250.958491,176.631212 L250.607405,176.358343 L250.219846,176.042721 C250.152982,175.987106 250.085175,175.930125 250.016713,175.871983 C249.318947,175.279399 248.646251,174.646134 248.094032,174.058601 L247.159155,173.040827 L246.583133,172.384503 L245.869162,171.560135 L245.123569,170.68911 L244.347541,169.772972 L243.129027,168.317548 L241.987037,166.937413 L240.536291,165.164936 C238.671142,162.873702 236.746068,160.463415 234.84528,158.050113 L233.044546,155.753842 L230.7457,152.789852 L230.518265,152.501278 C225.691978,146.539126 217.738612,146.732692 212.77883,150.799725 L212.575155,150.969827 L212.521289,150.921987 C206.797674,145.887982 197.90814,147.326408 193.885708,153.463162 L193.816155,153.571827 L191.945147,151.910035 L189.871842,150.043506 C183.494716,144.22779 173.282431,146.471374 169.930259,154.424565 L169.734947,154.902372 C168.476659,158.078667 167.951217,161.407478 168.028548,164.871915 L168.049155,165.513827 L159.598155,158.411827 L159.419145,157.975925 C159.24612,157.558787 159.067174,157.132717 158.882349,156.698213 L158.310286,155.369893 L157.703218,153.993937 C157.599138,153.760806 157.493611,153.525815 157.386641,153.289024 C154.633012,147.193524 151.468874,141.091005 147.903335,135.327311 C141.257868,124.584916 133.986033,116.182516 125.640405,110.950473 L124.848924,110.460106 C120.537808,107.676541 117.851388,101.283975 117.043407,92.0123249 L116.982155,91.2588267 L116.914667,91.6113446 C117.685786,87.9135808 117.095091,84.2510477 115.479249,81.0193629 L115.273913,80.6163565 C115.20253,80.4812023 115.128285,80.3453552 115.051404,80.2091928 L114.969155,80.0688267 L115.196948,79.7513276 C115.476663,79.3465174 115.742622,78.9244808 115.994071,78.4837556 C118.291852,74.4563423 118.778611,69.6504081 117.051914,65.0809778 L116.918797,64.7392533 C113.570796,56.393294 105.347425,53.8499739 98.1839483,56.4256525 L97.8261551,56.5588267 L97.467251,56.4390105 C97.2983075,56.3852344 97.1276577,56.3335596 96.9552166,56.2840303 L96.6212026,56.1917422 C94.8377499,55.7183875 93.0230848,55.5466483 91.2490878,55.6782921 L91.0181551,55.6968267 L90.9850571,55.436191 C90.770752,53.8494831 90.4405994,52.3004774 89.9909571,50.8190592 C86.7697572,40.2063036 77.4883065,33.5309246 65.7536668,36.1624655 L65.3466623,36.2579082 C59.4200946,37.7136152 55.370802,41.6220263 52.2386122,47.1845973 L52.1251551,47.3878267 L52.1060748,47.3450454 C50.6753677,44.288039 48.7890739,41.6167525 46.3545461,39.4250919 C41.4313871,34.9930649 34.9757755,33.2835319 28.237919,34.6022899 C20.613936,36.0932577 15.4890438,41.4656604 11.993534,49.0012935 L11.7193874,49.604607 C10.9065286,51.4307034 10.1796785,53.4016876 9.5328744,55.5036068 L9.49415513,55.6298267 L9.33447148,55.496182 C6.2406352,52.9489588 2.40685836,51.3264688 -2.00402411,50.8591131 C-8.00144631,50.220497 -13.5891934,52.1346133 -18.0888285,55.9978716 L-18.5064513,56.3645947 C-21.402067,58.9648034 -23.7178573,62.2596616 -25.629326,66.1586183 L-25.9278449,66.7788267 L-26.2221366,67.3335092 C-26.3952044,67.667868 -26.5530777,68.0098751 -26.6952737,68.3584846 L-26.8199686,68.6746977 L-26.9560466,69.0423422 L-27.0809895,69.400102 L-27.1258449,69.5328267 L-27.4357566,70.3238947 C-31.1498379,80.0251839 -33.1179576,93.1358801 -33.397938,105.59879 C-33.4714971,108.810858 -32.7512762,112.309658 -31.26225,116.210898 L-30.9542014,116.996546 C-30.6359169,117.787628 -30.2869468,118.595117 -29.9074909,119.419937 L-29.5178804,120.250569 L-29.1079904,121.092961 L-28.6778654,121.947319 L-28.2275497,122.813849 L-27.7570878,123.692756 C-27.5969143,123.987811 -27.4333906,124.284963 -27.2665239,124.584246 L-26.7559026,125.488525 L-26.2252682,126.405799 L-25.6746651,127.336272 C-25.5812363,127.492462 -25.4869774,127.649211 -25.3918892,127.806523 L-24.8114163,128.757182 L-24.2110858,129.721556 L-23.590942,130.69985 L-22.9510294,131.692269 L-22.2913922,132.699021 L-21.612075,133.720309 L-20.9131221,134.75634 L-20.1945779,135.80732 L-19.4564868,136.873454 L-18.6988933,137.954948 L-17.526033,139.60644 L-16.7198775,140.727234 L-15.8943749,141.864108 L-14.6199424,143.600019 L-13.3022287,145.373267 L-11.4782099,147.796877 L-10.2438449,149.415827 L-10.3548715,149.411279 C-15.6580315,149.202897 -20.40875,150.247215 -24.4892629,153.101524 L-24.8038449,153.325827 L-28.5899,155.355441 L-29.6324133,155.926708 C-32.1057864,157.316544 -33.8728971,158.486677 -35.5223406,160.019206 C-40.1300213,164.30029 -42.0822535,170.425325 -39.9102314,176.754713 C-38.6491503,180.429571 -36.4517095,183.265243 -32.797204,186.901031 L-32.4134997,187.276222 L-32.0020249,187.664617 L-31.5630106,188.066107 L-31.0966881,188.480585 L-30.6032886,188.907943 L-30.0830431,189.348073 L-29.536183,189.800869 L-28.9629394,190.266222 L-28.0541106,190.987561 L-27.4159196,191.483837 L-26.4107534,192.251054 L-25.7090599,192.777579 L-24.98237,193.316015 L-24.2309149,193.866255 L-23.4549257,194.42819 L-21.8302698,195.586719 L-20.9820655,196.183097 L-19.21506,197.409542 L-17.828944,198.358429 L-15.9011233,199.661659 L-13.8839513,201.007582 L-11.7792774,202.395336 L-9.58895094,203.824062 L-7.31482146,205.292897 L-4.35712909,207.184033 L-1.90120481,208.739965 L0.632511821,210.333207 L1.81510425,211.072888 L3.20034124,211.935997 L5.9836848,213.659816 C6.4482591,213.946406 6.91292651,214.232491 7.37731391,214.517847 L10.1572932,216.219453 L12.9126423,217.892851 L15.6254514,219.527324 L18.8447707,221.449891 L21.0520714,222.758139 L23.1508727,223.991276 L25.1256588,225.140266 L26.9609138,226.196071 L29.0351296,227.371018 L29.8471814,227.820909 C35.5676591,230.913963 44.2446053,233.694388 53.800641,235.837006 L55.2774558,236.161564 C55.5246541,236.214804 55.7723604,236.267613 56.0205396,236.319986 L57.5150093,236.628955 L59.0191479,236.927201 C59.27055,236.976001 59.5222849,237.024343 59.7743177,237.072221 L61.2898076,237.353892 L62.8107638,237.624182 C63.3184735,237.712353 63.826814,237.798584 64.3355053,237.88283 L65.8623512,238.129572 C66.3714638,238.209806 66.880647,238.288011 67.3896205,238.364145 L68.9156322,238.586285 C70.1863176,238.766149 71.4539421,238.932789 72.7141279,239.085519 L74.2225002,239.262075 L75.7220505,239.425014 L77.2110977,239.574075 L78.687961,239.708992 C78.9329962,239.730285 79.1774536,239.750978 79.4212983,239.771065 L80.8767338,239.884276 C81.1179875,239.901918 81.3585585,239.918944 81.5984116,239.935347 L83.028637,240.026258 C83.7391628,240.067937 84.4425981,240.103918 85.1379974,240.134052 L85.6371551,240.153827 L85.7167108,240.610665 C86.8089016,246.640958 89.2932064,253.05756 92.823882,259.903956 L93.3481551,260.908827 L92.7616713,260.948436 C89.8280899,261.154021 86.8305865,261.432288 83.8122351,261.768128 L82.9657822,261.863774 L81.3101124,262.059376 L79.7078263,262.259542 L78.163407,262.462859 L76.4841624,262.695793 L74.797599,262.945551 C74.7269482,262.956442 74.6570314,262.967272 74.5875714,262.978077 C60.9411738,265.10085 60.3669148,284.422037 73.6235317,287.493109 L74.0294817,287.581163 C76.2897929,288.038594 79.0069123,288.913901 82.0973442,290.159452 L83.0355897,290.544177 C83.1938027,290.610134 83.352928,290.677003 83.5129554,290.744781 L84.4838596,291.162292 C84.6474531,291.233677 84.8119277,291.305958 84.9772729,291.379128 L85.9797087,291.828782 L87.0025394,292.299508 C87.1746829,292.379702 87.3476553,292.460762 87.5214462,292.542683 L88.5739298,293.04448 L89.6455558,293.566633 L90.7358233,294.108858 C90.9190601,294.200886 91.1030529,294.293738 91.287791,294.387408 L92.4050812,294.959204 C92.5927593,295.056124 92.7811618,295.153851 92.9702785,295.252378 L94.1134644,295.853102 L95.2732878,296.472754 L96.4492477,297.111047 L97.6408433,297.767698 C97.8407176,297.878653 98.0412226,297.990362 98.2423478,298.102817 L99.4564573,298.786466 L100.68495,299.487757 L101.927325,300.206404 L102.553562,300.572146 C106.444823,302.851942 110.280617,305.223264 113.948732,307.584402 L115.932217,308.870675 C119.208063,311.010742 122.328468,313.12711 125.209128,315.143364 L127.019576,316.420559 L127.706544,316.912995 C132.848628,320.644695 139.97202,319.925464 144.264364,315.241193 L253.709977,195.802264 C258.92356,190.112637 257.776083,181.131856 251.370913,176.918933 Z" id="Sticker" fill="#FFFFFF" fill-rule="nonzero" transform="translate(108.099026, 176.732478) rotate(48.000000) translate(-108.099026, -176.732478) "></path>
            <g id="Hand" transform="translate(107.691487, 176.265206) rotate(47.500000) translate(-107.691487, -176.265206) translate(-28.696941, 46.200462)">
                <path d="M266.181754,134.772706 C266.391754,134.992706 266.590754,135.222706 266.791754,135.432706 C268.981754,137.882706 271.716855,140.03056 272.776855,140.69056 L239.672935,176.81715 C239.672935,176.81715 208.721754,154.902706 191.561754,151.442706 C192.291754,151.322706 215.691754,147.652706 224.711754,150.942706 C224.711754,150.942706 219.000754,143.802706 214.420754,135.162706 C210.361754,127.502706 207.181754,118.662706 209.731754,112.612706 C209.731754,112.612706 230.291754,131.362706 237.530754,134.752706 C238.361754,135.142706 239.021754,135.322706 239.451754,135.252706 C239.451754,135.252706 231.011754,120.652706 232.611754,113.712706 C232.611754,113.712706 246.781754,131.942706 250.261754,133.102706 L249.111754,113.732706 C249.111754,113.732706 259.171754,126.842706 266.181754,134.772706 Z" id="Grass" fill="#251514"></path>
                <g id="Hand">
                    <g id="Skin">
                        <path d="M114.367842,40.4894441 C114.48903,39.4282191 114.629247,38.3569825 114.769464,37.2657229 C116.311852,35.073192 120.388164,34.0620248 124.815019,34.9730764 C128.659972,35.7539778 131.695673,37.7663007 132.787363,39.9888663 C132.797379,41.0701144 132.81741,42.1513625 132.867487,43.2826684 C133.398309,54.7759353 136.433008,68.2514905 147.119555,74.7189561 C165.287687,85.7416799 177.696901,119.420556 177.696901,119.420556 L242.751174,174.068972 L184.560313,237.548099 L126.597779,180.711306 C113.968223,183.104068 77.4917428,177.787931 63.8906828,170.199171 C61.1264025,168.657392 57.350556,166.464861 53.033872,163.891891 C36.0475702,153.79023 10.5380711,137.731693 4.30842506,131.524528 C-3.51368677,123.745549 -0.198553591,122.98467 10.3277454,117.318129 C17.9896091,113.183356 42.7279141,125.767883 55.5978421,132.906123 C57.0400752,133.717059 58.5023394,131.894956 57.410649,130.643511 C42.7980227,114.134454 7.09273631,72.3962749 7.39320155,59.2811358 C7.76377535,42.7921021 12.0203663,15.2603215 25.0004648,16.6419163 C37.9505168,18.0134996 33.2732745,39.0878262 33.954329,53.9950339 C34.6453991,68.8922301 56.5793618,86.4625119 56.5793618,86.4625119 C56.5793618,86.4625119 49.1178083,61.3034702 46.9945206,50.6912203 C44.8812484,40.0689587 46.824257,2.58569085 59.0131303,0.202940385 C71.1919882,-2.17981008 73.5656636,16.8922052 70.4909026,32.5903259 C67.4161416,48.258412 85.1135444,72.6465639 85.1135444,72.6465639 C85.1135444,72.6465639 83.1204583,51.7824799 83.1505048,45.3250259 C83.1505048,43.6430844 83.1705359,42.8421599 83.1595188,42.5117785 C83.1404893,42.7120097 83.1204583,43.0524026 83.1004273,43.0924488 C83.0803963,43.0223679 83.0603653,42.772079 83.0403343,42.2114318 C83.0403343,42.2114318 86.5257311,4.01734345 96.9218285,1.69466232 C107.327941,-0.638030368 109.1097,13.5483453 105.585243,21.9079951 C102.049769,30.2576333 112.805423,60.6527191 112.805423,60.6527191 C112.805423,60.6527191 113.096874,51.351983 114.367842,40.4894441 Z" id="Fill-1847" fill="#59B148"></path>
                        <path d="M166.579687,130.793685 C166.579687,130.793685 166.602113,131.229206 166.604379,131.991151 L166.604201,132.291968 C166.587008,136.501197 165.932767,148.530076 159.318444,154.741328 C151.741111,161.834916 202.376961,204.285073 209.231802,209.937816 L209.595916,210.237312 L184.560313,237.548099 L126.597779,180.711306 C113.968223,183.104068 77.4917428,177.787931 63.8906828,170.199171 C61.1264025,168.657392 57.350556,166.464861 53.033872,163.891891 C62.0778758,166.625046 101.909552,176.956972 130.173315,157.824887 C144.279558,148.270258 153.02058,141.890462 158.386808,137.741422 L159.097835,137.189382 C163.355813,133.869309 165.291354,132.096322 166.088028,131.309043 L166.259983,131.136685 C166.494491,130.897881 166.579687,130.793685 166.579687,130.793685 Z M19.3116562,123.375121 C19.3116562,123.375121 25.2308215,128.45098 22.6768669,132.035118 C20.1128968,135.629266 16.2168642,136.500272 13.9834059,134.728226 C13.9834059,134.728226 17.7993145,133.777128 18.9510979,130.653523 C20.1128968,127.529917 19.3116562,123.375121 19.3116562,123.375121 Z M56.8798271,133.056296 C56.4391447,135.238816 47.2439067,135.028573 41.1054018,130.873777 C34.9558799,126.728993 10.3277454,117.318129 10.3277454,117.318129 C20.1429434,108.828329 57.3104939,130.873777 56.8798271,133.056296 Z M31.9011499,23.7701446 C33.5721909,24.7758416 34.4020187,32.7688624 34.8261755,41.0491258 L34.8700884,41.9370908 C34.8842219,42.233242 34.8978577,42.5294545 34.9110158,42.8254228 L34.9490765,43.7122905 C35.1629685,48.8778538 35.2366238,53.8752049 35.2763761,57.0685818 C35.3700211,64.5912654 50.6958768,80.5625014 55.2915265,85.1846118 L55.8663313,85.7596829 C56.3229288,86.213933 56.5793618,86.4625119 56.5793618,86.4625119 C46.8042259,88.9353664 36.0375547,75.9203429 29.2871023,63.1055504 C25.0880679,55.1280418 27.124402,41.855079 29.2635739,32.9613461 C27.1559474,36.0746088 17.1258484,49.6016013 12.1405524,33.0708807 C12.1405524,33.0708807 20.8582507,40.936158 29.330263,32.6870764 C30.6087423,27.4289093 31.9011499,23.7701446 31.9011499,23.7701446 Z M67.5763897,15.8009455 L67.5766712,15.8617593 C67.5766947,15.8668271 67.5767201,15.8723172 67.5767476,15.8782649 L67.5776928,16.0824907 L67.577793,16.1041389 L67.577793,16.1041389 L67.5786415,16.2874555 L67.5787852,16.3185003 L67.5787852,16.3185003 L67.5795958,16.4936521 C67.5799521,16.5706195 67.5803479,16.6561389 67.5807877,16.7511604 L67.5817272,16.9541544 C67.5858971,17.8550988 67.5933247,19.459906 67.6065552,22.3184689 C67.6464983,28.8259807 57.5508661,31.979621 53.1240116,29.1163158 C48.6871415,26.2530106 50.2295297,22.1883187 50.2295297,22.1883187 C62.9392095,33.1509731 67.5763897,15.8009455 67.5763897,15.8009455 Z M89.5504145,18.6242045 C89.5504145,18.6242045 86.9263514,20.0458455 90.3616707,23.2795783 C93.8070055,26.5032995 96.4811461,26.4232071 99.8964344,23.4798095 C103.311723,20.5264003 103.65225,15.3404139 103.65225,15.3404139 C103.65225,15.3404139 98.844806,27.3542819 89.5504145,18.6242045" id="Shadow" fill="#449143"></path>
                    </g>
                    <path d="M103.592157,84.4802237 L104.804033,84.5803393 L103.93048,95.9466828 C108.2769,96.0906359 112.835887,96.2957282 117.32336,96.5860299 L117.954396,87.6038294 L119.166272,87.6839219 L118.535777,96.6666872 C122.585719,96.9436739 126.556,97.2923176 130.235655,97.7304934 L130.844354,86.7628586 L132.056231,86.8329395 L131.447929,97.8794834 C132.122827,97.9650891 132.786766,98.0538887 133.438371,98.1459985 C138.736575,98.9068768 143.203491,99.8679862 146.198128,101.149465 L146.198128,101.149465 L145.717384,102.260748 C142.923057,101.059361 138.506218,100.08824 133.268107,99.3473853 C132.650583,99.2600453 132.021366,99.1756274 131.381719,99.0940494 L130.924478,107.356631 L129.702587,107.28655 L130.167514,98.9440451 C126.492599,98.5042642 122.511721,98.1530142 118.450911,97.8756235 L118.084597,103.081696 L116.872721,103.001603 L117.239204,97.7951691 C116.760494,97.7642846 116.280991,97.7343995 115.801061,97.70549 C115.327251,97.6769956 114.852951,97.6494045 114.378499,97.6226896 L112.95502,97.5451456 L112.95502,97.5451456 L111.532643,97.472694 C108.933389,97.3447388 106.349782,97.2415124 103.837358,97.1584984 L103.381831,103.101719 L102.169955,103.011615 L102.621001,97.11969 C99.8222185,97.0335424 97.1249201,96.9720477 94.6081763,96.9287756 L95.3694247,103.241881 L94.1575482,103.382043 L93.379978,96.9088533 C90.0252402,96.8576874 87.0319228,96.8385678 84.6017506,96.8350895 L82.9645683,96.835159 C81.5517571,96.8375651 80.407026,96.8460364 79.584984,96.8545077 C79.0615067,96.8598472 78.666228,96.8623389 78.4097835,96.8635018 L78.2436478,96.8641484 C78.2203524,96.8642226 78.1992679,96.8642819 78.180415,96.8643294 L78.0626267,96.8645192 L78.0526112,95.6531209 L78.0526112,95.6531209 L78.1054353,95.6524214 C78.4557147,95.6479083 80.5291732,95.6230862 83.7614508,95.6230862 C86.2964921,95.6230862 89.543816,95.6390096 93.2346784,95.6936269 L92.0542915,85.851807 L93.2561525,85.7116452 L94.4606099,95.7129549 C97.0469814,95.7562469 99.8267752,95.8187723 102.714219,95.9077984 L103.592157,84.4802237 Z M186.470486,132.926146 C187.695143,135.356648 188.643598,137.681548 189.357141,139.898577 L192.34959,140.655068 L192.049124,141.82642 L189.768043,141.253113 C190.757501,144.727913 191.16776,147.925575 191.16776,150.836821 C191.16776,150.890184 191.167621,150.943449 191.167346,150.996614 L195.093839,153.089421 L194.522955,154.160658 L191.130167,152.352227 C190.92503,156.465002 189.903078,159.940502 188.626031,162.750525 L193.431265,164.933092 L192.930489,166.034364 L188.100984,163.842829 C187.673285,164.685697 187.227126,165.459901 186.780967,166.164514 C184.597586,169.618501 182.40419,171.400558 182.374144,171.430593 L182.374144,171.430593 L181.602949,170.479495 L181.622981,170.469483 L181.693089,170.409414 C181.743167,170.359356 181.833306,170.289275 181.943477,170.179148 C182.173833,169.978917 182.49433,169.668559 182.884935,169.248073 C183.666144,168.417114 184.706755,167.16567 185.759385,165.513763 C186.176962,164.852693 186.59454,164.127878 186.995499,163.339872 L177.787041,159.156424 L178.287816,158.055153 L187.520514,162.248032 C188.79807,159.430677 189.808043,155.912385 189.932873,151.71383 L183.87647,148.484105 L184.447354,147.412868 L189.941821,150.342986 C189.895137,147.490047 189.441056,144.346042 188.399004,140.909071 L182.614516,139.453681 L182.914981,138.272317 L187.960107,139.547081 C187.299067,137.609579 186.452062,135.582915 185.388812,133.46677 L185.388812,133.46677 Z M96.0695087,134.848365 L100.404114,142.878224 L106.813114,140.704224 L106.546732,136.139856 L107.757607,136.069775 L108.005114,140.299224 L116.371945,137.461381 L116.76255,138.61271 L108.078114,141.558224 L108.239353,144.299274 L107.027476,144.369355 L106.886114,141.962224 L100.989114,143.963224 L102.68976,147.112522 L101.629117,147.68318 L99.8311139,144.356224 L87.8761139,148.412224 L90.2314691,154.010484 L89.1197477,154.481027 L86.7271139,148.802224 L75.5387187,152.598855 L75.1481139,151.447526 L86.2541139,147.679224 L83.1004273,140.194536 L84.2221642,139.723993 L87.4041139,147.289224 L99.2441139,143.272224 L94.9988509,135.419024 L96.0695087,134.848365 Z" id="Scars" fill="#251514"></path>
                    <path d="M13.1821652,26.4432302 C13.1821652,26.4432302 10.0773577,34.0520132 15.9664765,37.9665318 C21.8555953,41.8710389 26.522822,36.2145094 27.8148226,34.8329146 C29.1068231,33.4613314 28.7562803,19.3550481 28.7562803,19.3550481 L25.3710386,23.2996014 L22.5967429,20.3862385 C22.5967429,20.3862385 16.567407,19.9056838 13.1821652,26.4432302 M50.2695917,15.5907029 C50.2695917,15.5907029 51.1509565,24.8313696 52.3528174,25.972687 C53.5546784,27.1039929 61.7373485,29.5968705 65.6634277,24.0504682 C69.5794914,18.4940543 66.9053507,7.72161938 66.9053507,7.72161938 L63.3999229,10.4247397 L59.6641383,6.86062552 L54.4861207,11.45593 L54.295826,8.03197764 L52.0122902,12.5371781 L50.2695917,15.5907029 M90.6220739,10.2345201 C90.6220739,10.2345201 88.1282124,18.5841583 91.1428803,21.4174288 C94.1575482,24.2406878 98.9850232,23.9203179 101.548993,20.3361807 C104.112963,16.7520434 103.912653,7.82173495 103.912653,7.82173495 L99.8163103,7.69158471 L99.3255504,10.6349823 L97.8232242,8.09204698 L95.0889905,11.3558144 L94.48806,8.2021741 L90.6220739,10.2345201 M4.52876623,126.338542 C4.52876623,126.338542 3.27682772,129.051674 9.91710959,132.856065 C16.547376,136.660457 18.5604931,134.177591 21.0142926,129.832575 C23.4680921,125.497571 16.2268797,120.802151 13.5928011,119.630799 C10.9687379,118.459447 9.00569836,119.861065 9.00569836,119.861065 L10.6883037,122.72437 L6.712147,123.855676 L7.4532946,126.168345 L4.52876623,126.338542" id="Nails" fill="#EED46C"></path>
                    <path d="M132.787363,39.9888663 C133.187983,40.7897908 133.338216,41.62075 133.166951,42.4416976 C133.107859,42.7420443 132.997689,43.0223679 132.867487,43.2826684 C131.625564,45.775546 127.287848,46.9969559 122.551514,46.0258349 C118.415109,45.1848641 115.220162,42.9222523 114.367842,40.4894441 C114.128471,39.858716 114.058363,39.2079649 114.19858,38.5672252 C114.28872,38.0866705 114.48903,37.6661851 114.769464,37.2657229 C116.311852,35.073192 120.388164,34.0620248 124.815019,34.9730764 C128.659972,35.7539778 131.695673,37.7663007 132.787363,39.9888663" id="Flesh" fill="#CF342B"></path>
                    <path d="M121.08925,40.3492823 L122.780869,28.7759229 C122.780869,28.7759229 116.001371,27.2641778 118.484216,23.0092663 C120.969063,18.7543547 126.61781,24.8113465 126.61781,24.8113465 C126.61781,24.8113465 132.205462,18.5140774 133.849007,22.8590929 C135.49155,27.2041085 127.659423,29.5668359 127.659423,29.5668359 L126.12705,41.3103917 L121.08925,40.3492823" id="Bone" fill="#EED46C"></path>
                </g>
                <path d="M196.341754,208.212706 C196.601754,208.492706 196.840754,208.762706 197.081754,209.022706 C199.771754,212.032706 202.566654,215.082848 203.866654,215.892848 L163.331242,260.129489 C163.331242,260.129489 125.841754,232.922706 104.791754,228.662706 C105.691754,228.522706 134.391754,224.022706 145.461754,228.062706 C145.461754,228.062706 138.451754,219.292706 132.841754,208.702706 C127.851754,199.302706 123.960754,188.452706 127.081754,181.032706 C127.081754,181.032706 152.311754,204.032706 161.181754,208.192706 C162.210754,208.672706 163.011754,208.902706 163.541754,208.812706 C163.541754,208.812706 153.190754,190.892706 155.151754,182.372706 C155.151754,182.372706 172.541754,204.742706 176.800754,206.172706 L175.401754,182.402706 C175.401754,182.402706 187.741754,198.482706 196.341754,208.212706 Z" id="Grass" fill="#251514"></path>
            </g>
        </g>
        <g id="Group" transform="translate(1.000000, 0.909000)">
            <path d="M222.926166,2.0604255 L223.574735,1.96140447 L224.838894,1.77741953 C225.045965,1.74831814 225.251238,1.71999842 225.454736,1.69246081 L226.654576,1.53662386 C231.959458,0.877622402 236.000203,0.789406085 239.190646,1.28048861 C241.990062,1.71138296 244.498766,2.60539 246.766267,4.31312374 C247.244528,4.67331885 247.695403,5.06051936 248.117159,5.47180058 L248.46,5.819 L248.698233,5.95241973 C250.478496,6.96133371 252.372542,8.19156693 254.319747,9.66499416 L254.905442,10.11434 L255.403253,10.50605 C261.120906,15.0573403 265.951471,20.780389 269.319848,27.8029391 L269.706784,28.626551 L269.958491,29.1397345 L270.147619,29.5062572 L270.353992,29.8926171 L270.577769,30.2990858 L270.946413,30.9470872 L271.214393,31.4050164 L271.500333,31.884005 L272.126725,32.9062473 L272.644844,33.7302304 L273.204979,34.6043475 L273.807666,35.5295154 L274.678367,36.8440693 L275.62694,38.2531827 L276.654656,39.7590286 L278.052529,41.7806765 L279.262959,43.5121154 L281.934902,47.2885502 L283.79277,49.8881875 L290.556042,59.3221818 L292.616088,62.2251971 L294.094005,64.3291731 L295.457123,66.2919235 L296.712314,68.1247446 L297.587013,69.4208897 L298.407768,70.6550696 L298.9264,71.4457844 L299.423205,72.2124892 L299.89904,72.956596 L300.575354,74.0334738 L301.20932,75.067449 C302.688418,77.5113645 303.81014,79.6045871 304.611508,81.5201828 C305.198939,82.9243784 305.638731,84.2790582 305.906943,85.7201422 C306.202696,87.3092051 306.294054,88.9084542 306.05792,90.5511339 L305.985308,91.0002393 L305.968,91.085 L305.941688,91.3819918 C305.625836,94.3640509 304.453032,97.0660409 302.5835,100.26032 L302.311702,100.720078 L301.844465,101.491288 L301.434359,102.148034 L301.005124,102.817186 L300.321205,103.851122 L299.835744,104.56518 L299.32443,105.302757 L298.785341,106.067026 L298.216555,106.861163 L297.61615,107.688342 L296.652055,108.998009 L295.964197,109.921684 L291.585699,115.747451 L290.538586,117.158692 L289.18787,119.011507 L288.590617,119.855483 L288.072602,120.617903 L287.85471,120.957402 L287.726,121.169 L288.6851,121.330482 L289.435238,121.465405 L289.973413,121.571357 C294.240911,122.454486 297.891988,123.986384 301.872106,126.670814 L302.538668,127.128977 C302.873635,127.36348 303.211251,127.606182 303.552064,127.857373 L304.238115,128.371162 C304.353221,128.458708 304.468723,128.54722 304.584641,128.636707 L305.285303,129.185426 C305.402966,129.278859 305.521086,129.373289 305.639682,129.468728 L306.357144,130.053542 L307.087023,130.663069 L307.830289,131.297825 C307.955337,131.405749 308.080983,131.514746 308.207247,131.624827 L308.972421,132.298401 L309.753414,132.9985 L310.551201,133.725644 L311.366754,134.48035 L312.201045,135.263137 L313.055047,136.074523 L314.375136,137.346358 L315.745046,138.685457 L317.168061,140.093568 L320.130107,143.067307 L330.379382,153.41171 L331.469854,154.502886 C336.03585,159.069627 341.975038,163.955316 348.936331,168.974241 C355.513679,173.716351 362.611769,178.303145 369.715076,182.539209 L371.185951,183.41118 L372.610214,184.245458 C372.843539,184.381304 373.074797,184.515534 373.303924,184.648127 L374.652615,185.423848 L375.947155,186.159186 L377.580774,187.073097 L379.058705,187.881819 C384.762672,190.927957 387.201831,197.821586 384.682938,203.777203 C383.168477,207.357961 381.000331,210.841994 378.245233,214.286026 C371.648442,222.532396 361.594321,230.700565 348.760151,238.925184 L347.174771,239.932571 C346.10865,240.604363 345.024187,241.276568 343.921751,241.949259 L342.254662,242.958669 C341.974583,243.126968 341.693392,243.295299 341.411095,243.463665 C332.399561,248.838246 322.802072,253.911584 313.211222,258.547904 L311.554682,259.34426 L309.93954,260.112065 C309.673916,260.237625 309.410106,260.361972 309.148152,260.485098 L307.599066,261.209092 L306.096656,261.903221 L303.935181,262.887266 L301.515331,263.966444 L300.298153,264.495215 C297.478537,265.698939 294.554841,265.783927 291.926889,265.01778 L291.585823,264.913043 L291.484,264.879 L291.255202,265.126543 C290.731864,265.693928 290.197454,266.284563 289.652089,266.898951 L289.103075,267.521275 L288.466168,268.249074 L288.063744,268.687154 C287.718643,269.052893 287.34915,269.420366 286.955071,269.789961 L286.470363,270.234518 C285.973829,270.680145 285.44178,271.129051 284.873882,271.581909 L284.294023,272.03611 L283.69019,272.493095 L283.06231,272.953014 L282.410308,273.416016 L281.73411,273.88225 L281.033642,274.351865 L280.30883,274.825012 L279.5596,275.301839 L278.785877,275.782495 L277.987587,276.267131 L277.164657,276.755895 L276.317011,277.248937 L275.444575,277.746406 L274.547277,278.248452 L273.62504,278.755224 L272.194765,279.524569 L271.209859,280.043808 L270.199757,280.568297 L269.164382,281.098183 L267.563774,281.90346 L266.464896,282.447495 L265.340487,282.99745 L264.190473,283.553476 L262.417278,284.399222 L260.586054,285.259467 L258.696551,286.134713 L256.748517,287.025465 L254.741702,287.932228 L251.97408,289.16702 L250.673203,289.741519 L248.018378,290.902079 L245.294475,292.077565 C243.455962,292.866067 241.572743,293.664126 239.64751,294.470956 C230.274086,298.399188 220.30248,302.372565 210.2911,306.220797 L206.117181,307.817126 L201.671068,309.499341 L196.207146,311.538608 L193.56421,312.510645 C185.699982,315.371974 178.014089,309.964282 176.902087,302.649083 L176.865179,302.387026 L176.839,302.167 L155.568803,304.285493 C145.23803,305.314131 139.630796,295.092458 142.58511,287.277292 L142.677259,287.041219 L142.805,286.735 L141.825322,286.412406 L140.583964,285.995254 L139.349343,285.572706 L138.12295,285.145252 L136.906272,284.713384 L135.700799,284.277592 L134.508018,283.838369 L133.329418,283.396205 L132.166488,282.951591 L131.020717,282.505018 L129.893593,282.056978 L128.786604,281.607961 C128.603867,281.533071 128.42203,281.458161 128.241126,281.38324 L127.167132,280.93368 L126.116995,280.484372 L125.092204,280.035806 L124.094248,279.588474 C123.93024,279.514049 123.767413,279.439696 123.605797,279.365424 L122.650883,278.920864 C122.494236,278.846962 122.338861,278.773163 122.184791,278.699477 L121.276269,278.258793 L120.400536,277.821308 L119.559079,277.387513 C119.421776,277.315548 119.285962,277.243758 119.15167,277.172152 L118.364421,276.744812 C117.211674,276.107367 116.187173,275.486519 115.313525,274.889727 L115.027928,274.691697 L114.694311,274.45217 C113.789955,273.788432 112.824596,273.024235 111.798624,272.163254 L111.017787,271.499429 C110.885755,271.385786 110.752778,271.270645 110.618856,271.154013 L109.803993,270.436392 L108.966492,269.683338 L108.10639,268.895194 C107.961158,268.760932 107.814986,268.625223 107.667875,268.488072 L106.773939,267.647942 C106.623073,267.505058 106.471269,267.360748 106.318528,267.215019 L105.390841,266.323676 L104.4407,265.398622 L103.46814,264.4402 L102.473199,263.448757 L101.455914,262.424635 L100.41632,261.36818 L99.2081246,260.12885 C96.8730947,257.72176 94.5169958,255.227076 92.2183485,252.744077 L90.4427673,250.816163 L88.5811616,248.772446 L87.2481466,247.291306 C85.3599069,245.172415 84.3383808,242.620945 84.1224887,240.036563 L84.094,239.602 L76.3418672,235.201044 L70.4681899,231.834159 L67.4668414,230.092069 L63.3582741,227.666349 L61.6854311,226.690939 L58.6232394,224.927597 L53.1792052,221.835868 L48.4620249,219.184486 L41.3812417,215.234998 L32.1411673,210.117684 L24.3402115,205.820483 L17.1403557,201.868926 L9.33902818,197.607532 L7.51668069,196.619518 C2.89593528,194.122005 0.329428675,189.002218 1.093133,183.805525 C2.07480541,177.12565 7.62543698,170.892271 18.6163684,165.67482 L19.5448913,165.242397 C20.6429038,164.740674 21.7925677,164.248704 22.9946836,163.76701 L24.0379328,163.356658 L25.1069848,162.951412 C25.4676485,162.817189 25.8326312,162.683829 26.2019518,162.551345 L27.3229458,162.15653 C27.8899682,161.960449 28.4667928,161.766364 29.0534825,161.574318 C31.2582795,160.852603 33.6066921,160.156619 36.1031625,159.487436 C41.06869,158.15609 46.4232279,155.593208 52.6014743,151.643033 L53.0912828,151.328131 L54.0805413,150.681757 L55.0848528,150.01187 C55.253639,149.898168 55.4231623,149.783415 55.5934776,149.667577 L56.6253133,148.959228 L57.6787949,148.223111 C57.8563256,148.098016 58.034868,147.971693 58.2144771,147.844107 L59.3053723,147.063145 L60.4245065,146.25016 L61.5745166,145.403449 L62.75804,144.521309 L63.9777137,143.60204 L66.11478,141.967522 L68.0340069,140.47703 L78.9798314,131.902755 L81.2219109,130.162162 L82.6736756,129.044828 L84.0933631,127.960594 L85.4829335,126.908303 L86.8443467,125.886798 L88.1795628,124.894921 L89.4905418,123.931515 L90.7792438,122.995424 L92.0476288,122.085489 C92.2574421,121.935949 92.4664906,121.787451 92.6748149,121.639969 L93.9163995,120.767101 L95.1425672,119.917497 L96.3552779,119.09 L97.5564919,118.283453 C97.9551981,118.017967 98.352315,117.75578 98.748169,117.496699 L99.9322694,116.728581 L101.110753,115.977941 C101.502863,115.730512 101.894363,115.485804 102.28558,115.243623 L103.45871,114.524469 L104.632104,113.819323 C104.8278,113.702902 105.023589,113.587016 105.219512,113.471641 L106.396976,112.785336 C106.593596,112.67191 106.790431,112.558948 106.987521,112.446424 L108.173466,111.776357 C108.570022,111.554629 108.967929,111.334463 109.367513,111.115668 C120.288028,105.136872 130.861941,102.009342 140.922899,101.332058 L141.608077,101.289672 L142.078,101.265 L141.886703,100.836124 C140.275674,97.2196612 138.652819,93.5559284 137.049167,89.9188081 L135.453067,86.293295 L131.614,77.527 L131.398953,77.2667247 C128.819233,74.0460505 127.868018,70.1359922 128.319465,66.3043522 L128.369277,65.921478 L128.42839,65.5392973 C128.866916,62.9129666 129.88784,60.586088 131.327411,58.3409126 C133.200988,55.4188566 135.883697,52.539095 139.233089,49.6133052 C144.760787,44.7847027 152.039349,39.9546083 158.21708,37.0200187 L163.35116,34.6460043 L164.614334,34.0430711 L165.153056,33.7625373 L165.392084,33.6147633 L165.5221,33.5197121 L165.670245,33.3960652 L165.959223,33.1310787 L166.384196,32.7182832 L171.369843,27.6577859 C175.002232,24.0240655 179.838242,20.3356444 185.327945,16.9178458 L186.472893,16.2146832 L187.635413,15.5198837 C187.83057,15.4048163 188.026415,15.290124 188.222924,15.1758203 L189.409773,14.494766 C199.960863,8.52185113 212.251966,3.7151178 222.926166,2.0604255 Z" id="Sticker" fill="#FFFFFF" fill-rule="nonzero"></path>
            <g id="Cloak" transform="translate(13.460299, 13.466621)">
                <path d="M226.16,1.91337855 C226.16,1.91337855 226.193213,1.92656805 226.257058,1.95341654 L226.404506,2.01659697 C228.178731,2.78926504 239.168041,7.97890432 244.82,20.2333785 C247.0838,25.142076 252.818546,33.4120535 259.028379,42.1043323 L259.790937,43.1706037 C259.918358,43.3486008 260.045926,43.5267238 260.173615,43.7049477 L260.941005,44.7753027 C261.197152,45.1323583 261.453581,45.4896178 261.710088,45.8468813 L262.736054,47.2754836 C263.214516,47.9416397 263.692304,48.6068818 264.168096,49.2699106 L264.738003,50.0643995 C264.832799,50.1966096 264.927494,50.3287103 265.022078,50.4606913 L265.588155,51.2510576 C266.152722,52.0398209 266.712506,52.823526 267.265218,53.5999276 L267.815488,54.3738116 C275.301309,64.9146822 281.32375,73.9516433 280.040656,75.7534594 L280.04,75.7543785 C280.2837,78.1834221 276.591995,83.4872164 272.501735,88.9579479 L271.999136,89.6284836 L271.999136,89.6284836 L271.120095,90.7949962 C267.403046,95.7156988 263.683412,100.52672 262.53,103.261379 C261.222259,106.362448 259.010147,112.236493 256.535691,117.812597 C265.642285,119.034556 272.123478,119.959106 273.98,120.345379 C282.91,122.193379 290.75,131.470379 309.17,149.874379 C327.57,168.277379 359.71,185.441379 359.71,185.441379 C348.93,210.929379 281.93,239.532379 281.93,239.532379 L282.03,231.424379 C281.773918,231.556233 275.963261,234.619466 265.76,246.368379 C255.34,258.368379 175.83,287.297379 175.83,287.297379 L180.43,274.441379 L140.87,278.380379 L162.42,268.005379 C153.63,268.885379 116.94,256.996379 108.63,250.908379 C105.1398,248.346799 100.081404,243.456386 95.3877679,238.645222 L94.7199386,237.958712 C88.51392,231.561172 83.12,225.508379 83.12,225.508379 C87.56,222.849379 110.43,234.395379 124.61,242.060379 C117.014,237.825179 106.5396,231.979099 96.02776,226.084507 L92.8759258,224.316236 C78.18864,216.072097 63.9848,208.039099 58.06,204.504379 C52.5305128,201.20325 42.7193425,195.686517 32.7186015,190.134365 L29.558944,188.38242 C20.0897041,183.138308 10.8369231,178.068379 5.28,175.026379 C2,173.237379 0,172.156379 0,172.156379 C0,172.156379 1.09,164.739379 25.88,158.094379 C50.69,151.442379 73.06,124.410379 101.91,108.613379 C129.92,93.2783785 148.05,103.535379 149.08,104.150379 L149.1,104.162379 L149.12,104.175379 C149.12,104.175379 149.352843,104.204124 149.798462,104.259205 C141.173325,85.6769621 128.78,57.1553785 128.78,57.1553785 C128.78,57.1553785 128.776034,57.1500615 128.768884,57.139821 L128.738656,57.0947226 C128.462141,56.6672978 127.052927,54.1061091 132.489849,53.4345387 C136.014637,49.5869003 148.937941,35.8596537 156.29,33.2233785 C163.59037,30.6056378 170.91251,22.4910864 172.921806,20.1442287 L173.083006,19.9549658 C173.328922,19.6646709 173.46,19.5023785 173.46,19.5023785 C173.46,19.5023785 211.61,-3.89162145 226.16,1.91337855 Z" id="Cap" fill="#15101B"></path>
                <path d="M143.37,44.6203785 C151.13,40.9463785 161.32,35.4643785 168.75,27.4133785 C176.19,19.3613785 189.5,9.04337855 201.32,7.17037855 C213.15,5.29637855 226.16,1.91337855 226.16,1.91337855 C226.16,1.91337855 228.12,-1.64762145 211.38,0.946378546 C194.64,3.54137855 174.93,14.8453785 166.75,23.0283785 C158.57,31.2123785 160.93,29.8743785 150.61,34.6153785 C140.29,39.3563785 124.25,51.9203785 127.74,56.0403785 C131.22,60.1613785 135.61,48.2943785 143.37,44.6203785 Z M149.12,104.175379 C149.12,104.175379 118.67,105.119379 101.64,117.783379 C84.63,130.440379 43.28,164.979379 22.66,168.982379 C15.05,170.462379 9.4,172.738379 5.28,175.026379 C2,173.237379 0,172.156379 0,172.156379 C0,172.156379 1.09,164.739379 25.88,158.094379 C50.69,151.442379 73.06,124.410379 101.91,108.613379 C129.92,93.2783785 148.05,103.535379 149.08,104.150379 L149.1,104.162379 L149.12,104.175379" id="Light" fill="#4F4A55"></path>
                <path d="M171.95,183.441379 C171.95,183.441379 171.52,183.559379 170.7,183.768379 C164.95,185.229379 140.16,191.088379 112.37,191.087379 C101.02,191.088379 89.17,190.111379 77.92,187.465379 L77.71,188.358379 C89.05,191.025379 100.97,192.005379 112.37,192.005379 C144.28,192.004379 172.17,184.330379 172.19,184.325379 L171.95,183.441379 M204.33,198.023379 C204.33,198.024379 203.87,198.334379 203.04,198.884379 C200.15,200.808379 192.73,205.642379 184.72,210.151379 C180.72,212.405379 176.57,214.577379 172.76,216.262379 C168.96,217.948379 165.5,219.143379 162.94,219.451379 L163.05,220.362379 C166.17,219.980379 170.31,218.436379 174.8,216.343379 C188.26,210.062379 204.83,198.788379 204.84,198.782379 L204.33,198.023379 M186.95,152.962379 L213,153.585379 L213.83,159.224379 L214.31,159.116379 C214.33,159.112379 222.74,157.228379 232.86,153.076379 C242.98,148.920379 254.81,142.514379 261.64,133.369379 L260.91,132.820379 C254.27,141.729379 242.56,148.110379 232.52,152.227379 C227.49,154.288379 222.89,155.788379 219.54,156.771379 C217.87,157.263379 216.51,157.626379 215.57,157.866379 C215.1,157.985379 214.73,158.074379 214.48,158.133379 C214.24,158.192379 214.11,158.221379 214.11,158.221379 L214.21,158.669379 L214.66,158.602379 L213.8,152.686379 L186.97,152.044379 L186.95,152.962379 M264.81,176.201379 C264.81,176.202379 264.76,176.279379 264.66,176.432379 C263.21,178.727379 250.81,197.529379 232.47,205.897379 C227.32,208.253379 223.28,210.886379 220.52,213.414379 C217.77,215.947379 216.24,218.352379 216.229881,220.420379 C216.22,221.647379 216.84,222.733379 217.99,223.414379 C219.14,224.102379 220.79,224.456379 222.98,224.458379 C225.45,224.458379 228.63,223.998379 232.56,222.968379 C243.98,219.973379 253.58,211.147379 260.71,201.929379 C267.85,192.702379 272.52,183.085379 274.04,178.357379 L273.16,178.076379 C271.7,182.654379 267.05,192.242379 259.99,201.368379 C252.92,210.503379 243.44,219.178379 232.33,222.081379 C228.45,223.098379 225.34,223.541379 222.98,223.541379 C220.89,223.543379 219.39,223.188379 218.46,222.627379 C217.54,222.059379 217.16,221.355379 217.14,220.420379 C217.13,218.836379 218.47,216.527379 221.14,214.090379 C223.81,211.647379 227.77,209.053379 232.85,206.731379 C252.75,197.628379 265.56,176.711379 265.59,176.682379 L264.81,176.201379 M137.06,109.582379 C137.06,109.604379 137.77,114.068379 139.91,119.040379 C140.99,121.525379 142.42,124.139379 144.32,126.389379 C146.22,128.636379 148.59,130.523379 151.52,131.514379 L151.82,130.645379 C149.08,129.720379 146.84,127.952379 145.02,125.797379 C142.29,122.566379 140.51,118.468379 139.43,115.181379 C138.89,113.538379 138.53,112.098379 138.29,111.071379 C138.18,110.557379 138.09,110.147379 138.04,109.866379 C137.99,109.585379 137.96,109.438379 137.96,109.438379 L137.06,109.582379 M82.31,144.043379 C82.31,144.043379 82.38,144.018379 82.52,143.971379 C83.46,143.644379 87.5,142.331379 90.55,142.336379 C91.62,142.334379 92.54,142.500379 93.15,142.857379 C93.45,143.035379 93.68,143.253379 93.84,143.528379 C93.99,143.805379 94.09,144.150379 94.09,144.606379 C94.09,145.063379 93.99,145.630379 93.75,146.313379 C93.45,147.213379 92.69,148.098379 91.55,148.927379 C89.55,150.381379 86.43,151.636379 82.89,152.667379 C77.58,154.218379 71.33,155.285379 66.41,155.961379 C63.94,156.299379 61.82,156.540379 60.3,156.696379 C58.79,156.852379 57.9,156.923379 57.9,156.924379 L57.97,157.838379 C57.98,157.837379 66.35,157.169379 75.09,155.464379 C79.46,154.611379 83.92,153.500379 87.5,152.073379 C89.29,151.358379 90.85,150.564379 92.09,149.669379 C93.31,148.774379 94.22,147.771379 94.62,146.611379 C94.88,145.857379 95,145.195379 95.01,144.606379 C95.01,144.021379 94.88,143.504379 94.63,143.074379 C94.26,142.425379 93.65,142.005379 92.94,141.759379 C92.23,141.511379 91.42,141.420379 90.55,141.419379 C86.8,141.426379 82.02,143.176379 82,143.181379 L82.31,144.043379 M305.66,193.929379 L279.61,209.055379 L280.07,209.848379 L306.12,194.722379" id="Texture" fill="#FFFFFE"></path>
            </g>
            <g id="Head" transform="translate(167.429700, 49.522008)">
                <path d="M79.3405988,5.64799227 C86.4505988,8.61099227 91.0505988,13.1169923 93.5505988,17.2119923 L93.5605988,17.2219923 C95.1305988,19.7899923 95.8805988,22.1909923 95.9005988,23.9559923 C95.9505988,28.5349923 94.6605988,30.7569923 94.6605988,30.7569923 L94.6069314,30.7382301 C93.6617934,30.4097274 80.4727675,25.9030646 74.1305988,27.9849923 C67.5605988,30.1459923 70.1105988,32.4489923 71.3605988,32.1499923 C72.6005988,31.8499923 80.8405988,28.2459923 86.9805988,30.5949923 C93.1405988,32.9369923 101.820599,42.6309923 101.820599,42.6309923 C101.820599,42.6309923 101.822315,42.7067556 101.823157,42.8490205 L101.823441,43.1111363 C101.815628,45.4853236 101.520983,56.0419153 97.0005988,60.6949923 C97.0005988,60.6949923 104.990599,66.9219923 101.330599,73.8399923 C97.6605988,80.7679923 87.7905988,82.4439923 87.7905988,82.4439923 L78.8705988,82.5809923 C78.8705988,82.5809923 73.6105988,93.8369923 78.0005988,100.017992 L65.9405988,101.854992 L61.5105988,89.4169923 L59.7905988,107.684992 L50.8905988,109.272992 L47.5405988,86.1609923 C47.5405988,86.1609923 45.8880336,90.2356504 44.0831229,94.7299208 L43.7893363,95.4618222 C43.6420122,95.8290347 43.4942197,96.197707 43.3467584,96.5658907 L43.0525145,97.3010295 C41.2436562,101.823249 39.5662778,106.073585 39.5205988,106.396992 C39.4655988,106.750992 37.3330988,105.294992 35.2143488,103.750492 L34.7445918,103.406513 C34.3547328,103.119816 33.9706577,102.834456 33.6056473,102.561368 L33.1776358,102.240252 C31.9261543,101.29877 30.9905988,100.572992 30.9905988,100.572992 L37.1505988,84.8769923 L24.3405988,96.7119923 L15.3405988,89.1319923 C15.3405988,89.1319923 20.6705988,79.0899923 20.9005988,74.3109923 C20.9005988,74.3109923 3.40059878,72.2239923 0.480598779,60.9629923 C-2.43940122,49.7029923 8.90059878,49.4479923 8.90059878,49.4479923 C8.90059878,49.4479923 5.63059878,34.0459923 7.66059878,30.0139923 C9.70059878,25.9819923 24.9205988,17.3939923 34.6905988,22.9179923 C44.4705988,28.4439923 45.7805988,29.3579923 42.1605988,24.4959923 C39.0705988,20.3429923 30.9305988,17.0239923 22.4205988,19.5859923 C20.9705988,20.0319923 19.5105988,20.6339923 18.0705988,21.4329923 C18.0705988,21.4329923 20.2705988,1.54699227 36.8005988,0.366992265 C53.3405988,-0.812007735 67.7705988,0.823992265 79.3405988,5.64799227 Z M50.3000799,63.1965872 L50.1005703,63.5368715 C50.0344358,63.6505163 49.9687189,63.7642617 49.9035665,63.8777597 L49.709949,64.2171629 C49.6460722,64.3298177 49.5829065,64.4418769 49.5205988,64.5529923 C47.8905988,67.4419923 45.9305988,67.6369923 45.7205988,70.7329923 C45.5105988,73.8299923 45.9405988,75.8179923 50.5305988,70.7189923 C50.5305988,70.7189923 52.9305988,77.3259923 53.9805988,76.7589923 C55.0305988,76.1899923 56.4205988,71.5829923 56.4205988,71.5829923 C56.4205988,71.5829923 53.7305988,62.0439923 53.5405988,60.0909923 C53.371368,58.4376077 51.7701846,60.7084893 50.3000799,63.1965872 Z M63.6005988,53.0259923 C62.3805988,61.3509923 67.0805988,68.9369923 74.1105988,69.9679923 C81.1305988,70.9989923 87.8205988,65.0859923 89.0405988,56.7609923 C90.2605988,48.4349923 85.5605988,40.8489923 78.5305988,39.8179923 C71.5105988,38.7869923 64.8205988,44.6999923 63.6005988,53.0259923 Z M33.6405988,33.3479923 C26.6205988,32.3169923 19.9305988,38.2299923 18.7105988,46.5549923 C17.4905988,54.8809923 22.1905988,62.4669923 29.2205988,63.4979923 C36.2405988,64.5289923 42.9305988,58.6159923 44.1505988,50.2899923 C45.3705988,41.9649923 40.6705988,34.3799923 33.6405988,33.3479923 Z" id="Crane-2" fill="#FFFFFE"></path>
                <path d="M87.7305988,81.2319923 C88.5705988,82.0769923 87.7905988,82.4449923 87.7905988,82.4449923 L78.8705988,82.5779923 C78.8705988,82.5779923 81.4905988,76.2249923 84.7605988,75.2619923 C88.0305988,74.2979923 86.8905988,80.3869923 87.7305988,81.2319923 Z M19.7805988,67.1649923 C20.6805988,69.2219923 20.8905988,74.3069923 20.8905988,74.3069923 C20.8905988,74.3069923 14.8405988,72.9369923 10.7405988,71.3719923 C10.7405988,71.3719923 14.7205988,68.8289923 14.9305988,65.7319923 C15.1505988,62.6359923 18.8705988,65.1079923 19.7805988,67.1649923 Z M82.9975762,41.5175124 C89.2922837,43.2399031 93.3433184,50.3883994 92.2005988,58.1869923 C90.9805988,66.5119923 84.2905988,72.4259923 77.2705988,71.3939923 C75.6420858,71.1551591 74.1386068,70.5646213 72.8047891,69.6946404 C73.2300069,69.8112172 73.6656355,69.9027352 74.1105988,69.9679923 C81.1305988,70.9989923 87.8205988,65.0859923 89.0405988,56.7609923 C89.963842,50.4602355 87.496815,44.5832625 83.1953521,41.6501784 Z M29.9805988,32.9299923 C30.4810198,33.0034871 30.9696515,33.1102916 31.44519,33.2482989 C25.2751791,33.5861479 19.8024163,39.1046798 18.7105988,46.5549923 C17.5775939,54.2872863 21.5504103,61.3813526 27.7535683,63.179555 C27.0274985,63.2202171 26.2908835,63.188715 25.5505988,63.0799923 C18.5205988,62.0489923 13.8205988,54.4629923 15.0405988,46.1369923 C16.2705988,37.8119923 22.9505988,31.8989923 29.9805988,32.9299923 Z M79.3405988,5.64799227 C86.4505988,8.61099227 91.0505988,13.1169923 93.5505988,17.2119923 C93.4070853,17.0805193 93.1785188,16.8764481 92.8641258,16.6116161 L92.6418069,16.4261897 C90.1737726,14.387424 83.491815,9.50027605 72.3305988,5.82499227 C57.8805988,1.05099227 43.7605988,3.79099227 33.5105988,6.37599227 C24.3105988,8.69699227 22.6605988,17.7659923 22.4205988,19.5859923 C22.3905988,19.7859923 22.3805988,19.9049923 22.3805988,19.9049923 L18.0705988,21.4329923 C18.0705988,21.4329923 20.2705988,1.54699227 36.8005988,0.366992265 C53.3405988,-0.812007735 67.7705988,0.823992265 79.3405988,5.64799227 Z" id="Shadows" fill="#B8D6E6"></path>
            </g>
        </g>
    </g>
</svg>