<?xml version="1.0" encoding="UTF-8"?>
<svg width="532px" height="431px" viewBox="0 0 532 431" version="1.1" xmlns="http://www.w3.org/2000/svg" xmlns:xlink="http://www.w3.org/1999/xlink">
    <title>decoration-2</title>
    <g id="decoration-2" stroke="none" stroke-width="1" fill="none" fill-rule="evenodd">
        <g id="Group" transform="translate(1.000000, 106.429000)">
            <path d="M106.17,1.11002728 C120.082835,1.11002728 132.843965,3.52638681 144.306976,8.21418425 C155.033202,12.5849542 164.537463,18.8764665 172.78154,26.8170061 C186.610199,40.1365093 196.417115,57.3857295 203.087401,77.38376 C206.414323,87.3549409 208.767456,97.4870025 210.349311,107.56495 C211.048179,112.024997 211.552139,116.210324 211.892218,120.041897 L212.003236,121.351516 L212.098131,122.5886 L212.176319,123.729992 L212.238308,124.764693 L212.284608,125.681705 L212.30701,126.222232 L212.328293,126.918655 C212.334808,127.233686 212.331788,127.551606 212.319284,127.869678 L212.293421,128.346557 L212.273,128.58 L213.34674,135.368615 C213.959282,139.244215 212.714225,143.052765 210.192611,145.791561 L209.952488,146.045158 L209.874,146.123 L210.455219,146.532379 C211.419352,147.21525 212.416099,147.941814 213.441854,148.71215 L214.216553,149.298112 L214.870201,149.798957 C222.313679,155.53579 229.736353,162.371842 236.678215,170.329602 C251.948607,187.834718 262.749272,208.248883 266.970225,231.554162 C271.670681,257.529083 268.116757,279.942605 257.273989,298.249943 C248.581783,312.92619 235.607794,324.279055 219.954144,332.185799 L219.194625,332.565693 L218.482,332.915 L218.261899,333.092816 C217.215114,333.923528 216.217794,334.599608 215.315956,335.107308 L214.982332,335.289776 L214.548397,335.510606 C213.07711,336.227674 211.523952,336.659926 209.959986,336.819807 L209.533235,336.856667 L209.313,336.869 L208.808558,337.062875 C202.591482,339.411213 196.510639,341.265107 190.571968,342.670623 L189.386131,342.945762 L188.249,343.199 L188.149894,343.241048 C186.72345,343.817006 185.207589,344.148749 183.669448,344.220353 L183.207404,344.234015 L183.002,344.234 L182.941792,344.245476 C177.516299,345.197258 172.450461,345.72669 167.786029,345.907131 L166.916163,345.936892 L166.562,345.945 L166.266583,346.00657 C165.2126,346.207163 164.130306,346.284449 163.040978,346.230933 L162.573755,346.199967 L162.199606,346.163574 L161.980358,346.137251 L161.769967,346.108443 L161.560375,346.076428 L161.451,346.057 L160.954884,346.410326 C159.338823,347.54487 157.587899,348.661158 155.704745,349.735311 L154.889591,350.193013 L154.151455,350.595191 C138.996799,358.734826 121.484331,361.360187 102.82972,355.307717 L102.067,355.055 L101.820845,355.066093 C100.707914,355.101501 99.5949058,355.001416 98.5083939,354.768875 L98.0444457,354.661115 L97.906,354.624 L97.8855875,354.627968 C91.8066842,355.34116 84.914854,355.454112 77.5315752,354.601788 L76.606129,354.490194 L76.061,354.419 L75.9029406,354.45762 C72.3442115,355.271396 68.5277105,354.644471 65.3906564,352.582429 L65.0685957,352.363995 L64.844,352.203 L64.4747443,352.103925 C52.2246306,348.763676 40.9938639,342.675024 31.4244966,333.380391 L30.8523334,332.818862 L30.2841884,332.249617 C17.7379185,319.54855 8.94163924,301.861142 4.49067113,278.928294 L4.405,278.477 L4.12131023,277.408357 C-1.61468679,254.802605 2.37865254,228.931164 12.849386,201.526197 C16.4365963,192.137421 20.56617,183.197918 24.9118733,174.95747 L25.3318263,174.164663 L26.1605045,172.620862 L26.9729973,171.133796 L27.399,170.363 L27.3073848,170.319149 C22.9297823,168.120298 20.2481332,163.568204 20.4282896,158.692036 L20.4441082,158.373587 L20.4681135,158.054343 L21.55,145.773 L21.5165871,145.445281 C20.7733205,138.15598 20.2757299,129.971293 20.1923747,121.212751 L20.183303,119.957661 L20.18,118.750027 C20.18,105.055398 21.2422266,91.6729327 23.639453,78.9880398 C26.6413711,63.179552 31.5750008,49.2069365 38.9316948,37.3644535 C44.672943,28.1215388 51.8138157,20.3673946 60.3914117,14.4219589 C72.4523813,6.04865199 87.0852848,1.49767305 103.859113,1.13235508 L104.699586,1.11757891 L105.488231,1.11002728 L106.17,1.11002728 Z M105.701728,32.9598749 C99.1610977,32.9921743 93.4286237,33.9176142 88.3647412,35.6575405 C83.7632105,37.2311596 79.7349364,39.4724408 76.1280338,42.4050045 C69.2991379,47.9483738 63.8974937,56.1110852 59.9267029,66.6787845 C57.4495474,73.2508299 55.5691321,80.6663932 54.2614124,88.7548546 C52.7350221,98.2457618 52.03,108.406098 52.03,118.750027 C52.03,122.820002 52.3225402,125.539887 56,129 C58.4516398,131.306742 77.1841212,129.937578 112.197444,124.892507 C153.399148,120.297502 175,116.666667 177,114 C180,110 178.23171,108.296548 177.347691,104.095028 L177.076565,102.831229 C173.214687,85.1073622 166.642782,69.0523238 157.168965,56.9674282 C149.710141,47.4437838 140.750551,40.6640529 129.836903,36.7657625 C123.056823,34.3515156 115.509788,33.0485646 107.048566,32.9643837 L105.701728,32.9598749 Z" id="Sticker" fill="#FFFFFF" fill-rule="nonzero"></path>
            <path d="M106.17,13.6100273 C118.88,13.6100273 129.98,15.8600273 139.59,19.7900273 C149.21,23.7100273 157.32,29.2800273 164.11,35.8200273 C177.69,48.9000273 186.03,65.7500273 191.23,81.3400273 C194.7,91.7400273 196.76,101.600027 198,109.500027 C199.600746,119.715699 199.818684,126.627795 199.830269,127.140926 L199.830787,127.170027 C199.87,129.060027 198.38,130.630027 196.49,130.680027 C195.212592,130.707062 194.081363,130.035178 193.466811,129.010172 L159.71,149.260027 C159.71,149.260027 69.753633,160.704619 41.5679348,151.692292 C41.2823481,153.035435 40.1914583,154.126486 38.75,154.350027 C36.88,154.640027 35.13,153.360027 34.84,151.490027 C34.8335951,151.451598 34.6107926,150.011199 34.3105222,147.452274 C34.1936482,147.301431 34.0873169,147.147089 33.99,146.990027 L34.2532023,146.95817 C33.6157915,141.400513 32.6865969,131.171943 32.68,118.750027 C32.68,107.480027 33.45,94.3900273 35.92,81.3200273 C38.4,68.2600273 42.58,55.1800273 49.55,43.9600273 C54.19,36.4900273 60.09,29.8400273 67.52,24.6900273 C77.43,17.8100273 90.04,13.6800273 105.6,13.6100273 L105.6,13.6100273 Z M106.17,20.4600273 L105.64,20.4600273 C97.54,20.5000273 90.49,21.7100273 84.32,23.8300273 C78.15,25.9400273 72.85,28.9600273 68.25,32.7000273 C59.06,40.1600273 52.63,50.5600273 48.23,62.2700273 C45.29,70.0700273 43.27,78.4200273 41.92,86.7700273 C40.13,97.9000273 39.53,109.010027 39.53,118.750027 C39.53,130.797296 40.4385235,140.760033 41.0529292,146.132736 L193.004693,127.663584 C192.99128,127.553997 192.982966,127.442733 192.98,127.330027 L192.98,127.330027 L192.98,127.230027 C192.98,127.150027 192.97,127.020027 192.96,126.850027 C192.95,126.520027 192.93,126.010027 192.89,125.350027 C192.81,124.030027 192.67,122.100027 192.42,119.670027 C191.92,114.820027 191,107.990027 189.29,100.170027 C185.88,84.5200273 179.31,64.9500273 167.01,49.2600273 C158.81,38.7900273 148.14,30.0300273 134.03,24.9900273 C125.97,22.1200273 116.76,20.4600273 106.17,20.4600273 L106.17,20.4600273 Z" id="Handle" fill="#15132A"></path>
            <g id="Pumpkin" transform="translate(14.036691, 125.620027)">
                <path d="M27.8533088,44.71 C27.8533088,44.71 -10.0266912,104.69 2.56330884,150.08 C15.1533088,195.46 103.993309,205.38 103.993309,205.38 L168.303309,183.49 L195.433309,152.2 L176.613309,27.73 C176.613309,27.73 58.5933088,24.84 27.8533088,44.71" id="Fill-1969" fill="#E2952E"></path>
                <path d="M27.8533088,44.71 C27.8533088,44.71 126.343309,41.7 144.603309,35.81 C162.863309,29.91 176.113309,102.19 174.243309,128.27 C172.383309,154.36 154.773309,175.74 154.773309,175.74 C154.773309,175.74 170.283309,197.87 188.873309,186.53 C207.473309,175.19 213.943309,121.38 207.173309,90.07 C200.413309,58.75 184.103309,27.75 184.103309,27.75 L181.203309,13.21 L26.5833088,32.91 L27.8533088,44.71" id="Fill-1970" fill="#CF622C"></path>
                <path d="M2.56330884,150.08 C2.56330884,150.08 20.5333088,168.82 34.3233088,161.24 C48.1133088,153.65 62.3833088,171.79 75.3833088,178.12 C88.3833088,184.46 86.3833088,190.77 104.033309,188.58 C121.673309,186.38 124.043309,182.41 129.773309,184.5 C135.503309,186.59 154.773309,175.74 154.773309,175.74 C154.773309,175.74 194.713309,162.81 195.313309,136.33 C195.913309,109.84 184.103309,27.75 184.103309,27.75 C184.103309,27.75 231.023309,55.1 240.633309,108.16 C250.233309,161.21 220.323309,188.15 191.503309,199.31 C162.683309,210.47 143.613309,207.5 143.613309,207.5 C143.613309,207.5 120.163309,229.81 87.3533088,215.81 C87.3533088,215.81 17.8833088,231.62 2.56330884,150.08" id="Fill-1971" fill="#C14D2C"></path>
                <path d="M18.8833088,33.53 C18.8833088,33.53 68.1733088,56.91 186.963309,11.7 L185.113309,0 C185.113309,0 93.4733088,34.91 19.9533088,21.37 L18.8833088,33.53" id="Fill-1974" fill="#EEA238"></path>
            </g>
            <path d="M68.42,173.080027 C68.9613333,173.304027 69.2413333,173.902605 69.0811319,174.452981 L69.04,174.570027 L68.96,174.770027 C68.91,174.920027 68.83,175.130027 68.72,175.410027 C68.51,175.980027 68.21,176.840027 67.85,177.960027 C67.13,180.190027 66.16,183.500027 65.19,187.740027 C63.25,196.220027 61.31,208.460027 61.31,223.420027 C61.32,254.020027 69.42,296.010027 102.31,340.760027 C102.68,341.260027 102.58,341.980027 102.07,342.350027 C101.56,342.720027 100.84,342.620027 100.47,342.110027 C67.27,296.960027 59.03,254.420027 59.03,223.420027 C59.03,197.344827 64.843256,179.420019 66.4964099,174.854902 L66.604871,174.558147 C66.6417658,174.458166 66.6758336,174.366862 66.7069117,174.284319 L66.8260329,173.972307 C66.8912604,173.80411 66.9273818,173.715918 66.93,173.710027 C67.17,173.120027 67.83,172.840027 68.42,173.080027 Z M47.99,174.140027 C48.5126667,174.420027 48.7304444,175.039761 48.5132474,175.568318 L48.46,175.680027 L48.42,175.760027 C48.39,175.820027 48.3499919,175.900027 48.29,176.010027 C48.18,176.230027 48.01,176.560027 47.79,177.000027 C47.36,177.880027 46.74,179.180027 46,180.870027 C44.52,184.240027 42.54,189.150027 40.56,195.290027 C36.59,207.550027 32.63,224.710027 32.63,244.200027 C32.64,273.750027 41.69,308.630027 73.66,340.340027 C74.11,340.790027 74.11,341.510027 73.67,341.960027 C73.22,342.410027 72.5,342.410027 72.05,341.960027 C39.61,309.810027 30.34,274.200027 30.3499919,244.200027 C30.36,204.590027 46.4,174.700027 46.45,174.600027 C46.74,174.050027 47.44,173.840027 47.99,174.140027 Z M101.265321,170.418724 L101.39,170.420027 C102.02,170.460027 102.5,171.010027 102.45,171.630027 C102.45,171.630027 102.45,171.730027 102.43,171.930027 C102.42,172.120027 102.41,172.410027 102.39,172.800027 C102.34,173.570027 102.29,174.700027 102.23,176.170027 C102.124231,178.99695 102.018462,183.044288 102.010482,188.04534 L102.010459,189.239537 C102.037224,206.455774 103.248977,234.11355 109.25,262.260027 C115.32,290.730027 126.33,319.660027 145.84,338.800027 C146.29,339.240027 146.29,339.960027 145.85,340.410027 C145.41,340.860027 144.69,340.870027 144.24,340.430027 C124.23,320.770027 113.15,291.430027 107.02,262.730027 C100.958876,234.352499 99.7566949,206.551787 99.7304447,189.236253 L99.7303,188.169684 C99.7430334,177.983109 100.156967,171.695267 100.1697,171.485405 L100.17,171.480027 L100.18,171.480027 C100.214667,170.934027 100.624889,170.508205 101.143772,170.430398 L101.265321,170.418724 Z M139.46,163.890027 C139.48,163.960027 166.64,228.420027 166.65,301.350027 C166.65,311.690027 166.1,322.210027 164.85,332.740027 C164.78,333.370027 164.21,333.810027 163.58,333.740027 C162.96,333.660027 162.51,333.100027 162.58,332.470027 C163.82,322.040027 164.37,311.610027 164.37,301.350027 C164.37,231.230027 138.99,168.720027 137.43,164.950027 C137.38,164.830027 137.35,164.770027 137.35,164.770027 C137.11,164.190027 137.38,163.520027 137.96,163.280027 C138.54,163.030027 139.21,163.310027 139.46,163.890027 Z M166.29,156.050027 C166.33,156.100027 175.26,167.470027 184.2,186.280027 C193.14,205.090027 202.090015,231.360027 202.090015,261.210027 C202.1,283.130027 197.26,306.980027 184.04,331.140027 C183.74,331.690027 183.05,331.900027 182.49,331.590027 C181.94,331.290027 181.74,330.600027 182.04,330.040027 C195.06,306.230027 199.81,282.790027 199.81,261.210027 C199.81,232.740027 191.53,207.490027 182.97,189.020027 C174.5055,170.744627 165.776373,159.124106 164.622635,157.622432 L164.59,157.580027 L164.5,157.460027 C164.11,156.970027 164.19,156.250027 164.69,155.860027 C165.18,155.470027 165.9,155.550027 166.29,156.050027 Z M186.43,152.770027 C186.49,152.810027 198.17,161.570027 209.86,177.510027 C221.55,193.450027 233.28,216.610027 233.28,245.410027 C233.28,247.620027 233.21,249.870027 233.07,252.140027 C231.14,282.700027 225.27,300.660027 219.82,311.030027 C214.36,321.390027 209.3,324.160027 209.1,324.260027 C208.54,324.550027 207.85,324.340027 207.56,323.780027 C207.28,323.257361 207.452978,322.621449 207.932587,322.303204 L208.04,322.240027 L208.03,322.240027 L208.06,322.230027 L208.18,322.150027 C208.3,322.080027 208.49,321.950027 208.74,321.770027 C209.23,321.400027 209.96,320.800027 210.86,319.890027 C212.67,318.060027 215.16,314.960027 217.8,309.960027 C223.06,299.960027 228.87,282.330027 230.79,252.000027 C230.93,249.770027 231,247.570027 231,245.410027 C231,218.130027 220.23,195.980027 209.1,180.350027 C198.0813,164.896127 186.719565,155.871683 185.232043,154.722441 L185.19,154.690027 L185.06,154.590027 C184.56,154.220027 184.46,153.500027 184.84,153.000027 C185.21,152.490027 185.93,152.390027 186.43,152.770027 Z" id="Texture" fill="#9B2728"></path>
            <path d="M202.2,230.090027 C183.2388,282.760027 159.613936,288.446363 155.955309,289.019089 L155.745264,289.049621 C155.594237,289.06974 155.503766,289.077443 155.477804,289.079452 L155.47,289.080027 L154.17,280.890027 L134.28,284.040027 L134.7,292.370027 L131.82,293.130027 C98.47,298.410027 65.74,256.510027 65.74,256.510027 C78.3988,259.128027 97.621003,259.457433 105.793566,259.470468 L106.975287,259.470214 C108.515668,259.46701 109.472852,259.453379 109.657297,259.450545 L109.69,259.450027 L112.07,272.560027 L132.46,268.740027 L131.13,258.450027 L150.34,254.800027 L152.44,266.170027 L173.29,259.570027 L172.17,246.850027 L202.2,230.090027 Z M57.5,191.240027 L119.25,221.350027 L62.93,231.170027 L57.5,191.240027 Z M187.13,172.800027 L196.22,211.250027 L138.02,218.670027 L187.13,172.800027 Z" id="Face" fill="#15132A"></path>
        </g>
        <g id="Group" transform="translate(186.000000, 265.023500)">
            <path d="M292.33556,4.88112012 C294.967594,2.6010926 298.206716,1.6435681 301.339449,1.85444228 L301.687056,1.88267314 L301.862494,1.9021323 L302.221356,1.92267684 C304.268492,2.07554664 306.050196,2.67655341 307.727643,3.55734767 L308.085559,3.75031041 L308.398998,3.92739068 C309.648833,4.64823989 310.786136,5.50434754 311.906396,6.49825293 C313.530003,7.93873179 315.174933,9.73471168 316.741972,11.7148632 C320.405731,16.3444852 323.090093,20.949158 323.758516,25.4318697 C324.631851,31.4054795 324.700078,40.378589 323.161465,45.736544 L323.018494,46.2071323 L323.149583,46.4543168 C323.357644,46.8570152 323.545615,47.2747235 323.711804,47.706603 L323.870669,48.143175 L324.102646,48.8707151 L324.41941,49.915369 C324.744268,51.0036026 325.069132,52.1405762 325.375969,53.2834883 C325.538991,53.890714 325.69306,54.4856065 325.836828,55.0657518 L326.084673,56.087704 C326.436934,57.5771034 326.700596,58.8782364 326.864492,60.093886 L326.915413,60.4960775 L326.943494,60.7531323 L327.172241,61.1261837 L327.556364,61.7303652 L328.170072,62.661263 L328.912477,63.7554163 L329.562036,64.6963122 L332.200714,68.4889589 L332.889615,69.4977022 L333.483911,70.3860613 L334.006246,71.189552 L334.247504,71.5705704 L334.704352,72.3133508 L335.035674,72.8710671 C335.3605,73.4275948 335.705038,74.0613286 336.061903,74.7552606 L336.495587,75.6157856 C336.861134,76.3551549 337.236056,77.1479191 337.612969,77.9770704 L338.065749,78.9884292 L338.517606,80.0281884 L338.965705,81.089817 L339.407211,82.166784 C339.480089,82.3471938 339.552573,82.5279707 339.624606,82.7089784 L340.050906,83.7967071 L340.463526,84.8834466 L340.85963,85.9626656 C340.924113,86.1415459 340.98779,86.3198408 341.050602,86.4974141 L341.416616,87.5531068 C342.512629,90.7818277 343.274225,93.6326599 343.615975,96.1560149 C343.914036,98.3567891 343.936194,100.384363 343.440515,102.590175 C342.279904,107.754995 338.415692,112.293031 332.07422,113.092875 L331.851479,113.119159 L331.629349,113.141771 L331.199494,113.174132 L329.990048,113.445707 C321.447384,115.343009 312.650556,116.88988 304.670631,117.59585 L303.536314,117.690929 L302.413806,117.77425 C297.010451,118.148541 291.114374,117.206634 284.608987,115.280714 C280.978348,114.205863 277.228599,112.838829 273.40603,111.242489 L272.523494,110.869132 L272.509037,110.913735 C271.47414,113.979234 270.381168,117.017089 269.233319,119.982566 L268.654837,121.459066 L268.067297,122.92226 C264.470382,131.768925 260.695679,139.057793 256.518623,144.494446 C255.32439,146.047297 253.740472,147.655448 251.799319,149.31075 L251.139081,149.864252 C250.914622,150.049328 250.685796,150.234974 250.452649,150.42118 L249.740289,150.981467 C249.619417,151.075124 249.497475,151.168919 249.37447,151.262849 L248.623719,151.828048 L247.847708,152.396437 L247.046704,152.967951 L246.220974,153.542521 L245.370786,154.12008 C245.227064,154.216586 245.082335,154.313213 244.936603,154.409961 L244.050227,154.991879 L243.140059,155.57662 L242.206368,156.164115 L241.24942,156.754298 C241.088005,156.852882 240.925632,156.951576 240.762307,157.050377 L239.770974,157.644466 C239.603862,157.743693 239.435809,157.843025 239.26682,157.94246 L238.241703,158.540305 C238.068993,158.640149 237.89536,158.740094 237.720807,158.840138 L236.662507,159.441587 L235.582418,160.045355 L234.480809,160.651374 L233.357946,161.259579 L232.214095,161.869901 L231.049525,162.482274 L229.864502,163.09663 L228.659294,163.712903 L227.434166,164.331026 L225.559712,165.261531 L224.285957,165.883984 L222.339812,166.82067 L220.351855,167.760763 L219.003766,168.389272 L216.948125,169.33454 L215.555747,169.966291 L214.146122,170.599219 L212.719516,171.23326 L210.548353,172.186259 L208.340484,173.141381 L206.848625,173.779198 L204.643971,174.710883 L203.193327,175.316544 L201.745493,175.915158 L199.580343,176.799369 L197.424947,177.666445 L195.281366,178.515621 L193.859894,179.071413 L191.740585,179.889048 C191.506029,179.978802 191.271795,180.068187 191.037893,180.157198 L189.638586,180.686736 L187.55596,181.463709 L185.494767,182.219201 L183.457068,182.952445 L182.112671,183.428535 L180.780243,183.894169 L178.805377,184.572516 C178.587596,184.646524 178.370378,184.720073 178.153734,184.793157 L176.219811,185.43826 L174.319,186.057534 L172.453361,186.650213 L171.23016,187.030179 L170.024117,187.397755 L168.835844,187.752716 L167.665952,188.094834 L166.51505,188.423882 L165.383749,188.739631 L164.272661,189.041856 L163.182395,189.330329 L162.113563,189.604822 L161.066774,189.865108 L160.042641,190.11096 L159.041773,190.342151 L158.06478,190.558453 L157.112275,190.759639 L156.184866,190.945482 L155.283166,191.115754 L154.407784,191.270228 L153.559332,191.408677 C152.307155,191.604217 151.147926,191.744906 150.090918,191.82729 C141.680142,192.483242 132.15743,189.94191 121.42548,184.986379 L120.105313,184.367567 C117.89494,183.31628 115.634038,182.165775 113.32178,180.922708 L111.928255,180.165813 C111.694972,180.03783 111.461173,179.908936 111.226859,179.779135 L109.814772,178.989517 C109.342007,178.722724 108.867172,178.452361 108.39026,178.178482 C106.087732,176.8562 103.807291,175.487117 101.563799,174.088204 L99.8883396,173.033691 L98.6274936,172.227132 L98.4119465,172.643143 C97.0921159,175.170077 95.7577779,177.660523 94.4220611,180.079069 L93.6205705,181.521285 L92.8193792,182.944545 C89.5194216,188.777052 83.6438004,194.223332 75.5546246,199.867605 L74.384009,200.67534 L73.1835116,201.486147 L71.953367,202.300404 L70.6938098,203.118491 C70.4814456,203.255179 70.2678657,203.392043 70.0530748,203.529089 C66.4570406,205.823526 62.7292559,208.016971 59.0259846,210.064184 L57.4564976,210.924003 L56.475297,211.453281 L55.5496421,211.946346 L54.5194936,212.486132 L54.3219737,212.638448 C50.9363448,215.180308 46.4590664,216.000343 42.1998767,214.591479 L41.8454771,214.468903 L41.5414654,214.355122 C38.8135063,213.297877 37.01422,211.789433 35.2518036,209.796629 C34.5425314,208.994638 33.8828282,208.139668 33.2373099,207.219345 C32.6315749,206.355742 32.0671719,205.475313 31.5412418,204.599963 L31.1720186,203.975297 L30.8097616,203.336588 C30.422739,202.63359 30.1044938,201.895286 29.8592335,201.131973 L29.6782005,200.518078 L28.9387946,197.843267 L28.5000887,196.241117 L27.6334609,193.041078 L27.0493927,190.852533 L26.1373519,187.360387 L25.8084002,186.066942 L25.4194648,184.498406 L25.0884487,183.109756 L24.8789554,182.187323 L24.6786507,181.250862 L24.5829407,180.836514 L24.4556488,180.329995 L24.1121424,179.058394 L23.6597779,177.471961 L23.0099725,175.271106 L22.3617029,173.125699 L20.9946695,168.695934 L19.3117758,163.352361 L18.4235068,160.567339 L17.1905566,156.737036 C16.9498195,155.995315 16.7821369,155.247014 16.6836301,154.500029 L16.6327961,154.052058 L16.6084936,153.762132 L16.5728919,153.738106 C13.8166342,151.831068 11.558058,149.949607 9.77091964,147.936429 L9.41977003,147.53199 L9.11815333,147.169314 C5.59289265,142.84128 2.87206777,135.153616 1.55114805,127.636854 C0.853757027,123.668315 0.614278363,120.011791 1.0208454,116.763616 C1.35998722,114.054119 2.12529936,111.551214 3.6868239,109.182599 C6.27648173,105.254449 10.5877262,102.727089 15.5751283,102.722137 C18.0198577,102.719229 20.345279,103.229901 22.4269656,104.193837 L22.8400163,104.39265 L22.8854936,104.416132 L69.582961,107.459597 C70.9125679,107.546253 72.2178375,107.844801 73.4498571,108.342233 L73.8577502,108.515391 L74.2598149,108.703175 L75.7734936,109.443132 L76.0611051,108.261381 C76.6762799,105.77705 77.3477706,103.299613 78.0781253,100.859916 L78.5234221,99.4008736 L78.9829686,97.9523688 L79.407891,96.6602814 C83.7582165,83.6512309 89.0544267,74.5280644 97.33744,69.9441987 L97.7320354,69.7288819 L98.3884275,69.3815413 L99.1203815,69.0057368 L100.210289,68.4618935 L101.425956,67.8710634 L103.114928,67.069598 L104.983178,66.2019791 L106.600428,65.4629652 L109.219242,64.2844219 L112.054885,63.0280498 L115.090824,61.700822 L118.310527,60.3097112 L121.697463,58.8616904 L125.838193,57.1097075 L130.157787,55.3008274 L133.338179,53.9800688 L140.561969,51.0119885 L145.965084,48.8191115 L149.996826,47.1974208 L153.443128,45.8210611 L157.910279,44.0508056 L162.697317,42.1723782 L166.427526,40.7230729 L170.950315,38.9844649 L173.582162,37.9830929 L176.987453,36.7000103 L180.265306,35.4799274 L183.406151,34.32664 L185.666118,33.5077927 L187.124966,32.9847453 L190.386837,31.8326569 L193.095582,30.8919666 L194.614612,30.372807 L196.522851,29.7326591 L197.870422,29.2911396 L198.730807,29.014974 L199.966814,28.6277354 L201.140245,28.2725949 L201.889383,28.0534925 L202.965792,27.7510645 L203.653279,27.5667771 L204.641755,27.3160814 L205.27365,27.1659554 L205.885004,27.0293111 C206.085473,26.9859982 206.28268,26.944915 206.476787,26.9060437 L207.049969,26.7960489 C207.144003,26.7788167 207.237302,26.7621331 207.329887,26.745996 L207.876984,26.6557139 L208.407903,26.5784428 L208.923614,26.5140783 L209.425086,26.4625157 L209.913289,26.4236506 C209.993604,26.4182254 210.073407,26.4133249 210.152718,26.4089469 L210.622834,26.3889318 C210.777678,26.3843386 210.930714,26.381818 211.082105,26.3813528 L211.531499,26.3861052 C211.753889,26.3915468 211.972939,26.4015735 212.189194,26.4161265 L212.618139,26.4512501 C212.83091,26.471812 213.04125,26.4968609 213.249704,26.5263381 C217.492435,27.1264748 221.811512,28.9942656 226.891614,31.9042142 C228.353172,32.7414138 229.853604,33.6572398 231.385793,34.640163 C233.363936,35.9091734 235.320407,37.2408718 237.206206,38.5824876 L238.611964,39.5936572 L239.874053,40.5205546 L240.860733,41.2611164 L241.309604,41.6051038 L241.638316,41.8668969 L241.954749,42.1338959 L242.054494,42.2221323 L242.093481,42.2503488 C243.068263,42.9612008 244.06355,43.7066078 245.080748,44.4866015 L245.847777,45.0780823 L246.623154,45.6825362 L247.280012,46.1996736 L247.950764,46.7323453 L248.622164,47.2699828 L248.965494,47.5481323 L249.04035,47.4107465 C252.319482,41.3997445 256.612752,35.9727997 261.752548,31.3805159 L262.349349,30.8543554 L262.785494,30.4781323 L292.33556,4.88112012 Z" id="Sticker" fill="#FFFFFF" fill-rule="nonzero"></path>
            <g id="Candy" transform="translate(13.324494, 14.329132)">
                <path d="M71.5955064,113.499 L51.1855064,106.771 L0.655506416,105.432 C0.655506416,105.432 4.90550642,118.311 8.97550642,122.616 C13.0355064,126.922 22.4645064,136.148 22.4645064,136.148 L22.3055064,138.725 L15.7555064,138.549 L29.0055064,179.534 L33.8055064,187.899 C33.8055064,187.899 62.2255064,173.754 68.6155064,162.46 C75.0155064,151.166 80.5455064,139.462 80.5455064,139.462 C80.5455064,139.462 116.535506,166.538 135.794506,165.036 C155.065506,163.534 222.965506,135.964 233.285506,122.545 C243.595506,109.126 251.505506,78.928 251.505506,78.928 C251.505506,78.928 274.525506,91.924 288.225506,90.975 C298.734506,90.247 311.085506,87.587 316.285506,86.386 C317.565506,86.09 318.225506,84.677 317.645506,83.497 L301.595506,50.897 L298.725506,37.879 L293.125506,40.006 L294.025506,33.803 L295.755506,24.543 L286.674506,2.228 L247.905506,37.727 L240.875506,54.288 C240.875506,54.288 218.095506,32.923 208.285506,30.676 C198.475506,28.428 105.775506,64.164 105.775506,64.164 L84.2555064,89.521 L71.5955064,113.499" id="Fill-853" fill="#59B148"></path>
                <path d="M71.5955064,113.499 C71.5955064,113.499 77.1455064,73.702 90.0655064,66.552 C102.985506,59.402 190.975506,23.556 198.174506,24.574 C205.385506,25.594 220.335506,37.162 220.335506,37.162 L210.505506,33.843 L211.265506,44.012 L191.964506,34.363 L194.775506,45.238 L163.745506,43.035 L163.615506,56.762 L137.535506,55.307 L145.115506,68.434 L118.884506,65.587 L109.445506,84.455 L99.7855064,74.591 L71.5955064,113.499" id="Haur" fill="#16101C"></path>
                <path d="M221.095506,66.417 C223.005506,67.92 224.785506,69.541 226.525506,71.204 C227.32307,71.9587228 228.106094,72.7275698 228.879311,73.5054291 L229.315506,72.802 L229.315506,72.802 L232.175506,68.207 C231.148188,70.0439156 230.131091,71.8907117 229.096372,73.7280977 C229.9466,74.5834509 230.783565,75.4509673 231.615506,76.322 C233.245506,78.083 234.865506,79.859 236.415506,81.704 C237.965506,83.542 239.475506,85.422 240.865506,87.421 C238.945506,85.919 237.165506,84.299 235.425506,82.636 C233.675506,80.981 232.005506,79.256 230.345506,77.516 C229.639421,76.7569579 228.937042,75.9956915 228.24316,75.227492 C227.784793,76.0346297 227.318789,76.8385643 226.845506,77.638 L223.925506,82.198 C222.924506,83.709 222.015506,85.275 220.905506,86.708 L217.685506,91.074 C216.645506,92.558 215.465506,93.934 214.295506,95.318 L213.95571,95.724952 C214.286398,96.4515458 214.612457,97.1799218 214.935506,97.909 C215.925506,100.225 216.905506,102.549 217.785506,104.914 C218.675506,107.275 219.505506,109.66 220.185506,112.115 C218.845506,109.95 217.665506,107.716 216.535506,105.458 C215.405506,103.203 214.355506,100.908 213.335506,98.605 C213.133387,98.1319597 212.932102,97.6586276 212.732246,97.1847144 L210.805506,99.484 L205.195506,105.401 C204.555506,106.046 203.875506,106.641 203.214506,107.264 L199.195506,110.937 C198.072404,111.863559 196.929995,112.767595 195.794093,113.6775 C196.057176,114.281488 196.31251,114.886835 196.565506,115.493 C197.285506,117.279 197.975506,119.072 198.574506,120.905 C199.185506,122.733 199.734506,124.584 200.125506,126.501 C199.065506,124.859 198.165506,123.151 197.315506,121.419 C196.464506,119.692 195.695506,117.926 194.955506,116.153 C194.774084,115.696122 194.593967,115.238918 194.416324,114.780803 L194.955506,114.352 C194.235506,114.913 193.544506,115.499 192.815506,116.041 L190.585506,117.604 L188.355506,119.165 L187.995897,119.416937 C188.682933,120.858528 189.341317,122.312296 189.995506,123.769 C190.965506,126.031 191.915506,128.303 192.785506,130.615 C193.655506,132.923 194.465506,135.255 195.125506,137.657 C193.805506,135.546 192.645506,133.365 191.535506,131.16 C190.425506,128.959 189.395506,126.718 188.395506,124.468 C187.806023,123.092134 187.220233,121.713683 186.658336,120.324791 C186.471159,120.446104 186.280154,120.562632 186.085506,120.674 L181.425506,123.505 C179.855506,124.426 178.215506,125.214 176.615506,126.074 C175.025506,126.958 173.355506,127.686 171.695506,128.419 C167.423616,130.31437 163.027927,131.920256 158.548202,133.236526 C158.812571,134.212651 159.069789,135.191525 159.325506,136.171 C159.945506,138.707 160.544506,141.248 161.045506,143.815 C161.565506,146.378 162.015506,148.957 162.305506,151.577 C161.315506,149.134 160.495506,146.648 159.735506,144.147 C158.964506,141.648 158.285506,139.125 157.635506,136.596 C157.399459,135.630491 157.166311,134.664112 156.940477,133.695815 C151.487569,135.207006 145.917744,136.293127 140.302238,136.953512 C140.452729,137.667365 140.599512,138.383064 140.745506,139.099 C141.225506,141.655 141.675506,144.216 142.035506,146.795 C142.405506,149.373 142.715506,151.963 142.855506,154.585 C142.004506,152.101 141.325506,149.583 140.705506,147.054 C140.074506,144.527 139.544506,141.981 139.035506,139.43 C138.892131,138.666229 138.750541,137.902191 138.612867,137.137459 C135.548847,137.452543 132.472177,137.639528 129.395506,137.7 C122.135506,137.851 114.875506,137.353 107.725506,136.215 C107.16552,136.127473 106.606271,136.034926 106.04776,135.93768 L105.625506,135.054 C106.855506,137.615 108.075506,140.186 109.195506,142.801 C110.325506,145.411 111.395506,148.049 112.315506,150.763 C110.745506,148.367 109.335506,145.896 107.975506,143.397 C106.605506,140.904 105.325506,138.364 104.065506,135.817 L103.935678,135.547488 C101.64647,135.100864 99.3697463,134.581608 97.1055064,134.012 C93.6055064,133.118 90.1355064,132.084 86.7855064,130.745 C92.2594047,132.543795 97.8801753,133.852164 103.561069,134.762469 L104.065506,135.817 C102.835506,133.255 101.625506,130.684 100.505506,128.069 C99.3755064,125.458 98.2955064,122.821 97.3755064,120.109 C98.9455064,122.505 100.355506,124.977 101.715506,127.475 C103.085506,129.969 104.365506,132.507 105.625506,135.054 L105.636898,135.07719 C106.375663,135.182904 107.115262,135.282107 107.855506,135.375 C114.975506,136.332 122.185506,136.678 129.355506,136.366 C132.361754,136.229543 135.364476,136.001417 138.35479,135.666224 C138.128562,134.35867 137.919039,133.048804 137.735506,131.734 C137.365506,129.155 137.055506,126.566 136.915506,123.945 C137.765506,126.429 138.445506,128.947 139.065506,131.476 C139.396329,132.80244 139.699576,134.13467 139.988281,135.470085 C143.568478,135.022887 147.129751,134.415288 150.655506,133.623 C152.645333,133.18148 154.620574,132.677158 156.578921,132.114255 C156.344668,131.062848 156.121593,130.009048 155.915506,128.951 C155.395506,126.388 154.945506,123.81 154.655506,121.19 C155.645506,123.634 156.465506,126.12 157.225506,128.621 C157.53636,129.629458 157.830916,130.642153 158.115096,131.657639 C162.502827,130.324186 166.801639,128.697606 170.985506,126.828 L173.445506,125.749 C174.275506,125.404 175.045506,124.947 175.845506,124.553 C177.425506,123.717 179.055506,122.953 180.605506,122.058 L185.214506,119.302 C185.500584,119.141196 185.778344,118.968852 186.051913,118.790081 C185.899174,118.400941 185.750911,118.011071 185.605506,117.62 C184.734506,115.313 183.915506,112.981 183.265506,110.579 C184.585506,112.692 185.745506,114.872 186.845506,117.077 L187.280245,117.951455 C187.338556,117.911225 187.396962,117.871056 187.455506,117.831 L189.675506,116.307 L191.885506,114.782 C192.549416,114.294211 193.187817,113.769011 193.839912,113.258928 C193.53004,112.426766 193.233138,111.587165 192.955506,110.739 C192.345506,108.911 191.795506,107.061 191.395506,105.144 C192.455506,106.787 193.365506,108.496 194.205506,110.227 C194.53393,110.88652 194.847769,111.551727 195.15148,112.22084 L198.215506,109.79 L202.215506,106.196 C202.884506,105.594 203.575506,105.021 204.215506,104.396 L206.115506,102.487 L209.905506,98.661 L212.23669,96.0003896 C211.632476,94.5437654 211.046359,93.0794154 210.495506,91.599 C209.605506,89.238 208.765506,86.853 208.085506,84.4 C209.424506,86.565 210.605506,88.799 211.734506,91.058 C212.325396,92.2356 212.894177,93.4243911 213.448121,94.6195247 L213.455506,94.609 C215.905506,91.97 217.975506,89.021 220.215506,86.205 C220.872649,85.413 221.471017,84.5769184 222.057256,83.7316472 L222.933349,82.4612099 C223.079792,82.2497755 223.226935,82.0388571 223.375506,81.829 L226.455506,77.391 C226.989563,76.5899154 227.495098,75.7714326 227.996482,74.9498699 C227.162024,74.0249603 226.343037,73.0880011 225.545506,72.132 C223.985506,70.294 222.475506,68.414 221.095506,66.417 Z" id="Smile" fill="#16101C"></path>
                <g id="Left-eye" transform="translate(120.196550, 84.659558)">
                    <path d="M35.2589563,14.6384424 C39.1689563,25.5654424 34.7789563,37.1374424 25.4289563,40.4844424 C16.0889563,43.8304424 5.34895627,37.6864424 1.42895627,26.7584424 C-2.48204373,15.8314424 1.90895627,4.25944244 11.2589563,0.912442439 C20.5989563,-2.43355756 31.3389563,3.71044244 35.2589563,14.6384424" id="Fill-863" fill="#FFFFFE"></path>
                    <path d="M28.4289563,13.6644424 C29.7189563,17.2784424 28.4089563,21.0514424 25.5089563,22.0934424 C22.5989563,23.1354424 19.1889563,21.0514424 17.8989563,17.4384424 C16.5989563,13.8254424 17.9089563,10.0514424 20.8189563,9.00944244 C23.7289563,7.96744244 27.1289563,10.0514424 28.4289563,13.6644424" id="Fill-865" fill="#16101C"></path>
                </g>
                <g id="Right-eye" transform="translate(165.937619, 66.399666)">
                    <path d="M33.6578872,14.3823335 C37.4778872,25.0463335 33.3578872,36.2743335 24.4578872,39.4633335 C15.5578872,42.6533335 5.2478872,36.5933335 1.4278872,25.9313335 C-2.3931128,15.2683335 1.7178872,4.03933354 10.6178872,0.85033354 C19.5178872,-2.33866646 29.8378872,3.71933354 33.6578872,14.3823335" id="Fill-864" fill="#FFFFFE"></path>
                    <path d="M17.0678872,18.3443335 C18.3378872,21.8693335 17.2878872,25.4693335 14.7278872,26.3843335 C12.1778872,27.3003335 9.0778872,25.1853335 7.8178872,21.6603335 C6.5478872,18.1353335 7.5978872,14.5363335 10.1568872,13.6203335 C12.7078872,12.7043335 15.8078872,14.8193335 17.0678872,18.3443335" id="Fill-866" fill="#16101C"></path>
                </g>
                <path d="M71.5955064,113.499 L70.6855064,115.986 L49.3855064,107.776 C49.3855064,107.776 13.4555064,112.009 5.21450642,108.117 L2.72550642,102.169 L55.4455064,105.604 L71.5955064,113.499 M287.195506,0 L287.271156,0.164301832 C287.395742,0.106985046 287.53664,0.0714576834 287.695506,0.061 C290.165506,-0.101 297.555506,9.491 298.065506,12.911 C298.565506,16.331 298.875506,25.224 297.765506,28.144 C297.305506,29.3432857 296.417043,31.5469292 295.529665,33.7276193 L295.298482,34.2952989 C294.107082,37.2186397 292.985506,39.938 292.985506,39.938 C292.985506,39.938 292.085506,33.417 294.365506,29.721 C296.586384,26.1198664 287.573343,7.40797339 287.104418,6.43996421 L252.275506,36.878 L240.875506,54.288 L243.225506,47.092 C245.955506,38.732 250.945506,31.292 257.645506,25.598 L287.195506,0 Z" id="Light" fill="#88DA78"></path>
                <path d="M298.725506,37.879 C298.725506,37.879 301.385506,46.291 301.225506,48.867 C301.132875,50.3595263 303.460243,53.881903 305.977959,57.5079739 L306.437326,58.1679734 C306.514072,58.2780208 306.590868,58.3880562 306.667653,58.4980261 L307.127729,59.1566296 C308.581062,61.237 309.985506,63.255 310.915506,64.843 C313.695506,69.606 320.285506,85.971 317.185506,86.362 C314.085506,86.753 307.295506,75.861 302.655506,64.919 C299.163548,56.6858041 298.701682,45.5301255 298.686901,40.5138094 L298.68664,40.1155206 C298.688984,38.7071858 298.725506,37.879 298.725506,37.879 Z M298.725506,37.879 L293.715506,43.995 L292.985506,39.938 L298.725506,37.879 Z M15.7555064,138.549 C15.7555064,138.549 19.0465992,143.718366 22.5810333,149.44444 L23.0238845,150.162765 L23.4679477,150.884888 C23.7640999,151.367123 24.0601782,151.850555 24.3544189,152.332515 L24.7941812,153.054016 C27.786793,157.972165 30.4936882,162.595364 31.0155064,164.049 C32.2755064,167.56 35.0255064,185.297 33.8055064,187.899 C32.5755064,190.499 28.4355064,182.979 28.4355064,182.979 C28.4355064,182.979 27.2100996,178.592107 25.9688981,173.927939 L25.8104542,173.331323 L25.8104542,173.331323 L25.57369,172.434908 L25.57369,172.434908 L25.3930772,171.746668 C24.6451341,168.887903 23.962312,166.165903 23.6255064,164.535 C22.6655064,159.839 15.7555064,138.549 15.7555064,138.549 Z M58.3255064,128.699 C62.7355064,130.784364 61.1561676,132.829636 58.8471668,134.247518 L58.5972214,134.397006 L58.3431294,134.541532 C57.1499279,135.204161 55.8682337,135.699455 55.1555064,135.954 C54.1074064,136.33 47.0905884,136.952716 39.9471726,137.507177 L38.5792564,137.612434 C31.7471314,138.133729 25.1407939,138.574024 23.8878477,138.65687 L23.7529621,138.665774 C23.718875,138.66802 23.6958126,138.669535 23.6842251,138.670296 L23.6755064,138.670868 C22.6376938,139.042277 20.1361667,139.016698 16.1709252,138.59413 L15.7555064,138.549 L22.4645064,136.148 C24.1412185,137.304799 24.6440357,138.098654 23.9729581,138.529567 L23.6755064,138.670868 C42.1488397,129.838956 53.6988397,126.515 58.3255064,128.699 Z M2.26550642,100.892989 C7.30550642,100.887 5.21450642,108.117 5.21450642,108.117 C5.21450642,108.117 5.22069785,108.138988 5.23277455,108.18143 L5.26468425,108.29313 C5.33064302,108.523234 5.4597256,108.969235 5.64059206,109.5743 L5.76388527,109.984624 C6.95741774,113.936531 9.86480219,122.989197 12.1655064,125.513 C13.1879654,126.634262 14.727038,128.243931 16.3058447,129.872839 L16.7576016,130.338359 L17.2090492,130.802495 C19.6115509,133.269869 21.8953985,135.574409 22.3732597,136.056068 L22.4412828,136.124612 C22.4566279,136.140069 22.4645064,136.148 22.4645064,136.148 C22.4645064,136.148 22.4440648,136.13793 22.4045578,136.118292 L22.2302177,136.031183 C20.4507938,135.138271 9.04076957,129.310868 5.48550642,124.946 C1.62550642,120.207 -2.77449358,100.898 2.26550642,100.892989 Z" id="Shadow" fill="#16101C"></path>
                <path d="M65.9855064,140.083 C65.9855064,140.084 65.9255064,140.313 65.7955064,140.73 C65.3455064,142.193 64.1455064,145.946 62.5255064,150.028 C60.9155064,154.108 58.8755064,158.525 56.7755064,161.274 C54.3855064,164.412 51.4755064,166.07 49.1555064,166.947 C47.9955064,167.385 46.9755064,167.626 46.2655064,167.758 C45.9055064,167.824 45.6155064,167.862 45.4255064,167.884 C45.3255064,167.894 45.2555064,167.901 45.2055064,167.905 L45.1355064,167.91 C44.8955064,167.923 44.7155064,168.128 44.7255064,168.368 C44.7355064,168.608 44.9455064,168.793 45.1855064,168.78 C45.2355064,168.775 52.4455064,168.396 57.4655064,161.801 C59.9755064,158.508 62.2955064,153.159 64.0055064,148.612 C65.7255064,144.068 66.8255064,140.336 66.8255064,140.329 C66.8955064,140.099 66.7555064,139.856 66.5255064,139.789 C66.2955064,139.721 66.0555064,139.853 65.9855064,140.083 M266.105506,57.117 C266.105506,57.117 266.045506,57.194 265.945506,57.336 C265.585506,57.833 264.625506,59.093 263.435506,60.21 C262.255506,61.336 260.835506,62.277 259.715506,62.26 C259.025506,62.251 258.405506,61.973 257.795506,61.076 C257.715506,60.948 257.675506,60.822 257.675506,60.655 C257.655506,60.202 258.065506,59.422 258.885506,58.528 C260.315506,56.954 262.905506,55 266.035506,52.989 C270.735506,49.969 276.645506,46.797 281.775506,44.386 C284.345506,43.18 286.715506,42.165 288.625506,41.453 C289.585506,41.098 290.435506,40.819 291.125506,40.63 C291.815506,40.441 292.365506,40.347 292.695506,40.348 L292.895506,40.365 C293.135506,40.412 293.365506,40.258 293.415506,40.022 C293.455506,39.786 293.305506,39.557 293.065506,39.51 C292.945506,39.487 292.825506,39.477 292.695506,39.477 C291.984506,39.482 290.964506,39.736 289.645506,40.172 C285.035506,41.704 276.895506,45.56 269.875506,49.631 C266.365506,51.667 263.135506,53.753 260.775506,55.639 C259.585506,56.582 258.615506,57.474 257.925506,58.301 C257.245506,59.129 256.815506,59.887 256.805506,60.655 C256.805506,60.973 256.895506,61.29 257.074506,61.56 C257.785506,62.64 258.735506,63.14 259.715506,63.1311193 C260.615506,63.128 261.485506,62.753 262.305506,62.229 C264.745506,60.65 266.795506,57.63 266.815506,57.61 C266.955506,57.412 266.905506,57.141 266.705506,57.005 C266.505506,56.869 266.235506,56.919 266.105506,57.117 M260.865506,70.025 C260.875506,70.035 264.115506,73.028 268.635506,76.03 C273.155506,79.028 278.945506,82.056 284.155506,82.066 C294.234506,82.055 294.234506,82.055 294.234506,82.055 C294.475506,82.055 294.675506,81.86 294.675506,81.619 C294.675506,81.379 294.475506,81.184 294.234506,81.184 C294.234506,81.184 294.234506,81.184 284.155506,81.195 C279.285506,81.204 273.565506,78.27 269.115506,75.305 C266.885506,73.825 264.965506,72.342 263.605506,71.231 C262.925506,70.676 262.385506,70.213 262.025506,69.89 C261.655506,69.567 261.455506,69.386 261.455506,69.385 C261.275506,69.222 261.005506,69.233 260.835506,69.41 C260.675506,69.587 260.685506,69.862 260.865506,70.025" id="Texture" fill="#16101C"></path>
            </g>
        </g>
        <g id="Group" transform="translate(216.960000, 0.773000)">
            <g id="Halloween/Creatures/Eye-Copy" transform="translate(117.500000, 79.500000) scale(-1, 1) translate(-117.500000, -79.500000) ">
                <path d="M57.6987391,147.533796 L58.1253227,147.928517 C65.3483272,154.402722 76.9928664,150.464868 78.7370173,140.844718 L78.8703517,140.083955 L78.9915635,139.460082 L79.1344329,138.777745 C79.1600423,138.659585 79.1865489,138.539316 79.2139501,138.417101 C79.600311,136.693846 80.0744194,134.983257 80.6124579,133.474438 L80.7304266,133.149837 C80.9664696,132.51265 81.2025078,131.948589 81.4270434,131.476375 L81.524,131.276 L81.7677699,131.246259 C82.2145679,131.196027 82.7286043,131.166383 83.2903771,131.161337 C84.1406237,131.153699 85.0387852,131.202023 85.9239617,131.293366 L86.433776,131.350802 C86.5144825,131.360683 86.5929596,131.370682 86.6690597,131.38074 L87.0959584,131.441351 L87.458736,131.50067 L87.734697,131.551923 C92.6947077,132.437139 97.365,130.276289 100.056894,126.565274 L100.268,126.263 L100.688909,126.447127 C105.816018,128.658799 111.418708,129.891319 117.235837,129.963518 C117.460641,129.966429 117.691985,129.967589 117.923183,129.966914 L118.516196,129.960876 L119.132681,129.945045 C127.957367,129.657069 136.277048,126.747368 143.211448,121.682151 L143.752,121.279 L143.801157,121.247245 C146.405151,119.49441 148.711779,117.333857 150.630178,114.852972 L151.038,114.31 L151.086867,114.2534 C153.59318,111.21179 155.662163,107.857529 157.245115,104.280513 L157.352,104.032 L157.382019,104.017036 C158.660654,103.347461 159.848335,102.43913 160.879517,101.288724 L161.259435,100.853253 L161.474997,100.61988 L161.794633,100.285114 C162.454336,99.6051469 163.189446,98.9214055 163.942813,98.310165 L164.218049,98.0908645 C164.672682,97.7353178 165.105634,97.4302531 165.498842,97.1863362 L165.648,97.096 C166.620101,97.547022 167.818124,98.2556337 169.113386,99.1449491 C170.017114,99.7654413 170.914606,100.435737 171.768059,101.115351 L172.55893,101.757923 L173.097421,102.210367 L173.525278,102.582803 L173.575454,102.628154 C181.003299,109.40589 192.939629,105.076831 194.369178,95.2065974 L194.407781,94.9416731 L194.466225,94.6240121 C194.577274,94.058147 194.738563,93.3918245 194.956414,92.6546119 C195.5891,90.5135942 196.518594,88.3742314 197.754981,86.4511544 C198.830611,84.7781179 200.089506,83.3487969 201.544494,82.1933657 C202.264774,81.6220873 203.568077,81.1814645 205.505771,81.0243686 C208.127466,80.8118183 211.299759,81.1851584 214.481548,81.9681308 C215.245101,82.1560256 215.952411,82.3536289 216.585773,82.5491759 L217.091693,82.7099154 L217.581025,82.8755768 C227.277311,86.5694 236.941373,77.5360312 234.024785,67.6722931 L233.880351,67.2124383 L233.617308,66.4251249 L233.259618,65.3887479 L232.852924,64.2439899 L232.640149,63.65695 C229.85797,56.0325073 226.298668,47.8855968 221.968837,40.1378647 C215.408453,28.3988144 208.103763,19.3864397 199.406639,14.063073 C185.915892,5.80856462 170.982072,2.68798318 157.399775,2.50791868 L156.62123,2.50094143 L155.513048,2.50483688 L154.630574,2.52251465 L154.110048,2.54095742 L153.851611,2.55350311 C147.720172,2.89215817 142.759525,7.62946449 142.111782,13.7053116 L141.941011,15.5709958 L141.751084,17.4791981 L141.521591,19.6296857 L141.457912,20.2038057 C141.383254,20.8719202 141.305712,21.5490767 141.22525,22.2348544 L140.975069,24.3176299 L140.707151,26.4496065 L140.421278,28.6282584 L140.117233,30.8510596 C140.065033,31.2250653 140.012066,31.6008053 139.958328,31.978227 L139.626616,34.2625166 L139.276186,36.5846412 L139.230494,36.8487858 C138.722696,39.5056287 136.667728,42.7982201 133.698521,46.1108653 L133.284,46.565 L133.03382,46.4681896 C128.392987,44.7146401 123.435034,43.7617389 118.343483,43.6955367 C109.054579,43.5722322 100.137488,46.4243902 92.7217324,51.7254964 L92.2729964,52.0498711 C85.5954535,56.9421748 80.5042058,63.6176212 77.5477132,71.24987 L77.313,71.867 L76.6492125,71.7902339 C70.9626421,71.0812937 66.5202292,69.5211805 64.3694138,67.5401663 C62.8405983,66.1349034 61.355041,64.7482752 59.9164897,63.3861886 L58.2130311,61.7638428 C57.9329617,61.4955412 57.6548326,61.2283157 57.3786737,60.9622137 L55.7456024,59.379461 L54.1612551,57.825939 C53.9013375,57.5695805 53.64351,57.3145346 53.3878027,57.0608483 L51.8178886,55.4937302 L50.3256576,53.9843927 L48.5669258,52.1744023 L48.0731551,51.6564784 C43.8592508,47.1899824 37.0404693,46.4558267 31.9760936,49.8817308 L31.7064909,50.0692434 L31.2545471,50.3999939 L30.6892675,50.8282826 C30.6202074,50.8813851 30.5490711,50.936342 30.4758661,50.9931693 C29.7169102,51.5823284 28.8824081,52.2594849 27.9847071,53.0233752 C25.5112861,55.12811 22.9428108,57.5591712 20.3791249,60.3103909 C13.0143157,68.2139364 7.01890149,77.2651692 3.31880777,87.4757531 C0.588847337,95.0130691 -0.0278178885,103.818489 0.895637528,113.752817 C1.56791777,120.985058 3.04022217,128.548946 5.06978236,136.186162 C5.94904862,139.494833 6.88406057,142.629658 7.82745428,145.525374 L8.2609762,146.837808 L8.80644011,148.438588 L9.17882708,149.495099 L9.55440899,150.521223 C9.57588185,150.578381 9.59661529,150.633252 9.61659354,150.685811 C13.3038412,160.386322 26.4794687,161.598673 31.9073974,152.859698 L32.0808088,152.573957 L32.2528183,152.30395 L32.4137116,152.057613 L32.7754813,151.522467 C32.90479,151.335207 33.0427066,151.13944 33.1888983,150.936285 C34.2497517,149.462076 35.4674849,147.983789 36.7810635,146.643339 C39.7647338,143.598632 42.4867277,142.049621 44.1793692,142.044421 C47.4752379,142.031778 50.8063203,143.077705 53.9687892,144.899987 C55.1213156,145.564097 56.1501942,146.274285 57.0179385,146.964284 L57.3274615,147.215454 L57.6987391,147.533796 Z" id="Sticker" fill="#FFFFFF" fill-rule="nonzero"></path>
                <g id="Creature" transform="translate(13.000000, 15.000000)">
                    <path d="M73.9999669,69.6144802 C73.9999669,69.6144802 53.1609669,71.1844802 42.9009669,61.7344802 C32.6309669,52.2944802 25.9809669,45.2344802 25.9809669,45.2344802 C25.9809669,45.2344802 9.14096689,57.2244802 2.07096689,76.7344802 C-4.99903311,96.2544802 8.30096689,131.24448 8.30096689,131.24448 C8.30096689,131.24448 18.1209669,114.58448 31.1409669,114.54448 C44.1709669,114.49448 53.4409669,123.59448 53.4409669,123.59448 C53.4409669,123.59448 55.7099669,109.23448 61.2709669,105.72448 C66.8209669,102.21448 76.9209669,104.24448 76.9209669,104.24448 C76.9209669,104.24448 75.5609669,86.7144802 80.7499669,83.1644802 L73.9999669,69.6144802 M119.240967,49.0544802 C119.240967,49.0544802 136.500967,37.2744802 138.630967,23.4844802 C140.749967,9.70448015 141.540967,0.0344801512 141.540967,0.0344801512 C141.540967,0.0344801512 162.180967,-1.10551985 179.880967,9.72448015 C197.590967,20.5644802 209.030967,56.1944802 209.030967,56.1944802 C209.030967,56.1944802 190.970967,49.3144802 180.770967,57.4044802 C170.570967,65.5044802 169.000967,78.3944802 169.000967,78.3944802 C169.000967,78.3944802 158.260967,68.5944802 151.730967,69.3244802 C145.200967,70.0444802 138.580967,77.9344802 138.580967,77.9344802 C138.580967,77.9344802 128.700967,63.3944802 122.430967,63.8544802 L119.240967,49.0544802" id="Wings" fill="#2A161C"></path>
                    <path d="M56.1709669,74.3044802 C56.1709669,74.3044802 64.2109669,94.7844802 69.3909669,97.6644802 C69.3909669,97.6644802 53.9609669,99.7644802 50.2409669,107.50448 C50.2409669,107.50448 45.5909669,71.9244802 56.1709669,74.3044802 M23.7809669,53.8244802 C23.7809669,53.8244802 23.4009669,73.0944802 29.3609669,86.1244802 C35.3209669,99.1644802 49.1109669,115.20448 49.1109669,115.20448 C49.1109669,115.20448 34.6599669,107.22448 24.7509669,110.69448 C14.8409669,114.16448 11.7409669,118.21448 11.7409669,118.21448 C11.7409669,118.21448 -3.26903311,73.3944802 23.7809669,53.8244802 M148.630967,5.37448015 C181.970967,3.77448015 198.220967,48.1644802 198.220967,48.1644802 C198.220967,48.1644802 193.270967,46.9444802 183.360967,50.4144802 C173.450967,53.8844802 167.140967,69.1344802 167.140967,69.1344802 C167.140967,69.1344802 167.205724,67.3574472 167.212805,64.4948093 L167.213016,63.572317 C167.198567,56.3506082 166.797367,43.5532802 164.430967,34.0944802 C160.950967,20.1844802 148.630967,5.37448015 148.630967,5.37448015 Z M136.100967,41.5844802 C142.870967,33.1244802 161.459967,63.8244802 161.459967,63.8244802 C153.720967,60.1044802 140.350967,68.0944802 140.350967,68.0944802 C142.600967,62.6144802 136.100967,41.5844802 136.100967,41.5844802 Z" id="Light" fill="#411F29"></path>
                    <g id="Group" transform="translate(73.000000, 39.948541)">
                        <g id="Eye" transform="translate(1.000000, 1.000000)">
                            <path d="M59.4145325,41.1389304 C56.7935586,48.3175365 51.766298,53.9262418 45.5806206,57.379129 C38.0710382,61.5700037 28.8529029,62.5897683 20.1401772,59.4097129 C4.24884545,53.6131562 -3.93610731,36.0311621 1.86492205,20.1353576 C5.34464514,10.6086093 13.0554968,3.85043249 22.0991987,1.2249859 C28.1417513,-0.537238905 34.7791665,-0.461203825 41.14375,1.8645751 C57.0350818,7.66113181 65.2155619,25.2475986 59.4145325,41.1389304" fill="#F8EAEF"></path>
                            <path d="M45.5806206,57.379129 C38.0710382,61.5700037 28.8529029,62.5897683 20.1401772,59.4097129 C4.24884545,53.6131562 -3.93610731,36.0311621 1.86492205,20.1353576 C5.34464514,10.6086093 13.0554968,3.85043249 22.0991987,1.2249859 C22.1394526,1.38600136 22.1573432,1.56043478 22.1573432,1.73934085 C22.1573432,1.73934085 9.79940631,21.5352976 14.388347,33.9692696 C18.9728151,46.4077142 32.4086611,53.5192305 38.1470733,55.183057 C42.0382804,56.3146379 44.4400944,57.0347348 45.5806206,57.379129" id="Shadow" fill="#DAD4E0"></path>
                            <path d="M45.6790189,34.8414367 C42.5034361,43.5452171 32.8738169,48.0223415 24.1700365,44.8467587 C15.4707288,41.671176 10.9891317,32.0460293 14.1647145,23.342249 C17.3402972,14.6429412 26.9699165,10.1613442 35.6736969,13.3369269 C44.3730046,16.5125097 48.8546017,26.142129 45.6790189,34.8414367" id="Color" fill="#784F8F"></path>
                            <path d="M37.4851208,31.6032368 C35.9957278,35.6867679 31.4828221,37.7844416 27.3992911,36.2950485 C23.3202326,34.8056555 21.2180863,30.2927498 22.7074794,26.2092187 C24.1968724,22.1301603 28.7142507,20.028014 32.7933091,21.517407 C36.8768402,23.0068001 38.9789865,27.5241784 37.4851208,31.6032368" id="Fill-1935" fill="#111014"></path>
                            <path d="M40.9335354,28.0161701 C39.9271887,30.7757962 36.8723675,32.1980995 34.1082687,31.1917528 C31.3486426,30.1809335 29.9263393,27.1261124 30.932686,24.3664862 C31.9435053,21.6023874 34.9983264,20.1845568 37.7579526,21.1909035 C40.5220514,22.1972501 41.9443547,25.2520713 40.9335354,28.0161701" id="Light" fill="#FAEFF2"></path>
                            <path d="M5.6174769,14.8084294 L12.693212,19.2452999 C13.0152429,19.4465693 13.4401449,19.3481709 13.6414142,19.02614 C13.8426835,18.7041091 13.7487578,18.2792071 13.4267269,18.0779378 L6.34651914,13.6410672 C6.02448821,13.4397979 5.60405894,13.5381963 5.39831696,13.8602272 C5.19704763,14.1822581 5.29544597,14.60716 5.6174769,14.8084294 M10.0113146,21.1556128 C10.1993945,20.8758957 10.5642298,20.7672213 10.8773154,20.913599 C11.2217096,21.0746145 11.3693071,21.4860985 11.2082916,21.8304927 L11.2082916,21.8304927 L11.1870759,21.8721809 C11.1172869,22.0100377 10.881788,22.4624145 10.4524135,23.0068001 C9.95147647,23.6463893 9.18665302,24.420158 8.10427129,24.9479309 C7.9040934,25.0449115 7.69320088,25.1332513 7.47197806,25.21026 C7.49647017,25.327335 7.52551547,25.455111 7.55860777,25.5919928 C7.75540445,26.4060154 8.09979863,27.5241784 8.68571602,28.7273217 C8.98091104,29.3356023 9.11956324,29.8812659 9.11956324,30.3777302 C9.11956324,30.829468 8.99432899,31.2364794 8.80200496,31.549565 C8.61415359,31.8671233 8.36368509,32.0952285 8.1311072,32.2607166 C7.66147876,32.5827475 7.24104949,32.6677279 7.19185032,32.6811459 C6.81614757,32.757181 6.45386278,32.5201304 6.3778277,32.1444277 C6.29731997,31.7731976 6.53884316,31.4109128 6.91007326,31.330405 L6.91007326,31.330405 L6.96821773,31.3169871 C7.0174169,31.2990965 7.09345198,31.2722606 7.17843237,31.227534 C7.34839314,31.1470263 7.52282655,31.0128468 7.62569755,30.842886 C7.69278732,30.726597 7.74198649,30.5924175 7.74198649,30.3777302 C7.74198649,30.1406797 7.67489672,29.7962855 7.44679147,29.326657 C6.70382334,27.7990103 6.3194447,26.4081137 6.12627401,25.5037861 L5.86792085,25.5252405 L5.86792085,25.5252405 L5.54591447,25.5338483 C5.48776999,25.5338483 5.42962552,25.5338483 5.3670084,25.5293757 L5.3670084,25.5293757 L5.25966475,25.5293757 C4.92421587,25.5293757 4.66480207,25.5741022 4.46353274,25.641192 C4.25779075,25.7127544 4.10572059,25.8022074 3.984959,25.9095511 C3.7434358,26.1197657 3.59136564,26.4194334 3.50638525,26.7906635 C3.44824078,27.041132 3.42587752,27.3094911 3.42587752,27.5644322 C3.42587752,28.1771855 3.55558442,28.7094311 3.56452973,28.7452123 L3.56452973,28.7452123 L3.58361999,28.8463561 C3.62186099,29.1824602 3.41042654,29.5010905 3.07701068,29.5905435 C2.71025324,29.6844692 2.33455049,29.4697819 2.23615215,29.0985518 C2.22720685,29.0672432 2.05277343,28.4142361 2.04830077,27.5644322 C2.05277343,27.0634952 2.1109179,26.4820505 2.34349579,25.9184964 C2.57160103,25.3594149 3.0009756,24.8003334 3.67187337,24.4783025 C4.11913855,24.2636152 4.64691146,24.1517989 5.25966475,24.1517989 C5.30886392,24.1517989 5.35806309,24.1517989 5.40726226,24.1562716 L5.40726226,24.1562716 L5.54591447,24.1562716 C5.69635802,24.1562716 5.8422654,24.1491952 5.98381934,24.1357732 C6.06994539,23.8927109 6.28782186,23.7111171 6.56120642,23.6821705 C6.76998362,23.6622869 6.96771158,23.7390843 7.10834,23.8757222 L7.26476678,23.8155464 L7.26476678,23.8155464 L7.47362739,23.7224244 C8.02376355,23.4585379 8.47997404,23.1051984 8.85120413,22.738441 C9.58919168,22.0093987 9.96042178,21.2490479 9.96489443,21.2401026 L9.96230077,21.2446781 L9.96489443,21.2401026 L9.96042178,21.2445753 Z M24.5593008,49.2026781 L24.5949821,49.1115717 C24.7355127,48.8052404 25.0800178,48.6403806 25.4134337,48.7379658 C25.7757185,48.8453094 25.9859331,49.2299575 25.8785895,49.5922423 C25.8696442,49.6235508 25.7623005,49.9947809 25.5028867,50.4733547 C25.2434729,50.9429831 24.8364616,51.5333731 24.1834544,51.9582751 C23.7496072,52.2400521 23.1949984,52.4368488 22.5688271,52.4368488 C21.826367,52.4368488 21.0078717,52.177435 20.1222866,51.6049356 C19.1517212,50.9787643 18.4226789,50.7998582 17.894906,50.7998582 C17.317934,50.7998582 16.9332859,51.0056002 16.6425635,51.2426508 C16.4847341,51.3708872 16.3636172,51.5100015 16.2822117,51.6187594 C16.4374956,51.7462899 16.586157,51.8764511 16.7275439,52.0119469 C17.009321,52.2892513 17.2776801,52.5978643 17.4476409,53.0048756 C17.5415665,53.2329808 17.5952384,53.4923946 17.5952384,53.7607537 C17.5952384,53.9620231 17.5639298,54.167765 17.5057853,54.3690344 C17.009321,56.1312592 16.7275439,56.9005553 16.7230713,56.9184459 C16.5933644,57.276258 16.1952984,57.4596367 15.8419589,57.3299298 C15.4841467,57.2002229 15.300768,56.8021569 15.4304749,56.4443448 L15.4304749,56.4443448 L15.4304749,56.4398721 L15.4394202,56.4175089 C15.4483655,56.3951456 15.4573108,56.3593644 15.4752014,56.3146379 C15.50651,56.2207122 15.5557092,56.0775873 15.6183263,55.876318 C15.7480332,55.478252 15.9358846,54.8610261 16.1818804,53.9978043 C16.2087163,53.8994059 16.2176616,53.8233708 16.2176616,53.7607537 C16.2176616,53.6757733 16.2042437,53.6086836 16.1729351,53.5281758 C16.1416265,53.4476681 16.0879547,53.3582151 16.0029743,53.2553441 C15.8374862,53.0451294 15.5512365,52.7946609 15.197897,52.5039386 C14.5001633,51.9224938 13.5385432,51.1666157 12.8542275,49.9321638 C12.5366692,49.3507191 12.4069623,48.7424384 12.4069623,48.1654663 C12.411435,46.9667957 12.9257899,45.9157225 13.4043636,45.1464264 C13.88741,44.3771303 14.3615111,43.8851386 14.3838744,43.8627753 C14.6477608,43.5899436 15.0816081,43.5809983 15.3544398,43.8493574 C15.6272716,44.1132438 15.6362169,44.5470911 15.3723304,44.8199228 L15.3723304,44.8199228 L15.3589125,44.8333408 L15.314186,44.8870126 C15.2694594,44.9317391 15.2068423,45.0033015 15.1308072,45.0972272 C14.9787371,45.2850786 14.7729951,45.5534377 14.5672531,45.8799413 C14.1557691,46.5240031 13.7755937,47.3872249 13.784539,48.1654663 C13.784539,48.5411691 13.8605741,48.9034539 14.0618435,49.2657387 C14.4107103,49.8963826 14.8579755,50.3839016 15.3320766,50.8088035 L15.2358402,50.7201492 C15.2629877,50.6852043 15.2920632,50.6490706 15.3231313,50.6120069 C15.5825451,50.3123392 15.9806111,49.9455818 16.5486379,49.6951133 C16.9288133,49.5296251 17.3805511,49.4222815 17.894906,49.4222815 C18.7447099,49.4222815 19.7376386,49.7174765 20.8647468,50.4465188 C21.5982617,50.9161472 22.1528705,51.059272 22.5688271,51.059272 C22.8729675,51.059272 23.110018,50.9877096 23.3336506,50.866948 C23.5528105,50.7461864 23.7496072,50.571753 23.9150953,50.3704837 C24.2550169,49.9768903 24.4607589,49.4848986 24.5323213,49.2881019 C24.5502119,49.2344301 24.5591572,49.2031216 24.5591572,49.2031216 L24.5591572,49.2031216 L24.5591572,49.2075942 L24.5593008,49.2026781 Z M40.7546293,48.3130639 L40.732266,48.3354271 C40.7099028,48.3577904 40.6785942,48.3935716 40.6383403,48.4427708 C40.5623053,48.5366964 40.4594343,48.6798213 40.3520906,48.8497821 C40.141876,49.185231 39.9584973,49.6280235 39.9629699,49.9992536 C39.9674426,50.1826323 39.9987511,50.3525931 40.0926768,50.5314991 C40.1866025,50.7104052 40.3431453,50.9027292 40.6204497,51.1084712 C41.14375,51.484174 41.5462887,51.5646817 42.0069718,51.5691544 C42.2887489,51.5691544 42.5928892,51.5289005 42.9149201,51.4797013 C43.2414237,51.4305021 43.5902905,51.3723577 43.9704659,51.367885 C44.3148601,51.367885 44.6905629,51.4215568 45.061793,51.587045 L44.9835028,51.5553917 C45.011528,51.4765996 45.0170664,51.4245834 45.0170664,51.3947209 C45.0125938,51.3410491 45.0125938,51.3142132 44.9499767,51.2247602 C44.8873595,51.1353071 44.7621253,51.0100729 44.5832192,50.866948 C44.2209344,50.571753 43.6707983,50.2184135 43.1519706,49.6906406 C42.8075765,49.3373011 42.4766002,48.8945086 42.2440223,48.3398998 C42.1232607,48.0536501 42.0606436,47.7539824 42.0606436,47.46326 C42.0606436,47.1278111 42.145624,46.8102529 42.2753309,46.5284758 C42.4095105,46.2466987 42.5839439,46.0007029 42.7852132,45.7860156 C43.1832792,45.3521684 43.6707983,45.0167195 44.1448993,44.7483604 C45.0886289,44.2161148 45.9876319,43.9432831 46.0189404,43.9298651 L46.0189404,43.9298651 C46.3812252,43.8225215 46.7658733,44.0237908 46.8776896,44.3905482 C46.9895059,44.752833 46.7837639,45.1374811 46.4214791,45.2492974 L46.4214791,45.2492974 L46.4080611,45.2492974 L46.3678073,45.267188 C46.3275534,45.2761333 46.2738816,45.2984966 46.2023192,45.3208598 C46.0547217,45.3745316 45.8489797,45.4505667 45.6164018,45.5534377 C45.151246,45.754707 44.5653286,46.0588474 44.1314814,46.4077142 C43.8362864,46.6402921 43.6215991,46.8952332 43.5232007,47.1099205 C43.4650563,47.2351548 43.4382204,47.3469711 43.4382204,47.46326 C43.4382204,47.566131 43.456111,47.6734746 43.5142554,47.8076542 L43.5142554,47.8076542 C43.7155248,48.2862279 44.0196651,48.6440401 44.3864225,48.966071 C44.75318,49.2881019 45.1691366,49.5609337 45.5537847,49.8874373 C45.8087258,50.1021246 46.063667,50.3481204 46.2381004,50.7059326 C46.3320261,50.9072019 46.3946432,51.1487251 46.3946432,51.3947209 C46.3946432,51.7748963 46.2604636,52.1461264 46.0457764,52.5039386 L46.1016432,52.4054941 C47.2521331,53.7859 47.7502158,54.2172371 47.861673,54.3019446 L47.861673,54.3019446 L47.8795636,54.3153625 L47.8783008,54.3166781 L47.9256141,54.3474306 C48.1687402,54.5269247 48.2676056,54.8457801 48.1634174,55.1300673 L48.1210868,55.2233109 C47.9421807,55.5587597 47.5262241,55.683994 47.1907752,55.5050879 C47.0968495,55.4558887 46.96267,55.3619631 46.6361664,55.0533501 C46.3141355,54.7402645 45.8131985,54.2080189 45.034957,53.2732347 C44.8336877,53.0317115 44.6637269,52.9154225 44.5027115,52.8438601 C44.3461687,52.7767703 44.1806806,52.7454618 43.9704659,52.7454618 C43.737888,52.7454618 43.4516383,52.7857156 43.1251347,52.8393875 C42.7941585,52.8885866 42.4229284,52.9467311 42.0069718,52.9467311 C41.3405467,52.9512038 40.5578326,52.7767703 39.8108998,52.2221615 C39.3859978,51.9135485 39.0729122,51.5512637 38.8716429,51.1666157 C38.6703736,50.7819676 38.5853932,50.3749563 38.5898658,49.9992536 C38.5943385,49.2254848 38.9029515,48.5858956 39.1802559,48.1252125 C39.4665056,47.6645293 39.7393373,47.3782796 39.7617006,47.3559164 C40.0255871,47.0830846 40.4639069,47.0741393 40.7367387,47.3380258 C41.0095704,47.6019122 41.0185157,48.0357594 40.7546293,48.3085912 L40.7563008,48.3056781 L40.7546293,48.3085912 L40.7591019,48.3085912 L40.7546293,48.3130639 Z M59.4672025,34.7681925 C59.4474512,34.7256845 59.40022,34.6419564 59.3071889,34.5238784 C59.0790836,34.2197381 58.573674,33.6785472 57.5404914,32.8824152 C57.3302768,32.7213997 57.160316,32.6274741 57.0350818,32.5738022 C56.9937908,32.5561061 56.9578482,32.5432721 56.9262921,32.5340178 L56.9101175,32.6144119 L56.9101175,32.6144119 L56.8874843,32.7169271 C56.8159218,33.0657939 56.6683243,33.759055 56.3731293,35.1500497 C56.2568404,35.7136038 56.0600437,36.1832322 55.8051025,36.5678803 C55.5501614,36.9525283 55.2370758,37.2432507 54.9105722,37.4489927 C54.2530924,37.8604766 53.577722,37.945457 53.0991482,37.945457 C52.7010822,37.945457 52.4327231,37.8873126 52.3969419,37.8783672 C52.0257118,37.7933869 51.7931339,37.4266294 51.8781143,37.0553993 C51.958622,36.6841692 52.3298521,36.4515913 52.7010822,36.5365717 L52.7010822,36.5365717 L52.7100275,36.5365717 L52.7905352,36.5499897 C52.8620977,36.558935 52.9694413,36.5678803 53.0991482,36.5678803 C53.3317261,36.5678803 53.6313938,36.5365717 53.9042255,36.4247554 C54.1815299,36.3084665 54.4364711,36.1340331 54.6601037,35.8030568 C54.8077012,35.5838969 54.9418807,35.2842292 55.0268611,34.8682726 C55.1390341,34.3396998 55.2298945,33.9115548 55.3034915,33.5647566 L55.1449671,33.6650506 L55.1449671,33.6650506 L54.9374081,33.7769456 C54.55276,33.9647969 54.078659,34.0945038 53.5419407,34.0945038 C53.2959449,34.0945038 53.0320584,34.0676679 52.7592267,34.0139961 C52.2627623,33.9200704 51.8333878,33.7411643 51.4800483,33.4951685 C51.1311814,33.2536453 50.8583497,32.9450323 50.6660256,32.6185288 C50.2769049,31.9565763 50.1829792,31.240952 50.1829792,30.6281987 C50.1829792,29.6889418 50.4155571,28.9554269 50.4245024,28.9151731 C50.5363187,28.5528883 50.9209668,28.3471463 51.2832516,28.4589626 C51.6455364,28.5707789 51.8512784,28.9554269 51.7394621,29.3177117 L51.7394621,29.3177117 L51.7349894,29.3356023 L51.7170988,29.4071648 C51.6992082,29.4742545 51.6768449,29.5726529 51.650009,29.6934145 C51.6052825,29.9349377 51.560556,30.2748592 51.560556,30.6281987 C51.560556,30.9725929 51.6052825,31.3348777 51.7170988,31.6345454 C51.8333878,31.9386857 51.9944032,32.1757362 52.267235,32.3680603 C52.4506137,32.4932945 52.6876642,32.6006381 53.0231131,32.6632553 C53.2154372,32.7035091 53.3898706,32.7169271 53.5419407,32.7169271 C53.7879366,32.7169271 53.9847333,32.6766732 54.1591667,32.6140561 C54.3336001,32.551439 54.4946156,32.4619859 54.6511584,32.345697 C54.9687167,32.1220644 55.2639117,31.7955608 55.6843409,31.5003658 C55.9571727,31.3080418 56.3373481,31.1336084 56.7801406,31.1336084 C57.0440271,31.1336084 57.3123862,31.1962255 57.5762726,31.3080418 C57.8401591,31.4198581 58.1040456,31.5808735 58.38135,31.7955608 C59.1998452,32.4306774 59.7410361,32.9271417 60.0988482,33.3252077 C60.461133,33.7232737 60.6489844,34.0229414 60.7518554,34.2689373 C60.8189452,34.4344254 60.8457811,34.5775502 60.8457811,34.7027845 L60.8457811,34.7027845 L60.8457811,34.7654016 C60.8144725,35.1411044 60.4834963,35.4273541 60.1033209,35.3960455 C59.7959277,35.3704294 59.5484164,35.1442093 59.485722,34.8570187 L59.4771497,34.7922375 L59.4771497,34.7922375 L59.4816223,34.8011828 C59.4777087,34.781615 59.472677,34.7497473 59.472677,34.7027845 L59.472677,34.7027845 L59.4718403,34.7592219 L59.4718403,34.7592219 L59.4763008,34.7906781 Z M53.3496167,12.2992717 L53.3496167,12.2992717 C53.3361988,12.3395256 53.0320584,12.9925327 52.472977,13.5963407 C52.1911999,13.8960084 51.8512784,14.1867308 51.457685,14.3924727 C51.0640916,14.6026874 50.6212991,14.7323943 50.0979989,14.7323943 C49.5791713,14.7323943 48.9753633,14.6026874 48.2552663,14.2448752 C47.2802282,13.7573562 46.5019868,13.5337236 45.8266164,13.5337236 C45.5716753,13.5337236 45.3301521,13.5650322 45.1109921,13.6410672 C44.7755432,13.7484109 44.4803482,13.9630982 44.2924969,14.2359299 C44.1046455,14.5132343 44.0241377,14.8352653 44.0241377,15.1394056 C44.0286104,15.6805965 44.2567156,16.1949514 44.636891,16.610908 C45.0125938,17.0268646 45.56273,17.3488956 46.2291551,17.4428213 C46.6048578,17.4964931 46.9537247,17.2326066 47.0073965,16.8569039 C47.0610683,16.4812011 46.7971818,16.1323343 46.4214791,16.0786625 C46.0860302,16.0339359 45.8266164,15.8773931 45.652183,15.6850691 C45.4732769,15.4927451 45.3972418,15.2601672 45.4017145,15.1394056 C45.4017145,15.0902064 45.4061871,15.0588979 45.4151324,15.0410073 C45.4285504,15.0141713 45.4330231,15.005226 45.4777496,14.9739175 C45.5224761,14.9470816 45.6298197,14.9068277 45.8266164,14.9068277 C46.1754833,14.9068277 46.7882365,15.0454799 47.6380404,15.4748545 C48.5191528,15.917647 49.3421207,16.109971 50.0979989,16.109971 C50.8851856,16.109971 51.5829193,15.8952837 52.1554187,15.5821981 C53.0186405,15.108097 53.6224485,14.428254 54.0160418,13.8736451 C54.4096352,13.3145637 54.6019592,12.8762438 54.6153772,12.8449352 C54.7674473,12.4960684 54.6064319,12.0890571 54.2530924,11.9414596 C53.9042255,11.7893894 53.5016869,11.9504049 53.3496167,12.2992717 M32.5696765,0.804556629 C32.5428406,0.822447236 31.9524506,1.28313037 31.3441699,2.00769996 C31.0400296,2.36998475 30.726944,2.79488667 30.4809482,3.28240572 C30.239425,3.76545211 30.0605189,4.31111563 30.0560462,4.90597831 C30.0560462,5.26379046 30.1276087,5.6305479 30.2796788,5.98836004 C30.4362216,6.34617219 30.6732722,6.68162107 30.9908305,6.99023404 C31.6751462,7.6432412 32.243173,8.23810389 32.6188757,8.71220498 C32.8022544,8.94478287 32.9453793,9.15499751 33.0214144,9.30706767 C33.0616682,9.38310275 33.0885041,9.44124722 33.1019221,9.48150109 L33.1108674,9.52175495 L33.1108674,9.5262276 L33.3658085,9.5262276 L33.1511213,9.40099335 C33.1198127,9.45466518 33.1108674,9.508337 33.1108674,9.5262276 L33.3658085,9.5262276 L33.1511213,9.40099335 L33.3881718,9.53517291 L33.2226837,9.31601297 L33.1511213,9.40099335 L33.3881718,9.53517291 L33.2226837,9.31601297 L33.3076641,9.43230192 L33.2361016,9.30706767 L33.2226837,9.31601297 L33.3076641,9.43230192 L33.2361016,9.30706767 L33.2629376,9.35179418 L33.2405743,9.30706767 L33.2361016,9.30706767 L33.2629376,9.35179418 L33.2405743,9.30706767 L33.218211,9.31154032 C33.1779572,9.32495827 33.0616682,9.34732153 32.8917075,9.34732153 C32.8067271,9.34732153 32.7038561,9.34284888 32.5920398,9.33390358 C32.2118644,9.30259501 31.8808882,9.58437208 31.8495796,9.96007483 C31.818271,10.3402502 32.1000481,10.6712265 32.4802235,10.702535 C32.6233484,10.715953 32.7575279,10.7204256 32.8917075,10.7204256 C33.2718829,10.7204256 33.6028591,10.6801718 33.9293627,10.496793 C34.0903781,10.4028674 34.246921,10.2597425 34.3453193,10.0808364 C34.4481903,9.90193035 34.4884441,9.70066102 34.4884441,9.5262276 C34.4839715,9.19077872 34.3766279,8.92689226 34.2379756,8.66300581 C34.027761,8.26941245 33.7236207,7.86687379 33.3345,7.42408127 C32.9453793,6.98576139 32.4757508,6.50718765 31.9479779,5.99730535 C31.742236,5.80050867 31.6214744,5.61712995 31.5454393,5.43822388 C31.4649315,5.26379046 31.433623,5.09382969 31.433623,4.90597831 C31.433623,4.60183799 31.5320213,4.25297115 31.7109274,3.89963166 C31.9748138,3.37185875 32.4086611,2.84855849 32.7754185,2.4773284 C32.9543246,2.29394967 33.1198127,2.14187951 33.2361016,2.03900852 C33.2942461,1.98980935 33.3434453,1.94955549 33.3747539,1.92271957 L33.4060624,1.89588366 L33.4150077,1.89141101 L33.4150077,1.88693836 C33.7146754,1.65436047 33.7683472,1.22051325 33.5357693,0.920845576 C33.2987188,0.625650558 32.8648715,0.571978737 32.5696765,0.804556629 M28.2043684,3.46578444 C28.1641145,3.47472974 27.5916151,3.58207339 26.9609712,3.93094022 C26.6478856,4.10537364 26.3124367,4.34242419 26.0351323,4.69129103 C25.7623005,5.03568521 25.5610312,5.5097863 25.5655038,6.04650452 C25.5610312,6.26566445 25.5923398,6.48929704 25.6594295,6.72187494 C25.7980817,7.24070254 25.9680425,7.72822159 26.0977494,8.1441782 C26.2274563,8.56013482 26.3034914,8.91794696 26.2990187,9.09685303 C26.2990187,9.17288811 26.2900734,9.21314198 26.2856008,9.22208728 L26.2856008,9.22655993 L26.3258546,9.24445054 L26.2945461,9.21314198 L26.2856008,9.22655993 L26.3258546,9.24445054 L26.2945461,9.21314198 L26.307964,9.22655993 L26.2990187,9.20866933 L26.2945461,9.21314198 L26.307964,9.22655993 L26.2990187,9.20866933 C26.2945461,9.21314198 26.2721828,9.22655993 26.205093,9.24445054 C26.1380033,9.26234115 26.026187,9.2757591 25.8741168,9.2757591 C25.7846638,9.2757591 25.6817928,9.27128645 25.5655038,9.26234115 C25.1898011,9.22655993 24.8543522,9.508337 24.818571,9.88403975 C24.7872624,10.2642151 25.0645668,10.599664 25.4447422,10.6309726 C25.5923398,10.6443905 25.7354646,10.6533359 25.8741168,10.6533359 C26.129058,10.6533359 26.3616359,10.6309726 26.5852684,10.5683555 C26.7507566,10.523629 26.911772,10.4565392 27.0593695,10.3581408 C27.2785295,10.215016 27.4529629,9.99585604 27.5468886,9.77222345 C27.6452869,9.54411821 27.6765955,9.31154032 27.6765955,9.09685303 C27.6721228,8.6361699 27.5513612,8.20232268 27.412709,7.74611219 C27.2740568,7.28990171 27.1130414,6.82027328 26.9833345,6.35959014 C26.9520259,6.23435589 26.9386079,6.1314849 26.9386079,6.04650452 C26.9430806,5.83628988 27.0012251,5.69763768 27.117514,5.54109487 C27.2919474,5.31746228 27.631869,5.10724764 27.9404819,4.98201339 C28.0925521,4.91939627 28.2312043,4.87466975 28.3296026,4.84783384 C28.3788018,4.83441588 28.4190557,4.82547058 28.4414189,4.82099793 L28.4682548,4.81652528 L28.4727275,4.81205263 L28.4235283,4.56158413 L28.4727275,4.81205263 L28.4235283,4.56158413 L28.4727275,4.81205263 C28.8439576,4.7404902 29.0854808,4.3782054 29.0139184,4.00697531 C28.9378833,3.63127256 28.5755985,3.38974936 28.2043684,3.46578444" id="Veins" fill="#784F8F"></path>
                        </g>
                    </g>
                </g>
            </g>
        </g>
    </g>
</svg>