<?xml version="1.0" encoding="UTF-8"?>
<svg width="372px" height="208px" viewBox="0 0 372 208" version="1.1" xmlns="http://www.w3.org/2000/svg" xmlns:xlink="http://www.w3.org/1999/xlink">
    <title>decoration-15</title>
    <g id="decoration-15" stroke="none" stroke-width="1" fill="none" fill-rule="evenodd">
        <g id="Group" transform="translate(1.000000, 0.564000)">
            <g id="Halloween/Creatures/Bat-Copy" transform="translate(185.000000, 114.000000) scale(1, -1) translate(-185.000000, -114.000000) ">
                <path d="M76.3202457,7.1293763 C97.3413107,-0.189075834 119.266923,-1.17538703 139.3061,1.46015035 C140.017095,1.55365999 140.704449,1.64969058 141.367364,1.74755409 L142.660371,1.94552117 C142.870362,1.97885504 143.077579,2.01234162 143.281992,2.0459554 L144.474584,2.24896081 L145.599591,2.45396746 L146.737924,2.67772513 L147.247189,2.78597559 L147.3874,2.81722855 C153.38054,4.17106963 157.485454,9.67206005 157.10975,15.774099 L156.91491,18.2824842 L156.790457,20.0220181 L156.648425,22.1377212 L156.507084,24.3917035 L156.413739,25.9693405 L156.275794,28.4455098 L156.127539,31.3266503 L155.989417,34.2640714 L155.86197,37.2557903 L155.74574,40.2998239 L155.641271,43.3941894 C155.624869,43.9140012 155.60898,44.4358275 155.593615,44.959627 L155.507803,48.1257725 C155.494579,48.6572997 155.481901,49.1907175 155.469781,49.7259847 L155.403847,52.9594486 L155.351842,56.2353128 C155.298333,60.0501791 156.307404,64.3274826 158.252798,68.8868505 L158.50084,69.4582275 L158.673,69.843 L158.982415,68.9437694 L159.544238,67.3318179 C159.640458,67.0578324 159.737969,66.781162 159.836772,66.5017746 L160.760876,63.9130636 L161.353477,62.2754286 L162.304918,59.682569 L163.097844,57.5513732 L163.81881,55.6339231 L164.462987,53.9353058 L164.782067,53.0986323 C166.108405,49.6270158 167.492245,46.080299 168.900894,42.5291055 L169.748799,40.3984171 L171.128969,36.9588851 L173.713167,30.6198622 L173.870012,30.2553447 C179.120889,18.4975024 196.696039,21.51691 197.719835,34.3505282 L197.745763,34.7424246 L198.235,44.05 L198.508494,44.070587 C202.347816,44.3769548 206.089074,45.1802167 209.6567,46.4426999 L210.367888,46.7013083 L210.624,46.799 L213.538101,40.4354414 C217.787323,31.1565956 229.30253,31.255037 234.630416,37.6426301 L234.806,37.859 L234.929459,37.810882 C238.287938,36.4976312 242.073825,35.781533 246.238869,35.7299942 L246.984,35.728 L247.354173,35.057118 C248.126585,33.6766886 248.957139,32.3080771 249.849124,30.9613416 L250.391713,30.1560059 L250.949204,29.3564033 C251.140672,29.0864559 251.333719,28.8189138 251.528344,28.5538232 L252.116943,27.7659513 C260.917909,16.1896355 272.835025,9.55875293 287.603071,11.9278121 C300.988776,14.0752184 310.045084,18.3632956 316.203331,26.2168236 C319.611595,30.5633362 321.638517,34.9378743 323.342868,41.409414 L323.501738,42.0223275 L323.597,42.402 L323.653516,42.4131321 C325.689074,42.8365726 327.636277,43.4804877 329.490471,44.4165867 L329.99385,44.6791846 L330.492597,44.9565941 C334.641745,47.3380079 337.781382,51.0817075 339.127781,55.9669909 C340.569395,61.2287603 340.959003,65.5776699 340.460891,69.1104274 L340.388,69.577 L340.784297,69.9931826 C342.039835,71.3239 343.261332,72.682569 344.447378,74.0695514 L345.330243,75.1151026 L346.055713,75.9945302 C355.113416,87.0884304 361.153577,102.644707 365.034168,121.639077 C367.310376,132.780451 368.724484,144.5868 369.456933,156.509352 L369.551884,158.121145 L369.636983,159.700835 L369.712541,161.247279 L369.77887,162.759337 L369.83628,164.235866 L369.885083,165.675725 L369.92559,167.077772 L369.958113,168.440866 L369.992608,170.409972 L370.006533,171.670687 L370.014009,172.888454 L370.014009,174.06213 L370.003015,175.737476 L369.978755,177.22848 C369.70603,187.603185 357.670909,193.103263 349.659168,186.649052 L349.187473,186.262779 L348.661286,185.847671 L347.85417,185.231886 L347.255175,184.788363 C347.151381,184.712395 347.045628,184.635434 346.937945,184.557526 C344.743854,182.970121 342.283934,181.3735 339.649425,179.892172 C332.504581,175.874782 325.571209,173.553616 319.82948,173.593391 C317.884236,173.606867 316.118176,173.891937 314.502921,174.451991 C307.614867,176.836949 301.603242,181.245966 296.544419,186.981021 C294.695014,189.077644 293.104693,191.206958 291.784395,193.250381 C291.396128,193.8513 291.055087,194.408348 290.76163,194.912744 L290.458497,195.444937 L290.237672,195.851414 L290.105142,196.112246 C285.540954,204.857783 273.065118,205.087049 268.182326,196.516309 L267.579896,195.439927 L267.131772,194.666903 L266.63768,193.835762 C266.465539,193.549666 266.286064,193.254839 266.099579,192.952236 C264.503111,190.361694 262.749265,187.775592 260.926927,185.412146 C260.738791,185.168145 260.551365,184.928672 260.364875,184.693881 L259.808434,184.003718 C259.255248,183.327918 258.712495,182.695682 258.186227,182.111248 L257.665678,181.542906 C256.89377,180.714764 256.163491,179.997358 255.495262,179.404995 L255.059193,179.028768 C254.348479,178.43312 253.719973,177.995772 253.201689,177.736348 L253.026,177.652 L252.882151,177.622275 C249.458128,176.993305 242.773866,179.129826 237.242645,182.002534 L236.478774,182.40795 L235.767707,182.802396 C228.720241,186.980537 219.655779,183.358723 217.389766,175.539086 L217.142057,174.648099 L216.995515,174.138993 C216.912703,173.854166 216.825535,173.559181 216.7341,173.254822 L216.447088,172.314401 L216.135021,171.322431 C216.080953,171.153067 216.025862,170.981752 215.969762,170.808583 C215.597555,169.659657 215.207928,168.511783 214.802682,167.375682 L214.392295,166.243903 L214.105,165.479 L213.775307,166.00019 C212.644235,167.762729 211.453617,169.428604 210.205229,170.984798 L209.666674,171.644985 L209.230757,172.163312 C206.418003,175.467012 203.359223,178.460443 200.126793,181.036664 L199.431498,181.582287 L199.129,181.813 L199.253263,181.8647 C199.922153,182.146003 200.578628,182.451518 201.222316,182.782682 L201.861726,183.122449 L202.367061,183.406789 C207.530021,186.385707 211.348446,190.956381 212.986044,196.907016 C215.293587,205.302092 215.794272,211.815763 214.931833,216.733114 L214.864601,217.098927 L214.777431,217.528282 C214.612975,218.296873 214.415819,219.003439 214.191531,219.647956 L214.053746,220.027221 L213.88652,220.447334 L213.830942,220.578285 C211.876478,225.112187 207.442225,228.061381 202.525383,228.129124 L202.204056,228.129124 L33.3150558,226.129124 C26.8681143,226.052778 21.5369001,221.085556 21.0055875,214.660092 L20.9693067,214.13419 L20.94645,213.686102 C20.6678934,207.443681 21.475123,200.123124 24.404987,192.748508 C30.9207691,176.347953 45.4191517,167.195017 66.725929,168.799351 L67.3736717,168.851264 L67.98,168.905 L68.0442084,168.771815 C70.1704534,164.35708 72.6422593,159.963385 75.488478,155.733943 L76.1519572,154.760899 L76.816,153.811 L76.652744,153.836187 C69.5192912,154.835562 62.4264756,149.356481 62.4321393,141.45878 L62.4357809,141.157713 L62.4449432,140.884744 L62.448791,140.539724 L62.4465247,140.122427 L62.4362571,139.640938 L62.403293,138.803324 C62.3983376,138.702801 62.3929269,138.59984 62.3870365,138.494489 C62.2960966,136.868007 62.1100109,135.089318 61.8068074,133.206357 C60.9859527,128.108669 59.451818,123.08857 57.0782806,118.497489 C55.5504157,115.542173 53.708767,112.838396 51.5254629,110.416022 C48.7228183,107.304643 44.1942362,105.126653 38.1431087,103.968185 C31.9228496,102.777338 24.9500055,102.799744 18.4260302,103.584892 L17.6182139,103.686771 L16.8662935,103.790558 L16.172809,103.894919 L15.1545234,104.067258 C4.97884966,106.102393 -3.05369021,95.5893138 1.46038571,86.3456162 L1.6329826,86.0044119 L2.21293019,84.9093698 L3.17298784,83.1446124 L3.74592433,82.110838 L4.5407954,80.6959026 L5.37532629,79.2325343 L6.24899858,77.7228751 L7.16129383,76.1690668 C7.4717718,75.6440104 7.78860053,75.1119528 8.1116936,74.573251 C12.551602,67.1704715 17.4814549,59.6550799 22.8244885,52.37842 L23.3731013,51.633967 L24.4717437,50.1594338 C24.6550092,49.9152846 24.8383542,49.6719418 25.0217792,49.4294101 L26.1232935,47.9839899 C29.2469931,43.9164223 32.3940982,40.085974 35.5669976,36.5158048 L36.6879194,35.2665902 C47.9079256,22.8832732 59.4527462,13.7761284 71.4274069,8.96338101 C73.0404719,8.31439696 74.6717015,7.7033145 76.3202457,7.1293763 Z" id="Sticker" fill="#FFFFFF" fill-rule="nonzero"></path>
                <path d="M230.153072,67.03 C230.153072,67.03 228.163072,43.09 254.583072,49.2 C254.583072,49.2 263.992072,20.8 285.623072,24.27 C307.253072,27.74 310.063072,36.49 313.363072,54.48 C313.363072,54.48 325.253072,52.67 327.072072,59.27 C328.883072,65.88 327.893072,68.19 327.893072,68.19 L230.153072,67.03" id="Cloud" fill="#FFF7D4"></path>
                <g id="Bat" transform="translate(12.703072, 12.696849)">
                    <path d="M63.39,7.86315055 C96.87,-5.60684945 131.93,2.31315055 131.93,2.31315055 C131.93,2.31315055 131.92768,2.34003055 131.923204,2.39319215 L131.914895,2.49257095 C131.760032,4.35597055 130.4602,20.5681505 130.15,43.3631505 C129.851802,64.6228916 150.114862,85.8057106 155.101974,90.6931135 C155.64433,90.262678 156.136992,89.9052905 156.561393,89.61434 C154.861065,85.4629297 153.96,80.7640095 153.96,75.7531505 C153.96,72.2400505 157.39914,61.9392715 161.31976,51.3377897 L161.86965,49.8572143 C166.9335,36.2793505 172.56,22.7031505 172.56,22.7031505 L172.56,22.7031505 L173.73,44.9131505 C176.45,44.1531505 179.31,43.7331505 182.27,43.7331505 C190.45,43.7331505 197.899,46.8431505 203.499,51.9431505 L203.499,51.9431505 L212.2,32.9431505 L212.2,32.9431505 L212.199041,32.9870785 C212.1838,33.6854765 211.9894,42.6045005 211.795,52.0569005 L211.770713,53.2406725 L211.770713,53.2406725 L211.734452,55.0194493 C211.554025,63.9070505 211.39,72.5596505 211.39,74.6431505 C211.39,84.0531274 207.975975,92.6869243 202.090515,98.6372958 C202.213559,99.2592599 202.313715,99.9284291 202.391569,100.638686 C207.733791,99.0680382 237.693721,89.515263 248.07,70.0631505 C259.48,48.6631505 266.33,33.2531505 266.33,33.2531505 C266.33,33.2531505 300.85,43.2431505 323.67,71.2031505 C346.49,99.1531505 344.78,164.203151 344.78,164.203151 C344.78,164.203151 319.11,142.523151 297.71,149.943151 C276.95103,157.130851 266.93902,176.409116 266.356982,177.559343 L266.332995,177.607106 C266.330998,177.611125 266.33,177.613151 266.33,177.613151 C266.33,177.613151 254.34,155.363151 243.22,152.793151 C232.09,150.223151 216.69,159.353151 216.69,159.353151 C216.69,159.353151 209.19911,131.174046 199.00869,127.213172 C196.381391,136.190805 192.343394,145.107684 187.01,151.363151 C173.89,166.773151 149.36,178.183151 141.94,139.383151 C140.123778,129.885924 140.170889,121.995598 141.27796,115.494537 C130.489546,116.383583 114.52,136.713151 114.52,136.713151 C114.52,136.713151 105.43,121.283151 94.45,118.153151 C83.47,115.033151 62.23,128.733151 62.23,128.733151 C62.23,128.733151 63.27,106.173151 48.11,89.3531505 C32.95,72.5231505 0,79.1131505 0,79.1131505 C0,79.1131505 0.00299,79.1073715 0.00894369,79.0959157 L0.08001963,78.9598748 C1.797231,75.6856475 30.9047,20.9193505 63.39,7.86315055 Z" id="Skin" fill="#2A161C"></path>
                    <path d="M129.25,75.1231505 C129.25,75.1231505 112.05,109.283151 114.32,119.343151 C114.32,119.343151 93.71,101.783151 79.36,105.933151 L79.4082858,105.877315 C80.97618,104.067843 120.2634,58.9923505 129.25,75.1231505 Z M118.23,9.42315055 C118.23,9.42315055 92.84,31.2631505 82.85,54.1031505 C72.87,76.9431505 68.08,113.393151 68.08,113.393151 C68.08,113.393151 61.67,85.4231505 45.68,76.6131505 C32.0885,69.1161505 23.6701,68.4756755 21.4503888,68.4522155 L21.1783062,68.4523525 C20.966843,68.4550435 20.86,68.4631505 20.86,68.4631505 L20.9085951,68.3787118 C22.49282,65.6406545 62.6542,-2.68964945 118.23,9.42315055 Z M233.52,98.3031505 C233.52,98.3031505 232.09,136.533151 225.24,144.233151 C225.24,144.233151 251.78,138.813151 262.33,149.373151 C262.33,149.373151 249.49,88.3131505 233.52,98.3031505 M274.89,46.0931505 C274.89,46.0931505 286.58,77.4731505 284.3,102.293151 C282.02,127.113151 268.61,161.353151 268.61,161.353151 C268.61,161.353151 287.72,139.953151 305.98,139.953151 C324.24,139.953151 331.66,144.803151 331.66,144.803151 C331.66,144.803151 330.52,62.6431505 274.89,46.0931505" id="Wings" fill="#411F29"></path>
                    <path d="M166.2,59.0131505 L178.16,66.9831505 C178.16,66.9831505 164.53,75.3831505 166.2,59.0131505 M202.7,66.9931505 L188.55,69.5231505 C188.55,69.5231505 197.69,82.6631505 202.7,66.9931505" id="Eyes" fill="#D9282A"></path>
                </g>
                <path d="M33.4630717,213.63 C33.4630717,213.63 30.0430717,172.27 75.6830717,182.82 C75.6830717,182.82 91.9430717,133.75 129.323072,139.74 C166.693072,145.73 171.543072,160.85 177.253072,191.95 C177.253072,191.95 197.793072,188.81 200.933072,200.22 C204.072072,211.64 202.352072,215.63 202.352072,215.63 L33.4630717,213.63" id="Cloud" fill="#FFF7D4"></path>
            </g>
        </g>
    </g>
</svg>