<?xml version="1.0" encoding="UTF-8"?>
<svg width="578px" height="557px" viewBox="0 0 578 557" version="1.1" xmlns="http://www.w3.org/2000/svg" xmlns:xlink="http://www.w3.org/1999/xlink">
    <title>decoration-10</title>
    <g id="decoration-10" stroke="none" stroke-width="1" fill="none" fill-rule="evenodd">
        <g id="Group" transform="translate(18.540100, 0.017000)">
            <g id="Halloween/Stuffs/Broom" transform="translate(196.000000, 281.500000) scale(-1, 1) translate(-196.000000, -281.500000) ">
                <path d="M344.072995,5.69817095 C347.899233,1.87838967 353.137187,0.682829904 357.814903,2.05220696 L357.99209,2.10550428 L358.219093,2.17788062 C358.341027,2.21753083 358.462344,2.25905481 358.583001,2.3024378 C358.781847,2.37393453 358.975691,2.44888156 359.164739,2.52700508 L359.444741,2.64653853 L359.535585,2.68845971 C368.03012,6.48560947 374.821757,11.7441332 379.971172,18.085942 C384.101399,23.1725609 386.934067,28.6343212 388.709442,34.129567 C389.20431,35.6613116 389.593082,37.1265373 389.889514,38.5095878 L390.025,39.176 L390.11145,39.376195 C392.115223,44.2080287 391.307129,49.6187283 388.395344,55.0438367 L388.183791,55.4313613 L387.979616,55.7936164 C386.711517,58.0099554 385.010109,60.4020439 382.832995,63.006621 L382.165548,63.7944055 C381.93828,64.0591498 381.706212,64.3260556 381.469303,64.5951598 L380.744008,65.4091043 C380.62069,65.5458732 380.496151,65.6832008 380.370386,65.8210918 L379.601037,66.6552348 L378.802001,67.5031192 C378.66634,67.6455906 378.529432,67.7886437 378.391271,67.9322832 L377.547227,68.8011928 L376.672861,69.6843947 C376.524592,69.8327983 376.375049,69.9818066 376.224227,70.1314242 L375.303899,71.036478 C375.147938,71.1885511 374.990687,71.3412427 374.832141,71.4945574 L373.865279,72.421959 C373.701531,72.5777843 373.536476,72.7342419 373.370111,72.8913363 L372.356143,73.8415817 L371.310453,74.8073319 C371.133513,74.9695946 370.955242,75.1325125 370.775632,75.2960902 L369.681882,76.2855108 C366.691395,78.9742789 363.32023,81.770658 359.520482,84.7352904 L357.977612,85.9302606 L356.388344,87.1440403 C356.119562,87.3479522 355.848818,87.5526839 355.576099,87.7582532 L354.080105,88.879586 L352.71492,89.8925458 L351.318288,90.9194653 L349.886707,91.9630619 L348.416678,93.0260528 L346.904699,94.1111554 L345.34727,95.2210869 L342.91825,96.9384825 L329.235392,106.439836 L321.063325,112.154786 L317.696496,114.534681 L315.880173,115.837927 L314.923407,116.540575 L313.642575,117.497187 L312.453705,118.40188 L311.356378,119.254983 C311.239523,119.346919 311.124355,119.437905 311.010872,119.527943 L310.350173,120.056824 C310.243419,120.143082 310.138345,120.228397 310.034947,120.31277 L309.434669,120.807731 L308.874515,121.280201 L308.354361,121.730276 C308.270995,121.803428 308.189291,121.875651 308.109245,121.946946 L307.648858,122.363612 L307.273367,122.715011 L307.05,122.93 L306.463475,126.296788 L306.312726,127.211639 L306.193887,128.024717 L306.113445,128.650441 L306.063833,129.079314 L305.973953,129.975143 L305.914466,130.689043 L305.861525,131.447257 L305.814913,132.257245 L305.774411,133.126469 L305.7398,134.06239 L305.71086,135.072468 L305.68072,136.54749 L305.655889,138.622255 L305.644383,140.985911 C305.616541,154.526081 300.295396,163.653454 291.026091,169.950103 C290.172708,170.529807 289.330617,171.060425 288.37001,171.633988 L285.669754,173.212379 C285.531701,173.295108 285.361433,173.388684 285.162726,173.491763 L284.728511,173.710194 C284.650195,173.748578 284.568998,173.787919 284.485061,173.828166 L283.949668,174.080133 L283.355212,174.351473 L282.367459,174.789585 L280.906355,175.419257 L279.329772,176.083447 L277.278424,176.933128 L270.451197,179.723877 L269.39573,180.16992 L269.110896,180.29659 L268.635739,180.51586 L267.717441,180.951944 C264.877416,182.327522 262.684676,183.651108 261.19827,184.891311 C260.724818,185.286341 260.371141,185.632933 260.131842,185.911412 L260.036273,186.026533 L259.964,186.12 L259.897585,186.538587 C259.431386,189.305255 258.237521,193.711551 256.547677,199.153509 L255.966344,201.005024 L255.350178,202.928284 L254.701087,204.918318 L254.020977,206.970154 L253.311756,209.078822 L252.57533,211.239352 L251.813605,213.446771 L251.02849,215.69611 L250.22189,217.982396 C250.085773,218.366247 249.948839,218.75143 249.81113,219.137842 L248.975879,221.470231 L248.123911,223.82714 L247.257134,226.203599 L246.377452,228.594638 L245.486775,230.995285 L244.587008,233.400568 L243.680058,235.805518 L242.310337,239.401444 L240.935182,242.968657 L239.561027,246.490381 L238.194309,249.949838 L237.290473,252.213266 L236.39471,254.436593 L235.508925,256.614848 L234.635027,258.74306 L233.774922,260.816257 L232.930517,262.82947 L232.103718,264.777728 L231.296433,266.656058 L230.510569,268.459491 L229.748032,270.183055 C229.622992,270.463384 229.499004,270.740178 229.376107,271.013333 L228.652136,272.607774 C227.11328,275.964204 225.772257,278.670717 224.716345,280.499791 L224.477774,280.906205 L222.625396,283.929899 L219.721296,288.745718 L215.302823,296.135882 L207.067858,309.988993 L198.477994,324.491844 L190.973,337.188 L191.398925,337.54165 C197.438441,342.611349 201.235241,347.763416 202.840716,353.155058 L202.966089,353.592746 L203.076303,354.00954 C204.50344,359.633756 203.395796,364.615611 200.958216,368.216755 L200.728268,368.546607 L188.196,386.051 L188.288584,386.390184 C188.911481,388.831619 188.791001,391.197923 188.196657,393.478913 L188.086908,393.880553 L187.985258,394.223396 C187.49108,395.832732 186.79997,397.297828 185.85897,398.95413 L185.752035,399.139796 L185.643205,399.322861 L185.434,399.657 L185.662153,400.522491 L185.957655,401.672458 L186.255835,402.865573 L186.556499,404.10209 L186.859451,405.382261 L187.164495,406.70634 L187.471435,408.074579 L187.780077,409.487232 L188.090224,410.944551 L188.40168,412.44679 L188.714251,413.994202 L189.027741,415.587039 L189.33378,417.182602 L189.665079,418.957717 L189.992345,420.762443 L190.3155,422.596876 L190.63447,424.461111 L190.949179,426.355245 L191.25955,428.279374 C191.310913,428.602566 191.362092,428.927013 191.413085,429.252716 L191.716807,431.222015 L192.016001,433.221549 L192.310592,435.251413 C192.359303,435.592257 192.407818,435.934368 192.456137,436.277749 L192.74368,438.353288 L193.026429,440.459396 L193.304308,442.596171 L193.577242,444.763706 L193.845154,446.9621 C193.889383,447.331075 193.9334,447.701341 193.977203,448.072898 L194.23744,450.317757 L194.492465,452.593713 L194.742203,454.900863 L194.986577,457.239301 L195.225511,459.609124 L195.45893,462.010428 C195.497369,462.413275 195.535575,462.817436 195.573547,463.222916 L195.798549,465.671621 L196.017846,468.152046 L196.231361,470.664288 L196.439018,473.208442 L196.640741,475.784604 L197.251232,483.959678 L198.091234,495.524821 L198.748407,504.908347 L199.204147,511.667026 L199.600064,517.782111 L200.014205,524.551038 L200.221278,528.160596 L200.451,532.463543 L200.610117,535.764881 L200.746079,539.025615 L200.8172,541.123962 L200.857021,542.651977 L200.882278,544.228086 L200.884158,544.464 L200.882534,545.331773 L200.873072,545.804932 L200.856335,546.222185 L200.835795,546.531284 C200.31887,553.101831 194.782981,558.144986 188.197895,558.049035 L187.888465,558.040759 L173.981,557.499 L173.776054,557.670368 C171.688773,559.362444 169.058171,560.384299 166.229295,560.456213 L165.842343,560.460105 L165.53383,560.454714 L140.758,559.719 L140.74773,559.726121 C138.241508,561.279112 135.187436,561.952145 132.086711,561.42667 L131.714432,561.35784 L131.411758,561.293359 L119.141758,558.523359 C118.761827,558.437588 118.389346,558.335085 118.025002,558.216746 L117.623,558.078 L117.40318,558.101312 C115.697511,558.258844 113.935854,558.066592 112.221815,557.478886 L111.82716,557.336221 L111.537609,557.222043 L99.7376087,552.402043 C99.3735586,552.253338 99.0200216,552.089212 98.6774959,551.910695 L98.3386591,551.72742 L98.294,551.701 L98.0095001,551.761836 C95.9305228,552.176443 93.7268089,552.067002 91.6003008,551.352001 L91.2025346,551.210822 L90.9098701,551.09728 L78.2798701,546.01728 L77.9913357,545.897085 L77.635,545.736 L77.4912626,545.732288 C75.76432,545.66071 74.0307653,545.229071 72.4041369,544.407022 L71.978,544.181 L71.8329685,544.239787 C68.0035213,545.734927 63.4642061,545.365807 59.8020023,542.62188 L59.5070203,542.394185 L59.281025,542.210402 L52.921025,536.920402 C51.1002088,535.405918 49.795298,533.452662 49.0723287,531.312318 L48.9508002,530.932719 L48.866,530.639 L48.6789641,530.610021 C47.5002984,530.40697 46.337253,530.031664 45.2268052,529.477143 L44.812925,529.260784 L44.529509,529.101112 L6.729509,507.161112 C0.257226116,503.404448 -1.4682747,494.861878 2.97031873,488.895692 L3.25031446,488.531828 L6.47094132,484.444999 L10.1705676,479.782147 L14.6957838,474.114366 L16.0598723,472.412903 C25.0197585,461.247301 34.329267,449.843559 43.5733979,438.781644 L45.9419417,435.952966 L48.2797588,433.172403 L51.3483734,429.540915 L54.3607358,425.997567 L57.3159162,422.543845 L60.2129849,419.181236 L62.3470913,416.719966 L64.4475946,414.31141 L66.5141026,411.956196 L67.8726945,410.415997 L69.2158869,408.899969 L71.2015469,406.671656 L73.1519042,404.498775 L75.0665663,402.381953 L76.9451411,400.321817 L78.7872363,398.318994 L79.9948397,397.015929 L81.1859393,395.738801 L82.3604191,394.487795 L84.0907221,392.660674 L85.7829765,390.893375 L86.8898143,389.748719 L88.5177828,388.082516 L89.5814001,387.005839 L90.6275259,385.956677 C90.8004161,385.784121 90.9725726,385.612718 91.1439931,385.442474 L92.1636635,384.434936 L93.1655518,383.455379 L94.1495418,382.503989 L95.1155172,381.580951 L96.0633617,380.686452 L96.9929593,379.820677 L97.9041936,378.983812 L98.7969484,378.176044 L99.6711076,377.397556 L100.526555,376.648537 L101.363174,375.92917 C101.638896,375.694345 101.911461,375.464492 102.180849,375.239643 L102.979463,374.580141 L103.509,374.15 L103.562125,373.99493 C103.735362,373.5039 103.934364,373.025857 104.157774,372.562441 L104.389271,372.103962 L104.503,371.894 L104.473269,371.529448 C104.385183,370.245997 104.457175,368.968132 104.707082,367.654604 L104.809172,367.160279 L104.905252,366.753006 C105.821928,363.072283 108.171551,359.975046 111.437692,358.155645 L111.767342,357.97799 L111.848,357.936 L116.665,329.116 L116.742571,328.691808 C116.899357,327.916743 117.129341,327.158291 117.429422,326.426677 L117.617858,325.991011 L117.822968,325.562277 L117.943948,325.327304 L118.007403,325.208217 C118.248203,324.762124 118.526972,324.30318 118.847251,323.835803 L119.0953,323.483758 L119.30565,323.200301 L119.427797,323.040084 C124.268831,316.795229 132.878735,313.855726 143.662569,316.286045 L143.876873,316.336329 L144.273034,316.438678 L145.648545,316.815185 L147.473622,317.337503 L148.920638,317.764782 L150.203,318.153 L150.79473,316.841929 C155.473515,306.548471 160.791084,296.483994 166.678739,287.445373 L167.449922,286.272305 L169.176372,283.699584 L170.120423,282.279828 L171.059274,280.852732 L171.992511,279.419032 L172.919717,277.979461 L173.840479,276.534754 L174.75438,275.085646 L175.661005,273.632872 L176.55994,272.177167 L177.450769,270.719265 L178.333077,269.259901 L179.206448,267.799809 L180.070468,266.339725 L180.924722,264.880382 C181.06626,264.637261 181.207375,264.394202 181.348056,264.151219 L182.186881,262.694367 L183.014901,261.240094 L183.831702,259.789135 L184.636867,258.342223 L185.429982,256.900094 L186.210632,255.463483 L186.978401,254.033124 L187.732874,252.609752 L188.473636,251.194101 L189.200272,249.786907 L189.912367,248.388904 L190.609505,247.000827 L191.291272,245.62341 L191.957251,244.257388 L192.607028,242.903495 L193.240188,241.562468 L193.856316,240.235039 L194.454996,238.921944 C194.553299,238.704331 194.650857,238.487345 194.747663,238.271002 L195.319393,236.980786 C195.413152,236.767077 195.506141,236.554042 195.598351,236.341696 L196.142197,235.076011 L196.666934,233.827599 C196.838615,233.414422 197.007043,233.004246 197.172147,232.597194 L197.657422,231.385531 L198.122342,230.193345 C198.425412,229.40521 198.714636,228.63055 198.989461,227.870343 L199.390828,226.740995 C200.041543,224.877225 200.60053,223.106853 201.059138,221.445185 L201.322189,220.461352 C201.447622,219.97608 201.563866,219.500866 201.670686,219.036125 L203.71449,210.176328 L204.75164,205.764875 L205.584975,202.304991 L206.281627,199.494326 L206.795574,197.475598 L207.155928,196.087959 L207.566699,194.532087 L208.212884,192.132363 L208.672206,190.454769 L208.944564,189.471118 L209.489855,187.534776 C209.580811,187.215495 209.671808,186.897936 209.76285,186.582099 L210.309696,184.707767 L210.857887,182.874841 C211.864286,179.552464 212.87871,176.439107 213.907999,173.536234 L214.470945,171.973732 C215.411783,169.404381 216.365934,167.009205 217.33854,164.789302 C221.751638,154.716722 226.389658,148.099908 233.376166,144.992687 L235.683259,143.958392 L237.810689,142.990482 L239.298518,142.302312 L240.243055,141.859254 L241.594116,141.215234 L242.872615,140.59228 L243.688155,140.18667 L244.476722,139.787407 L245.240429,139.393287 L245.981386,139.003103 L246.701704,138.615649 L247.403495,138.229721 L248.088868,137.844112 C248.201846,137.779803 248.314228,137.715458 248.426058,137.65105 L249.418809,137.069028 L250.067599,136.677142 L250.708416,136.280753 L251.343371,135.878654 C251.448826,135.811095 251.554124,135.743247 251.65931,135.675087 C254.307385,133.959134 256.271248,132.365005 257.422124,131.051807 L257.651468,130.780715 C257.685586,130.738787 257.717674,130.698528 257.747765,130.660001 L257.893,130.466 L257.899387,130.273779 C257.912481,129.917615 257.927923,129.559051 257.945686,129.198334 L258.005907,128.109978 L258.079886,127.010196 C258.093353,126.82603 258.107386,126.64145 258.121982,126.456486 L258.216288,125.342356 L258.323938,124.22052 L258.444767,123.092465 L258.578612,121.959678 C258.672143,121.20324 258.77424,120.444639 258.884683,119.685859 L259.05658,118.547801 L259.240832,117.410962 C259.30429,117.032384 259.369779,116.654256 259.437272,116.276827 L259.645737,115.146886 C259.681474,114.958994 259.717705,114.771339 259.754427,114.583952 L259.980618,113.463088 L260.21842,112.350135 C260.502565,111.056884 260.810079,109.78282 261.139783,108.538574 L261.427793,107.479628 C261.867876,105.902905 262.344083,104.380491 262.853907,102.934977 L263.198741,101.982941 C264.714368,97.9089671 266.505894,94.5186622 268.512868,92.3566548 L268.745395,92.1126745 L269.226232,91.6270783 L270.413395,90.3510345 L275.20821,85.0857598 L286.327387,72.7642375 L303.548004,53.5961608 L321.831036,33.1941006 L339.632,13.298 L339.679852,13.152028 C340.550614,10.5029413 341.751196,8.25447885 343.448737,6.35742288 L343.77289,6.00583092 L344.072995,5.69817095 Z" id="Sticker" fill="#FFFFFF" fill-rule="nonzero"></path>
                <g id="Handle" transform="translate(154.724409, 14.007904)">
                    <path d="M196.23,5.38230445 C194.899,11.8923045 203.72,42.4123045 203.72,42.4123045 C212.10806,38.9963076 217.959924,36.1895714 221.275591,33.9920961 C222.315479,33.3029048 222.996949,31.7796409 223.32,29.4223045 C223.32,29.4223045 221.79,9.96230445 199.71,0.0923044529 C199.71,0.0923044529 197.55,-1.13769555 196.23,5.38230445 Z" id="Fill-1983" fill="#431616"></path>
                    <path d="M0,326.062304 C0,326.062304 9.52,299.312304 23.86,278.102304 C38.2,256.882304 54.71,227.052304 59.13,207.822304 C63.54,188.592304 72.7,147.312304 83.74,142.402304 C94.78,137.482304 115.38,128.272304 115.64,117.592304 C115.9,106.902304 119.53,90.1623045 122.94,86.8623045 C126.36,83.5523045 196.23,5.38230445 196.23,5.38230445 C196.23,5.38230445 204.649,28.4623045 214.1,30.8923045 C223.55,33.3223045 223.32,29.4223045 223.32,29.4223045 C223.32,29.4223045 229,32.8523045 206.6,52.9823045 C184.2,73.1223045 141.5,96.9023045 140.36,104.572304 C139.22,112.242304 138.45,112.362304 138.42,126.952304 C138.39,141.542304 129.92,145.262304 124.52,148.482304 C119.13,151.712304 94.45,157.632304 92.9,170.102304 C91.35,182.562304 65.18,250.602304 58.91,260.672304 C52.64,270.732304 16.99,331.222304 16.99,331.222304 C16.99,331.222304 7.3,334.742304 0,326.062304" id="Fill-1997" fill="#211311"></path>
                </g>
                <g id="Straws" transform="translate(13.004409, 327.929600)">
                    <path d="M127.91,0.550608651 C127.91,0.550608651 155.89,7.90060865 168.79,17.9206087 C181.303,27.6497087 177.792473,33.0130327 177.57058,33.3260759 L177.561218,33.3389924 C177.560413,33.3400697 177.56,33.3406087 177.56,33.3406087 L158.33,31.4206087 C158.33,31.4206087 147.57909,27.3160517 137.82614,22.4775519 C148.633885,36.5576053 157.532835,53.1450056 157.822711,53.6869675 L157.83,53.7006087 L150.874771,62.1129453 C155.314337,65.1215511 158.06,67.4606087 158.06,67.4606087 C158.06,67.4606087 166.74,89.7206087 171.27,150.090609 C174.9846,199.585809 175.364096,213.316053 175.380362,216.655296 L175.380494,217.072734 C175.378428,217.480077 175.37,217.620609 175.37,217.620609 L161.49,217.080609 L157.08,196.890609 L152.9,220.030609 L127.95,219.290609 L127.09,194.200609 L121.16,221.170609 L108.89,218.400609 L109.58,200.550609 L103.26,217.720609 L91.46,212.900609 L109,152.560609 L82.57,211.570609 L69.94,206.490609 L79.73,176.550609 L65.02,205.310609 L51.38,196.460609 L63.72,157.830609 L37.8,190.360609 L0,168.420609 C0,168.420609 70.85,77.8906087 98.54,55.8006087 C100.6,54.1606087 102.43,52.8906087 103.97,52.0706087 C105.320261,51.3500628 106.706904,50.7745566 108.120473,50.3290846 L115.990281,3.24111224 C115.990093,3.2407762 115.99,3.24060865 115.99,3.24060865 C115.99,3.24060865 118.37,-1.59939135 127.91,0.550608651 Z" id="Color" fill="#E5712A"></path>
                    <path d="M139.32,85.8306087 C139.32,85.8306087 145.45,131.550609 138.95,127.860609 C132.44,124.180609 128.98,124.730609 127.23,128.560609 C125.48,132.380609 130.67,87.2106087 127.7,87.1006087 C124.72,86.9806087 109.2,141.490609 105.35,128.510609 C101.5,115.530609 100.28,111.580609 98.53,115.410609 C96.77,119.240609 92.85,116.910609 92.48,114.600609 C92.12,112.300609 90.64,117.850609 90.64,117.850609 C90.64,117.850609 108.42,84.8606087 106.16,78.1306087 C103.9,71.3906087 83.08,114.930609 71.92,119.080609 C60.76,123.230609 69.5,107.640609 65.28,107.130609 C61.06,106.620609 60.55,110.840609 60.55,110.840609 C60.55,110.840609 90.71,77.6406087 90.07,73.6106087 C89.42,69.5706087 15.93,138.670609 23.26,147.550609 C30.59,156.430609 32.39,130.720609 41.83,126.840609 C51.26,122.970609 47.47,128.900609 45.51,135.120609 C43.55,141.350609 54.85,130.670609 54.85,130.670609 C54.85,130.670609 51.14,140.730609 54.78,141.330609 C58.43,141.930609 76.04,119.010609 78.35,118.640609 C80.66,118.270609 79.87,135.540609 77.22,144.830609 C74.57,154.120609 75.88,158.640609 78.21,154.720609 C80.54,150.800609 93.52,117.390609 94.3,129.680609 C95.09,141.970609 87.96,160.260609 92.71,153.000609 C97.46,145.730609 100.21,137.020609 101.13,142.780609 C102.05,148.550609 100.58,154.100609 103.48,150.090609 C106.39,146.080609 114,127.130609 116.35,134.430609 C118.7,141.740609 113.9,156.110609 117.82,158.440609 C121.74,160.770609 127.28,151.010609 127.28,151.010609 L133.36,159.500609 L137.63,152.910609 C137.63,152.910609 138.14,178.250609 148.51,161.810609 C158.89,145.370609 149.16,77.1606087 139.32,85.8306087 M120.22,21.4906087 C122.09,16.7206087 123.07,22.8706087 123.07,22.8706087 C123.07,22.8706087 123.345556,24.5772753 123.701111,26.3106087 L123.799917,26.7827349 C123.950661,27.4881293 124.111818,28.1724268 124.27,28.7206087 C124.85,30.7306087 126.63,27.0306087 129.19,26.6206087 C131.75,26.2106087 129.18,28.2006087 131.88,31.9706087 C134.59,35.7406087 135.94,31.0606087 139.2,35.0106087 C142.46,38.9506087 141.27,51.2306087 138.79,52.1506087 C136.31,53.0706087 137.5,47.3606087 135.97,39.4606087 C134.45,31.5606087 134.79,43.5906087 131.58,46.4706087 C130.358621,47.5630224 130.191855,46.9749606 130.180873,45.451901 L130.180392,45.1648441 C130.181368,44.8183113 130.186902,44.4317409 130.188415,44.0122479 L130.188528,43.6447858 C130.179411,40.9559039 129.926092,37.1014132 127.44,33.7306087 C122.41,26.9206087 123.33,42.5406087 120.5,44.5606087 C118.802,45.7786087 118.3712,38.9434087 118.7,32.2522087 L118.735393,31.5838723 C118.975348,27.3579607 119.5132,23.2994087 120.22,21.4906087 Z M115.99,3.24060865 C115.99,3.24060865 124.28,14.0106087 138.52,22.5006087 C152.75,31.0006087 177.56,33.3406087 177.56,33.3406087 C177.56,33.3406087 170.21,35.0406087 164.54,34.1006087 C158.88,33.1706087 134.96,24.9106087 125.16,16.2306087 C116.607816,8.64807992 115.999635,4.40035366 115.98256,3.44743226 L115.982849,3.34998546 C115.98428,3.29528539 115.987587,3.26111097 115.989151,3.24744251 Z" id="Light" fill="#F5BA54"></path>
                    <path d="M119.41,18.0706087 L120.690655,49.3470311 C121.25057,49.4130314 121.810469,49.4913284 122.369851,49.5811262 L127.84,31.3006087 L126.969228,50.568099 C132.65872,52.082351 138.147097,54.5829468 142.887551,57.2019136 L144.88,46.7106087 L147.298093,59.7906674 C153.793631,63.8260471 158.06,67.4606087 158.06,67.4606087 C158.06,67.4606087 166.74,89.7206087 171.27,150.090609 C174.9846,199.585809 175.364096,213.316053 175.380362,216.655296 L175.380494,217.072734 C175.378428,217.480077 175.37,217.620609 175.37,217.620609 L161.49,217.080609 L157.08,196.890609 L152.9,220.030609 L127.95,219.290609 L127.09,194.200609 L121.16,221.170609 L108.89,218.400609 L109.58,200.550609 L103.26,217.720609 L91.46,212.900609 L109,152.560609 L114.72,139.030609 L102.32,214.330609 L112.57,192.190609 L119.389,217.49873 L131.98,160.710609 L136.65,209.630609 L147.92,208.600609 C147.92,208.600609 160.74,165.570609 162.56,152.260609 C164.37,138.970609 157.24,104.250609 151.64,88.9806087 C146.3854,74.6362087 137.764284,74.0494607 136.748667,74.0306907 L136.65,74.0306087 C142.0752,86.0492087 132.612681,103.909205 132.422888,104.265203 L132.42,104.26773 C132.428997,104.199974 132.508475,103.576032 133.29,97.4406087 C134.17,90.5906087 128.38,74.1806087 122.83,71.5106087 C117.36,68.9006087 103.47,102.050609 103.07,103.040609 C103.3896,91.1308087 115.779176,72.0903567 117.264775,69.8483777 L117.372947,69.6858288 C117.3974,69.6492747 117.41,69.6306087 117.41,69.6306087 C117.41,69.6306087 110.85,65.5506087 106.94,65.7806087 C105.01808,65.8939527 98.4018339,73.1714259 92.1847314,80.5245369 L91.5203726,81.3123367 C86.883801,86.8244409 82.5740717,92.2366884 80.7399923,94.5586221 L80.46434,94.9079387 C80.11264,95.3540803 79.8927039,95.6348956 79.8291613,95.7161079 L79.81,95.7406087 L79.81,95.7406087 C81.34,85.6406087 103.64,62.3706087 103.64,62.3706087 L98.61,58.0506087 C98.55,57.2706087 98.53,56.5206087 98.54,55.8006087 C100.6,54.1606087 102.43,52.8906087 103.97,52.0706087 C107.012015,50.4472849 110.238684,49.560124 113.54191,49.2375393 C113.090198,48.5910683 112.658566,47.9117569 112.25,47.2006087 L119.41,18.0706087 Z M86.47,154.590609 L80.12,206.050609 L82.57,211.570609 L69.94,206.490609 L79.73,176.550609 L86.47,154.590609 Z M71.5648947,138.023346 L71.6,138.050609 L54.27,204.670609 L47.91,199.380609 L63.73,157.830609 C63.73,157.830609 70.4918338,137.486479 71.5648947,138.023346 Z M124.31,15.8406087 L177.56,33.3406087 L158.66,59.7406087 L151.71,59.0206087 C151.71,59.0206087 152.78,52.5406087 152.12,48.4406087 C151.47,44.3406087 147.89,36.7706087 142.63,33.4106087 C140.443511,32.0124172 136.778367,28.7276073 133.295761,25.3716354 L132.76164,24.8550154 L132.231743,24.3387416 C131.75149,23.8691673 131.278166,23.4018512 130.816338,22.9417868 L130.13279,22.2577531 C126.614148,18.7204986 123.941161,15.7814122 124.31,15.8406087 Z" id="Dark" fill="#BD402C"></path>
                </g>
                <g id="String" transform="translate(115.230150, 368.932690)">
                    <path d="M5.84425902,9.6275181 C5.84425902,9.6275181 -2.82574098,4.7075181 0.954259023,13.5575181 C4.73425902,22.4175181 22.874259,27.3975181 29.264259,27.9475181 C35.664259,28.4975181 57.784259,31.2675181 58.274259,24.4875181 C58.764259,17.7175181 5.84425902,9.6275181 5.84425902,9.6275181" id="Fill-1991" fill="#5C201B"></path>
                    <path d="M4.36425902,0.397518096 C4.36425902,0.397518096 -0.795740977,-2.3224819 3.36425902,6.4675181 C7.53425902,15.2675181 20.934259,20.2175181 28.404259,22.5675181 C35.874259,24.9175181 57.294259,28.1975181 59.754259,23.8575181 C62.214259,19.5275181 60.764259,19.4975181 56.434259,18.7375181 C52.114259,17.9875181 26.504259,20.5075181 4.36425902,0.397518096" id="Fill-1996" fill="#371A16"></path>
                </g>
            </g>
        </g>
        <g id="Group" transform="translate(0.000000, 243.909000)">
            <path d="M193.892496,2.42525842 C190.678258,4.31529889 187.720181,7.06285366 184.644207,10.6492716 C182.626203,13.0021537 180.577566,15.7081674 178.495194,18.7136667 L177.659648,19.9328669 C176.272928,21.9781878 174.916567,24.0869938 173.606677,26.2125228 L173.438,26.488 L172.734622,26.4658182 C167.253921,26.3133516 161.611645,26.4475448 156.13658,27.0011258 L155.461472,27.0715363 C150.153997,27.6422225 145.375589,28.5658436 141.154255,29.9913241 L140.379,30.26 L139.987128,29.8775035 C138.013057,27.9534035 136.041635,26.0680991 134.10414,24.25894 L132.452469,22.7277511 C130.536914,20.9651526 128.664222,19.2893708 126.865669,17.7377555 L126.352714,17.29691 L125.346931,16.4428669 L124.367618,15.6257951 L123.414334,14.8458231 C123.257598,14.7189266 123.101928,14.5935813 122.947316,14.4697898 L122.032251,13.7457091 C121.88183,13.6281439 121.732447,13.5121379 121.584095,13.3976939 L120.706259,12.729794 C119.407817,11.7561232 118.191284,10.9094023 117.049975,10.1915866 C114.919709,8.85177624 112.961772,7.87954946 110.79872,7.28585288 C108.771422,6.72941686 106.669407,6.52869347 104.34776,6.93543553 C100.721665,7.57071102 97.4326921,9.65047778 95.3472825,12.9242642 C94.0205776,15.0097833 93.2629049,17.2278139 92.8269352,20.0917988 L92.7283525,20.7918204 C92.7129093,20.9106454 92.6979492,21.0305696 92.6834563,21.1516259 L92.6019791,21.8918119 L92.5309558,22.6607457 L92.4696267,23.4600048 L92.4172318,24.2911663 L92.3730115,25.1558076 C92.3662804,25.3027921 92.3598583,25.4512373 92.3537293,25.6011761 L92.3203462,26.5189945 L92.2817997,27.9663831 L92.2548077,29.5032969 C92.1740761,35.2956571 92.4547532,42.2745653 93.0557334,49.0086418 C93.7331377,56.5990621 94.7759144,63.533213 96.1687667,69.0869977 L96.3423117,69.7651701 C96.8622628,71.7562534 97.4340016,73.5848324 98.0770767,75.2590835 L98.334,75.909 L92.5111255,84.8674157 L86.9391908,93.4207738 L80.306129,103.567113 L76.0332098,110.06511 L72.8400744,114.874068 L71.6534907,116.633168 L70.951,117.648 L70.7933278,117.846055 C68.865939,120.31814 68.0360849,123.277096 68.1702054,126.152805 C68.2576452,128.02762 68.7082711,129.566825 69.3623721,130.96741 C69.9626591,132.252765 70.6250111,133.198701 71.4000788,134.108043 C72.1347794,134.970024 72.9475667,135.745873 73.9033438,136.557773 C75.4062675,137.834456 77.3868935,139.286356 79.6897177,140.800624 C85.0619701,144.333256 91.7825411,147.963922 99.2352892,151.191762 L100.150934,151.584875 C105.195401,153.731597 110.378393,155.623537 115.678063,157.229193 L117.22,157.685998 L116.778617,158.598591 L116.225107,159.723357 L115.638206,160.897511 C115.53764,161.097178 115.435707,161.298798 115.332419,161.502317 C113.052191,165.995326 110.49724,170.661322 107.723109,175.28044 L106.889583,176.655891 L106.053882,178.010027 C105.774983,178.457789 105.495768,178.901902 105.216284,179.34227 L104.377067,180.652039 L103.536509,181.938756 C103.396319,182.151255 103.256086,182.36277 103.115813,182.573288 L102.273764,183.824339 C101.992957,184.237305 101.712043,184.646187 101.431067,185.050889 L100.588,186.252358 C100.166421,186.846725 99.7448073,187.43147 99.3233153,188.006266 L98.4805399,189.142496 C94.1275172,194.943488 89.7986133,199.658976 85.6661678,202.929286 L85.2668728,203.241244 C72.3895651,213.177516 60.7748502,224.693256 52.4508784,236.709443 L52.0615878,237.275247 C41.8780511,252.178119 37.057041,267.343533 39.438015,282.243399 L39.47,282.436 L39.0519874,282.602701 C34.0080204,284.628856 29.0723195,287.069265 24.4379811,289.985645 C16.9312139,294.70964 10.7512811,300.349786 6.37739454,307.140421 C0.896476249,315.649767 -1.34813972,325.443579 0.274426006,336.024674 C2.04027769,347.563482 8.82653703,356.731864 19.2900529,363.341747 C27.5135195,368.536574 37.9051756,372.130552 50.216211,374.503984 C67.0243673,377.744411 85.7688636,378.552507 106.106757,377.894055 L108.88995,377.795267 C109.355451,377.777318 109.821766,377.758633 110.288893,377.739225 C125.601389,377.103033 141.606017,373.097122 153.009038,367.130407 C159.636028,363.662785 164.727509,359.575873 167.796999,354.548401 C172.44382,346.93744 171.725121,337.97046 165.503057,331.201056 L165.205502,330.883057 C164.50787,330.150776 163.78697,329.4864 163.044543,328.887659 L162.75,328.655 L163.191234,328.513693 L163.802709,328.325225 L164.477576,328.124835 L165.211364,327.913947 L165.999604,327.693987 L167.551,327.276 L167.772487,327.455563 C174.802173,333.03395 185.16937,334.147648 198.121674,330.449718 C211.70376,326.567216 221.08983,316.320989 226.869926,301.924936 C230.979719,291.688984 233.145298,279.76647 233.927249,266.823834 L233.968293,266.093226 L234.005579,265.322534 L234.039129,264.512805 L234.082493,263.227303 L234.117572,261.859847 L234.14444,260.413966 L234.163169,258.893188 L234.17561,256.755078 L234.175637,255.073263 L234.163407,252.733245 L234.137321,250.289351 L234.097552,247.749946 L234.044275,245.123393 L233.977665,242.418058 L233.919062,240.342386 L233.805141,236.804494 L233.671204,233.18271 L233.517593,229.49337 L233.416124,227.254134 L233.270132,224.245903 L233.112071,221.219529 L232.942116,218.183374 L232.713213,214.387171 L232.517135,211.359594 L232.256129,207.600578 L232.077255,205.179338 L231.795428,201.559761 L231.577306,198.907129 L231.353166,196.308044 L231.200294,194.605229 L230.886005,191.271815 L230.642571,188.835321 L230.392291,186.453674 L230.221533,184.89654 L229.959386,182.607026 L229.780524,181.111615 L229.598313,179.641062 L229.412693,178.195463 L229.223601,176.774914 L228.93332,174.691271 L228.735282,173.333769 L228.533557,172.001654 L228.328086,170.695023 L228.118806,169.413971 L227.905656,168.158596 L227.688575,166.928993 L227.467502,165.725258 L227.242375,164.547488 L227.013133,163.39578 L226.779714,162.270229 L226.542058,161.170931 L226.300104,160.097983 L226.053789,159.051482 L225.803053,158.031523 C225.760891,157.863747 225.718543,157.697081 225.676007,157.531527 L225.418524,156.551562 C225.375231,156.390464 225.331747,156.230482 225.288071,156.071618 L225.023702,155.131864 L224.754667,154.219037 C224.709436,154.069149 224.664007,153.920386 224.61838,153.772752 L224.342231,152.900498 C224.249381,152.614269 224.155727,152.332568 224.061261,152.055411 L223.77541,151.23759 C223.631254,150.835511 223.485244,150.443692 223.337347,150.062188 L223.039025,149.312949 L222.735607,148.591311 C222.174632,147.293669 221.587658,146.135669 220.972984,145.119982 L220.764,144.783 L221.373438,144.378901 C230.612758,138.188952 239.009444,130.688141 246.585927,122.188024 C251.970957,116.146516 256.560283,110.006271 260.381065,104.060327 C261.599631,102.16398 262.667057,100.398841 263.58508,98.7913337 L264.037269,97.9908189 L264.447189,97.2486274 L264.789426,96.6132831 L265.06416,96.0881841 L265.209903,95.8010435 L265.349586,95.5126654 C267.882382,90.11023 266.24183,83.6464875 261.397619,80.1120698 L223.551,52.499 L223.551791,52.0590932 C223.538344,43.7965246 223.223451,35.716179 222.46527,28.607975 L222.330116,27.3816028 L222.18915,26.186092 C222.165134,25.9893874 222.140848,25.7939501 222.116278,25.5997711 L221.965341,24.4497209 C221.939579,24.2605375 221.913506,24.0725939 221.887108,23.8858807 L221.724697,22.7802932 C221.585912,21.8711517 221.438289,20.9923096 221.28009,20.142612 L221.085062,19.1368904 C219.716163,12.3590436 217.589307,7.50981414 213.745552,3.95242946 L213.461223,3.69442928 C207.459744,-1.63639725 200.092491,-1.22046998 193.892496,2.42525842 Z" id="Sticker" fill="#FFFFFF" fill-rule="nonzero"></path>
            <g id="Cat" transform="translate(12.259231, 12.255172)">
                <path d="M168.090769,27.154828 C168.090769,27.154828 185.920769,-5.41517195 192.900769,0.784828045 C198.065969,5.38022805 198.773705,28.232612 198.79256,39.8052027 L198.792654,40.7182194 C198.787585,44.266748 198.720769,46.544828 198.720769,46.544828 L198.720769,46.544828 L241.770769,77.954828 C241.770769,77.954828 219.711615,122.064519 173.745591,134.91147 C185.344486,133.737734 194.9673,134.468288 197.950769,139.224828 C207.060769,153.774828 210.350769,234.624828 209.190769,253.814828 C208.030769,273.014828 202.790769,300.354828 182.430769,306.174828 C162.080769,311.984828 160.330769,300.934828 160.330769,300.934828 C160.330769,300.934828 156.719424,301.738499 152.796662,302.754325 L152.15833,302.92082 C151.94499,302.976876 151.731261,303.033458 151.517665,303.090473 L150.877796,303.262725 C148.749696,303.840605 146.68696,304.452447 145.210769,305.004828 C143.160369,305.774828 136.719121,305.867228 130.147929,305.729244 L129.251452,305.709042 C121.183113,305.515128 113.210769,305.004828 113.210769,305.004828 C119.610769,309.664828 112.050769,311.984828 88.2007691,315.474828 C69.2613972,318.24625 53.6263725,304.514854 45.0764497,285.63292 C36.9725005,290.606439 22.2370731,301.262402 20.1507691,314.024828 C17.2407691,331.764828 37.8907691,327.984828 77.4407691,335.544828 C117.000769,343.104828 134.150769,316.644828 144.040769,327.404828 C153.930769,338.164828 125.430769,351.834828 97.5107691,352.994828 C69.5907691,354.154828 5.31076905,354.154828 0.370769054,321.874828 C-4.57923095,289.594828 41.6707691,278.544828 41.6707691,278.544828 L41.6707691,278.544828 L42.3973705,278.88454 C41.4132124,276.025777 40.583955,273.088025 39.9207691,270.104828 C34.1107691,243.934828 60.2807691,216.594828 80.6407691,200.884828 C101.000769,185.184828 117.670769,147.764828 117.670769,147.764828 C117.670769,147.764828 134.492178,142.30898 152.8261,138.373636 C104.102108,141.694919 67.3328516,114.342124 68.4207691,113.244828 C68.9823691,112.688028 76.5112651,101.231004 84.1894603,89.4662578 L85.1495191,87.994828 C93.1482691,75.732328 101.000769,63.614828 101.000769,63.614828 C92.8607691,59.734828 90.9207691,11.644828 93.6307691,7.38482805 C96.2963691,3.20022805 124.652669,32.168636 125.785855,33.3290462 L125.820769,33.364828 C136.680769,24.054828 168.090769,27.154828 168.090769,27.154828 Z" id="Fur" fill="#15101B"></path>
                <g id="Face" transform="translate(88.770769, 74.722274)">
                    <g id="Eye-2" transform="translate(79.030000, 0.000000)">
                        <path d="M0,23.402554 C0,23.402554 1.55,-3.25744604 31.5,0.332553963 C31.5,0.332553963 39.55,32.122554 0,23.402554" id="Fill-1880" fill="#D9E26B"></path>
                        <path d="M14.15,4.88255396 C14.15,4.88255396 9.11,13.122554 15.02,21.272554 C15.02,21.272554 24.33,11.472554 14.15,4.88255396" id="Fill-1881" fill="#191913"></path>
                    </g>
                    <g id="Eye-1" transform="translate(20.866221, 4.020000)">
                        <path d="M32.1737787,23.402554 C32.1737787,23.402554 30.6237787,-3.25744604 0.673778727,0.332553963 C0.673778727,0.332553963 -7.37622127,32.132554 32.1737787,23.402554" id="Fill-1882" fill="#D9E26B"></path>
                        <path d="M18.0237787,4.89255396 C18.0237787,4.89255396 23.0637787,13.132554 17.1537787,21.272554 C17.1537787,21.272554 7.84377873,11.482554 18.0237787,4.89255396" id="Fill-1883" fill="#191913"></path>
                    </g>
                    <path d="M66.3652922,22.3784561 C66.4463668,22.3787179 66.5274611,22.379104 66.6085423,22.3796094 L67.0946087,22.3840322 C67.175506,22.3849944 67.2563244,22.3860659 67.3370313,22.3872415 L67.8196705,22.3955048 C69.3421244,22.4253757 70.8005952,22.4892206 71.97,22.552554 C73.12,22.622554 73.74,23.912554 73.09,24.862554 L73.09,24.862554 L69.01,30.762554 C68.798852,31.0690591 68.5351256,31.3137071 68.2403549,31.4947426 L68.9309834,38.2809003 C70.4685318,38.1789746 71.9748707,37.7078596 73.45,36.612554 C75.13,35.372554 76.79,33.292554 78.23,29.892554 L78.23,29.892554 L80.98,31.062554 C79.4,34.802554 77.44,37.382554 75.23,39.012554 C73.03,40.652554 70.6,41.302554 68.32,41.2926675 C64.73,41.282554 61.48,39.812554 59.1,38.412554 C56.72,36.992554 55.19,35.602554 55.14,35.552554 L55.14,35.552554 L57.15,33.352554 L57.16,33.352554 L57.2,33.392554 L57.38,33.542554 C57.53,33.672554 57.77,33.872554 58.07,34.102554 C58.68,34.582554 59.56,35.212554 60.62,35.842554 C62.1157087,36.7315129 63.9698065,37.5955837 65.8943234,38.0238823 L65.23,31.402554 L65.3708822,31.3888348 C65.2399761,31.2941177 65.1156905,31.1854111 65,31.062554 L65,31.062554 L58.96,24.662554 C57.1152381,23.0035063 60.5589116,22.482622 64.6768697,22.3929513 L65.1547485,22.3844782 C65.3949216,22.3811582 65.6367484,22.379183 65.8793427,22.3784168 Z" id="Mouth" fill="#A392BA"></path>
                    <path d="M91.11,28.522554 L134.73,21.252554 L134.61,20.512554 L90.99,27.782554 M92.49,34.342554 L123.61,35.212554 L123.63,34.472554 L92.51,33.592554 M45.11,35.052554 L0.03,33.592554 L0,34.342554 L45.08,35.792554 M46.15,38.842554 L17.94,46.992554 L18.15,47.702554 L46.36,39.562554" id="Mustache" fill="#FFF8F1"></path>
                </g>
                <path d="M94.7807691,235.934828 C94.7869229,235.937905 94.8173963,235.952284 94.870364,235.978242 L95.0267304,236.056305 C95.9906581,236.545494 99.6282691,238.526559 103.340769,242.394828 C107.620769,246.854828 112.000769,253.904828 112.300769,263.964828 C112.333846,265.087136 112.369881,266.216367 112.408425,267.347982 L112.455852,268.706776 C112.472043,269.159895 112.488607,269.613105 112.505514,270.066116 L112.557237,271.424261 C112.704048,275.204737 112.872847,278.951005 113.046795,282.4935 L113.090769,282.474828 C113.090769,282.474828 113.140769,282.614828 113.250769,282.874828 C113.360769,283.124828 113.530769,283.504828 113.740769,283.984828 C114.160769,284.924828 114.760769,286.264828 115.520769,287.794828 C117.020769,290.864828 119.100769,294.744828 121.360769,297.934828 C122.860769,300.054828 124.460769,301.854828 125.920769,302.894828 C126.760769,303.484828 127.530769,303.814828 128.180769,303.894828 L128.180769,303.894828 L127.910769,306.124828 C126.750769,305.974828 125.660769,305.454828 124.620769,304.724828 C123.590769,303.984828 122.600769,303.024828 121.630769,301.924828 C119.720769,299.714828 117.920769,296.934828 116.350769,294.184828 C115.206314,292.177461 114.18753,290.190148 113.354545,288.475128 C113.640942,293.81355 113.914679,298.331223 114.100769,301.274828 C114.240769,303.594828 114.330769,304.924828 114.330769,304.934828 L114.330769,304.934828 L112.100769,305.084828 C112.100769,305.076228 111.020953,289.151436 110.349692,272.28321 L110.303542,271.105015 L110.303542,271.105015 L110.258829,269.924888 C110.236851,269.33453 110.215454,268.743871 110.194702,268.153548 L110.154077,266.973536 C110.120969,265.990878 110.089769,265.010328 110.060769,264.034828 C109.780769,254.754828 105.850769,248.334828 101.900769,244.144828 C97.9607691,239.954828 94.0107691,238.044828 93.8407691,237.964828 L93.8407691,237.964828 Z M143.330769,295.754828 C143.410769,295.764828 144.100769,295.864828 144.970769,296.304828 C145.830769,296.744828 146.900769,297.554828 147.610769,298.934828 C148.070769,299.844828 148.360769,301.004828 148.360769,302.394828 L148.360769,302.394828 L146.120769,302.394828 C146.120769,301.374828 145.930769,300.624828 145.660769,300.064828 C145.390769,299.494828 145.050769,299.094828 144.680769,298.784828 C143.960769,298.174828 143.130769,297.994828 143.010769,297.974828 L143.010769,297.974828 Z M154.840769,300.654828 C154.820769,300.574828 154.800769,300.434828 154.750769,300.244828 C154.650769,299.854828 154.450769,299.264828 154.080769,298.464828 C153.340769,296.874828 151.880769,294.504828 149.050769,291.524828 C148.610769,291.054828 148.310769,290.474828 148.020769,289.774828 C147.750769,289.064828 147.500769,288.234828 147.270769,287.264828 C146.810769,285.334828 146.420769,282.864828 146.080769,279.984828 C145.400769,274.214828 144.910769,266.774828 144.570769,258.774828 C144.39188,254.624087 144.250632,250.322112 144.139531,246.026609 L144.09374,244.186536 C143.829808,233.153989 143.758139,222.313211 143.751326,214.345685 L143.75158,211.532064 C143.757505,206.022515 143.794033,202.385802 143.799958,201.821607 L143.800716,201.750091 L143.800716,201.750091 L143.800769,201.744828 L146.040769,201.774828 C146.040769,201.774828 146.04075,201.776907 146.040712,201.781047 L146.039862,201.873377 C146.036988,202.183448 146.027291,203.215698 146.010769,204.834828 C146.002348,206.485354 145.993927,208.745742 145.991478,211.466699 L145.991323,214.322251 C145.999401,223.665697 146.098991,236.995272 146.490769,249.904828 L146.490769,249.904828 L146.537693,251.40506 C146.956325,264.387558 147.688176,276.803717 148.920769,284.054828 C149.280769,286.204828 149.690769,287.904828 150.110769,288.944828 C150.330769,289.504828 150.560769,289.874828 150.670769,289.984828 C156.640769,296.234828 157.070769,300.294828 157.090769,300.554828 L157.090769,300.554828 L155.405769,300.688828 L154.850769,300.734828 Z M130.190769,298.274828 L130.130769,297.634828 L130.180769,298.274828 L130.190769,298.274828 L130.130769,297.634828 L130.180769,298.274828 C130.180769,298.274828 130.250769,298.264828 130.390769,298.264828 C130.890769,298.264828 132.220769,298.354828 133.610769,299.154828 C135.000769,299.954828 136.500769,301.424828 137.450769,304.464828 L139.590769,303.804828 C138.520769,300.294828 136.580769,298.264828 134.720769,297.204828 C132.860769,296.144828 131.140769,296.024828 130.390769,296.024828 C130.150769,296.024828 130.010769,296.034828 129.980769,296.034828 L130.190769,298.274828 M177.750769,296.214828 L178.970769,298.094828 L178.950769,298.114828 L178.850769,298.174828 C178.770769,298.234828 178.640769,298.324828 178.490769,298.444828 C178.170769,298.674828 177.730769,299.014828 177.240769,299.454828 C176.260769,300.314828 175.100769,301.534828 174.370769,302.864828 C173.880769,303.754828 173.590769,304.664828 173.590769,305.564828 C173.590769,305.794828 173.610769,306.024828 173.650769,306.264828 L173.650769,306.264828 L171.440769,306.654828 C171.380769,306.284828 171.350769,305.914828 171.350769,305.564828 C171.350769,304.174828 171.790769,302.894828 172.410769,301.784828 C173.030769,300.664828 173.820769,299.684828 174.610769,298.864828 C176.180769,297.244828 177.710769,296.244828 177.750769,296.214828 L177.750769,296.214828 Z M167.530769,294.224828 L169.420769,295.434828 L169.400769,295.454828 L169.340769,295.554828 C169.290769,295.644828 169.210769,295.774828 169.110769,295.934828 C168.920769,296.264828 168.650769,296.744828 168.340769,297.324828 C167.740769,298.474828 167.020769,300.034828 166.550769,301.564828 C166.240769,302.594828 166.050769,303.604828 166.050769,304.454828 C166.050769,304.704828 166.060769,304.924828 166.090769,305.134828 L166.090769,305.134828 L163.870769,305.454828 C163.830769,305.124828 163.810769,304.794828 163.810769,304.454828 C163.810769,303.274828 164.060769,302.074828 164.410769,300.914828 C164.760769,299.754828 165.230769,298.634828 165.680769,297.644828 C166.494615,295.910982 167.300636,294.591884 167.48965,294.289793 L167.524562,294.234453 L167.524562,294.234453 L167.530769,294.224828 Z M178.410769,194.424828 L180.640769,194.554828 C180.640769,194.562028 179.453633,214.36174 177.82959,235.201985 L177.693257,236.940678 C177.647487,237.520778 177.601395,238.101278 177.554999,238.681778 L177.414911,240.422872 L177.414911,240.422872 L177.273089,242.161548 C176.797569,247.950428 176.294769,253.658828 175.780769,258.884828 C174.920769,267.604828 174.040769,274.964828 173.180769,279.204828 C172.950769,280.344828 172.730769,281.254828 172.480769,281.954828 C172.350769,282.324828 172.220769,282.624828 172.040769,282.924828 C170.740769,284.964828 168.790769,286.584828 166.930769,288.224828 C165.060769,289.864828 163.270769,291.524828 162.180769,293.444828 C161.460769,294.734828 161.020769,296.114828 161.020769,297.784828 C161.020769,298.654828 161.140769,299.594828 161.410769,300.644828 L161.410769,300.644828 L159.250769,301.224828 C158.920769,300.004828 158.770769,298.864828 158.770769,297.784828 C158.770769,296.224828 159.090769,294.814828 159.630769,293.554828 C160.170769,292.294828 160.920769,291.174828 161.760769,290.164828 C163.460769,288.154828 165.530769,286.524828 167.280769,284.924828 C168.450769,283.854828 169.460769,282.804828 170.140769,281.724828 C170.220769,281.624828 170.410769,281.144828 170.590769,280.464828 C170.780769,279.774828 170.980769,278.854828 171.180769,277.754828 C171.580769,275.564828 171.990769,272.634828 172.410769,269.204828 C173.240769,262.334828 174.080769,253.444828 174.850769,244.204828 C174.924579,243.325304 174.997799,242.442628 175.070372,241.558241 L175.232546,239.56609 C175.250438,239.344554 175.268288,239.122978 175.286094,238.901386 L175.392392,237.571808 C175.410018,237.350238 175.427598,237.128696 175.445132,236.907204 L175.601649,234.915754 C176.808825,219.446772 177.774102,204.556495 178.190769,197.964828 C178.330769,195.704828 178.410769,194.424828 178.410769,194.424828 L178.410769,194.424828 Z" id="Legs" fill="#FFF8F1"></path>
            </g>
            <path d="M129.93,160.02 C129.93,160.02 179.76,176.88 210.21,151.48 C209.403333,142.493333 208.333333,138 207,138 C205,138 199,145 171,148 C143,151 133,147 131.29,147.99 C130.15,148.65 129.696667,152.66 129.93,160.02 Z" id="Collar" fill="#E8D365"></path>
            <g transform="translate(155.845277, 159.381574)" fill="#F6F1D5" id="Halloween/Features/Crane">
                <path d="M28.3029822,5.78943887 C28.3137548,7.27750656 28.318782,8.16891978 28.321128,8.67683737 L28.3218881,8.84974644 C28.3219958,8.87570733 28.3220946,8.90027428 28.3221851,8.92349931 L28.3229242,9.14111881 C28.3229609,9.15444124 28.3229923,9.16662992 28.3230192,9.1777369 L28.3231808,9.27207932 L28.3231808,9.27207932 C28.3231808,9.27207932 32.9082587,12.5640276 31.0095921,17.9736622 C31.0095921,17.9736622 31.0567946,18.0582842 31.1351297,18.2115205 L31.2095236,18.3592961 C31.9680303,19.8883989 34.4251722,25.516115 30.3531382,27.046593 C29.1981091,27.4791835 28.3259443,27.8058335 27.6673709,28.0524876 L27.3555628,28.1692684 C25.9314198,28.7026496 25.687281,28.7940863 25.6454286,28.8097612 L25.6393351,28.8120434 C25.6367695,28.8130043 25.6367695,28.8130043 25.6367695,28.8130043 L26.7173936,34.5638774 L22.3343014,35.2865003 L21.0819894,30.2381771 L20.7689114,37.5547329 L16.7392944,38.2773557 L16.7089966,32.5264826 L14.4568547,37.4142229 L10.9423016,37.2636765 L11.0836917,30.2883592 L9.18502504,35.8786495 L5.48868466,33.8111454 L6.50871302,28.2308915 C6.50871302,28.2308915 -2.79273366,27.5785237 0.843010972,18.8468315 C0.843010972,18.8468315 -0.77287553,11.7109313 3.9434932,9.76386429 C3.9434932,9.76386429 3.87267722,9.59050103 3.79369248,9.28864419 L3.75688607,9.14036522 C3.37527396,7.51724656 3.02708094,3.12848206 9.50820234,0.841479947 C17.557337,-1.9887927 28.2928829,2.99931193 28.3029822,5.78943887 Z M15.3152945,23.9353004 C13.1035498,25.9225131 15.7899611,25.2099267 15.7899611,25.2099267 C15.7899611,25.2099267 17.4361455,26.4745166 18.2440887,25.310291 L18.2440887,25.310291 Z M8.41747895,13.6278536 C6.56930876,13.6479619 5.09481233,15.785721 5.10486005,18.4152651 C5.1251102,21.0448092 6.62990451,23.1725319 8.4679754,23.1625308 C10.3060463,23.152459 11.790642,21.0046635 11.7704434,18.3751194 C11.7603441,15.7455753 10.2555498,13.6178526 8.41747895,13.6278536 Z M23.2735355,14.4809437 C21.5566561,14.4910218 20.1831525,16.3176517 20.1931965,18.5658115 C20.2033511,20.8039349 21.6071525,22.6205283 23.3139326,22.6105333 C25.030812,22.6004555 26.4043156,20.7738256 26.3942716,18.5256658 C26.3740177,16.2775059 24.9803156,14.4709489 23.2735355,14.4809437 Z" id="Crane"></path>
            </g>
        </g>
        <g id="Group" transform="translate(251.000000, 329.010989)">
            <g id="Halloween/Stuffs/Hat" transform="translate(163.000000, 136.000000) scale(-1, 1) translate(-163.000000, -136.000000) ">
                <path d="M143.031368,2.99018633 C163.578282,-2.53070333 188.207115,3.18479756 208.506394,19.2484714 C213.413635,23.1354737 216.855033,29.2987707 219.601684,38.0179536 L219.956067,39.169756 C220.248207,40.1417084 220.532536,41.1440016 220.810043,42.1769946 L221.13984,43.4313451 C221.194282,43.6428672 221.248466,43.855623 221.302402,44.0696154 L221.623088,45.3684322 L221.938176,46.6970654 L222.248046,48.0556531 L222.553078,49.444333 L222.853653,50.8632431 L223.176675,52.4489097 L223.493294,54.0707396 C223.545533,54.3440415 223.597507,54.6188377 223.649218,54.895122 L223.956323,56.5706344 L224.257146,58.28156 C224.306763,58.5696487 224.356119,58.8592004 224.405217,59.1502089 L224.696707,60.9136917 C224.792841,61.5073131 224.887948,62.1067117 224.982036,62.7118375 L225.261251,64.5443463 L225.534401,66.410918 L225.801535,68.3112525 L226.0627,70.2450498 C226.105733,70.5701212 226.148519,70.8965744 226.19106,71.2244032 L226.443363,73.207832 C226.484924,73.5411378 226.526243,73.8758067 226.567318,74.2118323 L226.810868,76.2442175 C226.850977,76.5856453 226.890845,76.9284173 226.930474,77.2725273 L227.165378,79.3531937 L227.39458,81.4656724 L227.618127,83.6096635 L227.836067,85.7848669 L228.04845,87.9909824 L228.255322,90.22771 L228.456733,92.4947497 L228.652731,94.7918013 C230.483634,116.689429 231.426538,139.916944 231.772424,160.74688 L231.808,163.034 L231.868143,163.121151 C232.702743,164.362334 233.315676,165.754653 233.663915,167.237831 L233.752294,167.644541 L233.817454,167.99653 L233.94008,168.753601 L234.044436,169.445778 C234.172916,170.321886 234.299894,171.276601 234.419277,172.294355 C234.753959,175.147539 234.978228,178.038431 235.037054,180.866986 C235.119106,184.812389 234.88035,188.374089 234.166804,191.603271 C233.870389,192.94471 233.49874,194.230347 233.034398,195.44856 L232.784,196.074 L232.836313,196.200857 C235.077568,201.561137 239.146986,204.701158 246.236496,205.868788 L246.665501,205.936481 L247.09335,205.998285 C268.636852,208.970436 288.902399,215.51707 306.44453,223.521576 L307.765,224.129 L308.122478,224.248701 C311.550299,225.405449 314.218954,226.54619 316.413291,227.946736 L316.795662,228.196644 L317.131663,228.426451 C323.306826,232.74759 326.306006,239.829913 324.269425,247.179884 C322.812794,252.43683 319.181499,256.606394 314.158909,260.017323 C306.136239,265.465658 293.980798,269.184322 280.150023,270.367549 C275.84057,270.736053 271.302733,270.825913 266.559108,270.665784 C256.636814,270.330842 246.182162,268.932277 235.685319,266.81379 C231.824484,266.034591 228.194447,265.204086 224.870435,264.366841 L223.593739,264.041123 L222.204968,263.677179 L220.502427,263.214083 L219.632551,262.967113 L219.280091,262.863841 L219.004755,262.778698 L217.195361,262.147376 L214.855673,261.314477 L211.719094,260.183407 L208.34939,258.951699 L207.473609,258.62891 C199.063495,255.523987 190.649071,252.271791 182.765713,249.02012 C181.964448,248.689621 181.172519,248.360674 180.390215,248.033352 L178.072467,247.056333 C177.691085,246.894333 177.312181,246.732756 176.935791,246.571613 L174.707922,245.610024 C173.609365,245.131899 172.534091,244.657833 171.483076,244.188068 L169.746998,243.406017 L168.385747,242.78404 L167.057996,242.169216 L165.763751,241.561357 L164.503014,240.960276 L163.275791,240.365787 L162.082086,239.777702 C161.885929,239.680212 161.691168,239.58298 161.497804,239.486003 L160.354384,238.907174 L159.244493,238.334281 C158.880118,238.144285 158.521332,237.955248 158.168135,237.767137 L157.125315,237.205556 L156.116036,236.64935 C155.785201,236.464823 155.459957,236.281161 155.140305,236.098333 L154.198123,235.552316 C153.581187,235.18993 152.986621,234.830754 152.414431,234.474537 L151.572928,233.942401 L150.764994,233.414518 C149.446413,232.538153 148.267718,231.678727 147.229,230.832345 C144.655379,228.73527 140.834318,228.077115 135.909524,228.834926 C133.851792,229.151563 131.795923,229.692894 129.876009,230.367016 C129.33011,230.558693 128.829423,230.749257 128.381534,230.931831 L127.936431,231.117921 L127.544903,231.290957 L127.521365,231.302403 C123.305616,233.352388 118.30728,232.867912 114.568812,230.071354 L105.057543,222.549605 C104.937844,222.454869 104.810842,222.360486 104.676319,222.266402 L104.397182,222.078616 C104.348967,222.047379 104.2999,222.016172 104.249974,221.984992 L103.940035,221.798221 L103.609081,221.612007 L103.256725,221.426253 L102.882585,221.240864 L102.486274,221.055744 L102.067407,220.870796 L101.6256,220.685925 L101.160468,220.501034 C101.080981,220.470212 101.000506,220.439385 100.919035,220.408551 L100.418194,220.223451 L99.8930649,220.038091 L99.3432638,219.852375 L98.4714597,219.572924 L97.858294,219.385899 L97.2191089,219.198181 L96.5535194,219.009676 L95.8611408,218.820286 L95.1415881,218.629917 L94.0104656,218.342315 L92.8160364,218.051967 L91.5570014,217.75855 L90.2320617,217.461739 L89.3115132,217.261819 L87.8738455,216.958631 L85.8488237,216.5477 L83.6974003,216.128431 L81.4164964,215.700054 L78.452234,215.163942 L67.3915309,213.2061 L64.2421442,212.633543 L62.0270488,212.221056 L59.9073793,211.816796 L58.5337132,211.549066 L55.8444216,211.010325 C43.4282825,208.475253 31.688192,200.727228 20.3715277,189.518065 C15.8310076,185.020677 11.6607033,180.243213 7.92477195,175.46454 L7.07192381,174.363505 C6.93334234,174.182903 6.79655021,174.003784 6.66156154,173.826198 L5.87338371,172.779464 C5.74566526,172.608204 5.61977846,172.438574 5.49573742,172.270622 L4.77375322,171.283446 L3.967,170.155 L3.86656587,170.045229 C1.49168946,167.361541 0.257250162,163.6211 1.24164387,159.279187 L1.3314795,158.905561 L1.38477129,158.701766 L1.55624531,158.095445 C5.53033999,144.561699 17.9965492,133.611942 33.7504414,131.864972 L34.3309506,131.805208 L34.8920462,131.75493 L35.1823361,131.732693 L35.7849294,131.69598 L36.4169334,131.669551 L37.0784191,131.653324 L37.7694578,131.647219 C37.8870976,131.647041 38.0059718,131.647281 38.1260818,131.647937 L38.8615833,131.656866 L39.6268157,131.675717 L40.4218502,131.704409 L41.2467578,131.742863 L42.1016097,131.790999 L42.9864772,131.848736 L43.9014313,131.915994 L44.8465432,131.992694 L45.8218841,132.078754 L47.3417304,132.225221 L48.3929551,132.334333 L49.4746578,132.452525 L51.1545139,132.646664 L52.9033458,132.860782 L54.7213937,133.09461 L56.6088978,133.347878 L59.2340281,133.715338 L61.2845307,134.01291 L64.8582797,134.549925 L66.7195653,134.837858 L69.2131086,135.231948 L71.0500184,135.527873 L73.678549,135.958957 L76.356921,136.40673 C76.807281,136.482705 77.2595761,136.559341 77.7137354,136.636623 C83.0807398,137.549892 88.5058425,138.517931 93.7883939,139.49377 L97.8133233,140.243863 L101.653756,140.972604 L104.425032,141.508525 L104.766967,141.58069 C107.703036,142.243339 112.052131,141.762144 117.335511,140.119694 L117.849706,139.957121 L118.048,139.892 L118.302262,139.651761 C121.483653,136.663552 124.879265,133.819825 128.41537,131.32961 L129.302281,130.714542 L130.194789,130.114929 C135.68011,126.489737 140.97971,124.035491 146.272288,123.265405 L146.819778,123.191769 L146.921,123.179 L150.870073,118.814596 L155.550444,113.619479 L157.339,111.625 L157.115431,111.809727 C148.559477,118.722653 137.939592,123.565203 126.937,124.71401 C117.364832,125.71648 109.034171,122.115084 103.200292,114.93778 C98.8162335,109.544162 96.0673926,102.517187 94.4644058,94.0988012 C92.1307012,81.8429149 92.3082575,66.4456396 94.1774673,52.5991606 C95.8951848,39.8792749 102.935775,28.4783424 113.469813,19.2136372 C122.18373,11.5497314 133.036737,5.68270835 143.031368,2.99018633 Z" id="Sticker" fill="#FFFFFF" fill-rule="nonzero"></path>
                <g id="Hat" transform="translate(13.465026, 13.458905)">
                    <path d="M44.88,185.304095 C68.36,190.096095 90.11,191.976095 99.35,199.289095 C108.59,206.602095 108.59,206.602095 108.59,206.602095 C108.59,206.602095 128.38,196.862095 141.66,207.683095 C154.94,218.504095 209.37,237.421095 209.37,237.421095 C209.37,237.421095 240.36,246.614095 265.62,244.454095 C290.88,242.293095 304.904974,231.398095 296.534974,225.541095 C288.154974,219.684095 233.63,210.300095 233.63,210.300095 L112.94,160.783095 C112.94,160.783095 47.9741117,135.595229 15.5349741,138.541095 C7.08145886,139.308776 2.64193973,143.134385 0,148.456095 C0,148.456095 21.41,180.512095 44.88,185.304095 Z" id="Fill-880" fill="#16101C"></path>
                    <path d="M205.94,159.343095 L138.87,122.356095 C138.87,122.356095 154.35,105.338095 160.49,98.2660948 C166.63,91.1920948 173.6,44.8130948 158.21,22.9540948 C147.03,7.05409478 130.16,14.5220948 118.36,23.8860948 C113.94,27.3980948 110.23,31.1760948 107.8,34.0910948 C98.88,44.7720948 105.79,53.9560948 113.14,61.3970948 C120.49,68.8480948 132.14,61.9600948 136.1,56.1770948 C140.05,50.3990948 134.27,46.4480948 128.5,42.4900948 C123.16,38.8420948 121.22,46.5800948 120.94,47.7950948 C125.95,21.5260948 145.18,42.4900948 149.72,58.4450948 C154.26,74.4320948 134.38,96.5040948 112.17,98.8230948 C89.96,101.149095 90.36,61.1100948 93.1,40.8130948 C95.84,20.5230948 117.55,5.71409478 132.81,1.60309478 C148.08,-2.49990522 168.8,0.964094783 187.28,15.5880948 C205.75,30.2180948 205.94,159.343095 205.94,159.343095" id="Fill-881" fill="#725291"></path>
                    <path d="M30.8,141.543095 C55.57,148.520095 141.53,181.712095 141.53,181.712095 L138.68,173.569095 C138.68,173.569095 207.82,212.213095 224.72,218.514095 C248.68,227.443095 280.964974,221.234095 296.534974,225.541095 C277.711658,215.141095 256.173333,208.268095 231.92,204.922095 C195.54,199.901095 206.11,156.298095 206.11,156.298095 L138.86,122.356095 C138.86,122.356095 108.4,144.795095 88.55,140.315095 C88.55,140.315095 34.75,129.744095 22.45,130.754095 C10.15,131.764095 2.19,140.527095 0,148.456095 C0,148.456095 6.03,134.567095 30.8,141.543095 Z" id="Fill-882" fill="#392555"></path>
                    <path d="M159.19,132.615095 L138.92,122.382095 L138.87,122.356095 C138.87,122.356095 154.35,105.338095 160.49,98.2660948 C163.87,94.3700948 167.5,78.5500948 167.52,61.4710948 C167.52,47.5410948 165.12,32.7740948 158.21,22.9540948 C153.49,16.2440948 147.76,13.6950948 141.82,13.6950948 C133.69,13.6950948 125.18,18.4730948 118.36,23.8860948 C120.98,20.6170948 132.36,7.47109478 146.1,7.47109478 C149.77,7.47109478 153.61,8.40909478 157.5,10.7250948 C177.98,22.9280948 181.49,68.7630948 174.46,96.1400948 C168.72,118.495095 161.61,129.373095 159.19,132.615095" id="Fill-883" fill="#684589"></path>
                </g>
                <g id="Belt" transform="translate(122.585026, 135.546681)">
                    <path d="M49.56,11.193319 L29.8,0.294319032 L50.07,10.527319 C49.86,10.804319 49.69,11.025319 49.56,11.193319" id="Fill-884" fill="#392555"></path>
                    <path d="M0,17.488319 C0,17.488319 18.26,-2.52568097 29.74,0.267319032 C41.23,3.06131903 98.91,34.549319 98.91,34.549319 C98.91,34.549319 103.01,58.296319 95.06,58.572319 C87.12,58.848319 31.86,37.713319 0,17.488319" id="Fill-885" fill="#E0572A"></path>
                    <path d="M69.73,29.140319 C66.93,40.059319 56.48,46.813319 46.4,44.225319 C36.32,41.637319 30.43,30.687319 33.23,19.767319 C36.03,8.84731903 46.48,2.09431903 56.56,4.68231903 C66.64,7.27031903 72.54,18.221319 69.73,29.140319" id="Fill-886" fill="#F0AA2E"></path>
                    <path d="M64.04,28.471319 C61.9,36.814319 53.92,41.974319 46.22,39.997319 C38.52,38.019319 34.01,29.653319 36.15,21.309319 C38.3,12.966319 46.28,7.80631903 53.98,9.78431903 C61.68,11.761319 66.19,20.128319 64.04,28.471319" id="Fill-887" fill="#16101C"></path>
                    <path d="M64.22,27.869319 C62.45,34.780319 55.84,39.054319 49.46,37.416319 C43.08,35.778319 39.35,28.848319 41.12,21.937319 C42.9,15.026319 49.51,10.752319 55.89,12.390319 C62.27,14.028319 66,20.958319 64.22,27.869319" id="Fill-888" fill="#E0572A"></path>
                </g>
            </g>
        </g>
    </g>
</svg>