<?xml version="1.0" encoding="UTF-8"?>
<svg width="251px" height="315px" viewBox="0 0 251 315" version="1.1" xmlns="http://www.w3.org/2000/svg" xmlns:xlink="http://www.w3.org/1999/xlink">
    <title>decoration-19</title>
    <g id="decoration-19" stroke="none" stroke-width="1" fill="none" fill-rule="evenodd">
        <g id="Group">
            <path d="M238.650935,280.251666 L239.32971,278.877577 C239.639748,278.246166 239.915997,277.658672 240.183728,277.056653 L240.319,276.747 L240.647274,276.024545 L241.028448,275.166455 L241.420547,274.266497 L241.830114,273.31073 L242.106266,272.656325 L242.369085,272.00385 L242.76754,270.986792 L243.196286,269.861213 L243.55838,268.893939 L244.121351,267.262133 L244.303583,266.716082 L244.577135,265.919047 L244.861047,265.050454 L245.145587,264.150385 C245.547667,262.904917 245.910241,261.638751 246.270909,260.249574 L246.398857,259.745169 C247.027675,257.413707 247.574388,255.017302 248.040206,252.570095 L248.3491,250.859418 L248.506214,249.929508 L248.633223,249.142695 L248.703244,248.678243 L248.793632,248.017899 L248.839,247.645 L248.869742,247.453197 C249.095611,245.959567 249.261431,244.452754 249.411169,242.676359 L249.453,242.155 L249.488452,241.786633 C249.58762,240.698572 249.651956,239.801581 249.686047,238.895308 L249.696,238.577 L249.72651,238.147892 L249.7475,237.742215 L249.759646,237.335438 L249.76,237.191 L249.80723,236.104828 L249.827495,235.489933 C249.83014,235.392042 249.832417,235.296006 249.834324,235.201163 L249.84131,234.641153 L249.841,234.406 L249.852044,234.007059 L249.860112,233.259328 L249.860112,232.661261 L249.810201,230.248595 L249.779275,229.369732 L249.762002,229.0427 L249.757,229.014 L249.771548,228.464352 L249.559201,225.48109 L249.480767,224.523699 C249.467311,224.370298 249.453597,224.21943 249.439525,224.070268 L249.396138,223.62708 C249.259905,222.199571 249.082525,220.662275 248.87884,219.145956 C248.790376,218.5122 248.6961,217.88132 248.593847,217.235649 L248.378059,215.919349 L248.137143,214.532197 L247.913511,213.349442 C247.453334,210.99067 246.915358,208.670369 246.293642,206.353253 L246.096,205.635 L246.066817,205.502883 L245.965807,205.103157 L245.84831,204.682154 L245.776,204.438 L245.760501,204.372848 L245.708452,204.188784 C244.479982,199.844469 242.889614,195.509161 240.917562,191.036828 C239.090621,186.928824 237.015862,182.964601 234.67158,179.053596 L234.013946,177.986374 C214.112236,146.1189 178.719744,127.699709 141.894127,128.975207 L141.477,128.992 L124.868736,76.4424665 L110.603,35.868 L110.617875,35.8344728 C113.134164,29.7098379 113.206402,22.6372715 110.362448,16.2052455 C104.762428,3.56519135 89.9988752,-2.13497426 77.3668072,3.46151155 L16.0550806,30.6053589 L15.6246799,30.8035484 C3.36956312,36.6021401 -2.03945616,51.1169522 3.46150986,63.5334183 L3.62388375,63.8930354 C6.15274741,69.3791535 10.4746788,73.5734683 15.6312947,76.0124854 L15.796,76.089 L39.082,111.28 L68.818,162.509 L68.2272099,163.153897 C43.0086238,190.967045 34.3472845,230.827583 46.8621896,267.142792 C47.7775346,269.867933 48.8861468,272.701373 50.1374676,275.516844 C52.05092,279.844951 54.1805079,283.937266 56.5563818,287.821989 C83.6969231,332.15766 139.801187,349.888242 187.752394,328.649169 C191.862056,326.833035 195.834734,324.758402 199.61086,322.456733 L200.529013,321.889544 C203.171954,320.270742 205.766846,318.496626 208.395674,316.530926 C210.848459,314.696861 213.247731,312.702661 215.664888,310.511741 C216.818953,309.460564 217.937336,308.390559 219.058947,307.268948 C224.524743,301.856731 229.39063,295.778652 233.571773,289.174563 L234.428525,287.805363 L234.966285,286.929881 C235.308227,286.365345 235.62099,285.831769 235.928279,285.285468 L236.112,284.954 L235.997793,285.154854 C236.919556,283.580175 237.803884,281.943606 238.650935,280.251666 Z" id="Path" fill="#FFFFFF" fill-rule="nonzero"></path>
            <g transform="translate(25.813603, 11.813605)" id="Halloween/Features/Potion-1">
                <g transform="translate(93.500000, 160.500000) rotate(-24.000000) translate(-93.500000, -160.500000) ">
                    <g id="Group" transform="translate(100.773254, 160.647206) rotate(24.000000) translate(-100.773254, -160.647206) translate(-11.000000, 5.000000)">
                        <path d="M99.1965086,66.5865086 L118.770107,128.515931 C154.617722,123.399464 190.901854,140.029492 210.136509,171.666509 C212.156509,175.036509 214.016509,178.556509 215.666509,182.266509 C217.346509,186.076509 218.766509,189.886509 219.866509,193.776509 C219.946509,194.096509 220.066509,194.426509 220.126509,194.756509 C220.886509,197.466509 221.516509,200.176509 222.016509,202.906509 C222.256509,204.256509 222.486509,205.636509 222.676509,206.996509 C222.856509,208.336509 223.016509,209.716509 223.146509,211.076509 C223.276509,212.356509 223.356509,213.676509 223.446509,214.936509 C223.436509,215.326509 223.456509,215.706509 223.476509,216.076509 C223.516509,217.036509 223.526509,218.006509 223.546509,218.976509 C223.546509,219.446509 223.546509,219.926509 223.526509,220.406509 C223.536509,221.286509 223.486509,222.196509 223.446509,223.096509 C223.456509,223.396509 223.426509,223.726509 223.396509,224.066509 C223.376509,225.146509 223.286509,226.216509 223.186509,227.266509 C223.056509,228.896509 222.896509,230.536509 222.636509,232.156509 C222.516509,233.216509 222.326509,234.276509 222.146509,235.336509 C221.706509,237.806509 221.166509,240.266509 220.516509,242.676509 C220.196509,243.946509 219.846509,245.226509 219.436509,246.496509 C219.176509,247.326509 218.916509,248.146509 218.626509,248.956509 C218.426509,249.576509 218.206509,250.206509 217.986509,250.836509 C217.576509,251.936509 217.156509,253.046509 216.716509,254.126509 C216.196509,255.356509 215.656509,256.606509 215.096509,257.826509 C214.776509,258.566509 214.456509,259.236509 214.096509,259.956509 C213.256509,261.686509 212.356509,263.386509 211.396509,265.026509 C210.856509,266.006509 210.286509,266.936509 209.696509,267.876509 C205.956509,273.916509 201.526509,279.546509 196.406509,284.616509 C195.446509,285.576509 194.466509,286.516509 193.456509,287.436509 C191.426509,289.276509 189.316509,291.046509 187.096509,292.706509 C184.876509,294.366509 182.586509,295.946509 180.186509,297.416509 C176.626509,299.646509 172.836509,301.656509 168.876509,303.406509 C126.296509,322.266509 77.0665086,306.136509 53.4065086,267.486509 C51.2965086,264.036509 49.4265086,260.426509 47.7465086,256.626509 C46.6665086,254.196509 45.6965086,251.726509 44.8665086,249.256509 C32.6198853,213.719788 43.514283,174.93888 70.6801683,150.800877 L35.8965086,90.8765086 L99.1965086,66.5865086 Z" id="Flask" fill="#CEDDF0"></path>
                        <g id="Cap">
                            <polyline id="Fill-1793" fill="#7C1F14" points="22.5265086 69.0965086 88.7465086 39.7765086 80.9865086 22.2565086 14.7665086 51.5765086 22.5265086 69.0965086"></polyline>
                            <path d="M17.5665086,51.0265086 L78.7465086,23.9365086 C85.0565086,21.1465086 87.9065086,13.7565086 85.1165086,7.44650863 C82.3165086,1.12650863 74.9365086,-1.72349137 68.6165086,1.07650863 L7.44650863,28.1565086 C1.12650863,30.9565086 -1.72349137,38.3365086 1.07650863,44.6565086 C3.86650863,50.9665086 11.2565086,53.8265086 17.5665086,51.0265086" id="Fill-1801" fill="#AC0F0F"></path>
                            <path d="M14.0265086,46.6965086 L51.1465086,30.2565086 C54.4065086,28.8065086 55.8965086,24.9565086 54.4565086,21.6865086 C53.0065086,18.4165086 49.1465086,16.9365086 45.8865086,18.3765086 L8.76650863,34.8165086 C5.49650863,36.2565086 4.00650863,40.1165086 5.45650863,43.3865086 C6.89650863,46.6465086 10.7565086,48.1365086 14.0265086,46.6965086" id="Fill-1802" fill="#DB2F1C"></path>
                        </g>
                        <polyline id="Cap-in-bottle" fill="#A3BCD0" points="86.8765086 31.5465086 99.1965086 66.5865086 35.8965086 90.8765086 18.1765086 64.0965086 86.8765086 31.5465086"></polyline>
                        <g id="Potion" transform="translate(44.866509, 126.440844)">
                            <path d="M175,67.3356643 C175.08,67.6556643 175.2,67.9856643 175.26,68.3156643 C176.04,71.0156643 176.68,73.7256643 177.15,76.4656643 C177.39,77.8156643 177.62,79.1956643 177.81,80.5556643 C177.99,81.8956643 178.15,83.2756643 178.28,84.6356643 C178.41,85.9156643 178.49,87.2356643 178.58,88.4956643 C178.57,88.8856643 178.59,89.2656643 178.61,89.6356643 C178.65,90.5956643 178.66,91.5656643 178.68,92.5356643 C178.68,93.0056643 178.68,93.4856643 178.66,93.9656643 C178.67,94.8456643 178.62,95.7556643 178.58,96.6556643 C178.59,96.9556643 178.56,97.2856643 178.53,97.6256643 C178.51,98.7056643 178.42,99.7756643 178.32,100.825664 C178.19,102.455664 178.03,104.095664 177.77,105.715664 C177.65,106.775664 177.46,107.835664 177.28,108.895664 C176.84,111.365664 176.3,113.825664 175.65,116.235664 C175.33,117.505664 174.98,118.785664 174.57,120.055664 C174.31,120.885664 174.05,121.705664 173.76,122.515664 C173.56,123.135664 173.34,123.765664 173.12,124.395664 C172.71,125.495664 172.29,126.605664 171.85,127.685664 C171.33,128.915664 170.79,130.165664 170.23,131.385664 C169.9,132.095664 169.56,132.805664 169.23,133.515664 C168.39,135.245664 167.49,136.945664 166.53,138.585664 C165.99,139.565664 165.42,140.495664 164.83,141.435664 C161.09,147.475664 156.66,153.105664 151.54,158.175664 C150.58,159.135664 149.6,160.075664 148.59,160.995664 C146.56,162.835664 144.45,164.605664 142.23,166.265664 C140.01,167.925664 137.72,169.505664 135.32,170.975664 C131.76,173.205664 127.97,175.215664 124.01,176.965664 C81.43,195.825664 32.2,179.695664 8.54,141.045664 L175,67.3356643" id="Liquid" fill="#76BA43"></path>
                            <path d="M170.8,55.8256643 C172.48,59.6356643 173.9,63.4456643 175,67.3356643 C175.08,67.6556643 175.2,67.9856643 175.26,68.3156643 C172.31,71.2756643 168.81,74.1256643 165.35,76.6056643 C160.95,79.7656643 156.66,82.3556643 153.57,83.8656643 C153.37,83.9556643 153.19,84.0656643 152.95,84.1356643 C143.31,88.6156643 92.16,108.635664 53.44,123.675664 C39.82,128.965664 27.72,133.645664 19.53,136.795664 C12.66,139.455664 8.54,141.045664 8.54,141.045664 C6.43,137.595664 4.56,133.985664 2.88,130.185664 C1.8,127.755664 0.83,125.285664 0,122.815664 C2.64,119.905664 7.69,116.005664 14.46,111.535664 C23.14,105.795664 34.65,99.0756643 47.56,92.1456643 L47.58,92.1356643 C87.92,70.4656643 141.84,46.8756643 165.27,45.2256643 C167.29,48.5956643 169.15,52.1156643 170.8,55.8256643" id="Surface" fill="#A7CC5E"></path>
                            <path d="M104.06,31.8256643 C106.88,38.1956643 104,45.6656643 97.62,48.4856643 C91.24,51.3056643 83.78,48.4256643 80.96,42.0456643 C78.13,35.6756643 81.01,28.2156643 87.39,25.3856643 C93.77,22.5656643 101.23,25.4456643 104.06,31.8256643 M73.67,69.3556643 C75.24,72.8956643 73.64,77.0456643 70.09,78.6156643 C66.55,80.1856643 62.41,78.5856643 60.84,75.0356643 C59.27,71.4956643 60.87,67.3456643 64.41,65.7856643 C67.96,64.2156643 72.1,65.8156643 73.67,69.3556643 M50.46,4.5656643 C52.18,8.4456643 50.43,12.9856643 46.55,14.7056643 C42.67,16.4156643 38.13,14.6656643 36.42,10.7856643 C34.7,6.9156643 36.45,2.3756643 40.33,0.655664302 C44.21,-1.0543357 48.75,0.695664302 50.46,4.5656643 M72.58,22.6856643 C74.3,26.5656643 72.55,31.1056643 68.67,32.8156643 C64.79,34.5356643 60.25,32.7856643 58.54,28.9056643 C56.82,25.0256643 58.57,20.4956643 62.45,18.7756643 C66.33,17.0556643 70.86,18.8056643 72.58,22.6856643 M52.68,28.6656643 C54.94,33.7656643 52.64,39.7256643 47.54,41.9856643 C42.45,44.2356643 36.49,41.9356643 34.23,36.8356643 C31.97,31.7456643 34.27,25.7856643 39.37,23.5256643 C44.47,21.2656643 50.43,23.5756643 52.68,28.6656643 M32.23,74.8656643 C29.28,74.8656643 26.47,73.1556643 25.2,70.2856643 C23.48,66.4056643 25.24,61.8756643 29.11,60.1556643 C30.12,59.7056643 31.18,59.4956643 32.22,59.4956643 C35.16,59.4956643 37.98,61.2056643 39.25,64.0656643 C40.96,67.9456643 39.21,72.4856643 35.33,74.2056643 C34.32,74.6456643 33.27,74.8656643 32.23,74.8656643 M27.52,64.1656643 C27.29,64.1656643 27.06,64.2156643 26.84,64.3156643 C25.99,64.6856643 25.61,65.6756643 25.99,66.5256643 C26.26,67.1556643 26.88,67.5256643 27.52,67.5256643 C27.75,67.5256643 27.98,67.4856643 28.2,67.3856643 C29.05,67.0056643 29.43,66.0156643 29.06,65.1656643 C28.78,64.5356643 28.16,64.1656643 27.52,64.1656643 M104.84,82.9956643 C104.84,82.9956643 101.19,74.1056643 110.1,68.8656643 C110.1,68.8656643 120.19,64.6856643 124.8,74.4456643 L104.84,82.9956643 M60.37,109.945664 C60.37,109.945664 57.79,103.655664 64.08,99.9556643 C64.08,99.9556643 71.22,97.0056643 74.48,103.905664 L60.37,109.945664 M143.89,66.8556643 C143.89,66.8556643 143.33,61.0556643 137.97,58.6856643 C132.6,56.3056643 130.92,53.1656643 134.86,53.2956643 C138.8,53.4156643 141.43,57.7256643 141.43,57.7256643 C141.43,57.7256643 135.52,50.5556643 139.05,48.1256643 C142.58,45.7056643 141.38,53.7156643 143.25,55.3356643 C145.12,56.9556643 143.79,52.6556643 145.54,51.7356643 C147.29,50.8156643 144.69,53.4056643 145.2,57.7856643 C145.7,62.1656643 148.95,65.6156643 143.89,66.8556643 M61.15,95.1356643 C61.15,95.1356643 61,90.8956643 56.19,87.8356643 C51.39,84.7856643 52.51,80.8356643 56.38,81.4256643 C60.24,82.0156643 61.57,92.5056643 61.62,93.9256643 C61.67,95.3456643 61.15,95.1356643 61.15,95.1356643" id="Bubbles" fill="#76BA43"></path>
                            <path d="M84.78,37.5156643 C83.72,37.5156643 82.71,36.8956643 82.25,35.8656643 C81.63,34.4756643 82.26,32.8356643 83.66,32.2156643 C84.02,32.0556643 84.4,31.9856643 84.77,31.9856643 C85.83,31.9856643 86.84,32.5956643 87.3,33.6256643 C87.92,35.0256643 87.29,36.6556643 85.9,37.2756643 C85.53,37.4356643 85.15,37.5156643 84.78,37.5156643 M62.51,74.0556643 C62.15,73.2356643 62.52,72.2756643 63.34,71.9156643 C64.16,71.5556643 65.12,71.9256643 65.48,72.7456643 C65.84,73.5656643 65.47,74.5256643 64.65,74.8856643 C63.83,75.2456643 62.88,74.8756643 62.51,74.0556643 M38.74,8.0256643 C38.09,8.0256643 37.48,7.6556643 37.2,7.0256643 C36.83,6.1756643 37.21,5.1856643 38.06,4.8156643 C38.28,4.7156643 38.51,4.6656643 38.74,4.6656643 C39.38,4.6656643 40,5.0456643 40.27,5.6656643 C40.65,6.5156643 40.27,7.5056643 39.42,7.8856643 C39.2,7.9856643 38.97,8.0256643 38.74,8.0256643 M60.86,26.1456643 C60.21,26.1456643 59.6,25.7756643 59.32,25.1456643 C58.95,24.2956643 59.33,23.3056643 60.18,22.9256643 C60.4,22.8356643 60.63,22.7856643 60.86,22.7856643 C61.5,22.7856643 62.12,23.1556643 62.39,23.7856643 C62.77,24.6356643 62.39,25.6256643 61.54,26.0056643 C61.32,26.0956643 61.09,26.1456643 60.86,26.1456643 M37.28,33.2156643 C36.43,33.2156643 35.62,32.7256643 35.26,31.8956643 C34.77,30.7856643 35.27,29.4756643 36.38,28.9856643 C36.68,28.8556643 36.98,28.7956643 37.28,28.7956643 C38.12,28.7956643 38.93,29.2856643 39.3,30.1056643 C39.79,31.2256643 39.29,32.5256643 38.17,33.0256643 C37.88,33.1556643 37.58,33.2156643 37.28,33.2156643 M27.52,67.5256643 C26.88,67.5256643 26.26,67.1556643 25.99,66.5256643 C25.61,65.6756643 25.99,64.6856643 26.84,64.3156643 C27.06,64.2156643 27.29,64.1656643 27.52,64.1656643 C28.16,64.1656643 28.78,64.5356643 29.06,65.1656643 C29.43,66.0156643 29.05,67.0056643 28.2,67.3856643 C27.98,67.4856643 27.75,67.5256643 27.52,67.5256643 M110.66,73.0556643 C110.98,73.7756643 110.65,74.6156643 109.93,74.9356643 C109.21,75.2556643 108.37,74.9256643 108.05,74.2056643 C107.73,73.4856643 108.06,72.6456643 108.78,72.3256643 C109.5,72.0056643 110.34,72.3356643 110.66,73.0556643 M64.48,102.915664 C64.71,103.425664 64.48,104.025664 63.97,104.245664 C63.46,104.475664 62.86,104.245664 62.64,103.735664 C62.41,103.225664 62.64,102.635664 63.15,102.405664 C63.66,102.175664 64.25,102.405664 64.48,102.915664" id="Light" fill="#99C96F"></path>
                        </g>
                        <g id="Reflect" transform="translate(28.821968, 35.306509)">
                            <path d="M173.934541,185.74 L168.994541,175.27 C169.234541,175.2 169.414541,175.09 169.614541,175 C172.704541,173.49 176.994541,170.9 181.394541,167.74 C181.404541,167.74 181.404541,167.74 181.404541,167.73 L187.634541,181.81 L173.934541,185.74" id="Fill-1804" fill="#99C96F"></path>
                            <path d="M168.994541,175.27 L165.004541,166.79 L177.184541,158.2 L181.404541,167.73 C181.404541,167.74 181.404541,167.74 181.394541,167.74 C176.994541,170.9 172.704541,173.49 169.614541,175 C169.414541,175.09 169.234541,175.2 168.994541,175.27" id="Fill-1805" fill="#B7D797"></path>
                            <path d="M30.4945408,202.67 C28.8845408,186.51 30.1945408,167.61 39.0945408,149.55 L75.9145408,136.44 C75.9145408,136.44 63.9645408,160.52 63.5945408,183.28 C50.6945408,190.21 39.1845408,196.93 30.5045408,202.67 C30.5045408,202.67 30.5045408,202.67 30.4945408,202.67 M48.2645408,150.63 C47.2245408,150.63 46.1645408,150.84 45.1545408,151.29 C41.2845408,153.01 39.5245408,157.54 41.2445408,161.42 C42.5145408,164.29 45.3245408,166 48.2745408,166 C49.3145408,166 50.3645408,165.78 51.3745408,165.34 C55.2545408,163.62 57.0045408,159.08 55.2945408,155.2 C54.0245408,152.34 51.2045408,150.63 48.2645408,150.63" id="Fill-1817" fill="#EFF8FE"></path>
                            <path d="M41.8345408,244.77 C41.8345408,244.77 38.6245408,238.31 35.5445408,227.94 C35.5545408,227.94 35.5645408,227.94 35.5745408,227.93 C43.7645408,224.78 55.8645408,220.1 69.4845408,214.81 C69.4945408,214.81 69.4945408,214.81 69.4945408,214.8 C72.8345408,226.32 75.3845408,231.51 75.3845408,231.51 L41.8345408,244.77" id="Fill-1818" fill="#99C96F"></path>
                            <path d="M35.5445408,227.94 C33.4745408,221.01 31.4645408,212.33 30.4945408,202.67 C30.5045408,202.67 30.5045408,202.67 30.5045408,202.67 C39.1845408,196.93 50.6945408,190.21 63.5945408,183.28 C63.5345408,187.36 63.8445408,191.39 64.6545408,195.24 C66.3245408,203.12 67.9845408,209.61 69.4945408,214.8 C69.4945408,214.81 69.4945408,214.81 69.4845408,214.81 C55.8645408,220.1 43.7645408,224.78 35.5745408,227.93 C35.5645408,227.94 35.5545408,227.94 35.5445408,227.94" id="Fill-1819" fill="#B7D797"></path>
                            <polyline id="Fill-1796" fill="#EFF8FE" points="79.3945408 85.35 60.1445408 35.2 66.7745408 32.66 79.3945408 85.35"></polyline>
                            <path d="M60.1445408,35.2 L49.7445408,8.11 C48.7745408,5.58 49.5845408,2.71 51.7345408,1.07 C52.6945408,0.34 53.7845408,0 54.8645408,0 C57.1345408,0 59.3145408,1.5 59.9045408,3.97 L66.7745408,32.66 L60.1445408,35.2" id="Fill-1797" fill="#CEDDF0"></path>
                            <path d="M41.5745408,90.35 C41.1845408,90.35 40.7945408,90.31 40.3845408,90.22 C38.9745408,89.92 37.7445408,89.07 36.9545408,87.87 L14.0045408,52.91 L29.9045408,46.81 L46.5045408,82.55 C48.2345408,86.28 45.4245408,90.35 41.5745408,90.35" id="Fill-1798" fill="#EFF8FE"></path>
                            <path d="M14.0045408,52.91 L0.904540769,32.94 C-0.985459231,30.07 0.204540769,26.19 3.37454077,24.88 L12.2145408,21.2 C12.8945408,20.92 13.6145408,20.78 14.3145408,20.78 C16.3845408,20.78 18.3545408,21.96 19.2845408,23.95 L29.9045408,46.81 L14.0045408,52.91" id="Fill-1799" fill="#CEDDF0"></path>
                        </g>
                    </g>
                </g>
            </g>
            <g transform="translate(140.290112, 251.798387)" fill="#F6F1D5" id="Halloween/Features/Crane">
                <g transform="translate(24.000000, 28.500000) rotate(-25.000000) translate(-24.000000, -28.500000) ">
                    <path d="M42.0370844,8.65263862 C42.0547767,11.1118694 42.0620351,12.480755 42.0650129,13.1900292 L42.0659733,13.4348608 C42.0660588,13.4585361 42.0661377,13.4810706 42.0662105,13.5024998 L42.0669752,13.7765007 C42.0669934,13.7859408 42.0670086,13.7944881 42.0670212,13.8021779 L42.0670844,13.8576386 L42.0670844,13.8576386 C42.0670844,13.8576386 48.8770844,18.7776386 46.0570844,26.8626386 C46.0570844,26.8626386 52.1020844,37.7676386 45.0820844,40.4226386 C43.4743795,41.0285403 42.2356561,41.4953825 41.2812298,41.8550806 L40.889349,42.0027702 C38.3270635,42.9684281 38.0993048,43.0542643 38.0790596,43.0618942 L38.0770844,43.0626386 L39.6820844,51.6576386 L33.1720844,52.7376386 L31.3120844,45.1926386 L30.8470844,56.1276386 L24.8620844,57.2076386 L24.8170844,48.6126386 L21.4720844,55.9176386 L16.2520844,55.6926386 L16.4620844,45.2676386 L13.6420844,53.6226386 L8.15208443,50.5326386 L9.66708443,42.1926386 C9.66708443,42.1926386 -4.14791557,41.2176386 1.25208443,28.1676386 L1.25095471,28.1625494 L1.24234795,28.1225081 C1.08336868,27.3688219 -0.88190291,17.3921323 5.85708443,14.5926386 C5.85708443,14.5926386 2.16708443,5.50263862 14.1220844,1.25763862 C26.0770844,-2.97236138 42.0220844,4.48263862 42.0370844,8.65263862 Z M22.7470844,35.7726386 C19.4620844,38.7426386 23.4520844,37.6776386 23.4520844,37.6776386 C23.4520844,37.6776386 25.8970844,39.5676386 27.0970844,37.8276386 L27.0970844,37.8276386 Z M12.5020844,20.3675858 C9.75708443,20.3976386 7.56708443,23.5926386 7.58200784,27.5226386 C7.61208443,31.4526386 9.84708443,34.6326386 12.5770844,34.6176915 C15.3070844,34.6026386 17.5120844,31.3926386 17.4820844,27.4626386 C17.4670844,23.5326386 15.2320844,20.3526386 12.5020844,20.3675858 Z M34.5670844,21.6425764 C32.0170844,21.6576386 29.9770844,24.3876386 29.9920022,27.7476386 C30.0070844,31.0926386 32.0920844,33.8076386 34.6270844,33.7927005 C37.1770844,33.7776386 39.2170844,31.0476386 39.2021666,27.6876386 C39.1720844,24.3276386 37.1020844,21.6276386 34.5670844,21.6425764 Z" id="Crane"></path>
                </g>
            </g>
        </g>
    </g>
</svg>