<?xml version="1.0" encoding="UTF-8"?>
<svg width="672px" height="303px" viewBox="0 0 672 303" version="1.1" xmlns="http://www.w3.org/2000/svg" xmlns:xlink="http://www.w3.org/1999/xlink">
    <title>decoration-9</title>
    <g id="decoration-9" stroke="none" stroke-width="1" fill="none" fill-rule="evenodd">
        <g id="Group" transform="translate(-24.000000, 58.552500)">
            <g id="Halloween/Creatures/Frankenstein" transform="translate(119.000000, 145.000000) rotate(30.000000) translate(-119.000000, -145.000000) ">
                <path d="M135.726563,2.42855442 C124.907577,3.66835803 113.463473,5.53408004 101.752422,7.85855009 C94.5413617,9.28983875 87.6268521,10.8155666 81.2073504,12.3488799 L78.4360214,13.0187676 L77.0917408,13.3497533 L75.1893541,13.8256113 L72.1764921,14.5999026 L71.0331463,14.9035919 L70.7506292,14.9835601 C66.5419829,16.2254978 63.6460497,19.3660664 62.4342199,23.0487135 L62.398,23.162 L45.6536292,23.9674377 L45.3449754,23.9858323 C36.5362285,24.6125923 31.5175281,33.7339221 34.690787,41.25489 L34.82,41.55 L11.1979836,45.5099595 C-0.718986591,47.5073183 -3.09909398,63.5063056 7.5327152,68.9472302 L10.2898414,70.2857997 L11.4352898,70.8448513 L13.7802715,71.9974348 C14.17557,72.1926675 14.5725888,72.3892361 14.9705573,72.5867927 L17.6488852,73.9245788 L19.319,74.768 L5.90525265,91.9047642 L5.68901946,92.1888113 C-1.2873158,101.600302 7.46913405,114.700759 18.9283898,111.692276 L24.844,110.139 L22.6125203,131.407265 L22.5830571,131.723596 C21.7543439,141.916701 32.8971285,148.692494 41.5402782,143.392904 L41.72,143.279 L41.8165095,143.621255 C42.8334909,147.131397 44.1719631,149.976363 45.9796213,152.305326 L46.3199156,152.737817 C48.9157819,155.992146 51.7294326,158.5041 54.6388435,160.333553 L55.134,160.637 L55.1243756,161.05911 C54.9859086,167.250486 55.0238089,173.891733 55.3301846,180.578788 C55.3701411,181.450891 55.414172,182.313538 55.4624174,183.166607 L55.5645692,184.859938 C55.5825449,185.14002 55.6009992,185.419029 55.6199374,185.696959 L55.7394144,187.351577 C55.8020975,188.172385 55.8692287,188.983413 55.9409481,189.78454 L56.0905461,191.373559 L56.2526285,192.935962 C57.2630741,202.230098 58.9611286,210.07534 61.5889399,216.262518 L61.7756737,216.69338 C65.5669686,225.257058 72.7491599,230.611846 82.2047194,233.644451 L82.642,233.782 L85.469,252.456 L88.4056726,278.05249 C89.0762332,283.898374 93.7281258,288.470128 99.5545449,289.063393 L99.8825909,289.092498 L100.325891,289.123188 L100.824673,289.152057 L101.67612,289.190659 L102.312099,289.2124 L103.002356,289.230259 L104.138759,289.24848 C106.992276,289.278354 110.200082,289.193548 113.722532,288.958287 C123.53275,288.303073 134.104484,286.612088 145.114425,283.589858 C176.332141,275.020593 205.169854,257.546219 228.647343,228.935341 L228.867856,228.658753 C231.534082,225.216016 232.221038,220.622896 230.659198,216.539977 L215.555,177.055 L216.153007,175.89668 L216.804137,174.614531 L217.470115,173.282635 C217.582295,173.056553 217.695053,172.828431 217.808369,172.598288 L218.494805,171.193308 L219.193673,169.740628 L219.904006,168.241067 L220.624839,166.695442 C220.745799,166.434045 220.867156,166.170763 220.988891,165.905612 C225.667793,155.714466 229.902197,144.8908 233.349682,133.705906 C236.16407,124.563926 237.075364,112.579298 236.268404,99.433529 L236.161018,97.818154 L236.036531,96.1918586 L235.89502,94.5553286 L235.73656,92.9092502 C235.402741,89.6080024 234.967679,86.2535802 234.43409,82.8706812 L234.159097,81.176973 C234.064704,80.6116888 233.967587,80.0457279 233.867759,79.4792047 L233.56015,77.7780623 C233.139191,75.5079281 232.675046,73.2306259 232.168518,70.9534735 C232.043605,70.3919121 231.916542,69.8320808 231.787344,69.2740489 L231.393358,67.6054205 C230.992995,65.9423286 230.573548,64.296054 230.135412,62.6684662 L229.691061,61.0471766 C223.908992,40.3223417 215.070808,22.7777505 204.014699,12.3647007 C196.856818,5.62282796 186.32624,2.30369311 172.727228,1.18886201 C162.196551,0.325569408 149.759341,0.820465701 135.726563,2.42855442 Z" id="Sticker" fill="#FFFFFF" fill-rule="nonzero"></path>
                <path d="M52.3242404,120.966 L35.0442404,132.712 L39.1642404,93.456 L15.7542404,99.602 C15.7542404,99.602 37.0242404,72.386 38.0042404,71.279 C38.9842404,70.173 13.2642404,57.838 13.2642404,57.838 L57.9642404,50.346 L46.2542404,36.453 L81.8642404,34.74 L74.3042404,26.968 C74.3042404,26.968 172.90424,0.234 195.44424,21.464 C217.98424,42.693 229.64424,103.258 221.40424,130.024 C213.15424,156.79 201.45424,176.83 201.45424,176.83 L52.3242404,120.966" id="Hair" fill="#16101C"></path>
                <path d="M50.9242404,92.489 C50.9242404,92.489 49.6542404,136.653 55.8542404,144.641 C62.0542404,152.629 68.0042404,151.63 68.0042404,151.63 C68.0042404,151.63 65.3142404,193.058 73.0942404,211.376 C80.8642404,229.694 121.59424,223.245 121.59424,223.245 L97.8642404,250.823 L100.82424,276.628 C100.82424,276.628 168.85424,282.097 218.98424,221.006 L187.87424,139.673 C187.87424,139.673 199.00424,154.568 211.01424,135.719 C223.03424,116.869 212.96424,89.821 195.13424,88.139 C177.30424,86.459 169.49424,116.504 169.49424,116.504 C169.49424,116.504 151.91424,118.999 142.23424,99.907 C132.55424,80.815 139.89424,69.981 139.89424,69.981 L119.68424,94.799 L108.31424,75.726 L92.5842404,91.734 L84.4842404,80.286 L50.9242404,92.489" id="Skin" fill="#59B148"></path>
                <g id="Mouth" transform="translate(115.844240, 162.908000)">
                    <path d="M53.87,25.51 L46.01,30.767 L43.2,32.639 L20.43,47.858 L0,26.071 C1.78,23.688 3.77,21.419 5.9,19.303 C7.5,17.706 9.17,16.188 10.86,14.775 C12.78,13.146 14.73,11.633 16.64,10.248 C18.35,9.006 20.02,7.868 21.6,6.843 C23.65,5.51 25.55,4.367 27.22,3.406 C31.04,1.193 33.59,0 33.59,0 C48.55,2.013 53.87,25.51 53.87,25.51" id="Fill-921" fill="#16101C"></path>
                    <path d="M25.68,37.713 L29.24,41.585 L21.81,46.647 L20.47,40.494 L25.68,37.713 Z M38.55,21.041 L43.2,32.639 L32.65,39.691 L26.19,29.943 L38.55,21.041 Z M49.01,18.862 L53.87,25.51 L46.01,30.767 L42.01,21.267 L49.01,18.862 Z M10.86,14.775 L17.24,19.573 L11.21,25.679 L5.9,19.303 C7.5,17.706 9.17,16.188 10.86,14.775 Z M21.6,6.843 L26.84,11.964 L21.86,17.793 L16.64,10.248 C18.35,9.006 20.02,7.868 21.6,6.843 Z M33.59,0 L35.25,5.223 L29.77,8.076 L27.22,3.406 C29.5707692,2.04415385 31.4405917,1.06857988 32.5311698,0.519594902 L32.9030269,0.333800637 C33.3485799,0.112946746 33.59,0 33.59,0 Z" id="Tooth" fill="#EFA34D"></path>
                </g>
                <path d="M93.6242404,222.81 L97.8642404,250.823 C97.8642404,250.823 146.19424,247.469 161.29424,228.516 C176.39424,209.565 170.67424,202.865 170.67424,202.865 C170.67424,202.865 111.52424,227.443 93.6242404,222.81" id="Neck" fill="#16101C"></path>
                <path d="M92.0142404,146.68 C91.9342404,146.665 91.7642404,146.638 91.5242404,146.638 C91.1642404,146.638 90.6542404,146.696 90.0742404,146.945 C89.2042404,147.311 88.2742404,148.138 87.6542404,149.467 C87.0342404,150.799 86.6442404,152.615 86.6042404,155.218 C86.6042404,155.331 86.6042404,155.452 86.6042404,155.58 C86.6042404,157.694 86.8342404,160.67 87.2242404,164.034 C87.8142404,169.075 88.7642404,174.949 89.8642404,179.803 C90.4142404,182.232 91.0042404,184.402 91.6242404,186.122 C91.9342404,186.984 92.2442404,187.733 92.5942404,188.373 C92.7742404,188.694 92.9642404,188.988 93.1742404,189.262 C93.3942404,189.535 93.6442404,189.794 93.9842404,190.019 C94.5642404,190.398 95.1942404,190.601 95.8542404,190.732 C96.5142404,190.86 97.2242404,190.91 97.9742404,190.911 C100.62424,190.905 103.87424,190.278 106.96424,189.427 C108.51424,189 110.00424,188.514 111.33424,188.011 C112.66424,187.505 113.83424,186.988 114.75424,186.464 C115.96424,185.778 116.90424,184.989 117.56424,184.086 C118.22424,183.187 118.58424,182.152 118.58424,181.126 C118.58424,180.13 118.24424,179.184 117.70424,178.398 C117.16424,177.608 116.42424,176.958 115.55424,176.45 C114.79424,176.009 113.83424,176.264 113.39424,177.018 C112.95424,177.772 113.20424,178.74 113.95424,179.181 C114.48424,179.488 114.86424,179.848 115.09424,180.186 C115.33424,180.528 115.41424,180.829 115.42424,181.126 C115.41424,181.431 115.32424,181.776 115.00424,182.225 C114.68424,182.669 114.11424,183.196 113.19424,183.713 C112.49424,184.114 111.44424,184.59 110.21424,185.053 C108.37424,185.751 106.12424,186.434 103.93424,186.934 C101.73424,187.436 99.5742404,187.751 97.9742404,187.748 C97.3742404,187.749 96.8542404,187.705 96.4542404,187.628 C96.0642404,187.553 95.8042404,187.44 95.7142404,187.376 L95.5942404,187.568 L95.7442404,187.393 L95.7142404,187.375 L95.5942404,187.568 L95.7442404,187.393 C95.7342404,187.392 95.6142404,187.27 95.4842404,187.047 C95.2242404,186.628 94.8842404,185.88 94.5542404,184.929 C93.9642404,183.259 93.3542404,180.954 92.7842404,178.366 C91.9342404,174.482 91.1742404,169.946 90.6342404,165.797 C90.0842404,161.654 89.7642404,157.87 89.7642404,155.58 C89.7642404,155.474 89.7642404,155.369 89.7642404,155.265 C89.7842404,153.727 89.9542404,152.597 90.1742404,151.794 C90.5042404,150.581 90.9142404,150.141 91.1342404,149.965 C91.3642404,149.793 91.4942404,149.805 91.5242404,149.8 L91.5242404,149.636 L91.5042404,149.799 L91.5242404,149.8 L91.5242404,149.636 L91.5042404,149.799 L91.6042404,148.833 L91.4242404,149.786 L91.5042404,149.799 L91.6042404,148.833 L91.4242404,149.786 C92.2742404,149.951 93.1042404,149.39 93.2742404,148.532 C93.4342404,147.675 92.8742404,146.846 92.0142404,146.681 M183.54424,156.83 C183.54424,156.831 183.58424,157.034 183.65424,157.419 C183.90424,158.767 184.55424,162.29 185.12424,166.501 C185.70424,170.709 186.21424,175.616 186.21424,179.669 C186.21424,181.514 186.10424,183.183 185.87424,184.487 C185.75424,185.138 185.60424,185.696 185.44424,186.129 C185.28424,186.563 185.09424,186.865 184.95424,187.027 C184.10424,188.036 182.49424,189.262 180.59424,190.423 C177.75424,192.178 174.26424,193.849 171.49424,195.066 C170.11424,195.675 168.91424,196.172 168.06424,196.516 C167.63424,196.689 167.29424,196.822 167.06424,196.913 C166.95424,196.958 166.86424,196.992 166.80424,197.015 L166.71424,197.048 C165.89424,197.357 165.48424,198.27 165.79424,199.087 C166.10424,199.903 167.01424,200.315 167.83424,200.006 C167.86424,199.996 171.55424,198.598 175.81424,196.565 C177.94424,195.547 180.21424,194.372 182.25424,193.116 C184.29424,191.852 186.10424,190.537 187.36424,189.085 C187.82424,188.543 188.14424,187.922 188.40424,187.248 C188.78424,186.235 189.01424,185.085 189.16424,183.811 C189.31424,182.538 189.37424,181.143 189.37424,179.669 C189.37424,174.749 188.68424,168.918 188.00424,164.283 C187.32424,159.652 186.64424,156.232 186.64424,156.214 C186.47424,155.358 185.64424,154.801 184.78424,154.971 C183.92424,155.142 183.37424,155.974 183.54424,156.83 M193.09424,96.3189975 C194.67424,96.318 196.31424,96.622 197.90424,97.337 C199.49424,98.051 201.02424,99.171 202.44424,100.742 C203.585113,102.011665 204.522874,103.331722 205.286202,104.671275 C205.581603,104.839039 205.825252,105.105267 205.96424,105.446 C206.063784,105.690032 206.097814,105.944345 206.074565,106.189563 C206.454201,106.993984 206.775254,107.801364 207.04424,108.605 C207.92424,111.266 208.23424,113.883 208.23424,116.261 C208.22424,122.325 206.23424,126.856 206.18424,126.974 C205.83424,127.774 204.90424,128.138 204.10424,127.787 C203.30424,127.436 202.93424,126.503 203.29424,125.703 L203.29424,125.703 L203.29424,125.701 L203.30424,125.675 L203.35424,125.551 C203.39424,125.437 203.46424,125.261 203.55424,125.031 C203.71424,124.57 203.94424,123.888 204.16424,123.036 C204.62424,121.33 205.07424,118.939 205.07424,116.261 C205.07424,114.159 204.79424,111.884 204.03424,109.603 C203.8741,109.122157 203.693092,108.640915 203.488877,108.16048 L187.46424,114.679 C186.65424,115.008 185.73424,114.619 185.40424,113.811 C185.07424,113.002 185.46424,112.079 186.27424,111.75 L186.27424,111.75 L202.002252,105.352694 C201.459233,104.509063 200.827663,103.675544 200.09424,102.859 C198.93424,101.574 197.76424,100.744 196.60424,100.222 C195.44424,99.701 194.28424,99.483 193.09424,99.481 C191.53424,99.48 189.94424,99.874 188.40424,100.506 C186.87424,101.136 185.41424,102 184.15424,102.888 C181.61424,104.663 179.86424,106.526 179.70424,106.701 L179.70424,106.701 L179.69424,106.714 C179.10424,107.36 178.10424,107.408 177.46424,106.821 C176.81424,106.233 176.76424,105.233 177.35424,104.587 C177.38424,104.548 178.42424,103.41 180.13424,101.983 C181.85424,100.558 184.23424,98.837 187.02424,97.655 C188.88424,96.869 190.94424,96.32 193.09424,96.3189975 Z" id="Details" fill="#3F7B3D"></path>
                <path d="M82.3042404,154.381 C83.0742404,157.303 81.8842404,160.146 79.6542404,160.731 C77.4342404,161.315 75.0042404,159.421 74.2342404,156.499 C73.4642404,153.577 74.6542404,150.734 76.8842404,150.149 C79.1042404,149.564 81.5342404,151.459 82.3042404,154.381 M116.44424,147.611 C117.20424,150.533 116.02424,153.376 113.79424,153.961 C111.56424,154.546 109.13424,152.651 108.37424,149.729 C107.60424,146.806 108.78424,143.964 111.01424,143.379 C113.24424,142.794 115.67424,144.688 116.44424,147.611" id="Eyes" fill="#16101C"></path>
            </g>
        </g>
        <g id="Group" transform="translate(369.000000, 60.250985)">
            <g id="Halloween/Stuffs/Hand-2" transform="translate(151.000000, 147.500000) scale(-1, 1) translate(-151.000000, -147.500000) ">
                <path d="M69.18901,0.902757148 C61.5650271,2.39372491 56.4401348,7.7661276 52.944625,15.3017607 L52.6704784,15.9050742 C51.8576196,17.7311706 51.1307695,19.7021548 50.4839654,21.804074 L50.4452461,21.9302939 L50.2855625,21.7966492 C47.1917262,19.249426 43.3579494,17.6269359 38.9470669,17.1595803 C32.9496447,16.5209642 27.3618977,18.4350805 22.8622625,22.2983388 L22.4446398,22.6650619 C19.549024,25.2652706 17.2332337,28.5601288 15.321765,32.4590855 L15.0232461,33.0792939 L14.7289544,33.6339764 C14.5558866,33.9683352 14.3980133,34.3103423 14.2558173,34.6589518 L14.1709941,34.8714866 L13.9941656,35.3439214 C13.9640193,35.427874 13.9335765,35.5144167 13.9028989,35.603525 L13.8222461,35.8402939 L13.5153344,36.6243619 C9.80125315,46.3256511 7.83313343,59.4363473 7.55315306,71.8992572 C7.47959387,75.1113252 8.19981481,78.6101253 9.68884101,82.5113649 L9.99688958,83.2970129 C10.3151741,84.0880954 10.6641442,84.895584 11.0436002,85.7204044 L11.4332106,86.5510364 L11.8431006,87.3934285 L12.2732256,88.2477867 L12.7235413,89.1143164 L13.1940033,89.9932235 C13.3541767,90.2882782 13.5177004,90.5854302 13.6845671,90.8847136 L14.1951884,91.7889924 L14.7258228,92.7062657 L15.2764259,93.6367391 C15.3698547,93.7929295 15.4641136,93.9496784 15.5592018,94.1069902 L16.1396747,95.0576495 L16.7400052,96.0220232 L17.360149,97.0003171 L18.0000617,97.9927367 L18.6596988,98.9994878 L19.339016,100.020776 L20.0379689,101.056807 L20.7565131,102.107787 L21.4946042,103.173921 L22.2521977,104.255416 L23.4250581,105.906907 L24.2312135,107.027701 L25.0567161,108.164575 L26.3311486,109.900486 L27.6488623,111.673734 L29.4728812,114.097345 L30.7072461,115.716294 L30.5962195,115.711747 C25.2930595,115.503364 20.542341,116.547682 16.4618281,119.401991 L16.1472461,119.626294 L12.3611911,121.655908 L11.3186777,122.227175 C8.84530464,123.617012 7.07819394,124.787144 5.42875043,126.319673 C0.821069724,130.600757 -1.13116247,136.725792 1.04085959,143.055181 C2.30194071,146.730039 4.49938155,149.56571 8.15388706,153.201498 L8.53759131,153.576689 L8.94906615,153.965084 L9.38808041,154.366574 L9.85440291,154.781052 L10.3478025,155.20841 L10.8680479,155.648541 L11.414908,156.101336 L11.9881516,156.566689 L12.8969804,157.288028 L13.5351714,157.784304 L14.5403376,158.551521 L15.2420311,159.078046 L15.968721,159.616482 L16.7201761,160.166722 L17.4961653,160.728658 L19.1208212,161.887187 L19.9690255,162.483565 L21.736031,163.710009 L23.1221471,164.658896 L25.0499677,165.962126 L27.0671397,167.308049 L29.1718136,168.695804 L31.3621401,170.124529 L33.6362696,171.593364 L36.5939619,173.4845 L39.0498862,175.040432 L41.5836028,176.633674 L42.7661953,177.373356 L44.1514323,178.236464 L46.9347758,179.960283 C47.3993501,180.246874 47.8640175,180.532958 48.3284049,180.818315 L51.1083842,182.51992 L53.8637333,184.193319 L56.5765424,185.827791 L59.7958617,187.750358 L62.0031624,189.058606 L64.1019637,190.291744 L66.0767498,191.440733 L67.9120048,192.496538 L69.9862206,193.671485 L70.3693257,193.885754 C74.4601556,196.169148 80.1744529,198.288316 86.6889721,200.114392 L88.0479517,200.487976 C89.8744287,200.9804 91.7574819,201.449844 93.6798287,201.893601 L95.1286864,202.221561 L96.590659,202.539635 L98.0641262,202.847569 C98.310572,202.898033 98.5574292,202.948063 98.8046641,202.997655 L100.292335,203.289905 L101.787451,203.571381 L103.28839,203.841831 C103.789494,203.930114 104.291298,204.016518 104.793533,204.100999 L106.30126,204.348633 L107.809949,204.58448 C108.061388,204.622791 108.312799,204.660601 108.564149,204.697903 L110.071245,204.915592 C110.322216,204.950845 110.573058,204.985581 110.823737,205.019794 L112.325595,205.218754 C112.825385,205.282955 113.324255,205.345022 113.821935,205.404913 L115.311137,205.578015 C115.558653,205.605763 115.805803,205.632957 116.052555,205.659591 L117.528012,205.812633 L118.992281,205.951986 C119.478326,205.996127 119.962236,206.037944 120.443741,206.077394 L121.880772,206.188606 L123.301754,206.285366 L124.705066,206.367422 L126.089088,206.434519 C127.691899,206.503976 129.252019,206.542374 130.757869,206.547903 L131.377637,206.548081 L132.034201,206.543763 L132.744849,206.533241 C133.214347,206.524356 133.675332,206.511712 134.127936,206.495183 L134.532246,206.478294 L187.961781,258.247248 L188.203297,258.475239 C193.240717,263.107864 201.103627,262.83128 205.800231,257.796792 L219.567246,243.038294 L231.622246,252.265294 L231.524965,253.151999 C231.084351,257.377557 230.963526,261.647557 231.294603,265.83551 C231.79194,272.126578 233.276789,277.778511 236.186142,282.640475 C240.115794,289.207509 246.335408,293.624651 254.263043,294.922768 C263.879447,296.495423 272.216902,292.861636 276.595486,284.927954 C279.454599,279.747446 280.177655,273.780059 279.671535,266.938622 L279.59728,266.03157 C279.461456,264.516516 279.26583,262.98537 279.018325,261.444342 L278.962246,261.108294 L279.387432,260.926375 C280.317133,260.52117 281.239206,260.095176 282.150485,259.647453 C288.636855,256.460617 293.8772,252.566745 297.42578,247.367455 C302.68002,239.669076 303.090589,230.347901 298.077964,221.568782 C292.697716,212.153483 284.07727,207.504235 274.412297,208.378999 L273.83128,208.437795 C268.228819,209.064667 263.030883,211.381832 258.022038,214.817314 L257.685246,215.050294 L250.756246,209.575294 L264.332893,195.013937 L264.554938,194.769516 C269.209906,189.510298 268.6207,181.410063 263.191434,176.886509 L200.538246,124.685294 L200.370236,124.276393 C200.197211,123.859254 200.018265,123.433185 199.83344,122.998681 L199.261377,121.67036 L198.654309,120.294404 C198.550229,120.061273 198.444702,119.826282 198.337732,119.589492 C195.584103,113.493991 192.419965,107.391472 188.854426,101.627778 C182.208959,90.8853829 174.937124,82.4829833 166.591496,77.2509397 L165.800015,76.7605733 C161.488899,73.9770082 158.802479,67.5844423 157.994498,58.3127921 L157.933246,57.5592939 L157.865758,57.9118118 C158.636877,54.214048 158.046182,50.5515149 156.43034,47.3198301 L156.225004,46.9168237 C156.153621,46.7816695 156.079376,46.6458224 156.002495,46.50966 L155.920246,46.3692939 L156.148039,46.0517948 C156.427754,45.6469846 156.693713,45.224948 156.945162,44.7842228 C159.242943,40.7568095 159.729702,35.9508753 158.003005,31.381445 L157.869888,31.0397205 C154.521887,22.6937612 146.298516,20.1504411 139.135039,22.7261197 L138.777246,22.8592939 L138.418342,22.7394777 C138.249398,22.6857016 138.078749,22.6340268 137.906308,22.5844975 L137.572294,22.4922094 C135.788841,22.0188547 133.974176,21.8471155 132.200179,21.9787593 L131.969246,21.9972939 L131.936148,21.7366582 C131.721843,20.1499503 131.39169,18.6009446 130.942048,17.1195264 C127.720848,6.50677079 118.439398,-0.168608231 106.704758,2.46293273 L106.297753,2.55837543 C100.371186,4.01408239 96.321893,7.92249349 93.1897032,13.4850645 L93.0762461,13.6882939 L93.0571658,13.6455126 C91.6264587,10.5885062 89.740165,7.91721965 87.3056371,5.72555914 C82.3824781,1.29353206 75.9268665,-0.416000938 69.18901,0.902757148 Z" id="Sticker" fill="#FFFFFF" fill-rule="nonzero"></path>
                <path d="M222.171299,274.427984 L229.101436,226.996145 C229.101436,226.996145 201.32755,220.800463 211.499136,203.362287 C221.678927,185.924111 244.820413,210.747868 244.820413,210.747868 C244.820413,210.747868 267.711609,184.939367 274.444797,202.746822 C281.173881,220.554277 249.087637,230.237594 249.087637,230.237594 L242.809894,278.36696 L222.171299,274.427984" id="Bone" fill="#EED46C" transform="translate(242.315992, 237.424067) rotate(-240.000000) translate(-242.315992, -237.424067) "></path>
                <g id="Hand" transform="translate(12.668246, 12.967294)">
                    <g id="Skin">
                        <path d="M114.367842,40.4894441 C114.48903,39.4282191 114.629247,38.3569825 114.769464,37.2657229 C116.311852,35.073192 120.388164,34.0620248 124.815019,34.9730764 C128.659972,35.7539778 131.695673,37.7663007 132.787363,39.9888663 C132.797379,41.0701144 132.81741,42.1513625 132.867487,43.2826684 C133.398309,54.7759353 136.433008,68.2514905 147.119555,74.7189561 C165.287687,85.7416799 177.696901,119.420556 177.696901,119.420556 L242.751174,174.068972 L184.560313,237.548099 L126.597779,180.711306 C113.968223,183.104068 77.4917428,177.787931 63.8906828,170.199171 C61.1264025,168.657392 57.350556,166.464861 53.033872,163.891891 C36.0475702,153.79023 10.5380711,137.731693 4.30842506,131.524528 C-3.51368677,123.745549 -0.198553591,122.98467 10.3277454,117.318129 C17.9896091,113.183356 42.7279141,125.767883 55.5978421,132.906123 C57.0400752,133.717059 58.5023394,131.894956 57.410649,130.643511 C42.7980227,114.134454 7.09273631,72.3962749 7.39320155,59.2811358 C7.76377535,42.7921021 12.0203663,15.2603215 25.0004648,16.6419163 C37.9505168,18.0134996 33.2732745,39.0878262 33.954329,53.9950339 C34.6453991,68.8922301 56.5793618,86.4625119 56.5793618,86.4625119 C56.5793618,86.4625119 49.1178083,61.3034702 46.9945206,50.6912203 C44.8812484,40.0689587 46.824257,2.58569085 59.0131303,0.202940385 C71.1919882,-2.17981008 73.5656636,16.8922052 70.4909026,32.5903259 C67.4161416,48.258412 85.1135444,72.6465639 85.1135444,72.6465639 C85.1135444,72.6465639 83.1204583,51.7824799 83.1505048,45.3250259 C83.1505048,43.6430844 83.1705359,42.8421599 83.1595188,42.5117785 C83.1404893,42.7120097 83.1204583,43.0524026 83.1004273,43.0924488 C83.0803963,43.0223679 83.0603653,42.772079 83.0403343,42.2114318 C83.0403343,42.2114318 86.5257311,4.01734345 96.9218285,1.69466232 C107.327941,-0.638030368 109.1097,13.5483453 105.585243,21.9079951 C102.049769,30.2576333 112.805423,60.6527191 112.805423,60.6527191 C112.805423,60.6527191 113.096874,51.351983 114.367842,40.4894441 Z" id="Fill-1847" fill="#59B148"></path>
                        <path d="M166.579687,130.793685 C166.579687,130.793685 166.602113,131.229206 166.604379,131.991151 L166.604201,132.291968 C166.587008,136.501197 165.932767,148.530076 159.318444,154.741328 C151.741111,161.834916 202.376961,204.285073 209.231802,209.937816 L209.595916,210.237312 L184.560313,237.548099 L126.597779,180.711306 C113.968223,183.104068 77.4917428,177.787931 63.8906828,170.199171 C61.1264025,168.657392 57.350556,166.464861 53.033872,163.891891 C62.0778758,166.625046 101.909552,176.956972 130.173315,157.824887 C144.279558,148.270258 153.02058,141.890462 158.386808,137.741422 L159.097835,137.189382 C163.355813,133.869309 165.291354,132.096322 166.088028,131.309043 L166.259983,131.136685 C166.494491,130.897881 166.579687,130.793685 166.579687,130.793685 Z M19.3116562,123.375121 C19.3116562,123.375121 25.2308215,128.45098 22.6768669,132.035118 C20.1128968,135.629266 16.2168642,136.500272 13.9834059,134.728226 C13.9834059,134.728226 17.7993145,133.777128 18.9510979,130.653523 C20.1128968,127.529917 19.3116562,123.375121 19.3116562,123.375121 Z M56.8798271,133.056296 C56.4391447,135.238816 47.2439067,135.028573 41.1054018,130.873777 C34.9558799,126.728993 10.3277454,117.318129 10.3277454,117.318129 C20.1429434,108.828329 57.3104939,130.873777 56.8798271,133.056296 Z M31.9011499,23.7701446 C33.5721909,24.7758416 34.4020187,32.7688624 34.8261755,41.0491258 L34.8700884,41.9370908 C34.8842219,42.233242 34.8978577,42.5294545 34.9110158,42.8254228 L34.9490765,43.7122905 C35.1629685,48.8778538 35.2366238,53.8752049 35.2763761,57.0685818 C35.3700211,64.5912654 50.6958768,80.5625014 55.2915265,85.1846118 L55.8663313,85.7596829 C56.3229288,86.213933 56.5793618,86.4625119 56.5793618,86.4625119 C46.8042259,88.9353664 36.0375547,75.9203429 29.2871023,63.1055504 C25.0880679,55.1280418 27.124402,41.855079 29.2635739,32.9613461 C27.1559474,36.0746088 17.1258484,49.6016013 12.1405524,33.0708807 C12.1405524,33.0708807 20.8582507,40.936158 29.330263,32.6870764 C30.6087423,27.4289093 31.9011499,23.7701446 31.9011499,23.7701446 Z M67.5763897,15.8009455 L67.5766712,15.8617593 C67.5766947,15.8668271 67.5767201,15.8723172 67.5767476,15.8782649 L67.5776928,16.0824907 L67.577793,16.1041389 L67.577793,16.1041389 L67.5786415,16.2874555 L67.5787852,16.3185003 L67.5787852,16.3185003 L67.5795958,16.4936521 C67.5799521,16.5706195 67.5803479,16.6561389 67.5807877,16.7511604 L67.5817272,16.9541544 C67.5858971,17.8550988 67.5933247,19.459906 67.6065552,22.3184689 C67.6464983,28.8259807 57.5508661,31.979621 53.1240116,29.1163158 C48.6871415,26.2530106 50.2295297,22.1883187 50.2295297,22.1883187 C62.9392095,33.1509731 67.5763897,15.8009455 67.5763897,15.8009455 Z M89.5504145,18.6242045 C89.5504145,18.6242045 86.9263514,20.0458455 90.3616707,23.2795783 C93.8070055,26.5032995 96.4811461,26.4232071 99.8964344,23.4798095 C103.311723,20.5264003 103.65225,15.3404139 103.65225,15.3404139 C103.65225,15.3404139 98.844806,27.3542819 89.5504145,18.6242045" id="Shadow" fill="#449143"></path>
                    </g>
                    <path d="M103.592157,84.4802237 L104.804033,84.5803393 L103.93048,95.9466828 C108.2769,96.0906359 112.835887,96.2957282 117.32336,96.5860299 L117.954396,87.6038294 L119.166272,87.6839219 L118.535777,96.6666872 C122.585719,96.9436739 126.556,97.2923176 130.235655,97.7304934 L130.844354,86.7628586 L132.056231,86.8329395 L131.447929,97.8794834 C132.122827,97.9650891 132.786766,98.0538887 133.438371,98.1459985 C138.736575,98.9068768 143.203491,99.8679862 146.198128,101.149465 L146.198128,101.149465 L145.717384,102.260748 C142.923057,101.059361 138.506218,100.08824 133.268107,99.3473853 C132.650583,99.2600453 132.021366,99.1756274 131.381719,99.0940494 L130.924478,107.356631 L129.702587,107.28655 L130.167514,98.9440451 C126.492599,98.5042642 122.511721,98.1530142 118.450911,97.8756235 L118.084597,103.081696 L116.872721,103.001603 L117.239204,97.7951691 C116.760494,97.7642846 116.280991,97.7343995 115.801061,97.70549 C115.327251,97.6769956 114.852951,97.6494045 114.378499,97.6226896 L112.95502,97.5451456 L112.95502,97.5451456 L111.532643,97.472694 C108.933389,97.3447388 106.349782,97.2415124 103.837358,97.1584984 L103.381831,103.101719 L102.169955,103.011615 L102.621001,97.11969 C99.8222185,97.0335424 97.1249201,96.9720477 94.6081763,96.9287756 L95.3694247,103.241881 L94.1575482,103.382043 L93.379978,96.9088533 C90.0252402,96.8576874 87.0319228,96.8385678 84.6017506,96.8350895 L82.9645683,96.835159 C81.5517571,96.8375651 80.407026,96.8460364 79.584984,96.8545077 C79.0615067,96.8598472 78.666228,96.8623389 78.4097835,96.8635018 L78.2436478,96.8641484 C78.2203524,96.8642226 78.1992679,96.8642819 78.180415,96.8643294 L78.0626267,96.8645192 L78.0526112,95.6531209 L78.0526112,95.6531209 L78.1054353,95.6524214 C78.4557147,95.6479083 80.5291732,95.6230862 83.7614508,95.6230862 C86.2964921,95.6230862 89.543816,95.6390096 93.2346784,95.6936269 L92.0542915,85.851807 L93.2561525,85.7116452 L94.4606099,95.7129549 C97.0469814,95.7562469 99.8267752,95.8187723 102.714219,95.9077984 L103.592157,84.4802237 Z M186.470486,132.926146 C187.695143,135.356648 188.643598,137.681548 189.357141,139.898577 L192.34959,140.655068 L192.049124,141.82642 L189.768043,141.253113 C190.757501,144.727913 191.16776,147.925575 191.16776,150.836821 C191.16776,150.890184 191.167621,150.943449 191.167346,150.996614 L195.093839,153.089421 L194.522955,154.160658 L191.130167,152.352227 C190.92503,156.465002 189.903078,159.940502 188.626031,162.750525 L193.431265,164.933092 L192.930489,166.034364 L188.100984,163.842829 C187.673285,164.685697 187.227126,165.459901 186.780967,166.164514 C184.597586,169.618501 182.40419,171.400558 182.374144,171.430593 L182.374144,171.430593 L181.602949,170.479495 L181.622981,170.469483 L181.693089,170.409414 C181.743167,170.359356 181.833306,170.289275 181.943477,170.179148 C182.173833,169.978917 182.49433,169.668559 182.884935,169.248073 C183.666144,168.417114 184.706755,167.16567 185.759385,165.513763 C186.176962,164.852693 186.59454,164.127878 186.995499,163.339872 L177.787041,159.156424 L178.287816,158.055153 L187.520514,162.248032 C188.79807,159.430677 189.808043,155.912385 189.932873,151.71383 L183.87647,148.484105 L184.447354,147.412868 L189.941821,150.342986 C189.895137,147.490047 189.441056,144.346042 188.399004,140.909071 L182.614516,139.453681 L182.914981,138.272317 L187.960107,139.547081 C187.299067,137.609579 186.452062,135.582915 185.388812,133.46677 L185.388812,133.46677 Z M96.0695087,134.848365 L100.404114,142.878224 L106.813114,140.704224 L106.546732,136.139856 L107.757607,136.069775 L108.005114,140.299224 L116.371945,137.461381 L116.76255,138.61271 L108.078114,141.558224 L108.239353,144.299274 L107.027476,144.369355 L106.886114,141.962224 L100.989114,143.963224 L102.68976,147.112522 L101.629117,147.68318 L99.8311139,144.356224 L87.8761139,148.412224 L90.2314691,154.010484 L89.1197477,154.481027 L86.7271139,148.802224 L75.5387187,152.598855 L75.1481139,151.447526 L86.2541139,147.679224 L83.1004273,140.194536 L84.2221642,139.723993 L87.4041139,147.289224 L99.2441139,143.272224 L94.9988509,135.419024 L96.0695087,134.848365 Z" id="Scars" fill="#251514"></path>
                    <path d="M13.1821652,26.4432302 C13.1821652,26.4432302 10.0773577,34.0520132 15.9664765,37.9665318 C21.8555953,41.8710389 26.522822,36.2145094 27.8148226,34.8329146 C29.1068231,33.4613314 28.7562803,19.3550481 28.7562803,19.3550481 L25.3710386,23.2996014 L22.5967429,20.3862385 C22.5967429,20.3862385 16.567407,19.9056838 13.1821652,26.4432302 M50.2695917,15.5907029 C50.2695917,15.5907029 51.1509565,24.8313696 52.3528174,25.972687 C53.5546784,27.1039929 61.7373485,29.5968705 65.6634277,24.0504682 C69.5794914,18.4940543 66.9053507,7.72161938 66.9053507,7.72161938 L63.3999229,10.4247397 L59.6641383,6.86062552 L54.4861207,11.45593 L54.295826,8.03197764 L52.0122902,12.5371781 L50.2695917,15.5907029 M90.6220739,10.2345201 C90.6220739,10.2345201 88.1282124,18.5841583 91.1428803,21.4174288 C94.1575482,24.2406878 98.9850232,23.9203179 101.548993,20.3361807 C104.112963,16.7520434 103.912653,7.82173495 103.912653,7.82173495 L99.8163103,7.69158471 L99.3255504,10.6349823 L97.8232242,8.09204698 L95.0889905,11.3558144 L94.48806,8.2021741 L90.6220739,10.2345201 M4.52876623,126.338542 C4.52876623,126.338542 3.27682772,129.051674 9.91710959,132.856065 C16.547376,136.660457 18.5604931,134.177591 21.0142926,129.832575 C23.4680921,125.497571 16.2268797,120.802151 13.5928011,119.630799 C10.9687379,118.459447 9.00569836,119.861065 9.00569836,119.861065 L10.6883037,122.72437 L6.712147,123.855676 L7.4532946,126.168345 L4.52876623,126.338542" id="Nails" fill="#EED46C"></path>
                    <path d="M132.787363,39.9888663 C133.187983,40.7897908 133.338216,41.62075 133.166951,42.4416976 C133.107859,42.7420443 132.997689,43.0223679 132.867487,43.2826684 C131.625564,45.775546 127.287848,46.9969559 122.551514,46.0258349 C118.415109,45.1848641 115.220162,42.9222523 114.367842,40.4894441 C114.128471,39.858716 114.058363,39.2079649 114.19858,38.5672252 C114.28872,38.0866705 114.48903,37.6661851 114.769464,37.2657229 C116.311852,35.073192 120.388164,34.0620248 124.815019,34.9730764 C128.659972,35.7539778 131.695673,37.7663007 132.787363,39.9888663" id="Flesh" fill="#CF342B"></path>
                    <path d="M121.08925,40.3492823 L122.780869,28.7759229 C122.780869,28.7759229 116.001371,27.2641778 118.484216,23.0092663 C120.969063,18.7543547 126.61781,24.8113465 126.61781,24.8113465 C126.61781,24.8113465 132.205462,18.5140774 133.849007,22.8590929 C135.49155,27.2041085 127.659423,29.5668359 127.659423,29.5668359 L126.12705,41.3103917 L121.08925,40.3492823" id="Bone" fill="#EED46C"></path>
                </g>
            </g>
        </g>
        <g id="Group" transform="translate(148.000000, 0.816900)">
            <path d="M238.650935,280.251666 L239.32971,278.877577 C239.639748,278.246166 239.915997,277.658672 240.183728,277.056653 L240.319,276.747 L240.647274,276.024545 L241.028448,275.166455 L241.420547,274.266497 L241.830114,273.31073 L242.106266,272.656325 L242.369085,272.00385 L242.76754,270.986792 L243.196286,269.861213 L243.55838,268.893939 L244.121351,267.262133 L244.303583,266.716082 L244.577135,265.919047 L244.861047,265.050454 L245.145587,264.150385 C245.547667,262.904917 245.910241,261.638751 246.270909,260.249574 L246.398857,259.745169 C247.027675,257.413707 247.574388,255.017302 248.040206,252.570095 L248.3491,250.859418 L248.506214,249.929508 L248.633223,249.142695 L248.703244,248.678243 L248.793632,248.017899 L248.839,247.645 L248.869742,247.453197 C249.095611,245.959567 249.261431,244.452754 249.411169,242.676359 L249.453,242.155 L249.488452,241.786633 C249.58762,240.698572 249.651956,239.801581 249.686047,238.895308 L249.696,238.577 L249.72651,238.147892 L249.7475,237.742215 L249.759646,237.335438 L249.76,237.191 L249.80723,236.104828 L249.827495,235.489933 C249.83014,235.392042 249.832417,235.296006 249.834324,235.201163 L249.84131,234.641153 L249.841,234.406 L249.852044,234.007059 L249.860112,233.259328 L249.860112,232.661261 L249.810201,230.248595 L249.779275,229.369732 L249.762002,229.0427 L249.757,229.014 L249.771548,228.464352 L249.559201,225.48109 L249.480767,224.523699 C249.467311,224.370298 249.453597,224.21943 249.439525,224.070268 L249.396138,223.62708 C249.259905,222.199571 249.082525,220.662275 248.87884,219.145956 C248.790376,218.5122 248.6961,217.88132 248.593847,217.235649 L248.378059,215.919349 L248.137143,214.532197 L247.913511,213.349442 C247.453334,210.99067 246.915358,208.670369 246.293642,206.353253 L246.096,205.635 L246.066817,205.502883 L245.965807,205.103157 L245.84831,204.682154 L245.776,204.438 L245.760501,204.372848 L245.708452,204.188784 C244.479982,199.844469 242.889614,195.509161 240.917562,191.036828 C239.090621,186.928824 237.015862,182.964601 234.67158,179.053596 L234.013946,177.986374 C214.112236,146.1189 178.719744,127.699709 141.894127,128.975207 L141.477,128.992 L124.868736,76.4424665 L110.603,35.868 L110.617875,35.8344728 C113.134164,29.7098379 113.206402,22.6372715 110.362448,16.2052455 C104.762428,3.56519135 89.9988752,-2.13497426 77.3668072,3.46151155 L16.0550806,30.6053589 L15.6246799,30.8035484 C3.36956312,36.6021401 -2.03945616,51.1169522 3.46150986,63.5334183 L3.62388375,63.8930354 C6.15274741,69.3791535 10.4746788,73.5734683 15.6312947,76.0124854 L15.796,76.089 L39.082,111.28 L68.818,162.509 L68.2272099,163.153897 C43.0086238,190.967045 34.3472845,230.827583 46.8621896,267.142792 C47.7775346,269.867933 48.8861468,272.701373 50.1374676,275.516844 C52.05092,279.844951 54.1805079,283.937266 56.5563818,287.821989 C83.6969231,332.15766 139.801187,349.888242 187.752394,328.649169 C191.862056,326.833035 195.834734,324.758402 199.61086,322.456733 L200.529013,321.889544 C203.171954,320.270742 205.766846,318.496626 208.395674,316.530926 C210.848459,314.696861 213.247731,312.702661 215.664888,310.511741 C216.818953,309.460564 217.937336,308.390559 219.058947,307.268948 C224.524743,301.856731 229.39063,295.778652 233.571773,289.174563 L234.428525,287.805363 L234.966285,286.929881 C235.308227,286.365345 235.62099,285.831769 235.928279,285.285468 L236.112,284.954 L235.997793,285.154854 C236.919556,283.580175 237.803884,281.943606 238.650935,280.251666 Z" id="Path" fill="#FFFFFF" fill-rule="nonzero"></path>
            <g transform="translate(25.813603, 11.813605)" id="Halloween/Features/Potion-1">
                <g transform="translate(93.500000, 160.500000) rotate(-24.000000) translate(-93.500000, -160.500000) ">
                    <g id="Group" transform="translate(100.773254, 160.647206) rotate(24.000000) translate(-100.773254, -160.647206) translate(-11.000000, 5.000000)">
                        <path d="M99.1965086,66.5865086 L118.770107,128.515931 C154.617722,123.399464 190.901854,140.029492 210.136509,171.666509 C212.156509,175.036509 214.016509,178.556509 215.666509,182.266509 C217.346509,186.076509 218.766509,189.886509 219.866509,193.776509 C219.946509,194.096509 220.066509,194.426509 220.126509,194.756509 C220.886509,197.466509 221.516509,200.176509 222.016509,202.906509 C222.256509,204.256509 222.486509,205.636509 222.676509,206.996509 C222.856509,208.336509 223.016509,209.716509 223.146509,211.076509 C223.276509,212.356509 223.356509,213.676509 223.446509,214.936509 C223.436509,215.326509 223.456509,215.706509 223.476509,216.076509 C223.516509,217.036509 223.526509,218.006509 223.546509,218.976509 C223.546509,219.446509 223.546509,219.926509 223.526509,220.406509 C223.536509,221.286509 223.486509,222.196509 223.446509,223.096509 C223.456509,223.396509 223.426509,223.726509 223.396509,224.066509 C223.376509,225.146509 223.286509,226.216509 223.186509,227.266509 C223.056509,228.896509 222.896509,230.536509 222.636509,232.156509 C222.516509,233.216509 222.326509,234.276509 222.146509,235.336509 C221.706509,237.806509 221.166509,240.266509 220.516509,242.676509 C220.196509,243.946509 219.846509,245.226509 219.436509,246.496509 C219.176509,247.326509 218.916509,248.146509 218.626509,248.956509 C218.426509,249.576509 218.206509,250.206509 217.986509,250.836509 C217.576509,251.936509 217.156509,253.046509 216.716509,254.126509 C216.196509,255.356509 215.656509,256.606509 215.096509,257.826509 C214.776509,258.566509 214.456509,259.236509 214.096509,259.956509 C213.256509,261.686509 212.356509,263.386509 211.396509,265.026509 C210.856509,266.006509 210.286509,266.936509 209.696509,267.876509 C205.956509,273.916509 201.526509,279.546509 196.406509,284.616509 C195.446509,285.576509 194.466509,286.516509 193.456509,287.436509 C191.426509,289.276509 189.316509,291.046509 187.096509,292.706509 C184.876509,294.366509 182.586509,295.946509 180.186509,297.416509 C176.626509,299.646509 172.836509,301.656509 168.876509,303.406509 C126.296509,322.266509 77.0665086,306.136509 53.4065086,267.486509 C51.2965086,264.036509 49.4265086,260.426509 47.7465086,256.626509 C46.6665086,254.196509 45.6965086,251.726509 44.8665086,249.256509 C32.6198853,213.719788 43.514283,174.93888 70.6801683,150.800877 L35.8965086,90.8765086 L99.1965086,66.5865086 Z" id="Flask" fill="#73A796"></path>
                        <g id="Cap" transform="translate(0.000000, 0.000000)">
                            <polyline id="Fill-1793" fill="#7C1F14" points="22.5265086 69.0965086 88.7465086 39.7765086 80.9865086 22.2565086 14.7665086 51.5765086 22.5265086 69.0965086"></polyline>
                            <path d="M17.5665086,51.0265086 L78.7465086,23.9365086 C85.0565086,21.1465086 87.9065086,13.7565086 85.1165086,7.44650863 C82.3165086,1.12650863 74.9365086,-1.72349137 68.6165086,1.07650863 L7.44650863,28.1565086 C1.12650863,30.9565086 -1.72349137,38.3365086 1.07650863,44.6565086 C3.86650863,50.9665086 11.2565086,53.8265086 17.5665086,51.0265086" id="Fill-1801" fill="#AC0F0F"></path>
                            <path d="M14.0265086,46.6965086 L51.1465086,30.2565086 C54.4065086,28.8065086 55.8965086,24.9565086 54.4565086,21.6865086 C53.0065086,18.4165086 49.1465086,16.9365086 45.8865086,18.3765086 L8.76650863,34.8165086 C5.49650863,36.2565086 4.00650863,40.1165086 5.45650863,43.3865086 C6.89650863,46.6465086 10.7565086,48.1365086 14.0265086,46.6965086" id="Fill-1802" fill="#DB2F1C"></path>
                        </g>
                        <polyline id="Cap-in-bottle" fill="#5C6A67" points="86.8765086 31.5465086 99.1965086 66.5865086 35.8965086 90.8765086 18.1765086 64.0965086 86.8765086 31.5465086"></polyline>
                        <g id="Potion" transform="translate(44.866509, 126.440844)">
                            <path d="M175,67.3356643 C175.08,67.6556643 175.2,67.9856643 175.26,68.3156643 C176.04,71.0156643 176.68,73.7256643 177.15,76.4656643 C177.39,77.8156643 177.62,79.1956643 177.81,80.5556643 C177.99,81.8956643 178.15,83.2756643 178.28,84.6356643 C178.41,85.9156643 178.49,87.2356643 178.58,88.4956643 C178.57,88.8856643 178.59,89.2656643 178.61,89.6356643 C178.65,90.5956643 178.66,91.5656643 178.68,92.5356643 C178.68,93.0056643 178.68,93.4856643 178.66,93.9656643 C178.67,94.8456643 178.62,95.7556643 178.58,96.6556643 C178.59,96.9556643 178.56,97.2856643 178.53,97.6256643 C178.51,98.7056643 178.42,99.7756643 178.32,100.825664 C178.19,102.455664 178.03,104.095664 177.77,105.715664 C177.65,106.775664 177.46,107.835664 177.28,108.895664 C176.84,111.365664 176.3,113.825664 175.65,116.235664 C175.33,117.505664 174.98,118.785664 174.57,120.055664 C174.31,120.885664 174.05,121.705664 173.76,122.515664 C173.56,123.135664 173.34,123.765664 173.12,124.395664 C172.71,125.495664 172.29,126.605664 171.85,127.685664 C171.33,128.915664 170.79,130.165664 170.23,131.385664 C169.9,132.095664 169.56,132.805664 169.23,133.515664 C168.39,135.245664 167.49,136.945664 166.53,138.585664 C165.99,139.565664 165.42,140.495664 164.83,141.435664 C161.09,147.475664 156.66,153.105664 151.54,158.175664 C150.58,159.135664 149.6,160.075664 148.59,160.995664 C146.56,162.835664 144.45,164.605664 142.23,166.265664 C140.01,167.925664 137.72,169.505664 135.32,170.975664 C131.76,173.205664 127.97,175.215664 124.01,176.965664 C81.43,195.825664 32.2,179.695664 8.54,141.045664 L175,67.3356643" id="Liquid" fill="#76BA43"></path>
                            <path d="M170.8,55.8256643 C172.48,59.6356643 173.9,63.4456643 175,67.3356643 C175.08,67.6556643 175.2,67.9856643 175.26,68.3156643 C172.31,71.2756643 168.81,74.1256643 165.35,76.6056643 C160.95,79.7656643 156.66,82.3556643 153.57,83.8656643 C153.37,83.9556643 153.19,84.0656643 152.95,84.1356643 C143.31,88.6156643 92.16,108.635664 53.44,123.675664 C39.82,128.965664 27.72,133.645664 19.53,136.795664 C12.66,139.455664 8.54,141.045664 8.54,141.045664 C6.43,137.595664 4.56,133.985664 2.88,130.185664 C1.8,127.755664 0.83,125.285664 0,122.815664 C2.64,119.905664 7.69,116.005664 14.46,111.535664 C23.14,105.795664 34.65,99.0756643 47.56,92.1456643 L47.58,92.1356643 C87.92,70.4656643 141.84,46.8756643 165.27,45.2256643 C167.29,48.5956643 169.15,52.1156643 170.8,55.8256643" id="Surface" fill="#A7CC5E"></path>
                            <path d="M104.06,31.8256643 C106.88,38.1956643 104,45.6656643 97.62,48.4856643 C91.24,51.3056643 83.78,48.4256643 80.96,42.0456643 C78.13,35.6756643 81.01,28.2156643 87.39,25.3856643 C93.77,22.5656643 101.23,25.4456643 104.06,31.8256643 M73.67,69.3556643 C75.24,72.8956643 73.64,77.0456643 70.09,78.6156643 C66.55,80.1856643 62.41,78.5856643 60.84,75.0356643 C59.27,71.4956643 60.87,67.3456643 64.41,65.7856643 C67.96,64.2156643 72.1,65.8156643 73.67,69.3556643 M50.46,4.5656643 C52.18,8.4456643 50.43,12.9856643 46.55,14.7056643 C42.67,16.4156643 38.13,14.6656643 36.42,10.7856643 C34.7,6.9156643 36.45,2.3756643 40.33,0.655664302 C44.21,-1.0543357 48.75,0.695664302 50.46,4.5656643 M72.58,22.6856643 C74.3,26.5656643 72.55,31.1056643 68.67,32.8156643 C64.79,34.5356643 60.25,32.7856643 58.54,28.9056643 C56.82,25.0256643 58.57,20.4956643 62.45,18.7756643 C66.33,17.0556643 70.86,18.8056643 72.58,22.6856643 M52.68,28.6656643 C54.94,33.7656643 52.64,39.7256643 47.54,41.9856643 C42.45,44.2356643 36.49,41.9356643 34.23,36.8356643 C31.97,31.7456643 34.27,25.7856643 39.37,23.5256643 C44.47,21.2656643 50.43,23.5756643 52.68,28.6656643 M32.23,74.8656643 C29.28,74.8656643 26.47,73.1556643 25.2,70.2856643 C23.48,66.4056643 25.24,61.8756643 29.11,60.1556643 C30.12,59.7056643 31.18,59.4956643 32.22,59.4956643 C35.16,59.4956643 37.98,61.2056643 39.25,64.0656643 C40.96,67.9456643 39.21,72.4856643 35.33,74.2056643 C34.32,74.6456643 33.27,74.8656643 32.23,74.8656643 M27.52,64.1656643 C27.29,64.1656643 27.06,64.2156643 26.84,64.3156643 C25.99,64.6856643 25.61,65.6756643 25.99,66.5256643 C26.26,67.1556643 26.88,67.5256643 27.52,67.5256643 C27.75,67.5256643 27.98,67.4856643 28.2,67.3856643 C29.05,67.0056643 29.43,66.0156643 29.06,65.1656643 C28.78,64.5356643 28.16,64.1656643 27.52,64.1656643 M104.84,82.9956643 C104.84,82.9956643 101.19,74.1056643 110.1,68.8656643 C110.1,68.8656643 120.19,64.6856643 124.8,74.4456643 L104.84,82.9956643 M60.37,109.945664 C60.37,109.945664 57.79,103.655664 64.08,99.9556643 C64.08,99.9556643 71.22,97.0056643 74.48,103.905664 L60.37,109.945664 M143.89,66.8556643 C143.89,66.8556643 143.33,61.0556643 137.97,58.6856643 C132.6,56.3056643 130.92,53.1656643 134.86,53.2956643 C138.8,53.4156643 141.43,57.7256643 141.43,57.7256643 C141.43,57.7256643 135.52,50.5556643 139.05,48.1256643 C142.58,45.7056643 141.38,53.7156643 143.25,55.3356643 C145.12,56.9556643 143.79,52.6556643 145.54,51.7356643 C147.29,50.8156643 144.69,53.4056643 145.2,57.7856643 C145.7,62.1656643 148.95,65.6156643 143.89,66.8556643 M61.15,95.1356643 C61.15,95.1356643 61,90.8956643 56.19,87.8356643 C51.39,84.7856643 52.51,80.8356643 56.38,81.4256643 C60.24,82.0156643 61.57,92.5056643 61.62,93.9256643 C61.67,95.3456643 61.15,95.1356643 61.15,95.1356643" id="Bubbles" fill="#76BA43"></path>
                            <path d="M84.78,37.5156643 C83.72,37.5156643 82.71,36.8956643 82.25,35.8656643 C81.63,34.4756643 82.26,32.8356643 83.66,32.2156643 C84.02,32.0556643 84.4,31.9856643 84.77,31.9856643 C85.83,31.9856643 86.84,32.5956643 87.3,33.6256643 C87.92,35.0256643 87.29,36.6556643 85.9,37.2756643 C85.53,37.4356643 85.15,37.5156643 84.78,37.5156643 M62.51,74.0556643 C62.15,73.2356643 62.52,72.2756643 63.34,71.9156643 C64.16,71.5556643 65.12,71.9256643 65.48,72.7456643 C65.84,73.5656643 65.47,74.5256643 64.65,74.8856643 C63.83,75.2456643 62.88,74.8756643 62.51,74.0556643 M38.74,8.0256643 C38.09,8.0256643 37.48,7.6556643 37.2,7.0256643 C36.83,6.1756643 37.21,5.1856643 38.06,4.8156643 C38.28,4.7156643 38.51,4.6656643 38.74,4.6656643 C39.38,4.6656643 40,5.0456643 40.27,5.6656643 C40.65,6.5156643 40.27,7.5056643 39.42,7.8856643 C39.2,7.9856643 38.97,8.0256643 38.74,8.0256643 M60.86,26.1456643 C60.21,26.1456643 59.6,25.7756643 59.32,25.1456643 C58.95,24.2956643 59.33,23.3056643 60.18,22.9256643 C60.4,22.8356643 60.63,22.7856643 60.86,22.7856643 C61.5,22.7856643 62.12,23.1556643 62.39,23.7856643 C62.77,24.6356643 62.39,25.6256643 61.54,26.0056643 C61.32,26.0956643 61.09,26.1456643 60.86,26.1456643 M37.28,33.2156643 C36.43,33.2156643 35.62,32.7256643 35.26,31.8956643 C34.77,30.7856643 35.27,29.4756643 36.38,28.9856643 C36.68,28.8556643 36.98,28.7956643 37.28,28.7956643 C38.12,28.7956643 38.93,29.2856643 39.3,30.1056643 C39.79,31.2256643 39.29,32.5256643 38.17,33.0256643 C37.88,33.1556643 37.58,33.2156643 37.28,33.2156643 M27.52,67.5256643 C26.88,67.5256643 26.26,67.1556643 25.99,66.5256643 C25.61,65.6756643 25.99,64.6856643 26.84,64.3156643 C27.06,64.2156643 27.29,64.1656643 27.52,64.1656643 C28.16,64.1656643 28.78,64.5356643 29.06,65.1656643 C29.43,66.0156643 29.05,67.0056643 28.2,67.3856643 C27.98,67.4856643 27.75,67.5256643 27.52,67.5256643 M110.66,73.0556643 C110.98,73.7756643 110.65,74.6156643 109.93,74.9356643 C109.21,75.2556643 108.37,74.9256643 108.05,74.2056643 C107.73,73.4856643 108.06,72.6456643 108.78,72.3256643 C109.5,72.0056643 110.34,72.3356643 110.66,73.0556643 M64.48,102.915664 C64.71,103.425664 64.48,104.025664 63.97,104.245664 C63.46,104.475664 62.86,104.245664 62.64,103.735664 C62.41,103.225664 62.64,102.635664 63.15,102.405664 C63.66,102.175664 64.25,102.405664 64.48,102.915664" id="Light" fill="#99C96F"></path>
                        </g>
                        <g id="Reflect" transform="translate(28.821968, 35.306509)">
                            <path d="M173.934541,185.74 L168.994541,175.27 C169.234541,175.2 169.414541,175.09 169.614541,175 C172.704541,173.49 176.994541,170.9 181.394541,167.74 C181.404541,167.74 181.404541,167.74 181.404541,167.73 L187.634541,181.81 L173.934541,185.74" id="Fill-1804" fill="#99C96F"></path>
                            <path d="M168.994541,175.27 L165.004541,166.79 L177.184541,158.2 L181.404541,167.73 C181.404541,167.74 181.404541,167.74 181.394541,167.74 C176.994541,170.9 172.704541,173.49 169.614541,175 C169.414541,175.09 169.234541,175.2 168.994541,175.27" id="Fill-1805" fill="#B7D797"></path>
                            <path d="M30.4945408,202.67 C28.8845408,186.51 30.1945408,167.61 39.0945408,149.55 L75.9145408,136.44 C75.9145408,136.44 63.9645408,160.52 63.5945408,183.28 C50.6945408,190.21 39.1845408,196.93 30.5045408,202.67 C30.5045408,202.67 30.5045408,202.67 30.4945408,202.67 M48.2645408,150.63 C47.2245408,150.63 46.1645408,150.84 45.1545408,151.29 C41.2845408,153.01 39.5245408,157.54 41.2445408,161.42 C42.5145408,164.29 45.3245408,166 48.2745408,166 C49.3145408,166 50.3645408,165.78 51.3745408,165.34 C55.2545408,163.62 57.0045408,159.08 55.2945408,155.2 C54.0245408,152.34 51.2045408,150.63 48.2645408,150.63" id="Fill-1817" fill="#9CD0B7"></path>
                            <path d="M41.8345408,244.77 C41.8345408,244.77 38.6245408,238.31 35.5445408,227.94 C35.5545408,227.94 35.5645408,227.94 35.5745408,227.93 C43.7645408,224.78 55.8645408,220.1 69.4845408,214.81 C69.4945408,214.81 69.4945408,214.81 69.4945408,214.8 C72.8345408,226.32 75.3845408,231.51 75.3845408,231.51 L41.8345408,244.77" id="Fill-1818" fill="#99C96F"></path>
                            <path d="M35.5445408,227.94 C33.4745408,221.01 31.4645408,212.33 30.4945408,202.67 C30.5045408,202.67 30.5045408,202.67 30.5045408,202.67 C39.1845408,196.93 50.6945408,190.21 63.5945408,183.28 C63.5345408,187.36 63.8445408,191.39 64.6545408,195.24 C66.3245408,203.12 67.9845408,209.61 69.4945408,214.8 C69.4945408,214.81 69.4945408,214.81 69.4845408,214.81 C55.8645408,220.1 43.7645408,224.78 35.5745408,227.93 C35.5645408,227.94 35.5545408,227.94 35.5445408,227.94" id="Fill-1819" fill="#B7D797"></path>
                            <polyline id="Fill-1796" fill="#9CD0B5" points="79.3945408 85.35 60.1445408 35.2 66.7745408 32.66 79.3945408 85.35"></polyline>
                            <path d="M60.1445408,35.2 L49.7445408,8.11 C48.7745408,5.58 49.5845408,2.71 51.7345408,1.07 C52.6945408,0.34 53.7845408,0 54.8645408,0 C57.1345408,0 59.3145408,1.5 59.9045408,3.97 L66.7745408,32.66 L60.1445408,35.2" id="Fill-1797" fill="#B3C3AF"></path>
                            <path d="M41.5745408,90.35 C41.1845408,90.35 40.7945408,90.31 40.3845408,90.22 C38.9745408,89.92 37.7445408,89.07 36.9545408,87.87 L14.0045408,52.91 L29.9045408,46.81 L46.5045408,82.55 C48.2345408,86.28 45.4245408,90.35 41.5745408,90.35" id="Fill-1798" fill="#9CD0B5"></path>
                            <path d="M14.0045408,52.91 L0.904540769,32.94 C-0.985459231,30.07 0.204540769,26.19 3.37454077,24.88 L12.2145408,21.2 C12.8945408,20.92 13.6145408,20.78 14.3145408,20.78 C16.3845408,20.78 18.3545408,21.96 19.2845408,23.95 L29.9045408,46.81 L14.0045408,52.91" id="Fill-1799" fill="#B3C3AF"></path>
                        </g>
                    </g>
                </g>
            </g>
            <g transform="translate(140.290112, 251.798387)" fill="#F6F1D5" id="Halloween/Features/Crane">
                <g transform="translate(24.000000, 28.500000) rotate(-25.000000) translate(-24.000000, -28.500000) ">
                    <path d="M42.0370844,8.65263862 C42.0547767,11.1118694 42.0620351,12.480755 42.0650129,13.1900292 L42.0659733,13.4348608 C42.0660588,13.4585361 42.0661377,13.4810706 42.0662105,13.5024998 L42.0669752,13.7765007 C42.0669934,13.7859408 42.0670086,13.7944881 42.0670212,13.8021779 L42.0670844,13.8576386 L42.0670844,13.8576386 C42.0670844,13.8576386 48.8770844,18.7776386 46.0570844,26.8626386 C46.0570844,26.8626386 52.1020844,37.7676386 45.0820844,40.4226386 C43.4743795,41.0285403 42.2356561,41.4953825 41.2812298,41.8550806 L40.889349,42.0027702 C38.3270635,42.9684281 38.0993048,43.0542643 38.0790596,43.0618942 L38.0770844,43.0626386 L39.6820844,51.6576386 L33.1720844,52.7376386 L31.3120844,45.1926386 L30.8470844,56.1276386 L24.8620844,57.2076386 L24.8170844,48.6126386 L21.4720844,55.9176386 L16.2520844,55.6926386 L16.4620844,45.2676386 L13.6420844,53.6226386 L8.15208443,50.5326386 L9.66708443,42.1926386 C9.66708443,42.1926386 -4.14791557,41.2176386 1.25208443,28.1676386 L1.25095471,28.1625494 L1.24234795,28.1225081 C1.08336868,27.3688219 -0.88190291,17.3921323 5.85708443,14.5926386 C5.85708443,14.5926386 2.16708443,5.50263862 14.1220844,1.25763862 C26.0770844,-2.97236138 42.0220844,4.48263862 42.0370844,8.65263862 Z M22.7470844,35.7726386 C19.4620844,38.7426386 23.4520844,37.6776386 23.4520844,37.6776386 C23.4520844,37.6776386 25.8970844,39.5676386 27.0970844,37.8276386 L27.0970844,37.8276386 Z M12.5020844,20.3675858 C9.75708443,20.3976386 7.56708443,23.5926386 7.58200784,27.5226386 C7.61208443,31.4526386 9.84708443,34.6326386 12.5770844,34.6176915 C15.3070844,34.6026386 17.5120844,31.3926386 17.4820844,27.4626386 C17.4670844,23.5326386 15.2320844,20.3526386 12.5020844,20.3675858 Z M34.5670844,21.6425764 C32.0170844,21.6576386 29.9770844,24.3876386 29.9920022,27.7476386 C30.0070844,31.0926386 32.0920844,33.8076386 34.6270844,33.7927005 C37.1770844,33.7776386 39.2170844,31.0476386 39.2021666,27.6876386 C39.1720844,24.3276386 37.1020844,21.6276386 34.5670844,21.6425764 Z" id="Crane"></path>
                </g>
            </g>
        </g>
    </g>
</svg>