<?xml version="1.0" encoding="UTF-8"?>
<svg width="263px" height="265px" viewBox="0 0 263 265" version="1.1" xmlns="http://www.w3.org/2000/svg" xmlns:xlink="http://www.w3.org/1999/xlink">
    <title>decoration-24</title>
    <g id="decoration-24" stroke="none" stroke-width="1" fill="none" fill-rule="evenodd">
        <g id="Group" transform="translate(7.000000, 13.000000)">
            <g id="Halloween/Stuffs/Pumpkin" transform="translate(128.500000, 138.000000) rotate(10.000000) translate(-128.500000, -138.000000) ">
                <path d="M58.1331793,1.81168672 C54.1734571,6.61187863 51.3544738,13.1452466 49.6762294,21.4117907 C49.1731232,23.7568864 49.3553138,26.197213 50.2010635,28.4416054 C53.099477,36.1332163 59.7499553,41.7389793 68.627687,46.1743987 C74.751513,49.2339344 81.8195726,51.5312711 86.7570541,52.0864749 L87.3264971,52.1452234 C88.0216993,52.2265195 88.8161727,52.4741549 89.805811,52.971698 L90.127887,53.139 L90.0978481,53.1461246 C83.6616933,54.6929523 77.1778554,56.8078887 70.7640374,59.5781376 C46.1577953,70.2060375 26.3635725,88.7055636 14.6072243,116.474532 C-2.33678876,156.480627 -3.34035269,193.852269 10.7687649,223.676313 C18.0600761,239.096428 29.1968472,251.965769 43.3131233,261.457828 C57.0460514,270.697674 70.9334852,274.806026 85.0183393,274.749997 L85.6048748,274.745139 C92.9571877,274.649597 99.5301298,273.541099 107.136499,271.502052 L108.431891,271.148194 L115.134256,269.24155 L115.761642,269.074854 L116.671087,268.848981 L117.116887,268.747 L117.159277,268.7598 C117.457531,268.845325 117.763606,268.930635 118.077213,269.015645 L119.040338,269.269692 L120.046912,269.521434 C120.560771,269.646644 121.090272,269.770799 121.634436,269.893615 L122.742025,270.137375 L123.886976,270.377054 L125.06755,270.612146 L126.282009,270.842143 C126.487146,270.880023 126.693622,270.91767 126.901401,270.955073 L128.163425,271.176477 L129.454985,271.391519 C129.67261,271.426801 129.891393,271.461797 130.111297,271.496496 L131.443901,271.701043 C131.668149,271.734512 131.893446,271.767664 132.119757,271.800487 L133.489491,271.993398 L134.881804,272.177918 L136.294958,272.35354 L137.727214,272.519756 C138.447827,272.600428 139.174951,272.677383 139.907607,272.750336 L141.380007,272.89082 L142.865422,273.020123 C143.113979,273.040713 143.363006,273.060817 143.612466,273.080423 L145.114141,273.192005 C145.61624,273.227152 146.119784,273.260224 146.624483,273.291138 L148.141751,273.377315 C150.928698,273.523121 153.741803,273.601053 156.532839,273.597047 L157.842796,273.589323 C172.357866,273.435876 185.93734,271.217566 198.075366,266.419172 C213.067022,260.492684 225.221846,250.848817 233.561193,237.169421 C246.87787,215.337067 253.827851,193.083143 255.089144,171.60098 C256.108329,154.242365 253.293107,138.061069 247.851717,125.755771 L246.837594,123.477711 L244.927594,119.142291 C243.606502,116.179467 242.39563,113.606878 241.056801,110.976875 C237.443313,103.878522 233.378836,97.3633705 228.431245,91.1513068 L227.625734,90.1525465 C226.813791,89.1583694 225.982475,88.1779579 225.131065,87.2114572 L224.535887,86.544 L224.513597,86.5168943 C224.433437,86.4227992 224.351778,86.3297713 224.268635,86.2378475 L223.695117,85.6089698 C206.586699,67.0033073 182.796974,54.8202982 150.923648,50.9050069 L149.832887,50.774 L149.717024,50.3214177 C147.431794,41.6417268 143.030471,34.5918307 136.858331,28.3158052 C135.778403,27.2177005 134.679429,26.1756917 133.458148,25.0767967 L132.639434,24.3479385 L129.677281,21.7737241 C126.029276,18.5845134 121.582256,17.0253518 115.915631,16.0966423 C113.871434,15.7616166 111.706714,15.520745 109.277468,15.3447112 L108.040135,15.2619617 L106.754714,15.1892042 L105.417206,15.1256243 L104.02361,15.0704077 L102.376168,15.01662 L99.7006868,14.949988 L94.7891004,14.8422735 L92.9174134,14.7871337 L91.8751047,14.7474356 L90.9728908,14.704086 L90.3756423,14.6685065 L89.6684933,14.616083 L89.1936317,14.5724175 L88.6289036,14.5083226 L88.4872059,14.4681766 C88.3473333,14.4285528 88.1839083,14.3755393 87.9994358,14.3090077 L87.6031695,14.1578822 C86.7634328,13.8218131 85.7452344,13.3225549 84.5996917,12.678876 C83.1563576,11.8678686 81.5733769,10.8636593 79.9062687,9.71067531 C77.9117579,8.3312574 61,-2 58.1331793,1.81168672 Z" id="Sticker" fill="#FFFFFF" fill-rule="nonzero"></path>
                <g id="Group" transform="translate(13.476887, 13.000000)">
                    <path d="M209.411247,217.662823 C182.780247,261.346823 113.921247,245.957823 105.871247,243.362823 C103.081247,242.464823 98.0812468,244.326823 91.3012468,246.189823 C78.4912468,249.712823 59.3312468,253.236823 36.8112468,238.084823 C24.7012468,229.941823 14.9902468,218.863823 8.59124685,205.330823 C-3.20875315,180.387823 -3.75975315,147.071823 12.6412468,108.347823 C37.9312468,48.6118229 100.391247,49.4908229 100.391247,49.4908229 C155.221247,46.0338229 184.761247,63.0928229 201.521247,81.6228229 L201.521247,81.6298229 C213.821247,95.2428229 219.241247,109.649823 222.711247,117.294823 C230.921247,135.358823 236.061247,173.970823 209.411247,217.662823" id="Fill-303" fill="#CF622C"></path>
                    <path d="M209.411247,217.662823 C182.780247,261.346823 113.921247,245.957823 105.871247,243.362823 C103.081247,242.464823 98.0812468,244.326823 91.3012468,246.189823 C78.4912468,249.712823 59.3312468,253.236823 36.8112468,238.084823 C24.7012468,229.941823 14.9902468,218.863823 8.59124685,205.330823 C19.4312468,200.188823 46.8412468,191.657823 92.7112468,205.713823 C153.861247,224.450823 175.641247,201.333823 188.791247,176.519823 C194.061247,166.570823 197.351247,150.772823 199.331247,134.849823 C202.301247,111.045823 202.301247,86.9718229 201.541247,81.8138229 L201.521247,81.6298229 C213.821247,95.2428229 219.241247,109.649823 222.711247,117.294823 C230.921247,135.358823 236.061247,173.970823 209.411247,217.662823" id="Fill-304" fill="#C14D2C"></path>
                    <path d="M178.351247,142.861823 C178.351247,142.861823 187.201247,135.488823 192.291247,139.602823 C197.391247,143.716823 201.031247,150.818823 197.591247,164.534823 C194.160247,178.250823 185.051247,189.642823 185.051247,189.642823 L178.351247,142.861823" id="Fill-305" fill="#862C25"></path>
                    <path d="M126.821247,75.1068229 C135.011247,87.1548229 141.151247,100.522823 146.110247,114.237823 C148.601247,121.100823 150.641247,128.123823 152.391247,135.215823 C154.091247,142.323823 155.401247,149.521823 156.381247,156.762823 C157.371247,164.007823 157.831247,171.313823 158.041247,178.616823 L158.091247,184.096823 C158.081247,185.922823 157.991247,187.748823 157.951247,189.575823 C157.921247,193.230823 157.521247,196.866823 157.280247,200.508823 L156.351247,208.667823 L155.941247,211.372823 L155.091247,216.778823 C154.771247,218.573823 154.391247,220.359823 154.031247,222.146823 C152.571247,229.288823 150.621247,236.318823 148.401247,243.241823 L149.671247,237.937823 C150.101247,236.170823 150.581247,234.422823 150.911247,232.633823 C151.621247,229.071823 152.421247,225.533823 152.931247,221.939823 C153.221247,220.147823 153.551247,218.366823 153.811247,216.574823 L154.501247,211.181823 L154.831247,208.486823 L155.071247,205.779823 L155.531247,200.368823 C156.401247,185.919823 156.041247,171.399823 154.111247,157.061823 C153.181247,149.890823 151.890247,142.766823 150.291247,135.712823 C148.671247,128.658823 146.671247,121.696823 144.441247,114.806823 C142.191247,107.926823 139.611247,101.143823 136.671247,94.5168229 C133.771247,87.8678229 130.550247,81.3488229 126.821247,75.1068229" id="Fill-306" fill="#E2952E"></path>
                    <path d="M104.841247,77.7008229 C102.610247,84.2518229 100.711247,90.8998229 99.0912468,97.6128229 C97.4112468,104.309823 95.9712468,111.061823 94.8012468,117.858823 C93.6512468,124.657823 92.6402468,131.480823 91.9412468,138.335823 C91.2412468,145.187823 90.6912468,152.059823 90.5212468,158.944823 C90.0812468,172.706823 90.7212468,186.505823 92.5712468,200.159823 L92.9012468,202.721823 L93.3212468,205.270823 L94.1712468,210.369823 C94.8902468,213.739823 95.4712468,217.145823 96.3412468,220.483823 C97.7812468,227.239823 99.8912468,233.820823 101.971247,240.423823 C96.7612468,227.601823 92.9902468,214.143823 90.8312468,200.418823 L90.0212468,195.272823 L89.4112468,190.095823 C89.1812468,188.372823 89.0612468,186.638823 88.9112468,184.908823 C88.7812468,183.175823 88.5812468,181.446823 88.5212468,179.711823 C88.0812468,172.772823 88.0612468,165.815823 88.2312468,158.871823 C88.7112468,144.983823 90.3112468,131.136823 93.0712468,117.532823 C95.8712468,103.947823 99.5302468,90.5018229 104.841247,77.7008229" id="Fill-307" fill="#E2952E"></path>
                    <path d="M86.9712468,75.1988229 C82.4812468,80.8988229 78.6612468,87.0798229 75.2512468,93.4438229 C71.8212468,99.8088229 68.8212468,106.391823 66.3012468,113.148823 C63.7912468,119.909823 61.6312468,126.800823 59.9902468,133.814823 C58.3112468,140.819823 57.0312468,147.924823 56.3212468,155.093823 C55.5612468,162.252823 55.1312468,169.461823 55.3112468,176.668823 L55.3212468,179.371823 L55.4512468,182.070823 L55.7212468,187.473823 L56.2312468,192.858823 L56.4712468,195.555823 L56.8212468,198.238823 L57.5512468,203.605823 C57.8212468,205.389823 58.1712468,207.160823 58.4812468,208.940823 C59.0612468,212.512823 59.9212468,216.021823 60.7112468,219.551823 C60.9112468,220.433823 61.0812468,221.324823 61.3112468,222.198823 L62.0112468,224.821823 L63.4012468,230.071823 C63.8612468,231.823823 64.4612468,233.533823 64.9912468,235.267823 L66.5712468,240.473823 C65.3112468,237.076823 63.9812468,233.691823 62.8212468,230.250823 L61.1712468,225.056823 L60.3512468,222.457823 C60.0812468,221.590823 59.8712468,220.704823 59.6212468,219.828823 C58.7112468,216.310823 57.7512468,212.798823 57.0712468,209.221823 C56.7012468,207.438823 56.2912468,205.663823 55.9612468,203.872823 L54.6412468,195.783823 L54.3212468,193.068823 L53.7212468,187.632823 L53.3612468,182.175823 L53.2012468,179.443823 L53.1412468,176.708823 C52.9012468,169.412823 53.3112468,162.105823 54.0412468,154.845823 C55.6012468,140.326823 59.1812468,126.022823 64.6612468,112.508823 C67.4212468,105.757823 70.6212468,99.1948229 74.2712468,92.8958229 C78.0412468,86.6758229 82.0712468,80.5748229 86.9712468,75.1988229" id="Fill-308" fill="#E2952E"></path>
                    <path d="M99.9112468,75.8158229 C99.9112468,75.8158229 103.331247,45.5928229 94.6312468,38.0938229 C85.9412468,30.5948229 80.7012468,27.2248229 74.8912468,26.6868229 C69.0912468,26.1488229 51.7712468,19.9238229 48.4212468,11.0338229 C48.4212468,11.0338229 50.6912468,0.452822948 50.2402468,0.0108229479 C49.7912468,-0.431177052 64.7912468,12.8058229 73.5812468,13.9098229 C82.3602468,15.0138229 102.421247,13.3308229 107.971247,18.1828229 C113.521247,23.0368229 122.511247,29.9378229 124.881247,43.8938229 C127.251247,57.8498229 128.421247,71.3728229 128.421247,71.3728229 C128.421247,71.3728229 115.561247,79.5288229 99.9112468,75.8158229" id="Fill-309" fill="#4B2B70"></path>
                    <path d="M49.7112468,8.26682295 C49.7212468,8.28282295 52.4512468,12.0688229 57.0112468,15.9408229 C61.5612468,19.8098229 67.9412468,23.7798229 75.2912468,24.0898229 C82.5112468,24.3898229 88.3312468,24.5258229 92.8012468,25.8358229 C97.2712468,27.1558229 100.391247,29.5708229 102.421247,34.5868229 C106.490247,44.6928229 109.821247,54.7948229 109.821247,63.1248229 L109.821247,63.3738229 L110.201247,63.3718229 L109.821247,63.3688229 C109.781247,67.5928229 109.521247,70.8908229 109.261247,73.1308229 C109.140247,74.2498229 109.011247,75.1048229 108.921247,75.6788229 C108.871247,75.9658229 108.831247,76.1818229 108.811247,76.3268229 C108.781247,76.4708229 108.761247,76.5398229 108.761247,76.5398229 L109.511247,76.6958229 C109.521247,76.6748229 110.521247,71.8808229 110.581247,63.3748229 L110.581247,63.1248229 C110.581247,54.5968229 107.211247,44.4408229 103.131247,34.3008229 C101.051247,29.0958229 97.6512468,26.4448229 93.0212468,25.1028229 C88.3912468,23.7518229 82.5412468,23.6298229 75.3212468,23.3268229 C68.2402468,23.0348229 61.9812468,19.1728229 57.5012468,15.3588229 C55.2612468,13.4538229 53.4612468,11.5658229 52.2312468,10.1548229 C51.6102468,9.44982295 51.1412468,8.86382295 50.8212468,8.45582295 C50.6612468,8.25182295 50.5312468,8.09182295 50.4502468,7.98282295 C50.3712468,7.87482295 50.3312468,7.81982295 50.3312468,7.81982295 L49.7112468,8.26682295" id="Fill-310" fill="#6F488B"></path>
                    <path d="M51.1612468,4.08982295 C51.1912468,4.12582295 61.5012468,18.2498229 81.1812468,20.0158229 C90.9502468,20.8848229 96.1212468,20.8078229 100.031247,22.0268229 C101.990247,22.6348229 103.641247,23.5558229 105.471247,25.1028229 C107.291247,26.6498229 109.271247,28.8278229 111.821247,31.9198229 C116.711247,37.8178229 119.240247,47.8748229 120.511247,56.6488229 C121.781247,65.4238229 121.821247,72.9178229 121.821247,73.7368229 L121.821247,73.8198229 L122.581247,73.8058229 L122.581247,73.7368229 C122.581247,72.8948229 122.541247,65.3718229 121.261247,56.5388229 C119.971247,47.7048229 117.471247,37.5618229 112.411247,31.4328229 C109.851247,28.3288229 107.851247,26.1208229 105.961247,24.5208229 C103.140247,22.1168229 100.561247,21.1068229 96.9212468,20.5658229 C93.2812468,20.0198229 88.5502468,19.9078229 81.2512468,19.2548229 C71.5912468,18.3908229 64.2212468,14.4848229 59.2612468,10.7908229 C56.7802468,8.94382295 54.9112468,7.15082295 53.6512468,5.82182295 C53.0302468,5.15782295 52.5612468,4.60882295 52.2412468,4.22782295 C52.0912468,4.03782295 51.9712468,3.88882295 51.8912468,3.78882295 C51.8112468,3.68882295 51.7812468,3.63982295 51.7812468,3.63982295 L51.1612468,4.08982295" id="Fill-311" fill="#6F488B"></path>
                    <path d="M81.5912468,68.3978229 C81.6212468,68.4258229 91.7002468,77.2648229 107.351247,77.2698251 C116.671247,77.2728229 127.961247,74.1168229 140.191247,64.1198229 L139.711247,63.5278229 C127.591247,73.4268229 116.501247,76.5038229 107.351247,76.5058229 C99.6812468,76.5058229 93.3512468,74.3318229 88.9512468,72.1568229 C86.7512468,71.0698229 85.0312468,69.9828229 83.8712468,69.1688229 C83.2812468,68.7618229 82.8412468,68.4238229 82.5412468,68.1878229 C82.3912468,68.0698229 82.2802468,67.9778229 82.2012468,67.9158229 L82.0912468,67.8238229 L81.5912468,68.3978229" id="Fill-312" fill="#D34D2B"></path>
                    <polyline id="Fill-313" fill="#892D25" points="97.9812468 106.023823 68.1012468 138.438823 107.351247 152.479823 97.9812468 106.023823"></polyline>
                    <polyline id="Fill-314" fill="#13152A" points="90.0312468 115.024823 97.5112468 149.155823 68.1012468 138.438823 90.0312468 115.024823"></polyline>
                    <polyline id="Fill-315" fill="#892D25" points="145.091247 103.479823 175.601247 135.303823 136.631247 150.111823 145.091247 103.479823"></polyline>
                    <polyline id="Fill-316" fill="#13152A" points="153.211247 112.323823 146.411247 146.595823 175.601247 135.303823 153.211247 112.323823"></polyline>
                    <polyline id="Fill-317" fill="#892D25" points="112.911247 157.630823 121.071247 141.043823 130.311247 158.352823 112.911247 157.630823"></polyline>
                    <polyline id="Fill-318" fill="#13152A" points="118.881247 145.228823 126.301247 158.094823 112.911247 157.630823 118.881247 145.228823"></polyline>
                    <path d="M89.7712468,163.954823 L89.9112468,178.081823 L76.0212468,172.416823 L83.1912468,160.598823 C83.1912468,160.598823 68.0512468,148.552823 62.3512468,143.550823 C56.6512468,138.551823 43.9512468,131.834823 38.1012468,141.855823 C32.2512468,151.876823 29.7912468,158.743823 38.4012468,173.231823 C47.0212468,187.721823 67.1012468,203.139823 67.1012468,203.139823 L69.3812468,192.409823 L87.4412468,199.669823 L80.4112468,210.297823 C80.4112468,210.297823 115.471247,221.850823 145.591247,215.162823 C145.591247,215.162823 158.351247,211.616823 160.851247,209.212823 L152.860247,197.541823 L171.971247,190.811823 L173.271247,202.100823 C173.271247,202.100823 185.971247,192.457823 187.231247,184.713823 C188.501247,176.966823 192.571247,152.388823 178.351247,142.861823 C178.351247,142.861823 156.200247,158.990823 151.751247,160.521823 L163.451247,170.966823 L145.081247,178.135823 L140.501247,165.689823 C140.501247,165.689823 116.211247,175.889823 89.7712468,163.954823" id="Fill-319" fill="#15132A"></path>
                    <path d="M97.5912468,62.1298229 C97.5712468,62.0948229 96.4912468,60.0558229 93.7712468,58.0178229 C91.0512468,55.9808229 86.7012468,53.9558229 80.1912468,53.9578215 C79.2512468,53.9578215 78.2512468,54.0008229 77.2112468,54.0928229 L77.2812468,54.8538229 C78.3012468,54.7638229 79.2712468,54.7218229 80.1912468,54.7218229 C86.5412468,54.7238229 90.7112468,56.6828229 93.3112468,58.6298229 C94.6112468,59.6038229 95.5112468,60.5758229 96.0912468,61.3008229 C96.3812468,61.6638229 96.5912468,61.9648229 96.7212468,62.1728229 C96.7912468,62.2768229 96.8412468,62.3578229 96.8712468,62.4108229 L96.9012468,62.4708229 L96.9112468,62.4868229 L97.5912468,62.1298229" id="Fill-320" fill="#E2952E"></path>
                    <path d="M77.6712468,67.5558229 C69.7912468,70.3568229 62.4502468,74.4998229 55.7812468,79.4398229 C49.0712468,84.3498229 43.0712468,90.1848229 38.0012468,96.7278229 C35.4912468,100.021823 33.2212468,103.482823 31.1402468,107.053823 C29.1102468,110.656823 27.3312468,114.390823 25.7912468,118.223823 C22.7312468,125.906823 20.7412468,133.978823 19.5712468,142.182823 C17.1712468,158.597823 17.9212468,175.410823 21.2312468,191.695823 C22.8512468,199.851823 25.2012468,207.863823 28.0912468,215.677823 C30.9502468,223.501823 34.3912468,231.138823 38.6012468,238.367823 C29.4612468,224.321823 23.2812468,208.431823 19.5112468,192.065823 C19.0112468,190.021823 18.6412468,187.953823 18.2112468,185.890823 C17.8812468,183.813823 17.5012468,181.742823 17.2512468,179.652823 C16.6512468,175.486823 16.3212468,171.282823 16.0912468,167.078823 C15.7402468,158.662823 16.0912468,150.202823 17.3002468,141.854823 C18.5412468,133.522823 20.5812468,125.243823 23.7802468,117.412823 C25.4112468,113.506823 27.2912468,109.708823 29.4112468,106.050823 C31.5612468,102.412823 33.9712468,98.9298229 36.6212468,95.6378229 C47.2912468,82.5778229 61.6312468,72.4278229 77.6712468,67.5558229" id="Fill-321" fill="#E2952E"></path>
                    <path d="M142.481247,64.2438229 C146.361247,65.2358229 150.101247,66.7748229 153.691247,68.5758229 C157.280247,70.3738229 160.751247,72.4398229 164.030247,74.7908229 L165.261247,75.6618229 L166.451247,76.5978229 L168.821247,78.4788229 L171.091247,80.4768229 L172.221247,81.4818229 L175.461247,84.6678229 C176.151247,85.4008229 176.821247,86.1598229 177.501247,86.9048229 C178.901247,88.3708229 180.131247,89.9668229 181.401247,91.5448229 C186.411247,97.8968229 190.431247,104.999823 193.611247,112.431823 C196.771247,119.881823 199.011247,127.680823 200.651247,135.585823 C203.541247,151.473823 204.021247,167.736823 202.351247,183.720823 L201.660247,189.706823 C201.421247,191.701823 201.221247,193.698823 200.860247,195.674823 L199.891247,201.618823 C199.571247,203.597823 199.280247,205.580823 198.831247,207.538823 L197.561247,213.418823 C197.110247,215.371823 196.771247,217.348823 196.231247,219.282823 C195.241247,223.164823 194.221247,227.038823 193.191247,230.905823 C193.981247,226.977823 194.801247,223.059823 195.641247,219.151823 C196.101247,217.203823 196.351247,215.214823 196.711247,213.249823 L197.721247,207.339823 C198.101247,205.378823 198.351247,203.396823 198.621247,201.416823 L199.421247,195.482823 C199.731247,193.508823 199.881247,191.517823 200.061247,189.529823 L200.591247,183.571823 L200.721247,182.082823 L200.791247,180.588823 L200.910247,177.602823 L201.191247,171.632823 L201.171247,165.660823 C201.161247,163.669823 201.191247,161.678823 201.041247,159.694823 L200.721247,153.738823 C200.691247,152.742823 200.570247,151.756823 200.461247,150.767823 L200.141247,147.804823 C199.820247,143.839823 199.021247,139.944823 198.411247,136.022823 C196.831247,128.246823 194.641247,120.595823 191.611247,113.272823 C188.621247,105.935823 184.711247,98.9838229 180.001247,92.6088229 C178.811247,91.0318229 177.631247,89.4318229 176.301247,87.9578229 C175.651247,87.2108229 175.021247,86.4468229 174.351247,85.7078229 L172.291247,83.5688229 L171.251247,82.4968229 L170.171247,81.4798229 L167.981247,79.4538229 L165.701247,77.5408229 L164.551247,76.5888229 L163.360247,75.6898229 C160.241247,73.2328229 156.891247,71.0448229 153.411247,69.1108229 C149.921247,67.1908229 146.291247,65.4698229 142.481247,64.2438229" id="Fill-322" fill="#E2952E"></path>
                    <path d="M129.621247,57.7758229 L129.661247,57.7248229 C129.901247,57.4578229 131.041247,56.1948229 132.911247,55.0068229 C134.791247,53.8178229 137.371247,52.7058229 140.511247,52.7058229 C140.811247,52.7058229 141.131247,52.7168229 141.441247,52.7388229 L141.501247,51.9768229 C141.161247,51.9528229 140.831247,51.9418229 140.511247,51.9418229 C136.971247,51.9418229 134.101247,53.2808229 132.121247,54.6118229 C130.140247,55.9428229 129.050247,57.2708229 129.031247,57.2898229 L129.621247,57.7758229" id="Fill-323" fill="#E2952E"></path>
                </g>
            </g>
        </g>
    </g>
</svg>