<?xml version="1.0" encoding="UTF-8"?>
<svg width="272px" height="272px" viewBox="0 0 272 272" version="1.1" xmlns="http://www.w3.org/2000/svg" xmlns:xlink="http://www.w3.org/1999/xlink">
    <title>decoration-23</title>
    <g id="decoration-23" stroke="none" stroke-width="1" fill="none" fill-rule="evenodd">
        <g id="Group">
            <path d="M146.805434,1.01476483 C148.868547,0.914839064 150.92427,1.32772438 152.788804,2.21650546 L154.255482,2.92297766 L156.993322,4.25896101 L160.138289,5.81291158 L162.625942,7.05493328 L165.216593,8.35977113 L167.903478,9.72490003 C179.19098,15.4845466 190.483384,21.5501454 201.05897,27.6569967 C208.019956,31.6766045 214.445952,35.587744 220.232535,39.3563386 C221.183924,39.9759442 222.116865,40.5909488 223.031047,41.2012901 L224.834305,42.4157369 C227.501397,44.2280256 229.997785,45.9979732 232.315061,47.7239029 L233.619821,48.699645 L235.529524,50.1438709 L236.771276,51.0937698 L237.988117,52.0333394 L239.180214,52.9625843 L240.347732,53.881509 L242.053289,55.2405557 L243.160091,56.1337 L244.242899,57.01654 L245.822484,58.3214897 L246.846034,59.1785892 L247.846173,60.0254005 L248.823067,60.8619281 L250.24519,62.0974476 L251.164703,62.908286 L252.061554,63.7088567 L253.364707,64.8904708 L254.205635,65.6653922 L255.024486,66.4300619 L255.821426,67.1844845 L256.596622,67.9286644 L257.35024,68.6626063 L258.082448,69.3863148 L258.793412,70.0997943 L259.483299,70.8030495 C259.596533,70.919407 259.708895,71.0353386 259.82039,71.1508444 L260.478973,71.8387717 C260.587011,71.952575 260.694187,72.0659528 260.800507,72.1789052 L261.428162,72.8515147 L262.035406,73.5139182 L262.622407,74.1661201 L263.189331,74.8081251 L263.736344,75.4399377 L264.263614,76.0615624 L264.771307,76.6730039 L265.259589,77.2742667 L265.728628,77.8653553 L266.178591,78.4462743 C266.252004,78.5422469 266.324629,78.637796 266.39647,78.7329217 L266.81813,79.2985949 L267.22113,79.8541099 L267.605636,80.3994714 C267.668189,80.4895191 267.729977,80.5791439 267.791006,80.6683459 L268.119115,81.1559672 L268.479359,81.7168386 L268.659349,82.0088982 L268.920598,82.4545941 C270.805521,85.7874412 271.055852,89.7936874 269.615343,93.3267478 L269.470659,93.6671412 L242.39,154.854 L242.399471,154.900256 C242.517668,155.526193 242.586042,156.157648 242.606567,156.788784 L242.613019,157.261984 L242.609036,157.495212 C242.590007,159.320805 242.165064,161.172002 241.274984,162.919353 L241.077112,163.292149 L240.980565,163.465075 C240.622496,164.108932 240.208702,164.722796 239.742357,165.297274 L239.456269,165.63716 L239.388,165.713 L224.578,184.629 L224.652082,184.740649 C225.658518,186.251023 226.662763,187.769011 227.656216,189.283131 L229.137226,191.549975 L230.595597,193.802405 L231.933386,195.888793 L233.176096,197.847021 L234.210581,199.49369 L235.197258,201.080295 L235.828348,202.104833 L237.0261,204.074686 L238.137407,205.939585 L238.660443,206.832929 L239.161625,207.700338 L239.640874,208.541914 L240.098108,209.357758 L240.533246,210.14797 L240.946209,210.912653 L241.336915,211.651908 L241.705284,212.365835 L242.051235,213.054537 L242.374687,213.718114 L242.675559,214.356668 C242.723819,214.461014 242.771134,214.564322 242.817503,214.666593 L243.084355,215.267802 L243.328426,215.844241 C243.367201,215.938256 243.405024,216.031243 243.441893,216.123204 C245.123725,220.316732 244.991542,225.987064 243.442056,232.442902 L243.211102,233.370434 C242.569743,235.857702 241.72544,238.45419 240.700125,241.121678 L240.30719,242.125239 C239.905856,243.131979 239.479452,244.148032 239.029136,245.171382 L238.570892,246.197089 L238.096963,247.227214 C238.016682,247.399244 237.935758,247.57144 237.854197,247.743792 L237.357223,248.779702 C237.189043,249.12558 237.018357,249.472007 236.845206,249.818909 L236.318405,250.860966 L235.777075,251.905424 C235.685657,252.079675 235.593645,252.254008 235.501043,252.428413 L234.938403,253.475633 L234.361877,254.524135 C234.264647,254.698967 234.166848,254.873834 234.068488,255.048727 L233.471616,256.098312 C233.270437,256.448225 233.067051,256.798165 232.861501,257.148058 L232.2384,258.197519 C232.133482,258.372381 232.028033,258.547212 231.92206,258.722003 L231.279961,259.770195 C231.171909,259.944789 231.063343,260.119324 230.954268,260.293792 L230.293751,261.339708 C217.636289,281.183176 200.216141,296.871099 179.538837,304.162987 C177.288411,304.961215 174.922031,305.656564 172.406099,306.26062 L171.455548,306.482884 L170.468101,306.700408 L169.493199,306.904359 L168.021497,307.190372 L166.94759,307.383519 L165.855134,307.567062 L164.572065,307.766032 L162.697502,308.026499 L160.828005,308.251536 L159.626264,308.380482 L158.379967,308.500239 L157.120496,308.607373 L155.123612,308.751236 L153.835,308.825 L153.773326,308.831097 L151.821204,308.921163 L150.476792,308.967548 L148.408725,309.014551 L147.09567,309.02954 L145.970156,309.033129 L144.862491,309.029313 L142.590725,308.998186 L140.578397,308.945091 C139.918964,308.923721 139.257767,308.898709 138.590362,308.869837 L137.584044,308.823608 L135.747007,308.725348 L134.190849,308.628252 L132.344095,308.497121 C131.664203,308.445715 130.981617,308.390701 130.292434,308.331737 L129.137952,308.229749 L127.722289,308.096285 L125.687605,307.888138 L123.910634,307.691145 L121.72973,307.43054 L119.918232,307.198396 L118.011153,306.939144 L116.041682,306.655605 L115.524136,306.578309 C113.936365,306.340132 112.340075,306.085286 110.729454,305.812904 L108.71774,305.464672 L107.198353,305.191461 L106.298719,305.025643 L104.132852,304.613448 L103.460612,304.48188 C102.873617,304.366416 102.284646,304.248542 101.6893,304.127367 L100.79095,303.943017 L98.7255339,303.507572 L96.8954808,303.108747 L95.5700045,302.811943 L94.1274033,302.481731 L91.6572771,301.898143 L90.2119108,301.546137 L89.1203984,301.275068 C88.1031476,301.020481 87.0880424,300.760562 86.0749367,300.495303 L83.927609,299.924219 L81.5108449,299.2603 L79.8343691,298.786288 L79.1465448,298.588583 C78.1061495,298.288128 77.0720145,297.982975 76.0419888,297.672498 L74.7548426,297.281055 L73.4304586,296.871001 L71.5003567,296.259786 C70.5624264,295.958964 69.6310541,295.654328 68.6997628,295.343762 L67.2904488,294.869105 L65.6573439,294.307079 L64.5536773,293.920052 L63.0189849,293.371419 L61.1569015,292.688886 L58.9623819,291.860367 L56.4226873,290.865728 L55.2635248,290.398252 L53.0275057,289.470419 L51.0427983,288.617096 L49.7417623,288.040258 C49.3017459,287.84313 48.8656568,287.645208 48.4254668,287.442685 L46.6116577,286.593019 L44.6011449,285.612248 L43.9188031,285.268877 L43.257805,284.931621 L42.5938914,284.587144 L41.7592842,284.145538 L40.2805952,283.339282 L39.3757943,282.829133 L38.5899249,282.374451 C37.8880343,281.963995 37.2074332,281.552162 36.5355726,281.130676 L35.4854951,280.458542 L34.6089868,279.876134 L34.155197,279.566452 L33.5909417,279.172209 L33.3411274,278.994391 C32.6881395,278.526359 32.062041,278.056018 31.4739808,277.591404 L30.8377336,277.079186 L30.1115288,276.469109 L29.8398623,276.233145 L29.4019119,275.843296 L29.0283278,275.500355 L28.5322962,275.029233 C28.2824894,274.786968 28.0392505,274.543545 27.7964117,274.29229 C21.0273357,267.279479 15.5649636,257.391422 11.2900892,245.360109 C4.75720904,227.091449 1.00015636,203.863397 1.00015636,184.669129 C1.00015636,167.810819 10.7879656,156.201935 25.6345077,149.659516 C27.6901952,148.753637 29.7852677,147.970348 31.9009349,147.297134 L32.8088555,147.015316 L33.144,146.916 L29.303,127.673 L29.2650835,127.518061 C28.7578985,125.351167 28.8593412,123.171626 29.457944,121.16379 L29.5759809,120.789378 L29.636,120.611 L29.4981152,119.975464 C29.0994567,118.134579 28.7003025,116.245276 28.3039155,114.316868 L27.7118181,111.396091 C26.8280088,106.974426 25.9664673,102.37837 25.16436,97.7140145 L24.8992431,96.1568451 L24.690525,94.9080537 L24.239904,92.1345898 L23.9547056,90.3160664 L23.6818827,88.5221748 L23.4216095,86.753146 L23.1740601,85.0092112 L22.9394084,83.2906014 C22.9013843,83.0062897 22.8639049,82.7230429 22.8269737,82.4408657 L22.6119952,80.7606768 L22.4103496,79.1063909 C22.3778628,78.8328479 22.3459387,78.5603939 22.3145811,78.2890337 L22.1332615,76.6740353 C22.0751066,76.1401031 22.0192465,75.6105843 21.96571,75.0855176 L21.8121008,73.5237116 C21.7632408,73.0075872 21.7167336,72.4959533 21.672608,71.9888484 L21.5474056,70.4811593 L21.4366677,69.0008752 C21.4021852,68.5120404 21.3701424,68.0278116 21.3405684,67.5482273 L21.2592817,66.1234468 L21.1929818,64.7267647 L21.1418427,63.3584121 L21.1060385,62.0186201 C21.0264821,58.2632222 21.1336795,54.8545251 21.4454483,51.8161843 C21.8745943,47.6339445 24.3757631,43.9556947 28.0882044,42.0149592 L29.2036969,41.4679463 L32.0797396,40.0934644 L34.1575196,39.1129337 L36.3543086,38.0856623 L38.6655678,37.0144898 L41.9174664,35.5228772 C52.2693368,30.8021811 63.1742619,26.0816974 74.1469134,21.6679512 C81.5065558,18.7075369 88.6563509,15.9842749 95.520317,13.5480263 L97.447112,12.8689482 C97.7664928,12.7571941 98.0849963,12.6461548 98.4026203,12.5358333 L100.297791,11.8825424 L102.171746,11.2466244 L104.024376,10.6282245 C104.331365,10.5266257 104.637461,10.425763 104.942662,10.3256392 L106.763106,9.73378861 L108.561958,9.15981904 L110.339111,8.60387567 C110.927867,8.4215817 111.512989,8.2423163 112.094458,8.06610365 L113.827892,7.54664816 C114.40204,7.37656521 114.972517,7.20955921 115.539306,7.04565436 L117.228592,6.56326744 L118.895643,6.09963256 C119.723592,5.87252732 120.543163,5.65250854 121.354295,5.43965787 L122.96529,5.02353821 C123.765144,4.82028132 124.55652,4.62424698 125.339356,4.43551685 L126.893625,4.06781973 L128.425017,3.71974568 L129.933424,3.39143987 C130.182903,3.33837766 130.431421,3.28614517 130.678974,3.23474542 L132.152702,2.93636416 C132.396389,2.88830752 132.639106,2.84108967 132.880853,2.79471365 L134.319661,2.52658358 C138.838873,1.70964752 143.005902,1.19879316 146.805434,1.01476483 Z" id="Sticker" fill="#FFFFFF" fill-rule="nonzero"></path>
            <path d="M41.4501564,58.3331287 C41.4501564,58.3331287 42.6101564,117.137129 51.9301564,131.111129 C61.2401564,145.085129 43.7801564,126.453129 43.7801564,126.453129 C43.7801564,126.453129 31.5501564,75.7991287 33.8801564,53.0921287 C33.8801564,53.0921287 111.320156,15.2481287 147.410156,13.5001287 C147.410156,13.5001287 197.490156,37.3721287 224.850156,57.7501287 C252.220156,78.1281287 258.040156,88.6081287 258.040156,88.6081287 L226.600156,159.641129 L220.780156,159.059129 L249.890156,88.6081287 C249.890156,88.6081287 189.330156,44.9401287 149.740156,26.3101287 C149.740156,26.3101287 75.2201564,37.9551287 41.4501564,58.3331287" id="Handle" fill="#16101C"></path>
            <g id="Cauldron" transform="translate(13.500156, 123.584662)">
                <path d="M27.95,1.12246648 C27.95,1.12246648 161.86,-9.35753352 216.59,33.7274665 L124.6,36.0564665 C124.6,36.0564665 32.61,12.1844665 27.95,1.12246648" id="Fill-995" fill="#16101C"></path>
                <path d="M161.86,168.797466 C159.52,169.627466 157.01,170.323466 154.39,170.884466 C112.65,179.905466 38.1,157.353466 23.29,142.026466 C17.68,136.214466 13.1,127.529466 9.56,117.566466 C3.14,99.6134665 0,77.5774665 0,61.0844665 C0,35.4804665 34.35,33.1454665 34.35,33.1454665 L27.96,1.12246648 C46.49,11.8724665 82.69,19.3454665 118.46,24.3934665 C134.64,26.6834665 150.73,28.4554665 165.07,29.8474665 C165.18,29.8474665 165.29,29.8694665 165.4,29.8694665 C194.71,32.6754665 216.59,33.7284665 216.59,33.7284665 L195.63,60.5004665 C195.63,60.5004665 214.84,88.4614665 218.34,97.1914665 C221.84,105.918466 201.44,154.839466 161.86,168.797466" id="Fill-996" fill="#6A4C8D"></path>
                <path d="M132.47,172.948466 C90.55,172.948466 35.76,154.928466 23.29,142.026466 C17.68,136.214466 13.1,127.529466 9.56,117.566466 C15.59,121.896466 23.27,127.620466 32.02,134.462466 C40.92,141.437466 50.63,143.940466 59.56,143.940466 C72.24,143.940466 83.38,138.900466 88.5,134.462466 C97.23,126.879466 87.33,119.317466 86.75,98.9404665 C86.17,78.5654665 105.96,48.8754665 105.96,48.8754665 L103.65,22.6664665 L118.46,24.3934665 C134.64,26.6834665 150.73,28.4554665 165.07,29.8474665 C165.18,29.8474665 165.29,29.8694665 165.4,29.8694665 L183.4,31.9784665 L176.42,58.7734665 C176.42,58.7734665 191.55,70.9794665 191.55,109.421466 C191.55,128.786466 172.9,152.303466 154.39,170.884466 C147.78,172.311466 140.35,172.948466 132.47,172.948466" id="Fill-998" fill="#462B71"></path>
                <path d="M33.36,35.1594665 C33.57,35.2584665 90.21,63.0254665 180.13,63.0294665 C185.22,63.0294665 190.41,62.9404665 195.71,62.7524665 L195.55,58.2674665 C190.31,58.4534665 185.16,58.5414665 180.13,58.5414665 C135.63,58.5414665 99.39,51.6664665 74.29,44.8004665 C61.74,41.3684665 51.97,37.9374665 45.36,35.3714665 C42.06,34.0884665 39.54,33.0224665 37.85,32.2794665 C37.01,31.9074665 36.37,31.6174665 35.95,31.4214665 C35.74,31.3234665 35.59,31.2494665 35.48,31.2004665 L35.37,31.1454665 L35.34,31.1304665 L33.36,35.1594665" id="Fill-999" fill="#16101C"></path>
                <polyline id="Fill-1000" fill="#725291" points="41.34 15.6784665 43.67 31.3984665 57.06 36.0564665 54.15 16.8424665 41.34 15.6784665"></polyline>
                <path d="M39.01,44.2074665 L51.82,51.7764665 C51.82,51.7764665 30.86,65.1684665 32.6,78.5594665 L11.06,78.5594665 C11.06,78.5594665 2.33,40.7144665 39.01,44.2074665" id="Fill-1001" fill="#725291"></path>
            </g>
            <g id="Bubbles" transform="translate(64.150156, 48.434129)">
                <path d="M49.49,5.24 C49.49,8.134 47.15,10.48 44.25,10.48 C41.36,10.48 39.01,8.134 39.01,5.24 C39.01,2.346 41.36,0 44.25,0 C47.15,0 49.49,2.346 49.49,5.24" id="Fill-1002" fill="#5BAF45"></path>
                <path d="M111.79,85.589 C111.79,81.408 115.18,78.019 119.36,78.019 C123.54,78.019 126.93,81.408 126.93,85.589 C126.93,89.769 123.54,93.158 119.36,93.158 C115.18,93.158 111.79,89.769 111.79,85.589" id="Fill-1003" fill="#5BAF45"></path>
                <path d="M133.34,88.791 C133.34,85.093 136.33,82.095 140.03,82.095 C143.73,82.095 146.73,85.093 146.73,88.791 C146.73,92.489 143.73,95.487 140.03,95.487 C136.33,95.487 133.34,92.489 133.34,88.791" id="Fill-1004" fill="#5BAF45"></path>
                <path d="M154.3,44.25 C154.3,48.43 150.91,51.819 146.73,51.819 C142.55,51.819 139.16,48.43 139.16,44.25 C139.16,40.07 142.55,36.681 146.73,36.681 C150.91,36.681 154.3,40.07 154.3,44.25" id="Fill-1005" fill="#5BAF45"></path>
                <path d="M39.6,55.315 C39.6,58.793 38.37,61.979 36.35,64.493 L36.24,64.627 C35.83,65.099 35.41,65.548 34.96,65.974 C34.28,66.602 33.52,67.186 32.71,67.679 C31.57,68.397 30.33,68.959 29.01,69.317 C27.75,69.677 26.41,69.878 25.04,69.878 C23.96,69.878 22.93,69.766 21.92,69.541 C15.93,68.241 11.3,63.237 10.59,57.042 C10.52,56.481 10.47,55.898 10.47,55.315 C10.47,47.282 17.01,40.751 25.04,40.751 C28.16,40.751 31.03,41.738 33.41,43.421 C35.49,44.88 37.18,46.878 38.26,49.21 C39.04,50.917 39.51,52.801 39.58,54.776 C39.6,54.955 39.6,55.135 39.6,55.315" id="Fill-1006" fill="#5BAF45"></path>
                <path d="M29.12,71.024 C29.12,75.265 27.33,79.056 24.43,81.705 C21.83,84.106 18.37,85.586 14.56,85.586 C6.52,85.586 0,79.079 0,71.024 C0,64.357 4.48,58.748 10.59,57.042 C11.84,56.662 13.19,56.481 14.56,56.481 C16.06,56.481 17.52,56.706 18.89,57.133 C20.06,57.491 21.16,58.007 22.17,58.635 C24.41,60.004 26.23,61.934 27.46,64.268 C28.27,65.794 28.81,67.5 29.01,69.317 C29.08,69.878 29.12,70.439 29.12,71.024" id="Fill-1007" fill="#5BAF45"></path>
                <path d="M41.93,73.737 L41.93,73.94 C41.93,75.759 41.46,77.486 40.63,78.989 C40.39,79.416 40.12,79.841 39.83,80.223 C37.92,82.782 34.87,84.419 31.46,84.419 C28.76,84.419 26.29,83.411 24.43,81.705 C22.3,79.819 20.95,77.037 20.95,73.94 C20.95,72.37 21.29,70.888 21.92,69.541 C23.04,67.164 25.02,65.255 27.46,64.268 C28.7,63.731 30.04,63.461 31.46,63.461 C32.42,63.461 33.36,63.595 34.24,63.843 C34.53,63.91 34.82,64.022 35.09,64.133 C35.49,64.268 35.88,64.426 36.24,64.627 C37.18,65.099 38.05,65.727 38.79,66.49 C40.68,68.33 41.87,70.888 41.93,73.737" id="Fill-1008" fill="#5BAF45"></path>
                <path d="M59.39,37.274 C59.39,39.629 58.77,41.828 57.64,43.714 C56.66,45.396 55.31,46.855 53.67,47.932 C52.84,48.47 51.97,48.92 51,49.255 C50.66,49.413 50.33,49.503 49.97,49.592 C49.25,49.817 48.49,49.952 47.7,49.997 C47.34,50.041 46.96,50.063 46.58,50.063 C43.62,50.063 40.9,49.053 38.73,47.371 C37.02,46.069 35.68,44.319 34.8,42.322 C34.13,40.773 33.77,39.068 33.77,37.274 C33.77,30.182 39.51,24.46 46.58,24.46 C50.08,24.46 53.22,25.85 55.53,28.118 C57.91,30.428 59.39,33.683 59.39,37.274" id="Fill-1009" fill="#5BAF45"></path>
                <path d="M57.64,72.773 C57.64,74.188 57.37,75.511 56.86,76.746 C56.27,78.203 55.33,79.506 54.16,80.538 C52.82,81.794 51.16,82.647 49.29,83.052 L49.27,83.052 C48.6,83.186 47.88,83.253 47.16,83.253 C44.29,83.253 41.71,82.108 39.83,80.223 C38.14,78.608 37.02,76.386 36.75,73.918 L36.73,73.761 C36.71,73.424 36.68,73.109 36.68,72.773 C36.68,70.416 37.47,68.218 38.79,66.49 C39.02,66.154 39.29,65.861 39.58,65.57 C41.46,63.55 44.18,62.294 47.16,62.294 C48.22,62.294 49.25,62.451 50.22,62.743 C53.69,63.798 56.39,66.602 57.31,70.148 C57.37,70.372 57.42,70.597 57.46,70.843 C57.55,71.315 57.62,71.808 57.62,72.325 C57.64,72.483 57.64,72.615 57.64,72.773" id="Fill-1010" fill="#5BAF45"></path>
                <path d="M54.73,52.981 C54.73,54.686 54.39,56.302 53.78,57.784 C53.02,59.713 51.79,61.419 50.22,62.743 C47.97,64.65 45.08,65.794 41.93,65.794 C41.13,65.794 40.34,65.727 39.58,65.57 C38.44,65.367 37.36,65.009 36.35,64.493 C35.92,64.314 35.52,64.089 35.14,63.843 C34.89,63.685 34.64,63.528 34.4,63.349 C31.19,61.014 29.12,57.245 29.12,52.981 C29.12,49.188 30.78,45.756 33.41,43.421 C33.83,43.018 34.3,42.659 34.8,42.322 C36.57,41.133 38.66,40.393 40.9,40.212 C41.24,40.19 41.6,40.168 41.93,40.168 C42.56,40.168 43.19,40.212 43.8,40.324 C44.18,40.369 44.56,40.436 44.92,40.55 C48.24,41.312 51.05,43.399 52.77,46.203 C53.13,46.743 53.42,47.326 53.67,47.932 C53.94,48.493 54.14,49.076 54.28,49.682 C54.57,50.738 54.73,51.837 54.73,52.981" id="Fill-1011" fill="#5BAF45"></path>
                <path d="M82.1,14.855 C82.1,22.395 75.98,28.522 68.42,28.522 C64.37,28.522 60.76,26.771 58.27,24.011 C56.05,21.586 54.73,18.378 54.73,14.855 C54.73,7.293 60.85,1.166 68.42,1.166 C70.12,1.166 71.74,1.48 73.24,2.042 C78.42,3.993 82.1,8.999 82.1,14.855" id="Fill-1012" fill="#5BAF45"></path>
                <path d="M23.29,19.207 C23.29,22.753 20.42,25.626 16.89,25.626 C13.35,25.626 10.47,22.753 10.47,19.207 C10.47,15.685 13.35,12.814 16.89,12.814 C20.42,12.814 23.29,15.685 23.29,19.207" id="Fill-1013" fill="#5BAF45"></path>
                <path d="M72.78,53.566 C72.78,45.848 79.04,39.592 86.76,39.592 C94.47,39.592 100.73,45.848 100.73,53.566 C100.73,61.283 94.47,67.54 86.76,67.54 C79.04,67.54 72.78,61.283 72.78,53.566" id="Fill-1014" fill="#5BAF45"></path>
                <path d="M66.38,51.528 C66.38,55.869 62.86,59.388 58.52,59.388 C54.18,59.388 50.66,55.869 50.66,51.528 C50.66,47.187 54.18,43.668 58.52,43.668 C62.86,43.668 66.38,47.187 66.38,51.528" id="Fill-1015" fill="#5BAF45"></path>
                <path d="M68.71,66.377 C68.71,66.871 68.68,67.344 68.64,67.836 C68.5,69.451 68.15,71.024 67.54,72.483 C67.09,73.716 66.46,74.883 65.72,75.937 C63.21,79.595 59.28,82.22 54.75,82.984 C53.81,83.163 52.82,83.253 51.83,83.253 C50.98,83.253 50.13,83.186 49.29,83.052 L49.27,83.052 C45.97,82.558 43.01,81.121 40.63,78.989 C39.02,77.576 37.69,75.848 36.75,73.918 L36.66,73.761 C35.54,71.516 34.93,69.026 34.93,66.377 C34.93,66.243 34.93,66.109 34.96,65.974 C34.96,65.346 35,64.739 35.09,64.133 C35.09,64.022 35.11,63.932 35.14,63.843 C35.65,60.364 37.22,57.222 39.58,54.776 C41.71,52.487 44.52,50.781 47.7,49.997 C48.44,49.795 49.18,49.659 49.97,49.592 C50.28,49.547 50.6,49.525 50.93,49.525 C51.23,49.48 51.52,49.48 51.83,49.48 C52.66,49.48 53.49,49.547 54.28,49.682 C55.42,49.817 56.52,50.108 57.58,50.512 C60.56,51.567 63.14,53.453 65.05,55.898 C66.6,57.828 67.72,60.094 68.28,62.585 C68.53,63.662 68.66,64.784 68.68,65.93 C68.71,66.086 68.71,66.221 68.71,66.377" id="Fill-1016" fill="#5BAF45"></path>
                <path d="M87.92,71.024 C87.92,71.583 87.87,72.123 87.78,72.639 C87.65,73.828 87.31,74.95 86.79,75.982 C85.56,78.63 83.34,80.74 80.6,81.818 C79.41,82.31 78.13,82.602 76.79,82.647 L76.76,82.647 C76.61,82.67 76.43,82.67 76.27,82.67 C71.6,82.67 67.56,79.908 65.72,75.937 C65,74.456 64.62,72.796 64.62,71.024 C64.62,70.911 64.62,70.821 64.64,70.709 C64.67,69.565 64.85,68.486 65.18,67.454 C65.41,66.737 65.72,66.019 66.1,65.367 C66.69,64.336 67.4,63.393 68.28,62.585 C69.87,61.059 71.92,60.004 74.18,59.6 C74.86,59.466 75.55,59.399 76.27,59.399 C77.86,59.399 79.37,59.713 80.76,60.297 C83.9,61.598 86.34,64.245 87.38,67.521 L87.42,67.612 C87.74,68.689 87.92,69.833 87.92,71.024" id="Fill-1017" fill="#5BAF45"></path>
                <path d="M82.9,53.202 C82.9,60.276 77.16,66.011 70.09,66.011 C63.02,66.011 57.28,60.276 57.28,53.202 C57.28,46.128 63.02,40.392 70.09,40.392 C77.16,40.392 82.9,46.128 82.9,53.202" id="Fill-1018" fill="#5BAF45"></path>
                <path d="M90.83,48.908 C90.83,45.049 93.96,41.921 97.82,41.921 C101.68,41.921 104.81,45.049 104.81,48.908 C104.81,52.766 101.68,55.894 97.82,55.894 C93.96,55.894 90.83,52.766 90.83,48.908" id="Fill-1019" fill="#5BAF45"></path>
                <path d="M106.55,72.488 C106.55,78.116 101.99,82.677 96.36,82.677 C90.74,82.677 86.18,78.116 86.18,72.488 C86.18,66.861 90.74,62.299 96.36,62.299 C101.99,62.299 106.55,66.861 106.55,72.488" id="Fill-1020" fill="#5BAF45"></path>
                <path d="M95.49,51.237 C95.49,45.449 100.18,40.757 105.97,40.757 C111.76,40.757 116.45,45.449 116.45,51.237 C116.45,57.025 111.76,61.717 105.97,61.717 C100.18,61.717 95.49,57.025 95.49,51.237" id="Fill-1021" fill="#5BAF45"></path>
                <path d="M104.22,57.641 C104.22,52.818 108.13,48.908 112.96,48.908 C117.78,48.908 121.69,52.818 121.69,57.641 C121.69,62.465 117.78,66.375 112.96,66.375 C108.13,66.375 104.22,62.465 104.22,57.641" id="Fill-1022" fill="#5BAF45"></path>
                <path d="M101.9,19.214 C101.9,21.465 100.07,23.29 97.82,23.29 C95.57,23.29 93.74,21.465 93.74,19.214 C93.74,16.963 95.57,15.138 97.82,15.138 C100.07,15.138 101.9,16.963 101.9,19.214" id="Fill-1023" fill="#5BAF45"></path>
                <path d="M80.46,83.442 C80.46,77.01 85.68,71.797 92.11,71.797 C98.54,71.797 103.75,77.01 103.75,83.442 C103.75,89.873 98.54,95.087 92.11,95.087 C85.68,95.087 80.46,89.873 80.46,83.442" id="Fill-1024" fill="#5BAF45"></path>
                <path d="M77.32,79.079 C77.32,80.313 77.12,81.503 76.79,82.625 L76.76,82.647 C75.26,87.337 70.86,90.725 65.68,90.725 C60.63,90.725 56.34,87.494 54.75,82.984 C54.46,82.198 54.25,81.39 54.16,80.538 C54.08,80.066 54.05,79.573 54.05,79.079 C54.05,77.958 54.21,76.881 54.5,75.87 C54.91,74.434 55.58,73.133 56.48,71.989 C56.77,71.583 57.11,71.203 57.46,70.843 C57.87,70.439 58.29,70.059 58.77,69.721 C60.56,68.376 62.78,67.545 65.18,67.454 C65.34,67.433 65.52,67.433 65.68,67.433 C66.71,67.433 67.7,67.567 68.64,67.836 C73.64,69.116 77.32,73.67 77.32,79.079" id="Fill-1025" fill="#5BAF45"></path>
                <path d="M94.22,66.193 C94.22,59.761 99.43,54.549 105.86,54.549 C112.29,54.549 117.51,59.761 117.51,66.193 C117.51,72.624 112.29,77.838 105.86,77.838 C99.43,77.838 94.22,72.624 94.22,66.193" id="Fill-1026" fill="#5BAF45"></path>
                <path d="M113.43,69.031 C113.43,62.6 118.64,57.386 125.08,57.386 C131.51,57.386 136.72,62.6 136.72,69.031 C136.72,75.463 131.51,80.676 125.08,80.676 C118.64,80.676 113.43,75.463 113.43,69.031" id="Fill-1027" fill="#5BAF45"></path>
                <path d="M64.7,10.735 C64.7,12.242 63.48,13.465 61.98,13.465 C60.47,13.465 59.25,12.242 59.25,10.735 C59.25,9.228 60.47,8.005 61.98,8.005 C63.48,8.005 64.7,9.228 64.7,10.735" id="Fill-1028" fill="#F8EAD1"></path>
                <path d="M13.18,75.909 C13.18,77.235 12.1,78.311 10.78,78.311 C9.45,78.311 8.37,77.235 8.37,75.909 C8.37,74.583 9.45,73.507 10.78,73.507 C12.1,73.507 13.18,74.583 13.18,75.909" id="Fill-1029" fill="#F8EAD1"></path>
                <path d="M105.97,65.647 C105.97,67.215 104.7,68.485 103.13,68.485 C101.57,68.485 100.29,67.215 100.29,65.647 C100.29,64.08 101.57,62.808 103.13,62.808 C104.7,62.808 105.97,64.08 105.97,65.647" id="Fill-1030" fill="#F8EAD1"></path>
                <path d="M90.69,82.459 C90.69,84.027 89.42,85.298 87.85,85.298 C86.28,85.298 85.01,84.027 85.01,82.459 C85.01,80.891 86.28,79.621 87.85,79.621 C89.42,79.621 90.69,80.891 90.69,82.459" id="Fill-1031" fill="#F8EAD1"></path>
                <path d="M47.24,38.137 C47.24,39.463 46.16,40.538 44.84,40.538 C43.51,40.538 42.43,39.463 42.43,38.137 C42.43,36.81 43.51,35.735 44.84,35.735 C46.16,35.735 47.24,36.81 47.24,38.137" id="Fill-1032" fill="#F8EAD1"></path>
                <path d="M132.83,70.123 C132.83,71.751 131.51,73.071 129.88,73.071 C128.25,73.071 126.93,71.751 126.93,70.123 C126.93,68.495 128.25,67.175 129.88,67.175 C131.51,67.175 132.83,68.495 132.83,70.123" id="Fill-1033" fill="#F8EAD1"></path>
                <path d="M16.89,25.626 C13.35,25.626 10.47,22.753 10.47,19.207 C10.47,15.685 13.35,12.814 16.89,12.814 C20.42,12.814 23.29,15.685 23.29,19.207 C23.29,22.753 20.42,25.626 16.89,25.626" id="Fill-1034" fill="#3C8B42"></path>
                <path d="M58.27,24.011 L58.27,24.011 C56.05,21.586 54.73,18.378 54.73,14.855 C54.73,7.293 60.85,1.166 68.42,1.166 C70.12,1.166 71.74,1.48 73.24,2.042 C72.01,3.097 68.17,6.44 64.69,10.456 C64.55,9.08 63.39,8.005 61.98,8.005 C60.47,8.005 59.25,9.228 59.25,10.735 C59.25,12.242 60.47,13.465 61.98,13.465 C62.09,13.465 62.2,13.458 62.31,13.445 C60.02,16.563 58.32,19.86 58.38,22.641 C58.41,23.135 58.36,23.584 58.27,24.011" id="Fill-1035" fill="#3C8B42"></path>
                <path d="M61.98,13.465 C60.47,13.465 59.25,12.242 59.25,10.735 C59.25,9.228 60.47,8.005 61.98,8.005 C63.39,8.005 64.55,9.08 64.69,10.456 C64.69,10.457 64.69,10.457 64.69,10.457 C63.86,11.422 63.05,12.408 62.31,13.442 C62.31,13.443 62.31,13.444 62.31,13.445 C62.2,13.458 62.09,13.465 61.98,13.465" id="Fill-1036" fill="#7DA273"></path>
                <path d="M27.46,64.268 L27.46,64.268 C26.24,61.948 24.43,60.027 22.21,58.66 C24.35,58.564 26.06,56.793 26.06,54.623 C26.06,52.39 24.25,50.582 22.02,50.582 C19.79,50.582 17.98,52.39 17.98,54.623 C17.98,55.565 18.31,56.432 18.85,57.119 C17.49,56.701 16.04,56.481 14.56,56.481 C13.19,56.481 11.84,56.662 10.59,57.042 C10.52,56.481 10.47,55.898 10.47,55.315 C10.47,47.282 17.01,40.751 25.04,40.751 C28.16,40.751 31.03,41.738 33.41,43.421 C30.78,45.756 29.12,49.188 29.12,52.981 C29.12,57.245 31.19,61.014 34.4,63.349 C34.35,63.528 34.3,63.685 34.24,63.843 C33.36,63.595 32.42,63.461 31.46,63.461 C30.04,63.461 28.7,63.731 27.46,64.268" id="Fill-1037" fill="#3C8B42"></path>
                <path d="M14.56,85.586 C6.52,85.586 0,79.079 0,71.024 C0,64.357 4.48,58.748 10.59,57.042 C11.84,56.662 13.19,56.481 14.56,56.481 C16.04,56.481 17.49,56.701 18.85,57.119 C19.59,58.06 20.73,58.665 22.02,58.665 C22.08,58.665 22.15,58.663 22.21,58.66 C24.43,60.027 26.24,61.948 27.46,64.268 C25.02,65.255 23.04,67.164 21.92,69.541 C21.29,70.888 20.95,72.37 20.95,73.94 C20.95,77.037 22.3,79.819 24.43,81.705 C21.83,84.106 18.37,85.586 14.56,85.586 M10.78,73.507 C9.45,73.507 8.37,74.583 8.37,75.909 C8.37,77.235 9.45,78.311 10.78,78.311 C12.1,78.311 13.18,77.235 13.18,75.909 C13.18,74.583 12.1,73.507 10.78,73.507" id="Fill-1038" fill="#3C8B42"></path>
                <path d="M31.46,84.419 C28.76,84.419 26.29,83.411 24.43,81.705 C22.3,79.819 20.95,77.037 20.95,73.94 C20.95,72.37 21.29,70.888 21.92,69.541 C23.04,67.164 25.02,65.255 27.46,64.268 C28.7,63.731 30.04,63.461 31.46,63.461 C32.42,63.461 33.36,63.595 34.24,63.843 C33.75,65.278 33.23,66.58 32.71,67.679 C32.06,69.004 33.64,70.113 32.9,70.742 C30.84,72.515 31.73,73.536 36.66,73.761 L36.75,73.918 C37.02,76.386 38.14,78.608 39.83,80.223 C37.92,82.782 34.87,84.419 31.46,84.419" id="Fill-1039" fill="#3C8B42"></path>
                <path d="M34.8,42.322 L34.8,42.322 C34.13,40.773 33.77,39.068 33.77,37.274 C33.77,30.182 39.51,24.46 46.58,24.46 C50.08,24.46 53.22,25.85 55.53,28.118 C51.45,31.236 44.16,32.606 41.55,38.575 C41.33,39.091 41.13,39.629 40.9,40.212 C38.66,40.393 36.57,41.133 34.8,42.322" id="Fill-1040" fill="#3C8B42"></path>
                <path d="M47.16,83.253 C44.29,83.253 41.71,82.108 39.83,80.223 C38.14,78.608 37.02,76.386 36.75,73.918 C37.69,75.848 39.02,77.576 40.63,78.989 C43.01,81.121 45.97,82.558 49.27,83.052 C48.6,83.186 47.88,83.253 47.16,83.253" id="Fill-1041" fill="#3C8B42"></path>
                <path d="M34.4,63.349 L34.4,63.349 C31.19,61.014 29.12,57.245 29.12,52.981 C29.12,49.188 30.78,45.756 33.41,43.421 C33.83,43.018 34.3,42.659 34.8,42.322 C36.57,41.133 38.66,40.393 40.9,40.212 C40.16,42.254 39.45,44.723 38.73,47.371 C38.57,47.977 38.41,48.582 38.26,49.21 C37,54.036 35.79,59.22 34.4,63.349" id="Fill-1042" fill="#3C8B42"></path>
                <path d="M51.83,83.253 C50.98,83.253 50.13,83.186 49.29,83.052 L49.27,83.052 C45.97,82.558 43.01,81.121 40.63,78.989 C39.02,77.576 37.69,75.848 36.75,73.918 L36.66,73.761 L36.73,73.761 C37.44,73.811 38.2,73.834 38.97,73.834 C39.93,73.834 40.92,73.799 41.93,73.737 C44.13,73.604 46.43,73.338 48.64,72.926 C48.55,73.398 48.5,73.884 48.5,74.377 C48.5,76.547 49.4,78.554 50.82,79.967 C51.8,80.946 53.05,81.678 54.44,82.035 C54.53,82.356 54.63,82.671 54.75,82.984 C53.81,83.163 52.82,83.253 51.83,83.253 M56.4,71.975 L56.4,71.282 L56.4,71.975" id="Fill-1043" fill="#3C8B42"></path>
                <polyline id="Fill-1044" fill="#3C8B42" points="76.79 82.647 76.76 82.647 76.79 82.625 76.79 82.647"></polyline>
                <path d="M65.68,90.725 C60.63,90.725 56.34,87.494 54.75,82.984 C54.63,82.671 54.53,82.356 54.44,82.035 C55.06,82.194 55.71,82.28 56.37,82.28 C56.38,82.28 56.39,82.28 56.4,82.28 C56.41,82.28 56.43,82.28 56.44,82.28 C58.59,82.28 60.59,81.382 61.99,79.967 C63.41,78.554 64.32,76.547 64.31,74.377 C64.31,72.806 63.84,71.311 63.03,70.07 C63.57,70.242 64.11,70.458 64.64,70.709 C65.63,71.18 66.62,71.786 67.54,72.483 C72.25,75.893 75.95,81.345 76.79,82.625 L76.76,82.647 C75.26,87.337 70.86,90.725 65.68,90.725 M58.6,76.574 L58.1,76.08 L58.6,76.574 M58.11,72.682 L58.6,72.191 L58.11,72.682" id="Fill-1045" fill="#3C8B42"></path>
                <path d="M10.78,78.311 C9.45,78.311 8.37,77.235 8.37,75.909 C8.37,74.583 9.45,73.507 10.78,73.507 C12.1,73.507 13.18,74.583 13.18,75.909 C13.18,77.235 12.1,78.311 10.78,78.311" id="Fill-1046" fill="#7DA273"></path>
            </g>
        </g>
    </g>
</svg>