<?xml version="1.0" encoding="UTF-8"?>
<svg width="447px" height="380px" viewBox="0 0 447 380" version="1.1" xmlns="http://www.w3.org/2000/svg" xmlns:xlink="http://www.w3.org/1999/xlink">
    <title>decoration-1</title>
    <g id="decoration-1" stroke="none" stroke-width="1" fill="none" fill-rule="evenodd">
        <g id="Group" transform="translate(-22.000000, 1.193335)">
            <g id="Halloween/Creatures/Vampire-2" transform="translate(232.500000, 380.000000) scale(-1, 1) translate(-232.500000, -380.000000) ">
                <path d="M163.74123,7.10523258 C170.500774,12.0511162 174.633173,18.3374701 175.987185,25.6276348 C176.445822,28.0969954 178.395347,32.950373 181.720596,34.6376963 C184.389008,35.9917223 188.491763,34.4465675 189.296633,34.4646748 L189.722596,34.4816963 L190.039298,34.2850439 L190.537641,33.993716 C194.062051,31.9967128 198.068751,31.0797856 202.297889,31.7942793 L202.736168,31.8740346 L203.323119,31.9938247 C208.172108,33.0287639 212.162259,35.0109064 215.350764,37.3112537 L215.745156,37.6004089 L216.287861,38.0218553 C224.307969,44.4915331 221.407012,57.0312318 212.003766,59.7419925 L211.716834,59.8211118 L211.436596,59.8906963 L211.383711,59.9518181 C210.531178,60.904529 205.344372,64.5380882 203.720596,69.6376963 C201.953931,75.1860608 203.815625,82.2267096 204.799836,83.1400908 C208.136761,86.2368693 211.156072,89.4340747 213.777485,92.6842096 L213.833301,93.440316 C213.609055,90.7204848 213.533975,87.9110529 213.64741,85.046088 L213.698862,83.9691896 L213.76066,82.9958597 C214.572048,71.5707036 218.265879,61.2463931 226.02288,53.2477688 C229.603949,49.5548775 234.082058,46.672444 239.275349,44.491285 L239.901965,44.2329051 L240.415583,44.0291865 L240.557017,43.9562296 C240.958627,43.7567238 241.373568,43.5776114 241.80071,43.420411 L242.231879,43.2705709 L242.523719,43.1789597 L246.937719,41.8519597 C247.31558,41.7383618 247.695101,41.6434833 248.075218,41.566848 L248.455494,41.496276 L248.750583,41.4501865 L249.254869,41.3334638 C265.668673,37.5996247 287.037206,39.0107812 298.452973,44.2695358 L298.887102,44.4736901 L299.295888,44.6739488 C308.128118,49.0892586 317.285818,58.374542 323.48743,68.5534502 L323.822749,69.1095257 L324.107583,69.5921865 L324.245553,69.6118427 C330.54425,70.5522259 335.722858,76.3357736 334.865038,83.4589686 L334.822578,83.7788013 L332.472583,97.8261865 L332.676309,97.9003506 C333.936076,98.3781064 335.124366,99.0616347 336.188456,99.9381239 L336.53848,100.237416 L336.666583,100.354186 L336.769701,100.388053 C336.968185,100.445099 337.240236,100.494533 337.584574,100.526531 L337.799841,100.543558 L338.032396,100.555929 C339.764761,100.626936 342.124451,100.265998 344.831479,99.494132 C347.220103,98.8130534 349.688514,97.8726056 352.050641,96.8009181 L352.86635,96.4234458 L353.626191,96.0577303 C353.747934,95.997966 353.867168,95.9388479 353.983802,95.8804542 L354.588768,95.5722056 L355.056639,95.3238538 L355.339035,95.1709749 C360.915465,92.2425408 367.801648,93.9207123 371.401382,99.0803861 L371.56537,99.3148195 L371.750346,99.5585861 L371.975713,99.8405666 C372.016564,99.8904972 372.059041,99.941832 372.103116,99.994477 C372.777179,100.799616 373.58034,101.620541 374.470875,102.368823 C377.71581,105.095417 380.565153,105.867113 384.100817,104.396173 L384.397068,104.268397 C395.199044,99.4462786 405.96153,110.911756 400.644251,121.330983 L400.400657,121.788744 L399.302776,123.769594 L397.986079,126.095411 L397.251346,127.376592 L396.311005,129.000802 L395.328657,130.680313 L394.305539,132.412011 C387.591317,143.731468 380.250441,155.09313 372.555857,165.692143 L371.338023,167.359216 L370.656583,168.280186 L371.452527,168.267133 L373.187776,168.250996 L374.920959,168.248766 L376.038162,168.255096 C386.258218,168.342041 395.50692,169.193572 403.611846,171.038121 L404.475847,171.239561 L405.539455,171.50245 C418.224254,174.737191 427.641015,180.546315 432.305183,190.233268 C435.934381,197.771291 437.24969,213.603297 436.641784,240.730167 L436.56477,243.849546 C436.550572,244.377538 436.535694,244.909592 436.52014,245.445727 L436.418714,248.711674 C436.382212,249.816757 436.343024,250.938326 436.30117,252.076544 L436.167636,255.541302 C436.144055,256.12714 436.119813,256.71718 436.094912,257.311443 L435.937627,260.927849 L435.764667,264.646564 L435.576156,268.468554 L435.372221,272.394788 L435.152987,276.426232 C435.115181,277.106961 435.076742,277.792114 435.037673,278.481711 L434.795729,282.672785 L434.538801,286.971489 L434.267016,291.37879 C434.220487,292.122443 434.173345,292.870662 434.125591,293.623466 L433.831756,298.195477 L433.363775,305.26195 L433.03382,310.113314 L432.689637,315.078112 L432.146961,322.740117 L431.76776,327.992735 L431.374773,333.362174 L430.440723,345.876011 L428.94684,365.370812 L425.692171,407.593178 L424.305201,425.900349 L423.547024,436.21271 L423.017514,443.745025 L422.723986,448.168838 L422.484522,452.031498 L422.26644,455.913585 L422.114976,458.97998 L422.024455,461.051785 L421.94524,463.074681 L421.894494,464.497034 L421.788331,467.821819 L421.711623,470.471047 C421.579635,475.178318 421.746011,480.94976 422.191893,487.702673 L422.341967,489.8677 L422.51049,492.097399 L422.697332,494.39119 C422.762651,495.166405 422.831001,495.952206 422.90236,496.748496 L423.125443,499.168736 L423.366447,501.651333 L423.625242,504.195708 C423.66985,504.624886 423.715193,505.056615 423.76127,505.490881 L424.046502,508.126837 L424.349196,510.823124 L424.669217,513.579164 L425.006435,516.394376 C425.064064,516.868477 425.122403,517.34502 425.181451,517.823992 L425.544216,520.726879 L425.923848,523.687493 L426.320214,526.705255 L426.733182,529.779586 L427.383476,534.495883 L427.837373,537.709105 L428.307411,540.97687 L428.793458,544.2986 L429.295381,547.673716 L429.81305,551.101639 L430.34633,554.581791 L430.895092,558.113592 L431.459202,561.696464 L432.03853,565.329829 L432.632942,569.013108 L433.242307,572.745721 L433.866493,576.52709 L434.505368,580.356637 L435.490933,586.190023 L436.165953,590.137481 L436.8552,594.131091 L437.558542,598.170274 L438.639694,604.313231 L439.751819,610.555473 L440.894469,616.895045 L441.672975,621.174534 C445.998878,644.868847 450.663792,669.017393 455.395479,692.551735 L457.29548,701.951624 L459.113933,710.852576 L461.070002,720.317849 L463.493372,731.861879 L463.666479,732.674193 C466.180992,744.43964 452.251164,752.61715 443.2034,744.687051 C442.773617,744.310359 441.668852,743.928629 439.916814,743.728361 L439.600917,743.694941 L439.354583,743.672186 L439.341364,746.413792 C439.306538,753.101295 434.025813,758.536827 427.416314,758.835745 L427.110331,758.848635 L426.802546,758.848635 L331.259546,758.550635 C327.265742,758.538179 323.844993,756.70436 321.601515,753.93962 L321.394656,753.677725 L321.254583,753.491186 L299.977583,753.664186 L299.863717,753.820359 C297.701091,756.716457 294.31325,758.642469 290.471795,758.833114 L290.110353,758.848635 L289.802546,758.848635 L194.259546,758.550635 C186.496273,758.526422 180.898274,751.620243 181.90333,744.372124 L181.945251,744.093195 L181.979583,743.891186 L181.763802,743.90576 C180.077417,744.036589 178.137988,744.492695 176.121612,745.218524 L175.616017,745.405568 L175.175714,745.576614 C174.319865,745.916422 173.518555,746.27659 172.796282,746.634392 L172.233316,746.920914 L171.651729,747.235559 C164.751744,751.424808 155.981277,748.043732 153.398424,740.788077 L153.306704,740.520905 L153.261583,740.381186 L153.123906,740.356416 C152.412516,740.236826 151.470883,740.156061 150.348168,740.146811 L149.96729,740.146422 L149.639937,740.150338 C147.108621,740.195354 144.205479,740.571678 141.253072,741.176755 C140.11207,741.410596 139.05182,741.660538 138.11134,741.906927 L137.474523,742.07862 L137.134874,742.175174 C128.165509,744.904834 119.533161,737.162992 121.192877,728.003292 L126.050884,703.961229 L130.290641,682.858167 L133.680725,665.906767 L136.215706,653.185094 L139.575477,636.259436 L142.900624,619.429747 L145.364191,606.906013 L147.795895,594.494436 L149.396707,586.294674 L151.217719,576.936639 L154.013707,562.4984 L156.586892,549.126487 L159.038102,536.30079 L161.364026,524.037322 L163.204202,514.258798 L164.610758,506.731326 L165.957952,499.471526 L167.556973,490.780416 L169.059793,482.524222 L170.464496,474.712211 L171.516327,468.788641 L172.262596,464.539266 L173.200029,459.134975 L173.643788,456.546254 L174.480775,451.598624 L175.06382,448.091324 L175.608093,444.760609 L176.113182,441.608482 L176.578672,438.636943 L176.866795,436.757233 L177.137013,434.959267 L177.389202,433.243638 L177.623239,431.61094 L177.839003,430.061765 L178.03637,428.596707 L178.215219,427.216358 C178.243477,426.993392 178.270958,426.773981 178.29766,426.558136 L178.4485,425.305963 C178.472074,425.104434 178.494865,424.906496 178.516868,424.712162 L178.639423,423.589501 L178.69358,423.060789 C178.721964,422.776973 178.748696,422.487891 178.773776,422.193497 L178.844064,421.294333 L178.90445,420.363026 C178.922929,420.047203 178.939759,419.725977 178.954941,419.399304 L178.995543,418.402896 C179.001487,418.234089 179.007019,418.063908 179.012139,417.892349 L179.037921,416.846402 L179.05383,415.767091 L179.059875,414.654143 L179.05606,413.507288 L179.042393,412.326253 C179.039294,412.126551 179.035786,411.925413 179.031867,411.722834 L179.003433,410.490023 L178.965164,409.222353 L178.917065,407.919556 L178.859143,406.581358 L178.791405,405.207488 L178.713857,403.797675 L178.626506,402.351648 L178.529358,400.869135 L178.42242,399.349865 L178.305699,397.793567 L178.179201,396.199968 L178.042932,394.568799 L177.8969,392.899786 L177.74111,391.192659 L177.489145,388.559912 L177.308991,386.756313 L177.119102,384.913649 L176.816032,382.075816 L176.601837,380.134306 L176.37793,378.152781 L176.023875,375.104875 L175.775719,373.022129 L175.385321,369.821118 L174.973146,366.527023 L174.389744,361.988515 L173.767719,357.280725 L173.275886,353.637484 L172.408014,347.348612 L171.48004,340.785058 L170.801278,336.07364 C169.061501,337.289587 167.039459,338.043204 164.925903,338.261668 L164.515775,338.297247 L143.984775,339.738247 C137.947487,340.161983 132.490593,336.202282 130.999624,330.367284 L130.926059,330.063814 L129.383596,323.339696 L129.332684,323.324812 C128.703738,323.139516 128.008741,322.951117 127.255023,322.765156 L126.795804,322.653916 L126.442353,322.57103 C122.844434,321.739096 118.432982,321.050374 113.492456,320.512963 C109.527328,320.081653 105.455039,319.771343 101.509516,319.564535 L99.7744027,319.480105 L98.1767277,319.414644 L96.4113044,319.358634 L79.3239668,319.023528 C74.3164522,318.92551 69.8621483,315.849877 67.9865943,311.227825 L67.8703998,310.930715 L63.594786,299.580851 L63.475102,299.288579 L24.0110805,217.043276 L17.6610805,203.521276 C16.3598468,200.750365 16.122461,197.602616 16.9853357,194.674681 L17.0989282,194.309877 L18.7219282,189.364877 C20.4259591,184.17299 25.2985302,180.701467 30.7388834,180.763675 L31.0474169,180.770982 L31.4995963,180.786696 L34.5960196,176.393569 C35.5122347,175.093117 36.6478378,174.005242 37.928673,173.160191 L38.2815367,172.935765 L38.5435963,172.778696 L38.5922328,172.664478 C40.1662469,168.988073 43.4740797,166.09551 47.7592627,165.288723 L48.1088367,165.227904 L48.3885616,165.186341 L55.1695616,164.254341 C59.6965486,163.632139 64.1927689,165.529919 66.9066689,169.184882 L67.0107352,169.325274 L67.1114407,169.446979 L67.256779,169.612281 C67.2844487,169.642906 67.3137737,169.67493 67.3446515,169.708143 C67.5545729,169.933942 67.7779113,170.149358 67.998565,170.337256 L68.312572,170.586927 L68.3805963,170.635696 L74.2444055,170.303111 C75.0278404,170.260283 75.7991256,170.220475 76.5595318,170.183837 L77.6921408,170.131276 L78.5265963,170.094696 L78.3719619,169.927286 C73.5033992,164.561811 71.9299424,157.658577 73.2019404,149.90035 C73.8973611,145.658809 70.5921421,139.635517 65.7205963,137.637696 C61.8759903,136.061024 56.9889903,136.06369 51.0595963,137.645696 C43.5596829,142.980523 32.5355814,138.408039 31.4718536,128.814136 L31.4426821,128.521879 L31.4045862,127.961745 L31.3874407,127.440639 L31.3845148,127.217483 L31.3838101,126.935375 C31.3995578,123.636216 32.035633,119.99578 33.7511578,116.259477 C34.6620704,114.274919 35.8149385,112.662741 37.1545188,111.362775 C31.0553418,107.523819 25.0954449,105.012106 22.8436795,102.341406 L22.6330268,102.084792 L22.4935963,101.906696 L22.3693644,101.92293 C19.6621231,102.243724 16.9629997,101.660511 14.6652075,100.3383 L14.3543967,100.153433 L14.1085963,99.9986963 L13.8293412,100.007482 C4.11603498,100.164892 -2.19901547,89.2852912 3.12893432,80.860224 L3.29395966,80.6056841 L3.47740029,80.3366401 L3.77026878,79.9307393 C4.19175818,79.3630557 4.7376175,78.6918221 5.41237864,77.9455964 C6.70113738,76.520344 8.19839286,75.1185279 9.92406066,73.805093 C11.4681885,72.6298313 13.1338141,71.5747972 14.93018,70.671733 C19.3273265,68.4622067 23.5979888,68.3063039 27.6771478,69.4660931 L28.0590059,69.5786554 L28.2575963,69.6406963 L28.4587586,69.5753186 C30.0835424,69.0642452 31.8026047,68.8851433 33.4934625,69.0346922 L33.9155184,69.0789244 L34.0645963,69.0986963 L34.34338,69.0830662 C36.4922613,68.9857295 38.6561638,69.4302293 40.5923153,70.3710786 L40.976437,70.565853 L41.0525963,70.6076963 L41.3449759,70.5420226 C42.1335791,70.373743 42.9208842,70.2450777 43.7139732,70.1606183 L44.3099851,70.105634 L44.9088298,70.0676573 C46.6239503,69.9843048 58.7320143,67.6206524 67.3041373,57.3823629 L67.3570179,57.1033589 C68.8470129,49.5350495 74.2038025,44.094589 81.2594254,41.9873249 C86.6405241,40.3801819 92.6467193,40.809078 98.0471932,42.9188869 L98.2767568,43.0101106 L98.5325963,43.1146963 L98.5247949,43.0579802 C97.0206424,30.8549026 105.164389,18.6262652 117.563008,10.2117075 L117.987328,9.92633074 L118.429871,9.63414657 C133.224589,-0.042316498 150.813376,-2.35468286 163.74123,7.10523258 Z M206.167261,142.973025 L205.940586,143.0636 C202.763926,144.305637 199.225702,145.277838 195.356685,145.954014 L192.473795,146.438348 L191.044576,146.685078 L188.9855,147.051463 L187.028317,147.412789 L185.780244,147.650526 L184.577618,147.885511 L183.420502,148.117542 L181.770302,148.459606 L180.727244,148.683368 L179.625596,148.925696 L179.752526,149.083395 C184.586366,155.190996 185.15884,162.626248 181.257141,169.132078 L181.051338,169.467746 L180.914596,169.680696 L183.342782,169.013393 L184.33726,168.735432 C185.990995,168.270869 187.623024,167.800528 189.187451,167.334875 L190.752178,166.864577 L192.280644,166.395918 L193.771506,165.929235 C194.262043,165.77404 194.74609,165.61923 195.223423,165.464862 L196.635054,165.003135 L198.005057,164.544391 L199.33209,164.088964 L200.614813,163.637191 C200.824833,163.562219 201.03295,163.487413 201.239138,163.41278 L202.452879,162.967117 C203.047945,162.74538 203.625136,162.525329 204.183699,162.307151 L205.275762,161.873349 C205.453558,161.801484 205.629229,161.729841 205.802746,161.658427 L206.242309,161.476057 L207.086096,161.117193 C207.496049,160.939816 207.887929,160.765617 208.26101,160.595032 L208.98189,160.258805 L209.651347,159.932984 C209.764265,159.876752 209.874747,159.821037 209.982762,159.765857 C208.922621,158.436179 208.119529,156.904731 207.630405,155.248547 L207.530804,154.893222 L207.423864,154.468929 L207.314422,154.004806 C207.295625,153.922622 207.276556,153.837978 207.257224,153.750804 C207.100514,153.044125 206.948053,152.269182 206.807217,151.431884 C206.401445,149.019479 206.156779,146.504883 206.155544,143.907732 C206.155944,143.594605 206.159797,143.28305 206.167261,142.973025 Z" id="Combined-Shape" fill="#FFFFFF" fill-rule="nonzero"></path>
                <g id="Vampire" transform="translate(12.733188, 13.637696)">
                    <polyline id="Fill-681" fill="#E06234" points="273.403346 413.834 387.196346 726.716 231.601346 727.979 273.403346 413.834"></polyline>
                    <path d="M253.136346,175.057 C253.136346,175.057 166.787346,164.289 156.864346,193.424 C149.299346,215.639 182.832346,366.331 178.398346,410.667 C173.965346,455.001 120.762346,716.579 120.762346,716.579 C120.762346,716.579 149.898346,707.712 152.431346,722.913 C152.431346,722.913 170.165346,712.146 181.565346,721.647 C181.565346,721.647 199.299346,712.146 207.534346,721.647 C207.534346,721.647 227.801346,718.48 231.601346,727.979 L253.136346,175.057" id="Fill-682" fill="#382454"></path>
                    <g id="Pant" transform="translate(181.565346, 374.564000)">
                        <path d="M125.406,5.912 C125.406,5.912 157.497,136.806 161.718,154.54 C165.942,172.276 227.588,340.328 227.588,340.328 L167.631,351.305 L94.371,86.771 L93.737,163.407 L95.849,351.305 L46.869,352.994 L31.669,0 L125.406,5.912" id="Fill-683" fill="#221622"></path>
                        <path d="M61.074,278.428 C58.815,278.428 56.353,277.678 53.891,276.272 C45.109,271.252 47.201,241.981 46.364,214.801 C45.682,192.635 43.053,106.786 42.107,75.862 C41.915,69.574 46.646,64.227 52.908,63.647 C53.281,63.612 53.651,63.596 54.018,63.596 C59.981,63.596 65.102,68.056 65.827,74.091 C67.993,92.143 71.584,127.515 69.781,151.241 C67.273,184.275 70.618,246.162 71.036,262.054 C71.337,273.49 66.874,278.428 61.074,278.428" id="Fill-720" fill="#342035"></path>
                        <path d="M95.638,340.115 L46.869,340.749 C46.869,340.749 8.234,336.949 0,357.849 L95.543,358.147 L95.638,340.115" id="Fill-754" fill="#14101A"></path>
                        <path d="M232.638,340.115 L183.869,340.749 C183.869,340.749 145.234,336.949 137,357.849 L232.543,358.147 L232.638,340.115" id="Fill-754-Copy" fill="#14101A"></path>
                    </g>
                    <polyline id="Fill-684" fill="#201322" points="274.669346 377.732 312.038346 543.038 299.371346 380.899 274.669346 377.732"></polyline>
                    <path d="M210.700346,340.997 L210.700346,381.321 L306.971346,380.476 L308.871346,349.864 L274.880346,290.117 L257.991346,282.516 C257.991346,282.516 210.700346,317.562 210.700346,340.997" id="Fill-685" fill="#D34D2B"></path>
                    <path d="M188.744346,93.513 C188.744346,93.513 260.151346,166.646 263.299346,198.642 C263.299346,198.642 299.968346,184.32 340.496346,110.272 L348.419346,92.599 C348.419346,92.599 325.565346,105.397 315.509346,95.95 C315.509346,95.95 269.496346,109.054 259.135346,90.465 C259.135346,90.465 216.778346,103.873 208.551346,90.465 C208.551346,90.465 200.323346,96.865 188.744346,93.513" id="Fill-686" fill="#E05929"></path>
                    <path d="M267.280346,171.045 C267.280346,171.045 244.479346,177.801 243.635346,185.401 C242.791346,193.001 258.835346,245.359 258.835346,245.359 C258.835346,245.359 287.548346,242.826 290.081346,242.826 C292.615346,242.826 335.684346,198.913 338.217346,196.379 C340.750346,193.846 329.772346,173.578 329.772346,173.578 L302.507346,148.058 L267.280346,171.045" id="Fill-687" fill="#F9F8E4"></path>
                    <polyline id="Fill-688" fill="#15101F" points="292.959346 149.683 302.507346 148.058 296.006346 156.997 292.959346 149.683"></polyline>
                    <path d="M284.275346,127.794 L296.464346,155.828 L272.086346,178.226 L268.277346,186.606 L266.448346,179.902 C266.448346,179.902 274.219346,129.013 284.275346,127.794" id="Fill-689" fill="#E69C9B"></path>
                    <path d="M262.334346,160.857 L266.448346,179.902 C266.448346,179.902 280.466346,172.284 274.980346,147.906 C274.980346,147.906 262.182346,155.828 262.334346,160.857" id="Fill-690" fill="#15101F"></path>
                    <path d="M262.893346,179.343 L263.299346,198.642 C263.299346,198.642 298.038346,179.546 307.992346,158.419 L302.507346,148.058 L296.464346,155.828 L262.893346,179.343" id="Fill-691" fill="#FFFEF4"></path>
                    <path d="M214.340346,84.473 C214.340346,84.473 209.261346,61.719 222.263346,48.312 C235.265346,34.904 270.003346,36.733 280.973346,42.217 C291.943346,47.701 305.554346,65.376 305.961346,77.971 C306.367346,90.566 292.756346,120.633 291.334346,124.696 C289.911346,128.76 290.927346,133.838 292.350346,135.463 L214.340346,84.473" id="Fill-692" fill="#16111D"></path>
                    <path d="M309.715346,68.369 C309.715346,68.369 303.773346,103.572 302.254346,114.079 C300.727346,124.594 283.666346,118.957 283.666346,118.957 C284.426346,122.762 284.583346,135.713 281.834346,139.22 C279.094346,142.728 268.430346,157.808 256.849346,164.973 C245.270346,172.129 223.784346,166.649 223.784346,166.649 C223.784346,166.649 224.035346,163.266 224.372346,158.873 C224.850346,152.477 225.500346,143.935 225.765346,140.591 C226.227346,134.954 217.239346,123.984 214.186346,119.716 C211.140346,115.449 209.770346,104.48 210.223346,96.862 C210.685346,89.244 222.572346,67.461 222.572346,67.461 C226.071346,67.766 230.338346,84.977 230.338346,84.977 C243.139346,70.045 270.717346,70.35 270.717346,70.35 C263.708346,78.125 260.812346,104.48 260.812346,104.48 L278.029346,106.461 C278.029346,106.461 277.724346,103.415 280.316346,93.206 C282.907346,83.003 309.715346,68.369 309.715346,68.369" id="Fill-693" fill="#F8D3CE"></path>
                    <path d="M228.053346,97.779 C228.053346,97.779 228.510346,109.663 223.482346,111.948 C218.454346,114.234 210.531346,117.891 207.941346,123.528 C205.351346,129.165 207.637346,137.85 207.637346,137.85 C207.637346,137.85 238.261346,127.184 239.023346,125.204 C239.785346,123.223 236.890346,120.328 232.776346,121.7 C228.663346,123.071 228.663346,123.071 228.663346,123.071" id="Fill-694" fill="#F8D3CE"></path>
                    <path d="M227.271346,97.809 C227.271346,97.809 227.273346,97.87 227.276346,97.996 C227.278346,98.122 227.281346,98.308 227.281346,98.544 C227.282346,99.842 227.198346,102.669 226.604346,105.351 C226.309346,106.691 225.884346,107.992 225.307346,109.034 C224.729346,110.081 224.016346,110.847 223.158346,111.235 C220.640346,112.38 217.368346,113.879 214.371346,115.824 C211.378346,117.773 208.632346,120.164 207.230346,123.201 C206.223346,125.399 205.925346,127.937 205.922346,130.286 C205.924346,134.429 206.871346,138.012 206.879346,138.049 C206.935346,138.26 207.076346,138.439 207.269346,138.541 C207.461346,138.644 207.688346,138.661 207.894346,138.589 C207.898346,138.588 215.557346,135.921 223.320346,133.003 C227.202346,131.543 231.108346,130.022 234.106346,128.735 C235.607346,128.091 236.878346,127.507 237.821346,127.008 C238.294346,126.758 238.684346,126.531 238.995346,126.313 C239.151346,126.203 239.288346,126.096 239.412346,125.975 C239.535346,125.851 239.657346,125.722 239.754346,125.485 C239.872346,125.178 239.928346,124.855 239.928346,124.536 C239.921346,123.479 239.350346,122.495 238.461346,121.767 C237.567346,121.04 236.322346,120.56 234.870346,120.56 C234.134346,120.56 233.347346,120.684 232.529346,120.957 C228.415346,122.328 228.415346,122.328 228.415346,122.328 C228.005346,122.465 227.783346,122.908 227.920346,123.318 C228.056346,123.729 228.500346,123.95 228.910346,123.814 C228.910346,123.813 228.910346,123.813 233.024346,122.442 C233.691346,122.22 234.309346,122.126 234.870346,122.126 C235.976346,122.126 236.868346,122.49 237.472346,122.982 C238.081346,123.474 238.368346,124.086 238.362346,124.536 C238.362346,124.675 238.338346,124.802 238.292346,124.923 L238.632346,125.054 L238.338346,124.834 L238.292346,124.923 L238.632346,125.054 L238.338346,124.834 L238.338346,124.835 C238.312346,124.87 238.114346,125.034 237.818346,125.212 C237.258346,125.559 236.335346,126.024 235.178346,126.551 C231.119346,128.401 224.153346,131.049 218.222346,133.224 C215.255346,134.313 212.544346,135.284 210.574346,135.984 C208.605346,136.684 207.382346,137.109 207.379346,137.111 L207.637346,137.85 L208.394346,137.651 C208.394346,137.651 208.382346,137.604 208.357346,137.505 C208.187346,136.809 207.487346,133.704 207.488346,130.286 C207.486346,128.072 207.786346,125.734 208.653346,123.855 C209.840346,121.254 212.351346,118.998 215.224346,117.138 C218.093346,115.274 221.296346,113.801 223.806346,112.661 C225.075346,112.082 225.998346,111.022 226.678346,109.791 C227.697346,107.937 228.220346,105.646 228.512346,103.553 C228.800346,101.461 228.847346,99.567 228.847346,98.544 C228.847346,98.048 228.836346,97.757 228.836346,97.749 C228.819346,97.317 228.455346,96.98 228.023346,96.996 C227.591346,97.013 227.254346,97.376 227.271346,97.809" id="Fill-695" fill="#CB7C7A"></path>
                    <path d="M251.666346,155.373 C247.250346,158.724 224.395346,158.873 224.395346,158.873 L224.372346,158.873 C224.850346,152.476 225.499346,143.934 225.766346,140.591 C225.766346,140.591 226.525346,140.481 227.747346,140.27 C232.084346,139.518 242.270346,137.498 245.121346,134.648 C245.387346,134.382 245.661346,134.116 245.935346,133.849 C249.404346,130.561 253.193346,127.946 253.193346,127.946 C253.193346,127.946 256.090346,152.022 251.666346,155.373" id="Fill-696" fill="#15101F"></path>
                    <path d="M245.422346,103.416 C245.422346,105.435 244.194346,107.073 242.680346,107.073 C241.165346,107.073 239.937346,105.435 239.937346,103.416 C239.937346,101.396 241.165346,99.759 242.680346,99.759 C244.194346,99.759 245.422346,101.396 245.422346,103.416" id="Fill-697" fill="#121015"></path>
                    <path d="M223.711346,103.035 C223.711346,105.055 222.483346,106.692 220.968346,106.692 C219.454346,106.692 218.226346,105.055 218.226346,103.035 C218.226346,101.016 219.454346,99.378 220.968346,99.378 C222.483346,99.378 223.711346,101.016 223.711346,103.035" id="Fill-698" fill="#121015"></path>
                    <path d="M227.749346,139.678 L227.749346,154 C227.749346,154 230.948346,147.906 231.557346,141.507 C231.557346,141.507 241.918346,140.135 243.899346,137.545 L246.336346,151.715 C246.336346,151.715 249.231346,144.249 249.841346,130.537 C249.841346,130.537 242.527346,139.069 227.749346,139.678" id="Fill-699" fill="#FFFFFE"></path>
                    <path d="M242.375346,91.227 C242.375346,91.227 239.632346,92.751 240.090346,94.122 C240.547346,95.493 243.594346,92.751 248.622346,94.122 C253.650346,95.493 253.498346,94.427 253.193346,92.751 C252.888346,91.075 245.727346,90.618 242.375346,91.227" id="Fill-700" fill="#15101F"></path>
                    <path d="M215.102346,92.751 C215.102346,92.751 220.130346,89.246 223.939346,90.922 C227.749346,92.599 229.272346,94.274 227.443346,94.427 C225.615346,94.579 221.197346,92.293 219.216346,92.751 C217.235346,93.208 215.864346,93.97 215.102346,92.751" id="Fill-701" fill="#15101F"></path>
                    <path d="M237.848346,102.07 L237.868346,102.032 C237.975346,101.831 238.514346,100.867 239.357346,99.974 C240.203346,99.076 241.333346,98.28 242.603346,98.285 C243.249346,98.286 243.950346,98.48 244.727346,98.998 C245.502346,99.516 246.346346,100.364 247.232346,101.657 C247.354346,101.835 247.598346,101.881 247.776346,101.758 C247.955346,101.636 248.000346,101.393 247.878346,101.214 C246.952346,99.863 246.047346,98.939 245.162346,98.347 C244.280346,97.756 243.412346,97.501 242.603346,97.5019971 C240.888346,97.509 239.534346,98.598 238.608346,99.632 C237.680346,100.674 237.160346,101.697 237.151346,101.715 C237.052346,101.908 237.129346,102.143 237.322346,102.241 C237.515346,102.339 237.750346,102.263 237.848346,102.07" id="Fill-702" fill="#E69C9B"></path>
                    <path d="M216.788346,100.145 L216.803346,100.126 C216.888346,100.015 217.334346,99.464 218.014346,98.953 C218.695346,98.439 219.599346,97.976 220.603346,97.977 C221.700346,97.982 222.985346,98.505 224.392346,100.304 C224.525346,100.475 224.771346,100.506 224.942346,100.373 C225.112346,100.24 225.143346,99.994 225.010346,99.823 C223.519346,97.897 221.976346,97.19 220.603346,97.1939831 C219.271346,97.197 218.165346,97.831 217.394346,98.442 C216.622346,99.056 216.173346,99.661 216.159346,99.678 C216.030346,99.852 216.067346,100.097 216.240346,100.226 C216.414346,100.355 216.659346,100.319 216.788346,100.145" id="Fill-703" fill="#E69C9B"></path>
                    <path d="M238.334346,105.778 C238.341346,105.811 238.581346,107 239.497346,108.375 C240.411346,109.75 242.021346,111.311 244.713346,112.022 C244.922346,112.077 245.136346,111.953 245.191346,111.744 C245.247346,111.535 245.122346,111.32 244.913346,111.265 C242.425346,110.604 240.987346,109.195 240.149346,107.941 C239.731346,107.315 239.467346,106.728 239.309346,106.301 C239.230346,106.088 239.177346,105.915 239.145346,105.797 L239.111346,105.663 L239.102346,105.625 C239.060346,105.413 238.853346,105.275 238.641346,105.318 C238.429346,105.36 238.292346,105.566 238.334346,105.778" id="Fill-704" fill="#E69C9B"></path>
                    <path d="M224.032346,105.254 L224.020346,105.283 C223.950346,105.45 223.568346,106.289 222.787346,107.14 C222.003346,107.992 220.835346,108.854 219.154346,109.124 C218.940346,109.158 218.795346,109.359 218.829346,109.573 C218.863346,109.786 219.064346,109.931 219.278346,109.897 C221.294346,109.575 222.673346,108.48 223.531346,107.48 C224.392346,106.479 224.750346,105.566 224.761346,105.54 C224.840346,105.338 224.740346,105.111 224.539346,105.032 C224.338346,104.954 224.111346,105.053 224.032346,105.254" id="Fill-705" fill="#E69C9B"></path>
                    <path d="M300.882346,80.41 C300.882346,80.41 288.084346,88.637 286.255346,96.712 C284.427346,104.787 287.474346,96.102 290.369346,93.056 C293.264346,90.008 297.835346,84.218 300.578346,83.304 C303.320346,82.39 303.929346,80.104 300.882346,80.41" id="Fill-706" fill="#E69C9B"></path>
                    <path d="M300.273346,88.789 C300.273346,88.789 299.358346,92.903 299.511346,97.474 C299.663346,102.045 296.769346,107.682 296.311346,109.054 C295.854346,110.425 297.835346,110.272 299.206346,107.377 C300.578346,104.483 303.472346,88.332 300.273346,88.789" id="Fill-707" fill="#E69C9B"></path>
                    <path d="M266.697346,77.56 C266.697346,77.56 282.904346,79.191 286.408346,84.675 L283.359346,87.801 C283.359346,87.801 270.714346,80.256 265.230346,81.781 L266.697346,77.56" id="Fill-708" fill="#FFFFFE"></path>
                    <path d="M263.121346,90.355 C263.121346,90.355 274.414346,88.658 280.051346,94.295 L279.399346,96.865 C279.399346,96.865 272.265346,91.141 262.513346,93.274 L263.121346,90.355" id="Fill-709" fill="#FFFFFE"></path>
                    <path d="M233.389346,41.597 C233.389346,41.569 233.389346,41.54 233.389346,41.512 L237.803346,40.185 C237.803346,40.185 237.812346,40.204 237.828346,40.239 C236.300346,40.632 234.816346,41.083 233.389346,41.597" id="Fill-710" fill="#82639C"></path>
                    <path d="M289.951346,81.501 C289.951346,81.501 277.571346,77.362 275.742346,70.657 C273.914346,63.955 272.543346,65.022 267.973346,63.649 C263.400346,62.279 257.612346,58.013 257.002346,55.27 C256.393346,52.527 249.689346,51.918 243.441346,51.613 C237.229346,51.31 233.431346,46.742 233.389346,41.597 C234.816346,41.083 236.300346,40.632 237.828346,40.239 C238.113346,40.848 240.820346,46.389 245.013346,46.389 C245.344346,46.389 245.684346,46.354 246.032346,46.28 C246.786346,46.12 247.669346,46.046 248.623346,46.046 C254.032346,46.046 261.695346,48.436 260.659346,51.155 C259.590346,53.96 265.424346,59.103 269.345346,59.103 C269.899346,59.103 270.414346,59 270.867346,58.774 C271.188346,58.613 271.541346,58.538 271.917346,58.538 C275.819346,58.538 282.186346,66.601 281.075346,70.353 C279.856346,74.467 294.330346,78.124 294.330346,78.124 L293.781346,78.548 C292.597346,79.42 291.423346,80.321 290.289346,81.24 L289.951346,81.501" id="Fill-711" fill="#625266"></path>
                    <path d="M290.289346,81.24 C291.423346,80.321 292.597346,79.42 293.781346,78.548 L290.289346,81.24" id="Fill-712" fill="#FBE1DD"></path>
                    <path d="M253.135346,175.057 C253.135346,175.057 220.834346,187.724 211.333346,216.858 C201.833346,245.993 210.700346,340.997 210.700346,340.997 L255.457346,297.717 L308.871346,349.864 L335.120346,267.035 C335.120346,267.035 328.927346,236.351 335.965346,215.24 C343.002346,194.127 349.195346,178.927 349.195346,178.927 L329.490346,169.356 C329.490346,169.356 313.445346,206.513 293.741346,215.803 C274.036346,225.092 264.184346,231.003 264.184346,231.003 C264.184346,231.003 242.931346,213.41 253.135346,175.057" id="Fill-713" fill="#241625"></path>
                    <path d="M253.135346,175.057 C253.135346,175.057 267.984346,167.245 273.332346,164.852 C278.681346,162.459 302.507346,148.058 302.507346,148.058 L303.734346,148.948 L263.299346,198.642 L253.135346,175.057" id="Fill-714" fill="#F9F8E4"></path>
                    <path d="M263.133346,230.732 C263.119346,230.788 256.631346,255.909 254.374346,297.659 C254.342346,298.257 254.801346,298.768 255.399346,298.801 C255.997346,298.833 256.509346,298.374 256.541346,297.776 C257.664346,276.989 259.841346,260.35 261.735346,248.915 C262.682346,243.197 263.559346,238.78 264.198346,235.796 C264.517346,234.304 264.777346,233.17 264.957346,232.411 C265.047346,232.032 265.116346,231.746 265.163346,231.556 C265.210346,231.366 265.234346,231.275 265.234346,231.275 C265.384346,230.695 265.035346,230.103 264.455346,229.953 C263.875346,229.803 263.283346,230.152 263.133346,230.732" id="Fill-715" fill="#1D1320"></path>
                    <path d="M273.403346,242.298 C273.403346,244.455 271.654346,246.204 269.497346,246.204 C267.340346,246.204 265.591346,244.455 265.591346,242.298 C265.591346,240.141 267.340346,238.392 269.497346,238.392 C271.654346,238.392 273.403346,240.141 273.403346,242.298" id="Fill-716" fill="#1D1320"></path>
                    <path d="M270.658346,259.821 C270.658346,261.978 268.910346,263.727 266.752346,263.727 C264.595346,263.727 262.847346,261.978 262.847346,259.821 C262.847346,257.664 264.595346,255.915 266.752346,255.915 C268.910346,255.915 270.658346,257.664 270.658346,259.821" id="Fill-717" fill="#1D1320"></path>
                    <path d="M268.124346,281.144 C268.124346,283.301 266.376346,285.05 264.219346,285.05 C262.062346,285.05 260.313346,283.301 260.313346,281.144 C260.313346,278.987 262.062346,277.239 264.219346,277.239 C266.376346,277.239 268.124346,278.987 268.124346,281.144" id="Fill-718" fill="#1D1320"></path>
                    <path d="M274.036346,197.857 C274.036346,197.857 319.638346,167.456 324.072346,161.756 C328.505346,156.056 329.511346,169.357 329.511346,169.357 C329.511346,169.357 310.138346,188.357 274.036346,197.857" id="Fill-719" fill="#211637"></path>
                    <path d="M234.346346,193.424 C234.346346,193.424 216.189346,212.847 214.500346,234.381 C212.811346,255.915 214.922346,298.14 215.345346,307.006 C215.767346,315.873 228.012346,299.828 225.056346,275.761 C222.101346,251.693 224.634346,222.558 231.390346,215.38 C238.145346,208.202 244.057346,193.001 234.346346,193.424" id="Fill-721" fill="#4C334E"></path>
                    <path d="M212.600346,337.83 C212.600346,337.83 213.867346,373.932 271.502346,380.265 L210.700346,381.321 L212.600346,337.83" id="Fill-722" fill="#E06234"></path>
                    <path d="M253.135346,175.057 C253.135346,175.057 249.546346,191.312 253.487346,194.972 C253.487346,194.972 234.627346,190.468 231.812346,195.816 L229.560346,189.06 C229.560346,189.06 232.797346,175.69 253.135346,175.057" id="Fill-723" fill="#382454"></path>
                    <g id="Halloween/Stuffs/Book">
                        <g id="Cloud">
                            <path d="M111.958408,184.273226 C111.958408,184.273226 116.181408,169.495226 104.780408,161.050226 C93.3794084,152.605226 66.7784084,155.139226 73.5344084,135.716226 C80.2904084,116.292226 88.3124084,111.225226 69.3124084,99.8252257 C50.3114084,88.4252257 57.9114084,58.8682257 76.9124084,55.9122257 C95.9134084,52.9562257 104.780408,46.2012257 98.8684084,30.5782257 C92.9574084,14.9552257 126.314408,-9.11277429 143.626408,3.55522571 C160.938408,16.2222257 142.782408,33.5342257 146.582408,44.0902257 C150.382408,54.6452257 158.405408,58.0232257 178.250408,74.0692257 C198.095408,90.1142257 213.296408,114.603226 179.939408,120.093226 C146.582408,125.582226 139.826408,130.226226 154.604408,140.783226 C169.383408,151.339226 138.981408,158.939226 128.847408,166.961226 C118.714408,174.984226 120.403408,194.407226 120.403408,194.407226 L111.958408,184.273226" id="Fill-680" fill="#14101A"></path>
                            <g id="Halloween/Features/Ghost" transform="translate(66.551030, 39.876681)">
                                <path d="M24.8525727,20.69653 C24.8525727,20.69653 28.6237043,20.1600665 28.5340103,19.4451123 C28.4443164,18.7301581 23.8639462,18.9978941 22.8763164,15.6928423 C21.8886865,12.3867989 19.9134268,3.2728683 14.1660389,1.0387604 C8.41865098,-1.1953475 1.50324876,0.0550786267 0.336231029,5.95320281 C-0.830786697,11.8503354 1.14447302,17.389495 4.6465228,20.3385571 C8.14857258,23.2876192 15.5134411,26.2356897 15.9619107,25.4314902 C16.4103804,24.6272907 15.5134411,24.0918187 16.2309925,24.1810641 C16.9495406,24.2703094 22.4278467,25.8787084 25.4804302,24.9852636 C28.5340103,24.0918187 28.8030921,22.9296463 28.8030921,22.9296463 C28.8030921,22.9296463 24.7628787,21.7684655 24.8525727,20.69653" id="Fill-724" fill="#F9F8E4"></path>
                                <path d="M10.843377,9.7054728 C10.843377,9.7054728 9.58566871,7.56160184 8.23926311,8.45504668 C6.89186092,9.34849151 7.52071505,11.0461359 7.96918472,11.2246265 C8.41865098,11.4031172 8.50834491,9.88495506 9.22689297,9.97320877 C9.94544104,10.0634457 10.9330709,10.3311817 10.843377,9.7054728" id="Fill-725" fill="#14101A"></path>
                                <path d="M15.0938728,7.11438361 C15.0938728,8.315229 14.1152123,9.28899463 12.9083306,9.28899463 C11.7014489,9.28899463 10.7227885,8.315229 10.7227885,7.11438361 C10.7227885,5.91353822 11.7014489,4.9397726 12.9083306,4.9397726 C14.1152123,4.9397726 15.0938728,5.91353822 15.0938728,7.11438361" id="Fill-726" fill="#14101A"></path>
                                <path d="M6.787218,8.79715374 C6.787218,9.99799914 5.80855753,10.9717648 4.60167584,10.9717648 C3.39479414,10.9717648 2.41613367,9.99799914 2.41613367,8.79715374 C2.41613367,7.59630835 3.39479414,6.62353434 4.60167584,6.62353434 C5.80855753,6.62353434 6.787218,7.59630835 6.787218,8.79715374" id="Fill-727" fill="#14101A"></path>
                            </g>
                            <g id="Group" transform="translate(144.976594, 79.839226)">
                                <g id="Halloween/Features/Ghost" transform="translate(14.500000, 13.000000) scale(-1, 1) translate(-14.500000, -13.000000) ">
                                    <path d="M24.9373784,20.8715444 C24.9373784,20.8715444 28.7213784,20.3305444 28.6313784,19.6095444 C28.5413784,18.8885444 23.9453784,19.1585444 22.9543784,15.8255444 C21.9633784,12.4915444 19.9813784,3.30054438 14.2143784,1.04754438 C8.44737837,-1.20545562 1.50837837,0.0555443835 0.337378367,6.00354438 C-0.833621633,11.9505444 1.14837837,17.5365444 4.66237837,20.5105444 C8.17637837,23.4845444 15.5663784,26.4575444 16.0163784,25.6465444 C16.4663784,24.8355444 15.5663784,24.2955444 16.2863784,24.3855444 C17.0073784,24.4755444 22.5043784,26.0975444 25.5673784,25.1965444 C28.6313784,24.2955444 28.9013784,23.1235444 28.9013784,23.1235444 C28.9013784,23.1235444 24.8473784,21.9525444 24.9373784,20.8715444" id="Fill-724" fill="#F9F8E4"></path>
                                    <path d="M10.8803784,9.78754438 C10.8803784,9.78754438 9.61837837,7.62554438 8.26737837,8.52654438 C6.91537837,9.42754438 7.54637837,11.1395444 7.99637837,11.3195444 C8.44737837,11.4995444 8.53737837,9.96854438 9.25837837,10.0575444 C9.97937837,10.1485444 10.9703784,10.4185444 10.8803784,9.78754438" id="Fill-725" fill="#14101A"></path>
                                    <path d="M15.1453784,7.17454438 C15.1453784,8.38554438 14.1633784,9.36754438 12.9523784,9.36754438 C11.7413784,9.36754438 10.7593784,8.38554438 10.7593784,7.17454438 C10.7593784,5.96354438 11.7413784,4.98154438 12.9523784,4.98154438 C14.1633784,4.98154438 15.1453784,5.96354438 15.1453784,7.17454438" id="Fill-726" fill="#14101A"></path>
                                    <path d="M6.81037837,8.87154438 C6.81037837,10.0825444 5.82837837,11.0645444 4.61737837,11.0645444 C3.40637837,11.0645444 2.42437837,10.0825444 2.42437837,8.87154438 C2.42437837,7.66054438 3.40637837,6.67954438 4.61737837,6.67954438 C5.82837837,6.67954438 6.81037837,7.66054438 6.81037837,8.87154438" id="Fill-727" fill="#14101A"></path>
                                </g>
                            </g>
                            <path d="M83.3874084,88.8472257 C83.3874084,89.4692257 82.8824084,89.9732257 82.2614084,89.9732257 C81.6394084,89.9732257 81.1354084,89.4692257 81.1354084,88.8472257 C81.1354084,88.2252257 81.6394084,87.7212257 82.2614084,87.7212257 C82.8824084,87.7212257 83.3874084,88.2252257 83.3874084,88.8472257" id="Fill-732" fill="#F3F0F4"></path>
                            <path d="M105.624408,76.4612257 C105.624408,77.0832257 105.120408,77.5872257 104.498408,77.5872257 C103.877408,77.5872257 103.372408,77.0832257 103.372408,76.4612257 C103.372408,75.8392257 103.877408,75.3352257 104.498408,75.3352257 C105.120408,75.3352257 105.624408,75.8392257 105.624408,76.4612257" id="Fill-733" fill="#F3F0F4"></path>
                            <path d="M93.2394084,102.499226 C93.2394084,103.510226 92.4194084,104.329226 91.4094084,104.329226 C90.3984084,104.329226 89.5794084,103.510226 89.5794084,102.499226 C89.5794084,101.489226 90.3984084,100.670226 91.4094084,100.670226 C92.4194084,100.670226 93.2394084,101.489226 93.2394084,102.499226" id="Fill-734" fill="#F3F0F4"></path>
                            <path d="M94.9284084,121.078226 C94.9284084,122.088226 94.1084084,122.908226 93.0984084,122.908226 C92.0874084,122.908226 91.2684084,122.088226 91.2684084,121.078226 C91.2684084,120.067226 92.0874084,119.248226 93.0984084,119.248226 C94.1084084,119.248226 94.9284084,120.067226 94.9284084,121.078226" id="Fill-735" fill="#F3F0F4"></path>
                            <path d="M116.040408,136.138226 C116.040408,136.449226 115.787408,136.701226 115.477408,136.701226 C115.166408,136.701226 114.914408,136.449226 114.914408,136.138226 C114.914408,135.827226 115.166408,135.575226 115.477408,135.575226 C115.787408,135.575226 116.040408,135.827226 116.040408,136.138226" id="Fill-736" fill="#F3F0F4"></path>
                            <path d="M140.248408,64.3572257 C140.248408,64.9792257 139.744408,65.4832257 139.122408,65.4832257 C138.500408,65.4832257 137.996408,64.9792257 137.996408,64.3572257 C137.996408,63.7352257 138.500408,63.2312257 139.122408,63.2312257 C139.744408,63.2312257 140.248408,63.7352257 140.248408,64.3572257" id="Fill-737" fill="#F3F0F4"></path>
                            <path d="M118.939408,24.9902257 C118.939408,25.7902257 118.290408,26.4402257 117.489408,26.4402257 C116.689408,26.4402257 116.040408,25.7902257 116.040408,24.9902257 C116.040408,24.1892257 116.689408,23.5402257 117.489408,23.5402257 C118.290408,23.5402257 118.939408,24.1892257 118.939408,24.9902257" id="Fill-738" fill="#F3F0F4"></path>
                            <path d="M140.530408,49.5782257 C140.530408,50.1232257 140.089408,50.5642257 139.544408,50.5642257 C139.000408,50.5642257 138.559408,50.1232257 138.559408,49.5782257 C138.559408,49.0352257 139.000408,48.5932257 139.544408,48.5932257 C140.089408,48.5932257 140.530408,49.0352257 140.530408,49.5782257" id="Fill-739" fill="#F3F0F4"></path>
                            <path d="M112.943408,49.8602257 C112.943408,50.5592257 112.376408,51.1272257 111.677408,51.1272257 C110.977408,51.1272257 110.410408,50.5592257 110.410408,49.8602257 C110.410408,49.1602257 110.977408,48.5932257 111.677408,48.5932257 C112.376408,48.5932257 112.943408,49.1602257 112.943408,49.8602257" id="Fill-740" fill="#F3F0F4"></path>
                            <path d="M136.870408,19.4592257 C136.870408,19.8482257 136.555408,20.1622257 136.166408,20.1622257 C135.778408,20.1622257 135.463408,19.8482257 135.463408,19.4592257 C135.463408,19.0702257 135.778408,18.7552257 136.166408,18.7552257 C136.555408,18.7552257 136.870408,19.0702257 136.870408,19.4592257" id="Fill-741" fill="#F3F0F4"></path>
                            <path d="M153.760408,76.4612257 C153.760408,77.2392257 153.130408,77.8682257 152.352408,77.8682257 C151.575408,77.8682257 150.945408,77.2392257 150.945408,76.4612257 C150.945408,75.6842257 151.575408,75.0542257 152.352408,75.0542257 C153.130408,75.0542257 153.760408,75.6842257 153.760408,76.4612257" id="Fill-742" fill="#F3F0F4"></path>
                            <path d="M121.078408,79.8392257 C121.078408,79.8392257 120.663408,81.6032257 119.418408,82.0192257 C119.418408,82.0192257 121.104408,82.8232257 121.130408,84.2242257 C121.130408,84.2242257 121.468408,82.1482257 122.635408,82.2262257 C122.635408,82.2262257 121.052408,81.6032257 121.078408,79.8392257" id="Fill-743" fill="#F3F0F4"></path>
                            <path d="M110.954408,109.244226 C110.954408,109.244226 110.539408,111.009226 109.294408,111.424226 C109.294408,111.424226 110.980408,112.228226 111.006408,113.629226 C111.006408,113.629226 111.344408,111.554226 112.511408,111.631226 C112.511408,111.631226 110.929408,111.009226 110.954408,109.244226" id="Fill-744" fill="#F3F0F4"></path>
                            <path d="M136.148408,117.548226 C136.148408,117.548226 135.733408,119.313226 134.488408,119.728226 C134.488408,119.728226 136.174408,120.532226 136.200408,121.933226 C136.200408,121.933226 136.537408,119.858226 137.705408,119.935226 C137.705408,119.935226 136.122408,119.313226 136.148408,117.548226" id="Fill-745" fill="#F3F0F4"></path>
                            <path d="M136.289408,92.2142257 C136.289408,92.2142257 135.873408,93.9782257 134.628408,94.3932257 C134.628408,94.3932257 136.315408,95.1982257 136.341408,96.5992257 C136.341408,96.5992257 136.678408,94.5232257 137.846408,94.6012257 C137.846408,94.6012257 136.263408,93.9782257 136.289408,92.2142257" id="Fill-746" fill="#F3F0F4"></path>
                            <path d="M73.2344084,73.9172257 C73.2344084,73.9172257 72.8194084,75.6812257 71.5744084,76.0972257 C71.5744084,76.0972257 73.2604084,76.9012257 73.2864084,78.3022257 C73.2864084,78.3022257 73.6234084,76.2262257 74.7914084,76.3042257 C74.7914084,76.3042257 73.2084084,75.6812257 73.2344084,73.9172257" id="Fill-747" fill="#F3F0F4"></path>
                            <path d="M181.187408,100.518226 C181.187408,100.518226 180.772408,102.283226 179.526408,102.698226 C179.526408,102.698226 181.213408,103.502226 181.239408,104.903226 C181.239408,104.903226 181.576408,102.827226 182.744408,102.905226 C182.744408,102.905226 181.161408,102.283226 181.187408,100.518226" id="Fill-748" fill="#F3F0F4"></path>
                            <g id="Group" transform="translate(124.145998, 138.429939)">
                                <g id="Halloween/Features/Ghost" transform="translate(9.000000, 8.068966) scale(-1, 1) rotate(30.000000) translate(-9.000000, -8.068966) ">
                                    <path d="M15.4783728,12.9547517 C15.4783728,12.9547517 17.8270624,12.6189586 17.7712004,12.1714413 C17.7153383,11.7239241 14.8626486,11.8915103 14.2475452,9.82275169 C13.6324417,7.75337238 12.4022348,2.04861376 8.82271761,0.650199962 C5.24320037,-0.748213831 0.936234849,0.0344758242 0.209407262,3.72633789 C-0.517420324,7.41757927 0.712786573,10.8847517 2.89389002,12.7306827 C5.07499347,14.5766138 9.66189002,16.4219241 9.94120037,15.9185448 C10.2205107,15.4151655 9.66189002,15.0799931 10.1087866,15.1358551 C10.5563038,15.1917172 13.9682348,16.1984758 15.8694073,15.6392344 C17.7712004,15.0799931 17.9387866,14.3525448 17.9387866,14.3525448 C17.9387866,14.3525448 15.4225107,13.6257172 15.4783728,12.9547517" id="Fill-724" fill="#F9F8E4"></path>
                                    <path d="M6.7533383,6.07502755 C6.7533383,6.07502755 5.97002795,4.73309651 5.13147623,5.29233789 C4.29230381,5.85157927 4.68395899,6.91419996 4.96326933,7.0259241 C5.24320037,7.13764824 5.29906243,6.18737238 5.74657968,6.24261376 C6.19409692,6.29909651 6.80920037,6.46668272 6.7533383,6.07502755" id="Fill-725" fill="#14101A"></path>
                                    <path d="M9.40057968,4.45316548 C9.40057968,5.20482065 8.79106243,5.81433789 8.03940726,5.81433789 C7.28775209,5.81433789 6.67823485,5.20482065 6.67823485,4.45316548 C6.67823485,3.70151031 7.28775209,3.09199307 8.03940726,3.09199307 C8.79106243,3.09199307 9.40057968,3.70151031 9.40057968,4.45316548" id="Fill-726" fill="#14101A"></path>
                                    <path d="M4.2271314,5.50647582 C4.2271314,6.258131 3.61761416,6.86764824 2.86595899,6.86764824 C2.11430381,6.86764824 1.50478657,6.258131 1.50478657,5.50647582 C1.50478657,4.75482065 2.11430381,4.1459241 2.86595899,4.1459241 C3.61761416,4.1459241 4.2271314,4.75482065 4.2271314,5.50647582" id="Fill-727" fill="#14101A"></path>
                                </g>
                            </g>
                            <path d="M42.2784084,103.729226 L39.9674084,101.535226 L40.1614084,102.684226 L39.5194084,103.361226 L38.5114084,102.618226 L39.5744084,105.449226 C39.5744084,105.449226 33.7834084,104.775226 32.3784084,107.836226 C30.9734084,110.896226 31.1584084,113.751226 31.1584084,113.751226 C31.1584084,113.751226 33.9404084,110.819226 34.8874084,111.289226 C35.8344084,111.760226 35.8344084,111.760226 35.8344084,111.760226 C35.8344084,111.760226 37.9974084,108.240226 40.8154084,108.771226 C43.6334084,109.303226 43.9664084,109.404226 43.9664084,109.404226 C43.9664084,109.404226 44.3954084,104.774226 46.0174084,103.742226 C47.6404084,102.710226 49.0664084,102.563226 49.0664084,102.563226 C49.0664084,102.563226 48.6374084,100.869226 49.9274084,99.7362257 C51.2174084,98.6032257 52.7534084,98.4532257 52.7534084,98.4532257 C52.7534084,98.4532257 47.9564084,95.8282257 45.9674084,97.5852257 C43.9784084,99.3412257 42.2784084,103.729226 42.2784084,103.729226" id="Fill-753" fill="#14101A"></path>
                            <path d="M174.240408,38.7922257 L173.602408,34.1582257 L174.806408,35.3742257 L176.162408,35.1882257 L176.139408,33.3482257 L178.605408,37.0402257 C178.605408,37.0402257 182.759408,29.5592257 187.610408,30.5052257 C192.461408,31.4502257 195.706408,34.1132257 195.706408,34.1132257 C195.706408,34.1132257 189.829408,34.9212257 189.579408,36.4522257 C189.329408,37.9842257 189.329408,37.9842257 189.329408,37.9842257 C189.329408,37.9842257 183.281408,37.5492257 181.503408,41.3632257 C179.724408,45.1782257 179.560408,45.6612257 179.560408,45.6612257 C179.560408,45.6612257 173.673408,42.2102257 171.054408,43.2612257 C168.434408,44.3122257 167.038408,45.8862257 167.038408,45.8862257 C167.038408,45.8862257 165.387408,43.9252257 162.931408,44.4932257 C160.476408,45.0602257 158.983408,46.7632257 158.983408,46.7632257 C158.983408,46.7632257 159.960408,38.7982257 163.757408,37.9312257 C167.553408,37.0632257 174.240408,38.7922257 174.240408,38.7922257" id="Fill-2858" fill="#14101A"></path>
                            <g id="Group" transform="translate(1.540376, 64.865419)" fill="#14101A">
                                <g id="Halloween/Features/Bat" transform="translate(18.350000, 8.167341) rotate(-16.000000) translate(-18.350000, -8.167341) ">
                                    <path d="M21.4047977,8.34533672 L22.0390925,3.72495522 L20.8383873,4.93796447 L19.4868514,4.7519188 L19.5103988,2.9179795 L17.051711,6.59858643 C17.051711,6.59858643 12.910763,-0.859999115 8.07187861,0.0823211167 C3.23511561,1.02464135 0,3.67976967 0,3.67976967 C0,3.67976967 5.85927168,4.4856847 6.10959538,6.01244713 C6.35779769,7.53942169 6.35779769,7.53942169 6.35779769,7.53942169 C6.35779769,7.53942169 12.3886896,7.105598 14.1623815,10.9090333 C15.9358613,14.7122564 16.0992081,15.1938113 16.0992081,15.1938113 C16.0992081,15.1938113 21.9690867,11.752709 24.5805145,12.8008864 C27.1919422,13.8486396 28.5835723,15.4180419 28.5835723,15.4180419 C28.5835723,15.4180419 30.2297688,13.4627593 32.6778497,14.0291697 C35.1259306,14.5953679 36.6151445,16.2926899 36.6151445,16.2926899 C36.6151445,16.2926899 35.6414277,8.35085233 31.8568728,7.48596274 C28.0701965,6.62128528 21.4047977,8.34533672 21.4047977,8.34533672" id="Fill-1322"></path>
                                </g>
                            </g>
                        </g>
                        <g id="Book" transform="translate(16.242408, 153.279226)">
                            <path d="M192.389,0 L198.074,11.195 L103.436,40.676 C103.436,40.676 108.074,30.019 113.228,25.626 C118.382,21.232 131.391,20.364 136.333,19.454 C141.274,18.545 185.893,8.033 192.389,0" id="Fill-2822" fill="#14101A"></path>
                            <path d="M9.191,26.112 L15.839,16.676 L29.428,19.184 C29.428,19.184 22.166,13.273 21.115,10.653 L27.896,9.721 C27.896,9.721 32.621,16.442 39.043,16.249 C45.465,16.057 76.815,12.898 87.938,20.927 C99.061,28.955 103.436,40.676 103.436,40.676 C103.436,40.676 113.391,28.482 121.657,27.461 C129.923,26.439 176.033,17.565 184.837,15.433 C193.642,13.301 206.333,8.447 206.333,8.447 L223.428,49.857 C223.428,49.857 220.433,54.875 222.416,55.063 C224.399,55.251 225.729,54.032 225.729,54.032 C225.729,54.032 233.331,84.194 235.59,87.224 C237.849,90.253 243.975,100.465 243.975,100.465 L232.879,111.895 L227.042,111.316 L9.191,26.112" id="Fill-2823" fill="#F9F8E4"></path>
                            <polyline id="Fill-2824" fill="#EEA64F" points="214.151 126.446 233.228 123.363 227.923 109.352 223.189 109.542 210.195 120.005 214.151 126.446"></polyline>
                            <path d="M67.452,139.939 L50.593,139.609 L46.058,127.565 L54.893,125.659 C54.893,125.659 68.352,131.409 67.452,139.939" id="Fill-2825" fill="#F0A64E"></path>
                            <path d="M230.815,107.496 L235.924,117.848 C235.924,117.848 236.276,122.637 233.228,123.363 L227.892,109.126 L230.815,107.496" id="Fill-2826" fill="#E0572A"></path>
                            <polyline id="Fill-2827" fill="#171020" points="205.521 40.228 230.815 107.496 224.835 113.692 198.719 39.896 205.521 40.228"></polyline>
                            <path d="M202.293,43.55 L194.867,47.335 L181.507,38.117 L179.6,32.621 L196.651,30.162 C196.651,30.162 202.917,41.392 202.293,43.55" id="Fill-2828" fill="#F0A54B"></path>
                            <path d="M9.355,44.054 L6.35,44.813 L0,31.291 L17.131,31.93 C17.131,31.93 21.67,43.167 9.355,44.054" id="Fill-2829" fill="#EBA549"></path>
                            <polyline id="Fill-2830" fill="#FFFFFE" points="6.35 44.813 46.058 127.565 53.409 125.748 12.488 43.393 6.35 44.813"></polyline>
                            <path d="M16.899,26.895 C16.899,26.895 54.117,24.541 67.693,29.468 C81.268,34.396 89.547,40.167 92.652,51.026 C92.652,51.026 107.69,44.813 114.128,53.946 C114.128,53.946 140.729,36.354 182.459,29.119 L179.6,32.621 L113.362,58.427 L90.289,55.612 C90.289,55.612 62.337,32.393 45.973,33.146 C29.608,33.899 17.131,31.93 17.131,31.93 L16.899,26.895" id="Fill-2831" fill="#171020"></path>
                            <path d="M9.355,44.054 L51.128,126.753 L53.389,126.442 C53.389,126.442 52.925,134.797 66.502,136.384 L67.452,139.939 C67.452,139.939 102.782,140.609 111.875,148.11 C120.968,155.612 134.665,158.911 134.665,158.911 C134.665,158.911 171.181,130.513 214.151,126.446 L213.397,122.635 C213.397,122.635 230.396,123.983 227.658,110.77 L227.923,109.352 L202.293,43.55 L197.67,45.108 C197.67,45.108 196.443,32.839 181.609,37.182 L179.6,32.621 C179.6,32.621 127.483,45.546 113.125,57.539 L90.001,55.191 C90.001,55.191 84.882,22.153 17.131,31.93 L17.247,34.447 C17.247,34.447 4.777,30.864 9.355,44.054" id="Fill-2832" fill="#735292"></path>
                            <path d="M200.319,84.473 L201.394,84.325 C199.36,69.552 186.721,58.847 172.212,58.847 C170.874,58.847 169.52,58.938 168.159,59.126 C153.385,61.159 142.681,73.798 142.68,88.307 C142.68,89.645 142.771,90.999 142.959,92.36 C144.993,107.134 157.631,117.838 172.14,117.838 C173.478,117.838 174.832,117.747 176.194,117.56 C190.968,115.527 201.672,102.888 201.672,88.378 C201.672,87.04 201.581,85.687 201.394,84.325 L200.319,84.473 L199.244,84.621 C199.418,85.884 199.502,87.139 199.502,88.378 C199.502,101.812 189.585,113.531 175.898,115.41 C174.634,115.584 173.38,115.668 172.14,115.668 C158.707,115.668 146.988,105.751 145.108,92.065 C144.935,90.801 144.85,89.547 144.85,88.307 C144.85,74.874 154.768,63.155 168.454,61.275 C169.718,61.101 170.973,61.017 172.212,61.017 C185.645,61.017 197.364,70.934 199.244,84.621 L200.319,84.473" id="Fill-2833" fill="#2C1E49"></path>
                            <path d="M24.344,40.841 L24.443,41.117 C24.443,41.117 24.599,41.062 24.904,40.962 C27.039,40.263 36.361,37.453 48.034,37.454 C61.266,37.456 77.49,41.054 89.778,55.381 L90.001,55.191 L89.716,55.262 L110.418,137.979 L110.702,137.907 L110.779,137.625 C110.777,137.624 103.041,135.515 93.81,133.406 C84.575,131.298 73.863,129.186 67.835,129.184 C66.102,129.187 64.756,129.35 63.886,129.786 L64.019,130.047 L64.312,130.042 C64.311,130.004 64.272,128.05 62.665,125.587 C61.059,123.123 57.887,120.167 51.684,118.119 L51.592,118.397 L51.858,118.273 L20.81,51.604 L20.544,51.728 L20.763,51.923 C20.77,51.914 21.804,50.757 22.842,49.038 C23.877,47.318 24.927,45.039 24.93,42.753 C24.93,42.08 24.837,41.406 24.623,40.75 L24.344,40.841 L24.443,41.117 L24.344,40.841 L24.066,40.933 C24.259,41.523 24.344,42.133 24.344,42.753 C24.347,44.856 23.35,47.064 22.34,48.735 C21.835,49.57 21.33,50.272 20.951,50.764 C20.762,51.01 20.605,51.203 20.495,51.335 C20.385,51.466 20.325,51.533 20.325,51.533 C20.247,51.62 20.229,51.746 20.278,51.852 L51.326,118.521 L51.5,118.675 C57.602,120.693 60.643,123.562 62.174,125.907 C62.939,127.08 63.327,128.125 63.524,128.873 C63.622,129.247 63.673,129.546 63.699,129.75 C63.711,129.852 63.718,129.93 63.722,129.981 L63.725,130.052 C63.727,130.153 63.781,130.246 63.867,130.298 C63.954,130.35 64.061,130.354 64.151,130.308 C64.847,129.95 66.145,129.767 67.835,129.77 C73.745,129.768 84.466,131.871 93.68,133.978 C98.289,135.031 102.526,136.084 105.61,136.874 C107.152,137.269 108.406,137.598 109.275,137.828 C110.143,138.059 110.624,138.19 110.625,138.19 C110.725,138.217 110.833,138.189 110.907,138.117 C110.981,138.044 111.012,137.937 110.987,137.836 L90.285,55.119 L90.223,55 C77.793,40.504 61.363,36.866 48.034,36.8679992 C34.586,36.8679992 24.265,40.559 24.246,40.565 C24.096,40.619 24.016,40.781 24.066,40.933 L24.344,40.841" id="Fill-2834" fill="#2C1E49"></path>
                            <polyline id="Fill-2835" fill="#2C1E49" points="117.186 77.018 113.125 57.539 90.001 55.191 114.134 160.352 134.665 158.911 117.186 77.018"></polyline>
                            <path d="M120.341,54.379 L141.118,153.553 C141.151,153.712 141.306,153.813 141.465,153.78 C141.623,153.747 141.725,153.592 141.692,153.433 L120.915,54.259 C120.882,54.1 120.726,53.999 120.568,54.032 C120.409,54.065 120.308,54.221 120.341,54.379" id="Fill-2836" fill="#2C1E49"></path>
                            <path d="M113.293,68.532 L113.006,68.593 L129.922,149.181 L130.209,149.121 L129.997,148.919 C129.994,148.922 129.124,149.831 128.248,150.921 C127.81,151.466 127.37,152.056 127.035,152.608 C126.702,153.165 126.458,153.664 126.451,154.128 C126.451,154.24 126.467,154.353 126.511,154.462 L126.534,154.452 L126.51,154.452 L126.511,154.461 L126.534,154.452 L126.51,154.452 L126.551,154.452 L126.512,154.435 L126.51,154.452 L126.551,154.452 L126.512,154.435 L126.45,154.497 C126.265,154.649 125.688,154.839 124.983,154.973 C123.919,155.182 122.53,155.322 121.413,155.408 C120.295,155.494 119.451,155.526 119.449,155.527 L119.46,155.819 L119.729,155.701 C119.726,155.695 119.277,154.675 118.665,153.628 C118.358,153.103 118.012,152.572 117.65,152.151 C117.284,151.735 116.92,151.4 116.459,151.339 C115.954,151.281 115.564,150.982 115.131,150.272 C114.706,149.566 114.287,148.483 113.781,147.023 C113.727,146.868 113.604,146.4 113.437,145.698 C112.171,140.409 108.138,121.387 104.423,103.696 C102.566,94.849 100.788,86.334 99.474,80.031 C98.817,76.879 98.276,74.28 97.899,72.469 C97.523,70.658 97.311,69.638 97.31,69.635 L97.023,69.695 L97.27,69.854 C97.274,69.847 97.779,69.063 98.286,67.989 C98.792,66.912 99.309,65.553 99.312,64.344 C99.312,64.178 99.302,64.016 99.281,63.857 L99.276,63.787 C99.273,63.589 99.404,63.344 99.715,63.084 C100.175,62.697 100.987,62.33 101.938,62.075 C102.889,61.818 103.982,61.666 105.016,61.666 C105.968,61.665 106.871,61.797 107.564,62.079 C108.261,62.364 108.728,62.778 108.911,63.351 C109.454,65.047 109.885,66.239 110.514,67.115 C111.144,67.993 111.99,68.515 113.222,68.817 L113.293,68.532 L113.006,68.593 L113.293,68.532 L113.364,68.248 C112.211,67.957 111.546,67.534 110.99,66.772 C110.434,66.006 110.006,64.86 109.47,63.173 C109.219,62.386 108.577,61.855 107.785,61.536 C106.988,61.213 106.021,61.08 105.016,61.079 C103.56,61.08 102.027,61.361 100.832,61.817 C100.234,62.045 99.721,62.316 99.339,62.634 C98.961,62.95 98.692,63.333 98.689,63.787 L98.7,63.937 C98.717,64.066 98.726,64.202 98.726,64.344 C98.73,65.385 98.248,66.702 97.756,67.738 C97.511,68.257 97.265,68.709 97.081,69.029 C96.897,69.35 96.777,69.536 96.777,69.536 L96.736,69.755 C96.736,69.755 100.602,88.378 104.596,107.368 C106.592,116.863 108.621,126.45 110.214,133.846 C111.01,137.545 111.698,140.696 112.218,143.015 C112.478,144.174 112.697,145.126 112.867,145.834 C113.037,146.546 113.155,147.003 113.227,147.215 C113.738,148.685 114.158,149.79 114.629,150.574 C115.091,151.352 115.654,151.844 116.396,151.921 C116.559,151.927 116.886,152.151 117.205,152.533 C117.692,153.099 118.197,153.957 118.57,154.666 C118.758,155.022 118.914,155.341 119.023,155.57 C119.131,155.8 119.192,155.937 119.192,155.938 C119.241,156.048 119.352,156.117 119.472,156.112255 C119.476,156.112255 121.315,156.041 123.164,155.833 C124.09,155.728 125.016,155.591 125.729,155.406 C126.087,155.312 126.391,155.209 126.629,155.077 C126.749,155.011 126.854,154.937 126.941,154.838 C127.027,154.742 127.097,154.605 127.096,154.452 L127.055,154.243 L127.037,154.128 C127.029,153.898 127.219,153.425 127.536,152.913 C128.007,152.137 128.731,151.233 129.335,150.531 C129.637,150.179 129.909,149.877 130.105,149.662 C130.301,149.448 130.42,149.324 130.421,149.324 C130.488,149.254 130.516,149.156 130.496,149.061 L113.58,68.472 C113.557,68.362 113.473,68.275 113.364,68.248 L113.293,68.532" id="Fill-2837" fill="#FFFFFE"></path>
                            <path d="M161.062868,47.4788926 L161.156407,47.5815896 L176.585,66.418 L199.509748,57.3615624 L199.6437,57.3178538 C200.143725,57.1844696 200.675076,57.3514252 201.009573,57.7503773 C201.349118,58.1553494 201.416167,58.7130037 201.192309,59.1814661 L201.124031,59.3068355 L188.112,80.493 L207.103275,103.680429 C207.367355,104.002304 207.461583,104.424312 207.368941,104.826928 L207.325407,104.976766 L207.271083,105.108909 L207.195519,105.244839 C206.908188,105.69344 206.384099,105.925846 205.866685,105.845695 L205.737611,105.81909 L177.093,98.437 L159.724143,126.724653 C159.46206,127.152208 158.982337,127.392412 158.480222,127.355034 L158.342873,127.337891 L158.211902,127.306971 C157.679355,127.151409 157.302657,126.68193 157.256579,126.137568 L157.252049,126.000056 L157.895,93.491 L131.716611,86.7460901 C131.30364,86.6396635 130.972186,86.3433573 130.812967,85.9515642 L130.766398,85.8175594 L130.733334,85.6772584 L130.716479,85.5364618 C130.683534,85.0048075 130.972013,84.5069932 131.438787,84.2669974 L131.559112,84.2124993 L158.288,73.648 L158.789049,48.4010559 C158.797141,47.9919471 158.990526,47.6165532 159.304279,47.373011 L159.427453,47.2880549 L159.560226,47.2173957 L159.687147,47.1657796 C160.127735,47.0131106 160.607298,47.1027648 160.960773,47.3876254 L161.062868,47.4788926 Z M160.551,94.175 L160.018,121.143 L174.388,97.74 L160.551,94.175 Z M186.633,82.902 L178.555,96.057 L202.451,102.214 L186.633,82.902 Z M175.752,69.617 L160.922,75.478 L160.605,91.431 L175.85,95.359 L184.842,80.715 L175.752,69.617 Z M158.231,76.541 L136.359,85.185 L157.949,90.747 L158.231,76.541 Z M196.752,61.319 L178.36,68.587 L186.321,78.307 L196.752,61.319 Z M161.386,52.075 L160.978,72.585 L173.976,67.449 L161.386,52.075 Z" id="Star" fill="#2C1E49" fill-rule="nonzero"></path>
                            <polyline id="Fill-2839" fill="#E15F29" points="205.521 40.228 202.293 43.55 197.531 31.538 200.491 27.1 205.521 40.228"></polyline>
                            <polyline id="Fill-2840" fill="#E0572A" points="179.6 32.621 197.531 31.538 200.491 27.1 182.459 29.119 179.6 32.621"></polyline>
                            <polyline id="Fill-2841" fill="#E0572A" points="17.131 31.93 16.899 26.895 1.623 26.346 0 31.291 17.131 31.93"></polyline>
                            <path d="M138.723,135.667 C138.723,135.667 128.555,146.585 104.988,140.459 L103.048,133.048 C103.048,133.048 128.165,134.815 136.414,128.921 L138.723,135.667" id="Fill-2842" fill="#EEA950"></path>
                            <path d="M126.766,83.877 L124.695,76.638 L90.499,79.191 L92.734,87.635 C92.734,87.635 118.594,91.45 126.766,83.877" id="Fill-2843" fill="#EEA950"></path>
                            <path d="M124.695,76.638 L121.24,74.964 C121.24,74.964 118.5,80.714 91.544,76.744 L90.499,79.191 C90.499,79.191 119.278,84.139 124.695,76.638" id="Fill-2844" fill="#E05929"></path>
                            <path d="M136.414,128.921 L131.384,128.077 C131.384,128.077 128.026,132.685 119.832,132.276 C111.638,131.867 105.34,130.737 105.34,130.737 L103.048,133.048 C103.048,133.048 127.773,139.782 136.414,128.921" id="Fill-2845" fill="#E05929"></path>
                            <path d="M206.009,20.761 L233.047,95.121 C233.103,95.273 233.271,95.351 233.423,95.296 C233.575,95.241 233.654,95.073 233.598,94.92 L206.56,20.561 C206.505,20.408 206.337,20.33 206.184,20.385 C206.032,20.441 205.954,20.609 206.009,20.761" id="Fill-2846" fill="#2C1E49"></path>
                            <path d="M217.226,67.137 L233.414,106.138 C233.476,106.288 233.647,106.359 233.797,106.297 C233.946,106.235 234.017,106.063 233.955,105.914 L217.767,66.913 C217.705,66.763 217.534,66.692 217.384,66.754 C217.235,66.816 217.164,66.988 217.226,67.137" id="Fill-2847" fill="#2C1E49"></path>
                            <path d="M206.079,8.301 L195.217,27.299 C195.136,27.44 195.185,27.619 195.326,27.699 C195.466,27.78 195.645,27.731 195.726,27.59 L206.587,8.592 C206.668,8.452 206.619,8.273 206.478,8.192 C206.338,8.112 206.159,8.161 206.079,8.301" id="Fill-2848" fill="#2C1E49"></path>
                            <path d="M188.426,23.282 C188.426,23.282 177.861,25.598 167.064,28.12 C161.665,29.38 156.208,30.692 151.982,31.792 C149.869,32.342 148.064,32.839 146.725,33.251 C146.055,33.457 145.501,33.642 145.08,33.804 C144.655,33.97 144.378,34.091 144.191,34.25 C144.07,34.357 144.058,34.542 144.166,34.664 C144.273,34.785 144.458,34.796 144.58,34.689 C144.623,34.643 144.893,34.5 145.29,34.351 C146.799,33.771 150.281,32.815 154.624,31.721 C161.143,30.078 169.626,28.111 176.478,26.555 C179.904,25.777 182.923,25.102 185.085,24.621 C187.247,24.14 188.549,23.855 188.552,23.854 C188.71,23.82 188.81,23.663 188.776,23.505 C188.741,23.347 188.585,23.247 188.427,23.282" id="Fill-2849" fill="#2C1E49"></path>
                            <path d="M173.969,20.435 C173.965,20.436 172.223,20.92 169.48,21.667 C161.255,23.91 144.041,28.523 138.166,29.501 C134.222,30.159 128.134,31.225 122.732,33.243 C120.031,34.252 117.499,35.499 115.487,37.064 C113.478,38.628 111.982,40.52 111.401,42.809 C111.361,42.966 111.456,43.125 111.613,43.165 C111.77,43.205 111.929,43.11 111.969,42.953 C112.509,40.827 113.904,39.04 115.847,37.527 C121.675,32.979 132.361,31.058 138.263,30.079 C146.184,28.757 174.118,21.001 174.126,21 C174.282,20.957 174.374,20.795 174.33,20.639 C174.287,20.483 174.125,20.392 173.97,20.435" id="Fill-2850" fill="#2C1E49"></path>
                            <path d="M95.404,36.463 C95.396,36.452 92.355,32.094 87.467,27.728 C82.579,23.365 75.838,18.974 68.395,18.969 C67.921,18.969 67.444,18.987 66.965,19.024 C63.401,19.299 59.417,19.404 55.407,19.404 C48.85,19.404 42.223,19.122 37.237,18.84 C34.744,18.699 32.661,18.558 31.201,18.452 C29.742,18.346 28.909,18.276 28.907,18.275 C28.746,18.262 28.604,18.382 28.59,18.543 C28.577,18.704 28.696,18.846 28.858,18.86 C28.862,18.86 42.26,19.991 55.407,19.991 C59.427,19.991 63.424,19.885 67.01,19.608 C67.474,19.572 67.936,19.555 68.395,19.555 C75.598,19.55 82.242,23.843 87.077,28.165 C89.494,30.324 91.458,32.485 92.816,34.105 C93.496,34.915 94.023,35.59 94.381,36.062 C94.738,36.533 94.923,36.798 94.924,36.799 C95.016,36.932 95.199,36.964 95.332,36.871 C95.465,36.779 95.497,36.596 95.405,36.463" id="Fill-2851" fill="#2C1E49"></path>
                            <path d="M86.982,33.916 C86.948,33.868 77.488,22.373 52.827,22.376999 C47.808,22.376999 42.16,22.852 35.835,23.995 C35.675,24.024 35.569,24.177 35.598,24.336 C35.627,24.495 35.78,24.601 35.939,24.572 C42.232,23.435 47.845,22.963 52.827,22.963 C65.064,22.963 73.495,25.809 78.866,28.645 C81.552,30.064 83.472,31.48 84.719,32.539 C85.342,33.069 85.797,33.509 86.095,33.815 C86.244,33.968 86.353,34.088 86.425,34.169 L86.529,34.288 C86.631,34.413 86.816,34.432 86.941,34.329 C87.066,34.226 87.085,34.042 86.982,33.916" id="Fill-2852" fill="#2C1E49"></path>
                            <g id="Halloween/Features/Crane-2" transform="translate(163.550364, 75.871616)" fill="#FFFDED">
                                <path d="M0.85963595,4.28738396 C2.88563595,-0.520616038 13.670636,-1.92661604 15.482636,3.42838396 C17.293636,8.78438396 13.452636,11.001384 13.452636,11.001384 C13.452636,11.001384 13.986636,13.768384 12.881636,15.225384 C11.776636,16.682384 10.783636,13.364384 10.783636,13.364384 C10.587636,15.848384 10.080636,16.071384 8.95063595,16.226384 C8.23915447,16.3246062 7.87494871,15.1879381 7.70276357,14.3324883 L7.695,14.296 L7.69829596,14.3406467 C7.72932897,15.0228217 7.60905442,15.8934411 6.8788157,16.2422672 L6.73463595,16.301384 C5.44633292,16.7478082 5.33960014,13.7120754 5.33265376,12.9695812 L5.33263595,12.808384 L5.33263595,12.808384 L5.2070071,12.8089297 C5.1955863,12.8089793 5.18312724,12.8090334 5.16953554,12.8090925 L5.01408045,12.8097678 C4.99284342,12.80986 4.97019059,12.8099584 4.94602756,12.8100634 L4.78217205,12.8107752 C4.44577745,12.8122365 3.90380836,12.8145909 3.03063595,12.818384 C0.72863595,12.827384 -1.16636405,9.09538396 0.85963595,4.28738396 Z M8.62763595,9.13138396 C8.19063595,9.19138396 7.88463595,9.59438396 7.94563595,10.031384 C8.00563595,10.468384 8.40863595,10.773384 8.84563595,10.713384 C9.28163595,10.653384 9.58763595,10.250384 9.52763595,9.81338396 C9.46763595,9.37638396 9.06463595,9.07138396 8.62763595,9.13138396 Z M5.32863595,6.36038396 C4.55863595,6.46638396 4.02063595,7.17638396 4.12663595,7.94638396 C4.23263595,8.71638396 4.94263595,9.25438396 5.71263595,9.14838396 C6.48263595,9.04238396 7.02063595,8.33238396 6.91463595,7.56238396 C6.80863595,6.79238396 6.09863595,6.25438396 5.32863595,6.36038396 Z M10.099636,5.32038396 C9.32963595,5.42638396 8.79163595,6.13638396 8.89763595,6.90638396 C9.00263595,7.67638396 9.71263595,8.21438396 10.482636,8.10838396 C11.252636,8.00238396 11.790636,7.29238396 11.684636,6.52238396 C11.578636,5.75338396 10.869636,5.21438396 10.099636,5.32038396 Z" id="Combined-Shape"></path>
                            </g>
                        </g>
                    </g>
                    <g id="Arm" transform="translate(99.724395, 232.289350)">
                        <path d="M40.9649508,19.5626498 C40.9649508,19.5626498 14.1739508,-1.53035022 8.7389508,0.0886497757 C3.3039508,1.70764978 27.3619508,26.9826498 27.3619508,26.9826498 C27.3619508,26.9826498 4.8919508,13.8856498 1.1929508,13.4566498 C-2.5050492,13.0286498 3.1239508,22.6766498 8.1299508,24.7556498 C13.1369508,26.8346498 27.2679508,47.2116498 37.4519508,49.8906498 C47.6369508,52.5696498 67.7799508,53.4036498 67.7799508,53.4036498 L70.9189508,32.7776498 L66.7369508,30.0446498 L59.4579508,21.7056498 L40.9649508,19.5626498" id="Fill-2859" fill="#F8D3CE"></path>
                        <path d="M20.0979508,36.2826498 C20.0979508,36.2826498 8.8039508,27.4096498 3.9629508,30.6366498 C-0.876049197,33.8626498 37.4519508,49.8906498 37.4519508,49.8906498 L20.0979508,36.2826498" id="Fill-2860" fill="#F8D3CE"></path>
                        <path d="M39.9959508,19.3426498 C39.9959508,19.3426498 29.7779508,4.55264978 33.0049508,1.86364978 C36.2319508,-0.825350224 46.9879508,13.6956498 51.2899508,15.3086498 C55.5919508,16.9216498 63.6599508,26.6026498 63.6599508,26.6026498 C63.6599508,26.6026498 42.4169508,26.6026498 39.9959508,19.3426498" id="Fill-2861" fill="#F8D3CE"></path>
                        <path d="M23.8619508,43.0056498 C23.8619508,43.0056498 16.3329508,40.0476498 12.8369508,41.6616498 C9.3409508,43.2746498 18.2149508,46.7696498 23.5929508,48.1146498 C28.9709508,49.4586498 45.1059508,50.8036498 45.1059508,50.8036498 L23.8619508,43.0056498" id="Fill-2862" fill="#F8D3CE"></path>
                        <path d="M219.352951,24.1826498 C219.352951,24.1826498 202.758951,2.79764978 192.731951,12.8886498 C182.703951,22.9796498 126.143951,69.7656498 126.143951,69.7656498 L71.6019508,25.8956498 C71.6019508,25.8956498 50.7389508,43.5176498 48.0399508,52.8136498 C45.3409508,62.1106498 113.670951,125.66865 133.801951,120.83765 C153.932951,116.00665 247.456951,39.1416498 219.352951,24.1826498" id="Fill-2863" fill="#F9F8E4"></path>
                    </g>
                    <path d="M348.419346,92.599 C348.419346,92.599 359.694346,109.663 376.759346,102.045 C376.759346,102.045 354.422393,143.267233 329.515766,169.356918 C330.933346,169.141 397.449346,159.463 408.309346,182.018 C419.289346,204.824 398.176346,396.519 396.483346,456.483 C394.802346,516.435 438.709346,721.649 438.709346,721.649 C433.609346,717.179 425.006346,716.81 416.283346,718.09 C403.058346,720.00636 389.548109,725.696818 387.471111,726.595026 L387.351985,726.646723 C387.249309,726.691449 387.196346,726.715 387.196346,726.715 C377.909346,717.428 337.377346,727.561 337.377346,727.561 C334.939906,717.02116 315.385589,716.599566 313.825144,716.582703 L313.726346,716.582 L313.726346,716.582 C323.846592,701.786564 300.95328,434.42166 296.662575,345.736084 L296.660771,345.747718 C295.949482,341.663414 295.695297,335.6192 295.993346,327.274 C295.995011,327.22738 295.996666,327.180774 295.998312,327.134184 L295.998346,327.279 C295.945668,323.754443 296.016703,320.106173 296.211452,316.354613 C296.560053,234.548412 266.67295,202.061274 263.560446,198.900685 L263.394701,198.73465 C263.331811,198.672645 263.299346,198.642 263.299346,198.642 L263.299346,198.642 L348.419346,92.599 Z" id="Combined-Shape" fill="#382454"></path>
                    <path d="M438.709346,721.649 C433.609346,717.179 425.006346,716.81 416.283346,718.09 C409.480346,682.071 378.658346,515.545 377.909346,453.944 C377.063346,384.704 394.802346,225.09 392.263346,197.229 C390.646346,179.361 357.437346,176.42 333.808346,176.605 C331.432346,176.626 329.142346,176.67 327.005346,176.746 C325.096346,176.8 323.294346,176.887 321.635346,176.974 C315.342346,177.299 311.067346,177.723 310.427346,177.787 L310.352346,177.798 L366.931346,106.02 L372.029346,110.349 C364.186346,123.737 347.520346,150.501 329.511346,169.357 C330.933346,169.141 397.449346,159.463 408.309346,182.018 C419.289346,204.824 398.176346,396.519 396.483346,456.483 C394.802346,516.435 438.709346,721.649 438.709346,721.649" id="Fill-2867" fill="#211637"></path>
                    <g id="Crane" transform="translate(249.997476, 186.386492)">
                        <path d="M0.472869928,10.3495079 C0.472869928,10.3495079 -0.392130072,6.4085079 2.20386993,5.3515079 C2.20386993,5.3515079 0.857869928,1.9865079 5.27986993,0.448507903 C9.70186993,-1.0894921 15.5648699,1.6985079 15.5648699,3.2365079 C15.5648699,4.7745079 15.5648699,5.1585079 15.5648699,5.1585079 C15.5648699,5.1585079 18.0648699,6.9855079 17.0078699,9.9655079 C17.0078699,9.9655079 19.2188699,14.0035079 16.6228699,14.9635079 C14.0268699,15.9255079 14.0268699,15.9255079 14.0268699,15.9255079 L14.6048699,19.0975079 L12.2008699,19.4825079 L11.5278699,16.6945079 L11.3358699,20.7325079 L9.12486993,21.1165079 L9.12486993,17.9445079 L7.87586993,20.6355079 L5.95286993,20.5395079 L6.04886993,16.6945079 L4.99086993,19.7705079 L2.97286993,18.6175079 L3.54886993,15.5415079 C3.54886993,15.5415079 -1.54513007,15.1565079 0.472869928,10.3495079" id="Fill-2868" fill="#F6BD63"></path>
                        <path d="M8.38786993,13.2015079 C8.38786993,13.2015079 8.38786993,11.2145079 8.83586993,11.2795079 C9.28486993,11.3435079 9.22086993,12.8815079 9.22086993,12.8815079 C9.22086993,12.8815079 10.4388699,13.3305079 9.98986993,13.9705079 C9.54186993,14.6115079 8.64486993,13.9065079 8.64486993,13.9065079 C8.64486993,13.9065079 7.16986993,14.2915079 8.38786993,13.2015079" id="Fill-2869" fill="#1A1523"></path>
                        <path d="M6.46486993,10.1255079 C6.46486993,11.5765079 5.64786993,12.7535079 4.63886993,12.7535079 C3.62986993,12.7535079 2.81286993,11.5765079 2.81286993,10.1255079 C2.81286993,8.6745079 3.62986993,7.4985079 4.63886993,7.4985079 C5.64786993,7.4985079 6.46486993,8.6745079 6.46486993,10.1255079" id="Fill-2870" fill="#1A1523"></path>
                        <path d="M14.4758699,10.2545079 C14.4758699,11.4925079 13.7158699,12.4965079 12.7778699,12.4965079 C11.8398699,12.4965079 11.0798699,11.4925079 11.0798699,10.2545079 C11.0798699,9.0155079 11.8398699,8.0105079 12.7778699,8.0105079 C13.7158699,8.0105079 14.4758699,9.0155079 14.4758699,10.2545079" id="Fill-2871" fill="#1A1523"></path>
                    </g>
                </g>
            </g>
        </g>
    </g>
</svg>