<?xml version="1.0" encoding="UTF-8"?>
<svg width="238px" height="318px" viewBox="0 0 238 318" version="1.1" xmlns="http://www.w3.org/2000/svg" xmlns:xlink="http://www.w3.org/1999/xlink">
    <title>decoration-11</title>
    <g id="decoration-11" stroke="none" stroke-width="1" fill="none" fill-rule="evenodd">
        <g id="Group" transform="translate(0.770000, 0.039000)">
            <g id="Halloween/Stuffs/Crane-1" transform="translate(118.000000, 168.000000) scale(-1, 1) translate(-118.000000, -168.000000) ">
                <path d="M124.272565,1.62435043 C115.047989,2.65707091 107.810954,9.97781944 106.84171,19.1820135 L105.942868,29.4856068 L105.808281,29.7715974 L105.640203,30.1045587 L105.439445,30.4816833 L105.206819,30.9001638 L104.943139,31.3571927 L104.649215,31.8499625 L104.155257,32.6449081 L103.133515,34.2132963 L99.7429054,39.371843 C98.7195175,40.9693077 97.8200107,42.4476393 96.9782072,43.9368468 C95.2977693,46.9217218 93.9651038,49.7863178 92.9236495,52.8288523 C91.5835543,56.7811611 90.85,60.7661857 90.85,64.8899919 C90.85,65.8185815 90.8917814,66.7533465 90.9695567,67.7286477 L91.0348783,68.412932 C91.1536612,69.548344 91.3220646,70.6585102 91.5408789,71.7443828 L91.611,72.075 L91.5959946,72.0884747 C88.2130256,74.967982 86.3250956,79.2132478 86.8023473,83.7699181 L86.821,83.929 L86.6903288,85.1029791 L86.5910912,86.0539398 L86.5258946,86.7117223 C85.9624514,92.5344151 85.7066886,98.4109659 85.9440996,103.962169 L85.9752244,104.634518 C86.3756162,112.661526 87.7519171,119.207781 90.9380037,124.424435 L90.989,124.506 L90.9576325,124.722349 C90.7024079,126.417965 90.4042837,127.888336 90.0689691,129.094849 L89.9410145,129.536181 L89.8167776,129.929471 L89.751,130.12 L89.310531,130.321287 L88.8198758,130.535468 L88.2724746,130.766267 L87.6695658,131.012677 L87.0123875,131.273693 L86.302178,131.54831 L85.5401755,131.835523 L84.3871277,132.25753 L83.6836474,132.509078 L82.1708343,133.038448 L80.0346268,133.766301 L70.3586275,136.963499 L67.4410195,137.938706 L65.3491128,138.650946 L63.9785637,139.124873 L61.9876186,139.825307 L60.0729652,140.514765 L58.838046,140.969176 L57.6357324,141.420017 L56.4655035,141.86781 L55.3268386,142.313078 C55.1396625,142.387108 54.9537799,142.461055 54.7691799,142.534929 L53.6768846,142.977392 L52.6148513,143.418638 C52.4403387,143.492107 52.2670653,143.565547 52.0950202,143.638968 L51.0774037,144.079371 C50.7430538,144.226158 50.4135305,144.37296 50.0887472,144.519865 L49.1285302,144.960974 C48.970835,145.034572 48.8143032,145.108218 48.6589237,145.181922 L47.7403893,145.624934 L46.8489924,146.069868 L45.9842121,146.517248 C44.422862,147.340007 42.9930789,148.177736 41.6804222,149.044941 L40.9759567,149.520972 C38.4348715,151.27778 36.3517898,153.163046 34.6111878,155.292834 L34.2749888,155.711936 C29.9657836,161.154487 27.2752587,167.322161 26.5980984,173.320918 L26.541,173.877 L26.0661373,174.520161 C21.7317595,180.427856 18.3530536,186.330414 16.1797739,192.261991 L15.928,192.961 L15.4579793,193.989188 C11.4037037,202.980421 8.876013,211.980812 8.36071827,220.919598 L8.25237115,222.847382 L8.14724885,224.850759 L8.05200595,226.811673 L7.9664387,228.730119 L7.89034331,230.60609 L7.82351602,232.43958 L7.76575307,234.230583 L7.71685067,235.979092 L7.67660506,237.6851 L7.64481248,239.348602 L7.62126914,240.969592 L7.60577129,242.548062 C7.60384745,242.807596 7.60225035,243.065359 7.60097574,243.32135 L7.59716405,244.836029 L7.60088841,246.308173 L7.61194506,247.737776 L7.621,248.53 L7.60479851,248.544947 C2.30728881,252.835099 -0.19171479,259.673848 1.0953357,267.508333 C1.16244687,267.923119 1.24876711,268.36387 1.3490708,268.801611 L1.45949287,269.262137 C3.22049588,276.292876 8.09623538,281.921781 15.1158062,287.382779 L15.995,288.056 L15.9223467,288.229713 C15.3622188,289.578722 14.8598512,290.917844 14.4235023,292.245497 C13.1843289,296.015855 12.5015362,299.56904 12.5894659,303.079104 C12.7332621,308.819307 14.9821448,314.115409 19.9327245,317.645514 C25.1904778,321.376936 31.4875074,323.527658 37.4542708,323.720236 L37.835638,323.729987 C38.9784192,323.75151 40.1089131,323.703339 41.2162285,323.58198 L41.545,323.543 L41.7402397,323.910891 C44.5587927,329.078188 49.4157998,332.643791 55.5691843,333.448465 L56.0005205,333.502102 C64.0543284,334.454371 72.217183,332.667812 78.1096969,328.632004 L78.255,328.53 C81.9550609,332.206777 86.9421778,334.449844 93.0055652,334.524761 C98.9228659,334.597065 104.162208,332.32776 108.274673,328.415919 C111.198078,325.63513 113.374,322.237533 115.059625,318.376068 L115.398172,317.578067 C115.618015,317.044687 115.826243,316.508668 116.02345,315.97073 L116.16,315.585 L127.785,313.458 L127.877409,313.566104 C128.608972,314.407589 129.360508,315.213501 130.133685,315.97564 C131.74705,317.565973 133.398503,318.909643 135.221067,319.989895 C138.289821,321.808776 141.659541,322.815323 145.510039,322.384463 C150.40023,321.830867 154.228076,319.18887 156.785539,315.510839 L157.081936,315.071733 C157.467447,314.483191 157.814625,313.882325 158.128284,313.26845 L158.22,313.083 L158.305199,313.079684 C166.895794,312.686112 175.945436,311.191423 185.000252,308.177875 C199.373511,303.394286 212.029382,295.290262 221.930039,283.265226 C233.875852,268.77207 237.314068,249.489796 233.998586,228.111443 L233.856209,227.218345 C231.615647,213.534168 226.598201,199.39703 220.256041,187.595302 L219.767,186.696 L219.842018,186.39105 C220.034585,185.552302 220.169887,184.681962 220.245227,183.768528 L220.262266,183.535525 C220.30177,183.029779 220.32,182.714569 220.32,182.177992 C220.32,179.059604 219.513229,176.049329 218.01563,173.221207 C217.82835,172.866748 217.624511,172.505663 217.409266,172.14792 L217.300761,171.9682 C214.93893,168.11194 211.262852,164.537456 205.926602,160.587756 C202.176724,157.820491 198.11968,155.27621 193.563538,152.760287 L192.408886,152.129456 L191.816157,151.815925 L190.582542,151.179795 L187.371932,149.562998 L176.140301,143.977381 L173.248843,142.52003 L171.06145,141.396114 L169.741201,140.697421 L169.203953,140.403541 L168.63085,140.076442 L168.410371,139.942779 C168.223968,139.826428 168.047129,139.7133 167.879806,139.603437 L167.129493,139.102783 L164.975112,137.693909 L162.58963,136.151542 L161.782449,135.619874 L161.317134,135.307158 L160.703698,134.883727 L160.319373,134.609462 L159.962916,134.347124 L159.51957,134.006155 C159.476133,133.971709 159.434583,133.938397 159.394868,133.906207 L159.085526,133.646437 L158.866625,133.445192 L158.796,133.373 L158.783731,133.165373 L158.778877,132.864537 L159.056,111.552 L159.307824,111.288842 C161.385495,109.073398 163.067448,106.268402 164.893466,102.437969 C169.203532,93.37536 167.547887,84.4283672 162.016569,77.4881148 L161.614389,76.9950413 C160.395423,75.5345782 159.065974,74.2419299 157.662595,73.0901193 L157.602,73.042 L157.690101,72.6226321 C158.100477,70.5659634 158.306707,68.4514576 158.300036,66.3208577 C158.300097,65.0354575 158.221019,63.7038843 158.064383,62.3724763 C157.992818,61.7358685 157.90534,61.0926416 157.799381,60.4213459 L157.663196,59.6009454 C157.614735,59.3220724 157.563152,59.0373356 157.508284,58.7453623 L157.333659,57.84636 L157.138337,56.8957019 L156.921331,55.8851514 L156.617284,54.53413 L156.282913,53.1138006 L156.042386,52.1246564 L155.65403,50.5719227 L155.231218,48.9296117 L154.611191,46.5873838 L154.276027,45.3458539 L153.740549,43.3892051 L153.272855,41.7168347 L152.685717,39.647044 L151.925382,37.0080062 L151.665439,36.1151218 C150.584087,32.4100227 149.437806,28.5922533 148.275576,24.8018444 L146.225229,18.1948529 L145.223003,15.0362581 L145.057881,14.5617525 C141.977193,5.98203796 133.396557,0.597901337 124.272565,1.62435043 Z" id="Sticker" fill="#FFFFFF" fill-rule="nonzero"></path>
                <g id="Crane" transform="translate(13.256222, 152.475002)">
                    <path d="M199.023778,122.844989 C174.863778,152.188989 135.213778,148.005989 135.213778,148.005989 C135.213778,148.005989 135.103778,157.006989 130.863778,157.486989 C127.753778,157.834989 123.313778,152.210989 121.153778,149.162989 C120.343778,148.053989 119.873778,147.298989 119.873778,147.298989 L92.8137776,152.248989 C92.8137776,152.248989 90.4837776,169.679989 79.9037776,169.550713 C69.3237776,169.419989 70.0237776,155.146989 70.0237776,155.146989 L61.5537776,155.043989 C61.5537776,155.043989 61.5337776,157.169989 60.9537776,161.378989 C60.3637776,165.614989 52.9237776,169.751989 43.9337776,168.578989 C34.9637776,167.405989 38.8737776,150.525989 38.8737776,150.525989 L33.5837776,149.397989 C33.5837776,149.397989 33.0237776,151.516989 31.3837776,155.737989 C29.7537776,159.934989 20.7437776,159.825989 13.9337776,154.992989 C7.1237776,150.136989 18.9937776,131.227989 18.9937776,131.227989 C18.9937776,131.227989 1.6337776,122.025989 0.173777599,113.006989 C-1.3062224,103.997989 7.1537776,104.101989 7.1537776,104.101989 C7.1537776,104.101989 6.2337776,92.4439895 7.5837776,69.1639895 C8.0737776,60.6639895 10.9037776,52.3249895 14.2837776,45.1639895 C18.4037776,36.4799895 23.3337776,29.5439895 25.9237776,26.1569895 C27.0237776,24.7079895 27.7137776,23.9059895 27.7137776,23.9059895 C37.2337776,16.2169895 47.4637776,10.7119895 57.9237776,6.93698945 C91.0537776,-5.00601055 126.873778,0.336989455 152.433778,8.98598945 C167.203778,13.9769895 178.543778,20.0719895 183.943778,24.5589895 C184.483778,24.9889895 184.973778,25.4309895 185.393778,25.8339895 C187.563778,27.9749895 189.953778,31.0489895 192.363778,34.8369895 L192.413778,34.9099895 L192.533778,35.1039895 C205.773778,56.0489895 219.413778,98.1069895 199.023778,122.844989" id="Fill-838" fill="#EFCDB4"></path>
                    <path d="M199.023778,122.844989 C174.863778,152.188989 135.213778,148.005989 135.213778,148.005989 C135.213778,148.005989 135.103778,157.006989 130.863778,157.486989 C127.753778,157.834989 123.313778,152.210989 121.153778,149.162989 L134.253778,139.511989 C134.253778,139.511989 134.973778,139.327989 136.213778,138.992989 C142.673778,137.210989 163.323778,131.058989 169.633778,123.813989 C177.153778,115.170989 179.873778,108.339989 175.513778,98.2229895 C172.023778,90.1799895 161.333778,98.4599895 149.903778,101.823989 C149.653778,101.905989 149.393778,101.975989 149.143778,102.043989 C146.443778,102.783989 143.713778,103.222989 141.043778,103.092989 C139.453778,103.001989 137.973778,102.644989 136.593778,102.011989 C133.943778,100.842989 131.653778,98.7739895 129.753778,96.1889895 C123.613778,87.9209895 121.263778,74.2999895 122.963778,67.1559895 C125.483778,56.6019895 132.953778,51.3889895 131.113778,49.5299895 C129.303778,47.6469895 112.643778,45.8599895 106.393778,37.8449895 C100.143778,29.8309895 105.493778,24.8579895 99.4937776,18.4409895 C93.4737776,12.0119895 82.6337776,33.0489895 73.6037776,35.5829895 C64.5837776,38.1319895 52.2537776,28.9799895 52.2537776,28.9799895 C52.2537776,28.9799895 40.2637776,36.5059895 33.1237776,34.5569895 C26.0237776,32.6219895 27.7937776,39.2649895 25.0837776,44.2579895 C22.3637776,49.2389895 13.1037776,49.6579895 13.1037776,49.6579895 C13.3637776,48.1739895 13.7637776,46.6689895 14.2837776,45.1639895 C16.5737776,38.2939895 21.1337776,31.4379895 25.8137776,25.6479895 C26.4137776,24.8929895 27.0337776,24.1639895 27.6337776,23.4589895 C34.3837776,15.5299895 40.8537776,10.0629895 40.8537776,10.0629895 L57.9237776,6.93698945 L81.6837776,2.59998945 L120.503778,8.64398945 L178.803778,23.2649895 L183.943778,24.5589895 C184.483778,24.9889895 184.973778,25.4309895 185.393778,25.8339895 C187.563778,27.9749895 189.953778,31.0489895 192.363778,34.8369895 L192.413778,34.9099895 L192.533778,35.1039895 C205.773778,56.0489895 219.413778,98.1069895 199.023778,122.844989" id="Fill-839" fill="#D4AE95"></path>
                    <path d="M122.873778,117.950989 C122.873778,117.950989 135.683778,131.072989 132.443778,136.589989 C129.193778,142.106989 119.873778,147.284989 119.873778,147.284989 C119.873778,147.284989 137.083778,146.172989 138.033778,133.218989 C138.993778,120.264989 122.873778,117.950989 122.873778,117.950989" id="Fill-843" fill="#D4AE95"></path>
                </g>
                <path d="M106.98,231.172992 C106.98,231.172992 88.16,233.588992 85.35,247.048992 C82.54,260.509992 86.39,270.611992 93.97,278.377992 C101.54,286.143992 121.09,289.028992 126.34,271.099992 C131.58,253.170992 122.54,235.595992 106.98,231.172992 M40.04,230.353992 C40.04,230.353992 50.06,233.651992 50.94,247.950992 C51.83,262.250992 46.1,276.204992 40.27,277.191992 C34.43,278.178992 26.77,277.026992 25.17,256.896992 C23.56,236.767992 38.2,229.801992 40.04,230.353992 Z M52.53,269.403992 C55.78,263.092992 64.46,267.961992 64.46,267.961992 L64.46,267.961992 L67.34,270.113992 L67.34,270.113992 C67.3411433,270.118498 67.343811,270.129013 67.3527033,270.164063 L67.3679091,270.223998 C67.370056,270.23246 67.372368,270.241573 67.3748578,270.251387 L67.3920327,270.319083 C67.4798378,270.665174 67.715814,271.595294 68.35,274.094992 C69.36,278.076992 63.04,275.882992 59.9,273.197992 C56.75,270.513992 55.36,276.582992 52.44,276.811992 C49.53,277.040992 49.28,275.714992 52.53,269.403992 Z" id="Eyes-+-Noze" fill="#101611"></path>
                <g id="Wax" transform="translate(38.930383, 80.350618)">
                    <path d="M168.869617,102.214374 C168.769617,103.893374 167.879617,105.393374 166.689617,106.961374 C166.529617,107.164374 166.369617,107.368374 166.199617,107.583374 L166.189617,107.595374 C165.849617,108.013374 165.499617,108.433374 165.139617,108.875374 L164.969617,109.054374 C162.179617,112.101374 156.399617,109.493374 152.489617,107.137374 L152.289617,107.014374 C151.899617,106.780374 151.529617,106.557374 151.199617,106.336374 C150.739617,106.041374 150.329617,105.757374 149.979617,105.512374 C149.819617,105.388374 149.659617,105.278374 149.519617,105.180374 C148.899617,104.737374 148.539617,104.454374 148.539617,104.454374 C145.499617,113.407374 121.469617,110.733374 121.469617,110.733374 C121.469617,110.733374 120.359617,135.840374 125.529617,145.956374 C129.929617,154.589374 130.459617,167.608374 124.229617,173.948374 C123.459617,174.748374 122.579617,175.426374 121.589617,175.994374 C121.199617,176.219374 120.809617,176.420374 120.389617,176.596374 C115.969617,178.523374 112.059617,178.210374 109.039617,175.961374 C106.879617,174.365374 105.179617,171.771374 104.079617,168.313374 C103.199617,165.607374 102.699617,162.363374 102.609617,158.652374 C102.259617,143.581374 110.579617,135.189374 109.689617,121.439374 C108.809617,107.655374 104.519617,111.577374 95.4896166,113.329374 C86.4796166,115.054374 84.1196166,112.657374 84.4896166,104.192374 C84.8596166,95.7143744 82.5596166,89.8743744 72.8396166,84.2093744 C63.1196166,78.5213744 51.4596166,101.939374 43.4896166,102.108374 C35.5596166,102.277374 40.7196166,92.5403744 36.2996166,85.3333744 C31.8996166,78.1393744 14.9196166,101.493374 6.97961662,102.990374 C3.32961662,103.670374 0.939616623,101.647374 0.249616623,98.2813744 C0.209616623,98.1463744 0.189616623,98.0143744 0.169616623,97.8683744 L0.139616623,97.7723744 C0.0996166232,97.6633744 0.0896166232,97.5403744 0.0896166232,97.4083744 C-0.410383377,93.4753744 1.15961662,88.0203744 5.35961662,82.8523744 C13.7096166,72.6353744 50.5696166,65.4023744 59.1196166,59.4163744 C62.7296166,56.8993744 64.3596166,48.7873744 65.0696166,40.2543744 C66.0096166,28.5813744 65.1896166,16.1133744 65.1896166,16.1133744 L107.839617,15.6443744 C107.839617,15.6443744 107.799617,18.7253744 107.729617,23.1583744 L107.729617,23.3163744 C107.609617,32.1963744 107.429617,46.3783744 107.349617,52.3463744 C107.239617,61.3343744 113.289617,63.8003744 121.709617,69.4493744 C130.109617,75.1223744 146.439617,80.6023744 159.559617,90.2843744 C166.879617,95.7023744 169.089617,99.2323744 168.869617,102.214374" id="Blood" fill="#C12A2B"></path>
                    <path d="M114.679617,16.7083744 C111.639617,23.0853744 109.789617,24.3683744 107.749617,23.3273744 L107.729617,23.3163744 C106.499617,22.6853744 105.199617,21.1943744 103.529617,19.4833744 C101.819617,17.7343744 100.479617,17.3183744 99.3396166,17.6913744 L99.3296166,17.6913744 C97.5196166,18.3093744 96.2296166,20.9273744 94.7396166,23.3513744 C92.3196166,27.2843744 86.4996166,26.6813744 83.6196166,23.7343744 C80.7496166,20.7873744 75.2396166,17.5533744 73.2996166,24.4063744 C71.6296166,30.3293744 69.4796166,42.9663744 65.0696166,40.2543744 C64.3696166,39.8463744 63.6296166,39.0403744 62.8096166,37.7733744 C56.8396166,28.4333744 60.5896166,2.81537438 60.5896166,2.81537438 C60.5896166,2.81537438 57.9796166,-0.128625622 68.8296166,0.00437437813 L86.5396166,0.220374378 C97.3096166,0.352374378 107.989617,0.482374378 107.989617,0.482374378 C107.989617,0.482374378 119.559617,6.44737438 114.679617,16.7083744" id="Fill-845" fill="#DC3C3F"></path>
                    <path d="M89.9396166,12.5683744 C83.2696166,12.5683744 75.9196166,10.6563744 71.9096166,8.24737438 C65.6096166,4.46537438 72.2296166,3.75237438 72.2296166,3.75237438 C76.6596166,5.60737438 80.4996166,6.23237438 83.8196166,6.23237438 C87.2496166,6.23237438 90.1296166,5.56037438 92.5296166,4.88837438 C94.9196166,4.21537438 96.8396166,3.54437438 98.3596166,3.54437438 C98.3796166,3.54437438 98.4096166,3.54437438 98.4296166,3.54437438 C102.919617,3.59937438 107.119617,6.29737438 99.9296166,10.4423744 C97.3196166,11.9473744 93.7396166,12.5683744 89.9396166,12.5683744" id="Fill-846" fill="#8D312F"></path>
                    <path d="M160.989617,110.137374 C158.239617,110.137374 154.979617,108.601374 152.489617,107.137374 L152.289617,107.014374 C151.899617,106.780374 151.539617,106.546374 151.199617,106.336374 C150.739617,106.041374 150.329617,105.757374 149.979617,105.512374 C149.819617,105.388374 149.659617,105.278374 149.519617,105.180374 C148.899617,104.737374 148.539617,104.454374 148.539617,104.454374 C148.539617,104.454374 149.559617,104.547374 151.109617,104.547374 C153.069617,104.547374 155.859617,104.399374 158.489617,103.731374 C162.599617,102.682374 158.869617,99.8813744 153.129617,95.3893744 C152.279617,94.7263744 151.389617,94.0263744 150.469617,93.2903744 C147.149617,90.6283744 137.039617,86.2033744 126.759617,81.1103744 C114.889617,75.2383744 102.789617,68.4823744 100.679617,62.5833744 C96.9396166,52.1343744 99.1096166,20.8903744 99.3296166,17.6913744 L99.3396166,17.6913744 C99.5896166,17.6093744 99.8496166,17.5653744 100.129617,17.5653744 C101.089617,17.5653744 102.199617,18.1183744 103.529617,19.4833744 C105.199617,21.1943744 106.499617,22.6853744 107.729617,23.3163744 C107.609617,32.1963744 107.429617,46.3783744 107.349617,52.3463744 C107.349617,52.4173744 107.349617,52.4863744 107.349617,52.5563744 C107.339617,61.3733744 113.359617,63.8453744 121.709617,69.4493744 C130.109617,75.1223744 146.439617,80.6023744 159.559617,90.2843744 C166.559617,95.4693744 168.889617,98.9253744 168.889617,101.827374 C168.889617,101.957374 168.879617,102.086374 168.869617,102.214374 C168.769617,103.893374 167.879617,105.393374 166.689617,106.961374 C166.529617,107.164374 166.369617,107.368374 166.199617,107.583374 L166.189617,107.595374 C165.479617,108.263374 164.649617,108.881374 163.749617,109.437374 C162.939617,109.930374 161.999617,110.137374 160.989617,110.137374" id="Fill-850" fill="#AD2A2B"></path>
                </g>
                <g id="Flame" transform="translate(103.350000, 14.000000)">
                    <path d="M21.65,63.1949919 C21.65,63.1949919 8.34,64.2229919 7.3,52.1049919 C6.26,39.9869919 21.28,28.6599919 22.21,17.9539919 C23.13,7.24899188 23.13,7.24899188 23.13,7.24899188 C23.13,7.24899188 34.03,41.3179919 35.1,50.6579919 C36.18,59.9989919 28.39,64.0719919 21.65,63.1949919" id="Fill-837" fill="#EE9E38"></path>
                    <path d="M23.12,75.3099919 L23.19,53.0839919 C23.19,52.5199919 22.74,52.0619919 22.18,52.0609853 C21.61,52.0589919 21.15,52.5139919 21.15,53.0769919 L21.08,75.3029919 C21.08,75.8659919 21.53,76.3239919 22.1,76.3259985 C22.66,76.3279919 23.12,75.8729919 23.12,75.3099919" id="Fill-847" fill="#19251C"></path>
                    <path d="M21.11,59.2189919 C21.11,59.2189919 11.59,58.1109919 15.68,48.4369919 C19.77,38.7619919 22.66,29.6689919 22.66,29.6689919 C22.66,29.6689919 30.02,44.4449919 29.53,51.5829919 C29.05,58.7209919 26.46,59.6819919 21.11,59.2189919" id="Fill-848" fill="#F0EC79"></path>
                </g>
            </g>
        </g>
    </g>
</svg>