<?xml version="1.0" encoding="UTF-8"?>
<svg width="752px" height="531px" viewBox="0 0 752 531" version="1.1" xmlns="http://www.w3.org/2000/svg" xmlns:xlink="http://www.w3.org/1999/xlink">
    <title>decoration-6</title>
    <g id="decoration-6" stroke="none" stroke-width="1" fill="none" fill-rule="evenodd">
        <g id="Group" transform="translate(0.000000, 182.517000)">
            <path d="M231.1035,0.521405642 L232.711852,0.530814365 L234.7738,0.940871345 L235.51676,1.09996272 L235.860234,1.18151971 L236.144319,1.25734255 L236.383197,1.33126787 L236.524339,1.38139188 L236.719393,1.46068053 L236.916392,1.55291356 L238.014457,2.13484046 L238.250075,2.27092075 L238.45869,2.39920134 L238.951257,2.72293845 L239.185501,2.88935726 L239.607627,3.20961931 L241.104024,4.45100468 L241.798108,5.01788221 C241.91834,5.11527205 242.041207,5.21439048 242.167249,5.31564774 C244.056796,6.8336368 246.039023,8.3312574 248.033534,9.71067531 C248.647525,10.1353156 249.251721,10.5408895 249.843503,10.9250586 L250.43105,11.3020062 L250.958037,11.6321841 C252.517679,12.597816 253.92708,13.3652921 255.108962,13.8938609 L255.456033,14.045063 L255.768654,14.1740032 L256.043978,14.2811798 L256.380803,14.4022274 L256.617696,14.4771087 L256.715362,14.5022118 L257.320897,14.5724175 L257.795759,14.616083 L258.137677,14.6430649 L259.100156,14.704086 L260.249,14.7576589 L261.930873,14.8151817 L263.632865,14.8600357 L268.499742,14.9650999 L270.263189,15.0101652 L271.556989,15.049858 L272.796425,15.0945632 L273.985462,15.1448678 L275.128065,15.2013586 L276.228198,15.2646223 C276.408235,15.2757633 276.586667,15.2872109 276.763578,15.2989774 L277.80744,15.373501 C277.978593,15.3865919 278.14839,15.4000262 278.316914,15.4138161 L279.313425,15.5009198 C279.477183,15.5161808 279.639832,15.5318219 279.801454,15.5478551 L280.759536,15.6488594 L281.696953,15.7598643 L282.617671,15.8814566 C282.769953,15.9026369 282.921704,15.9242827 283.073006,15.9464064 C289.040678,16.8190058 293.665637,18.3129302 297.452014,21.4725937 L300.871069,24.439841 L300.964103,24.5220857 C302.439841,25.8299136 303.72568,27.0346831 304.985596,28.3158052 C310.999476,34.430907 315.332186,41.2807024 317.664334,49.6569493 L317.844289,50.3214177 L317.96,50.774 L318.082579,50.7888942 C350.119353,54.5369728 374.058362,66.571406 391.301898,85.0471296 L391.822382,85.6089698 L392.3959,86.2378475 L392.5195,86.3765567 L392.663,86.544 L393.25833,87.2114572 C393.825936,87.855791 394.384613,88.5063073 394.934572,89.1629633 L395.752999,90.1525465 L396.558511,91.1513068 C401.506101,97.3633705 405.570578,103.878522 409.184066,110.976875 C410.374137,113.314656 411.463105,115.607072 412.618251,118.168522 L413.262004,119.609811 L415.49299,124.671409 L415.695196,125.122761 C424.263318,143.974717 426.248014,169.807939 419.147877,196.799996 L418.896,197.739 L418.958703,197.747978 C420.634165,197.952014 422.104495,197.972016 423.551724,197.832162 L424.033527,197.779656 L424.286928,197.747333 C426.838305,197.405802 429.389449,197.863597 431.616924,198.997461 L431.948577,199.172596 L432.103,199.26 L432.37613,199.247809 C436.375576,199.094739 440.278535,199.607153 444.089843,200.744619 L444.761476,200.951829 L445.335652,201.139728 C450.408698,202.843817 454.840044,205.402511 460.030304,209.23192 L460.632628,209.679438 L461.669806,210.463868 L462.762543,211.305217 L463.810013,212.121654 L466.856729,214.506104 L468.081785,215.446848 L468.904402,216.065563 L469.66363,216.623429 L470.332,217.101 L470.684294,217.229626 C491.457602,224.887762 510.10876,236.95148 530.778253,254.757372 L531.74863,255.596234 L532.707285,256.430637 L533.61933,257.22978 C546.148656,268.341509 553.987415,278.254011 557.851184,290.5 L558.044224,291.124705 L558.216,291.707 L558.309617,291.709449 C558.591647,291.718282 558.877029,291.735071 559.16611,291.760209 L559.602549,291.804228 L560.044796,291.861064 C565.516408,292.639511 569.983549,296.426122 571.649862,301.836744 C573.210839,306.896345 572.396534,312.138635 569.218594,316.29209 C567.271046,318.837464 565.104056,320.349457 562.371025,321.671919 L561.876725,321.905958 L561.187963,322.217591 C561.024559,322.289631 560.85963,322.358161 560.693289,322.423134 L540.419,330.341 L540.322038,330.692488 C540.10523,331.457537 539.857898,332.25343 539.581334,333.09194 L539.368451,333.728997 L538.687662,335.713262 L538.49257,336.302568 L538.298803,336.928422 L538.187,337.33 L541.189311,342.732584 L542.249218,344.677985 L542.882737,345.865691 L543.482448,346.956672 C545.06644,349.825601 545.894737,351.589701 546.566885,354.158181 C547.708328,358.51998 547.437962,363.036088 545.342292,367.374427 C543.174842,371.82241 539.573769,375.120619 534.724378,376.337129 C531.304211,377.195106 528.539539,376.887689 525.468282,375.967958 L524.967233,375.81319 L524.113,375.53 L523.775105,375.569363 C511.974554,376.896394 500.927289,377.518127 487.575637,377.582387 L486.186086,377.587052 L483.823428,377.587052 L481.484254,377.574752 L479.093399,377.553399 L476.647661,377.52216 L474.143834,377.481193 L470.709503,377.411701 L467.158615,377.325555 L463.483577,377.223121 L458.703625,377.072733 L453.702992,376.898186 L448.466847,376.700197 L432.098996,376.039889 L424.780854,375.766628 L420.013258,375.608575 L417.077028,375.522941 L412.901036,375.420633 L410.190589,375.367837 L406.560934,375.313869 L365.481651,374.844992 L277.093825,373.953754 L194.764887,373.682011 L169.825394,373.558242 L155.281403,373.465018 L143.427027,373.374052 L123.585747,373.185714 L113.937232,373.07611 L106.244,372.979 L105.454349,373.111882 L104.160553,373.334052 L103.478087,373.443828 L102.864281,373.535523 L102.195241,373.625911 L101.818224,373.672087 C101.371213,373.72443 100.931209,373.767875 100.493703,373.801712 L99.8387528,373.845173 L99.2920873,373.869961 C96.8576835,373.956032 94.5450983,373.72548 92.2006862,372.967248 C88.6153796,371.807685 85.4819604,369.520376 83.3956859,366.091042 C82.589549,364.765947 81.9945767,363.409144 81.5911845,362.014813 L81.4637892,361.548638 L81.376,361.192 L74.1664449,361.277841 L61.136592,361.490768 L29.403,362.123 L29.1720822,362.211233 C22.0808945,364.859185 16.0020026,365.219553 10.450556,362.090398 L10.104273,361.890271 L9.76622295,361.685268 C6.12904646,359.427804 3.7922782,356.080125 2.57460146,352.2263 C1.85673142,349.954314 1.55882469,347.670656 1.50778926,345.069734 L1.50056866,344.507426 L1.50056866,344.104803 L1.5089958,343.456905 L1.53124743,342.661014 C1.53611022,342.524434 1.5415676,342.385275 1.54764582,342.242622 L1.56776919,341.80326 L1.59483265,341.291407 L1.63087861,340.687791 L1.91229374,336.671693 L1.93416914,336.29306 C2.07652038,333.698412 3.02309867,331.222453 4.62808275,329.202287 L4.87375017,328.902723 L5.006,328.751 L5.04948894,328.590369 L5.130275,328.246243 L5.18935025,327.961368 L5.2882572,327.436362 L5.44453002,326.523515 L5.66597733,325.180621 L5.83731748,324.204148 C6.61686036,319.922977 7.53893476,317.117396 9.72202836,313.787843 C10.2129535,313.039107 10.7826619,312.345645 11.4211405,311.719214 L11.7460643,311.411638 L15.4873515,307.991951 L17.729966,305.949962 L19.2325239,304.593297 L20.6991845,303.280414 C20.940754,303.065177 21.180916,302.851712 21.4197144,302.639992 L22.8364959,301.39039 C23.0700167,301.185541 23.3022621,300.982384 23.5332763,300.780891 L24.9049389,299.591703 C25.1312043,299.396764 25.3563266,299.203436 25.5803499,299.011694 L26.9116538,297.88005 L28.2186965,296.785177 C28.650569,296.426206 29.0787505,296.07315 29.5035937,295.725798 L30.604,294.832 L30.559516,294.806877 C29.5825347,294.216033 28.6265848,293.549906 27.6925716,292.807528 L27.1348033,292.352944 L26.7199583,291.999969 C21.3142136,287.316183 20.9336678,279.05988 25.8856423,273.898692 C51.0519319,247.66916 78.076003,229.760647 108.797429,220.279279 L109.789727,219.976352 L110.081,219.889 L109.964784,219.711153 C107.962106,216.569985 107.440448,212.6457 108.649283,209.030342 L108.771677,208.68147 L108.889583,208.373158 C110.919089,203.267901 114.329284,199.398615 118.870387,197.032957 C121.979793,195.413133 124.86834,194.739165 128.640765,194.358678 L129.160769,194.308552 L130.080503,194.229958 L131.792464,194.091131 L132.53468,194.018036 L132.85899,193.977363 L133.205339,193.921256 C144.844892,191.742318 156.193972,190.441332 167.30037,190.056568 L168.813379,190.009783 L169.698,189.988 L169.645637,189.464606 C167.529345,167.620498 171.575211,143.577306 181.905054,118.461598 L182.327275,117.442809 L182.73449,116.474532 C194.490838,88.7055636 214.285061,70.2060375 238.891303,59.5781376 C244.927837,56.9708445 251.026396,54.9440359 257.08885,53.4250093 L258.255,53.139 L258.207888,53.1136505 C257.181973,52.5699789 256.35994,52.2838122 255.645896,52.1715819 L255.453762,52.1452234 L255.340873,52.1333915 C250.389514,51.6741103 243.070148,49.3295449 236.754952,46.1743987 C227.87722,41.7389793 221.226742,36.1332163 218.328329,28.4416054 C217.532329,26.3292361 217.324119,24.0433056 217.721821,21.8265604 L218.078353,20.1022449 C218.218225,19.4265026 218.358036,18.7383882 218.493211,18.0573479 L218.822078,16.3634629 L219.055167,15.1002406 L219.241136,14.0234927 L219.346159,13.3578216 L219.399,12.982 L219.347614,12.4287319 L221.033131,6.70886546 L226.260445,1.81168672 L231.1035,0.521405642 Z" id="Sticker" fill="#FFFFFF" fill-rule="nonzero"></path>
            <g id="Straw" transform="translate(14.000000, 197.426708)">
                <path d="M513.235399,145.929115 C514.745399,148.663115 516.295399,151.380115 517.755399,154.138115 C519.475399,157.378115 521.885399,160.787115 520.105399,164.472115 C518.495399,167.776115 516.185399,166.974115 513.855399,166.173115 C512.675399,165.766115 511.485399,165.358115 510.385399,165.489115 C471.155399,170.138115 431.945399,165.874115 392.715399,165.388115 C349.525399,164.854115 306.335399,164.475115 263.135399,164.027115 C256.605399,160.311115 248.685399,157.371115 253.665399,147.181115 C258.205399,142.972115 263.855399,141.848115 269.735399,141.367115 C281.935399,141.612115 294.165399,141.427115 306.365399,141.242115 C330.415399,140.876115 354.375399,140.510115 377.975399,143.451115 C374.305399,139.275115 363.335399,135.426115 371.775399,125.962115 C356.325399,122.218115 337.575399,119.400115 318.795399,113.044115 C322.455399,117.531115 327.225399,119.392115 330.675399,122.821115 C333.964399,126.102115 339.145399,129.076115 336.884399,134.443115 C334.395399,140.372115 328.185399,139.770115 323.005399,138.971115 C309.985399,136.960115 297.005399,134.658115 284.015399,132.501115 C270.505399,130.260115 257.185399,126.932115 243.355399,127.323115 C241.255399,127.381115 243.875399,127.511115 241.775399,127.265115 C235.904399,126.578115 228.265399,125.850115 228.645399,118.844115 C228.915399,113.763115 233.175399,113.852115 236.915399,113.941115 C238.304399,113.974115 239.625399,114.006115 240.645399,113.776115 C231.665399,112.247115 221.505399,111.696115 211.325399,111.297115 C194.545399,108.161115 177.825399,107.445115 160.955399,110.979115 C154.955399,112.237115 148.735399,113.356115 143.215399,107.818115 C139.035399,103.625115 133.165399,106.573115 128.005399,106.929115 C121.975399,107.346115 113.085399,110.539115 111.765399,102.755115 C110.585399,95.7361146 119.804399,93.9741146 125.715399,92.5351146 C139.055399,89.2851146 152.594399,86.3661146 166.225399,85.0351146 C181.815399,83.5151146 197.495399,79.5601146 213.045399,83.3721146 C211.615399,81.5751146 208.945399,81.7781146 206.244399,81.9821146 C201.925399,82.3071146 197.495399,82.6321146 197.815399,74.7431146 C226.735399,63.5721146 256.045399,67.9831146 285.175399,73.2371146 C311.205399,77.9331146 335.825399,88.0951146 361.485399,94.4261146 C371.275399,96.8421146 380.605399,101.784115 387.745399,108.736115 C406.615399,127.101115 431.135399,131.188115 458.245399,138.784115 C442.885399,118.403115 423.895399,108.639115 404.585399,99.3851146 C398.405399,96.4241146 391.685399,94.5931146 385.785399,91.0141146 C383.065399,89.3631146 380.295399,87.2041146 380.845399,83.6201146 C381.425399,79.7811146 385.094399,79.2571146 388.135399,78.7221146 C393.264399,77.8151146 398.455399,77.8841146 403.714399,77.9521146 C408.545399,78.0151146 413.425399,78.0781146 418.385399,77.3871146 C413.905399,71.7391146 400.775399,73.2511146 403.865399,63.9611146 C405.825399,58.0681146 412.375399,58.4631146 418.525399,58.8581146 C420.405399,58.9791146 422.255399,59.1001146 423.925399,59.0421146 C448.094399,58.1781146 469.515399,66.4561146 489.465399,79.3761146 C494.695399,82.7681146 498.565399,83.9471146 494.905399,75.2561146 C496.735399,61.3181146 496.735399,61.3181146 511.325399,69.1551146 C521.445399,78.1301146 530.475399,87.9971146 533.174399,101.739115 C534.355399,107.738115 537.845399,107.599115 542.195399,107.178115 C543.595399,106.629115 545.195399,106.439115 545.705399,108.095115 C546.625399,111.077115 544.445399,112.339115 542.145399,113.353115 C532.995399,116.927115 523.844399,120.501115 514.685399,124.076115 C516.134399,131.488115 508.255399,138.282115 513.235399,145.929115" id="Fill-292" fill="#ECAB2C"></path>
                <path d="M199.765399,75.7531146 C206.715399,82.2761146 216.305399,80.0131146 227.594399,84.3121146 C187.045399,86.4021146 149.795399,89.6251146 110.515399,101.596115 C118.935399,105.380115 123.605399,102.506115 128.285399,102.477115 C134.715399,102.439115 143.585399,94.9291146 147.855399,107.279115 C148.315399,108.615115 157.595399,107.697115 162.495399,106.572115 C179.285399,102.717115 195.875399,103.144115 212.455399,107.446115 C217.515399,117.124115 211.815399,121.081115 203.775399,123.806115 C200.165399,124.567115 196.025399,125.621115 192.855399,124.316115 C174.845399,116.924115 156.765399,119.274115 138.505399,121.622115 C124.575399,123.413115 110.545399,125.204115 96.335399,122.678115 C117.395399,124.229115 136.875399,129.350115 156.945399,129.608115 C162.095399,129.674115 168.865399,131.585115 168.095399,139.838115 C157.285399,146.073115 145.455399,143.947115 134.155399,143.011115 C95.075399,139.773115 56.515399,145.277115 17.835399,148.898115 C15.595399,149.107115 13.955399,150.301115 12.845399,152.245115 C-2.41460096,158.872115 -0.0646009598,148.300115 0.41539904,139.551115 C4.78539904,134.969115 2.91539904,128.187115 6.17539904,123.215115 C17.935399,112.483115 29.515399,101.506115 44.054399,94.4291146 C46.825399,92.0621146 48.895399,89.1281146 51.075399,85.9641146 C49.795399,86.0101146 48.515399,85.9271146 47.255399,85.8441146 C43.805399,85.6151146 40.445399,85.3881146 37.455399,87.8381146 C36.045399,87.7431146 34.605399,87.9301146 33.125399,88.1161146 C29.425399,88.5841146 25.435399,89.0511146 20.905399,85.1261146 C46.965399,57.9651146 76.714399,38.4351146 113.795399,30.8931146 C118.045399,29.4241146 122.654399,29.1411146 126.675399,26.8601146 C131.635399,24.0371146 130.135399,21.6451146 126.295399,19.3191146 C123.935399,18.6651146 121.435399,18.7351146 118.915399,18.8031146 C114.625399,18.9211146 110.285399,19.0381146 106.505399,15.5641146 C109.405399,8.26911456 115.995399,9.81211456 121.505399,8.78111456 C154.555399,2.59411456 187.125399,3.47811456 218.885399,15.4921146 C233.885399,21.1701146 247.335399,17.8601146 262.705399,13.7491146 C294.995399,5.11811456 327.925399,-7.40388544 362.335399,5.63311456 C336.775399,23.2471146 309.975399,35.1941146 277.375399,32.1901146 C261.145399,30.6931146 245.645399,37.7361146 233.464399,49.7611146 C230.705399,52.5101146 227.145399,54.4061146 223.494399,53.7021146 C213.385399,51.7471146 203.335399,52.7691146 193.304399,53.7911146 C184.985399,54.6391146 176.675399,55.4871146 168.365399,54.6381146 C149.485399,52.7111146 132.295399,61.7911146 113.775399,61.9931146 C108.595399,62.0521146 105.255399,65.9041146 103.995399,70.9961146 C101.495399,81.1081146 94.565399,87.1301146 85.675399,91.8421146 C108.395399,85.4481146 130.975399,78.5641146 154.195399,74.1511146 C157.775399,73.4691146 161.725399,72.6841146 164.384399,70.0821146 C184.565399,50.3661146 208.105399,59.2881146 230.955399,62.0411146 C233.244399,69.7721146 227.054399,68.9391146 223.065399,69.1831146 C214.755399,69.6911146 207.105399,72.0671146 199.765399,75.7531146" id="Fill-293" fill="#F7C93E"></path>
                <path d="M199.765399,75.7531146 C207.045399,63.2981146 221.915399,69.8441146 231.485399,63.1291146 C239.875399,56.2771146 249.815399,57.8021146 258.675399,60.0771146 C283.595399,66.4761146 309.955399,65.8551146 334.075399,75.9581146 C337.885399,77.5541146 342.295399,78.0271146 346.325399,74.1211146 C344.765399,68.5681146 339.765399,68.1551146 335.365399,67.7211146 C324.715399,66.6691146 314.905399,62.6991146 304.935399,59.3831146 C300.445399,57.8861146 293.905399,57.3801146 294.875399,49.7191146 C322.755399,37.4671146 351.825399,41.7071146 380.755399,41.9451146 C357.355399,41.6391146 334.025399,38.0421146 310.795399,36.7311146 C286.825399,35.3771146 262.935399,42.8061146 239.955399,50.8641146 C236.025399,52.2021146 233.244399,50.8921146 231.485399,47.2251146 C243.344399,32.3841146 260.415399,26.6071146 277.655399,27.8991146 C303.105399,29.8061146 325.645399,24.6511146 346.045399,10.1551146 C351.355399,6.37911456 356.685399,6.30311456 362.335399,5.63411456 C371.435399,3.66111456 379.875399,6.31311456 388.315399,8.96611456 C396.025399,11.3871146 403.735399,13.8091146 411.945399,12.7101146 C413.185399,14.1541146 413.095399,15.5101146 411.685399,16.7751146 C402.085399,21.0201146 392.075399,20.5641146 382.385399,20.1091146 C375.245399,19.7731146 368.285399,19.4371146 361.785399,20.9821146 C398.675399,22.8921146 436.285399,29.3061146 471.865399,44.9241146 C485.415399,50.8731146 495.795399,59.9921146 497.955399,75.7911146 C499.485399,80.8551146 506.005399,82.7681146 506.514399,92.8081146 C474.185399,74.5181146 443.325399,55.8271146 405.075399,64.9201146 C411.525399,72.5091146 424.165399,69.4481146 431.275399,81.0771146 C414.405399,81.0771146 398.895399,81.0771146 383.384399,81.0771146 C398.514399,93.8701146 416.285399,98.4881146 431.325399,108.726115 C443.135399,116.773115 454.515399,124.838115 462.485399,136.952115 C463.895399,139.105115 466.385399,141.137115 464.185399,143.728115 C462.155399,146.105115 459.415399,144.792115 456.895399,143.891115 C430.045399,134.297115 402.695399,127.546115 379.145399,108.653115 C355.075399,89.3481146 322.265399,88.4501146 293.335399,79.5041146 C262.835399,70.0731146 231.225399,70.4381146 199.765399,75.7531146" id="Fill-294" fill="#F7C73D"></path>
                <path d="M12.845399,152.245115 C3.72539904,148.634115 9.86539904,146.354115 13.855399,145.793115 C31.885399,143.250115 49.985399,141.074115 68.095399,139.181115 C89.765399,136.913115 111.465399,137.656115 133.154399,138.400115 C144.775399,138.799115 156.404399,139.197115 168.035399,139.133115 C175.335399,143.116115 169.094399,145.445115 166.595399,147.089115 C161.205399,150.644115 154.445399,149.601115 149.495399,150.993115 C157.565399,151.735115 165.755399,150.574115 174.065399,149.412115 C184.885399,147.899115 195.905399,146.385115 207.085399,149.078115 C214.735399,151.925115 222.845399,161.547115 229.315399,147.453115 C237.665399,143.485115 245.855399,142.478115 253.695399,148.610115 C253.385399,155.866115 260.585399,158.527115 263.135399,164.027115 C206.065399,163.826115 148.995399,163.793115 91.925399,163.048115 C91.125399,163.036115 89.905399,163.269115 88.545399,163.503115 C83.485399,164.371115 76.405399,165.238115 80.925399,153.560115 C82.025399,150.719115 74.835399,151.203115 71.495399,151.229115 C51.945399,151.384115 32.395399,151.871115 12.845399,152.245115" id="Fill-295" fill="#ECAC2D"></path>
                <path d="M497.955399,75.7911146 C487.365399,71.6911146 490.575399,57.8101146 478.385399,52.3421146 C451.285399,40.1831146 423.465399,32.4791146 394.395399,28.3291146 C377.945399,25.9811146 361.455399,23.6961146 344.594399,23.3111146 C359.655399,15.7821146 375.455399,15.8671146 391.215399,15.9511146 C398.345399,15.9891146 405.475399,16.0271146 412.525399,15.3591146 C429.305399,10.5511146 438.955399,23.1671146 450.595399,30.8941146 C473.735399,39.0711146 493.125399,53.1681146 511.325399,69.1551146 C509.915399,70.2821146 507.485399,69.3551146 505.055399,68.4281146 C500.625399,66.7371146 496.195399,65.0481146 497.955399,75.7911146" id="Fill-296" fill="#EBAE2D"></path>
                <path d="M253.695399,148.610115 C250.745399,149.068115 247.705399,148.826115 244.665399,148.584115 C238.995399,148.135115 233.335399,147.685115 228.225399,151.754115 C221.945399,156.516115 215.635399,155.797115 209.295399,151.859115 C198.554399,150.982115 187.865399,152.167115 177.015399,153.353115 C163.135399,154.869115 148.975399,156.384115 134.095399,153.588115 C142.494399,147.152115 151.005399,146.697115 159.344399,145.356115 C160.195399,145.219115 161.244399,145.295115 162.325399,145.371115 C165.795399,145.612115 169.595399,145.856115 168.035399,139.133115 C165.475399,137.395115 162.735399,133.951115 160.375399,134.188115 C149.295399,135.295115 138.505399,133.162115 127.725399,131.028115 C115.595399,128.629115 103.485399,126.228115 91.005399,128.439115 C87.815399,129.003115 84.185399,129.996115 83.464399,125.766115 C82.535399,120.316115 87.085399,120.158115 90.735399,120.221115 C111.645399,120.588115 132.255399,119.979115 152.725399,114.081115 C161.545399,111.539115 169.985399,114.212115 178.505399,116.885115 C186.465399,119.383115 194.485399,121.881115 202.935399,120.120115 C224.345399,123.604115 246.085399,124.838115 267.344399,129.330115 C272.125399,130.338115 279.025399,128.429115 279.995399,135.547115 C280.945399,142.539115 273.165399,142.202115 269.545399,145.432115 C264.265399,146.491115 258.985399,147.551115 253.695399,148.610115" id="Fill-297" fill="#F8D336"></path>
                <path d="M269.545399,145.432115 C272.225399,142.364115 274.915399,139.296115 279.925399,133.565115 C269.735399,134.077115 260.475399,131.913115 251.435399,129.748115 C241.245399,127.307115 231.335399,124.864115 220.705399,126.265115 C214.285399,127.110115 206.735399,128.215115 202.935399,120.120115 C211.154399,119.671115 212.755399,114.272115 212.455399,107.446115 C226.695399,106.454115 240.265399,109.991115 256.705399,113.144115 C247.415399,120.029115 238.395399,114.235115 231.134399,120.289115 C265.695399,122.949115 299.285399,131.590115 336.175399,136.403115 C328.405399,122.426115 315.085399,118.495115 303.515399,107.390115 C324.535399,107.841115 340.105399,116.685115 357.095399,118.236115 C364.855399,118.944115 372.395399,121.738115 380.105399,123.279115 C384.365399,124.130115 389.965399,124.764115 388.245399,130.164115 C386.825399,134.635115 382.025399,131.296115 378.605399,130.446115 C376.175399,129.843115 373.555399,129.976115 369.055399,129.627115 C375.264399,139.560115 385.975399,141.399115 395.245399,151.390115 C364.675399,144.624115 335.715399,145.057115 307.325399,145.491115 C294.655399,145.685115 282.085399,145.878115 269.545399,145.432115" id="Fill-298" fill="#F6C63C"></path>
                <path d="M231.485399,47.2251146 C233.625399,48.2501146 235.775399,49.2741146 237.915399,50.2991146 C256.935399,44.7391146 275.955399,41.2771146 294.915399,50.5171146 C308.235399,56.5581146 321.705399,62.1351146 336.535399,63.0471146 C343.675399,63.4861146 350.215399,64.9961146 354.155399,71.5671146 C355.605399,73.9811146 355.005399,77.0851146 352.905399,78.8411146 C346.475399,84.2091146 338.594399,83.3671146 331.875399,80.8501146 C299.455399,68.7021146 265.595399,65.3791146 231.485399,63.1271146 C215.105399,63.1201146 198.715399,63.0271146 182.335399,63.1531146 C181.695399,63.1581146 181.045399,63.1371146 180.375399,63.1151146 C175.855399,62.9731146 171.195399,62.8281146 172.985399,70.9581146 C173.965399,75.3861146 169.675399,75.0931146 166.634399,75.7941146 C140.195399,81.8861146 113.594399,87.3611146 87.955399,96.5541146 C83.835399,98.0341146 77.745399,100.544115 75.755399,95.1531146 C73.975399,90.3541146 80.015399,89.2911146 83.795399,87.4461146 C92.185399,83.3511146 100.555399,80.0831146 99.175399,67.0421146 C98.395399,59.6451146 106.855399,57.9241146 114.255399,56.4891146 C143.025399,50.9041146 172.465399,52.1281146 201.195399,47.2351146 C205.235399,46.5471146 209.215399,47.7001146 213.145399,48.8541146 C219.315399,50.6601146 225.385399,52.4651146 231.485399,47.2251146" id="Fill-299" fill="#F8D435"></path>
                <path d="M238.285399,27.0581146 C231.795399,33.0281146 225.065399,37.6161146 216.214399,34.4261146 C213.995399,33.6271146 212.815399,30.9771146 214.145399,29.4591146 C221.145399,21.4681146 229.965399,26.1241146 238.285399,27.0581146" id="Fill-300" fill="#F8D435"></path>
                <path d="M294.915399,50.5171146 C275.915399,50.4451146 256.915399,50.3731146 237.915399,50.3001146 C238.705399,41.5321146 246.725399,43.5621146 251.405399,42.4771146 C272.215399,37.6421146 292.825399,31.2591146 314.555399,31.3641146 C321.435399,31.3971146 327.805399,31.6811146 333.995399,35.9431146 C337.995399,38.7031146 343.304399,40.9651146 348.855399,39.2751146 C362.005399,35.2671146 374.355399,39.3741146 386.865399,43.2811146 C355.835399,41.6871146 325.385399,46.2211146 294.915399,50.5171146" id="Fill-301" fill="#EDAD2C"></path>
                <path d="M209.295399,151.859115 C215.605399,151.824115 221.915399,151.789115 228.225399,151.754115 C229.985399,153.574115 233.095399,155.306115 233.225399,157.234115 C233.475399,161.072115 229.985399,160.942115 227.765399,159.391115 C225.625399,157.902115 222.805399,158.087115 219.995399,158.272115 C215.405399,158.573115 210.845399,158.877115 209.295399,151.859115" id="Fill-302" fill="#ECAB2C"></path>
            </g>
            <g transform="translate(181.604152, 13.000000)" id="Halloween/Stuffs/Pumpkin">
                <path d="M209.702991,217.881848 C183.03489,261.609805 114.079958,246.20532 106.018743,243.607708 C103.224856,242.708805 98.2178901,244.572678 91.4284445,246.437553 C78.600598,249.964098 59.413905,253.491644 36.862531,238.324397 C24.7356597,230.173203 15.0111307,219.084056 8.60321586,205.537438 C-3.21322347,180.569339 -3.76499111,147.219815 12.6588582,108.456849 C37.9840913,48.6607389 100.531108,49.5406234 100.531108,49.5406234 C155.437496,46.0801448 185.01865,63.1563105 201.801999,81.7049564 L201.801999,81.7119635 C214.119135,95.3386616 219.546686,109.760159 223.02152,117.412852 C231.242958,135.495029 236.390119,174.145882 209.702991,217.881848" id="Fill-303" fill="#CF622C"></path>
                <path d="M209.702991,217.881848 C183.03489,261.609805 114.079958,246.20532 106.018743,243.607708 C103.224856,242.708805 98.2178901,244.572678 91.4284445,246.437553 C78.600598,249.964098 59.413905,253.491644 36.862531,238.324397 C24.7356597,230.173203 15.0111307,219.084056 8.60321586,205.537438 C19.4583178,200.390264 46.9065044,191.85068 92.8404088,205.920824 C154.075601,224.676678 175.885944,201.536416 189.054264,176.697447 C194.331606,166.738436 197.62619,150.924539 199.608948,134.985516 C202.583086,111.157564 202.583086,87.0593389 201.822027,81.8961486 L201.801999,81.7119635 C214.119135,95.3386616 219.546686,109.760159 223.02152,117.412852 C231.242958,135.495029 236.390119,174.145882 209.702991,217.881848" id="Fill-304" fill="#C14D2C"></path>
                <path d="M178.599719,143.005579 C178.599719,143.005579 187.462049,135.625159 192.55914,139.743299 C197.666245,143.861439 201.311316,150.970585 197.866524,164.700387 C194.430744,178.430189 185.309054,189.833652 185.309054,189.833652 L178.599719,143.005579" id="Fill-305" fill="#862C25"></path>
                <path d="M126.99793,75.1823997 C135.19934,87.242523 141.347894,100.623975 146.313802,114.352775 C148.808273,121.222681 150.851115,128.252748 152.603553,135.351885 C154.305921,142.467037 155.617746,149.67228 156.599112,156.920567 C157.590491,164.172857 158.051132,171.486209 158.261424,178.796557 L158.311494,184.282072 C158.30148,186.109909 158.211355,187.937746 158.171299,189.766585 C158.141257,193.425263 157.7407,197.064921 157.499364,200.710586 L156.56907,208.877796 L156.158499,211.585518 L155.307314,216.996958 C154.986869,218.793764 154.606339,220.581561 154.245838,222.37036 C152.783804,229.519546 150.831087,236.55662 148.607994,243.486587 L149.879763,238.177249 C150.310363,236.408471 150.791031,234.658712 151.121491,232.867912 C151.83248,229.302328 152.633595,225.760768 153.144305,222.163151 C153.434709,220.369348 153.765169,218.586556 154.025531,216.792753 L154.716492,211.394326 L155.046952,208.696614 L155.287287,205.98689 L155.747927,200.570445 C156.619139,186.106906 156.258638,171.572295 154.325949,157.219867 C153.394653,150.041652 152.101855,142.910483 150.500627,135.849385 C148.87837,128.788287 146.875584,121.819281 144.642477,114.922348 C142.389343,108.035425 139.805748,101.2456 136.861652,94.6119311 C133.957612,87.9562405 130.732125,81.4306807 126.99793,75.1823997" id="Fill-306" fill="#E2952E"></path>
                <path d="M104.987308,77.7790099 C102.7532,84.3366019 100.851554,90.9912915 99.2292972,97.7110465 C97.5469567,104.414785 96.1049505,111.17358 94.9333205,117.977419 C93.7817184,124.783261 92.7693099,131.613126 92.0693361,138.475024 C91.3683609,145.333919 90.8175946,152.212834 90.6473578,159.104762 C90.2067448,172.88061 90.8476364,186.693496 92.7002138,200.361235 L93.0306735,202.925813 L93.4512587,205.477378 L94.3024428,210.581509 C95.0224445,213.9549 95.604254,217.364327 96.475466,220.705686 C97.9174722,227.468484 100.030412,234.056107 102.11331,240.665751 C96.8960511,227.830849 93.1197975,214.359307 90.9577897,200.620496 L90.1466612,195.469317 L89.5358114,190.287108 C89.305491,188.562374 89.1853238,186.826629 89.0351148,185.094889 C88.9049337,183.360145 88.7046551,181.629405 88.6445715,179.892659 C88.2039585,172.946677 88.1839306,165.982676 88.3541675,159.031689 C88.8348362,145.129714 90.4370652,131.26878 93.2009104,117.651091 C96.0048112,104.052421 99.6689088,90.592891 104.987308,77.7790099" id="Fill-307" fill="#E2952E"></path>
                <path d="M87.0924121,75.2744922 C82.5961568,80.9802279 78.7708349,87.1674476 75.3560842,93.5378514 C71.9213056,99.9092562 68.9171261,106.49888 66.3936154,113.26268 C63.8801185,120.030483 61.7171093,126.928417 60.0738231,133.949475 C58.392484,140.961524 57.1107007,148.073673 56.3997116,155.249887 C55.6386528,162.416091 55.2080537,169.632345 55.3883045,176.846597 L55.3983184,179.552317 L55.5284995,182.254033 L55.7988757,187.66247 L56.3095862,193.052888 L56.5499206,195.752602 L56.9004082,198.438302 L57.6314252,203.810703 C57.9018013,205.596498 58.2522889,207.36928 58.5627208,209.151071 C59.1435289,212.726665 60.004727,216.239196 60.7958276,219.772748 C60.9961062,220.655636 61.166343,221.547532 61.3966635,222.422412 L62.0976387,225.048051 L63.4895752,230.303334 C63.950216,232.057097 64.5510519,233.768818 65.0817903,235.504563 L66.6639915,240.715801 C65.4022361,237.315383 64.0703832,233.926977 62.9087672,230.482514 L61.2564684,225.283288 L60.435326,222.681673 C60.1649499,221.8138 59.9546573,220.926909 59.704309,220.050027 C58.7930412,216.528487 57.8317038,213.012953 57.1507565,209.432354 C56.780241,207.64756 56.3696698,205.870773 56.03921,204.077971 L54.7173711,195.980832 L54.3969253,193.2631 L53.7960894,187.82163 L53.4355878,182.359139 L53.2753649,179.624389 L53.2152813,176.886637 C52.974947,169.583296 53.3855182,162.268943 54.1165352,155.001638 C55.6787085,140.468028 59.263696,126.149634 64.7513306,112.622036 C67.5151757,105.864242 70.7196338,99.2946384 74.3747189,92.9893 C78.1499711,86.763041 82.1855856,80.6559019 87.0924121,75.2744922" id="Fill-308" fill="#E2952E"></path>
                <path d="M100.05044,75.8921131 C100.05044,75.8921131 103.475204,45.638701 94.7630837,38.1321551 C86.0609771,30.6256092 80.8136769,27.2522181 74.9955826,26.7136767 C69.1875023,26.1751354 51.8433727,19.9438714 48.4887056,11.0449258 C48.4887056,11.0449258 50.7618681,0.453278604 50.3102398,0.0108338386 C49.8606142,-0.431610927 64.8815117,12.8187089 73.6837576,13.9238198 C82.4749882,15.0289307 102.563936,13.3442372 108.121669,18.2011195 C113.679401,23.0600039 122.681925,29.9679481 125.055227,43.9379914 C127.428529,57.9080347 128.600159,71.4446423 128.600159,71.4446423 C128.600159,71.4446423 115.722243,79.6088493 100.05044,75.8921131" id="Fill-309" fill="#4B2B70"></path>
                <path d="M49.7805028,8.27514149 C49.7905167,8.29115759 52.52432,12.0809673 57.0906729,15.9568635 C61.6470118,19.8297567 68.0359002,23.8037515 75.3961399,24.1140635 C82.6261986,24.4143654 88.4543068,24.5505022 92.9305342,25.8618204 C97.4067617,27.1831487 100.531108,29.6005788 102.563936,34.6216262 C106.638605,44.7377954 109.974246,54.8499606 109.974246,63.1883427 L109.974246,63.4375933 L110.354775,63.4355912 L109.974246,63.4325882 C109.93419,67.6608387 109.673828,70.9621573 109.413466,73.2044113 C109.292297,74.3245373 109.163117,75.1803977 109.072992,75.7549752 C109.022922,76.042264 108.982867,76.2584814 108.962839,76.4036273 C108.932797,76.5477722 108.912769,76.6168416 108.912769,76.6168416 L109.663814,76.7729986 C109.673828,76.7519775 110.675221,71.9531535 110.735305,63.4385943 L110.735305,63.1883427 C110.735305,54.6517613 107.36061,44.4855418 103.274926,34.3353384 C101.192028,29.1251008 97.7872911,26.4714332 93.1508407,25.1280828 C88.5143904,23.7757234 82.6562403,23.6536006 75.4261817,23.3502957 C68.3353167,23.0580019 62.0675969,19.1921157 57.5813555,15.3742779 C55.3382348,13.4673609 53.5357271,11.5774611 52.3040135,10.1650413 C51.6821484,9.45933189 51.212495,8.87274223 50.8920492,8.46433167 C50.7318263,8.2601264 50.6016452,8.0999654 50.5205323,7.99085571 C50.4414223,7.88274704 50.4013665,7.82769169 50.4013665,7.82769169 L49.7805028,8.27514149" id="Fill-310" fill="#6F488B"></path>
                <path d="M51.2325229,4.09393836 C51.2625647,4.12997458 61.5869282,18.2681869 81.2943456,20.035964 C91.0769555,20.9058384 96.2551595,20.828761 100.170607,22.0489876 C102.132336,22.6575994 103.785636,23.5795261 105.618186,25.1280828 C107.440721,26.6766395 109.42348,28.8568311 111.977032,31.9519425 C116.873845,37.8558774 119.406368,47.9229973 120.679139,56.7058262 C121.950908,65.4896561 121.990964,72.991197 121.990964,73.8110211 L121.990964,73.8941046 L122.752023,73.8800905 L122.752023,73.8110211 C122.752023,72.9681738 122.711967,65.4376038 121.430184,56.5957155 C120.138386,47.7528262 117.634904,37.5996198 112.567854,31.4644524 C110.004288,28.357329 108.001501,26.1471072 106.108868,24.5454972 C103.283938,22.1390781 100.701345,21.1280618 97.056274,20.5865174 C93.4112029,20.039968 88.6736119,19.9278553 81.3644432,19.2741982 C71.6909852,18.4093288 64.3107176,14.4993984 59.3438075,10.8016813 C56.859351,8.95282273 54.9877472,7.15801851 53.7259918,5.82768119 C53.1041267,5.16301304 52.6344733,4.61346061 52.3140275,4.23207722 C52.1638185,4.04188603 52.0436513,3.8927361 51.9635399,3.79263548 C51.8834284,3.69253485 51.8533866,3.64348554 51.8533866,3.64348554 L51.2325229,4.09393836" id="Fill-311" fill="#6F488B"></path>
                <path d="M81.7049168,68.4666487 C81.7349586,68.4946769 91.8280003,77.3425712 107.500805,77.3475783 C116.833789,77.3505792 128.139518,74.1914035 140.386556,64.1843439 L139.905888,63.5917482 C127.769002,73.5007092 116.663552,76.5808054 107.500805,76.5828074 C99.8201192,76.5828074 93.4813005,74.4066198 89.0751705,72.2294312 C86.8721056,71.1413374 85.1497093,70.0532436 83.9880933,69.2384245 C83.3972713,68.831015 82.9566583,68.4926749 82.6562403,68.2564374 C82.5060314,68.1383186 82.3948767,68.0462261 82.3157667,67.9841637 L82.2056134,67.8920711 L81.7049168,68.4666487" id="Fill-312" fill="#D34D2B"></path>
                <polyline id="Fill-313" fill="#892D25" points="98.1177508 106.13051 68.1961231 138.578128 107.500805 152.633257 98.1177508 106.13051"></polyline>
                <polyline id="Fill-314" fill="#13152A" points="90.1566751 115.140567 97.647096 149.305912 68.1961231 138.578128 90.1566751 115.140567"></polyline>
                <polyline id="Fill-315" fill="#892D25" points="145.293383 103.58395 175.845888 135.439973 136.821597 150.262874 145.293383 103.58395"></polyline>
                <polyline id="Fill-316" fill="#13152A" points="153.424695 112.43685 146.615222 146.743336 175.845888 135.439973 153.424695 112.43685"></polyline>
                <polyline id="Fill-317" fill="#892D25" points="113.068551 157.78944 121.239919 141.185749 130.492792 158.512166 113.068551 157.78944"></polyline>
                <polyline id="Fill-318" fill="#13152A" points="119.046868 145.37496 126.477205 158.253907 113.068551 157.78944 119.046868 145.37496"></polyline>
                <path d="M89.8963129,164.119804 L90.036508,178.261019 L76.1271569,172.590318 L83.3071459,160.760427 C83.3071459,160.760427 68.1460534,148.702305 62.4381124,143.695272 C56.7301713,138.691242 44.0124781,131.967483 38.1543281,141.998566 C32.2961781,152.02965 29.8327509,158.90356 38.4547461,173.406139 C47.0867552,187.910719 67.1947299,203.344234 67.1947299,203.344234 L69.4779063,192.603437 L87.5630669,199.870742 L80.5232729,210.509436 C80.5232729,210.509436 115.632117,222.074062 145.794079,215.379332 C145.794079,215.379332 158.571856,211.829764 161.075339,209.423345 L153.073206,197.740601 L172.210831,191.003829 L173.512642,202.304188 C173.512642,202.304188 186.230335,192.651485 187.492091,184.899692 C188.76386,177.144897 192.83953,152.542165 178.599719,143.005579 C178.599719,143.005579 156.417859,159.150808 151.962661,160.683349 L163.678961,171.138859 L145.283369,178.315073 L140.696988,165.856549 C140.696988,165.856549 116.373148,176.066813 89.8963129,164.119804" id="Fill-319" fill="#15132A"></path>
                <path d="M97.7272075,62.1923415 C97.7071796,62.1573063 96.625675,60.1162545 93.9018856,58.0762037 C91.1780962,56.037154 86.8220359,54.0101163 80.3029664,54.0121169 C79.3616568,54.0121169 78.3602637,54.0551616 77.3188148,54.1472542 L77.3889123,54.90902 C78.4103333,54.8189294 79.3816847,54.7768871 80.3029664,54.7768871 C86.661813,54.7788891 90.8376225,56.7398604 93.4412447,58.6888196 C94.7430558,59.6637997 95.6443097,60.6367778 96.2251177,61.3625073 C96.5155217,61.7258726 96.7258143,62.0271754 96.8559954,62.2353847 C96.9260929,62.3394894 96.9761626,62.4205709 97.0062044,62.4736242 L97.0362462,62.5336846 L97.0462601,62.5497007 L97.7272075,62.1923415" id="Fill-320" fill="#E2952E"></path>
                <path d="M77.7794556,67.6238014 C69.8884775,70.4276199 62.5372503,74.5747889 55.8589593,79.5197598 C49.1396111,84.4347005 43.1312522,90.275572 38.0541888,96.8251559 C35.540692,100.122471 33.2675295,103.586953 31.1836303,107.161547 C29.1508022,110.768172 27.3693238,114.505929 25.8271783,118.342786 C22.7629152,126.033517 20.7701428,134.11364 19.5985128,142.325895 C17.1951692,158.757413 17.9462141,175.587331 21.2608255,191.888718 C22.8830824,200.052925 25.2363563,208.072987 28.1303826,215.89485 C30.9933656,223.726723 34.4391595,231.371408 38.6550247,238.607682 C29.5022912,224.547548 23.3136814,208.641559 19.5384292,192.25909 C19.0377326,190.213034 18.6672172,188.142953 18.2366181,186.077877 C17.9061584,183.998787 17.525629,181.925703 17.2752807,179.8336 C16.6744448,175.663408 16.343985,171.455177 16.1136646,167.246947 C15.7621756,158.822478 16.1136646,150.353965 17.3243489,141.997565 C18.5670778,133.657181 20.6099199,125.36985 23.8133766,117.53097 C25.4466489,113.62104 27.329268,109.819218 29.4522215,106.157537 C31.6052168,102.515877 34.0185744,99.0293717 36.6722663,95.7340591 C47.3571313,82.6609174 61.7171093,72.5007039 77.7794556,67.6238014" id="Fill-321" fill="#E2952E"></path>
                <path d="M142.679747,64.3084687 C146.565152,65.3014669 150.310363,66.8420155 153.905364,68.6448278 C157.499364,70.4446371 160.9752,72.512716 164.258768,74.8660817 L165.491483,75.7379581 L166.683141,76.6749 L169.056443,78.5577928 L171.329605,80.5578033 L172.461179,81.5638145 L175.705693,84.7530205 C176.396654,85.4867581 177.067588,86.2465218 177.748535,86.9922715 C179.150486,88.4597466 180.382199,90.0573526 181.653969,91.6369405 C186.670948,97.9953322 190.696549,105.10548 193.880979,112.544958 C197.045381,120.002455 199.288502,127.809303 200.930787,135.722257 C203.824813,151.626244 204.305482,167.905609 202.633155,183.905693 L201.941193,189.897717 C201.70186,191.894724 201.501581,193.893734 201.140078,195.871722 L200.169728,201.821703 C199.849282,203.802695 199.557877,205.78769 199.108251,207.74766 L197.836482,213.633577 C197.384854,215.588542 197.045381,217.567532 196.504629,219.503478 C195.51325,223.389384 194.491829,227.267282 193.460394,231.138173 C194.251495,227.206221 195.072637,223.284278 195.913807,219.372346 C196.374448,217.422386 196.624796,215.431384 196.985298,213.464407 L197.996705,207.54846 C198.377234,205.585487 198.627583,203.601492 198.897959,201.6195 L199.699073,195.679529 C200.009505,193.703542 200.159714,191.710539 200.339965,189.720539 L200.870703,183.756543 L201.000884,182.266045 L201.070982,180.770542 L201.190148,177.781537 L201.471539,171.80553 L201.451511,165.82752 C201.441497,163.834517 201.471539,161.841513 201.32133,159.855517 L201.000884,153.893524 C200.970843,152.896521 200.849674,151.909529 200.740522,150.919534 L200.420076,147.953552 C200.098629,143.984563 199.298516,140.085643 198.687666,136.159697 C197.105465,128.375872 194.912414,120.717173 191.878193,113.386804 C188.884027,106.042422 184.96858,99.083426 180.252018,92.7020112 C179.06036,91.1234243 177.878716,89.5218143 176.546863,88.0463311 C175.895958,87.2985794 175.26508,86.5338106 174.594147,85.794067 L172.531277,83.6529146 L171.489828,82.5798359 L170.408323,81.5618125 L168.215272,79.5337739 L165.932096,77.6188489 L164.780494,76.6658909 L163.587834,75.7659863 C160.464489,73.3065139 157.109822,71.1163123 153.624974,69.1803662 C150.130112,67.2584341 146.495055,65.5357024 142.679747,64.3084687" id="Fill-322" fill="#E2952E"></path>
                <path d="M129.801831,57.8339602 L129.841886,57.7829089 C130.082221,57.5156402 131.223809,56.2513693 133.096414,55.0621739 C134.979033,53.8719775 137.562628,52.7588585 140.707002,52.7588585 C141.00742,52.7588585 141.327866,52.7698696 141.638298,52.7918917 L141.698381,52.029125 C141.357908,52.0051008 141.027448,51.9940897 140.707002,51.9940897 C137.16207,51.9940897 134.288072,53.3344371 132.305313,54.6667764 C130.321554,55.9991158 129.230035,57.3284521 129.211009,57.3474712 L129.801831,57.8339602" id="Fill-323" fill="#E2952E"></path>
            </g>
            <g transform="translate(68.635399, 231.769823)" id="Halloween/Features/Lights">
                <path d="M28.5174348,6.67172148 C28.4974156,6.67868778 21.430617,9.58263815 14.3337896,14.1684515 C10.7803711,16.4633485 7.22695259,19.1772185 4.53436222,22.1806874 C1.85178148,25.1851515 0.0100096296,28.4991181 0,32.00217 C0,35.4624289 1.84177185,38.9973267 6.19596074,42.3829467 C11.1106889,46.2173952 17.0063607,47.5131263 23.4125237,47.5101407 C30.26912,47.5101407 37.7463133,46.0452281 45.4136896,44.5902674 C53.0910756,43.1343115 60.9586444,41.686317 68.5759726,41.686317 C78.2753037,41.6922881 87.5242015,44.0160456 95.5619341,51.6461304 C104.440476,60.0932622 117.873399,66.5470381 132.637602,70.9079396 C147.401806,75.2678459 163.5073,77.5279115 177.771022,77.5279115 C192.835515,77.5189548 205.828014,75.0290015 213.074986,69.6958041 C220.151794,64.4621252 226.507909,58.9139678 233.754881,54.6894067 C241.011862,50.4638504 249.149691,47.5479578 259.870004,47.5459674 C269.479249,47.5449722 281.180506,49.8985852 296.154912,55.8149611 C313.321427,62.5981433 328.796314,67.4904737 342.829815,67.4934593 C355.66216,67.5014207 367.29335,63.370407 377.733393,52.8921022 C388.183447,42.4157878 397.452364,25.6369656 405.780376,0.308507407 L404.829461,0 C396.531478,25.246853 387.302599,41.8893348 377.02271,52.1914919 C366.74282,62.4896681 355.451958,66.4913078 342.829815,66.4982741 C329.026536,66.5012596 313.651744,61.6626693 296.525268,54.8894389 C281.470785,48.9432074 269.649413,46.5507822 259.870004,46.5507822 C248.959508,46.5477967 240.611477,49.5393233 233.254399,53.8305619 C225.886311,58.1227956 219.511178,63.697823 212.474408,68.8966704 C205.577773,74.0029656 192.715399,76.541683 177.771022,76.5327263 C163.617406,76.5327263 147.581979,74.284603 132.917872,69.9555474 C118.253764,65.627487 104.950967,59.2075474 96.2525985,50.9266115 C88.0146733,43.0855474 78.4254481,40.6851607 68.5759726,40.6911319 C60.8385289,40.6911319 52.9109022,42.1560444 45.2335163,43.6120004 C37.5561304,45.0689515 30.1289852,46.5159507 23.4125237,46.5149556 C17.1364859,46.5129652 11.5010644,45.2560463 6.80654815,41.5997359 C2.6025037,38.3156248 1.01097259,35.09222 0.999962,32.00217 C0.999962,28.8643511 2.68258074,25.7494215 5.28508444,22.8434807 C9.17883037,18.48656 15.0945215,14.655097 20.0292689,11.9342607 C22.4916378,10.5718522 24.7137756,9.48511 26.3153163,8.7397163 C27.1160867,8.36751704 27.7667126,8.07891333 28.2071363,7.88584741 C28.6575696,7.69079111 28.8978007,7.59226778 28.8978007,7.59127259 L28.5174348,6.67172148" id="Fill-324" fill="#15132A"></path>
                <g id="Buld" transform="translate(7.877579, 46.395533)">
                    <polyline id="Fill-330" fill="#15132A" points="6.94668296 0 2.99287926 4.77788407 11.430997 7.48876852 11.1707467 1.29175037 6.94668296 0"></polyline>
                    <path d="M0,9.36071185 C0,6.11640815 2.64254222,3.4861337 5.90568148,3.4861337 C9.17883037,3.4861337 11.8213726,6.11640815 11.8213726,9.36071185 C11.8213726,12.6050156 9.17883037,15.23529 5.90568148,15.23529 C2.64254222,15.23529 0,12.6050156 0,9.36071185" id="Fill-332" fill="#FEEFBA"></path>
                    <path d="M10.3099185,7.21409741 C10.3099185,9.13978074 8.73840667,10.7002311 6.80654815,10.7002311 C4.86468,10.7002311 3.29316815,9.13978074 3.29316815,7.21409741 C3.29316815,5.28940926 4.86468,3.72895889 6.80654815,3.72895889 C8.73840667,3.72895889 10.3099185,5.28940926 10.3099185,7.21409741" id="Fill-333" fill="#F7C93E"></path>
                </g>
                <g id="Bulb" transform="translate(108.974838, 64.987583)">
                    <polyline id="Fill-383" fill="#15132A" points="6.94668296 0 2.98286963 4.77688889 11.4209874 7.48777333 11.160737 1.29075519 6.94668296 0"></polyline>
                    <path d="M0,9.35971667 C0,6.11640815 2.64254222,3.4861337 5.90568148,3.4861337 C9.16882074,3.4861337 11.810362,6.11640815 11.810362,9.35971667 C11.810362,12.6040204 9.16882074,15.2342948 5.90568148,15.2342948 C2.64254222,15.2342948 0,12.6040204 0,9.35971667" id="Fill-385" fill="#FEEFBA"></path>
                    <path d="M10.2999089,7.21310222 C10.2999089,9.13878556 8.73840667,10.6992359 6.79653852,10.6992359 C4.86468,10.6992359 3.29316815,9.13878556 3.29316815,7.21310222 C3.29316815,5.28841407 4.86468,3.7279637 6.79653852,3.7279637 C8.73840667,3.7279637 10.2999089,5.28841407 10.2999089,7.21310222" id="Fill-386" fill="#F7C93E"></path>
                </g>
                <g id="Bulb" transform="translate(231.191755, 53.575794)">
                    <polyline id="Fill-454" fill="#15132A" points="0.10075724 1.99335593 0.601238721 8.16350407 8.55889428 4.26934444 4.03354072 0 0.10075724 1.99335593"></polyline>
                    <path d="M1.66225946,13.5215811 C-0.599916835,11.1918526 -0.549868686,7.47384074 1.79238465,5.21576556 C4.13463798,2.95669519 7.87823946,3.01441593 10.1504254,5.34314926 C12.4226113,7.67287778 12.3625535,11.3918848 10.0203002,13.64996 C7.67804687,15.9090304 3.93444539,15.8513096 1.66225946,13.5215811" id="Fill-456" fill="#FEEFBA"></path>
                    <path d="M7.56794094,4.84655185 C8.90923131,6.22985926 8.87920242,8.43618481 7.48786391,9.77669926 C6.09652539,11.1162185 3.87438761,11.0823822 2.53209628,9.70007 C1.18179724,8.31875296 1.21182613,6.11143222 2.60316465,4.77091778 C3.99450317,3.43139852 6.21664094,3.46523481 7.56794094,4.84655185" id="Fill-457" fill="#F7C93E"></path>
                </g>
                <g id="Bulb" transform="translate(383.894837, 41.681341)">
                    <polyline id="Fill-494" fill="#15132A" points="0.103583734 1.99335593 0.605066179 8.16449926 8.56272173 4.26934444 4.03836914 0 0.103583734 1.99335593"></polyline>
                    <path d="M1.66608692,13.5215811 C-0.606099006,11.1928478 -0.546041229,7.47384074 1.7962121,5.21477037 C4.13846544,2.95769037 7.88206692,3.01441593 10.1532519,5.34314926 C12.4264388,7.67287778 12.366381,11.3918848 10.0241277,13.64996 C7.68187433,15.9080352 3.93727188,15.8513096 1.66608692,13.5215811" id="Fill-496" fill="#FEEFBA"></path>
                    <path d="M7.5717684,4.84754704 C8.91305877,6.22985926 8.88302988,8.43718 7.49169136,9.77669926 C6.10035285,11.1162185 3.87821507,11.0823822 2.5369247,9.70007 C1.1856247,8.31875296 1.21565359,6.11143222 2.6069921,4.77091778 C3.99833062,3.43040333 6.2204684,3.46523481 7.5717684,4.84754704" id="Fill-497" fill="#F7C93E"></path>
                </g>
                <path d="M42.9212919,43.9274741 C42.9212919,41.0394467 45.2835644,38.6987711 48.186357,38.6987711 C51.0891496,38.6987711 53.4414126,41.0394467 53.4414126,43.9274741 C53.4414126,46.8145063 51.0891496,49.156177 48.186357,49.156177 C45.2835644,49.156177 42.9212919,46.8145063 42.9212919,43.9274741" id="Fill-498" fill="#FFFFFE"></path>
                <path d="M82.077962,45.6700433 C82.077962,42.7830111 84.4312259,40.4413404 87.3330176,40.4413404 C90.2368111,40.4413404 92.5880731,42.7830111 92.5880731,45.6700433 C92.5880731,48.5570756 90.2368111,50.8987463 87.3330176,50.8987463 C84.4312259,50.8987463 82.077962,48.5570756 82.077962,45.6700433" id="Fill-499" fill="#FFFFFE"></path>
                <path d="M148.492856,74.5254378 C148.492856,71.6374104 150.855128,69.2957396 153.757921,69.2957396 C156.660713,69.2957396 159.012976,71.6374104 159.012976,74.5254378 C159.012976,77.41247 156.660713,79.7541407 153.757921,79.7541407 C150.855128,79.7541407 148.492856,77.41247 148.492856,74.5254378" id="Fill-500" fill="#FFFFFE"></path>
                <path d="M201.8632,71.8135581 C201.8632,68.9255307 204.216464,66.5858504 207.129266,66.5858504 C210.032059,66.5858504 212.384321,68.9255307 212.384321,71.8135581 C212.384321,74.7015856 210.032059,77.0422611 207.129266,77.0422611 C204.216464,77.0422611 201.8632,74.7015856 201.8632,71.8135581" id="Fill-501" fill="#FFFFFE"></path>
                <path d="M266.926793,48.1878619 C266.926793,45.2998344 269.279056,42.9581637 272.181849,42.9581637 C275.084641,42.9581637 277.436904,45.2998344 277.436904,48.1878619 C277.436904,51.0758893 275.084641,53.4165648 272.181849,53.4165648 C269.279056,53.4165648 266.926793,51.0758893 266.926793,48.1878619" id="Fill-502" fill="#FFFFFE"></path>
                <path d="M321.849631,65.61654 C321.849631,62.7295078 324.201894,60.387837 327.114696,60.387837 C330.017489,60.387837 332.369752,62.7295078 332.369752,65.61654 C332.369752,68.5045674 330.017489,70.8462381 327.114696,70.8462381 C324.201894,70.8462381 321.849631,68.5045674 321.849631,65.61654" id="Fill-503" fill="#FFFFFE"></path>
            </g>
        </g>
        <g id="Group" transform="translate(375.000000, 0.564000)">
            <g id="Halloween/Creatures/Bat" transform="translate(185.000000, 114.000000) scale(-1, 1) translate(-185.000000, -114.000000) ">
                <path d="M76.3202457,7.1293763 C97.3413107,-0.189075834 119.266923,-1.17538703 139.3061,1.46015035 C140.017095,1.55365999 140.704449,1.64969058 141.367364,1.74755409 L142.660371,1.94552117 C142.870362,1.97885504 143.077579,2.01234162 143.281992,2.0459554 L144.474584,2.24896081 L145.599591,2.45396746 L146.737924,2.67772513 L147.247189,2.78597559 L147.3874,2.81722855 C153.38054,4.17106963 157.485454,9.67206005 157.10975,15.774099 L156.91491,18.2824842 L156.790457,20.0220181 L156.648425,22.1377212 L156.507084,24.3917035 L156.413739,25.9693405 L156.275794,28.4455098 L156.127539,31.3266503 L155.989417,34.2640714 L155.86197,37.2557903 L155.74574,40.2998239 L155.641271,43.3941894 C155.624869,43.9140012 155.60898,44.4358275 155.593615,44.959627 L155.507803,48.1257725 C155.494579,48.6572997 155.481901,49.1907175 155.469781,49.7259847 L155.403847,52.9594486 L155.351842,56.2353128 C155.298333,60.0501791 156.307404,64.3274826 158.252798,68.8868505 L158.50084,69.4582275 L158.673,69.843 L158.982415,68.9437694 L159.544238,67.3318179 C159.640458,67.0578324 159.737969,66.781162 159.836772,66.5017746 L160.760876,63.9130636 L161.353477,62.2754286 L162.304918,59.682569 L163.097844,57.5513732 L163.81881,55.6339231 L164.462987,53.9353058 L164.782067,53.0986323 C166.108405,49.6270158 167.492245,46.080299 168.900894,42.5291055 L169.748799,40.3984171 L171.128969,36.9588851 L173.713167,30.6198622 L173.870012,30.2553447 C179.120889,18.4975024 196.696039,21.51691 197.719835,34.3505282 L197.745763,34.7424246 L198.235,44.05 L198.508494,44.070587 C202.347816,44.3769548 206.089074,45.1802167 209.6567,46.4426999 L210.367888,46.7013083 L210.624,46.799 L213.538101,40.4354414 C217.787323,31.1565956 229.30253,31.255037 234.630416,37.6426301 L234.806,37.859 L234.929459,37.810882 C238.287938,36.4976312 242.073825,35.781533 246.238869,35.7299942 L246.984,35.728 L247.354173,35.057118 C248.126585,33.6766886 248.957139,32.3080771 249.849124,30.9613416 L250.391713,30.1560059 L250.949204,29.3564033 C251.140672,29.0864559 251.333719,28.8189138 251.528344,28.5538232 L252.116943,27.7659513 C260.917909,16.1896355 272.835025,9.55875293 287.603071,11.9278121 C300.988776,14.0752184 310.045084,18.3632956 316.203331,26.2168236 C319.611595,30.5633362 321.638517,34.9378743 323.342868,41.409414 L323.501738,42.0223275 L323.597,42.402 L323.653516,42.4131321 C325.689074,42.8365726 327.636277,43.4804877 329.490471,44.4165867 L329.99385,44.6791846 L330.492597,44.9565941 C334.641745,47.3380079 337.781382,51.0817075 339.127781,55.9669909 C340.569395,61.2287603 340.959003,65.5776699 340.460891,69.1104274 L340.388,69.577 L340.784297,69.9931826 C342.039835,71.3239 343.261332,72.682569 344.447378,74.0695514 L345.330243,75.1151026 L346.055713,75.9945302 C355.113416,87.0884304 361.153577,102.644707 365.034168,121.639077 C367.310376,132.780451 368.724484,144.5868 369.456933,156.509352 L369.551884,158.121145 L369.636983,159.700835 L369.712541,161.247279 L369.77887,162.759337 L369.83628,164.235866 L369.885083,165.675725 L369.92559,167.077772 L369.958113,168.440866 L369.992608,170.409972 L370.006533,171.670687 L370.014009,172.888454 L370.014009,174.06213 L370.003015,175.737476 L369.978755,177.22848 C369.70603,187.603185 357.670909,193.103263 349.659168,186.649052 L349.187473,186.262779 L348.661286,185.847671 L347.85417,185.231886 L347.255175,184.788363 C347.151381,184.712395 347.045628,184.635434 346.937945,184.557526 C344.743854,182.970121 342.283934,181.3735 339.649425,179.892172 C332.504581,175.874782 325.571209,173.553616 319.82948,173.593391 C317.884236,173.606867 316.118176,173.891937 314.502921,174.451991 C307.614867,176.836949 301.603242,181.245966 296.544419,186.981021 C294.695014,189.077644 293.104693,191.206958 291.784395,193.250381 C291.396128,193.8513 291.055087,194.408348 290.76163,194.912744 L290.458497,195.444937 L290.237672,195.851414 L290.105142,196.112246 C285.540954,204.857783 273.065118,205.087049 268.182326,196.516309 L267.579896,195.439927 L267.131772,194.666903 L266.63768,193.835762 C266.465539,193.549666 266.286064,193.254839 266.099579,192.952236 C264.503111,190.361694 262.749265,187.775592 260.926927,185.412146 C260.738791,185.168145 260.551365,184.928672 260.364875,184.693881 L259.808434,184.003718 C259.255248,183.327918 258.712495,182.695682 258.186227,182.111248 L257.665678,181.542906 C256.89377,180.714764 256.163491,179.997358 255.495262,179.404995 L255.059193,179.028768 C254.348479,178.43312 253.719973,177.995772 253.201689,177.736348 L253.026,177.652 L252.882151,177.622275 C249.458128,176.993305 242.773866,179.129826 237.242645,182.002534 L236.478774,182.40795 L235.767707,182.802396 C228.720241,186.980537 219.655779,183.358723 217.389766,175.539086 L217.142057,174.648099 L216.995515,174.138993 C216.912703,173.854166 216.825535,173.559181 216.7341,173.254822 L216.447088,172.314401 L216.135021,171.322431 C216.080953,171.153067 216.025862,170.981752 215.969762,170.808583 C215.597555,169.659657 215.207928,168.511783 214.802682,167.375682 L214.392295,166.243903 L214.105,165.479 L213.775307,166.00019 C212.644235,167.762729 211.453617,169.428604 210.205229,170.984798 L209.666674,171.644985 L209.230757,172.163312 C206.418003,175.467012 203.359223,178.460443 200.126793,181.036664 L199.431498,181.582287 L199.129,181.813 L199.253263,181.8647 C199.922153,182.146003 200.578628,182.451518 201.222316,182.782682 L201.861726,183.122449 L202.367061,183.406789 C207.530021,186.385707 211.348446,190.956381 212.986044,196.907016 C215.293587,205.302092 215.794272,211.815763 214.931833,216.733114 L214.864601,217.098927 L214.777431,217.528282 C214.612975,218.296873 214.415819,219.003439 214.191531,219.647956 L214.053746,220.027221 L213.88652,220.447334 L213.830942,220.578285 C211.876478,225.112187 207.442225,228.061381 202.525383,228.129124 L202.204056,228.129124 L33.3150558,226.129124 C26.8681143,226.052778 21.5369001,221.085556 21.0055875,214.660092 L20.9693067,214.13419 L20.94645,213.686102 C20.6678934,207.443681 21.475123,200.123124 24.404987,192.748508 C30.9207691,176.347953 45.4191517,167.195017 66.725929,168.799351 L67.3736717,168.851264 L67.98,168.905 L68.0442084,168.771815 C70.1704534,164.35708 72.6422593,159.963385 75.488478,155.733943 L76.1519572,154.760899 L76.816,153.811 L76.652744,153.836187 C69.5192912,154.835562 62.4264756,149.356481 62.4321393,141.45878 L62.4357809,141.157713 L62.4449432,140.884744 L62.448791,140.539724 L62.4465247,140.122427 L62.4362571,139.640938 L62.403293,138.803324 C62.3983376,138.702801 62.3929269,138.59984 62.3870365,138.494489 C62.2960966,136.868007 62.1100109,135.089318 61.8068074,133.206357 C60.9859527,128.108669 59.451818,123.08857 57.0782806,118.497489 C55.5504157,115.542173 53.708767,112.838396 51.5254629,110.416022 C48.7228183,107.304643 44.1942362,105.126653 38.1431087,103.968185 C31.9228496,102.777338 24.9500055,102.799744 18.4260302,103.584892 L17.6182139,103.686771 L16.8662935,103.790558 L16.172809,103.894919 L15.1545234,104.067258 C4.97884966,106.102393 -3.05369021,95.5893138 1.46038571,86.3456162 L1.6329826,86.0044119 L2.21293019,84.9093698 L3.17298784,83.1446124 L3.74592433,82.110838 L4.5407954,80.6959026 L5.37532629,79.2325343 L6.24899858,77.7228751 L7.16129383,76.1690668 C7.4717718,75.6440104 7.78860053,75.1119528 8.1116936,74.573251 C12.551602,67.1704715 17.4814549,59.6550799 22.8244885,52.37842 L23.3731013,51.633967 L24.4717437,50.1594338 C24.6550092,49.9152846 24.8383542,49.6719418 25.0217792,49.4294101 L26.1232935,47.9839899 C29.2469931,43.9164223 32.3940982,40.085974 35.5669976,36.5158048 L36.6879194,35.2665902 C47.9079256,22.8832732 59.4527462,13.7761284 71.4274069,8.96338101 C73.0404719,8.31439696 74.6717015,7.7033145 76.3202457,7.1293763 Z" id="Sticker" fill="#FFFFFF" fill-rule="nonzero"></path>
                <path d="M230.153072,67.03 C230.153072,67.03 228.163072,43.09 254.583072,49.2 C254.583072,49.2 263.992072,20.8 285.623072,24.27 C307.253072,27.74 310.063072,36.49 313.363072,54.48 C313.363072,54.48 325.253072,52.67 327.072072,59.27 C328.883072,65.88 327.893072,68.19 327.893072,68.19 L230.153072,67.03" id="Cloud" fill="#FFF7D4"></path>
                <g id="Bat" transform="translate(12.703072, 12.696849)">
                    <path d="M63.39,7.86315055 C96.87,-5.60684945 131.93,2.31315055 131.93,2.31315055 C131.93,2.31315055 131.92768,2.34003055 131.923204,2.39319215 L131.914895,2.49257095 C131.760032,4.35597055 130.4602,20.5681505 130.15,43.3631505 C129.851802,64.6228916 150.114862,85.8057106 155.101974,90.6931135 C155.64433,90.262678 156.136992,89.9052905 156.561393,89.61434 C154.861065,85.4629297 153.96,80.7640095 153.96,75.7531505 C153.96,72.2400505 157.39914,61.9392715 161.31976,51.3377897 L161.86965,49.8572143 C166.9335,36.2793505 172.56,22.7031505 172.56,22.7031505 L172.56,22.7031505 L173.73,44.9131505 C176.45,44.1531505 179.31,43.7331505 182.27,43.7331505 C190.45,43.7331505 197.899,46.8431505 203.499,51.9431505 L203.499,51.9431505 L212.2,32.9431505 L212.2,32.9431505 L212.199041,32.9870785 C212.1838,33.6854765 211.9894,42.6045005 211.795,52.0569005 L211.770713,53.2406725 L211.770713,53.2406725 L211.734452,55.0194493 C211.554025,63.9070505 211.39,72.5596505 211.39,74.6431505 C211.39,84.0531274 207.975975,92.6869243 202.090515,98.6372958 C202.213559,99.2592599 202.313715,99.9284291 202.391569,100.638686 C207.733791,99.0680382 237.693721,89.515263 248.07,70.0631505 C259.48,48.6631505 266.33,33.2531505 266.33,33.2531505 C266.33,33.2531505 300.85,43.2431505 323.67,71.2031505 C346.49,99.1531505 344.78,164.203151 344.78,164.203151 C344.78,164.203151 319.11,142.523151 297.71,149.943151 C276.95103,157.130851 266.93902,176.409116 266.356982,177.559343 L266.332995,177.607106 C266.330998,177.611125 266.33,177.613151 266.33,177.613151 C266.33,177.613151 254.34,155.363151 243.22,152.793151 C232.09,150.223151 216.69,159.353151 216.69,159.353151 C216.69,159.353151 209.19911,131.174046 199.00869,127.213172 C196.381391,136.190805 192.343394,145.107684 187.01,151.363151 C173.89,166.773151 149.36,178.183151 141.94,139.383151 C140.123778,129.885924 140.170889,121.995598 141.27796,115.494537 C130.489546,116.383583 114.52,136.713151 114.52,136.713151 C114.52,136.713151 105.43,121.283151 94.45,118.153151 C83.47,115.033151 62.23,128.733151 62.23,128.733151 C62.23,128.733151 63.27,106.173151 48.11,89.3531505 C32.95,72.5231505 0,79.1131505 0,79.1131505 C0,79.1131505 0.00299,79.1073715 0.00894369,79.0959157 L0.08001963,78.9598748 C1.797231,75.6856475 30.9047,20.9193505 63.39,7.86315055 Z" id="Skin" fill="#2A161C"></path>
                    <path d="M129.25,75.1231505 C129.25,75.1231505 112.05,109.283151 114.32,119.343151 C114.32,119.343151 93.71,101.783151 79.36,105.933151 L79.4082858,105.877315 C80.97618,104.067843 120.2634,58.9923505 129.25,75.1231505 Z M118.23,9.42315055 C118.23,9.42315055 92.84,31.2631505 82.85,54.1031505 C72.87,76.9431505 68.08,113.393151 68.08,113.393151 C68.08,113.393151 61.67,85.4231505 45.68,76.6131505 C32.0885,69.1161505 23.6701,68.4756755 21.4503888,68.4522155 L21.1783062,68.4523525 C20.966843,68.4550435 20.86,68.4631505 20.86,68.4631505 L20.9085951,68.3787118 C22.49282,65.6406545 62.6542,-2.68964945 118.23,9.42315055 Z M233.52,98.3031505 C233.52,98.3031505 232.09,136.533151 225.24,144.233151 C225.24,144.233151 251.78,138.813151 262.33,149.373151 C262.33,149.373151 249.49,88.3131505 233.52,98.3031505 M274.89,46.0931505 C274.89,46.0931505 286.58,77.4731505 284.3,102.293151 C282.02,127.113151 268.61,161.353151 268.61,161.353151 C268.61,161.353151 287.72,139.953151 305.98,139.953151 C324.24,139.953151 331.66,144.803151 331.66,144.803151 C331.66,144.803151 330.52,62.6431505 274.89,46.0931505" id="Wings" fill="#411F29"></path>
                    <path d="M166.2,59.0131505 L178.16,66.9831505 C178.16,66.9831505 164.53,75.3831505 166.2,59.0131505 M202.7,66.9931505 L188.55,69.5231505 C188.55,69.5231505 197.69,82.6631505 202.7,66.9931505" id="Eyes" fill="#D9282A"></path>
                </g>
                <path d="M33.4630717,213.63 C33.4630717,213.63 30.0430717,172.27 75.6830717,182.82 C75.6830717,182.82 91.9430717,133.75 129.323072,139.74 C166.693072,145.73 171.543072,160.85 177.253072,191.95 C177.253072,191.95 197.793072,188.81 200.933072,200.22 C204.072072,211.64 202.352072,215.63 202.352072,215.63 L33.4630717,213.63" id="Cloud" fill="#FFF7D4"></path>
            </g>
        </g>
        <g id="Group" transform="translate(376.000000, 362.339000)">
            <g id="Halloween/Creatures/Spider" transform="translate(161.000000, 120.500000) scale(1, -1) translate(-161.000000, -120.500000) ">
                <path d="M307.947972,135.72003 L307.661701,135.662141 L307.577494,135.622988 C307.287818,135.501081 306.909454,135.301949 306.466813,135.024472 C304.707401,133.924829 302.441606,131.926417 300.01145,129.295174 L299.344862,128.562071 C299.009787,128.187875 298.672235,127.802361 298.333071,127.406203 L297.821981,126.803734 C295.274187,123.770534 292.673229,120.23044 290.112982,116.385446 L289.358,115.24 L290.120378,115.458689 C291.480523,115.841039 292.856579,116.189178 294.248751,116.501813 C303.216991,118.51263 312.140907,112.877779 314.147393,103.888724 C316.126617,95.0217989 310.635614,86.2107118 301.836441,84.0694187 L301.520786,83.9957909 C293.479643,82.2034455 285.679835,78.0257173 278.708872,72.386983 C276.202005,70.3636272 273.986444,68.2969035 272.122819,66.3385188 L271.650565,65.8395963 L271.224895,65.3794702 L270.678534,64.7699748 L270.13133,64.1265797 L270.044236,64.0178751 L269.89946,63.8439737 C269.827069,63.7570194 269.753501,63.6710519 269.678775,63.5860951 C266.070596,59.4838788 260.676173,57.4090652 255.232106,58.0517677 C249.619434,58.7190043 244.737692,62.1679735 242.245075,67.2267732 L241.910256,67.9204899 C241.361996,69.0041335 240.622373,70.0790624 239.694927,71.1360533 L239.475,71.379 L239.272303,70.9427382 C229.782614,50.8745414 212.540232,35.0348073 190.736716,27.5695367 L189.896769,27.2868507 C167.758973,19.9651369 144.128061,22.3033091 124.272886,32.8983885 L123.712,33.2 L123.676042,33.0085576 C123.446201,31.7262036 123.325739,30.4916117 123.327606,29.3357546 C123.327623,28.1828174 123.441363,27.1176755 123.666783,26.1258246 C124.947348,20.4833377 123.217009,14.5979787 119.089382,10.5504997 C115.237181,6.73548548 109.715758,5.0573808 104.344962,6.07097931 L103.996725,6.14184097 L103.208193,6.31605099 L102.6737,6.42237219 L102.330067,6.48655075 L101.595523,6.61479258 C101.340372,6.65738275 101.075052,6.69972815 100.799969,6.74156583 L99.9458374,6.86529268 C96.9978037,7.2717126 93.7561527,7.51556076 90.3476228,7.51556076 C82.1057914,7.51556076 74.1600452,6.09634498 67.2590742,2.98926695 L66.6151919,2.69302528 C58.3003814,-1.22453521 48.396163,2.35336369 44.4697887,10.6468277 C40.5563618,19.0380081 44.1366532,28.9612379 52.4845363,32.8542411 L53.2649857,33.215282 C54.3071981,33.6905668 55.3558326,34.1414871 56.4105167,34.568619 L57.088,34.839 L56.554848,35.0228898 C52.4740066,36.4130837 48.5207428,37.5769185 44.8599407,38.4365981 C40.2966427,39.508214 36.2630974,40.0755608 33.2876228,40.0755608 C32.1921583,40.0755608 31.2427975,39.994347 30.5113367,39.8578077 C30.4227538,39.840316 30.3139551,39.8139775 30.2137349,39.7860624 L30.077,39.745 L30.1911078,39.8035708 C22.0305364,35.5632739 11.9863888,38.7422714 7.73725934,46.8797552 C3.50539486,55.101191 6.67967264,65.1304267 14.8341378,69.3675507 C17.7747037,70.8922938 20.9181242,71.9271807 24.284149,72.5781571 C27.1669989,73.1330768 30.1463096,73.3855608 33.2876228,73.3855608 L34.077848,73.3789855 C39.8890425,73.2934987 46.0595329,72.3900603 52.7660282,70.7972676 L53.652,70.582 L53.0026148,71.2752916 L52.1523267,72.1632352 L51.2015421,73.1360083 L50.435731,73.9051762 C47.414356,76.9156199 44.1158193,79.9106397 40.6806428,82.6693623 C36.2821023,86.2056315 31.8583471,89.1693296 27.7607557,91.2488189 C23.7608657,93.2824042 20.1749167,94.4057343 17.4249715,94.5881389 L17.0990179,94.605509 C7.88998911,94.9658584 0.72731434,102.750293 1.12952392,111.960893 C1.48908347,121.11271 9.27144506,128.285909 18.4829546,127.88366 C26.7639529,127.530506 34.9080668,125.024625 43.1807843,120.773555 L44.092737,120.2985 C51.3746655,116.451895 58.3299718,111.500607 65.1023208,105.692064 L65.675,105.197 L66.1927495,105.654882 C66.7186837,106.114902 67.2532863,106.572619 67.7962325,107.028181 L68.655,107.74 L68.6420098,107.742831 C62.36775,108.617774 56.9553675,113.047604 55.0267161,119.370208 L54.9198279,119.731135 L54.811146,120.117385 L54.7241292,120.402256 L54.5921405,120.814427 L54.3830899,121.431791 L54.1423892,122.102335 C54.0996125,122.21833 54.0555004,122.336395 54.0100443,122.456458 C53.2236166,124.533644 52.2227461,126.720244 51.0047587,128.884043 C49.4558121,131.627126 47.6686454,134.14749 45.6781326,136.301048 C43.5834856,138.56727 41.316239,140.400799 38.8607475,141.770827 L38.3671346,142.038644 C30.2135236,146.37643 27.1034329,156.45015 31.4321975,164.586624 C35.7021293,172.687721 45.7754954,175.789127 53.9061873,171.503492 C60.1492504,168.215796 65.6245283,163.857021 70.357118,158.675651 L70.9460681,158.022172 C74.8183711,153.670813 78.0286279,148.968352 80.6827353,144.0529 L81.128,143.214 L89.142,144.79 L89.2846253,145.069059 C92.1415055,150.61087 95.6049996,155.815765 99.6088231,160.582929 L100.044,161.096 L99.8713987,161.322903 C97.0904662,165.003188 94.8761809,169.14244 93.3410358,173.628112 L93.1740484,174.125589 C88.5879331,188.059754 91.2816342,203.067941 99.852652,214.426332 L100.208,214.89 L100.553853,221.662341 L100.575882,222.009113 C101.328076,231.888824 112.406206,236.498487 119.883517,231.528116 L120.062,231.405 L120.117393,231.565662 C123.094818,239.841614 134.630217,243.108992 141.310857,235.481408 L145.542,230.65 L146.02121,230.528779 C160.107175,226.884559 171.78112,216.415248 176.67201,202.149431 L176.870162,201.557303 C178.162272,197.604439 178.876471,193.5465 179.025612,189.490355 L179.041,188.965 L179.116435,188.951913 C185.33029,187.777825 191.39632,185.901165 197.195135,183.36076 L197.825,183.08 L203.953,186.156 L203.933889,186.266221 C203.183686,190.515123 202.767623,194.895055 202.767623,199.405561 C202.767623,208.342277 204.416621,217.021377 208.125279,225.192015 C211.889061,233.560604 221.791708,237.288074 230.18016,233.475142 C238.44744,229.717287 242.176682,220.041376 238.591633,211.726602 L238.457204,211.423024 C236.846,207.872173 236.077623,203.829459 236.077623,199.405561 C236.070905,195.572111 236.65365,191.661377 237.612847,188.076499 L237.727671,187.650659 L237.958653,186.837419 C238.151335,186.181868 238.343597,185.583019 238.528623,185.050806 L238.874,184.099 L238.969984,183.877868 L239.124724,183.494801 C239.1633,183.398221 239.20067,183.301163 239.236824,183.20365 L239.355875,182.872 C241.432097,176.892775 239.913407,170.414337 235.767272,165.996477 L235.54,165.76 L235.94109,165.749044 C236.882048,165.720299 237.806639,165.680225 238.715849,165.628001 L239.465,165.581 L239.578975,166.149226 C239.854031,167.494056 240.149067,168.844402 240.464974,170.197502 C242.292372,177.976681 244.632774,185.137197 247.692649,191.686588 C251.648448,200.140081 256.537651,207.097554 262.874054,212.446941 C269.898946,218.387998 280.423925,217.493313 286.354649,210.44056 C292.203107,203.525229 291.407463,193.182041 284.604287,187.211909 L284.332622,186.978535 C282.159883,185.151206 279.880121,181.904165 277.883277,177.607454 C275.003903,171.455282 272.817339,163.545528 271.425784,155.240025 C270.952089,152.442163 270.595115,149.771614 270.353401,147.414985 L270.221826,146.105876 L270.175,145.603 L270.670314,146.223189 C273.432246,149.657419 276.241894,152.780102 279.118567,155.561678 C282.354664,158.664755 285.495742,161.198083 288.799805,163.260017 C292.885986,165.819683 297.080586,167.589572 301.568893,168.417951 C310.639748,170.063608 319.289889,164.09501 320.967203,155.069465 C322.596228,146.090595 316.778112,137.542613 307.947972,135.72003 Z" id="Sticker" fill="#FFFFFF" fill-rule="nonzero"></path>
                <path d="M61.2976228,14.0055608 C71.3176228,18.7155608 81.9076228,20.0155608 90.3476228,20.0155608 C99.4704799,20.0155608 106.017111,18.5046915 106.413269,18.4090708 L106.427623,18.4055608 L106.663093,18.3541496 C107.999598,18.1019188 109.364845,18.5122274 110.337623,19.4755608 C111.367623,20.4855608 111.797623,21.9455608 111.477623,23.3555608 C111.027623,25.3355608 110.827623,27.3355608 110.827623,29.3155608 C110.817623,35.5055608 112.797623,41.6255608 114.877623,46.1855608 C116.027783,48.7248037 117.196467,50.7793435 118.011434,52.109025 C136.470825,36.7110589 162.285663,31.0406132 186.687623,39.3955608 C210.770028,47.6410964 227.573287,67.5206791 232.964065,90.607305 C233.539792,90.3546574 234.161632,90.0708714 234.817623,89.7555608 C238.437623,88.0255608 243.057623,85.3155608 246.957623,81.5955608 C249.567623,79.1155608 251.847623,76.2055608 253.417623,72.8355608 C254.027623,71.5255608 255.267623,70.6355608 256.697623,70.4655608 C258.061833,70.3045081 259.399119,70.8255608 260.292847,71.8416593 L260.437623,72.0155608 L260.457623,72.0455608 L260.567623,72.1755608 C260.677623,72.3055608 260.837623,72.4955608 261.057623,72.7555608 C261.497623,73.2655608 262.177623,74.0255608 263.067623,74.9555608 C264.837623,76.8155608 267.477623,79.3855608 270.847623,82.1055608 C277.597623,87.5655608 287.267623,93.6255608 298.797623,96.1955608 C301.037623,96.6955608 302.447623,98.9255608 301.947623,101.165561 C301.447623,103.405561 299.217623,104.805561 296.987623,104.305561 C283.717623,101.325561 273.037623,94.5555608 265.627623,88.5755608 C260.687623,84.5822274 258.112123,82.2575664 257.901124,81.6015777 C256.326618,83.8454593 254.550937,85.8435836 252.697623,87.6155608 C249.497623,90.6555608 246.057623,93.0355608 242.897623,94.8855608 C239.578997,96.8148725 236.55447,98.1587356 234.397559,99.010815 C235.040277,104.838341 234.961489,110.799 234.103491,116.767511 C234.639299,116.598581 235.210347,116.417753 235.807623,116.225561 C239.857623,114.935561 245.127623,113.135561 249.957623,111.175561 C253.167623,109.865561 256.187623,108.465561 258.427623,107.165561 C259.707623,106.435561 260.737623,105.715561 261.337623,105.175561 C261.667623,104.895561 261.867623,104.665561 261.937623,104.565561 C262.787623,103.395561 264.197623,102.745561 265.637623,102.865561 C267.001833,102.969771 268.231418,103.756087 268.909744,104.943919 L269.017623,105.145561 L269.037623,105.175561 L269.107623,105.315561 C269.167623,105.445561 269.267623,105.635561 269.397623,105.885561 C269.542067,106.163339 269.723549,106.512104 269.942067,106.924998 L270.222067,107.450815 C270.321326,107.636055 270.426512,107.831116 270.537623,108.035561 C271.537623,109.885561 272.987623,112.495561 274.787623,115.505561 C278.387623,121.525561 283.387623,129.175561 288.837623,135.535561 C292.467623,139.775561 296.307623,143.415561 299.827623,145.615561 C301.837623,146.875561 303.717623,147.655561 305.337623,147.945561 C307.587623,148.365561 309.087623,150.525561 308.677623,152.785561 C308.257623,155.045561 306.097623,156.535561 303.837623,156.125561 C300.857623,155.575561 298.067623,154.315561 295.417623,152.655561 C292.757623,150.995561 290.237623,148.905561 287.807623,146.575561 C282.967623,141.895561 278.497623,136.195561 274.637623,130.625561 C269.490956,123.218894 265.939922,117.516581 263.98452,113.518622 C262.639612,114.374259 261.157238,115.189209 259.567623,115.975561 C255.817623,117.835561 251.457623,119.575561 247.277623,121.105561 C240.599221,123.534071 234.386679,125.394614 232.127021,126.049943 C231.777688,127.291011 231.390631,128.530097 230.967623,129.765561 C229.13117,135.130656 226.717616,140.134257 223.820061,144.730787 C226.041101,144.867267 228.961727,144.995561 232.087623,144.995561 C235.027623,144.995561 238.157623,144.885561 241.017623,144.555561 C243.867623,144.245561 246.457623,143.705561 248.207623,143.005561 C249.294051,142.587704 250.018337,142.109489 250.340447,141.803108 L250.559766,141.583591 C251.700269,140.502631 253.375014,140.160778 254.857623,140.715561 C256.340231,141.270343 257.374523,142.621118 257.540422,144.181533 L257.557623,144.395561 L257.557623,144.445561 L257.567623,144.605561 C257.577623,144.765561 257.587623,144.995561 257.607623,145.305561 C257.657623,145.915561 257.727623,146.825561 257.847623,147.975561 C258.067623,150.265561 258.457623,153.525561 259.097623,157.305561 C260.367623,164.885561 262.667623,174.585561 266.547623,182.875561 C269.117623,188.405561 272.387623,193.265561 276.287623,196.545561 C278.047623,198.025561 278.267623,200.645561 276.787623,202.395561 C275.307623,204.155561 272.687623,204.375561 270.937623,202.895561 C265.737623,198.505561 261.937623,192.635561 259.017623,186.395561 C256.097623,180.145561 254.077623,173.485561 252.637623,167.355561 C251.203021,161.21085 250.359706,155.599556 249.874189,151.512432 C248.169812,151.827851 246.607623,152.108894 245.187623,152.355561 C240.937623,153.095561 236.307623,153.305561 232.087623,153.305561 C224.837623,153.305561 218.827623,152.665561 218.737623,152.655561 C218.523583,152.63303 218.315008,152.594549 218.112964,152.541423 C214.511812,156.821307 210.442261,160.625935 206.010893,163.903481 L225.487623,173.685561 C227.394074,174.643625 228.251619,176.875363 227.516467,178.858167 L227.437623,179.055561 L227.407623,179.105561 C227.387623,179.155561 227.347623,179.245561 227.297623,179.375561 C227.207623,179.615561 227.057623,179.995561 226.877623,180.505561 C226.517623,181.505561 226.027623,182.995561 225.537623,184.845561 C224.547623,188.545561 223.567623,193.715561 223.577623,199.405561 C223.577623,204.905561 224.477623,210.865561 227.077623,216.595561 C228.027623,218.685561 227.097623,221.145561 225.007623,222.095561 C222.917623,223.045561 220.447623,222.115561 219.507623,220.025561 C216.307623,212.975561 215.267623,205.805561 215.267623,199.405561 C215.267623,192.994526 216.311713,187.338593 217.391807,183.157823 L217.507623,182.715561 L218.543041,179.492354 L197.864214,169.114678 C187.856084,174.600535 176.556658,177.681297 164.91948,177.890187 C167.044686,184.226497 167.179272,191.286648 164.847623,198.095561 C160.683063,210.242807 149.846756,218.212061 137.837052,219.304206 C138.102262,219.623558 138.263798,219.832176 138.312198,219.895335 L138.327623,219.915561 L131.907623,227.245561 L132.697623,219.945561 L130.271383,219.073605 C128.438104,218.793544 126.604056,218.347204 124.787623,217.725561 C122.661171,216.997819 120.662919,216.065457 118.807304,214.957992 L117.907623,214.635561 L113.037623,221.025561 L112.473621,209.968587 C104.405759,201.72331 101.176881,189.336452 105.167623,177.675561 C107.56794,170.661867 112.194289,165.041026 117.987522,161.332592 C109.025508,153.840372 102.131817,144.297669 97.7805229,133.676115 C97.523217,133.674583 97.2608991,133.648216 96.9976228,133.595561 C86.6962816,131.569822 78.9702758,130.050518 73.8196052,129.037649 L73.8426075,129.04182 L73.8419531,129.060128 C73.8086336,129.28621 73.2109994,130.696937 72.0490505,133.292311 L71.9176228,133.585561 C69.7776228,138.345561 66.3576228,144.515561 61.1276228,150.245561 C57.6476228,154.055561 53.3376228,157.675561 48.0776228,160.445561 C46.0476228,161.515561 43.5376228,160.745561 42.4676228,158.715561 C41.3876228,156.685561 42.1676228,154.175561 44.1976228,153.095561 C48.4076228,150.875561 51.9276228,147.955561 54.8576228,144.785561 C57.7876228,141.615561 60.1076228,138.185561 61.8976228,135.015561 C65.4776228,128.655561 66.8976228,123.315561 66.9276228,123.205561 L66.9276228,123.205561 L66.9276228,123.215561 L66.9828297,123.017309 C67.6001618,120.993539 69.6551228,119.748998 71.7476228,120.165561 L71.7476228,120.165561 L94.7788456,124.69435 C93.386013,119.376333 92.6021469,113.873258 92.478844,108.29063 C91.6295604,108.35711 90.750704,108.164998 89.9676228,107.685561 C89.9176228,107.655561 87.3076228,106.035561 83.7476228,103.515561 C80.1876228,100.995561 75.6976228,97.5855608 71.8076228,93.8555608 C69.7343434,91.8620229 67.8327491,89.7921804 66.3158023,87.5902577 L66.3286075,87.6088199 L66.3208185,87.6191915 C66.0524595,87.9210569 64.3189166,89.5490376 61.1201898,92.5031335 L60.8576228,92.7455608 C54.8576228,98.2555608 46.6576228,104.935561 37.4676228,109.655561 C31.3376228,112.805561 24.7376228,115.105561 17.9376228,115.395561 C15.6476228,115.495561 13.7076228,113.705561 13.6176228,111.415561 C13.5176228,109.125561 15.2976228,107.185561 17.5976228,107.095561 C22.6076228,106.895561 28.0676228,105.115561 33.4176228,102.395561 C38.7576228,99.6855608 43.9676228,96.0655608 48.5076228,92.4155608 C52.8134123,88.957666 56.5290909,85.4795774 59.2784144,82.7401606 L59.7276228,82.2905608 C62.5151228,79.4880608 64.2026228,77.5555608 64.3476228,77.3855608 L64.3476228,77.3855608 L64.3576228,77.3755608 C65.4376228,76.1155608 67.1676228,75.6255608 68.7476228,76.1155608 C70.3276228,76.6055608 71.4676228,78.0055608 71.6376228,79.6455608 C71.6676228,80.0255608 71.8976228,80.7855608 72.4376228,81.7355608 C72.9676228,82.6855608 73.7876228,83.8055608 74.8076228,84.9855608 C76.8476228,87.3455608 79.6776228,89.9055608 82.5276228,92.1955608 C86.5813843,95.4626658 90.6803488,98.2375608 92.8205293,99.637495 C93.3567676,94.309721 94.5084918,88.9594171 96.3176228,83.6755608 C96.7016484,82.5539526 97.1109096,81.4481337 97.544555,80.3585218 C97.0505366,80.0792247 96.6060222,79.6930894 96.2476228,79.2055608 C96.2276228,79.1755608 94.4476228,76.7855608 91.9976228,73.2155608 C89.5476228,69.6355608 86.4076228,64.8955608 83.6376228,60.1255608 C81.7976228,56.9455608 80.1076228,53.7555608 78.8776228,50.7955608 C78.4109561,49.6688941 78.197452,49.0487037 78.2371105,48.9349895 C76.6765678,49.6075532 74.7823621,50.4011524 72.6376228,51.2555608 C66.4776228,53.7055608 58.2676228,56.6455608 49.8776228,58.6355608 C44.2776228,59.9655608 38.5976228,60.8755608 33.2876228,60.8855608 C31.0076228,60.8855608 28.7876228,60.7155608 26.6576228,60.3055608 C24.5376228,59.8955608 22.4876228,59.2555608 20.5976228,58.2755608 C18.5576228,57.2155608 17.7676228,54.7055608 18.8176228,52.6655608 C19.8776228,50.6355608 22.3876228,49.8355608 24.4276228,50.8955608 C25.4476228,51.4255608 26.7276228,51.8555608 28.2176228,52.1455608 C29.7176228,52.4255608 31.4276228,52.5755608 33.2876228,52.5755608 C37.5576228,52.5755608 42.6076228,51.8055608 47.7176228,50.6055608 C52.8276228,49.4055608 57.9976228,47.7855608 62.6276228,46.1455608 C71.7550074,42.9061761 78.7786476,39.5989288 79.3266927,39.3452057 L79.3476228,39.3355608 L79.3576228,39.3255608 C80.6676228,38.6955608 82.2276228,38.8055608 83.4376228,39.6055608 C84.6576228,40.4055608 85.3676228,41.7955608 85.3076228,43.2455608 L85.3076228,43.2555608 C85.2889561,43.5448941 85.4183783,44.3917385 85.7609324,45.4708793 L85.8376228,45.7055608 C86.2376228,46.9055608 86.8476228,48.3655608 87.6176228,49.9555608 C89.0456228,52.9328941 90.9962895,56.3370719 93.0224524,59.6070985 L93.6757697,60.6539136 C96.6429466,65.3802556 99.6697188,69.723232 101.418435,72.1787703 C104.326031,66.9226328 107.844871,62.1430592 111.85031,57.8990655 C111.005252,56.628772 109.221935,53.780424 107.427623,49.8655608 C105.073028,44.7379932 102.661633,37.7549399 102.523796,29.966444 L102.517623,29.3155608 L102.518309,28.914947 C102.520825,28.222141 102.530259,27.7584242 102.546611,27.5237964 L102.546607,27.5158199 L102.202764,27.5623375 C99.2639569,27.9468084 95.4230575,28.2927056 90.9855743,28.3233565 L90.3476228,28.3255608 C81.0776228,28.3255608 69.2976228,26.9355608 57.7676228,21.5255608 C55.6876228,20.5555608 54.7976228,18.0755608 55.7676228,15.9955608 C56.7476228,13.9255608 59.2176228,13.0255608 61.2976228,14.0055608 Z" id="Body" fill="#28171A"></path>
                <path d="M158.007623,44.7155608 C158.007623,44.7155608 114.377623,90.8355608 140.827623,127.725561 C167.267623,164.615561 200.817623,153.635561 200.817623,153.635561 C200.817623,153.635561 146.197623,186.225561 115.757623,136.735561 C85.3276228,87.2455608 131.017623,39.3855608 158.007623,44.7155608" id="Shadow" fill="#1D1314"></path>
                <path d="M111.407623,187.985561 L122.957623,205.615561 C122.957623,205.615561 117.867623,210.475561 113.597623,206.565561 C109.317623,202.655561 105.797623,194.375561 111.407623,187.985561 M153.947623,201.815561 L134.017623,208.675561 C134.017623,208.675561 135.057623,215.625561 140.837623,215.155561 C146.617623,214.695561 154.467623,210.295561 153.947623,201.815561" id="Eyes" fill="#A03D7D"></path>
            </g>
        </g>
    </g>
</svg>