<?xml version="1.0" encoding="UTF-8"?>
<svg width="453px" height="464px" viewBox="0 0 453 464" version="1.1" xmlns="http://www.w3.org/2000/svg" xmlns:xlink="http://www.w3.org/1999/xlink">
    <title>decoration-3</title>
    <g id="decoration-3" stroke="none" stroke-width="1" fill="none" fill-rule="evenodd">
        <g id="Group" transform="translate(1.500000, 0.876000)">
            <path d="M261.542229,0.923655149 L261.606974,0.906622919 C264.840878,0.0429345675 268.001326,-0.254637621 271.171181,0.236768718 C275.90448,0.970547786 280.110754,3.45427492 282.912613,7.54292575 C283.341989,8.16879935 283.726156,8.80815602 284.065633,9.45832784 L284.311869,9.94794287 L284.444229,10.2296551 L284.691741,10.1776404 C289.764191,9.12915593 294.682681,9.65710206 299.051113,12.8061995 L299.394839,13.0602771 L299.719638,13.3121722 C303.862256,16.5986149 306.243687,21.3000134 306.338019,26.4567265 L306.339229,26.9146551 L306.650014,26.981906 C308.436963,27.3867567 310.175276,28.1165738 311.857785,29.2497162 L312.245063,29.5184058 L312.58229,29.7654238 C319.955568,35.2934531 321.143572,44.0397402 317.366683,51.2703357 L317.199345,51.58374 L317.069229,51.8166551 L317.241236,51.9563984 C317.63674,52.285879 318.021383,52.6455261 318.394572,53.0391656 C321.987656,48.3967102 327.240446,45.0063764 333.475312,43.8531666 C346.781469,41.41167 359.575098,50.0971376 362.218965,63.3251564 L362.295965,63.7273891 L362.362644,64.1056814 C364.601089,77.3995162 355.75866,90.0786971 342.451396,92.5400402 C339.458065,93.0928627 336.491147,93.0823329 333.65997,92.5837303 C337.394422,96.5625222 340.128938,101.560088 341.376147,107.239935 L341.495892,107.810182 L341.593605,108.319107 C342.117561,111.157896 342.241563,113.978022 342.005441,116.721352 L341.944577,117.353039 L341.896229,117.774655 L342.160659,117.792817 C352.217293,118.559062 360.931679,125.822533 363.177071,136.059391 L363.258231,136.44466 L363.331531,136.823294 C363.618205,138.372386 363.744455,139.920266 363.720371,141.447962 L363.704312,142.019866 L363.685229,142.384655 L364.639922,142.676668 C374.200862,145.633804 383.074965,149.156449 391.224877,153.27421 L392.331736,153.839414 L392.800229,154.083655 L392.936155,154.146978 C393.295526,154.320312 393.644679,154.510397 393.982794,154.716035 L394.317199,154.926814 L394.529568,155.069145 C397.522926,157.056155 399.249654,159.966537 399.8167,163.050787 L399.873022,163.381873 L399.919365,163.695904 C400.177595,165.487496 400.045009,167.367499 399.443821,169.222172 L399.25832,169.758085 C399.04523,170.348936 398.788483,170.924841 398.488948,171.479727 L398.256287,171.891856 L398.227229,171.939655 L377.321229,211.919655 L377.62631,212.231757 C380.252547,214.916934 382.922108,217.668542 385.589442,220.444309 L387.588812,222.530003 L390.28348,225.357704 L392.407188,227.600993 L394.553649,229.882934 L395.994601,231.423876 L397.258786,232.782277 L399.759002,235.488301 L401.294411,237.164027 L402.289373,238.256361 L403.738526,239.857518 L405.589245,241.922423 L406.915605,243.418412 L407.770232,244.390555 L409.007429,245.810873 L410.190548,247.185569 L411.319152,248.514478 L412.392805,249.797435 L413.07783,250.627129 L413.73811,251.436277 L414.373515,252.224831 L415.279699,253.368941 L415.852352,254.105795 L416.399678,254.821883 L416.921548,255.517157 L417.417833,256.191567 L417.888403,256.845065 L418.333129,257.477602 L418.751883,258.089129 L419.144535,258.679597 L419.510956,259.248956 C426.197935,269.805558 423.513101,293.96365 414.483667,319.506008 L413.89235,321.155701 L413.283608,322.808506 C413.077811,323.359879 412.869139,323.911649 412.657623,324.463694 L411.893575,326.427313 L411.538179,327.320052 L411.004298,328.637961 L410.596595,329.626459 C410.296528,330.348443 409.991926,331.069273 409.68272,331.789031 C409.47579,332.270712 409.266841,332.751816 409.055837,333.2324 C408.730392,333.973629 408.400368,334.71293 408.065537,335.450733 L407.46201,336.767714 L407.221547,337.285405 C407.00319,337.753721 406.783024,338.221094 406.560931,338.687756 L406.055655,339.741318 L405.284512,341.31883 L404.646231,342.597882 L403.95458,343.957799 L403.310326,345.201074 L402.617107,346.514552 L402.104954,347.469334 C401.520057,348.552312 400.925043,349.628854 400.319999,350.698537 C399.71964,351.75994 399.109394,352.814604 398.48946,353.861935 L397.886005,354.874008 C396.315814,357.488292 394.686008,360.053804 392.990986,362.574893 L391.966102,364.082251 L391.184456,365.209179 L390.608316,366.027642 L390.070567,366.782448 L389.253334,367.913039 L388.222144,369.311919 L387.90824,369.731736 L387.263292,370.585674 L386.469723,371.620836 L385.373565,373.022969 L384.678767,373.89548 L383.861422,374.906119 L382.544704,376.499415 L381.66642,377.538845 L380.55178,378.831895 L379.691362,379.810509 L378.564527,381.067053 L377.970735,381.717981 L377.156518,382.598201 L376.412779,383.389957 L375.466778,384.38041 L374.8017,385.065788 L374.035229,385.843655 L441.706107,410.016382 C446.514102,411.733833 449.77369,416.191401 449.98979,421.250783 L450.000891,421.567759 L450.000891,421.879804 L449.670891,466.769804 C449.660054,468.244018 449.388529,469.703511 448.870029,471.081105 L448.707084,471.491859 L447.067084,475.421859 C445.168672,479.971103 440.779569,482.970288 435.871736,483.103302 L435.550945,483.107899 L17.1109451,483.768123 C13.9075546,483.768123 10.8292792,482.548196 8.50725301,480.354471 L8.2523943,480.10675 L4.3223943,476.17675 C2.10681549,473.961171 0.807246869,470.99775 0.672813063,467.876065 L0.66248636,467.515202 L0.00122075505,420.985202 C-0.06752815,416.049179 2.77260104,411.545313 7.23119617,409.473128 L7.52425545,409.341454 L79.4322291,378.129655 L78.7971401,377.199104 L77.6822219,375.533714 L76.8536035,374.267956 L76.2516482,373.333261 L75.574964,372.2671 L74.9168742,371.214394 C74.3490466,370.29928 73.7849263,369.37249 73.2246001,368.434298 L71.9787188,366.326667 L71.185012,364.950254 C56.1467595,338.694081 43.889617,304.179218 38.4886868,274.875823 C34.4728479,253.109122 43.4519748,235.323384 60.6437807,222.244117 C66.7783171,217.577054 73.3445256,213.889993 79.8093491,211.041041 L80.8322291,210.597655 L66.2352291,174.026655 L66.15756,173.85157 C63.3005732,167.20771 66.7467844,159.292427 73.8662919,157.037329 L74.1609356,156.947858 L75.1913585,156.672587 L77.6968487,156.031572 L80.6461541,155.296444 L82.5885862,154.821474 L84.658165,154.322372 L86.9735827,153.771654 L89.3452167,153.215479 L91.7721973,152.654297 L94.2536547,152.08856 L98.0760826,151.232398 L99.3765216,150.945221 C98.9934391,140.339235 103.323188,130.227114 110.934521,123.197457 L111.317816,122.848555 L111.435229,122.743655 L111.422373,122.272802 C111.072604,105.28508 122.823738,89.9918906 139.850142,86.3064679 L140.367702,86.1983516 L141.064104,86.0654494 L141.745395,85.9487645 L142.743797,85.8020682 L143.250229,85.7376551 L143.253713,85.5640063 C143.585305,73.5017947 150.491776,62.5944833 161.052107,57.0648646 C152.095386,56.0730752 144.457538,49.3380609 142.738439,40.0144814 C140.637257,28.6186567 148.171686,17.6803483 159.564663,15.5751254 C166.763688,14.2477563 173.785205,16.7619494 178.510572,21.6683909 C183.475883,15.9515037 190.343543,11.8159465 198.373235,10.3353887 C202.501567,9.57370379 206.672885,9.56976858 210.786451,10.2957692 C219.569978,11.8774009 227.239354,16.7414261 232.410484,23.6460878 L232.711776,24.0545887 L232.813229,24.1966551 L232.927872,23.9003628 C234.725215,19.2664961 236.814801,15.888165 239.596191,13.4214455 L239.908102,13.1510996 L240.169331,12.9340214 C246.11321,8.08405486 253.020113,3.78889431 259.2734,1.62416122 L259.409229,1.57765515 L259.614279,1.49760181 L260.080062,1.32878115 C260.347716,1.23677731 260.618379,1.15390364 260.891581,1.08029546 L261.303228,0.976849213 L261.542229,0.923655149 Z M124.084087,43.6275443 L124.693255,43.6402648 C135.343074,44.0052264 144.445355,51.7366658 146.3947,62.3350461 C148.680744,74.7544191 140.494596,86.6884339 128.074098,88.9913858 C127.05538,89.178902 126.029257,89.2970972 125.001743,89.3459968 L124.385116,89.3670213 L123.77318,89.371445 C112.848445,89.3042286 103.419486,81.4863104 101.421033,70.6485022 C99.1175475,58.2349066 107.35047,46.2961113 119.78395,44.0034165 C121.208582,43.7418531 122.647546,43.6167659 124.084087,43.6275443 Z" id="Sticker" fill="#FFFFFF" fill-rule="nonzero"></path>
            <g id="Cauldron" transform="translate(13.000000, -2.136025)">
                <g transform="translate(0.000000, 144.852838)">
                    <g id="Stone" transform="translate(0.000000, 235.744448)">
                        <polyline id="Fill-2021" fill="#554365" points="183.17 44.38 289.34 42.09 302.77 44.71 298.19 87.96 187.43 89.93 183.17 44.38"></polyline>
                        <polyline id="Fill-2022" fill="#3A2B48" points="299.5 44.38 299.5 91.56 424.67 87.96 425 43.07 299.5 44.38"></polyline>
                        <polyline id="Fill-2023" fill="#41345D" points="185.14 43.73 192.35 90.25 65.87 90.25 65.87 39.79 185.14 43.73"></polyline>
                        <polyline id="Fill-2024" fill="#5B4976" points="74.39 44.71 73.73 90.91 4.26 90.58 4.59 44.71 74.39 44.71"></polyline>
                        <polyline id="Fill-2025" fill="#423666" points="8.52 89.27 8.2 43.4 0 42.09 0.66 88.62 8.52 89.27"></polyline>
                        <polyline id="Fill-2026" fill="#635E7A" points="90.68 2.73 0 42.09 0.33 46.02 321.12 44.05 298.12 0 154.9 10.12 90.68 2.73"></polyline>
                        <polyline id="Fill-2027" fill="#80768C" points="45.88 28 9.51 43.73 67.5 43.4 85.85 29.96 45.88 28"></polyline>
                        <polyline id="Fill-2028" fill="#3E334E" points="316.41 4.28 425 43.07 300.48 43.07 298.19 36.52 316.41 4.28"></polyline>
                        <polyline id="Fill-2029" fill="#2D1629" points="320.47 37.5 327.35 45.69 328 89.93 330.3 89.93 330.629 44.05 323.09 37.17 320.47 37.5"></polyline>
                        <polyline id="Fill-2030" fill="#2D1629" points="180.55 35.86 185.14 46.35 189.4 87.63 0.66 88.62 4.59 92.55 423.03 91.89 424.67 87.96 193.99 88.29 186.78 44.38 183.17 36.19 180.55 35.86"></polyline>
                        <path d="M66.85,87.63 L62.92,43.4 L86.84,32.91 L91.42,35.21 L68.49,46.67 L73.73,89.27 C73.73,89.27 66.52,93.2 66.85,87.63" id="Fill-2031" fill="#2D1629"></path>
                        <polyline id="Fill-2032" fill="#2D1629" points="296.879 38.15 299.5 44.38 298.19 87.96 300.48 88.29 302.77 43.4 299.17 34.55 296.879 38.15"></polyline>
                        <polyline id="Fill-2033" fill="#2D1629" points="349.96 30.29 371.58 25.05 376.169 26.36 349.96 30.29"></polyline>
                        <path d="M335.21,89.93 L332.26,45.04 L404.68,44.05 C404.68,44.05 412.22,47.98 417.79,46.67 C423.36,45.36 425,43.07 425,43.07 L9.51,42.41 L8.52,46.67 L256.24,45.04 L266.07,49.3 L274.919,44.38 L328.99,46.02 L330.3,89.93 L335.21,89.93" id="Fill-2034" fill="#89718F"></path>
                        <polyline id="Fill-2035" fill="#2D1629" points="81.59 22.43 72.09 28.32 38.34 26.36 66.19 29.96 58 35.86 374.21 39.14 342.419 27.01 81.59 22.43"></polyline>
                    </g>
                    <polyline id="Fire" fill="#DF542F" points="85.85 262.754448 71.44 270.954448 374.21 274.884448 342.419 262.754448 85.85 262.754448"></polyline>
                    <path d="M65.16,25.9744475 C65.16,25.9744475 275.249,-30.0455525 375.02,22.4544475 L229.27,53.1944475 C229.27,53.1944475 75.819,42.2144475 65.16,25.9744475" id="Potion" fill="#57B579"></path>
                    <g transform="translate(37.561640, 22.464448)">
                        <path d="M350.63836,155.29 C342.12836,177.23 327.96836,201.29 307.12836,218.99 C301.85736,223.48 296.15836,227.55 290.01836,231.08 C286.54836,233.09 282.74836,234.93 278.73836,236.6 C274.75836,238.26 270.54836,239.76 266.12836,241.11 C228.99836,252.48 177.67836,253.28 135.03836,248.49 C109.89836,245.67 87.7683602,240.9 73.3583602,235.2 L73.3483602,235.2 C73.0783602,235.1 72.8283602,235 72.5673602,234.89 C68.0583602,233.07 64.3483602,231.15 61.5783602,229.17 C57.7283602,226.42 53.9783602,223.03 50.3583602,219.12 C44.2083602,212.47 38.4183602,204.32 33.1083602,195.26 C32.9083602,194.93 32.7183602,194.6 32.5283602,194.27 C17.0383602,167.58 5.5583602,133.43 0.718360203,107.17 C-6.8016398,66.41 47.1983602,52.61 47.1983602,52.61 L47.1983602,52.6 L27.6283602,3.57 L27.6283602,3.56 L27.6083602,3.51 C60.2683602,15.18 120.08836,16.44 178.50736,13.97 C204.93836,12.86 231.06836,10.95 254.30836,8.95 C254.47736,8.92 254.66836,8.92 254.84836,8.89 C300.83836,4.88 335.24836,0.3 337.35836,0.01 L337.36836,0.01 L337.45836,0 L311.95836,48.77 C311.95836,48.77 350.75836,87.64 358.88836,100.5 C362.82836,106.72 360.62836,129.55 350.63836,155.29" id="Fill-2038" fill="#2A161C"></path>
                        <path d="M178.50736,13.97 L254.30836,8.95 C231.06836,10.95 204.93836,12.86 178.50736,13.97" id="Fill-2039" fill="#276E56"></path>
                        <path d="M232.85736,222.12 C224.81736,222.12 216.96836,223.15 210.29836,224.6 C209.14836,223.71 208.01836,222.77 206.93836,221.79 C200.70836,216.22 195.52836,209.41 191.46836,204.15 C185.93836,196.96 164.43836,198.81874 166.63836,191.27 C169.36836,179.83 155.74836,169.05 149.93836,141.95 C144.71836,117.62 156.39836,81.46 162.44836,65.15 C164.42836,59.82 165.80836,56.61 165.80836,56.61 L154.42836,15.57 L178.50736,13.97 C204.93836,12.86 231.06836,10.95 254.30836,8.95 C254.47736,8.92 254.66836,8.92 254.84836,8.89 L284.11836,6.96 L283.79836,11.31 L280.87836,51.66 C280.87836,51.66 282.26836,52.42 284.56836,54.29 C292.47836,60.72 311.07836,80.39 319.82836,127.84 C322.98836,144.99 317.34836,165.87 307.58836,187.06 C304.98836,188.69 303.08836,190.01 302.58836,190.71 C301.13836,192.77 288.54836,212.64 287.01836,214.45 C285.22736,216.56 283.76836,218.47 282.54836,220.18 C274.69836,221.7 266.26836,224.1 258.01836,226.37 C250.22836,223.29 241.42836,222.12 232.85736,222.12 Z" id="Fill-2040" fill="#1E131B"></path>
                        <path d="M88.2883602,224.96 L88.2883602,224.96 C87.7283602,224.73 87.1783602,224.49 86.6073602,224.24 C69.6283602,216.66 42.8783602,201.05 33.1083602,195.26 C32.9083602,194.93 32.7183602,194.6 32.5283602,194.27 C43.4083602,199.39 57.3083602,206.25 73.2483602,214.57 C80.7583602,218.5 88.2483602,220.85 95.5383602,221.98 C93.5583602,223.03 91.6183602,223.86 89.7283602,224.5 C89.2383602,224.67 88.7583602,224.82 88.2883602,224.96" id="Fill-2041" fill="#1E131B"></path>
                        <path d="M46.2183602,56.1 C46.4683602,56.17 91.5073602,68.79 164.91836,68.79 C206.20836,68.79 256.45836,64.8 312.74836,52.33 L311.17836,45.24 C255.45836,57.58 205.73836,61.53 164.91836,61.53 C128.62836,61.53 99.3883602,58.41 79.2383602,55.29 C69.1683602,53.74 61.3683602,52.18 56.1083602,51.02 C53.4773602,50.44 51.4783602,49.96 50.1483602,49.62 C49.4783602,49.45 48.9773602,49.32 48.6583602,49.24 C48.4883602,49.19 48.3683602,49.16 48.2883602,49.14 L48.1983602,49.11 L48.1783602,49.11 L46.2183602,56.1" id="Fill-2042" fill="#16101C"></path>
                        <polyline id="Fill-2043" fill="#5E263F" points="53.1883602 22.75 61.5183602 47.09 84.1983602 50.57 73.9173602 20.84 53.1883602 22.75"></polyline>
                        <path d="M57.8583602,68.85 L80.4773602,77.13 C80.4773602,77.13 51.0483602,104.61 57.7573602,125.41 L23.4683602,131.74 C23.4683602,131.74 -1.5516398,74.06 57.8583602,68.85" id="Fill-2044" fill="#5E263F"></path>
                    </g>
                </g>
                <g id="Flames" transform="translate(70.670000, 322.607285)">
                    <path d="M119.475,56.13 L123.455,56.13 C128.466984,56.13 132.53,52.0669841 132.53,47.055 C132.53,42.0430159 128.466984,37.98 123.455,37.98 L119.475,37.98 C114.463016,37.98 110.4,42.0430159 110.4,47.055 C110.4,52.0669841 114.463016,56.13 119.475,56.13 Z" id="Fill-2083" fill="#7B584A"></path>
                    <path d="M40.24,79.91 C39.97,79.81 39.72,79.71 39.459,79.6 L39.66,79.66 C39.85,79.72 40.05,79.8 40.24,79.91 M239.15,75.85 C236.6,75.85 232.81,74.38 225.86,71.46 C225.54,71.34 225.23,71.2 224.91,71.08 C233.16,68.81 241.59,66.41 249.44,64.89 C244.13,72.25 243.15,75.85 239.15,75.85 M130.84,66.22 C128.77,62.45 123.78,57.57 116.899,54.13 C122.67,50.35 127.18,46.28 130.05,42.69 C131.92,40.35 133.33,36.5287401 138.33,35.5287401 C143.33,34.5287401 152.83,41.67 158.36,48.86 C162.42,54.12 167.6,60.93 173.83,66.5 C174.91,67.48 176.04,68.42 177.19,69.31 C175.9,69.59 174.67,69.88 173.49,70.2 C170.34,70.99 167.55,71.89 165.24,72.78 C160.56,74.58 155.45,75.54 150.57,75.54 C142.12,75.54 134.369,72.66 130.84,66.22 Z M45.999,71.01 C30.999,71.01 21.07,60.32 21.07,60.32 L17.25,63.83 C11.1,57.18 5.31,49.03 0,39.97 C9.77,45.76 36.52,61.37 53.499,68.95 C54.07,69.2 54.62,69.44 55.18,69.67 C54.89,69.76 54.58,69.83 54.309,69.91 C51.41,70.68 48.63,71.01 45.999,71.01" id="Fill-2086" fill="#784B38"></path>
                    <path d="M151.399,95.97 C134.49,95.97 117.63,94.96 101.93,93.2 C104.18,88.63 107.22,84.73 113.4,84.73 C113.52,84.73 113.64,84.73 113.75,84.73 C132.19,85.19 152.28,85.47 172.05,85.63 C189.4,85.78 206.49,85.83 221.98,85.83 C225.77,85.83 229.45,85.83 233.02,85.82 C215.27,91.26 194.26,94.28 172.52,95.43 C170.43,95.54 168.34,95.63 166.24,95.71 C161.31,95.88 156.35,95.97 151.399,95.97" id="Path" fill="#D14419"></path>
                    <path d="M73.28,67.53 C69.73,67.53 66.11,67.26 62.43,66.69 C64.87,65.39 67.37,63.76 69.93,61.74 C70.24,61.5 70.56,61.24 70.88,60.98 C80.76,52.85 90.47,49.86 99.14,49.86 C99.38,49.86 99.62,49.87 99.86,49.87 C102.54,49.9 105.11,50.23 107.55,50.79 C108.88,51.08 110.17,51.43 111.4,51.86 C110.38,52.77 109.33,53.68 108.249,54.58 C105.52,56.86 102.6,59.06 99.56,61.11 C97.69,62.36 95.76,63.55 93.78,64.65 C87.39,66.44 80.49,67.53 73.28,67.53 M274.02,63.7 C270.77,63.43 267.51,63.27 264.41,63.27 C263.9,63.27 263.39,63.27 262.89,63.28 C261.039,63.31 259.12,63.45 257.13,63.68 C263.56,53.27 269.55,42.48 274.48,31.77 C282,27.04 295.31,19.71 296.72,17.52 C306.89,1.69 299.58,3.21 317.35,0 L317.53,0 C309.02,21.94 294.86,46 274.02,63.7" id="Fill-2088" fill="#844827"></path>
                    <path d="M196.82,76.9 C189.51,76.9 182.96,73.75 177.19,69.31 C183.86,67.86 191.709,66.83 199.749,66.83 C208.32,66.83 217.12,68 224.91,71.08 C216.07,73.51 207.45,75.79 199.97,76.7 C198.91,76.83 197.86,76.9 196.82,76.9 M249.44,64.89 C250.66,63.18 252.119,61.27 253.91,59.16 C255.44,57.35 268.03,37.48 269.48,35.42 C269.98,34.72 271.88,33.4 274.48,31.77 C269.55,42.48 263.56,53.27 257.13,63.68 C254.65,63.96 252.08,64.37 249.44,64.89" id="Fill-2089" fill="#7B4325"></path>
                    <path d="M67.47,72.47 C67.07,72.47 66.68,72.46 66.28,72.45 C63.74,72.37 60.92,71.75 57.94,70.72 C57.03,70.41 56.11,70.06 55.18,69.67 C55.65,69.53 56.13,69.38 56.62,69.21 C58.51,68.57 60.45,67.74 62.43,66.69 C66.11,67.26 69.73,67.53 73.28,67.53 C80.49,67.53 87.39,66.44 93.78,64.65 C92.87,65.17 91.959,65.66 91.03,66.13 C83.55,69.97 75.52,72.47 67.47,72.47" id="Fill-2090" fill="#7B4325"></path>
                    <path d="M245.63,81.31 C249.53,75.61 253.41,69.71 257.13,63.68 C259.12,63.45 261.039,63.31 262.89,63.28 C263.39,63.27 263.9,63.27 264.41,63.27 C267.51,63.27 270.77,63.43 274.02,63.7 C268.749,68.19 263.05,72.26 256.91,75.79 C253.44,77.8 249.64,79.64 245.63,81.31 M93.78,64.65 C95.76,63.55 97.69,62.36 99.56,61.11 C102.6,59.06 105.52,56.86 108.249,54.58 C109.33,53.68 110.38,52.77 111.4,51.86 C113.34,52.5 115.18,53.27 116.899,54.13 C110.54,58.32 102.649,62.16 93.78,64.65" id="Fill-2091" fill="#B26A2F"></path>
                    <path d="M101.93,93.2 L101.93,93.2 C76.79,90.38 54.66,85.61 40.25,79.91 L40.24,79.91 C40.05,79.8 39.85,79.72 39.66,79.66 L39.459,79.6 C34.95,77.78 31.24,75.86 28.47,73.88 C24.62,71.13 20.87,67.74 17.25,63.83 L21.07,60.32 C21.07,60.32 30.999,71.01 45.999,71.01 C48.63,71.01 51.41,70.68 54.309,69.91 C54.58,69.83 54.89,69.76 55.18,69.67 C56.11,70.06 57.03,70.41 57.94,70.72 C60.92,71.75 63.74,72.37 66.28,72.45 C66.68,72.46 67.07,72.47 67.47,72.47 C75.52,72.47 83.55,69.97 91.03,66.13 C91.959,65.66 92.87,65.17 93.78,64.65 C102.649,62.16 110.54,58.32 116.899,54.13 C123.78,57.57 128.77,62.45 130.84,66.22 C134.369,72.66 142.12,75.54 150.57,75.54 C155.45,75.54 160.56,74.58 165.24,72.78 C167.55,71.89 170.34,70.99 173.49,70.2 C174.67,69.88 175.9,69.59 177.19,69.31 C182.96,73.75 189.51,76.9 196.82,76.9 C197.86,76.9 198.91,76.83 199.97,76.7 C207.45,75.79 216.07,73.51 224.91,71.08 C225.23,71.2 225.54,71.34 225.86,71.46 C232.81,74.38 236.6,75.85 239.15,75.85 C243.15,75.85 244.13,72.25 249.44,64.89 C252.08,64.37 254.65,63.96 257.13,63.68 C253.41,69.71 249.53,75.61 245.63,81.31 C241.65,82.97 237.44,84.47 233.02,85.82 C229.45,85.83 225.77,85.83 221.98,85.83 C206.49,85.83 189.4,85.78 172.05,85.63 C152.28,85.47 132.19,85.19 113.75,84.73 C113.64,84.73 113.52,84.73 113.4,84.73 C107.22,84.73 104.18,88.63 101.93,93.2" id="Fill-2092" fill="#B34922"></path>
                </g>
                <g id="Bubles" transform="translate(99.354043, 24.136025)">
                    <path d="M76.1959574,47.0512599 C80.6659574,50.0312599 83.9759574,54.7812599 85.0249574,60.4912599 C85.7259574,64.2412599 85.3659574,67.9312599 84.1359574,71.2612599 C84.5825127,71.1298717 85.0437686,71.0180317 85.5159574,70.9312599 C86.945963,70.6663674 88.3643624,70.6520138 89.7259811,70.8570902 C92.7381307,66.5359166 97.3878563,63.3535201 102.975957,62.3212599 C107.524264,61.4810754 111.999147,62.1942062 115.854893,64.0849802 C119.123724,60.0748222 123.779673,57.1609506 129.265957,56.1512599 C134.317544,55.2182166 139.286346,56.0405381 143.543906,58.1855952 C144.735344,57.423706 146.090918,56.8751271 147.565957,56.6012599 C148.985841,56.3399457 150.392837,56.3561784 151.730961,56.6114975 C154.011365,54.4883497 156.904408,52.9688206 160.195957,52.3612599 C168.44212,50.8302134 176.399689,55.5600498 179.195101,63.1773159 L179.260469,63.3587928 C184.671193,64.5263306 189.116392,68.8340986 190.185957,74.6112599 C190.21028,74.7437427 190.232675,74.8761363 190.253161,75.0084115 C191.862262,74.1766171 193.620956,73.5654984 195.495957,73.2212599 C205.725957,71.3312599 215.565957,78.0912599 217.445957,88.3312599 C219.331516,98.5471941 212.607684,108.355053 202.408097,110.277803 C204.594615,112.048664 206.184287,114.578653 206.735957,117.56126 C207.965957,124.22126 203.565957,130.61126 196.905957,131.83126 C190.255957,133.06126 183.865957,128.66126 182.635957,122.01126 C181.573685,116.268078 184.710647,110.718822 189.86959,108.519868 L190.108004,108.421546 C187.53429,107.059369 185.287792,105.110368 183.574677,102.716641 C180.87808,107.117415 176.393455,110.400276 170.915957,111.41126 C170.48415,111.490959 170.053072,111.555276 169.623288,111.6046 C169.066541,113.051362 168.309023,114.410199 167.378894,115.640833 C168.229146,117.269 168.854586,119.050399 169.205957,120.95126 C171.095957,131.19126 164.325957,141.02126 154.085957,142.91126 C143.845957,144.80126 134.015957,138.03126 132.125957,127.80126 C131.997899,127.103753 131.909929,126.408148 131.860416,125.716825 L131.83,125.199 L131.46857,125.428811 C129.824892,126.436822 128.012111,127.177414 126.045957,127.61126 L126.005957,127.62126 C124.995957,135.53126 118.985957,142.21126 110.735957,143.73126 C102.695957,145.22126 94.9259574,141.33126 91.0659574,134.62126 C89.6159574,135.18126 88.0759574,135.62126 86.4959574,135.91126 C85.3709574,136.119593 84.2251241,136.251538 83.0873926,136.307093 L82.4059574,136.33126 L82.3659574,136.34126 C81.3359574,136.75126 80.2159574,137.07126 79.0659574,137.28126 C74.4959574,138.12126 70.0559574,137.06126 66.4959574,134.61126 C64.2149574,139.24126 59.8359574,142.75126 54.4059574,143.75126 C50.1259574,144.54126 45.8959574,143.66126 42.4259574,141.49126 C38.9959574,146.08126 33.9259574,149.45126 27.8559574,150.57126 C15.0649574,152.93126 2.75595739,144.49126 0.395957385,131.67126 C-1.56504261,121.06126 3.92595739,110.81126 13.1459574,106.30126 C12.8749574,105.43126 12.6359574,104.51126 12.4559574,103.58126 C10.0959574,90.8012599 18.5759574,78.4812599 31.3659574,76.1212599 C36.1549229,75.2426392 40.8497338,75.8835429 45.0300538,77.7109421 L45.4759574,77.9112599 C46.0359574,77.1512599 46.6759574,76.4412599 47.3659574,75.7612599 C45.8359574,73.4912599 44.7659574,70.8812599 44.2359574,68.0212599 C42.1559574,56.7312599 49.6159574,45.9412599 60.8659574,43.8612599 C66.4459574,42.8312599 71.8549574,44.1212599 76.1959574,47.0512599 Z M239.184957,116.84126 C240.274957,122.73126 236.375957,128.38126 230.495957,129.47126 C224.605957,130.56126 218.955957,126.66126 217.865957,120.78126 C216.785957,114.89126 220.675957,109.24126 226.555957,108.15126 C232.445957,107.07126 238.095957,110.96126 239.184957,116.84126 Z M238.144957,43.7212599 C239.375957,50.3712599 234.975957,56.7612599 228.325957,57.9912599 C221.665957,59.2212599 215.275957,54.8212599 214.055957,48.1712599 C212.825957,41.5112599 217.225957,35.1212599 223.875957,33.8912599 C230.524957,32.6712599 236.925957,37.0612599 238.144957,43.7212599 Z M12.1350296,33.8705373 L12.4098685,33.8762762 C17.1632463,34.039171 21.3532907,37.4879265 22.2459574,42.3412599 C23.2859574,47.9912599 19.5649574,53.4012599 13.9559574,54.4412599 C13.3909574,54.5452599 12.8283574,54.6015599 12.2722874,54.6130199 L11.9948157,54.6150264 C7.10310461,54.5849293 2.77462405,51.0932599 1.85595739,46.1112599 C0.814957385,40.5012599 4.54595739,35.0812599 10.1859574,34.0412599 C10.8404574,33.9210932 11.4923713,33.8657154 12.1350296,33.8705373 Z M96.7159574,0.34125987 C105.545957,1.93125987 112.875957,8.81125987 114.595957,18.1412599 C116.805957,30.1412599 108.855957,41.6912599 96.8149574,43.9112599 C90.3859574,45.1012599 84.1249574,43.3712599 79.3459574,39.7112599 C75.0959574,36.5112599 72.0459574,31.7912599 71.0159574,26.1812599 C68.7959574,14.1412599 76.7459574,2.59125987 88.7859574,0.37125987 C91.4959574,-0.12874013 94.1659574,-0.10874013 96.7159574,0.34125987 Z M147.375957,19.2612599 C148.045957,22.8412599 145.675957,26.2812599 142.085957,26.9412599 C138.505957,27.6112599 135.064957,25.2412599 134.405957,21.6512599 C133.745957,18.0712599 136.115957,14.6312599 139.695957,13.9712599 C143.275957,13.3112599 146.715957,15.6812599 147.375957,19.2612599 Z M59.8659574,12.4112599 C60.7159574,17.0212599 57.6659574,21.4412599 53.0559574,22.2912599 C48.4559574,23.1412599 44.0259574,20.1012599 43.1759574,15.4912599 C42.3259574,10.8812599 45.3759574,6.46125987 49.9759574,5.61125987 C54.5859574,4.76125987 59.0159574,7.80125987 59.8659574,12.4112599 Z" id="Bubbles" fill="#6CBC84"></path>
                    <path d="M79.3459574,39.7112599 C75.0959574,36.5112599 72.0459574,31.7912599 71.0159574,26.1812599 C68.7959574,14.1412599 76.7459574,2.59125987 88.7859574,0.37125987 C91.4959574,-0.12874013 94.1659574,-0.10874013 96.7159574,0.34125987 C95.0659574,2.38125987 89.9349574,8.83125987 85.5859574,16.2512599 C84.5459574,18.0312599 83.5459574,19.8412599 82.6759574,21.7012599 C79.9459574,27.3412599 78.1959574,33.0912599 79.1259574,37.5012599 C79.3059574,38.2812599 79.3659574,39.0112599 79.3459574,39.7112599 M126.035957,127.58126 L126.045957,127.61126 L126.005957,127.62126 C124.995957,135.53126 118.985957,142.21126 110.735957,143.73126 C102.695957,145.22126 94.9259574,141.33126 91.0659574,134.62126 C89.6159574,135.18126 88.0759574,135.62126 86.4959574,135.91126 C85.1459574,136.16126 83.7659574,136.30126 82.4059574,136.33126 L82.3659574,136.34126 C81.3359574,136.75126 80.2159574,137.07126 79.0659574,137.28126 C74.4959574,138.12126 70.0559574,137.06126 66.4959574,134.61126 C64.2149574,139.24126 59.8359574,142.75126 54.4059574,143.75126 C50.1259574,144.54126 45.8959574,143.66126 42.4259574,141.49126 C38.9959574,146.08126 33.9259574,149.45126 27.8559574,150.57126 C15.0649574,152.93126 2.75595739,144.49126 0.395957385,131.67126 C-1.56504261,121.06126 3.92595739,110.81126 13.1459574,106.30126 C12.8749574,105.43126 12.6359574,104.51126 12.4559574,103.58126 C10.0959574,90.8012599 18.5759574,78.4812599 31.3659574,76.1212599 C36.3259574,75.2112599 41.1849574,75.9312599 45.4759574,77.9112599 C46.0359574,77.1512599 46.6759574,76.4412599 47.3659574,75.7612599 C45.8359574,73.4912599 44.7659574,70.8812599 44.2359574,68.0212599 C42.1559574,56.7312599 49.6159574,45.9412599 60.8659574,43.8612599 C66.4459574,42.8312599 71.8549574,44.1212599 76.1959574,47.0512599 C70.6159574,53.2212599 59.4059574,57.5412599 57.0159574,67.8112599 C56.8059574,68.6912599 56.6459574,69.6112599 56.4559574,70.6112599 C55.8859574,74.0712599 55.4659574,78.2112599 55.0959574,82.6412599 C55.0249574,83.6512599 54.9559574,84.6612599 54.8859574,85.7112599 C54.3059574,93.7612599 53.8959574,102.36126 52.8959574,109.35126 C52.8759574,109.64126 52.8559574,109.91126 52.7959574,110.18126 C52.4259574,112.61126 51.9859574,114.83126 51.4959574,116.73126 C50.8459574,119.03126 53.6859574,120.33126 52.6859574,121.55126 C49.9259574,124.98126 51.6359574,126.35126 59.5659574,125.25126 L59.6759574,125.23126 C62.2359574,124.94126 65.0559574,124.39126 67.9559574,123.67126 C76.0359574,121.66126 84.7759574,118.35126 90.3759574,114.10126 C90.7059574,113.86126 91.0359574,113.65126 91.3659574,113.44126 C92.0959574,112.97126 92.8059574,112.62126 93.5659574,112.33126 C96.6359574,111.17126 99.9159574,111.31126 103.214957,112.18126 C104.925957,112.64126 106.675957,113.31126 108.345957,114.15126 C116.845957,118.19126 124.345957,125.78126 126.035957,127.58126" id="Shadows" fill="#43B070"></path>
                    <path d="M85.6859574,16.6912599 C86.1359574,19.0912599 84.5459574,21.3912599 82.1459574,21.8412599 C79.7459574,22.2812599 77.4459574,20.6912599 76.9959574,18.2912599 C76.5559574,15.8912599 78.1459574,13.5912599 80.5459574,13.1512599 C82.9459574,12.7012599 85.2459574,14.2912599 85.6859574,16.6912599 M37.0659574,97.9012599 C37.7159574,101.45126 35.3749574,104.86126 31.8159574,105.52126 C28.2659574,106.17126 24.8559574,103.83126 24.2059574,100.27126 C23.5459574,96.7212599 25.8959574,93.3112599 29.4459574,92.6612599 C32.9959574,92.0012599 36.4059574,94.3512599 37.0659574,97.9012599 M22.8159574,135.57126 C23.2059574,137.68126 21.8059574,139.71126 19.6959574,140.10126 C17.5859574,140.49126 15.5559574,139.10126 15.1659574,136.98126 C14.7759574,134.87126 16.1759574,132.84126 18.2859574,132.45126 C20.3959574,132.06126 22.4259574,133.46126 22.8159574,135.57126 M95.0059574,119.73126 C95.3959574,121.85126 93.9959574,123.87126 91.8859574,124.26126 C89.7759574,124.65126 87.7459574,123.26126 87.3559574,121.15126 C86.9659574,119.03126 88.3659574,117.01126 90.4759574,116.62126 C92.5859574,116.23126 94.6159574,117.62126 95.0059574,119.73126 M65.9349574,65.4412599 C66.3259574,67.5512599 64.9259574,69.5812599 62.8159574,69.9712599 C60.7059574,70.3612599 58.6759574,68.9612599 58.2859574,66.8512599 C57.8959574,64.7412599 59.2959574,62.7112599 61.4059574,62.3212599 C63.5159574,61.9312599 65.5459574,63.3312599 65.9349574,65.4412599 M211.575957,91.2112599 C212.055957,93.8012599 210.335957,96.2912599 207.745957,96.7712599 C205.155957,97.2512599 202.665957,95.5312599 202.185957,92.9412599 C201.715957,90.3512599 203.425957,87.8612599 206.015957,87.3912599 C208.605957,86.9112599 211.095957,88.6212599 211.575957,91.2112599 M148.115957,123.23126 C148.575957,125.72126 146.925957,128.12126 144.435957,128.58126 C141.935957,129.04126 139.545957,127.39126 139.085957,124.90126 C138.625957,122.40126 140.275957,120.00126 142.765957,119.54126 C145.265957,119.08126 147.655957,120.73126 148.115957,123.23126 M167.505957,91.9812599 C167.965957,94.4712599 166.315957,96.8712599 163.825957,97.3312599 C161.325957,97.7912599 158.934957,96.1412599 158.475957,93.6412599 C158.015957,91.1512599 159.665957,88.7512599 162.155957,88.2912599 C164.655957,87.8312599 167.045957,89.4812599 167.505957,91.9812599" id="Littles-bubbles" fill="#57B579"></path>
                </g>
                <g id="Group" transform="translate(184.565407, 28.181786)">
                    <g id="Halloween/Features/Hand" transform="translate(67.687648, 66.262989) rotate(50.000000) translate(-67.687648, -66.262989) ">
                        <g id="Skin">
                            <path d="M63.8785417,22.6148067 C63.9462294,22.0220745 64.0245457,21.4237505 64.102862,20.8142428 C64.9643411,19.5896357 67.2411075,19.0248625 69.7136645,19.5337175 C71.861209,19.969879 73.5567566,21.0938335 74.1665048,22.3352161 C74.1720989,22.9391319 74.1832869,23.5430478 74.211257,24.1749227 C74.5077401,30.5943245 76.2027283,38.1209054 82.1715482,41.7332169 C92.3191014,47.8898035 99.2500927,66.7006638 99.2500927,66.7006638 L135.585237,97.2237643 L103.083554,132.679133 L70.7094002,100.933746 C63.6553403,102.270189 43.2819177,99.3009362 35.6852379,95.0623416 C34.1412882,94.2012023 32.0323425,92.9765952 29.6213196,91.5394991 C20.1338609,85.8973594 5.88589067,76.9280906 2.40640992,73.4611663 C-1.96252009,69.1163272 -0.110899302,68.6913494 5.76841624,65.526383 C10.0478419,63.2169641 23.8650725,70.2458736 31.0533889,74.2328365 C31.8589278,74.6857734 32.6756548,73.6680634 32.0659066,72.9690867 C23.9042307,63.7481864 3.96154762,40.4359161 4.12936823,33.1106406 C4.33634699,23.9009238 6.7138057,8.52343689 13.9636563,9.29510714 C21.1967248,10.0611856 18.5843172,21.8319529 18.9647106,30.1581631 C19.350698,38.4787814 31.6016029,48.292414 31.6016029,48.292414 C31.6016029,48.292414 27.4340576,34.2401869 26.2481253,28.3128646 C25.0677869,22.3799506 26.1530269,1.44420108 32.9609499,0.113349484 C39.7632788,-1.21750211 41.0890616,9.43490248 39.3716974,18.2028659 C37.6543331,26.954054 47.5389673,40.5757115 47.5389673,40.5757115 C47.5389673,40.5757115 46.4257572,28.9223723 46.4425393,25.3156526 C46.4425393,24.376228 46.4537273,23.9288829 46.4475739,23.7443531 C46.4369452,23.8561893 46.4257572,24.046311 46.4145692,24.0686782 C46.4033811,24.0295355 46.3921931,23.8897402 46.381005,23.5765986 C46.381005,23.5765986 48.3277242,2.2438304 54.1343174,0.946529685 C59.9465047,-0.356362845 60.941681,7.56723679 58.9731452,12.236401 C56.9984559,16.8999734 63.0058746,33.876719 63.0058746,33.876719 C63.0058746,33.876719 63.1686605,28.6819243 63.8785417,22.6148067 Z" id="Fill-1847" fill="#59B148"></path>
                            <path d="M93.04073,73.0529639 C93.04073,73.0529639 93.5106277,82.1788034 88.9850651,86.4285816 C84.6664813,90.4714627 114.202698,115.076517 117.066837,117.425079 L103.083554,132.679133 L70.7094002,100.933746 C63.6553403,102.270189 43.2819177,99.3009362 35.6852379,95.0623416 C34.1412882,94.2012023 32.0323425,92.9765952 29.6213196,91.5394991 C34.6727201,93.0660642 56.9201397,98.8368156 72.7064655,88.1508602 C90.6129251,76.0222168 93.04073,73.0529639 93.04073,73.0529639 Z M10.7862526,68.9094301 C10.7862526,68.9094301 14.0923187,71.7444796 12.6658435,73.7463488 C11.2337743,75.7538098 9.05770029,76.2402976 7.81023372,75.2505466 C7.81023372,75.2505466 9.94155553,74.7193243 10.5848679,72.9746785 C11.2337743,71.2300327 10.7862526,68.9094301 10.7862526,68.9094301 Z M31.7694235,74.3167137 C31.5232866,75.5357291 26.3874164,75.418301 22.9588412,73.0976984 C21.5559239,72.1521306 18.4311391,70.715861 15.2251343,69.3474955 L14.5612022,69.0655375 C10.3557759,67.288261 6.20517024,65.6937229 5.80062324,65.5387123 L5.76841624,65.526383 C11.2505563,60.7845252 32.0099664,73.0976984 31.7694235,74.3167137 Z M17.8179364,13.2764783 C18.7525748,13.8389798 19.2160536,18.315049 19.4526583,22.9467661 L19.4890766,23.6986262 C19.6328546,26.8321153 19.6790845,29.9439267 19.7031213,31.8748498 C19.7556305,36.0930156 28.3827339,45.0670839 30.9122213,47.6087398 L31.2262251,47.9226066 C31.4669247,48.1618608 31.6016029,48.292414 31.6016029,48.292414 C26.1418389,49.6735919 20.1282669,42.4042345 16.357897,35.2467133 C14.0125144,30.7908531 15.1500205,23.377112 16.3448646,18.4096409 C15.168405,20.1478376 9.56560791,27.7049609 6.78093395,18.471273 C6.78093395,18.471273 6.79125515,18.480585 6.81140896,18.4979018 L6.90087967,18.57256 C7.67648358,19.2039912 12.0858472,22.4400938 16.3820729,18.2568373 C17.0962132,15.3196536 17.8179364,13.2764783 17.8179364,13.2764783 Z M37.7438374,8.82539481 L37.7443282,8.9314382 C37.7443691,8.94027515 37.7444134,8.94984851 37.7444614,8.96021965 L37.7452328,9.12689432 C37.7453149,9.14462958 37.7454018,9.1634081 37.7454939,9.18329123 L37.7461096,9.31633641 C37.7462233,9.34088349 37.7463426,9.36665792 37.7464678,9.39372107 L37.7472932,9.57205561 C37.7496972,10.0914718 37.7537737,10.972221 37.7606859,12.4656654 C37.7829955,16.1003441 32.1442229,17.8617653 29.6716658,16.2625067 C27.1935147,14.663248 28.0549939,12.3929718 28.0549939,12.3929718 C34.1857861,17.6810481 36.9536242,11.1742337 37.5944868,9.30131601 L37.6406848,9.16338069 C37.7103917,8.95053186 37.7438374,8.82539481 37.7438374,8.82539481 Z M50.0171184,10.4022862 C50.0171184,10.4022862 48.551485,11.1963237 50.470234,13.0024794 C52.3945771,14.8030434 53.8881805,14.7583089 55.7957415,13.1143157 C57.7033025,11.4647308 57.8934992,8.56817139 57.8934992,8.56817139 C57.8934992,8.56817139 55.2083694,15.2783475 50.0171184,10.4022862" id="Shadow" fill="#449143"></path>
                        </g>
                        <path d="M57.8599351,47.185235 L58.5368116,47.2411531 L58.0495874,53.5896863 C60.4771075,53.6700913 63.0233263,53.7846423 65.5295995,53.946781 L65.8817605,48.9298808 L66.558637,48.9746153 L66.2065772,53.9918183 C68.4684617,54.1465161 70.6858571,54.3412316 72.7409557,54.5859467 L73.0812649,48.4601684 L73.7581413,48.4993111 L73.4185002,54.669217 C73.7954145,54.7170263 74.1662091,54.766619 74.5301162,54.8180603 C77.489353,55.2430381 79.9842862,55.7798522 81.6568983,56.4956043 L81.6568983,56.4956043 L81.3883853,57.1162956 C79.8276536,56.445278 77.3606905,55.9028721 74.4350178,55.4890779 C74.0903487,55.4403294 73.7391578,55.3932107 73.3821497,55.3476761 L73.126017,59.9625287 L72.4435465,59.923386 L72.7038031,55.2638671 C70.6509516,55.0181871 68.4271452,54.8219706 66.1586874,54.6670192 L65.9544828,57.5748243 L65.2776063,57.5300898 L65.4809169,54.622235 L64.6790461,54.5720205 C62.4332367,54.4369601 60.1677609,54.3382384 57.9973831,54.2665224 L57.7424607,57.5860079 L57.0655842,57.5356816 L57.31808,54.2448477 C55.7544684,54.1967163 54.2475616,54.1623614 52.8415549,54.138189 L53.2672443,57.6642933 L52.5903678,57.7425787 L52.1554141,54.1270604 C50.0597866,54.0951021 48.2166947,54.0855327 46.7837745,54.0855327 L46.4593904,54.0857322 C45.6146242,54.0867754 44.9333968,54.0917459 44.451068,54.0967164 C44.176961,54.0995123 43.9657867,54.1009102 43.8224399,54.1016092 L43.6832942,54.1021572 C43.6656339,54.1022075 43.650765,54.1022411 43.6387267,54.1022634 L43.6007769,54.1023082 L43.5951828,53.4256988 L43.5951828,53.4256988 L43.6199966,53.4253687 C43.7681507,53.4234465 44.5731652,53.4136608 45.8580418,53.4101659 L46.3038639,53.4092534 C46.4582336,53.4090398 46.6182847,53.4089233 46.7837745,53.4089233 L47.1561568,53.4091269 C48.5119924,53.4106048 50.189643,53.4204274 52.0743888,53.448315 L51.4156235,47.9513134 L52.0869059,47.873028 L52.759888,53.4591224 C54.2046096,53.4833059 55.7573809,53.5182341 57.3702825,53.5679671 L57.8599351,47.185235 Z M104.150455,74.2440202 C104.83461,75.6018219 105.364433,76.9006166 105.763001,78.1391368 L107.434145,78.5609001 L107.266324,79.2151423 L105.992054,78.8942112 C106.54485,80.8352894 106.77405,82.6215387 106.77405,84.2477744 C106.77405,84.2777132 106.773972,84.3075961 106.773817,84.3374231 L108.966906,85.5059324 L108.648047,86.1042565 L106.753059,85.0940676 C106.638472,87.3917313 106.067453,89.3332936 105.353956,90.9029913 L108.038299,92.1210477 L107.758598,92.7361472 L105.061322,91.5117495 C104.822383,91.9826563 104.573126,92.4151928 104.323869,92.8088408 C103.104373,94.7380164 101.879282,95.7333592 101.8625,95.7501346 L101.8625,95.7501346 L101.431761,95.2189124 L101.442949,95.2133205 L101.482107,95.1797697 C101.510077,95.1518106 101.560423,95.1126679 101.621957,95.0511579 C101.75062,94.9393217 101.929629,94.7659755 102.147795,94.5311193 C102.584129,94.0669988 103.165348,93.3680221 103.753279,92.4453729 C103.986572,92.0760458 104.219864,91.6710955 104.443868,91.2308329 L99.3004389,88.8945714 L99.58014,88.2794719 L104.736756,90.6217347 C105.450332,89.0482263 106.014486,87.0832285 106.084302,84.7382888 L102.701603,82.9336982 L103.020463,82.3353742 L106.08932,83.9719675 C106.063245,82.3784106 105.8096,80.6222646 105.227509,78.7024678 L101.996757,77.8898825 L102.164577,77.2300485 L104.982448,77.942013 C104.613236,76.8598595 104.140157,75.7279072 103.5463,74.5459781 L103.5463,74.5459781 Z M53.6582663,75.3176483 L56.0779169,79.802235 L59.6589169,78.587235 L59.5101711,76.0389923 L60.1864882,75.9998496 L60.3239169,78.361235 L64.9979052,76.7771116 L65.216072,77.4201702 L60.3649169,79.065235 L60.4555606,80.5963202 L59.7786841,80.6354629 L59.6999169,79.291235 L56.4059169,80.408235 L57.3559138,82.1676198 L56.7635071,82.4863532 L55.7579169,80.628235 L49.0819169,82.893235 L50.3975118,86.0203793 L49.7765755,86.2831945 L48.4399169,83.111235 L42.1910837,85.2319336 L41.9729169,84.588875 L48.1749169,82.484235 L46.4145692,78.3036767 L47.0410995,78.0408615 L48.8179169,82.265235 L55.4309169,80.022235 L53.0602655,75.6363817 L53.6582663,75.3176483 Z" id="Scars" fill="#251514"></path>
                        <path d="M7.36271208,14.7694925 C7.36271208,14.7694925 5.62856573,19.0192707 8.91784978,21.2056698 C12.2071338,23.386477 14.8139474,20.2271024 15.535576,19.4554321 C16.2572047,18.6893537 16.061414,10.8104886 16.061414,10.8104886 L14.170635,13.0136631 L12.6210913,11.3864454 C12.6210913,11.3864454 9.25349101,11.1180383 7.36271208,14.7694925 M28.07737,8.70796673 C28.07737,8.70796673 28.5696438,13.8692105 29.2409262,14.5066773 C29.9122087,15.1385522 34.4825234,16.5309137 36.6753795,13.4330491 C38.8626415,10.3295926 37.369038,4.31280137 37.369038,4.31280137 L35.4111308,5.822591 L33.3245612,3.83190542 L30.4324526,6.39854778 L30.3261662,4.48614759 L29.0507295,7.00246363 L28.07737,8.70796673 M50.6156786,5.71634654 C50.6156786,5.71634654 49.2227675,10.3799189 50.9065676,11.9624021 C52.5903678,13.5392935 55.2866857,13.3603555 56.7187549,11.3584863 C58.1508242,9.35661709 58.0389438,4.36871951 58.0389438,4.36871951 L55.7509894,4.29602593 L55.4768824,5.94001908 L54.6377793,4.51969847 L53.1106117,6.34262965 L52.7749705,4.58120842 L50.6156786,5.71634654 M2.52947837,70.5646069 C2.52947837,70.5646069 1.83022581,72.0799884 5.5390614,74.2048775 C9.24230297,76.3297666 10.3667011,74.9429968 11.7372361,72.5161498 C13.1077711,70.0948946 9.06329431,67.4723341 7.59206692,66.8180919 C6.12643355,66.1638498 5.03000553,66.9467036 5.03000553,66.9467036 L5.96980098,68.5459623 L3.74897484,69.1778372 L4.16293236,70.4695461 L2.52947837,70.5646069" id="Nails" fill="#EED46C"></path>
                        <path d="M74.1665048,22.3352161 C74.3902657,22.7825611 74.474176,23.2466817 74.3785182,23.7052104 C74.3455135,23.8729648 74.2839793,24.0295355 74.211257,24.1749227 C73.5175985,25.5672842 71.0948282,26.2494855 68.4494159,25.7070796 C66.1390854,25.2373672 64.3545929,23.9736174 63.8785417,22.6148067 C63.7448447,22.2625225 63.7056865,21.8990546 63.7840028,21.5411786 C63.834349,21.2727715 63.9462294,21.0379153 64.102862,20.8142428 C64.9643411,19.5896357 67.2411075,19.0248625 69.7136645,19.5337175 C71.861209,19.969879 73.5567566,21.0938335 74.1665048,22.3352161" id="Flesh" fill="#CF342B"></path>
                        <path d="M67.6326889,22.5365213 L68.577519,16.072385 C68.577519,16.072385 64.7909265,15.2280212 66.1776842,12.8515005 C67.5655607,10.4749798 70.7205882,13.8580269 70.7205882,13.8580269 C70.7205882,13.8580269 73.8414923,10.3407763 74.759471,12.7676233 C75.6768904,15.1944703 71.3023663,16.5141383 71.3023663,16.5141383 L70.4464812,23.0733354 L67.6326889,22.5365213" id="Bone" fill="#EED46C"></path>
                    </g>
                </g>
                <path d="M201.97,169.507285 C201.97,169.507285 194.97,160.947285 205.87,153.937285 C216.76,146.937285 229.22,160.947285 229.22,160.947285 C229.22,160.947285 236.22,146.937285 244.789,148.487285 C253.35,150.047285 257.24,158.607285 257.24,158.607285 C257.24,158.607285 268.14,150.827285 275.92,156.277285 C283.7,161.727285 279.03,169.507285 279.03,169.507285 L201.97,169.507285" id="Bubles" fill="#57B579"></path>
            </g>
        </g>
    </g>
</svg>