<?xml version="1.0" encoding="UTF-8"?>
<svg width="195px" height="222px" viewBox="0 0 195 222" version="1.1" xmlns="http://www.w3.org/2000/svg" xmlns:xlink="http://www.w3.org/1999/xlink">
    <title>decoration-12</title>
    <g id="decoration-12" stroke="none" stroke-width="1" fill="none" fill-rule="evenodd">
        <g id="Group" transform="translate(1.000000, 3.596000)">
            <path d="M155.128342,252.074979 L155.471611,252.128846 L155.946056,252.197117 L156.836301,252.305266 L157.463154,252.366918 C158.163375,252.427281 158.814622,252.46508 159.460799,252.484191 L160.18115,252.499231 L160.671301,252.499231 L161.316914,252.491191 L162.03936,252.468504 L162.7996,252.430009 L163.460188,252.384491 L164.040615,252.335324 L164.612534,252.27795 L165.178381,252.215144 L165.642215,252.156742 L166.270304,252.067717 L166.544537,252.025152 L167.20214,251.914103 L167.700975,251.820889 L168.181162,251.723834 L168.990608,251.543194 L169.736248,251.357264 L170.321193,251.198304 L171.057604,250.980476 L171.705785,250.772174 L172.524832,250.485712 L172.969123,250.319085 L173.664075,250.042316 L174.200191,249.814457 L174.545382,249.660903 L175.035024,249.43396 L175.375188,249.269511 L175.818881,249.046829 L176.182362,248.856929 L176.587504,248.637513 L176.915178,248.453535 L177.370665,248.188384 C178.39783,247.577222 179.377433,246.905552 180.307332,246.176254 L180.912831,245.686 L181.063062,245.562974 L181.322365,245.341762 L181.627641,245.07456 L182.014285,244.724307 L182.393464,244.367406 L182.838777,243.931511 L183.193487,243.56967 L183.540906,243.20197 L183.954212,242.747689 L184.218727,242.445817 L184.468831,242.151 L184.705866,241.867029 L184.979882,241.527654 L185.395381,240.992014 C186.758704,239.191766 187.905855,237.244555 188.853739,235.17506 L189.198644,234.398742 C192.351464,227.039929 192.93873,219.086754 192.178148,211.293636 L192.12252,210.751891 L192.077035,210.343289 L191.981892,209.569792 L191.849212,208.634838 L191.760047,208.0862 C191.751185,208.035115 191.742706,207.98737 191.734642,207.943015 L191.649502,207.510098 C191.437944,206.511106 191.136748,205.590107 190.759369,204.74625 L190.616831,204.44 L190.496197,204.141481 C189.715534,202.226107 188.726653,200.059197 187.533784,197.802597 C185.132714,193.260393 182.469831,189.404357 179.204752,186.398082 L178.646337,185.892704 L178.423725,185.674513 L178.022873,185.263377 L177.648502,184.869094 L177.05733,184.235009 L175.791796,182.849043 L174.727489,181.663087 L173.457762,180.229757 L171.678801,178.197089 L169.311703,175.461499 L167.155547,172.947218 L164.360676,169.664299 L162.481656,167.445052 L158.430209,162.633706 L155.632684,159.294235 L152.871616,155.986073 L148.425366,150.635079 L145.895642,147.577871 L145.648356,147.28706 L145.394761,147.003583 L145.215831,146.813 L145.152035,146.722215 C145.025807,146.546897 144.894397,146.373854 144.757784,146.203277 L101.64747,92.3750386 L94.7601878,83.7736744 L94.6798312,83.676 L31.8185624,5.18584165 C26.2991786,-1.70546553 15.6024864,-0.841973118 11.2328767,6.75638417 L11.0223936,7.13658067 L10.8000475,7.56163418 L10.4866312,8.18483787 C10.2967333,8.57023528 10.1035444,8.97325943 9.90643509,9.39659188 L9.50680286,10.271129 C9.37172539,10.572197 9.23471901,10.8830854 9.09559722,11.2045888 L8.88934981,11.6856634 C6.91199642,16.3441713 5.09584992,21.7341167 3.63812232,27.8094279 C0.255998522,41.8888389 -0.614337359,57.1237977 2.01437281,73.0476146 C7.48350265,106.166401 32.3511841,155.876623 60.5505586,188.221869 C65.3433306,193.719121 70.20532,198.703819 75.1081085,203.116047 L75.3551569,203.332638 C79.8412161,207.163642 86.4188794,207.341563 91.1111812,203.717046 L105.724831,192.428 L130.653831,225.442 L130.778255,226.185077 L130.803001,226.323699 C130.904951,226.887346 131.0183,227.448096 131.14536,228.013041 L131.294143,228.649879 C131.312254,228.724801 131.330446,228.799131 131.348885,228.873595 C131.634786,230.024256 131.970816,231.161755 132.365551,232.291692 C132.4455,232.520711 132.529124,232.752871 132.615586,232.985947 C132.815075,233.521769 133.021259,234.038992 133.240198,234.551695 L133.394324,234.90758 L133.616539,235.402568 L133.828133,235.854767 L134.038477,236.288345 L134.161814,236.535163 L134.406186,237.009466 L134.555101,237.28983 L135.010295,238.107719 L135.146745,238.342749 L135.648666,239.168258 L136.097025,239.860093 L136.347251,240.22932 L136.678197,240.700177 C137.037438,241.200299 137.398436,241.672547 137.774368,242.134182 C137.99142,242.40078 138.21367,242.664053 138.440949,242.923599 L138.980008,243.522 C139.882915,244.495561 140.848861,245.401615 141.882272,246.23739 L142.455305,246.688476 L142.883549,247.00972 L143.295774,247.306953 L143.667639,247.565031 L144.268634,247.963436 L144.518799,248.122502 L144.864234,248.336068 C146.129192,249.104922 147.462831,249.774154 148.860681,250.337455 L149.324929,250.520385 L149.699712,250.660899 L150.285775,250.868507 C150.874928,251.069976 151.473317,251.252997 152.080627,251.41731 L152.729686,251.585537 C153.058238,251.666584 153.388733,251.742155 153.721404,251.812176 L154.337725,251.935742 L154.683768,251.999209 L155.128342,252.074979 Z" id="Sticker" fill="#FFFFFF" fill-rule="nonzero" transform="translate(96.476564, 126.499231) scale(-1, 1) translate(-96.476564, -126.499231) "></path>
            <g id="Knife" transform="translate(96.481824, 126.500000) scale(-1, 1) translate(-96.481824, -126.500000) translate(13.000000, 13.000000)">
                <g id="Manche" transform="translate(95.062658, 141.639222)">
                    <path d="M55.6462685,85.1639214 C37.2278954,87.3654574 34.9735014,70.4535376 34.7012826,66.7429054 C34.6669249,66.2645404 34.4951364,65.8099615 34.2070602,65.426741 L0.726797618,21.0894434 C0.422864069,20.6850796 0.232575238,20.1987859 0.227249747,19.693992 L0.227249747,19.6834204 C0.195574632,13.4963905 19.1795284,3.3238667 25.1656979,0.27131671 C26.2017148,-0.257263376 27.4650213,0.00438376654 28.2076763,0.900327012 C33.974485,7.88022704 57.8319472,36.6666985 62.4358797,40.7288365 C67.206315,44.9363339 70.7002294,53.7345495 71.294882,55.2991465 C71.3556687,55.4603635 71.400598,55.6268662 71.427027,55.7960118 C71.8657484,58.5578428 75.142945,82.838169 55.6462685,85.1639214" id="Fill-1732" fill="#221716"></path>
                    <path d="M24.1719673,27.4614763 C24.1719673,25.2440829 25.9691396,23.4495535 28.1838902,23.4495535 C30.4012836,23.4495535 32.195813,25.2440829 32.195813,27.4614763 C32.195813,29.6762269 30.4012836,31.4707563 28.1838902,31.4707563 C25.9691396,31.4707563 24.1719673,29.6762269 24.1719673,27.4614763 M42.3789084,50.7586436 C42.3789084,48.6284658 44.1073652,46.900009 46.237543,46.900009 C48.3677207,46.900009 50.0935347,48.6284658 50.0935347,50.7586436 C50.0935347,52.8888213 48.3677207,54.6146353 46.237543,54.6146353 C44.1073652,54.6146353 42.3789084,52.8888213 42.3789084,50.7586436" id="Combined-Shape" fill="#A7A7AE"></path>
                    <path d="M55.6462685,85.1639214 C34.9735014,87.6323904 34.664282,66.0319652 34.664282,66.0319652 L0.412292467,20.6718651 L0,19.8472802 L0.227289437,19.6834204 L7.71462635,14.2945464 L8.43613817,15.1164884 L41.4538932,62.9450575 C41.4538932,62.9450575 42.3789084,78.0650908 56.2647072,78.3743102 C70.1505061,78.6835295 71.3847406,55.5396505 71.3847406,55.5396505 C71.3847406,55.5396505 76.3216786,82.6954524 55.6462685,85.1639214" id="Fill-1740" fill="#141110"></path>
                </g>
                <g id="Blade">
                    <path d="M122.012314,141.017238 L86.3278722,168.58269 L86.3225864,168.587975 L70.4810412,180.824604 C65.8850374,176.688465 61.3709635,172.039603 56.9837488,167.007521 C28.9584326,134.861923 6.16077353,87.0914978 1.35862345,58.0116644 C-1.30013438,41.9058292 0.354321286,27.9248859 2.80428998,17.7259332 C5.46833362,6.62310847 9.0732498,0 9.0732498,0 L122.012314,141.017238" id="Fill-1733" fill="#A7A7AE"></path>
                    <path d="M86.3225864,168.587975 L70.4810412,180.824604 C65.8850374,176.688465 61.3709635,172.039603 56.9837488,167.007521 C28.9584326,134.861923 6.16077353,87.0914978 1.35862345,58.0116644 C-1.30013438,41.9058292 0.354321286,27.9248859 2.80428998,17.7259332 C5.46833362,6.62310847 9.0732498,0 9.0732498,0 L24.0426378,18.6905918 L24.1932831,19.4385326 L24.1827115,19.4623188 C24.0769955,19.6975369 23.2048384,21.6797122 22.3326812,25.1551263 L22.3168238,25.2211988 C20.5725096,32.2063846 18.8493385,45.1539538 23.268268,62.0235872 C27.4572652,78.0237064 37.2941406,102.021242 52.4141739,126.02935 C61.7330408,140.837521 73.0657979,155.648335 86.3225864,168.587975" id="Fill-1734" fill="#E9E8ED"></path>
                    <path d="M14.8347727,38.5704888 C14.8347727,38.5704888 12.3663037,39.8047233 12.9820995,46.1820421 C13.6005382,52.5593608 16.2751535,64.9043487 18.33133,65.7262907 C20.3875065,66.5482328 16.0690072,50.7093305 17.0970955,42.891631 C18.1251838,35.0739316 14.8347727,38.5704888 14.8347727,38.5704888 M51.2460119,140.607589 C51.2460119,140.607589 67.2910604,164.882629 71.1999102,167.966894 C75.1087599,171.053802 75.3149061,165.910717 72.4341447,163.236102 C69.5560261,160.561487 52.4802464,139.373354 52.2741002,136.698739 C52.067954,134.024124 47.7494547,135.464504 51.2460119,140.607589" id="Light" fill="#FFFFFE"></path>
                    <path d="M57.5202575,167.248025 L56.9837488,167.007521 C28.9584326,134.861923 6.16077353,87.0914978 1.35862345,58.0116644 C-1.30013438,41.9058292 0.354321286,27.9248859 2.80428998,17.7259332 C4.65167738,18.9443103 17.8423934,28.0781741 11.2324994,36.4112392 C4.1363118,45.3601 5.3705463,60.4801334 13.394392,66.3420865 C21.4155948,72.2066826 26.0459563,85.7832621 20.799799,91.0294194 C15.5536416,96.2755768 26.9709715,116.023329 33.7605827,116.023329 C40.547551,116.023329 52.5833195,125.590628 47.6463815,132.996035 C42.7068006,140.401442 42.7068006,148.425288 51.349085,150.584538 C59.9887265,152.743787 57.5202575,167.248025 57.5202575,167.248025" id="Blood" fill="#CF342B"></path>
                    <path d="M72.0139235,78.5866442 L78.9911806,87.3002869 L64.9256645,143.794926 L57.2110382,133.302612 L72.0139235,78.5866442 Z M52.1155262,53.7433802 L66.0039679,71.0834499 L51.9648808,124.66297 L40.2383316,103.680984 L52.1155262,53.7433802 Z" id="Light" fill="#C4C4CC"></path>
                </g>
            </g>
        </g>
    </g>
</svg>