<?xml version="1.0" encoding="UTF-8"?>
<svg width="211px" height="283px" viewBox="0 0 211 283" version="1.1" xmlns="http://www.w3.org/2000/svg" xmlns:xlink="http://www.w3.org/1999/xlink">
    <title>decoration-17</title>
    <g id="decoration-17" stroke="none" stroke-width="1" fill="none" fill-rule="evenodd">
        <g id="Group" transform="translate(1.000000, 0.000000)">
            <path d="M251.370913,176.918933 L251.202857,176.810647 L250.958491,176.631212 L250.607405,176.358343 L250.219846,176.042721 C250.152982,175.987106 250.085175,175.930125 250.016713,175.871983 C249.318947,175.279399 248.646251,174.646134 248.094032,174.058601 L247.159155,173.040827 L246.583133,172.384503 L245.869162,171.560135 L245.123569,170.68911 L244.347541,169.772972 L243.129027,168.317548 L241.987037,166.937413 L240.536291,165.164936 C238.671142,162.873702 236.746068,160.463415 234.84528,158.050113 L233.044546,155.753842 L230.7457,152.789852 L230.518265,152.501278 C225.691978,146.539126 217.738612,146.732692 212.77883,150.799725 L212.575155,150.969827 L212.521289,150.921987 C206.797674,145.887982 197.90814,147.326408 193.885708,153.463162 L193.816155,153.571827 L191.945147,151.910035 L189.871842,150.043506 C183.494716,144.22779 173.282431,146.471374 169.930259,154.424565 L169.734947,154.902372 C168.476659,158.078667 167.951217,161.407478 168.028548,164.871915 L168.049155,165.513827 L159.598155,158.411827 L159.419145,157.975925 C159.24612,157.558787 159.067174,157.132717 158.882349,156.698213 L158.310286,155.369893 L157.703218,153.993937 C157.599138,153.760806 157.493611,153.525815 157.386641,153.289024 C154.633012,147.193524 151.468874,141.091005 147.903335,135.327311 C141.257868,124.584916 133.986033,116.182516 125.640405,110.950473 L124.848924,110.460106 C120.537808,107.676541 117.851388,101.283975 117.043407,92.0123249 L116.982155,91.2588267 L116.914667,91.6113446 C117.685786,87.9135808 117.095091,84.2510477 115.479249,81.0193629 L115.273913,80.6163565 C115.20253,80.4812023 115.128285,80.3453552 115.051404,80.2091928 L114.969155,80.0688267 L115.196948,79.7513276 C115.476663,79.3465174 115.742622,78.9244808 115.994071,78.4837556 C118.291852,74.4563423 118.778611,69.6504081 117.051914,65.0809778 L116.918797,64.7392533 C113.570796,56.393294 105.347425,53.8499739 98.1839483,56.4256525 L97.8261551,56.5588267 L97.467251,56.4390105 C97.2983075,56.3852344 97.1276577,56.3335596 96.9552166,56.2840303 L96.6212026,56.1917422 C94.8377499,55.7183875 93.0230848,55.5466483 91.2490878,55.6782921 L91.0181551,55.6968267 L90.9850571,55.436191 C90.770752,53.8494831 90.4405994,52.3004774 89.9909571,50.8190592 C86.7697572,40.2063036 77.4883065,33.5309246 65.7536668,36.1624655 L65.3466623,36.2579082 C59.4200946,37.7136152 55.370802,41.6220263 52.2386122,47.1845973 L52.1251551,47.3878267 L52.1060748,47.3450454 C50.6753677,44.288039 48.7890739,41.6167525 46.3545461,39.4250919 C41.4313871,34.9930649 34.9757755,33.2835319 28.237919,34.6022899 C20.613936,36.0932577 15.4890438,41.4656604 11.993534,49.0012935 L11.7193874,49.604607 C10.9065286,51.4307034 10.1796785,53.4016876 9.5328744,55.5036068 L9.49415513,55.6298267 L9.33447148,55.496182 C6.2406352,52.9489588 2.40685836,51.3264688 -2.00402411,50.8591131 C-8.00144631,50.220497 -13.5891934,52.1346133 -18.0888285,55.9978716 L-18.5064513,56.3645947 C-21.402067,58.9648034 -23.7178573,62.2596616 -25.629326,66.1586183 L-25.9278449,66.7788267 L-26.2221366,67.3335092 C-26.3952044,67.667868 -26.5530777,68.0098751 -26.6952737,68.3584846 L-26.8199686,68.6746977 L-26.9560466,69.0423422 L-27.0809895,69.400102 L-27.1258449,69.5328267 L-27.4357566,70.3238947 C-31.1498379,80.0251839 -33.1179576,93.1358801 -33.397938,105.59879 C-33.4714971,108.810858 -32.7512762,112.309658 -31.26225,116.210898 L-30.9542014,116.996546 C-30.6359169,117.787628 -30.2869468,118.595117 -29.9074909,119.419937 L-29.5178804,120.250569 L-29.1079904,121.092961 L-28.6778654,121.947319 L-28.2275497,122.813849 L-27.7570878,123.692756 C-27.5969143,123.987811 -27.4333906,124.284963 -27.2665239,124.584246 L-26.7559026,125.488525 L-26.2252682,126.405799 L-25.6746651,127.336272 C-25.5812363,127.492462 -25.4869774,127.649211 -25.3918892,127.806523 L-24.8114163,128.757182 L-24.2110858,129.721556 L-23.590942,130.69985 L-22.9510294,131.692269 L-22.2913922,132.699021 L-21.612075,133.720309 L-20.9131221,134.75634 L-20.1945779,135.80732 L-19.4564868,136.873454 L-18.6988933,137.954948 L-17.526033,139.60644 L-16.7198775,140.727234 L-15.8943749,141.864108 L-14.6199424,143.600019 L-13.3022287,145.373267 L-11.4782099,147.796877 L-10.2438449,149.415827 L-10.3548715,149.411279 C-15.6580315,149.202897 -20.40875,150.247215 -24.4892629,153.101524 L-24.8038449,153.325827 L-28.5899,155.355441 L-29.6324133,155.926708 C-32.1057864,157.316544 -33.8728971,158.486677 -35.5223406,160.019206 C-40.1300213,164.30029 -42.0822535,170.425325 -39.9102314,176.754713 C-38.6491503,180.429571 -36.4517095,183.265243 -32.797204,186.901031 L-32.4134997,187.276222 L-32.0020249,187.664617 L-31.5630106,188.066107 L-31.0966881,188.480585 L-30.6032886,188.907943 L-30.0830431,189.348073 L-29.536183,189.800869 L-28.9629394,190.266222 L-28.0541106,190.987561 L-27.4159196,191.483837 L-26.4107534,192.251054 L-25.7090599,192.777579 L-24.98237,193.316015 L-24.2309149,193.866255 L-23.4549257,194.42819 L-21.8302698,195.586719 L-20.9820655,196.183097 L-19.21506,197.409542 L-17.828944,198.358429 L-15.9011233,199.661659 L-13.8839513,201.007582 L-11.7792774,202.395336 L-9.58895094,203.824062 L-7.31482146,205.292897 L-4.35712909,207.184033 L-1.90120481,208.739965 L0.632511821,210.333207 L1.81510425,211.072888 L3.20034124,211.935997 L5.9836848,213.659816 C6.4482591,213.946406 6.91292651,214.232491 7.37731391,214.517847 L10.1572932,216.219453 L12.9126423,217.892851 L15.6254514,219.527324 L18.8447707,221.449891 L21.0520714,222.758139 L23.1508727,223.991276 L25.1256588,225.140266 L26.9609138,226.196071 L29.0351296,227.371018 L29.8471814,227.820909 C35.5676591,230.913963 44.2446053,233.694388 53.800641,235.837006 L55.2774558,236.161564 C55.5246541,236.214804 55.7723604,236.267613 56.0205396,236.319986 L57.5150093,236.628955 L59.0191479,236.927201 C59.27055,236.976001 59.5222849,237.024343 59.7743177,237.072221 L61.2898076,237.353892 L62.8107638,237.624182 C63.3184735,237.712353 63.826814,237.798584 64.3355053,237.88283 L65.8623512,238.129572 C66.3714638,238.209806 66.880647,238.288011 67.3896205,238.364145 L68.9156322,238.586285 C70.1863176,238.766149 71.4539421,238.932789 72.7141279,239.085519 L74.2225002,239.262075 L75.7220505,239.425014 L77.2110977,239.574075 L78.687961,239.708992 C78.9329962,239.730285 79.1774536,239.750978 79.4212983,239.771065 L80.8767338,239.884276 C81.1179875,239.901918 81.3585585,239.918944 81.5984116,239.935347 L83.028637,240.026258 C83.7391628,240.067937 84.4425981,240.103918 85.1379974,240.134052 L85.6371551,240.153827 L85.7167108,240.610665 C86.8089016,246.640958 89.2932064,253.05756 92.823882,259.903956 L93.3481551,260.908827 L92.7616713,260.948436 C89.8280899,261.154021 86.8305865,261.432288 83.8122351,261.768128 L82.9657822,261.863774 L81.3101124,262.059376 L79.7078263,262.259542 L78.163407,262.462859 L76.4841624,262.695793 L74.797599,262.945551 C74.7269482,262.956442 74.6570314,262.967272 74.5875714,262.978077 C60.9411738,265.10085 60.3669148,284.422037 73.6235317,287.493109 L74.0294817,287.581163 C76.2897929,288.038594 79.0069123,288.913901 82.0973442,290.159452 L83.0355897,290.544177 C83.1938027,290.610134 83.352928,290.677003 83.5129554,290.744781 L84.4838596,291.162292 C84.6474531,291.233677 84.8119277,291.305958 84.9772729,291.379128 L85.9797087,291.828782 L87.0025394,292.299508 C87.1746829,292.379702 87.3476553,292.460762 87.5214462,292.542683 L88.5739298,293.04448 L89.6455558,293.566633 L90.7358233,294.108858 C90.9190601,294.200886 91.1030529,294.293738 91.287791,294.387408 L92.4050812,294.959204 C92.5927593,295.056124 92.7811618,295.153851 92.9702785,295.252378 L94.1134644,295.853102 L95.2732878,296.472754 L96.4492477,297.111047 L97.6408433,297.767698 C97.8407176,297.878653 98.0412226,297.990362 98.2423478,298.102817 L99.4564573,298.786466 L100.68495,299.487757 L101.927325,300.206404 L102.553562,300.572146 C106.444823,302.851942 110.280617,305.223264 113.948732,307.584402 L115.932217,308.870675 C119.208063,311.010742 122.328468,313.12711 125.209128,315.143364 L127.019576,316.420559 L127.706544,316.912995 C132.848628,320.644695 139.97202,319.925464 144.264364,315.241193 L253.709977,195.802264 C258.92356,190.112637 257.776083,181.131856 251.370913,176.918933 Z" id="Sticker" fill="#FFFFFF" fill-rule="nonzero" transform="translate(108.099026, 176.732478) rotate(48.000000) translate(-108.099026, -176.732478) "></path>
            <g id="Hand" transform="translate(107.691487, 176.265206) rotate(47.500000) translate(-107.691487, -176.265206) translate(-28.696941, 46.200462)">
                <path d="M266.181754,134.772706 C266.391754,134.992706 266.590754,135.222706 266.791754,135.432706 C268.981754,137.882706 271.716855,140.03056 272.776855,140.69056 L239.672935,176.81715 C239.672935,176.81715 208.721754,154.902706 191.561754,151.442706 C192.291754,151.322706 215.691754,147.652706 224.711754,150.942706 C224.711754,150.942706 219.000754,143.802706 214.420754,135.162706 C210.361754,127.502706 207.181754,118.662706 209.731754,112.612706 C209.731754,112.612706 230.291754,131.362706 237.530754,134.752706 C238.361754,135.142706 239.021754,135.322706 239.451754,135.252706 C239.451754,135.252706 231.011754,120.652706 232.611754,113.712706 C232.611754,113.712706 246.781754,131.942706 250.261754,133.102706 L249.111754,113.732706 C249.111754,113.732706 259.171754,126.842706 266.181754,134.772706 Z" id="Grass" fill="#251514"></path>
                <g id="Hand">
                    <g id="Skin">
                        <path d="M114.367842,40.4894441 C114.48903,39.4282191 114.629247,38.3569825 114.769464,37.2657229 C116.311852,35.073192 120.388164,34.0620248 124.815019,34.9730764 C128.659972,35.7539778 131.695673,37.7663007 132.787363,39.9888663 C132.797379,41.0701144 132.81741,42.1513625 132.867487,43.2826684 C133.398309,54.7759353 136.433008,68.2514905 147.119555,74.7189561 C165.287687,85.7416799 177.696901,119.420556 177.696901,119.420556 L242.751174,174.068972 L184.560313,237.548099 L126.597779,180.711306 C113.968223,183.104068 77.4917428,177.787931 63.8906828,170.199171 C61.1264025,168.657392 57.350556,166.464861 53.033872,163.891891 C36.0475702,153.79023 10.5380711,137.731693 4.30842506,131.524528 C-3.51368677,123.745549 -0.198553591,122.98467 10.3277454,117.318129 C17.9896091,113.183356 42.7279141,125.767883 55.5978421,132.906123 C57.0400752,133.717059 58.5023394,131.894956 57.410649,130.643511 C42.7980227,114.134454 7.09273631,72.3962749 7.39320155,59.2811358 C7.76377535,42.7921021 12.0203663,15.2603215 25.0004648,16.6419163 C37.9505168,18.0134996 33.2732745,39.0878262 33.954329,53.9950339 C34.6453991,68.8922301 56.5793618,86.4625119 56.5793618,86.4625119 C56.5793618,86.4625119 49.1178083,61.3034702 46.9945206,50.6912203 C44.8812484,40.0689587 46.824257,2.58569085 59.0131303,0.202940385 C71.1919882,-2.17981008 73.5656636,16.8922052 70.4909026,32.5903259 C67.4161416,48.258412 85.1135444,72.6465639 85.1135444,72.6465639 C85.1135444,72.6465639 83.1204583,51.7824799 83.1505048,45.3250259 C83.1505048,43.6430844 83.1705359,42.8421599 83.1595188,42.5117785 C83.1404893,42.7120097 83.1204583,43.0524026 83.1004273,43.0924488 C83.0803963,43.0223679 83.0603653,42.772079 83.0403343,42.2114318 C83.0403343,42.2114318 86.5257311,4.01734345 96.9218285,1.69466232 C107.327941,-0.638030368 109.1097,13.5483453 105.585243,21.9079951 C102.049769,30.2576333 112.805423,60.6527191 112.805423,60.6527191 C112.805423,60.6527191 113.096874,51.351983 114.367842,40.4894441 Z" id="Fill-1847" fill="#59B148"></path>
                        <path d="M166.579687,130.793685 C166.579687,130.793685 166.602113,131.229206 166.604379,131.991151 L166.604201,132.291968 C166.587008,136.501197 165.932767,148.530076 159.318444,154.741328 C151.741111,161.834916 202.376961,204.285073 209.231802,209.937816 L209.595916,210.237312 L184.560313,237.548099 L126.597779,180.711306 C113.968223,183.104068 77.4917428,177.787931 63.8906828,170.199171 C61.1264025,168.657392 57.350556,166.464861 53.033872,163.891891 C62.0778758,166.625046 101.909552,176.956972 130.173315,157.824887 C144.279558,148.270258 153.02058,141.890462 158.386808,137.741422 L159.097835,137.189382 C163.355813,133.869309 165.291354,132.096322 166.088028,131.309043 L166.259983,131.136685 C166.494491,130.897881 166.579687,130.793685 166.579687,130.793685 Z M19.3116562,123.375121 C19.3116562,123.375121 25.2308215,128.45098 22.6768669,132.035118 C20.1128968,135.629266 16.2168642,136.500272 13.9834059,134.728226 C13.9834059,134.728226 17.7993145,133.777128 18.9510979,130.653523 C20.1128968,127.529917 19.3116562,123.375121 19.3116562,123.375121 Z M56.8798271,133.056296 C56.4391447,135.238816 47.2439067,135.028573 41.1054018,130.873777 C34.9558799,126.728993 10.3277454,117.318129 10.3277454,117.318129 C20.1429434,108.828329 57.3104939,130.873777 56.8798271,133.056296 Z M31.9011499,23.7701446 C33.5721909,24.7758416 34.4020187,32.7688624 34.8261755,41.0491258 L34.8700884,41.9370908 C34.8842219,42.233242 34.8978577,42.5294545 34.9110158,42.8254228 L34.9490765,43.7122905 C35.1629685,48.8778538 35.2366238,53.8752049 35.2763761,57.0685818 C35.3700211,64.5912654 50.6958768,80.5625014 55.2915265,85.1846118 L55.8663313,85.7596829 C56.3229288,86.213933 56.5793618,86.4625119 56.5793618,86.4625119 C46.8042259,88.9353664 36.0375547,75.9203429 29.2871023,63.1055504 C25.0880679,55.1280418 27.124402,41.855079 29.2635739,32.9613461 C27.1559474,36.0746088 17.1258484,49.6016013 12.1405524,33.0708807 C12.1405524,33.0708807 20.8582507,40.936158 29.330263,32.6870764 C30.6087423,27.4289093 31.9011499,23.7701446 31.9011499,23.7701446 Z M67.5763897,15.8009455 L67.5766712,15.8617593 C67.5766947,15.8668271 67.5767201,15.8723172 67.5767476,15.8782649 L67.5776928,16.0824907 L67.577793,16.1041389 L67.577793,16.1041389 L67.5786415,16.2874555 L67.5787852,16.3185003 L67.5787852,16.3185003 L67.5795958,16.4936521 C67.5799521,16.5706195 67.5803479,16.6561389 67.5807877,16.7511604 L67.5817272,16.9541544 C67.5858971,17.8550988 67.5933247,19.459906 67.6065552,22.3184689 C67.6464983,28.8259807 57.5508661,31.979621 53.1240116,29.1163158 C48.6871415,26.2530106 50.2295297,22.1883187 50.2295297,22.1883187 C62.9392095,33.1509731 67.5763897,15.8009455 67.5763897,15.8009455 Z M89.5504145,18.6242045 C89.5504145,18.6242045 86.9263514,20.0458455 90.3616707,23.2795783 C93.8070055,26.5032995 96.4811461,26.4232071 99.8964344,23.4798095 C103.311723,20.5264003 103.65225,15.3404139 103.65225,15.3404139 C103.65225,15.3404139 98.844806,27.3542819 89.5504145,18.6242045" id="Shadow" fill="#449143"></path>
                    </g>
                    <path d="M103.592157,84.4802237 L104.804033,84.5803393 L103.93048,95.9466828 C108.2769,96.0906359 112.835887,96.2957282 117.32336,96.5860299 L117.954396,87.6038294 L119.166272,87.6839219 L118.535777,96.6666872 C122.585719,96.9436739 126.556,97.2923176 130.235655,97.7304934 L130.844354,86.7628586 L132.056231,86.8329395 L131.447929,97.8794834 C132.122827,97.9650891 132.786766,98.0538887 133.438371,98.1459985 C138.736575,98.9068768 143.203491,99.8679862 146.198128,101.149465 L146.198128,101.149465 L145.717384,102.260748 C142.923057,101.059361 138.506218,100.08824 133.268107,99.3473853 C132.650583,99.2600453 132.021366,99.1756274 131.381719,99.0940494 L130.924478,107.356631 L129.702587,107.28655 L130.167514,98.9440451 C126.492599,98.5042642 122.511721,98.1530142 118.450911,97.8756235 L118.084597,103.081696 L116.872721,103.001603 L117.239204,97.7951691 C116.760494,97.7642846 116.280991,97.7343995 115.801061,97.70549 C115.327251,97.6769956 114.852951,97.6494045 114.378499,97.6226896 L112.95502,97.5451456 L112.95502,97.5451456 L111.532643,97.472694 C108.933389,97.3447388 106.349782,97.2415124 103.837358,97.1584984 L103.381831,103.101719 L102.169955,103.011615 L102.621001,97.11969 C99.8222185,97.0335424 97.1249201,96.9720477 94.6081763,96.9287756 L95.3694247,103.241881 L94.1575482,103.382043 L93.379978,96.9088533 C90.0252402,96.8576874 87.0319228,96.8385678 84.6017506,96.8350895 L82.9645683,96.835159 C81.5517571,96.8375651 80.407026,96.8460364 79.584984,96.8545077 C79.0615067,96.8598472 78.666228,96.8623389 78.4097835,96.8635018 L78.2436478,96.8641484 C78.2203524,96.8642226 78.1992679,96.8642819 78.180415,96.8643294 L78.0626267,96.8645192 L78.0526112,95.6531209 L78.0526112,95.6531209 L78.1054353,95.6524214 C78.4557147,95.6479083 80.5291732,95.6230862 83.7614508,95.6230862 C86.2964921,95.6230862 89.543816,95.6390096 93.2346784,95.6936269 L92.0542915,85.851807 L93.2561525,85.7116452 L94.4606099,95.7129549 C97.0469814,95.7562469 99.8267752,95.8187723 102.714219,95.9077984 L103.592157,84.4802237 Z M186.470486,132.926146 C187.695143,135.356648 188.643598,137.681548 189.357141,139.898577 L192.34959,140.655068 L192.049124,141.82642 L189.768043,141.253113 C190.757501,144.727913 191.16776,147.925575 191.16776,150.836821 C191.16776,150.890184 191.167621,150.943449 191.167346,150.996614 L195.093839,153.089421 L194.522955,154.160658 L191.130167,152.352227 C190.92503,156.465002 189.903078,159.940502 188.626031,162.750525 L193.431265,164.933092 L192.930489,166.034364 L188.100984,163.842829 C187.673285,164.685697 187.227126,165.459901 186.780967,166.164514 C184.597586,169.618501 182.40419,171.400558 182.374144,171.430593 L182.374144,171.430593 L181.602949,170.479495 L181.622981,170.469483 L181.693089,170.409414 C181.743167,170.359356 181.833306,170.289275 181.943477,170.179148 C182.173833,169.978917 182.49433,169.668559 182.884935,169.248073 C183.666144,168.417114 184.706755,167.16567 185.759385,165.513763 C186.176962,164.852693 186.59454,164.127878 186.995499,163.339872 L177.787041,159.156424 L178.287816,158.055153 L187.520514,162.248032 C188.79807,159.430677 189.808043,155.912385 189.932873,151.71383 L183.87647,148.484105 L184.447354,147.412868 L189.941821,150.342986 C189.895137,147.490047 189.441056,144.346042 188.399004,140.909071 L182.614516,139.453681 L182.914981,138.272317 L187.960107,139.547081 C187.299067,137.609579 186.452062,135.582915 185.388812,133.46677 L185.388812,133.46677 Z M96.0695087,134.848365 L100.404114,142.878224 L106.813114,140.704224 L106.546732,136.139856 L107.757607,136.069775 L108.005114,140.299224 L116.371945,137.461381 L116.76255,138.61271 L108.078114,141.558224 L108.239353,144.299274 L107.027476,144.369355 L106.886114,141.962224 L100.989114,143.963224 L102.68976,147.112522 L101.629117,147.68318 L99.8311139,144.356224 L87.8761139,148.412224 L90.2314691,154.010484 L89.1197477,154.481027 L86.7271139,148.802224 L75.5387187,152.598855 L75.1481139,151.447526 L86.2541139,147.679224 L83.1004273,140.194536 L84.2221642,139.723993 L87.4041139,147.289224 L99.2441139,143.272224 L94.9988509,135.419024 L96.0695087,134.848365 Z" id="Scars" fill="#251514"></path>
                    <path d="M13.1821652,26.4432302 C13.1821652,26.4432302 10.0773577,34.0520132 15.9664765,37.9665318 C21.8555953,41.8710389 26.522822,36.2145094 27.8148226,34.8329146 C29.1068231,33.4613314 28.7562803,19.3550481 28.7562803,19.3550481 L25.3710386,23.2996014 L22.5967429,20.3862385 C22.5967429,20.3862385 16.567407,19.9056838 13.1821652,26.4432302 M50.2695917,15.5907029 C50.2695917,15.5907029 51.1509565,24.8313696 52.3528174,25.972687 C53.5546784,27.1039929 61.7373485,29.5968705 65.6634277,24.0504682 C69.5794914,18.4940543 66.9053507,7.72161938 66.9053507,7.72161938 L63.3999229,10.4247397 L59.6641383,6.86062552 L54.4861207,11.45593 L54.295826,8.03197764 L52.0122902,12.5371781 L50.2695917,15.5907029 M90.6220739,10.2345201 C90.6220739,10.2345201 88.1282124,18.5841583 91.1428803,21.4174288 C94.1575482,24.2406878 98.9850232,23.9203179 101.548993,20.3361807 C104.112963,16.7520434 103.912653,7.82173495 103.912653,7.82173495 L99.8163103,7.69158471 L99.3255504,10.6349823 L97.8232242,8.09204698 L95.0889905,11.3558144 L94.48806,8.2021741 L90.6220739,10.2345201 M4.52876623,126.338542 C4.52876623,126.338542 3.27682772,129.051674 9.91710959,132.856065 C16.547376,136.660457 18.5604931,134.177591 21.0142926,129.832575 C23.4680921,125.497571 16.2268797,120.802151 13.5928011,119.630799 C10.9687379,118.459447 9.00569836,119.861065 9.00569836,119.861065 L10.6883037,122.72437 L6.712147,123.855676 L7.4532946,126.168345 L4.52876623,126.338542" id="Nails" fill="#EED46C"></path>
                    <path d="M132.787363,39.9888663 C133.187983,40.7897908 133.338216,41.62075 133.166951,42.4416976 C133.107859,42.7420443 132.997689,43.0223679 132.867487,43.2826684 C131.625564,45.775546 127.287848,46.9969559 122.551514,46.0258349 C118.415109,45.1848641 115.220162,42.9222523 114.367842,40.4894441 C114.128471,39.858716 114.058363,39.2079649 114.19858,38.5672252 C114.28872,38.0866705 114.48903,37.6661851 114.769464,37.2657229 C116.311852,35.073192 120.388164,34.0620248 124.815019,34.9730764 C128.659972,35.7539778 131.695673,37.7663007 132.787363,39.9888663" id="Flesh" fill="#CF342B"></path>
                    <path d="M121.08925,40.3492823 L122.780869,28.7759229 C122.780869,28.7759229 116.001371,27.2641778 118.484216,23.0092663 C120.969063,18.7543547 126.61781,24.8113465 126.61781,24.8113465 C126.61781,24.8113465 132.205462,18.5140774 133.849007,22.8590929 C135.49155,27.2041085 127.659423,29.5668359 127.659423,29.5668359 L126.12705,41.3103917 L121.08925,40.3492823" id="Bone" fill="#EED46C"></path>
                </g>
                <path d="M196.341754,208.212706 C196.601754,208.492706 196.840754,208.762706 197.081754,209.022706 C199.771754,212.032706 202.566654,215.082848 203.866654,215.892848 L163.331242,260.129489 C163.331242,260.129489 125.841754,232.922706 104.791754,228.662706 C105.691754,228.522706 134.391754,224.022706 145.461754,228.062706 C145.461754,228.062706 138.451754,219.292706 132.841754,208.702706 C127.851754,199.302706 123.960754,188.452706 127.081754,181.032706 C127.081754,181.032706 152.311754,204.032706 161.181754,208.192706 C162.210754,208.672706 163.011754,208.902706 163.541754,208.812706 C163.541754,208.812706 153.190754,190.892706 155.151754,182.372706 C155.151754,182.372706 172.541754,204.742706 176.800754,206.172706 L175.401754,182.402706 C175.401754,182.402706 187.741754,198.482706 196.341754,208.212706 Z" id="Grass" fill="#251514"></path>
            </g>
        </g>
    </g>
</svg>