<?xml version="1.0" encoding="UTF-8"?>
<svg width="314px" height="199px" viewBox="0 0 314 199" version="1.1" xmlns="http://www.w3.org/2000/svg" xmlns:xlink="http://www.w3.org/1999/xlink">
    <title>decoration-13</title>
    <g id="decoration-13" stroke="none" stroke-width="1" fill="none" fill-rule="evenodd">
        <g id="Group" transform="translate(2.000000, -0.124000)">
            <path d="M288.992603,2.50176027 L102.881668,120.327109 L17.9394894,167.416579 C17.5547434,167.629866 17.1816143,167.863264 16.8193713,168.117488 L16.4607298,168.37868 L16.0609011,168.687565 L15.6180379,169.042346 C15.4635049,169.168235 15.30219,169.301744 15.1344841,169.442842 L14.6125835,169.888877 C14.5225347,169.967001 14.4309857,170.047015 14.3379855,170.128916 L13.7629592,170.642923 C12.0560993,172.190891 10.3667441,173.925641 8.77197701,175.850844 C3.70268279,181.970495 0.50493223,188.736558 0.558927054,196.40935 C0.690565238,214.449381 20.0343348,232.032679 37.0477685,224.343916 L37.9297584,223.944724 L38.3838229,223.734545 L39.1386468,223.369352 L39.826822,223.017114 L40.9899709,222.390256 L43.0337392,221.238933 L47.5782873,218.603185 L72.0522793,204.200981 L76.3917462,201.664136 L79.2051416,200.030616 L83.3076359,197.670602 L85.9735507,196.155754 L87.9520938,195.04428 L89.796812,194.02052 L91.5106879,193.08306 L92.7562836,192.412094 L93.5955904,191.96607 L94.3885444,191.550088 L95.4893535,190.983295 L96.4814705,190.486283 L97.0811941,190.194355 L97.8286101,189.843006 L98.2359605,189.659695 L98.6576676,189.479109 L98.8718373,189.460979 L99.37645,189.437596 L100.075543,189.426051 L100.79024,189.426093 L102.148821,189.442961 L104.556716,189.499836 L107.410023,189.585386 L109.335237,189.634213 L110.54321,189.657624 L111.697471,189.673239 L112.803753,189.680643 C112.984454,189.68117 113.163394,189.681337 113.340694,189.681137 L114.385759,189.675446 C114.556974,189.673738 114.726787,189.671645 114.895317,189.669158 L115.892067,189.649439 L116.863773,189.619848 C117.023956,189.614071 117.183334,189.607865 117.342027,189.601222 L118.286919,189.556046 C118.44335,189.547619 118.599334,189.538738 118.754991,189.529394 L119.685971,189.467699 C119.995628,189.445236 120.304933,189.42085 120.614843,189.394474 L121.547341,189.309302 L122.489199,189.211768 C122.805348,189.177151 123.124014,189.140404 123.44615,189.101458 C130.140676,188.292108 136.166868,186.571874 141.615705,183.586842 C141.777834,183.498023 141.937972,183.405619 142.096002,183.309697 C147.722628,179.894413 151.563239,174.974136 152.394369,168.621611 L152.443606,168.210015 C153.066357,162.464017 150.901034,157.400762 146.91718,152.514506 L146.758668,152.323109 L146.448826,151.850516 L146.205668,151.494109 L146.248949,151.381114 C147.006531,149.41688 147.915992,147.567239 148.956431,146.017861 C150.810102,143.257453 152.219265,142.375246 154.139729,142.533077 L154.961753,142.623003 C156.458784,142.786754 158.000772,142.921871 159.59055,143.029556 L160.964987,143.115168 L162.363228,143.187511 C163.068365,143.220393 163.782578,143.248363 164.506089,143.271515 L165.965576,143.311423 C166.94692,143.333783 167.945058,143.34769 168.960521,143.353368 L170.496773,143.35574 C170.755002,143.355117 171.014331,143.353985 171.274767,143.35235 L172.85074,143.336522 C173.115639,143.332886 173.381663,143.328753 173.648818,143.324127 L175.265405,143.290477 C175.537123,143.283891 175.809989,143.276819 176.084013,143.269264 L177.742105,143.21817 L179.428364,143.155657 C179.711776,143.144296 179.996379,143.132466 180.28218,143.12017 L182.011431,143.040843 L183.76984,142.950517 L185.557804,142.84936 L187.375718,142.73754 L189.223979,142.615225 L191.102984,142.482584 L193.013129,142.339783 L194.954812,142.186993 L196.928428,142.02438 L198.934373,141.852112 L200.973046,141.670358 L203.044842,141.479286 L204.677668,141.324109 L204.973125,141.43234 C205.29423,141.545999 205.621205,141.648969 205.953669,141.740857 C208.880405,142.549766 211.487462,142.422167 214.318649,141.814899 C215.552116,141.55033 216.767705,141.201459 218.199656,140.724762 L219.454053,140.294389 L223.349065,138.894446 L224.173296,138.605485 L224.93983,138.344573 C225.063143,138.303324 225.184326,138.263169 225.303517,138.224069 L225.995848,138.001833 C226.107616,137.966804 226.217667,137.932755 226.326136,137.899648 L226.959072,137.712012 C227.061764,137.682523 227.16315,137.653901 227.263365,137.626107 L227.851717,137.468993 C227.947801,137.444365 228.04299,137.42049 228.13742,137.397331 L228.436081,137.326867 L228.722098,137.264736 L229.004668,137.208109 L229.031271,137.312988 C230.189055,141.660215 233.012516,145.227372 236.821419,147.512809 C240.233906,149.560386 244.218935,150.460801 248.142796,150.313853 C252.216012,150.161311 256.228296,148.890275 259.489987,146.339546 L259.76802,146.117402 C264.172336,142.522359 266.447253,136.982398 265.512582,131.093375 L265.476668,130.887109 L265.520604,130.903896 C267.988922,131.810427 270.567093,132.328981 273.434229,132.171226 C283.813701,131.600131 289.678222,122.942698 288.964057,111.875183 C288.661498,107.18638 287.606629,103.316806 285.816079,99.0426628 L285.447175,98.1796205 L284.990668,97.1471093 L285.027222,97.0926248 C286.686892,94.5271141 288.518099,91.097959 290.418048,87.0636079 L291.05377,85.6967641 L291.693737,84.2872181 L292.337104,82.8370971 C292.444568,82.5921471 292.552139,82.3455952 292.659798,82.0974856 L293.306679,80.5904905 L293.954844,79.0482381 C294.062931,78.7883762 294.171037,78.5271338 294.279144,78.2645553 L294.92765,76.6734056 L295.575325,75.0523167 L296.221324,73.4034156 L296.8648,71.7288296 L297.504908,70.0306857 L298.140801,68.3111111 C298.246385,68.0228476 298.351758,67.7337799 298.456902,67.4439521 L299.084887,65.6962199 L299.706542,63.9323748 C299.912611,63.3419774 300.117484,62.749249 300.32102,62.1545442 L300.927477,60.364855 C301.128198,59.7665518 301.327442,59.1666268 301.525066,58.5654344 L302.112941,56.7584096 C302.210063,56.4567233 302.306746,56.1548088 302.402971,55.8527104 L302.974688,54.0382677 L303.534576,52.2215387 C303.71914,51.6158176 303.901591,51.01007 304.081789,50.4046504 L304.61548,48.5897301 C305.756552,44.6610711 306.796453,40.7612484 307.696459,36.9876234 L308.101772,35.2552656 C309.484613,29.2258579 310.486856,23.5648454 310.945262,18.682635 C311.087001,17.1730567 310.546847,8.196622 306,4 C301.333402,-0.307149222 292.60986,0.211672609 288.992603,2.50176027 Z" id="Sticker" fill="#FFFFFF" fill-rule="nonzero"></path>
            <g id="Knife" transform="translate(13.057738, 13.063109)">
                <path d="M0.00226218272,183.256 C0.0722621827,192.952 11.0422622,203.415 18.8422622,199.89 C26.6522622,196.364 75.1822622,166.038 82.4622622,164.296 C89.7522622,162.553 108.732262,167.132 122.552262,159.561 C125.19853,157.954753 126.661863,156.080049 126.942262,153.936891 C127.222661,151.793732 125.889328,149.127065 122.942262,145.936891 L118.942262,142.936891 C118.942262,142.936891 123.522262,114.852 142.712262,117.072 C161.892262,119.292 193.492262,115.463 203.452262,114.502 C213.402262,113.541 222.772262,73.22 222.772262,73.22 L112.472262,117.911 L10.9422622,165.286 C10.9422622,165.286 -0.0677378173,173.56 0.00226218272,183.256 Z" id="Shadow" fill="#16101C"></path>
                <path d="M282.621262,0 C282.621262,0 281.962262,4.431 280.652262,11.258 C278.492262,22.553 274.552262,40.39 268.942262,55.413 C265.632262,64.266 261.752262,72.145 257.302262,77.141 C256.612262,77.91 255.911262,78.661 255.161262,79.4 C248.182262,86.427 238.762262,92.364 228.792262,97.201 C215.622262,103.589 201.492262,108.052 190.782262,110.546 C189.621262,110.811 188.522262,111.061 187.462262,111.277 C168.142262,115.309 142.972262,112.431 131.062262,115.966 C119.142262,119.501 113.512262,139.984 113.512262,139.984 L100.312262,123.186 L96.2722622,118.058 L96.2322622,118.003 L282.621262,0" id="Blade" fill="#B4D3E5"></path>
                <path d="M282.621262,0 C282.621262,0 281.962262,4.431 280.652262,11.258 L262.682262,20.661 L268.942262,55.413 C265.632262,64.266 261.752262,72.145 257.302262,77.141 C256.612262,77.91 255.911262,78.661 255.161262,79.4 L246.822262,30.657 L224.562262,44.721 L228.792262,97.201 C215.622262,103.589 201.492262,108.052 190.782262,110.546 L186.652262,68.105 L100.312262,123.186 L97.4522622,125.015 L94.8722622,118.941 L96.2722622,118.058 L282.621262,0" id="Light" fill="#DDECF4"></path>
                <path d="M96.2322622,118.005 C116.705596,137.292927 125.942262,147.603557 123.942262,148.936891 C111.692262,157.330891 100.982262,156.402 92.1322622,155.631 C83.2922622,154.86 73.3922622,161.402 61.4922622,167.359 C49.5922622,173.316 27.8922622,194.187 15.3022622,187.606 C2.71226218,181.024 10.9422622,165.286 10.9422622,165.286 L10.9422622,165.286 Z M29.5022622,171.497 C28.1322622,168.992 24.9922622,168.073 22.4822622,169.445 C19.9722622,170.818 19.0622622,173.961 20.4322622,176.465 C21.8022622,178.97 24.9422622,179.889 27.4522622,178.517 C29.9522622,177.145 30.8722622,174.002 29.5022622,171.497 Z" id="Handle" fill="#B76438"></path>
                <path d="M285.442262,4.451 C285.442262,4.451 280.182262,-2.406 274.492262,10.445 C268.802262,23.296 267.992262,40.96 261.772262,47.365 C255.542262,53.77 238.522262,62.343 234.621262,75.715 C230.712262,89.087 234.962262,92.749 219.512262,95.973 C204.052262,99.197 198.032262,103.243 195.422262,112.158 C192.822262,121.072 202.202262,114.622 212.102262,112.194 C222.012262,109.766 227.372262,113.753 227.912262,120.198 C228.442262,126.644 241.202262,126.019 240.092262,119.889 C238.981262,113.758 235.882262,107.409 242.792262,103.623 C249.701262,99.838 250.382262,96.285 252.902262,100.893 C255.422262,105.501 255.422262,105.501 255.422262,105.501 C255.422262,105.501 264.132262,110.465 263.432262,99.617 C262.732262,88.769 255.232262,84.642 260.302262,78.867 C265.382262,73.093 282.922262,31.29 285.442262,4.451" id="Blood" fill="#CF342B"></path>
            </g>
        </g>
    </g>
</svg>