<?xml version="1.0" encoding="UTF-8"?>
<svg width="460px" height="222px" viewBox="0 0 460 222" version="1.1" xmlns="http://www.w3.org/2000/svg" xmlns:xlink="http://www.w3.org/1999/xlink">
    <title>decoration-14</title>
    <g id="decoration-14" stroke="none" stroke-width="1" fill="none" fill-rule="evenodd">
        <g id="Group" transform="translate(230.460000, 128.773000) scale(1, -1) translate(-230.460000, -128.773000) translate(1.960000, 1.773000)">
            <g transform="translate(0.000000, 95.000000)">
                <path d="M57.6987391,147.533796 L58.1253227,147.928517 C65.3483272,154.402722 76.9928664,150.464868 78.7370173,140.844718 L78.8703517,140.083955 L78.9915635,139.460082 L79.1344329,138.777745 C79.1600423,138.659585 79.1865489,138.539316 79.2139501,138.417101 C79.600311,136.693846 80.0744194,134.983257 80.6124579,133.474438 L80.7304266,133.149837 C80.9664696,132.51265 81.2025078,131.948589 81.4270434,131.476375 L81.524,131.276 L81.7677699,131.246259 C82.2145679,131.196027 82.7286043,131.166383 83.2903771,131.161337 C84.1406237,131.153699 85.0387852,131.202023 85.9239617,131.293366 L86.433776,131.350802 C86.5144825,131.360683 86.5929596,131.370682 86.6690597,131.38074 L87.0959584,131.441351 L87.458736,131.50067 L87.734697,131.551923 C92.6947077,132.437139 97.365,130.276289 100.056894,126.565274 L100.268,126.263 L100.688909,126.447127 C105.816018,128.658799 111.418708,129.891319 117.235837,129.963518 C117.460641,129.966429 117.691985,129.967589 117.923183,129.966914 L118.516196,129.960876 L119.132681,129.945045 C127.957367,129.657069 136.277048,126.747368 143.211448,121.682151 L143.752,121.279 L143.801157,121.247245 C146.405151,119.49441 148.711779,117.333857 150.630178,114.852972 L151.038,114.31 L151.086867,114.2534 C153.59318,111.21179 155.662163,107.857529 157.245115,104.280513 L157.352,104.032 L157.382019,104.017036 C158.660654,103.347461 159.848335,102.43913 160.879517,101.288724 L161.259435,100.853253 L161.474997,100.61988 L161.794633,100.285114 C162.454336,99.6051469 163.189446,98.9214055 163.942813,98.310165 L164.218049,98.0908645 C164.672682,97.7353178 165.105634,97.4302531 165.498842,97.1863362 L165.648,97.096 C166.620101,97.547022 167.818124,98.2556337 169.113386,99.1449491 C170.017114,99.7654413 170.914606,100.435737 171.768059,101.115351 L172.55893,101.757923 L173.097421,102.210367 L173.525278,102.582803 L173.575454,102.628154 C181.003299,109.40589 192.939629,105.076831 194.369178,95.2065974 L194.407781,94.9416731 L194.466225,94.6240121 C194.577274,94.058147 194.738563,93.3918245 194.956414,92.6546119 C195.5891,90.5135942 196.518594,88.3742314 197.754981,86.4511544 C198.830611,84.7781179 200.089506,83.3487969 201.544494,82.1933657 C202.264774,81.6220873 203.568077,81.1814645 205.505771,81.0243686 C208.127466,80.8118183 211.299759,81.1851584 214.481548,81.9681308 C215.245101,82.1560256 215.952411,82.3536289 216.585773,82.5491759 L217.091693,82.7099154 L217.581025,82.8755768 C227.277311,86.5694 236.941373,77.5360312 234.024785,67.6722931 L233.880351,67.2124383 L233.617308,66.4251249 L233.259618,65.3887479 L232.852924,64.2439899 L232.640149,63.65695 C229.85797,56.0325073 226.298668,47.8855968 221.968837,40.1378647 C215.408453,28.3988144 208.103763,19.3864397 199.406639,14.063073 C185.915892,5.80856462 170.982072,2.68798318 157.399775,2.50791868 L156.62123,2.50094143 L155.513048,2.50483688 L154.630574,2.52251465 L154.110048,2.54095742 L153.851611,2.55350311 C147.720172,2.89215817 142.759525,7.62946449 142.111782,13.7053116 L141.941011,15.5709958 L141.751084,17.4791981 L141.521591,19.6296857 L141.457912,20.2038057 C141.383254,20.8719202 141.305712,21.5490767 141.22525,22.2348544 L140.975069,24.3176299 L140.707151,26.4496065 L140.421278,28.6282584 L140.117233,30.8510596 C140.065033,31.2250653 140.012066,31.6008053 139.958328,31.978227 L139.626616,34.2625166 L139.276186,36.5846412 L139.230494,36.8487858 C138.722696,39.5056287 136.667728,42.7982201 133.698521,46.1108653 L133.284,46.565 L133.03382,46.4681896 C128.392987,44.7146401 123.435034,43.7617389 118.343483,43.6955367 C109.054579,43.5722322 100.137488,46.4243902 92.7217324,51.7254964 L92.2729964,52.0498711 C85.5954535,56.9421748 80.5042058,63.6176212 77.5477132,71.24987 L77.313,71.867 L76.6492125,71.7902339 C70.9626421,71.0812937 66.5202292,69.5211805 64.3694138,67.5401663 C62.8405983,66.1349034 61.355041,64.7482752 59.9164897,63.3861886 L58.2130311,61.7638428 C57.9329617,61.4955412 57.6548326,61.2283157 57.3786737,60.9622137 L55.7456024,59.379461 L54.1612551,57.825939 C53.9013375,57.5695805 53.64351,57.3145346 53.3878027,57.0608483 L51.8178886,55.4937302 L50.3256576,53.9843927 L48.5669258,52.1744023 L48.0731551,51.6564784 C43.8592508,47.1899824 37.0404693,46.4558267 31.9760936,49.8817308 L31.7064909,50.0692434 L31.2545471,50.3999939 L30.6892675,50.8282826 C30.6202074,50.8813851 30.5490711,50.936342 30.4758661,50.9931693 C29.7169102,51.5823284 28.8824081,52.2594849 27.9847071,53.0233752 C25.5112861,55.12811 22.9428108,57.5591712 20.3791249,60.3103909 C13.0143157,68.2139364 7.01890149,77.2651692 3.31880777,87.4757531 C0.588847337,95.0130691 -0.0278178885,103.818489 0.895637528,113.752817 C1.56791777,120.985058 3.04022217,128.548946 5.06978236,136.186162 C5.94904862,139.494833 6.88406057,142.629658 7.82745428,145.525374 L8.2609762,146.837808 L8.80644011,148.438588 L9.17882708,149.495099 L9.55440899,150.521223 C9.57588185,150.578381 9.59661529,150.633252 9.61659354,150.685811 C13.3038412,160.386322 26.4794687,161.598673 31.9073974,152.859698 L32.0808088,152.573957 L32.2528183,152.30395 L32.4137116,152.057613 L32.7754813,151.522467 C32.90479,151.335207 33.0427066,151.13944 33.1888983,150.936285 C34.2497517,149.462076 35.4674849,147.983789 36.7810635,146.643339 C39.7647338,143.598632 42.4867277,142.049621 44.1793692,142.044421 C47.4752379,142.031778 50.8063203,143.077705 53.9687892,144.899987 C55.1213156,145.564097 56.1501942,146.274285 57.0179385,146.964284 L57.3274615,147.215454 L57.6987391,147.533796 Z" id="Sticker" fill="#FFFFFF" fill-rule="nonzero"></path>
                <g id="Creature" transform="translate(13.000000, 15.000000)">
                    <path d="M73.9999669,69.6144802 C73.9999669,69.6144802 53.1609669,71.1844802 42.9009669,61.7344802 C32.6309669,52.2944802 25.9809669,45.2344802 25.9809669,45.2344802 C25.9809669,45.2344802 9.14096689,57.2244802 2.07096689,76.7344802 C-4.99903311,96.2544802 8.30096689,131.24448 8.30096689,131.24448 C8.30096689,131.24448 18.1209669,114.58448 31.1409669,114.54448 C44.1709669,114.49448 53.4409669,123.59448 53.4409669,123.59448 C53.4409669,123.59448 55.7099669,109.23448 61.2709669,105.72448 C66.8209669,102.21448 76.9209669,104.24448 76.9209669,104.24448 C76.9209669,104.24448 75.5609669,86.7144802 80.7499669,83.1644802 L73.9999669,69.6144802 M119.240967,49.0544802 C119.240967,49.0544802 136.500967,37.2744802 138.630967,23.4844802 C140.749967,9.70448015 141.540967,0.0344801512 141.540967,0.0344801512 C141.540967,0.0344801512 162.180967,-1.10551985 179.880967,9.72448015 C197.590967,20.5644802 209.030967,56.1944802 209.030967,56.1944802 C209.030967,56.1944802 190.970967,49.3144802 180.770967,57.4044802 C170.570967,65.5044802 169.000967,78.3944802 169.000967,78.3944802 C169.000967,78.3944802 158.260967,68.5944802 151.730967,69.3244802 C145.200967,70.0444802 138.580967,77.9344802 138.580967,77.9344802 C138.580967,77.9344802 128.700967,63.3944802 122.430967,63.8544802 L119.240967,49.0544802" id="Wings" fill="#2A161C"></path>
                    <path d="M56.1709669,74.3044802 C56.1709669,74.3044802 64.2109669,94.7844802 69.3909669,97.6644802 C69.3909669,97.6644802 53.9609669,99.7644802 50.2409669,107.50448 C50.2409669,107.50448 45.5909669,71.9244802 56.1709669,74.3044802 M23.7809669,53.8244802 C23.7809669,53.8244802 23.4009669,73.0944802 29.3609669,86.1244802 C35.3209669,99.1644802 49.1109669,115.20448 49.1109669,115.20448 C49.1109669,115.20448 34.6599669,107.22448 24.7509669,110.69448 C14.8409669,114.16448 11.7409669,118.21448 11.7409669,118.21448 C11.7409669,118.21448 -3.26903311,73.3944802 23.7809669,53.8244802 M148.630967,5.37448015 C181.970967,3.77448015 198.220967,48.1644802 198.220967,48.1644802 C198.220967,48.1644802 193.270967,46.9444802 183.360967,50.4144802 C173.450967,53.8844802 167.140967,69.1344802 167.140967,69.1344802 C167.140967,69.1344802 167.205724,67.3574472 167.212805,64.4948093 L167.213016,63.572317 C167.198567,56.3506082 166.797367,43.5532802 164.430967,34.0944802 C160.950967,20.1844802 148.630967,5.37448015 148.630967,5.37448015 Z M136.100967,41.5844802 C142.870967,33.1244802 161.459967,63.8244802 161.459967,63.8244802 C153.720967,60.1044802 140.350967,68.0944802 140.350967,68.0944802 C142.600967,62.6144802 136.100967,41.5844802 136.100967,41.5844802 Z" id="Light" fill="#411F29"></path>
                    <g id="Group" transform="translate(73.000000, 39.948541)">
                        <g id="Eye" transform="translate(1.000000, 1.000000)">
                            <path d="M61.2824101,31.0327423 C61.1824101,38.6827423 58.2924101,45.6327423 53.5924101,50.9427423 C47.8924101,57.3827423 39.5224101,61.3927423 30.2524101,61.2727423 C13.3324101,61.0627423 -0.207589908,47.1727423 0.00241009244,30.2427423 C0.142410092,20.1027423 5.18241009,11.1727423 12.8524101,5.70274226 C17.9724101,2.04274226 24.2624101,-0.0872577394 31.0424101,0.00274226063 C47.9624101,0.222742261 61.4924101,14.1127423 61.2824101,31.0327423" fill="#F8EAEF"></path>
                            <path d="M53.5924101,50.9427423 C47.8924101,57.3827423 39.5224101,61.3927423 30.2524101,61.2727423 C13.3324101,61.0627423 -0.207589908,47.1727423 0.00241009244,30.2427423 C0.142410092,20.1027423 5.18241009,11.1727423 12.8524101,5.70274226 C12.9414101,5.84274226 13.0124101,6.00274226 13.0714101,6.17274226 C13.0714101,6.17274226 7.96241009,28.9427423 16.4024101,39.1627423 C24.8424101,49.3827423 39.8824101,51.6527423 45.8524101,51.3327423 C49.8924101,51.1127423 52.4024101,50.9927423 53.5924101,50.9427423" id="Shadow" fill="#DAD4E0"></path>
                            <path d="M1.79241009,23.9527423 L9.94141009,25.8027423 C10.2924101,25.8827423 10.6524101,25.6527423 10.7324101,25.3027423 C10.8124101,24.9427423 10.5924101,24.5827423 10.2324101,24.5027423 L2.08241009,22.6627423 C1.73241009,22.5727423 1.37241009,22.8027423 1.29241009,23.1627423 C1.21241009,23.5127423 1.43241009,23.8727423 1.79241009,23.9527423 M8.67291347,28.0193538 L8.77241009,28.0227423 C9.13241009,28.0627423 9.40141009,28.3827423 9.36241009,28.7527423 C9.35241009,28.8027423 9.25241009,29.8027423 8.67241009,30.9827423 C8.31949218,31.7133443 7.76723125,32.5206166 6.94204757,33.174326 C7.00580879,33.2824944 7.07956893,33.4030778 7.16241009,33.5327423 C7.62241009,34.2327423 8.31241009,35.1727423 9.26241009,36.1227423 C10.0124101,36.8527423 10.3524101,37.6027423 10.3524101,38.2927423 C10.3524101,38.9727423 10.0324101,39.4827423 9.75241009,39.8027423 C9.47241009,40.1227423 9.20241009,40.2827423 9.17241009,40.3027423 C8.85241009,40.4927423 8.44141009,40.3927423 8.25241009,40.0827423 C8.07241009,39.7627423 8.17241009,39.3527423 8.48241009,39.1727423 L8.48241009,39.1727423 L8.49241009,39.1627423 L8.55241009,39.1227423 L8.76241009,38.9227423 C8.91241009,38.7527423 9.02241009,38.5427423 9.02241009,38.2927423 C9.02241009,38.0427423 8.91241009,37.6427423 8.33241009,37.0627423 C7.11378106,35.8558874 6.28678639,34.65943 5.80857885,33.8712371 C5.58544566,33.978043 5.34617753,34.0721182 5.09241009,34.1527423 C4.48141009,34.3527423 4.16241009,34.6127423 3.97241009,34.8627423 C3.79241009,35.1127423 3.72241009,35.3927423 3.71241009,35.7327423 C3.71241009,36.1727423 3.86241009,36.6727423 4.04241009,37.0727423 C4.21241009,37.4827423 4.40241009,37.7727423 4.43241009,37.8227423 L4.43241009,37.8227423 L4.44241009,37.8227423 C4.64241009,38.1327423 4.56241009,38.5427423 4.26241009,38.7527423 C3.96241009,38.9527423 3.54241009,38.8727423 3.34241009,38.5727423 C3.32141009,38.5527423 3.10241009,38.2127423 2.86141009,37.7027423 C2.63241009,37.1927423 2.39241009,36.5027423 2.39241009,35.7327423 C2.39241009,35.1927423 2.52141009,34.5927423 2.90241009,34.0727423 C3.28241009,33.5527423 3.88241009,33.1427423 4.68241009,32.8927423 C4.87974865,32.8292155 5.06521227,32.7561887 5.23961582,32.6750695 C5.23571565,32.4202595 5.38083115,32.1798714 5.62241009,32.0627423 C5.81119058,31.9769329 6.02287892,31.9860276 6.19756785,32.0713052 C6.76374933,31.6037082 7.15726303,31.0397591 7.44241009,30.4927423 C7.92241009,29.5527423 8.03241009,28.6827423 8.04241009,28.6127423 C8.08241009,28.2527423 8.40241009,27.9827423 8.77241009,28.0227423 Z M19.6914101,48.5127423 C19.8424101,48.1827423 20.2424101,48.0327423 20.5714101,48.1927423 C20.9024101,48.3427423 21.0524101,48.7327423 20.9024101,49.0727423 L20.9024101,49.0727423 L20.8924101,49.0727423 L20.8824101,49.1127423 L20.8124101,49.2727423 C20.7624101,49.4027423 20.6924101,49.6127423 20.6224101,49.8527423 C20.4724101,50.3327423 20.3324101,50.9927423 20.3324101,51.6427423 C20.3324101,52.0427423 20.3824101,52.4327423 20.5124101,52.7927423 C20.6424101,53.1427423 20.8324101,53.4527423 21.1424101,53.7327423 C21.6504019,54.1876603 22.2043827,54.4931141 22.7607666,54.7319169 C22.799514,54.6095067 22.852667,54.4706822 22.9224101,54.3227423 C23.1624101,53.8227423 23.6024101,53.2127423 24.3724101,52.8127423 C24.8824101,52.5427423 25.5224101,52.3827423 26.2924101,52.3827423 C26.7924101,52.3827423 27.3424101,52.4527423 27.9624101,52.5927423 C28.3614101,52.6927423 28.7124101,52.7327423 29.0024101,52.7327423 C29.5424101,52.7327423 29.8924101,52.6027423 30.1524101,52.4327423 C30.4224101,52.2527423 30.6024101,52.0127423 30.7424101,51.7327423 C31.0324101,51.1727423 31.0714101,50.4627423 31.0714101,50.2427423 L31.0714101,50.2427423 L31.0714101,50.1727423 C31.0524101,49.8027423 31.3424101,49.4927423 31.7024101,49.4827423 C32.0724101,49.4627423 32.3824101,49.7527423 32.3924101,50.1227423 L32.3924101,50.1227423 L32.3924101,50.2427423 C32.3924101,50.4927423 32.3724101,51.0427423 32.1924101,51.6727423 C32.0024101,52.3027423 31.6324101,53.0327423 30.8924101,53.5327423 C30.4014101,53.8627423 29.7624101,54.0627423 29.0024101,54.0627423 C28.5924101,54.0627423 28.1424101,54.0027423 27.6524101,53.8827423 C27.1224101,53.7627423 26.6724101,53.7127423 26.2924101,53.7127423 C25.1924101,53.7227423 24.7024101,54.1027423 24.3724101,54.4927423 C24.169116,54.7468599 24.0586495,55.0251935 24.0025502,55.2097972 C24.4814325,55.3894933 24.9390393,55.5833228 25.3424101,55.9127423 C25.7524101,56.2427423 26.0424101,56.7827423 26.0724101,57.3927423 C26.1624101,58.9427423 26.1724101,59.7627423 26.1724101,59.9927423 L26.1724101,60.0427423 C26.1724101,60.4127423 25.8724101,60.7127423 25.5124101,60.7127423 C25.1424101,60.7127423 24.8424101,60.4127423 24.8424101,60.0427423 L24.8424101,60.0427423 L24.8422635,59.8970451 C24.8411644,59.5945416 24.8318219,58.8139187 24.7524101,57.4727423 C24.7224101,57.1727423 24.6524101,57.0927423 24.4824101,56.9327423 C24.3124101,56.7827423 23.9814101,56.6227423 23.5424101,56.4527423 C22.6724101,56.1227423 21.4014101,55.7427423 20.2524101,54.7127423 C19.7714101,54.2927423 19.4524101,53.7727423 19.2624101,53.2327423 C19.0714101,52.7027423 19.0024101,52.1527423 19.0024101,51.6427423 C19.0124101,49.9727423 19.6824101,48.5627423 19.6914101,48.5127423 Z M49.5724101,38.1227423 C49.8724101,37.9027423 50.2824101,37.9727423 50.5024101,38.2627423 C50.7124101,38.5627423 50.6514101,38.9727423 50.3524101,39.1927423 L50.3524101,39.1927423 L50.3124101,39.2327423 L50.1624101,39.3527423 C50.0324101,39.4527423 49.8524101,39.6027423 49.6524101,39.7827423 C49.2624101,40.1527423 48.7924101,40.6627423 48.5124101,41.1627423 C48.3214101,41.4827423 48.2224101,41.8027423 48.2224101,42.0327423 C48.2324101,42.2427423 48.2714101,42.4027423 48.4624101,42.6127423 C48.8424101,43.0327423 49.3024101,43.2827423 49.8124101,43.4727423 C50.3224101,43.6627423 50.8614101,43.7827423 51.3724101,44.0227423 C51.7124101,44.1827423 52.0714101,44.4327423 52.2824101,44.8527423 C52.4024101,45.0927423 52.4524101,45.3627423 52.4524101,45.6327423 C52.4524101,45.8127423 52.4324101,45.9927423 52.3924101,46.1827423 L52.410009,46.0812281 C53.6685212,46.8382978 54.3180891,47.1478657 54.5885675,47.2557481 L54.6324101,47.2727423 L54.739009,47.3112281 L54.7977144,47.3258527 C55.0745438,47.4148384 55.2655656,47.6754395 55.261238,47.9652517 L55.2524101,48.0627423 C55.2024101,48.4227423 54.8624101,48.6727423 54.5024101,48.6127423 C54.3924101,48.6027423 54.2424101,48.5627423 53.8324101,48.3727423 C53.4224101,48.1827423 52.7714101,47.8527423 51.7314101,47.2227423 C51.4124101,47.0427423 51.1914101,46.9927423 50.9924101,46.9927423 C50.8124101,46.9927423 50.6424101,47.0327423 50.4224101,47.1227423 C50.2124101,47.2027423 49.9724101,47.3327423 49.6914101,47.4827423 C49.1514101,47.7727423 48.4524101,48.1327423 47.5424101,48.1327423 C47.2024101,48.1327423 46.8324101,48.0727423 46.4424101,47.9627423 C45.7024101,47.7327423 45.1524101,47.3127423 44.8324101,46.8027423 C44.5024101,46.2927423 44.4124101,45.7427423 44.4124101,45.2627423 C44.4124101,44.2527423 44.7924101,43.4627423 44.8124101,43.4127423 C44.9624101,43.0827423 45.3524101,42.9327423 45.6924101,43.0827423 C46.0214101,43.2427423 46.1724101,43.6327423 46.0124101,43.9627423 L46.0124101,43.9627423 L46.0124101,43.9827423 L45.9824101,44.0527423 C45.9524101,44.1227423 45.9124101,44.2227423 45.8824101,44.3527423 C45.8024101,44.5927423 45.7314101,44.9327423 45.7314101,45.2627423 C45.7314101,45.5727423 45.8024101,45.8627423 45.9414101,46.0927423 C46.0924101,46.3227423 46.3324101,46.5327423 46.8324101,46.6927423 C47.1024101,46.7727423 47.3324101,46.8027423 47.5424101,46.8027423 C47.9524101,46.8027423 48.3024101,46.6827423 48.6824101,46.5027423 C49.0624101,46.3227423 49.4524101,46.0827423 49.9224101,45.8927423 C50.2314101,45.7627423 50.5924101,45.6627423 50.9924101,45.6627423 C51.0352239,45.6627423 51.0782111,45.663955 51.1213553,45.6663806 L51.1224101,45.6327423 C51.1224101,45.5227423 51.1124101,45.4727423 51.0924101,45.4427423 L51.0924101,45.4427423 L50.9924101,45.3327423 C50.8824101,45.2427423 50.6024101,45.1227423 50.2224101,45.0127423 C49.4814101,44.7627423 48.3624101,44.4827423 47.4724101,43.5027423 C47.0824101,43.0727423 46.8924101,42.5327423 46.8924101,42.0327423 C46.9014101,41.4627423 47.1024101,40.9527423 47.3624101,40.4927423 C47.6224101,40.0427423 47.9524101,39.6327423 48.2824101,39.2927423 C48.6237434,38.9247423 48.9622323,38.6221645 49.2068545,38.4168667 L49.371299,38.2816311 C49.491299,38.1849645 49.5657434,38.1294089 49.5724101,38.1227423 Z M49.4124101,21.7827423 C49.7714101,21.7627423 50.0824101,22.0527423 50.1024101,22.4127423 L50.1024101,22.4127423 L50.1024101,22.4727423 L50.1224101,22.6727423 C50.1424101,22.8527423 50.1824101,23.0927423 50.2524101,23.3627423 C50.3924101,23.8927423 50.6624101,24.4927423 51.0524101,24.8327423 C51.3124101,25.0527423 51.6114101,25.1927423 52.0924101,25.2027423 C52.2024101,25.2027423 52.3124101,25.1927423 52.4424101,25.1727423 C53.1524101,25.0627423 53.4624101,24.8227423 53.7424101,24.5227423 C54.0024101,24.2227423 54.1914101,23.8027423 54.4724101,23.3627423 C54.6524101,23.0727423 54.9124101,22.7427423 55.3324101,22.5427423 C55.5724101,22.4327423 55.8424101,22.3827423 56.1324101,22.3827423 C56.4624101,22.3827423 56.8124101,22.4527423 57.2024101,22.5827423 C58.6124101,23.0427423 59.3724101,23.4427423 59.8324101,23.7627423 C60.2824101,24.0827423 60.4524101,24.3527423 60.5024101,24.5827423 C60.5824101,24.9427423 60.3524101,25.2927423 59.9924101,25.3727423 C59.6978646,25.430015 59.4100134,25.2864613 59.2712606,25.0351915 L59.2580119,25.0077886 C59.2429656,24.9913534 59.1874101,24.9344089 59.0624101,24.8427423 C58.7714101,24.6427423 58.1124101,24.2827423 56.7824101,23.8427423 C56.4824101,23.7427423 56.2724101,23.7127423 56.1324101,23.7127423 C56.1052672,23.7127423 56.0809815,23.7133545 56.0590836,23.7145498 C56.0913449,23.9560649 56.1751374,24.6124392 56.4024101,26.3927423 C56.4324101,26.6027423 56.4414101,26.8027423 56.4414101,26.9927423 C56.4414101,27.6927423 56.2724101,28.2727423 55.9924101,28.7327423 C55.7124101,29.1927423 55.3424101,29.5127423 54.9924101,29.7327423 C54.2824101,30.1727423 53.6324101,30.2427423 53.5714101,30.2527423 C53.2124101,30.2927423 52.8824101,30.0327423 52.8324101,29.6727423 C52.7924101,29.3027423 53.0524101,28.9827423 53.4224101,28.9327423 L53.4224101,28.9327423 L53.4414101,28.9327423 L53.5524101,28.9127423 C53.6624101,28.8827423 53.8024101,28.8427423 53.9624101,28.7727423 C54.2824101,28.6427423 54.6324101,28.4127423 54.8524101,28.0427423 C55.0024101,27.7927423 55.1124101,27.4727423 55.1224101,26.9927423 C55.1224101,26.8627423 55.1124101,26.7227423 55.0924101,26.5627423 C55.0179778,25.9954476 54.958519,25.5422747 54.9110213,25.1802658 C54.7713694,25.3711945 54.6017089,25.5630581 54.3924101,25.7427423 C53.9624101,26.1027423 53.3824101,26.3827423 52.6324101,26.4927423 C52.4524101,26.5127423 52.2724101,26.5327423 52.0924101,26.5327423 C51.3124101,26.5327423 50.6424101,26.2427423 50.1724101,25.8327423 C49.7024101,25.4127423 49.4024101,24.8927423 49.2024101,24.4027423 C48.8024101,23.4227423 48.7724101,22.5127423 48.7724101,22.4727423 C48.7624101,22.1027423 49.0424101,21.7927423 49.4124101,21.7827423 Z M46.0424101,5.82274226 L46.0424101,5.82274226 C46.0424101,5.89274226 45.9324101,6.86274226 45.4424101,7.74274226 C45.1914101,8.18274226 44.8524101,8.59274226 44.4024101,8.89274226 C43.9424101,9.20274226 43.3524101,9.40274226 42.5324101,9.41274226 C42.3214101,9.41274226 42.0924101,9.39274226 41.8424101,9.36274226 C41.4414101,9.31274226 41.0824101,9.28274226 40.7524101,9.28274226 C39.9414101,9.29274226 39.3214101,9.42274226 38.8524101,9.72274226 C38.6124101,9.87274226 38.4124101,10.0627423 38.2824101,10.2927423 C38.1424101,10.5227423 38.0824101,10.7827423 38.0824101,11.0327423 C38.0824101,11.6227423 38.3924101,12.1127423 38.8124101,12.4727423 C39.2324101,12.8227423 39.8124101,13.0527423 40.4624101,13.0527423 C40.6324101,13.0527423 40.8024101,13.0427423 40.9824101,13.0027423 C41.3424101,12.9327423 41.5824101,12.5827423 41.5124101,12.2227423 C41.4414101,11.8627423 41.0924101,11.6327423 40.7324101,11.7027423 C40.6324101,11.7227423 40.5424101,11.7327423 40.4624101,11.7327423 C40.1324101,11.7327423 39.8524101,11.6127423 39.6624101,11.4527423 C39.4724101,11.2927423 39.4014101,11.1027423 39.4014101,11.0327423 L39.4224101,10.9627423 C39.4424101,10.9327423 39.5124101,10.8427423 39.7224101,10.7627423 C39.9224101,10.6827423 40.2624101,10.6127423 40.7524101,10.6127423 C41.0124101,10.6127423 41.3224101,10.6327423 41.6724101,10.6827423 C41.9724101,10.7127423 42.2624101,10.7327423 42.5324101,10.7327423 C43.6224101,10.7427423 44.5124101,10.4327423 45.1914101,9.96274226 C46.2224101,9.25274226 46.7524101,8.23274226 47.0324101,7.41274226 C47.3124101,6.59274226 47.3624101,5.95274226 47.3624101,5.91274226 C47.3924101,5.54274226 47.1114101,5.23274226 46.7524101,5.20274226 C46.3824101,5.17274226 46.0624101,5.45274226 46.0424101,5.82274226 M22.6124101,1.85274226 C22.6024101,1.87274226 22.3124101,2.32274226 22.0214101,2.98274226 C21.7314101,3.64274226 21.4324101,4.51274226 21.4324101,5.44274226 C21.4324101,5.95274226 21.5324101,6.49274226 21.8124101,6.98274226 C22.0824101,7.47274226 22.5424101,7.90274226 23.1624101,8.18274226 C24.1024101,8.61274226 24.8924101,9.01274226 25.4024101,9.35274226 C25.6624101,9.52274226 25.8524101,9.68274226 25.9424101,9.78274226 L26.0124101,9.88274226 L26.1924101,9.82274226 L26.0024101,9.82274226 L26.0124101,9.88274226 L26.1924101,9.82274226 L26.0024101,9.82274226 L26.2724101,9.82274226 L26.0424101,9.68274226 L26.0024101,9.82274226 L26.2724101,9.82274226 L26.0424101,9.68274226 L26.1524101,9.74274226 L26.0524101,9.66274226 L26.0424101,9.68274226 L26.1524101,9.74274226 L26.0524101,9.66274226 L26.0324101,9.68274226 C25.9624101,9.73274226 25.7624101,9.82274226 25.4424101,9.90274226 C25.0924101,10.0027423 24.8724101,10.3627423 24.9724101,10.7127423 C25.0624101,11.0727423 25.4224101,11.2827423 25.7824101,11.1927423 C26.1924101,11.0827423 26.5124101,10.9627423 26.8024101,10.7627423 C26.9424101,10.6627423 27.0724101,10.5427423 27.1724101,10.3827423 C27.2714101,10.2227423 27.3324101,10.0127423 27.3324101,9.82274226 C27.3214101,9.41274226 27.1324101,9.13274226 26.9224101,8.89274226 C26.6024101,8.55274226 26.1724101,8.25274226 25.6324101,7.94274226 C25.0924101,7.62274226 24.4424101,7.30274226 23.7124101,6.97274226 C23.3124101,6.78274226 23.1024101,6.57274226 22.9624101,6.32274226 C22.8214101,6.08274226 22.7524101,5.79274226 22.7524101,5.44274226 C22.7524101,4.82274226 22.9924101,4.08274226 23.2424101,3.51274226 C23.3624101,3.23274226 23.4924101,2.99274226 23.5824101,2.82274226 L23.6924101,2.63274226 L23.7224101,2.58274226 L23.7324101,2.57274226 C23.9324101,2.26274226 23.8424101,1.85274226 23.5324101,1.65274226 C23.2224101,1.45274226 22.8124101,1.54274226 22.6124101,1.85274226 M19.3614101,5.81274226 C19.3424101,5.83274226 18.9414101,6.06274226 18.5224101,6.48274226 C18.3124101,6.69274226 18.0924101,6.95274226 17.9224101,7.26274226 C17.7524101,7.58274226 17.6124101,7.96274226 17.6124101,8.39274226 C17.6124101,8.82274226 17.7524101,9.28274226 18.0524101,9.70274226 C18.4124101,10.2327423 18.8024101,10.7027423 19.0824101,11.1027423 C19.3724101,11.4927423 19.4924101,11.8227423 19.4724101,11.8627423 L19.4724101,11.8727423 L19.5024101,11.8827423 L19.4724101,11.8627423 L19.4724101,11.8727423 L19.5024101,11.8827423 L19.4724101,11.8627423 C19.4724101,11.8727423 19.4424101,11.9127423 19.3324101,11.9727423 C19.2224101,12.0327423 19.0424101,12.1027423 18.7924101,12.1627423 C18.4324101,12.2527423 18.2224101,12.6127423 18.3124101,12.9727423 C18.4014101,13.3227423 18.7624101,13.5427423 19.1124101,13.4527423 C19.6024101,13.3227423 19.9824101,13.1727423 20.2924101,12.9127423 C20.6124101,12.6627423 20.8124101,12.2427423 20.8024101,11.8627423 C20.7824101,11.2427423 20.4824101,10.8027423 20.1724101,10.3427423 C19.8524101,9.88274226 19.4624101,9.42274226 19.1424101,8.94274226 C18.9824101,8.71274226 18.9414101,8.54274226 18.9414101,8.39274226 C18.9414101,8.23274226 18.9924101,8.07274226 19.0824101,7.90274226 C19.2224101,7.65274226 19.4624101,7.40274226 19.6824101,7.22274226 C19.7824101,7.13274226 19.8824101,7.06274226 19.9424101,7.02274226 L20.0224101,6.97274226 L20.0424101,6.96274226 C20.3524101,6.77274226 20.4624101,6.37274226 20.2724101,6.05274226 C20.0924101,5.73274226 19.6824101,5.63274226 19.3724101,5.81274226" id="Veins" fill="#D55C96"></path>
                            <path d="M57.1024101,40.9727423 C56.9814101,50.2327423 49.3824101,57.6527423 40.1124101,57.5327423 C30.8524101,57.4127423 23.4324101,49.8027423 23.5524101,40.5427423 C23.6724101,31.2727423 31.2824101,23.8627423 40.5424101,23.9827423 C49.8124101,24.1027423 57.2224101,31.7027423 57.1024101,40.9727423" id="Color" fill="#F8C35D"></path>
                            <path d="M49.8524101,40.6427423 C49.7924101,44.9927423 46.2324101,48.4627423 41.8824101,48.4127423 C37.5324101,48.3527423 34.0624101,44.7827423 34.1124101,40.4427423 C34.1724101,36.0927423 37.7424101,32.6127423 42.0824101,32.6727423 C46.4324101,32.7327423 49.9124101,36.2927423 49.8524101,40.6427423" id="Fill-2264" fill="#111014"></path>
                            <path d="M51.9324101,35.2527423 C51.8924101,38.1927423 49.4814101,40.5427423 46.5424101,40.5127423 C43.6024101,40.4727423 41.2424101,38.0527423 41.2824101,35.1127423 C41.3224101,32.1727423 43.7324101,29.8227423 46.6724101,29.8627423 C49.6124101,29.9027423 51.9724101,32.3127423 51.9324101,35.2527423" id="Light" fill="#FAEFF2"></path>
                        </g>
                    </g>
                </g>
            </g>
            <g transform="translate(222.000000, 0.000000)" id="Halloween/Creatures/Eye-Copy">
                <g transform="translate(117.500000, 79.500000) scale(-1, 1) translate(-117.500000, -79.500000) ">
                    <path d="M57.6987391,147.533796 L58.1253227,147.928517 C65.3483272,154.402722 76.9928664,150.464868 78.7370173,140.844718 L78.8703517,140.083955 L78.9915635,139.460082 L79.1344329,138.777745 C79.1600423,138.659585 79.1865489,138.539316 79.2139501,138.417101 C79.600311,136.693846 80.0744194,134.983257 80.6124579,133.474438 L80.7304266,133.149837 C80.9664696,132.51265 81.2025078,131.948589 81.4270434,131.476375 L81.524,131.276 L81.7677699,131.246259 C82.2145679,131.196027 82.7286043,131.166383 83.2903771,131.161337 C84.1406237,131.153699 85.0387852,131.202023 85.9239617,131.293366 L86.433776,131.350802 C86.5144825,131.360683 86.5929596,131.370682 86.6690597,131.38074 L87.0959584,131.441351 L87.458736,131.50067 L87.734697,131.551923 C92.6947077,132.437139 97.365,130.276289 100.056894,126.565274 L100.268,126.263 L100.688909,126.447127 C105.816018,128.658799 111.418708,129.891319 117.235837,129.963518 C117.460641,129.966429 117.691985,129.967589 117.923183,129.966914 L118.516196,129.960876 L119.132681,129.945045 C127.957367,129.657069 136.277048,126.747368 143.211448,121.682151 L143.752,121.279 L143.801157,121.247245 C146.405151,119.49441 148.711779,117.333857 150.630178,114.852972 L151.038,114.31 L151.086867,114.2534 C153.59318,111.21179 155.662163,107.857529 157.245115,104.280513 L157.352,104.032 L157.382019,104.017036 C158.660654,103.347461 159.848335,102.43913 160.879517,101.288724 L161.259435,100.853253 L161.474997,100.61988 L161.794633,100.285114 C162.454336,99.6051469 163.189446,98.9214055 163.942813,98.310165 L164.218049,98.0908645 C164.672682,97.7353178 165.105634,97.4302531 165.498842,97.1863362 L165.648,97.096 C166.620101,97.547022 167.818124,98.2556337 169.113386,99.1449491 C170.017114,99.7654413 170.914606,100.435737 171.768059,101.115351 L172.55893,101.757923 L173.097421,102.210367 L173.525278,102.582803 L173.575454,102.628154 C181.003299,109.40589 192.939629,105.076831 194.369178,95.2065974 L194.407781,94.9416731 L194.466225,94.6240121 C194.577274,94.058147 194.738563,93.3918245 194.956414,92.6546119 C195.5891,90.5135942 196.518594,88.3742314 197.754981,86.4511544 C198.830611,84.7781179 200.089506,83.3487969 201.544494,82.1933657 C202.264774,81.6220873 203.568077,81.1814645 205.505771,81.0243686 C208.127466,80.8118183 211.299759,81.1851584 214.481548,81.9681308 C215.245101,82.1560256 215.952411,82.3536289 216.585773,82.5491759 L217.091693,82.7099154 L217.581025,82.8755768 C227.277311,86.5694 236.941373,77.5360312 234.024785,67.6722931 L233.880351,67.2124383 L233.617308,66.4251249 L233.259618,65.3887479 L232.852924,64.2439899 L232.640149,63.65695 C229.85797,56.0325073 226.298668,47.8855968 221.968837,40.1378647 C215.408453,28.3988144 208.103763,19.3864397 199.406639,14.063073 C185.915892,5.80856462 170.982072,2.68798318 157.399775,2.50791868 L156.62123,2.50094143 L155.513048,2.50483688 L154.630574,2.52251465 L154.110048,2.54095742 L153.851611,2.55350311 C147.720172,2.89215817 142.759525,7.62946449 142.111782,13.7053116 L141.941011,15.5709958 L141.751084,17.4791981 L141.521591,19.6296857 L141.457912,20.2038057 C141.383254,20.8719202 141.305712,21.5490767 141.22525,22.2348544 L140.975069,24.3176299 L140.707151,26.4496065 L140.421278,28.6282584 L140.117233,30.8510596 C140.065033,31.2250653 140.012066,31.6008053 139.958328,31.978227 L139.626616,34.2625166 L139.276186,36.5846412 L139.230494,36.8487858 C138.722696,39.5056287 136.667728,42.7982201 133.698521,46.1108653 L133.284,46.565 L133.03382,46.4681896 C128.392987,44.7146401 123.435034,43.7617389 118.343483,43.6955367 C109.054579,43.5722322 100.137488,46.4243902 92.7217324,51.7254964 L92.2729964,52.0498711 C85.5954535,56.9421748 80.5042058,63.6176212 77.5477132,71.24987 L77.313,71.867 L76.6492125,71.7902339 C70.9626421,71.0812937 66.5202292,69.5211805 64.3694138,67.5401663 C62.8405983,66.1349034 61.355041,64.7482752 59.9164897,63.3861886 L58.2130311,61.7638428 C57.9329617,61.4955412 57.6548326,61.2283157 57.3786737,60.9622137 L55.7456024,59.379461 L54.1612551,57.825939 C53.9013375,57.5695805 53.64351,57.3145346 53.3878027,57.0608483 L51.8178886,55.4937302 L50.3256576,53.9843927 L48.5669258,52.1744023 L48.0731551,51.6564784 C43.8592508,47.1899824 37.0404693,46.4558267 31.9760936,49.8817308 L31.7064909,50.0692434 L31.2545471,50.3999939 L30.6892675,50.8282826 C30.6202074,50.8813851 30.5490711,50.936342 30.4758661,50.9931693 C29.7169102,51.5823284 28.8824081,52.2594849 27.9847071,53.0233752 C25.5112861,55.12811 22.9428108,57.5591712 20.3791249,60.3103909 C13.0143157,68.2139364 7.01890149,77.2651692 3.31880777,87.4757531 C0.588847337,95.0130691 -0.0278178885,103.818489 0.895637528,113.752817 C1.56791777,120.985058 3.04022217,128.548946 5.06978236,136.186162 C5.94904862,139.494833 6.88406057,142.629658 7.82745428,145.525374 L8.2609762,146.837808 L8.80644011,148.438588 L9.17882708,149.495099 L9.55440899,150.521223 C9.57588185,150.578381 9.59661529,150.633252 9.61659354,150.685811 C13.3038412,160.386322 26.4794687,161.598673 31.9073974,152.859698 L32.0808088,152.573957 L32.2528183,152.30395 L32.4137116,152.057613 L32.7754813,151.522467 C32.90479,151.335207 33.0427066,151.13944 33.1888983,150.936285 C34.2497517,149.462076 35.4674849,147.983789 36.7810635,146.643339 C39.7647338,143.598632 42.4867277,142.049621 44.1793692,142.044421 C47.4752379,142.031778 50.8063203,143.077705 53.9687892,144.899987 C55.1213156,145.564097 56.1501942,146.274285 57.0179385,146.964284 L57.3274615,147.215454 L57.6987391,147.533796 Z" id="Sticker" fill="#FFFFFF" fill-rule="nonzero"></path>
                    <g id="Creature" transform="translate(13.000000, 15.000000)">
                        <path d="M73.9999669,69.6144802 C73.9999669,69.6144802 53.1609669,71.1844802 42.9009669,61.7344802 C32.6309669,52.2944802 25.9809669,45.2344802 25.9809669,45.2344802 C25.9809669,45.2344802 9.14096689,57.2244802 2.07096689,76.7344802 C-4.99903311,96.2544802 8.30096689,131.24448 8.30096689,131.24448 C8.30096689,131.24448 18.1209669,114.58448 31.1409669,114.54448 C44.1709669,114.49448 53.4409669,123.59448 53.4409669,123.59448 C53.4409669,123.59448 55.7099669,109.23448 61.2709669,105.72448 C66.8209669,102.21448 76.9209669,104.24448 76.9209669,104.24448 C76.9209669,104.24448 75.5609669,86.7144802 80.7499669,83.1644802 L73.9999669,69.6144802 M119.240967,49.0544802 C119.240967,49.0544802 136.500967,37.2744802 138.630967,23.4844802 C140.749967,9.70448015 141.540967,0.0344801512 141.540967,0.0344801512 C141.540967,0.0344801512 162.180967,-1.10551985 179.880967,9.72448015 C197.590967,20.5644802 209.030967,56.1944802 209.030967,56.1944802 C209.030967,56.1944802 190.970967,49.3144802 180.770967,57.4044802 C170.570967,65.5044802 169.000967,78.3944802 169.000967,78.3944802 C169.000967,78.3944802 158.260967,68.5944802 151.730967,69.3244802 C145.200967,70.0444802 138.580967,77.9344802 138.580967,77.9344802 C138.580967,77.9344802 128.700967,63.3944802 122.430967,63.8544802 L119.240967,49.0544802" id="Wings" fill="#2A161C"></path>
                        <path d="M56.1709669,74.3044802 C56.1709669,74.3044802 64.2109669,94.7844802 69.3909669,97.6644802 C69.3909669,97.6644802 53.9609669,99.7644802 50.2409669,107.50448 C50.2409669,107.50448 45.5909669,71.9244802 56.1709669,74.3044802 M23.7809669,53.8244802 C23.7809669,53.8244802 23.4009669,73.0944802 29.3609669,86.1244802 C35.3209669,99.1644802 49.1109669,115.20448 49.1109669,115.20448 C49.1109669,115.20448 34.6599669,107.22448 24.7509669,110.69448 C14.8409669,114.16448 11.7409669,118.21448 11.7409669,118.21448 C11.7409669,118.21448 -3.26903311,73.3944802 23.7809669,53.8244802 M148.630967,5.37448015 C181.970967,3.77448015 198.220967,48.1644802 198.220967,48.1644802 C198.220967,48.1644802 193.270967,46.9444802 183.360967,50.4144802 C173.450967,53.8844802 167.140967,69.1344802 167.140967,69.1344802 C167.140967,69.1344802 167.205724,67.3574472 167.212805,64.4948093 L167.213016,63.572317 C167.198567,56.3506082 166.797367,43.5532802 164.430967,34.0944802 C160.950967,20.1844802 148.630967,5.37448015 148.630967,5.37448015 Z M136.100967,41.5844802 C142.870967,33.1244802 161.459967,63.8244802 161.459967,63.8244802 C153.720967,60.1044802 140.350967,68.0944802 140.350967,68.0944802 C142.600967,62.6144802 136.100967,41.5844802 136.100967,41.5844802 Z" id="Light" fill="#411F29"></path>
                        <g id="Group" transform="translate(73.000000, 39.948541)">
                            <g id="Eye" transform="translate(1.000000, 1.000000)">
                                <path d="M59.4145325,41.1389304 C56.7935586,48.3175365 51.766298,53.9262418 45.5806206,57.379129 C38.0710382,61.5700037 28.8529029,62.5897683 20.1401772,59.4097129 C4.24884545,53.6131562 -3.93610731,36.0311621 1.86492205,20.1353576 C5.34464514,10.6086093 13.0554968,3.85043249 22.0991987,1.2249859 C28.1417513,-0.537238905 34.7791665,-0.461203825 41.14375,1.8645751 C57.0350818,7.66113181 65.2155619,25.2475986 59.4145325,41.1389304" fill="#F8EAEF"></path>
                                <path d="M45.5806206,57.379129 C38.0710382,61.5700037 28.8529029,62.5897683 20.1401772,59.4097129 C4.24884545,53.6131562 -3.93610731,36.0311621 1.86492205,20.1353576 C5.34464514,10.6086093 13.0554968,3.85043249 22.0991987,1.2249859 C22.1394526,1.38600136 22.1573432,1.56043478 22.1573432,1.73934085 C22.1573432,1.73934085 9.79940631,21.5352976 14.388347,33.9692696 C18.9728151,46.4077142 32.4086611,53.5192305 38.1470733,55.183057 C42.0382804,56.3146379 44.4400944,57.0347348 45.5806206,57.379129" id="Shadow" fill="#DAD4E0"></path>
                                <path d="M45.6790189,34.8414367 C42.5034361,43.5452171 32.8738169,48.0223415 24.1700365,44.8467587 C15.4707288,41.671176 10.9891317,32.0460293 14.1647145,23.342249 C17.3402972,14.6429412 26.9699165,10.1613442 35.6736969,13.3369269 C44.3730046,16.5125097 48.8546017,26.142129 45.6790189,34.8414367" id="Color" fill="#784F8F"></path>
                                <path d="M37.4851208,31.6032368 C35.9957278,35.6867679 31.4828221,37.7844416 27.3992911,36.2950485 C23.3202326,34.8056555 21.2180863,30.2927498 22.7074794,26.2092187 C24.1968724,22.1301603 28.7142507,20.028014 32.7933091,21.517407 C36.8768402,23.0068001 38.9789865,27.5241784 37.4851208,31.6032368" id="Fill-1935" fill="#111014"></path>
                                <path d="M40.9335354,28.0161701 C39.9271887,30.7757962 36.8723675,32.1980995 34.1082687,31.1917528 C31.3486426,30.1809335 29.9263393,27.1261124 30.932686,24.3664862 C31.9435053,21.6023874 34.9983264,20.1845568 37.7579526,21.1909035 C40.5220514,22.1972501 41.9443547,25.2520713 40.9335354,28.0161701" id="Light" fill="#FAEFF2"></path>
                                <path d="M5.6174769,14.8084294 L12.693212,19.2452999 C13.0152429,19.4465693 13.4401449,19.3481709 13.6414142,19.02614 C13.8426835,18.7041091 13.7487578,18.2792071 13.4267269,18.0779378 L6.34651914,13.6410672 C6.02448821,13.4397979 5.60405894,13.5381963 5.39831696,13.8602272 C5.19704763,14.1822581 5.29544597,14.60716 5.6174769,14.8084294 M10.0113146,21.1556128 C10.1993945,20.8758957 10.5642298,20.7672213 10.8773154,20.913599 C11.2217096,21.0746145 11.3693071,21.4860985 11.2082916,21.8304927 L11.2082916,21.8304927 L11.1870759,21.8721809 C11.1172869,22.0100377 10.881788,22.4624145 10.4524135,23.0068001 C9.95147647,23.6463893 9.18665302,24.420158 8.10427129,24.9479309 C7.9040934,25.0449115 7.69320088,25.1332513 7.47197806,25.21026 C7.49647017,25.327335 7.52551547,25.455111 7.55860777,25.5919928 C7.75540445,26.4060154 8.09979863,27.5241784 8.68571602,28.7273217 C8.98091104,29.3356023 9.11956324,29.8812659 9.11956324,30.3777302 C9.11956324,30.829468 8.99432899,31.2364794 8.80200496,31.549565 C8.61415359,31.8671233 8.36368509,32.0952285 8.1311072,32.2607166 C7.66147876,32.5827475 7.24104949,32.6677279 7.19185032,32.6811459 C6.81614757,32.757181 6.45386278,32.5201304 6.3778277,32.1444277 C6.29731997,31.7731976 6.53884316,31.4109128 6.91007326,31.330405 L6.91007326,31.330405 L6.96821773,31.3169871 C7.0174169,31.2990965 7.09345198,31.2722606 7.17843237,31.227534 C7.34839314,31.1470263 7.52282655,31.0128468 7.62569755,30.842886 C7.69278732,30.726597 7.74198649,30.5924175 7.74198649,30.3777302 C7.74198649,30.1406797 7.67489672,29.7962855 7.44679147,29.326657 C6.70382334,27.7990103 6.3194447,26.4081137 6.12627401,25.5037861 L5.86792085,25.5252405 L5.86792085,25.5252405 L5.54591447,25.5338483 C5.48776999,25.5338483 5.42962552,25.5338483 5.3670084,25.5293757 L5.3670084,25.5293757 L5.25966475,25.5293757 C4.92421587,25.5293757 4.66480207,25.5741022 4.46353274,25.641192 C4.25779075,25.7127544 4.10572059,25.8022074 3.984959,25.9095511 C3.7434358,26.1197657 3.59136564,26.4194334 3.50638525,26.7906635 C3.44824078,27.041132 3.42587752,27.3094911 3.42587752,27.5644322 C3.42587752,28.1771855 3.55558442,28.7094311 3.56452973,28.7452123 L3.56452973,28.7452123 L3.58361999,28.8463561 C3.62186099,29.1824602 3.41042654,29.5010905 3.07701068,29.5905435 C2.71025324,29.6844692 2.33455049,29.4697819 2.23615215,29.0985518 C2.22720685,29.0672432 2.05277343,28.4142361 2.04830077,27.5644322 C2.05277343,27.0634952 2.1109179,26.4820505 2.34349579,25.9184964 C2.57160103,25.3594149 3.0009756,24.8003334 3.67187337,24.4783025 C4.11913855,24.2636152 4.64691146,24.1517989 5.25966475,24.1517989 C5.30886392,24.1517989 5.35806309,24.1517989 5.40726226,24.1562716 L5.40726226,24.1562716 L5.54591447,24.1562716 C5.69635802,24.1562716 5.8422654,24.1491952 5.98381934,24.1357732 C6.06994539,23.8927109 6.28782186,23.7111171 6.56120642,23.6821705 C6.76998362,23.6622869 6.96771158,23.7390843 7.10834,23.8757222 L7.26476678,23.8155464 L7.26476678,23.8155464 L7.47362739,23.7224244 C8.02376355,23.4585379 8.47997404,23.1051984 8.85120413,22.738441 C9.58919168,22.0093987 9.96042178,21.2490479 9.96489443,21.2401026 L9.96230077,21.2446781 L9.96489443,21.2401026 L9.96042178,21.2445753 Z M24.5593008,49.2026781 L24.5949821,49.1115717 C24.7355127,48.8052404 25.0800178,48.6403806 25.4134337,48.7379658 C25.7757185,48.8453094 25.9859331,49.2299575 25.8785895,49.5922423 C25.8696442,49.6235508 25.7623005,49.9947809 25.5028867,50.4733547 C25.2434729,50.9429831 24.8364616,51.5333731 24.1834544,51.9582751 C23.7496072,52.2400521 23.1949984,52.4368488 22.5688271,52.4368488 C21.826367,52.4368488 21.0078717,52.177435 20.1222866,51.6049356 C19.1517212,50.9787643 18.4226789,50.7998582 17.894906,50.7998582 C17.317934,50.7998582 16.9332859,51.0056002 16.6425635,51.2426508 C16.4847341,51.3708872 16.3636172,51.5100015 16.2822117,51.6187594 C16.4374956,51.7462899 16.586157,51.8764511 16.7275439,52.0119469 C17.009321,52.2892513 17.2776801,52.5978643 17.4476409,53.0048756 C17.5415665,53.2329808 17.5952384,53.4923946 17.5952384,53.7607537 C17.5952384,53.9620231 17.5639298,54.167765 17.5057853,54.3690344 C17.009321,56.1312592 16.7275439,56.9005553 16.7230713,56.9184459 C16.5933644,57.276258 16.1952984,57.4596367 15.8419589,57.3299298 C15.4841467,57.2002229 15.300768,56.8021569 15.4304749,56.4443448 L15.4304749,56.4443448 L15.4304749,56.4398721 L15.4394202,56.4175089 C15.4483655,56.3951456 15.4573108,56.3593644 15.4752014,56.3146379 C15.50651,56.2207122 15.5557092,56.0775873 15.6183263,55.876318 C15.7480332,55.478252 15.9358846,54.8610261 16.1818804,53.9978043 C16.2087163,53.8994059 16.2176616,53.8233708 16.2176616,53.7607537 C16.2176616,53.6757733 16.2042437,53.6086836 16.1729351,53.5281758 C16.1416265,53.4476681 16.0879547,53.3582151 16.0029743,53.2553441 C15.8374862,53.0451294 15.5512365,52.7946609 15.197897,52.5039386 C14.5001633,51.9224938 13.5385432,51.1666157 12.8542275,49.9321638 C12.5366692,49.3507191 12.4069623,48.7424384 12.4069623,48.1654663 C12.411435,46.9667957 12.9257899,45.9157225 13.4043636,45.1464264 C13.88741,44.3771303 14.3615111,43.8851386 14.3838744,43.8627753 C14.6477608,43.5899436 15.0816081,43.5809983 15.3544398,43.8493574 C15.6272716,44.1132438 15.6362169,44.5470911 15.3723304,44.8199228 L15.3723304,44.8199228 L15.3589125,44.8333408 L15.314186,44.8870126 C15.2694594,44.9317391 15.2068423,45.0033015 15.1308072,45.0972272 C14.9787371,45.2850786 14.7729951,45.5534377 14.5672531,45.8799413 C14.1557691,46.5240031 13.7755937,47.3872249 13.784539,48.1654663 C13.784539,48.5411691 13.8605741,48.9034539 14.0618435,49.2657387 C14.4107103,49.8963826 14.8579755,50.3839016 15.3320766,50.8088035 L15.2358402,50.7201492 C15.2629877,50.6852043 15.2920632,50.6490706 15.3231313,50.6120069 C15.5825451,50.3123392 15.9806111,49.9455818 16.5486379,49.6951133 C16.9288133,49.5296251 17.3805511,49.4222815 17.894906,49.4222815 C18.7447099,49.4222815 19.7376386,49.7174765 20.8647468,50.4465188 C21.5982617,50.9161472 22.1528705,51.059272 22.5688271,51.059272 C22.8729675,51.059272 23.110018,50.9877096 23.3336506,50.866948 C23.5528105,50.7461864 23.7496072,50.571753 23.9150953,50.3704837 C24.2550169,49.9768903 24.4607589,49.4848986 24.5323213,49.2881019 C24.5502119,49.2344301 24.5591572,49.2031216 24.5591572,49.2031216 L24.5591572,49.2031216 L24.5591572,49.2075942 L24.5593008,49.2026781 Z M40.7546293,48.3130639 L40.732266,48.3354271 C40.7099028,48.3577904 40.6785942,48.3935716 40.6383403,48.4427708 C40.5623053,48.5366964 40.4594343,48.6798213 40.3520906,48.8497821 C40.141876,49.185231 39.9584973,49.6280235 39.9629699,49.9992536 C39.9674426,50.1826323 39.9987511,50.3525931 40.0926768,50.5314991 C40.1866025,50.7104052 40.3431453,50.9027292 40.6204497,51.1084712 C41.14375,51.484174 41.5462887,51.5646817 42.0069718,51.5691544 C42.2887489,51.5691544 42.5928892,51.5289005 42.9149201,51.4797013 C43.2414237,51.4305021 43.5902905,51.3723577 43.9704659,51.367885 C44.3148601,51.367885 44.6905629,51.4215568 45.061793,51.587045 L44.9835028,51.5553917 C45.011528,51.4765996 45.0170664,51.4245834 45.0170664,51.3947209 C45.0125938,51.3410491 45.0125938,51.3142132 44.9499767,51.2247602 C44.8873595,51.1353071 44.7621253,51.0100729 44.5832192,50.866948 C44.2209344,50.571753 43.6707983,50.2184135 43.1519706,49.6906406 C42.8075765,49.3373011 42.4766002,48.8945086 42.2440223,48.3398998 C42.1232607,48.0536501 42.0606436,47.7539824 42.0606436,47.46326 C42.0606436,47.1278111 42.145624,46.8102529 42.2753309,46.5284758 C42.4095105,46.2466987 42.5839439,46.0007029 42.7852132,45.7860156 C43.1832792,45.3521684 43.6707983,45.0167195 44.1448993,44.7483604 C45.0886289,44.2161148 45.9876319,43.9432831 46.0189404,43.9298651 L46.0189404,43.9298651 C46.3812252,43.8225215 46.7658733,44.0237908 46.8776896,44.3905482 C46.9895059,44.752833 46.7837639,45.1374811 46.4214791,45.2492974 L46.4214791,45.2492974 L46.4080611,45.2492974 L46.3678073,45.267188 C46.3275534,45.2761333 46.2738816,45.2984966 46.2023192,45.3208598 C46.0547217,45.3745316 45.8489797,45.4505667 45.6164018,45.5534377 C45.151246,45.754707 44.5653286,46.0588474 44.1314814,46.4077142 C43.8362864,46.6402921 43.6215991,46.8952332 43.5232007,47.1099205 C43.4650563,47.2351548 43.4382204,47.3469711 43.4382204,47.46326 C43.4382204,47.566131 43.456111,47.6734746 43.5142554,47.8076542 L43.5142554,47.8076542 C43.7155248,48.2862279 44.0196651,48.6440401 44.3864225,48.966071 C44.75318,49.2881019 45.1691366,49.5609337 45.5537847,49.8874373 C45.8087258,50.1021246 46.063667,50.3481204 46.2381004,50.7059326 C46.3320261,50.9072019 46.3946432,51.1487251 46.3946432,51.3947209 C46.3946432,51.7748963 46.2604636,52.1461264 46.0457764,52.5039386 L46.1016432,52.4054941 C47.2521331,53.7859 47.7502158,54.2172371 47.861673,54.3019446 L47.861673,54.3019446 L47.8795636,54.3153625 L47.8783008,54.3166781 L47.9256141,54.3474306 C48.1687402,54.5269247 48.2676056,54.8457801 48.1634174,55.1300673 L48.1210868,55.2233109 C47.9421807,55.5587597 47.5262241,55.683994 47.1907752,55.5050879 C47.0968495,55.4558887 46.96267,55.3619631 46.6361664,55.0533501 C46.3141355,54.7402645 45.8131985,54.2080189 45.034957,53.2732347 C44.8336877,53.0317115 44.6637269,52.9154225 44.5027115,52.8438601 C44.3461687,52.7767703 44.1806806,52.7454618 43.9704659,52.7454618 C43.737888,52.7454618 43.4516383,52.7857156 43.1251347,52.8393875 C42.7941585,52.8885866 42.4229284,52.9467311 42.0069718,52.9467311 C41.3405467,52.9512038 40.5578326,52.7767703 39.8108998,52.2221615 C39.3859978,51.9135485 39.0729122,51.5512637 38.8716429,51.1666157 C38.6703736,50.7819676 38.5853932,50.3749563 38.5898658,49.9992536 C38.5943385,49.2254848 38.9029515,48.5858956 39.1802559,48.1252125 C39.4665056,47.6645293 39.7393373,47.3782796 39.7617006,47.3559164 C40.0255871,47.0830846 40.4639069,47.0741393 40.7367387,47.3380258 C41.0095704,47.6019122 41.0185157,48.0357594 40.7546293,48.3085912 L40.7563008,48.3056781 L40.7546293,48.3085912 L40.7591019,48.3085912 L40.7546293,48.3130639 Z M59.4672025,34.7681925 C59.4474512,34.7256845 59.40022,34.6419564 59.3071889,34.5238784 C59.0790836,34.2197381 58.573674,33.6785472 57.5404914,32.8824152 C57.3302768,32.7213997 57.160316,32.6274741 57.0350818,32.5738022 C56.9937908,32.5561061 56.9578482,32.5432721 56.9262921,32.5340178 L56.9101175,32.6144119 L56.9101175,32.6144119 L56.8874843,32.7169271 C56.8159218,33.0657939 56.6683243,33.759055 56.3731293,35.1500497 C56.2568404,35.7136038 56.0600437,36.1832322 55.8051025,36.5678803 C55.5501614,36.9525283 55.2370758,37.2432507 54.9105722,37.4489927 C54.2530924,37.8604766 53.577722,37.945457 53.0991482,37.945457 C52.7010822,37.945457 52.4327231,37.8873126 52.3969419,37.8783672 C52.0257118,37.7933869 51.7931339,37.4266294 51.8781143,37.0553993 C51.958622,36.6841692 52.3298521,36.4515913 52.7010822,36.5365717 L52.7010822,36.5365717 L52.7100275,36.5365717 L52.7905352,36.5499897 C52.8620977,36.558935 52.9694413,36.5678803 53.0991482,36.5678803 C53.3317261,36.5678803 53.6313938,36.5365717 53.9042255,36.4247554 C54.1815299,36.3084665 54.4364711,36.1340331 54.6601037,35.8030568 C54.8077012,35.5838969 54.9418807,35.2842292 55.0268611,34.8682726 C55.1390341,34.3396998 55.2298945,33.9115548 55.3034915,33.5647566 L55.1449671,33.6650506 L55.1449671,33.6650506 L54.9374081,33.7769456 C54.55276,33.9647969 54.078659,34.0945038 53.5419407,34.0945038 C53.2959449,34.0945038 53.0320584,34.0676679 52.7592267,34.0139961 C52.2627623,33.9200704 51.8333878,33.7411643 51.4800483,33.4951685 C51.1311814,33.2536453 50.8583497,32.9450323 50.6660256,32.6185288 C50.2769049,31.9565763 50.1829792,31.240952 50.1829792,30.6281987 C50.1829792,29.6889418 50.4155571,28.9554269 50.4245024,28.9151731 C50.5363187,28.5528883 50.9209668,28.3471463 51.2832516,28.4589626 C51.6455364,28.5707789 51.8512784,28.9554269 51.7394621,29.3177117 L51.7394621,29.3177117 L51.7349894,29.3356023 L51.7170988,29.4071648 C51.6992082,29.4742545 51.6768449,29.5726529 51.650009,29.6934145 C51.6052825,29.9349377 51.560556,30.2748592 51.560556,30.6281987 C51.560556,30.9725929 51.6052825,31.3348777 51.7170988,31.6345454 C51.8333878,31.9386857 51.9944032,32.1757362 52.267235,32.3680603 C52.4506137,32.4932945 52.6876642,32.6006381 53.0231131,32.6632553 C53.2154372,32.7035091 53.3898706,32.7169271 53.5419407,32.7169271 C53.7879366,32.7169271 53.9847333,32.6766732 54.1591667,32.6140561 C54.3336001,32.551439 54.4946156,32.4619859 54.6511584,32.345697 C54.9687167,32.1220644 55.2639117,31.7955608 55.6843409,31.5003658 C55.9571727,31.3080418 56.3373481,31.1336084 56.7801406,31.1336084 C57.0440271,31.1336084 57.3123862,31.1962255 57.5762726,31.3080418 C57.8401591,31.4198581 58.1040456,31.5808735 58.38135,31.7955608 C59.1998452,32.4306774 59.7410361,32.9271417 60.0988482,33.3252077 C60.461133,33.7232737 60.6489844,34.0229414 60.7518554,34.2689373 C60.8189452,34.4344254 60.8457811,34.5775502 60.8457811,34.7027845 L60.8457811,34.7027845 L60.8457811,34.7654016 C60.8144725,35.1411044 60.4834963,35.4273541 60.1033209,35.3960455 C59.7959277,35.3704294 59.5484164,35.1442093 59.485722,34.8570187 L59.4771497,34.7922375 L59.4771497,34.7922375 L59.4816223,34.8011828 C59.4777087,34.781615 59.472677,34.7497473 59.472677,34.7027845 L59.472677,34.7027845 L59.4718403,34.7592219 L59.4718403,34.7592219 L59.4763008,34.7906781 Z M53.3496167,12.2992717 L53.3496167,12.2992717 C53.3361988,12.3395256 53.0320584,12.9925327 52.472977,13.5963407 C52.1911999,13.8960084 51.8512784,14.1867308 51.457685,14.3924727 C51.0640916,14.6026874 50.6212991,14.7323943 50.0979989,14.7323943 C49.5791713,14.7323943 48.9753633,14.6026874 48.2552663,14.2448752 C47.2802282,13.7573562 46.5019868,13.5337236 45.8266164,13.5337236 C45.5716753,13.5337236 45.3301521,13.5650322 45.1109921,13.6410672 C44.7755432,13.7484109 44.4803482,13.9630982 44.2924969,14.2359299 C44.1046455,14.5132343 44.0241377,14.8352653 44.0241377,15.1394056 C44.0286104,15.6805965 44.2567156,16.1949514 44.636891,16.610908 C45.0125938,17.0268646 45.56273,17.3488956 46.2291551,17.4428213 C46.6048578,17.4964931 46.9537247,17.2326066 47.0073965,16.8569039 C47.0610683,16.4812011 46.7971818,16.1323343 46.4214791,16.0786625 C46.0860302,16.0339359 45.8266164,15.8773931 45.652183,15.6850691 C45.4732769,15.4927451 45.3972418,15.2601672 45.4017145,15.1394056 C45.4017145,15.0902064 45.4061871,15.0588979 45.4151324,15.0410073 C45.4285504,15.0141713 45.4330231,15.005226 45.4777496,14.9739175 C45.5224761,14.9470816 45.6298197,14.9068277 45.8266164,14.9068277 C46.1754833,14.9068277 46.7882365,15.0454799 47.6380404,15.4748545 C48.5191528,15.917647 49.3421207,16.109971 50.0979989,16.109971 C50.8851856,16.109971 51.5829193,15.8952837 52.1554187,15.5821981 C53.0186405,15.108097 53.6224485,14.428254 54.0160418,13.8736451 C54.4096352,13.3145637 54.6019592,12.8762438 54.6153772,12.8449352 C54.7674473,12.4960684 54.6064319,12.0890571 54.2530924,11.9414596 C53.9042255,11.7893894 53.5016869,11.9504049 53.3496167,12.2992717 M32.5696765,0.804556629 C32.5428406,0.822447236 31.9524506,1.28313037 31.3441699,2.00769996 C31.0400296,2.36998475 30.726944,2.79488667 30.4809482,3.28240572 C30.239425,3.76545211 30.0605189,4.31111563 30.0560462,4.90597831 C30.0560462,5.26379046 30.1276087,5.6305479 30.2796788,5.98836004 C30.4362216,6.34617219 30.6732722,6.68162107 30.9908305,6.99023404 C31.6751462,7.6432412 32.243173,8.23810389 32.6188757,8.71220498 C32.8022544,8.94478287 32.9453793,9.15499751 33.0214144,9.30706767 C33.0616682,9.38310275 33.0885041,9.44124722 33.1019221,9.48150109 L33.1108674,9.52175495 L33.1108674,9.5262276 L33.3658085,9.5262276 L33.1511213,9.40099335 C33.1198127,9.45466518 33.1108674,9.508337 33.1108674,9.5262276 L33.3658085,9.5262276 L33.1511213,9.40099335 L33.3881718,9.53517291 L33.2226837,9.31601297 L33.1511213,9.40099335 L33.3881718,9.53517291 L33.2226837,9.31601297 L33.3076641,9.43230192 L33.2361016,9.30706767 L33.2226837,9.31601297 L33.3076641,9.43230192 L33.2361016,9.30706767 L33.2629376,9.35179418 L33.2405743,9.30706767 L33.2361016,9.30706767 L33.2629376,9.35179418 L33.2405743,9.30706767 L33.218211,9.31154032 C33.1779572,9.32495827 33.0616682,9.34732153 32.8917075,9.34732153 C32.8067271,9.34732153 32.7038561,9.34284888 32.5920398,9.33390358 C32.2118644,9.30259501 31.8808882,9.58437208 31.8495796,9.96007483 C31.818271,10.3402502 32.1000481,10.6712265 32.4802235,10.702535 C32.6233484,10.715953 32.7575279,10.7204256 32.8917075,10.7204256 C33.2718829,10.7204256 33.6028591,10.6801718 33.9293627,10.496793 C34.0903781,10.4028674 34.246921,10.2597425 34.3453193,10.0808364 C34.4481903,9.90193035 34.4884441,9.70066102 34.4884441,9.5262276 C34.4839715,9.19077872 34.3766279,8.92689226 34.2379756,8.66300581 C34.027761,8.26941245 33.7236207,7.86687379 33.3345,7.42408127 C32.9453793,6.98576139 32.4757508,6.50718765 31.9479779,5.99730535 C31.742236,5.80050867 31.6214744,5.61712995 31.5454393,5.43822388 C31.4649315,5.26379046 31.433623,5.09382969 31.433623,4.90597831 C31.433623,4.60183799 31.5320213,4.25297115 31.7109274,3.89963166 C31.9748138,3.37185875 32.4086611,2.84855849 32.7754185,2.4773284 C32.9543246,2.29394967 33.1198127,2.14187951 33.2361016,2.03900852 C33.2942461,1.98980935 33.3434453,1.94955549 33.3747539,1.92271957 L33.4060624,1.89588366 L33.4150077,1.89141101 L33.4150077,1.88693836 C33.7146754,1.65436047 33.7683472,1.22051325 33.5357693,0.920845576 C33.2987188,0.625650558 32.8648715,0.571978737 32.5696765,0.804556629 M28.2043684,3.46578444 C28.1641145,3.47472974 27.5916151,3.58207339 26.9609712,3.93094022 C26.6478856,4.10537364 26.3124367,4.34242419 26.0351323,4.69129103 C25.7623005,5.03568521 25.5610312,5.5097863 25.5655038,6.04650452 C25.5610312,6.26566445 25.5923398,6.48929704 25.6594295,6.72187494 C25.7980817,7.24070254 25.9680425,7.72822159 26.0977494,8.1441782 C26.2274563,8.56013482 26.3034914,8.91794696 26.2990187,9.09685303 C26.2990187,9.17288811 26.2900734,9.21314198 26.2856008,9.22208728 L26.2856008,9.22655993 L26.3258546,9.24445054 L26.2945461,9.21314198 L26.2856008,9.22655993 L26.3258546,9.24445054 L26.2945461,9.21314198 L26.307964,9.22655993 L26.2990187,9.20866933 L26.2945461,9.21314198 L26.307964,9.22655993 L26.2990187,9.20866933 C26.2945461,9.21314198 26.2721828,9.22655993 26.205093,9.24445054 C26.1380033,9.26234115 26.026187,9.2757591 25.8741168,9.2757591 C25.7846638,9.2757591 25.6817928,9.27128645 25.5655038,9.26234115 C25.1898011,9.22655993 24.8543522,9.508337 24.818571,9.88403975 C24.7872624,10.2642151 25.0645668,10.599664 25.4447422,10.6309726 C25.5923398,10.6443905 25.7354646,10.6533359 25.8741168,10.6533359 C26.129058,10.6533359 26.3616359,10.6309726 26.5852684,10.5683555 C26.7507566,10.523629 26.911772,10.4565392 27.0593695,10.3581408 C27.2785295,10.215016 27.4529629,9.99585604 27.5468886,9.77222345 C27.6452869,9.54411821 27.6765955,9.31154032 27.6765955,9.09685303 C27.6721228,8.6361699 27.5513612,8.20232268 27.412709,7.74611219 C27.2740568,7.28990171 27.1130414,6.82027328 26.9833345,6.35959014 C26.9520259,6.23435589 26.9386079,6.1314849 26.9386079,6.04650452 C26.9430806,5.83628988 27.0012251,5.69763768 27.117514,5.54109487 C27.2919474,5.31746228 27.631869,5.10724764 27.9404819,4.98201339 C28.0925521,4.91939627 28.2312043,4.87466975 28.3296026,4.84783384 C28.3788018,4.83441588 28.4190557,4.82547058 28.4414189,4.82099793 L28.4682548,4.81652528 L28.4727275,4.81205263 L28.4235283,4.56158413 L28.4727275,4.81205263 L28.4235283,4.56158413 L28.4727275,4.81205263 C28.8439576,4.7404902 29.0854808,4.3782054 29.0139184,4.00697531 C28.9378833,3.63127256 28.5755985,3.38974936 28.2043684,3.46578444" id="Veins" fill="#784F8F"></path>
                            </g>
                        </g>
                    </g>
                </g>
            </g>
        </g>
    </g>
</svg>