<?xml version="1.0" encoding="UTF-8"?>
<svg width="516px" height="368px" viewBox="0 0 516 368" version="1.1" xmlns="http://www.w3.org/2000/svg" xmlns:xlink="http://www.w3.org/1999/xlink">
    <title>decoration-8</title>
    <g id="decoration-8" stroke="none" stroke-width="1" fill="none" fill-rule="evenodd">
        <g id="Group" transform="translate(0.000000, 1.274000)">
            <g id="Halloween/Creatures/Ghost" transform="translate(138.000000, 145.000000) scale(-1, 1) translate(-138.000000, -145.000000) ">
                <path d="M63.994025,44.5944109 C83.8417503,16.1803954 112.262897,-0.826213707 144.336654,0.622836876 C166.520495,1.62898311 183.740682,6.36389929 197.242719,14.7140075 C208.396005,21.6115706 216.192702,30.1874413 223.656302,42.0965276 L224.212029,42.9896953 L224.770442,43.8999955 L225.629043,45.3229102 L226.226061,46.3267235 L227.583243,48.6426624 L230.304948,53.3222353 L231.117003,54.696188 L231.868937,55.9464016 L232.342713,56.7201477 L232.7986,57.45242 L233.24013,58.1486273 L233.670837,58.814178 L234.094253,59.4544808 L234.30433,59.7668544 C235.405049,61.3942477 236.441527,63.2419187 237.420012,65.3095454 L237.808328,66.1483263 C238.321998,67.28234 238.819409,68.4789066 239.301509,69.7379773 L239.660227,70.693999 C239.838166,71.1778689 240.013985,71.6705266 240.187734,72.1719697 L240.532488,73.1865689 L240.87181,74.2245911 C240.927916,74.3995464 240.9838,74.5754776 241.039463,74.7523843 L241.370806,75.8255324 C241.425593,76.0063414 241.480163,76.188126 241.534518,76.370886 L241.858082,77.4791495 L242.17657,78.6108177 L242.490071,79.7658859 L242.798675,80.9443496 C242.849705,81.1427096 242.900536,81.3420442 242.951168,81.5423533 L243.252592,82.7559016 L243.54934,83.9928339 L243.841501,85.2531456 L244.129165,86.5368321 L244.41242,87.8438889 L244.691354,89.1743114 L244.966057,90.5280949 L245.236618,91.9052349 L245.503125,93.3057269 L245.765667,94.7295662 L246.024334,96.1767482 L246.279213,97.6472684 L246.530394,99.1411222 L246.900426,101.425643 C246.9411,101.682395 246.98163,101.940118 247.022017,102.198812 L247.262636,103.762639 L247.617325,106.152094 L247.964792,108.593993 L248.305337,111.088321 L248.639261,113.635061 L248.858346,115.361998 L249.181899,117.996059 L249.394348,119.781196 L249.634356,121.863009 L249.981024,125.065738 L250.266529,127.855352 L250.557228,130.814366 L250.925001,134.705279 L251.294184,138.75456 L251.66105,142.903144 L252.519368,153.027512 L253.298097,162.662143 L254.437135,177.617582 L254.529,178.978 L254.565528,179.095671 C254.607789,179.22684 254.663997,179.384132 254.734735,179.565769 L254.810338,179.755457 C254.901777,179.980018 255.006841,180.222149 255.125927,180.482407 L255.382916,181.027257 C255.428903,181.122148 255.476477,181.219095 255.525654,181.318118 L255.840058,181.937331 C255.951346,182.152149 256.069162,182.375436 256.193621,182.607357 L256.660918,183.462736 L257.266633,184.536081 L257.970662,185.750223 L259.387907,188.138106 L261.25634,191.259539 L262.330076,193.07334 L262.732584,193.761435 L263.513141,195.112896 C263.895319,195.78065 264.265399,196.436708 264.623617,197.082273 L265.324307,198.359767 C269.206048,205.52366 271.584338,211.442778 272.802348,217.868665 C274.384844,226.217484 273.489264,234.250486 269.570731,241.639761 C265.472091,249.362747 258.317361,253.94751 249.468357,255.745143 C243.068522,257.045239 235.874674,256.899195 227.917761,255.658837 C222.233613,254.772767 216.318466,253.347818 210.30989,251.525476 L209.10697,251.155751 L208.839,251.071 L208.766499,251.274839 C204.303436,263.394396 194.666545,272.255916 179.040438,277.533113 L178.367079,277.757084 C165.906736,281.845225 154.079972,279.412982 143.62608,272.981425 L143.262,272.755 L142.26946,274.211183 C141.42567,275.442687 140.578873,276.665764 139.732236,277.874536 L138.462795,279.676231 C131.222339,289.874677 119.103976,291.961325 106.683451,286.147332 C100.262016,283.141487 93.3450902,277.951263 85.8459023,270.536055 L84.7706194,269.461599 C84.5907423,269.279999 84.4105328,269.097137 84.2299897,268.913011 L83.1427185,267.793098 L82.0473848,266.642847 C81.6809236,266.254371 81.3131093,265.860835 80.9439325,265.462233 L79.8323052,264.251228 C78.3446606,262.616283 76.8350663,260.900227 75.3029228,259.102779 L74.1495777,257.739428 C73.5707818,257.050118 72.9887939,256.349352 72.4035822,255.637116 C66.0641887,247.924273 61.0026079,239.467199 57.0331919,230.30882 C53.005142,221.015158 50.213571,211.321892 48.1994281,200.697503 C47.4895465,196.952954 46.8956677,193.21332 46.3224298,189.030967 L45.8759923,185.636928 L44.861935,177.599884 L44.5921316,175.606903 L44.3888733,174.217902 L44.2424499,173.288098 L44.1002433,172.448633 L43.9614045,171.694453 L43.8250846,171.020504 L43.7351847,170.613282 L43.601176,170.061822 L43.5120308,169.73158 L43.292132,168.976609 C43.2557861,168.855569 43.2195944,168.736906 43.1835603,168.620592 L42.9692746,167.950664 C42.9338846,167.843633 42.8986591,167.738894 42.8636014,167.63642 L42.655297,167.048539 L42.4511846,166.513689 C42.1819023,165.835318 41.9242355,165.294812 41.6799302,164.877957 L41.518668,164.616051 L41.4094162,164.452777 C41.3323495,164.345122 41.2845337,164.300798 41.2232912,164.262168 L41.0982825,164.192974 L40.8933905,164.098536 C40.8555646,164.082606 40.8158697,164.066591 40.7742598,164.050503 L40.5012564,163.953223 L40.1800997,163.854876 C40.1224388,163.838433 40.0626799,163.821973 40.0007774,163.80551 L39.6032723,163.706807 L39.1521226,163.608696 L38.6451318,163.511839 L38.0801033,163.416899 L37.5802912,163.342303 L37.0529298,163.27185 L36.4960102,163.205371 L35.9075234,163.1427 L35.2854605,163.083667 L34.2850162,163.001572 L33.5702236,162.9509 L32.4212677,162.880558 L31.1741645,162.816511 L29.3469676,162.739926 L28.2263866,162.698522 L26.9977041,162.644161 C26.7969222,162.634298 26.5981087,162.624025 26.4012172,162.613328 L25.2425612,162.543952 C21.6441706,162.30747 18.706147,161.908234 16.110488,161.253631 C10.3143439,159.791894 5.71840457,156.970459 3.12874541,151.568894 C0.460773701,146.003982 1.25981646,140.420838 4.04457199,134.861238 C5.64939741,131.657298 8.04998464,128.221105 11.4296792,124.128124 L12.2951071,123.090949 C16.6996285,117.86874 21.9895324,114.059647 27.8910801,111.600912 C32.0940184,109.849861 36.3369638,108.848556 40.5246927,108.440325 L41.103,108.388 L41.1042072,108.373556 C41.9649462,88.026076 50.0821649,64.8068042 63.4762693,45.3412223 L63.994025,44.5944109 Z" id="Sticker" fill="#FFFFFF" fill-rule="nonzero"></path>
                <path d="M54.3402996,121.91 C54.3402996,121.91 34.6702996,115.95 21.8502996,131.15 C9.0402996,146.35 12.3102996,149.63 29.3002996,150.23 C46.3002996,150.83 51.6602996,152.61 55.5402996,166.33 C59.4102996,180.04 57.3202996,217.6 82.0602996,247.7 C106.8003,277.81 121.7103,281.68 128.2703,272.44 C134.8203,263.2 140.4903,254.26 140.4903,254.26 C140.4903,254.26 155.3903,272.14 174.4703,265.88 C193.5503,259.63 198.9103,248.3 199.2103,234.29 C199.2103,234.29 248.0903,255.45 258.5293,235.78 C268.9603,216.11 243.6203,192.26 242.1303,180.63 C240.6403,169.01 237.6603,87.04 223.9503,66.77 C210.2403,46.5 203.0803,15.8 143.7703,13.11 C84.4502996,10.43 47.4902996,82.57 54.3402996,121.91" id="Ghost" fill="#FFF7D1"></path>
                <path d="M105.3903,70.5 C105.1103,66.01 102.7903,61.78 98.8902996,59.54 C94.8102996,57.18 88.6802996,56.65 81.1702996,65.28 C67.1602996,81.37 80.2802996,92.1 88.9202996,92.4 C96.5102996,92.66 106.1603,83.28 105.3903,70.5 M165.4503,68.86 C165.1803,64.37 162.8503,60.14 158.9603,57.9 C154.8703,55.54 148.7403,55.01 141.2303,63.64 C127.2203,79.73 140.3403,90.46 148.9803,90.76 C156.5703,91.02 166.2203,81.64 165.4503,68.86 M116.1303,119.73 C111.8603,118.95 109.4703,114.3 111.1803,110.3 C113.3903,105.14 116.6603,99.03 119.6203,99.56 C124.6903,100.45 130.6503,114.46 127.0703,116.55 C124.3903,118.11 122.2103,120.85 116.1303,119.73" id="Eyes-+-Noze" fill="#28171A"></path>
                <path d="M97.5602996,108.2 C97.5602996,113.63 90.9602996,118.04 82.8102996,118.04 C74.6602996,118.04 68.0502996,113.63 68.0502996,108.2 C68.0502996,102.77 74.6602996,98.36 82.8102996,98.36 C90.9602996,98.36 97.5602996,102.77 97.5602996,108.2 M172.6803,109.24 C172.6803,114.68 166.0703,119.08 157.9303,119.08 C149.7793,119.08 143.1693,114.68 143.1693,109.24 C143.1693,103.81 149.7793,99.41 157.9303,99.41 C166.0703,99.41 172.6803,103.81 172.6803,109.24" id="Sheekbones" fill="#F1B3A7"></path>
                <path d="M199.7003,142.94 C199.6103,142.82 197.1693,139.57 192.1503,136.32 C187.1403,133.07 179.5203,129.83 169.2603,129.839977 C167.3503,129.839977 165.3393,129.95 163.2503,130.19 C155.1203,131.14 147.6003,135.41 143.0903,142.35 C141.3703,144.98 140.0493,148.06 140.0403,151.41 C140.0403,152.22 140.1203,153.04 140.2903,153.86 C140.4703,154.74 140.7103,155.51 141.0503,156.19 C141.5403,157.21 142.2903,158.04 143.2203,158.51 C144.1403,159 145.1003,159.12 146.0203,159.12 C147.2603,159.12 148.4903,158.9 149.8203,158.71 C151.1503,158.52 152.5603,158.34 154.0703,158.34 C155.9603,158.34 158.0203,158.61 160.3103,159.52 C162.5903,160.42 165.1293,161.97 167.9193,164.6 C175.4703,171.7 179.8803,176.78 182.3793,180.04 C183.6303,181.67 184.4003,182.85 184.8603,183.6 C185.0803,183.98 185.2303,184.24 185.3103,184.41 L185.4003,184.58 L185.4103,184.6 L186.0103,184.33 L185.4003,184.59 L185.4103,184.6 L186.0103,184.33 L185.4003,184.59 C185.7793,185.47 186.7903,185.87 187.6703,185.5 C188.5403,185.12 188.9503,184.11 188.5703,183.23 C188.4303,182.91 185.5893,176.5 170.2803,162.09 C167.2303,159.21 164.3103,157.4 161.5703,156.31 C158.8403,155.23 156.3003,154.89 154.0703,154.89 C152.2803,154.89 150.6903,155.1 149.3203,155.3 C147.9593,155.5 146.8203,155.68 146.0203,155.68 C145.6203,155.68 145.3203,155.64 145.1003,155.57 C144.7703,155.47 144.6203,155.38 144.3803,155.08 C144.1503,154.77 143.8703,154.18 143.6703,153.16 C143.5403,152.58 143.4903,152 143.4903,151.41 C143.4803,149.01 144.4803,146.52 145.9703,144.22 C149.8703,138.23 156.4503,134.45 163.6403,133.62 C165.6103,133.39 167.4803,133.28 169.2603,133.28 C178.7903,133.29 185.7103,136.26 190.2703,139.21 C192.5603,140.69 194.2403,142.16 195.3503,143.26 C195.9003,143.8 196.3103,144.25 196.5703,144.56 C196.7003,144.71 196.8003,144.83 196.8603,144.91 L196.9203,144.99 L196.9403,145 L197.2203,144.79 L196.9303,145 L196.9403,145 L197.2203,144.79 L196.9303,145 C197.5003,145.76 198.5803,145.92 199.3503,145.35 C200.1103,144.78 200.2703,143.7 199.7003,142.94" id="Arm" fill="#D5BBA3"></path>
                <path d="M65.0702996,183.32 C65.0702996,183.32 81.1702996,257.54 110.0803,262.61 C139.0003,267.67 141.0803,243.23 141.0803,243.23 C141.0803,243.23 152.1103,255.75 161.6503,256.35 C171.1893,256.94 187.2903,252.77 189.0703,233.69 C189.0703,233.69 158.6703,257.84 139.0003,225.35 C139.0003,225.35 131.5403,264.1 100.2503,231.31 C68.9502996,198.52 65.0702996,183.32 65.0702996,183.32" id="Shadow" fill="#F6E1CC"></path>
            </g>
        </g>
        <g id="Group" transform="translate(260.859500, 73.453000)">
            <path d="M105.49,16.9673858 C106.82,18.3563858 107.77,19.8903858 108.54,21.4803858 C109.29,23.0743858 109.86,24.7413858 110.3,26.4723858 C111.17,29.9313858 111.56,33.6613858 111.57,37.4413858 C111.56,40.8713858 111.24,44.3303858 110.54,47.6243858 C109.84,50.9193858 108.81,54.0523858 107.11,56.8923858 C105.97,58.7743858 104.5,60.5713858 102.44,61.9723858 C101.736646,62.4497048 100.961013,62.8717311 100.128311,63.2091356 C103.248165,65.2842626 103.089724,66.9110444 102.930391,67.4315091 L102.913644,67.4825013 C102.897184,67.5292928 102.882014,67.5633955 102.872037,67.5840271 L102.863215,67.601505 C102.86114,67.6054118 102.86,67.6073858 102.86,67.6073858 C102.86,67.6073858 99.2139779,79.4788596 95.1591958,92.4086936 L94.8912895,93.262629 L94.45976,94.6365458 L94.015443,96.0490691 L93.5579226,97.5011983 C90.9646889,105.724793 88.3769345,113.807657 86.61,119.026386 C81.68,133.611386 82.55,145.626386 80.45,152.051386 C78.36,158.475386 74.65,155.675386 74.65,155.675386 L67.6130956,178.241539 C74.0463899,181.299787 77.9437624,184.096132 77.44,185.642386 C76.76,187.705386 68.5,186.945386 57.55,184.104386 L52.8,198.142386 C49.63,207.506386 54.68,217.688386 64.05,220.837386 L88.0860603,228.936386 L93.25,213.116386 L93.4670418,212.604533 C82.5692403,208.093061 75.3203496,203.162023 76.21,200.436386 C77.0548944,197.849364 84.9996792,197.98434 95.6135993,200.389878 C96.0438227,198.993359 96.5526424,197.34418 97.1244366,195.494406 C97.1644101,195.365091 97.2041167,195.236654 97.2441174,195.107281 L97.2744947,195.009035 L97.3925753,194.627198 C97.5693677,194.05557 97.7515925,193.466675 97.9388477,192.861864 C98.1336633,192.232633 98.3348419,191.583214 98.5410564,190.917952 C98.7066013,190.383893 98.875235,189.84013 99.0468712,189.286973 C99.1556835,188.936287 99.2662833,188.579956 99.3780415,188.220014 C99.4943244,187.8455 99.6116111,187.467884 99.7300779,187.086607 C99.8729375,186.626823 100.017366,186.162188 100.163387,185.692645 C100.228737,185.48251 100.294082,185.27243 100.359732,185.061412 C100.884664,183.374138 101.429078,181.627011 101.987588,179.838141 C102.046659,179.648941 102.105908,179.45921 102.165308,179.269033 C102.437115,178.398807 102.71228,177.51865 102.990003,176.631218 L103.153316,176.109474 C103.459008,175.133059 103.767624,174.148412 104.07836,173.158232 L104.102681,173.080737 L104.454958,171.958786 L104.808764,170.833059 C105.104167,169.893623 105.400889,168.951167 105.698253,168.007976 L106.012371,167.012128 L106.250099,166.259117 L106.398785,165.788446 L106.43906,165.659 L106.48306,165.52 L106.796405,164.530918 C107.128395,163.481667 107.460048,162.435289 107.790521,161.394642 C107.857706,161.18308 107.924849,160.97173 107.991936,160.760644 C108.072862,160.506015 108.153614,160.252053 108.234271,159.99852 L108.26106,159.913 L108.642041,158.717854 C108.777645,158.292338 108.912909,157.868269 109.047766,157.445872 L109.289968,156.687676 L109.37106,156.433 L109.39906,156.345 L109.40406,156.329 L109.40706,156.321 L109.41806,156.286 L109.41906,156.282 L109.42006,156.281 L109.42006,156.279 L109.42106,156.276 L109.42206,156.272 L109.42406,156.267 L109.43006,156.249 L109.43506,156.233 L109.44106,156.215 L109.44706,156.194 L109.45206,156.179 L109.45506,156.171 L109.46306,156.146 L109.46406,156.143 L109.47106,156.12 L109.47706,156.102 L109.48006,156.092 L109.48906,156.064 L109.49206,156.054 L109.508284,156.005008 L109.51006,155.999 L109.51806,155.974 L109.52706,155.944 L109.52906,155.938 L109.53706,155.915 L109.54606,155.886 L109.55106,155.87 L109.55206,155.867 L109.55506,155.857 L109.56406,155.83 L109.57206,155.804 L109.57506,155.794 L109.58006,155.78 L109.58706,155.757 L109.59306,155.737 L109.59906,155.719 L109.60206,155.711 L109.60406,155.704 L109.60406,155.703 L109.60806,155.692 L109.61106,155.682 L109.61306,155.675 L109.62106,155.65 L109.63106,155.62 L109.69906,155.406 L109.73406,155.297 L109.913594,154.739592 C110.279428,153.598618 110.641083,152.473988 110.997166,151.37038 C111.147479,150.904515 111.296577,150.443085 111.444581,149.98574 C111.630589,149.410958 111.815126,148.841836 111.997723,148.279883 C112.311513,147.31418 112.61909,146.371124 112.919904,145.452701 C112.983209,145.259425 113.046846,145.065311 113.110168,144.872344 L113.182993,144.6505 L113.22806,144.51 L113.18306,144.65 L113.23806,144.482 L113.22806,144.51 L113.24906,144.448 L113.38774,144.027685 C113.474014,143.765537 113.559627,143.505769 113.644581,143.248378 C113.744688,142.945074 113.844132,142.644316 113.942614,142.347022 C114.213863,141.528185 114.477579,140.736325 114.73309,139.973791 C114.82912,139.6872 114.924517,139.40319 115.018692,139.123533 C115.043898,139.048686 115.068471,138.975765 115.09296,138.903146 L115.283642,138.338744 C115.443902,137.865292 115.600297,137.405587 115.752566,136.960512 L115.75506,136.951 L115.77806,136.883 L115.78706,136.858 L115.929685,136.44399 C116.455244,134.914968 116.928171,133.572302 117.336935,132.454767 C117.446936,132.154035 117.552172,131.869921 117.652548,131.602827 C117.675477,131.541805 117.699417,131.478333 117.723071,131.415861 L117.75906,131.319 L117.77606,131.274 L117.77906,131.267 L117.78306,131.257 L117.79106,131.236 L117.80306,131.203 L117.81606,131.169 L117.828906,131.138052 L117.723071,131.415861 C117.837121,131.114644 117.944526,130.836691 118.044932,130.583188 L118.045351,130.582129 C118.33417,129.852924 118.565334,129.325549 118.73,129.029386 C118.988717,128.559235 119.303145,128.139226 119.651985,127.761547 L119.715629,127.693507 L119.78,127.626386 C121.016356,126.384042 122.698129,125.625578 124.358136,125.164251 C123.488854,124.039301 122.774088,122.782197 122.25,121.433386 C121.51,119.547386 121.14,117.492386 121.14,115.383386 C121.14,113.616386 121.4,111.811386 121.91,110.009386 C122.8,106.834386 124.4,104.206386 126.15,102.033386 C127.9,99.8593858 129.82,98.1113858 131.61,96.6973858 C134.996923,94.0286422 137.924813,92.5461853 138.438218,92.2867331 L138.5,92.2553858 C141.02,91.0233858 144.02,91.5493858 145.97,93.5633858 C147.11,94.7493858 147.89,96.0203858 148.5,97.3013858 C149.11,98.5863858 149.55,99.8983858 149.9,101.243386 C150.57,103.928386 150.86,106.758386 150.87,109.623386 C150.87,112.223386 150.62,114.840386 150.09,117.364386 C149.55,119.890386 148.76,122.325386 147.39,124.625386 C146.47,126.147386 145.25,127.654386 143.48,128.860386 C143.10618,129.112807 142.707703,129.348515 142.288117,129.56097 C142.940828,130.36035 142.928234,130.970399 142.860144,131.267461 L142.846886,131.319429 C142.819664,131.41592 142.79,131.467386 142.79,131.467386 C142.79,131.467386 139.838,141.075426 136.70528,151.039578 L136.234363,152.535715 C134.295647,158.687972 132.3409,164.799736 131.02,168.701386 C127.45,179.262386 128.08,187.963386 126.56,192.614386 C125.04,197.267386 122.36,195.238386 122.36,195.238386 L118.425191,207.851945 C128.321285,212.149328 134.740211,216.690959 133.9,219.264386 C132.957192,222.152047 123.173557,221.648867 110.705675,218.383864 L110.59,218.775386 L105.37206,234.761386 L105.38,234.763386 L135.01,244.761386 C141.28,246.880386 148.06,243.464386 150.11,237.188386 L165.479216,190.064779 C154.640793,185.545753 147.444907,180.524082 148.37,177.682386 C149.142913,175.308156 155.392703,175.049616 164.089412,176.629427 C166.526455,168.713239 171.581322,152.346009 177.015616,135.053997 L177.469304,133.611017 C177.545049,133.370217 177.620855,133.129279 177.696717,132.888223 L178.1525,131.440636 L178.1525,131.440636 L179.118863,128.3762 C186.861056,103.851802 194.7872,79.4057858 196.64,76.0793858 C196.982857,75.4553858 197.399184,74.8960389 197.857493,74.3906394 L198.09,74.1423858 C200.478479,71.738609 204.0773,70.6464834 207.110221,70.1568337 C205.70643,68.5734096 204.571391,66.7252772 203.78,64.6963858 C202.88,62.3903858 202.42,59.8603858 202.42,57.2343858 C202.42,55.0333858 202.74,52.7653858 203.38,50.4753858 C204.5,46.5023858 206.53,43.1483858 208.79,40.3373858 C211.06,37.5243858 213.58,35.2223858 215.94,33.3553858 C220.66,29.6353858 224.76,27.6323858 225.02,27.4993858 C227.53,26.2663858 230.54,26.7923858 232.49,28.8063858 C233.82,30.1963858 234.77,31.7293858 235.53,33.3203858 C236.29,34.9133858 236.86,36.5803858 237.3,38.3123858 C238.17,41.7703858 238.56,45.5003858 238.56,49.2813858 C238.56,52.7113858 238.24,56.1703858 237.54,59.4643858 C236.84,62.7593858 235.8,65.8923858 234.11,68.7323858 C232.97,70.6143858 231.5,72.4113858 229.44,73.8123858 C228.736646,74.2897048 227.961013,74.7113697 227.128311,75.0487032 C230.248165,77.1236511 230.089724,78.7501706 229.930391,79.2705421 L229.913644,79.321525 C229.897184,79.368308 229.882014,79.4024041 229.872037,79.4230317 L229.863215,79.4405061 C229.86114,79.4444122 229.86,79.4463858 229.86,79.4463858 C229.86,79.4463858 225.919508,92.2766556 221.675786,105.788206 L221.243318,107.164137 L220.592554,109.23063 C217.987744,117.492184 215.3848,125.624066 213.61,130.866386 C208.68,145.450386 209.55,157.466386 207.45,163.890386 C205.35,170.314386 201.64,167.514386 201.64,167.514386 L195.491393,187.255522 C202.161137,190.743439 206.116649,194.146501 205.41,196.299386 C204.453905,199.236314 195.117225,198.935866 183.140619,195.92245 L183.14,195.925386 L166.93,247.796386 C162.77,261.166386 148.51,268.574386 135.16,264.329386 L99.44,252.962386 L99.4330603,252.959386 L94.4100603,268.354386 L94.5768522,268.524787 C96.046773,270.08636 96.6539286,272.392243 95.95,274.575386 C95.75,275.169386 95.48,275.720386 95.12,276.206386 L107.06,280.103386 C121.4,284.781386 129.4,299.909386 125.38,314.296386 L125.79,314.430386 C129.91,315.774386 132.16,320.181386 130.82,324.294386 C130.15,326.342386 128.7,327.933386 126.92,328.850386 C125.13,329.746386 122.98,329.979386 120.94,329.312386 L21.85,296.973386 L21.723768,296.931075 L21.6920603,296.919386 L21.6681969,296.911641 L21.6430603,296.902386 L21.6260603,296.896386 L21.4888744,296.845892 C21.4429181,296.828574 21.3967248,296.810531 21.3507923,296.792092 C21.3194086,296.779274 21.2883477,296.766558 21.2574072,296.753661 C21.2012529,296.730532 21.1456017,296.706606 21.0903528,296.682097 L21.0326309,296.655837 C20.8845499,296.589085 20.7397735,296.517954 20.5980105,296.442834 L20.5538932,296.418586 C17.2763399,294.655622 15.6293088,290.751602 16.83,287.094386 C17.49,285.045386 18.95,283.453386 20.72,282.553386 C21.1131429,282.353462 21.5248617,282.186418 21.9494952,282.054715 L21.9597355,282.052574 L21.9697463,282.049636 C22.0690271,282.017959 22.1693494,281.989294 22.2703034,281.962604 L22.2904691,281.958375 C22.3839026,281.932861 22.4780406,281.910074 22.5726587,281.889009 C22.5978798,281.884341 22.6235108,281.878756 22.6491755,281.873298 C22.726678,281.855928 22.8040479,281.840717 22.8816931,281.826661 C22.9148856,281.82146 22.9489235,281.81551 22.9830124,281.809783 C23.0696825,281.794484 23.1559821,281.781497 23.2425589,281.769943 C23.2558578,281.768838 23.2688874,281.767128 23.2819234,281.76545 C23.3751748,281.752819 23.4691329,281.742474 23.5633546,281.733827 C23.5846547,281.732412 23.605667,281.730562 23.626693,281.728796 C23.7124212,281.721104 23.7986828,281.715325 23.8851139,281.710981 C23.9137578,281.709946 23.9417924,281.708678 23.9698464,281.707561 C24.0324151,281.704717 24.0958402,281.70299 24.1593336,281.702042 L24.219808,281.701584 L24.3580603,281.701386 L24.4379822,281.703085 C24.4910799,281.704217 24.5445755,281.705916 24.5983524,281.708181 L24.7208028,281.71405 L24.8550058,281.723135 L24.99,281.734386 C27.53,274.852386 32.5,269.513386 38.62,266.409386 C38.9190716,266.257369 39.2209033,266.110687 39.5253371,265.969419 C39.5900969,265.939221 39.6550462,265.909376 39.7201132,265.879777 L40.0164191,265.747232 L40.1910488,265.670744 C40.2836769,265.630838 40.376284,265.59134 40.4691106,265.552335 C40.5400363,265.522331 40.6111205,265.492804 40.6823322,265.463566 L40.8990117,265.37586 C41.222697,265.245898 41.5486346,265.12222 41.8769659,265.004581 C41.9501477,264.978542 42.0235614,264.952578 42.0970913,264.926917 L42.347992,264.840517 L42.527715,264.780528 C42.6639133,264.735306 42.8009343,264.691129 42.9383297,264.647995 C42.9548248,264.642944 42.9714646,264.637736 42.9881099,264.632543 C43.0951582,264.599031 43.2021601,264.566358 43.3093811,264.534318 C43.3876047,264.511039 43.4663098,264.487888 43.5451294,264.465079 C43.6194717,264.443483 43.6938187,264.422306 43.7682661,264.401431 L43.9452675,264.352477 L44.1224711,264.304657 C44.1616228,264.294183 44.2010202,264.283782 44.2404444,264.273465 C44.2619804,264.267867 44.2833607,264.262298 44.3047487,264.256753 L44.7680579,264.140852 C44.9182236,264.104642 45.0687517,264.069657 45.2196271,264.035904 L45.2680521,264.025145 C45.3029878,264.017397 45.3379422,264.009714 45.372915,264.002098 L45.680337,263.936899 L45.8203183,263.908478 C45.847916,263.902937 45.8755247,263.897438 45.9031441,263.89198 C46.0304625,263.866747 46.158181,263.842422 46.2861191,263.818978 C46.3361698,263.809891 46.3862014,263.800866 46.4362662,263.791975 L46.7904449,263.731321 C46.8549732,263.720817 46.9193734,263.710463 46.983825,263.700332 L47.2913614,263.653625 C47.3607727,263.64362 47.4298132,263.633817 47.4989089,263.624269 C47.6384402,263.604868 47.7784443,263.586599 47.9186613,263.569383 L48.0044611,263.559105 C48.1756711,263.538501 48.3468718,263.519622 48.5183645,263.502318 C48.5845024,263.495765 48.6500814,263.489383 48.7157021,263.483231 C48.8115892,263.474125 48.9079954,263.465593 49.0044874,263.457559 C49.0761786,263.451699 49.1478476,263.446008 49.2195626,263.440593 C49.3568159,263.430129 49.4941981,263.420781 49.6317376,263.412447 C49.6450084,263.411731 49.6580016,263.410952 49.6709962,263.410183 C49.8288111,263.400754 49.9871129,263.392736 50.1456056,263.386065 C50.1802034,263.384669 50.2151988,263.383259 50.2502033,263.381915 C50.3881677,263.376573 50.5258475,263.372318 50.6636579,263.369084 L50.7312562,263.367599 L51.0667412,263.36254 C51.1511495,263.361769 51.2355533,263.361386 51.32,263.361386 L51.7520603,263.364386 L52.07268,263.371582 L52.4285608,263.383578 C52.4645191,263.384939 52.5001665,263.38643 52.5358206,263.387991 C52.6826366,263.394491 52.8299256,263.402106 52.9772976,263.410902 L53.1333184,263.420577 C53.2496288,263.428249 53.3659375,263.436578 53.4822891,263.445645 C53.5532309,263.4511 53.6239573,263.456883 53.6947014,263.46294 C54.0467702,263.493152 54.3996999,263.530122 54.7528238,263.573967 C54.8080929,263.580743 54.8634366,263.587782 54.9187856,263.594989 C55.0469855,263.611775 55.1752718,263.629389 55.3035724,263.647915 C55.3842604,263.659463 55.4645587,263.671412 55.544862,263.68372 C55.6248476,263.696094 55.7051733,263.708766 55.7855006,263.721797 C55.887978,263.738292 55.9903063,263.75547 56.0926342,263.773234 C56.212141,263.794128 56.3317985,263.815707 56.4514477,263.83809 C56.4893161,263.845009 56.5266701,263.852074 56.564023,263.859217 C56.720065,263.889235 56.8766837,263.920576 57.0332702,263.953303 L57.2514464,263.999594 C57.3858907,264.02902 57.5203763,264.059274 57.654824,264.09056 C57.7622258,264.115316 57.8699854,264.141055 57.9777121,264.16746 L58.1400564,264.208004 C58.2558856,264.236881 58.3719053,264.266832 58.4878765,264.29756 L58.6898002,264.352092 L58.9776285,264.432045 L59.2355636,264.506869 L59.5174995,264.591324 C59.6887636,264.643805 59.8594567,264.697734 60.03,264.753386 L71.7490603,268.577386 L71.7583333,268.277427 C71.7861111,267.774302 71.8833333,267.272219 72.05,266.776386 C72.57,265.190386 73.69,263.947386 75.08,263.252386 C75.6114286,262.971243 76.1942857,262.773855 76.7907872,262.682893 L77.08699,262.646662 L82.0560603,247.416386 L55.88,239.096386 C55.5638245,238.995577 55.2502343,238.890412 54.9392749,238.78098 C54.8777508,238.759339 54.8167456,238.737669 54.7558422,238.715835 C54.6640561,238.682917 54.57233,238.649575 54.4808375,238.615861 L54.2642667,238.53522 L53.9846997,238.42852 L53.816527,238.362975 C53.7311113,238.329372 53.6464131,238.295673 53.5619247,238.261653 C53.2684457,238.143518 52.9773284,238.021396 52.6887869,237.895466 C52.6471622,237.877247 52.6056116,237.85901 52.5641147,237.840693 L52.402605,237.768942 L52.2541597,237.702024 C52.2030172,237.678753 52.1520473,237.655464 52.1011604,237.632056 L51.809422,237.496194 C51.7635482,237.474468 51.7181601,237.452919 51.6728395,237.431274 C51.2250076,237.217493 50.7833348,236.994056 50.3484444,236.761578 L50.1528848,236.656046 C50.0779698,236.615479 50.002503,236.574089 49.9272451,236.532425 C49.8639918,236.497259 49.8013514,236.462306 49.738857,236.427164 C49.6676533,236.38728 49.5966197,236.346987 49.5257764,236.30645 C49.3086271,236.182026 49.0928394,236.055212 48.8788695,235.926136 C48.7168238,235.828589 48.5557689,235.729516 48.3957666,235.629163 L48.3392149,235.593386 C48.116298,235.453159 47.8957332,235.310417 47.6772407,235.165244 C47.6530078,235.148871 47.6287009,235.132672 47.6044197,235.116443 C47.5051143,235.05035 47.4064266,234.983607 47.3081702,234.916367 C47.2338419,234.865203 47.1593649,234.813774 47.0851385,234.762061 C47.0479055,234.736434 47.0109629,234.710584 46.9740826,234.684664 L46.7748463,234.543179 C46.5123992,234.356102 46.2531097,234.165052 45.9970816,233.970496 L45.8220406,233.836128 L45.6438989,233.698278 C45.5986083,233.662434 45.5533191,233.626832 45.5081359,233.591119 C45.4340114,233.532984 45.360441,233.474319 45.2871552,233.415361 C45.196077,233.341612 45.1049449,233.267473 45.0142594,233.192879 C45.0011524,233.182599 44.9875907,233.171427 44.974039,233.160245 L44.9125303,233.108856 C44.7604812,232.982752 44.6096996,232.855366 44.4601971,232.726719 C44.2972844,232.587108 44.1363028,232.44581 43.9768465,232.303051 C43.955287,232.283127 43.9332703,232.26336 43.9112829,232.243564 C43.8412173,232.18112 43.7718067,232.118094 43.7026908,232.05479 L43.5663426,231.928519 C43.5079457,231.875091 43.4503537,231.821346 43.3929715,231.767407 C43.2252164,231.609004 43.0587524,231.44915 42.8941108,231.287666 C40.1534683,228.600709 37.9178852,225.461544 36.2728371,222.03449 C36.2528596,221.989916 36.2318655,221.945924 36.2109687,221.901885 C33.3521411,215.880922 32.3131818,208.980789 33.555086,202.08501 L33.5570596,202.073 L33.6731057,201.464039 C33.7559128,201.050097 33.8469913,200.636267 33.9464411,200.222739 L33.9845354,200.067131 C34.0255838,199.898909 34.0681678,199.731219 34.1121385,199.563596 C34.1205027,199.5323 34.1287691,199.500951 34.1370842,199.469604 C34.1815131,199.301696 34.2274842,199.133835 34.2748556,198.966055 L34.300304,198.876573 C34.3548814,198.685131 34.4115172,198.493194 34.47,198.301386 L40.33,179.140386 C40.4153872,178.963571 40.4983307,178.797658 40.5788306,178.642648 C29.2638089,174.323314 21.4573939,169.767755 22.16,167.603386 C22.180865,167.539702 22.2090338,167.478708 22.2443607,167.420382 C22.2505843,167.410323 22.257189,167.39989 22.2640257,167.389543 L22.2971988,167.342175 C22.3067515,167.329678 22.3167368,167.31698 22.3270944,167.304422 C22.3401905,167.288258 22.3538334,167.272652 22.3680644,167.257268 L22.3969185,167.227497 C22.4144734,167.209519 22.4331258,167.19189 22.4525999,167.174573 C22.4597598,167.168529 22.4671764,167.16208 22.4747082,167.155675 C22.6196195,167.032148 22.8067824,166.925323 23.0342169,166.834362 C23.051358,166.827853 23.0692751,166.820875 23.0874345,166.813994 C23.1222759,166.800443 23.1579752,166.787605 23.1945574,166.775118 L23.2026765,166.772701 L23.2839442,166.745854 C23.301424,166.740365 23.3190895,166.734951 23.33694,166.729611 L23.3927596,166.713656 L23.5087297,166.681955 C23.5197579,166.679444 23.5305555,166.676707 23.5414113,166.673994 C23.5867925,166.66233 23.6337116,166.651282 23.6816623,166.640654 C23.6968999,166.637585 23.7116908,166.634367 23.7265782,166.631189 C23.7617085,166.623385 23.7978075,166.616021 23.8344534,166.60888 C24.0025284,166.576403 24.1821362,166.548326 24.3728831,166.524893 C24.6302945,166.493054 24.9087914,166.469876 25.2067761,166.455084 L25.2789856,166.451779 C25.3228133,166.449724 25.3669857,166.447947 25.4115654,166.446346 L25.5393422,166.442328 C25.5661998,166.441522 25.5933148,166.440831 25.6205723,166.440202 C25.7000653,166.438395 25.7807587,166.437076 25.8626497,166.436283 L26.0490603,166.435386 L26.2730129,166.4366 C26.3482621,166.437409 26.4244191,166.438622 26.5014734,166.440237 C26.5319564,166.440995 26.5622737,166.441694 26.5927274,166.442455 C26.7437736,166.446076 26.8987767,166.451366 27.0570958,166.458172 C27.0643642,166.458672 27.0707276,166.458949 27.0770962,166.459228 C27.2474784,166.466483 27.4225757,166.475733 27.6014354,166.486736 C27.6738287,166.491445 27.746037,166.49614 27.8188427,166.501115 C27.9009305,166.506449 27.984354,166.51245 28.0685369,166.51881 L28.2704249,166.534942 C28.3490584,166.541018 28.428972,166.54776 28.5095262,166.554812 C28.7320513,166.574634 28.9586166,166.596394 29.1899093,166.620469 C29.2315074,166.624437 29.2726935,166.62878 29.3140266,166.633196 L29.5239228,166.656478 C29.8127899,166.688293 30.109157,166.724013 30.412203,166.763168 C30.4363748,166.766651 30.4598055,166.769692 30.4832762,166.772755 C30.5728655,166.78409 30.6638924,166.796197 30.7555005,166.808606 C30.8338776,166.819557 30.9121087,166.83031 30.9907596,166.84128 L31.1481038,166.863134 C31.1913042,166.869576 31.2345352,166.875768 31.277889,166.882024 C31.5803652,166.925421 31.8894709,166.972349 32.2042466,167.022384 C32.3450277,167.044844 32.4869482,167.067806 32.63,167.091386 C33.7464692,167.276083 34.9318864,167.499011 36.1760902,167.75852 C38.1298701,161.403881 44.4769381,140.801778 51.15625,119.601636 L52.1227571,116.5372 C52.9745191,113.839516 53.8284913,111.142781 54.6763408,108.475 L55.1381469,107.022886 C61.8240781,86.0137591 68.03224,67.1343538 69.64,64.2403858 C69.9828571,63.6163858 70.3991837,63.0570389 70.8574927,62.5516394 L71.09,62.3033858 C73.4784787,59.899609 77.0773003,58.8074834 80.1102214,58.3178337 C78.7069066,56.7348418 77.5715569,54.8867032 76.78,52.8573858 C75.88,50.5513858 75.42,48.0223858 75.42,45.3953858 C75.42,43.1953858 75.74,40.9273858 76.38,38.6363858 C77.5,34.6633858 79.53,31.3103858 81.79,28.4983858 C84.06,25.6853858 86.58,23.3843858 88.94,21.5173858 C93.1772917,18.18399 96.9009722,16.229319 97.8176811,15.7626489 L97.927146,15.7072002 C97.9725391,15.6843155 98.00375,15.6686983 98.02,15.6603858 C100.54,14.4273858 103.54,14.9533858 105.49,16.9673858 Z M143.628964,102.71504 C143.733472,103.116428 143.827774,103.531267 143.911865,103.95722 C143.966149,103.927841 144.011649,103.90352 144.05,103.883386 L144.18,103.820386 L144.19,103.813386 L144.17,103.823386 L144.169,103.82 L144.165,103.813 L144.114,103.709 L144.036,103.55 L143.905,103.282 L143.835,103.139 L143.628964,102.71504 Z" id="Sticker" stroke="#FFFFFF" stroke-width="25" fill="#F2AD4C" stroke-linejoin="round"></path>
            <g id="Chandelier" transform="translate(16.438060, 166.435386)">
                <path d="M118.72194,97.894 L83.0019397,86.527 L73.4319397,83.478 L65.6219397,80.983 L39.4419397,72.661 C22.3419397,67.209 12.8019397,49.019 18.0319397,31.866 L23.8919397,12.705 L24.5619397,11.5646142 L41.5619397,16.5646142 L41.1119397,17.669 L36.3619397,31.707 C33.1919397,41.071 38.2419397,51.253 47.6119397,54.402 L71.6519397,62.503 L88.9419397,68.328 L118.57194,78.326 C124.84194,80.445 131.62194,77.029 133.67194,70.753 L149.34194,22.71 L167.02194,28.477 L166.70194,29.49 L150.49194,81.361 C146.33194,94.731 132.07194,102.139 118.72194,97.894 Z" id="Fill-1051" fill="#F2AD4C"></path>
                <path d="M41.1119397,17.669 C38.5019397,16.981 35.7419397,16.191 32.9019397,15.28 L31.8219397,14.931 C31.2319397,14.735 30.6519397,14.547 30.0819397,14.342 C15.6719397,9.477 4.90193966,3.694 5.72193966,1.168 C6.18193966,-0.236 10.1919397,-0.333 16.1919397,0.656 C21.3119397,1.503 27.8819397,3.154 34.9219397,5.45 C50.1719397,10.43 61.8519397,16.598 61.0019397,19.207 C60.3219397,21.27 52.0619397,20.51 41.1119397,17.669 Z" id="Fill-1052" fill="#F2AD4C"></path>
                <path d="M117.46194,52.829 C116.33194,56.29 102.50194,54.88 86.5719397,49.682 C70.6419397,44.483 58.6419397,37.463 59.7719397,34.001 C60.9019397,30.541 74.7319397,31.95 90.6619397,37.148 C106.59194,42.347 118.59194,49.368 117.46194,52.829" id="Fill-1053" fill="#F2AD4C"></path>
                <path d="M188.97194,29.864 C187.80194,33.458 174.08194,32.204 158.33194,27.063 C142.58194,21.922 130.76194,14.841 131.93194,11.247 C133.10194,7.653 146.82194,8.907 162.58194,14.047 C178.33194,19.188 190.15194,26.269 188.97194,29.864" id="Fill-1054" fill="#F2AD4C"></path>
                <polygon id="Fill-1055" fill="#F2AD4C" points="77.8919397 102.167 60.5519397 96.508 76.8119397 46.681 78.5619397 42.5646142 95.5619397 47.5646142 94.1519397 52.34"></polygon>
                <path d="M79.5119397,108.14 C79.3119397,108.734 79.0419397,109.285 78.6819397,109.771 C78.1119397,110.587 77.3419397,111.235 76.4719397,111.68 C75.0919397,112.381 73.4419397,112.556 71.8419397,112.034 L59.5219397,108.013 C58.0219397,107.522 56.8319397,106.513 56.1119397,105.238 C55.5719397,104.312 55.2919397,103.233 55.3119397,102.144 C55.3119397,101.54 55.4119397,100.936 55.6119397,100.341 C56.1319397,98.755 57.2519397,97.512 58.6419397,96.817 C59.2619397,96.489 59.9519397,96.275 60.6519397,96.211 C61.5119397,96.09 62.4219397,96.167 63.2919397,96.451 L75.6119397,100.474 C76.5419397,100.775 77.3419397,101.275 77.9719397,101.919 C79.5619397,103.48 80.2419397,105.876 79.5119397,108.14" id="Fill-1056" fill="#F4B44F"></path>
                <path d="M108.59194,149.044 L8.21193966,116.285 C8.32193966,115.955 8.42193966,115.625 8.55193966,115.299 C11.0919397,108.417 16.0619397,103.078 22.1819397,99.974 C28.5719397,96.726 36.2219397,95.913 43.5919397,98.318 L90.6219397,113.668 C104.96194,118.346 112.96194,133.474 108.94194,147.861 C108.83194,148.247 108.72194,148.648 108.59194,149.044" id="Fill-1057" fill="#F2AD4C"></path>
                <path d="M114.38194,157.859 C113.71194,159.907 112.26194,161.498 110.48194,162.415 C108.69194,163.311 106.54194,163.544 104.50194,162.877 L5.41193966,130.538 C1.29193966,129.195 -0.958060339,124.771 0.391939661,120.659 C1.05193966,118.61 2.51193966,117.018 4.28193966,116.118 C5.57193966,115.462 7.06193966,115.16 8.55193966,115.299 C9.12193966,115.357 9.70193966,115.474 10.2619397,115.657 L109.35194,147.995 C113.47194,149.339 115.72194,153.746 114.38194,157.859" id="Fill-1058" fill="#F4B44F"></path>
                <path d="M30.0819397,14.342 L30.0819397,14.342 C16.1819397,9.648 5.66193966,4.099 5.68191119,1.446 C5.68191119,1.35 5.69193966,1.257 5.72193966,1.168 C5.98193966,0.376 7.37193966,0 9.61193966,0 C11.3419397,0 13.5819397,0.225 16.1919397,0.656 L19.5419397,2.041 L19.1219397,3.329 L32.7219397,8.48 C32.7219397,8.48 31.5519397,10.767 30.0819397,14.342" id="Fill-1059" fill="#E59934"></path>
                <polyline id="Fill-1060" fill="#EABC78" points="55.3119397 102.145 43.5919397 98.318 55.3119397 102.144 55.3119397 102.145"></polyline>
                <path d="M39.4419397,72.661 C25.4819397,68.21 16.5619397,55.269 16.6015404,41.333 C16.6119397,38.199 17.0719397,35.015 18.0319397,31.866 L23.8919397,12.705 C24.6323338,11.171834 25.1890005,10.458372 25.5619397,10.5646142 C26.2797143,10.7690924 29.3228514,10.3016909 30.5619397,11.5646142 C30.8795231,11.8883066 30.7061897,12.8524352 30.0419397,14.457 C26.4519397,23.155 21.1819397,39.252 26.3519397,48.708 C31.7219397,58.534 55.9219397,67.821 68.5219397,72.099 L65.6219397,80.983 L39.4419397,72.661 Z" id="Fill-1061" fill="#E59934"></path>
                <path d="M68.7819397,98.241 L63.2919397,96.451 C62.6819397,96.253 62.0619397,96.155 61.4419397,96.155 C61.1719397,96.155 60.9119397,96.174 60.6519397,96.211 L68.5219397,72.098 C68.5219397,72.099 68.5219397,72.099 68.5219397,72.099 C73.1619397,73.706 76.2419397,74.598 76.2419397,74.598 L73.4319397,83.478 L68.7819397,98.241" id="Fill-1062" fill="#E59934"></path>
                <path d="M66.4119397,105.767 L55.3119397,102.145 L55.3119397,102.144 C55.3119397,101.54 55.4119397,100.936 55.6119397,100.341 C56.1319397,98.755 57.2519397,97.512 58.6419397,96.817 C59.2619397,96.489 59.9519397,96.275 60.6519397,96.211 C60.9119397,96.174 61.1719397,96.155 61.4419397,96.155 C62.0619397,96.155 62.6819397,96.253 63.2919397,96.451 L68.7819397,98.241 L68.7719397,98.242 L68.5119397,99.106 L66.4119397,105.766 L66.4119397,105.767" id="Fill-1063" fill="#E69C35"></path>
                <path d="M22.0419397,119.5 L10.2619397,115.657 C9.70193966,115.474 9.12193966,115.357 8.55193966,115.299 C11.0919397,108.417 16.0619397,103.078 22.1819397,99.974 C26.0619397,98.001 30.4119397,96.926 34.8819397,96.926 C37.7619397,96.926 40.7019397,97.374 43.5919397,98.318 L55.3119397,102.145 L66.4119397,105.767 L66.1719397,106.509 C66.1719397,106.509 61.9219397,105.636 56.1119397,105.238 C54.4119397,105.119 52.5619397,105.042 50.6619397,105.042 C42.7019397,105.042 33.5819397,106.378 28.2419397,111.566 C25.6219397,114.127 23.6019397,116.848 22.0419397,119.5" id="Fill-1064" fill="#E59934"></path>
                <path d="M16.9719397,134.31 L5.41193966,130.538 C2.10193966,129.458 -0.00806033914,126.381 0.00190427143,123.079 C0.00190427143,122.277 0.131939661,121.462 0.391939661,120.659 C1.05193966,118.61 2.51193966,117.018 4.28193966,116.118 C5.37193966,115.567 6.59193966,115.266 7.84193966,115.266 C8.07193966,115.266 8.31193966,115.277 8.55193966,115.299 C9.12193966,115.357 9.70193966,115.474 10.2619397,115.657 L22.0419397,119.5 C21.8219397,119.869 21.6219397,120.222 21.4019397,120.591 C18.2019397,126.508 17.2519397,131.935 16.9719397,134.31" id="Fill-1065" fill="#E69C35"></path>
            </g>
            <g id="Flames" transform="translate(75.420000, 15.000000)">
                <path d="M25.43,6.44338579 C25.43,6.44338579 10.41,13.8083858 7.17,25.3743858 C3.92,36.9403858 12.04,44.7473858 21.49,42.4963858 C30.94,40.2443858 32.21,13.4563858 25.43,6.44338579 M65.92,83.0393858 C65.92,83.0393858 55.03,88.3713858 52.69,96.7473858 C50.34,105.122386 56.22,110.775386 63.06,109.145386 C69.9,107.515386 70.83,88.1173858 65.92,83.0393858 M152.43,18.2823858 C152.43,18.2823858 137.41,25.6463858 134.16,37.2133858 C130.92,48.7793858 139.04,56.5863858 148.49,54.3353858 C157.94,52.0843858 159.21,25.2963858 152.43,18.2823858" id="Red" fill="#EE9E38"></path>
                <path d="M21.76,17.1573858 C21.76,17.1573858 14.19,20.7323858 12.05,27.8553858 C9.9,34.9783858 16.34,39.2143858 20.28,36.4093858 C24.22,33.6053858 21.76,17.1573858 21.76,17.1573858 M63.26,90.7973858 C63.26,90.7973858 57.78,93.3863858 56.22,98.5443858 C54.67,103.701386 59.33,106.768386 62.18,104.738386 C65.03,102.707386 63.26,90.7973858 63.26,90.7973858 M148.76,28.9963858 C148.76,28.9963858 141.19,32.5723858 139.04,39.6943858 C136.9,46.8173858 143.34,51.0533858 147.28,48.2493858 C151.21,45.4443858 148.76,28.9963858 148.76,28.9963858" id="Orange" fill="#F0EC79"></path>
            </g>
            <g id="Candles" transform="translate(35.560000, 54.314386)">
                <g id="Wax" transform="translate(0.000000, 3.617310)" fill="#FBE6D1">
                    <path d="M44.89,94.1196903 C42.8,100.54369 39.09,97.7436903 39.09,97.7436903 L31.29,122.75569 L12.62,116.24269 L0,111.83369 C0,111.83369 30.23,13.2386903 34.08,6.30869027 C34.48,5.58069027 34.98,4.94069027 35.53,4.37169027 C40.37,-0.499309729 50.18,0.0156902712 50.18,0.0156902712 C70.15,4.74069027 67.3,9.67569027 67.3,9.67569027 C67.3,9.67569027 55.98,46.5336903 51.05,61.0946903 C46.12,75.6796903 46.99,87.6946903 44.89,94.1196903" id="Fill-1067"></path>
                    <path d="M91,134.68269 C89.48,139.33569 86.8,137.30669 86.8,137.30669 L81.15,155.41969 L67.63,150.70369 L58.5,147.50969 C58.5,147.50969 80.38,76.1156903 83.17,71.0976903 C83.46,70.5706903 83.82,70.1066903 84.22,69.6946903 C87.73,66.1676903 94.83,66.5406903 94.83,66.5406903 C109.29,69.9616903 107.23,73.5356903 107.23,73.5356903 C107.23,73.5356903 99.03,100.22469 95.46,110.76969 C91.89,121.33069 92.52,130.03169 91,134.68269" id="Fill-1072"></path>
                    <path d="M171.89,105.95869 C169.79,112.38269 166.08,109.58269 166.08,109.58269 L158.29,134.59469 L139.62,128.08169 L127,123.67269 C127,123.67269 157.22,25.0776903 161.08,18.1476903 C161.48,17.4196903 161.98,16.7796903 162.53,16.2106903 C167.37,11.3396903 177.18,11.8546903 177.18,11.8546903 C197.15,16.5806903 194.3,21.5146903 194.3,21.5146903 C194.3,21.5146903 182.98,58.3726903 178.05,72.9346903 C173.12,87.5186903 173.99,99.5346903 171.89,105.95869" id="Fill-1077"></path>
                </g>
                <path d="M53.83,0 L50.52,9.589 L52.17,10.156 L55.47,0.567 M97.48,67.528 L95.08,74.471 L96.27,74.881 L98.66,67.938 M180.83,11.84 L177.52,21.429 L179.17,21.996 L182.47,12.407" id="Wick" fill="#0E0D0B"></path>
                <g id="Shadow" transform="translate(0.000000, 7.989000)" fill="#EDCEAD">
                    <path d="M16.6,103.979 C15.5,104.551 13.21,110.345 12.62,111.871 L0,107.462 C0,107.462 30.23,8.867 34.08,1.937 C34.48,1.209 34.98,0.569 35.53,0 C38.66,0.947 41.53,3.565 39.65,10.515 C36.08,23.57 28.5,38.692 30.6,42.047 C32.7,45.401 34.11,47.65 32.14,49.311 C30.17,50.988 27.58,55.114 25.64,61.059 C23.7,67.005 17.72,94.566 18.82,98.306 C19.9,102.041 17.89,103.339 16.6,103.979" id="Fill-1068"></path>
                    <path d="M70.52,140.617 C69.72,141.031 68.06,145.227 67.63,146.332 L58.5,143.138 C58.5,143.138 80.38,71.744 83.17,66.726 C83.46,66.199 83.82,65.735 84.22,65.323 C86.49,66.008 88.57,67.905 87.2,72.938 C84.62,82.39 79.13,93.341 80.65,95.77 C82.18,98.199 83.19,99.828 81.77,101.03 C80.34,102.245 78.46,105.232 77.06,109.538 C75.65,113.843 71.32,133.8 72.12,136.509 C72.91,139.214 71.45,140.153 70.52,140.617" id="Fill-1073"></path>
                    <path d="M143.6,115.818 C142.5,116.39 140.21,122.184 139.62,123.71 L127,119.301 C127,119.301 157.22,20.706 161.08,13.776 C161.48,13.048 161.98,12.408 162.53,11.839 C165.66,12.786 168.53,15.405 166.65,22.355 C163.08,35.409 155.49,50.532 157.6,53.886 C159.7,57.241 161.1,59.49 159.14,61.15 C157.17,62.827 154.58,66.953 152.64,72.898 C150.7,78.844 144.72,106.406 145.82,110.145 C146.9,113.88 144.89,115.178 143.6,115.818" id="Fill-1078"></path>
                </g>
            </g>
        </g>
    </g>
</svg>