<?xml version="1.0" encoding="UTF-8"?>
<svg width="700px" height="414px" viewBox="0 0 700 414" version="1.1" xmlns="http://www.w3.org/2000/svg" xmlns:xlink="http://www.w3.org/1999/xlink">
    <title>decoration-25</title>
    <g id="decoration-25" stroke="none" stroke-width="1" fill="none" fill-rule="evenodd">
        <g id="Group" transform="translate(55.000000, 26.000000)">
            <g id="Halloween/Stuffs/Coffin" transform="translate(229.000000, 366.500000) scale(-1, 1) rotate(20.000000) translate(-229.000000, -366.500000) ">
                <path d="M101.937012,1.49997821 L102.261854,1.49997821 L215.532854,4.48532654 C218.878262,4.57336905 222.016482,5.99613219 224.278619,8.38417319 L224.517608,8.64371156 L224.6,8.739 L224.681186,8.69843835 C226.151003,7.99049697 227.765629,7.56697506 229.442308,7.47843518 L229.862723,7.46330826 L230.185782,7.46126754 L344.205782,8.20726754 C348.343595,8.23434005 352.19181,10.3065506 354.493818,13.7272257 L354.682046,14.0153885 L455.282046,172.742388 C456.715246,175.003696 457.382761,177.662378 457.192128,180.326108 L457.159047,180.706633 L446.7,282.9 L445.287626,310.48359 C445.176038,312.661596 444.5518,314.609887 443.562731,316.267891 L443.360097,316.595604 L443.232,316.789 L402.019046,719.484643 C401.391286,725.618519 396.396016,730.345547 390.300059,730.691677 L389.994359,730.705318 L389.686915,730.711576 L209.167,732.197 L209.068717,732.204564 C205.76623,732.388958 202.378728,731.306004 199.779705,728.714279 L199.476,728.4 L77.9405091,726.985153 C71.8764998,726.914568 66.7705405,722.509413 65.7638207,716.588064 L65.7161796,716.285685 L65.675696,715.980776 L1.58969598,183.909776 C1.30382189,181.536319 1.70482817,179.133543 2.74087874,176.985244 L2.91942499,176.6296 L90.852425,8.21459963 C93.0118462,4.07873577 97.2892391,1.49997821 101.937012,1.49997821 Z" id="Path" fill="#FFFFFF" fill-rule="nonzero"></path>
                <g id="Bottom" transform="translate(14.000000, 14.000000)">
                    <polyline id="Fill-642" fill="#581719" points="85.293 110.627 34.624 206.898 70.049 570.077 244.904 614.782 209.404 26.827 94.64 40.986 85.293 110.627"></polyline>
                    <path d="M115.099,40.706 C101.597,24.848 90.913,11.923 90.913,11.923 C90.913,11.923 115.504,28.318 120.724,31.299 C120.984,31.452 121.224,31.524 121.424,31.524 C124.644,31.524 120.204,13.369 118.854,8.116 L119.494,8.151 C123.174,13.379 135.994,31.218 142.334,35.024 C142.864,35.343 143.304,35.492 143.664,35.492 C148.344,35.489 139.354,10.432 139.354,10.432 C139.354,10.432 139.354,10.432 154.254,17.14 C157.234,18.481 159.624,19.018 161.524,19.018 C168.114,19.017 169.014,12.621 169.144,10.871 L169.484,10.889 L189.614,39.685 L117.094,40.679 L115.099,40.706" id="Fill-665" fill="#7F658F"></path>
                    <polyline id="Fill-643" fill="#5A3E85" points="76.009 693.035 10.432 167.67 95.386 7.452 201.944 12.668 209.404 26.827 210.144 16.395 201.204 2.981 87.933 0 0 168.415 64.086 700.486 192.264 701.978 190.884 689.695 76.009 693.035"></polyline>
                    <path d="M130.074,666.953 L110.832,666.953 C132.414,654.046 178.074,571.966 178.074,571.966 L179.794,587.552 L188.424,666.733 L130.074,666.953" id="Fill-674" fill="#8F5F5D"></path>
                    <polyline id="Fill-647" fill="#4A1517" points="176.614 546.975 57.379 468.729 81.227 666.953 189.284 666.953 176.614 546.975"></polyline>
                    <polyline id="Fill-648" fill="#481517" points="178.844 83.462 128.174 94.64 46.202 201.203 70.049 570.077 20.866 178.847 94.64 40.986 116.974 40.593 178.844 83.462"></polyline>
                    <polyline id="Fill-649" fill="#382454" points="208.654 23.847 201.944 12.668 93.149 6.707 10.432 167.67 75.974 695.934 191.694 696.064 189.284 666.953 81.227 666.953 20.866 178.847 94.64 40.986 203.444 39.495 208.654 23.847"></polyline>
                    <path d="M176.774,83.92 L169.424,98.479 C169.384,98.488 169.334,98.493 169.284,98.493 C167.824,98.493 163.374,94.497 157.284,88.22 L176.774,83.92 Z M189.614,39.685 L195.124,47.554 L177.484,82.514 L177.484,82.514 L176.774,83.92 L157.284,88.22 C145.974,76.571 129.034,57.074 115.099,40.706 L117.094,40.679 L117.095,40.679 L189.614,39.685 Z" id="Clip-660" fill="#99605E"></path>
                    <path d="M144.324,48.438 C133.884,41.483 126.684,39.992 146.054,59.367 C146.054,59.367 154.754,55.393 144.324,48.438 Z" id="Fill-667" fill="#4A1321"></path>
                    <path d="M155.744,54.151 C153.754,56.138 158.234,59.367 165.184,63.59 C172.144,67.813 167.914,61.106 167.914,61.106 C167.914,61.106 157.734,52.164 155.744,54.151 Z" id="Fill-668" fill="#4A1321"></path>
                    <path d="M175.124,48.686 C175.124,51.915 187.794,60.361 187.794,60.361 L190.024,56.138 L182.574,49.431 C182.574,49.431 175.124,45.457 175.124,48.686 Z" id="Fill-669" fill="#4A1321"></path>
                    <polygon id="Fill-676" fill="#9F7AA9" points="179.794 587.552 188.544 666.733 188.424 666.733"></polygon>
                    <polygon id="Path-5" fill="#99605E" points="189 564 123 667 180 667 188 595"></polygon>
                    <path d="M143.564,638.849 C143.564,638.849 162.564,635.05 162.564,612.249 L143.564,638.849 Z" id="Fill-677" fill="#4A1517"></path>
                    <path d="M162.564,656.584 C175.234,655.317 165.094,645.183 165.094,645.183 C165.094,645.183 149.894,657.85 162.564,656.584 Z" id="Fill-678" fill="#4A1517"></path>
                    <path d="M172.694,628.716 C179.034,635.05 173.964,617.315 173.964,617.315 C173.964,617.315 166.364,622.383 172.694,628.716 Z" id="Fill-679" fill="#4A1517"></path>
                </g>
                <g id="Top" transform="translate(104.913000, 19.961000)">
                    <polyline id="Fill-644" fill="#442A67" points="141.591 34.28 101.351 87.934 199.711 115.506 297.551 95.377 233.991 27.573 141.591 34.28"></polyline>
                    <path d="M284.671,698.251 L103.581,699.742 L64.831,190.026 L116.251,91.66 C116.251,91.66 283.181,93.896 306.281,107.31 L339.811,159.473 L284.671,698.251" id="Fill-645" fill="#382454"></path>
                    <polyline id="Fill-646" fill="#2B1D45" points="81.231 342.792 292.861 438.178 266.041 635.655 117.001 631.929 81.231 342.792"></polyline>
                    <polyline id="Fill-650" fill="#6B4287" points="43.221 162.454 68.561 191.517 80.481 311.495 69.301 315.22 79.741 318.2 119.231 655.029 101.351 696.017 43.221 162.454"></polyline>
                    <polyline id="Fill-651" fill="#5A3E85" points="137.861 46.949 68.561 191.517 43.221 162.454 125.191 0 239.211 0.746 231.761 38.75 137.861 46.949"></polyline>
                    <polyline id="Fill-652" fill="#211637" points="339.811 159.473 239.211 0.746 231.761 38.751 318.201 183.32 339.811 159.473"></polyline>
                    <polyline id="Fill-653" fill="#1A122E" points="271.251 651.304 284.671 698.251 339.811 159.473 318.201 183.32 288.391 478.418 202.691 474.692 288.391 488.106 271.251 651.304"></polyline>
                    <polyline id="Fill-654" fill="#5A3E85" points="111.421 588.578 274.981 607.338 271.251 651.304 119.231 655.03 116.351 630.61 266.041 635.655 115.571 622.567 111.421 588.578"></polyline>
                    <polyline id="Fill-655" fill="#211637" points="171.401 55.145 260.821 35.77 274.231 56.636 171.401 55.145"></polyline>
                    <polyline id="Fill-656" fill="#382454" points="327.891 289.883 310.001 273.489 311.491 246.661 329.381 260.82 327.891 289.883"></polyline>
                    <polyline id="Fill-657" fill="#5A3E85" points="78.471 251.151 311.491 246.661 310.001 273.489 78.471 251.151"></polyline>
                    <polyline id="Fill-671" fill="#211637" points="180.341 119.977 186.301 443.393 195.991 444.884 192.261 119.232 180.341 119.977"></polyline>
                    <polyline id="Fill-672" fill="#211637" points="114.761 239.954 117.001 249.642 255.601 241.445 255.601 228.777 114.761 239.954"></polyline>
                    <polyline id="Fill-673" fill="#32212E" points="103.581 699.742 125.191 655.775 271.251 651.304 119.981 650.558 101.351 696.016 103.581 699.742"></polyline>
                </g>
            </g>
        </g>
        <g id="Group" transform="translate(367.000000, 146.000000)">
            <path d="M68.4594301,3.01791331 L67.8836686,3.42390663 L66.9180245,4.12226282 L66.2125982,4.64155135 L65.4161684,5.23500128 L64.2578029,6.11033741 L63.0603249,7.02994988 C62.4520848,7.50074581 61.8298011,7.98796676 61.1944092,8.49134481 L59.906425,9.51956433 L58.5851484,10.5903932 C58.3622537,10.7723889 58.1380411,10.9561403 57.9125452,11.1416372 C50.2012976,17.485048 42.4938143,24.6151243 35.2664113,32.4119405 C34.4180605,33.3271289 33.5827879,34.2439946 32.7608892,35.1625111 L31.5381084,36.5415206 C12.5395103,58.1652951 1.00824239,80.6933799 0.78060751,103.781369 L0.774889664,104.553615 L0.774889664,106.087714 C0.898636329,130.776287 7.00188427,149.979147 18.5218285,160.682172 L18.9283612,161.054397 C26.8154489,168.1705 36.285677,170.634425 45.7233037,168.776517 L46.083954,168.701606 L46.2048005,169.688944 C52.9933801,221.835906 97.5819254,262.104606 151.58,262.104606 L152.39202,262.101553 C170.787195,261.963232 188.45316,257.127217 203.985346,248.307539 L204.439954,248.046606 L204.59459,248.298693 C209.116575,255.544754 216.511862,260.591108 226.111534,262.363214 C241.456987,265.195997 260.642694,259.342175 281.075272,245.857392 C297.886735,234.762418 309.753137,216.479774 317.81878,193.221242 C322.303298,180.289441 325.341821,166.572605 327.231928,152.876989 C327.467624,151.169153 327.679225,149.503847 327.868195,147.885824 L328.084191,145.967196 C328.152631,145.335422 328.217543,144.711516 328.279022,144.095784 L328.453253,142.273414 C328.535311,141.374792 328.609855,140.495246 328.6772,139.6358 L328.791125,138.100751 L328.88313,136.69644 L328.982031,134.855479 L329.002941,134.334634 L329.011346,134.045433 C329.121978,124.535121 318.924231,118.350574 310.515717,122.945623 L257.779954,151.763606 L257.758676,151.18384 C257.488877,144.997085 256.681864,138.87193 255.356721,132.862771 L255.019159,131.381271 C254.881413,130.796428 254.739893,130.217421 254.59393,129.641366 L254.265914,128.379675 L254.120343,127.839387 L253.907544,127.069374 L253.584127,125.940249 L253.432945,125.42815 C253.187135,124.603208 252.931331,123.781617 252.665603,122.963521 L252.139889,121.387355 L251.713856,120.167217 L251.504423,119.584424 L251.222147,118.815438 L250.997262,118.215649 L250.687876,117.408052 L250.499219,116.925092 L250.18439,116.134299 L249.958261,115.577473 L249.644539,114.819625 C249.416785,114.275427 249.184451,113.73309 248.947644,113.192845 L248.494425,112.173554 L247.850453,110.772915 L247.291228,109.598434 L247.027179,109.056493 L246.652601,108.300834 C246.058761,107.114734 245.442414,105.939403 244.804306,104.776161 L244.639484,104.476892 C244.471711,104.173492 244.307106,103.879072 244.142655,103.588165 L243.663929,102.750356 L243.271664,102.07668 L242.607281,100.961003 L241.780469,99.6144026 L241.019053,98.4127426 L240.215884,97.1824831 L239.477087,96.0826477 L239.156299,95.6141472 L238.612035,94.831324 C238.11733,94.1265031 237.613475,93.4268842 237.100979,92.7331649 L236.135954,91.447348 L235.222522,90.2663887 L234.44109,89.2825485 L233.514375,88.1459135 C233.157116,87.7137453 232.793962,87.2815183 232.426431,86.8510607 L231.672519,85.9777107 C231.145522,85.3737511 230.606847,84.7703681 230.060952,84.1726381 L229.279962,83.3268716 L228.790106,82.8055712 L228.022097,82.0020202 L227.254562,81.2156397 L226.906954,80.8656057 L227.118193,80.8044839 C229.701026,80.0407404 231.942669,79.1983215 234.034828,78.1764468 C237.292694,76.5852047 240.019289,74.6082242 242.150623,71.8892962 C245.194267,68.0065412 246.471435,63.1384681 245.51869,58.1428577 C244.072843,50.5617246 238.605097,45.9143276 231.594741,43.8704217 L231.038709,43.7144521 C228.802405,43.1115018 226.419543,42.7583566 223.873915,42.6070704 L223.475954,42.5856057 L223.458668,42.4858064 C222.821612,39.1328802 221.325175,35.8789591 218.981875,32.9101162 C215.728944,28.7934099 210.957007,26.5766578 205.818895,26.6887359 C202.225799,26.7671125 198.961813,27.9045504 195.776649,29.7615612 C191.757766,32.1046459 187.764811,35.6875529 183.472972,40.401061 L182.751896,41.2007421 C180.106008,44.1632785 177.440238,47.4559276 174.803609,50.9472371 L174.058954,51.9396057 L173.699398,51.8624915 L173.036246,51.7242238 L172.228346,51.561751 L171.667529,51.4528114 L170.700235,51.2722774 L169.333515,51.0330003 L168.699776,50.9282955 L167.789992,50.7848644 L166.779976,50.6350922 L165.695332,50.4852837 L165.054346,50.4020986 L164.372978,50.3180143 L163.332683,50.1982416 L162.118586,50.0715031 L161.38283,50.0015378 L160.547753,49.9283493 L159.867255,49.8735864 L158.977179,49.8085573 L157.65064,49.7254495 L156.856426,49.6835898 L156.087782,49.6486916 C155.646544,49.6302411 155.204845,49.6144953 154.763289,49.6014791 L153.681719,49.575029 L152.702317,49.5608094 L151.651363,49.5548094 L150.73631,49.5586681 C129.704999,49.7362253 109.711583,56.0356971 92.8225879,67.2623516 L92.124954,67.7296057 L88.0563759,12.368379 C87.3469512,2.71579655 76.408821,-2.50321116 68.4594301,3.01791331 Z" id="Sticker" fill="#FFFFFF" fill-rule="nonzero"></path>
            <g id="Head" transform="translate(13.272954, 13.284606)">
                <g id="Ears">
                    <path d="M229.727046,160.8 L303.237046,120.63 C303.237046,120.63 300.707046,195.88 260.917046,222.14 C221.127046,248.4 194.697046,237.94 199.287046,210.25 C203.887046,182.56 229.727046,160.8 229.727046,160.8 M68.457046,83.54 L62.317046,0 C62.317046,0 0.477045971,42.95 0.00704597141,90.62 C-0.462954029,138.3 22.667046,154.82 43.437046,135.94 C64.207046,117.06 68.457046,83.54 68.457046,83.54" fill="#705090"></path>
                    <path d="M217.567046,214.93 L217.557046,214.85 L217.547046,214.83 L217.607046,214.93 C217.687046,215.04 217.827046,215.22 218.307046,215.4 C218.627046,215.52 219.117046,215.62 219.837046,215.62 C221.087046,215.62 223.037046,215.3 225.847046,214.25 C228.667046,213.2 232.347046,211.44 237.097046,208.63 C241.017046,206.31 243.467046,203.67 244.977046,200.95 C246.477046,198.22 247.047046,195.37 247.047046,192.56 C247.057046,188.45 245.797046,184.44 244.487046,181.43 C243.628126,179.449895 242.743413,177.899685 242.202151,177.01332 C237.032473,180.126116 231.416088,183.93509 225.357046,188.59 L225.357046,188.59 L223.387046,186.02 C252.267046,163.82 271.707046,160.28 281.097046,160.28 C285.227046,160.28 287.407046,160.97 287.547046,161.01 L287.547046,161.01 L286.585948,163.971 L286.576948,163.998 L286.569948,164.02 L286.567948,164.026 L286.562948,164.04 L286.557948,164.057 L286.549948,164.08 L286.548948,164.085 L286.547046,164.09 L286.507046,164.08 C286.467046,164.07 286.397046,164.05 286.287046,164.02 C286.077046,163.97 285.747046,163.9 285.297046,163.82 C284.387046,163.67 282.987046,163.52 281.097046,163.52 C274.691029,163.52 262.606081,165.306567 244.993086,175.37613 C245.565011,176.318767 246.436028,177.858729 247.307046,179.82 C248.777046,183.13 250.277046,187.64 250.287046,192.56 C250.287046,195.81 249.607046,199.24 247.807046,202.51 C246.007046,205.78 243.077046,208.85 238.737046,211.41 C233.867046,214.29 230.037046,216.14 226.977046,217.28 C223.917046,218.42 221.637046,218.85 219.837046,218.86 C218.807046,218.86 217.937046,218.71 217.207046,218.44 C216.467046,218.18 215.887046,217.79 215.467046,217.38 C214.607046,216.55 214.417046,215.69 214.387046,215.47 L214.387046,215.47 L216.606948,215.092 L217.567046,214.93 Z M29.817046,123.66 L30.857046,126.1 C30.707046,126.16 30.257046,126.330311 29.587046,126.330311 C28.867046,126.34 27.897046,126.11 26.957046,125.43 C26.017046,124.76 25.127046,123.68 24.327046,122.06 C22.747046,118.81 21.447046,113.3 21.047046,103.43 C21.037046,103 21.0269969,102.58 21.0269969,102.17 C21.017046,96.59 22.537046,92.2 24.927046,88.88 C27.307046,85.55 30.497046,83.31 33.717046,81.8 C39.4843295,79.1258345 45.4264191,78.7003119 47.9311195,78.6323415 C47.1415946,64.1035278 44.3171129,54.2742004 41.507046,47.89 C38.9185714,42.0347458 36.3422542,39.0668802 35.3183786,38.0290575 L35.1937602,37.9045561 C35.0204184,37.733986 34.9090673,37.6357042 34.8712428,37.6025406 L34.8669484,37.599 L34.8719484,37.593 L34.8739484,37.59 L34.9089484,37.547 L36.897046,35.09 C37.074046,35.2276667 40.6063432,38.1598028 44.1184957,45.8165906 L44.297046,46.21 C47.877046,54.17 51.387046,67.03 51.387046,86.84 C51.387046,91.66 51.177046,96.89 50.707046,102.56 L50.707046,102.56 L47.487046,102.29 C47.947046,96.7 48.147046,91.56 48.147046,86.84 C48.147046,85.1247323 48.1202741,83.4643749 48.0691453,81.8574502 C46.9320875,81.8875492 44.8938668,82.0079309 42.487046,82.45 C39.557046,82.98 36.067046,84 32.977046,85.85 C30.917046,87.09 29.037046,88.68 27.557046,90.76 C25.577046,93.53 24.267046,97.17 24.257046,102.17 C24.257046,102.54 24.267046,102.92 24.277046,103.31 C24.497046,108.72 24.997046,112.72 25.627046,115.64 C26.257046,118.56 27.017046,120.39 27.697046,121.47 C28.147046,122.2 28.547046,122.59 28.847046,122.8 C29.247046,123.08 29.457046,123.09 29.587046,123.09 L29.587046,123.09 L29.677046,123.09 L29.587046,123.12 L29.6399484,123.243 L29.7509484,123.504 L29.817046,123.66 Z" id="Texture" fill="#C0A3C2"></path>
                </g>
                <g id="Face" transform="translate(44.537046, 48.770000)">
                    <path d="M187.55,93.78 C187.55,145.57 145.56,187.55 93.77,187.55 C41.98,187.55 0,145.57 0,93.78 C0,74.09 6.07,55.82 16.45,40.74 C33.33,16.13 61.67,0 93.77,0 C138.6,0 176.08,31.46 185.34,73.5 C186.78,80.03 187.55,86.82 187.55,93.78" id="Fill-1750" fill="#AA95BB"></path>
                    <g id="Eye-1" transform="translate(42.320000, 60.260000)">
                        <path d="M33.67,16.84 C33.67,26.14 26.14,33.67 16.84,33.67 C7.54,33.67 0,26.14 0,16.84 C0,7.54 7.54,0 16.84,0 C26.14,0 33.67,7.54 33.67,16.84" id="Fill-1751" fill="#F7CD96"></path>
                        <path d="M9.25,13.13 C12.03,7.81 17.59,5.23 21.67,7.36 C25.75,9.5 26.81,15.53 24.03,20.85 C21.26,26.16 15.7,28.74 11.62,26.61 C7.53,24.48 6.48,18.44 9.25,13.13" id="Fill-1755" fill="#D9282A"></path>
                    </g>
                    <g id="Mouth" transform="translate(31.540000, 101.960000)">
                        <path d="M92.76,46.73 C92.76,46.73 81.13,61.22 59.28,63.77 C58.14,63.91 57,64.01 55.87,64.05 C36.14,65.11 18.34,55.25 8.38,39.71 C3.08,31.46 0,21.62 0,10.96 C0,7.5 0.27,3.85 0.87,0 L11.06,5.18 L25.94,12.75 L67.86,34.07 L81.75,41.13 L92.76,46.73" id="Fill-1752" fill="#161021"></path>
                        <path d="M55.87,64.05 C36.14,65.11 18.34,55.25 8.38,39.71 C14.18,39.29 42.36,38.62 55.87,64.05" id="Fill-1753" fill="#D9282A"></path>
                        <path d="M25.94,12.75 C19.13,18.23 15.66,36.03 15.66,36.03 C7.22,21.06 10.63,6.8 11.06,5.18 L25.94,12.75" id="Fill-1757" fill="#FDF5F7"></path>
                        <path d="M81.75,41.13 C73.48,57.84 53.89,53.65 53.89,53.65 C62.09,48.63 66.62,37.5 67.86,34.07 L81.75,41.13" id="Fill-1758" fill="#FDF5F7"></path>
                    </g>
                    <polyline id="Noze" fill="#774E8F" points="98.97 84.02 64.19 113.76 74.74 131.38 97.71 129.65 98.97 84.02"></polyline>
                    <g id="Eye-2" transform="translate(114.460000, 94.640000)">
                        <path d="M33.67,16.84 C33.67,26.13 26.14,33.67 16.84,33.67 C7.54,33.67 0,26.13 0,16.84 C0,7.54 7.54,0 16.84,0 C26.14,0 33.67,7.54 33.67,16.84" id="Fill-1760" fill="#F7CD96"></path>
                        <path d="M9.25,13.12 C12.03,7.81 17.59,5.23 21.67,7.36 C25.75,9.49 26.81,15.53 24.03,20.85 C21.26,26.16 15.7,28.74 11.62,26.61 C7.53,24.48 6.47,18.44 9.25,13.12" id="Fill-1761" fill="#D9282A"></path>
                    </g>
                </g>
                <path d="M169.297046,155.5 C172.657046,150.54 178.467046,148.59 182.287046,151.17 C186.107046,153.75 186.477046,159.86 183.127046,164.83 C179.767046,169.8 173.957046,171.75 170.137046,169.17 C166.327046,166.59 165.947046,160.47 169.297046,155.5" id="Fill-1754" fill="#D9282A"></path>
                <path d="M195.897046,27.37 C202.977046,36.34 190.227046,43.89 190.227046,43.89 C190.227046,43.89 218.077046,37.29 219.967046,47.2 C221.857046,57.11 192.597046,57.58 186.927046,61.36 C186.666926,61.5337197 186.404799,61.7044402 186.1414,61.8720703 C208.066949,74.9015739 224.226306,96.6158865 229.877046,122.27 C226.967046,117.46 219.977046,108.95 204.087046,101 C180.167046,89.05 146.807046,126.18 146.807046,126.18 C146.807046,126.18 157.197046,79.61 130.757046,64.51 C107.607046,51.28 69.967046,81.75 60.987046,89.51 C77.867046,64.9 106.207046,48.77 138.307046,48.77 C147.936133,48.77 157.226127,50.2214147 165.970216,52.9173348 C168.615616,48.9998126 189.27556,18.9902667 195.897046,27.37 Z" id="Hair" fill="#161021"></path>
            </g>
        </g>
    </g>
</svg>