<?xml version="1.0" encoding="UTF-8"?>
<svg width="387px" height="273px" viewBox="0 0 387 273" version="1.1" xmlns="http://www.w3.org/2000/svg" xmlns:xlink="http://www.w3.org/1999/xlink">
    <title>decoration-22</title>
    <g id="decoration-22" stroke="none" stroke-width="1" fill="none" fill-rule="evenodd">
        <g id="Halloween/Creatures/Death" transform="translate(193.500000, 157.000000) scale(1, -1) translate(-193.500000, -157.000000) ">
            <path d="M222.926166,2.0604255 L223.574735,1.96140447 L224.838894,1.77741953 C225.045965,1.74831814 225.251238,1.71999842 225.454736,1.69246081 L226.654576,1.53662386 C231.959458,0.877622402 236.000203,0.789406085 239.190646,1.28048861 C241.990062,1.71138296 244.498766,2.60539 246.766267,4.31312374 C247.244528,4.67331885 247.695403,5.06051936 248.117159,5.47180058 L248.46,5.819 L248.698233,5.95241973 C250.478496,6.96133371 252.372542,8.19156693 254.319747,9.66499416 L254.905442,10.11434 L255.403253,10.50605 C261.120906,15.0573403 265.951471,20.780389 269.319848,27.8029391 L269.706784,28.626551 L269.958491,29.1397345 L270.147619,29.5062572 L270.353992,29.8926171 L270.577769,30.2990858 L270.946413,30.9470872 L271.214393,31.4050164 L271.500333,31.884005 L272.126725,32.9062473 L272.644844,33.7302304 L273.204979,34.6043475 L273.807666,35.5295154 L274.678367,36.8440693 L275.62694,38.2531827 L276.654656,39.7590286 L278.052529,41.7806765 L279.262959,43.5121154 L281.934902,47.2885502 L283.79277,49.8881875 L290.556042,59.3221818 L292.616088,62.2251971 L294.094005,64.3291731 L295.457123,66.2919235 L296.712314,68.1247446 L297.587013,69.4208897 L298.407768,70.6550696 L298.9264,71.4457844 L299.423205,72.2124892 L299.89904,72.956596 L300.575354,74.0334738 L301.20932,75.067449 C302.688418,77.5113645 303.81014,79.6045871 304.611508,81.5201828 C305.198939,82.9243784 305.638731,84.2790582 305.906943,85.7201422 C306.202696,87.3092051 306.294054,88.9084542 306.05792,90.5511339 L305.985308,91.0002393 L305.968,91.085 L305.941688,91.3819918 C305.625836,94.3640509 304.453032,97.0660409 302.5835,100.26032 L302.311702,100.720078 L301.844465,101.491288 L301.434359,102.148034 L301.005124,102.817186 L300.321205,103.851122 L299.835744,104.56518 L299.32443,105.302757 L298.785341,106.067026 L298.216555,106.861163 L297.61615,107.688342 L296.652055,108.998009 L295.964197,109.921684 L291.585699,115.747451 L290.538586,117.158692 L289.18787,119.011507 L288.590617,119.855483 L288.072602,120.617903 L287.85471,120.957402 L287.726,121.169 L288.6851,121.330482 L289.435238,121.465405 L289.973413,121.571357 C294.240911,122.454486 297.891988,123.986384 301.872106,126.670814 L302.538668,127.128977 C302.873635,127.36348 303.211251,127.606182 303.552064,127.857373 L304.238115,128.371162 C304.353221,128.458708 304.468723,128.54722 304.584641,128.636707 L305.285303,129.185426 C305.402966,129.278859 305.521086,129.373289 305.639682,129.468728 L306.357144,130.053542 L307.087023,130.663069 L307.830289,131.297825 C307.955337,131.405749 308.080983,131.514746 308.207247,131.624827 L308.972421,132.298401 L309.753414,132.9985 L310.551201,133.725644 L311.366754,134.48035 L312.201045,135.263137 L313.055047,136.074523 L314.375136,137.346358 L315.745046,138.685457 L317.168061,140.093568 L320.130107,143.067307 L330.379382,153.41171 L331.469854,154.502886 C336.03585,159.069627 341.975038,163.955316 348.936331,168.974241 C355.513679,173.716351 362.611769,178.303145 369.715076,182.539209 L371.185951,183.41118 L372.610214,184.245458 C372.843539,184.381304 373.074797,184.515534 373.303924,184.648127 L374.652615,185.423848 L375.947155,186.159186 L377.580774,187.073097 L379.058705,187.881819 C384.762672,190.927957 387.201831,197.821586 384.682938,203.777203 C383.168477,207.357961 381.000331,210.841994 378.245233,214.286026 C371.648442,222.532396 361.594321,230.700565 348.760151,238.925184 L347.174771,239.932571 C346.10865,240.604363 345.024187,241.276568 343.921751,241.949259 L342.254662,242.958669 C341.974583,243.126968 341.693392,243.295299 341.411095,243.463665 C332.399561,248.838246 322.802072,253.911584 313.211222,258.547904 L311.554682,259.34426 L309.93954,260.112065 C309.673916,260.237625 309.410106,260.361972 309.148152,260.485098 L307.599066,261.209092 L306.096656,261.903221 L303.935181,262.887266 L301.515331,263.966444 L300.298153,264.495215 C297.478537,265.698939 294.554841,265.783927 291.926889,265.01778 L291.585823,264.913043 L291.484,264.879 L291.255202,265.126543 C290.731864,265.693928 290.197454,266.284563 289.652089,266.898951 L289.103075,267.521275 L288.466168,268.249074 L288.063744,268.687154 C287.718643,269.052893 287.34915,269.420366 286.955071,269.789961 L286.470363,270.234518 C285.973829,270.680145 285.44178,271.129051 284.873882,271.581909 L284.294023,272.03611 L283.69019,272.493095 L283.06231,272.953014 L282.410308,273.416016 L281.73411,273.88225 L281.033642,274.351865 L280.30883,274.825012 L279.5596,275.301839 L278.785877,275.782495 L277.987587,276.267131 L277.164657,276.755895 L276.317011,277.248937 L275.444575,277.746406 L274.547277,278.248452 L273.62504,278.755224 L272.194765,279.524569 L271.209859,280.043808 L270.199757,280.568297 L269.164382,281.098183 L267.563774,281.90346 L266.464896,282.447495 L265.340487,282.99745 L264.190473,283.553476 L262.417278,284.399222 L260.586054,285.259467 L258.696551,286.134713 L256.748517,287.025465 L254.741702,287.932228 L251.97408,289.16702 L250.673203,289.741519 L248.018378,290.902079 L245.294475,292.077565 C243.455962,292.866067 241.572743,293.664126 239.64751,294.470956 C230.274086,298.399188 220.30248,302.372565 210.2911,306.220797 L206.117181,307.817126 L201.671068,309.499341 L196.207146,311.538608 L193.56421,312.510645 C185.699982,315.371974 178.014089,309.964282 176.902087,302.649083 L176.865179,302.387026 L176.839,302.167 L155.568803,304.285493 C145.23803,305.314131 139.630796,295.092458 142.58511,287.277292 L142.677259,287.041219 L142.805,286.735 L141.825322,286.412406 L140.583964,285.995254 L139.349343,285.572706 L138.12295,285.145252 L136.906272,284.713384 L135.700799,284.277592 L134.508018,283.838369 L133.329418,283.396205 L132.166488,282.951591 L131.020717,282.505018 L129.893593,282.056978 L128.786604,281.607961 C128.603867,281.533071 128.42203,281.458161 128.241126,281.38324 L127.167132,280.93368 L126.116995,280.484372 L125.092204,280.035806 L124.094248,279.588474 C123.93024,279.514049 123.767413,279.439696 123.605797,279.365424 L122.650883,278.920864 C122.494236,278.846962 122.338861,278.773163 122.184791,278.699477 L121.276269,278.258793 L120.400536,277.821308 L119.559079,277.387513 C119.421776,277.315548 119.285962,277.243758 119.15167,277.172152 L118.364421,276.744812 C117.211674,276.107367 116.187173,275.486519 115.313525,274.889727 L115.027928,274.691697 L114.694311,274.45217 C113.789955,273.788432 112.824596,273.024235 111.798624,272.163254 L111.017787,271.499429 C110.885755,271.385786 110.752778,271.270645 110.618856,271.154013 L109.803993,270.436392 L108.966492,269.683338 L108.10639,268.895194 C107.961158,268.760932 107.814986,268.625223 107.667875,268.488072 L106.773939,267.647942 C106.623073,267.505058 106.471269,267.360748 106.318528,267.215019 L105.390841,266.323676 L104.4407,265.398622 L103.46814,264.4402 L102.473199,263.448757 L101.455914,262.424635 L100.41632,261.36818 L99.2081246,260.12885 C96.8730947,257.72176 94.5169958,255.227076 92.2183485,252.744077 L90.4427673,250.816163 L88.5811616,248.772446 L87.2481466,247.291306 C85.3599069,245.172415 84.3383808,242.620945 84.1224887,240.036563 L84.094,239.602 L76.3418672,235.201044 L70.4681899,231.834159 L67.4668414,230.092069 L63.3582741,227.666349 L61.6854311,226.690939 L58.6232394,224.927597 L53.1792052,221.835868 L48.4620249,219.184486 L41.3812417,215.234998 L32.1411673,210.117684 L24.3402115,205.820483 L17.1403557,201.868926 L9.33902818,197.607532 L7.51668069,196.619518 C2.89593528,194.122005 0.329428675,189.002218 1.093133,183.805525 C2.07480541,177.12565 7.62543698,170.892271 18.6163684,165.67482 L19.5448913,165.242397 C20.6429038,164.740674 21.7925677,164.248704 22.9946836,163.76701 L24.0379328,163.356658 L25.1069848,162.951412 C25.4676485,162.817189 25.8326312,162.683829 26.2019518,162.551345 L27.3229458,162.15653 C27.8899682,161.960449 28.4667928,161.766364 29.0534825,161.574318 C31.2582795,160.852603 33.6066921,160.156619 36.1031625,159.487436 C41.06869,158.15609 46.4232279,155.593208 52.6014743,151.643033 L53.0912828,151.328131 L54.0805413,150.681757 L55.0848528,150.01187 C55.253639,149.898168 55.4231623,149.783415 55.5934776,149.667577 L56.6253133,148.959228 L57.6787949,148.223111 C57.8563256,148.098016 58.034868,147.971693 58.2144771,147.844107 L59.3053723,147.063145 L60.4245065,146.25016 L61.5745166,145.403449 L62.75804,144.521309 L63.9777137,143.60204 L66.11478,141.967522 L68.0340069,140.47703 L78.9798314,131.902755 L81.2219109,130.162162 L82.6736756,129.044828 L84.0933631,127.960594 L85.4829335,126.908303 L86.8443467,125.886798 L88.1795628,124.894921 L89.4905418,123.931515 L90.7792438,122.995424 L92.0476288,122.085489 C92.2574421,121.935949 92.4664906,121.787451 92.6748149,121.639969 L93.9163995,120.767101 L95.1425672,119.917497 L96.3552779,119.09 L97.5564919,118.283453 C97.9551981,118.017967 98.352315,117.75578 98.748169,117.496699 L99.9322694,116.728581 L101.110753,115.977941 C101.502863,115.730512 101.894363,115.485804 102.28558,115.243623 L103.45871,114.524469 L104.632104,113.819323 C104.8278,113.702902 105.023589,113.587016 105.219512,113.471641 L106.396976,112.785336 C106.593596,112.67191 106.790431,112.558948 106.987521,112.446424 L108.173466,111.776357 C108.570022,111.554629 108.967929,111.334463 109.367513,111.115668 C120.288028,105.136872 130.861941,102.009342 140.922899,101.332058 L141.608077,101.289672 L142.078,101.265 L141.886703,100.836124 C140.275674,97.2196612 138.652819,93.5559284 137.049167,89.9188081 L135.453067,86.293295 L131.614,77.527 L131.398953,77.2667247 C128.819233,74.0460505 127.868018,70.1359922 128.319465,66.3043522 L128.369277,65.921478 L128.42839,65.5392973 C128.866916,62.9129666 129.88784,60.586088 131.327411,58.3409126 C133.200988,55.4188566 135.883697,52.539095 139.233089,49.6133052 C144.760787,44.7847027 152.039349,39.9546083 158.21708,37.0200187 L163.35116,34.6460043 L164.614334,34.0430711 L165.153056,33.7625373 L165.392084,33.6147633 L165.5221,33.5197121 L165.670245,33.3960652 L165.959223,33.1310787 L166.384196,32.7182832 L171.369843,27.6577859 C175.002232,24.0240655 179.838242,20.3356444 185.327945,16.9178458 L186.472893,16.2146832 L187.635413,15.5198837 C187.83057,15.4048163 188.026415,15.290124 188.222924,15.1758203 L189.409773,14.494766 C199.960863,8.52185113 212.251966,3.7151178 222.926166,2.0604255 Z" id="Sticker" fill="#FFFFFF" fill-rule="nonzero"></path>
            <g id="Cloak" transform="translate(13.460299, 13.466621)">
                <path d="M226.16,1.91337855 C226.16,1.91337855 226.193213,1.92656805 226.257058,1.95341654 L226.404506,2.01659697 C228.178731,2.78926504 239.168041,7.97890432 244.82,20.2333785 C247.0838,25.142076 252.818546,33.4120535 259.028379,42.1043323 L259.790937,43.1706037 C259.918358,43.3486008 260.045926,43.5267238 260.173615,43.7049477 L260.941005,44.7753027 C261.197152,45.1323583 261.453581,45.4896178 261.710088,45.8468813 L262.736054,47.2754836 C263.214516,47.9416397 263.692304,48.6068818 264.168096,49.2699106 L264.738003,50.0643995 C264.832799,50.1966096 264.927494,50.3287103 265.022078,50.4606913 L265.588155,51.2510576 C266.152722,52.0398209 266.712506,52.823526 267.265218,53.5999276 L267.815488,54.3738116 C275.301309,64.9146822 281.32375,73.9516433 280.040656,75.7534594 L280.04,75.7543785 C280.2837,78.1834221 276.591995,83.4872164 272.501735,88.9579479 L271.999136,89.6284836 L271.999136,89.6284836 L271.120095,90.7949962 C267.403046,95.7156988 263.683412,100.52672 262.53,103.261379 C261.222259,106.362448 259.010147,112.236493 256.535691,117.812597 C265.642285,119.034556 272.123478,119.959106 273.98,120.345379 C282.91,122.193379 290.75,131.470379 309.17,149.874379 C327.57,168.277379 359.71,185.441379 359.71,185.441379 C348.93,210.929379 281.93,239.532379 281.93,239.532379 L282.03,231.424379 C281.773918,231.556233 275.963261,234.619466 265.76,246.368379 C255.34,258.368379 175.83,287.297379 175.83,287.297379 L180.43,274.441379 L140.87,278.380379 L162.42,268.005379 C153.63,268.885379 116.94,256.996379 108.63,250.908379 C105.1398,248.346799 100.081404,243.456386 95.3877679,238.645222 L94.7199386,237.958712 C88.51392,231.561172 83.12,225.508379 83.12,225.508379 C87.56,222.849379 110.43,234.395379 124.61,242.060379 C117.014,237.825179 106.5396,231.979099 96.02776,226.084507 L92.8759258,224.316236 C78.18864,216.072097 63.9848,208.039099 58.06,204.504379 C52.5305128,201.20325 42.7193425,195.686517 32.7186015,190.134365 L29.558944,188.38242 C20.0897041,183.138308 10.8369231,178.068379 5.28,175.026379 C2,173.237379 0,172.156379 0,172.156379 C0,172.156379 1.09,164.739379 25.88,158.094379 C50.69,151.442379 73.06,124.410379 101.91,108.613379 C129.92,93.2783785 148.05,103.535379 149.08,104.150379 L149.1,104.162379 L149.12,104.175379 C149.12,104.175379 149.352843,104.204124 149.798462,104.259205 C141.173325,85.6769621 128.78,57.1553785 128.78,57.1553785 C128.78,57.1553785 128.776034,57.1500615 128.768884,57.139821 L128.738656,57.0947226 C128.462141,56.6672978 127.052927,54.1061091 132.489849,53.4345387 C136.014637,49.5869003 148.937941,35.8596537 156.29,33.2233785 C163.59037,30.6056378 170.91251,22.4910864 172.921806,20.1442287 L173.083006,19.9549658 C173.328922,19.6646709 173.46,19.5023785 173.46,19.5023785 C173.46,19.5023785 211.61,-3.89162145 226.16,1.91337855 Z" id="Cap" fill="#15101B"></path>
                <path d="M143.37,44.6203785 C151.13,40.9463785 161.32,35.4643785 168.75,27.4133785 C176.19,19.3613785 189.5,9.04337855 201.32,7.17037855 C213.15,5.29637855 226.16,1.91337855 226.16,1.91337855 C226.16,1.91337855 228.12,-1.64762145 211.38,0.946378546 C194.64,3.54137855 174.93,14.8453785 166.75,23.0283785 C158.57,31.2123785 160.93,29.8743785 150.61,34.6153785 C140.29,39.3563785 124.25,51.9203785 127.74,56.0403785 C131.22,60.1613785 135.61,48.2943785 143.37,44.6203785 Z M149.12,104.175379 C149.12,104.175379 118.67,105.119379 101.64,117.783379 C84.63,130.440379 43.28,164.979379 22.66,168.982379 C15.05,170.462379 9.4,172.738379 5.28,175.026379 C2,173.237379 0,172.156379 0,172.156379 C0,172.156379 1.09,164.739379 25.88,158.094379 C50.69,151.442379 73.06,124.410379 101.91,108.613379 C129.92,93.2783785 148.05,103.535379 149.08,104.150379 L149.1,104.162379 L149.12,104.175379" id="Light" fill="#4F4A55"></path>
                <path d="M171.95,183.441379 C171.95,183.441379 171.52,183.559379 170.7,183.768379 C164.95,185.229379 140.16,191.088379 112.37,191.087379 C101.02,191.088379 89.17,190.111379 77.92,187.465379 L77.71,188.358379 C89.05,191.025379 100.97,192.005379 112.37,192.005379 C144.28,192.004379 172.17,184.330379 172.19,184.325379 L171.95,183.441379 M204.33,198.023379 C204.33,198.024379 203.87,198.334379 203.04,198.884379 C200.15,200.808379 192.73,205.642379 184.72,210.151379 C180.72,212.405379 176.57,214.577379 172.76,216.262379 C168.96,217.948379 165.5,219.143379 162.94,219.451379 L163.05,220.362379 C166.17,219.980379 170.31,218.436379 174.8,216.343379 C188.26,210.062379 204.83,198.788379 204.84,198.782379 L204.33,198.023379 M186.95,152.962379 L213,153.585379 L213.83,159.224379 L214.31,159.116379 C214.33,159.112379 222.74,157.228379 232.86,153.076379 C242.98,148.920379 254.81,142.514379 261.64,133.369379 L260.91,132.820379 C254.27,141.729379 242.56,148.110379 232.52,152.227379 C227.49,154.288379 222.89,155.788379 219.54,156.771379 C217.87,157.263379 216.51,157.626379 215.57,157.866379 C215.1,157.985379 214.73,158.074379 214.48,158.133379 C214.24,158.192379 214.11,158.221379 214.11,158.221379 L214.21,158.669379 L214.66,158.602379 L213.8,152.686379 L186.97,152.044379 L186.95,152.962379 M264.81,176.201379 C264.81,176.202379 264.76,176.279379 264.66,176.432379 C263.21,178.727379 250.81,197.529379 232.47,205.897379 C227.32,208.253379 223.28,210.886379 220.52,213.414379 C217.77,215.947379 216.24,218.352379 216.229881,220.420379 C216.22,221.647379 216.84,222.733379 217.99,223.414379 C219.14,224.102379 220.79,224.456379 222.98,224.458379 C225.45,224.458379 228.63,223.998379 232.56,222.968379 C243.98,219.973379 253.58,211.147379 260.71,201.929379 C267.85,192.702379 272.52,183.085379 274.04,178.357379 L273.16,178.076379 C271.7,182.654379 267.05,192.242379 259.99,201.368379 C252.92,210.503379 243.44,219.178379 232.33,222.081379 C228.45,223.098379 225.34,223.541379 222.98,223.541379 C220.89,223.543379 219.39,223.188379 218.46,222.627379 C217.54,222.059379 217.16,221.355379 217.14,220.420379 C217.13,218.836379 218.47,216.527379 221.14,214.090379 C223.81,211.647379 227.77,209.053379 232.85,206.731379 C252.75,197.628379 265.56,176.711379 265.59,176.682379 L264.81,176.201379 M137.06,109.582379 C137.06,109.604379 137.77,114.068379 139.91,119.040379 C140.99,121.525379 142.42,124.139379 144.32,126.389379 C146.22,128.636379 148.59,130.523379 151.52,131.514379 L151.82,130.645379 C149.08,129.720379 146.84,127.952379 145.02,125.797379 C142.29,122.566379 140.51,118.468379 139.43,115.181379 C138.89,113.538379 138.53,112.098379 138.29,111.071379 C138.18,110.557379 138.09,110.147379 138.04,109.866379 C137.99,109.585379 137.96,109.438379 137.96,109.438379 L137.06,109.582379 M82.31,144.043379 C82.31,144.043379 82.38,144.018379 82.52,143.971379 C83.46,143.644379 87.5,142.331379 90.55,142.336379 C91.62,142.334379 92.54,142.500379 93.15,142.857379 C93.45,143.035379 93.68,143.253379 93.84,143.528379 C93.99,143.805379 94.09,144.150379 94.09,144.606379 C94.09,145.063379 93.99,145.630379 93.75,146.313379 C93.45,147.213379 92.69,148.098379 91.55,148.927379 C89.55,150.381379 86.43,151.636379 82.89,152.667379 C77.58,154.218379 71.33,155.285379 66.41,155.961379 C63.94,156.299379 61.82,156.540379 60.3,156.696379 C58.79,156.852379 57.9,156.923379 57.9,156.924379 L57.97,157.838379 C57.98,157.837379 66.35,157.169379 75.09,155.464379 C79.46,154.611379 83.92,153.500379 87.5,152.073379 C89.29,151.358379 90.85,150.564379 92.09,149.669379 C93.31,148.774379 94.22,147.771379 94.62,146.611379 C94.88,145.857379 95,145.195379 95.01,144.606379 C95.01,144.021379 94.88,143.504379 94.63,143.074379 C94.26,142.425379 93.65,142.005379 92.94,141.759379 C92.23,141.511379 91.42,141.420379 90.55,141.419379 C86.8,141.426379 82.02,143.176379 82,143.181379 L82.31,144.043379 M305.66,193.929379 L279.61,209.055379 L280.07,209.848379 L306.12,194.722379" id="Texture" fill="#FFFFFE"></path>
            </g>
            <g id="Head" transform="translate(167.429700, 49.522008)">
                <path d="M79.3405988,5.64799227 C86.4505988,8.61099227 91.0505988,13.1169923 93.5505988,17.2119923 L93.5605988,17.2219923 C95.1305988,19.7899923 95.8805988,22.1909923 95.9005988,23.9559923 C95.9505988,28.5349923 94.6605988,30.7569923 94.6605988,30.7569923 L94.6069314,30.7382301 C93.6617934,30.4097274 80.4727675,25.9030646 74.1305988,27.9849923 C67.5605988,30.1459923 70.1105988,32.4489923 71.3605988,32.1499923 C72.6005988,31.8499923 80.8405988,28.2459923 86.9805988,30.5949923 C93.1405988,32.9369923 101.820599,42.6309923 101.820599,42.6309923 C101.820599,42.6309923 101.822315,42.7067556 101.823157,42.8490205 L101.823441,43.1111363 C101.815628,45.4853236 101.520983,56.0419153 97.0005988,60.6949923 C97.0005988,60.6949923 104.990599,66.9219923 101.330599,73.8399923 C97.6605988,80.7679923 87.7905988,82.4439923 87.7905988,82.4439923 L78.8705988,82.5809923 C78.8705988,82.5809923 73.6105988,93.8369923 78.0005988,100.017992 L65.9405988,101.854992 L61.5105988,89.4169923 L59.7905988,107.684992 L50.8905988,109.272992 L47.5405988,86.1609923 C47.5405988,86.1609923 45.8880336,90.2356504 44.0831229,94.7299208 L43.7893363,95.4618222 C43.6420122,95.8290347 43.4942197,96.197707 43.3467584,96.5658907 L43.0525145,97.3010295 C41.2436562,101.823249 39.5662778,106.073585 39.5205988,106.396992 C39.4655988,106.750992 37.3330988,105.294992 35.2143488,103.750492 L34.7445918,103.406513 C34.3547328,103.119816 33.9706577,102.834456 33.6056473,102.561368 L33.1776358,102.240252 C31.9261543,101.29877 30.9905988,100.572992 30.9905988,100.572992 L37.1505988,84.8769923 L24.3405988,96.7119923 L15.3405988,89.1319923 C15.3405988,89.1319923 20.6705988,79.0899923 20.9005988,74.3109923 C20.9005988,74.3109923 3.40059878,72.2239923 0.480598779,60.9629923 C-2.43940122,49.7029923 8.90059878,49.4479923 8.90059878,49.4479923 C8.90059878,49.4479923 5.63059878,34.0459923 7.66059878,30.0139923 C9.70059878,25.9819923 24.9205988,17.3939923 34.6905988,22.9179923 C44.4705988,28.4439923 45.7805988,29.3579923 42.1605988,24.4959923 C39.0705988,20.3429923 30.9305988,17.0239923 22.4205988,19.5859923 C20.9705988,20.0319923 19.5105988,20.6339923 18.0705988,21.4329923 C18.0705988,21.4329923 20.2705988,1.54699227 36.8005988,0.366992265 C53.3405988,-0.812007735 67.7705988,0.823992265 79.3405988,5.64799227 Z M50.3000799,63.1965872 L50.1005703,63.5368715 C50.0344358,63.6505163 49.9687189,63.7642617 49.9035665,63.8777597 L49.709949,64.2171629 C49.6460722,64.3298177 49.5829065,64.4418769 49.5205988,64.5529923 C47.8905988,67.4419923 45.9305988,67.6369923 45.7205988,70.7329923 C45.5105988,73.8299923 45.9405988,75.8179923 50.5305988,70.7189923 C50.5305988,70.7189923 52.9305988,77.3259923 53.9805988,76.7589923 C55.0305988,76.1899923 56.4205988,71.5829923 56.4205988,71.5829923 C56.4205988,71.5829923 53.7305988,62.0439923 53.5405988,60.0909923 C53.371368,58.4376077 51.7701846,60.7084893 50.3000799,63.1965872 Z M63.6005988,53.0259923 C62.3805988,61.3509923 67.0805988,68.9369923 74.1105988,69.9679923 C81.1305988,70.9989923 87.8205988,65.0859923 89.0405988,56.7609923 C90.2605988,48.4349923 85.5605988,40.8489923 78.5305988,39.8179923 C71.5105988,38.7869923 64.8205988,44.6999923 63.6005988,53.0259923 Z M33.6405988,33.3479923 C26.6205988,32.3169923 19.9305988,38.2299923 18.7105988,46.5549923 C17.4905988,54.8809923 22.1905988,62.4669923 29.2205988,63.4979923 C36.2405988,64.5289923 42.9305988,58.6159923 44.1505988,50.2899923 C45.3705988,41.9649923 40.6705988,34.3799923 33.6405988,33.3479923 Z" id="Crane-2" fill="#FFFFFE"></path>
                <path d="M87.7305988,81.2319923 C88.5705988,82.0769923 87.7905988,82.4449923 87.7905988,82.4449923 L78.8705988,82.5779923 C78.8705988,82.5779923 81.4905988,76.2249923 84.7605988,75.2619923 C88.0305988,74.2979923 86.8905988,80.3869923 87.7305988,81.2319923 Z M19.7805988,67.1649923 C20.6805988,69.2219923 20.8905988,74.3069923 20.8905988,74.3069923 C20.8905988,74.3069923 14.8405988,72.9369923 10.7405988,71.3719923 C10.7405988,71.3719923 14.7205988,68.8289923 14.9305988,65.7319923 C15.1505988,62.6359923 18.8705988,65.1079923 19.7805988,67.1649923 Z M82.9975762,41.5175124 C89.2922837,43.2399031 93.3433184,50.3883994 92.2005988,58.1869923 C90.9805988,66.5119923 84.2905988,72.4259923 77.2705988,71.3939923 C75.6420858,71.1551591 74.1386068,70.5646213 72.8047891,69.6946404 C73.2300069,69.8112172 73.6656355,69.9027352 74.1105988,69.9679923 C81.1305988,70.9989923 87.8205988,65.0859923 89.0405988,56.7609923 C89.963842,50.4602355 87.496815,44.5832625 83.1953521,41.6501784 Z M29.9805988,32.9299923 C30.4810198,33.0034871 30.9696515,33.1102916 31.44519,33.2482989 C25.2751791,33.5861479 19.8024163,39.1046798 18.7105988,46.5549923 C17.5775939,54.2872863 21.5504103,61.3813526 27.7535683,63.179555 C27.0274985,63.2202171 26.2908835,63.188715 25.5505988,63.0799923 C18.5205988,62.0489923 13.8205988,54.4629923 15.0405988,46.1369923 C16.2705988,37.8119923 22.9505988,31.8989923 29.9805988,32.9299923 Z M79.3405988,5.64799227 C86.4505988,8.61099227 91.0505988,13.1169923 93.5505988,17.2119923 C93.4070853,17.0805193 93.1785188,16.8764481 92.8641258,16.6116161 L92.6418069,16.4261897 C90.1737726,14.387424 83.491815,9.50027605 72.3305988,5.82499227 C57.8805988,1.05099227 43.7605988,3.79099227 33.5105988,6.37599227 C24.3105988,8.69699227 22.6605988,17.7659923 22.4205988,19.5859923 C22.3905988,19.7859923 22.3805988,19.9049923 22.3805988,19.9049923 L18.0705988,21.4329923 C18.0705988,21.4329923 20.2705988,1.54699227 36.8005988,0.366992265 C53.3405988,-0.812007735 67.7705988,0.823992265 79.3405988,5.64799227 Z" id="Shadows" fill="#B8D6E6"></path>
            </g>
        </g>
    </g>
</svg>