<?xml version="1.0" encoding="UTF-8"?>
<svg width="323px" height="169px" viewBox="0 0 323 169" version="1.1" xmlns="http://www.w3.org/2000/svg" xmlns:xlink="http://www.w3.org/1999/xlink">
    <title>decoration-21</title>
    <g id="decoration-21" stroke="none" stroke-width="1" fill="none" fill-rule="evenodd">
        <g id="Group" transform="translate(1.000000, 0.000000)">
            <g id="Halloween/Creatures/Spider" transform="translate(161.000000, 120.500000) scale(-1, -1) translate(-161.000000, -120.500000) ">
                <path d="M307.947972,135.72003 L307.661701,135.662141 L307.577494,135.622988 C307.287818,135.501081 306.909454,135.301949 306.466813,135.024472 C304.707401,133.924829 302.441606,131.926417 300.01145,129.295174 L299.344862,128.562071 C299.009787,128.187875 298.672235,127.802361 298.333071,127.406203 L297.821981,126.803734 C295.274187,123.770534 292.673229,120.23044 290.112982,116.385446 L289.358,115.24 L290.120378,115.458689 C291.480523,115.841039 292.856579,116.189178 294.248751,116.501813 C303.216991,118.51263 312.140907,112.877779 314.147393,103.888724 C316.126617,95.0217989 310.635614,86.2107118 301.836441,84.0694187 L301.520786,83.9957909 C293.479643,82.2034455 285.679835,78.0257173 278.708872,72.386983 C276.202005,70.3636272 273.986444,68.2969035 272.122819,66.3385188 L271.650565,65.8395963 L271.224895,65.3794702 L270.678534,64.7699748 L270.13133,64.1265797 L270.044236,64.0178751 L269.89946,63.8439737 C269.827069,63.7570194 269.753501,63.6710519 269.678775,63.5860951 C266.070596,59.4838788 260.676173,57.4090652 255.232106,58.0517677 C249.619434,58.7190043 244.737692,62.1679735 242.245075,67.2267732 L241.910256,67.9204899 C241.361996,69.0041335 240.622373,70.0790624 239.694927,71.1360533 L239.475,71.379 L239.272303,70.9427382 C229.782614,50.8745414 212.540232,35.0348073 190.736716,27.5695367 L189.896769,27.2868507 C167.758973,19.9651369 144.128061,22.3033091 124.272886,32.8983885 L123.712,33.2 L123.676042,33.0085576 C123.446201,31.7262036 123.325739,30.4916117 123.327606,29.3357546 C123.327623,28.1828174 123.441363,27.1176755 123.666783,26.1258246 C124.947348,20.4833377 123.217009,14.5979787 119.089382,10.5504997 C115.237181,6.73548548 109.715758,5.0573808 104.344962,6.07097931 L103.996725,6.14184097 L103.208193,6.31605099 L102.6737,6.42237219 L102.330067,6.48655075 L101.595523,6.61479258 C101.340372,6.65738275 101.075052,6.69972815 100.799969,6.74156583 L99.9458374,6.86529268 C96.9978037,7.2717126 93.7561527,7.51556076 90.3476228,7.51556076 C82.1057914,7.51556076 74.1600452,6.09634498 67.2590742,2.98926695 L66.6151919,2.69302528 C58.3003814,-1.22453521 48.396163,2.35336369 44.4697887,10.6468277 C40.5563618,19.0380081 44.1366532,28.9612379 52.4845363,32.8542411 L53.2649857,33.215282 C54.3071981,33.6905668 55.3558326,34.1414871 56.4105167,34.568619 L57.088,34.839 L56.554848,35.0228898 C52.4740066,36.4130837 48.5207428,37.5769185 44.8599407,38.4365981 C40.2966427,39.508214 36.2630974,40.0755608 33.2876228,40.0755608 C32.1921583,40.0755608 31.2427975,39.994347 30.5113367,39.8578077 C30.4227538,39.840316 30.3139551,39.8139775 30.2137349,39.7860624 L30.077,39.745 L30.1911078,39.8035708 C22.0305364,35.5632739 11.9863888,38.7422714 7.73725934,46.8797552 C3.50539486,55.101191 6.67967264,65.1304267 14.8341378,69.3675507 C17.7747037,70.8922938 20.9181242,71.9271807 24.284149,72.5781571 C27.1669989,73.1330768 30.1463096,73.3855608 33.2876228,73.3855608 L34.077848,73.3789855 C39.8890425,73.2934987 46.0595329,72.3900603 52.7660282,70.7972676 L53.652,70.582 L53.0026148,71.2752916 L52.1523267,72.1632352 L51.2015421,73.1360083 L50.435731,73.9051762 C47.414356,76.9156199 44.1158193,79.9106397 40.6806428,82.6693623 C36.2821023,86.2056315 31.8583471,89.1693296 27.7607557,91.2488189 C23.7608657,93.2824042 20.1749167,94.4057343 17.4249715,94.5881389 L17.0990179,94.605509 C7.88998911,94.9658584 0.72731434,102.750293 1.12952392,111.960893 C1.48908347,121.11271 9.27144506,128.285909 18.4829546,127.88366 C26.7639529,127.530506 34.9080668,125.024625 43.1807843,120.773555 L44.092737,120.2985 C51.3746655,116.451895 58.3299718,111.500607 65.1023208,105.692064 L65.675,105.197 L66.1927495,105.654882 C66.7186837,106.114902 67.2532863,106.572619 67.7962325,107.028181 L68.655,107.74 L68.6420098,107.742831 C62.36775,108.617774 56.9553675,113.047604 55.0267161,119.370208 L54.9198279,119.731135 L54.811146,120.117385 L54.7241292,120.402256 L54.5921405,120.814427 L54.3830899,121.431791 L54.1423892,122.102335 C54.0996125,122.21833 54.0555004,122.336395 54.0100443,122.456458 C53.2236166,124.533644 52.2227461,126.720244 51.0047587,128.884043 C49.4558121,131.627126 47.6686454,134.14749 45.6781326,136.301048 C43.5834856,138.56727 41.316239,140.400799 38.8607475,141.770827 L38.3671346,142.038644 C30.2135236,146.37643 27.1034329,156.45015 31.4321975,164.586624 C35.7021293,172.687721 45.7754954,175.789127 53.9061873,171.503492 C60.1492504,168.215796 65.6245283,163.857021 70.357118,158.675651 L70.9460681,158.022172 C74.8183711,153.670813 78.0286279,148.968352 80.6827353,144.0529 L81.128,143.214 L89.142,144.79 L89.2846253,145.069059 C92.1415055,150.61087 95.6049996,155.815765 99.6088231,160.582929 L100.044,161.096 L99.8713987,161.322903 C97.0904662,165.003188 94.8761809,169.14244 93.3410358,173.628112 L93.1740484,174.125589 C88.5879331,188.059754 91.2816342,203.067941 99.852652,214.426332 L100.208,214.89 L100.553853,221.662341 L100.575882,222.009113 C101.328076,231.888824 112.406206,236.498487 119.883517,231.528116 L120.062,231.405 L120.117393,231.565662 C123.094818,239.841614 134.630217,243.108992 141.310857,235.481408 L145.542,230.65 L146.02121,230.528779 C160.107175,226.884559 171.78112,216.415248 176.67201,202.149431 L176.870162,201.557303 C178.162272,197.604439 178.876471,193.5465 179.025612,189.490355 L179.041,188.965 L179.116435,188.951913 C185.33029,187.777825 191.39632,185.901165 197.195135,183.36076 L197.825,183.08 L203.953,186.156 L203.933889,186.266221 C203.183686,190.515123 202.767623,194.895055 202.767623,199.405561 C202.767623,208.342277 204.416621,217.021377 208.125279,225.192015 C211.889061,233.560604 221.791708,237.288074 230.18016,233.475142 C238.44744,229.717287 242.176682,220.041376 238.591633,211.726602 L238.457204,211.423024 C236.846,207.872173 236.077623,203.829459 236.077623,199.405561 C236.070905,195.572111 236.65365,191.661377 237.612847,188.076499 L237.727671,187.650659 L237.958653,186.837419 C238.151335,186.181868 238.343597,185.583019 238.528623,185.050806 L238.874,184.099 L238.969984,183.877868 L239.124724,183.494801 C239.1633,183.398221 239.20067,183.301163 239.236824,183.20365 L239.355875,182.872 C241.432097,176.892775 239.913407,170.414337 235.767272,165.996477 L235.54,165.76 L235.94109,165.749044 C236.882048,165.720299 237.806639,165.680225 238.715849,165.628001 L239.465,165.581 L239.578975,166.149226 C239.854031,167.494056 240.149067,168.844402 240.464974,170.197502 C242.292372,177.976681 244.632774,185.137197 247.692649,191.686588 C251.648448,200.140081 256.537651,207.097554 262.874054,212.446941 C269.898946,218.387998 280.423925,217.493313 286.354649,210.44056 C292.203107,203.525229 291.407463,193.182041 284.604287,187.211909 L284.332622,186.978535 C282.159883,185.151206 279.880121,181.904165 277.883277,177.607454 C275.003903,171.455282 272.817339,163.545528 271.425784,155.240025 C270.952089,152.442163 270.595115,149.771614 270.353401,147.414985 L270.221826,146.105876 L270.175,145.603 L270.670314,146.223189 C273.432246,149.657419 276.241894,152.780102 279.118567,155.561678 C282.354664,158.664755 285.495742,161.198083 288.799805,163.260017 C292.885986,165.819683 297.080586,167.589572 301.568893,168.417951 C310.639748,170.063608 319.289889,164.09501 320.967203,155.069465 C322.596228,146.090595 316.778112,137.542613 307.947972,135.72003 Z" id="Sticker" fill="#FFFFFF" fill-rule="nonzero"></path>
                <path d="M61.2976228,14.0055608 C71.3176228,18.7155608 81.9076228,20.0155608 90.3476228,20.0155608 C99.4704799,20.0155608 106.017111,18.5046915 106.413269,18.4090708 L106.427623,18.4055608 L106.663093,18.3541496 C107.999598,18.1019188 109.364845,18.5122274 110.337623,19.4755608 C111.367623,20.4855608 111.797623,21.9455608 111.477623,23.3555608 C111.027623,25.3355608 110.827623,27.3355608 110.827623,29.3155608 C110.817623,35.5055608 112.797623,41.6255608 114.877623,46.1855608 C116.027783,48.7248037 117.196467,50.7793435 118.011434,52.109025 C136.470825,36.7110589 162.285663,31.0406132 186.687623,39.3955608 C210.770028,47.6410964 227.573287,67.5206791 232.964065,90.607305 C233.539792,90.3546574 234.161632,90.0708714 234.817623,89.7555608 C238.437623,88.0255608 243.057623,85.3155608 246.957623,81.5955608 C249.567623,79.1155608 251.847623,76.2055608 253.417623,72.8355608 C254.027623,71.5255608 255.267623,70.6355608 256.697623,70.4655608 C258.061833,70.3045081 259.399119,70.8255608 260.292847,71.8416593 L260.437623,72.0155608 L260.457623,72.0455608 L260.567623,72.1755608 C260.677623,72.3055608 260.837623,72.4955608 261.057623,72.7555608 C261.497623,73.2655608 262.177623,74.0255608 263.067623,74.9555608 C264.837623,76.8155608 267.477623,79.3855608 270.847623,82.1055608 C277.597623,87.5655608 287.267623,93.6255608 298.797623,96.1955608 C301.037623,96.6955608 302.447623,98.9255608 301.947623,101.165561 C301.447623,103.405561 299.217623,104.805561 296.987623,104.305561 C283.717623,101.325561 273.037623,94.5555608 265.627623,88.5755608 C260.687623,84.5822274 258.112123,82.2575664 257.901124,81.6015777 C256.326618,83.8454593 254.550937,85.8435836 252.697623,87.6155608 C249.497623,90.6555608 246.057623,93.0355608 242.897623,94.8855608 C239.578997,96.8148725 236.55447,98.1587356 234.397559,99.010815 C235.040277,104.838341 234.961489,110.799 234.103491,116.767511 C234.639299,116.598581 235.210347,116.417753 235.807623,116.225561 C239.857623,114.935561 245.127623,113.135561 249.957623,111.175561 C253.167623,109.865561 256.187623,108.465561 258.427623,107.165561 C259.707623,106.435561 260.737623,105.715561 261.337623,105.175561 C261.667623,104.895561 261.867623,104.665561 261.937623,104.565561 C262.787623,103.395561 264.197623,102.745561 265.637623,102.865561 C267.001833,102.969771 268.231418,103.756087 268.909744,104.943919 L269.017623,105.145561 L269.037623,105.175561 L269.107623,105.315561 C269.167623,105.445561 269.267623,105.635561 269.397623,105.885561 C269.542067,106.163339 269.723549,106.512104 269.942067,106.924998 L270.222067,107.450815 C270.321326,107.636055 270.426512,107.831116 270.537623,108.035561 C271.537623,109.885561 272.987623,112.495561 274.787623,115.505561 C278.387623,121.525561 283.387623,129.175561 288.837623,135.535561 C292.467623,139.775561 296.307623,143.415561 299.827623,145.615561 C301.837623,146.875561 303.717623,147.655561 305.337623,147.945561 C307.587623,148.365561 309.087623,150.525561 308.677623,152.785561 C308.257623,155.045561 306.097623,156.535561 303.837623,156.125561 C300.857623,155.575561 298.067623,154.315561 295.417623,152.655561 C292.757623,150.995561 290.237623,148.905561 287.807623,146.575561 C282.967623,141.895561 278.497623,136.195561 274.637623,130.625561 C269.490956,123.218894 265.939922,117.516581 263.98452,113.518622 C262.639612,114.374259 261.157238,115.189209 259.567623,115.975561 C255.817623,117.835561 251.457623,119.575561 247.277623,121.105561 C240.599221,123.534071 234.386679,125.394614 232.127021,126.049943 C231.777688,127.291011 231.390631,128.530097 230.967623,129.765561 C229.13117,135.130656 226.717616,140.134257 223.820061,144.730787 C226.041101,144.867267 228.961727,144.995561 232.087623,144.995561 C235.027623,144.995561 238.157623,144.885561 241.017623,144.555561 C243.867623,144.245561 246.457623,143.705561 248.207623,143.005561 C249.294051,142.587704 250.018337,142.109489 250.340447,141.803108 L250.559766,141.583591 C251.700269,140.502631 253.375014,140.160778 254.857623,140.715561 C256.340231,141.270343 257.374523,142.621118 257.540422,144.181533 L257.557623,144.395561 L257.557623,144.445561 L257.567623,144.605561 C257.577623,144.765561 257.587623,144.995561 257.607623,145.305561 C257.657623,145.915561 257.727623,146.825561 257.847623,147.975561 C258.067623,150.265561 258.457623,153.525561 259.097623,157.305561 C260.367623,164.885561 262.667623,174.585561 266.547623,182.875561 C269.117623,188.405561 272.387623,193.265561 276.287623,196.545561 C278.047623,198.025561 278.267623,200.645561 276.787623,202.395561 C275.307623,204.155561 272.687623,204.375561 270.937623,202.895561 C265.737623,198.505561 261.937623,192.635561 259.017623,186.395561 C256.097623,180.145561 254.077623,173.485561 252.637623,167.355561 C251.203021,161.21085 250.359706,155.599556 249.874189,151.512432 C248.169812,151.827851 246.607623,152.108894 245.187623,152.355561 C240.937623,153.095561 236.307623,153.305561 232.087623,153.305561 C224.837623,153.305561 218.827623,152.665561 218.737623,152.655561 C218.523583,152.63303 218.315008,152.594549 218.112964,152.541423 C214.511812,156.821307 210.442261,160.625935 206.010893,163.903481 L225.487623,173.685561 C227.394074,174.643625 228.251619,176.875363 227.516467,178.858167 L227.437623,179.055561 L227.407623,179.105561 C227.387623,179.155561 227.347623,179.245561 227.297623,179.375561 C227.207623,179.615561 227.057623,179.995561 226.877623,180.505561 C226.517623,181.505561 226.027623,182.995561 225.537623,184.845561 C224.547623,188.545561 223.567623,193.715561 223.577623,199.405561 C223.577623,204.905561 224.477623,210.865561 227.077623,216.595561 C228.027623,218.685561 227.097623,221.145561 225.007623,222.095561 C222.917623,223.045561 220.447623,222.115561 219.507623,220.025561 C216.307623,212.975561 215.267623,205.805561 215.267623,199.405561 C215.267623,192.994526 216.311713,187.338593 217.391807,183.157823 L217.507623,182.715561 L218.543041,179.492354 L197.864214,169.114678 C187.856084,174.600535 176.556658,177.681297 164.91948,177.890187 C167.044686,184.226497 167.179272,191.286648 164.847623,198.095561 C160.683063,210.242807 149.846756,218.212061 137.837052,219.304206 C138.102262,219.623558 138.263798,219.832176 138.312198,219.895335 L138.327623,219.915561 L131.907623,227.245561 L132.697623,219.945561 L130.271383,219.073605 C128.438104,218.793544 126.604056,218.347204 124.787623,217.725561 C122.661171,216.997819 120.662919,216.065457 118.807304,214.957992 L117.907623,214.635561 L113.037623,221.025561 L112.473621,209.968587 C104.405759,201.72331 101.176881,189.336452 105.167623,177.675561 C107.56794,170.661867 112.194289,165.041026 117.987522,161.332592 C109.025508,153.840372 102.131817,144.297669 97.7805229,133.676115 C97.523217,133.674583 97.2608991,133.648216 96.9976228,133.595561 C86.6962816,131.569822 78.9702758,130.050518 73.8196052,129.037649 L73.8426075,129.04182 L73.8419531,129.060128 C73.8086336,129.28621 73.2109994,130.696937 72.0490505,133.292311 L71.9176228,133.585561 C69.7776228,138.345561 66.3576228,144.515561 61.1276228,150.245561 C57.6476228,154.055561 53.3376228,157.675561 48.0776228,160.445561 C46.0476228,161.515561 43.5376228,160.745561 42.4676228,158.715561 C41.3876228,156.685561 42.1676228,154.175561 44.1976228,153.095561 C48.4076228,150.875561 51.9276228,147.955561 54.8576228,144.785561 C57.7876228,141.615561 60.1076228,138.185561 61.8976228,135.015561 C65.4776228,128.655561 66.8976228,123.315561 66.9276228,123.205561 L66.9276228,123.205561 L66.9276228,123.215561 L66.9828297,123.017309 C67.6001618,120.993539 69.6551228,119.748998 71.7476228,120.165561 L71.7476228,120.165561 L94.7788456,124.69435 C93.386013,119.376333 92.6021469,113.873258 92.478844,108.29063 C91.6295604,108.35711 90.750704,108.164998 89.9676228,107.685561 C89.9176228,107.655561 87.3076228,106.035561 83.7476228,103.515561 C80.1876228,100.995561 75.6976228,97.5855608 71.8076228,93.8555608 C69.7343434,91.8620229 67.8327491,89.7921804 66.3158023,87.5902577 L66.3286075,87.6088199 L66.3208185,87.6191915 C66.0524595,87.9210569 64.3189166,89.5490376 61.1201898,92.5031335 L60.8576228,92.7455608 C54.8576228,98.2555608 46.6576228,104.935561 37.4676228,109.655561 C31.3376228,112.805561 24.7376228,115.105561 17.9376228,115.395561 C15.6476228,115.495561 13.7076228,113.705561 13.6176228,111.415561 C13.5176228,109.125561 15.2976228,107.185561 17.5976228,107.095561 C22.6076228,106.895561 28.0676228,105.115561 33.4176228,102.395561 C38.7576228,99.6855608 43.9676228,96.0655608 48.5076228,92.4155608 C52.8134123,88.957666 56.5290909,85.4795774 59.2784144,82.7401606 L59.7276228,82.2905608 C62.5151228,79.4880608 64.2026228,77.5555608 64.3476228,77.3855608 L64.3476228,77.3855608 L64.3576228,77.3755608 C65.4376228,76.1155608 67.1676228,75.6255608 68.7476228,76.1155608 C70.3276228,76.6055608 71.4676228,78.0055608 71.6376228,79.6455608 C71.6676228,80.0255608 71.8976228,80.7855608 72.4376228,81.7355608 C72.9676228,82.6855608 73.7876228,83.8055608 74.8076228,84.9855608 C76.8476228,87.3455608 79.6776228,89.9055608 82.5276228,92.1955608 C86.5813843,95.4626658 90.6803488,98.2375608 92.8205293,99.637495 C93.3567676,94.309721 94.5084918,88.9594171 96.3176228,83.6755608 C96.7016484,82.5539526 97.1109096,81.4481337 97.544555,80.3585218 C97.0505366,80.0792247 96.6060222,79.6930894 96.2476228,79.2055608 C96.2276228,79.1755608 94.4476228,76.7855608 91.9976228,73.2155608 C89.5476228,69.6355608 86.4076228,64.8955608 83.6376228,60.1255608 C81.7976228,56.9455608 80.1076228,53.7555608 78.8776228,50.7955608 C78.4109561,49.6688941 78.197452,49.0487037 78.2371105,48.9349895 C76.6765678,49.6075532 74.7823621,50.4011524 72.6376228,51.2555608 C66.4776228,53.7055608 58.2676228,56.6455608 49.8776228,58.6355608 C44.2776228,59.9655608 38.5976228,60.8755608 33.2876228,60.8855608 C31.0076228,60.8855608 28.7876228,60.7155608 26.6576228,60.3055608 C24.5376228,59.8955608 22.4876228,59.2555608 20.5976228,58.2755608 C18.5576228,57.2155608 17.7676228,54.7055608 18.8176228,52.6655608 C19.8776228,50.6355608 22.3876228,49.8355608 24.4276228,50.8955608 C25.4476228,51.4255608 26.7276228,51.8555608 28.2176228,52.1455608 C29.7176228,52.4255608 31.4276228,52.5755608 33.2876228,52.5755608 C37.5576228,52.5755608 42.6076228,51.8055608 47.7176228,50.6055608 C52.8276228,49.4055608 57.9976228,47.7855608 62.6276228,46.1455608 C71.7550074,42.9061761 78.7786476,39.5989288 79.3266927,39.3452057 L79.3476228,39.3355608 L79.3576228,39.3255608 C80.6676228,38.6955608 82.2276228,38.8055608 83.4376228,39.6055608 C84.6576228,40.4055608 85.3676228,41.7955608 85.3076228,43.2455608 L85.3076228,43.2555608 C85.2889561,43.5448941 85.4183783,44.3917385 85.7609324,45.4708793 L85.8376228,45.7055608 C86.2376228,46.9055608 86.8476228,48.3655608 87.6176228,49.9555608 C89.0456228,52.9328941 90.9962895,56.3370719 93.0224524,59.6070985 L93.6757697,60.6539136 C96.6429466,65.3802556 99.6697188,69.723232 101.418435,72.1787703 C104.326031,66.9226328 107.844871,62.1430592 111.85031,57.8990655 C111.005252,56.628772 109.221935,53.780424 107.427623,49.8655608 C105.073028,44.7379932 102.661633,37.7549399 102.523796,29.966444 L102.517623,29.3155608 L102.518309,28.914947 C102.520825,28.222141 102.530259,27.7584242 102.546611,27.5237964 L102.546607,27.5158199 L102.202764,27.5623375 C99.2639569,27.9468084 95.4230575,28.2927056 90.9855743,28.3233565 L90.3476228,28.3255608 C81.0776228,28.3255608 69.2976228,26.9355608 57.7676228,21.5255608 C55.6876228,20.5555608 54.7976228,18.0755608 55.7676228,15.9955608 C56.7476228,13.9255608 59.2176228,13.0255608 61.2976228,14.0055608 Z" id="Body" fill="#28171A"></path>
                <path d="M158.007623,44.7155608 C158.007623,44.7155608 114.377623,90.8355608 140.827623,127.725561 C167.267623,164.615561 200.817623,153.635561 200.817623,153.635561 C200.817623,153.635561 146.197623,186.225561 115.757623,136.735561 C85.3276228,87.2455608 131.017623,39.3855608 158.007623,44.7155608" id="Shadow" fill="#1D1314"></path>
                <path d="M111.407623,187.985561 L122.957623,205.615561 C122.957623,205.615561 117.867623,210.475561 113.597623,206.565561 C109.317623,202.655561 105.797623,194.375561 111.407623,187.985561 M153.947623,201.815561 L134.017623,208.675561 C134.017623,208.675561 135.057623,215.625561 140.837623,215.155561 C146.617623,214.695561 154.467623,210.295561 153.947623,201.815561" id="Eyes" fill="#A03D7D"></path>
            </g>
        </g>
    </g>
</svg>