<?xml version="1.0" encoding="UTF-8"?>
<svg width="251px" height="315px" viewBox="0 0 251 315" version="1.1" xmlns="http://www.w3.org/2000/svg" xmlns:xlink="http://www.w3.org/1999/xlink">
    <title>decoration-20</title>
    <g id="decoration-20" stroke="none" stroke-width="1" fill="none" fill-rule="evenodd">
        <g id="Halloween/Stuffs/Potion" transform="translate(125.500000, 169.500000) scale(-1, 1) translate(-125.500000, -169.500000) ">
            <path d="M238.650935,280.251666 L239.32971,278.877577 C239.639748,278.246166 239.915997,277.658672 240.183728,277.056653 L240.319,276.747 L240.647274,276.024545 L241.028448,275.166455 L241.420547,274.266497 L241.830114,273.31073 L242.106266,272.656325 L242.369085,272.00385 L242.76754,270.986792 L243.196286,269.861213 L243.55838,268.893939 L244.121351,267.262133 L244.303583,266.716082 L244.577135,265.919047 L244.861047,265.050454 L245.145587,264.150385 C245.547667,262.904917 245.910241,261.638751 246.270909,260.249574 L246.398857,259.745169 C247.027675,257.413707 247.574388,255.017302 248.040206,252.570095 L248.3491,250.859418 L248.506214,249.929508 L248.633223,249.142695 L248.703244,248.678243 L248.793632,248.017899 L248.839,247.645 L248.869742,247.453197 C249.095611,245.959567 249.261431,244.452754 249.411169,242.676359 L249.453,242.155 L249.488452,241.786633 C249.58762,240.698572 249.651956,239.801581 249.686047,238.895308 L249.696,238.577 L249.72651,238.147892 L249.7475,237.742215 L249.759646,237.335438 L249.76,237.191 L249.80723,236.104828 L249.827495,235.489933 C249.83014,235.392042 249.832417,235.296006 249.834324,235.201163 L249.84131,234.641153 L249.841,234.406 L249.852044,234.007059 L249.860112,233.259328 L249.860112,232.661261 L249.810201,230.248595 L249.779275,229.369732 L249.762002,229.0427 L249.757,229.014 L249.771548,228.464352 L249.559201,225.48109 L249.480767,224.523699 C249.467311,224.370298 249.453597,224.21943 249.439525,224.070268 L249.396138,223.62708 C249.259905,222.199571 249.082525,220.662275 248.87884,219.145956 C248.790376,218.5122 248.6961,217.88132 248.593847,217.235649 L248.378059,215.919349 L248.137143,214.532197 L247.913511,213.349442 C247.453334,210.99067 246.915358,208.670369 246.293642,206.353253 L246.096,205.635 L246.066817,205.502883 L245.965807,205.103157 L245.84831,204.682154 L245.776,204.438 L245.760501,204.372848 L245.708452,204.188784 C244.479982,199.844469 242.889614,195.509161 240.917562,191.036828 C239.090621,186.928824 237.015862,182.964601 234.67158,179.053596 L234.013946,177.986374 C214.112236,146.1189 178.719744,127.699709 141.894127,128.975207 L141.477,128.992 L124.868736,76.4424665 L110.603,35.868 L110.617875,35.8344728 C113.134164,29.7098379 113.206402,22.6372715 110.362448,16.2052455 C104.762428,3.56519135 89.9988752,-2.13497426 77.3668072,3.46151155 L16.0550806,30.6053589 L15.6246799,30.8035484 C3.36956312,36.6021401 -2.03945616,51.1169522 3.46150986,63.5334183 L3.62388375,63.8930354 C6.15274741,69.3791535 10.4746788,73.5734683 15.6312947,76.0124854 L15.796,76.089 L39.082,111.28 L68.818,162.509 L68.2272099,163.153897 C43.0086238,190.967045 34.3472845,230.827583 46.8621896,267.142792 C47.7775346,269.867933 48.8861468,272.701373 50.1374676,275.516844 C52.05092,279.844951 54.1805079,283.937266 56.5563818,287.821989 C83.6969231,332.15766 139.801187,349.888242 187.752394,328.649169 C191.862056,326.833035 195.834734,324.758402 199.61086,322.456733 L200.529013,321.889544 C203.171954,320.270742 205.766846,318.496626 208.395674,316.530926 C210.848459,314.696861 213.247731,312.702661 215.664888,310.511741 C216.818953,309.460564 217.937336,308.390559 219.058947,307.268948 C224.524743,301.856731 229.39063,295.778652 233.571773,289.174563 L234.428525,287.805363 L234.966285,286.929881 C235.308227,286.365345 235.62099,285.831769 235.928279,285.285468 L236.112,284.954 L235.997793,285.154854 C236.919556,283.580175 237.803884,281.943606 238.650935,280.251666 Z" id="Path" fill="#FFFFFF" fill-rule="nonzero"></path>
            <g id="Group" transform="translate(25.813603, 11.813605)">
                <g id="Halloween/Features/Potion-1" transform="translate(93.500000, 160.500000) rotate(-24.000000) translate(-93.500000, -160.500000) ">
                    <g id="Group" transform="translate(100.773254, 160.647206) rotate(24.000000) translate(-100.773254, -160.647206) translate(-11.000000, 5.000000)">
                        <path d="M99.1965086,66.5865086 L118.770107,128.515931 C154.617722,123.399464 190.901854,140.029492 210.136509,171.666509 C212.156509,175.036509 214.016509,178.556509 215.666509,182.266509 C217.346509,186.076509 218.766509,189.886509 219.866509,193.776509 C219.946509,194.096509 220.066509,194.426509 220.126509,194.756509 C220.886509,197.466509 221.516509,200.176509 222.016509,202.906509 C222.256509,204.256509 222.486509,205.636509 222.676509,206.996509 C222.856509,208.336509 223.016509,209.716509 223.146509,211.076509 C223.276509,212.356509 223.356509,213.676509 223.446509,214.936509 C223.436509,215.326509 223.456509,215.706509 223.476509,216.076509 C223.516509,217.036509 223.526509,218.006509 223.546509,218.976509 C223.546509,219.446509 223.546509,219.926509 223.526509,220.406509 C223.536509,221.286509 223.486509,222.196509 223.446509,223.096509 C223.456509,223.396509 223.426509,223.726509 223.396509,224.066509 C223.376509,225.146509 223.286509,226.216509 223.186509,227.266509 C223.056509,228.896509 222.896509,230.536509 222.636509,232.156509 C222.516509,233.216509 222.326509,234.276509 222.146509,235.336509 C221.706509,237.806509 221.166509,240.266509 220.516509,242.676509 C220.196509,243.946509 219.846509,245.226509 219.436509,246.496509 C219.176509,247.326509 218.916509,248.146509 218.626509,248.956509 C218.426509,249.576509 218.206509,250.206509 217.986509,250.836509 C217.576509,251.936509 217.156509,253.046509 216.716509,254.126509 C216.196509,255.356509 215.656509,256.606509 215.096509,257.826509 C214.776509,258.566509 214.456509,259.236509 214.096509,259.956509 C213.256509,261.686509 212.356509,263.386509 211.396509,265.026509 C210.856509,266.006509 210.286509,266.936509 209.696509,267.876509 C205.956509,273.916509 201.526509,279.546509 196.406509,284.616509 C195.446509,285.576509 194.466509,286.516509 193.456509,287.436509 C191.426509,289.276509 189.316509,291.046509 187.096509,292.706509 C184.876509,294.366509 182.586509,295.946509 180.186509,297.416509 C176.626509,299.646509 172.836509,301.656509 168.876509,303.406509 C126.296509,322.266509 77.0665086,306.136509 53.4065086,267.486509 C51.2965086,264.036509 49.4265086,260.426509 47.7465086,256.626509 C46.6665086,254.196509 45.6965086,251.726509 44.8665086,249.256509 C32.6198853,213.719788 43.514283,174.93888 70.6801683,150.800877 L35.8965086,90.8765086 L99.1965086,66.5865086 Z" id="Flask" fill="#CEDDF0"></path>
                        <g id="Cap" transform="translate(0.000000, -0.000000)">
                            <polyline id="Fill-1793" fill="#7C1F14" points="22.5265086 69.0965086 88.7465086 39.7765086 80.9865086 22.2565086 14.7665086 51.5765086 22.5265086 69.0965086"></polyline>
                            <path d="M17.5665086,51.0265086 L78.7465086,23.9365086 C85.0565086,21.1465086 87.9065086,13.7565086 85.1165086,7.44650863 C82.3165086,1.12650863 74.9365086,-1.72349137 68.6165086,1.07650863 L7.44650863,28.1565086 C1.12650863,30.9565086 -1.72349137,38.3365086 1.07650863,44.6565086 C3.86650863,50.9665086 11.2565086,53.8265086 17.5665086,51.0265086" id="Fill-1801" fill="#AC0F0F"></path>
                            <path d="M14.0265086,46.6965086 L51.1465086,30.2565086 C54.4065086,28.8065086 55.8965086,24.9565086 54.4565086,21.6865086 C53.0065086,18.4165086 49.1465086,16.9365086 45.8865086,18.3765086 L8.76650863,34.8165086 C5.49650863,36.2565086 4.00650863,40.1165086 5.45650863,43.3865086 C6.89650863,46.6465086 10.7565086,48.1365086 14.0265086,46.6965086" id="Fill-1802" fill="#DB2F1C"></path>
                        </g>
                        <polyline id="Cap-in-bottle" fill="#A3BCD0" points="86.8765086 31.5465086 99.1965086 66.5865086 35.8965086 90.8765086 18.1765086 64.0965086 86.8765086 31.5465086"></polyline>
                        <g id="Potion" transform="translate(44.866509, 113.238023)">
                            <path d="M175,80.5384853 C175.08,80.8584853 175.2,81.1884853 175.26,81.5184853 C176.04,84.2184853 176.68,86.9284853 177.15,89.6684853 C177.39,91.0184853 177.62,92.3984853 177.81,93.7584853 C177.99,95.0984853 178.15,96.4784853 178.28,97.8384853 C178.41,99.1184853 178.49,100.438485 178.58,101.698485 C178.57,102.088485 178.59,102.468485 178.61,102.838485 C178.65,103.798485 178.66,104.768485 178.68,105.738485 C178.68,106.208485 178.68,106.688485 178.66,107.168485 C178.67,108.048485 178.62,108.958485 178.58,109.858485 C178.59,110.158485 178.56,110.488485 178.53,110.828485 C178.51,111.908485 178.42,112.978485 178.32,114.028485 C178.19,115.658485 178.03,117.298485 177.77,118.918485 C177.65,119.978485 177.46,121.038485 177.28,122.098485 C176.84,124.568485 176.3,127.028485 175.65,129.438485 C175.33,130.708485 174.98,131.988485 174.57,133.258485 C174.31,134.088485 174.05,134.908485 173.76,135.718485 C173.56,136.338485 173.34,136.968485 173.12,137.598485 C172.71,138.698485 172.29,139.808485 171.85,140.888485 C171.33,142.118485 170.79,143.368485 170.23,144.588485 C169.9,145.298485 169.56,146.008485 169.23,146.718485 C168.39,148.448485 167.49,150.148485 166.53,151.788485 C165.99,152.768485 165.42,153.698485 164.83,154.638485 C161.09,160.678485 156.66,166.308485 151.54,171.378485 C150.58,172.338485 149.6,173.278485 148.59,174.198485 C146.56,176.038485 144.45,177.808485 142.23,179.468485 C140.01,181.128485 137.72,182.708485 135.32,184.178485 C131.76,186.408485 127.97,188.418485 124.01,190.168485 C81.43,209.028485 32.2,192.898485 8.54,154.248485 L175,80.5384853" id="Liquid" fill="#724287"></path>
                            <path d="M175,80.5384853 C175.08,80.8584853 175.2,81.1884853 175.26,81.5184853 C172.31,84.4784853 168.81,87.3284853 165.35,89.8084853 C160.95,92.9684853 156.66,95.5584853 153.57,97.0684853 C153.37,97.1584853 153.19,97.2684853 152.95,97.3384853 C143.31,101.818485 92.16,121.838485 53.44,136.878485 C39.82,142.168485 27.72,146.848485 19.53,149.998485 C12.66,152.658485 8.54,154.248485 8.54,154.248485 C6.43,150.798485 4.56,147.188485 2.88,143.388485 C1.8,140.958485 0.83,138.488485 1.8189894e-12,136.018485 C2.64,133.108485 7.69,129.208485 14.46,124.738485 C23.14,118.998485 34.65,112.278485 47.56,105.348485 L47.58,105.338485 C87.92,83.6684853 141.84,60.0784853 165.27,58.4284853 C167.29,61.7984853 169.15,65.3184853 170.8,69.0284853 C172.48,72.8384853 173.9,76.6484853 175,80.5384853 Z" id="Surface" fill="#B17ED1"></path>
                            <g id="Bubles" transform="translate(24.540063, 0.000000)">
                                <path d="M79.5199373,45.0284853 C82.3399373,51.3984853 79.4599373,58.8684853 73.0799373,61.6884853 C66.6999373,64.5084853 59.2399373,61.6284853 56.4199373,55.2484853 C53.5899373,48.8784853 56.4699373,41.4184853 62.8499373,38.5884853 C69.2299373,35.7684853 76.6899373,38.6484853 79.5199373,45.0284853 M49.1299373,82.5584853 C50.6999373,86.0984853 49.0999373,90.2484853 45.5499373,91.8184853 C42.0099373,93.3884853 37.8699373,91.7884853 36.2999373,88.2384853 C34.7299373,84.6984853 36.3299373,80.5484853 39.8699373,78.9884853 C43.4199373,77.4184853 47.5599373,79.0184853 49.1299373,82.5584853 M30.9880254,4.5656643 C32.7080254,8.4456643 30.9580254,12.9856643 27.0780254,14.7056643 C23.1980254,16.4156643 18.6580254,14.6656643 16.9480254,10.7856643 C15.2280254,6.9156643 16.9780254,2.3756643 20.8580254,0.655664302 C24.7380254,-1.0543357 29.2780254,0.695664302 30.9880254,4.5656643 M48.0399373,35.8884853 C49.7599373,39.7684853 48.0099373,44.3084853 44.1299373,46.0184853 C40.2499373,47.7384853 35.7099373,45.9884853 33.9999373,42.1084853 C32.2799373,38.2284853 34.0299373,33.6984853 37.9099373,31.9784853 C41.7899373,30.2584853 46.3199373,32.0084853 48.0399373,35.8884853 M28.1399373,41.8684853 C30.3999373,46.9684853 28.0999373,52.9284853 22.9999373,55.1884853 C17.9099373,57.4384853 11.9499373,55.1384853 9.6899373,50.0384853 C7.4299373,44.9484853 9.7299373,38.9884853 14.8299373,36.7284853 C19.9299373,34.4684853 25.8899373,36.7784853 28.1399373,41.8684853 M7.6899373,88.0684853 C4.7399373,88.0684853 1.9299373,86.3584853 0.659937298,83.4884853 C-1.0600627,79.6084853 0.699937298,75.0784853 4.5699373,73.3584853 C5.5799373,72.9084853 6.6399373,72.6984853 7.6799373,72.6984853 C10.6199373,72.6984853 13.4399373,74.4084853 14.7099373,77.2684853 C16.4199373,81.1484853 14.6699373,85.6884853 10.7899373,87.4084853 C9.7799373,87.8484853 8.7299373,88.0684853 7.6899373,88.0684853 M2.9799373,77.3684853 C2.7499373,77.3684853 2.5199373,77.4184853 2.2999373,77.5184853 C1.4499373,77.8884853 1.0699373,78.8784853 1.4499373,79.7284853 C1.7199373,80.3584853 2.3399373,80.7284853 2.9799373,80.7284853 C3.2099373,80.7284853 3.4399373,80.6884853 3.6599373,80.5884853 C4.5099373,80.2084853 4.8899373,79.2184853 4.5199373,78.3684853 C4.2399373,77.7384853 3.6199373,77.3684853 2.9799373,77.3684853 M80.2999373,96.1984853 C80.2999373,96.1984853 76.6499373,87.3084853 85.5599373,82.0684853 C85.5599373,82.0684853 95.6499373,77.8884853 100.259937,87.6484853 L80.2999373,96.1984853 M112.623574,80.6195539 C112.623574,80.6195539 119.763574,77.6695539 123.023574,84.5695539 L108.913574,90.6095539 C108.913574,90.6095539 106.333574,84.3195539 112.623574,80.6195539 Z M40.9916202,120.419037 C40.9916202,120.419037 40.4316202,114.619037 35.0716202,112.249037 C29.7016202,109.869037 28.0216202,106.729037 31.9616202,106.859037 C35.9016202,106.979037 38.5316202,111.289037 38.5316202,111.289037 C38.5316202,111.289037 32.6216202,104.119037 36.1516202,101.689037 C39.6816202,99.2690372 38.4816202,107.279037 40.3516202,108.899037 C42.2216202,110.519037 40.8916202,106.219037 42.6416202,105.299037 C44.3916202,104.379037 41.7916202,106.969037 42.3016202,111.349037 C42.8016202,115.729037 46.0516202,119.179037 40.9916202,120.419037 M104.733574,68.4995539 C99.9335739,65.4495539 101.053574,61.4995539 104.923574,62.0895539 C108.783574,62.6795539 110.113574,73.1695539 110.163574,74.5895539 C110.213574,76.0095539 109.693574,75.7995539 109.693574,75.7995539 C109.693574,75.7995539 109.543574,71.5595539 104.733574,68.4995539 Z" id="Bubbles" fill="#724287"></path>
                                <path d="M60.2399373,50.7184853 C59.1799373,50.7184853 58.1699373,50.0984853 57.7099373,49.0684853 C57.0899373,47.6784853 57.7199373,46.0384853 59.1199373,45.4184853 C59.4799373,45.2584853 59.8599373,45.1884853 60.2299373,45.1884853 C61.2899373,45.1884853 62.2999373,45.7984853 62.7599373,46.8284853 C63.3799373,48.2284853 62.7499373,49.8584853 61.3599373,50.4784853 C60.9899373,50.6384853 60.6099373,50.7184853 60.2399373,50.7184853 M37.9699373,87.2584853 C37.6099373,86.4384853 37.9799373,85.4784853 38.7999373,85.1184853 C39.6199373,84.7584853 40.5799373,85.1284853 40.9399373,85.9484853 C41.2999373,86.7684853 40.9299373,87.7284853 40.1099373,88.0884853 C39.2899373,88.4484853 38.3399373,88.0784853 37.9699373,87.2584853 M19.2680254,8.0256643 C18.6180254,8.0256643 18.0080254,7.6556643 17.7280254,7.0256643 C17.3580254,6.1756643 17.7380254,5.1856643 18.5880254,4.8156643 C18.8080254,4.7156643 19.0380254,4.6656643 19.2680254,4.6656643 C19.9080254,4.6656643 20.5280254,5.0456643 20.7980254,5.6656643 C21.1780254,6.5156643 20.7980254,7.5056643 19.9480254,7.8856643 C19.7280254,7.9856643 19.4980254,8.0256643 19.2680254,8.0256643 M36.3199373,39.3484853 C35.6699373,39.3484853 35.0599373,38.9784853 34.7799373,38.3484853 C34.4099373,37.4984853 34.7899373,36.5084853 35.6399373,36.1284853 C35.8599373,36.0384853 36.0899373,35.9884853 36.3199373,35.9884853 C36.9599373,35.9884853 37.5799373,36.3584853 37.8499373,36.9884853 C38.2299373,37.8384853 37.8499373,38.8284853 36.9999373,39.2084853 C36.7799373,39.2984853 36.5499373,39.3484853 36.3199373,39.3484853 M12.7399373,46.4184853 C11.8899373,46.4184853 11.0799373,45.9284853 10.7199373,45.0984853 C10.2299373,43.9884853 10.7299373,42.6784853 11.8399373,42.1884853 C12.1399373,42.0584853 12.4399373,41.9984853 12.7399373,41.9984853 C13.5799373,41.9984853 14.3899373,42.4884853 14.7599373,43.3084853 C15.2499373,44.4284853 14.7499373,45.7284853 13.6299373,46.2284853 C13.3399373,46.3584853 13.0399373,46.4184853 12.7399373,46.4184853 M2.9799373,80.7284853 C2.3399373,80.7284853 1.7199373,80.3584853 1.4499373,79.7284853 C1.0699373,78.8784853 1.4499373,77.8884853 2.2999373,77.5184853 C2.5199373,77.4184853 2.7499373,77.3684853 2.9799373,77.3684853 C3.6199373,77.3684853 4.2399373,77.7384853 4.5199373,78.3684853 C4.8899373,79.2184853 4.5099373,80.2084853 3.6599373,80.5884853 C3.4399373,80.6884853 3.2099373,80.7284853 2.9799373,80.7284853 M85.3899373,88.1384853 C84.6699373,88.4584853 83.8299373,88.1284853 83.5099373,87.4084853 C83.1899373,86.6884853 83.5199373,85.8484853 84.2399373,85.5284853 C84.9599373,85.2084853 85.7999373,85.5384853 86.1199373,86.2584853 C86.4399373,86.9784853 86.1099373,87.8184853 85.3899373,88.1384853 Z M113.023574,83.5795539 C113.253574,84.0895539 113.023574,84.6895539 112.513574,84.9095539 C112.003574,85.1395539 111.403574,84.9095539 111.183574,84.3995539 C110.953574,83.8895539 111.183574,83.2995539 111.693574,83.0695539 C112.203574,82.8395539 112.793574,83.0695539 113.023574,83.5795539" id="Light" fill="#B17ED1"></path>
                            </g>
                        </g>
                        <g id="Reflect" transform="translate(28.821968, 35.306509)">
                            <path d="M173.934541,185.74 L168.994541,175.27 C169.234541,175.2 169.414541,175.09 169.614541,175 C172.704541,173.49 176.994541,170.9 181.394541,167.74 C181.404541,167.74 181.404541,167.74 181.404541,167.73 L187.634541,181.81 L173.934541,185.74" id="Fill-1804" fill="#B17ED1"></path>
                            <path d="M168.994541,175.27 L165.004541,166.79 L177.184541,158.2 L181.404541,167.73 C181.404541,167.74 181.404541,167.74 181.394541,167.74 C176.994541,170.9 172.704541,173.49 169.614541,175 C169.414541,175.09 169.234541,175.2 168.994541,175.27" id="Fill-1805" fill="#D0A6EE"></path>
                            <path d="M30.4945408,202.67 C28.8845408,186.51 30.1945408,167.61 39.0945408,149.55 L75.9145408,136.44 C75.9145408,136.44 63.9645408,160.52 63.5945408,183.28 C50.6945408,190.21 39.1845408,196.93 30.5045408,202.67 C30.5045408,202.67 30.5045408,202.67 30.4945408,202.67 M48.2645408,150.63 C47.2245408,150.63 46.1645408,150.84 45.1545408,151.29 C41.2845408,153.01 39.5245408,157.54 41.2445408,161.42 C42.5145408,164.29 45.3245408,166 48.2745408,166 C49.3145408,166 50.3645408,165.78 51.3745408,165.34 C55.2545408,163.62 57.0045408,159.08 55.2945408,155.2 C54.0245408,152.34 51.2045408,150.63 48.2645408,150.63" id="Fill-1817" fill="#EFF8FE"></path>
                            <path d="M41.8345408,244.77 C41.8345408,244.77 38.6245408,238.31 35.5445408,227.94 C35.5545408,227.94 35.5645408,227.94 35.5745408,227.93 C43.7645408,224.78 55.8645408,220.1 69.4845408,214.81 C69.4945408,214.81 69.4945408,214.81 69.4945408,214.8 C72.8345408,226.32 75.3845408,231.51 75.3845408,231.51 L41.8345408,244.77" id="Fill-1818" fill="#B17ED1"></path>
                            <path d="M35.5445408,227.94 C33.4745408,221.01 31.4645408,212.33 30.4945408,202.67 C30.5045408,202.67 30.5045408,202.67 30.5045408,202.67 C39.1845408,196.93 50.6945408,190.21 63.5945408,183.28 C63.5345408,187.36 63.8445408,191.39 64.6545408,195.24 C66.3245408,203.12 67.9845408,209.61 69.4945408,214.8 C69.4945408,214.81 69.4945408,214.81 69.4845408,214.81 C55.8645408,220.1 43.7645408,224.78 35.5745408,227.93 C35.5645408,227.94 35.5545408,227.94 35.5445408,227.94" id="Fill-1819" fill="#D0A6EE"></path>
                            <polyline id="Fill-1796" fill="#EFF8FE" points="79.3945408 85.35 60.1445408 35.2 66.7745408 32.66 79.3945408 85.35"></polyline>
                            <path d="M60.1445408,35.2 L49.7445408,8.11 C48.7745408,5.58 49.5845408,2.71 51.7345408,1.07 C52.6945408,0.34 53.7845408,0 54.8645408,0 C57.1345408,0 59.3145408,1.5 59.9045408,3.97 L66.7745408,32.66 L60.1445408,35.2" id="Fill-1797" fill="#CEDDF0"></path>
                            <path d="M41.5745408,90.35 C41.1845408,90.35 40.7945408,90.31 40.3845408,90.22 C38.9745408,89.92 37.7445408,89.07 36.9545408,87.87 L14.0045408,52.91 L29.9045408,46.81 L46.5045408,82.55 C48.2345408,86.28 45.4245408,90.35 41.5745408,90.35" id="Fill-1798" fill="#EFF8FE"></path>
                            <path d="M14.0045408,52.91 L0.904540769,32.94 C-0.985459231,30.07 0.204540769,26.19 3.37454077,24.88 L12.2145408,21.2 C12.8945408,20.92 13.6145408,20.78 14.3145408,20.78 C16.3845408,20.78 18.3545408,21.96 19.2845408,23.95 L29.9045408,46.81 L14.0045408,52.91" id="Fill-1799" fill="#CEDDF0"></path>
                        </g>
                    </g>
                </g>
            </g>
            <g id="Group" transform="translate(140.290112, 251.798387)" fill="#F6F1D5">
                <g id="Halloween/Features/Crane" transform="translate(24.000000, 28.500000) rotate(-25.000000) translate(-24.000000, -28.500000) ">
                    <path d="M42.0370844,8.65263862 C42.0547767,11.1118694 42.0620351,12.480755 42.0650129,13.1900292 L42.0659733,13.4348608 C42.0660588,13.4585361 42.0661377,13.4810706 42.0662105,13.5024998 L42.0669752,13.7765007 C42.0669934,13.7859408 42.0670086,13.7944881 42.0670212,13.8021779 L42.0670844,13.8576386 L42.0670844,13.8576386 C42.0670844,13.8576386 48.8770844,18.7776386 46.0570844,26.8626386 C46.0570844,26.8626386 52.1020844,37.7676386 45.0820844,40.4226386 C43.4743795,41.0285403 42.2356561,41.4953825 41.2812298,41.8550806 L40.889349,42.0027702 C38.3270635,42.9684281 38.0993048,43.0542643 38.0790596,43.0618942 L38.0770844,43.0626386 L39.6820844,51.6576386 L33.1720844,52.7376386 L31.3120844,45.1926386 L30.8470844,56.1276386 L24.8620844,57.2076386 L24.8170844,48.6126386 L21.4720844,55.9176386 L16.2520844,55.6926386 L16.4620844,45.2676386 L13.6420844,53.6226386 L8.15208443,50.5326386 L9.66708443,42.1926386 C9.66708443,42.1926386 -4.14791557,41.2176386 1.25208443,28.1676386 L1.25095471,28.1625494 L1.24234795,28.1225081 C1.08336868,27.3688219 -0.88190291,17.3921323 5.85708443,14.5926386 C5.85708443,14.5926386 2.16708443,5.50263862 14.1220844,1.25763862 C26.0770844,-2.97236138 42.0220844,4.48263862 42.0370844,8.65263862 Z M22.7470844,35.7726386 C19.4620844,38.7426386 23.4520844,37.6776386 23.4520844,37.6776386 C23.4520844,37.6776386 25.8970844,39.5676386 27.0970844,37.8276386 L27.0970844,37.8276386 Z M12.5020844,20.3675858 C9.75708443,20.3976386 7.56708443,23.5926386 7.58200784,27.5226386 C7.61208443,31.4526386 9.84708443,34.6326386 12.5770844,34.6176915 C15.3070844,34.6026386 17.5120844,31.3926386 17.4820844,27.4626386 C17.4670844,23.5326386 15.2320844,20.3526386 12.5020844,20.3675858 Z M34.5670844,21.6425764 C32.0170844,21.6576386 29.9770844,24.3876386 29.9920022,27.7476386 C30.0070844,31.0926386 32.0920844,33.8076386 34.6270844,33.7927005 C37.1770844,33.7776386 39.2170844,31.0476386 39.2021666,27.6876386 C39.1720844,24.3276386 37.1020844,21.6276386 34.5670844,21.6425764 Z" id="Crane"></path>
                </g>
            </g>
        </g>
    </g>
</svg>