<?xml version="1.0" encoding="UTF-8"?>
<svg width="287px" height="229px" viewBox="0 0 287 229" version="1.1" xmlns="http://www.w3.org/2000/svg" xmlns:xlink="http://www.w3.org/1999/xlink">
    <title>decoration-16</title>
    <g id="decoration-16" stroke="none" stroke-width="1" fill="none" fill-rule="evenodd">
        <g id="Halloween/Stuffs/Tomb" transform="translate(1.000000, -0.489011)">
            <path d="M81.5409346,12.751499 C34.6229148,33.7038466 3.02691194,68.0741663 0.925045961,103.8283 C0.82307614,105.55345 0.820471452,107.403897 0.914086611,109.378597 L0.968897949,110.376296 L1.03965856,111.394676 C1.05277625,111.566127 1.06655485,111.738439 1.08099254,111.911611 L1.17551324,112.960956 L1.28576479,114.030908 L1.41165982,115.121439 C1.45622237,115.488375 1.5033776,115.858737 1.55311096,116.232518 L1.71003085,117.364118 C1.76490589,117.744735 1.8223445,118.128767 1.8823321,118.51621 L2.06992736,119.688763 C2.16753393,120.280151 2.27084299,120.879201 2.37980539,121.485897 L2.60525342,122.709479 L2.84568966,123.953423 L3.10102675,125.217698 L3.37117731,126.502275 L3.65605397,127.807127 L3.95556937,129.132223 C4.00670365,129.354758 4.05844423,129.578135 4.1107893,129.802354 L4.43209898,131.157763 C4.48685472,131.385347 4.5422113,131.613771 4.5981669,131.843034 L4.9410743,133.228691 L5.29827095,134.634476 C5.35898964,134.87045 5.42030008,135.10726 5.48220045,135.344908 L5.86066717,136.780832 L6.25320473,138.236813 L6.65972576,139.71282 L7.08014289,141.208826 L7.51436875,142.724801 L7.96231596,144.260717 L8.42389717,145.816543 L9.1416416,148.187553 L9.88957106,150.6032 L10.6673907,153.063387 L11.2023971,154.728207 L11.7504696,156.412749 L12.5968862,158.97648 L13.4855337,161.62346 C17.7222396,174.139737 22.7138345,187.449551 28.1062675,200.918447 L29.657564,204.770484 L30.3447986,206.462909 L30.1823778,206.543768 C27.6588212,207.755546 24.7298003,208.425889 20.9184688,208.371358 L20.4162958,208.36012 C13.8648488,208.162053 8.36601916,209.774066 4.55399318,214.806816 C0.556879568,220.083924 0.806573886,225.839984 3.11286772,231.206686 C5.01859974,235.641289 8.22894256,239.618571 12.2332649,243.652622 L12.8357073,244.251615 L13.2771528,244.681049 L13.3546052,244.769951 C18.3777499,250.450112 25.5905185,253.902183 34.5313597,255.829317 C41.5727001,257.347027 49.7181542,257.906976 58.8233117,257.706171 C67.5849987,257.512941 76.8457794,256.626449 86.1454261,255.271095 C87.4850136,255.075861 88.792631,254.87551 90.0641232,254.671816 L91.9437479,254.363987 L93.7660681,254.052472 C94.0648396,254.000319 94.3610936,253.948068 94.6547651,253.895746 L96.3852849,253.58119 L97.3730694,253.395274 L98.5455069,253.708345 L99.9473903,254.074545 C104.229558,255.181791 108.916538,256.286911 113.873361,257.319274 C120.971671,258.796402 128.606383,257.815684 136.754002,255.317565 L137.750672,255.004752 C139.733333,254.368134 141.6507,253.667048 143.480678,252.928349 L144.001,252.71449 L145.964946,253.11361 L148.51831,253.618791 C148.949331,253.702855 149.382991,253.786822 149.819157,253.870648 L152.465148,254.371542 C155.139059,254.870016 157.893502,255.360152 160.699455,255.832228 C166.913157,256.877627 172.962533,257.76318 178.706393,258.438307 L179.559935,258.537372 L181.24618,258.725425 C181.524899,258.755639 181.802455,258.785285 182.078844,258.81436 L183.723154,258.981916 L185.339312,259.135543 C185.606316,259.159975 185.872141,259.183818 186.136784,259.207067 L187.710416,259.339406 L189.255501,259.45729 C189.765755,259.494152 190.271224,259.528569 190.771883,259.560507 L192.259402,259.648846 C192.995921,259.689261 193.721557,259.724018 194.436222,259.752999 L195.850899,259.803222 C200.984219,259.958875 205.524384,259.799617 209.436467,259.278671 C218.095763,258.124528 225.27321,255.993616 231.084489,253.073235 L231.604006,252.808327 C233.832581,251.655284 235.766951,250.436846 237.424645,249.194156 L237.777222,248.925525 L237.004172,248.878874 C242.406165,249.228051 247.931154,249.375591 253.18687,249.202996 L254.417608,249.15758 C254.82353,249.140885 255.225144,249.122599 255.622492,249.102626 L256.80178,249.037544 C256.99621,249.025819 257.189583,249.013649 257.381907,249.001019 L258.523283,248.919634 L259.639707,248.826641 L260.731436,248.72145 C269.187259,247.848128 275.393764,245.79758 279.90756,241.290741 C285.100632,236.097327 287.036624,228.710137 282.382842,221.957443 C280.027765,218.540199 277.435861,216.958363 273.294594,215.245884 L272.588799,214.959995 L271.762064,214.639152 L268.149643,213.254383 L267.623988,213.042467 L267.323885,212.916804 L266.775327,212.677763 C266.346623,212.485442 265.988542,212.310417 265.697758,212.1534 L265.550007,212.071928 L265.478838,211.90619 C262.415656,204.984675 256.198905,201.1546 248.346047,199.132588 L247.510823,198.92604 C244.436255,198.196525 241.231367,197.770733 237.979861,197.570535 L237.655076,197.55219 L237.483479,197.332216 C235.531681,194.864708 233.058387,192.534454 229.991528,190.490257 L229.683819,190.288848 L230.427811,187.74371 L231.193884,185.091918 L231.942533,182.471163 L232.673267,179.882534 L233.61886,176.482886 L234.305879,173.973453 L235.191405,170.683352 L235.832037,168.259045 L236.451969,165.873034 L237.050712,163.52641 L237.437858,161.984413 L237.815223,160.460727 L238.36261,158.210238 L238.714884,156.733743 L239.056866,155.276689 L239.388411,153.839398 L239.865842,151.721224 L240.170659,150.334754 L240.464529,148.969176 L240.747308,147.624814 L241.01885,146.30199 L241.279009,145.001027 L241.52764,143.722248 L241.764597,142.465974 C241.803108,142.258489 241.841128,142.051954 241.878652,141.846378 L242.097825,140.624469 L242.30496,139.425872 C242.338472,139.228067 242.371476,139.031246 242.403969,138.835417 L242.592775,137.672395 L242.769179,136.533492 L242.933037,135.419031 L243.084201,134.329335 L243.222528,133.264726 C243.244505,133.0894 243.26594,132.915133 243.286832,132.741931 L243.405628,131.715558 L243.511222,130.71508 C243.527713,130.550509 243.543648,130.387031 243.559023,130.224651 L243.644542,129.263619 C243.657669,129.105663 243.67023,128.94882 243.682223,128.793095 L243.747338,127.872235 C243.757046,127.721015 243.76618,127.570927 243.774736,127.421979 L243.858955,125.924623 L243.935379,124.473499 L244.003712,123.066772 L244.063662,121.702607 L244.114936,120.37917 L244.157239,119.094624 L244.190278,117.847135 L244.213759,116.634868 L244.22739,115.455989 C244.228824,115.262189 244.229836,115.069704 244.230419,114.878496 L244.228722,113.746257 L244.216441,112.642817 L244.19328,111.566343 C244.183715,111.211808 244.172287,110.861462 244.158948,110.514998 L244.11315,109.486948 L244.055593,108.480358 L243.985983,107.493394 C243.935494,106.841551 243.876773,106.201568 243.809431,105.570999 L243.701901,104.631899 L243.581144,103.705085 C243.262474,101.401875 242.817049,99.1966366 242.224227,96.9603477 L241.979188,96.0638702 L241.718133,95.1622458 L241.440769,94.2536395 C241.345564,93.9494031 241.247591,93.6436973 241.146802,93.3362162 L240.835938,92.4081411 C240.782703,92.2524723 240.728752,92.0962832 240.674079,91.9395356 C238.309887,85.1614646 234.632861,78.3797695 229.233674,70.9731418 L228.410829,69.857383 L227.561844,68.7317843 C226.987072,67.9780015 226.39467,67.2173482 225.784228,66.4492029 L224.854983,65.2912883 C224.383544,64.7094439 223.901842,64.1232105 223.409705,63.5323261 L222.411466,62.3442781 C222.074047,61.9461432 221.73194,61.5458634 221.385092,61.1433612 L220.330276,59.9291096 C220.152086,59.7255972 219.972698,59.5215097 219.792106,59.3168375 L218.694051,58.0817099 L217.566788,56.8320825 L216.410007,55.5674893 L215.223404,54.2874644 L214.00667,52.9915418 C213.596036,52.5568662 213.180329,52.1194633 212.759498,51.6792554 C206.526822,45.1589363 199.616093,39.1166987 192.145975,33.5295403 C180.651347,24.9323122 168.40023,17.8021381 156.147535,12.026458 C152.771132,10.4348877 149.576068,9.03395367 146.608082,7.81854075 L145.011976,7.17395629 L143.755164,6.6794475 L142.840896,6.32749334 L142.324722,6.1330038 L142.14719,5.98902303 C138.714344,3.27186672 133.853016,1.40666155 127.689092,0.951682883 C124.866691,0.7433526 121.783015,0.825898388 118.417765,1.21558157 L117.399722,1.34171691 C115.004485,1.6576082 112.470282,2.12479361 109.790151,2.74885079 L108.632569,3.02592452 C107.854864,3.21706495 107.065165,3.42107629 106.263311,3.63808862 L105.051392,3.97337412 C104.23734,4.20341996 103.411052,4.44653184 102.572364,4.70283986 L101.305012,5.09721524 C100.666665,5.29936774 100.021299,5.50897965 99.3688429,5.72610585 L98.0544592,6.17039357 L96.7210497,6.63481698 C96.4972226,6.71390428 96.2725976,6.79383462 96.0471723,6.87461006 L94.6849959,7.36941993 C94.4563591,7.45358383 94.2269168,7.53859688 93.9966665,7.62446111 L92.6054492,8.14987697 C91.9049724,8.41770826 91.1971783,8.69323678 90.4819984,8.97651742 L89.0417705,9.55343111 L87.5817252,10.1511147 C87.3367261,10.2524648 87.0908962,10.3546845 86.844233,10.4577756 L85.3542333,11.0867969 L83.8441118,11.7368321 L82.3137466,12.4079785 C82.056992,12.521601 81.7993889,12.6361071 81.5409346,12.751499 Z" id="Sticker" fill="#FFFFFF" fill-rule="nonzero"></path>
            <g id="Tomb" transform="translate(13.259059, 13.245813)">
                <path d="M122.203649,3.59712229 C122.203649,3.59712229 161.568371,16.7096432 190.524878,47.0025139 C219.483371,77.2943922 219.483371,89.9543808 218.122885,113.465221 C216.772329,136.976061 197.308441,197.108278 197.308441,197.108278 C197.308441,197.108278 66.5617531,198.917415 49.3729545,202.082164 C32.1732322,205.246913 18.1512878,98.9960957 18.1512878,98.9960957 L35.797885,46.5489892 C35.797885,46.5489892 109.542191,-0.924231327 122.203649,3.59712229" fill="#15101B"></path>
                <path d="M52.5408017,200.72556 C52.5408017,200.72556 19.9586489,105.779118 37.1484406,73.2245786 C54.3481628,40.671031 122.203649,3.59712229 122.203649,3.59712229 C122.203649,3.59712229 115.877885,-8.15780167 73.3453156,10.831685 C30.8226767,29.8211717 1.86517669,60.5655824 0.057815581,91.309993 C-1.75947609,122.055396 39.8684197,215.193693 39.8684197,215.193693 L52.5408017,200.72556" id="Shadow" fill="#725291"></path>
                <path d="M116.831218,29.4271907 C109.045663,34.0080881 100.568279,39.3696698 91.3990656,45.511936 C84.5171906,50.1216128 77.625385,54.9714493 72.4019128,59.2040158 C69.7901767,61.3247649 67.5855934,63.2827611 65.9669128,65.0422782 C65.1625378,65.9255101 64.4971906,66.7571375 63.9897392,67.5937268 C63.7325378,68.0135101 63.5140656,68.437263 63.3551767,68.8897953 C63.1962878,69.34332 63.0771211,69.832571 63.0771211,70.3783884 C63.0771211,70.8597002 63.1764267,71.3926166 63.4246906,71.8788903 C63.6630239,72.3651641 64.040385,72.778993 64.4465447,73.0727421 C66.9301767,74.8947801 69.3830239,76.8230044 71.1109406,78.6827535 C71.9739059,79.6086584 72.6601072,80.5147154 73.0871211,81.3344341 C73.5339961,82.1581223 73.7226767,82.8686774 73.7226767,83.4829702 C73.7127461,83.9077154 73.6333017,84.3036812 73.4346906,84.7512516 C73.2360795,85.1958447 72.8984406,85.6950196 72.3423295,86.2428219 C71.3194822,87.2689588 69.9887878,87.912031 68.3790447,88.4548713 C67.1784406,88.8627459 65.8378156,89.2011527 64.4673989,89.6447535 C63.4445517,89.9801831 62.3919128,90.3761489 61.3690656,90.9447915 C59.83976,91.7873352 58.3700378,93.0794341 57.3869128,94.9530767 C56.4137184,96.8247345 55.90726,99.1737345 55.90726,102.161837 C55.9171906,104.020594 56.2151072,106.603799 56.711635,109.852902 C58.4693434,121.177126 62.7990656,140.352191 66.7017739,156.762442 C70.6044822,173.162769 74.0702461,186.757594 74.0702461,186.764541 L74.6263572,188.935902 L91.210385,183.112525 L93.8121906,197.396073 L168.460177,195.507544 L172.928927,183.007331 L183.961774,183.92629 L184.378857,182.224331 C184.378857,182.2154 188.281566,166.333103 192.174343,148.585103 C194.130663,139.711103 196.077052,130.37167 197.546774,122.300518 C198.281635,118.265438 198.897329,114.546932 199.333281,111.351419 C199.761288,108.149951 200.019482,105.490331 200.019482,103.469814 C200.009552,102.422837 199.959899,101.561438 199.751357,100.740727 C199.056218,98.1208029 197.507052,95.8045519 195.659968,93.7254835 C192.879413,90.6153162 189.373927,88.0172249 186.543718,86.1515215 C184.656913,84.9110272 183.733473,84.3574028 183.773398,84.4906482 L191.429552,75.996339 L190.297468,74.6317953 C190.277607,74.6000386 182.780038,65.518628 173.077885,55.9410196 C168.231774,51.1517192 162.829552,46.2363846 157.496843,42.2499322 C154.834461,40.2572021 152.183996,38.4947078 149.602052,37.0954303 C147.020107,35.6981375 144.517607,34.6561223 142.084621,34.1430538 C140.227607,33.7530424 138.589066,33.5704417 137.119343,33.5694493 C135.719135,33.5694493 134.477816,33.7371641 133.375524,34.0587002 C131.439066,34.6114645 129.949482,35.679282 128.956427,36.9158067 C127.956751,38.1556394 127.29731,39.5921207 126.978106,41.2252506 C126.561058,40.592708 126.152687,39.8946142 125.768718,39.1645748 C124.606843,36.9535177 123.633649,34.4566508 122.957378,32.532396 C122.619739,31.5697725 122.362538,30.7480691 122.193718,30.1724797 C122.104343,29.8836926 122.034829,29.6574265 121.995107,29.5045976 L121.945454,29.3319208 L121.925593,29.2813086 L121.210593,26.6683314 L117.902864,28.8548252 C118.444141,31.4864872 118.734618,32.8619971 118.774295,32.981355 C119.072614,33.8787552 119.449708,34.9499996 119.89976,36.1030348 C120.514461,37.681936 121.259253,39.4146584 122.144066,41.0779132 C123.017954,42.7421603 124.020941,44.3369398 125.212607,45.6617877 L125.202677,45.6598029 C125.519461,46.0041641 125.807448,46.2929512 126.175871,46.560898 C126.354621,46.6938789 126.563163,46.8238827 126.831288,46.9360234 C127.099413,47.0461793 127.426128,47.1404569 127.833281,47.1414493 C128.132191,47.1424417 128.469829,47.0769436 128.766753,46.949917 C129.055732,46.8278523 129.303996,46.6551755 129.482746,46.4815063 C129.840246,46.1391299 130.009066,45.8166014 130.128232,45.5486546 C130.356635,45.0445177 130.426149,44.6455748 130.525454,44.2247991 C130.664482,43.5013428 130.783649,42.7352135 130.992191,41.9740462 C131.141149,41.4054037 131.338767,40.8496622 131.597954,40.3544569 C131.985246,39.6071831 132.481774,39.0038067 133.276218,38.5254721 C134.080593,38.0520995 135.262329,37.6759816 137.119343,37.6739968 C138.241496,37.6730044 139.611913,37.814917 141.239531,38.1582858 C143.107468,38.550282 145.301128,39.4295443 147.645732,40.7027877 C151.747052,42.9267459 156.324045,46.3336394 160.823579,50.1871109 C167.576357,55.9678143 174.170246,62.7478599 179.06601,68.0710691 C181.508927,70.7326736 183.53476,73.0310614 184.934968,74.6615672 C185.337078,75.1262324 185.690738,75.5366703 185.98858,75.8858856 L177.268579,85.5858561 L179.632052,86.8045177 L179.661843,86.8213884 C180.039204,87.0168903 183.703579,88.960993 187.457329,91.8151223 C189.334204,93.2392097 191.230941,94.8915481 192.740385,96.6212934 C194.25976,98.3490538 195.362052,100.151244 195.779135,101.779765 L195.779135,101.774803 C195.838718,101.98916 195.918163,102.621316 195.908232,103.469814 C195.918163,105.144978 195.679829,107.701388 195.262746,110.801632 C193.793024,121.685233 190.069066,139.346894 186.712538,154.225879 C185.044204,161.668845 183.455316,168.427058 182.293441,173.322544 C181.717468,175.769791 181.239809,177.752598 180.90217,179.122103 C180.864926,179.278218 180.829476,179.426325 180.795895,179.566224 L170.118579,178.65667 L165.540593,191.476434 L97.2173781,193.204195 L94.3881628,177.646411 L77.5335501,183.708337 C77.4559171,183.398492 77.3704666,183.055774 77.2778156,182.681826 C75.5498989,175.807503 71.2201767,158.429666 67.3273989,141.356495 C65.38101,132.819909 63.5438572,124.358746 62.2032322,117.339533 C61.5279545,113.830423 60.9817739,110.681552 60.5944822,108.076514 C60.2171211,105.479415 60.01851,103.400347 60.01851,102.161837 C60.01851,100.657366 60.1674684,99.4575595 60.4157322,98.5058523 C60.8526767,96.838628 61.4981628,95.9415025 62.34226,95.2220158 C62.9877461,94.6881071 63.7811975,94.2673314 64.7345309,93.9001451 C66.1754545,93.3434113 67.9331628,92.9385139 69.7802461,92.3133048 C71.6173989,91.6861109 73.5836489,90.8038713 75.2519822,89.1445862 C76.0861489,88.310974 76.731635,87.4128561 77.1685795,86.4522173 C77.6154545,85.4945557 77.8239961,84.4773504 77.8239961,83.4829702 C77.8239961,82.0231565 77.3761281,80.6506736 76.7117739,79.4022402 C75.7087878,77.5256204 74.1894128,75.8544265 72.4714267,74.2606394 C70.74351,72.6718143 68.7961281,71.1732972 66.8705934,69.7621109 L66.4137878,70.3813656 L67.0890656,70.040974 C67.0294822,69.9010462 66.9202461,69.7928751 66.8705934,69.7611185 L66.4137878,70.3813656 L67.0890656,70.040974 L66.4237184,70.3783884 L67.1784406,70.3783884 C67.1883711,70.3247991 67.16851,70.1799094 67.0890656,70.040974 L66.4237184,70.3783884 L67.1784406,70.3783884 L66.900385,70.3783884 L67.1784406,70.4081603 L67.1784406,70.3783884 L66.900385,70.3783884 L67.1784406,70.4081603 C67.1883711,70.3307535 67.34726,69.9020386 67.7444822,69.348282 C68.4694128,68.2913808 69.9093434,66.7799626 71.8060795,65.0849512 C75.1417531,62.1028029 79.9193434,58.4825443 85.1616836,54.769993 C90.4189197,51.0544645 101.30645,43.9300576 117.824274,33.3967725 L116.831218,29.4271907 Z" id="Decoration" fill="#725291"></path>
                <path d="M103.492104,79.2453566 C104.881751,79.539355 106.732548,80.0545192 108.509413,80.9285443 C110.237329,81.7710881 111.875871,82.9292135 113.047677,84.4604797 C114.219482,85.999685 114.994066,87.8901983 115.003996,90.5547801 C115.003996,91.3655672 114.924552,92.2507839 114.755732,93.217377 C114.120177,96.8495443 113.066545,99.5131337 111.895732,101.478077 C110.128093,104.420529 108.10226,105.83767 106.533232,106.585936 C105.738788,106.955107 105.073441,107.148624 104.616635,107.247864 C104.464367,107.280282 104.436002,109.140661 104.531541,112.829001 L118.003024,127.080887 L120.992121,124.263476 L107.946773,110.460085 C109.329178,109.718121 110.221463,109.20246 110.623628,108.913103 C112.263163,107.741084 113.961288,106.022255 115.421079,103.57997 C116.880871,101.136693 118.092399,97.9798827 118.797468,93.9279322 L118.886843,93.4228029 L118.807399,93.9259474 C119.00601,92.7469816 119.115246,91.62359 119.115246,90.5547801 C119.125177,86.9910881 117.963302,84.0516128 116.225454,81.8574265 C114.934482,80.2050881 113.345593,78.9556622 111.726913,78.0029626 C109.303857,76.575898 106.801357,75.7948827 104.88476,75.3492972 C102.958232,74.904704 101.627538,74.8024873 101.5471,74.7965329 L99.3236489,74.6298105 L99.8003156,124.334928 L103.901635,124.296225 L103.492104,79.2453566 Z M127.397329,74.1465139 L127.844204,127.950225 L131.955454,127.915491 L131.498649,74.1117801 M148.284145,79.901436 C149.173575,79.9527242 150.148781,80.1330419 151.209764,80.4423891 C152.801238,80.90641 154.48279,81.6836566 155.82851,82.9302059 C156.742121,83.7707649 157.536566,84.8167497 158.112538,86.2031261 C158.698441,87.5885101 159.075802,89.3281793 159.075802,91.5570995 C159.075802,91.7545862 159.075802,91.9570348 159.065871,92.1654379 L159.065871,92.2507839 L159.065871,92.1545215 C158.956635,95.7489778 158.231704,98.3421071 157.25851,100.24056 C155.808649,103.076826 153.812607,104.453278 152.124413,105.209484 C151.290246,105.580639 150.535524,105.780111 150.009204,105.882328 C149.741079,105.933932 149.542468,105.961719 149.413371,105.975613 C149.474778,108.715758 149.530433,110.084014 149.580336,110.080381 C149.89516,110.057461 150.646782,109.978969 151.657677,109.711982 C153.524621,109.218761 156.343906,108.052696 158.738163,105.332541 C159.929829,103.977921 161.01226,102.244206 161.796774,100.084753 C162.581288,97.925301 163.077816,95.3440805 163.167191,92.2746014 L163.167191,92.263685 C163.176128,92.0265025 163.176128,91.7913048 163.176128,91.5570995 C163.187052,87.9705824 162.352885,85.0588941 160.982468,82.8002021 C159.959621,81.1061831 158.648788,79.7962211 157.248579,78.8127573 C155.163163,77.3360729 152.908927,76.5719284 150.992329,76.1580995 C149.075732,75.7462554 147.486843,75.6857192 146.661614,75.6847268 C146.315038,75.6847268 146.106496,75.6966356 146.066774,75.6986204 L144.100524,75.8147307 L145.043927,124.355769 L149.145246,124.275385 L148.284145,79.901436 Z" id="RIP" fill="#725291"></path>
            </g>
            <g id="Ground" transform="translate(13.939773, 198.074275)">
                <path d="M8.35432392,38.056295 C8.35432392,38.056295 -8.83546775,22.2335421 6.10008781,22.685082 C21.0257128,23.1376143 27.3614073,15.4515117 29.1687684,14.9989794 C30.9761295,14.5474394 45.4548795,3.69559534 54.9584211,5.95627214 C54.9584211,5.95627214 77.5802267,-2.63390276 87.9874489,2.7915231 C87.9874489,2.7915231 129.159532,0.530846289 135.495227,5.0521999 C135.495227,5.0521999 171.235296,-2.18236284 180.282032,3.24306302 C180.282032,3.24306302 199.279185,-2.63390276 206.974373,1.43491853 C214.661616,5.50373983 216.478907,11.8322455 216.478907,11.8322455 C216.478907,11.8322455 237.283421,10.4776258 240.451268,19.520333 C243.619116,28.5630402 263.975761,27.658968 257.194185,34.4409984 C250.401685,41.2230288 219.189949,38.056295 219.189949,38.056295 C219.189949,38.056295 214.213748,46.1949299 193.857102,48.9081391 C173.489532,51.6203558 128.702727,41.6735763 128.702727,41.6735763 C128.702727,41.6735763 113.320296,49.359679 102.466199,47.100987 C91.6021711,44.8383254 83.9159211,42.5776486 83.9159211,42.5776486 C83.9159211,42.5776486 22.8330739,55.6901695 8.35432392,38.056295" id="Fill-942" fill="#392555"></path>
                <path d="M40.9563378,39.6471048 C31.6315461,39.6471048 21.5718934,37.439025 18.3146711,32.1803216 C14.5708517,26.1366334 19.6255045,25.0380516 23.7864073,25.0380516 C26.1697406,25.0380516 28.2650878,25.3963064 28.2650878,25.3963064 C28.2650878,25.3963064 62.1977961,19.0678007 68.5334906,14.9989794 C70.400435,13.7981809 73.2505045,13.2275535 76.56731,13.2275535 C84.521685,13.2275535 95.1771711,16.4945193 101.562518,22.2335421 C108.960782,28.8915231 92.1384211,29.4968843 85.772935,29.4968843 C84.3627961,29.4968843 83.4591156,29.4671124 83.4591156,29.4671124 C83.4591156,29.4671124 64.0051573,30.3701923 58.1262684,35.7956182 C55.5046017,38.2160706 48.4737684,39.6471048 40.9563378,39.6471048" id="Fill-943" fill="#502B79"></path>
                <path d="M186.617727,39.8664242 L163.995921,38.056295 C163.995921,38.056295 129.159532,37.6057474 127.799046,28.1095155 C126.557727,19.4409413 139.268838,19.0638311 141.492289,19.0638311 C141.711754,19.0638311 141.820991,19.0678007 141.820991,19.0678007 C142.922289,18.5587018 144.551893,18.3522836 146.468491,18.3522836 C154.780366,18.3522836 168.514324,22.2335421 168.514324,22.2335421 C168.514324,22.2335421 173.032727,20.5425003 179.140018,20.5425003 C183.976199,20.5425003 189.815366,21.6013862 195.207657,25.3963064 C207.422241,33.9874737 186.617727,39.8664242 186.617727,39.8664242" id="Fill-944" fill="#502B79"></path>
            </g>
        </g>
    </g>
</svg>