<svg width="151" height="30" viewBox="0 0 151 30" fill="none" xmlns="http://www.w3.org/2000/svg">
<g id="logotype">
<path id="symbol" fill-rule="evenodd" clip-rule="evenodd" d="M0.000249566 14.046V0.000497794L7.08916 3.78046V10.1086L16.4735 10.1132L23.6774 14.046H0.000249566ZM18.3925 8.95058V0L25.6725 3.6859V13.1797L18.3925 8.95058ZM18.3924 26.1177V19.8441L8.93577 19.8375C8.9446 19.8793 1.6123 15.8418 1.6123 15.8418L25.6725 15.9547V30L18.3924 26.1177ZM0 26.1177L0.000252212 16.9393L7.08916 21.0683V29.8033L0 26.1177Z" fill="#673DE6"/>
<g id="logotype_2">
<path d="M116.894 12.0328C117.478 11.3075 118.425 10.9449 119.735 10.9449C120.325 10.9449 120.868 11.0196 121.368 11.1695C121.866 11.3196 122.308 11.4961 122.693 11.6998L123.505 9.45211C123.408 9.39226 123.25 9.30802 123.027 9.20013C122.805 9.092 122.522 8.98713 122.179 8.88554C121.836 8.78344 121.427 8.69366 120.953 8.61545C120.477 8.53774 119.945 8.49826 119.356 8.49826C118.49 8.49826 117.676 8.64261 116.912 8.93055C116.149 9.21824 115.485 9.64072 114.919 10.1982C114.354 10.7555 113.909 11.4365 113.585 12.2395C113.26 13.043 113.098 13.9661 113.098 15.0095C113.098 16.0406 113.244 16.958 113.54 17.7607C113.834 18.5639 114.252 19.2416 114.793 19.7929C115.334 20.3446 115.986 20.7638 116.75 21.052C117.513 21.3395 118.364 21.4835 119.302 21.4835C120.396 21.4835 121.316 21.4081 122.062 21.2585C122.808 21.1088 123.348 20.9683 123.685 20.8362V14.6678H120.871V19.0017C120.703 19.0379 120.508 19.0618 120.285 19.0736C120.063 19.0855 119.795 19.0915 119.482 19.0915C118.905 19.0915 118.4 18.9927 117.968 18.795C117.535 18.5971 117.174 18.3182 116.885 17.9583C116.597 17.5985 116.38 17.17 116.236 16.6728C116.092 16.1754 116.02 15.6204 116.02 15.0095C116.02 13.7501 116.311 12.7583 116.894 12.0328Z" fill="#673DE6"/>
<path d="M72.1964 19.0106C71.9379 19.077 71.6102 19.1097 71.2135 19.1097C70.42 19.1097 69.7494 19.0287 69.2026 18.8665C68.6551 18.705 68.195 18.5225 67.8228 18.3183L67.0288 20.5481C67.1973 20.6444 67.4046 20.746 67.651 20.8542C67.8977 20.962 68.1925 21.0639 68.535 21.1597C68.8778 21.2555 69.2715 21.3362 69.7164 21.4026C70.1613 21.4685 70.6604 21.5017 71.2135 21.5017C72.8607 21.5017 74.0933 21.1808 74.9109 20.5391C75.7286 19.8978 76.1377 18.9955 76.1377 17.8324C76.1377 17.2334 76.0592 16.7241 75.9034 16.3042C75.7468 15.8845 75.5092 15.5186 75.1909 15.207C74.8721 14.8954 74.4721 14.6226 73.9914 14.3887C73.5101 14.1548 72.9449 13.9182 72.296 13.678C71.983 13.5701 71.6972 13.4655 71.4392 13.3634C71.1805 13.2618 70.952 13.1476 70.7535 13.0219C70.5552 12.8959 70.4016 12.7551 70.2937 12.5992C70.1855 12.4438 70.131 12.2516 70.131 12.0235C70.131 11.6403 70.2786 11.3554 70.5731 11.1695C70.8677 10.9839 71.3517 10.8904 72.0254 10.8904C72.6264 10.8904 73.1404 10.9598 73.5674 11.0973C73.9939 11.2354 74.3818 11.3943 74.7309 11.5741L75.5422 9.36215C75.1455 9.14638 74.6403 8.94821 74.0274 8.76841C73.4141 8.58885 72.6864 8.49832 71.8448 8.49832C71.1351 8.49832 70.498 8.58584 69.9328 8.75936C69.3676 8.93363 68.8869 9.18184 68.4901 9.50574C68.0931 9.82989 67.7867 10.2222 67.5701 10.6839C67.3537 11.1454 67.2455 11.6639 67.2455 12.2396C67.2455 12.8152 67.3476 13.3036 67.5521 13.7049C67.7564 14.107 68.0213 14.4488 68.3456 14.7304C68.6702 15.0123 69.0369 15.2462 69.4458 15.4318C69.8546 15.6174 70.2634 15.7826 70.6725 15.926C71.6102 16.2383 72.2715 16.5287 72.6564 16.7988C73.041 17.0682 73.2337 17.4074 73.2337 17.8148C73.2337 18.0067 73.2037 18.1807 73.1434 18.3364C73.0831 18.4923 72.9747 18.6271 72.8186 18.7405C72.6625 18.8552 72.4549 18.9449 72.1964 19.0106Z" fill="#673DE6"/>
<path fill-rule="evenodd" clip-rule="evenodd" d="M64.138 15.0094C64.138 16.0762 63.9784 17.0147 63.6603 17.8234C63.3413 18.6329 62.9052 19.3104 62.3524 19.8556C61.7993 20.4016 61.1407 20.812 60.3773 21.0876C59.6138 21.3637 58.7929 21.5015 57.9155 21.5015C57.0615 21.5015 56.2562 21.3637 55.4985 21.0876C54.7409 20.812 54.0793 20.4016 53.5144 19.8556C52.9489 19.3104 52.5045 18.6329 52.1797 17.8234C51.8551 17.0147 51.6924 16.0762 51.6924 15.0094C51.6924 13.9421 51.8609 13.0039 52.1976 12.1948C52.534 11.3853 52.9882 10.7048 53.5595 10.1534C54.1303 9.60187 54.7918 9.18844 55.5437 8.91257C56.2947 8.63644 57.0857 8.49838 57.9155 8.49838C58.7689 8.49838 59.5745 8.63644 60.3324 8.91257C61.0898 9.18844 61.7511 9.60187 62.3163 10.1534C62.8812 10.7048 63.3264 11.3853 63.651 12.1948C63.9758 13.0039 64.138 13.9421 64.138 15.0094ZM54.5959 15.0094C54.5959 15.6205 54.6708 16.172 54.8212 16.6636C54.9715 17.1555 55.1881 17.578 55.4709 17.9316C55.7528 18.2856 56.0989 18.558 56.5079 18.7496C56.9165 18.942 57.3854 19.0381 57.9148 19.0381C58.4316 19.0381 58.8977 18.942 59.3128 18.7496C59.7272 18.558 60.0762 18.2856 60.3585 17.9316C60.6409 17.578 60.8578 17.1555 61.0082 16.6636C61.1585 16.172 61.2336 15.6205 61.2336 15.0094C61.2336 14.3975 61.1585 13.843 61.0082 13.3454C60.8578 12.8479 60.6409 12.4227 60.3585 12.0686C60.0762 11.715 59.7272 11.4419 59.3128 11.2506C58.8977 11.0587 58.4316 10.9629 57.9148 10.9629C57.3854 10.9629 56.9165 11.0617 56.5079 11.2594C56.0989 11.4573 55.7528 11.7331 55.4709 12.087C55.1881 12.4405 54.9715 12.866 54.8212 13.3635C54.6708 13.8614 54.5959 14.4099 54.5959 15.0094Z" fill="#673DE6"/>
<path d="M45.2125 8.78665H48.0264V21.2496H45.2125V15.9623H40.4868V21.2496H37.6729V8.78665H40.4868V13.5521H45.2125V8.78665Z" fill="#673DE6"/>
<path d="M88.5337 8.78677V11.1788H84.7639V21.2497H81.9502V11.1788H78.1802V8.78677H88.5337Z" fill="#673DE6"/>
<path d="M94.4726 21.25H91.6587V8.78677H94.4726V21.25Z" fill="#673DE6"/>
<path d="M107.068 21.2497C106.263 19.8231 105.391 18.4146 104.453 17.0234C103.515 15.6325 102.517 14.3198 101.459 13.0848V21.2497H98.6812V8.78677H100.972C101.368 9.1821 101.807 9.6677 102.289 10.2433C102.77 10.819 103.259 11.4336 103.758 12.0869C104.257 12.7403 104.753 13.4177 105.246 14.1189C105.739 14.8202 106.202 15.4944 106.635 16.142V8.78677H109.431V21.2497H107.068Z" fill="#673DE6"/>
<path d="M127.623 21.2497V8.78677H136.064V11.1426H130.436V13.5882H135.433V15.8905H130.436V18.8939H136.479V21.2497H127.623Z" fill="#673DE6"/>
<path fill-rule="evenodd" clip-rule="evenodd" d="M147.846 9.64072C146.848 8.97506 145.412 8.64261 143.536 8.64261C143.019 8.64261 142.432 8.6665 141.777 8.71478C141.122 8.76231 140.488 8.84681 139.875 8.96601V21.2497H142.688V16.6992H144.077C144.318 16.9874 144.56 17.308 144.801 17.6621C145.042 18.0157 145.288 18.3899 145.534 18.7857C145.782 19.1815 146.023 19.5894 146.259 20.0089C146.494 20.4286 146.726 20.842 146.956 21.2497H150.101C149.885 20.7942 149.65 20.3298 149.398 19.8557C149.146 19.3825 148.884 18.927 148.613 18.4895C148.343 18.0519 148.069 17.6322 147.792 17.2303C147.516 16.8287 147.252 16.4721 146.999 16.16C147.757 15.8487 148.337 15.4197 148.739 14.8745C149.143 14.329 149.344 13.6181 149.344 12.7432C149.344 11.3402 148.844 10.3061 147.846 9.64072ZM143.147 11.0525C143.31 11.0407 143.493 11.0347 143.697 11.0347C144.599 11.0347 145.281 11.1637 145.744 11.4209C146.207 11.6794 146.438 12.1135 146.438 12.7251C146.438 13.3608 146.21 13.8107 145.753 14.074C145.296 14.3381 144.539 14.4693 143.481 14.4693H142.687V11.0885C142.832 11.0769 142.985 11.0648 143.147 11.0525Z" fill="#673DE6"/>
</g>
</g>
</svg>
