<?xml version="1.0" encoding="UTF-8"?>
<svg width="447px" height="300px" viewBox="0 0 447 300" version="1.1" xmlns="http://www.w3.org/2000/svg" xmlns:xlink="http://www.w3.org/1999/xlink">
    <title>corner-6</title>
    <g id="corner-6" stroke="none" stroke-width="1" fill="none" fill-rule="evenodd">
        <g id="Group-4-Copy" transform="translate(223.254655, 149.847084) scale(-1, -1) translate(-223.254655, -149.847084) translate(-0.245345, -0.036000)">
            <path d="M447,0 L447,229.254739 C445.715038,229.634947 444.324464,229.73528 442.845878,229.536375 C408.151916,224.919314 420.279841,115.454674 391.623439,104.433928 C362.984638,93.4131829 362.75581,137.563053 360.784362,155.103658 C352.528924,228.907976 326.512854,189.341722 323.344455,151.794442 C320.017637,112.691126 294.036771,126.459577 291.836495,157.303935 C290.44592,176.780783 287.611963,301.404449 251.738654,299.749841 C218.259245,298.209648 227.482805,168.872109 223.082251,112.691126 C218.681698,56.5101438 183.794113,72.2817265 180.132852,143.537244 C175.802708,227.698704 146.477422,226.540478 142.00646,179.693949 C138.556426,143.354181 138.855663,29.4555428 117.785815,35.7764974 C106.520399,39.1526018 110.780134,82.1108021 99.5499223,88.4317567 C88.3021084,94.7527113 81.982914,83.5172189 80.574737,54.7235192 C79.16656,25.9474218 34.9498015,30.1666722 15.2881298,28.049126 C-0.553861638,26.3610738 -0.430646148,7.3137194 0.203033511,0 L447,0" id="Fill-685" fill="#A8CAD4"></path>
            <path d="M407.14859,97.1677349 L407.535839,96.4759679 L407.130988,97.1642144 L407.14859,97.1677349 L407.535839,96.4759679 L407.130988,97.1642144 C407.201397,97.1941382 410.985873,99.4032159 414.717542,104.60467 C418.466813,109.813165 422.198482,117.987632 422.216084,130.261655 C422.216084,130.803803 422.198482,131.354753 422.18088,131.914503 C422.145676,133.130816 423.113797,134.141183 424.32835,134.172867 C425.542903,134.204551 426.546229,133.24523 426.581433,132.028917 C426.599035,131.433962 426.616638,130.844288 426.616638,130.261655 C426.616638,116.866371 422.392107,107.598806 418.097167,101.756632 C413.802227,95.9056562 409.507287,93.4448669 409.313662,93.3357332 C408.25753,92.7390181 406.902159,93.1121851 406.321286,94.170078 C405.722811,95.227971 406.092458,96.5692596 407.14859,97.1677349" id="Fill-686" fill="#F7F7F6"></path>
            <path d="M220.089875,62.3523183 L220.494726,61.451085 L220.072273,62.3470376 L220.089875,62.3523183 L220.494726,61.451085 L220.072273,62.3470376 C220.107478,62.3646398 224.560837,64.4452214 229.014197,70.8313041 C233.467557,77.2226676 237.991326,87.9582572 237.991326,105.572791 C237.991326,107.882202 237.920917,110.307787 237.744895,112.858347 C237.674486,114.07114 238.589801,115.118471 239.804354,115.197681 C241.018906,115.276891 242.057437,114.358056 242.145448,113.145263 C242.32147,110.503171 242.391926,107.980774 242.391926,105.572791 C242.409481,86.9162062 237.463259,75.0980805 232.393822,67.9762252 C227.306783,60.8490893 222.149334,58.4587088 221.902903,58.3425342 C220.793964,57.8426314 219.4914,58.3354933 218.980936,59.4426725 C218.488074,60.5498517 218.980936,61.8524154 220.089875,62.3523183" id="Fill-687" fill="#F7F7F6"></path>
            <path d="M348.709244,114.254203 C352.212084,111.238944 354.025112,107.931488 354.025112,107.931488 C354.025112,107.931488 350.258239,107.802992 345.875288,109.260455 C345.188801,109.487524 344.449508,109.281578 343.974249,108.737669 C340.96427,105.24187 337.655054,103.420041 337.655054,103.420041 C337.655054,103.420041 337.531839,107.193955 338.97522,111.573386 C339.204049,112.254591 339.010425,113.006206 338.464756,113.476185 C334.961916,116.491444 333.148888,119.7989 333.148888,119.7989 C333.148888,119.7989 336.915761,119.927396 341.298712,118.468173 C341.985199,118.241104 342.724492,118.44881 343.199751,118.992718 C346.20973,122.486758 349.518946,124.310347 349.518946,124.310347 C349.518946,124.310347 349.642161,120.536433 348.19878,116.157002 C347.969951,115.474036 348.163575,114.724182 348.709244,114.254203" id="Fill-688" fill="#F7F7F6"></path>
            <path d="M98.7578228,53.4262362 C102.260663,50.4109771 104.091293,47.1035213 104.091293,47.1035213 C104.091293,47.1035213 100.306817,46.9750252 95.9238665,48.4342486 C95.2549824,48.6613172 94.4980873,48.4536111 94.0228275,47.9097027 C91.0128491,44.4156635 87.7036331,42.5920742 87.7036331,42.5920742 C87.7036331,42.5920742 87.5804177,46.3677489 89.0414013,50.7471794 C89.2526279,51.428385 89.0590035,52.1799995 88.5133349,52.6482184 C85.0104946,55.6634774 83.1974667,58.9709332 83.1974667,58.9709332 C83.1974667,58.9709332 86.9643402,59.0994293 91.3472912,57.6419661 C92.0337775,57.4148976 92.7730704,57.6208435 93.2483302,58.1647518 C96.2583085,61.6605513 99.5675245,63.4823803 99.5675245,63.4823803 C99.5675245,63.4823803 99.7083422,59.7084659 98.2473586,55.3290354 C98.0185298,54.6478297 98.2297564,53.8962153 98.7578228,53.4262362" id="Fill-689" fill="#F7F7F6"></path>
            <path d="M202.540469,150.382744 C206.958625,149.041456 209.968603,146.754928 209.968603,146.754928 C209.968603,146.754928 206.571376,145.109122 201.977198,144.669066 C201.255508,144.600418 200.657032,144.107556 200.445806,143.419309 C199.108038,139.002914 196.81975,135.998216 196.81975,135.998216 C196.81975,135.998216 195.165142,139.397204 194.725087,143.991381 C194.654678,144.706031 194.161816,145.309787 193.47533,145.519253 C189.057174,146.860542 186.064798,149.147069 186.064798,149.147069 C186.064798,149.147069 189.462025,150.792876 194.056203,151.232931 C194.760291,151.30158 195.376369,151.794442 195.587595,152.480928 C196.925363,156.899084 199.213651,159.903781 199.213651,159.903781 C199.213651,159.903781 200.850657,156.504794 201.290712,151.910617 C201.361121,151.194207 201.853983,150.592211 202.540469,150.382744" id="Fill-690" fill="#A8CAD4"></path>
            <path d="M153.764738,31.2368868 C160.083932,30.8742812 164.818927,28.7954599 164.818927,28.7954599 C164.818927,28.7954599 160.823225,25.5073665 154.838473,23.4373463 C153.923158,23.116986 153.271876,22.2632787 153.219069,21.2810752 C152.849423,14.9618808 150.772361,10.2180845 150.772361,10.2180845 C150.772361,10.2180845 147.480748,14.2173072 145.421289,20.2002994 C145.086847,21.1314564 144.241941,21.7756974 143.256217,21.8320245 C136.937022,22.1963903 132.202027,24.2734514 132.202027,24.2734514 C132.202027,24.2734514 136.197729,27.563305 142.182482,29.631565 C143.097797,29.9536855 143.749079,30.8056326 143.801885,31.7895962 C144.171532,38.1087906 146.248593,42.852587 146.248593,42.852587 C146.248593,42.852587 149.540207,38.851604 151.599665,32.8703721 C151.934108,31.9392151 152.779014,31.2949741 153.764738,31.2368868" id="Fill-691" fill="#F7F7F6"></path>
            <path d="M393.85892,203.673444 C400.178114,203.309078 404.913109,201.230256 404.913109,201.230256 C404.913109,201.230256 400.917407,197.940403 394.932655,195.872143 C393.999737,195.550022 393.366058,194.698075 393.313251,193.715872 C392.943605,187.396677 390.866544,182.652881 390.866544,182.652881 C390.866544,182.652881 387.57493,186.652104 385.497869,192.635096 C385.181029,193.566253 384.336123,194.210494 383.350399,194.266821 C377.031204,194.631187 372.278607,196.708248 372.278607,196.708248 C372.278607,196.708248 376.291911,199.998102 382.259061,202.066362 C383.191979,202.388482 383.843261,203.240429 383.896067,204.224393 C384.265714,210.543587 386.342775,215.287384 386.342775,215.287384 C386.342775,215.287384 389.634389,211.286401 391.693848,205.305169 C392.02829,204.374012 392.873196,203.729771 393.85892,203.673444" id="Fill-692" fill="#A8CAD4"></path>
            <path d="M259.800467,250.044713 C266.119662,249.680347 270.872259,247.601526 270.872259,247.601526 C270.872259,247.601526 266.876557,244.313432 260.891804,242.245172 C259.958887,241.923052 259.307605,241.071105 259.254799,240.087141 C258.885152,233.767947 256.808091,229.02415 256.808091,229.02415 C256.808091,229.02415 253.516477,233.023373 251.457018,239.006365 C251.140179,239.937522 250.27767,240.581763 249.291946,240.63809 C242.972752,241.002456 238.237757,243.079517 238.237757,243.079517 C238.237757,243.079517 242.233459,246.369371 248.218211,248.437631 C249.151129,248.759751 249.784808,249.611698 249.855217,250.595662 C250.207261,256.914857 252.284322,261.658653 252.284322,261.658653 C252.284322,261.658653 255.575936,257.65943 257.652997,251.676438 C257.969837,250.745281 258.832346,250.10104 259.800467,250.044713" id="Fill-693" fill="#F7F7F6"></path>
        </g>
    </g>
</svg>