<?xml version="1.0" encoding="UTF-8"?>
<svg width="347px" height="346px" viewBox="0 0 347 346" version="1.1" xmlns="http://www.w3.org/2000/svg" xmlns:xlink="http://www.w3.org/1999/xlink">
    <title>corner-1</title>
    <g id="corner-1" stroke="none" stroke-width="1" fill="none" fill-rule="evenodd">
        <g id="christmas-corner-1" transform="translate(173.513547, 172.990447) scale(-1, -1) translate(-173.513547, -172.990447) translate(0.977315, 0.469503)">
            <g id="Group" fill-rule="nonzero">
                <path d="M218.201684,58.54 C218.201684,58.54 231.561684,153.47 205.691684,158.37 C179.821684,163.27 205.301684,62.96 205.301684,62.96 C205.301684,62.96 214.851684,54.12 218.201684,58.54 Z" id="Path" fill="#006937"></path>
                <path d="M268.361684,14.61 C268.361684,14.61 282.301684,32.94 280.141684,62.74 C277.981684,92.54 262.031684,92.08 258.741684,78.94 C255.451684,65.8 263.461684,31.94 260.121684,23.96 C256.781684,15.97 268.361684,14.61 268.361684,14.61 Z" id="Path" fill="#006937"></path>
                <path d="M88.4916841,119.17 C88.4916841,119.17 66.4316841,152.16 50.5916841,157.62 C34.7516841,163.09 32.7116841,155.61 46.2616841,141.53 C59.8116841,127.46 76.8216841,120.15 76.8216841,120.15 C76.8216841,120.15 86.4916841,113.66 88.4916841,119.17 Z" id="Path" fill="#006937"></path>
                <path d="M122.391684,105.76 C122.391684,105.76 100.441684,204.1 76.2616841,205.86 C52.0816841,207.61 74.3916841,155.95 83.1016841,146.9 C91.8116841,137.85 114.241684,108.35 114.241684,108.35 L122.391684,105.76 Z" id="Path" fill="#006937"></path>
                <path d="M285.881684,0 C285.881684,0 235.721684,46.36 202.681684,69.08 C169.641684,91.8 101.341684,116.34 88.4916841,119.17 C75.6416841,122 19.5416841,133.55 4.58168409,117.82 C-10.3683159,102.09 14.3216841,99.04 34.7916841,105.63 C55.2616841,112.22 74.0516841,118.39 91.6516841,113.73 C109.251684,109.07 193.651684,73.06 231.751684,40.91 C269.851684,8.76 279.461684,0.11 279.461684,0.11 L285.881684,0 Z" id="Path" fill="#6A9634"></path>
                <path d="M192.091684,55.16 C192.091684,55.16 139.671684,13.2 127.011684,22.32 C114.361684,31.44 122.011684,42.84 132.371684,48.48 C142.731684,54.13 190.341684,67.03 192.991684,66.45 C195.641684,65.88 192.091684,55.16 192.091684,55.16 Z" id="Path" fill="#6A9634"></path>
                <path d="M180.801684,74.72 C180.801684,74.72 117.921684,54.84 99.6416841,63.61 C81.3616841,72.38 90.6516841,85.8 105.301684,85.7402005 C119.951684,85.69 170.631684,80.09 170.631684,80.09 L180.801684,74.72 Z" id="Path" fill="#6A9634"></path>
                <path d="M98.2516841,109.49 C98.2516841,109.49 64.4916841,55.1 49.0416841,56.92 C33.5916841,58.73 35.5716841,74.94 46.9716841,83.53 C58.3716841,92.12 91.9916841,111.66 91.9916841,111.66 L98.2516841,109.49 Z" id="Path" fill="#006937"></path>
                <path d="M190.831684,76.44 C190.831684,76.44 149.561684,200.43 128.061684,203.58 C106.561684,206.72 174.441684,84.8 174.441684,84.8 L190.831684,76.44 Z" id="Path" fill="#6A9634"></path>
                <path d="M256.261684,20.84 C256.261684,20.84 226.891684,17 210.311684,15.5 C193.731684,14 173.001684,13.41 180.611684,26.39 C188.221684,39.38 245.631684,28.33 245.631684,28.33 L256.261684,20.84 Z" id="Path" fill="#006937"></path>
                <circle id="Oval" fill="#F4F3E9" cx="252.991684" cy="32.06" r="10.84"></circle>
                <circle id="Oval" fill="#F4F3E9" cx="202.871684" cy="59.13" r="13.16"></circle>
                <circle id="Oval" fill="#F4F3E9" cx="160.121684" cy="66.06" r="9"></circle>
                <circle id="Oval" fill="#F4F3E9" cx="127.371684" cy="109.92" r="12.87"></circle>
                <circle id="Oval" fill="#F4F3E9" cx="98.8416841" cy="112.63" r="9.77"></circle>
            </g>
            <g id="Group" transform="translate(104.191006, 0.290000)">
                <path d="M204.650678,14.47 C204.650678,14.47 134.880678,40.01 148.970678,44.74 C163.060678,49.47 204.650678,14.47 204.650678,14.47 Z" id="Path" fill="#2F9C6B" fill-rule="nonzero"></path>
                <path d="M194.350678,89.33 C194.350678,89.33 247.640678,121.75 235.710678,134.77 C223.780678,147.79 195.250678,95.18 195.250678,95.18 L194.350678,89.33 Z" id="Path" fill="#2F9C6B" fill-rule="nonzero"></path>
                <path d="M167.180678,183.97 C167.180678,183.97 147.350678,234.5 159.900678,236.7 C172.450678,238.91 167.180678,183.97 167.180678,183.97 Z" id="Path" fill="#2F9C6B" fill-rule="nonzero"></path>
                <path d="M130.770678,87.88 C130.770678,87.88 96.0806778,75.85 79.1806778,82.04 C62.2806778,88.23 115.020678,95.5 115.020678,95.5 L130.770678,87.88 Z" id="Path" fill="#2F9C6B" fill-rule="nonzero"></path>
                <path d="M156.130678,76.12 C156.130678,76.12 138.800678,67.63 119.710678,67.82 C100.620678,68.01 144.140678,80.51 144.140678,80.51 L156.130678,76.12 Z" id="Path" fill="#2F9C6B" fill-rule="nonzero"></path>
                <path d="M206.890678,-5.66213743e-15 C206.890678,-5.66213743e-15 189.400678,52.2 184.550678,55.83 C179.700678,59.46 153.940678,51.58 140.240678,47.94 C126.540678,44.3 111.070678,42.55 122.740678,52.49 C134.410678,62.43 171.670678,67.96 171.670678,67.96 C171.670678,67.96 86.5906778,104.05 86.4106778,110.3 C86.2306778,116.55 153.440678,78.96 153.440678,78.96 C153.440678,78.96 116.980678,119.51 128.730678,119.53 C140.480678,119.55 174.550678,72.46 174.550678,72.46 C174.550678,72.46 164.000678,101.05 151.970678,110.4 C139.940678,119.75 101.500678,143.09 90.6606778,148.92 C79.8106778,154.75 58.6406778,159.4 58.6406778,159.4 C58.6406778,159.4 -5.53932222,156.32 9.40067778,165.06 C24.3506778,173.81 83.2306778,159.05 83.2306778,159.05 C83.2306778,159.05 45.7206778,195.04 60.7406778,193.86 C75.7606778,192.69 97.9506778,153.66 97.9506778,153.66 C97.9506778,153.66 137.280678,129.37 148.960678,120.77 L116.690678,172.77 L70.1906778,202.78 C70.1906778,202.78 8.89067778,204.2 0.920677782,207.74 C-7.05932222,211.28 39.1806778,215.99 49.2406778,214.78 C49.2406778,214.78 4.37067778,244.19 20.2906778,242.07 C36.2106778,239.95 71.6506778,208.43 71.6506778,208.43 C71.6506778,208.43 64.8306778,220.2 75.1906778,216.41 C85.5506778,212.62 105.670678,184.85 105.670678,184.85 L53.8506778,278 C53.8506778,278 -8.40932222,315.63 2.75067778,314.02 C13.9106778,312.41 47.9306778,288.83 47.9306778,288.83 C47.9306778,288.83 10.1706778,347.78 23.8506778,344.63 C37.5306778,341.48 55.8706778,290.25 55.8706778,290.25 C55.8706778,290.25 47.1606778,344.13 57.7206778,340.88 C68.2806778,337.63 65.3706778,275.65 65.3706778,275.65 L112.010678,193.67 C112.010678,193.67 100.920678,273.14 119.170678,268.94 C137.420678,264.74 120.960678,204.61 120.960678,204.61 C120.960678,204.61 142.120678,243.84 148.410678,239.07 C154.700678,234.3 115.010678,183.3 115.010678,183.3 L160.310678,124.68 C160.310678,124.68 132.820678,208.31 145.170678,209.97 C157.520678,211.63 160.580678,159.2 160.580678,159.2 C160.580678,159.2 180.210678,246.59 186.260678,246.23 C192.310678,245.87 167.520678,157.89 167.520678,157.89 L165.810678,124.52 L187.750678,64.56 L190.230678,111.87 C190.230678,111.87 181.760678,161.33 186.920678,161.92 C192.080678,162.5 199.440678,125.19 199.440678,125.19 C199.440678,125.19 204.740678,168.38 212.280678,168.71 C219.820678,169.04 195.760678,99.96 195.760678,99.96 L198.360678,63.16 C198.360678,63.16 228.260678,105.99 235.690678,102.66 C243.120678,99.32 212.480678,56.14 212.480678,56.14 C212.480678,56.14 233.740678,73.7 240.230678,69.47 C246.720678,65.24 202.530678,42.47 202.530678,42.47 L210.590678,10.46 C210.590678,10.46 230.610678,48.26 233.880678,47.06 C237.150678,45.86 218.030678,7.1 218.030678,7.1 C218.030678,7.1 239.840678,24.46 239.430678,16.58 C239.020678,8.7 218.190678,0.2 218.190678,0.2 L206.890678,-5.66213743e-15 Z" id="Path" fill="#225F41" fill-rule="nonzero"></path>
                <path d="M113.260678,136.32 C113.260678,136.32 59.5706778,121.36 43.1606778,125.51 C26.7606778,129.67 63.5506778,150.81 113.260678,136.32 Z" id="Path" fill="#2F9C6B" fill-rule="nonzero"></path>
                <path d="M65.1606778,161.97 C65.1606778,161.97 9.92067778,188.37 19.6006778,192.87 C29.2806778,197.36 65.1606778,161.97 65.1606778,161.97 Z" id="Path" fill="#2F9C6B" fill-rule="nonzero"></path>
                <path d="M171.420678,171.91 C171.420678,171.91 194.490678,219.72 205.130678,213.35 C215.780678,206.98 163.850678,157.99 163.850678,157.99 L171.420678,171.91 Z" id="Path" fill="#2F9C6B" fill-rule="nonzero"></path>
                <path d="M80.9906778,232.21 C80.9906778,232.21 -15.1993222,264.95 11.7406778,269.31 C38.6806778,273.67 61.4406778,248.03 61.4406778,248.03 C61.4406778,248.03 23.8006778,273.55 35.0706778,275.61 C46.3406778,277.67 79.5306778,245.11 80.9906778,232.21 Z" id="Path" fill="#2F9C6B" fill-rule="nonzero"></path>
                <path d="M69.4006778,263.03 C69.4006778,263.03 72.4706778,330.52 85.3906778,320.23 C98.3206778,309.94 69.4006778,263.03 69.4006778,263.03 Z" id="Path" fill="#2F9C6B" fill-rule="nonzero"></path>
                <path d="M84.0706778,237.26 C84.0706778,237.26 92.7106778,287.88 100.400678,286.92 C108.090678,285.96 106.080678,255.17 84.0706778,237.26 Z" id="Path" fill="#2F9C6B" fill-rule="nonzero"></path>
                <g transform="translate(77.757520, 234.215408)" id="Path">
                    <path d="M10.3031575,9.24459223 C10.3031575,9.24459223 3.40315751,3.63459223 6.83315751,0.624592232 C10.2631575,-2.38540777 12.4231575,6.30459223 10.3031575,9.24459223 Z" stroke="#FFEA6C" stroke-width="0.9944" stroke-linecap="round" stroke-linejoin="round"></path>
                    <g transform="translate(0.000000, 6.504592)" fill="#D31313" fill-rule="nonzero">
                        <path d="M37.5231575,17.05 C41.1931575,27.09 36.0331575,38.2 26.0031575,41.87 C25.3731575,42.1 24.7531575,42.3 24.1131575,42.46 C14.6131575,44.88 4.63315751,39.77 1.18315751,30.35 C-1.52684249,22.94 0.573157515,14.93 5.90315751,9.78 C7.52315751,8.21 9.44315751,6.91 11.6231575,5.96 C11.9731575,5.8 12.3331575,5.66 12.7031575,5.52 C15.1531575,4.62 17.6531575,4.26 20.1031575,4.36 C27.7031575,4.66 34.7431575,9.46 37.5231575,17.05 Z"></path>
                        <polygon points="20.5931575 4.96 12.3931575 8.01 6.00315751 10.39 5.90315751 9.79 5.08315751 4.54 11.4231575 2 16.4031575 0 20.1031575 4.37"></polygon>
                    </g>
                    <path d="M6.58315751,30.5945922 C6.58315751,30.5945922 2.68315751,29.2345922 3.41315751,34.0245922 C4.14315751,38.8145922 10.7431575,45.0445922 15.4731575,43.6245922 C20.2031575,42.2045922 13.0231575,38.3445922 9.96315751,35.3345922 C6.90315751,32.3345922 6.58315751,30.5945922 6.58315751,30.5945922 Z" fill="#FFFDFD" fill-rule="nonzero"></path>
                    <path d="M37.5231575,23.5545922 C41.1931575,33.5945922 36.0331575,44.7045922 26.0031575,48.3745922 C25.3731575,48.6045922 24.7531575,48.8045922 24.1131575,48.9645922 L24.0131575,48.9345922 C24.0131575,48.9345922 29.1931575,45.0745922 31.0131575,34.0045922 C32.8431575,22.9345922 17.6031575,15.9445922 14.0731575,15.5845922 C13.3231575,15.5045922 12.7831575,15.1045922 12.3931575,14.5045922 C12.0131575,13.9545922 11.7731575,13.2345922 11.6231575,12.4645922 C11.3431575,11.0645922 11.3631575,9.49459223 11.4231575,8.49459223 L16.4031575,6.49459223 L20.1031575,10.8645922 C27.7031575,11.1645922 34.7431575,15.9645922 37.5231575,23.5545922 Z" fill="#7C0909" fill-rule="nonzero" opacity="0.52"></path>
                </g>
                <g transform="translate(136.607520, 125.645941)" id="Path">
                    <path d="M10.3031575,9.24405932 C10.3031575,9.24405932 3.40315751,3.63405932 6.83315751,0.62405932 C10.2631575,-2.38594068 12.4231575,6.31405932 10.3031575,9.24405932 Z" stroke="#FFEA6C" stroke-width="0.9944" stroke-linecap="round" stroke-linejoin="round"></path>
                    <g transform="translate(0.000000, 6.504059)" fill="#D31313" fill-rule="nonzero">
                        <path d="M37.5231575,17.06 C41.1931575,27.1 36.0331575,38.21 26.0031575,41.88 C25.3731575,42.11 24.7531575,42.31 24.1131575,42.47 C14.6131575,44.89 4.63315751,39.78 1.18315751,30.36 C-1.52684249,22.95 0.573157515,14.94 5.90315751,9.79 C7.52315751,8.22 9.44315751,6.92 11.6231575,5.97 C11.9731575,5.81 12.3331575,5.67 12.7031575,5.53 C15.1531575,4.63 17.6531575,4.27 20.1031575,4.37 C27.7031575,4.66 34.7431575,9.47 37.5231575,17.06 Z"></path>
                        <polygon points="20.5931575 4.96 12.3931575 8.01 6.00315751 10.4 5.90315751 9.79 5.08315751 4.55 11.4231575 2.01 16.4031575 0 20.1031575 4.38"></polygon>
                    </g>
                    <path d="M6.58315751,30.5940593 C6.58315751,30.5940593 2.68315751,29.2340593 3.41315751,34.0240593 C4.13315751,38.8040593 10.7431575,45.0440593 15.4731575,43.6240593 C20.2031575,42.2040593 13.0231575,38.3440593 9.96315751,35.3340593 C6.90315751,32.3340593 6.58315751,30.5940593 6.58315751,30.5940593 Z" fill="#FFFDFD" fill-rule="nonzero"></path>
                    <path d="M37.5231575,23.5640593 C41.1931575,33.6040593 36.0331575,44.7140593 26.0031575,48.3840593 C25.3731575,48.6140593 24.7531575,48.8140593 24.1131575,48.9740593 L24.0131575,48.9440593 C24.0131575,48.9440593 29.1931575,45.0840593 31.0131575,34.0140593 C32.8431575,22.9440593 17.6031575,15.9540593 14.0731575,15.5940593 C13.3231575,15.5140593 12.7831575,15.1140593 12.3931575,14.5140593 C12.0131575,13.9640593 11.7731575,13.2440593 11.6231575,12.4740593 C11.3431575,11.0740593 11.3631575,9.50405932 11.4231575,8.50405932 L16.4031575,6.50405932 L20.1031575,10.8740593 C27.7031575,11.1640593 34.7431575,15.9740593 37.5231575,23.5640593 Z" fill="#7C0909" fill-rule="nonzero" opacity="0.52"></path>
                </g>
                <g transform="translate(200.857520, 24.235408)" id="Path">
                    <path d="M10.3031575,9.24459223 C10.3031575,9.24459223 3.40315751,3.63459223 6.83315751,0.624592232 C10.2731575,-2.38540777 12.4231575,6.30459223 10.3031575,9.24459223 Z" stroke="#FFEA6C" stroke-width="0.9944" stroke-linecap="round" stroke-linejoin="round"></path>
                    <g transform="translate(0.000000, 6.504592)" fill="#D31313" fill-rule="nonzero">
                        <path d="M37.5231575,17.06 C41.1931575,27.1 36.0331575,38.21 26.0031575,41.88 C25.3731575,42.11 24.7531575,42.31 24.1131575,42.47 C14.6131575,44.89 4.63315751,39.78 1.18315751,30.36 C-1.52684249,22.95 0.573157515,14.94 5.90315751,9.79 C7.52315751,8.22 9.44315751,6.92 11.6231575,5.97 C11.9731575,5.81 12.3331575,5.67 12.7031575,5.53 C15.1531575,4.63 17.6531575,4.27 20.1031575,4.37 C27.7031575,4.66 34.7531575,9.46 37.5231575,17.06 Z"></path>
                        <polygon points="20.5931575 4.96 12.3931575 8.01 6.00315751 10.39 5.91315751 9.79 5.09315751 4.55 11.4231575 2 16.4031575 0 20.1031575 4.37"></polygon>
                    </g>
                    <path d="M6.58315751,30.5945922 C6.58315751,30.5945922 2.68315751,29.2345922 3.41315751,34.0245922 C4.14315751,38.8145922 10.7431575,45.0445922 15.4731575,43.6245922 C20.2031575,42.2045922 13.0231575,38.3445922 9.96315751,35.3345922 C6.91315751,32.3345922 6.58315751,30.5945922 6.58315751,30.5945922 Z" fill="#FFFDFD" fill-rule="nonzero"></path>
                    <path d="M37.5231575,23.5645922 C41.1931575,33.6045922 36.0331575,44.7145922 26.0031575,48.3845922 C25.3731575,48.6145922 24.7531575,48.8145922 24.1131575,48.9745922 L24.0131575,48.9445922 C24.0131575,48.9445922 29.1931575,45.0845922 31.0131575,34.0145922 C32.8431575,22.9445922 17.6031575,15.9545922 14.0731575,15.5945922 C13.3231575,15.5145922 12.7831575,15.1145922 12.3931575,14.5145922 C12.0131575,13.9645922 11.7731575,13.2445922 11.6231575,12.4745922 C11.3431575,11.0745922 11.3631575,9.50459223 11.4231575,8.50459223 L16.4031575,6.50459223 L20.1031575,10.8745922 C27.7031575,11.1645922 34.7531575,15.9645922 37.5231575,23.5645922 Z" fill="#7C0909" fill-rule="nonzero" opacity="0.52"></path>
                </g>
                <g transform="translate(61.104050, 161.475311)" id="Path">
                    <path d="M6.84662806,6.14468904 C6.84662806,6.14468904 2.26662806,2.41468904 4.54662806,0.414689036 C6.82662806,-1.58531096 8.25662806,4.19468904 6.84662806,6.14468904 Z" stroke="#FFEA6C" stroke-width="0.6607" stroke-linecap="round" stroke-linejoin="round"></path>
                    <g transform="translate(0.000000, 4.324689)" fill="#D31313" fill-rule="nonzero">
                        <path d="M24.9366281,11.33 C27.3766281,18 23.9466281,25.38 17.2866281,27.82 C16.8666281,27.97 16.4566281,28.1 16.0266281,28.21 C9.71662806,29.82 3.07662806,26.42 0.786628055,20.17 C-1.01337194,15.24 0.376628055,9.93 3.92662806,6.5 C5.00662806,5.46 6.27662806,4.59 7.72662806,3.96 C7.96662806,3.85 8.19662806,3.76 8.44662806,3.67 C10.0766281,3.07 11.7366281,2.83 13.3666281,2.9 C18.4166281,3.09 23.0966281,6.29 24.9366281,11.33 Z"></path>
                        <polygon points="13.6866281 3.29 8.23662806 5.32 3.99662806 6.9 3.92662806 6.5 3.38662806 3.02 7.59662806 1.33 10.9066281 0 13.3666281 2.9"></polygon>
                    </g>
                    <path d="M4.37662806,20.334689 C4.37662806,20.334689 1.78662806,19.434689 2.26662806,22.614689 C2.74662806,25.794689 7.13662806,29.934689 10.2866281,28.994689 C13.4366281,28.044689 8.65662806,25.484689 6.62662806,23.484689 C4.59662806,21.484689 4.37662806,20.334689 4.37662806,20.334689 Z" fill="#FFFDFD" fill-rule="nonzero"></path>
                    <path d="M24.9366281,15.654689 C27.3766281,22.324689 23.9466281,29.704689 17.2866281,32.144689 C16.8666281,32.294689 16.4566281,32.424689 16.0266281,32.534689 L15.9566281,32.514689 C15.9566281,32.514689 19.4066281,29.954689 20.6066281,22.594689 C21.8166281,15.244689 11.6966281,10.594689 9.34662806,10.354689 C8.84662806,10.304689 8.48662806,10.034689 8.23662806,9.63468904 C7.98662806,9.27468904 7.82662806,8.79468904 7.72662806,8.28468904 C7.53662806,7.35468904 7.55662806,6.31468904 7.58662806,5.64468904 L10.8966281,4.31468904 L13.3566281,7.22468904 C18.4166281,7.41468904 23.0966281,10.614689 24.9366281,15.654689 Z" fill="#7C0909" fill-rule="nonzero" opacity="0.52"></path>
                </g>
            </g>
            <path d="M311.891684,25.15 C311.891684,25.15 262.661684,41.25 262.661684,56.04 C262.661684,70.83 308.581684,84.06 309.361684,96.52 C310.141684,108.97 242.931684,109.65 232.951684,119.82 C222.971684,129.99 239.311684,167.35 252.541684,179.8 C265.771684,192.25 197.281684,211.71 197.281684,211.71" id="Path" stroke="#FFF297" stroke-linecap="round" stroke-linejoin="round"></path>
            <circle id="Oval" fill="#FFF297" fill-rule="nonzero" cx="277.831684" cy="109.36" r="10.12"></circle>
            <circle id="Oval" fill="#FFF297" fill-rule="nonzero" cx="271.411684" cy="66.35" r="8.37"></circle>
            <circle id="Oval" fill="#FFF297" fill-rule="nonzero" cx="242.221684" cy="194.4" r="5.25"></circle>
            <circle id="Oval" fill="#FFF297" fill-rule="nonzero" cx="198.241684" cy="211.91" r="6.42"></circle>
            <circle id="Oval" fill="#FFF297" fill-rule="nonzero" cx="229.771684" cy="127.07" r="5.25"></circle>
            <circle id="Oval" fill="#FFF297" fill-rule="nonzero" cx="186.181684" cy="237.21" r="6.03"></circle>
            <circle id="Oval" fill="#FFF297" fill-rule="nonzero" cx="194.931684" cy="133.88" r="7.78"></circle>
            <circle id="Oval" fill="#FFF297" fill-rule="nonzero" cx="244.361684" cy="78.61" r="7.39"></circle>
            <path d="M222.181684,178.63 C222.181684,178.63 233.861684,216.58 213.421684,224.17 C192.981684,231.76 173.141684,221.83 167.881684,231.76 C162.631684,241.68 175.471684,265.04 175.471684,265.04" id="Path" stroke="#FFF297" stroke-linecap="round" stroke-linejoin="round"></path>
        </g>
    </g>
</svg>