<?xml version="1.0" encoding="UTF-8"?>
<svg width="447px" height="425px" viewBox="0 0 447 425" version="1.1" xmlns="http://www.w3.org/2000/svg" xmlns:xlink="http://www.w3.org/1999/xlink">
    <title>corner-4</title>
    <g id="corner-4" stroke="none" stroke-width="1" fill="none" fill-rule="evenodd">
        <g id="Group" transform="translate(-40.472372, 0.601031)">
            <path d="M368.967649,424.673219 C364.300982,369.55774 355.634315,334.333333 342.967649,319 C323.967649,296 306.539327,288.80869 291.492478,286.259243 C285.776568,285.288296 280.136365,284.625856 274.590797,284.268138 C267.758203,283.810108 261.058097,283.77604 254.528332,284.099689 C248.036421,284.421446 241.714852,285.085778 235.582551,286.037799 L235.563624,286.037799 C229.715226,286.955751 223.999317,288.129216 218.491602,289.490057 L218.472675,289.490057 C210.674811,291.428167 203.236558,293.775097 196.233622,296.375647 C187.489415,299.589427 179.445502,303.194992 172.139737,306.866802 C167.048413,309.418142 162.3167,312.037618 158.001377,314.552997 L157.963523,314.570031 C152.134052,318.005255 147.061655,321.304206 142.840967,324.245439 L142.82204,324.245439 C133.358613,330.809272 128.096948,335.503132 128.096948,335.503132 C122.078208,334.789589 116.305518,334.397804 110.797803,334.227462 L110.778876,334.227462 C98.0221766,333.886779 86.6282106,334.958038 76.46449,337.185729 L76.4455631,337.185729 C63.0453505,340.111821 51.7460187,345.025232 42.2636649,351.231348 L41.9797621,351.401689 C41.733713,351.572031 41.4498102,351.742373 41.2037611,351.929748 C19.0971956,366.740012 3.95571248,398.622297 -5.68434189e-14,424.673219 L368.967649,424.673219 Z" id="Fill-635" fill="#D1DADF" transform="translate(184.483824, 354.279533) scale(-1, 1) translate(-184.483824, -354.279533) "></path>
            <path d="M148.963159,133.939708 C154.262678,128.553125 161.871273,129.631956 169.896259,133.714478 C156.5339,102.738789 147.013693,72.9838822 159.600051,60.5243342 C174.173728,46.0963934 190.129066,67.775212 191.094336,70.6937328 C189.750529,66.5941763 175.631096,9.98584877 205.289476,0.00761136731 C235.742784,-10.2393874 242.234695,102.858028 242.234695,102.858028 C242.234695,102.858028 249.635095,73.9396883 267.502045,88.6609953 C279.350256,98.4291446 284.403726,135.796432 275.697373,162.693385 C282.624601,160.694709 290.498173,159.6102 294.945983,173.82616 C302.346383,197.393879 231.276047,322.699115 227.377115,324.775391 C227.377115,324.775391 225.995454,323.726843 224.121696,321.544577 C203.718547,301.192531 133.178162,149.978324 148.963159,133.939708" id="Fill-636" fill="#6E9985" transform="translate(221.083305, 162.063247) scale(-1, 1) translate(-221.083305, -162.063247) "></path>
            <polyline id="Fill-637" fill="#A8CAD4" transform="translate(116.190051, 238.774606) scale(-1, 1) translate(-116.190051, -238.774606) " points="76.0935105 127.491329 60.9520273 342.494712 66.6300835 349.546858 76.0935105 350.057883 171.428074 181.491536 116.843027 188.751877 76.0935105 127.491329"></polyline>
            <path d="M156.286591,181.491536 L122.047912,89.0319616 C121.669375,88.0080188 120.420202,87.5991988 119.511713,88.2067508 L60.9520273,127.491329 L101.701544,188.751877 L156.286591,181.491536" id="Fill-638" fill="#D1DADF" transform="translate(108.619309, 138.337228) scale(-1, 1) translate(-108.619309, -138.337228) "></path>
            <path d="M162.40858,89.342362 L143.670995,188.176501 L94.517955,346.713507 C94.1394179,347.960787 94.8397115,349.285667 96.0888839,349.673667 C97.3380562,350.059775 98.662936,349.361374 99.0414731,348.114095 L148.232367,189.452171 L148.289147,189.192873 L167.064586,90.2243534 C167.291708,88.9411127 166.458927,87.7032965 165.171901,87.4591401 C163.884875,87.2149836 162.654629,88.0591213 162.40858,89.342362" id="Fill-639" fill="#F7F7F6" transform="translate(130.758573, 218.598548) scale(-1, 1) translate(-130.758573, -218.598548) "></path>
            <polyline id="Fill-640" fill="#A8CAD4" transform="translate(312.433136, 258.692280) scale(-1, 1) translate(-312.433136, -258.692280) " points="233.016057 174.147917 373.812923 364.368477 383.57918 366.202489 391.850215 359.875242 351.119625 151.182072 310.729719 196.195809 233.016057 174.147917"></polyline>
            <path d="M391.850215,151.182072 L297.31058,98.4461788 C296.250676,97.8632317 294.906869,98.4196812 294.585113,99.5723266 L273.746646,174.147917 L351.460309,196.195809 L391.850215,151.182072" id="Fill-641" fill="#D1DADF" transform="translate(332.798431, 147.204127) scale(-1, 1) translate(-332.798431, -147.204127) "></path>
            <path d="M239.913488,101.39309 L294.801365,197.255713 L366.912678,364.635345 C367.44263,365.835308 368.824291,366.389865 370.035609,365.871269 C371.228001,365.354566 371.77688,363.963442 371.265855,362.76348 L299.097761,195.258929 L298.984199,195.020451 L244.020616,99.0423747 C243.358176,97.9086561 241.919735,97.5149776 240.784124,98.1641687 C239.648512,98.8133598 239.269975,100.259371 239.913488,101.39309" id="Fill-642" fill="#F7F7F6" transform="translate(305.528863, 231.958503) scale(-1, 1) translate(-305.528863, -231.958503) "></path>
            <polyline id="Fill-643" fill="#A8CAD4" transform="translate(340.795026, 312.179570) scale(-1, 1) translate(-340.795026, -312.179570) " points="441.438572 364.605063 300.963462 221.88712 297.556629 279.468288 240.151481 296.148524 403.300962 402.472019 431.04773 387.888878 441.438572 364.605063"></polyline>
            <path d="M425.651237,296.148524 L380.8703,219.419059 C380.15108,218.198276 381.116349,216.682235 382.55479,216.754157 L486.463218,221.88712 L483.056385,279.468288 L425.651237,296.148524" id="Fill-644" fill="#D1DADF" transform="translate(433.544905, 256.450108) scale(-1, 1) translate(-433.544905, -256.450108) "></path>
            <path d="M250.950745,220.647411 L351.414485,281.406398 L483.145389,389.174012 C484.148512,390.001115 485.643734,389.851593 486.476515,388.840899 C487.29037,387.828312 487.138955,386.338769 486.135832,385.511665 L354.27244,277.638061 L354.007464,277.445007 L253.411236,216.598957 C252.275624,215.921376 250.837184,216.280986 250.155817,217.397671 C249.47445,218.516248 249.83406,219.971723 250.950745,220.647411" id="Fill-645" fill="#F7F7F6" transform="translate(368.405322, 302.982487) scale(-1, 1) translate(-368.405322, -302.982487) "></path>
            <polyline id="Fill-646" fill="#9EAFB3" transform="translate(198.711134, 273.610427) scale(-1, 1) translate(-198.711134, -273.610427) " points="227.035171 357.111921 243.312265 193.156156 210.001002 224.652334 154.110002 182.099088 185.944971 350.020029 207.408023 365.121766 227.035171 357.111921"></polyline>
            <path d="M243.312265,193.156156 L194.178152,112.673495 C193.042541,110.830019 190.27922,110.913297 189.313951,112.819232 L154.110002,182.099088 L210.001002,224.652334 L243.312265,193.156156" id="Fill-647" fill="#D1DADF" transform="translate(198.711134, 167.995679) scale(-1, 1) translate(-198.711134, -167.995679) "></path>
            <path d="M184.991531,114.093009 L203.218092,222.818321 L200.776527,363.452417 C200.757601,364.75837 201.798578,365.835308 203.10453,365.858385 C204.410483,365.880732 205.489314,364.839756 205.508241,363.533803 L207.968732,222.685834 L207.930878,222.252409 L189.666464,113.309437 C189.439342,112.020518 188.228023,111.151776 186.940997,111.367542 C185.653971,111.583308 184.783336,112.80409 184.991531,114.093009" id="Fill-648" fill="#F7F7F6" transform="translate(196.464753, 238.596523) scale(-1, 1) translate(-196.464753, -238.596523) "></path>
            <path d="M131.601121,366.200596 L131.620048,366.191133 C132.15,365.840986 143.865723,358.593894 159.537158,358.614713 C168.054242,358.620391 177.744791,360.708023 187.700317,367.190471 C188.779147,367.904013 190.255442,367.593613 190.974662,366.499641 C191.674956,365.405668 191.372126,363.938837 190.274369,363.225295 C179.523916,356.211003 168.830243,353.877322 159.537158,353.882989 C141.859476,353.905712 129.235265,362.112396 129.027069,362.229742 C127.929312,362.939499 127.626482,364.404438 128.345703,365.502195 C129.045996,366.59806 130.503364,366.910353 131.601121,366.200596" id="Fill-649" fill="#F7F7F6" transform="translate(159.653145, 360.728618) scale(-1, 1) translate(-159.653145, -360.728618) "></path>
            <path d="M411.260685,403.32562 C411.260685,403.32562 358.644031,404.315495 330.707994,392.54867 C281.327832,371.755628 304.475375,359.888491 304.475375,359.888491 C304.475375,359.888491 261.90888,334.193394 270.27455,316.568707 C282.12276,291.63447 340.171421,335.313863 340.171421,335.313863 C340.171421,335.313863 333.811998,317.238718 356.410662,324.694006 C390.89539,336.07283 411.260685,403.32562 411.260685,403.32562" id="Fill-650" fill="#6E9985" transform="translate(340.222980, 356.112358) scale(-1, 1) translate(-340.222980, -356.112358) "></path>
            <path d="M239.415897,410.054117 L239.415897,410.052224 C239.510531,409.756965 241.043606,405.252374 246.362052,400.13266 C251.718352,395.014839 260.860022,389.217543 276.512531,386.406906 C277.78063,386.175998 278.651265,384.945752 278.405216,383.660619 C278.178094,382.373593 276.947848,381.518099 275.660822,381.749007 C258.702361,384.782982 248.462933,391.346814 242.519901,397.274705 C236.576869,403.200703 234.949159,408.415051 234.873452,408.689491 C234.494915,409.940556 235.214135,411.259758 236.463308,411.636402 C237.71248,412.013046 239.03736,411.305182 239.415897,410.054117" id="Fill-651" fill="#F7F7F6" transform="translate(256.609662, 396.724458) scale(-1, 1) translate(-256.609662, -396.724458) "></path>
            <path d="M410.379605,289.325394 C406.613161,286.085116 404.663695,282.526868 404.663695,282.526868 C404.663695,282.526868 408.714042,282.388702 413.426829,283.957738 C414.164976,284.201894 414.959904,283.978557 415.470929,283.393718 C418.707421,279.636737 422.265669,277.675915 422.265669,277.675915 C422.265669,277.675915 422.417084,281.735725 420.846155,286.444726 C420.600106,287.177196 420.827228,287.985372 421.395034,288.488827 C425.161478,291.730997 427.129871,295.287353 427.129871,295.287353 C427.129871,295.287353 423.060597,295.425519 418.347811,293.858375 C417.62859,293.614219 416.814735,293.835663 416.30371,294.422395 C413.067218,298.179376 409.50897,300.138305 409.50897,300.138305 C409.50897,300.138305 409.376482,296.080388 410.947411,291.371387 C411.19346,290.638917 410.966338,289.830741 410.379605,289.325394" id="Fill-652" fill="#F7F7F6" transform="translate(415.896783, 288.907110) scale(-1, 1) translate(-415.896783, -288.907110) "></path>
            <path d="M71.9296026,330.881194 C68.1820855,327.639024 66.2136927,324.080776 66.2136927,324.080776 C66.2136927,324.080776 70.2640395,323.944502 74.9768261,325.511646 C75.7149734,325.755802 76.5288281,325.532465 77.0209263,324.947625 C80.2763452,321.190645 83.8345938,319.231716 83.8345938,319.231716 C83.8345938,319.231716 83.9670817,323.289633 82.3961529,327.998634 C82.1501038,328.731104 82.377226,329.53928 82.9639585,330.042735 C86.7114756,333.284905 88.6798684,336.843153 88.6798684,336.843153 C88.6798684,336.843153 84.6105948,336.979426 79.916735,335.412283 C79.1785877,335.168127 78.364733,335.391463 77.8726348,335.976303 C74.6172159,339.733284 71.0589673,341.692213 71.0589673,341.692213 C71.0589673,341.692213 70.9264794,337.634296 72.4974082,332.925294 C72.7434573,332.192825 72.5163351,331.384648 71.9296026,330.881194" id="Fill-653" fill="#F7F7F6" transform="translate(77.446781, 330.461964) scale(-1, 1) translate(-77.446781, -330.461964) "></path>
            <path d="M208.941098,207.640877 C204.076897,206.635861 200.63221,204.480093 200.63221,204.480093 C200.63221,204.480093 204.114751,202.386783 208.978952,201.466938 C209.754953,201.324986 210.341686,200.736361 210.4931,199.98118 C211.515151,195.120763 213.653885,191.677969 213.653885,191.677969 C213.653885,191.677969 215.754766,195.158617 216.682182,200.036067 C216.81467,200.795034 217.401402,201.393123 218.158476,201.548323 C223.022678,202.555232 226.467365,204.709108 226.467365,204.709108 C226.467365,204.709108 222.984824,206.80431 218.101696,207.722263 C217.344622,207.866107 216.757889,208.452839 216.587547,209.209913 C215.584424,214.07033 213.426763,217.511232 213.426763,217.511232 C213.426763,217.511232 211.344809,214.032476 210.417393,209.155026 C210.284905,208.396059 209.698173,207.79797 208.941098,207.640877" id="Fill-654" fill="#F7F7F6" transform="translate(213.549787, 204.594600) scale(-1, 1) translate(-213.549787, -204.594600) "></path>
            <path d="M288.433885,166.887575 C288.850276,160.092835 291.102571,155.001511 291.102571,155.001511 C291.102571,155.001511 294.622966,159.316834 296.818481,165.757642 C297.159165,166.760765 298.067654,167.457274 299.127557,167.521625 C305.922298,167.939908 311.013622,170.194097 311.013622,170.194097 C311.013622,170.194097 306.698299,173.714492 300.263169,175.913792 C299.260045,176.256368 298.559752,177.168642 298.502971,178.226654 C298.086581,185.019501 295.815358,190.110825 295.815358,190.110825 C295.815358,190.110825 292.294963,185.795502 290.099448,179.354694 C289.758765,178.353463 288.850276,177.655063 287.790372,177.590711 C280.995631,177.172428 275.904308,174.91824 275.904308,174.91824 C275.904308,174.91824 280.21963,171.397845 286.654761,169.200437 C287.657884,168.857861 288.358178,167.943694 288.433885,166.887575" id="Fill-655" fill="#F7F7F6" transform="translate(293.458965, 172.556168) scale(-1, 1) translate(-293.458965, -172.556168) "></path>
            <path d="M131.454558,152.834386 C131.870949,146.041538 134.123245,140.950215 134.123245,140.950215 C134.123245,140.950215 137.64364,145.263645 139.839155,151.706346 C140.179838,152.707576 141.088327,153.404085 142.148231,153.470329 C148.942971,153.888612 154.034295,156.1428 154.034295,156.1428 C154.034295,156.1428 149.718972,159.663195 143.283842,161.860603 C142.280719,162.203179 141.580425,163.117346 141.523645,164.173465 C141.107254,170.968205 138.854958,176.059529 138.854958,176.059529 C138.854958,176.059529 135.334563,171.744206 133.120121,165.303398 C132.779438,164.300274 131.870949,163.603766 130.811045,163.539415 C124.016305,163.121131 118.924981,160.866943 118.924981,160.866943 C118.924981,160.866943 123.240304,157.346548 129.694361,155.147248 C130.678557,154.804672 131.378851,153.892397 131.454558,152.834386" id="Fill-656" fill="#F7F7F6" transform="translate(136.479638, 158.504872) scale(-1, 1) translate(-136.479638, -158.504872) "></path>
            <path d="M195.692301,383.490277 C196.108691,376.69743 198.360987,371.606106 198.360987,371.606106 C198.360987,371.606106 201.881382,375.919536 204.076897,382.360344 C204.41758,383.363467 205.326069,384.059976 206.385973,384.124327 C213.180714,384.54261 218.272037,386.798691 218.272037,386.798691 C218.272037,386.798691 213.956715,390.317194 207.521584,392.516494 C206.518461,392.85907 205.818167,393.771344 205.761387,394.829356 C205.344996,401.622203 203.092701,406.713527 203.092701,406.713527 C203.092701,406.713527 199.572306,402.400097 197.357864,395.959289 C197.01718,394.956166 196.108691,394.259657 195.048788,394.193413 C188.254047,393.777023 183.162723,391.520942 183.162723,391.520942 C183.162723,391.520942 187.478046,388.000547 193.932103,385.803139 C194.9163,385.460563 195.616593,384.546396 195.692301,383.490277" id="Fill-657" fill="#F7F7F6" transform="translate(200.717380, 389.159816) scale(-1, 1) translate(-200.717380, -389.159816) "></path>
        </g>
    </g>
</svg>