<?xml version="1.0" encoding="UTF-8"?>
<svg width="447px" height="380px" viewBox="0 0 447 380" version="1.1" xmlns="http://www.w3.org/2000/svg" xmlns:xlink="http://www.w3.org/1999/xlink">
    <title>corner-13</title>
    <defs>
        <polygon id="path-1" points="0 0 476.016553 0 476.016553 396.002309 0 396.002309"></polygon>
    </defs>
    <g id="corner-13" stroke="none" stroke-width="1" fill="none" fill-rule="evenodd">
        <g id="Group" transform="translate(144.316260, 321.310335) scale(1, -1) translate(-144.316260, -321.310335) translate(-157.681013, 2.504011)">
            <g id="Group-Copy-2" transform="translate(227.201807, 272.308723) rotate(-195.000000) translate(-227.201807, -272.308723) translate(55.172893, 36.488997)">
                <g id="Leaf-1" transform="translate(19.332663, 0.000000)">
                    <path d="M28.5148604,0 C28.5148604,0 62.7204917,87.6208731 1.13686838e-13,127.15176 C1.13686838e-13,127.15176 41.9849474,163.95041 15.0082741,193.924984 C15.0082741,193.924984 61.7855868,204.763207 64.0156974,260.337125 C64.0156974,260.337125 97.873542,241.084758 101.036472,300.15766 C101.036472,300.15766 142.469236,323.736244 158.598562,358.650484 C158.598562,358.650484 194.166401,300.173303 188.426878,260.290197 C188.426878,260.290197 165.198167,249.173276 179.759324,186.430884 C179.759324,186.430884 132.892587,195.37088 159.897939,138.946527 C159.897939,138.946527 116.16024,140.490971 129.213452,67.4818326 C129.213452,67.4818326 57.1632042,72.026263 28.5148604,0" id="Fill-26" fill="#60922E"></path>
                    <path d="M49.0063805,46.3831197 C63.7054743,74.8864368 79.8663845,108.365841 95.3257415,144.603445 C100.29656,125.856455 105.568765,107.212638 111.835849,89.0094129 C108.245877,109.398474 103.499135,129.45148 98.4669172,149.387689 L98.0551092,151.047828 C105.53553,168.84013 112.819508,187.254833 119.657601,206.036208 C124.696265,189.634238 130.034599,173.354895 136.290156,157.542688 C132.461113,176.078103 127.487815,194.226625 122.232951,212.242707 C122.232861,212.242707 122.167268,212.471355 122.08153,212.770364 C153.316622,300.341859 174.300201,395.158585 160.083564,471.639452 C160.083471,471.639452 160.062315,471.633333 160.023105,471.62197 L159.854326,471.57302 C159.528944,471.478617 158.898921,471.295712 158.238495,471.103956 L157.796716,470.975682 C156.84281,470.698702 155.952619,470.440187 155.952619,470.440187 C159.718049,452.341721 161.142567,433.578446 161.098246,414.846455 C159.800358,349.604125 143.505396,280.34796 120.668859,213.993157 L119.95513,213.883613 C100.858146,210.669324 81.5625016,206.966986 62.7833227,201.638862 C77.1724113,202.43533 91.8928619,204.414377 106.173756,206.555586 C110.166307,207.220613 114.16773,207.810686 118.157053,208.502025 L118.802304,208.617318 C112.001984,189.201745 104.658525,170.051879 96.9853085,151.342231 L95.9972144,151.094816 C76.6799307,145.959617 57.1913608,140.318381 38.3292763,133.105848 C57.1895039,136.068561 76.0482894,140.635763 94.6120456,145.5941 C80.0271101,110.506611 64.3492919,77.0472106 49.0063805,46.3831197 Z M118.837301,208.717254 L118.271728,210.571036 L119.241166,209.872848 C119.106759,209.487546 118.972137,209.102348 118.837301,208.717254 Z M94.8882707,146.259495 L94.449381,147.919372 C94.449381,147.919372 94.8470971,147.644486 95.3232922,147.31534 C95.1795654,146.961787 95.0339732,146.61056 94.8882707,146.259495 Z M96.2162501,146.695745 L96.230187,146.688473 C96.2788928,146.654805 96.3261781,146.622118 96.3716368,146.590693 L96.6192247,146.419532 C96.8018714,146.293259 96.9185624,146.212562 96.9185624,146.212506 L96.9185624,146.212506 L95.8932487,145.935699 C96.0009515,146.188915 96.1086188,146.442264 96.2162501,146.695745 Z" id="Combined-Shape" fill="#315C0F"></path>
                </g>
                <path d="M72.4545576,150.164925 C80.0370379,172.994751 86.2283713,196.420558 92.0304652,219.960296 C92.0302045,219.960296 89.1292879,218.440358 89.1292879,218.440358 C92.9911804,216.239969 96.8473372,214.026543 100.747293,211.922616 C112.337924,205.550872 124.29772,199.274808 136.231184,193.906274 C121.604328,204.40792 106.251135,213.875332 90.9474772,222.890672 L88.7783727,224.16815 L88.0462999,221.368128 C82.116719,197.873754 76.5662099,174.222172 72.4545576,150.164925" id="Fill-30" fill="#315C0F"></path>
                <path d="M147.061846,234.698214 C127.858232,232.031154 108.053161,227.531305 89.0596784,222.992349 C82.4037603,215.854118 73.1269278,205.988864 66.7447549,198.688993 C59.5515141,190.574926 52.4474361,182.362831 45.6528204,173.759412 C57.60297,184.288433 68.9850332,195.655897 80.2758479,207.149022 L91.4376114,218.787102 L90.4651643,218.208327 C109.238347,222.961064 128.712838,228.149187 147.061846,234.698214" id="Fill-31" fill="#315C0F"></path>
                <path d="M74.4781861,160.254129 C67.8287857,162.793181 60.7552107,158.376237 58.6789188,150.388614 C56.602627,142.40073 60.3099186,133.867442 66.959319,131.32839 C73.6084586,128.789339 80.6820336,133.206282 82.7583255,141.193905 C84.8346174,149.181789 81.1275865,157.715078 74.4781861,160.254129" id="Fill-34" fill="#B70A07"></path>
                <path d="M144.857025,205.550872 C138.207624,208.090184 131.134049,203.672198 129.057757,195.684575 C126.981465,187.696951 130.688757,179.163402 137.337897,176.624351 C143.987297,174.085299 151.060872,178.502503 153.137164,186.490126 C155.213456,194.47775 151.506164,203.011299 144.857025,205.550872" id="Fill-35" fill="#B70A07"></path>
                <g id="Leaf-2" transform="translate(0.000000, 158.655457)">
                    <path d="M168.177245,154.824007 C164.756994,173.050221 126.702245,156.487335 118.030259,161.357392 C118.030259,161.357392 119.418799,117.646807 80.3730926,147.774417 C80.3730926,147.774417 78.9318895,114.818107 32.604301,121.617415 C32.604301,121.617415 40.1505427,92.9419577 3.84202712,83.1027744 C3.84202712,83.1027744 26.4585918,55.373693 6.75676133,23.9829441 C-3.5900237,7.49722824 1.0266233,-5.68434189e-14 1.0266233,-5.68434189e-14 C1.0266233,-5.68434189e-14 51.764116,30.2436263 65.2501063,9.18558412 C65.2501063,9.18558412 80.0010599,59.7718652 121.609021,39.8645956 C121.609021,39.8645956 121.122537,87.6260873 155.048166,83.6085512 C155.048166,83.6085512 173.027227,128.974642 168.177245,154.824007" id="Fill-39" fill="#315C0F"></path>
                    <path d="M13.5057528,18.6024177 C23.4983376,25.0462776 33.6633703,31.1695005 43.841971,37.2764028 L50.7821633,41.4412433 C58.2524651,45.9302262 65.7106204,50.4476835 73.0937829,55.1139905 L70.6040403,31.3193144 L77.5501282,56.9405581 L77.6173143,57.0645906 C77.7362654,57.3012925 77.8244926,57.5652837 77.8741904,57.8504349 C77.894568,57.9645085 77.9079714,58.078405 77.9147706,58.1915243 C88.7033238,65.1461281 99.3010757,72.4794873 109.508584,80.5715464 C109.532303,80.4484087 109.564021,80.3209157 109.60334,80.1906473 L116.278551,60.7443123 L113.703782,81.5254808 C113.652045,81.8470865 113.570312,82.1295549 113.464882,82.3749343 C113.478163,82.4193424 113.490742,82.4661029 113.502254,82.5135705 C113.61044,82.9526464 113.611753,83.3987967 113.525778,83.8137961 C118.418308,87.83269 123.213427,92.0422866 127.888214,96.4850022 C135.280484,103.475124 141.749321,110.91303 147.35318,118.776342 C147.457979,116.034192 147.626681,113.293166 147.859879,110.555504 C148.333327,105.690661 148.868825,100.872746 149.984141,96.1174016 C150.873943,100.940531 151.180799,105.787124 151.424301,110.67543 C151.609558,115.372376 151.578618,120.085798 151.412784,124.781948 C171.571824,156.25138 178.818212,194.096261 176.611463,236.991877 C176.406806,240.297675 172.21642,240.078679 172.369978,236.660775 C174.878398,198.684224 169.463123,158.550318 149.850203,127.578058 C139.920194,128.072907 129.95233,128.206209 120.041113,127.097533 C128.769199,124.902831 137.639921,123.710031 146.517343,122.862949 L146.695933,122.844558 C136.809351,108.576977 125.145024,96.3645491 112.458247,85.4509816 C112.28296,85.5641759 112.090813,85.6477104 111.885593,85.6968357 L58.9112112,98.6280358 L108.056679,81.7483522 C98.3531238,73.76247 88.1209456,66.4612739 77.6807759,59.5237091 C77.3645742,60.2508849 76.75938,60.7896826 76.0249766,60.8824885 L31.0152755,66.824062 L73.0235472,56.4603139 C53.0274862,43.4339997 32.4489655,31.5549331 13.5057528,18.6024177 Z M147.222134,123.608333 L147.204455,125.040533 C147.204455,125.040533 147.437981,124.754633 147.74448,124.379288 C147.571688,124.120145 147.397196,123.863911 147.222134,123.608333 Z" id="Combined-Shape" fill="#60922E"></path>
                </g>
                <g id="Leaf-2-Copy" transform="translate(196.167279, 251.276876) rotate(-300.000000) translate(-196.167279, -251.276876) translate(107.671034, 131.600910)">
                    <path d="M168.177245,154.824007 C164.756994,173.050221 126.702245,156.487335 118.030259,161.357392 C118.030259,161.357392 119.418799,117.646807 80.3730926,147.774417 C80.3730926,147.774417 78.9318895,114.818107 32.604301,121.617415 C32.604301,121.617415 40.1505427,92.9419577 3.84202712,83.1027744 C3.84202712,83.1027744 26.4585918,55.373693 6.75676133,23.9829441 C-3.5900237,7.49722824 1.0266233,-5.68434189e-14 1.0266233,-5.68434189e-14 C1.0266233,-5.68434189e-14 51.764116,30.2436263 65.2501063,9.18558412 C65.2501063,9.18558412 80.0010599,59.7718652 121.609021,39.8645956 C121.609021,39.8645956 121.122537,87.6260873 155.048166,83.6085512 C155.048166,83.6085512 173.027227,128.974642 168.177245,154.824007" id="Fill-39" fill="#315C0F"></path>
                    <path d="M13.5057528,18.6024177 C23.4983376,25.0462776 33.6633703,31.1695005 43.841971,37.2764028 L50.7821633,41.4412433 C58.2524651,45.9302262 65.7106204,50.4476835 73.0937829,55.1139905 L70.6040403,31.3193144 L77.5501282,56.9405581 L77.6173143,57.0645906 C77.7362654,57.3012925 77.8244926,57.5652837 77.8741904,57.8504349 C77.894568,57.9645085 77.9079714,58.078405 77.9147706,58.1915243 C88.7033238,65.1461281 99.3010757,72.4794873 109.508584,80.5715464 C109.532303,80.4484087 109.564021,80.3209157 109.60334,80.1906473 L116.278551,60.7443123 L113.703782,81.5254808 C113.652045,81.8470865 113.570312,82.1295549 113.464882,82.3749343 C113.478163,82.4193424 113.490742,82.4661029 113.502254,82.5135705 C113.61044,82.9526464 113.611753,83.3987967 113.525778,83.8137961 C118.418308,87.83269 123.213427,92.0422866 127.888214,96.4850022 C135.280484,103.475124 141.749321,110.91303 147.35318,118.776342 C147.457979,116.034192 147.626681,113.293166 147.859879,110.555504 C148.333327,105.690661 148.868825,100.872746 149.984141,96.1174016 C150.873943,100.940531 151.180799,105.787124 151.424301,110.67543 C151.609558,115.372376 151.578618,120.085798 151.412784,124.781948 C171.571824,156.25138 178.818212,194.096261 176.611463,236.991877 C176.406806,240.297675 172.21642,240.078679 172.369978,236.660775 C174.878398,198.684224 169.463123,158.550318 149.850203,127.578058 C139.920194,128.072907 129.95233,128.206209 120.041113,127.097533 C128.769199,124.902831 137.639921,123.710031 146.517343,122.862949 L146.695933,122.844558 C136.809351,108.576977 125.145024,96.3645491 112.458247,85.4509816 C112.28296,85.5641759 112.090813,85.6477104 111.885593,85.6968357 L58.9112112,98.6280358 L108.056679,81.7483522 C98.3531238,73.76247 88.1209456,66.4612739 77.6807759,59.5237091 C77.3645742,60.2508849 76.75938,60.7896826 76.0249766,60.8824885 L31.0152755,66.824062 L73.0235472,56.4603139 C53.0274862,43.4339997 32.4489655,31.5549331 13.5057528,18.6024177 Z M147.222134,123.608333 L147.204455,125.040533 C147.204455,125.040533 147.437981,124.754633 147.74448,124.379288 C147.571688,124.120145 147.397196,123.863911 147.222134,123.608333 Z" id="Combined-Shape" fill="#60922E"></path>
                </g>
                <path d="M226.779338,259.529692 C220.490238,263.172588 212.96355,260.006791 209.967735,252.458463 C206.97192,244.910397 209.641587,235.837961 215.930426,232.194804 C222.219526,228.551646 229.746214,231.717444 232.742029,239.265771 C235.737844,246.814099 233.068177,255.886535 226.779338,259.529692" id="Fill-33" fill="#B70A07"></path>
                <path d="M127.579211,249.53002 C135.648612,241.837263 144.499518,234.036811 149.191852,224.412909 C152.810398,217.327152 152.326451,208.765501 154.852077,201.109457 C155.726611,198.395086 156.872644,195.744352 158.239042,193.21355 C163.412022,183.572515 168.231692,173.673504 173.218286,163.863831 C178.229951,154.054646 183.236008,144.235917 188.579211,134.53002 C181.118454,155.118611 172.817471,175.329785 162.924117,195.139799 C158.957869,202.308774 158.428728,210.251185 156.576734,218.07856 C153.016248,231.936783 140.173362,241.820129 127.579211,249.53002" id="Fill-32" fill="#315C0F"></path>
                <path d="M190.106718,153.882523 C183.457318,156.421314 176.383743,152.004371 174.307451,144.016747 C172.231159,136.029124 175.93819,127.495575 182.58759,124.956524 C189.236991,122.417733 196.310566,126.834676 198.386858,134.822299 C200.46315,142.809922 196.755858,151.343472 190.106718,153.882523" id="Fill-36" fill="#B70A07"></path>
            </g>
            <g transform="translate(126.485952, 239.516989)" id="Christmas/Stuffs/Gloves">
                <g id="Group-6" transform="translate(239.009415, 200.190187) rotate(-180.000000) translate(-239.009415, -200.190187) translate(1.001138, 2.189033)">
                    <mask id="mask-2" fill="white">
                        <use xlink:href="#path-1"></use>
                    </mask>
                    <g id="Clip-2"></g>
                    <path d="M364.859052,344.89113 C364.937972,350.200809 369.790157,350.92919 373.912521,352.011352 C377.793372,353.028659 382.417267,352.82946 387.196618,351.872376 C384.94528,346.306836 380.376905,341.524196 375.568869,340.271556 C371.550143,339.224601 364.780131,339.581451 364.859052,344.89113 Z M327.848463,394.66968 C305.093572,390.428122 293.724917,379.984512 280.560188,367.891717 C275.049823,362.829271 269.351616,357.594495 262.372746,352.423649 C243.086007,338.1341 229.269843,338.783583 207.615174,354.996564 C206.970216,355.479275 206.060612,355.345858 205.580364,354.702861 C205.09919,354.058937 205.231513,353.147252 205.87462,352.665467 C225.314965,338.110011 241.077106,333.02255 264.102195,350.084213 C271.204135,355.346785 276.959713,360.633445 282.525598,365.746848 C295.359982,377.536676 306.445485,387.71901 328.379605,391.808621 C344.634949,394.835526 367.531417,392.045807 379.860569,380.848945 C386.477633,374.839608 389.416494,366.993003 388.594797,357.527787 C388.512443,356.579042 388.348659,355.625664 388.113624,354.681551 C382.917873,355.763714 377.729524,356.02221 373.175955,354.827013 C367.893222,353.441882 362.001112,352.676448 361.971084,344.937066 C361.941056,337.197685 370.857993,336.035557 376.299883,337.454969 C382.043432,338.950354 387.48162,344.661356 390.038319,351.220113 C398.985374,348.918665 408.064753,344.308356 413.51312,340.325294 C435.79424,324.034486 419.723037,288.265678 410.120845,266.894821 L409.738682,266.044286 C408.978983,264.353407 408.194299,262.66994 407.407765,260.985547 C404.343984,254.42123 401.17564,247.633625 399.601647,240.382766 C397.028293,228.513259 400.69169,215.512484 410.801891,200.637382 C411.25623,199.974001 412.158431,199.800744 412.821895,200.25288 C413.486285,200.705017 413.657472,201.610216 413.205909,202.274523 C403.567629,216.454744 400.047658,228.718017 402.443348,239.764784 C403.947016,246.695998 407.04596,253.333509 410.041266,259.75329 C410.833352,261.450654 411.624513,263.147092 412.389764,264.850016 L412.771927,265.700551 C422.735925,287.876545 439.413222,324.993422 415.227764,342.675847 C410.509485,346.126167 400.913771,351.393371 390.934042,354.016318 C391.207941,355.097554 391.396709,356.188055 391.490168,357.276703 C392.39607,367.695297 389.139819,376.351671 381.813949,383.005858 C371.961917,391.953156 355.849073,395.84542 341.246376,395.84542 C336.534574,395.84542 331.983781,395.440536 327.848463,394.66968 Z" id="Fill-1" fill="#B70A07" mask="url(#mask-2)"></path>
                    <path d="M471.157734,161.70362 C445.136414,127.019754 493.20382,71.0549034 468.94341,30.7777032 C444.299912,-10.1360087 359.970512,-11.7342368 341.444397,34.8867707 C332.969262,56.2140819 338.430584,77.6581332 349.330095,97.0388489 C356.717962,110.174894 372.816,155.196747 343.614306,133.319089 C334.950402,126.828893 327.21831,112.142799 313.735267,116.772565 C302.72194,120.553648 303.412239,130.605344 305.102825,140.231773 C307.963033,156.517949 329.791665,177.124436 347.621002,182.027521 C369.529213,188.053536 399.22411,184.147374 421.72546,180.915711 C428.810744,179.898404 471.157734,161.70362 471.157734,161.70362" id="Fill-3" fill="#60922E" mask="url(#mask-2)"></path>
                    <path d="M336.076534,177.888806 C325.269557,184.520757 322.342725,203.378922 329.311416,213.683555 C334.465527,221.306871 351.852555,218.468974 360.64323,218.672806 C387.676866,219.300053 413.327128,212.022324 439.411371,208.087441 C472.497618,203.097263 475.514207,193.842364 474.641617,166.250926 C474.014241,146.388425 426.947121,161.202378 409.932077,164.985314 C396.324113,168.010366 336.561409,177.591396 336.076534,177.888806" id="Fill-4" fill="#F7F5E7" mask="url(#mask-2)"></path>
                    <path d="M166.198144,378.250088 C120.444073,409.775484 42.85018,398.5499 11.0547743,350.639192 C-24.9000084,296.460651 33.1267691,210.802112 94.9807285,239.65175 C118.19181,250.478008 129.037651,276.201604 150.534088,289.163466 C126.02939,264.093058 155.669692,216.954132 179.227774,255.11148 C196.190999,282.587105 201.683782,303.214901 190.215191,333.901807 C183.741553,351.220113 177.491847,368.913656 166.198144,378.250088" id="Fill-5" fill="#60922E" mask="url(#mask-2)"></path>
                </g>
                <path d="M245.444389,102.532288 C244.520906,103.821988 251.04081,109.3551 251.949488,110.095381 C255.769267,113.205672 260.055415,114.766839 265.010579,114.804826 C273.556965,114.871535 283.38864,112.116097 290.096387,106.712696 C298.179181,100.203044 300.957959,88.6485501 302.798449,78.9442946 C305.968643,62.2374839 310.859034,45.7465498 317.447413,30.0709437 C318.772492,26.91896 320.192879,23.4510367 319.177788,20.1850924 C318.309825,17.3916677 315.810497,15.4043059 313.186249,14.1173849 C309.528404,12.3245899 305.59851,11.0413749 301.856458,9.42739619 C297.687828,7.62904218 287.677564,-0.97730012 283.607944,3.90632893 C281.941418,5.9057354 281.682324,8.68340945 281.358457,11.2674431 C278.491772,34.1661136 264.613611,52.9093911 258.103885,74.5702455 C255.050283,84.7303434 251.878237,93.8768405 245.444389,102.532288" id="Fill-7" fill="#F7F5E7" transform="translate(282.438936, 58.615677) rotate(-180.000000) translate(-282.438936, -58.615677) "></path>
                <path d="M298.061743,42.2487633 C297.376996,42.2487633 296.694099,42.2357921 296.009352,42.2070704 C295.207087,42.1746425 294.584337,41.4964379 294.616724,40.6931546 C294.650036,39.8898713 295.307949,39.2579921 296.12872,39.2987585 C304.126383,39.6285957 312.411825,37.8154176 318.734633,36.1995859 C319.510988,35.9985334 320.303074,36.4701265 320.502021,37.2483941 C320.700968,38.0275882 320.230898,38.8206799 319.452692,39.0189528 C313.471332,40.5495457 305.768851,42.2487633 298.061743,42.2487633 M297.638865,25.4418896 L297.620359,25.4418896 C296.817169,25.4307715 296.175912,24.7720236 296.185066,23.9678138 C296.230507,20.4304023 298.938034,17.3423477 301.325396,14.6193377 C302.254432,13.5612644 303.129798,12.5606347 303.768278,11.6331992 C304.222618,10.9725982 305.126669,10.8049001 305.790134,11.2607425 C306.451747,11.716585 306.617382,12.6227108 306.162118,13.2851647 C305.428328,14.3534296 304.496516,15.415209 303.51011,16.5390644 C301.454943,18.8849853 299.124027,21.5422131 299.092565,24.0048741 C299.083312,24.8025984 298.433727,25.4418896 297.638865,25.4418896 M285.080231,17.5823136 C284.281667,17.5823136 283.631157,16.9356103 283.627456,16.13418 C283.620979,15.0974164 283.641336,14.0523142 283.660768,13.0044325 C283.730168,9.2659686 283.803269,5.39964646 282.653079,1.9122665 C282.400463,1.14882307 282.815013,0.326083055 283.577488,0.0740726008 C284.338113,-0.178864362 285.16166,0.237138189 285.412425,0.999655113 C286.718997,4.95862816 286.642195,9.07696076 286.568168,13.0590965 C286.548736,14.0838155 286.528378,15.105755 286.53393,16.1202823 C286.538557,16.9235657 285.890823,17.5786075 285.087633,17.5823136 L285.080231,17.5823136 M275.138441,29.1099388 C274.748875,29.1099388 274.362085,28.9542853 274.076157,28.6476108 C273.664383,28.207519 273.213746,27.7590887 272.747377,27.2958342 C270.099996,24.6626955 266.803956,21.3856331 267.415602,16.4714293 C267.513688,15.6727785 268.235448,15.1020489 269.038638,15.2067444 C269.834426,15.3068074 270.399805,16.0331905 270.300794,16.8309148 C269.865887,20.3275598 272.371692,22.8198691 274.796067,25.229719 C275.288345,25.7207688 275.765817,26.1951414 276.199799,26.660249 C276.747597,27.2476557 276.717061,28.1686057 276.130399,28.7180255 C275.850948,28.9793011 275.494694,29.1099388 275.138441,29.1099388 M267.286981,50.0675729 C266.989948,50.0675729 266.691066,49.976775 266.431972,49.7886937 C265.551054,49.1456964 264.642376,48.3794735 263.765159,47.6382662 C262.10511,46.2383111 260.38954,44.7901775 258.904379,44.2027708 C258.157634,43.9072144 257.791202,43.0613117 258.087309,42.3136189 C258.38249,41.5649996 259.231947,41.2036611 259.972214,41.4955114 C261.899685,42.2580283 263.800322,43.8618155 265.638961,45.4118651 C266.516177,46.1530723 267.346202,46.8535131 268.14384,47.4362873 C268.793425,47.9097334 268.935926,48.8195652 268.462155,49.4690481 C268.178077,49.8600349 267.735768,50.0675729 267.286981,50.0675729 M280.893094,53.2121445 C280.23333,53.2121445 279.635565,52.7581551 279.479183,52.086436 C278.564953,48.1663764 277.597979,43.5764507 277.349989,39.2654042 C277.302797,38.4630474 277.914443,37.7746512 278.716708,37.7273992 C279.490287,37.6829268 280.20557,38.2953493 280.250912,39.0977061 C280.488723,43.1882434 281.425161,47.6252951 282.30978,51.4258351 C282.492996,52.2087352 282.006271,52.9916354 281.225289,53.1732311 C281.113323,53.2000999 281.002283,53.2121445 280.893094,53.2121445 M287.841428,62.7385103 C287.374134,62.7385103 286.900363,62.7023764 286.42104,62.6245497 C285.627103,62.4976179 285.087633,61.7508517 285.215329,60.9568334 C285.343025,60.1637417 286.088845,59.6161749 286.880931,59.7505187 C290.259326,60.2897469 293.558142,57.7872461 296.75147,55.3616454 C298.438354,54.0802835 300.032705,52.8702627 301.693679,52.0289925 C302.408963,51.667654 303.284329,51.9548718 303.64706,52.6719898 C304.008865,53.3891077 303.722012,54.2646588 303.004878,54.6278503 C301.579863,55.3486743 300.088225,56.4817948 298.507754,57.6806975 C295.366245,60.0664583 291.84905,62.7385103 287.841428,62.7385103 M295.021095,93.0325757 C294.290081,93.0325757 293.659929,92.4822294 293.577574,91.7373161 C293.113981,87.5402303 290.25655,82.8233728 286.931824,80.7646698 C286.248928,80.3412552 286.038877,79.4443944 286.460829,78.7606308 C286.883707,78.0759406 287.77943,77.8674761 288.461401,78.2881112 C292.537498,80.8137748 295.904789,86.334842 296.468318,91.416744 C296.556224,92.2153948 295.980667,92.9352923 295.183028,93.0242372 L295.021095,93.0325757 M278.800913,119.230545 C277.996798,119.230545 277.347213,118.579209 277.347213,117.774999 L277.347213,102.056774 C277.347213,101.252564 277.996798,100.601228 278.800913,100.601228 C279.604103,100.601228 280.253688,101.252564 280.253688,102.056774 L280.253688,117.774999 C280.253688,118.579209 279.604103,119.230545 278.800913,119.230545 M253.681793,120.278427 C253.295929,120.278427 252.91099,120.125553 252.625987,119.823511 C252.073562,119.238883 252.100397,118.317007 252.684283,117.765734 C254.799597,115.763548 256.73262,113.545485 258.859038,111.063368 C259.381851,110.453725 260.301633,110.385163 260.908653,110.906788 C261.517522,111.430265 261.587848,112.349362 261.065034,112.959932 C258.884947,115.504126 256.89918,117.782411 254.680229,119.880954 C254.398927,120.146862 254.040823,120.278427 253.681793,120.278427 M236.936947,113.991136 C236.139309,113.991136 235.489724,113.346286 235.483211,112.545782 C235.477695,111.742499 236.123578,111.085604 236.927694,111.080045 C240.583689,111.053176 244.50618,108.904602 248.201039,106.587403 C248.878384,106.160282 249.776883,106.365041 250.205313,107.047878 C250.631892,107.727935 250.425542,108.626649 249.745422,109.052843 C245.686906,111.59889 241.329508,113.958709 236.947126,113.991136 L236.936947,113.991136 M237.459761,91.4602899 C236.787043,91.4602899 236.183725,90.9905499 236.038447,90.3058597 C235.872813,89.5192535 236.375269,88.746545 237.161803,88.5806999 C241.15462,87.7385032 253.306107,85.1720732 256.670622,80.27362 C257.125887,79.6111661 258.032714,79.4462475 258.691552,79.8983839 C259.353166,80.3542263 259.520651,81.2603521 259.066312,81.9228061 C255.460285,87.1733327 245.180749,89.8629884 237.760494,91.4297151 C237.659633,91.4510248 237.558771,91.4602899 237.459761,91.4602899 M250.506972,66.8976093 C249.79539,66.8976093 249.080107,66.875373 248.362047,66.8318271 C247.559783,66.7836487 246.950913,66.0933994 246.99903,65.2910426 C247.048998,64.4886858 247.748551,63.8771899 248.537861,63.9262948 C253.066446,64.203321 257.432172,63.5288225 261.526776,61.9278149 C262.277222,61.635038 263.117425,62.0047151 263.409831,62.7542609 C263.702236,63.5019537 263.332103,64.3469299 262.585358,64.6397068 C258.747997,66.1406514 254.694109,66.8976093 250.506972,66.8976093 M271.474118,88.8419754 C271.339944,88.8419754 271.202069,88.8225188 271.066045,88.7826789 C270.296167,88.5566107 269.852932,87.7477683 270.078714,86.9769128 C271.019779,83.7572939 270.416461,80.9388535 269.777055,77.9554944 C269.464292,76.4971692 269.140425,74.9897391 268.981267,73.3822459 C268.902614,72.5817421 269.485575,71.8692567 270.285063,71.7895769 C271.077149,71.7080441 271.797059,72.2945243 271.874787,73.0950281 C272.018214,74.5394557 272.323574,75.9662796 272.618756,77.344925 C273.307205,80.5515727 274.016936,83.8675485 272.869521,87.7940937 C272.683529,88.4296789 272.10427,88.8419754 271.474118,88.8419754" id="Combined-Shape" fill="#EEECDD" transform="translate(278.015416, 60.139213) rotate(-180.000000) translate(-278.015416, -60.139213) "></path>
                <path d="M1.45373138,228.404698 C0.654242703,228.404698 0.00465814937,227.757994 1.56721902e-05,226.955638 C-0.00366985772,226.152354 0.643138694,225.498239 1.44632871,225.493606 C5.13841186,225.475076 8.54271609,225.080383 12.1459672,224.662528 C13.8615366,224.463328 15.5919114,224.262276 17.371329,224.10199 C18.1615643,224.046399 18.8768476,224.619908 18.9490236,225.421339 C19.022125,226.221842 18.4317619,226.928769 17.6322732,227.001963 C15.8778397,227.160396 14.1724489,227.357742 12.4809381,227.554162 C8.95726578,227.962753 5.31330001,228.384314 1.46113406,228.404698 L1.45373138,228.404698 M19.365424,213.066341 C16.9604806,213.066341 14.7054413,212.512288 12.5133248,211.974913 C10.4081897,211.457921 8.41964665,210.969651 6.31728753,210.939076 C5.51502285,210.927032 4.8737663,210.266431 4.88472825,209.462221 C4.89597432,208.658011 5.51964952,207.977027 6.3598529,208.027985 C8.79163097,208.064119 11.0355662,208.614465 13.2064001,209.147208 C15.5946874,209.733688 17.85898,210.289593 20.1926727,210.127454 C21.0328761,210.089467 21.6880126,210.678727 21.7435327,211.480157 C21.7972021,212.282514 21.1920335,212.976469 20.3916195,213.031133 C20.0464699,213.054296 19.7050216,213.066341 19.365424,213.066341 M31.456765,244.472217 C30.9996499,244.472217 30.5480868,244.257267 30.2658599,243.853309 C29.8041182,243.196414 29.9632757,242.287509 30.6193376,241.826107 C33.4360546,239.845231 37.7610663,235.236775 38.4069495,232.23118 C38.5753604,231.446427 39.3507904,230.946112 40.1326977,231.114737 C40.9183064,231.284288 41.4179868,232.057923 41.2486506,232.843602 C40.3742099,236.91283 35.3857336,242.030866 32.2914163,244.208162 C32.0378748,244.386978 31.7454692,244.472217 31.456765,244.472217 M32.0202934,202.556022 C27.4186068,202.556022 24.5519217,199.43832 22.0183569,196.682882 C20.539673,195.074462 19.1424185,193.554987 17.4675637,192.57752 C16.7735631,192.172636 16.5394536,191.282261 16.9419739,190.587379 C17.3454196,189.892497 18.235591,189.657164 18.9295916,190.062048 C20.9847587,191.260951 22.5976161,193.014833 24.1577294,194.712197 C26.5895075,197.356454 28.6946426,199.644931 32.0221441,199.644931 L32.1535416,199.644931 C32.9474782,199.644931 33.5942868,200.282369 33.6074082,201.078241 C33.6192708,201.881524 32.9789396,202.543051 32.1748242,202.555096 L32.0202934,202.556022 M56.5740344,199.761671 C56.4037729,199.761671 56.2288847,199.731096 56.0604739,199.667167 C51.446758,197.923477 46.5933805,193.378951 44.7704723,189.095699 C44.4558587,188.355419 44.7991577,187.500251 45.5384996,187.186164 C46.2769163,186.869298 47.1309996,187.21396 47.4446879,187.95424 C48.9650119,191.525933 53.1993408,195.474714 57.0875948,196.944157 C57.8389661,197.227669 58.2174278,198.067086 57.9342755,198.819412 C57.714046,199.402186 57.1616215,199.761671 56.5740344,199.761671 M48.8974625,214.432015 C48.1331365,214.432015 47.49188,213.834417 47.4474639,213.060782 C47.4011972,212.258425 48.0128431,211.570029 48.8151078,211.523703 C50.660224,211.416228 52.5053402,211.296709 54.3495311,211.177189 C56.2261087,211.05489 58.1026863,210.933517 59.9792639,210.825116 C60.7639473,210.788055 61.4681265,211.391213 61.5143932,212.194496 C61.5606599,212.996853 60.9471634,213.685249 60.1467494,213.731574 C58.2757238,213.839049 56.4074742,213.960422 54.5382993,214.081795 C52.6876311,214.202241 50.8351121,214.322687 48.9825932,214.430162 L48.8974625,214.432015 M55.1767798,245.869393 C54.950073,245.869393 54.7187394,245.816582 54.5031366,245.702621 C53.7915547,245.329238 53.5176558,244.449054 53.8905654,243.737495 C56.2955088,239.154982 60.3475469,235.408179 64.4634331,233.959119 C65.2249831,233.692285 66.0503811,234.090684 66.3178027,234.849494 C66.5842989,235.607379 66.1854799,236.438457 65.4285566,236.705292 C62.0279537,237.901415 58.5098333,241.193302 56.4657703,245.091125 C56.204826,245.586807 55.6995936,245.869393 55.1767798,245.869393 M76.7315129,227.011228 C76.5168354,227.011228 76.3040085,227.010302 76.0911817,227.007522 C75.288917,226.996404 74.6458098,226.335803 74.6576731,225.531593 C74.6689431,224.734795 75.3176023,224.096431 76.1106137,224.096431 L76.130971,224.096431 C78.6858185,224.132565 81.2813808,223.936145 83.8019909,223.747137 C86.5345026,223.543305 89.3595476,223.331134 92.1910701,223.397843 C92.9933347,223.416373 93.6290393,224.082533 93.6114579,224.885816 C93.5920259,225.6891 92.922084,226.354333 92.1235207,226.307081 C89.4391264,226.245932 86.6807054,226.45069 84.0194444,226.650816 C81.6413357,226.827779 79.1873496,227.011228 76.7315129,227.011228 M83.0894836,190.679103 L82.9673395,190.673544 C79.0550269,190.347413 72.8090215,187.653125 71.2572362,183.439362 C70.9805613,182.685184 71.3655003,181.848546 72.1196476,181.570593 C72.8719443,181.29264 73.707521,181.677142 73.9860465,182.433173 C74.9465434,185.045002 79.8175022,187.490986 83.2088517,187.772645 C84.0092657,187.839353 84.6024049,188.5435 84.5357809,189.344004 C84.4737835,190.103741 83.8371536,190.679103 83.0894836,190.679103 M74.7142845,203.953198 C74.1378013,203.953198 73.5918542,203.606684 73.364222,203.036881 C73.0662644,202.291041 73.4289954,201.444212 74.1748147,201.145876 C78.6932212,199.336404 84.9345999,199.731096 90.4412632,200.081317 C92.5602784,200.215661 94.5636267,200.343519 96.3448949,200.343519 C97.1480849,200.343519 97.7985948,200.994855 97.7985948,201.798138 C97.7985948,202.602348 97.1480849,203.253684 96.3448949,203.253684 C94.4710933,203.253684 92.4242543,203.123973 90.2580471,202.986849 C85.0558186,202.655159 79.1642163,202.281776 75.2537543,203.848503 C75.0779408,203.918917 74.8947246,203.953198 74.7142845,203.953198 M104.718243,218.623542 L104.52855,218.611497 C103.733688,218.506802 103.171085,217.776713 103.276573,216.979915 C103.746643,213.36653 106.035919,210.165441 108.055924,207.341442 C108.414953,206.839274 108.768431,206.346371 109.103402,205.86088 C109.557741,205.199353 110.46827,205.035361 111.125257,205.491203 C111.786871,205.948899 111.95158,206.855024 111.494465,207.516552 C111.150241,208.014087 110.788435,208.520888 110.421078,209.0351 C108.510263,211.706226 106.5356,214.467222 106.158063,217.356078 C106.062754,218.089873 105.438153,218.623542 104.718243,218.623542 M122.158941,237.486339 C121.910951,237.486339 121.659261,237.42241 121.429778,237.288066 C119.864112,236.376381 118.91657,234.936586 118.689863,233.125261 C118.105052,228.431566 122.440243,222.471334 124.630508,220.320906 C125.20144,219.757589 126.123998,219.765001 126.685675,220.340363 C127.248279,220.914799 127.239951,221.835749 126.666243,222.39814 C124.340879,224.681058 121.191041,229.68606 121.57598,232.763923 C121.688871,233.677461 122.108048,234.315825 122.891806,234.772594 C123.585806,235.177479 123.819916,236.067854 123.41647,236.762736 C123.147198,237.226917 122.660472,237.486339 122.158941,237.486339 M157.046813,220.021644 C156.914491,220.021644 156.778466,220.002187 156.643368,219.964201 C152.502497,218.768077 147.606555,216.748288 144.461344,214.936963 C143.764567,214.536711 143.52398,213.646335 143.92465,212.949601 C144.32532,212.252866 145.215491,212.011047 145.909492,212.414078 C148.873337,214.119782 153.511112,216.029317 157.450259,217.16707 C158.221062,217.389432 158.666148,218.196421 158.443143,218.968203 C158.260852,219.606568 157.678817,220.021644 157.046813,220.021644 M140.998744,196.966394 C140.20018,196.966394 139.54967,196.31969 139.545028,195.51826 C139.541342,194.714977 140.188151,194.059935 140.992266,194.056229 C145.053558,194.035846 148.79931,193.61799 152.764367,193.176045 C154.36427,192.997229 155.9725,192.817486 157.608491,192.664612 C158.396876,192.596051 159.116786,193.177898 159.191738,193.979328 C159.265765,194.778906 158.678177,195.488612 157.878689,195.562732 C156.259354,195.71468 154.668705,195.89257 153.086383,196.068606 C149.219412,196.499433 145.221969,196.94601 141.006146,196.966394 L140.998744,196.966394 M107.726505,185.628703 C107.013997,185.628703 106.392173,185.105225 106.288535,184.378842 C106.174719,183.582971 106.728994,182.84547 107.523856,182.732435 C110.455315,182.31458 119.379237,181.041557 121.737914,177.241943 C122.389349,176.192208 122.480957,174.998865 122.020141,173.59335 C121.770301,172.829907 122.18485,172.007167 122.947326,171.756083 C123.718129,171.507779 124.531498,171.921002 124.782263,172.684445 C125.517904,174.926597 125.324509,176.976961 124.207631,178.777168 C121.481596,183.168821 114.078923,184.737401 107.932854,185.614805 L107.726505,185.628703 M130.533215,208.143798 C130.151052,208.143798 129.770739,207.993704 129.485737,207.697221 C126.867966,204.969578 123.753292,203.181416 120.479459,202.527301 C119.693851,202.369794 119.182141,201.602645 119.339448,200.815112 C119.495829,200.026653 120.249977,199.51522 121.050391,199.672726 C124.909034,200.443582 128.550224,202.521742 131.580693,205.680211 C132.136819,206.260206 132.118312,207.181156 131.539053,207.737987 C131.258677,208.009455 130.89502,208.143798 130.533215,208.143798" id="Combined-Shape" fill="#EEECDD" transform="translate(79.599015, 208.776684) rotate(-180.000000) translate(-79.599015, -208.776684) "></path>
                <g id="Group-37" transform="translate(9.826501, 211.212982) rotate(-180.000000) translate(-9.826501, -211.212982) translate(-0.000000, 197.531723)"></g>
                <path d="M369.732725,34.6196083 C369.791022,35.4219652 369.189554,36.1196264 368.388215,36.17707 L342.784966,38.0441313 C348.680736,43.8629167 354.638292,49.1931705 360.568159,54.0709426 L392.630118,48.4866689 C393.42313,48.3523251 394.171725,48.8795087 394.310525,49.6707474 C394.4484,50.4629126 393.919109,51.217091 393.127023,51.3542143 L363.570525,56.5043612 C372.701744,63.7963141 381.731058,70.0255195 390.329791,75.3244032 L411.512486,65.8809492 C412.248127,65.5566711 413.104986,65.8846553 413.430704,66.6184504 C413.756422,67.3531721 413.427928,68.213899 412.693213,68.5409566 L393.355462,77.1617114 C425.820014,96.5855332 451.425605,102.642767 451.811713,102.730993 C452.59362,102.909809 453.083122,103.689003 452.904532,104.47283 C452.750927,105.148255 452.152236,105.605024 451.489697,105.605024 C451.383283,105.605024 451.273168,105.593905 451.16583,105.56889 C450.780062,105.481104 425.434784,99.4980023 393.109454,80.3933361 L402.483076,103.603764 C402.78381,104.349604 402.42478,105.198286 401.680811,105.499402 C401.502222,105.570743 401.317155,105.60595 401.13579,105.60595 C400.561157,105.60595 400.017061,105.262215 399.788503,104.695192 L388.964928,77.8940753 C380.651668,72.7800414 371.941,66.8078587 363.123405,59.8607779 L371.75273,85.2107069 C372.012749,85.9713709 371.606527,86.7987434 370.845902,87.0572394 C370.691372,87.110977 370.532214,87.1369192 370.377683,87.1369192 C369.772515,87.1369192 369.208061,86.7551975 369.001712,86.1501871 L358.893117,56.4583666 C353.355115,51.9115721 347.793372,46.9752303 342.279204,41.6206784 L349.803805,69.9807517 C350.010154,70.7580927 349.547487,71.5548905 348.772057,71.761502 C348.647137,71.7948563 348.521291,71.810607 348.397297,71.810607 C347.754189,71.810607 347.166602,71.3807068 346.993565,70.7284444 L338.097403,37.1953034 L338.088824,37.1624677 C338.080118,37.1261039 338.072829,37.0894716 338.066956,37.0526584 L338.097403,37.1953034 C338.081864,37.1365706 338.070094,37.0773298 338.06203,37.0179034 C338.056531,36.9785519 338.052838,36.9391399 338.050744,36.8996599 C338.050003,36.8835144 338.049412,36.8674632 338.049086,36.8514204 C338.048413,36.8231029 338.048666,36.7947385 338.049742,36.7664001 C338.05075,36.7425525 338.052235,36.7188412 338.054297,36.6951939 C338.056632,36.6668611 338.05998,36.6380976 338.064182,36.6094359 C338.067483,36.5881284 338.070987,36.5674756 338.074934,36.5469067 C338.080879,36.5147343 338.088237,36.4822367 338.096717,36.449974 C338.121653,36.3563104 338.15574,36.2648109 338.198932,36.1770039 C338.207218,36.1596611 338.215969,36.1427654 338.225072,36.1260109 C338.235529,36.1070413 338.246525,36.0877683 338.257979,36.0687133 C338.272767,36.0441271 338.288395,36.0199017 338.304811,35.9960578 C338.309395,35.9890605 338.313948,35.9825235 338.318557,35.9760175 L338.357275,35.9246144 C338.367234,35.9118833 338.377433,35.8992801 338.387873,35.8868111 L338.318557,35.9760175 C338.359409,35.9188727 338.404064,35.8651451 338.452054,35.8150921 C338.460934,35.8057615 338.470173,35.7963374 338.479566,35.7870097 L338.493422,35.7736471 C338.510721,35.7569985 338.528406,35.7408014 338.546457,35.7250666 L338.479566,35.7870097 C338.521013,35.7459124 338.564279,35.707823 338.609097,35.672739 C338.619525,35.6653436 338.630007,35.6574119 338.640589,35.6496256 C338.667702,35.6287022 338.695414,35.6096581 338.723601,35.5916846 C338.733409,35.5866197 338.742954,35.5807172 338.752566,35.5749257 C338.866655,35.5046398 338.988321,35.4526673 339.113672,35.4178869 C339.119006,35.4175305 339.123627,35.4162651 339.128254,35.4150222 C339.166798,35.4036419 339.206317,35.394865 339.24607,35.3877588 C339.249144,35.3879881 339.252178,35.387447 339.255214,35.3869154 L339.370424,35.3710359 C339.375718,35.3705555 339.381014,35.3701042 339.386311,35.3696819 C339.390077,35.3697264 339.393785,35.3694333 339.397497,35.3691541 L368.178164,33.2733907 C368.964698,33.2279918 369.674429,33.818178 369.732725,34.6196083 Z" id="Combined-Shape" fill="#EBE7C7" transform="translate(395.494987, 69.438445) rotate(-180.000000) translate(-395.494987, -69.438445) "></path>
                <path d="M47.6335861,248.992458 L47.6428633,248.992867 C47.7856547,249.000213 47.9244682,249.028647 48.0555413,249.075703 C48.0640962,249.079258 48.0728687,249.082514 48.0816082,249.085855 C48.1147662,249.097982 48.1471382,249.111695 48.178938,249.126548 C48.193056,249.133816 48.2074888,249.14087 48.2218049,249.148165 C48.2514425,249.162502 48.2800423,249.178279 48.3080723,249.194997 C48.3158899,249.200558 48.3242428,249.205666 48.3325466,249.210861 C48.367984,249.232042 48.4019752,249.25532 48.4349375,249.280016 C48.4383051,249.283698 48.4423321,249.286753 48.4463444,249.28983 C48.4802539,249.314613 48.5124238,249.341524 48.5434146,249.369825 C48.5472797,249.374731 48.5522136,249.379298 48.557119,249.383903 C48.5858658,249.409501 48.6124208,249.436465 48.6379334,249.464494 C48.6460204,249.474831 48.6550073,249.484959 48.663868,249.495227 C48.6868503,249.520483 48.7080905,249.546994 48.7284261,249.574303 C48.7341968,249.58324 48.7405175,249.591869 48.7467547,249.60058 L68.1473099,276.781575 C68.6146036,277.43569 68.4637742,278.345522 67.8095629,278.812483 C67.1581277,279.279443 66.2494496,279.127496 65.7821559,278.474307 L50.434057,256.969555 C51.8014937,263.757682 53.9052503,275.090172 55.7364465,288.71171 L74.982753,303.725384 C75.6156816,304.22014 75.7294977,305.133677 75.2362946,305.768336 C74.7412408,306.401142 73.8297867,306.515102 73.1968582,306.0222 L56.2708336,292.818567 C57.463527,302.301413 58.4866572,312.725084 59.0301864,323.396503 C59.0529866,323.41622 59.0741971,323.438227 59.0947662,323.460952 L77.9475236,344.422292 C78.4842174,345.019891 78.4361,345.939914 77.8401848,346.478216 C77.2433443,347.015591 76.3226368,346.968339 75.7868684,346.370741 L59.2321189,327.963257 C59.7608562,342.114834 59.3782848,356.525975 57.3727194,369.605734 C57.2626046,370.325632 56.6435561,370.840771 55.9375261,370.840771 L55.7163713,370.823167 C54.9233599,370.701794 54.3783381,369.958734 54.4995569,369.163789 C56.4705863,356.309084 56.8525344,342.137368 56.3383754,328.202009 L34.5845159,350.233357 C34.3004384,350.521501 33.925678,350.66511 33.5509177,350.66511 C33.1817094,350.66511 32.8125011,350.525207 32.5284235,350.244475 C31.9574924,349.679305 31.9519404,348.758355 32.5173195,348.186699 L56.1680222,324.235094 C55.6343514,313.317282 54.5867386,302.637206 53.3627009,292.951441 L37.8472441,310.870621 C37.5594651,311.202311 37.1550941,311.371863 36.7488725,311.371863 C36.4111255,311.371863 36.0715279,311.255123 35.7967036,311.016083 C35.1906098,310.4889 35.1249111,309.570729 35.6505009,308.962939 L52.858794,289.089717 C50.9005129,274.537535 48.6287306,262.610654 47.294162,256.112666 L38.1340976,285.054374 C37.9388521,285.673282 37.3660703,286.069828 36.7488725,286.069828 C36.603595,286.069828 36.4564669,286.048518 36.3102641,286.001266 C35.5440874,285.758521 35.1202844,284.940413 35.3636473,284.17419 L46.1789525,250.007317 C46.1915513,249.967935 46.2024905,249.937717 46.2143988,249.907926 L46.1789525,250.007317 C46.1937736,249.96031 46.2108619,249.914416 46.2300828,249.86975 C46.2407164,249.845654 46.2519275,249.821572 46.2637791,249.797823 C46.2704222,249.783688 46.2773605,249.770269 46.2844963,249.75698 L46.2966148,249.735795 C46.3024036,249.725466 46.3083172,249.715209 46.3143538,249.705025 C46.3743589,249.602671 46.4465205,249.509193 46.5285684,249.425795 C46.5448511,249.409789 46.5614468,249.393664 46.5784399,249.377925 C46.590672,249.366161 46.6033826,249.35482 46.6162885,249.343705 L46.6306542,249.331839 C46.6395948,249.324321 46.6486331,249.316905 46.6577677,249.309594 C46.7164113,249.262441 46.7790275,249.219911 46.8448019,249.182395 C46.8464968,249.181547 46.8482112,249.180574 46.849928,249.179603 L46.950204,249.127857 C46.9557416,249.125273 46.9612978,249.122723 46.9668722,249.120207 C46.9741098,249.117076 46.9813502,249.113881 46.9886257,249.110743 C47.023069,249.09573 47.0582064,249.082145 47.0939531,249.069912 C47.1064141,249.065817 47.1189034,249.061731 47.1314792,249.057804 C47.1592938,249.048961 47.1871691,249.041167 47.2153559,249.034193 C47.2209223,249.032929 47.2273677,249.031369 47.2338334,249.02985 L47.2890055,249.017981 C47.3050724,249.014879 47.3212291,249.012039 47.3374708,249.009467 L47.3547323,249.006961 L47.3727073,249.004228 C47.3931148,249.00146 47.4134903,248.999132 47.4338238,248.997238 L47.3374708,249.009467 C47.3918292,249.000703 47.4461509,248.995099 47.5002212,248.992555 C47.5039746,248.992402 47.5072894,248.992258 47.5106027,248.992125 L47.6335861,248.992458 L47.6335861,248.992458 Z" id="Combined-Shape" fill="#EBE7C7" transform="translate(55.208657, 309.915866) rotate(-180.000000) translate(-55.208657, -309.915866) "></path>
            </g>
        </g>
    </g>
</svg>