<?xml version="1.0" encoding="UTF-8"?>
<svg width="447px" height="393px" viewBox="0 0 447 393" version="1.1" xmlns="http://www.w3.org/2000/svg" xmlns:xlink="http://www.w3.org/1999/xlink">
    <title>corner-3</title>
    <g id="corner-3" stroke="none" stroke-width="1" fill="none" fill-rule="evenodd">
        <g id="Group" transform="translate(-60.410000, -0.379000)">
            <path d="M-1.13686838e-13,393.351102 L350.990807,393.351102 C350.699928,381.559318 347.321257,369.543781 340.228286,358.266628 C333.224817,347.123728 325.080207,337.815602 316.197212,330.096123 C307.873599,322.846525 298.878728,316.96182 289.525851,312.240631 C280.956111,307.899823 272.095491,304.521152 263.14537,301.903242 C253.949121,299.240581 244.685745,297.383431 235.578997,296.175164 C224.525598,294.698394 213.718327,294.139012 203.627066,294.183762 C195.236327,294.206138 187.31547,294.653644 180.155374,295.280152 C174.36017,295.81716 169.057224,296.466043 164.35841,297.159678 C160.509858,297.71906 157.064062,298.300818 154.110522,298.860201 C153.774892,298.904951 153.461638,298.972077 153.148384,299.016828 C146.279166,300.336971 142.318737,301.38861 142.318737,301.38861 C134.912512,295.011649 127.640539,289.507324 120.480442,284.808511 C118.802295,283.689746 117.124147,282.615731 115.468374,281.608843 C95.9123602,269.61568 67,262 40,282 C22,295.333333 8.66666667,332.450367 -1.13686838e-13,393.351102 Z" id="Fill-658-Copy" fill="#D1DADF"></path>
            <polyline id="Fill-659-Copy" fill="#9EAFB3" points="209.355143 349.833377 310.603386 142.707441 252.382849 168.432326 201.479037 86.6729711 160.084727 321.41003 180.244875 351.18932 209.355143 349.833377"></polyline>
            <path d="M310.603386,142.707441 L286.930316,14.4141698 C286.393309,11.4762926 282.813261,10.2993517 280.620481,12.3466918 L201.479037,86.6729711 L252.382849,168.432326 L310.603386,142.707441" id="Fill-660-Copy" fill="#A8CAD4"></path>
            <path d="M280.665232,14.1121032 L249.697813,167.644715 L180.379127,346.425618 C179.819744,347.86435 180.513378,349.48656 181.967773,350.043705 C183.399792,350.603087 185.033189,349.887078 185.592572,348.448346 L255.00076,169.443689 L255.135012,168.984996 L286.147181,15.2174431 C286.460435,13.7048727 285.475922,12.2281027 283.954401,11.9237986 C282.455256,11.617257 280.978486,12.5972952 280.665232,14.1121032" id="Fill-661-Copy" fill="#F7F7F6"></path>
            <path d="M137.060541,320.380766 C137.060541,320.380766 45.9259348,166.597551 75.1033291,148.088701 C92.6231908,136.983838 109.292791,166.597551 109.292791,166.597551 C109.292791,166.597551 77.9673678,74.0443505 92.1980601,66.9245293 C106.451128,59.8047081 119.249801,82.5872409 119.249801,82.5872409 C119.249801,82.5872409 109.292791,0 134.912512,0 C160.554609,0 157.936698,44.8535311 157.936698,44.8535311 C157.936698,44.8535311 178.342974,24.9193742 188.322359,47.701907 C198.279368,70.4844399 177.626964,131.000683 177.626964,131.000683 C177.626964,131.000683 206.110724,135.272128 203.269061,149.51177 C200.427397,163.751413 169.101974,227.827566 169.101974,227.827566 C169.101974,227.827566 193.289676,230.675942 189.038369,246.338653 C184.764686,262.001365 137.060541,320.380766 137.060541,320.380766" id="Fill-662-Copy" fill="#6E9985"></path>
            <polyline id="Fill-663-Copy" fill="#A8CAD4" points="407.219942 115.384959 224.525598 351.920993 225.577237 364.218459 236.004128 371.770123 474.569602 247.730397 406.638184 215.92838 407.219942 115.384959"></polyline>
            <path d="M474.569602,247.730397 L506.611035,116.042793 C506.969039,114.583923 505.850274,113.185467 504.351129,113.218438 L407.219942,115.384959 L406.638184,215.92838 L474.569602,247.730397" id="Fill-664-Copy" fill="#D1DADF"></path>
            <path d="M502.2031,113.776175 L404.736283,213.867615 L226.606501,360.347531 C225.42061,361.32757 225.241608,363.090743 226.226121,364.283347 C227.210634,365.475951 228.955908,365.648241 230.164174,364.668202 L408.405833,218.087597 L408.629586,217.879506 L506.208279,117.678428 C507.282294,116.573088 507.259918,114.800964 506.163528,113.724712 C505.044763,112.646222 503.277114,112.668597 502.2031,113.776175" id="Fill-665-Copy" fill="#F7F7F6"></path>
            <polyline id="Fill-666-Copy" fill="#A8CAD4" points="169.527105 343.387052 211.682174 152.691301 168.878221 185.455456 110.68006 128.25747 123.29973 329.785106 145.83166 350.294308 169.527105 343.387052"></polyline>
            <path d="M211.682174,152.691301 L166.663066,51.7585493 C165.633802,49.4471806 162.456509,49.1921022 161.069241,51.3088058 L110.68006,128.25747 L168.878221,185.455456 L211.682174,152.691301" id="Fill-667-Copy" fill="#D1DADF"></path>
            <path d="M161.02449,52.7721505 L166.058933,185.314491 L143.549379,348.023215 C143.325626,349.553686 144.39964,350.965567 145.921161,351.178133 C147.465057,351.38846 148.874701,350.321158 149.076079,348.790688 L171.630383,185.838073 L171.675134,185.348054 L166.618316,52.5595852 C166.55119,51.0156893 165.253422,49.811898 163.709526,49.8701333 C162.16563,49.9304871 160.979739,51.2282547 161.02449,52.7721505" id="Fill-668-Copy" fill="#F7F7F6"></path>
            <path d="M242.112586,377.829355 C229.694293,363.878354 214.501463,355.780732 199.935141,351.193795 C185.346444,346.602383 171.339504,345.488093 161.069241,345.485856 C151.112231,345.485856 144.645769,346.539732 144.533892,346.557633 L144.981398,349.316507 L147.286054,347.727861 C140.595839,337.996842 132.272227,332.006973 123.948614,328.532089 C115.625002,325.048254 107.301389,324.034653 100.387421,324.032416 C90.2514087,324.036891 83.0241861,326.198345 82.8451837,326.245333 C81.3684137,326.690602 80.5405275,328.25016 80.9880336,329.729168 C81.4131643,331.208175 82.9794355,332.047249 84.4562054,331.604218 L84.5009561,331.590793 C85.1498398,331.407315 91.6163022,329.624004 100.387421,329.626241 C106.764382,329.626241 114.349609,330.572717 121.800585,333.691834 C129.251561,336.817663 136.59066,342.071384 142.676742,350.905154 C143.303251,351.793453 144.377265,352.252147 145.45128,352.07762 L145.49603,352.06867 C146.122539,351.972456 152.096744,351.079681 161.069241,351.079681 C170.936749,351.077444 184.406681,352.164883 198.256993,356.528067 C212.107305,360.895726 226.315622,368.501092 237.928404,381.550368 C238.957668,382.702696 240.725317,382.805622 241.888833,381.778596 C243.052348,380.75157 243.14185,378.983921 242.112586,377.829355" id="Fill-669-Copy" fill="#F7F7F6"></path>
            <path d="M303.599916,374.737088 C297.827088,373.598185 293.754783,371.085439 293.754783,371.085439 C293.754783,371.085439 297.827088,368.57493 303.599916,367.436027 C304.494929,367.259262 305.188563,366.558915 305.367565,365.663903 C306.508706,359.906738 309.01474,355.816533 309.01474,355.816533 C309.01474,355.816533 311.520773,359.906738 312.661914,365.663903 C312.840916,366.558915 313.534551,367.259262 314.429563,367.436027 C320.202391,368.57493 324.297071,371.085439 324.297071,371.085439 C324.297071,371.085439 320.202391,373.598185 314.429563,374.737088 C313.534551,374.913853 312.840916,375.6142 312.661914,376.509212 C311.520773,382.266378 309.01474,386.356583 309.01474,386.356583 C309.01474,386.356583 306.508706,382.266378 305.367565,376.509212 C305.188563,375.6142 304.494929,374.913853 303.599916,374.737088" id="Fill-670-Copy" fill="#F7F7F6"></path>
            <path d="M109.449418,184.983337 C104.996733,181.150448 102.692077,176.943891 102.692077,176.943891 C102.692077,176.943891 107.480392,176.782789 113.051842,178.635464 C113.924479,178.924105 114.886617,178.660077 115.468374,177.96868 C119.316926,173.527182 123.501108,171.209101 123.501108,171.209101 C123.501108,171.209101 123.68011,176.008603 121.82296,181.575578 C121.532081,182.441503 121.800585,183.396928 122.494219,183.992111 C126.924529,187.825 129.251561,192.02932 129.251561,192.02932 C129.251561,192.02932 124.440871,192.192659 118.891796,190.339984 C118.019159,190.051343 117.057021,190.315371 116.452888,191.006768 C112.626711,195.448266 108.420154,197.76411 108.420154,197.76411 C108.420154,197.76411 108.263527,192.966845 110.120677,187.39987 C110.411556,186.533945 110.143053,185.57852 109.449418,184.983337" id="Fill-671-Copy" fill="#F7F7F6"></path>
            <path d="M76.580099,295.181701 C72.1497892,291.348812 69.8227577,287.144492 69.8227577,287.144492 C69.8227577,287.144492 74.6334477,286.981153 80.1825227,288.833828 C81.0551595,289.122469 82.0172975,288.860678 82.5990554,288.169281 C86.4476074,283.725546 90.6541642,281.409702 90.6541642,281.409702 C90.6541642,281.409702 90.8107913,286.206967 88.9536412,291.773942 C88.6627623,292.639867 88.9312659,293.595292 89.6249003,294.192713 C94.0552101,298.025602 96.3822416,302.229921 96.3822416,302.229921 C96.3822416,302.229921 91.5715516,302.393261 86.0224766,300.538348 C85.1498398,300.249707 84.1877018,300.513735 83.605944,301.205132 C79.757392,305.64663 75.5508351,307.964711 75.5508351,307.964711 C75.5508351,307.964711 75.394208,303.165209 77.2513581,297.598234 C77.542237,296.732309 77.2737334,295.776884 76.580099,295.181701" id="Fill-672-Copy" fill="#F7F7F6"></path>
            <path d="M399.36621,158.844509 C393.324879,153.541562 390.192336,147.753071 390.192336,147.753071 C390.192336,147.753071 396.770675,147.578544 404.378278,150.178554 C405.564169,150.583547 406.884312,150.232255 407.689823,149.290255 C412.99277,143.237735 418.787973,140.105193 418.787973,140.105193 C418.787973,140.105193 418.966975,146.685769 416.37144,154.300085 C415.968685,155.485976 416.304314,156.797169 417.244077,157.622817 C423.307784,162.923526 426.440326,168.714255 426.440326,168.714255 C426.440326,168.714255 419.861987,168.886544 412.254385,166.288772 C411.068494,165.883779 409.748351,166.235071 408.920465,167.177071 C403.617518,173.229591 397.822315,176.362133 397.822315,176.362133 C397.822315,176.362133 397.665687,169.781557 400.261223,162.167241 C400.663978,160.98135 400.305973,159.670157 399.36621,158.844509" id="Fill-673-Copy" fill="#F7F7F6"></path>
            <path d="M216.157235,127.042492 C210.115903,121.741782 206.960986,115.951054 206.960986,115.951054 C206.960986,115.951054 213.5617,115.778764 221.169303,118.376537 C222.355194,118.78153 223.675337,118.430238 224.480847,117.488237 C229.783794,111.437956 235.578997,108.303176 235.578997,108.303176 C235.578997,108.303176 235.758,114.883752 233.162465,122.498068 C232.759709,123.683959 233.095339,124.997389 234.035102,125.8208 C240.098808,131.123747 243.231351,136.912237 243.231351,136.912237 C243.231351,136.912237 236.653012,137.086765 229.023034,134.486755 C227.859518,134.081762 226.539375,134.433054 225.711489,135.375054 C220.408542,141.427573 214.613339,144.560116 214.613339,144.560116 C214.613339,144.560116 214.456712,137.979539 217.052247,130.365224 C217.455002,129.18157 217.096998,127.86814 216.157235,127.042492" id="Fill-674-Copy" fill="#F7F7F6"></path>
        </g>
    </g>
</svg>