<?xml version="1.0" encoding="UTF-8"?>
<svg width="447px" height="447px" viewBox="0 0 447 447" version="1.1" xmlns="http://www.w3.org/2000/svg" xmlns:xlink="http://www.w3.org/1999/xlink">
    <title>corner-10</title>
    <defs>
        <polygon id="path-1" points="-4.99339241e-15 -7.10171365e-14 253.585247 -7.10171365e-14 253.585247 559.612362 -4.99339241e-15 559.612362"></polygon>
        <polygon id="path-3" points="0 -7.10171365e-14 250.671096 -7.10171365e-14 250.671096 202.860049 0 202.860049"></polygon>
    </defs>
    <g id="corner-10" stroke="none" stroke-width="1" fill="none" fill-rule="evenodd">
        <g id="Stickers-05-Copy-2" transform="translate(118.680243, 281.474838) scale(1, -1) rotate(-210.000000) translate(-118.680243, -281.474838) translate(-104.819757, -33.030073)">
            <path d="M251.96449,0 C251.96449,0 247.516816,114.542602 161.970301,115.172273 C161.970301,115.172273 189.625839,181.317683 146.759505,195.239153 C146.759505,195.239153 191.687261,237.197212 168.059616,297.132121 C168.059616,297.132121 213.262229,298.98865 188.993669,363.213814 C188.993669,363.213814 222.245031,415.089187 223.144561,462.363216 C223.144561,462.363216 273.876781,427.117897 286.408978,381.401803 C286.408978,381.401803 246.120046,357.034546 298.708796,310.450156 C298.708796,310.450156 272.091465,273.758094 327.367559,232.023668 C327.367559,232.023668 279.892386,205.081507 328.018469,136.782222 C328.018469,136.782222 248.874856,94.5030814 251.96449,0" id="Fill-1" fill="#315C0F"></path>
            <path d="M252.158139,62.1912283 C261.240889,209.649118 259.80414,459.848281 172.141232,581.909452 L167.698555,578.583691 C180.892906,561.059105 191.318704,541.491837 200.057884,521.268663 C254.826743,390.368364 259.183215,203.577293 252.158139,62.1912283" id="Fill-2" fill="#60922E"></path>
            <path d="M200.154083,146.473405 C214.960091,158.628298 229.346318,172.08751 243.172837,185.325588 C247.759189,189.838228 252.419252,194.275907 256.944386,198.851015 L252.910245,199.033419 C267.809954,181.528823 283.014503,164.264101 299.365952,148.083812 C285.673113,167.781012 270.551021,186.407522 255.240277,204.849128 C236.208979,186.178891 217.367582,166.861493 200.154083,146.473405" id="Fill-3" fill="#60922E"></path>
            <path d="M194.215939,234.561091 C209.446724,248.17897 224.231492,263.11241 238.426569,277.789735 C243.135357,282.783374 247.931599,287.695805 252.567924,292.756908 L248.357626,293.011775 C262.765092,273.588182 277.496139,254.386973 293.429057,236.172748 C280.297174,257.785196 265.693561,278.439396 250.87381,298.909941 C231.27281,278.251994 211.906687,256.904407 194.215939,234.561091" id="Fill-4" fill="#60922E"></path>
            <path d="M203.707225,211.775506 C215.832135,229.806077 225.850646,249.093491 235.204504,268.660759 L228.240646,267.064094 C246.614788,251.991976 265.571125,237.547029 286.205334,225.65075 C269.09928,244.900684 249.49828,261.696901 229.407536,277.717273 C219.503965,256.298474 210.248804,234.493626 203.707225,211.775506" id="Fill-5" fill="#315C0F"></path>
            <path d="M281.242929,167.703553 C272.088966,180.398164 254.376978,183.269163 241.681118,174.1152 C228.986506,164.961237 226.115507,147.248 235.26947,134.553388 C244.423433,121.858776 262.136671,118.987778 274.831282,128.141741 C287.525894,137.295704 290.396893,155.007692 281.242929,167.703553" id="Fill-6" fill="#B70A07"></path>
            <path d="M321.819211,224.460123 C314.010794,238.02428 296.683605,242.69059 283.119448,234.882173 C269.555291,227.073756 264.890231,209.747816 272.698648,196.18366 C280.507064,182.619503 297.833004,177.953193 311.397161,185.76161 C324.961318,193.570026 329.627628,210.895966 321.819211,224.460123" id="Fill-7" fill="#B70A07"></path>
            <path d="M222.436181,215.947075 C215.173729,226.019308 201.121078,228.296867 191.048845,221.033165 C180.976612,213.770713 178.699053,199.718061 185.961505,189.645828 C193.223957,179.573595 207.276609,177.296036 217.348842,184.559738 C227.421075,191.82219 229.698634,205.874842 222.436181,215.947075" id="Fill-8" fill="#B70A07"></path>
            <path d="M263.193618,254.324506 C255.931166,264.396739 241.878514,266.674298 231.806281,259.411846 C221.734048,252.149393 219.456489,238.096742 226.718942,228.024509 C233.982643,217.952276 248.035295,215.674717 258.106278,222.937169 C268.178511,230.199622 270.45607,244.252273 263.193618,254.324506" id="Fill-9" fill="#B70A07"></path>
            <path d="M236.262701,494.377725 C210.137613,488.293406 234.512366,423.44107 227.652204,408.550107 C227.652204,408.550107 290.403139,411.491069 247.741698,344.338685 C247.741698,344.338685 295.091937,342.301 286.040421,263.001219 C286.040421,263.001219 327.107695,276.275527 341.797514,214.321675 C385.238547,252.444239 414.024744,229.844807 437.59242,185.621683 C437.59242,185.621683 416.965706,296.945968 447,320.277517 C447,320.277517 374.124359,344.843421 402.070995,416.244833 C402.070995,416.244833 333.488109,414.793092 338.734116,472.852731 C338.734116,472.852731 273.307079,503.005713 236.262701,494.377725" id="Fill-10" fill="#315C0F"></path>
            <path d="M202.983854,614.188822 C224.487609,552.366151 251.408531,491.695377 290.118288,438.564411 C317.13666,400.669228 347.959291,365.111572 372.812545,325.688438 C393.038218,294.357322 410.374153,261.227146 426.035963,227.342366 C410.927613,261.472018 394.116404,294.919528 374.347992,326.660429 C354.909407,358.466297 331.729029,388.224486 309.668065,418.146338 C287.564624,447.902028 267.360189,479.614195 251.131176,512.95426 C234.759737,546.333056 221.702815,581.231056 209.877748,616.492617 C208.428506,620.909058 201.473393,619.040035 202.983854,614.188822" id="Fill-11" fill="#60922E"></path>
            <path d="M350.684117,266.082108 L371.318326,334.531313 C371.898023,336.455307 370.808593,338.485496 368.884599,339.066442 C366.838169,339.696112 364.65556,338.375553 364.260767,336.272903 L350.684117,266.082108" id="Fill-13" fill="#60922E"></path>
            <path d="M276.822741,412.433076 C280.142255,428.879476 281.721429,445.60448 282.802114,462.314492 L279.355167,458.903775 C286.297786,459.024962 293.229161,459.44974 300.149293,460.210592 C307.125645,461.050153 314.03828,462.085861 320.849718,464.032343 C313.913345,465.467843 306.941991,465.98882 299.921912,466.307404 C291.868623,466.609745 283.78535,466.39111 275.754549,465.877628 C275.118632,448.071939 274.986201,430.19129 276.822741,412.433076" id="Fill-15" fill="#60922E"></path>
            <g id="Group-19" transform="translate(3.960429, 69.397460)">
                <mask id="mask-2" fill="white">
                    <use xlink:href="#path-1"></use>
                </mask>
                <g id="Clip-17"></g>
                <path d="M40.2889317,-7.10171365e-14 C40.2889317,-7.10171365e-14 88.6186586,103.978127 -4.99339241e-15,150.888596 C-4.99339241e-15,150.888596 59.321479,194.55701 21.2051612,230.128409 C21.2051612,230.128409 87.2968498,242.989184 90.4489515,308.938447 C90.4489515,308.938447 138.285186,286.091644 142.7541,356.192486 C142.7541,356.192486 201.294737,384.174104 224.08407,425.606187 C224.08407,425.606187 260.516268,366.864405 252.408008,319.535405 C252.408008,319.535405 199.269546,319.759038 232.389726,249.95679 C232.389726,249.95679 187.764312,231.843762 225.91936,164.886276 C225.91936,164.886276 164.122925,166.719067 182.565781,80.079374 C182.565781,80.079374 80.7665147,85.4728037 40.2889317,-7.10171365e-14" id="Fill-16" fill="#60922E" mask="url(#mask-2)"></path>
                <path d="M69.2412916,55.0424666 C149.473086,185.710386 260.526263,404.503473 226.181723,559.687322 L220.344775,558.263067 C225.665742,536.788047 227.67844,514.520941 227.615973,492.292565 C224.125298,344.938371 143.878512,180.328201 69.2412916,55.0424666" id="Fill-18" fill="#315C0F" mask="url(#mask-2)"></path>
            </g>
            <path d="M58.1158594,227.35236 C85.8675972,231.014196 113.618086,236.739951 140.896321,242.905477 L137.408145,244.930668 C144.796781,221.357995 152.596453,197.897763 161.974049,175.023475 C156.900452,199.219572 150.195208,223.015878 143.083927,246.673507 L142.315579,249.274647 L139.595751,248.698698 C112.302524,242.605634 84.7669228,235.911635 58.1158594,227.35236" id="Fill-20" fill="#315C0F"></path>
            <path d="M92.6677912,308.678583 C121.91,313.782164 151.088491,320.954663 179.760997,328.541945 L176.114155,330.738297 C182.101024,305.728875 188.506424,280.803159 196.524731,256.350946 C192.891631,281.826374 187.600648,307.011954 181.89738,332.087591 L181.241473,335.0348 L178.249288,334.283943 C149.559291,326.767873 120.630669,318.638374 92.6677912,308.678583" id="Fill-21" fill="#315C0F"></path>
            <path d="M296.518691,201.619567 C296.518691,201.619567 283.203154,283.711638 210.909709,275.798277 C210.909709,275.798277 228.744133,326.160691 191.38242,331.997638 C191.38242,331.997638 225.821911,366.622032 200.86746,407.494409 C200.86746,407.494409 238.88508,413.252648 213.0311,457.15344 C213.0311,457.15344 236.782429,497.782194 233.596595,531.930587 C233.596595,531.930587 279.380154,511.498772 293.778874,479.786605 C293.778874,479.786605 261.788103,458.289097 310.085347,429.868958 C310.085347,429.868958 290.670499,400.829144 340.831769,376.167041 C340.831769,376.167041 302.989058,352.11087 349.329825,307.609142 C349.329825,307.609142 286.024179,269.40537 296.518691,201.619567" id="Fill-22" fill="#60922E"></path>
            <path d="M215.156238,301.708477 C216.054518,317.596419 208.003728,330.86573 191.604804,333.423143 L192.405635,330.979421 C212.61007,351.925967 218.770598,383.344537 202.376671,408.415177 L201.132322,405.746573 C203.975835,406.305031 206.49077,407.182072 208.99571,408.370201 C230.247097,418.522392 223.812961,441.466644 213.0311,457.15344 C223.374441,438.172116 227.107489,414.819328 200.602599,409.242245 L198.070173,408.778737 L199.358249,406.572391 C210.090137,389.2477 210.617362,367.707714 201.377194,349.627169 C198.052682,342.81698 193.672473,336.459055 188.541406,330.973174 C205.93481,329.413989 214.164257,318.614637 215.156238,301.708477" id="Fill-23" fill="#315C0F"></path>
            <path d="M291.49257,246.447375 C286.618868,357.135743 263.735834,534.529228 180.27323,613.2743 L177.349758,610.04349 C189.267276,599.289113 199.508171,586.719436 208.489724,573.338933 C266.005897,485.172538 285.569417,350.559182 291.49257,246.447375" id="Fill-24" fill="#315C0F"></path>
            <path d="M240.542963,302.084531 C255.771249,315.632446 269.980069,330.2548 283.905287,345.119526 L280.986813,344.915883 C295.018226,333.77296 309.250783,322.863665 324.190471,312.950099 C311.297213,325.409833 297.583135,336.965041 283.684153,348.271628 L282.163698,349.520975 L280.765679,348.067985 C266.805479,333.235741 253.106393,318.134888 240.542963,302.084531" id="Fill-25" fill="#315C0F"></path>
            <path d="M228.178179,364.970396 C243.715054,379.997538 258.191234,396.05664 272.375067,412.348121 L269.291679,412.181957 C283.066976,399.606034 297.05716,387.249995 311.825687,375.835964 C299.273501,389.64999 285.844273,402.614461 272.213901,415.346553 L270.619735,416.848267 L269.130513,415.180389 C254.91045,398.918893 240.960245,382.401281 228.178179,364.970396" id="Fill-26" fill="#315C0F"></path>
            <path d="M174.676156,342.419688 C184.331108,369.977777 190.099341,398.860174 191.676017,428.021175 C181.988583,400.470582 176.284066,371.575692 174.676156,342.419688" id="Fill-27" fill="#315C0F"></path>
            <path d="M191.674767,428.021175 C169.771221,410.614027 150.273917,389.826148 134.379729,366.796941 C156.307012,384.18035 175.756841,405.010707 191.674767,428.021175" id="Fill-28" fill="#315C0F"></path>
            <path d="M148.274962,494.696308 C158.146051,485.849684 168.899177,476.944341 175.240861,465.316672 C180.092074,456.77114 180.555582,445.946801 184.258646,436.570454 C185.547971,433.244693 187.132143,430.027625 188.947444,426.984217 C195.826346,415.381534 202.341689,403.422788 209.03319,391.590225 C215.752177,379.76266 222.466166,367.921353 229.541216,356.257452 C218.839312,381.400554 207.246624,405.980201 193.931087,429.890197 C188.682582,438.505692 187.165875,448.446743 184.19243,458.105443 C178.612848,475.181513 163.178419,486.293202 148.274962,494.696308" id="Fill-29" fill="#315C0F"></path>
            <path d="M130.919038,371.933005 C121.671374,375.416183 111.43048,370.691154 108.043501,361.381023 C104.657771,352.070891 109.409037,341.700065 118.656701,338.216886 C127.904365,334.733707 138.14526,339.458737 141.530989,348.768868 C144.917968,358.080249 140.165453,368.451076 130.919038,371.933005" id="Fill-30" fill="#B70A07"></path>
            <path d="M176.415247,354.605816 C166.782784,356.737201 157.316484,350.592914 155.271304,340.882992 C153.227373,331.174319 159.379156,321.575588 169.012868,319.444203 C178.64658,317.312817 188.11288,323.457104 190.156811,333.167027 C192.200742,342.8757 186.048959,352.47443 176.415247,354.605816" id="Fill-31" fill="#B70A07"></path>
            <g id="Group-35" transform="translate(0.000000, 319.511668)">
                <mask id="mask-4" fill="white">
                    <use xlink:href="#path-3"></use>
                </mask>
                <g id="Clip-33"></g>
                <path d="M236.538807,46.9541962 C226.905094,49.0855816 217.438795,42.9412947 215.394863,33.2326216 C213.349683,23.5226993 219.502715,13.9239687 229.135178,11.7925833 C238.76889,9.66244721 248.23519,15.8054848 250.279121,25.5154072 C252.323053,35.2240802 246.171269,44.8228108 236.538807,46.9541962" id="Fill-32" fill="#B70A07" mask="url(#mask-4)"></path>
                <path d="M230.077186,193.252692 C224.361425,214.666494 171.445346,192.824166 158.965622,198.09516 C158.965622,198.09516 163.052235,146.349719 106.465576,179.808473 C106.465576,179.808473 106.034551,140.64895 40.3026745,146.029886 C40.3026745,146.029886 52.3513739,112.464939 1.57292747,98.6958889 C1.57292747,98.6958889 34.8492762,67.1286464 8.56302213,28.7674566 C-5.24100932,8.62174143 1.64039219,-7.10171365e-14 1.64039219,-7.10171365e-14 C1.64039219,-7.10171365e-14 71.7962056,38.7984611 91.8582145,14.6111094 C91.8582145,14.6111094 110.221112,75.4455472 169.928639,54.2503808 C169.928639,54.2503808 166.917714,110.853281 215.006317,108.054745 C215.006317,108.054745 238.180448,162.886072 230.077186,193.252692" id="Fill-34" fill="#315C0F" mask="url(#mask-4)"></path>
            </g>
            <path d="M232.014922,610.04224 C237.46957,564.60725 231.568906,516.078877 204.553033,478.005037 C159.771451,415.548947 82.039599,382.425018 18.3529027,342.291006 C71.6437853,374.046899 128.802645,400.274434 176.037944,441.261751 C228.012016,486.130787 244.858206,543.658204 237.986799,610.678158 C237.537035,614.587363 231.631373,614.085126 232.014922,610.04224" id="Fill-36" fill="#60922E"></path>
            <path d="M100.987191,392.514742 L98.3398251,360.676391 L106.899099,391.456545 C107.903574,395.689332 101.516914,396.838731 100.987191,392.514742" id="Fill-37" fill="#60922E"></path>
            <path d="M40.7249537,400.481826 L103.85694,390.078516 C105.496083,389.807408 107.042774,390.916828 107.312633,392.55597 C107.608728,394.291313 106.309408,395.930456 104.554075,396.044146 L40.7249537,400.481826" id="Fill-38" fill="#60922E"></path>
            <path d="M151.018528,420.879909 L161.386856,398.210514 L156.741785,422.702706 C155.719819,427.059178 149.33191,425.030239 151.018528,420.879909" id="Fill-39" fill="#60922E"></path>
            <path d="M78.5589191,439.807511 L152.775109,421.657003 C154.388016,421.262209 156.014665,422.250442 156.409459,423.8621 C156.831738,425.553715 155.692334,427.270317 153.971983,427.542675 L78.5589191,439.807511" id="Fill-40" fill="#60922E"></path>
            <path d="M163.472015,477.101759 C177.142367,474.796714 190.997621,473.935914 204.825391,473.481152 L201.918161,476.23846 C202.201763,470.506458 202.733984,464.793195 203.548558,459.098673 C204.453085,453.360424 205.443817,447.677146 207.249123,442.10381 C208.271089,447.873293 208.468485,453.637779 208.57468,459.447241 C208.61341,466.106259 208.217367,472.775271 207.582699,479.39431 C192.861647,479.449281 178.089372,479.084472 163.472015,477.101759" id="Fill-41" fill="#60922E"></path>
        </g>
    </g>
</svg>