<?xml version="1.0" encoding="UTF-8"?>
<svg width="447px" height="447px" viewBox="0 0 447 447" version="1.1" xmlns="http://www.w3.org/2000/svg" xmlns:xlink="http://www.w3.org/1999/xlink">
    <title>corner-7</title>
    <g id="corner-7" stroke="none" stroke-width="1" fill="none" fill-rule="evenodd">
        <g id="Group" transform="translate(-24.439432, 2.074226)">
            <g id="Christmas/Stuffs/Snow-Ball-1" transform="translate(230.000000, 258.111111) rotate(-345.000000) translate(-230.000000, -258.111111) ">
                <g id="Ball">
                    <path d="M460,230 C460,284.756869 440.867739,335.016934 408.926402,374.501755 C366.775226,426.659386 302.284436,460 230,460 C156.358998,460 90.784175,425.394342 48.7245218,371.542529 C18.1844951,332.509219 0,283.400302 0,230 C0,102.960729 102.960729,0 230,0 C357.016898,0 460,102.960729 460,230" id="Fill-592" fill="#A8CAD4"></path>
                    <g id="Christmas/Trees/Tree-3" transform="translate(212.332960, 143.745170)" fill="#6E9985">
                        <path d="M128.633652,173.131285 L106.902188,135.483542 C116.012632,129.618471 120.012537,117.169411 113.931463,106.633405 L91.9076197,68.4779509 C101.850531,66.1221746 107.373243,54.5910555 101.919565,45.1415491 L80.4419018,7.93246764 C74.3364628,-2.64415588 59.0738807,-2.64415588 52.9684417,7.93246764 L31.4907785,45.1415491 C26.1914118,54.3209535 31.2471294,65.4783978 40.6540129,68.2708051 L18.5103757,106.633405 C12.4293016,117.169411 16.4292068,129.618471 25.5396506,135.483542 L3.8081863,173.131285 C-7.01186165,191.877985 6.51269069,215.309836 28.154817,215.309836 L104.289052,215.309836 C125.929148,215.309836 139.4537,191.877985 128.633652,173.131285" id="Fill-594"></path>
                    </g>
                    <g id="Christmas/Snowman/Snowman-2" transform="translate(99.550938, 148.137242)">
                        <path d="M125.492216,63.4990219 L89.7709581,77.5111141 L82.0247429,57.740349 C80.2025825,53.0866088 82.4945186,47.832583 87.1475353,46.0093424 L106.023978,38.6044624 C110.674961,36.7812218 115.92384,39.0745166 117.748034,43.7302916 L125.492216,63.4990219" id="Fill-593" fill="#CF4D4D"></path>
                        <path d="M156.084581,85.3962227 C160.363404,102.904216 147.411016,121.114238 127.151684,126.071174 C106.894385,131.028109 87.0031453,120.853775 82.7263559,103.345782 C78.4475329,85.8398236 91.3999207,67.6298013 111.657219,62.672866 C131.916552,57.7159306 151.807791,67.8902643 156.084581,85.3962227" id="Fill-595" fill="#F7F7F6"></path>
                        <path d="M18.4504619,0.051877431 C19.8252169,-0.228934177 21.1674332,0.658267715 21.4501121,2.03587249 L21.4501121,2.03587249 L32.852,57.908 L35.5250809,6.92158749 C35.5924357,5.63172617 36.6099431,4.61571233 37.8649886,4.5200327 L38.0299787,4.51282517 L38.1973116,4.51637502 C39.5424564,4.58670002 40.5895999,5.69220892 40.6046468,7.02095749 L40.6010991,7.18815503 L36.9018695,77.7797165 L50.266,150.13 L74.9354001,147.447449 C76.2766403,147.302892 77.4848107,148.227275 77.7142624,149.536476 L77.7377852,149.702081 C77.8842088,151.042163 76.9604515,152.252847 75.6502297,152.482581 L75.4844886,152.506127 L51.192,155.148 L60.6204593,206.185911 C60.8644987,207.512319 60.0327345,208.788092 58.7459093,209.113072 L58.5827309,209.148677 C57.2571092,209.394815 55.9820915,208.562636 55.6555052,207.27325 L55.6196866,207.109741 L46.123,155.699 L42.4252931,156.101737 C41.0860052,156.246294 39.8760387,155.321911 39.6464402,154.012709 L39.6229081,153.847104 C39.4784368,152.507023 40.4022721,151.296339 41.7106978,151.066604 L41.8762046,151.043058 L45.197,150.682 L31.917,78.784 L0.285800637,17.7206252 C-0.333957596,16.5252258 0.0884719541,15.0644529 1.22195809,14.377063 L1.37380935,14.2918748 C2.61840996,13.6447871 4.15382413,14.1311203 4.80052837,15.3784936 L4.80052837,15.3784936 L28.2039008,60.5606743 L16.4676423,3.05330585 C16.1869971,1.67773594 17.0736734,0.332689039 18.4504619,0.051877431 Z" id="Wood" fill="#131514"></path>
                        <path d="M186.485781,151.191603 C193.377859,179.386717 172.514529,208.717286 139.88647,216.702103 C107.25841,224.684885 75.2221463,208.298103 68.3321024,180.100955 C61.4400248,151.903807 82.3033544,122.575273 114.931414,114.590456 C147.557439,106.607673 179.593703,122.994455 186.485781,151.191603" id="Fill-597" fill="#F7F7F6"></path>
                        <path d="M114.193195,88.8554961 C114.477907,90.322635 113.743756,91.7002398 112.55203,91.9322146 C111.360305,92.1641894 110.162478,91.1610001 109.877766,89.6938612 C109.593053,88.2267223 110.327205,86.8491175 111.51893,86.6171427 C112.712689,86.3851679 113.908482,87.3863223 114.193195,88.8554961" id="Fill-601" fill="#131514"></path>
                        <path d="M125.951823,85.1500038 C126.224334,86.6191776 125.47798,87.9927126 124.284221,88.2145131 C123.090462,88.4363136 121.90077,87.4229499 121.62826,85.9537762 C121.355749,84.4825675 122.102103,83.1110673 123.295862,82.8892669 C124.489621,82.6674664 125.679313,83.6787952 125.951823,85.1500038" id="Fill-602" fill="#131514"></path>
                        <path d="M107.587863,104.52804 C107.748523,104.715247 110.750206,107.724815 119.065847,108.084987 C119.627137,108.11144 120.10098,107.675978 120.127418,107.114355 C120.151822,106.552732 119.716618,106.078608 119.155328,106.052155 C115.228328,105.877156 112.667949,105.095767 111.108131,104.389669 C110.329239,104.035602 109.800487,103.699849 109.475101,103.465839 L109.13548,103.195202 L109.072436,103.136191 L109.060234,103.1484 L109.072436,103.138226 L109.072436,103.136191 L109.060234,103.1484 L109.072436,103.138226 C108.688074,102.727183 108.045437,102.706834 107.634638,103.091424 C107.225872,103.476014 107.205535,104.119031 107.587863,104.530074" id="Fill-603" fill="#131514"></path>
                        <path d="M119.627137,93.7106881 C119.856941,93.3993535 120.210798,93.1979017 120.59516,93.1510998 C123.59481,92.7746494 139.772585,90.7987938 139.593622,94.1258009 C139.500074,95.8717166 124.672651,99.7562771 120.902243,100.313831 C120.418232,100.385051 119.932187,100.218192 119.614935,99.8458113 C118.766899,98.8487266 117.493827,96.6185127 119.627137,93.7106881" id="Fill-604" fill="#D56E4F"></path>
                    </g>
                    <path d="M408.926402,374.501755 C366.775226,426.659386 302.284436,460 230,460 C156.358998,460 90.784175,425.394342 48.7245218,371.542529 C67.2018888,365.127822 204.924881,321.552964 408.834879,372.311318 L408.926402,374.501755" id="Fill-599" fill="#D1DADF"></path>
                </g>
                <g id="Socle" transform="translate(92.773263, 404.645111)">
                    <path d="M274.425,9.94551396 L274.425,85.7871226 C274.425,100.268009 262.689788,112.02356 248.188563,112.02356 L26.2364374,112.02356 C11.755551,112.02356 0,100.268009 0,85.7871226 L0,9.94551396 C39.4970244,4.18976839 85.542989,0.0204120502 136.856579,0 C188.475245,-0.020264597 234.765269,4.16943006 274.425,9.94551396" id="Fill-605" fill="#132134"></path>
                    <path d="M274.425,56.4389217 L274.425,62.6421104 C272.289476,61.2387661 270.336997,59.7133918 268.384518,58.1880175 C262.038961,53.2458049 256.059494,48.5679905 243.917515,48.5679905 C231.795874,48.5679905 225.816407,53.2458049 219.47085,58.1880175 C212.738865,63.4556433 205.76282,68.9063141 191.892083,68.9063141 C178.001008,68.9063141 171.045301,63.4556433 164.313316,58.1880175 C157.967759,53.2458049 151.988292,48.5679905 139.846313,48.5679905 C127.724672,48.5679905 121.745205,53.2458049 115.399648,58.1880175 C108.667663,63.4556433 101.691618,68.9063141 87.8208813,68.9063141 C73.9298063,68.9063141 66.9740996,63.4556433 60.2421145,58.1880175 C53.8965575,53.2458049 47.9170904,48.5679905 35.7954495,48.5679905 C23.6534703,48.5679905 17.6740032,53.2458049 11.3284462,58.1880175 C7.91160788,60.8726762 4.43375454,63.5980116 0,65.631844 L0,59.916775 C2.98973357,58.2693708 5.57270066,56.2558768 8.19634441,54.1813678 C14.9486678,48.913742 21.9043745,43.4834096 35.7954495,43.4834096 C49.6661862,43.4834096 56.6422312,48.913742 63.3742163,54.1813678 C69.6994349,59.1439187 75.6789021,63.8217332 87.8208813,63.8217332 C99.9425221,63.8217332 105.942328,59.1439187 112.267546,54.1813678 C118.999531,48.913742 125.975576,43.4834096 139.846313,43.4834096 C153.737388,43.4834096 160.693095,48.913742 167.42508,54.1813678 C173.770637,59.1439187 179.750104,63.8217332 191.892083,63.8217332 C204.013724,63.8217332 210.013529,59.1439187 216.338748,54.1813678 C223.070733,48.913742 230.046778,43.4834096 243.917515,43.4834096 C257.80859,43.4834096 264.764297,48.913742 271.496282,54.1813678 C272.472521,54.9338857 273.428422,55.706742 274.425,56.4389217" id="Fill-617" fill="#F7F7F6"></path>
                </g>
                <path d="M312.648846,93.0722364 C312.648846,96.4463643 309.913341,99.1818688 306.539213,99.1818688 C303.165085,99.1818688 300.429581,96.4463643 300.429581,93.0722364 C300.429581,89.6981085 303.165085,86.962604 306.539213,86.962604 C309.913341,86.962604 312.648846,89.6981085 312.648846,93.0722364 M317.680547,226.042162 C317.680547,229.41629 314.945042,232.151795 311.570914,232.151795 C308.196787,232.151795 305.461282,229.41629 305.461282,226.042162 C305.461282,222.668034 308.196787,219.93253 311.570914,219.93253 C314.945042,219.93253 317.680547,222.668034 317.680547,226.042162 M369.431411,314.090833 C369.431411,317.464961 366.695907,320.200465 363.321779,320.200465 C359.947651,320.200465 357.212146,317.464961 357.212146,314.090833 C357.212146,310.716705 359.947651,307.9812 363.321779,307.9812 C366.695907,307.9812 369.431411,310.716705 369.431411,314.090833 M80.9709339,321.1584 C80.9709339,324.532528 78.2354294,327.268033 74.8613015,327.268033 C71.4871736,327.268033 68.7516691,324.532528 68.7516691,321.1584 C68.7516691,317.784272 71.4871736,315.048768 74.8613015,315.048768 C78.2354294,315.048768 80.9709339,317.784272 80.9709339,321.1584 M153.804504,260.184106 C153.804504,263.558234 151.069,266.293738 147.694872,266.293738 C144.320744,266.293738 141.58524,263.558234 141.58524,260.184106 C141.58524,256.809978 144.320744,254.074474 147.694872,254.074474 C151.069,254.074474 153.804504,256.809978 153.804504,260.184106 M411.118873,178.245068 C411.118873,181.619196 408.383369,184.3547 405.009241,184.3547 C401.635113,184.3547 398.899608,181.619196 398.899608,178.245068 C398.899608,174.87094 401.635113,172.135436 405.009241,172.135436 C408.383369,172.135436 411.118873,174.87094 411.118873,178.245068 M190.102311,40.2434409 C190.102311,43.6175688 187.366806,46.3530733 183.992678,46.3530733 C180.61855,46.3530733 177.883046,43.6175688 177.883046,40.2434409 C177.883046,36.869313 180.61855,34.1358423 183.992678,34.1358423 C187.366806,34.1358423 190.102311,36.869313 190.102311,40.2434409 M104.929479,107.089409 C104.929479,110.463537 102.193975,113.197008 98.8198467,113.197008 C95.4457188,113.197008 92.7102143,110.463537 92.7102143,107.089409 C92.7102143,103.715281 95.4457188,100.979777 98.8198467,100.979777 C102.193975,100.979777 104.929479,103.715281 104.929479,107.089409 M185.788552,150.21479 C185.788552,153.588918 183.053048,156.322389 179.67892,156.322389 C176.304792,156.322389 173.569287,153.588918 173.569287,150.21479 C173.569287,146.838629 176.304792,144.105158 179.67892,144.105158 C183.053048,144.105158 185.788552,146.838629 185.788552,150.21479 M52.2206797,211.907027 C52.2206797,215.281155 49.4851751,218.01666 46.1110472,218.01666 C42.7369194,218.01666 40.0014148,215.281155 40.0014148,211.907027 C40.0014148,208.532899 42.7369194,205.797395 46.1110472,205.797395 C49.4851751,205.797395 52.2206797,208.532899 52.2206797,211.907027" id="Snow" fill="#F7F7F6"></path>
                <path d="M130.435771,55.1432968 C130.273064,55.2124471 113.768515,62.0176501 94.7969263,77.8225614 C75.8334733,93.6213712 54.3704405,118.484972 44.6141466,154.581428 C44.2480568,155.937995 45.0493868,157.333204 46.4059529,157.699293 C47.7604853,158.065383 49.1577281,157.264053 49.5238179,155.907487 C58.9343603,121.088277 79.6367399,97.0768523 98.051058,81.7295534 C107.254149,74.0599715 115.871497,68.570658 122.17231,65.0073837 C125.322716,63.2277804 127.891446,61.9281615 129.664948,61.0780196 C130.549665,60.6529486 131.237101,60.3417723 131.696747,60.1363552 C131.92657,60.0346636 132.101479,59.9594118 132.215374,59.9105998 L132.339438,59.8577202 L132.369945,59.8455172 C133.669564,59.3106193 134.287849,57.8238878 133.752951,56.5263028 C133.220087,55.2287177 131.733356,54.6083988 130.435771,55.1432968" id="Light" fill="#F7F7F6"></path>
            </g>
        </g>
    </g>
</svg>