<?xml version="1.0" encoding="UTF-8"?>
<svg width="447px" height="375px" viewBox="0 0 447 375" version="1.1" xmlns="http://www.w3.org/2000/svg" xmlns:xlink="http://www.w3.org/1999/xlink">
    <title>corner-12</title>
    <defs>
        <polygon id="path-1" points="0 0 430 0 430 549.117429 0 549.117429"></polygon>
    </defs>
    <g id="corner-12" stroke="none" stroke-width="1" fill="none" fill-rule="evenodd">
        <g id="Stickers-08-Copy" transform="translate(165.259674, 258.872407) scale(1, -1) rotate(-210.000000) translate(-165.259674, -258.872407) translate(-49.740326, -15.686307)">
            <g id="Group-3">
                <mask id="mask-2" fill="white">
                    <use xlink:href="#path-1"></use>
                </mask>
                <g id="Clip-2"></g>
                <path d="M318.658888,549.117429 C280.251362,549.117429 236.51553,528.241413 228.955075,469.643428 C225.793484,445.150767 218.472454,436.89732 215.367373,435.405752 L214.204455,435.585692 C210.934306,437.490676 204.005872,446.001393 200.954327,469.643428 C193.393873,528.241413 149.65804,549.117429 111.250514,549.117429 C101.584315,549.117429 91.8363253,547.865284 82.2771981,545.396686 C57.4811672,538.993201 37.2535307,521.072068 28.1687908,497.4568 C18.1159439,471.331295 22.4746561,441.007686 40.1266224,414.263544 C70.118607,368.821999 79.1602208,340.171385 70.3595184,318.467051 C67.3079738,310.9408 58.2886666,305.200565 47.8447105,298.554681 C28.5747711,286.294967 2.18307385,269.504036 0.0386647957,229.474075 C-1.28634801,204.721171 7.94561552,189.488728 15.9254345,181.0717 C28.3769858,167.933105 47.7510227,160.699814 70.4740257,160.699814 C78.4642544,160.699814 86.5184288,161.61141 93.1539026,163.269535 C101.325558,165.314308 108.850323,169.73994 116.073204,174.692008 C105.953437,157.087629 100.54334,136.993832 100.54334,116.196634 C100.54334,52.126093 151.869369,0 214.953957,0 C278.040033,0 329.366062,52.126093 329.366062,116.196634 C329.366062,136.993832 323.955965,157.087629 313.836198,174.690521 C321.05908,169.736966 328.580869,165.314308 336.749551,163.269535 C343.389486,161.61141 351.443661,160.699814 359.435376,160.699814 C382.158379,160.699814 401.530929,167.933105 413.983968,181.0717 C421.962299,189.491702 431.197237,204.721171 429.872224,229.474075 C427.724841,269.504036 401.334631,286.294967 382.064692,298.554681 C371.620735,305.200565 362.599941,310.937826 359.549884,318.467051 C350.747694,340.171385 359.790795,368.821999 389.784267,414.263544 C407.434746,441.007686 411.791971,471.331295 401.740611,497.4568 C392.654384,521.072068 372.428235,538.993201 347.632204,545.396686 C338.073077,547.865284 328.325087,549.117429 318.658888,549.117429" id="Fill-1" fill="#D77552" mask="url(#mask-2)"></path>
            </g>
            <path d="M342.381227,525.030748 C307.736083,533.978674 265.360954,524.424008 252.675927,480.832425 C252.675927,480.832425 270.873662,448.828384 286.968627,463.125436 C303.041285,477.422488 308.414204,455.065313 315.56273,452.403391 C322.711256,449.716187 329.859782,455.065313 335.232701,452.403391 C340.581827,449.716187 343.689882,436.306939 354.645403,436.306939 C365.600924,436.306939 373.637253,450.137039 380.342621,440.979431 C396.671062,480.201892 376.113287,516.341579 342.381227,525.030748" id="Fill-4" fill="#F4F1D7"></path>
            <path d="M83.215563,231.666072 C80.5298468,239.702401 65.3449918,243.277407 65.3449918,254.887256 C65.3449918,266.520898 49.553397,274.557227 49.553397,274.557227 C35.1165571,264.629297 22.3140484,252.341328 21.0291875,228.349822 C18.3434713,178.310141 70.1810655,179.197944 88.0516367,183.660754 C94.6856234,191.976659 93.0512922,201.274055 83.215563,206.646975 C73.3813209,211.996101 85.9027663,223.63123 83.215563,231.666072" id="Fill-5" fill="#F4F1D7"></path>
            <path d="M408.865343,228.349822 C407.580483,252.341328 394.779461,264.629297 380.342621,274.557227 C380.201346,274.673222 380.061558,274.766909 379.92177,274.860597 C379.31503,275.257655 378.730597,275.678506 378.123857,276.075564 C377.982581,276.169252 377.842793,276.239146 377.703005,276.332834 C377.282154,276.61241 376.885096,276.869679 376.464245,277.150743 C375.530341,275.468824 375.133283,271.730236 374.54885,265.633095 C373.403777,253.578601 371.861647,247.73873 361.139602,247.73873 C350.417556,247.73873 348.618156,235.241078 348.618156,229.120144 C348.618156,222.976903 345.044637,214.683304 333.900253,211.108297 C325.069809,208.282793 329.95347,193.752265 332.381916,187.771119 C335.653553,185.879518 338.830014,184.407282 341.844381,183.660754 C359.714953,179.197944 411.552547,178.310141 408.865343,228.349822" id="Fill-7" fill="#F4F1D7"></path>
            <path d="M380.342621,440.979431 C373.637253,450.137039 365.600924,436.306939 354.645403,436.306939 C343.689882,436.306939 340.581827,449.716187 335.232701,452.403391 C329.859782,455.065313 322.711256,449.716187 315.56273,452.403391 C308.414204,455.065313 303.041285,477.422488 286.968627,463.125436 C270.873662,448.828384 252.675927,480.832425 252.675927,480.832425 C251.41486,476.534684 250.433369,471.932087 249.802835,466.956225 C242.654309,411.545111 214.948009,414.230827 214.948009,414.230827 C214.948009,414.230827 187.241709,411.545111 180.093183,466.956225 C179.532543,471.395241 178.692328,475.553193 177.617149,479.455364 C173.248027,473.356736 163.671054,462.844372 150.238012,464.831148 C131.479638,467.586758 121.645396,475.810463 116.270989,464.550085 C110.921863,453.291194 106.249371,447.918274 92.0460075,449.716187 C78.2411883,451.445693 61.7000913,447.940581 57.9867838,425.397518 C87.281315,380.895825 103.212698,343.518865 89.8510368,310.555639 C82.8660927,293.339395 65.2289975,285.349166 49.553397,274.557227 C49.553397,274.557227 65.3449918,266.520898 65.3449918,254.887256 C65.3449918,243.277407 80.5298468,239.702401 83.215563,231.666072 C85.9027663,223.63123 73.3813209,211.996101 83.215563,206.646975 C93.0512922,201.274055 94.6856234,191.976659 88.0516367,183.660754 C105.922208,188.14587 129.167186,217.62629 147.037757,211.365567 C151.640355,209.753542 153.625643,205.806759 154.046495,200.853204 C154.630928,193.728472 151.897624,186.743528 147.037757,181.510396 C131.246162,164.457734 121.574015,141.49382 121.574015,116.19366 C121.574015,63.631844 163.389991,21.021752 214.948009,21.021752 C266.528334,21.021752 308.34431,63.631844 308.34431,116.19366 C308.34431,141.49382 298.67365,164.457734 282.880568,181.510396 C278.022188,186.743528 275.26509,193.728472 275.873317,200.853204 C276.270375,205.806759 278.279457,209.753542 282.880568,211.365567 C297.738259,216.574905 316.286951,197.092309 332.381916,187.771119 C329.95347,193.752265 325.069809,208.282793 333.900253,211.108297 C345.044637,214.683304 348.618156,222.976903 348.618156,229.120144 C348.618156,235.241078 350.417556,247.73873 361.139602,247.73873 C371.861647,247.73873 373.403777,253.578601 374.54885,265.633095 C375.133283,271.730236 375.530341,275.468824 376.464245,277.150743 C361.863823,286.705409 346.469286,294.740251 340.068775,310.555639 C326.659526,343.634859 342.754491,381.153095 372.236398,425.842163 C375.576441,430.911713 378.263645,435.979775 380.342621,440.979431" id="Fill-8" fill="#E2AA7D"></path>
            <path d="M194.950874,97.2449354 C194.950874,102.436428 190.74236,106.643455 185.552355,106.643455 C180.360862,106.643455 176.153835,102.436428 176.153835,97.2449354 C176.153835,92.0549301 180.360862,87.8464158 185.552355,87.8464158 C190.74236,87.8464158 194.950874,92.0549301 194.950874,97.2449354" id="Fill-9" fill="#302825"></path>
            <path d="M250.772429,97.2449354 C250.772429,102.436428 246.565402,106.643455 241.37391,106.643455 C236.183905,106.643455 231.97539,102.436428 231.97539,97.2449354 C231.97539,92.0549301 236.183905,87.8464158 241.37391,87.8464158 C246.565402,87.8464158 250.772429,92.0549301 250.772429,97.2449354" id="Fill-10" fill="#302825"></path>
            <path d="M213.041537,152.212891 C201.413843,152.212891 192.864462,135.557287 192.503095,134.843475 C191.822,133.493181 192.36182,131.845466 193.712114,131.161397 C195.06092,130.478814 196.713097,131.017147 197.397166,132.367441 C199.43599,136.387093 206.19192,146.728438 213.04005,146.728438 L213.206606,146.726951 C218.943867,146.585676 223.565797,138.906253 226.43294,132.489384 C227.051577,131.106374 228.675499,130.481789 230.055534,131.101912 C231.441519,131.720549 232.058668,133.341496 231.443006,134.724506 C226.33033,146.163338 220.237651,152.044848 213.330036,152.20843 L213.041537,152.212891" id="Fill-11" fill="#302825"></path>
            <path d="M231.97539,259.643026 C231.97539,269.028161 224.367348,276.636203 214.982213,276.636203 C205.597077,276.636203 197.989035,269.028161 197.989035,259.643026 C197.989035,250.25789 205.597077,242.649848 214.982213,242.649848 C224.367348,242.649848 231.97539,250.25789 231.97539,259.643026" id="Fill-12" fill="#F4F1D7"></path>
            <path d="M231.97539,326.528661 C231.97539,335.913797 224.367348,343.521839 214.982213,343.521839 C205.597077,343.521839 197.989035,335.913797 197.989035,326.528661 C197.989035,317.142038 205.597077,309.533996 214.982213,309.533996 C224.367348,309.533996 231.97539,317.142038 231.97539,326.528661" id="Fill-13" fill="#F4F1D7"></path>
        </g>
    </g>
</svg>