<?xml version="1.0" encoding="UTF-8"?>
<svg width="447px" height="277px" viewBox="0 0 447 277" version="1.1" xmlns="http://www.w3.org/2000/svg" xmlns:xlink="http://www.w3.org/1999/xlink">
    <title>corner-5</title>
    <g id="corner-5" stroke="none" stroke-width="1" fill="none" fill-rule="evenodd">
        <g id="Group-3-Copy" transform="translate(223.090000, 138.579308) scale(1, -1) translate(-223.090000, -138.579308) translate(-0.410000, -0.148000)">
            <path d="M447,0 C437.614616,5.29965111 438.190665,44.7632249 435.816219,61.987091 C432.612824,85.0754173 417.0876,89.2890052 413.097407,68.5119 C404.569071,24.2235644 360.690995,22.9422065 353.033758,55.7390665 C346.008769,85.7877511 351.75521,177.983696 327.89835,166.056671 C304.04149,154.128241 324.062706,61.2733522 292.534559,51.9090429 C264.406506,43.533852 258.041867,65.54033 255.99057,91.6522112 C254.388873,155.700434 249.021782,228.267157 232.61141,220.064781 C207.307402,207.398727 224.588873,93.0796888 201.434512,84.1635738 C178.266101,75.2474587 178.055351,110.949854 176.481754,125.150165 C169.793965,184.865375 148.73305,152.860934 146.175955,122.480669 C143.506459,90.8471476 122.473645,101.981754 120.689298,126.933107 C119.565299,142.690156 117.261103,278.778227 88.2479019,277.444884 C61.1876473,276.202867 68.6481848,136.297416 65.0794908,90.8471476 C61.5107968,45.3968788 38.3423857,76.5822065 30.3198491,115.798501 C23.8006601,147.696162 10.4953324,178.115766 0,168.684017 L0,0 L447,0" id="Fill-675" fill="#A8CAD4"></path>
            <path d="M58.2512023,61.8213013 L58.3776521,61.2424422 L58.2512023,61.8213013 L58.3776521,61.2424422 L58.2512023,61.8213013 C58.3074022,61.8283263 61.7777463,62.581405 65.2902405,65.4363602 C67.0605375,66.8638378 68.8448845,68.8083545 70.2920321,71.4750401 C71.7391796,74.1417256 72.8350778,77.5404149 73.1863272,81.9240075 C77.45752,135.717152 78.3005186,170.267449 78.3005186,189.201198 C78.3005186,195.436577 78.2162188,199.977529 78.1178689,202.954719 C78.075719,204.444017 78.0335691,205.54132 77.9914191,206.264894 C77.9773692,206.625978 77.9633192,206.894333 77.9492692,207.069958 C77.9492692,207.246987 77.9352192,207.325667 77.9352192,207.325667 C77.8790193,208.293711 78.6096181,209.129684 79.5790665,209.191504 C80.5485149,209.253324 81.3774635,208.51851 81.4477133,207.550467 C81.4477133,207.509722 81.8130127,201.739397 81.8130127,189.201198 C81.8130127,170.163479 80.9700141,135.520453 76.6847713,81.645818 C76.305422,76.7409712 75.0268741,72.7887129 73.298727,69.6541631 C70.7135314,64.947421 67.1448373,62.1219708 64.2364922,60.4949835 C61.3281471,58.8651862 59.0801509,58.404347 58.9396511,58.3776521 C57.9983027,58.1879774 57.0710042,58.8047713 56.8743046,59.7559547 C56.6916549,60.7071381 57.3098538,61.6316266 58.2512023,61.8213013" id="Fill-676" fill="#F7F7F6"></path>
            <path d="M213.995191,78.2639887 L214.30429,77.7118246 L213.981141,78.2611787 L213.995191,78.2639887 L214.30429,77.7118246 L213.981141,78.2611787 C214.023291,78.2864686 217.100236,80.0750306 220.120981,84.2858086 C223.155776,88.5050165 226.176521,95.1211504 226.19057,105.055889 C226.19057,105.494248 226.176521,105.941037 226.162471,106.393446 C226.148421,107.362895 226.907119,108.170769 227.876568,108.196058 C228.846016,108.221348 229.646865,107.455625 229.674965,106.486176 C229.689015,106.004262 229.703065,105.527968 229.703065,105.055889 C229.703065,94.2247619 226.28892,86.7333145 222.818576,82.0111174 C219.348232,77.2818953 215.863838,75.2924187 215.723338,75.2053088 C214.866289,74.7290146 213.798491,75.0268741 213.320792,75.8712777 C212.843093,76.7156813 213.138142,77.7862895 213.995191,78.2639887" id="Fill-677" fill="#F7F7F6"></path>
            <path d="M257.522018,34.6261669 C260.317963,32.2194059 261.765111,29.5794154 261.765111,29.5794154 C261.765111,29.5794154 258.758416,29.4768505 255.259972,30.6401886 C254.726073,30.8214333 254.121924,30.6570486 253.742574,30.2229043 C251.340028,27.432579 248.698633,25.9784064 248.698633,25.9784064 C248.698633,25.9784064 248.600283,28.9907214 249.766431,32.4863555 C249.935031,33.0300896 249.780481,33.6300236 249.344932,34.0051579 C246.548986,36.4119189 245.101839,39.0519095 245.101839,39.0519095 C245.101839,39.0519095 248.108534,39.1544743 251.606978,37.9897313 C252.154927,37.8084866 252.745026,37.9742763 253.124375,38.4084206 C255.526921,41.1987459 258.168317,42.6529184 258.168317,42.6529184 C258.168317,42.6529184 258.266667,39.6406035 257.114569,36.1449694 C256.931919,35.5998303 257.086469,35.0013013 257.522018,34.6261669" id="Fill-678" fill="#F7F7F6"></path>
            <path d="M100.639981,226.870589 C103.421876,224.463828 104.883074,221.823838 104.883074,221.823838 C104.883074,221.823838 101.862329,221.721273 98.3779349,222.884611 C97.8299859,223.065856 97.2258369,222.901471 96.8464875,222.467327 C94.4439415,219.677001 91.802546,218.222829 91.802546,218.222829 C91.802546,218.222829 91.7041961,221.235144 92.8703442,224.730778 C93.0529939,225.274512 92.8843942,225.874446 92.4488449,226.24958 C89.6669496,228.656341 88.205752,231.296332 88.205752,231.296332 C88.205752,231.296332 91.212447,231.398897 94.7108911,230.234154 C95.2588402,230.052909 95.8629892,230.218699 96.2282885,230.652843 C98.6448845,233.441763 101.27223,234.897341 101.27223,234.897341 C101.27223,234.897341 101.38463,231.883621 100.218482,228.389392 C100.035832,227.844253 100.204432,227.244319 100.639981,226.870589" id="Fill-679" fill="#F7F7F6"></path>
            <path d="M142.396511,159.394173 C145.192456,156.987412 146.639604,154.347421 146.639604,154.347421 C146.639604,154.347421 143.632909,154.244856 140.134465,155.408194 C139.586516,155.589439 138.996417,155.425054 138.617067,154.989505 C136.214521,152.200585 133.573126,150.746412 133.573126,150.746412 C133.573126,150.746412 133.460726,153.758727 134.626874,157.254361 C134.809524,157.798095 134.640924,158.398029 134.219425,158.773164 C131.423479,161.17852 129.962282,163.819915 129.962282,163.819915 C129.962282,163.819915 132.983027,163.92248 136.481471,162.757737 C137.01537,162.576492 137.619519,162.742282 137.998868,163.176426 C140.401414,165.965347 143.04281,167.420924 143.04281,167.420924 C143.04281,167.420924 143.14116,164.407204 141.975012,160.91157 C141.806412,160.367836 141.960962,159.767902 142.396511,159.394173" id="Fill-680" fill="#A8CAD4"></path>
            <path d="M430.055728,20.290976 C432.837624,17.88562 434.298821,15.2456294 434.298821,15.2456294 C434.298821,15.2456294 431.278076,15.1430646 427.793682,16.3064026 C427.245733,16.4876473 426.641584,16.3218576 426.276285,15.8877133 C423.859689,13.098793 421.218293,11.6446205 421.218293,11.6446205 C421.218293,11.6446205 421.119943,14.6569354 422.286091,18.1525695 C422.468741,18.6963036 422.300141,19.2962376 421.864592,19.671372 C419.082697,22.076728 417.621499,24.7167185 417.621499,24.7167185 C417.621499,24.7167185 420.642244,24.8206884 424.126638,23.6559453 C424.674587,23.4747006 425.278736,23.6390853 425.644036,24.0746346 C428.060632,26.8635549 430.702027,28.3177275 430.702027,28.3177275 C430.702027,28.3177275 430.800377,25.3054125 429.634229,21.8097784 C429.451579,21.2660443 429.620179,20.6661103 430.055728,20.290976" id="Fill-681" fill="#F7F7F6"></path>
            <path d="M33.8323432,56.8419896 C37.6258369,53.5135502 39.5928336,49.8774163 39.5928336,49.8774163 C39.5928336,49.8774163 35.4621405,49.7692315 30.6851485,51.4004338 C29.9404998,51.6547383 29.1115512,51.4341537 28.605752,50.8426497 C25.2759076,47.0421311 21.6369637,45.0751344 21.6369637,45.0751344 C21.6369637,45.0751344 21.5245639,49.2072324 23.1543612,53.9884394 C23.4072607,54.7330882 23.1965111,55.5564168 22.6064121,56.0748609 C18.7988685,59.4047053 16.8318718,63.0394342 16.8318718,63.0394342 C16.8318718,63.0394342 20.9625648,63.149024 25.7395568,61.5164168 C26.4842056,61.2621122 27.3131542,61.4826968 27.8330033,62.0742008 C31.1628477,65.8747195 34.8017916,67.8417162 34.8017916,67.8417162 C34.8017916,67.8417162 34.9001414,63.7096181 33.2703442,58.9284111 C33.0174446,58.1837624 33.2422442,57.3604338 33.8323432,56.8419896" id="Fill-682" fill="#F7F7F6"></path>
            <path d="M335.386987,136.759661 C338.140783,134.345875 339.57388,131.710099 339.57388,131.710099 C339.57388,131.710099 336.581235,131.631419 333.110891,132.814427 C332.576992,132.998482 331.972843,132.838312 331.593494,132.409788 C329.190948,129.654587 326.549552,128.228515 326.549552,128.228515 C326.549552,128.228515 326.465252,131.22397 327.6595,134.691504 C327.84215,135.231023 327.67355,135.828147 327.252051,136.203281 C324.498256,138.617067 323.065158,141.252843 323.065158,141.252843 C323.065158,141.252843 326.057803,141.332928 329.528147,140.148515 C330.062046,139.96446 330.666195,140.12463 331.045545,140.553154 C333.46214,143.308355 336.089486,144.735832 336.089486,144.735832 C336.089486,144.735832 336.173786,141.738972 334.993588,138.272843 C334.796888,137.733324 334.965488,137.1362 335.386987,136.759661" id="Fill-683" fill="#F7F7F6"></path>
            <path d="M274.705139,239.012579 C278.737482,242.050184 282.699576,243.231787 282.699576,243.231787 C282.699576,243.231787 281.954927,239.164319 279.383781,234.818661 C278.976332,234.142857 279.032532,233.291429 279.496181,232.66199 C282.545026,228.626836 283.725224,224.664743 283.725224,224.664743 C283.725224,224.664743 279.650731,225.403772 275.309288,227.980537 C274.634889,228.380962 273.777841,228.334597 273.145592,227.861113 C269.113248,224.823508 265.151155,223.641905 265.151155,223.641905 C265.151155,223.641905 265.895804,227.709373 268.46695,232.055031 C268.874399,232.730835 268.818199,233.582263 268.35455,234.211702 C265.305705,238.24826 264.125507,242.208949 264.125507,242.208949 C264.125507,242.208949 268.2,241.46992 272.541443,238.893154 C273.215842,238.49273 274.07289,238.539095 274.705139,239.012579" id="Fill-684" fill="#A8CAD4"></path>
        </g>
    </g>
</svg>