<?xml version="1.0" encoding="UTF-8"?>
<svg width="447px" height="351px" viewBox="0 0 447 351" version="1.1" xmlns="http://www.w3.org/2000/svg" xmlns:xlink="http://www.w3.org/1999/xlink">
    <title>corner-11</title>
    <defs>
        <polygon id="path-1" points="0 0 119.066367 0 119.066367 372.834632 0 372.834632"></polygon>
        <polygon id="path-3" points="0 2.72401488e-14 27.7982686 2.72401488e-14 27.7982686 49.7223926 0 49.7223926"></polygon>
    </defs>
    <g id="corner-11" stroke="none" stroke-width="1" fill="none" fill-rule="evenodd">
        <g id="Stickers-01-Copy" transform="translate(107.659350, 253.674192) scale(1, -1) rotate(-30.000000) translate(-107.659350, -253.674192) translate(-115.840650, 39.452892)">
            <g id="Group-4" transform="translate(184.761081, 0.000000)">
                <mask id="mask-2" fill="white">
                    <use xlink:href="#path-1"></use>
                </mask>
                <g id="Clip-2"></g>
                <path d="M118.416384,192.437872 C120.176057,196.586905 118.240033,201.377126 114.091,203.136799 C109.941967,204.89743 105.151747,202.960448 103.392074,198.811415 C101.631442,194.662382 103.568424,189.872162 107.717457,188.112489 C111.865532,186.351857 116.655752,188.288839 118.416384,192.437872" id="Fill-1" fill="#D8D2CE" mask="url(#mask-2)"></path>
                <path d="M0.0323733511,2.83502864 C4.00218019,28.0100446 4.79671661,53.6345631 4.71333342,79.082731 C4.63090865,104.463809 3.47216976,129.820926 2.60000071,155.183794 C1.91664188,175.084583 0.97259076,195.253732 2.90861438,215.114268 C5.42736193,240.942931 13.903695,265.993351 24.3773911,289.594629 C35.3916403,314.415027 48.8642561,338.03164 60.9711127,362.316277 C62.52089,365.424457 64.0476651,368.544139 65.549521,371.67628 C66.8060195,374.296621 70.7020275,372.007896 69.4493627,369.39714 C57.6597456,344.816349 44.0922454,321.132646 32.4703532,296.470389 C20.9979756,272.126329 11.5785498,246.491268 7.9499432,219.70226 C5.38519112,200.773316 6.29569728,181.283692 6.88513021,162.256031 C7.6576228,137.289952 8.87674262,112.338249 9.16714616,87.3597111 C9.46521712,61.7677792 8.98216965,36.0368752 5.67655309,10.6260861 C5.28647308,7.62333259 4.85997283,4.62537127 4.38842649,1.63411894 C3.93700712,-1.2287041 -0.416170734,-0.0134179855 0.0323733511,2.83502864" id="Fill-3" fill="#315C0F" mask="url(#mask-2)"></path>
            </g>
            <path d="M170.567514,288.258581 C160.995698,291.421392 149.039315,308.887776 154.284789,319.074902 C158.789398,327.823428 167.35199,323.644684 170.718946,315.923592 C173.37379,309.835661 173.315326,298.150512 170.567514,288.258581" id="Fill-5" fill="#315C0F"></path>
            <path d="M246.875598,297.065572 C246.41076,298.652728 247.301139,300.294514 248.849958,300.872446 C258.654672,304.528847 271.359587,318.839129 277.811721,311.892446 C295.122839,293.254864 252.171868,278.951292 246.875598,297.065572" id="Fill-6" fill="#315C0F"></path>
            <path d="M212.139308,354.152391 C209.606184,352.438723 206.131885,353.240927 204.298413,355.689709 C196.862932,365.619977 181.576013,390.285109 200.72827,388.807214 C212.364539,387.909167 221.984276,360.807712 212.139308,354.152391" id="Fill-7" fill="#315C0F"></path>
            <path d="M230.4539,252.367387 C237.059383,258.670965 267.241224,252.794846 257.270703,240.379376 C251.740576,233.493074 226.664278,240.27299 230.4539,252.367387" id="Fill-8" fill="#315C0F"></path>
            <path d="M246.527688,364.334725 C244.318513,371.726118 260.325211,392.188546 265.843837,379.917799 C268.904096,373.112005 254.17594,356.839822 246.527688,364.334725" id="Fill-9" fill="#315C0F"></path>
            <path d="M203.915042,205.598041 C208.28643,218.181236 229.172483,210.842556 226.012547,197.559709 C221.480143,178.503294 191.124826,175.098001 203.915042,205.598041" id="Fill-10" fill="#315C0F"></path>
            <path d="M168.960231,293.493513 C177.825686,290.670944 183.569542,281.526587 187.647651,273.737446 C192.000829,265.424046 195.439667,256.414827 197.594212,247.274303 C196.867724,247.827316 196.142195,248.37937 195.415706,248.932383 C208.113913,248.807787 220.261023,254.430882 232.997567,251.446338 C235.826845,250.783107 234.62881,246.427053 231.796657,247.091244 C219.62942,249.942566 207.604988,244.296469 195.415706,244.415314 C194.454404,244.424898 193.466265,245.107299 193.238159,246.073394 C191.245588,254.530558 188.146992,262.844917 184.201146,270.580386 C182.078229,274.74092 179.677368,278.858324 176.643945,282.427508 C174.240209,285.255828 171.369718,287.988305 167.759322,289.138418 C165.000009,290.017296 166.178875,294.3791 168.960231,293.493513" id="Fill-11" fill="#315C0F"></path>
            <path d="M208.060241,186.975794 C208.699512,181.780158 205.390062,176.410088 202.406477,172.447949 C199.235999,168.237577 195.296861,163.891108 190.490347,161.529543 C189.161008,160.876853 187.628483,161.413573 187.17323,162.879009 C181.739904,180.367436 173.033548,196.933856 163.547033,212.534181 C162.032717,215.024175 165.937351,217.296607 167.446874,214.81428 C177.131784,198.886173 185.981904,181.933506 191.528324,164.079918 C190.422299,164.530379 189.317232,164.979882 188.211207,165.429384 C192.325736,167.451666 195.764574,171.128194 198.506635,174.72709 C201.049343,178.06721 204.0866,182.555526 203.543172,186.975794 C203.189512,189.853951 207.709456,189.829032 208.060241,186.975794" id="Fill-12" fill="#315C0F"></path>
            <path d="M215.329914,361.689465 C211.986918,348.062543 209.618644,333.882607 210.382511,319.803307 C211.112833,306.353693 214.629303,292.693226 210.601032,279.429547 C209.342617,280.162744 208.08516,280.894983 206.826745,281.627221 C220.426831,292.351067 237.154267,295.856037 252.962571,302.012975 C255.672045,303.068204 256.846119,298.702566 254.162522,297.65788 C239.181341,291.822973 222.914909,288.60074 210.020225,278.433741 C208.392815,277.149448 205.526158,278.262182 206.245938,280.630457 C210.268458,293.877842 206.325487,307.701242 205.803144,321.144147 C205.257799,335.168817 207.644283,349.317124 210.973861,362.889417 C211.665845,365.711027 216.022857,364.516827 215.329914,361.689465" id="Fill-13" fill="#315C0F"></path>
            <path d="M220.353032,44.5870072 C211.110916,67.2480678 199.209163,88.7724333 186.570379,109.69299 C173.874089,130.707472 160.292213,151.164149 146.845474,171.701334 C135.912692,188.400975 124.746052,205.123619 115.505852,222.842069 C103.660647,245.552968 97.2832698,270.945547 93.6450789,296.17711 C89.4816697,325.047822 88.8596502,354.263569 86.5143781,383.304881 C86.2230161,386.92007 85.9038597,390.533342 85.5549921,394.143738 C85.2760897,397.027647 89.7452373,397.685128 90.0250981,394.784926 C92.8304155,365.767574 93.3594675,336.564288 96.7197144,307.596774 C99.8173522,280.882523 105.431821,253.791611 117.229105,229.445634 C125.58276,212.207357 136.30373,196.101941 146.742923,180.083741 C159.961555,159.799581 173.421711,139.670686 186.114167,119.049159 C198.992558,98.1257276 211.284391,76.7144565 221.186864,54.2000354 C222.325476,51.6132395 223.426709,49.0101503 224.493439,46.3936431 C225.591797,43.7014202 221.45139,41.891909 220.353032,44.5870072" id="Fill-14" fill="#315C0F"></path>
            <path d="M60.4336481,281.791113 C50.6068906,279.546475 31.3396219,288.310337 30.5585034,299.74246 C29.8885626,309.558675 39.3779536,310.412634 46.2537127,305.545739 C51.6745788,301.709153 57.6685846,291.678251 60.4336481,281.791113" id="Fill-15" fill="#315C0F"></path>
            <path d="M121.185494,328.799108 C119.966374,329.917593 119.879157,331.782693 120.906592,333.079445 C127.405689,341.279751 130.876155,360.098476 139.991759,357.491553 C164.447954,350.495032 135.087485,316.036687 121.185494,328.799108" id="Fill-16" fill="#315C0F"></path>
            <path d="M58.6643908,364.700845 C51.5346484,368.707072 19.8931219,390.85154 40.7734241,396.637567 C53.6268957,400.200042 75.6553941,370.685266 58.6643908,364.700845" id="Fill-17" fill="#315C0F"></path>
            <path d="M130.252219,282.051805 C132.644454,290.863588 161.514208,301.446544 159.40375,285.66316 C158.232552,276.909841 133.264556,269.740803 130.252219,282.051805" id="Fill-18" fill="#315C0F"></path>
            <path d="M86.0917115,386.190707 C80.3775666,391.373883 83.4924561,417.165168 94.5622941,409.518833 C100.701981,405.277791 96.5136525,383.73234 86.0917115,386.190707" id="Fill-19" fill="#315C0F"></path>
            <path d="M131.731072,228.297438 C128.964092,241.328219 150.634138,245.851038 154.801381,232.848052 C160.779094,214.195136 136.562505,195.578639 131.731072,228.297438" id="Fill-20" fill="#315C0F"></path>
            <path d="M78.2719013,235.560402 C84.1911497,233.713512 105.123207,223.72478 97.2593091,214.016868 C87.9568115,202.533948 53.6221036,235.032308 78.2719013,235.560402" id="Fill-21" fill="#315C0F"></path>
            <path d="M56.6430672,285.501185 C65.645577,287.654772 75.379367,282.539644 82.8205984,278.03216 C90.8665975,273.158556 98.3950458,267.180843 104.979443,260.460349 C104.088105,260.681746 103.197726,260.904101 102.307347,261.125498 C113.060904,267.463579 120.360288,278.527667 132.614742,282.47543 C135.359679,283.360058 137.1874,279.225402 134.421378,278.335023 C122.326023,274.438056 114.796616,263.281002 104.113983,256.985091 C103.198685,256.445496 102.086909,256.9918 101.441887,257.65024 C95.3731237,263.844557 88.3488084,269.309511 80.9890433,273.879293 C74.3356394,278.011074 65.4126791,282.974771 57.2842552,281.030121 C54.4578524,280.35443 53.8348745,284.829328 56.6430672,285.501185" id="Fill-22" fill="#315C0F"></path>
            <path d="M144.747477,214.741439 C148.098139,210.477395 148.090472,204.209279 147.594965,199.077858 C147.077414,193.721207 145.802705,187.948598 142.860333,183.364439 C142.239272,182.395468 140.564899,182.142444 139.699439,182.911102 C126.005426,195.06588 110.012146,204.800629 93.8233464,213.245334 C91.2691371,214.577548 92.9425515,218.777378 95.5264722,217.42887 C112.052638,208.807814 128.424497,198.936969 142.406996,186.525333 C141.353685,186.37486 140.299414,186.223428 139.246102,186.071996 C141.663257,189.839575 142.587181,194.772602 143.061602,199.148782 C143.493853,203.131048 143.852305,208.569166 141.20992,211.93133 C139.410952,214.221013 142.949466,217.029206 144.747477,214.741439" id="Fill-23" fill="#315C0F"></path>
            <path d="M60.6560032,368.079302 C64.0842985,357.112974 68.2956291,346.413089 73.904347,336.366851 C79.0616456,327.130485 86.2364341,319.38064 92.0080847,310.565024 C95.2494866,305.613787 97.8679106,300.40665 99.3247205,294.651293 C97.8813286,294.828602 96.4388952,295.004953 94.9964617,295.182262 C101.002927,311.175542 113.470152,322.725552 123.667821,335.98348 C125.440912,338.288499 129.058976,335.584775 127.28301,333.274964 C117.336449,320.34386 105.036949,309.072752 99.1809563,293.479136 C98.3250805,291.200954 95.3635395,291.99549 94.853656,294.010105 C91.5930856,306.890413 81.4510054,316.47948 74.2378798,327.183199 C66.2206335,339.08016 60.7767651,352.640951 56.5146379,366.272666 C55.6558868,369.022394 59.7895848,370.851074 60.6560032,368.079302" id="Fill-24" fill="#315C0F"></path>
            <path d="M205.485905,80.551042 C202.762053,95.9088847 203.201972,111.848493 209.559222,126.292954 C215.435341,139.644808 225.50458,150.501875 236.297433,160.073691 C243.315039,166.29772 250.725601,172.06362 258.151497,177.787349 C260.45364,179.562357 263.158323,175.944293 260.851388,174.165451 C238.660915,157.059437 213.343093,137.935932 209.06659,108.256307 C207.765045,99.218335 208.37748,90.0864375 209.966553,81.1270569 C210.475478,78.2565664 205.991954,77.6968448 205.485905,80.551042" id="Fill-25" fill="#315C0F"></path>
            <path d="M282.431342,163.889191 C288.233662,169.041698 310.879388,196.671246 314.177337,171.19816 C315.416584,161.628261 294.125116,149.607663 282.431342,163.889191" id="Fill-26" fill="#315C0F"></path>
            <path d="M252.468022,215.324163 C250.631675,242.563632 280.43973,215.627985 262.715529,202.209041 C260.26483,202.662377 260.290708,203.647641 256.488626,207.083603 C254.140478,209.204603 252.680793,212.167103 252.468022,215.324163" id="Fill-27" fill="#315C0F"></path>
            <path d="M261.003778,144.144626 C263.033727,146.650914 266.414101,147.569087 269.55966,146.8541 C280.341012,144.399567 290.720782,131.482839 274.52719,128.852914 C267.460704,127.704718 254.923513,136.63918 261.003778,144.144626" id="Fill-28" fill="#315C0F"></path>
            <path d="M220.300319,166.340849 C218.536812,176.105309 210.20616,197.486868 224.028602,199.674 C233.172959,185.939733 224.29792,178.92021 220.300319,166.340849" id="Fill-29" fill="#315C0F"></path>
            <path d="M266.628789,191.687423 C266.019229,185.938775 261.954803,177.249492 262.741076,176.847531 C271.050307,172.599663 279.415987,168.446369 287.952843,164.677019 C290.609604,163.503903 288.853765,159.342411 286.189336,160.518402 C276.84371,164.645391 267.704145,169.231466 258.61921,173.897091 C257.268786,174.590993 256.842285,176.11681 257.730748,177.380017 C260.434472,181.219478 261.468615,186.767815 262.046547,191.387436 C262.378163,194.030779 262.520969,196.712459 262.194145,199.363469 C261.968914,201.191191 261.526121,203.452121 260.120108,204.680825 C257.941602,206.585221 260.728709,210.141945 262.926383,208.221257 C267.393614,204.316623 267.199053,197.064202 266.628789,191.687423 Z" id="Fill-30" fill="#315C0F"></path>
            <path d="M260.896434,140.996191 C254.314912,142.053337 249.237163,146.386388 243.130063,148.668404 C240.213568,149.758136 237.383331,149.252086 234.355659,149.339303 C232.011345,149.407351 229.986188,150.169301 228.035787,151.44976 C220.881126,156.146055 214.943667,167.40662 218.880888,175.770817 C220.115342,178.394033 224.27971,176.642986 223.038546,174.006352 C219.92174,167.384576 225.577421,157.450475 231.731484,154.501394 C233.682843,153.565968 235.779882,153.862122 237.87788,153.917711 C240.59598,153.988635 242.987257,153.607181 245.518464,152.582622 C250.913453,150.398365 255.633708,146.416099 261.491617,145.473965 C264.361149,145.012961 263.768841,140.534229 260.896434,140.996191" id="Fill-31" fill="#315C0F"></path>
            <path d="M174.372472,189.683351 C167.762197,197.384317 164.037747,207.501478 160.99474,217.044541 C157.872183,226.835836 154.961439,237.063216 154.487976,247.37973 C154.209073,253.464787 154.833009,259.570929 157.185949,265.234277 C158.301559,267.918832 162.461134,266.158201 161.344566,263.47077 C156.343491,251.43292 159.796706,237.386207 163.190498,225.383819 C166.406022,214.013993 170.162099,201.50843 177.994369,192.383242 C179.887264,190.1779 176.261532,187.482802 174.372472,189.683351" id="Fill-32" fill="#315C0F"></path>
            <path d="M128.273066,247.646173 C120.909467,247.470781 110.172203,264.925663 114.166929,271.212948 C121.256418,282.37192 143.010806,247.350978 128.273066,247.646173" id="Fill-33" fill="#315C0F"></path>
            <path d="M146.11036,292.45266 L143.779465,289.09433 C135.244668,289.391443 130.43432,316.126779 139.3937,317.646845 C144.597003,318.529557 148.691406,297.00615 146.11036,292.45266" id="Fill-34" fill="#315C0F"></path>
            <path d="M171.318921,284.522631 C169.450946,290.436129 172.430697,300.650091 178.047083,304.091804 C183.919368,307.6907 184.566307,302.807511 186.002031,296.742582 C187.316994,291.182744 187.254696,289.072286 183.674011,284.330945 C180.710553,280.405226 172.025283,273.30232 171.318921,284.522631" id="Fill-35" fill="#315C0F"></path>
            <path d="M169.811315,238.496066 C172.113458,247.864695 181.979511,262.301489 182.148194,244.270591 C182.199949,238.727047 182.080146,234.854041 177.891817,231.145885 C173.869297,227.585327 169.705888,226.596229 169.811315,238.496066" id="Fill-36" fill="#315C0F"></path>
            <path d="M147.821154,206.51238 C138.087364,204.754624 123.138769,219.618877 129.650326,224.999489 C135.236042,229.614318 149.939278,213.761926 147.821154,206.51238" id="Fill-37" fill="#315C0F"></path>
            <path d="M144.250053,212.152726 C151.143063,209.613852 158.46545,205.955534 166.002524,207.462182 C165.405424,207.009804 164.808323,206.556468 164.211223,206.10409 C166.75489,214.312064 168.871097,222.636965 170.433334,231.087421 C170.96047,233.94066 175.441118,233.354102 174.912066,230.492237 C173.276989,221.645951 171.031393,212.93097 168.36984,204.339625 C168.129275,203.563299 167.311736,203.128173 166.578539,202.981533 C158.229677,201.312911 150.12713,205.180166 142.486546,207.995068 C139.756944,209.000458 141.52716,213.1562 144.250053,212.152726" id="Fill-38" fill="#315C0F"></path>
            <path d="M131.948635,251.790414 C135.690336,250.127542 139.676436,248.9343 143.674038,248.072673 C145.861169,247.602086 148.081846,247.231174 150.31594,247.086452 C151.29162,247.024154 152.101491,247.011694 153.070461,247.096036 C154.020263,247.179419 154.579026,247.278137 155.230757,247.511035 C157.964192,248.487673 159.667318,244.304136 156.92334,243.322707 C152.673672,241.803599 147.698475,242.62593 143.402803,243.525893 C138.910653,244.467069 134.385916,245.76478 130.18417,247.631797 C127.531243,248.811621 129.287082,252.973113 131.948635,251.790414" id="Fill-39" fill="#315C0F"></path>
            <path d="M146.718004,293.39767 C151.337624,283.750138 157.407346,274.762005 160.314256,264.369775 C159.520678,264.834613 158.7271,265.29945 157.932564,265.763329 C161.210386,266.592369 163.995577,269.490654 166.106034,271.966272 C168.456098,274.723668 170.506175,277.783927 171.941899,281.119255 C173.090095,283.787517 177.250629,282.029761 176.099558,279.35479 C174.401224,275.408944 171.925606,271.696954 169.068534,268.497723 C166.183667,265.265905 162.785083,262.363786 158.508579,261.28268 C157.63641,261.062242 156.371286,261.803106 156.126887,262.677192 C153.219976,273.068464 147.150254,282.057555 142.529675,291.705087 C141.272218,294.331178 145.465339,296.011302 146.718004,293.39767" id="Fill-40" fill="#315C0F"></path>
            <path d="M205.717844,265.491135 C242.260769,272.104285 280.019938,280.738759 312.195309,300.054908 C321.036803,305.361721 329.359788,311.521535 336.796227,318.676196 C338.884641,320.68506 341.570155,317.048786 339.496117,315.054298 C311.927908,288.529816 273.602308,275.820109 237.116888,267.30448 C226.902926,264.920871 216.613248,262.878462 206.2929,261.010487 C203.424327,260.491019 202.865564,264.974543 205.717844,265.491135" id="Fill-41" fill="#315C0F"></path>
            <path d="M257.48539,288.844181 C256.541339,294.280382 252.906982,311.15254 263.307838,308.222627 C276.340535,304.550891 267.397448,273.048337 257.48539,288.844181" id="Fill-42" fill="#315C0F"></path>
            <path d="M288.596906,309.430246 C286.321599,313.777673 290.389166,321.238073 294.997285,324.121981 C300.014654,320.030454 306.744732,305.284088 298.068087,301.968887 C293.615233,301.164767 291.317882,304.231735 288.596906,309.430246" id="Fill-43" fill="#315C0F"></path>
            <path d="M314.484992,280.602662 C321.860092,282.488848 335.920224,283.809561 338.188822,275.176046 C332.456467,270.310109 310.259286,265.561101 314.484992,280.602662" id="Fill-44" fill="#315C0F"></path>
            <path d="M282.724621,263.89152 C297.26205,264.804901 297.771933,247.748725 280.81735,251.43292 C268.177608,254.179774 267.442494,263.179408 282.724621,263.89152" id="Fill-45" fill="#315C0F"></path>
            <path d="M349.957354,343.966223 C344.549906,356.430573 358.499818,359.916374 361.356891,347.221043 C363.512394,337.647311 350.168208,327.825345 349.275912,341.64012" id="Fill-46" fill="#315C0F"></path>
            <path d="M356.032826,316.645288 C362.088171,317.739812 377.583069,326.118386 379.91684,316.699919 C383.044189,304.078386 359.53492,304.871964 354.510843,312.880585 C354.782078,314.494577 354.074759,313.229452 356.032826,316.645288" id="Fill-47" fill="#315C0F"></path>
            <path d="M337.890751,314.856862 C336.443526,315.190395 335.542604,316.513025 336.109993,317.978461 C339.233508,326.045545 346.225237,331.931249 351.427582,338.612447 C353.211215,340.904047 356.758356,338.105439 354.968013,335.806171 C352.380259,332.483303 349.481974,329.420169 346.777291,326.19506 C344.222124,323.148219 340.498906,318.925791 341.512456,318.776259 C346.837801,317.990596 352.267224,318.018825 357.252904,315.627438 C359.865578,314.373815 358.115489,310.208489 355.488439,311.468821 C349.962146,314.119832 343.743868,313.509313 337.890751,314.856862 Z" id="Fill-48" fill="#315C0F"></path>
            <path d="M299.765462,303.200467 C296.058265,296.65249 293.044969,289.709641 288.59499,283.606374 C288.104275,284.820702 287.61356,286.03503 287.122845,287.249357 C291.732881,286.359937 296.400423,285.806924 301.01046,284.917503 C305.883105,283.977286 310.608153,282.519517 315.133848,280.479025 C317.780066,279.284825 316.025186,275.122374 313.369383,276.320408 C309.070835,278.259307 304.638108,279.646152 300.006028,280.517362 C295.528254,281.358862 291.001601,281.907082 286.526703,282.770625 C284.813035,283.101283 284.006039,284.975009 285.054558,286.413608 C289.263972,292.186218 292.099001,298.768698 295.607804,304.964932 C296.208738,306.025911 297.354059,306.676683 298.568386,306.161049 C299.592945,305.726882 300.37023,304.269113 299.765462,303.200467" id="Fill-49" fill="#315C0F"></path>
            <path d="M273.989512,256.715773 C267.349526,256.439746 260.593571,256.828867 254.112684,258.355642 C247.724764,259.861332 241.178704,262.469213 237.078551,267.842158 C236.527455,268.564813 236.435446,269.898944 237.118805,270.594762 C243.490431,277.072774 250.649885,282.692993 257.106811,289.07612 C257.980897,289.939663 259.231645,290.254986 260.280165,289.443198 C261.156168,288.76559 261.513661,287.12572 260.647243,286.269844 C254.190316,279.886717 247.027029,274.262664 240.660195,267.788486 C240.673613,268.70666 240.687031,269.623875 240.700449,270.542049 C244.239922,265.903259 250.246387,263.780342 255.757345,262.598601 C261.534747,261.359354 267.516293,260.951064 273.413497,261.196422 C276.303156,261.317184 276.895465,256.836535 273.989512,256.715773" id="Fill-50" fill="#315C0F"></path>
            <path d="M195.189518,337.854331 C185.450935,336.938074 174.061941,350.0024 182.926437,358.795973 C192.811659,368.602603 209.978054,340.020377 195.189518,337.854331" id="Fill-51" fill="#315C0F"></path>
            <path d="M218.169734,352.654369 C216.92282,357.828919 215.709451,368.536472 221.352672,371.924513 C226.88855,375.24834 230.227711,368.813457 232.272037,363.906308 C235.468393,356.235054 234.306779,352.838387 226.752453,349.065058 C221.802175,346.592315 211.866157,343.337495 218.169734,352.654369" id="Fill-52" fill="#315C0F"></path>
            <path d="M198.563182,342.403028 C201.922471,341.014267 204.823631,338.480184 207.438221,336.015109 C210.962359,332.69224 214.20472,329.0598 217.228559,325.279762 C220.204476,321.558188 223.00596,317.665055 225.411613,313.54765 C227.232625,310.429886 229.063222,307.103184 229.670865,303.498538 C230.154871,300.624214 225.672305,300.061617 225.190216,302.923481 C224.696626,305.852436 222.950371,308.922279 221.368966,311.557955 C219.055322,315.411792 216.411978,319.071068 213.606661,322.579871 C210.826263,326.056088 207.873347,329.41921 204.631946,332.474677 C202.299133,334.67331 199.745882,337.027208 196.798717,338.245369 C194.112245,339.356187 195.873835,343.515762 198.563182,342.403028" id="Fill-53" fill="#315C0F"></path>
            <path d="M216.491528,321.074182 C215.674948,325.578791 214.748148,330.09011 214.495123,334.671393 C214.231556,339.436695 214.760608,344.088902 216.294092,348.616514 C216.686089,349.773336 218.191778,350.265009 219.255633,349.81359 C220.449834,349.306582 220.845664,348.012704 220.452709,346.853007 C217.640682,338.551108 219.456903,330.008643 220.972177,321.649238 C221.491644,318.780665 217.00812,318.221901 216.491528,321.074182" id="Fill-54" fill="#315C0F"></path>
            <path d="M268.057804,356.621301 C258.530076,354.215647 251.366789,346.353666 246.398301,338.266455 C245.212726,336.33714 244.10095,334.3139 243.218238,332.224528 C240.893093,326.718362 238.721296,321.176734 236.180505,315.76066 C223.830207,289.435531 207.771754,265.046425 195.41954,238.722254 C189.395823,225.885076 184.22894,212.547599 181.20606,198.663817 C178.10938,184.435961 177.423146,169.951245 179.294955,155.508701 C182.447223,131.188602 191.449733,108.067496 205.398688,87.9117654 C219.199086,67.9707222 237.109221,51.2720393 256.503002,36.8611229 C259.052419,34.9663117 261.631548,33.1117544 264.231762,31.2888252 C266.60962,29.6202029 263.802386,26.08073 261.424527,27.7474355 C240.903636,42.143017 221.667037,58.7918617 206.428997,78.8076623 C191.323221,98.6509459 180.77956,121.606244 176.198276,146.15349 C173.541515,160.392848 172.904161,174.89769 174.931235,189.262602 C176.96981,203.708021 181.415955,217.73365 187.08793,231.142051 C198.719406,258.643171 215.231196,283.68209 228.541837,310.343627 C231.804325,316.878186 234.876085,323.512421 237.60377,330.289462 C238.606285,332.781374 239.536918,335.177443 240.811627,337.539008 C245.27119,345.802571 251.466465,353.534205 259.791367,358.128907 C262.231523,359.474539 264.783816,360.420507 267.481789,361.101949 C270.300525,361.814061 270.842995,357.324786 268.057804,356.621301" id="Fill-55" fill="#315C0F"></path>
            <path d="M265.275489,356.410446 C268.739246,348.090337 287.224438,353.596503 286.917741,362.496461 C286.517119,374.133688 262.62352,366.978068 265.275489,356.410446" id="Fill-56" fill="#315C0F"></path>
            <path d="M195.099425,93.0259347 C196.079897,108.05312 194.032696,123.202026 186.24643,136.317148 C179.126272,148.311868 168.249078,157.494563 156.933883,165.385297 C149.562616,170.525343 141.897113,175.227389 134.218192,179.88918 C131.736823,181.395828 134.003504,185.303338 136.497332,183.78998 C161.659889,168.513604 189.686227,151.411423 197.446614,120.92001 C199.760258,111.827408 200.225096,102.359102 199.615536,93.0259347 C199.427684,90.1401094 194.909657,90.119024 195.099425,93.0259347" id="Fill-57" fill="#5EAA1B"></path>
            <path d="M137.987687,221.724542 C136.793486,249.000431 110.153993,218.926892 129.256412,207.554191 C131.641938,208.275887 131.5068,209.252525 134.904426,213.08911 C137.003382,215.457385 138.125701,218.563648 137.987687,221.724542" id="Fill-59" fill="#5EAA1B"></path>
            <path d="M137.392504,150.037996 C135.09707,152.303719 131.635229,152.841397 128.589347,151.781376 C118.145362,148.147977 109.261697,134.160686 125.646974,133.340272 C132.796844,132.982779 144.266346,143.251371 137.392504,150.037996" id="Fill-60" fill="#5EAA1B"></path>
            <path d="M175.384571,176.607525 C176.056429,186.508081 181.966093,208.680343 167.986469,209.32249 C160.419684,194.659507 170.018335,188.66646 175.384571,176.607525" id="Fill-61" fill="#5EAA1B"></path>
            <path d="M130.09312,204.986564 C130.038489,202.258879 130.474574,199.553238 131.11097,196.907978 C132.200702,192.376533 133.797442,187.009339 136.954502,183.436321 C137.954142,182.305376 137.76054,180.726846 136.497332,179.88918 C127.985537,174.245959 119.410486,168.67462 110.580493,163.538407 C108.062704,162.073929 105.786439,165.975688 108.301353,167.438248 C116.356498,172.12375 124.199482,177.171362 131.975826,182.306048 C132.723854,182.799968 127.782351,190.983938 126.543104,196.630034 C125.380531,201.921513 124.364598,209.109719 128.374659,213.499317 C130.339435,215.650028 133.526207,212.448881 131.56814,210.305837 C130.307807,208.925701 130.128581,206.765405 130.09312,204.986564 Z" id="Fill-62" fill="#5EAA1B"></path>
            <path d="M136.703394,151.289703 C141.839607,152.695716 145.795038,156.474796 150.239266,159.207273 C152.436941,160.557697 154.757294,161.72027 157.328755,162.095973 C159.628022,162.431423 162.305869,162.105558 164.45658,163.078361 C167.9673,164.666476 170.449628,168.781005 171.793343,172.215051 C173.228109,175.880078 174.005394,180.35881 171.832639,183.889657 C170.304905,186.371984 174.210497,188.643457 175.73248,186.169756 C180.804479,177.929196 175.600217,165.431301 168.346838,160.173368 C166.209544,158.62359 163.871939,158.152044 161.280351,157.943107 C158.377274,157.707334 156.070339,157.356549 153.490252,155.884404 C148.248612,152.894111 143.859014,148.563935 137.904304,146.934608 C135.09707,146.166908 133.899035,150.522961 136.703394,151.289703" id="Fill-63" fill="#5EAA1B"></path>
            <path d="M178.85312,272.246133 C141.101618,274.816635 102.154957,279.405586 67.3688297,295.22635 C57.8449353,299.557484 48.7475412,304.816376 40.4446834,311.194711 C39.4699626,311.943243 38.9763725,313.129776 39.6338537,314.284681 C40.179199,315.243109 41.7586876,315.836375 42.7238241,315.094552 C72.6334721,292.118169 111.536046,283.82202 148.234236,279.518681 C158.413695,278.32448 168.627657,277.45902 178.85312,276.763202 C181.737029,276.566724 181.759073,272.048697 178.85312,272.246133" id="Fill-64" fill="#5EAA1B"></path>
            <path d="M124.853396,294.235336 C125.189804,299.743419 126.931267,316.913648 116.919533,312.848957 C104.374675,307.755873 116.753725,277.438893 124.853396,294.235336" id="Fill-65" fill="#5EAA1B"></path>
            <path d="M91.6515496,311.246466 C93.4313496,315.820082 88.5625377,322.783058 83.6630562,325.139831 C79.1296939,320.516377 74.0759056,305.115405 83.0659558,302.782592 C87.5811079,302.475896 89.5238405,305.779595 91.6515496,311.246466" id="Fill-66" fill="#5EAA1B"></path>
            <path d="M69.1189184,279.728576 C61.578969,280.784764 47.4594145,280.540365 46.1617037,271.707496 C52.3981916,267.506709 74.9844949,265.247695 69.1189184,279.728576" id="Fill-67" fill="#5EAA1B"></path>
            <path d="M102.535453,266.639332 C87.9865228,265.935846 89.3695337,248.929508 105.811358,254.469219 C118.068688,258.600042 117.801286,267.625554 102.535453,266.639332" id="Fill-68" fill="#5EAA1B"></path>
            <g id="Group-72" transform="translate(0.000000, 299.808729)">
                <mask id="mask-4" fill="white">
                    <use xlink:href="#path-3"></use>
                </mask>
                <g id="Clip-70"></g>
                <path d="M26.8426799,38.9618589 C30.835489,51.9485519 16.58463,53.8673238 15.1517809,40.9333443 C14.071633,31.1794273 28.4221685,22.8966966 27.7771467,36.724889" id="Fill-69" fill="#5EAA1B" mask="url(#mask-4)"></path>
            </g>
            <path d="M37.9906177,314.807591 C36.2762319,317.247844 34.1438804,319.389566 31.9884773,321.446052 C28.9397193,324.353921 25.7155691,327.079689 22.774155,330.098735 C20.7442055,332.182357 23.9348108,335.379671 25.9676356,333.293174 C31.8657986,327.239746 39.4795469,322.168706 43.4666054,314.509912 C44.1729665,313.15182 43.5327369,311.688301 42.1171395,311.191835 C36.4470822,309.205015 30.1789661,309.124507 24.9794968,305.878313 C22.5067537,304.335245 20.2362389,308.240837 22.6993977,309.779113 C28.2831965,313.263956 38.5685388,313.984979 37.9906177,314.807591 Z" id="Fill-73" fill="#5EAA1B"></path>
            <path d="M85.1610784,306.065207 C89.338864,300.289722 92.8879212,294.047484 97.7164791,288.770382 C98.8790517,287.500465 98.3825862,285.513645 96.7197144,284.996094 C92.367495,283.640878 87.9290171,282.594275 83.5700887,281.261102 C79.055895,279.880008 74.7985599,278.021617 70.7338687,275.614047 C68.2275807,274.129443 65.9532322,278.03216 68.4547281,279.514847 C72.7178137,282.040304 77.2473423,284.024249 81.9781406,285.495435 C86.4607061,286.889947 91.0362392,287.956677 95.5197632,289.351189 C95.1871888,288.092774 94.8546145,286.835317 94.5229985,285.576901 C89.4289562,291.143448 85.6671281,297.694301 81.2612368,303.785108 C80.5462498,304.774205 81.0906367,306.301938 82.071108,306.875078 C83.2116368,307.542143 84.4441746,307.056221 85.1610784,306.065207" id="Fill-74" fill="#5EAA1B"></path>
            <path d="M112.049763,264.992753 C117.966136,265.402002 123.879634,266.467773 129.508479,268.355875 C134.836377,270.143343 140.577358,272.904572 143.56286,277.904689 C143.680747,276.992266 143.797675,276.079843 143.915561,275.168378 C136.871119,280.897858 129.127025,285.690954 122.003033,291.319799 C121.038855,292.082707 121.220956,293.713951 122.003033,294.514238 C122.938458,295.46979 124.244795,295.265645 125.196513,294.514238 C132.321464,288.884435 140.060766,284.095172 147.11,278.361859 C147.869075,277.743673 147.937123,276.420085 147.462702,275.62459 C143.999903,269.825145 137.734662,266.485983 131.556638,264.293101 C125.310566,262.076258 118.648536,260.931896 112.049763,260.476643 C109.148603,260.276331 109.161062,264.7934 112.049763,264.992753" id="Fill-75" fill="#5EAA1B"></path>
            <path d="M181.334489,349.848093 C191.114284,350.015818 200.985129,364.261885 191.201501,372.018439 C180.289803,380.670164 166.396438,350.360852 181.334489,349.848093" id="Fill-76" fill="#5EAA1B"></path>
            <path d="M156.85625,362.010539 C157.521399,367.290516 157.541526,378.066117 151.556146,380.808178 C145.686735,383.498484 143.080771,376.732944 141.593291,371.630276 C139.267188,363.651366 140.797797,360.404214 148.723992,357.490594 C153.916753,355.582365 164.152759,353.448905 156.85625,362.010539" id="Fill-77" fill="#5EAA1B"></path>
            <path d="M179.724331,350.076199 C176.88451,348.513004 174.62358,345.90033 172.552418,343.461132 C169.668509,340.063506 167.103757,336.392729 164.723982,332.627067 C162.325037,328.829777 160.103402,324.899266 158.231593,320.813489 C156.960719,318.0398 155.547038,314.647925 155.389856,311.844525 C155.227882,308.953907 150.709854,308.935697 150.872787,311.844525 C151.07789,315.511468 152.519365,319.022188 153.99151,322.339306 C155.925617,326.699193 158.278556,330.877937 160.82414,334.907166 C163.408061,338.996777 166.226796,342.964667 169.358937,346.654613 C171.675456,349.384214 174.270878,352.229786 177.44519,353.976041 C179.992691,355.37822 182.274707,351.479337 179.724331,350.076199" id="Fill-78" fill="#5EAA1B"></path>
            <path d="M157.506064,330.847267 C158.085912,339.316891 158.950414,348.02133 155.248009,355.958069 C154.733333,357.062177 154.937478,358.392475 156.058838,359.048039 C157.036434,359.619262 158.630299,359.348027 159.148809,358.237209 C161.160548,353.924285 162.224403,349.394757 162.496596,344.648624 C162.761122,340.046255 162.337497,335.436218 162.023133,330.847267 C161.825697,327.963359 157.307669,327.941315 157.506064,330.847267" id="Fill-79" fill="#5EAA1B"></path>
            <path d="M107.473271,364.859944 C118.328422,363.370547 127.310804,355.872769 133.830028,347.467359 C139.081253,340.698944 142.560345,332.772748 147.025659,325.490616 C160.980364,302.736588 177.844854,281.948295 192.26823,259.504797 C206.632184,237.155225 218.406466,212.791998 221.222326,186.07008 C224.103359,158.723267 218.393048,130.42186 206.659978,105.682929 C195.013167,81.1241816 177.363724,59.8518825 157.632576,41.3571064 C155.085076,38.9706219 152.497322,36.6272666 149.878898,34.3174562 C147.706142,32.4015596 144.500202,35.5844974 146.685417,37.5118952 C166.789393,55.243763 185.150948,75.3554063 198.143391,98.9499753 C211.098456,122.473621 217.872622,148.990435 217.341653,175.873369 C216.820269,202.2215 206.844955,226.755328 193.440387,249.07423 C179.920809,271.584818 163.409019,292.088458 148.989477,314.000987 C145.449045,319.38064 142.035127,324.846553 138.842604,330.440894 C137.003382,333.665044 135.431561,337.059795 133.454325,340.200562 C128.792533,347.60729 122.292478,354.472506 114.279065,358.203664 C111.747858,359.38253 109.035508,360.125312 106.272362,360.504849 C105.055159,360.671615 104.413971,362.215642 104.695748,363.282372 C105.039824,364.588709 106.270445,365.024793 107.473271,364.859944" id="Fill-80" fill="#5EAA1B"></path>
            <path d="M109.623983,360.522101 C107.103318,351.869417 88.121661,355.29292 87.4402191,364.171793 C86.5488815,375.783142 111.08846,371.318787 109.623983,360.522101" id="Fill-81" fill="#5EAA1B"></path>
            <path d="M180.61471,255.537866 C182.375341,259.686898 180.438359,264.477119 176.289327,266.237751 C172.140294,267.997423 167.350073,266.060441 165.5904,261.912367 C163.830727,257.763334 165.766751,252.973113 169.915784,251.212482 C174.064816,249.452809 178.855037,251.388833 180.61471,255.537866" id="Fill-82" fill="#D8D2CE"></path>
            <path d="M80.3881093,246.523855 C82.1487407,250.672887 80.2117586,255.463108 76.0627258,257.22374 C71.913693,258.983413 67.1234722,257.047389 65.3637993,252.898356 C63.6041263,248.749323 65.5401499,243.959103 69.6891827,242.198471 C73.8382155,240.438798 78.6284363,242.374822 80.3881093,246.523855" id="Fill-83" fill="#D8D2CE"></path>
            <path d="M201.333996,270.400201 C203.093669,274.549234 201.157646,279.339455 197.008613,281.100086 C192.85958,282.859759 188.069359,280.923736 186.308728,276.774703 C184.549055,272.62567 186.486037,267.835449 190.634111,266.074818 C194.783144,264.315145 199.573365,266.251168 201.333996,270.400201 M165.129396,180.958786 C166.889069,185.107818 164.952087,189.898039 160.804013,191.657712 C156.65498,193.418343 151.864759,191.481361 150.104128,187.332329 C148.344455,183.184254 150.280479,178.394033 154.429511,176.633402 C158.578544,174.873729 163.368765,176.809753 165.129396,180.958786 M188.233251,388.52927 C189.992923,392.678303 188.0569,397.468524 183.907867,399.228196 C179.758834,400.988828 174.968613,399.051846 173.208941,394.902813 C171.448309,390.75378 173.385291,385.963559 177.534324,384.203886 C181.683357,382.443255 186.473578,384.380237 188.233251,388.52927 M165.282745,417.093286 C167.042418,421.242318 165.106394,426.032539 160.957361,427.792212 C156.808329,429.552844 152.018108,427.615862 150.258435,423.466829 C148.497803,419.317796 150.434785,414.527575 154.583818,412.767902 C158.732851,411.007271 163.523072,412.944253 165.282745,417.093286 M159.667318,394.102526 C161.427949,398.251559 159.490967,403.04178 155.341934,404.802411 C151.192902,406.562084 146.402681,404.625102 144.643008,400.477028 C142.882377,396.327995 144.819359,391.537774 148.968391,389.777143 C153.117424,388.01747 157.907645,389.953493 159.667318,394.102526 M138.165955,413.699494 C139.926586,417.848527 137.989604,422.638747 133.840571,424.39842 C129.691538,426.159052 124.901318,424.22207 123.141645,420.073037 C121.381013,415.924004 123.317995,411.133783 127.467028,409.37411 C131.616061,407.613479 136.406282,409.550461 138.165955,413.699494 M72.3660708,403.040821 C74.1267022,407.189854 72.1897202,411.980075 68.0406874,413.740706 C63.892613,415.500379 59.1023922,413.564356 57.3417608,409.415323 C55.5820879,405.26629 57.5181115,400.476069 61.6671443,398.716396 C65.8161771,396.955765 70.6063979,398.892747 72.3660708,403.040821 M64.0210423,323.24502 C65.7816737,327.393094 63.8446916,332.183315 59.6956589,333.943947 C55.5466261,335.70362 50.7564053,333.767596 48.9967323,329.618563 C47.2370594,325.46953 49.173083,320.67931 53.3221158,318.919637 C57.4711486,317.159005 62.2613694,319.095987 64.0210423,323.24502 M303.837821,334.46629 C304.801041,338.869306 302.012975,343.219608 297.609959,344.182828 C293.206943,345.146048 288.857599,342.357024 287.894379,337.954966 C286.931159,333.55195 289.719225,329.201647 294.122241,328.238428 C298.525257,327.276166 302.874601,330.064232 303.837821,334.46629 M277.884562,246.098313 C278.240138,250.590463 274.886601,254.520974 270.393492,254.876551 C265.900384,255.232127 261.970831,251.877631 261.615255,247.385481 C261.259678,242.892373 264.614174,238.961861 269.106324,238.606285 C273.599432,238.250708 277.529944,241.605205 277.884562,246.098313 M397.368847,310.230533 C397.723465,314.722683 394.369927,318.653194 389.876819,319.00877 C385.384669,319.364347 381.454158,316.009851 381.098581,311.517701 C380.743005,307.024593 384.097501,303.094081 388.589651,302.739463 C393.082759,302.383886 397.01327,305.737424 397.368847,310.230533" id="Combined-Shape" fill="#B70A07"></path>
            <path d="M122.15734,375.964285 C123.917971,380.113318 121.980989,384.903539 117.831956,386.663212 C113.682923,388.423843 108.892703,386.486861 107.13303,382.337828 C105.373357,378.188795 107.30938,373.398574 111.458413,371.638902 C115.607446,369.87827 120.397667,371.815252 122.15734,375.964285" id="Fill-92" fill="#D8D2CE"></path>
            <path d="M48.3967567,352.944773 C50.1564296,357.093805 48.220406,361.884026 44.0713732,363.644657 C39.9223404,365.40433 35.1321196,363.468307 33.3724467,359.319274 C31.6118153,355.170241 33.5487973,350.38002 37.6978301,348.620347 C41.8468629,346.859716 46.6370837,348.796698 48.3967567,352.944773" id="Fill-94" fill="#D8D2CE"></path>
            <path d="M290.82525,351.968135 C291.78847,356.370193 289.000404,360.720495 284.597388,361.683715 C280.195331,362.646934 275.845028,359.85791 274.881808,355.455853 C273.918589,351.052837 276.706654,346.702534 281.109671,345.740273 C285.512687,344.777053 289.862031,347.565119 290.82525,351.968135" id="Fill-96" fill="#D8D2CE"></path>
            <path d="M236.699014,296.272953 C238.046563,302.510399 238.940776,308.936656 241.341637,314.887532 C243.662948,320.641931 247.225424,325.861527 250.797483,330.902856 C257.310956,340.095135 266.877022,347.483652 276.787162,352.700373 C279.357665,354.053673 281.642556,350.156707 279.067261,348.800532 C269.699591,343.869422 260.468017,336.932324 254.379127,328.165587 C251.072552,323.403161 247.577166,318.511347 245.455208,313.077062 C243.203862,307.314038 242.354695,301.090009 241.054109,295.073001 C240.440715,292.23318 236.08562,293.43409 236.699014,296.272953" id="Fill-98" fill="#5EAA1B"></path>
            <path d="M268.246615,344.820182 C272.834607,343.325035 276.501551,340.259026 280.413852,337.562011 C284.029041,335.068182 287.938467,333.001812 292.439242,334.086752 C295.263728,334.768194 296.468472,330.414058 293.640152,329.731658 C288.423431,328.473242 283.590081,330.07765 279.211984,332.936639 C275.253678,335.52056 271.613571,338.975691 267.045705,340.465088 C264.294059,341.362176 265.471967,345.724938 268.246615,344.820182" id="Fill-99" fill="#5EAA1B"></path>
            <path d="M157.278916,397.850936 C162.124726,390.317696 167.021332,382.235276 168.482934,373.253852 C169.215173,368.751159 169.063741,364.236007 167.80916,359.836825 C166.475029,355.155865 164.210264,350.797895 162.29916,346.340248 C161.157673,343.67582 157.265499,345.974129 158.399318,348.619389 C160.113945,352.621782 162.122809,356.522582 163.361098,360.710911 C164.578301,364.830232 164.749859,369.093318 163.898775,373.30369 C162.254114,381.44649 157.814677,388.675909 153.379075,395.570837 C151.801503,398.022495 155.709971,400.290134 157.278916,397.850936" id="Fill-100" fill="#5EAA1B"></path>
            <path d="M158.602505,347.014023 C161.816112,354.722656 163.363014,362.995802 166.589082,370.698684 C168.11394,374.33975 169.840068,377.916602 171.877685,381.300809 C173.822334,384.532627 176.790584,386.875982 178.886665,389.97362 C180.506408,392.367772 184.421584,390.109717 182.786507,387.693521 C180.82173,384.790444 178.003953,382.568809 176.13502,379.61206 C173.991017,376.224019 172.193007,372.53599 170.667191,368.831667 C167.579137,361.335806 166.079198,353.301308 162.9576,345.813113 C162.485095,344.679293 161.466286,343.897217 160.180077,344.2365 C159.113347,344.517319 158.133834,345.889787 158.602505,347.014023" id="Fill-101" fill="#5EAA1B"></path>
            <path d="M162.96335,419.578488 C164.894582,416.611197 167.175639,413.875844 168.361214,410.491637 C169.654133,406.801691 169.361812,402.72454 169.555415,398.881246 C169.950287,391.05281 172.229428,383.472606 169.21709,375.834897 C168.16282,373.161843 163.793348,374.326332 164.861995,377.034849 C167.619391,384.027536 165.550146,391.024057 165.076683,398.199804 C164.841868,401.766113 165.242491,405.55861 164.106754,409.003199 C163.092738,412.076876 160.804971,414.62246 159.063509,417.298389 C157.473477,419.742379 161.381945,422.008102 162.96335,419.578488" id="Fill-102" fill="#5EAA1B"></path>
            <path d="M135.330926,418.226147 C140.785337,415.911545 146.201411,413.431134 151.729621,411.295758 C156.832289,409.324272 162.187024,408.139656 167.189057,405.888309 C168.309459,405.384177 168.555775,403.777852 167.998928,402.798339 C167.343364,401.647268 166.014983,401.491044 164.908958,401.988468 C159.925135,404.231188 154.504269,405.286417 149.456231,407.370038 C143.966358,409.634803 138.517698,412.006911 133.050827,414.326305 C131.918924,414.806478 131.692735,416.453056 132.240956,417.416276 C132.906104,418.585557 134.214358,418.69961 135.330926,418.226147" id="Fill-103" fill="#5EAA1B"></path>
            <path d="M117.118886,377.378924 C120.826084,374.987647 122.459244,370.571213 123.880592,366.600448 C125.559757,361.907987 127.268634,357.17623 129.616781,352.770339 C130.983499,350.205587 127.085574,347.920695 125.716939,350.49024 C123.386044,354.864503 121.591867,359.570382 119.937621,364.236966 C118.846931,367.311601 117.702568,371.631234 114.838787,373.479082 C112.404381,375.049945 114.66627,378.961288 117.118886,377.378924" id="Fill-104" fill="#5EAA1B"></path>
            <path d="M67.2662779,404.158348 C82.1957036,388.187111 78.3006541,362.217559 70.5508091,343.801374 C70.0744706,342.669471 69.0623711,341.884519 67.7732861,342.224761 C66.71039,342.504621 65.7232096,343.879006 66.1957144,345.002284 C70.0006717,354.044089 72.4705394,363.830592 72.7427329,373.662142 C73.0130094,383.440978 70.936097,393.621395 64.071839,400.964867 C62.0888524,403.086826 65.2756239,406.287015 67.2662779,404.158348" id="Fill-105" fill="#315C0F"></path>
            <path d="M61.3652396,321.450844 C60.7681393,320.34386 61.0901709,318.608148 61.4572487,317.185841 C61.9259197,315.372496 62.616946,313.631034 63.1632497,311.841649 C64.2031435,308.429647 64.1782244,304.061135 66.5762101,301.220355 C67.3621207,300.288764 67.4895915,298.940256 66.5762101,298.026875 C65.7692141,297.219879 64.1724739,297.090491 63.3827296,298.026875 C60.2553805,301.731197 60.1202423,306.479247 58.7257302,310.90239 C57.4558137,314.93162 55.2552641,319.632707 57.4644396,323.730943 C58.8445752,326.290903 62.7453753,324.012721 61.3652396,321.450844" id="Fill-106" fill="#5EAA1B"></path>
            <path d="M43.1915367,352.170363 C42.4219194,348.857079 43.0966524,345.15659 43.6419977,341.854808 C44.3483588,337.566803 45.5310584,333.369849 46.1588284,329.070343 C46.7348433,325.124497 46.8000164,321.019551 48.6392388,317.390945 C50.6423524,313.43839 53.2847371,309.855788 55.6645127,306.131338 C57.234417,303.674888 53.3269079,301.40629 51.764671,303.851239 C49.2689257,307.756831 46.4185622,311.515784 44.4355757,315.723281 C42.5053026,319.821517 42.3826239,324.192905 41.6935145,328.588254 C41.0044051,332.992228 39.8006201,337.296526 39.1172613,341.704334 C38.5239947,345.530377 37.9479797,349.546188 38.8354836,353.371273 C39.4929649,356.201509 43.849018,355.003475 43.1915367,352.170363" id="Fill-107" fill="#5EAA1B"></path>
            <path d="M79.6079493,250.749562 C84.4278813,246.829593 89.5363001,243.275744 94.9054111,240.148395 C99.8096848,237.291322 105.705931,233.423109 111.632847,234.850207 C114.457333,235.529732 115.662076,231.175596 112.833757,230.494154 C105.91391,228.828407 99.5451588,232.306541 93.7045014,235.627492 C87.6031517,239.097 81.8564203,243.129104 76.4144687,247.556081 C74.1583303,249.390511 77.3709794,252.569615 79.6079493,250.749562" id="Fill-108" fill="#315C0F"></path>
            <path d="M159.791913,180.830356 C159.746867,180.687551 159.710447,180.54187 159.681694,180.39523 C159.705655,180.633879 159.706613,180.616627 159.68457,180.344433 C159.68457,180.053072 159.685528,179.768419 159.705655,179.477057 C159.752618,178.789864 159.619397,179.893014 159.741117,179.210614 C159.791913,178.922127 159.844627,178.632682 159.897341,178.344195 C160.136947,177.014856 160.262501,175.778485 160.060273,174.436686 C159.736325,172.296517 158.62359,170.39308 158.022656,168.33342 C157.691999,167.200558 156.41729,166.376311 155.245133,166.755848 C154.09502,167.127718 153.312943,168.319043 153.667562,169.534329 C153.975217,170.589558 154.409384,171.596865 154.810966,172.617591 C154.999776,173.098721 155.182835,173.581769 155.337142,174.074401 C155.423401,174.349469 155.50295,174.627413 155.568123,174.908233 C155.587292,174.990657 155.696553,175.675933 155.675467,175.441118 C155.654382,175.205345 155.682176,175.920332 155.680259,176.004674 C155.677384,176.091891 155.585375,176.943933 155.653423,176.492513 C155.576749,177.00048 155.468447,177.503654 155.385064,178.010662 C155.160792,179.373546 155.056323,180.678925 155.43586,182.031266 C155.755975,183.167961 157.049852,183.9855 158.214342,183.607879 C159.374039,183.233134 160.134072,182.048518 159.791913,180.830356" id="Fill-109" fill="#5EAA1B"></path>
            <path d="M175.084583,261.648799 C177.898526,261.53858 180.722054,261.55679 183.533122,261.390024 C183.828318,261.372772 184.122555,261.340186 184.415834,261.304724 C184.602727,261.281722 184.78962,261.255844 184.976514,261.230925 C185.209412,261.200255 185.443268,261.168627 185.676166,261.136999 C186.028867,261.090036 185.325381,261.182045 185.696293,261.134124 C186.586672,261.019113 187.482802,260.901226 188.382765,260.888766 C188.571575,260.88685 188.760386,260.902184 188.948237,260.899309 C189.374738,260.891642 188.636748,260.780464 188.98945,260.901226 C189.387197,261.038281 188.614705,260.662578 188.918526,260.855221 C188.695213,260.713374 188.438354,260.518813 188.421102,260.384634 L188.59937,260.717208 C188.430687,260.491019 188.45273,260.310835 188.556241,260.655869 C188.652083,260.976942 188.745051,261.296098 188.819808,261.621964 C189.191678,263.232122 189.371862,264.885409 189.59901,266.519528 C189.839575,268.252365 190.060013,269.982327 190.779792,271.590568 C191.277216,272.704261 192.897917,272.968787 193.869763,272.40044 C195.016042,271.730499 195.178975,270.428954 194.679634,269.310469 C194.976747,269.975618 194.668133,269.213668 194.595292,268.942433 C194.496574,268.574397 194.418942,268.201569 194.34706,267.826823 C194.189878,266.995867 194.071033,266.157243 193.954104,265.319577 C193.712581,263.579073 193.535272,261.807898 193.098229,260.101897 C192.675562,258.449568 191.864732,256.882539 190.04372,256.51642 C189.039288,256.31515 188.019521,256.360196 187.006463,256.46179 C186.568462,256.504919 186.132377,256.560508 185.696293,256.618013 C185.322506,256.666893 184.948719,256.718648 184.574933,256.768486 C185.007183,256.710981 184.485799,256.779029 184.330534,256.798198 C181.287526,257.165275 178.145801,257.011927 175.084583,257.131731 C173.865463,257.179652 172.826528,258.135204 172.826528,259.389786 C172.826528,260.576319 173.859713,261.696721 175.084583,261.648799" id="Fill-110" fill="#5EAA1B"></path>
            <path d="M201.426005,88.7331378 C198.819083,96.897982 197.746602,105.514245 198.842085,114.040417 C199.86281,121.980989 202.612539,129.544899 206.479794,136.534711 C214.744314,151.475638 227.320801,163.678337 239.606883,175.30598 C246.856429,182.166404 254.225778,188.905108 261.25201,195.99843 C263.30017,198.066717 266.493651,194.873236 264.445491,192.80495 C252.349177,180.592666 239.20051,169.447112 227.469357,156.869668 C216.900776,145.539138 206.995428,132.489188 203.868079,116.977997 C202.042274,107.922774 202.986326,98.6864077 205.782059,89.9340475 C206.667646,87.1584414 202.308717,85.9709497 201.426005,88.7331378" id="Fill-111" fill="#5EAA1B"></path>
            <path d="M287.19281,185.499815 C292.251391,191.38456 310.984815,221.803133 317.670806,197.003821 C320.183803,187.685988 300.697054,172.91662 287.19281,185.499815" id="Fill-112" fill="#5EAA1B"></path>
            <path d="M250.599088,232.450305 C245.123592,259.197142 278.276559,236.504453 262.513301,220.828412 C260.024265,220.948216 259.917879,221.927729 255.689297,224.823138 C253.077582,226.610606 251.233567,229.349792 250.599088,232.450305" id="Fill-113" fill="#5EAA1B"></path>
            <path d="M268.6089,163.059193 C270.284232,165.815631 273.510299,167.178514 276.722948,166.891945 C287.737197,165.906681 299.755878,154.499477 284.061627,149.719799 C277.213663,147.63426 263.590574,154.805215 268.6089,163.059193" id="Fill-114" fill="#5EAA1B"></path>
            <path d="M237.974681,180.758474 C234.916339,190.198027 223.79187,210.267499 237.195479,214.29002 C248.101426,201.907136 240.248071,193.760502 237.974681,180.758474" id="Fill-115" fill="#5EAA1B"></path>
            <path d="M267.802863,210.916355 C267.967712,205.146621 265.145183,195.980255 265.993979,195.682029 C274.782859,192.594038 283.614766,189.606185 292.563838,187.02084 C295.351904,186.215761 294.166329,181.855874 291.363887,182.665745 C281.549589,185.500774 271.877138,188.81885 262.247817,192.224143 C260.833178,192.724442 260.19199,194.180293 260.898351,195.54126 C263.085482,199.753549 263.34905,205.361309 263.303045,210.025017 C263.276209,212.716282 263.054813,215.419047 262.355161,218.02597 C261.888406,219.76935 261.152334,221.912394 259.622684,222.921618 C257.207446,224.516442 259.467418,228.429701 261.902783,226.822418 C266.865521,223.546513 267.647597,216.335304 267.802863,210.916355 Z" id="Fill-116" fill="#5EAA1B"></path>
            <path d="M268.919431,159.925007 C265.06176,159.962514 261.178212,160.616161 257.370379,161.169174 C252.641498,161.855408 247.926993,162.641319 243.220155,163.457899 C240.258614,163.972574 237.277904,164.440287 234.332656,165.04218 C229.765749,165.974729 229.488764,170.269443 230.645586,174.024562 C232.383215,179.666825 235.645702,185.014851 235.753046,191.057736 C235.803843,193.960813 240.320912,193.970398 240.269157,191.057736 C240.177147,185.803637 238.07915,180.95591 236.197756,176.142687 C235.525899,174.423268 234.637436,172.438365 234.491755,170.650897 C234.480254,170.504258 234.45246,169.686719 234.474504,170.004917 C234.455335,169.718347 234.716027,169.420276 234.441917,169.829525 C234.517633,169.716431 234.638395,169.622505 234.606767,169.635923 C234.932632,169.501743 235.284375,169.449029 235.626534,169.380981 C242.701646,167.958674 249.863975,166.82773 256.997551,165.756208 C260.926145,165.166775 264.936206,164.480541 268.919431,164.442204 C271.823466,164.413451 271.831134,159.897341 268.919431,159.925007" id="Fill-117" fill="#5EAA1B"></path>
            <path d="M220.880168,214.694476 C217.987633,220.468044 214.329315,225.860157 211.945706,231.881957 C209.687651,237.587476 209.559222,243.47893 209.632062,249.534275 C209.772951,261.192588 211.024657,274.133277 218.34321,283.709884 C220.083714,285.988067 224.008475,283.740554 222.243051,281.429785 C215.372085,272.438777 214.281394,260.476643 214.149131,249.534275 C214.081083,243.860384 214.163507,238.431851 216.300801,233.081908 C218.552147,227.451147 222.069576,222.384899 224.780009,216.974575 C226.078678,214.382987 222.183629,212.093304 220.880168,214.694476" id="Fill-118" fill="#5EAA1B"></path>
            <path d="M186.066246,274.312502 C178.901042,276.02042 172.967417,295.635598 178.431412,300.697054 C188.130699,309.680395 200.242347,270.271772 186.066246,274.312502" id="Fill-119" fill="#5EAA1B"></path>
            <path d="M214.733772,313.094314 L211.623674,310.440428 C203.445412,312.903587 205.607625,339.98204 214.659014,339.168335 C219.915031,338.696789 218.389214,316.839849 214.733772,313.094314" id="Fill-120" fill="#5EAA1B"></path>
            <path d="M237.088136,299.001596 C236.790065,305.196871 242.274187,314.314392 248.582557,316.21112 C255.177497,318.194107 254.558353,313.307085 254.40117,307.077306 C254.256448,301.366036 253.657431,299.340879 248.987013,295.668185 C245.120717,292.627094 234.912505,287.972012 237.088136,299.001596" id="Fill-121" fill="#5EAA1B"></path>
            <path d="M223.90209,254.879426 C228.515001,263.351925 241.734592,274.798425 237.302823,257.319582 C235.939939,251.945679 234.837748,248.230814 229.841465,245.712066 C225.044535,243.294912 220.767073,243.399381 223.90209,254.879426" id="Fill-122" fill="#5EAA1B"></path>
            <path d="M194.48699,229.555854 C184.625729,230.336014 173.959389,248.519301 181.62681,252.062607 C188.203539,255.102739 198.38204,236.026198 194.48699,229.555854" id="Fill-123" fill="#5EAA1B"></path>
            <path d="M192.227976,236.084662 C198.88138,231.604972 208.109121,232.366922 215.755456,232.02668 C215.105642,231.653851 214.455828,231.281023 213.806014,230.908195 C217.220891,236.375065 220.020458,242.009661 222.753893,247.838817 C223.98739,250.468742 227.882439,248.178101 226.654693,245.558718 C223.921258,239.729562 221.120733,234.094966 217.705856,228.628096 C217.295649,227.971573 216.558618,227.474149 215.755456,227.509611 C207.294457,227.886273 197.304767,227.231667 189.948836,232.18482 C187.549892,233.799771 189.807947,237.713989 192.227976,236.084662" id="Fill-124" fill="#5EAA1B"></path>
            <path d="M190.89097,277.194494 C191.26859,276.891631 191.971118,276.365454 192.669812,275.872822 C193.506519,275.284348 194.358561,274.716959 195.222104,274.166821 C197.207966,272.901697 199.25325,271.725707 201.353165,270.659935 C203.28823,269.677547 205.268341,268.788126 207.337587,268.126811 C209.212271,267.527794 210.562695,267.173176 212.383707,267.330358 C213.60091,267.435785 214.642721,266.216665 214.642721,265.072303 C214.642721,263.763091 213.604744,262.918716 212.383707,262.813289 C207.929895,262.428959 203.225932,264.678389 199.360594,266.614413 C195.250857,268.674073 191.285842,271.121897 187.696531,274.001014 C186.744813,274.76488 186.901036,276.398999 187.696531,277.194494 C188.637707,278.13567 189.936376,277.960278 190.89097,277.194494" id="Fill-125" fill="#5EAA1B"></path>
            <path d="M215.498597,314.168711 C217.547715,303.461159 221.161945,293.032509 221.32967,282.034553 C220.577304,282.786919 219.82398,283.540243 219.071615,284.292608 C222.642716,284.260022 226.036508,286.251634 228.890705,288.212577 C231.932754,290.301949 234.734238,292.858075 237.01242,295.766903 C237.770536,296.733956 239.408489,296.546104 240.2059,295.766903 C241.164328,294.828602 240.953474,293.527058 240.2059,292.572464 C237.597061,289.242887 234.294319,286.399232 230.787433,284.053001 C227.355304,281.755651 223.295405,279.737202 219.071615,279.775539 C217.83716,279.787041 216.83177,280.802015 216.812601,282.034553 C216.651585,292.613676 213.114988,302.664706 211.143502,312.967802 C210.600074,315.808581 214.952293,317.025784 215.498597,314.168711" id="Fill-126" fill="#5EAA1B"></path>
            <path d="M265.209358,271.851261 C302.199868,268.936682 340.726738,267.693602 376.763614,277.986155 C386.750428,280.838436 396.430547,284.652977 405.510689,289.712516 C408.05148,291.129072 410.332538,287.22923 407.78983,285.812674 C374.233365,267.114712 333.839478,264.478078 296.218322,265.577394 C285.868263,265.880257 275.530664,266.521445 265.209358,267.33515 C262.330241,267.561339 262.306281,272.080325 265.209358,271.851261" id="Fill-127" fill="#5EAA1B"></path>
            <path d="M321.512183,281.222765 C321.98373,286.720305 322.768682,303.961458 332.079805,298.477336 C343.746743,291.60541 327.070104,263.42189 321.512183,281.222765" id="Fill-128" fill="#5EAA1B"></path>
            <path d="M356.841739,293.200234 C355.749131,297.984704 361.584038,304.16177 366.774882,305.77672 C370.584631,300.54083 373.33436,284.566719 364.098952,283.571871 C359.588592,283.928406 358.148076,287.480338 356.841739,293.200234" id="Fill-129" fill="#5EAA1B"></path>
            <path d="M374.528561,258.727512 C382.14135,258.671924 396.074011,256.365947 396.067305,247.439153 C389.283552,244.194876 366.610032,245.25873 374.528561,258.727512" id="Fill-130" fill="#5EAA1B"></path>
            <path d="M339.558415,250.661386 C353.84857,247.840734 349.994733,231.217767 334.53913,239.100833 C323.016914,244.977911 324.600237,253.867326 339.558415,250.661386" id="Fill-131" fill="#5EAA1B"></path>
            <g id="Group-135" transform="translate(421.459882, 269.721057)" fill="#5EAA1B">
                <path d="M3.51742904,41.237881 C1.4654357,54.6692845 15.8437655,54.4852664 15.3712608,41.4803632 C15.0147257,31.6727742 -0.391996861,25.5762167 2.26572269,39.161927" id="Fill-132"></path>
                <path d="M2.43057222,13.2709656 C8.56450843,12.7860013 25.6829826,16.9388678 25.5392185,7.23766431 C25.3465745,-5.76532202 2.81586009,0.993508936 0,10.0180626 C0.672816128,11.5103342 -0.333532781,10.4675651 2.43057222,13.2709656" id="Fill-134"></path>
            </g>
            <path d="M405.610365,286.025445 C404.604017,286.554497 404.106593,288.15603 404.799536,289.115416 C409.997088,296.300747 418.34595,300.281096 425.249504,305.549573 C426.219433,306.290437 427.776877,305.701004 428.338516,304.739701 C429.018041,303.578087 428.501449,302.391554 427.528645,301.649731 C424.224945,299.128108 420.692181,296.931392 417.296472,294.539157 C414.184458,292.348192 409.696515,289.041076 410.622824,288.656269 C412.539755,287.859938 414.508168,287.191143 416.443472,286.426068 C419.570821,285.190655 422.451854,283.698383 425.024274,281.507418 C425.953948,280.716715 425.837978,279.127642 425.024274,278.313937 C424.104183,277.392889 422.762385,277.520359 421.830793,278.313937 C417.197754,282.258825 410.893218,283.246006 405.610365,286.025445 Z" id="Fill-136" fill="#5EAA1B"></path>
            <path d="M365.865334,284.116258 C360.753082,278.872701 356.201509,273.080923 350.501741,268.441175 C350.349351,269.623875 350.196961,270.805616 350.044571,271.988316 C354.278904,269.951657 358.653167,268.227446 362.886541,266.191746 C367.361439,264.039118 371.481719,261.38044 375.338432,258.253091 C376.293984,257.478681 376.129135,255.866606 375.338432,255.05961 C374.412591,254.112684 373.087086,254.295743 372.144951,255.05961 C364.824482,260.994193 356.151671,264.054453 347.76543,268.087516 C346.536726,268.678865 346.228112,270.755778 347.30826,271.634656 C353.008029,276.274404 357.559601,282.06714 362.671854,287.309738 C364.704678,289.394318 367.8972,286.198921 365.865334,284.116258" id="Fill-137" fill="#5EAA1B"></path>
            <path d="M310.294747,252.68846 C304.43588,255.793766 298.93163,260.080812 296.343876,266.357554 C295.967214,267.269977 296.597859,268.442134 297.381853,268.90793 C305.189204,273.549594 313.549567,277.156157 321.419216,281.684727 C323.942755,283.137703 326.219979,279.235945 323.698356,277.784885 C315.828708,273.256315 301.153781,266.546992 301.423913,266.065771 C303.956582,261.553995 308.890377,258.458072 313.335838,256.192472 C318.634025,253.49354 324.376923,251.636107 330.176368,250.366191 C333.014272,249.74513 331.813362,245.390035 328.975458,246.011096 C322.523324,247.423818 316.13828,249.590823 310.294747,252.68846 Z" id="Fill-138" fill="#5EAA1B"></path>
            <path d="M273.762365,344.490483 C264.111958,346.085307 256.428245,361.621417 267.240266,367.864614 C279.299201,374.828548 288.614158,342.815152 273.762365,344.490483" id="Fill-139" fill="#5EAA1B"></path>
            <path d="M299.75492,352.945731 C299.868014,358.265962 301.422584,368.929427 307.744372,370.767691 C313.944439,372.571452 315.532554,365.497298 316.259042,360.231697 C317.394778,351.998805 315.406041,349.010427 307.139604,347.287175 C301.72353,346.157189 291.285296,345.541878 299.75492,352.945731" id="Fill-140" fill="#5EAA1B"></path>
            <path d="M277.940151,348.193847 C280.899775,345.944418 283.09074,342.843905 285.05935,339.72614 C287.615477,335.679659 289.786315,331.383987 291.723297,327.009723 C293.677531,322.598082 295.441996,318.081013 296.762709,313.435514 C297.72497,310.053224 298.691065,306.321107 298.368075,302.773966 C298.107383,299.902518 293.587439,299.875682 293.851965,302.773966 C294.14141,305.955946 293.270199,309.203098 292.407614,312.234605 C291.194245,316.501524 289.61859,320.676434 287.823455,324.730583 C285.998609,328.851821 283.961951,332.898302 281.599427,336.73968 C279.993102,339.353312 277.914273,342.580337 275.66101,344.293047 C273.376119,346.029718 275.62459,349.95352 277.940151,348.193847" id="Fill-141" fill="#5EAA1B"></path>
            <path d="M290.066176,322.542493 C290.797456,331.860325 291.445353,341.246206 296.748333,349.275912 C298.343156,351.690191 302.256416,349.431177 300.648174,346.995813 C295.786071,339.634131 295.253186,331.083999 294.582286,322.542493 C294.356097,319.663376 289.83807,319.639416 290.066176,322.542493" id="Fill-142" fill="#5EAA1B"></path>
            <path d="M349.299873,344.048648 C338.613406,344.154075 329.09047,337.751779 321.90418,330.339301 C320.947669,329.353079 320.019911,328.336187 319.141033,327.28 C318.942639,327.041352 318.74712,326.800786 318.554476,326.557346 C318.372375,326.326365 318.951265,327.086398 318.812293,326.891837 C318.312952,326.191226 317.804985,325.496366 317.295102,324.803423 C313.684706,319.902983 309.876873,315.149183 305.933902,310.51231 C289.771939,291.507651 271.4861,274.456267 254.944599,255.794724 C238.650372,237.413042 223.900173,217.044541 216.490569,193.356046 C212.367414,180.172875 210.918272,166.255549 208.614212,152.676547 C206.30536,139.07071 203.959129,125.440912 202.77643,111.680768 C201.700116,99.1502867 201.564977,86.3955331 203.847952,73.9848549 C206.154887,61.4438307 210.940316,49.5871237 218.097852,39.0271691 C220.057837,36.1355933 222.178837,33.3666961 224.427308,30.6936417 C226.286657,28.4835078 223.107553,25.2718172 221.232869,27.5001612 C212.478592,37.9058089 205.713052,49.7721002 201.856339,62.8469686 C198.221024,75.1704298 197.196465,88.1312453 197.609547,100.930087 C198.053299,114.672021 200.046828,128.327696 202.25217,141.88082 C203.436786,149.156243 204.701911,156.41729 205.916238,163.687921 C207.115231,170.866544 208.012319,178.125674 209.621519,185.227622 C215.272408,210.153447 228.999966,231.981634 245.206017,251.391708 C261.601837,271.031805 280.388933,288.48477 297.395271,307.571855 C301.626729,312.321822 305.747009,317.173382 309.671769,322.180207 C311.971996,325.114912 314.027823,328.257596 316.463187,331.082082 C322.70255,338.314376 330.918191,344.656291 340.188102,347.325512 C343.141976,348.175637 346.226196,348.596387 349.299873,348.567281 C352.203908,348.536964 352.211575,344.020854 349.299873,344.048648" id="Fill-143" fill="#5EAA1B"></path>
            <path d="M346.262616,344.572908 C347.492278,335.644197 366.77009,336.258549 368.741575,344.941903 C371.319745,356.29831 346.392003,355.467354 346.262616,344.572908" id="Fill-144" fill="#5EAA1B"></path>
            <path d="M413.873928,261.70918 C414.228546,266.202289 410.875008,270.1328 406.3819,270.488377 C401.88975,270.843953 397.959238,267.489457 397.603662,262.996349 C397.248085,258.504199 400.602582,254.573687 405.094731,254.218111 C409.58784,253.862534 413.518351,257.217031 413.873928,261.70918" id="Fill-146" fill="#D8D2CE"></path>
            <path d="M388.998899,305.238084 C386.246296,299.158778 382.499802,293.595106 379.742406,287.520592 C377.312793,282.166816 375.582831,276.479507 371.384918,272.164666 C369.354969,270.077211 366.162447,273.272609 368.191438,275.358147 C372.196706,279.47651 373.72444,285.259662 376.093673,290.345078 C378.825191,296.209696 382.42792,301.62002 385.098099,307.517224 C386.295175,310.161526 390.189266,307.868009 388.998899,305.238084" id="Fill-148" fill="#5EAA1B"></path>
            <path d="M391.523398,282.728455 C395.320687,282.383421 398.79307,280.602662 401.631933,278.103083 C404.515841,275.564209 406.589878,272.143581 406.954081,268.282076 C407.065258,267.102252 405.835596,265.972266 404.695067,266.023063 C403.376271,266.082485 402.555857,267.017911 402.437012,268.282076 C402.427428,268.396129 402.414968,268.511141 402.40155,268.626152 C402.439887,268.340541 402.445638,268.283035 402.417843,268.453635 C402.362255,268.611776 402.35267,268.799627 402.315292,268.964477 C402.23095,269.333471 402.124564,269.697674 401.99901,270.055167 C401.940546,270.221934 401.874415,270.385825 401.811159,270.550674 C402.01147,270.031207 401.787198,270.583261 401.749819,270.661852 C401.594554,270.985801 401.422996,271.303998 401.239936,271.613571 C401.038666,271.954771 400.822061,272.286387 400.592039,272.608418 C400.529741,272.695635 400.111867,273.218937 400.444441,272.815439 C400.325596,272.959203 400.208668,273.102967 400.087906,273.244814 C399.577064,273.837122 399.02501,274.39301 398.437494,274.909603 C398.296605,275.034198 398.152841,275.155919 398.00716,275.275722 C397.92761,275.341854 397.384182,275.751102 397.799181,275.446322 C397.497276,275.668677 397.192496,275.88624 396.879091,276.092302 C396.236944,276.513052 395.56892,276.892589 394.875977,277.224205 C394.714003,277.302796 394.548195,277.374678 394.384304,277.450394 C394.232872,277.516526 394.275043,277.498316 394.512733,277.395764 C394.403472,277.439852 394.293253,277.482981 394.183034,277.524193 C393.857169,277.646872 393.52747,277.758049 393.193937,277.856767 C392.86903,277.951652 392.541248,278.035035 392.21059,278.103083 C392.048616,278.136628 391.885683,278.162506 391.723709,278.193176 C391.468767,278.231513 391.508063,278.227679 391.841595,278.179758 C391.73521,278.192217 391.629783,278.20276 391.523398,278.211386 C390.350282,278.317771 389.206878,279.173647 389.265342,280.469441 C389.315181,281.601344 390.263065,282.842508 391.523398,282.728455" id="Fill-149" fill="#5EAA1B"></path>
            <path d="M268.809212,241.832352 C264.97646,240.35254 260.669287,240.194399 256.616097,240.572978 C254.593814,240.76083 252.557156,241.033982 250.597172,241.578369 C248.546137,242.148633 246.534397,242.957546 244.391353,243.092684 C241.50457,243.274785 241.484443,247.792813 244.391353,247.608795 C248.452211,247.352894 252.179535,245.544342 256.226017,245.127426 C260.050142,244.73447 263.981612,244.787184 267.608302,246.188405 C268.745955,246.627365 270.085837,245.703441 270.386783,244.610833 C270.736609,243.335166 269.951657,242.274187 268.809212,241.832352" id="Fill-150" fill="#5EAA1B"></path>
            <path d="M270.198932,166.65713 C271.964355,169.006236 272.683176,171.839348 273.986637,174.431894 C275.408944,177.260214 277.498316,179.745416 279.50718,182.170238 C283.125244,186.537792 286.868862,191.169872 291.942777,193.912892 C294.499862,195.295903 296.782836,191.397978 294.222876,190.01305 C289.504537,187.461716 286.064741,183.036656 282.70066,178.976757 C280.83556,176.725411 278.958001,174.416559 277.695752,171.759798 C276.513052,169.268845 275.777938,166.611125 274.098773,164.377989 C273.367493,163.404227 272.148373,162.901052 271.009761,163.568118 C270.050375,164.128798 269.461901,165.676659 270.198932,166.65713" id="Fill-151" fill="#315C0F"></path>
            <g id="Knot" transform="translate(201.702290, 124.497019) scale(1, -1) translate(-201.702290, -124.497019) translate(133.415763, 85.757661)">
                <path d="M75.1897741,34.9663194 C75.1897741,34.9663194 107.173459,-10.5091502 127.766233,2.2618967 C148.359007,15.0329436 126.382264,45.8923933 126.382264,45.8923933 C126.382264,45.8923933 137.039978,57.6187541 133.22352,64.2654491 C129.407061,70.912144 105.803866,92.8984716 74.523667,55.973134 L75.1897741,34.9663194" id="Fill-152" fill="#B70A07"></path>
                <path d="M60.5517104,35.0755801 C60.5517104,35.0755801 31.4365989,-9.94367793 10.0243694,3.14077475 C-11.3878601,16.2252274 8.64135842,46.7722297 8.64135842,46.7722297 C8.64135842,46.7722297 -2.76488764,58.6624817 0.631779535,65.2555047 C4.02844671,71.8475693 26.2486306,93.4926967 59.8856033,56.0823948 L60.5517104,35.0755801" id="Fill-153" fill="#B70A07"></path>
                <path d="M101.386474,50.742995 C101.282964,50.742995 101.177537,50.7104085 101.088403,50.6423601 C95.9905269,46.781814 75.0498437,45.9729012 74.8380312,45.9652337 C74.5936322,45.9566079 74.3923624,45.7697145 74.364568,45.5262739 C74.3358152,45.2828333 74.4910805,45.055686 74.7278121,44.9914714 C79.7269701,43.6420054 101.788055,29.132371 102.01041,28.9857316 C102.238516,28.8343 102.54713,28.8985147 102.696644,29.1266204 C102.847117,29.3556846 102.783861,29.6623814 102.555755,29.813813 C101.741092,30.3505324 84.535401,41.6666863 77.1765944,45.0873141 C82.8686955,45.4150963 97.3342423,46.5546667 101.686462,49.8516574 C101.904983,50.0165069 101.948112,50.3279959 101.783263,50.5465174 C101.685503,50.6749466 101.536947,50.742995 101.386474,50.742995" id="Fill-154" fill="#910502"></path>
                <path d="M33.4100011,56.7187907 C33.2576112,56.7187907 33.107138,56.6488255 33.0103369,56.5175209 C32.8474042,56.2961241 32.8943671,55.986552 33.1148055,55.8236193 C37.8341026,52.3474027 51.854939,47.218857 56.3672158,45.6163661 C49.0477048,42.9778151 26.3933532,32.0325727 25.3582514,31.5313151 C25.1119356,31.4124701 25.0084254,31.116316 25.1272704,30.8690417 C25.2470738,30.6236842 25.5461032,30.5211325 25.7905023,30.6390191 C26.0617373,30.7712821 53.0999364,43.8346493 58.0435056,45.116067 C58.2553181,45.1716558 58.4067496,45.3585491 58.4153755,45.5770706 C58.4240013,45.7955921 58.2879046,45.9930281 58.0818427,46.0649102 C57.892074,46.1300833 39.1164787,52.6330141 33.70328,56.6219895 C33.6151046,56.688121 33.5115945,56.7187907 33.4100011,56.7187907" id="Fill-155" fill="#910502"></path>
                <path d="M71.627299,55.9951779 L61.8273775,56.0680184 C57.0639926,56.1034802 53.3059983,52.8649536 53.4344276,48.8338074 L53.6376142,42.423844 C53.7650851,38.3926978 57.7300998,35.0966655 62.4934846,35.0602453 L72.2934061,34.9874048 C77.056791,34.951943 80.8138269,38.191428 80.686356,42.2225742 L80.4831694,48.6315791 C80.3547401,52.6627253 76.3906838,55.9597161 71.627299,55.9951779" id="Fill-156" fill="#910502"></path>
            </g>
        </g>
    </g>
</svg>