<?xml version="1.0" encoding="UTF-8"?>
<svg width="396px" height="344px" viewBox="0 0 396 344" version="1.1" xmlns="http://www.w3.org/2000/svg" xmlns:xlink="http://www.w3.org/1999/xlink">
    <title>corner-2</title>
    <g id="corner-2" stroke="none" stroke-width="1" fill="none" fill-rule="evenodd">
        <g id="christmas-corner-2" transform="translate(197.984500, 171.505696) scale(1, -1) translate(-197.984500, -171.505696) translate(0.000000, -0.000000)">
            <g id="Group" transform="translate(0.000000, 3.159503)">
                <path d="M159.888999,227.31 C159.888999,227.31 256.078999,260.05 229.138999,264.41 C202.198999,268.77 179.438999,243.13 179.438999,243.13 C179.438999,243.13 217.078999,268.65 205.808999,270.71 C194.558999,272.77 161.348999,240.21 159.888999,227.31 Z" id="Path" fill="#6A9634" fill-rule="nonzero"></path>
                <path d="M156.798999,232.36 C156.798999,232.36 148.158999,282.98 140.468999,282.02 C132.778999,281.06 134.788999,250.27 156.798999,232.36 Z" id="Path" fill="#6A9634" fill-rule="nonzero"></path>
                <path d="M69.4589993,167.01 C69.4589993,167.01 46.3889993,214.82 35.7489993,208.45 C25.0989993,202.08 77.0289993,153.09 77.0289993,153.09 L69.4589993,167.01 Z" id="Path" fill="#6A9634" fill-rule="nonzero"></path>
                <path d="M73.6989993,179.07 C73.6989993,179.07 93.5289993,229.6 80.9789993,231.8 C68.4289993,234 73.6989993,179.07 73.6989993,179.07 Z" id="Path" fill="#6A9634" fill-rule="nonzero"></path>
                <path d="M46.5289993,84.43 C46.5289993,84.43 -6.76100073,116.85 5.16899927,129.87 C17.0989993,142.89 45.6289993,90.28 45.6289993,90.28 L46.5289993,84.43 Z" id="Path" fill="#6A9634" fill-rule="nonzero"></path>
                <path d="M36.2289993,9.57 C36.2289993,9.57 105.998999,35.11 91.9089993,39.84 C77.8189993,44.57 36.2289993,9.57 36.2289993,9.57 Z" id="Path" fill="#6A9634" fill-rule="nonzero"></path>
                <path d="M110.108999,82.98 C110.108999,82.98 144.388999,72.43 161.288999,78.61 C178.188999,84.79 125.858999,90.6 125.858999,90.6 L110.108999,82.98 Z" id="Path" fill="#6A9634" fill-rule="nonzero"></path>
                <path d="M84.7389993,71.22 C84.7389993,71.22 102.068999,62.73 121.158999,62.92 C140.248999,63.11 96.7289993,75.61 96.7289993,75.61 L84.7389993,71.22 Z" id="Path" fill="#6A9634" fill-rule="nonzero"></path>
                <path d="M35.3989993,-1.15463195e-14 C35.3989993,-1.15463195e-14 51.4689993,47.3 56.3189993,50.93 C61.1689993,54.56 86.9289993,46.68 100.628999,43.04 C114.328999,39.4 129.798999,37.65 118.128999,47.59 C106.458999,57.53 69.1889993,63.06 69.1889993,63.06 C69.1889993,63.06 154.268999,99.15 154.448999,105.4 C154.628999,111.65 87.4189993,74.06 87.4189993,74.06 C87.4189993,74.06 123.878999,114.61 112.128999,114.63 C100.378999,114.65 66.2989993,67.56 66.2989993,67.56 C66.2989993,67.56 76.8489993,96.15 88.8789993,105.5 C100.908999,114.85 139.348999,138.19 150.188999,144.02 C161.038999,149.85 182.208999,154.5 182.208999,154.5 C182.208999,154.5 246.388999,151.42 231.448999,160.16 C216.508999,168.9 157.618999,154.15 157.618999,154.15 C157.618999,154.15 195.128999,190.14 180.108999,188.96 C165.088999,187.79 142.898999,148.76 142.898999,148.76 C142.898999,148.76 103.568999,124.47 91.8889993,115.87 L124.158999,167.87 L170.658999,197.88 C170.658999,197.88 231.958999,199.3 239.928999,202.84 C247.898999,206.38 201.668999,211.09 191.608999,209.88 C191.608999,209.88 236.478999,239.29 220.558999,237.17 C204.638999,235.05 169.198999,203.53 169.198999,203.53 C169.198999,203.53 176.018999,215.3 165.658999,211.51 C155.298999,207.72 135.178999,179.95 135.178999,179.95 L186.998999,273.1 C186.998999,273.1 249.258999,310.73 238.098999,309.12 C226.938999,307.51 192.918999,283.93 192.918999,283.93 C192.918999,283.93 230.678999,342.88 216.998999,339.73 C203.318999,336.58 184.978999,285.35 184.978999,285.35 C184.978999,285.35 193.688999,339.23 183.128999,335.98 C172.568999,332.73 175.488999,270.75 175.488999,270.75 L128.848999,188.77 C128.848999,188.77 139.938999,268.24 121.688999,264.04 C103.438999,259.84 119.898999,199.71 119.898999,199.71 C119.898999,199.71 98.7389993,238.94 92.4489993,234.17 C86.1589993,229.4 125.848999,178.4 125.848999,178.4 L80.5489993,119.78 C80.5489993,119.78 108.038999,203.41 95.6889993,205.07 C83.3389993,206.73 80.2989993,154.28 80.2989993,154.28 C80.2989993,154.28 60.6689993,241.67 54.6189993,241.31 C48.5689993,240.95 73.3589993,152.97 73.3589993,152.97 L75.0689993,119.6 L53.1289993,59.65 L50.6489993,106.96 C50.6489993,106.96 59.1189993,156.42 53.9589993,157.01 C48.7989993,157.6 41.4389993,120.28 41.4389993,120.28 C41.4389993,120.28 36.1389993,163.47 28.5989993,163.8 C21.0589993,164.13 45.1189993,95.05 45.1189993,95.05 L42.5189993,58.25 C42.5189993,58.25 12.6189993,101.08 5.18899927,97.75 C-2.25100073,94.39 28.3989993,51.21 28.3989993,51.21 C28.3989993,51.21 7.12899927,68.77 0.648999266,64.54 C-5.83100073,60.31 38.3489993,37.54 38.3489993,37.54 L30.2789993,5.54 C30.2789993,5.54 10.2589993,43.34 6.98899927,42.14 C3.71899927,40.94 22.8489993,2.2 22.8489993,2.2 C22.8489993,2.2 1.03899927,19.56 1.45899927,11.68 C1.87899927,3.8 19.5289993,-1.15463195e-14 19.5289993,-1.15463195e-14 L35.3989993,-1.15463195e-14 Z" id="Path" fill="#006937" fill-rule="nonzero"></path>
                <path d="M127.608999,131.43 C127.608999,131.43 181.298999,116.47 197.708999,120.62 C214.118999,124.77 177.318999,145.92 127.608999,131.43 Z" id="Path" fill="#6A9634" fill-rule="nonzero"></path>
                <path d="M175.708999,157.07 C175.708999,157.07 230.948999,183.47 221.268999,187.97 C211.588999,192.46 175.708999,157.07 175.708999,157.07 Z" id="Path" fill="#6A9634" fill-rule="nonzero"></path>
                <path d="M171.478999,258.14 C171.478999,258.14 168.408999,325.63 155.488999,315.34 C142.568999,305.05 171.478999,258.14 171.478999,258.14 Z" id="Path" fill="#6A9634" fill-rule="nonzero"></path>
                <path d="M47.6489993,2.72 C47.6489993,2.72 68.6689993,12.64 54.6589993,24.32 C40.6489993,36 24.2989993,19.65 23.7089993,41.25 C23.1289993,62.85 61.0689993,79.2 61.0689993,79.2" id="Path" stroke="#FFF297" stroke-width="2" stroke-linecap="round" stroke-linejoin="round"></path>
                <path d="M80.2789993,95.03 C80.2789993,95.03 112.388999,96.94 112.128999,114.63 C111.868999,132.32 71.5889993,129.41 68.0889993,149.84 C64.5889993,170.27 112.458999,183.12 123.548999,179.03" id="Path" stroke="#FFF297" stroke-width="2" stroke-linecap="round" stroke-linejoin="round"></path>
                <path d="M141.638999,180.19 C141.638999,180.19 160.318999,191.87 141.058999,213.47 C121.798999,235.07 136.388999,257.25 164.408999,257.25 C192.428999,257.25 203.518999,259.59 198.268999,268.93 C193.018999,278.27 164.988999,284.69 170.828999,303.37 C176.668999,322.05 198.268999,318.55 198.268999,318.55" id="Path" stroke="#FFF297" stroke-width="2" stroke-linecap="round" stroke-linejoin="round"></path>
                <circle id="Oval" fill="#FFF297" fill-rule="nonzero" cx="38.8889993" cy="28.34" r="5.84"></circle>
                <circle id="Oval" fill="#FFF297" fill-rule="nonzero" cx="36.2989993" cy="61.04" r="6.36"></circle>
                <circle id="Oval" fill="#FFF297" fill-rule="nonzero" cx="61.9789993" cy="82.31" r="7.39"></circle>
                <circle id="Oval" fill="#FFF297" fill-rule="nonzero" cx="87.9289993" cy="96.58" r="3.76"></circle>
                <circle id="Oval" fill="#FFF297" fill-rule="nonzero" cx="79.1089993" cy="134.46" r="5.84"></circle>
                <circle id="Oval" fill="#FFF297" fill-rule="nonzero" cx="69.8989993" cy="162.87" r="4.93"></circle>
                <circle id="Oval" fill="#FFF297" fill-rule="nonzero" cx="99.2189993" cy="177.66" r="5.19"></circle>
                <circle id="Oval" fill="#FFF297" fill-rule="nonzero" cx="146.698999" cy="188.04" r="5.97"></circle>
                <circle id="Oval" fill="#FFF297" fill-rule="nonzero" cx="141.768999" cy="213.99" r="4.41"></circle>
                <circle id="Oval" fill="#FFF297" fill-rule="nonzero" cx="130.218999" cy="240.58" r="6.36"></circle>
                <circle id="Oval" fill="#FFF297" fill-rule="nonzero" cx="158.238999" cy="255.63" r="6.1"></circle>
                <circle id="Oval" fill="#FFF297" fill-rule="nonzero" cx="196.378999" cy="257.97" r="5.84"></circle>
                <circle id="Oval" fill="#FFF297" fill-rule="nonzero" cx="169.918999" cy="292.73" r="5.32"></circle>
            </g>
            <g id="Group" transform="translate(68.970552, 0.000000)" fill-rule="nonzero">
                <path d="M59.1884468,49.3595029 C59.1884468,49.3595029 74.9784468,48.2795029 77.9184468,59.3695029 C77.9184468,59.3695029 93.4984468,46.5995029 100.228447,58.0395029 C100.228447,58.0395029 123.898447,38.9695029 130.678447,45.2395029 C130.678447,45.2395029 138.578447,15.9495029 156.448447,10.5595029 C156.448447,10.5595029 119.158447,16.0995029 118.778447,7.59950292 C118.778447,7.59950292 100.578447,25.4995029 94.1184468,18.0195029 C94.1184468,18.0195029 80.3584468,39.9795029 73.3384468,35.8995029 C73.3384468,35.8995029 66.2384468,50.8595029 59.1884468,49.3595029 Z" id="Path" fill="#30825C"></path>
                <path d="M130.308447,25.4395029 C130.308447,25.4395029 72.5984468,51.2095029 46.1184468,52.4395029 C46.1184468,52.4395029 127.598447,23.4395029 130.308447,25.4395029 Z" id="Path" fill="#C9FFD4"></path>
                <path d="M163.428447,119.489503 C163.428447,119.489503 178.048447,130.389503 195.298447,130.409503 C195.298447,130.409503 190.278447,147.009503 207.318447,155.559503 C207.318447,155.559503 206.308447,178.629503 223.688447,180.619503 C223.688447,180.619503 212.708447,211.499503 216.878447,223.309503 C216.868447,223.299503 174.938447,177.979503 163.428447,119.489503 Z" id="Path" fill="#2A9F6A"></path>
                <path d="M169.838447,205.089503 C169.838447,205.089503 212.558447,215.269503 218.098447,223.809503 L164.648447,119.989503 C164.648447,119.989503 157.718447,149.209503 145.638447,149.429503 C145.638447,149.429503 167.068447,155.509503 162.318447,170.299503 C162.318447,170.299503 175.238447,173.779503 171.458447,185.139503 C171.458447,185.139503 176.928447,192.699503 175.218447,196.779503 C173.508447,200.859503 169.838447,205.089503 169.838447,205.089503 Z" id="Path" fill="#277D54"></path>
                <path d="M90.1784468,96.6695029 C90.1784468,96.6695029 86.9484468,114.619503 74.3584468,126.409503 C74.3584468,126.409503 89.3584468,135.109503 82.7584468,152.989503 C82.7584468,152.989503 99.2484468,169.149503 87.9184468,182.469503 C87.9184468,182.469503 117.038447,197.519503 122.048447,208.999503 C122.048447,208.999503 121.718447,147.249503 90.1784468,96.6695029 Z" id="Path" fill="#2A9F6A"></path>
                <path d="M144.508447,162.359503 C144.508447,162.359503 120.258447,198.979503 122.048447,208.999503 L90.1784468,96.6695029 C90.1784468,96.6695029 115.198447,113.269503 124.178447,105.189503 C124.178447,105.189503 112.678447,124.259503 126.248447,131.829503 C126.248447,131.829503 119.188447,143.199503 129.708447,148.909503 C129.708447,148.909503 130.878447,158.169503 134.908447,159.979503 C138.938447,161.789503 144.508447,162.359503 144.508447,162.359503 Z" id="Path" fill="#277D54"></path>
                <path d="M95.0484468,101.139503 L112.898447,173.479503 L88.6084468,103.389503 C88.6084468,103.389503 88.6484468,95.6695029 95.0484468,101.139503 Z" id="Path" fill="#C9FFD4"></path>
                <path d="M181.498447,102.609503 C181.498447,102.609503 196.378447,97.2295029 202.258447,107.089503 C202.258447,107.089503 213.728447,90.5295029 223.348447,99.6795029 C223.348447,99.6795029 240.868447,74.8395029 249.108447,79.0095029 C249.108447,79.0095029 248.658447,48.6795029 264.358447,38.5795029 C264.358447,38.5795029 230.028447,54.1495029 227.318447,46.0795029 C227.318447,46.0795029 214.738447,68.2895029 206.468447,62.8695029 C206.468447,62.8695029 199.278447,87.7595029 191.398447,85.7695029 C191.398447,85.7795029 188.688447,102.119503 181.498447,102.609503 Z" id="Path" fill="#30825C"></path>
                <path d="M210.858447,125.649503 C210.858447,125.649503 226.258447,115.879503 232.418447,99.7695029 C232.418447,99.7695029 246.138447,110.369503 260.208447,97.5095029 C260.208447,97.5095029 281.398447,106.669503 289.458447,91.1395029 C289.458447,91.1395029 314.398447,112.409503 326.918447,112.719503 C326.908447,112.719503 269.618447,135.749503 210.858447,125.649503 Z" id="Path" fill="#2A9F6A"></path>
                <path d="M293.128447,150.169503 C293.128447,150.169503 317.048447,114.839503 326.998447,112.709503 L211.778447,124.679503 C211.778447,124.679503 236.608447,141.569503 232.508447,152.939503 C232.508447,152.939503 245.828447,135.089503 257.958447,144.789503 C257.958447,144.789503 265.818447,133.959503 275.078447,141.539503 C275.078447,141.539503 284.088447,139.119503 287.298447,142.169503 C290.498447,145.229503 293.128447,150.169503 293.128447,150.169503 Z" id="Path" fill="#277D54"></path>
                <path d="M292.598447,116.709503 C292.598447,116.709503 218.658447,137.339503 148.598447,112.819503 C78.5384468,88.2995029 27.1284468,34.5395029 11.1984468,10.8595029 C-4.73155321,-12.8204971 -4.25155321,5.92950292 16.4184468,31.6895029 C37.0884468,57.4495029 90.3084468,96.4595029 128.608447,113.959503 C166.908447,131.459503 266.778447,134.879503 292.598447,116.709503 Z" id="Path" fill="#A8E5B2"></path>
                <circle id="Oval" fill="#B11022" cx="144.528447" cy="102.669503" r="11.72"></circle>
                <circle id="Oval" fill="#F81132" cx="105.088447" cy="81.1695029" r="11.06"></circle>
                <circle id="Oval" fill="#F81132" cx="86.2384468" cy="96.2495029" r="14.15"></circle>
                <circle id="Oval" fill="#B11022" cx="93.5184468" cy="82.9995029" r="10.17"></circle>
                <path d="M243.308447,60.0795029 C243.308447,60.0795029 194.898447,100.709503 169.778447,109.169503 C169.778447,109.169503 240.158447,58.9095029 243.308447,60.0795029 Z" id="Path" fill="#C9FFD4"></path>
                <path d="M33.5484468,61.6995029 C33.5484468,61.6995029 38.8084468,76.6195029 50.1684468,74.9295029 C50.1684468,74.9295029 44.6184468,94.2895029 57.7884468,95.9395029 C57.7884468,95.9395029 49.6584468,125.229503 58.0984468,128.959503 C58.0984468,128.959503 34.3384468,147.819503 36.4684468,166.359503 C36.4684468,166.359503 26.7784468,129.929503 18.8184468,132.939503 C18.8184468,132.939503 28.0484468,109.139503 18.6084468,106.169503 C18.6084468,106.169503 33.3184468,84.8395029 26.7984468,80.0095029 C26.7884468,80.0195029 37.7184468,67.5695029 33.5484468,61.6995029 Z" id="Path" fill="#30825C"></path>
                <path d="M40.5484468,136.339503 C40.5484468,136.339503 41.0384468,69.6695029 31.6684468,44.8695029 C31.6684468,44.8695029 37.6384468,134.639503 40.5484468,136.339503 Z" id="Path" fill="#C9FFD4"></path>
                <path d="M169.208447,123.879503 C169.208447,123.879503 200.728447,183.149503 201.188447,189.079503 L164.998447,123.119503 L169.208447,123.879503 Z" id="Path" fill="#C9FFD4"></path>
                <circle id="Oval" fill="#BF1E30" cx="167.478447" cy="104.839503" r="14.82"></circle>
                <circle id="Oval" fill="#EF355A" cx="153.818447" cy="121.449503" r="12.83"></circle>
            </g>
        </g>
    </g>
</svg>