<?xml version="1.0" encoding="UTF-8"?>
<svg width="447px" height="335px" viewBox="0 0 447 335" version="1.1" xmlns="http://www.w3.org/2000/svg" xmlns:xlink="http://www.w3.org/1999/xlink">
    <title>decoration-13</title>
    <g id="decoration-13" stroke="none" stroke-width="1" fill="none" fill-rule="evenodd">
        <g id="Christmas/Trees/Tree-2-front" transform="translate(310.396789, 174.513674) scale(-1, 1) translate(-310.396789, -174.513674) translate(173.409906, 14.000000)">
            <path d="M116.128563,321.027348 C116.379085,298.378462 116.566976,281.725131 116.692237,271.067354 L160.14214,271.821179 L160,321 L116.128563,321.027348 Z" id="Fill-391" fill="#774330"></path>
            <path d="M266.441741,252.37685 L228.158853,206.911811 L222.710001,200.467133 C241.499148,192.754188 249.907291,175.92381 237.694346,161.395102 L193.398931,108.785489 C213.785156,105.873172 225.293508,90.339244 214.34883,77.3136677 L171.133791,26.0052038 C158.8269,11.4248255 127.589943,10.9644914 114.907268,25.1831786 L70.1890978,75.2045859 C59.1974467,87.5443584 69.2966133,102.885697 88.5085164,106.967639 L72.6786598,124.657621 L42.4281328,158.539151 C29.7454584,172.706168 37.6838731,189.771411 56.238156,198.029242 L50.6014118,204.314211 L11.003284,248.642507 C-7.64494468,269.531341 7.85610181,295.29596 38.9521405,303.863811 C60.0899312,311.233854 138.017919,288.968714 138.017919,288.968714 C138.017919,288.968714 214.207912,313.634167 235.627539,307.06736 C267.803954,299.786566 284.76116,274.092407 266.441741,252.37685" id="Fill-392" fill="#6E9985"></path>
            <path d="M70.1890978,75.2045859 C70.1890978,75.2045859 75.9667606,85.7781785 93.8164505,67.4164844 C93.8164505,67.4164844 126.133784,76.6090747 146.566981,40.4164798 C148.680761,36.7103205 152.485563,34.0892344 156.713121,33.8026999 C161.410408,33.4832844 167.469908,35.3809883 172.777842,44.2541631 C183.39371,62.0005127 199.646322,82.9316227 209.60457,72.2124142 C219.609791,61.4932057 184.849869,20.6315077 171.556547,10.0907961 C158.263226,-0.449915529 140.554454,-3.47027095 124.395788,4.57148408 C108.237121,12.6132391 59.3383653,60.417527 70.1890978,75.2045859" id="Fill-393" fill="#C7D6DE"></path>
            <path d="M219.515846,140.130484 C231.21209,136.475995 250.470966,161.38101 244.270547,181.104917 C241.827958,188.827257 228.675555,201.049597 218.341524,201.415985 C208.007493,201.782374 195.747574,207.296988 180.246528,205.516717 C171.086819,204.464524 162.91354,200.720787 160.330032,193.919116 C157.981388,187.742183 160.330032,180.057422 164.651536,175.284979 C172.871788,166.167545 183.487656,172.626314 195.324819,165.383098 C210.544028,156.058984 202.88745,145.316289 219.515846,140.130484" id="Fill-394" fill="#C7D6DE"></path>
            <path d="M31.2016173,257.229147 C25.940656,246.115367 10.9093382,243.940523 3.58157081,253.818917 L3.2997336,254.241673 C-6.94035166,268.577792 4.94378398,309.702538 63.2371133,305.808487 C86.5356559,304.253686 92.3602916,297.437922 93.5815862,291.768297 C95.9302296,281.143034 74.1348188,270.907646 58.0700979,270.898252 C38.6703033,270.888857 37.2611173,270.057438 31.2016173,257.229147" id="Fill-395" fill="#C7D6DE"></path>
        </g>
        <g id="Group" transform="translate(0.214018, 139.828022)">
            <g id="Christmas/Trees/Tree-2-back-Copy" transform="translate(83.500000, 97.822993) scale(-1, 1) translate(-83.500000, -97.822993) ">
                <path d="M70.7007299,195.645985 C70.9056588,181.85285 71.0462958,171.708383 71.122641,165.212584 L97.6048811,165.672032 L97.5182482,195.645985 L70.7007299,195.645985 Z" id="Fill-391" fill="#774330"></path>
                <path d="M162.393324,153.820927 L139.060323,126.110483 L135.739307,122.182523 C147.191087,117.481567 152.315758,107.223636 144.872101,98.3685474 L117.874531,66.3035647 C130.299712,64.5285388 137.313927,55.0607801 130.643265,47.121834 L104.304172,15.849887 C96.8032566,6.96330608 77.7646731,6.68273748 70.0347219,15.3488716 L42.7794866,45.8363717 C36.0801956,53.3573279 42.2355271,62.7077059 53.9449717,65.195605 L44.2968474,75.9774554 L25.8594824,96.6278769 C18.1295312,105.262519 22.967908,115.663597 34.2765403,120.696655 L30.8410065,124.527275 L6.70638111,151.544886 C-4.65951008,164.276402 4.78820804,179.979654 23.7409032,185.201666 C36.6241551,189.693626 84.1204107,176.123267 84.1204107,176.123267 C84.1204107,176.123267 130.557377,191.156591 143.612405,187.154194 C163.223578,182.71663 173.558809,167.056321 162.393324,153.820927" id="Fill-392" fill="#5C7E6E"></path>
                <path d="M42.7794866,45.8363717 C42.7794866,45.8363717 46.3009088,52.2808606 57.1800994,41.0896091 C57.1800994,41.0896091 76.8771602,46.6923922 89.3309704,24.6334019 C90.6192956,22.3745384 92.938281,20.7770151 95.5149314,20.6023755 C98.3778763,20.4076952 102.071075,21.564325 105.306203,26.9724279 C111.776458,37.7886336 121.682248,50.545916 127.751691,44.0126758 C133.849763,37.4794356 112.663971,12.574678 104.561837,6.15022973 C96.4597032,-0.274218589 85.666401,-2.11509215 75.8178706,2.78626949 C65.9693402,7.68763113 36.166084,36.8238212 42.7794866,45.8363717" id="Fill-393" fill="#A8CAD4"></path>
                <path d="M133.792504,85.4079959 C140.921237,83.1806248 152.659311,98.3599585 148.880224,110.381464 C147.391493,115.088145 139.375247,122.537528 133.076768,122.760838 C126.77829,122.984147 119.306003,126.345245 109.858285,125.260189 C104.275543,124.618889 99.2940186,122.337122 97.7193989,118.191578 C96.2879265,114.426805 97.7193989,109.743027 100.353308,106.834275 C105.363462,101.277299 111.833717,105.213849 119.048338,100.799188 C128.32428,95.116242 123.65768,88.568687 133.792504,85.4079959" id="Fill-394" fill="#A8CAD4"></path>
                <path d="M19.0170441,156.778349 C15.8105458,150.004621 6.64912221,148.679078 2.18292819,154.699851 L2.0111515,154.957516 C-4.23006835,163.695224 3.01318221,188.760306 38.5423282,186.386925 C52.7425348,185.43929 56.2925865,181.285157 57.0369522,177.829583 C58.4684246,171.353601 45.1843603,165.115244 35.3930888,165.109518 C23.5691265,165.103793 22.710243,164.597051 19.0170441,156.778349" id="Fill-395" fill="#A8CAD4"></path>
            </g>
        </g>
        <g id="Group-11-Copy" transform="translate(0.314177, 15.956711)">
            <g id="Windows" transform="translate(86.466246, 112.098546)">
                <path d="M173.975453,153.591503 L133.83823,153.591503 C126.81871,153.591503 121.127999,147.909133 121.127999,140.898573 L121.127999,89.4793751 C121.127999,82.4701441 126.81871,76.7877744 133.83823,76.7877744 L173.975453,76.7877744 C180.996304,76.7877744 186.687016,82.4701441 186.687016,89.4793751 L186.687016,140.898573 C186.687016,147.909133 180.996304,153.591503 173.975453,153.591503" id="Fill-560" fill="#F4EAC6"></path>
                <path d="M52.8474537,153.591503 L12.7102314,153.591503 C5.69071118,153.591503 0,147.909133 0,140.898573 L0,89.4793751 C0,82.4701441 5.69071118,76.7877744 12.7102314,76.7877744 L52.8474537,76.7877744 C59.8683054,76.7877744 65.5590166,82.4701441 65.5590166,89.4793751 L65.5590166,140.898573 C65.5590166,147.909133 59.8683054,153.591503 52.8474537,153.591503" id="Fill-561" fill="#F4EAC6"></path>
                <path d="M116.936525,27.2458595 C116.936525,41.3760012 105.464563,52.8311481 91.3136788,52.8311481 C77.1627947,52.8311481 65.6921638,41.3760012 65.6921638,27.2458595 C65.6921638,13.1157177 77.1627947,1.66190037 91.3136788,1.66190037 C105.464563,1.66190037 116.936525,13.1157177 116.936525,27.2458595" id="Fill-562" fill="#9EAFB3"></path>
                <path d="M31.1151683,76.9433282 L31.1151683,153.005185 C31.1151683,153.922554 31.8594612,154.667085 32.7795083,154.667085 C33.6982239,154.667085 34.4438482,153.922554 34.4438482,153.005185 L34.4438482,76.9433282 C34.4438482,76.0259592 33.6982239,75.2814279 32.7795083,75.2814279 C31.8594612,75.2814279 31.1151683,76.0259592 31.1151683,76.9433282" id="Fill-563" fill="#181F1F"></path>
                <path d="M152.243167,76.9433282 L152.243167,153.005185 C152.243167,153.922554 152.98746,154.667085 153.907507,154.667085 C154.826223,154.667085 155.571847,153.922554 155.571847,153.005185 L155.571847,76.9433282 C155.571847,76.0259592 154.826223,75.2814279 153.907507,75.2814279 C152.98746,75.2814279 152.243167,76.0259592 152.243167,76.9433282" id="Fill-564" fill="#181F1F"></path>
                <path d="M89.6493388,1.66190037 L89.6493388,52.8311481 C89.6493388,53.7485171 90.3949631,54.4930485 91.3136788,54.4930485 C92.2337259,54.4930485 92.9780187,53.7485171 92.9780187,52.8311481 L92.9780187,1.66190037 C92.9780187,0.743201847 92.2337259,-1.41913939e-14 91.3136788,-1.41913939e-14 C90.3949631,-1.41913939e-14 89.6493388,0.743201847 89.6493388,1.66190037" id="Fill-565" fill="#F7F7F6"></path>
                <path d="M65.6921638,28.9077599 L116.936525,28.9077599 C117.855241,28.9077599 118.600865,28.164558 118.600865,27.2458595 C118.600865,26.3284905 117.855241,25.5839591 116.936525,25.5839591 L65.6921638,25.5839591 C64.7721166,25.5839591 64.0278238,26.3284905 64.0278238,27.2458595 C64.0278238,28.164558 64.7721166,28.9077599 65.6921638,28.9077599" id="Fill-566" fill="#F7F7F6"></path>
            </g>
            <path d="M221.643937,265.688719 C213.888113,265.688719 207.590251,259.413383 207.590251,251.654303 L207.590251,202.9101 C207.590251,195.165645 213.888113,188.890309 221.643937,188.890309 L259.099575,188.890309 C266.870046,188.890309 273.153262,195.165645 273.153262,202.9101 L273.153262,251.654303 C273.153262,259.413383 266.870046,265.688719 259.099575,265.688719 L221.643937,265.688719 Z M177.773268,164.921717 C163.630372,164.921717 152.151753,153.474547 152.151753,139.337758 C152.151753,125.215593 163.630372,113.752469 177.773268,113.752469 C191.930809,113.752469 203.396114,125.215593 203.396114,139.337758 C203.396114,153.474547 191.930809,164.921717 177.773268,164.921717 Z M152.018605,251.654303 C152.018605,259.413383 145.734058,265.688719 137.979565,265.688719 L100.509281,265.688719 C92.7534567,265.688719 86.4702405,259.413383 86.4702405,251.654303 L86.4702405,202.9101 C86.4702405,195.165645 92.7534567,188.890309 100.509281,188.890309 L137.979565,188.890309 C145.734058,188.890309 152.018605,195.165645 152.018605,202.9101 L152.018605,251.654303 Z M179.024851,29.5925047 L58.0659491,122.482099 L58.0659491,310.244933 C58.0659491,323.969571 71.0025307,335.080372 86.9548963,335.080372 L270.490318,335.080372 C286.442683,335.080372 299.364619,323.969571 299.364619,310.244933 L299.364619,122.482099 L179.024851,29.5925047 L179.024851,29.5925047 Z" id="Walls" fill="#9F5B41"></path>
            <path d="M101.537177,68.0063347 L71.082419,93.1861196 C68.1132366,93.1861196 65.7059353,90.7823469 65.7059353,87.8175166 L65.7059353,30.5444412 C65.7059353,27.579611 68.1132366,25.1758383 71.082419,25.1758383 L101.537177,25.1758383 C104.50636,25.1758383 106.913661,27.579611 106.913661,30.5444412 L106.913661,62.6364022 C106.913661,65.602562 104.50636,68.0063347 101.537177,68.0063347" id="Chemny" fill="#9EAFB3"></path>
            <path d="M351.264064,136.036559 L195.849331,5.75553526 C193.102504,3.45147659 189.99618,1.86934743 186.755377,0.947989863 L186.647528,0.920069937 C185.937854,0.721971413 185.224185,0.551792814 184.502527,0.418840784 C184.365385,0.392250378 184.225581,0.377625655 184.087108,0.35502381 C183.471968,0.251321227 182.855496,0.159584326 182.236362,0.103744474 C181.946101,0.0771540677 181.653177,0.0718359865 181.361584,0.0545522227 C180.895569,0.029291337 180.430886,0 179.96487,0 C179.500187,0 179.035503,0.029291337 178.569488,0.0545522227 C178.277895,0.0718359865 177.984972,0.0771540677 177.694711,0.103744474 C177.075576,0.159584326 176.459105,0.251321227 175.843965,0.35502381 C175.705492,0.377625655 175.565687,0.392250378 175.428545,0.418840784 C174.706888,0.551792814 173.993219,0.721971413 173.283544,0.920069937 L173.175695,0.947989863 C169.934892,1.86934743 166.828568,3.45147659 164.08041,5.75553526 L9.18628184,135.601806 C-1.08735583,144.214438 -3.17110946,159.551784 5.11197763,170.088233 C13.0422247,180.176633 27.1185463,182.323808 37.6092139,175.742683 C37.6158712,176.029859 37.9181154,189.310437 42.447783,189.665419 C46.2438096,189.963232 47.7670135,169.371621 47.9001607,167.457112 L50.7202183,165.091895 C50.7188868,167.967648 50.8267361,203.080279 56.9648218,206.966467 C68.0293538,213.973039 66.8430123,153.656691 66.7990737,151.613219 L173.20765,62.4117133 C177.11552,59.1371048 182.815552,59.1371048 186.723422,62.4117133 L208.692709,80.829558 C215.316783,87.2285392 219.088843,96.0047026 219.188703,105.206313 C219.377772,122.700141 220.347084,150.110861 224.569181,150.348845 C234.296915,150.899266 231.00818,121.241657 238.500372,122.644301 C245.992565,124.046945 244.245674,150.939152 248.334624,181.560663 C252.080055,209.616201 260.119483,196.133535 262.615993,160.752341 C264.972698,127.370746 280.215389,140.802889 280.215389,140.802889 L280.215389,140.785605 L319.054426,173.344228 C329.64096,182.218776 345.906221,181.105967 354.594076,170.368762 C363.01963,159.957288 361.576315,144.6811 351.264064,136.036559" id="Roof" fill="#A8CAD4"></path>
            <path d="M50.8347249,115.672296 L138.247191,44.5988003 C138.959528,44.0191295 139.067378,42.9714675 138.486856,42.2601741 C137.906334,41.5488807 136.858466,41.4411896 136.144797,42.0208604 L48.7336621,113.094357 C48.0199932,113.674027 47.9134754,114.721689 48.4939972,115.432983 C49.0745189,116.144276 50.1223874,116.251967 50.8347249,115.672296" id="Fill-571" fill="#F7F7F6"></path>
            <path d="M220.469579,91.4271643 C222.280381,88.4463797 222.819627,85.6450805 222.819627,85.6450805 C222.819627,85.6450805 220.074132,86.4321565 217.263395,88.5008901 C216.82534,88.822634 216.23683,88.8492244 215.772146,88.5673661 C212.786986,86.7592185 209.981574,86.2207628 209.981574,86.2207628 C209.981574,86.2207628 210.771137,88.9622336 212.841576,91.768851 C213.163792,92.2062632 213.190422,92.7939111 212.909481,93.2579137 C211.097348,96.2386982 210.558102,99.0399975 210.558102,99.0399975 C210.558102,99.0399975 213.304928,98.251592 216.114334,96.1841879 C216.552388,95.862444 217.140899,95.8358536 217.605583,96.1163824 C220.590743,97.9258595 223.396154,98.4643152 223.396154,98.4643152 C223.396154,98.4643152 222.607923,95.7215148 220.536153,92.9148975 C220.213936,92.4788148 220.187307,91.8911668 220.469579,91.4271643 M70.3567668,153.454604 C72.9677833,151.170488 74.3192274,148.676308 74.3192274,148.676308 C74.3192274,148.676308 71.4805292,148.601855 68.1944564,149.721311 C67.6831711,149.895478 67.1172955,149.745243 66.7617925,149.338409 C64.4743237,146.73122 61.9764823,145.381757 61.9764823,145.381757 C61.9764823,145.381757 61.9005884,148.216294 63.0230192,151.49755 C63.1974421,152.008086 63.0456543,152.573132 62.6395553,152.928114 C60.0285388,155.21223 58.6757633,157.70641 58.6757633,157.70641 C58.6757633,157.70641 61.515793,157.782193 64.8005343,156.661407 C65.3118196,156.48724 65.8776951,156.638805 66.2345296,157.044309 C68.5219985,159.651498 71.0198399,161.002291 71.0198399,161.002291 C71.0198399,161.002291 71.0944023,158.166424 69.9733029,154.886498 C69.7988801,154.375962 69.9493364,153.810916 70.3567668,153.454604" id="Stars" fill="#F7F7F6"></path>
        </g>
        <g id="Christmas/Ground/Snow-2" transform="translate(34.000000, 292.035720)">
            <path d="M0,43.461159 C6.68122569,27.289565 13.0283901,16.5085023 19.0414932,11.1179709 C28.0611479,3.03217389 50.1481088,-7.16359897 68.6861914,8.27471818 C90.2757058,26.2724077 114.432319,-8.75412376 156.434539,2.84648046 C191.916274,12.6331867 195.957045,39.4148747 196.428035,43.461159 L0,43.461159 Z" id="Fill-569" fill="#D1DADF"></path>
            <path d="M157.398395,15.2649405 C160.014861,12.9545082 161.369126,10.4287763 161.369126,10.4287763 C161.369126,10.4287763 158.524503,10.3534215 155.232906,11.4864349 C154.719219,11.664057 154.152163,11.5106561 153.795918,11.1002415 C151.503675,8.46013186 149.00062,7.09432589 149.00062,7.09432589 C149.00062,7.09432589 148.924567,9.96453686 150.049341,13.2841855 C150.224128,13.8009042 150.072023,14.3727934 149.665077,14.73342 C147.048611,17.0438523 145.694346,19.5695842 145.694346,19.5695842 C145.694346,19.5695842 148.538969,19.644939 151.830566,18.5119256 C152.342918,18.3356491 152.911309,18.4877044 153.267554,18.898119 C155.559797,21.5382286 158.062852,22.9040346 158.062852,22.9040346 C158.062852,22.9040346 158.13757,20.0338236 157.014131,16.714175 C156.839344,16.1974563 156.991449,15.6255671 157.398395,15.2649405" id="Fill-574" fill="#F7F7F6"></path>
            <path d="M90.6387404,23.9670757 L90.3892355,23.6844952 L90.6360719,23.9684213 L90.6387404,23.9670757 L90.3892355,23.6844952 L90.6360719,23.9684213 C90.6814364,23.9280527 92.7321801,22.1303022 96.3693482,20.3594641 C100.007851,18.5872804 105.220769,16.8406635 111.643853,16.8406635 C118.002893,16.8447003 125.570764,18.538838 134.096628,23.720827 C134.88517,24.1998683 135.911209,23.9442001 136.386202,23.1489378 C136.86253,22.3536754 136.609022,21.3202379 135.82048,20.839851 C126.822292,15.3618253 118.597969,13.4725725 111.643853,13.4766029 C104.502942,13.4766029 98.7229669,15.4492907 94.7295538,17.4233176 C90.7334722,19.3986902 88.5092759,21.3754084 88.4252181,21.4494176 C87.7367446,22.0657123 87.6727006,23.1287534 88.2837875,23.8244398 C88.8948744,24.5201262 89.9489327,24.5833704 90.6387404,23.9670757" id="Fill-575" fill="#F7F7F6"></path>
        </g>
    </g>
</svg>