<?xml version="1.0" encoding="UTF-8"?>
<svg width="447px" height="447px" viewBox="0 0 447 447" version="1.1" xmlns="http://www.w3.org/2000/svg" xmlns:xlink="http://www.w3.org/1999/xlink">
    <title>decoration-21</title>
    <defs>
        <polygon id="path-1" points="-3.54967275e-15 0 227.552061 0 227.552061 199.36443 -3.54967275e-15 199.36443"></polygon>
        <polygon id="path-3" points="0 0 245.579055 0 245.579055 340.833908 0 340.833908"></polygon>
    </defs>
    <g id="decoration-21" stroke="none" stroke-width="1" fill="none" fill-rule="evenodd">
        <g id="Christmas/Misletoes/Misletoe-4" transform="translate(8.606172, 2.055854)">
            <path d="M40.0796856,0 C40.0796856,0 83.1768483,110.397349 4.15257261,160.204034 C4.15257261,160.204034 57.0512341,206.568253 23.06215,244.334523 C23.06215,244.334523 81.9989209,257.990071 84.8087343,328.010068 C84.8087343,328.010068 127.467705,303.753173 131.452818,378.181692 C131.452818,378.181692 183.65576,407.889375 203.977799,451.879345 C203.977799,451.879345 248.791267,378.201401 241.559792,327.950941 C241.559792,327.950941 212.292928,313.944248 230.639164,234.89238 C230.639164,234.89238 171.589724,246.15627 205.614941,175.064773 C205.614941,175.064773 150.507912,177.010685 166.954222,85.0232962 C166.954222,85.0232962 76.17498,90.7490217 40.0796856,0" id="Fill-26" fill="#60922E"></path>
            <path d="M65.897843,58.44011 C137.443298,197.175383 236.475587,429.477046 205.848818,594.23906 C205.847176,594.23906 200.644061,592.728055 200.644061,592.728055 C205.38829,569.92501 207.183102,546.284343 207.12726,522.683094 C204.014917,366.23161 132.455338,191.460826 65.897843,58.44011" id="Fill-27" fill="#315C0F"></path>
            <path d="M52.445295,167.705848 C77.1929379,171.593402 101.93861,177.673557 126.264485,184.219496 C126.264485,184.219824 123.153456,186.370051 123.153456,186.370051 C129.742097,161.342215 136.697978,136.433289 145.059423,112.146831 C140.536261,137.835896 134.555635,163.101551 128.215325,188.220047 L127.530117,190.982231 L125.103639,190.370931 C100.764953,183.900871 76.2104558,176.793232 52.445295,167.705848" id="Fill-28" fill="#315C0F"></path>
            <path d="M83.2560119,254.053573 C101.38545,255.057078 119.932386,257.550565 137.925506,260.248367 C143.961973,261.253843 150.014536,262.123328 156.037535,263.240487 L153.168267,265.307608 C160.033816,242.711177 167.262993,220.252051 175.870468,198.494885 C171.046091,221.848461 164.780016,244.714573 158.159184,267.413818 C158.158856,267.413818 157.469706,269.818288 157.469706,269.818288 L155.289259,269.481268 C131.228138,265.431445 106.916716,260.766708 83.2560119,254.053573" id="Fill-29" fill="#315C0F"></path>
            <path d="M91.2886487,259.832841 C100.842145,288.59713 108.642876,318.112324 115.953186,347.771064 C115.952858,347.771064 112.297867,345.856028 112.297867,345.856028 C117.163633,343.083662 122.022173,340.294871 126.935897,337.644042 C141.539437,329.616004 156.608104,321.708517 171.643595,314.944468 C153.214583,328.17595 133.870427,340.104353 114.588683,351.463173 L111.855733,353.072722 L110.933363,349.544853 C103.462426,319.943269 96.4690983,290.143612 91.2886487,259.832841" id="Fill-30" fill="#315C0F"></path>
            <path d="M185.289617,366.340008 C161.094148,362.979663 136.140877,357.310107 112.210163,351.59128 C103.824082,342.597512 92.1357972,330.167849 84.0946199,320.970424 C75.031543,310.747158 66.0808061,300.400383 57.5199743,289.560561 C72.5764875,302.826532 86.917244,317.148894 101.143033,331.629583 L115.206224,346.292906 L113.980996,345.563682 C137.634145,351.551862 162.170904,358.088604 185.289617,366.340008" id="Fill-31" fill="#315C0F"></path>
            <path d="M80.406781,423.41003 C88.4417172,413.08592 97.2548212,402.61728 101.927113,389.701467 C105.530204,380.191987 105.048325,368.701775 107.563164,358.426937 C108.433963,354.7841 109.5751,351.226668 110.935662,347.83019 C116.086549,334.891384 120.885634,321.60636 125.850929,308.441232 C130.84119,295.27676 135.825865,282.099478 141.146247,269.073625 C133.717356,296.704661 125.451827,323.829181 115.600728,350.415323 C111.651419,360.036487 111.124538,370.695645 109.280454,381.200419 C105.735176,399.798926 92.9471415,413.062927 80.406781,423.41003" id="Fill-32" fill="#315C0F"></path>
            <path d="M54.869802,295.331616 C46.9458918,299.92146 37.4626897,295.932734 33.6881322,286.422268 C29.9135746,276.91213 33.2772043,265.481374 41.200786,260.891202 C49.1246961,256.30103 58.6078983,260.289756 62.3824558,269.800222 C66.1570133,279.310688 62.7933836,290.741444 54.869802,295.331616" id="Fill-33" fill="#B70A07"></path>
            <path d="M93.8383063,272.544668 C85.4604375,275.743729 76.5481327,270.17863 73.9321223,260.114676 C71.3161118,250.050394 75.9870898,239.298932 84.3649585,236.099871 C92.7424988,232.900809 101.654804,238.465909 104.270814,248.529862 C106.886825,258.594145 102.216175,269.345606 93.8383063,272.544668" id="Fill-34" fill="#B70A07"></path>
            <path d="M182.511666,329.616004 C174.133798,332.815394 165.221493,327.248981 162.605482,317.185027 C159.989472,307.121073 164.66045,296.369283 173.03799,293.170222 C181.415859,289.97116 190.328164,295.536588 192.944174,305.600541 C195.560185,315.664495 190.889207,326.416285 182.511666,329.616004" id="Fill-35" fill="#B70A07"></path>
            <path d="M148.201001,279.178639 C139.823132,282.377372 130.910827,276.812273 128.294817,266.748319 C125.678806,256.684365 130.349456,245.932575 138.727324,242.733514 C147.105193,239.534781 156.017498,245.09988 158.633509,255.163834 C161.249519,265.227787 156.578541,275.979577 148.201001,279.178639" id="Fill-36" fill="#B70A07"></path>
            <path d="M196.825159,384.679016 C188.44729,387.878406 179.534985,382.313964 176.918975,372.249353 C174.302964,362.184743 178.973942,351.43361 187.351811,348.23422 C195.72968,345.038115 204.641656,350.602557 207.257667,360.667167 C209.873677,370.728493 205.203028,381.482911 196.825159,384.679016" id="Fill-37" fill="#B70A07"></path>
            <path d="M211.893826,465.599932 C207.584504,488.563932 159.63767,467.695631 148.711458,473.831628 C148.711458,473.831628 150.460939,418.758761 101.265555,456.717848 C101.265555,456.717848 99.449721,415.194759 41.0795771,423.761503 C41.0795771,423.761503 50.5874152,387.632047 4.84073709,375.235232 C4.84073709,375.235232 33.3363306,340.298156 8.5131375,300.747586 C-4.52322701,279.976515 1.29348735,270.530431 1.29348735,270.530431 C1.29348735,270.530431 65.2198614,308.635692 82.2114472,282.103748 C82.2114472,282.103748 100.796815,345.839604 153.220495,320.757569 C153.220495,320.757569 152.607553,380.93435 195.351929,375.872482 C195.351929,375.872482 218.004529,433.031194 211.893826,465.599932" id="Fill-39" fill="#315C0F"></path>
            <path d="M217.176433,568.709636 C220.375823,520.272055 213.344391,469.048967 187.881649,429.835088 C145.69733,365.528664 75.2286307,333.771269 17.0164854,293.968427 C65.6600239,325.336902 117.546969,350.674822 161.131923,392.096083 C209.080399,437.436103 226.193522,497.728509 222.520465,569.126805 C222.262609,573.291925 216.982958,573.016002 217.176433,568.709636" id="Fill-41" fill="#60922E"></path>
            <path d="M92.4793867,343.651931 L88.9571014,309.990998 L97.7087798,342.272317 C98.7576148,346.719929 93.1094104,348.214511 92.4793867,343.651931" id="Fill-42" fill="#60922E"></path>
            <path d="M39.0774947,354.724974 L94.9475814,340.941976 C96.3974898,340.583933 97.8165211,341.694194 98.1170798,343.418711 C98.4439169,345.248341 97.3467955,347.041839 95.787175,347.238927 L39.0774947,354.724974" id="Fill-43" fill="#60922E"></path>
            <path d="M138.094016,371.566116 L146.504404,347.064833 L143.260341,373.247931 C142.509437,377.915624 136.743637,376.040006 138.094016,371.566116" id="Fill-44" fill="#60922E"></path>
            <path d="M74.2247975,394.796184 L139.688455,372.311764 C141.110771,371.82233 142.596156,372.801199 143.006426,374.492868 C143.44429,376.269942 142.492685,378.13899 140.969525,378.503602 L74.2247975,394.796184" id="Fill-45" fill="#60922E"></path>
            <path d="M151.24502,430.666141 C163.341605,427.624422 175.655643,426.110131 187.95917,425.022864 C187.95917,425.026149 185.469295,428.074438 185.469295,428.074438 C185.512326,421.984429 185.777738,415.897705 186.295093,409.824119 C186.891611,403.694693 187.566308,397.624392 188.971543,391.632927 C190.092644,397.709797 190.479264,403.81623 190.786064,409.97522 C191.064615,417.037528 190.955231,424.1294 190.632007,431.178569 C177.517136,431.874946 164.341825,432.13116 151.24502,430.666141" id="Fill-46" fill="#60922E"></path>
        </g>
        <g id="Group" transform="translate(170.000000, 106.047000)">
            <g id="Christmas/Gifts/Gift" transform="translate(122.894719, 170.458472) rotate(15.000000) translate(-122.894719, -170.458472) ">
                <g id="Group-3" transform="translate(8.228950, 141.469478)">
                    <mask id="mask-2" fill="white">
                        <use xlink:href="#path-1"></use>
                    </mask>
                    <g id="Clip-2"></g>
                    <path d="M227.552061,0 L227.552061,188.351113 C227.552061,194.460624 222.59231,199.423415 216.486541,199.423415 L11.0655204,199.423415 C4.94376479,199.423415 -3.54967275e-15,194.460624 -3.54967275e-15,188.351113 L-3.54967275e-15,0 L227.552061,0" id="Fill-1" fill="#FACE5F" mask="url(#mask-2)"></path>
                </g>
                <polygon id="Fill-4" fill="#F7BF4C" points="8.22895044 171.529155 235.781012 171.529155 235.781012 141.469478 8.22895044 141.469478"></polygon>
                <g id="Group-11">
                    <mask id="mask-4" fill="white">
                        <use xlink:href="#path-3"></use>
                    </mask>
                    <g id="Clip-6"></g>
                    <path d="M237.481555,163.741052 L6.51841582,163.741052 C2.91849979,163.741052 0,160.820764 0,157.218641 L0,105.037354 C0,102.336012 2.18812548,100.146546 4.88781272,100.146546 L236.653264,100.146546 C240.710788,100.146546 243.999971,103.437744 243.999971,107.497755 L243.999971,157.218641 C243.999971,160.820764 241.081471,163.741052 237.481555,163.741052" id="Fill-5" fill="#FACE5F" mask="url(#mask-4)"></path>
                    <path d="M235.781012,252.583408 L235.781012,329.820591 C235.781012,335.930103 230.821261,340.892894 224.715491,340.892894 L19.2944709,340.892894 C13.1727152,340.892894 8.22895044,335.930103 8.22895044,329.820591 L8.22895044,283.757813 C51.7836381,304.802686 105.540586,308.93268 152.124678,300.452746 C171.210328,296.981592 191.472969,290.13426 206.321249,277.28739 C215.785142,269.105383 226.191227,261.189311 235.781012,252.583408" id="Fill-7" fill="#F3BD4F" mask="url(#mask-4)"></path>
                    <polygon id="Fill-8" fill="#B70A07" mask="url(#mask-4)" points="112.199881 340.833908 131.80009 340.833908 131.80009 100.146546 112.199881 100.146546"></polygon>
                    <path d="M219.94258,101.900118 C213.279288,112.662496 202.799266,115.318849 192.920729,113.688247 C180.478388,111.634747 141.130097,99.668662 138.854047,102.766907 C143.362185,96.6304022 183.41787,74.7317373 197.88048,69.6639719 C204.647683,67.2925497 213.7329,64.2712857 220.145406,68.5942326 C229.494397,74.8946976 225.452859,93.0012864 219.94258,101.900118 Z M243.606308,59.496449 C236.813127,29.2388206 219.033359,32.3310672 197.278995,41.3368732 C167.471531,53.6768668 141.057159,64.6132024 127.236,101.407238 C146.745287,116.731505 161.993224,119.233895 180.969967,133.1725 C198.77971,146.254313 222.344522,138.522196 233.800708,114.486052 C243.438452,94.2659783 248.684957,82.1149386 243.606308,59.496449 L243.606308,59.496449 Z" id="Fill-9" fill="#B70A07" mask="url(#mask-4)"></path>
                    <path d="M101.505043,92.5174043 C91.4246785,89.1702197 80.8437429,88.6583444 70.3437381,89.1962134 C60.7389663,89.6880936 50.5397037,92.8783163 41.4085262,88.5713656 C29.893391,83.1396889 41.8611385,68.3382949 47.0357055,61.8488759 C57.4387934,48.8060535 68.4593524,47.0424831 79.7626691,57.9008378 C86.5898204,64.4572404 93.7736662,71.8114488 99.7365579,79.5605609 C104.086831,85.216183 108.831766,94.8928256 116.081555,94.1550053 L116.212443,94.140009 C112.059002,97.3922166 105.655487,93.8960684 101.505043,92.5174043 Z M79.5118839,17.2767348 C66.5759658,1.39560388 51.3629984,-8.25304547 35.622483,9.62459908 C23.6937021,23.174298 16.9764566,44.0172202 11.1304648,62.4717242 C4.12946238,84.5713401 8.86040948,94.0650272 11.0405418,98.0120656 C16.2840498,107.505753 27.5933614,113.082394 35.6484607,113.4683 C63.9891819,114.82497 119.580558,104.129575 132.502644,104.636452 C132.587415,99.590681 98.0779788,40.0681822 79.5118839,17.2767348 L79.5118839,17.2767348 Z" id="Fill-10" fill="#B70A07" mask="url(#mask-4)"></path>
                </g>
                <path d="M129.994636,82.9467359 C120.006193,77.286115 108.653919,98.8238679 113.253978,108.552498 C115.459089,113.216361 125.620384,115.788735 129.839769,114.460058 C133.935261,113.170373 138.700179,105.799168 139.571432,100.239523 C142.066295,84.3303988 133.798378,85.1032106 129.994636,82.9467359" id="Fill-12" fill="#302825"></path>
            </g>
        </g>
        <g id="Christmas/Gifts/Gift-2" transform="translate(8.999559, 144.508998)">
            <path d="M273.3033,335.337821 C272.848086,343.980889 271.150287,352.012669 267.802711,358.974946 C258.986562,377.315578 238.334843,391.49225 216.567598,397.321993 C198.761218,402.11625 180.200483,401.345887 166.731144,392.732834 C122.254211,364.302453 123.747914,305.837938 108.392688,260.96782 C102.34184,243.318514 94.9393559,226.125422 86.2482656,209.591641 C74.1945928,186.59882 59.7037729,164.878598 43.0439322,144.950219 L42.8558437,144.730115 C21.7959321,119.58428 -10.5322826,88.3875982 3.36125616,52.2395857 C4.9319954,48.1696703 6.95994982,44.3038509 9.36408129,40.6571346 C18.9195784,26.1663148 34.4318791,15.1651372 50.7135418,8.62706019 C56.4502417,6.33298052 62.2659787,4.58815935 67.954656,3.44061927 C119.519924,-6.94726962 156.013099,33.7578876 178.864854,74.3840077 C184.883687,85.1030524 190.714431,95.9311485 196.310064,106.870297 C205.409347,124.581632 213.959371,142.577102 221.927121,160.807682 C223.592905,164.580457 225.211667,168.352232 226.799414,172.140015 C235.741622,193.340993 243.914469,214.856119 251.253923,236.639371 C258.467318,258.060452 270.28588,290.200578 272.911116,319.024144 C273.413352,324.618777 273.586433,330.088351 273.3033,335.337821" id="Fill-1" fill="#B70A07"></path>
            <path d="M273.3033,335.337821 C272.848086,343.980889 271.150287,352.012669 267.802711,358.974946 C258.986562,377.315578 238.334843,391.49225 216.567598,397.321993 C198.761218,402.11625 180.200483,401.345887 166.731144,392.732834 C122.254211,364.302453 123.747914,305.837938 108.392688,260.96782 C102.34184,243.318514 94.9393559,226.125422 86.2482656,209.591641 C74.1945928,186.59882 59.7037729,164.878598 43.0439322,144.950219 L42.8558437,144.730115 C21.7959321,119.58428 -10.5322826,88.3875982 3.36125616,52.2395857 C4.9319954,48.1696703 6.95994982,44.3038509 9.36408129,40.6571346 C1.2862796,84.6788528 54.4853169,136.935447 77.0229239,169.891957 C83.1838234,178.897195 90.6023148,186.503775 97.9727836,193.938274 C112.651692,208.758249 127.110497,222.902906 130.83525,246.24189 C137.059179,285.312278 135.911639,329.554099 167.328425,358.283621 C184.255391,373.747899 207.436301,378.463118 227.474732,372.757432 C244.935949,367.82311 266.246979,340.131077 272.911116,319.024144 C273.413352,324.618777 273.586433,330.088351 273.3033,335.337821" id="Fill-3" fill="#9E0504"></path>
            <path d="M46.1133768,6.16089953 C70.1827046,15.4502714 90.116086,31.3217411 107.125091,48.8790041 C132.939289,75.5252236 155.564674,107.235209 175.420085,144.726695 C175.64048,144.720525 175.861422,144.714957 176.082261,144.71021 C179.202756,138.95705 181.505042,132.851821 183.745151,126.911729 C184.055197,126.089692 184.364425,125.269946 184.674809,124.454606 L185.047952,123.478448 C190.844186,108.384967 197.313707,95.1082512 217.160878,97.2547714 C235.201368,99.208691 252.030288,121.806326 250.508572,142.028844 C249.316011,157.857293 244.411703,168.027079 235.929711,172.255069 C232.78223,173.824808 229.324602,174.525138 225.631864,174.525138 C215.263844,174.525138 203.0297,169.003971 190.510428,161.676692 C202.696759,171.518183 213.772836,183.385885 210.544764,198.453399 C209.532219,203.180239 207.627363,207.280778 205.406293,211.092712 C207.596862,216.772382 209.745872,222.556207 211.85338,228.444514 C235.747625,295.19793 255.915643,351.208712 211.047527,401.763505 C210.581307,402.288752 209.934003,402.556879 209.282696,402.556879 C208.727435,402.556879 208.168171,402.360786 207.71896,401.961598 C206.745502,401.097192 206.65646,399.60749 207.520867,398.634032 C250.760217,349.915104 230.819306,295.421035 207.415291,230.032261 C205.727527,225.316804 204.013126,220.669135 202.271617,216.088447 C201.827671,216.761997 201.382099,217.429597 200.938243,218.094643 C194.287112,228.059333 189.03464,235.931037 197.560653,248.875129 C198.27599,249.962641 197.974848,251.424329 196.888337,252.141667 C195.798824,252.854002 194.338136,252.554861 193.621799,251.46935 C184.40146,237.468661 189.096179,227.653592 195.015385,218.50579 L195.411674,217.896887 C195.942106,217.086231 196.479984,216.280229 197.016397,215.476411 C198.077612,213.886472 199.149326,212.280828 200.172042,210.635461 C192.726638,191.514982 184.793523,173.58434 176.338234,156.781874 C175.748915,156.340215 175.168523,155.90356 174.597846,155.47117 C174.602848,155.605233 174.608851,155.738296 174.614854,155.872359 C175.768397,181.977645 176.2006,191.745242 157.213664,215.639487 C140.03658,237.256661 135.179294,260.127425 141.928471,287.614361 C142.239617,288.878956 141.466253,290.155557 140.201658,290.465703 C140.013569,290.512725 139.82348,290.534736 139.638393,290.534736 C138.576893,290.534736 137.61444,289.814397 137.350316,288.73889 C130.223962,259.719233 135.36238,235.559863 153.521927,212.706107 C170.511682,191.325922 171.052111,183.117108 170.071235,159.903049 C165.496233,165.5486 161.394438,172.540964 157.824952,180.792087 L157.528813,181.477409 C153.489912,190.832812 147.081896,205.672797 132.951246,205.672797 C130.842253,205.672797 128.56218,205.342641 126.091017,204.614298 C118.06275,202.246902 111.318652,195.326662 106.354881,186.994823 C104.383203,189.444502 102.450649,191.941366 100.542017,194.456389 L99.6329213,195.65789 C98.7255181,196.860545 97.8230063,198.06632 96.9237159,199.272173 L96.0254374,200.477938 C95.5767731,201.080721 95.1287751,201.683269 94.6812345,202.285202 C92.2803114,205.513963 91.7053083,206.464463 91.1556721,207.279783 L91.037625,207.453206 C90.9384823,207.597303 90.8360474,207.741971 90.7200675,207.899412 L90.5737338,208.095255 C90.0342172,208.80763 89.1834229,209.831444 87.2617426,212.070808 C86.7965237,212.614063 86.1362129,212.892194 85.4729007,212.892194 C84.7458919,212.768136 84.2343178,212.578713 83.9381784,212.323927 C82.9497132,211.476528 82.83666,209.987827 83.6840588,209.000363 C86.1520678,206.124501 86.7419622,205.392641 87.2311194,204.677086 L87.3350446,204.523226 C87.8361589,203.773284 88.3653976,202.877803 90.8974537,199.472879 C91.512263,198.64597 92.127908,197.817935 92.7449466,196.98969 L93.6716196,195.747278 C97.008448,191.27948 100.393952,186.818849 103.915737,182.508926 C101.371759,177.375077 99.4734128,171.942337 98.3219479,166.850526 C95.0434049,152.348701 97.1714064,140.433093 104.162697,134.156138 C120.938491,119.100507 147.734101,130.395657 169.088962,142.890964 C149.968789,107.552925 128.308631,77.5208075 103.739498,52.1595481 C87.0886611,34.9724592 67.8175915,19.5912203 44.4165782,10.5599699 C43.2010061,10.0907491 42.5967217,8.7261068 43.0659425,7.51153519 C43.5351634,6.29696357 44.8968042,5.69367964 46.1133768,6.16089953 Z M184.703659,163.097556 L185.355556,164.450847 C191.573415,177.42725 197.499872,191.041238 203.14979,205.318282 C204.352883,202.851815 205.33594,200.255888 205.933594,197.464934 C208.84285,183.886706 196.870179,172.549689 184.703659,163.097556 Z M169.76881,149.793533 L169.691174,149.801744 C162.780094,150.46718 155.770335,151.941029 148.691654,154.135541 C132.835341,159.051635 120.67791,169.987618 109.893969,182.704645 L109.560669,183.100101 C114.120823,191.268698 120.355117,198.006989 127.424645,200.09117 C141.28917,204.184096 147.532108,192.736708 153.199775,179.60953 L153.498916,178.919206 C158.079512,168.328439 163.543186,159.662781 169.773552,153.091089 C169.737908,152.273399 169.702319,151.435984 169.667526,150.580869 C169.656368,150.309861 169.692001,150.044195 169.76881,149.793533 Z M107.312179,137.66479 C101.713544,142.691155 100.071771,153.213107 102.921112,165.811036 C103.86976,170.004659 105.344221,174.367532 107.248664,178.531388 C118.255845,165.735622 130.780467,154.751841 147.294996,149.632422 C153.07513,147.840271 158.820435,146.511144 164.512443,145.685225 C144.910812,134.485517 121.373739,125.041953 107.312179,137.66479 Z M188.156227,128.575512 C186.135305,133.933084 184.065252,139.42126 181.379227,144.75662 C196.842352,145.363169 211.753306,150.162528 225.714903,160.015309 C226.778404,160.765662 227.032524,162.236354 226.28117,163.300855 C225.530817,164.364355 224.058124,164.618475 222.995624,163.867121 C209.337522,154.22787 194.798813,149.729203 179.703831,149.414643 L179.072952,149.013131 C180.166467,149.708458 181.21496,150.380774 182.210429,151.019075 C194.375154,158.82775 219.687066,175.081399 233.825721,168.035083 C240.716964,164.599466 244.748861,155.731292 245.806359,141.674677 C247.135985,124.04438 232.149932,103.620767 216.654639,101.941977 C198.921293,100.016071 194.408169,111.996709 188.156227,128.575512 Z" id="Combined-Shape" fill="#E6B145"></path>
        </g>
    </g>
</svg>