<?xml version="1.0" encoding="UTF-8"?>
<svg width="447px" height="415px" viewBox="0 0 447 415" version="1.1" xmlns="http://www.w3.org/2000/svg" xmlns:xlink="http://www.w3.org/1999/xlink">
    <title>decoration-11</title>
    <g id="decoration-11" stroke="none" stroke-width="1" fill="none" fill-rule="evenodd">
        <g id="Group-9" transform="translate(0.000000, 370.000000)">
            <path d="M386.153427,24.7060716 C389.807876,22.9745589 402.694158,16.3356436 418.008039,21.330057 C440.56991,28.691161 447,44.8577466 447,44.8577466 L0,44.9012519 C13.3300372,35.6085106 43.4096315,15.9005901 86.6017363,13.1075471 C118.821794,11.0192906 144.420338,18.6240246 158.881514,24.1666053 C180.964826,15.6221559 207.738014,7.31263536 238.670313,1.69174501 C319.033383,-7.64450166 386.153427,24.7060716 386.153427,24.7060716" id="Fill-737" fill="#D1DADF"></path>
            <path d="M70.8702042,26.7073174 C69.704261,25.7153956 69.0951862,24.6190609 69.0951862,24.6190609 C69.0951862,24.6190609 70.3481401,24.5668545 71.8012185,25.0454133 C72.0274463,25.1237229 72.2797773,25.0541143 72.4363966,24.8713919 C73.4370194,23.7054487 74.5333541,23.0963739 74.5333541,23.0963739 C74.5333541,23.0963739 74.5768594,24.3493278 74.0983007,25.8111073 C74.0286921,26.0373351 74.0983007,26.280965 74.2810231,26.4375843 C75.4469663,27.4382072 76.0560411,28.5345418 76.0560411,28.5345418 C76.0560411,28.5345418 74.7943862,28.5867482 73.3413077,28.1081894 C73.1150799,28.0298798 72.8627489,28.0994884 72.7061297,28.2822108 C71.7055068,29.448154 70.6091721,30.0572288 70.6091721,30.0572288 C70.6091721,30.0572288 70.5656668,28.8042749 71.0442256,27.3424954 C71.1225352,27.1162676 71.0529266,26.8639366 70.8702042,26.7073174" id="Fill-771" fill="#F7F7F6"></path>
            <path d="M209.41732,36.7657528 C208.773441,36.2175854 208.4341,35.6085106 208.4341,35.6085106 C208.4341,35.6085106 209.130185,35.5824074 209.930683,35.8434395 C210.052498,35.8869448 210.191715,35.8521405 210.278726,35.7477277 C210.826894,35.1038486 211.435968,34.773208 211.435968,34.773208 C211.435968,34.773208 211.462072,35.4605925 211.201039,36.2697918 C211.157534,36.3916068 211.192338,36.5308239 211.296751,36.6178346 C211.94063,37.1660019 212.271271,37.7750767 212.271271,37.7750767 C212.271271,37.7750767 211.583886,37.8011799 210.774687,37.5314468 C210.652872,37.4966425 210.513655,37.5314468 210.426644,37.6271586 C209.878477,38.2710376 209.269402,38.6103793 209.269402,38.6103793 C209.269402,38.6103793 209.243299,37.9142938 209.513032,37.1137955 C209.547836,36.9919805 209.513032,36.8527634 209.41732,36.7657528" id="Fill-772" fill="#F7F7F6"></path>
            <path d="M326.142156,35.1299519 C325.167637,34.2946493 324.654274,33.3810371 324.654274,33.3810371 C324.654274,33.3810371 325.707103,33.3375317 326.925253,33.7377809 C327.116676,33.7986883 327.325502,33.7464819 327.456018,33.5898627 C328.29132,32.615343 329.213634,32.10198 329.213634,32.10198 C329.213634,32.10198 329.248438,33.1548093 328.848189,34.3729589 C328.787281,34.5643824 328.839488,34.773208 328.996107,34.9037241 C329.970627,35.7390267 330.48399,36.6613399 330.48399,36.6613399 C330.48399,36.6613399 329.43116,36.7048453 328.213011,36.2958951 C328.021587,36.2349876 327.812762,36.2958951 327.682246,36.4438132 C326.846943,37.427034 325.92463,37.931696 325.92463,37.931696 C325.92463,37.931696 325.889825,36.8788667 326.290075,35.660717 C326.350982,35.4692935 326.290075,35.2604679 326.142156,35.1299519" id="Fill-773" fill="#F7F7F6"></path>
            <path d="M401.676133,27.6209296 C400.692913,26.785627 400.188251,25.8633137 400.188251,25.8633137 C400.188251,25.8633137 401.232379,25.8285095 402.45923,26.2287586 C402.650653,26.2896661 402.859479,26.2287586 402.989995,26.0808404 C403.825297,25.1063208 404.73891,24.5929577 404.73891,24.5929577 C404.73891,24.5929577 404.782415,25.645787 404.382166,26.8639366 C404.321258,27.0553601 404.373465,27.2641858 404.530084,27.3947018 C405.504604,28.2300044 406.017967,29.1523177 406.017967,29.1523177 C406.017967,29.1523177 404.965137,29.187122 403.738287,28.7868728 C403.555564,28.7259653 403.346739,28.7868728 403.216223,28.934791 C402.38092,29.9093107 401.458607,30.4226737 401.458607,30.4226737 C401.458607,30.4226737 401.415101,29.3698444 401.824052,28.1516948 C401.884959,27.9602713 401.824052,27.7514456 401.676133,27.6209296" id="Fill-774" fill="#F7F7F6"></path>
            <path d="M366.924065,40.2635824 L366.854457,40.2287781 L366.924065,40.2635824 L366.854457,40.2287781 L366.924065,40.2635824 C366.958869,40.1939738 368.142215,38.0709131 370.839546,35.4431903 C373.528176,32.8067665 377.722091,29.6656807 383.795437,27.54262 C384.361007,27.3424954 384.656843,26.7247195 384.46542,26.1591501 C384.265295,25.5935806 383.638818,25.2890432 383.073249,25.4891678 C376.564849,27.7688478 372.057696,31.1709656 369.177642,34.0162151 C366.306289,36.8614645 365.053335,39.1498456 365.00983,39.2194541 C364.722695,39.7502193 364.914118,40.4027995 365.444883,40.6986358 C365.975649,40.9857711 366.63693,40.7856465 366.924065,40.2635824" id="Fill-775" fill="#F7F7F6"></path>
            <path d="M96.5992642,27.0031537 L96.6079653,27.0031537 C96.7819866,26.9422462 100.662663,25.645787 105.709283,25.645787 C108.685049,25.645787 112.061063,26.0982426 115.332665,27.4904136 C118.604267,28.8825846 121.771456,31.1970688 124.416581,35.016838 C124.755922,35.5127989 125.434606,35.6346138 125.921866,35.2952722 C126.417826,34.9472294 126.548343,34.2772471 126.2003,33.7812862 C123.328947,29.6221754 119.787612,27.0205559 116.18537,25.4891678 C112.574426,23.9490786 108.902575,23.4705199 105.709283,23.4705199 C100.123197,23.4792209 95.9553851,24.9235983 95.8857766,24.9497015 C95.3202071,25.1498261 95.0156697,25.767602 95.2157943,26.3331714 C95.4159189,26.8987409 96.0336947,27.2032783 96.5992642,27.0031537" id="Fill-776" fill="#F7F7F6"></path>
        </g>
        <g id="Christmas/Snowman/Snowman-1" transform="translate(-0.208554, -0.405818)">
            <g id="Body" transform="translate(73.771459, 123.823580)">
                <path d="M330.506364,275.557032 C317.548993,278.13058 298.012008,274.045136 282.095726,269.477473 C267.055876,265.174583 255.236843,260.418892 255.236843,260.418892 L287.356864,238.692111 C287.356864,238.692111 295.988297,238.259776 306.416029,239.499223 C319.963648,241.101934 336.555777,245.52506 341.180672,257.393822 C345.58582,268.644779 338.368685,273.995252 330.506364,275.557032" id="Fill-473" fill="#EEF3F7"></path>
                <path d="M306.416029,239.499223 C305.96376,246.522757 292.339485,262.141839 275.149441,267.2237 C260.109591,262.92081 255.236843,260.418892 255.236843,260.418892 L287.356864,238.692111 C287.356864,238.692111 295.988297,238.259776 306.416029,239.499223" id="Fill-474" fill="#C1BFB9"></path>
                <path d="M143.739832,270.141325 C143.739832,270.141325 143.636347,270.192489 143.431931,270.294817 C142.339588,270.842272 138.431424,272.79034 132.798507,275.302491 C131.467252,275.89983 130.033791,276.531705 128.51473,277.181488 C112.230501,284.203743 86.525286,293.69466 70.1235189,291.942294 C62.1513248,291.098088 54.4883088,286.403794 57.8675481,274.806201 C60.8711744,264.519684 72.7681409,258.708736 84.4261971,255.462382 C86.6964838,254.829228 88.9488841,254.299681 91.1348495,253.839205 C99.2245823,252.146957 106.239858,251.582874 108.800158,251.429382 C109.465785,251.394846 109.82479,251.378218 109.82479,251.378218 L111.360459,252.232656 L111.377068,252.232656 L143.739832,270.141325" id="Fill-475" fill="#EEF3F7"></path>
                <path d="M143.431931,270.294817 C142.339588,270.842272 138.431424,272.79034 132.798507,275.302491 C109.619097,272.396377 96.220956,259.716666 91.1348495,253.839205 C99.2245823,252.146957 106.239858,251.582874 108.800158,251.429382 C109.465785,251.394846 109.82479,251.378218 109.82479,251.378218 L111.360459,252.232656 L111.377068,252.232656 L143.431931,270.294817" id="Fill-476" fill="#C1BFB9"></path>
                <path d="M266.983053,123.129328 L361.121378,37.2186245 C361.320682,37.0357133 361.471439,36.8029172 361.558315,36.5470974 L373.144826,2.10990727 C373.425897,1.27337633 372.976183,0.366494938 372.140636,0.0838139956 C371.305089,-0.197587847 370.399274,0.252655101 370.118203,1.08918603 L358.663284,35.1336926 L264.831583,120.765553 C264.180009,121.360334 264.132738,122.372101 264.72682,123.024442 C265.320902,123.678062 266.331479,123.724109 266.983053,123.129328" id="Arm-2" fill="#181F1F"></path>
                <path d="M230.515375,277.540915 C224.098015,279.249791 217.492848,280.582613 210.698596,281.521472 C147.119071,290.369002 90.6557513,262.058697 73.2638479,207.785235 C71.3346791,201.753003 69.8846086,195.412508 68.9621848,188.765029 C65.7528657,165.64403 69.7811233,143.941553 79.3911944,125.041581 L79.3911944,125.007046 C86.3898609,111.233705 96.3397724,98.9645843 108.595743,88.7279527 C127.916815,72.562696 152.939795,61.4716261 181.136321,57.5588613 C251.783503,47.7328206 315.550834,86.6097643 324.801901,153.135718 C333.148431,213.28792 290.886859,261.562407 230.515375,277.540915" id="Fill-482" fill="#EEF3F7"></path>
                <path d="M203.841743,121.176143 L204.93792,122.338845 C207.137939,120.241122 209.970367,119.123189 212.130781,119.137259 C213.313834,119.137259 214.251589,119.446801 214.895497,119.968674 C215.265999,120.269262 215.520241,120.609502 215.699104,121.012419 C215.877967,121.415335 215.976342,121.889881 215.97762,122.436056 C215.992951,124.06435 215.015591,126.325797 212.961217,128.254679 C210.762476,130.351123 207.930048,131.470335 205.768356,131.456264 C204.585303,131.454985 203.648826,131.146722 203.00364,130.623571 C202.634415,130.324262 202.380174,129.984021 202.200033,129.581105 C202.022447,129.176909 201.922795,128.703643 201.922795,128.157467 C201.906186,126.527895 202.884824,124.267726 204.93792,122.338845 L203.841743,121.176143 L202.744289,120.014721 C200.200597,122.433498 198.744138,125.352403 198.728807,128.157467 C198.728807,129.093768 198.901282,130.019836 199.27945,130.874274 C199.655063,131.727433 200.238924,132.502568 201.000371,133.113977 C202.346957,134.197374 204.041048,134.654013 205.768356,134.654013 C208.945736,134.639943 212.388855,133.18049 215.154848,130.578802 C217.69854,128.158746 219.154999,125.239842 219.171608,122.436056 C219.171608,121.498476 218.997855,120.573688 218.620964,119.719249 C218.245351,118.864811 217.66149,118.090956 216.900043,117.478267 C215.553458,116.39487 213.858089,115.938232 212.130781,115.939508 C208.953401,115.953581 205.51156,117.411754 202.744289,120.014721 L203.841743,121.176143" id="Fill-493" fill="#181F1F"></path>
                <path d="M203.462297,148.506658 L204.558474,149.669359 C206.758493,147.571636 209.589644,146.452424 211.751335,146.467774 C212.934388,146.467774 213.870865,146.777316 214.516051,147.299188 C214.886553,147.599777 215.139517,147.940017 215.319658,148.342933 C215.497244,148.745849 215.596896,149.220395 215.596896,149.766571 C215.613505,151.394864 214.634867,153.655033 212.581772,155.585193 C210.381753,157.681637 207.550602,158.800849 205.388911,158.786779 C204.205858,158.7855 203.26938,158.475958 202.624195,157.954085 C202.25497,157.654776 202.000728,157.314536 201.820587,156.91034 C201.643002,156.507424 201.543349,156.034157 201.543349,155.486703 C201.52674,153.858409 202.505378,151.598241 204.558474,149.669359 L203.462297,148.506658 L202.364843,147.343957 C199.821151,149.764012 198.364692,152.682917 198.349354,155.486703 C198.348084,156.424282 198.521836,157.35035 198.900005,158.204789 C199.275618,159.057948 199.859479,159.833082 200.620925,160.444492 C201.966233,161.527889 203.661602,161.984527 205.388911,161.984527 C208.56629,161.970457 212.008131,160.511005 214.775403,157.909317 C217.319095,155.489261 218.775553,152.570356 218.790891,149.766571 C218.792162,148.828991 218.618409,147.902923 218.241518,147.049764 C217.865905,146.195325 217.280767,145.42147 216.51932,144.808782 C215.174012,143.725385 213.478643,143.268746 211.751335,143.270023 C208.573956,143.284096 205.132114,144.742269 202.364843,147.343957 L203.462297,148.506658" id="Fill-494" fill="#181F1F"></path>
                <path d="M73.1258676,140.656826 C74.0035755,140.568568 74.7867413,141.208117 74.876173,142.086859 C74.9643271,142.9656 74.3242519,143.749688 73.4478216,143.837946 C73.446544,143.837946 73.0326031,143.880156 72.2545477,143.965855 C71.4777698,144.051555 70.3419876,144.180744 68.9123586,144.354702 C66.0543781,144.701338 62.0248429,145.224489 57.3462893,145.929273 C47.9904596,147.336282 36.0321685,149.473657 25.6989786,152.358026 C18.814018,154.274117 12.6432332,156.544518 8.53959742,159.048994 C6.19009985,160.472632 4.55477799,161.976852 3.79205366,163.345489 C3.380668,164.078413 3.1966943,164.753777 3.1941391,165.447049 C3.19924949,167.001154 3.63235426,168.323743 4.44490481,169.573423 C5.25873295,170.817987 6.47883636,171.973013 8.02600415,173.011642 C11.1152293,175.096574 15.4820497,176.671145 20.0264559,177.781403 C29.1229337,180.014711 38.9016474,180.447046 41.0275658,180.51228 C41.2175016,180.518249 50.3621022,177.646671 68.4613675,171.897547 C69.3020251,171.631494 70.198897,172.098365 70.4646368,172.940012 C70.7303766,173.782939 70.2640543,174.680867 69.4233967,174.946919 L69.4233967,174.946919 L47.383,181.913686 L69.3365202,187.210923 C70.1473673,187.405417 70.6630623,188.187488 70.5435029,188.996814 L70.5157406,189.139805 C70.3087702,189.998081 69.4463934,190.526349 68.589127,190.319134 L68.589127,190.319134 L46.9198348,185.091456 L66.051823,203.067917 C66.6957309,203.672931 66.7276708,204.684699 66.1233683,205.328086 C65.5203434,205.971472 64.5097655,206.004729 63.8658576,205.399715 L63.8658576,205.399715 L40.7732664,183.702745 C39.3730997,183.655314 35.739425,183.49151 31.1913603,182.964314 C25.3501951,182.282554 18.015521,181.021362 11.8868968,178.571887 C7.80753537,176.928244 4.21110488,174.772962 2.00342038,171.66475 C0.748821892,169.891919 -0.0049592764,167.777568 2.45608508e-05,165.447049 C-0.0011264908,164.147484 0.373208903,162.896525 1.0120065,161.770917 C1.6520817,160.641473 2.54384315,159.620752 3.62341109,158.670381 C5.78510217,156.773477 8.71079518,155.131113 12.1628574,153.626892 C19.0618715,150.629963 28.0906368,148.22014 37.1104589,146.301491 C37.6513416,146.186679 38.1921565,146.073679 38.7324216,145.962485 L39.8120762,145.742505 C56.8904816,142.297574 73.0955247,140.660471 73.1258676,140.656826 Z" id="Arm-1" fill="#181F1F"></path>
            </g>
            <g id="Scarf" transform="translate(0.000000, 151.055147)">
                <path d="M41.8317296,22.3073421 L65.5924452,28.9676121 C66.442046,29.2055245 67.3223091,28.709234 67.5612194,27.8599121 C67.7988521,27.009311 67.3031451,26.1267325 66.4535443,25.8888201 L42.6928288,19.227271 C41.843228,18.9893585 40.9616873,19.485649 40.7240546,20.3362501 C40.4864219,21.1868511 40.9821288,22.0694296 41.8317296,22.3073421 M41.5838762,41.8136062 C41.8215089,40.9642843 42.7030496,40.4667146 43.5526504,40.7059062 L43.5526504,40.7059062 L67.3133659,47.3661762 C68.1629667,47.6040887 68.6586736,48.4866672 68.4210409,49.3372682 C68.1821306,50.1878692 67.3018675,50.6841597 66.4522667,50.4462473 L66.4522667,50.4462473 L42.6915512,43.7846982 C41.8419504,43.5467857 41.3462434,42.6642072 41.5838762,41.8136062 Z M40.8377606,31.9581462 C41.0753933,31.1088243 41.956934,30.6125337 42.8052572,30.8504462 L42.8052572,30.8504462 L66.5659727,37.5107162 C67.4155735,37.7486287 67.9112804,38.6312072 67.6736477,39.4818082 C67.436015,40.3324092 66.5544743,40.8286997 65.7048735,40.5907873 L65.7048735,40.5907873 L41.944158,33.9292382 C41.0958348,33.6913257 40.6001279,32.8087472 40.8377606,31.9581462 Z M41.7882914,62.3405915 C42.0259241,61.4899905 42.9074648,60.9937 43.755788,61.2316125 L43.755788,61.2316125 L67.5165035,67.8931615 C68.3661043,68.131074 68.8618113,69.0123734 68.6241786,69.8629744 C68.3865459,70.7135755 67.5050052,71.209866 66.6554044,70.9719535 L66.6554044,70.9719535 L42.8946888,64.3104044 C42.045088,64.072492 41.5493811,63.1899135 41.7882914,62.3405915 Z M41.6515887,52.5529238 C41.890499,51.7023228 42.7707621,51.2060322 43.6203629,51.4439447 L43.6203629,51.4439447 L67.3810784,58.1054938 C68.2306792,58.3434063 68.7263862,59.2259848 68.4887535,60.0765858 C68.2511208,60.9259077 67.3695801,61.4221982 66.5199793,61.1842858 L66.5199793,61.1842858 L42.7592637,54.5240158 C41.9096629,54.2861033 41.413956,53.4035248 41.6515887,52.5529238 Z M43.7097946,74.5061048 L67.4705101,81.1676539 C68.3201109,81.4055664 69.2016516,80.9092759 69.4392843,80.0586749 C69.676917,79.2080738 69.1812101,78.3254953 68.3316093,78.0875829 L44.5708937,71.4273129 C43.7212929,71.1881213 42.8397522,71.6856909 42.6021195,72.5350128 C42.3644868,73.3856139 42.8601938,74.2681924 43.7097946,74.5061048" id="Combined-Shape" fill="#181F1F"></path>
                <path d="M66.6796787,84.5662207 L65.9552822,25.1175232 C65.9552822,25.1175232 89.8514228,34.5419267 112.300048,11.342903 C134.747396,-11.8573999 195.574981,7.71793561 195.574981,7.71793561 L215.127298,33.8166774 C215.127298,33.8166774 151.252648,29.6404183 130.403572,58.4661998 C99.9891407,100.516589 66.6796787,84.5662207 66.6796787,84.5662207" id="Fill-478" fill="#A8CAD4"></path>
                <path d="M110.126859,41.0666122 C149.230215,6.99268631 199.195686,17.8675884 199.195686,17.8675884 L199.195686,17.8675884 L216.194307,33.7879762 C248.364906,32.9226117 280.534282,32.0560096 312.704909,31.1894075 C313.485519,30.9821934 314.158812,30.9617278 314.695402,31.0077754 C320.580006,31.8238408 321.687681,35.4795065 321.34273,35.9246331 C279.954989,89.2421828 194.274333,56.5397977 190.203603,54.9466351 C183.393407,57.4474285 162.173023,66.450917 123.162162,93.2666541 C74.6442072,126.615331 29.7482342,103.416307 29.7482342,103.416307 L29.7482342,103.416307 L29.7019614,102.695691 C29.3253934,102.954087 28.8412997,103.049667 28.3671538,102.916179 L28.3671538,102.916179 L4.60643828,96.2559091 C3.75683747,96.0179966 3.26113053,95.1354181 3.49876324,94.2848171 C3.73639595,93.4342161 4.61793663,92.9379256 5.46753744,93.1771171 L5.46753744,93.1771171 L29.228253,99.8373871 C29.3325498,99.8665932 29.4315135,99.9055144 29.5244421,99.952899 L29.0332358,92.3866309 C28.64121,92.7285671 28.0902211,92.8724616 27.5520481,92.7217578 L27.5520481,92.7217578 L3.79133254,86.0602087 C2.94300933,85.8222962 2.44730239,84.9397177 2.6849351,84.0903958 C2.9225678,83.2397948 3.80410849,82.7435043 4.6524317,82.9814167 L4.6524317,82.9814167 L28.4131472,89.6416867 C28.579975,89.6886544 28.7331575,89.76038 28.8698221,89.8517697 L28.4168673,82.8881981 C28.107903,83.0065175 27.7596595,83.0301501 27.416623,82.93409 L27.416623,82.93409 L3.65590745,76.2738201 C2.80630664,76.0346285 2.3105997,75.1533291 2.54823241,74.3027281 C2.78714271,73.452127 3.6674058,72.9558365 4.51700661,73.193749 L4.51700661,73.193749 L28.219,79.8387736 L27.7091301,71.9677507 C27.4159842,72.1051117 27.0800797,72.1544373 26.7432972,72.0921072 L26.6015172,72.0591879 L2.84080171,65.3989179 C1.9924785,65.1610055 1.49677156,64.278427 1.73440427,63.4278259 C1.97203697,62.5772249 2.85357766,62.0809344 3.70190088,62.3188468 L3.70190088,62.3188468 L27.4626164,68.9803959 C27.481086,68.9855679 27.4993883,68.9910446 27.5175195,68.996819 L27.0378652,61.6203311 C26.6473461,62.0886718 26.0050998,62.3109433 25.3801362,62.1359356 L25.3801362,62.1359356 L1.6194207,55.4756657 C0.769819891,55.2364741 0.274112953,54.3551747 0.51174566,53.5045737 C0.749378367,52.6539726 1.63091906,52.1576821 2.48051986,52.3955946 L2.48051986,52.3955946 L26.2412354,59.0571437 C26.4939225,59.1279033 26.7153049,59.2556886 26.8953998,59.4226643 L26.3333928,50.7606151 C25.947902,51.0581041 25.4320188,51.1760223 24.9278675,51.0346329 L24.9278675,51.0346329 L1.167152,44.374363 C0.31755119,44.1351714 -0.178155748,43.253872 0.0594769592,42.403271 C0.297109666,41.5526699 1.17865035,41.0563794 2.02825116,41.2942919 L2.02825116,41.2942919 L25.7889667,47.955841 C25.9226906,47.9933439 26.0476527,48.0468656 26.1623616,48.1137508 L26.1275294,47.5912977 C26.1275294,47.5912977 71.0235024,75.1418172 110.126859,41.0666122 Z" id="Combined-Shape" fill="#132134"></path>
            </g>
            <g id="Beannie" transform="translate(132.199871, 0.000000)">
                <path d="M44.0093219,24.1338127 C44.0093219,35.8759441 34.1577853,45.3962801 22.0040221,45.3962801 C9.85153659,45.3962801 0,35.8759441 0,24.1338127 C0,12.3904021 9.85153659,2.87134525 22.0040221,2.87134525 C34.1577853,2.87134525 44.0093219,12.3904021 44.0093219,24.1338127" id="Fill-472" fill="#132134"></path>
                <path d="M180.935587,42.8124996 C180.935587,42.8124996 134.16155,-37.6901722 31.4710026,22.0846956 C24.6486442,26.0550198 26.7809506,101.070356 54.7564527,126.346637 C87.4846089,155.916854 143.526322,66.1637361 180.935587,42.8124996" id="Fill-480" fill="#A8CAD4"></path>
                <path d="M201.455044,52.2266703 C213.376285,80.3924366 188.620323,110.187775 142.331771,135.625223 C96.0432192,161.061391 52.7174107,166.10488 35.0533795,133.262727 C33.262191,129.933231 28.6283532,119.149145 28.1454223,112.768998 C26.1574841,86.4464135 43.0856205,55.623958 80.3428518,35.1481366 C117.952699,14.4804504 157.082885,16.214909 181.41213,29.7695241 C189.352385,34.1926495 199.322738,47.1882982 201.455044,52.2266703" id="Fill-481" fill="#132134"></path>
            </g>
            <g id="Head" transform="translate(186.273860, 50.119695)">
                <path d="M158.456527,94.6280639 C150.141938,123.90153 123.249837,144.849339 89.7487352,149.502702 C45.6180418,155.653891 6.71399033,131.226932 0.536817539,86.7539287 C-5.63907766,42.2809256 42.6105827,7.04941489 86.7425537,0.913575616 C130.084971,-5.12249392 153.357645,19.1420195 160.016471,62.150454 C160.144231,62.9230299 160.256659,63.7122342 160.369087,64.5001593 C161.865151,75.2087786 161.093484,85.353315 158.456527,94.6280639" id="Fill-484" fill="#EEF3F7"></path>
                <path d="M67.4815284,31.8460337 C69.1091847,35.3750686 62.7569814,38.5894451 55.5360133,41.925336 C48.3163228,45.2625061 42.9619214,47.4574405 41.3355427,43.9284055 C39.7078864,40.3993706 44.2420717,34.8340096 51.4630398,31.4981187 C58.6827303,28.1609486 65.8551497,28.3169987 67.4815284,31.8460337" id="Fill-485" fill="#C1BFB9"></path>
                <path d="M140.014441,29.9606413 C139.830467,33.8427076 132.712984,33.7595662 124.770175,33.3822319 C116.826088,33.0048976 111.065411,32.4791878 111.248107,28.5958424 C111.432081,24.713776 118.020639,21.8716174 125.963449,22.2489517 C133.907536,22.6250069 140.197137,26.078575 140.014441,29.9606413" id="Fill-486" fill="#C1BFB9"></path>
                <path d="M71.8138538,65.5950683 C71.8138538,70.1934303 69.408142,73.9207256 66.4415659,73.9207256 C63.4737123,73.9207256 61.0680005,70.1934303 61.0680005,65.5950683 C61.0680005,60.9967064 63.4737123,57.2694111 66.4415659,57.2694111 C69.408142,57.2694111 71.8138538,60.9967064 71.8138538,65.5950683" id="Fill-487" fill="#181F1F"></path>
                <path d="M126.570306,60.9839154 C126.570306,65.5822773 124.164595,69.3095727 121.198019,69.3095727 C118.230165,69.3095727 115.824453,65.5822773 115.824453,60.9839154 C115.824453,56.3855535 118.230165,52.6582582 121.198019,52.6582582 C124.164595,52.6582582 126.570306,56.3855535 126.570306,60.9839154" id="Fill-488" fill="#181F1F"></path>
                <path d="M89.6874106,78.0509372 C89.376955,75.3712242 91.1017085,72.869306 93.7131131,72.2067325 C106.528671,68.9501458 143.569988,59.922263 146.528899,63.5881616 C149.597682,67.3934819 114.850926,90.0015618 104.834579,96.4008955 C102.934795,97.6147608 100.500976,97.5047582 98.6931792,96.1565876 C95.4378666,93.727578 90.9036812,88.5344349 89.6874106,78.0509372" id="Fill-489" fill="#D56E4F"></path>
                <path d="M63.3370096,100.523433 C63.3715047,100.673087 64.1789448,104.874928 67.6016224,109.159911 C69.3123224,111.298565 71.6912046,113.45001 74.9260757,115.051442 C78.1596691,116.655433 82.2364754,117.700457 87.2868092,117.697903 C89.7474576,117.697903 92.4406283,117.452312 95.3880404,116.907415 C96.2555275,116.747528 96.8291678,115.913555 96.6694684,115.045047 C96.5084914,114.176538 95.6767769,113.603502 94.8092898,113.763389 C92.0330754,114.275029 89.5340992,114.50015 87.2868092,114.50015 C82.6708578,114.498871 79.1178655,113.558733 76.3429287,112.184981 C72.1881892,110.125631 69.730096,107.054514 68.2851358,104.465617 C67.5645721,103.175005 67.1046379,102.009746 66.8299549,101.182169 C66.6919746,100.767741 66.5999877,100.437733 66.5450512,100.217728 L66.4862818,99.9759781 L66.4747834,99.923535 L66.4735058,99.9145813 L65.8295978,100.04377 L66.4735058,99.9196977 L66.4735058,99.9145813 L65.8295978,100.04377 L66.4735058,99.9196977 C66.3074184,99.0524684 65.4705936,98.4845483 64.604384,98.6508312 C63.7381745,98.8183932 63.1709222,99.6562032 63.3370096,100.523433" id="Fill-490" fill="#181F1F"></path>
                <path d="M39.3182198,103.893859 C29.6621553,103.893859 21.8343295,96.0555387 21.8343295,86.3881063 C21.8343295,76.7193948 29.6621553,68.8836326 39.3182198,68.8836326 C48.975562,68.8836326 56.8033878,76.7193948 56.8033878,86.3881063 C56.8033878,96.0555387 48.975562,103.893859 39.3182198,103.893859" id="Fill-491" fill="#DDA09A"></path>
                <path d="M158.456527,94.6280639 C152.425001,91.8741632 148.226823,85.7715805 148.226823,78.7019987 C148.226823,71.0376358 153.148119,64.5167876 160.016471,62.150454 C160.144231,62.9230299 160.256659,63.7122342 160.369087,64.5001593 C160.883958,68.1814071 161.130534,71.7961417 161.124267,75.3315721 C161.113925,82.0800999 160.186391,88.5408304 158.456527,94.6280639" id="Fill-492" fill="#DDA09A"></path>
            </g>
            <path d="M197.023774,168.831919 C197.023774,168.831919 184.169888,181.337673 190.054492,205.942427 L182.450245,209.205409 C182.450245,209.205409 175.208836,175.991038 197.023774,168.831919" id="Fill-504" fill="#0E1929"></path>
            <path d="M177.4804,250.290078 C177.387136,250.378336 172.91172,254.591689 168.445247,262.862345 C163.978774,271.130443 159.52891,283.468635 159.530187,299.713196 C159.530187,308.998177 160.982813,319.552026 164.69295,331.335088 C164.958689,332.178015 165.855561,332.644886 166.697497,332.380112 C167.538154,332.11406 168.004476,331.216132 167.740014,330.374485 C164.121865,318.883057 162.724175,308.664333 162.724175,299.713196 C162.725453,284.0583 166.997731,272.270121 171.254679,264.383194 C173.383152,260.442289 175.507793,257.479896 177.090733,255.515199 C177.881565,254.531572 178.536971,253.798648 178.987962,253.315148 C179.214097,253.074678 179.389127,252.895604 179.504111,252.780485 L179.63187,252.655133 L179.659977,252.628272 L179.66381,252.624435 C180.307718,252.0207 180.340936,251.008932 179.737911,250.364266 C179.134886,249.7196 178.124308,249.686344 177.4804,250.290078" id="Fill-505" fill="#F7F7F6"></path>
        </g>
    </g>
</svg>