<?xml version="1.0" encoding="UTF-8"?>
<svg width="447px" height="427px" viewBox="0 0 447 427" version="1.1" xmlns="http://www.w3.org/2000/svg" xmlns:xlink="http://www.w3.org/1999/xlink">
    <title>decoration-16</title>
    <g id="decoration-16" stroke="none" stroke-width="1" fill="none" fill-rule="evenodd">
        <g id="Group" transform="translate(54.305000, 0.943000)">
            <g id="Christmas/Stuffs/Bell" transform="translate(169.419058, 223.500000) scale(1, -1) translate(-169.419058, -223.500000) ">
                <path d="M129.270333,157.739406 C129.270333,157.739406 88.2817079,142.596564 64.9501262,184.236747 C41.6185445,225.875176 0,237.229674 0,237.229674 C0,237.229674 3.78302551,262.466575 27.7462812,271.928657 C27.7462812,271.928657 80.0839829,250.478345 86.3901952,208.209696 C91.7506511,172.278361 129.270333,157.739406 129.270333,157.739406" id="Fill-523" fill="#CF4D4D"></path>
                <path d="M326.245593,317.922452 C346.253868,299.531956 296.25336,255.442866 296.25336,255.442866 C296.25336,255.442866 332.318437,273.018816 338.229853,252.772768 C345.243189,228.750666 267.306898,201.612571 267.306898,201.612571 C267.306898,201.612571 308.483271,207.349507 304.512497,190.098323 C298.420353,163.620292 190.795382,135.404328 190.795382,135.404328 L181.722087,159.405365 C181.722087,159.405365 185.782347,275.097314 205.704644,279.872242 C225.626941,284.648926 223.09849,247.144673 223.09849,247.144673 C223.09849,247.144673 239.790476,299.588132 256.026253,303.423874 C272.263784,307.261371 273.730672,264.73291 273.730672,264.73291 C273.730672,264.73291 304.67568,337.747182 326.245593,317.922452" id="Fill-524" fill="#6E9985"></path>
                <polygon id="Fill-525" fill="#DFD9D1" points="137.847063 169.459046 137.9341 1.13098909e-13 190.908791 2.42443326e-13 190.60939 169.459046"></polygon>
                <path d="M312.361047,393.989518 C312.361047,412.804842 246.040539,428.056525 164.228226,428.056525 C82.4176675,428.056525 16.0971596,412.804842 16.0971596,393.989518 C16.0971596,375.174194 82.4176675,359.920756 164.228226,359.920756 C246.040539,359.920756 312.361047,375.174194 312.361047,393.989518" id="Fill-526" fill="#132134"></path>
                <path d="M141.881003,152.692377 C141.881003,152.692377 146.541354,155.611754 147.478337,152.297392 C153.968787,129.312783 173.448912,33.2155952 138.729652,31.5619251 C99.0026197,29.6677532 24.5931751,71.307937 129.270333,157.739406 L134.944871,153.952818 C134.944871,153.952818 91.4348141,64.366736 124.855634,56.7970703 C158.276453,49.225649 141.881003,152.692377 141.881003,152.692377" id="Fill-527" fill="#CF4D4D"></path>
                <path d="M153.986334,172.478486 C153.986334,172.478486 155.112819,177.862569 158.150118,176.240498 C179.207674,164.986062 261.937669,112.416208 239.060541,86.2348545 C212.884672,56.2774457 131.307482,31.4864391 141.607278,166.883745 L148.269684,168.351333 C148.269684,168.351333 182.643278,74.8750893 211.26513,93.7255233 C239.886982,112.575957 153.986334,172.478486 153.986334,172.478486" id="Fill-528" fill="#CF4D4D"></path>
                <path d="M188.207274,403.265519 L183.792574,355.948085 C183.680276,354.742065 182.611695,353.855543 181.404495,353.967895 C180.199051,354.080246 179.312953,355.149338 179.42525,356.357114 L183.838195,403.672792 C183.952247,404.880568 185.020829,405.76709 186.226274,405.654738 C187.433473,405.540632 188.319571,404.471539 188.207274,403.265519" id="Fill-529" fill="#F7F7F6"></path>
                <path d="M214.398935,422.711063 C214.398935,436.126505 203.528878,447 190.121597,447 C176.712561,447 165.844259,436.126505 165.844259,422.711063 C165.844259,409.297377 176.712561,398.422126 190.121597,398.422126 C203.528878,398.422126 214.398935,409.297377 214.398935,422.711063" id="Fill-530" fill="#9EAFB3"></path>
                <path d="M312.332973,394.619738 C312.361047,394.410835 312.361047,394.203688 312.361047,393.994785 C312.361047,375.168927 246.040539,359.911978 164.231735,359.911978 C82.4246861,359.911978 16.1041782,375.168927 16.1041782,393.994785 C16.1041782,394.203688 16.1041782,394.410835 16.1340072,394.619738 L16.0445201,394.619738 C16.0445201,358.454923 29.00612,325.293748 50.5269028,299.567066 C62.2093629,285.588112 69.017405,268.161379 69.017405,249.928877 L69.017405,241.304163 C69.017405,216.054974 79.2435055,193.182716 95.8021381,176.617928 C112.359016,160.051384 135.188768,149.820398 160.457483,149.820398 C210.933501,149.820398 251.867732,190.804029 251.867732,241.304163 L251.867732,241.423536 C251.867732,261.021808 259.746111,279.610674 273.034076,294.005679 C297.469332,320.445089 312.420705,355.777803 312.420705,394.619738 L312.332973,394.619738" id="Fill-531" fill="#9EAFB3"></path>
                <path d="M125.350445,173.245635 C125.104794,173.310588 115.747245,175.748961 105.636952,185.439257 C95.5231487,195.120775 84.7688985,212.073526 81.7368633,240.672187 C81.6087738,241.876452 82.4808349,242.957833 83.6862795,243.085984 C84.8899694,243.214134 85.9708338,242.341657 86.0989233,241.137392 C89.0642819,213.432274 99.297401,197.61708 108.672496,188.607913 C113.366185,184.106841 117.865108,181.315615 121.165605,179.653167 C122.814976,178.822821 124.166056,178.275109 125.087247,177.939811 C125.54872,177.771284 125.901405,177.657177 126.133019,177.586958 L126.383934,177.511472 L126.438328,177.497428 L126.440083,177.497428 C127.613943,177.195484 128.321067,175.999996 128.019268,174.825574 C127.719222,173.652908 126.524306,172.943691 125.350445,173.245635" id="Fill-532" fill="#F7F7F6"></path>
            </g>
        </g>
    </g>
</svg>