<?xml version="1.0" encoding="UTF-8"?>
<svg width="818px" height="172px" viewBox="0 0 818 172" version="1.1" xmlns="http://www.w3.org/2000/svg" xmlns:xlink="http://www.w3.org/1999/xlink">
    <title>decoration-7</title>
    <g id="decoration-7" stroke="none" stroke-width="1" fill="none" fill-rule="evenodd">
        <g id="Group-Copy-2" transform="translate(684.708770, 136.146947) rotate(-42.000000) translate(-684.708770, -136.146947) translate(541.000000, 38.000000)" fill-rule="nonzero">
            <path d="M52.7065113,43.0126885 C52.7065113,43.0126885 66.5061206,42.0739208 69.0755222,51.7136736 C69.0755222,51.7136736 82.6916028,40.6136156 88.5732602,50.5575986 C88.5732602,50.5575986 109.259565,33.9813962 115.18492,39.4314638 C115.18492,39.4314638 122.089094,13.9717381 137.706511,9.28659226 C137.706511,9.28659226 105.11706,14.1021225 104.784961,6.71367358 C104.784961,6.71367358 88.8791414,22.2728777 83.2334494,15.7710427 C83.2334494,15.7710427 71.2079507,34.8593178 65.0728489,31.3128623 C65.0728489,31.3128623 58.8678315,44.3165324 52.7065113,43.0126885 Z" id="Path" fill="#30825C"></path>
            <path d="M114.775111,22.4632581 C114.775111,22.4632581 64.0500843,45.2863341 40.7751111,46.3756776 C40.7751111,46.3756776 112.393118,20.6919677 114.775111,22.4632581 Z" id="Path" fill="#C9FFD4"></path>
            <path d="M143.752128,105.11036 C143.752128,105.11036 156.610741,114.664395 171.782497,114.681926 C171.782497,114.681926 167.367296,129.232109 182.354352,136.72633 C182.354352,136.72633 181.466035,156.947578 196.752128,158.691847 C196.752128,158.691847 187.094976,185.758693 190.762583,196.11036 C190.753788,196.101594 153.875427,156.377842 143.752128,105.11036 Z" id="Path" fill="#2A9F6A"></path>
            <path d="M149.369179,179.885495 C149.369179,179.885495 187.101445,188.808438 191.994628,196.293894 L144.785133,105.293894 C144.785133,105.293894 138.664239,130.905722 127.994628,131.098556 C127.994628,131.098556 146.922588,136.427779 142.72717,149.391467 C142.72717,149.391467 154.138707,152.441746 150.800038,162.39898 C150.800038,162.39898 155.631393,169.025449 154.121042,172.601638 C152.610692,176.177828 149.369179,179.885495 149.369179,179.885495 Z" id="Path" fill="#277D54"></path>
            <path d="M79.1217174,84.6276324 C79.1217174,84.6276324 76.2770959,100.447538 65.1892368,110.83844 C65.1892368,110.83844 78.3995534,118.506026 72.5870141,134.264239 C72.5870141,134.264239 87.1095555,148.506561 77.131363,160.2459 C77.131363,160.2459 102.776991,173.509943 107.189237,183.627632 C107.189237,183.627632 106.89861,129.205394 79.1217174,84.6276324 Z" id="Path" fill="#2A9F6A"></path>
            <path d="M127.879687,142.303278 C127.879687,142.303278 106.45506,174.577648 108.036506,183.408592 L79.8796868,84.4085924 C79.8796868,84.4085924 101.984601,99.0387001 109.918339,91.9175393 C109.918339,91.9175393 99.7582069,108.724536 111.747163,115.396218 C111.747163,115.396218 105.509725,125.416961 114.804038,130.449365 C114.804038,130.449365 115.837721,138.610497 119.398185,140.205708 C122.958649,141.800919 127.879687,142.303278 127.879687,142.303278 Z" id="Path" fill="#277D54"></path>
            <path d="M84.3820718,88.6622942 L99.8143485,151.94827 L78.8143485,90.6306858 C78.8143485,90.6306858 78.8489306,83.8769156 84.3820718,88.6622942 Z" id="Path" fill="#C9FFD4"></path>
            <path d="M159.303624,90.0244479 C159.303624,90.0244479 172.412965,85.312727 177.59327,93.9479627 C177.59327,93.9479627 187.698387,79.4449705 196.173646,87.4583992 C196.173646,87.4583992 211.608838,65.7039108 218.868312,69.3559324 C218.868312,69.3559324 218.47186,42.7933868 232.303624,33.9479627 C232.303624,33.9479627 202.058753,47.5839283 199.671232,40.5163469 C199.671232,40.5163469 188.588201,59.9675219 181.302297,55.2207696 C181.302297,55.2207696 174.967877,77.0190473 168.025565,75.276236 C168.025565,75.2849938 165.638044,89.5953135 159.303624,90.0244479 Z" id="Path" fill="#30825C"></path>
            <path d="M185.41754,110.027181 C185.41754,110.027181 198.951919,101.330154 204.36567,86.9894072 C204.36567,86.9894072 216.423571,96.4252804 228.789072,84.9776078 C228.789072,84.9776078 247.412026,93.1316265 254.495603,79.3071821 C254.495603,79.3071821 276.414266,98.2412409 287.41754,98.5171957 C287.408751,98.5171957 237.059105,119.017965 185.41754,110.027181 Z" id="Path" fill="#2A9F6A"></path>
            <path d="M257.223138,131.077725 C257.223138,131.077725 278.191026,100.340712 286.913036,98.4876176 L185.913036,108.901488 C185.913036,108.901488 207.678615,123.595746 204.084621,133.487618 C204.084621,133.487618 215.760719,117.958162 226.393682,126.397138 C226.393682,126.397138 233.283631,116.975065 241.400799,123.569646 C241.400799,123.569646 249.29882,121.464252 252.112654,124.117744 C254.917723,126.779937 257.223138,131.077725 257.223138,131.077725 Z" id="Path" fill="#277D54"></path>
            <path d="M257,102.384539 C257,102.384539 192.055773,120.482406 130.519493,98.9719989 C68.9832125,77.461592 23.8279147,30.3001126 9.83600855,9.52660385 C-4.15589757,-11.2469049 -3.73429588,5.20171372 14.4209269,27.7999226 C32.5761498,50.3981315 79.3212373,84.6200308 112.961539,99.9720749 C146.60184,115.324119 234.321342,118.324347 257,102.384539 Z" id="Path" fill="#A8E5B2"></path>
            <circle id="Oval" fill="#B11022" cx="126.708646" cy="89.8735082" r="10.5"></circle>
            <circle id="Oval" fill="#F81132" cx="92.4469667" cy="71.1348486" r="9.5"></circle>
            <circle id="Oval" fill="#F81132" cx="76.1657895" cy="84.7334981" r="12.5"></circle>
            <circle id="Oval" fill="#B11022" cx="82.5980458" cy="72.3590858" r="9"></circle>
            <path d="M213.621259,52.794087 C213.621259,52.794087 170.827162,88.3690394 148.621259,95.7764748 C148.621259,95.7764748 210.836682,51.7696544 213.621259,52.794087 Z" id="Path" fill="#C9FFD4"></path>
            <path d="M29.8704162,54.035976 C29.8704162,54.035976 34.5323559,67.1512062 44.6007276,65.6656339 C44.6007276,65.6656339 39.6817608,82.6837879 51.3543361,84.1341988 C51.3543361,84.1341988 44.1487145,109.881189 51.6290892,113.159997 C51.6290892,113.159997 30.5705934,129.738632 32.4584131,146.035976 C32.4584131,146.035976 23.8701629,114.012662 16.8152123,116.658563 C16.8152123,116.658563 24.9957644,95.7374856 16.6290892,93.1267461 C16.6290892,93.1267461 29.6665671,74.3768894 23.8878889,70.1311413 C23.8790259,70.1399316 33.5662885,59.1959225 29.8704162,54.035976 Z" id="Path" fill="#30825C"></path>
            <path d="M35.9742172,119.260424 C35.9742172,119.260424 36.4154403,60.9505957 27.9781729,39.260424 C27.9781729,39.260424 33.3538919,117.773598 35.9742172,119.260424 Z" id="Path" fill="#C9FFD4"></path>
            <path d="M148.723902,107.893837 C148.723902,107.893837 176.594584,160.011181 177.001326,165.225553 L145.001326,107.225553 L148.723902,107.893837 Z" id="Path" fill="#C9FFD4"></path>
            <circle id="Oval" fill="#BF1E30" cx="147.334668" cy="91.6248529" r="13"></circle>
            <circle id="Oval" fill="#EF355A" cx="134.658193" cy="106.450742" r="11.5"></circle>
        </g>
        <g id="Group-Copy-3" transform="translate(166.499223, 142.904751) scale(-1, -1) rotate(-6.000000) translate(-166.499223, -142.904751) translate(3.000000, 31.000000)" fill-rule="nonzero">
            <path d="M163.428447,119.489503 C163.428447,119.489503 178.048447,130.389503 195.298447,130.409503 C195.298447,130.409503 190.278447,147.009503 207.318447,155.559503 C207.318447,155.559503 206.308447,178.629503 223.688447,180.619503 C223.688447,180.619503 212.708447,211.499503 216.878447,223.309503 C216.868447,223.299503 174.938447,177.979503 163.428447,119.489503 Z" id="Path" fill="#2A9F6A"></path>
            <path d="M169.838447,205.089503 C169.838447,205.089503 212.558447,215.269503 218.098447,223.809503 L164.648447,119.989503 C164.648447,119.989503 157.718447,149.209503 145.638447,149.429503 C145.638447,149.429503 167.068447,155.509503 162.318447,170.299503 C162.318447,170.299503 175.238447,173.779503 171.458447,185.139503 C171.458447,185.139503 176.928447,192.699503 175.218447,196.779503 C173.508447,200.859503 169.838447,205.089503 169.838447,205.089503 Z" id="Path" fill="#277D54"></path>
            <path d="M90.1784468,96.6695029 C90.1784468,96.6695029 86.9484468,114.619503 74.3584468,126.409503 C74.3584468,126.409503 89.3584468,135.109503 82.7584468,152.989503 C82.7584468,152.989503 99.2484468,169.149503 87.9184468,182.469503 C87.9184468,182.469503 117.038447,197.519503 122.048447,208.999503 C122.048447,208.999503 121.718447,147.249503 90.1784468,96.6695029 Z" id="Path" fill="#2A9F6A"></path>
            <path d="M144.508447,162.359503 C144.508447,162.359503 120.258447,198.979503 122.048447,208.999503 L90.1784468,96.6695029 C90.1784468,96.6695029 115.198447,113.269503 124.178447,105.189503 C124.178447,105.189503 112.678447,124.259503 126.248447,131.829503 C126.248447,131.829503 119.188447,143.199503 129.708447,148.909503 C129.708447,148.909503 130.878447,158.169503 134.908447,159.979503 C138.938447,161.789503 144.508447,162.359503 144.508447,162.359503 Z" id="Path" fill="#277D54"></path>
            <path d="M95.0484468,101.139503 L112.898447,173.479503 L88.6084468,103.389503 C88.6084468,103.389503 88.6484468,95.6695029 95.0484468,101.139503 Z" id="Path" fill="#C9FFD4"></path>
            <path d="M181.498447,102.609503 C181.498447,102.609503 196.378447,97.2295029 202.258447,107.089503 C202.258447,107.089503 213.728447,90.5295029 223.348447,99.6795029 C223.348447,99.6795029 240.868447,74.8395029 249.108447,79.0095029 C249.108447,79.0095029 248.658447,48.6795029 264.358447,38.5795029 C264.358447,38.5795029 230.028447,54.1495029 227.318447,46.0795029 C227.318447,46.0795029 214.738447,68.2895029 206.468447,62.8695029 C206.468447,62.8695029 199.278447,87.7595029 191.398447,85.7695029 C191.398447,85.7795029 188.688447,102.119503 181.498447,102.609503 Z" id="Path" fill="#30825C"></path>
            <path d="M210.858447,125.649503 C210.858447,125.649503 226.258447,115.879503 232.418447,99.7695029 C232.418447,99.7695029 246.138447,110.369503 260.208447,97.5095029 C260.208447,97.5095029 281.398447,106.669503 289.458447,91.1395029 C289.458447,91.1395029 314.398447,112.409503 326.918447,112.719503 C326.908447,112.719503 269.618447,135.749503 210.858447,125.649503 Z" id="Path" fill="#2A9F6A"></path>
            <path d="M293.128447,150.169503 C293.128447,150.169503 317.048447,114.839503 326.998447,112.709503 L211.778447,124.679503 C211.778447,124.679503 236.608447,141.569503 232.508447,152.939503 C232.508447,152.939503 245.828447,135.089503 257.958447,144.789503 C257.958447,144.789503 265.818447,133.959503 275.078447,141.539503 C275.078447,141.539503 284.088447,139.119503 287.298447,142.169503 C290.498447,145.229503 293.128447,150.169503 293.128447,150.169503 Z" id="Path" fill="#277D54"></path>
            <path d="M292.598447,116.709503 C292.598447,116.709503 218.658447,137.339503 148.598447,112.819503 C78.5384468,88.2995029 27.1284468,34.5395029 11.1984468,10.8595029 C-4.73155321,-12.8204971 -4.25155321,5.92950292 16.4184468,31.6895029 C37.0884468,57.4495029 90.3084468,96.4595029 128.608447,113.959503 C166.908447,131.459503 266.778447,134.879503 292.598447,116.709503 Z" id="Path" fill="#A8E5B2"></path>
            <circle id="Oval" fill="#B11022" cx="144.528447" cy="102.669503" r="11.72"></circle>
            <circle id="Oval" fill="#F81132" cx="105.088447" cy="81.1695029" r="11.06"></circle>
            <circle id="Oval" fill="#F81132" cx="86.2384468" cy="96.2495029" r="14.15"></circle>
            <circle id="Oval" fill="#B11022" cx="93.5184468" cy="82.9995029" r="10.17"></circle>
            <path d="M243.308447,60.0795029 C243.308447,60.0795029 194.898447,100.709503 169.778447,109.169503 C169.778447,109.169503 240.158447,58.9095029 243.308447,60.0795029 Z" id="Path" fill="#C9FFD4"></path>
            <path d="M33.5484468,61.6995029 C33.5484468,61.6995029 38.8084468,76.6195029 50.1684468,74.9295029 C50.1684468,74.9295029 44.6184468,94.2895029 57.7884468,95.9395029 C57.7884468,95.9395029 49.6584468,125.229503 58.0984468,128.959503 C58.0984468,128.959503 34.3384468,147.819503 36.4684468,166.359503 C36.4684468,166.359503 26.7784468,129.929503 18.8184468,132.939503 C18.8184468,132.939503 28.0484468,109.139503 18.6084468,106.169503 C18.6084468,106.169503 33.3184468,84.8395029 26.7984468,80.0095029 C26.7884468,80.0195029 37.7184468,67.5695029 33.5484468,61.6995029 Z" id="Path" fill="#30825C"></path>
            <path d="M40.5484468,136.339503 C40.5484468,136.339503 41.0384468,69.6695029 31.6684468,44.8695029 C31.6684468,44.8695029 37.6384468,134.639503 40.5484468,136.339503 Z" id="Path" fill="#C9FFD4"></path>
            <path d="M169.208447,123.879503 C169.208447,123.879503 200.728447,183.149503 201.188447,189.079503 L164.998447,123.119503 L169.208447,123.879503 Z" id="Path" fill="#C9FFD4"></path>
            <circle id="Oval" fill="#BF1E30" cx="167.478447" cy="104.839503" r="14.82"></circle>
            <circle id="Oval" fill="#EF355A" cx="153.818447" cy="121.449503" r="12.83"></circle>
        </g>
        <g id="Group" transform="translate(249.000000, 3.000000)" fill-rule="nonzero">
            <g>
                <path d="M107.969784,4.37571708 C111.994823,1.49331038 116.684224,-0.0391176563 122.172475,0.645772298 C127.054824,1.25505044 130.959082,3.76934825 133.946609,7.34500392 C135.696688,9.43960517 137.062296,11.8108381 138.197932,14.4418561 L138.344074,14.789 L139.063941,14.9119158 L139.564422,14.9993319 C145.040064,15.9644862 149.395152,19.0649489 152.514291,23.422382 C154.360061,26.0009191 155.701956,28.8958804 156.702365,32.071367 L156.900074,32.721 L157.067738,32.7861678 C158.788095,33.4696861 160.494641,34.4068914 162.158596,35.6036951 L162.656476,35.97053 L162.894074,36.152 L163.091616,35.6650474 C163.816433,33.9216173 164.674326,32.2797414 165.69801,30.7470857 L166.089726,30.1774746 L166.455877,29.6736535 C169.560452,25.5118089 173.834093,22.5656532 179.12474,21.6393319 L180.345074,21.429 L180.405781,21.2850596 C181.366643,19.0223021 182.493981,16.9485173 183.883744,15.0736896 L184.269349,14.5673133 L184.637216,14.1086844 C187.63522,10.4633908 191.56705,7.89447666 196.519219,7.2754566 C201.844828,6.61196715 206.420314,8.0344727 210.365021,10.7515113 L210.789074,11.052 L210.99723,10.9484509 L211.389411,10.7595192 L211.781693,10.5746149 L212.566478,10.2172121 C216.073123,8.65812056 219.380241,7.67523875 222.791996,7.49755979 C229.105858,7.16874359 235.135857,9.79834974 238.37047,15.8933152 C239.155635,17.3514792 239.745834,18.9121294 240.08752,20.6547455 L240.112714,20.7931242 C240.724154,23.9232789 240.886781,26.9145139 240.658274,29.7344739 L240.603343,30.3361177 L240.551074,30.81 L240.609549,30.8676659 C241.615809,31.8698665 242.516825,33.0037508 243.293851,34.2950231 L243.579387,34.786678 L243.804208,35.2001265 C246.790148,40.8597751 246.243225,47.2989251 242.765969,52.9915766 L242.578135,53.2940598 L242.388102,53.5934554 L242.235074,53.827 L242.734153,53.9404678 C253.737532,56.5168861 261.343906,62.9464594 265.019407,71.8937773 L265.194183,72.3286714 L265.35528,72.7474327 L265.566515,73.3250134 L265.765435,73.9022752 L265.816074,74.06 L266.170244,74.0921671 C274.850082,74.9277861 284.126219,79.5942617 293.199218,88.8390845 L293.676553,89.3298857 L294.115649,89.7892302 C302.098828,98.2093644 305.153136,107.941795 303.123957,117.6705 C302.250842,121.85657 300.54086,125.699479 298.176372,129.25509 L297.834155,129.761086 L297.527074,130.199 L297.824526,130.372378 C305.612048,134.957712 311.702466,140.319371 315.417787,147.010788 L315.691972,147.515146 L315.950977,148.012356 C319.334957,154.650361 319.305425,161.755426 315.751589,167.792848 C313.869647,170.989978 311.290061,173.492543 308.171534,175.521359 L307.742954,175.7951 L307.469074,175.963 L311.010433,181.010546 C316.1532,188.325757 317.696595,196.361497 315.461358,204.074929 C313.711811,210.112327 309.949083,215.163319 304.816595,219.529237 C303.279446,220.836802 301.652497,222.053677 299.955467,223.188094 L299.223936,223.669249 L298.970074,223.831 L299.841201,225.679426 C300.622044,227.3358 301.027957,229.140291 301.034504,230.96467 L301.028914,231.385975 L301.009078,231.807636 C299.824404,250.325007 290.717333,262.210354 276.763747,266.459833 C276.332555,266.59115 275.900491,266.714041 275.467663,266.828735 L274.817862,266.994657 L274.265074,267.125 L274.269628,267.151334 C274.3365,267.629903 274.4023,268.11723 274.467117,268.613478 L274.658712,270.129139 C274.690183,270.386263 274.721431,270.645656 274.752467,270.90734 L274.936226,272.505082 L275.115432,274.158746 L275.290619,275.869294 L275.437272,277.373964 C276.453291,287.947762 271.916718,296.612555 263.328025,301.43352 C257.471882,304.720662 250.431183,305.953349 242.296933,305.888165 C239.542359,305.866092 236.732469,305.691383 233.899248,305.391153 L232.683676,305.254877 L232.359074,305.214 L232.292592,305.457107 C232.055825,306.289233 231.793773,307.12113 231.504602,307.950737 L231.206322,308.779506 L230.954407,309.441113 C226.505589,320.841637 217.390033,328.339694 204.24227,327.589251 C195.898829,327.113027 189.113098,323.969207 184.028612,318.975484 L183.661074,318.607 L183.481963,318.719229 C178.427493,321.809859 172.32622,323.682059 165.273963,324.045827 L164.588521,324.076312 L163.990933,324.095037 C154.321889,324.355307 146.199003,321.139578 140.183666,315.292977 L139.84543,314.959233 L139.535074,314.644 L139.302583,314.802572 C138.60686,315.269651 137.8857,315.73083 137.138819,316.185576 L136.383354,316.638157 L135.870152,316.937437 C128.728371,321.056851 120.871593,320.59994 114.197555,316.462841 C109.837088,313.759877 106.27233,309.766108 103.061969,304.728853 C102.720589,304.193207 102.385717,303.649157 102.057202,303.097388 L101.569178,302.264031 L101.372074,301.917 L101.151926,302.033151 C94.5356841,305.460701 87.6901574,307.340883 80.6123018,306.931325 L80.0050594,306.890595 L79.4435176,306.842955 C73.2511616,306.264622 67.4503088,303.856902 62.4464841,299.593172 C54.7117328,293.00113 50.5536801,284.522377 49.5215266,275.20459 L49.4664382,274.676279 L49.4430743,274.424 L49.1893727,274.390374 C48.082126,274.236036 46.9469033,274.044202 45.7841348,273.815525 L44.9069003,273.63712 L44.3534011,273.518628 C36.6850544,271.834616 30.7210562,267.427762 26.9575036,261.088074 C24.0995226,256.273818 22.7050384,250.770258 22.3426812,244.763971 C22.3062034,244.15933 22.28051,243.554051 22.2651009,242.948483 L22.2490743,242.037 L22.1098447,241.994701 C13.4081003,239.212934 6.65592396,231.858116 2.71143764,220.444174 L2.52277022,219.888721 L2.34411062,219.344324 C-1.62410143,206.997516 0.937969299,195.164784 7.69804537,184.266359 L8.26307329,183.37271 C9.41184367,181.589656 10.6723257,179.832159 12.0341595,178.102087 L12.3767235,177.670142 L12.6290743,177.357 L12.5390496,177.235457 C9.12910124,172.501741 7.21095051,166.2966 7.02886903,158.881691 L7.01771949,158.260987 L7.01458133,157.709563 C7.01458133,145.460997 13.6200155,135.718427 24.0178476,128.000429 L24.893052,127.361938 L25.7854521,126.732759 C25.9355983,126.628668 26.0864459,126.524963 26.2379874,126.421642 C26.7987938,126.039283 27.3640079,125.66612 27.9329368,125.301997 L28.7890296,124.762572 L29.4240743,124.374 L29.2778786,123.910607 L29.0976133,123.303675 C26.654034,114.814603 27.2789233,105.307445 31.5228163,95.2782936 C36.0867138,84.4929088 44.5813228,77.6851002 55.1979841,74.4870987 C56.8589981,73.9867601 58.5232858,73.5843893 60.1829655,73.2699446 L61.0123848,73.1200029 L61.2450743,73.081 L61.2151198,72.6401837 C61.1154242,71.0753223 61.0637046,69.4434416 61.0627851,67.74323 L61.0665718,66.8874239 L61.0768921,66.1292228 C61.2589306,56.6632198 66.3471218,49.5043995 74.1562393,44.5328865 L74.5489525,44.286133 L74.7450743,44.165 L74.6176678,43.8854426 C72.4813391,39.1169811 72.3363403,33.9814839 74.5203128,29.3162887 L74.702502,28.9390767 L74.8805094,28.5913926 C75.6823806,27.0672521 76.6443777,25.7466108 77.7403289,24.5937399 L78.0731067,24.252876 L78.1410743,24.186 L78.1126227,23.9364331 C77.8179299,21.2413854 77.8827429,18.3830624 78.3592391,15.3905258 L78.4676657,14.7472243 L78.5738931,14.176244 C80.0479896,6.58675264 85.8839021,1.5421375 93.2254007,0.908721844 C97.2738662,0.559425123 101.112897,1.48063854 105.243634,3.21295641 C105.762547,3.4305746 106.282504,3.66058755 106.803592,3.90230337 L107.586084,4.27356774 L107.898074,4.428 L107.969784,4.37571708 Z M123.205074,128.395 L122.850345,128.581169 C120.966266,129.550116 119.033002,130.362059 117.057667,131.000522 L116.920074,131.043 L116.930921,131.434549 C116.935281,131.696582 116.937065,131.958644 116.936211,132.220718 L116.925675,133.006957 C116.74426,140.687042 114.264173,147.554526 108.430461,152.470536 C106.04323,154.491189 103.618937,156.099182 101.200696,157.337016 L100.578074,157.647 L100.58578,158.087155 C100.59347,159.368651 100.504964,160.635473 100.302963,161.894445 L100.289074,161.972 L100.635462,162.41071 C102.754995,165.131761 104.494611,167.897513 105.743763,170.806635 L106.003891,171.432248 C108.608459,177.907867 108.526609,184.754056 104.514875,190.38412 L104.264074,190.726 L104.406096,190.90016 C107.779312,195.123688 109.462258,200.371463 109.085515,206.094016 L109.050448,206.559036 C109.018171,206.942114 108.982931,207.320792 108.944754,207.695069 L108.910074,208.013 L109.224974,208.133098 C114.939125,210.354629 119.457638,214.355293 121.6624,220.582854 L121.700074,220.693 L121.978709,220.728725 C125.048883,221.138377 128.000578,222.261059 130.682241,224.211743 L130.781074,224.285 L130.834041,224.243257 C132.208535,223.165636 133.669259,222.234969 135.240903,221.467974 L135.715749,221.242803 C142.223206,218.246035 149.389893,218.846853 155.343398,223.178198 L155.710074,223.451 L156.147837,223.001448 L156.609534,222.545119 L157.08003,222.099117 C163.500907,216.14034 171.934166,214.017469 179.815936,218.341768 L179.985074,218.437 L180.060706,218.334308 C182.659444,214.804294 185.482769,211.885127 188.757116,209.710317 L189.25168,209.389695 C193.642467,206.61235 198.601777,205.375385 203.628167,206.208448 L203.716074,206.224 L203.877812,205.891212 C204.509201,204.61755 205.236188,203.402919 206.075755,202.251959 L206.442512,201.762602 C208.259809,199.402259 210.489643,197.46349 213.089254,196.099864 L213.196074,196.044 L213.189972,196.00374 C212.647649,192.789221 212.489302,189.732435 212.850458,186.766548 L212.929656,186.174563 C213.287107,183.724752 214.010538,181.403889 215.124008,179.314556 L215.222074,179.132 L214.954836,178.819891 C208.321886,171.002766 205.515108,161.154968 208.608595,150.137626 L208.746818,149.657877 L209.192395,148.169136 L209.632812,146.736574 L210.068408,145.358828 L210.49952,144.034537 C210.714011,143.385527 210.926948,142.756051 211.13852,142.145343 L211.532074,141.023 L211.452092,140.948853 C208.876666,138.499009 206.87467,135.497127 205.552444,132.022076 L205.482074,131.835 L204.888872,131.711042 C203.331849,131.374039 201.784018,130.977966 200.255975,130.51556 L199.341609,130.230099 C198.736607,130.035335 198.140197,129.831481 197.552648,129.618009 L197.385074,129.73 L197.211236,129.864164 C196.441381,130.43509 195.63145,130.899799 194.797058,131.264786 L194.377897,131.439 L194.168074,131.518 L194.108183,131.563 C192.864743,132.456303 191.424709,133.137192 189.816887,133.532146 L189.411452,133.624885 L189.130073,133.681342 L188.748912,133.750224 L188.30855,133.82312 L187.541398,133.937138 L186.961817,134.014363 L186.330062,134.091037 C182.335301,134.552791 178.150334,134.623977 173.963691,134.019128 C169.452614,133.367408 165.340087,131.990727 161.829849,129.588319 C158.171796,132.3018 153.810685,133.823469 148.995472,134.519128 C144.808829,135.123977 140.623861,135.052791 136.629101,134.591037 L135.997345,134.514363 L135.417765,134.437138 L134.650613,134.32312 L134.210251,134.250224 L133.82909,134.181342 C131.942546,133.824134 130.268938,133.081679 128.850979,132.063 L128.790074,132.018 L128.581266,131.939 C127.598803,131.551751 126.646091,131.030245 125.747927,130.364164 L125.569074,130.227 L125.402052,130.114501 C124.968799,129.81732 124.551155,129.510846 124.106153,129.155086 L123.766601,128.8784 C123.648556,128.780431 123.530819,128.68072 123.413371,128.57923 L123.205074,128.395 Z" id="Sticker" fill="#FFFFFF"></path>
                <g id="Crown" transform="translate(13.039074, 13.000000)">
                    <path d="M274.765507,156.699563 C274.765507,156.699563 298.285507,153.459563 291.775507,140.689563 C285.275507,127.939563 262.245507,120.919563 262.245507,120.919563 C262.245507,120.919563 290.275507,104.659563 272.005507,85.389563 C253.735507,66.119563 241.465507,76.129563 241.465507,76.129563 C241.465507,76.129563 246.225507,55.859563 224.195507,52.609563 C219.215507,51.879563 214.685507,51.659563 210.675507,51.779563 C196.955507,52.169563 189.165507,56.349563 189.165507,56.349563 L179.195507,54.439563 L174.875507,53.609563 L173.295507,53.299563 L166.735507,52.049563 L162.745507,51.299563 L147.085507,48.289563 L145.255507,47.939563 L129.915507,45.009563 L125.865507,44.239563 L115.645507,42.269563 L108.505507,40.919563 L101.405507,39.549563 C100.995507,39.489563 100.615507,39.409563 100.205507,39.319563 L84.555507,36.329563 C84.555507,36.329563 83.745507,36.429563 82.415507,36.699563 C76.585507,37.819563 60.755507,41.929563 60.535507,53.369563 C60.285507,67.379563 64.045507,72.389563 64.045507,72.389563 C64.045507,72.389563 38.255507,67.629563 29.995507,87.149563 C21.735507,106.669563 34.005507,116.679563 34.005507,116.679563 C34.005507,116.679563 6.47550699,126.189563 6.47550699,144.709563 C6.47550699,163.229563 19.975507,161.719563 19.975507,161.719563 C19.975507,161.719563 -5.79449301,180.739563 1.20550699,202.519563 C8.22550699,224.279563 23.235507,216.269563 23.235507,216.269563 C23.235507,216.269563 15.735507,244.299563 33.995507,248.309563 C44.585507,250.619563 48.795507,248.729563 50.435507,246.749563 C48.525507,252.849563 45.805507,267.099563 57.515507,277.079563 C72.795507,290.099563 93.555507,270.079563 93.555507,270.079563 C93.555507,270.079563 103.565507,300.619563 116.585507,293.109563 C129.585507,285.609563 128.855507,278.579563 128.855507,278.579563 C128.855507,278.579563 129.625507,286.589563 135.025507,292.469563 C138.265507,296.019563 143.185507,298.799563 150.615507,298.599563 C170.385507,298.099563 173.145507,282.339563 173.145507,282.339563 C173.145507,282.339563 174.395507,301.109563 191.915507,302.109563 C209.435507,303.109563 208.675507,277.569563 208.675507,277.569563 C208.675507,277.569563 252.215507,289.089563 249.955507,265.569563 C247.945507,244.489563 245.325507,242.089563 244.805507,241.819563 C246.575507,242.239563 273.545507,248.489563 275.495507,218.009563 L269.475507,205.239563 C269.475507,205.239563 300.765507,193.719563 287.745507,175.199563 C274.765507,156.699563 274.765507,156.699563 274.765507,156.699563 Z M117.355507,232.029563 C117.355507,232.029563 118.105507,230.039563 111.835507,222.769563 C106.185507,216.209563 96.635507,223.559563 94.855507,225.029563 C95.895507,224.099563 99.195507,220.379563 97.075507,212.509563 C94.565507,203.249563 78.805507,205.759563 78.805507,205.759563 C78.805507,205.759563 82.565507,204.259563 83.555507,192.509563 C84.555507,180.739563 67.545507,179.739563 67.545507,179.739563 C67.545507,179.739563 73.315507,177.729563 80.315507,171.229563 C87.315507,164.729563 72.555507,151.459563 72.555507,151.459563 C72.555507,151.459563 68.295507,154.219563 73.055507,150.459563 C77.805507,146.719563 72.555507,134.949563 72.555507,134.949563 C72.555507,134.949563 79.305507,136.709563 87.315507,129.929563 C95.325507,123.179563 89.075507,106.669563 89.075507,106.669563 C101.015507,109.309563 110.335507,100.629563 113.455507,97.219563 C114.205507,96.429563 114.595507,95.909563 114.595507,95.909563 C115.485507,94.619563 116.465507,93.439563 117.525507,92.359563 C118.815507,91.049563 120.205507,89.909563 121.695507,88.909563 C124.335507,87.099563 127.255507,85.769563 130.315507,84.839563 C131.645507,84.419563 133.015507,84.069563 134.405507,83.819563 C135.525507,83.589563 136.665507,83.409563 137.805507,83.299563 C139.485507,83.089563 141.185507,82.969563 142.875507,82.969563 C146.275507,82.909563 149.665507,83.179563 152.945507,83.699563 C156.085507,84.199563 159.135507,84.929563 161.935507,85.839563 C162.435507,85.989563 162.915507,86.149563 163.405507,86.319563 C164.135507,86.569563 164.855507,86.839563 165.545507,87.129563 C167.995507,88.089563 170.195507,89.189563 172.065507,90.349563 C173.895507,91.489563 175.405507,92.699563 176.465507,93.939563 C177.125507,94.669563 177.605507,95.429563 177.915507,96.159563 C178.765507,98.169563 180.155507,99.829563 181.885507,101.189563 C189.425507,107.169563 203.185507,107.669563 203.185507,107.669563 C202.705507,122.179563 215.455507,122.429563 215.455507,122.429563 C215.455507,122.429563 212.945507,122.429563 207.695507,140.199563 C202.445507,157.969563 223.205507,166.219563 223.205507,166.219563 C223.205507,166.219563 223.205507,166.219563 215.445507,169.979563 C207.685507,173.739563 215.945507,192.259563 215.945507,192.259563 C215.945507,192.259563 215.945507,192.259563 207.935507,193.489563 C199.925507,194.739563 199.675507,209.019563 199.675507,209.019563 C199.675507,209.019563 200.425507,210.269563 190.165507,206.009563 C179.905507,201.769563 170.895507,223.779563 170.895507,223.779563 C170.895507,223.779563 170.895507,223.779563 161.885507,217.029563 C152.875507,210.279563 144.875507,230.299563 144.875507,230.299563 C144.875507,230.199563 144.645507,229.099563 135.865507,221.039563 C126.615507,212.509563 117.355507,232.029563 117.355507,232.029563 Z" id="Shape" fill="#2A9F6A"></path>
                    <g id="Leaf-2" transform="translate(145.053570, 6.629942)">
                        <path d="M74.0219369,26.8196213 C69.2619369,34.5696213 63.0019369,34.8296213 63.0019369,34.8296213 C63.0019369,34.8296213 69.2119369,38.1496213 65.6219369,45.1496213 C65.2719369,45.8396213 64.8119369,46.5796213 64.2519369,47.3496213 C57.9819369,55.8596213 53.2319369,56.1096213 53.2319369,56.1096213 C53.2319369,56.1096213 58.9819369,58.6196213 53.2319369,67.6296213 C49.9719369,72.7396213 41.1319369,73.4196213 34.1119369,73.0296213 C28.7519369,72.7596213 24.4519369,71.8696213 24.4519369,71.8696213 L23.6619369,71.3896213 L22.2119369,70.5196213 L19.0119369,68.5696213 L17.2719369,67.5096213 L7.03193691,61.2996213 L5.33193691,60.2796213 L4.67193691,59.8696213 C4.67193691,59.8696213 1.41193691,53.9696213 0.331936908,47.4996213 C-0.0180630917,45.4396213 -0.128063092,43.3096213 0.181936908,41.3096213 C0.451936908,39.3196213 1.14193691,37.4496213 2.44193691,35.8896213 C2.50193691,35.7696213 2.58193691,35.6796213 2.67193691,35.5796213 C9.69193691,27.5696213 14.1919369,32.3396213 14.1919369,32.3396213 C14.1919369,32.3396213 14.6919369,15.8096213 23.2019369,14.3196213 C31.7119369,12.8196213 31.7119369,13.5696213 31.7119369,13.5696213 C31.7119369,13.5696213 33.9719369,0.799621297 39.9719369,0.0496212965 C45.9919369,-0.700378703 50.4819369,7.2996213 50.4819369,7.2996213 C50.4819369,7.2996213 65.9919369,-3.9903787 69.2719369,2.1896213 C69.4819369,2.5796213 69.6619369,3.0196213 69.7519369,3.5596213 C71.5119369,12.5696213 66.9919369,17.0596213 66.9919369,17.0596213 C66.9919369,17.0596213 78.7619369,19.0596213 74.0219369,26.8196213 Z" id="Path" fill="#1E7C4F"></path>
                        <path d="M16.7019369,59.3596213 C16.7019369,59.3596213 16.9519369,39.5896213 19.9519369,37.0896213 C22.9519369,34.5896213 21.2019369,55.1096213 21.2019369,55.1096213 L36.4719369,36.8396213 C36.4719369,36.8396213 35.9719369,19.3196213 41.4819369,14.8196213 L40.2319369,32.3396213 L64.5119369,9.8196213 L44.4919369,35.0996213 C44.4919369,35.0996213 54.0019369,33.8496213 59.0119369,30.3496213 C59.0119369,30.3496213 58.0119369,34.3496213 53.7519369,37.1096213 C49.4919369,39.8696213 39.4919369,40.3596213 39.4919369,40.3596213 L26.4819369,58.6296213 C26.4819369,58.6296213 44.0019369,54.6296213 46.0019369,51.8696213 C48.0019369,49.1096213 41.2419369,58.1296213 33.7419369,61.6296213 C26.2419369,65.1296213 16.7019369,59.3596213 16.7019369,59.3596213 Z" id="Path" fill="#47D692"></path>
                    </g>
                    <g id="Leaf-1" transform="translate(72.415396, 0.000000)">
                        <path d="M70.4601112,59.859563 C70.4601112,59.859563 79.4701112,43.589563 72.4601112,35.579563 C65.4501112,27.569563 60.9501112,32.329563 60.9501112,32.329563 C60.9501112,32.329563 60.4501112,15.809563 51.9401112,14.309563 C43.4301112,12.809563 43.4301112,13.559563 43.4301112,13.559563 C43.4301112,13.559563 41.1801112,0.799563013 35.1701112,0.0495630134 C29.1601112,-0.700436987 24.6601112,7.30956301 24.6601112,7.30956301 C24.6601112,7.30956301 7.14011123,-5.45043699 5.39011123,3.55956301 C3.64011123,12.569563 8.14011123,17.069563 8.14011123,17.069563 C8.14011123,17.069563 -3.61988877,19.069563 1.13011123,26.829563 C5.89011123,34.589563 12.1401112,34.839563 12.1401112,34.839563 C12.1401112,34.839563 4.63011123,38.839563 10.8901112,47.349563 C17.1501112,55.859563 21.9001112,56.109563 21.9001112,56.109563 C21.9001112,56.109563 16.1401112,58.609563 21.9001112,67.619563 C27.6601112,76.629563 50.6801112,71.869563 50.6801112,71.869563 L70.4601112,59.859563 Z" id="Path" fill="#1E7C4F"></path>
                        <path d="M58.4501112,59.349563 C58.4501112,59.349563 58.2001112,39.579563 55.2001112,37.079563 C52.2001112,34.579563 53.9501112,55.099563 53.9501112,55.099563 L38.6801112,36.829563 C38.6801112,36.829563 39.1801112,19.309563 33.6701112,14.809563 L34.9201112,32.329563 L10.6401112,9.80956301 L30.6601112,35.089563 C30.6601112,35.089563 21.1501112,33.839563 16.1401112,30.339563 C16.1401112,30.339563 17.1401112,34.339563 21.4001112,37.099563 C25.6601112,39.859563 35.6601112,40.349563 35.6601112,40.349563 L48.6701112,58.619563 C48.6701112,58.619563 31.1501112,54.619563 29.1501112,51.859563 C27.1501112,49.099563 33.9101112,58.119563 41.4101112,61.619563 C48.9401112,65.109563 58.4501112,59.349563 58.4501112,59.349563 Z" id="Path" fill="#47D692"></path>
                    </g>
                    <path d="M44.525507,128.429563 C44.525507,128.429563 41.275507,125.179563 41.025507,129.679563 C40.775507,134.179563 41.275507,139.189563 45.525507,136.689563 C49.775507,134.189563 44.525507,128.429563 44.525507,128.429563 Z M30.255507,131.429563 C30.255507,131.429563 24.495507,130.179563 28.255507,136.179563 C32.005507,142.189563 37.765507,142.689563 37.015507,138.929563 C36.265507,135.179563 30.255507,131.429563 30.255507,131.429563 Z M50.275507,168.719563 C50.275507,168.719563 40.265507,174.229563 43.515507,176.229563 C46.775507,178.229563 60.285507,176.479563 50.275507,168.719563 Z M106.465507,233.659563 C106.465507,233.659563 93.325507,237.789563 94.455507,240.789563 C95.585507,243.789563 94.835507,244.539563 103.465507,243.789563 C112.095507,243.049563 110.965507,236.659563 106.465507,233.659563 Z M51.275507,213.389563 C51.275507,213.389563 43.765507,211.139563 45.265507,217.139563 C46.765507,223.139563 49.765507,226.519563 52.395507,222.399563 C55.035507,218.269563 51.275507,213.389563 51.275507,213.389563 Z M181.915507,254.679563 C181.915507,254.679563 179.285507,256.559563 187.545507,261.059563 C195.805507,265.559563 198.055507,253.179563 190.925507,250.169563 C183.795507,247.179563 181.915507,254.679563 181.915507,254.679563 Z M204.065507,223.899563 C204.065507,223.899563 200.315507,225.779563 202.935507,231.029563 C205.565507,236.289563 208.565507,235.159563 208.565507,231.409563 C208.565507,227.659563 210.065507,221.649563 204.065507,223.899563 Z M234.095507,197.249563 C234.095507,197.249563 225.085507,199.499563 226.965507,203.259563 C228.845507,207.009563 227.715507,207.009563 234.095507,205.139563 C240.475507,203.249563 240.095507,198.749563 234.095507,197.249563 Z M233.345507,96.639563 C233.345507,96.639563 225.085507,96.639563 229.595507,103.769563 C234.105507,110.899563 230.725507,113.529563 237.105507,110.529563 C243.485507,107.529563 246.865507,104.899563 243.865507,100.389563 C240.855507,95.889563 233.345507,96.639563 233.345507,96.639563 Z M222.085507,71.119563 C222.085507,71.119563 219.085507,78.629563 223.585507,81.259563 C228.085507,83.889563 228.085507,85.759563 231.845507,78.629563 C235.605507,71.499563 227.715507,67.739563 222.085507,71.119563 Z M267.125507,163.089563 C267.125507,163.089563 260.365507,161.589563 262.245507,166.839563 C264.125507,172.089563 260.745507,174.719563 267.125507,173.969563 C273.505507,173.219563 275.765507,169.089563 267.125507,163.089563 Z M78.685507,89.139563 C78.685507,89.139563 70.425507,86.889563 76.055507,95.519563 C81.685507,104.149563 78.685507,107.909563 82.065507,105.659563 C85.445507,103.409563 91.075507,100.029563 88.075507,94.769563 C85.065507,89.509563 78.685507,89.139563 78.685507,89.139563 Z M77.175507,49.719563 C77.175507,49.719563 70.795507,51.599563 71.165507,56.099563 C71.545507,60.599563 72.295507,62.859563 77.175507,59.849563 C82.055507,56.839563 77.175507,49.719563 77.175507,49.719563 Z M57.655507,261.439563 C57.655507,261.439563 56.525507,271.199563 60.285507,271.949563 C64.045507,272.699563 68.165507,272.699563 65.545507,264.819563 C62.915507,256.939563 57.655507,261.439563 57.655507,261.439563 Z" id="Light" fill="#47D692"></path>
                    <path d="M287.765507,175.219563 C300.785507,193.739563 269.495507,205.259563 269.495507,205.259563 L275.515507,218.029563 C273.565507,248.509563 246.595507,242.259563 244.825507,241.839563 C245.345507,242.109563 247.965507,244.499563 249.975507,265.589563 C252.235507,289.109563 208.695507,277.589563 208.695507,277.589563 C208.695507,277.589563 209.445507,303.129563 191.935507,302.129563 C174.415507,301.129563 173.165507,282.359563 173.165507,282.359563 C173.165507,282.359563 170.405507,298.119563 150.635507,298.619563 C143.205507,298.809563 138.285507,296.029563 135.045507,292.489563 C135.275507,292.389563 135.505507,292.319563 135.735507,292.239563 C155.795507,285.279563 174.815507,274.419563 191.605507,262.009563 C192.565507,261.299563 193.535507,260.579563 194.475507,259.849563 C205.225507,251.689563 215.005507,242.929563 223.465507,234.249563 C227.415507,230.199563 231.085507,226.169563 234.445507,222.209563 C238.765507,217.139563 242.545507,212.179563 245.745507,207.529563 C246.595507,206.279563 247.425507,205.039563 248.195507,203.829563 C249.045507,202.499563 249.835507,201.189563 250.585507,199.909563 L250.645507,199.809563 C250.895507,199.369563 251.165507,198.919563 251.415507,198.479563 C251.915507,197.549563 252.395507,196.649563 252.865507,195.759563 C267.505507,167.229563 261.125507,132.329563 247.595507,109.799563 C246.665507,108.239563 245.585507,106.809563 244.395507,105.459563 C241.195507,101.849563 237.125507,98.979563 232.605507,96.719563 C214.455507,87.559563 189.105507,88.139563 183.775507,89.519563 C183.105507,89.689563 182.465507,89.789563 181.825507,89.809563 C179.705507,89.929563 177.755507,89.229563 175.885507,87.899563 C173.125507,85.949563 170.575507,82.609563 168.015507,78.389563 C167.765507,77.979563 167.515507,77.579563 167.265507,77.159563 C166.845507,76.429563 166.395507,75.659563 165.955507,74.859563 C165.895507,74.739563 165.815507,74.629563 165.765507,74.509563 C164.515507,72.249563 164.335507,69.939563 164.975507,67.549563 C165.115507,66.989563 165.305507,66.429563 165.535507,65.869563 C166.095507,64.539563 166.845507,63.189563 167.815507,61.799563 C168.645507,60.599563 169.605507,59.369563 170.685507,58.119563 C171.955507,56.649563 173.365507,55.169563 174.875507,53.629563 C179.295507,49.149563 184.555507,44.369563 189.425507,39.239563 C194.675507,33.679563 199.375507,27.669563 203.145507,22.419563 C208.815507,14.549563 212.325507,8.44956301 212.325507,8.44956301 L214.335507,8.83956301 C214.545507,9.22956301 214.725507,9.66956301 214.815507,10.209563 C216.575507,19.219563 212.055507,23.709563 212.055507,23.709563 C212.055507,23.709563 223.825507,25.719563 219.075507,33.469563 C214.315507,41.219563 208.055507,41.479563 208.055507,41.479563 C208.055507,41.479563 214.265507,44.799563 210.675507,51.799563 C214.685507,51.679563 219.225507,51.899563 224.195507,52.629563 C246.225507,55.869563 241.465507,76.149563 241.465507,76.149563 C241.465507,76.149563 253.735507,66.139563 272.005507,85.409563 C290.275507,104.679563 262.245507,120.939563 262.245507,120.939563 C262.245507,120.939563 285.275507,127.959563 291.775507,140.709563 C298.275507,153.479563 274.765507,156.719563 274.765507,156.719563 C274.765507,156.719563 274.765507,156.699563 287.765507,175.219563 Z" id="Shadow" fill="#471D00" opacity="0.25"></path>
                </g>
                <g id="Decorations" transform="translate(12.043937, 55.714978)">
                    <path d="M214.681533,148.908145 C214.819493,149.021052 214.958024,149.147247 215.097235,149.286892 L215.306575,149.506466 C215.341554,149.54475 215.37658,149.583879 215.411652,149.623856 L215.622673,149.873918 C215.657942,149.917298 215.693263,149.961531 215.728636,150.006619 L215.941519,150.28744 C215.977109,150.335961 216.012755,150.385343 216.048459,150.435589 L216.263387,150.74744 L216.479779,151.080129 L216.697717,151.433776 L216.917281,151.808503 L217.138552,152.20443 L217.361612,152.621677 L217.58654,153.060366 L217.813419,153.520617 L218.042329,154.002551 L218.273351,154.506288 L218.506566,155.031949 L218.860676,155.861812 L219.220177,156.741684 L219.58534,157.671971 L219.956439,158.653081 L220.207271,159.335591 L220.58887,160.402311 L220.977133,161.52094 L221.372334,162.691886 L221.910532,164.335232 L222.462197,166.073275 L222.885173,167.439533 L223.316362,168.860008 L223.904527,170.839017 L224.508425,172.916102 L225.286409,175.651849 L226.091252,178.544234 L227.0943,182.224515 L228.212156,186.408077 L230.127279,193.711044 L233.214022,205.514491 L234.697675,211.116371 L236.003645,215.969723 L236.738925,218.652357 L237.418051,221.084597 L238.166058,223.69551 L238.739591,225.633745 L239.169488,227.040494 L239.476747,228.017075 L239.868302,229.221179 L240.149802,230.055277 L240.511009,231.082066 L240.772745,231.792675 L241.027847,232.456177 L241.194772,232.874063 L241.441262,233.466805 L241.684053,234.021744 L241.924246,234.542368 L242.162943,235.032168 L242.321786,235.343299 L242.48078,235.643315 L242.800524,236.214136 L242.961926,236.487009 L243.043153,236.620764 C245.222997,240.179442 249.383401,239.390627 253.487869,235.145143 L253.898054,234.709106 C254.376209,234.18703 254.852679,233.618309 255.32423,233.004357 L255.727137,232.46707 C256.262538,231.736005 256.790307,230.946391 257.305617,230.100341 C262.827822,221.033833 264.603203,209.331446 261.012388,199.111922 C260.989774,199.047562 260.955374,198.951156 260.909187,198.822703 L262.724544,198.169936 C262.784648,198.337423 262.829342,198.463141 262.858625,198.547089 C266.619121,209.327688 264.747798,221.590053 258.953172,231.10383 L258.766209,231.407465 L258.387797,232.002276 C258.260695,232.197756 258.132649,232.390431 258.003722,232.580258 L257.614365,233.141153 C256.830621,234.245683 256.017462,235.246131 255.18858,236.133164 L254.772892,236.567185 C249.909393,241.519496 244.588514,242.559565 241.527913,237.834447 L241.398136,237.628407 L241.226698,237.344038 L240.977887,236.914151 L240.731903,236.46704 L240.487646,235.999234 L240.244014,235.507264 L239.999908,234.987657 L239.836363,234.624184 L239.589018,234.050804 L239.253729,233.228308 L238.996713,232.563447 L238.733718,231.853594 L238.463641,231.095279 L238.185384,230.285031 L237.897844,229.419379 L237.599921,228.494852 L237.394993,227.844079 L236.96852,226.45529 L236.400909,224.54512 L235.916022,222.867611 L235.400934,221.048411 L234.853033,219.079293 L233.963951,215.826524 L232.461629,210.219455 L230.935024,204.435066 L227.246145,190.31332 L226.063139,185.831296 L225.071674,182.136198 L224.086491,178.538746 L223.608222,176.822676 L223.139299,175.161474 L222.378121,172.51425 L221.787101,170.5053 L221.070141,168.129459 L220.651331,166.775825 L220.105865,165.054458 L219.706281,163.825814 L219.314684,162.650441 L218.80472,161.165837 L218.431175,160.114075 L218.065114,159.114994 L217.706387,158.168416 L217.471236,157.566445 L217.239232,156.987677 L217.01033,156.43206 L216.784487,155.899541 L216.451359,155.143958 L216.232965,154.668955 L216.017473,154.216867 L215.804837,153.787641 L215.491143,153.186552 L215.285454,152.814251 L215.082465,152.464627 L214.882131,152.137629 L214.684408,151.833204 L214.489251,151.551299 L214.296616,151.291862 C214.200921,151.167752 214.106155,151.052047 214.012292,150.944718 L213.825764,150.741221 C213.702205,150.61299 213.580222,150.499615 213.459757,150.401025 C209.679895,147.307579 203.609637,146.430465 199.806407,148.308215 C195.69201,150.339596 195.217583,155.004851 199.850369,161.875329 C201.404292,164.179815 202.426453,167.911292 202.95841,172.733574 L203.058278,173.712474 C203.089397,174.043556 203.118349,174.379386 203.145147,174.719865 L203.219093,175.755149 C203.241595,176.104826 203.261956,176.459052 203.280187,176.817728 L203.328505,177.907004 L203.364121,179.022381 C203.373883,179.398456 203.381542,179.778782 203.387107,180.163259 L203.397539,181.329041 C203.399628,181.918059 203.397037,182.516192 203.389807,183.123104 L203.369174,184.348533 C203.364709,184.554689 203.359731,184.761795 203.354242,184.969839 L203.315193,186.229263 C203.307667,186.44101 203.299634,186.65367 203.291094,186.867231 L203.233794,188.159304 L203.164419,189.472398 C203.151854,189.692965 203.13879,189.914383 203.125227,190.13664 L203.037878,191.480142 L202.93864,192.84317 L202.827585,194.225125 L202.704789,195.62541 L202.570323,197.043428 L202.424264,198.478581 L202.266683,199.93027 L202.097656,201.397899 L201.917256,202.88087 L201.725557,204.378585 L201.522633,205.890446 L201.308558,207.415856 L201.083405,208.954218 L200.847249,210.504932 L200.600163,212.067403 L200.342221,213.641031 L200.073498,215.22522 L199.794067,216.819372 L199.504002,218.422888 L199.203376,220.035173 L198.901135,221.610561 L198.593984,223.168361 L198.282083,224.707932 L197.965594,226.228635 L197.644679,227.729831 L197.319499,229.210881 L196.990215,230.671144 L196.824085,231.39328 L196.488949,232.821165 L196.150114,234.226664 L195.80774,235.609138 C195.750392,235.837597 195.692903,236.065069 195.635277,236.291542 L195.287899,237.63828 L194.937386,238.960395 L194.5839,240.257248 C194.524747,240.471249 194.465477,240.684171 194.406093,240.896001 L194.048451,242.15376 L193.688239,243.384657 L193.32562,244.588054 C193.264992,244.786293 193.20427,244.983359 193.143458,245.179239 L192.77753,246.340185 L192.409598,247.472031 L192.039823,248.574137 C191.916276,248.936479 191.792449,249.293757 191.668368,249.645865 L191.295393,250.686574 C191.233113,250.857406 191.170776,251.026918 191.108386,251.195097 L190.733435,252.18808 C190.608256,252.513674 190.482891,252.833831 190.357368,253.148446 L189.980346,254.075555 C187.023696,261.205985 183.994078,265.216563 181.240804,264.724065 C176.363871,263.851692 173.985959,260.081948 173.55038,254.550028 C173.362567,252.16477 173.548101,249.629874 173.970988,247.146848 C174.057103,246.641214 174.14822,246.168818 174.240488,245.735798 L174.374854,245.135265 L174.468608,244.756263 L176.332681,245.252908 L176.192197,245.840619 L176.12701,246.138866 L175.997855,246.778222 C175.955312,247.000465 175.913436,247.231568 175.872704,247.470732 C175.474386,249.8095 175.299899,252.193478 175.473528,254.398602 C175.847813,259.152084 177.73028,262.136392 181.580485,262.825106 C182.859235,263.053845 184.452799,261.239998 186.18148,257.860284 L186.507147,257.208354 C186.670728,256.873331 186.835398,256.524807 187.001009,256.163175 L187.333442,255.42255 L187.66812,254.647669 C187.724072,254.515707 187.780107,254.382346 187.836219,254.247601 L188.173771,253.422646 C188.23017,253.282425 188.286634,253.14085 188.343159,252.997934 L188.682995,252.124476 C188.73974,251.976258 188.796536,251.82673 188.853376,251.675905 L189.194901,250.755515 L189.537224,249.804709 L189.880082,248.824187 L190.223211,247.814647 L190.566348,246.776786 L190.909229,245.711304 L191.251593,244.618898 L191.593175,243.500267 L191.933712,242.35611 L192.272941,241.187124 L192.610598,239.994007 L192.946421,238.777459 L193.280147,237.538177 L193.611511,236.27686 L193.940251,234.994206 L194.266104,233.690914 L194.588806,232.367681 L194.908094,231.025206 L195.223706,229.664188 L195.535376,228.285324 L195.842844,226.889314 L196.145844,225.476855 L196.444114,224.048645 L196.737392,222.605384 L197.025412,221.147769 L197.307913,219.676498 L197.602343,218.097251 L197.886459,216.526122 L198.160205,214.963739 L198.423522,213.410729 L198.676351,211.867719 L198.918633,210.335336 L199.150311,208.814208 L199.371325,207.304962 L199.581618,205.808225 L199.781131,204.324624 L199.969805,202.854788 L200.147582,201.399343 L200.314404,199.958916 L200.470212,198.534134 L200.614947,197.125626 C200.638144,196.892266 200.660877,196.659609 200.683145,196.42767 L200.811162,195.044748 L200.927961,193.679666 C200.946489,193.453675 200.964547,193.228452 200.982135,193.004012 L201.081996,191.666869 L201.170493,190.349135 L201.247567,189.051438 L201.313159,187.774404 L201.367211,186.518662 L201.409665,185.284839 C201.440194,184.26596 201.458581,183.270566 201.464673,182.300291 L201.466072,181.148122 C201.464564,180.768155 201.46108,180.392311 201.455609,180.020695 L201.433227,178.918637 C201.4285,178.737109 201.423273,178.556665 201.417547,178.377317 L201.377175,177.314487 C201.36171,176.964665 201.344234,176.619333 201.324737,176.278595 L201.260175,175.270266 C200.871631,169.801412 199.930285,165.611745 198.392375,163.170906 L198.25092,162.953842 C193.031003,155.212642 193.642441,149.200107 198.952382,146.578456 C203.455253,144.355275 210.332655,145.349016 214.681533,148.908145 Z M167.530871,168.64814 C170.88804,170.088144 173.054787,171.662302 174.241726,173.305329 C174.476982,173.630983 174.666788,173.948192 174.816092,174.254079 C174.873678,174.372058 174.94682,174.545051 175.035518,174.773058 L173.616489,177.433177 C173.40581,176.298427 173.293958,175.70462 173.280933,175.651756 C173.191863,175.290268 173.00171,174.88311 172.677984,174.434991 C171.716607,173.1042 169.829404,171.733133 166.771776,170.421611 C165.431006,169.848938 163.934065,170.82445 162.156434,173.670493 C162.066034,173.815227 161.975479,173.963868 161.884726,174.116502 L161.611831,174.586465 C161.566235,174.666816 161.520578,174.748187 161.474856,174.830589 L161.199687,175.337442 L160.922676,175.869528 L160.643558,176.427359 L160.362073,177.011447 L160.077958,177.622302 L159.790949,178.260438 L159.500786,178.926365 L159.207205,179.620595 L158.909945,180.343639 L158.608742,181.096011 L158.148973,182.280674 L157.836768,183.1086 L157.519702,183.967643 L157.034416,185.315672 L156.536718,186.736593 L156.025724,188.232133 L155.500547,189.804019 L154.776719,192.021612 L153.8779,194.858961 L147.793297,214.674218 L145.942122,220.628395 L145.059449,223.407135 L144.342739,225.605833 C144.224151,225.966608 144.105958,226.324648 143.9881,226.680105 L143.284534,228.783069 C138.604364,242.648189 126.287568,251.075325 111.519734,252.99112 C107.896392,253.461167 104.400844,253.482484 101.247247,253.115119 L100.552163,253.027109 C99.9777628,252.948476 99.4156329,252.856666 98.8671338,252.752061 L98.2155647,252.620417 C98.1080893,252.597461 98.001181,252.573999 97.8948504,252.550035 L97.2638888,252.40024 C91.233309,250.894391 87.2198883,247.718106 87.3464999,243.466628 C87.4080736,241.343167 88.4574359,238.465835 90.4706004,234.674019 L90.9008615,233.876405 L91.3585799,233.052377 L91.8437084,232.20162 L92.3561997,231.323817 C92.4438925,231.175246 92.5327235,231.025534 92.6226917,230.874675 L93.4388467,229.524462 L94.2755312,228.16561 L95.2519272,226.614796 L96.1739454,225.185897 L97.3526556,223.398779 L98.929876,221.050844 L104.49279,212.907901 L107.115071,209.083119 L108.310538,207.324783 L109.45882,205.621831 L110.739034,203.704117 L111.701025,202.247489 L112.922478,200.37492 L113.507049,199.468104 L114.351301,198.144263 L115.41628,196.446216 L116.169638,195.222284 L116.884223,194.040266 L117.339127,193.275273 L117.989335,192.16191 L118.401422,191.442184 L118.796439,190.740285 L119.174418,190.056052 L119.535392,189.389323 L120.045039,188.421702 L120.363641,187.798034 L120.665351,187.191309 L120.950201,186.601367 L121.218225,186.028047 L121.469454,185.471189 L121.70392,184.930632 L121.921656,184.406216 L122.122695,183.89778 L122.307068,183.405163 C122.33641,183.32437 122.365059,183.244229 122.393016,183.164737 L122.552453,182.695549 L122.695305,182.241778 L122.821606,181.803266 C122.880623,181.587797 122.933446,181.37799 122.980093,181.173754 L123.065156,180.772684 C123.436542,178.869821 123.2319,177.481924 122.467693,176.527429 C118.870229,172.034191 116.028446,172.488229 113.392348,176.025235 C112.919718,176.65939 112.502368,177.3439 112.146805,178.028576 L111.912925,178.497122 L111.757995,178.837011 L111.69001,178.959769 L110.034484,177.964726 L110.128926,177.757267 L110.267719,177.469096 L110.434796,177.139503 C110.835262,176.36836 111.305534,175.597051 111.845579,174.872442 C115.167526,170.415192 119.492028,169.724257 123.973597,175.321742 C125.616596,177.373851 125.410995,180.617982 123.630116,185.137037 L123.351204,185.824467 L123.048868,186.531084 L122.723312,187.256948 C122.610947,187.502118 122.494745,187.750506 122.374743,188.002123 L122.003364,188.766671 C121.875792,189.024755 121.744453,189.286079 121.60938,189.550653 L121.079088,190.570645 L120.573425,191.513538 L120.22313,192.151714 L119.676247,193.126227 L119.296399,193.789081 L118.702078,194.806008 L118.07631,195.853564 L117.189166,197.304666 L116.481315,198.4388 L115.734556,199.616515 L114.674483,201.26131 L113.828231,202.555825 L112.627376,204.370456 L111.002298,206.794108 L108.856644,209.954103 L105.402962,214.993721 L102.46858,219.299707 L100.500596,222.216573 L99.2949669,224.020909 L97.9033662,226.126641 L96.6356537,228.074441 L95.7075335,229.525006 L94.8533024,230.884845 L94.2596753,231.847952 L93.5289761,233.060088 L93.025242,233.917701 L92.7099475,234.466002 L92.2670482,235.254731 L91.9913729,235.758906 L91.6064962,236.484142 L91.3685653,236.947785 L91.0388993,237.614918 L90.836838,238.041624 L90.6485998,238.45456 L90.4738845,238.854303 L90.3123922,239.241427 L90.163823,239.616506 L90.027877,239.980117 L89.9042541,240.332834 C89.8846606,240.390745 89.865568,240.448225 89.8469701,240.505287 L89.7412696,240.842742 C89.7246256,240.89818 89.7084638,240.953224 89.692778,241.007887 L89.6043249,241.331372 L89.5269951,241.646264 L89.4604887,241.953137 L89.4045058,242.252566 L89.3587463,242.545126 L89.3229103,242.831393 L89.2966978,243.111941 L89.279809,243.387345 C89.2777545,243.432849 89.276076,243.478162 89.2747672,243.523298 C89.1847101,246.54732 92.2811625,249.023372 97.1084016,250.360113 L97.6958849,250.515016 C98.0929547,250.614588 98.5007289,250.706717 98.9184622,250.7911 L99.5524381,250.911828 C100.300574,251.045811 101.078067,251.15561 101.880925,251.239601 L102.575207,251.305235 C102.691924,251.315108 102.809137,251.324445 102.926831,251.333241 L103.6387,251.379488 C104.117016,251.405943 104.602683,251.423591 105.094954,251.432132 L105.838222,251.438074 L106.590839,251.430127 L107.352245,251.408063 C107.990258,251.383732 108.636844,251.344459 109.290547,251.289654 L110.078315,251.216395 L110.474586,251.174103 L111.271556,251.078051 C125.362554,249.25006 137.035822,241.263225 141.456786,228.16601 L141.806115,227.126629 L142.510233,225.003047 L143.306218,222.558453 L144.463231,218.895959 L147.266034,209.832818 L152.376185,193.195118 L153.132936,190.835088 L153.68165,189.159526 L154.215313,187.562817 L154.734918,186.043059 L155.241459,184.59835 L155.735929,183.226789 L156.219322,181.926473 L156.535921,181.098238 L156.848333,180.300258 L157.156852,179.531971 L157.461773,178.792812 C157.51231,178.672015 157.562709,178.552409 157.612976,178.43398 L158.061998,177.399628 L158.357891,176.744475 C158.406996,176.637538 158.456001,176.531721 158.504911,176.427012 L158.797283,175.81196 L159.087677,175.222937 L159.376386,174.659381 L159.663705,174.120727 C159.759279,173.945264 159.85467,173.773857 159.949928,173.606412 L160.23535,173.115873 C160.33039,172.95626 160.425345,172.800515 160.520265,172.648545 C162.740818,169.093371 165.050039,167.588519 167.530871,168.64814 Z M100.252684,157.232546 C101.322833,158.302694 101.419033,159.948956 100.63715,162.115419 L100.469095,162.555631 C100.289388,163.002746 100.074813,163.47052 99.826138,163.958505 L99.5661242,164.453211 L99.283547,164.961292 L98.9785769,165.482649 L98.6513842,166.017182 L98.3021393,166.564792 C98.2421037,166.657144 98.1811562,166.750037 98.1193006,166.843469 L97.7372972,167.410508 L97.3336677,167.990375 C97.2646034,168.088083 97.1946451,168.186321 97.1237964,168.285088 L96.4622122,169.188196 C96.3860529,169.290114 96.3090137,169.392554 96.2310983,169.495514 L95.7531198,170.119497 L95.254282,170.755861 L94.7347556,171.404507 L94.1947109,172.065335 L93.6343184,172.738246 L93.0537484,173.42314 L92.4531715,174.119918 L91.5151657,175.187151 L90.8653169,175.913204 L89.8542022,177.023883 L89.1561467,177.77859 L88.4391067,178.544585 L87.3283238,179.714524 L86.5645684,180.508303 L85.3845111,181.719452 L84.5751054,182.540394 L83.7477378,183.372027 L82.4733808,184.639305 L81.5247086,185.572652 L80.4829272,186.587331 L78.8942028,188.115177 L77.2789351,189.646097 L76.1899659,190.66624 L75.0931328,191.684484 L73.43658,193.205427 L72.3269703,194.213204 L70.6586271,195.712323 L69.5460735,196.701466 L68.4350956,197.68087 L67.3272666,198.649228 L66.2241598,199.605233 L65.1273483,200.547579 L63.4973765,201.932628 L62.4231865,202.835109 L60.8345215,204.154236 L59.7927858,205.008686 L58.766785,205.841638 L57.7580923,206.651784 L56.7682811,207.437818 L55.7989245,208.198434 L54.8515958,208.932324 L53.9278682,209.638184 L53.0293151,210.314704 L52.1575096,210.96058 C52.014525,211.0656 51.8727205,211.169289 51.7321288,211.271618 L50.9033946,211.869077 L50.1053412,212.432625 C49.9749764,212.523652 49.8459556,212.61321 49.7183114,212.701274 L48.969229,213.211506 L48.2547605,213.684559 L47.9109981,213.906736 C41.5625169,217.974274 38.940139,222.309423 39.5670709,226.071014 C40.0776287,229.134361 42.8517933,231.47769 45.9447794,231.651556 L46.3597915,231.673351 L47.1562556,231.706028 C48.317644,231.744326 49.3299047,231.734977 50.2032561,231.685851 L50.7650234,231.647294 C51.3064358,231.603016 51.78712,231.541837 52.2101038,231.466089 L52.6139662,231.38557 C52.6781084,231.371369 52.7406758,231.356786 52.8016825,231.34183 L53.0761097,231.269665 L53.3685819,231.178206 L53.5295789,231.115402 L53.5702724,231.09418 L54.8774894,230.568323 L56.0515059,231.951355 L54.7310168,232.634991 C54.4822674,232.822382 54.0147228,233.030674 53.2610033,233.21545 C52.6318748,233.369682 51.8792334,233.487949 50.99222,233.563324 L50.3808517,233.607143 C50.2755994,233.613361 50.1686584,233.619031 50.0600139,233.624144 L49.3875841,233.648043 L48.6735528,233.658861 C48.3060177,233.658861 47.9226139,233.655702 47.5229393,233.646202 L46.7017765,233.619632 C46.4207447,233.608226 46.1323621,233.594246 45.8365098,233.577615 C41.8653305,233.354383 38.3271396,230.365684 37.6642184,226.388156 C36.9062732,221.840486 39.821884,216.913163 46.4889056,212.529953 L46.8702911,212.282435 C47.1862002,212.080028 47.5146123,211.864446 47.854773,211.636312 L48.5505358,211.163496 L49.2762875,210.658322 L50.030687,210.121903 C50.1587331,210.029958 50.287917,209.936757 50.4182107,209.842324 L51.2130678,209.261122 L52.0332204,208.651454 L52.8773276,208.014433 L54.1854697,207.010046 L55.0835966,206.309505 L56.4664826,205.215051 L57.8881805,204.07156 L59.3441648,202.882786 L60.8299096,201.652481 L61.8347049,200.811058 L62.8493747,199.953956 L63.8725781,199.082289 L64.9029741,198.197166 L66.4591209,196.846688 L68.0239083,195.472192 L69.0696652,194.544371 L70.6387963,193.138184 L71.6832586,192.19271 L73.2441619,190.765257 L74.3362668,189.755881 C76.5139925,187.734161 78.6496588,185.697241 80.6864905,183.692202 L81.8590436,182.530412 L82.9985741,181.386186 L84.1045336,180.260264 L85.1763735,179.153385 L86.2135451,178.06629 L87.2154999,176.999719 L88.1816894,175.954413 L89.1115651,174.931111 L90.0045782,173.930553 L90.5791703,173.276517 L91.409527,172.315512 L92.2015585,171.379226 L92.9547161,170.468398 L93.6684513,169.583769 L94.3422155,168.726079 L94.9754602,167.896069 L95.3748416,167.358471 L95.9393348,166.576237 L96.2923739,166.071176 L96.6265916,165.579514 L96.9418255,165.101469 C96.9927734,165.022942 97.0429236,164.944991 97.0922726,164.867622 L97.3787259,164.410415 L97.6457889,163.967374 L97.8932992,163.538718 L98.1210941,163.124667 C98.1574079,163.056888 98.1928935,162.989726 98.2275475,162.923187 L98.4254647,162.531454 L98.6032603,162.154874 C98.6591538,162.031897 98.7116667,161.911482 98.7607717,161.793666 L98.8978364,161.44805 C99.4049849,160.09706 99.4175112,159.125532 98.8886048,158.596625 C97.3714083,157.079429 95.4963643,156.493402 93.2784196,156.693491 C91.1739959,156.883339 88.8697201,157.770199 86.5358345,159.13553 C85.5919458,159.687708 84.7090005,160.280278 83.9135048,160.872259 L83.521121,161.16992 L80.9614379,162.916596 L79.7063617,163.098817 C80.5394961,162.556287 81.4447994,161.384105 82.4222716,159.582271 L82.7618304,159.324657 C83.6113839,158.692447 84.5525171,158.060826 85.5617429,157.470425 C88.1190704,155.97438 90.6724337,154.991653 93.105092,154.772194 C95.8645997,154.523248 98.3066151,155.286476 100.252684,157.232546 Z M83.2194844,118.650729 C83.4068382,118.653056 83.6032315,118.657517 83.8077198,118.664574 L84.4445249,118.693863 C84.5543918,118.700152 84.6660462,118.707174 84.7793701,118.714968 C86.1150088,118.80683 87.4329243,118.991544 88.6748269,119.292532 C94.5871509,120.725444 97.3016778,124.405193 94.4345449,130.542819 C93.7318403,132.047088 91.9490819,133.528741 89.0514595,135.078355 L88.4360323,135.399964 C88.330806,135.453737 88.2242513,135.507599 88.1163666,135.561552 L87.4530878,135.886405 L86.7578225,136.213642 C86.6392755,136.268391 86.519393,136.323246 86.3981734,136.378211 L85.6547995,136.709361 L84.8792678,137.043342 L84.0715096,137.380331 L83.2314564,137.720508 L82.3590398,138.064051 L81.4541912,138.411137 L80.5168421,138.761946 L79.5469241,139.116655 L78.5443685,139.475442 L76.4993703,140.190574 L74.9882736,140.709081 L73.54109,141.19405 L71.4388489,141.875249 L69.7221721,142.413068 L65.8060755,143.599182 L61.6191503,144.83514 L44.144116,149.914806 L39.5029862,151.282681 L36.4627151,152.193953 L33.6309973,153.057628 L31.5036469,153.718581 L29.9825808,154.198944 L28.0463394,154.821576 L26.6579875,155.276946 L25.3200124,155.723898 L24.028514,156.16381 L23.1914092,156.453852 L21.5693452,157.028015 L20.0091044,157.597001 L18.8739335,158.022307 L17.7644373,158.447912 L16.6767154,158.875194 L15.7349812,159.254408 L14.8238134,159.631183 C14.6745048,159.693773 14.5264741,159.75626 14.3797232,159.818643 L13.5145931,160.191679 L12.6802802,160.562171 C12.5438017,160.623705 12.4086114,160.685131 12.2747115,160.746448 L11.4868125,161.11304 L10.7299816,161.476979 C10.6064376,161.537412 10.4841924,161.597733 10.3632479,161.65794 L9.65320714,162.01782 C9.30600809,162.197073 8.9705536,162.375292 8.64690012,162.552451 L8.01534454,162.90535 C7.81008205,163.022507 7.61008118,163.139187 7.41535863,163.255382 L6.8470427,163.602504 C3.99273069,165.388376 2.4105551,167.056012 2.16278354,168.57882 C0.120047902,181.189308 11.8490022,192.278952 21.1482498,187.967252 C21.4146971,187.8667 21.656165,187.775576 21.8726535,187.693878 L22.2723246,187.54305 C22.4555071,187.473921 22.6137102,187.414219 22.7469339,187.363943 C22.7934071,187.346405 22.8203047,187.960549 22.8276268,189.206374 L22.2920045,189.557305 C11.415352,194.995631 -2.03724615,182.442793 0.258614118,168.269683 C0.686161041,165.641972 3.38296385,163.140595 8.26924563,160.554823 L8.99993183,160.17579 C9.12431475,160.11251 9.24999784,160.049173 9.37697994,159.985776 L10.1544515,159.604661 L10.9630437,159.221974 C11.1003994,159.158054 11.2390495,159.094062 11.3789928,159.029995 L12.2341621,158.644675 L13.1203132,158.257416 C13.2705838,158.192703 13.4221429,158.127904 13.5749896,158.063014 L14.5075093,157.672572 L15.470872,157.279824 L17.0629452,156.65086 L18.1830462,156.221108 L19.3283481,155.791891 L20.502794,155.361815 L21.3038964,155.073932 L22.9548904,154.493512 L24.240427,154.052499 L25.1221615,153.755003 L26.9501923,153.149784 L29.3683325,152.369826 L30.8972141,151.886876 L33.5880027,151.052528 L36.4729281,150.175802 L38.9329143,149.439573 L42.8982094,148.26941 L61.873563,142.750047 L66.5481948,141.363213 L69.4998738,140.462071 L71.0620663,139.970451 L72.7500884,139.423439 L74.5508293,138.820173 L75.8719314,138.366327 L77.8838053,137.662815 L78.8432736,137.319227 L79.7717188,136.979376 L80.6690679,136.64327 L81.9566264,136.146157 L82.7759156,135.81946 L83.5638531,135.496543 L84.3203658,135.177417 L85.0453807,134.862091 L85.7388249,134.550576 C85.8517639,134.498975 85.9633845,134.447533 86.0736851,134.396251 L86.7196361,134.09047 L87.3338338,133.788525 L87.9162051,133.490425 L88.4666771,133.196181 L88.9851766,132.905801 C90.9951327,131.752027 92.2359985,130.691256 92.6867444,129.726351 C94.9515038,124.878216 93.083475,122.34596 88.2204443,121.167355 C87.0942908,120.89442 85.8813141,120.724414 84.6470037,120.639521 C83.9248011,120.58985 83.2772817,120.573986 82.7443233,120.579303 C82.6084384,120.582306 82.5065248,120.584559 82.4385824,120.586061 C82.4176507,120.586524 82.1336496,119.973665 81.5865792,118.747485 L82.6854864,118.650729 L83.2194844,118.650729 Z M277.709133,62.9238969 L278.026154,63.1156113 L278.319531,63.3076569 C278.37219,63.3429625 278.426654,63.3799048 278.482805,63.4184653 C279.133118,63.8650589 279.783184,64.3775464 280.393182,64.9514341 L280.761143,65.3098998 C283.915158,68.4947341 284.495339,72.1587122 280.781438,75.6572293 C279.497693,76.8645137 276.836975,77.3089385 272.488509,77.2505801 L271.653317,77.2338094 C271.510797,77.2300535 271.366609,77.2258224 271.220745,77.2211241 L270.263421,77.1855577 L269.281738,77.1422386 L268.319128,77.0910387 L267.215838,77.0201834 L266.20793,76.9450995 L263.785537,76.7373307 L249.220246,75.3144878 L247.023203,75.1138917 L245.100515,74.9491522 L243.804912,74.8455429 L242.535467,74.7506617 L241.29216,74.6646065 L240.074974,74.5874756 L238.883889,74.5193672 L237.718886,74.4603794 L236.579948,74.4106103 L235.467055,74.3701582 L234.380189,74.3391211 L233.319331,74.3175973 L232.284463,74.3056849 L231.275565,74.3034821 L230.292619,74.311087 C229.969294,74.3152675 229.65029,74.321099 229.335606,74.3285978 L228.404509,74.3561127 C228.09846,74.3669625 227.796727,74.3794961 227.499307,74.3937297 L226.619982,74.4415471 L225.766516,74.4996631 C225.626426,74.5102127 225.487412,74.5211956 225.349475,74.5326137 L224.534762,74.6063615 L223.745861,74.6906532 C216.244517,75.556752 212.358534,77.9145178 212.012005,82.1629572 C211.745888,85.4273341 214.037081,88.7061585 218.50052,91.929263 L219.122598,92.3684253 C220.499452,93.3191667 222.064401,94.2647657 223.807513,95.2034127 L224.62464,95.6361341 C224.762925,95.7081699 224.902254,95.7801628 225.042624,95.8521122 L225.897297,96.2832786 C226.186327,96.4268219 226.479483,96.5701842 226.776729,96.7133588 L227.680702,97.1423134 L228.609001,97.5701028 L229.561408,97.9966875 L230.537705,98.4220278 L231.537676,98.8460844 L232.561105,99.2688175 L233.607773,99.6901878 L234.677465,100.110156 L235.769963,100.528682 L236.885049,100.945726 L238.022508,101.361249 L239.182122,101.775212 L240.363674,102.187575 L241.566947,102.598298 L242.791725,103.007341 L244.03779,103.414666 L245.304924,103.820233 C252.711503,106.16624 260.652484,108.259002 268.59419,110.070254 L269.42219,110.25805 L271.040806,110.619058 L272.606916,110.960487 L274.11733,111.282171 L276.271535,111.727319 L278.101782,112.091247 L279.174943,112.295914 L279.138223,112.293573 L279.247757,112.318054 L279.372104,112.355365 L279.511746,112.405904 L279.667163,112.470069 L279.930922,112.592737 L280.127884,112.69271 L280.456215,112.870957 L280.825454,113.084344 L281.095143,113.246788 L281.693156,113.621913 L282.372557,114.066677 L283.137196,114.584267 L283.990921,115.177868 L285.189222,116.031615 L286.257468,116.807892 L287.736099,117.900064 L290.087193,119.667665 L291.977493,121.109101 C304.165438,130.452833 301.581491,171.974995 287.695609,172.767568 C284.763643,172.934918 281.272642,171.109089 276.922404,167.38132 L276.246317,166.792824 C276.018668,166.591665 275.788719,166.385517 275.556429,166.174391 L274.852497,165.526095 L274.134279,164.848009 C274.013372,164.732517 273.891859,164.615786 273.769736,164.497819 L272.978963,163.726656 L272.173414,162.931501 L271.403005,162.159535 L270.772567,161.517135 L270.266968,160.994103 L269.352832,160.03018 L268.515737,159.128135 L267.128837,157.600656 L264.917915,155.110038 L260.756792,150.339944 L253.582986,142.061837 L251.527278,139.718569 L250.123165,138.137962 L248.76008,136.622461 L247.873514,135.647936 L247.004231,134.701806 L246.15185,133.783855 L245.315991,132.893867 L244.496272,132.031625 L243.692313,131.196913 L242.515092,129.995991 L241.37119,128.855796 L240.626465,128.129043 C240.503509,128.010127 240.381131,127.892314 240.259322,127.775598 L239.535239,127.088437 C239.415676,126.976093 239.296667,126.864838 239.178204,126.754666 L238.473907,126.106611 L237.782325,125.484356 C237.553875,125.281213 237.32748,125.082335 237.103077,124.887685 L236.435783,124.316381 C236.325543,124.223266 236.215784,124.131199 236.1065,124.040175 L235.456423,123.506517 C234.597072,122.811574 233.76706,122.182835 232.962327,121.617996 L232.363453,121.206312 C230.679713,120.073615 229.105538,119.226858 227.601968,118.643908 L227.247737,118.507884 L226.559596,118.251578 L225.89825,118.016077 L225.263338,117.801159 L224.654501,117.606605 C224.555181,117.575864 224.456933,117.545962 224.359749,117.516895 L223.78935,117.352473 C223.324557,117.22374 222.885989,117.115646 222.472709,117.027615 L221.988851,116.931573 C218.214133,116.239691 216.735412,117.375758 216.72391,119.831965 L216.730055,120.14583 C216.732332,120.199274 216.735232,120.253283 216.738746,120.30785 L216.767141,120.641929 C216.773082,120.698715 216.779622,120.756051 216.786755,120.813932 C216.897359,121.711518 217.152771,122.689191 217.509728,123.68724 C217.640747,124.053567 217.778912,124.404334 217.918687,124.733043 L218.111941,125.171829 L218.273429,125.513766 L218.553474,126.240408 L216.857292,127.06848 L216.414043,126.096715 L216.298042,125.842311 C216.091678,125.381289 215.885735,124.874913 215.693309,124.336892 C215.292127,123.215192 215.002207,122.105431 214.872136,121.049859 C214.854788,120.909076 214.840265,120.770437 214.828576,120.633972 L214.802018,120.231127 C214.600593,115.806168 217.589442,113.85375 224.105534,115.483745 L224.698503,115.639321 C224.798905,115.666856 224.900096,115.695197 225.002076,115.724346 L225.623432,115.908984 C225.728573,115.941385 225.834505,115.974602 225.941229,116.00864 L226.591095,116.222737 L227.260034,116.456696 L227.948099,116.710694 C228.064374,116.754707 228.181448,116.799562 228.299322,116.845263 C230.468063,117.686107 232.735276,119.005449 235.211187,120.86452 L235.861883,121.361779 C236.080408,121.53164 236.300584,121.705622 236.522482,121.883766 L237.19342,122.430723 L237.87513,123.002892 C237.989671,123.100368 238.104678,123.198904 238.220161,123.298506 L238.918846,123.908945 C239.03627,124.012829 239.154188,124.117789 239.272609,124.22383 L239.989247,124.873082 C240.230187,125.09385 240.473213,125.31898 240.718397,125.548513 L241.460494,126.250363 L242.215973,126.978873 L242.98527,127.734286 L243.768817,128.516844 L244.567051,129.326787 L245.380407,130.164357 L246.209319,131.029796 L247.054221,131.923345 L248.35251,133.316904 L249.239293,134.281786 L250.143589,135.275624 L251.065833,136.298659 L252.006459,137.351134 L253.452818,138.985572 L255.036087,140.793008 L264.390905,151.579134 L267.212685,154.794828 L268.462958,156.198527 L270.012454,157.905035 L270.981997,158.946053 L272.02704,160.039375 L272.90092,160.930177 L273.929021,161.955061 L275.108685,163.109 L275.815975,163.784219 C275.932569,163.89421 276.048519,164.002928 276.163828,164.110373 L276.847989,164.739748 L277.516812,165.338512 C277.627008,165.435753 277.736567,165.531717 277.845492,165.626403 L278.491428,166.17918 C279.129766,166.71661 279.745338,167.207983 280.338436,167.653125 L280.924053,168.082851 C283.622074,170.016266 285.832764,170.941655 287.58568,170.841603 C299.33468,170.170998 301.769407,131.046713 290.803896,122.640146 L290.362133,122.302008 L288.679452,121.02283 L287.12956,119.858911 L286.052517,119.059898 L285.047274,118.322914 L283.816496,117.434685 L282.708218,116.651748 L281.955633,116.13193 L281.054658,115.526402 L280.454173,115.13637 L280.054078,114.884686 L279.703682,114.671694 L279.401606,114.495861 L279.146471,114.355655 L278.936899,114.249542 L278.832763,114.201925 L278.799063,114.188022 L278.054848,114.047059 L277.043149,113.849401 L275.181128,113.473682 L273.720659,113.170048 L272.201186,112.846438 C271.943201,112.790847 271.682889,112.73443 271.420318,112.677191 L269.818304,112.323914 L268.165238,111.951059 C260.17555,110.128864 252.185136,108.023074 244.722412,105.659283 L243.395805,105.234719 L242.091588,104.808454 L240.809978,104.380473 L239.551193,103.950757 C239.135427,103.807227 238.723501,103.663405 238.315452,103.519288 L237.102971,103.08605 L235.913968,102.651025 L234.748663,102.214195 C234.556432,102.141239 234.365198,102.068207 234.174964,101.995098 L233.045612,101.555529 C232.67319,101.408699 232.304807,101.261561 231.940501,101.114111 L230.85985,100.670828 C230.681791,100.596791 230.504761,100.522675 230.328764,100.448481 L229.28521,100.002366 L228.266659,99.5543412 C227.931333,99.4046795 227.600212,99.2546966 227.27333,99.1043896 L226.30544,98.6524935 L225.363208,98.1986353 C224.898543,97.9712128 224.443581,97.743048 223.998444,97.5141311 L223.121309,97.0552914 C214.337698,92.3801666 209.650277,87.3913594 210.089287,82.0061713 C210.50019,76.968503 214.770486,74.1152932 222.215933,72.9738831 C222.7575,72.8908592 223.31345,72.8165754 223.88479,72.7508349 L224.753472,72.658607 C224.900218,72.6442954 225.047957,72.6305116 225.196706,72.6172526 L226.101438,72.5439705 C226.254287,72.5327981 226.408177,72.5221443 226.563123,72.512006 L227.505607,72.4573378 C227.824079,72.4411607 228.146904,72.4270211 228.474207,72.4148943 L229.469677,72.384528 C229.637871,72.3804652 229.807215,72.3768994 229.977726,72.3738276 L231.014924,72.3613004 C231.540651,72.3579762 232.077164,72.3590426 232.624889,72.3644165 L233.735416,72.3808834 L234.876599,72.4086896 L236.049195,72.4476876 L237.253962,72.4977298 L238.491655,72.5586688 L239.763032,72.6303569 L241.068849,72.7126465 L242.409865,72.8053902 L243.786834,72.9084403 L245.200516,73.0216492 L246.766687,73.1548086 L248.495478,73.3097593 L252.922362,73.7348974 L259.229962,74.3548716 L263.236015,74.7237878 L265.594818,74.9241338 L267.380813,75.0630258 L269.011416,75.1762627 L270.209023,75.24829 L271.315765,75.3037429 L272.088486,75.3344142 L273.045392,75.3606962 L273.921926,75.3702144 L274.528876,75.3663104 L274.91038,75.3584331 L275.273936,75.3463261 L275.786664,75.320216 L276.261692,75.2845407 L276.558229,75.2554288 L276.839204,75.2220441 L277.105093,75.184378 L277.356373,75.1424219 L277.593522,75.0961672 L277.817015,75.0456053 L278.027331,74.9907276 L278.224946,74.9315254 C278.25685,74.9212976 278.288245,74.9108891 278.31914,74.9003 L278.498597,74.834595 L278.666546,74.7645441 L278.823464,74.6901386 L278.969826,74.6113699 L279.106111,74.5282294 L279.232795,74.4407085 L279.350354,74.3487985 L279.459267,74.2524909 C282.351273,71.5282032 281.830321,68.9521402 279.071323,66.3564664 C278.538742,65.8554127 277.964617,65.4027938 277.39074,65.008692 L276.861855,64.6715866 L277.709133,62.9238969 Z M59.2837082,19.551747 C65.7373814,20.8002813 72.5822404,24.3369012 79.4927989,29.4474416 C82.5390726,31.7002413 85.3953004,34.1121027 87.9818107,36.5243098 L88.363995,36.8826388 L89.0916776,37.5759349 L89.7692694,38.2357662 L90.5738478,39.0399034 L91.2661546,39.7568526 L89.8551347,41.0723182 L89.3601404,40.5573883 L88.7268419,39.9184225 L88.0898363,39.2911692 C87.9794294,39.1836506 87.8669229,39.0746826 87.7523468,38.9643233 L87.0402961,38.2859381 C86.917562,38.1702465 86.7928185,38.0532801 86.6660956,37.935097 C84.1300789,35.5699809 81.3287998,33.2045193 78.345762,30.9984842 C71.6460263,26.0438529 65.0387633,22.6299947 58.9172964,21.4457294 C56.6312152,21.0034617 54.4459823,20.8827591 52.3728636,21.1037037 C43.7858885,22.0188689 35.0005626,27.4293634 31.1998985,34.1802766 C26.9670562,41.6988445 29.4086779,49.4656504 39.6346238,55.7321733 C40.1603526,56.0543431 40.6868612,56.3727231 41.2199494,56.6905165 L42.5555611,57.4773816 L43.9277058,58.267039 L44.7808917,58.7491957 L46.2659519,59.5740472 L47.5217847,60.2591407 L49.895873,61.5293233 L52.5394008,62.915043 L56.4185381,64.9130734 L62.0449001,67.7693229 L70.7457629,72.1655534 L75.0656207,74.3757526 L77.6289604,75.7047187 L79.9661429,76.9335935 L82.1003929,78.0756702 L83.740672,78.9706869 L85.2695941,79.8223513 L86.139087,80.315741 L86.9762329,80.7979549 L88.0471276,81.4263942 L88.8200869,81.8889932 L89.5703761,82.3459552 L90.778365,83.099545 L91.7142538,83.6996357 L92.8572766,84.4527347 L93.3088958,84.7564827 C93.5376816,84.9112423 93.7624245,85.0651908 93.9830913,85.2183302 L94.6328297,85.6753238 C94.7390702,85.7510857 94.8442834,85.8266458 94.948465,85.9020045 L95.5611427,86.3517415 C95.6611814,86.4262955 95.7601803,86.5006486 95.8581351,86.5748011 L96.4333019,87.0173105 C96.6208257,87.1640126 96.80414,87.3099143 96.9832114,87.4550179 L97.5076636,87.887936 C97.5929397,87.9596906 97.6771468,88.0312462 97.7602806,88.1026031 L98.2461715,88.5283617 C98.7191171,88.9517397 99.1531263,89.3679824 99.5472989,89.7771481 L99.9281593,90.1839569 C102.868278,93.4195899 103.239649,96.2035356 100.581324,98.5656167 C99.4298551,99.5887664 97.7116068,100.266064 95.370506,100.618205 L94.7966543,100.696486 L94.1987129,100.762345 C93.995365,100.782235 93.7879734,100.800064 93.5765094,100.815845 L92.9298716,100.857049 C92.8200528,100.862896 92.7092088,100.868233 92.597336,100.873061 L91.9137237,100.895942 C91.3337104,100.909943 90.7277961,100.911303 90.0955322,100.900186 L89.324139,100.880868 L88.5272779,100.849636 L87.7047768,100.806553 L86.8564633,100.751684 L85.9821652,100.685091 L85.0817102,100.606839 C84.929445,100.592829 84.7760828,100.578336 84.62162,100.563361 L83.6816067,100.467738 L82.7150059,100.360616 L81.7216453,100.242056 L80.7013526,100.112122 L79.1200393,99.8960357 L77.4771599,99.6547164 L75.7721332,99.388379 L74.6006353,99.1970276 L72.7907376,98.8894699 L70.9171422,98.5574662 L68.9792677,98.2012309 L67.6513537,97.9503848 L65.6050555,97.5542405 L63.4929279,97.1344369 L61.3143896,96.6911885 L58.3053613,96.0640918 L54.7307981,95.3002098 L36.6861004,91.3329922 L34.1878366,90.796839 L31.8868202,90.3132272 L30.2779088,89.9827289 L28.2717047,89.5819853 L26.4051815,89.2234069 L25.084362,88.979874 L23.7495549,88.7445827 L22.4834288,88.5336603 L21.6777531,88.4065818 L20.9029805,88.2903312 L20.1592624,88.1849077 L19.4467501,88.09031 L18.7655949,88.0065371 L18.1159481,87.9335881 L17.4979609,87.8714619 L16.9117847,87.8201574 L16.3575707,87.7796736 L15.8354703,87.7500095 L15.3456348,87.731164 C15.2666927,87.7289246 15.1891012,87.7271359 15.1128636,87.7257979 L14.6717091,87.7231784 C14.6008994,87.7236432 14.5314498,87.7245587 14.4633635,87.7259247 L14.0712303,87.7395289 L13.7119672,87.7639475 C13.0264119,87.8235985 12.5389847,87.9481301 12.2551324,88.1375048 C6.21032939,92.1614121 2.70604041,100.547032 5.22529256,102.748239 C6.28211762,103.675197 7.07473642,104.370415 7.60314896,104.833894 C7.64553859,104.871075 7.73128066,105.597486 7.86037517,107.013128 L7.59064462,107.069135 L6.9020162,106.782314 L3.95599667,104.200932 C0.173069696,100.895583 4.24463072,91.1525044 11.1853347,86.5322139 C11.7060484,86.1848147 12.4609974,85.9642843 13.4707303,85.8628116 L13.8882606,85.8285538 L14.3332601,85.8068843 C14.6391477,85.7966094 14.963543,85.7946528 15.3068356,85.8008662 L15.8359961,85.8162954 L16.3937948,85.8438686 L16.9805239,85.8834747 L17.5964756,85.9350026 L18.2419422,85.9983413 L18.917216,86.0733797 L19.6225892,86.1600066 L20.7377246,86.3114325 L21.5196248,86.4265448 L22.3326472,86.5528569 L23.6111744,86.7630814 L24.503281,86.9169067 L26.307982,87.2428337 L28.1558025,87.5938865 L29.6281467,87.8839639 L31.7235617,88.3095065 L33.9895752,88.7828531 L39.4927616,89.9719454 L52.5336496,92.8482946 L57.1283659,93.8421542 L60.7959267,94.6130312 L63.6074051,95.186378 L65.6448872,95.5908648 L67.6216696,95.9733078 L69.537992,96.3335573 L71.3940938,96.6714634 L72.5981573,96.8842471 L74.3544237,97.1845811 L75.4921521,97.3721781 L77.1492484,97.6345238 L78.2210852,97.7966564 L79.2666896,97.9485257 L80.2861324,98.0900871 L81.2794848,98.2212962 L82.2468176,98.3421088 L83.1882018,98.4524803 L84.1037084,98.5523664 L84.9934084,98.6417227 L85.8573727,98.7205047 L86.6956723,98.7886681 L87.5083781,98.8461685 L88.2955612,98.8929614 C88.4246354,98.8998655 88.5526491,98.9063215 88.6796039,98.9123287 L89.4286358,98.9429772 C89.5513604,98.947185 89.6730289,98.950942 89.7936429,98.9542473 L90.5046834,98.9686515 L91.1904851,98.9721706 L91.8511188,98.9647603 L92.4866555,98.9463762 C92.5904908,98.9423952 92.6932834,98.9379551 92.7950347,98.933055 L93.393059,98.8981269 L93.9661638,98.8521138 L94.51442,98.7949715 C94.6037293,98.7845179 94.6920061,98.7735987 94.7792521,98.762213 L95.2903685,98.6882936 C97.1191881,98.3966756 98.4504726,97.8783791 99.2999649,97.1235541 C101.386565,95.2694845 100.304495,92.6365901 95.8951816,89.0482682 L95.3610787,88.6216941 L94.7962172,88.1862401 L94.2005397,87.7418424 C94.098689,87.6670272 93.9955518,87.5918367 93.8911271,87.5162696 L93.2491181,87.0583365 C93.1395382,86.9812574 93.0286684,86.9037991 92.9165074,86.8259601 L92.0061423,86.2046814 L91.1050949,85.6058589 L90.1805677,85.0062369 L89.231351,84.405714 L87.9993599,83.6476475 L87.2306219,83.1858284 L86.4360876,82.7166948 L85.3314356,82.0768635 L84.1685743,81.4169685 L82.9404469,80.7329758 L80.960445,79.6529783 L79.1689558,78.6948055 L75.9987198,77.0309659 L73.346293,75.6607025 L68.8690295,73.3759988 L58.9156012,68.3482153 L54.4670458,66.0811 L52.2789118,64.9533214 L49.507679,63.5060942 L47.7092764,62.5511327 L46.0387211,61.6490874 L44.4756949,60.7887284 L42.9998799,59.9588258 L41.5909579,59.1481496 L40.2286108,58.3454697 L38.8925206,57.5395564 L38.6266654,57.3769975 C27.5504791,50.589442 24.7547418,41.6961933 29.5188907,33.2338942 C33.6368429,25.9193993 42.9812347,20.1646008 52.1684257,19.1854671 C54.4408423,18.9432821 56.8169671,19.0745287 59.2837082,19.551747 Z M239.701532,7.89016518 C241.379213,13.2747817 239.333607,18.8709739 233.31278,22.9780799 L232.980428,23.2006168 C231.486942,24.1822454 229.915438,25.2879294 228.292932,26.4921706 L227.204002,27.3093194 L226.101738,28.1539915 L224.98792,29.0245079 C224.80142,29.1716544 224.614512,29.3198078 224.427234,29.4689331 L223.29942,30.3750681 C222.733587,30.8336874 222.16509,31.3004243 221.594927,31.7743345 L220.452679,32.7314395 L219.30777,33.7059944 L218.161979,34.6963204 L217.589309,35.1968728 L217.589309,35.1968728 L216.44553,36.2077074 C216.255148,36.3771909 216.064914,36.5471567 215.874866,36.7175698 L214.737102,37.7451355 L213.605571,38.7817566 L212.482052,39.8257544 C212.295565,40.0002755 212.109486,40.1750339 211.923852,40.3499948 L210.815686,41.4019095 L209.719978,42.4570035 L208.638508,43.513598 L207.573054,44.5700141 C207.396912,44.7459753 207.221511,44.9218591 207.046889,45.0976305 L206.008794,46.150631 C205.837434,46.3258131 205.666927,46.5008128 205.497309,46.6755953 L204.490576,47.7214027 C202.499648,49.8066831 200.647508,51.8505996 198.998189,53.7927119 L198.190729,54.7550046 L197.41885,55.6986511 C193.400214,60.6787243 190.975656,64.7915921 191.35947,66.8911318 C191.871512,69.6921007 194.048451,70.6015169 197.712045,70.0631248 C199.049331,69.8666008 200.4925,69.479597 201.967202,68.9577233 C202.592222,68.7365385 203.190641,68.5025469 203.749819,68.2661839 L204.32654,68.0155796 C204.596872,69.301562 204.69701,69.9595285 204.626957,69.9894791 C203.997901,70.2584241 203.321019,70.5249613 202.61077,70.7763071 C201.027004,71.3367768 199.467582,71.7549553 197.992528,71.9717253 C193.430046,72.6422157 190.20333,71.2942551 189.461819,67.238039 C189.189535,65.7485911 189.752016,63.7676657 191.052635,61.36782 L191.353773,60.8276546 L191.678975,60.2738746 L192.028008,59.7066568 L192.400634,59.1261783 C192.464691,59.0283366 192.529722,58.9299498 192.595721,58.8310215 L193.003296,58.2309835 L193.433876,57.6181271 L193.657719,57.3069472 L193.657719,57.3069472 L194.122365,56.6751949 L194.609426,56.0310665 L195.118667,55.3747389 L195.649852,54.7063892 L196.202747,54.0261942 L196.777114,53.3343308 L197.372719,52.6309761 L197.989326,51.916307 L198.626698,51.1905003 L199.284602,50.4537331 L199.9628,49.7061823 L200.661058,48.9480248 L201.379139,48.1794376 L202.116808,47.4005976 L202.87383,46.6116817 L203.649968,45.812867 L204.444987,45.0043302 L205.258652,44.1862485 L206.284538,43.168025 C206.457008,42.9980756 206.630193,42.8280282 206.804048,42.6579201 L207.854859,41.6368396 L208.9196,40.6160852 L209.996124,39.5974415 L211.082282,38.5826934 L212.175926,37.5736255 L213.274908,36.5720223 L214.377078,35.5796687 C214.56092,35.4151464 214.744805,35.2510838 214.928688,35.0875182 L216.031614,34.1123851 L217.132359,33.1509631 L218.228773,32.2050371 L219.31871,31.2763915 L220.400019,30.3668112 L221.470554,29.4780807 L222.528165,28.6119848 C222.703237,28.4696209 222.877682,28.3282744 223.051453,28.1879825 L224.085651,27.3591847 C224.256553,27.2232602 224.426692,27.0884647 224.596024,26.9548354 L225.601976,26.1673511 C225.767901,26.0385353 225.93293,25.91096 226.097017,25.7846624 L227.069888,25.0425073 L228.018019,24.3328025 L228.939263,23.6573325 C229.695167,23.1092012 230.420824,22.5985903 231.110642,22.1301474 L231.920862,21.588554 C237.490387,17.9278528 239.307853,13.1117526 237.859757,8.46400562 C236.629349,4.51493755 233.179297,1.63410974 230.307006,1.95325324 C228.547289,2.14848807 226.272878,2.84089613 223.622571,3.94226245 C222.293813,4.49444365 220.895761,5.13895542 219.451701,5.85723569 C217.684193,6.73639975 215.93946,7.6793388 214.295459,8.62223639 C213.967338,8.81287161 213.721246,8.95584802 213.557185,9.05116563 C213.504577,9.08173057 212.872626,9.09099718 211.661333,9.07896546 L212.340928,7.52679066 L213.335697,6.94883154 C215.010702,5.98815196 216.788184,5.02751385 218.592571,4.1300059 C220.073522,3.39337595 221.510499,2.73091953 222.882287,2.16085676 C225.686476,0.995542981 228.118644,0.255108364 230.094128,0.0359348445 C233.991137,-0.397066185 238.219569,3.13371661 239.701532,7.89016518 Z" id="Line" fill="#F7B960"></path>
                    <g id="Tinker-Bells" transform="translate(112.239574, 32.099341)">
                        <path d="M57.1510702,0.185244597 C57.1510702,0.185244597 67.0410702,1.3152446 70.6610702,8.3152446 C74.2910702,15.3252446 72.4110702,24.0852446 69.9110702,27.5852446 C67.4110702,31.0852446 65.9110702,31.5852446 65.5310702,31.9652446 C65.1510702,32.3452446 62.1510702,29.0852446 62.1510702,29.0852446 C62.1510702,29.0852446 65.4010702,22.3252446 60.2710702,23.5752446 C55.1410702,24.8252446 56.0210702,28.7052446 58.0210702,29.4552446 C60.0210702,30.2052446 62.5210702,33.5852446 62.5210702,33.5852446 C62.5210702,33.5852446 48.6310702,36.2152446 42.8710702,29.9552446 C37.1110702,23.6952446 38.4910702,13.1852446 38.4910702,13.1852446 C38.4910702,13.1852446 47.8910702,-1.8247554 57.1510702,0.185244597 Z" id="Path" fill="#FDB654"></path>
                        <path d="M71.7910702,6.1852446 C71.7910702,6.1852446 75.2910702,6.9352446 74.1710702,10.6852446 C73.0410702,14.4352446 58.5310702,25.0752446 48.3910702,26.4552446 C38.2510702,27.8352446 37.2510702,25.8252446 37.2510702,24.2052446 C37.2510702,22.5852446 38.6310702,23.2052446 45.7610702,21.5752446 C52.8910702,19.9552446 66.4110702,14.1952446 71.7910702,6.1852446 Z" id="Path" fill="#E49336"></path>
                        <ellipse id="Oval" fill="#FFFFFF" cx="52.9910702" cy="10.2052446" rx="2.44" ry="2.49"></ellipse>
                        <path d="M17.2410702,0.685244597 C17.2410702,0.685244597 7.35107015,1.8152446 3.73107015,8.8152446 C0.101070155,15.8252446 1.98107015,24.5852446 4.48107015,28.0852446 C6.98107015,31.5852446 8.48107015,32.0852446 8.86107015,32.4652446 C9.24107015,32.8452446 12.2410702,29.5852446 12.2410702,29.5852446 C12.2410702,29.5852446 8.99107015,22.8252446 14.1210702,24.0752446 C19.2510702,25.3252446 18.3710702,29.2052446 16.3710702,29.9552446 C14.3710702,30.7052446 11.8710702,34.0852446 11.8710702,34.0852446 C11.8710702,34.0852446 25.7610702,36.7152446 31.5210702,30.4552446 C37.2810702,24.1952446 35.9010702,13.6852446 35.9010702,13.6852446 C35.9010702,13.6852446 26.5010702,-1.3247554 17.2410702,0.685244597 Z" id="Path" fill="#FDB654"></path>
                        <path d="M2.60107015,6.6852446 C2.60107015,6.6852446 -0.898929845,7.4352446 0.221070155,11.1852446 C1.35107015,14.9352446 15.8610702,25.5752446 26.0010702,26.9552446 C36.1410702,28.3352446 37.1410702,26.3252446 37.1410702,24.7052446 C37.1410702,23.0852446 35.7610702,23.7052446 28.6310702,22.0752446 C21.5010702,20.4452446 7.98107015,14.6952446 2.60107015,6.6852446 Z" id="Path" fill="#E49336"></path>
                        <ellipse id="Oval" fill="#FFFFFF" cx="21.4010702" cy="10.7052446" rx="2.44" ry="2.49"></ellipse>
                    </g>
                    <g id="Balls" transform="translate(13.730645, 12.384585)">
                        <circle id="Oval" fill="#FE4A20" cx="121.75" cy="13.14" r="12.14"></circle>
                        <circle id="Oval" fill="#FE4A20" cx="149.91" cy="12.26" r="12.26"></circle>
                        <circle id="Oval" fill="#FFFFFF" cx="156.04" cy="9.89" r="3.38"></circle>
                        <circle id="Oval" fill="#FFFFFF" cx="114.37" cy="10.26" r="1.5"></circle>
                        <circle id="Oval" fill="#D83312" cx="138.27" cy="26.15" r="13.39"></circle>
                        <circle id="Oval" fill="#FFFFFF" cx="141.52" cy="22.15" r="4.88"></circle>
                        <circle id="Oval" fill="#FE4A20" cx="11.26" cy="139.9" r="7.76"></circle>
                        <circle id="Oval" fill="#F7B960" cx="34.16" cy="98.23" r="7.88"></circle>
                        <circle id="Oval" fill="#4272D3" cx="5.63" cy="88.22" r="5.63"></circle>
                        <circle id="Oval" fill="#FE4A20" cx="218.36" cy="175.06" r="8.63"></circle>
                        <circle id="Oval" fill="#F7B960" cx="227.36" cy="110.49" r="7.88"></circle>
                        <circle id="Oval" fill="#4272D3" cx="258.77" cy="136.64" r="8.26"></circle>
                        <circle id="Oval" fill="#4272D3" cx="111.87" cy="213.22" r="6.26"></circle>
                        <circle id="Oval" fill="#F7B960" cx="67.32" cy="196.96" r="5.51"></circle>
                        <circle id="Oval" fill="#4272D3" cx="112.62" cy="187.7" r="5.51"></circle>
                        <circle id="Oval" fill="#F7B960" cx="178.94" cy="222.98" r="8.76"></circle>
                        <circle id="Oval" fill="#FE4A20" cx="150.16" cy="197.71" r="5.51"></circle>
                        <circle id="Oval" fill="#4272D3" cx="72.08" cy="21.52" r="4.75"></circle>
                        <circle id="Oval" fill="#4272D3" cx="196.96" cy="26.78" r="5.01"></circle>
                        <circle id="Oval" fill="#4272D3" cx="229.99" cy="75.33" r="4.5"></circle>
                        <circle id="Oval" fill="#FE4A20" cx="253.08" cy="86.03" r="6.19"></circle>
                        <circle id="Oval" fill="#F7B960" cx="79.84" cy="29.91" r="6.76"></circle>
                        <circle id="Oval" fill="#F7B960" cx="144.59" cy="221.17" r="5.07"></circle>
                        <circle id="Oval" fill="#F7B960" cx="51.31" cy="145.53" r="4.5"></circle>
                    </g>
                    <path d="M34.6306446,80.7145854 L37.0206446,85.5545854 L42.3506446,86.3345854 L38.4906446,90.0945854 L39.4006446,95.4045854 L34.6306446,92.9045854 L29.8606446,95.4045854 L30.7706446,90.0945854 L26.9106446,86.3345854 L32.2406446,85.5545854 L34.6306446,80.7145854 Z M51.1506446,56.4845854 L53.1506446,60.5445854 L57.6406446,61.2045854 L54.4006446,64.3645854 L55.1606446,68.8445854 L51.1506446,66.7245854 L47.1306446,68.8445854 L47.9006446,64.3645854 L44.6506446,61.2045854 L49.1406446,60.5445854 L51.1506446,56.4845854 Z M81.9306446,71.9845854 L83.1906446,74.5345854 L86.0006446,74.9445854 L83.9606446,76.9245854 L84.4406446,79.7245854 L81.9306446,78.4045854 L79.4106446,79.7245854 L79.8906446,76.9245854 L77.8606446,74.9445854 L80.6706446,74.5345854 L81.9306446,71.9845854 Z M89.8106446,91.9945854 L91.3706446,95.1445854 L94.8406446,95.6545854 L92.3306446,98.1045854 L92.9206446,101.564585 L89.8106446,99.9345854 L86.7006446,101.564585 L87.3006446,98.1045854 L84.7806446,95.6545854 L88.2606446,95.1445854 L89.8106446,91.9945854 Z M77.0506446,130.734585 L78.5806446,133.844585 L82.0106446,134.334585 L79.5306446,136.754585 L80.1206446,140.174585 L77.0506446,138.564585 L73.9806446,140.174585 L74.5706446,136.754585 L72.0906446,134.334585 L75.5106446,133.844585 L77.0506446,130.734585 Z M14.1706446,149.324585 L16.2006446,153.434585 L20.7306446,154.084585 L17.4506446,157.284585 L18.2306446,161.804585 L14.1706446,159.674585 L10.1106446,161.804585 L10.8906446,157.284585 L7.61064462,154.084585 L12.1406446,153.434585 L14.1706446,149.324585 Z M88.3106446,163.924585 L90.4606446,168.284585 L95.2606446,168.974585 L91.7906446,172.364585 L92.6106446,177.154585 L88.3106446,174.894585 L84.0106446,177.154585 L84.8306446,172.364585 L81.3606446,168.974585 L86.1606446,168.284585 L88.3106446,163.924585 Z M52.7606446,205.644585 L54.9506446,210.084585 L59.8506446,210.794585 L56.3106446,214.244585 L57.1406446,219.124585 L52.7606446,216.814585 L48.3806446,219.124585 L49.2206446,214.244585 L45.6806446,210.794585 L50.5706446,210.084585 L52.7606446,205.644585 Z M143.870645,213.994585 L145.980645,218.264585 L150.690645,218.944585 L147.280645,222.274585 L148.080645,226.964585 L143.870645,224.754585 L139.650645,226.964585 L140.460645,222.274585 L137.050645,218.944585 L141.760645,218.264585 L143.870645,213.994585 Z M111.960645,191.204585 L113.920645,195.184585 L118.320645,195.824585 L115.140645,198.924585 L115.890645,203.294585 L111.960645,201.234585 L108.030645,203.294585 L108.780645,198.924585 L105.600645,195.824585 L110.000645,195.184585 L111.960645,191.204585 Z M111.200645,242.264585 L113.060645,246.024585 L117.200645,246.624585 L114.200645,249.544585 L114.910645,253.674585 L111.200645,251.724585 L107.500645,253.674585 L108.200645,249.544585 L105.200645,246.624585 L109.350645,246.024585 L111.200645,242.264585 Z M188.920645,238.394585 L191.020645,242.664585 L195.740645,243.344585 L192.330645,246.674585 L193.130645,251.364585 L188.920645,249.154585 L184.700645,251.364585 L185.500645,246.674585 L182.090645,243.344585 L186.810645,242.664585 L188.920645,238.394585 Z M154.190645,179.774585 L156.540645,184.524585 L161.780645,185.284585 L157.990645,188.984585 L158.880645,194.214585 L154.190645,191.744585 L149.500645,194.214585 L150.400645,188.984585 L146.600645,185.284585 L151.850645,184.524585 L154.190645,179.774585 Z M227.200645,167.834585 L228.810645,171.084585 L232.410645,171.614585 L229.810645,174.144585 L230.420645,177.724585 L227.200645,176.034585 L223.990645,177.724585 L224.600645,174.144585 L222.000645,171.614585 L225.600645,171.084585 L227.200645,167.834585 Z M198.860645,177.634585 L201.010645,181.984585 L205.810645,182.684585 L202.330645,186.064585 L203.150645,190.844585 L198.860645,188.594585 L194.570645,190.844585 L195.390645,186.064585 L191.920645,182.684585 L196.720645,181.984585 L198.860645,177.634585 Z M248.980645,128.374585 L251.200645,132.884585 L256.180645,133.614585 L252.580645,137.124585 L253.430645,142.084585 L248.980645,139.734585 L244.520645,142.084585 L245.380645,137.124585 L241.770645,133.614585 L246.750645,132.884585 L248.980645,128.374585 Z M268.580645,157.574585 L270.480645,161.434585 L274.740645,162.054585 L271.660645,165.054585 L272.390645,169.284585 L268.580645,167.284585 L264.780645,169.284585 L265.500645,165.054585 L262.430645,162.054585 L266.680645,161.434585 L268.580645,157.574585 Z M273.150645,108.204585 L275.700645,113.364585 L281.400645,114.194585 L277.280645,118.214585 L278.250645,123.894585 L273.150645,121.214585 L268.050645,123.894585 L269.020645,118.214585 L264.900645,114.194585 L270.600645,113.364585 L273.150645,108.204585 Z M226.640645,83.8045854 L228.510645,87.5845854 L232.680645,88.1945854 L229.660645,91.1345854 L230.370645,95.2945854 L226.640645,93.3245854 L222.910645,95.2945854 L223.620645,91.1345854 L220.600645,88.1945854 L224.780645,87.5845854 L226.640645,83.8045854 Z M266.940645,58.7145854 L269.000645,62.8745854 L273.590645,63.5445854 L270.270645,66.7845854 L271.050645,71.3545854 L266.940645,69.1945854 L262.840645,71.3545854 L263.620645,66.7845854 L260.300645,63.5445854 L264.890645,62.8745854 L266.940645,58.7145854 Z M221.570645,21.4545854 L223.840645,26.0345854 L228.900645,26.7745854 L225.240645,30.3445854 L226.100645,35.3845854 L221.570645,33.0045854 L217.050645,35.3845854 L217.910645,30.3445854 L214.250645,26.7745854 L219.310645,26.0345854 L221.570645,21.4545854 Z M232.730645,212.814585 L234.370645,216.124585 L238.020645,216.654585 L235.380645,219.224585 L236.000645,222.864585 L232.730645,221.144585 L229.470645,222.864585 L230.090645,219.224585 L227.450645,216.654585 L231.100645,216.124585 L232.730645,212.814585 Z M77.5506446,25.7045854 L79.3706446,29.3945854 L83.4406446,29.9945854 L80.5006446,32.8645854 L81.1906446,36.9145854 L77.5506446,35.0045854 L73.9106446,36.9145854 L74.6006446,32.8645854 L71.6606446,29.9945854 L75.7306446,29.3945854 L77.5506446,25.7045854 Z M238.840645,101.354585 L240.570645,104.854585 L244.430645,105.414585 L241.640645,108.144585 L242.300645,111.984585 L238.840645,110.174585 L235.390645,111.984585 L236.050645,108.144585 L233.250645,105.414585 L237.120645,104.854585 L238.840645,101.354585 Z M235.840645,68.6745854 L237.190645,71.4045854 L240.200645,71.8445854 L238.020645,73.9645854 L238.530645,76.9645854 L235.840645,75.5545854 L233.150645,76.9645854 L233.660645,73.9645854 L231.480645,71.8445854 L234.490645,71.4045854 L235.840645,68.6745854 Z" id="Stars" fill="#FFF8F3"></path>
                </g>
            </g>
        </g>
    </g>
</svg>