<?xml version="1.0" encoding="UTF-8"?>
<svg width="447px" height="304px" viewBox="0 0 447 304" version="1.1" xmlns="http://www.w3.org/2000/svg" xmlns:xlink="http://www.w3.org/1999/xlink">
    <title>decoration-23</title>
    <defs>
        <polygon id="path-1" points="0 0 297.746169 0 297.746169 357.425815 0 357.425815"></polygon>
        <polygon id="path-3" points="0 4.9440363e-14 206.259384 4.9440363e-14 206.259384 242.361496 0 242.361496"></polygon>
    </defs>
    <g id="decoration-23" stroke="none" stroke-width="1" fill="none" fill-rule="evenodd">
        <g id="Group" transform="translate(33.440275, 6.076291)">
            <g id="Christmas/Stuffs/Bag-1" transform="translate(148.936529, 178.606422) rotate(15.000000) translate(-148.936529, -178.606422) ">
                <g id="Group-3">
                    <mask id="mask-2" fill="white">
                        <use xlink:href="#path-1"></use>
                    </mask>
                    <g id="Clip-2"></g>
                    <path d="M296.839162,280.102051 L282.775543,195.134799 C274.369172,144.348406 235.570404,105.125526 186.812584,94.7544589 C192.226548,78.4959593 205.338749,65.1198577 221.295648,58.350484 C230.583058,54.4104528 239.832238,53.3232477 250.067592,57.9495228 C258.664247,61.8347589 265.018334,72.3606435 275.153767,68.2605758 C268.146285,34.5459114 257.612907,14.8266205 221.825662,11.4458476 C207.669942,10.1081505 199.606777,8.75566736 186.44505,3.37182781 C171.046838,-2.92700353 162.111322,0.278077038 147.268321,7.3944866 C130.969954,15.2075772 120.586891,17.2932714 102.66894,12.8331213 C88.1387343,9.21664232 76.9832413,4.58514868 65.8399125,17.9864734 C60.8125987,24.0330731 56.8418375,32.0409909 56.5368622,39.8323373 C56.1345728,50.1138183 55.5055069,49.5884808 64.0674064,52.3325865 C79.9878129,57.4354922 94.0714164,51.8055094 108.258416,64.2092147 C117.862097,72.6050473 122.149129,82.2663865 123.998096,92.7026855 C69.2250516,98.3248404 24.1147716,139.887386 14.9707255,195.134799 L0.907106058,280.102051 C-5.79626869,320.600005 25.5006281,357.426685 66.6201628,357.426685 L231.126106,357.426685 C272.244771,357.426685 303.541668,320.600005 296.839162,280.102051" id="Fill-1" fill="#B70A07" mask="url(#mask-2)"></path>
                </g>
                <path d="M113.650658,47.5010471 C118.78745,49.6598015 124.270923,50.0285815 129.706609,51.6011149 C131.067268,51.9759832 132.415763,52.4621813 133.726027,53.0510116 C135.040636,53.6328837 136.307456,54.3739227 137.497816,55.1401849 C139.875059,56.724895 142.051592,58.6288085 143.958774,60.7492933 C145.846841,62.8889129 147.486409,65.2094434 148.957415,67.5952062 C149.689008,68.7963504 150.371944,70.0079318 151.055749,71.212555 C151.747374,72.4171782 152.404244,73.6505037 153.029835,74.9020941 C154.296655,77.3957077 155.396652,80.0058697 156.163,82.7186638 C156.534879,84.0772352 156.812919,85.4610299 156.990169,86.8509128 C157.160469,88.2434051 157.199568,89.644595 157.13614,91.0309989 C156.92761,89.6559019 156.683456,88.3016793 156.326348,86.9787682 C155.957076,85.6593361 155.550443,84.3590388 155.02738,83.10136 C154.024697,80.5712163 152.736155,78.1715373 151.358118,75.8136069 C149.948802,73.4852485 148.506469,71.1038345 147.006789,68.8363596 C145.520143,66.5549684 143.940528,64.3579444 142.141087,62.3766219 C140.385089,60.3561599 138.374511,58.5905389 136.198847,57.0449682 C135.097113,56.2726177 134.000592,55.5663693 132.810232,54.9792785 C131.619004,54.3991459 130.395627,53.8598922 129.120987,53.4076148 C126.581263,52.4865347 123.91034,51.7794165 121.261139,50.9244384 C118.618888,50.0625023 115.975769,49.0292226 113.650658,47.5010471" id="Fill-4" fill="#FACE5F"></path>
                <path d="M160.322307,91.0309989 C159.853983,85.7367451 159.996479,80.3598636 160.850583,75.0595214 C161.656031,69.7504816 163.26432,64.5501623 165.491248,59.6386046 C166.647721,57.2032652 167.929312,54.8270698 169.369039,52.551767 C170.131043,51.4080273 170.945179,50.2790735 171.874007,49.2631891 C172.320609,48.7369818 172.812393,48.2568721 173.297225,47.7715437 C173.802042,47.3079595 174.309465,46.8469845 174.83948,46.4173211 C175.890819,45.5466872 176.996897,44.7604205 178.131649,44.028949 C179.281171,43.3244401 180.437645,42.6434148 181.624529,42.0311009 C184.001772,40.8090824 186.419853,39.7288354 188.872688,38.7068626 C184.47444,41.6762372 179.827694,44.3029246 176.09848,47.8472132 C174.246906,49.6224016 172.612552,51.5758917 171.334436,53.7685669 C170.001581,56.0029908 168.784286,58.3000377 167.705142,60.6614471 C166.581686,63.002852 165.667629,65.4390611 164.83264,67.8996237 C164.397333,69.1251212 164.038488,70.3767117 163.670085,71.6256929 C163.348601,72.8885903 162.998444,74.1453994 162.712584,75.4204735 C161.53352,80.5164212 160.863617,85.7419637 160.322307,91.0309989" id="Fill-5" fill="#FACE5F"></path>
                <path d="M114.363136,80.0832787 C113.754923,83.1709411 116.061787,84.5999634 117.809096,86.4360354 C116.405862,86.3386218 114.701997,86.3334032 113.954764,87.7250257 C112.946,89.6045859 114.65334,89.8811708 116.060918,90.8196463 C119.454746,93.0836421 123.210895,95.5250698 127.184263,96.8349345 C135.083211,99.4390081 144.939735,98.5057513 153.269644,98.5057513 C160.065989,98.5057513 166.863202,98.4935746 173.658678,98.5057513 C177.261036,98.5118396 180.491515,98.2630871 183.901851,97.1532682 C186.283439,96.3783084 192.18658,95.0849692 193.359562,92.800099 C193.866116,91.8129168 193.09803,90.2560392 193.099768,89.2792941 C193.104981,86.1237901 192.75048,87.7485094 195.336253,86.3073103 C197.021003,85.3679651 198.724868,84.4564524 198.956858,82.2368145 C200.319255,69.2120976 167.182948,77.1713086 161.851528,78.279388 C152.404244,80.2433153 143.438318,78.3672342 134.082266,76.9129887 C127.623045,75.9092809 115.69686,80.0110883 114.363136,80.0832787" id="Fill-6" fill="#FACE5F"></path>
                <g id="Group-11" transform="translate(0.000372, 115.064320)">
                    <mask id="mask-4" fill="white">
                        <use xlink:href="#path-3"></use>
                    </mask>
                    <g id="Clip-8"></g>
                    <path d="M73.6933062,65.2627465 L73.9148695,32.3726184 L99.2373781,15.8949383 L70.3359712,12.8003177 L64.8976792,4.9440363e-14 C45.6416596,13.7640163 30.4346,32.9762347 21.6493994,55.6327188 L44.5520897,47.0385801 L73.6933062,65.2627465" id="Fill-7" fill="#FACE5F" mask="url(#mask-4)"></path>
                    <path d="M57.9892498,174.875632 L29.7594837,158.045698 L28.3701517,127.84401 L11.0830041,151.234575 L3.35609392,150.236956 L0.906733788,165.037731 C-0.974381745,176.405547 0.138647815,187.483732 3.62196983,197.539944 L5.64905646,197.412959 L13.1040085,215.448386 C15.6393874,218.861341 18.4962501,222.030761 21.6363663,224.907071 L27.5429822,190.819277 L57.9892498,174.875632" id="Fill-9" fill="#FACE5F" mask="url(#mask-4)"></path>
                    <polyline id="Fill-10" fill="#FACE5F" mask="url(#mask-4)" points="206.259384 208.235433 164.476898 216.296406 138.796412 193.443356 133.074867 225.8325 105.353393 237.831765 121.404131 242.362366 181.962149 242.362366 178.392808 234.454471 206.259384 208.235433"></polyline>
                </g>
                <polyline id="Fill-12" fill="#FACE5F" points="265.902849 211.38808 238.577582 232.242413 269.238462 244.066856 275.695076 273.601434 288.794244 247.62767 291.446052 247.518079 282.851135 195.592295 266.00277 168.793125 265.902849 211.38808"></polyline>
                <polyline id="Fill-13" fill="#FACE5F" points="233.926491 184.043568 206.832346 182.566708 190.256807 204.072495 183.286687 177.821276 157.732189 168.686144 180.519319 153.938424 181.302176 126.787869 202.35503 143.923961 228.392623 136.278735 218.616904 161.617571 233.926491 184.043568"></polyline>
                <polyline id="Fill-14" fill="#FACE5F" points="136.047662 275.650598 112.488971 262.173604 88.0414202 273.959777 93.5665997 247.365871 74.8136591 227.734426 101.787031 224.775489 114.643782 200.856107 125.789718 225.620899 152.488525 230.469834 132.403598 248.73401 136.047662 275.650598"></polyline>
            </g>
        </g>
        <g id="Group" transform="translate(77.208305, 103.847437)">
            <g id="Christmas/Stuffs/Beanie-1-Big" transform="translate(130.000000, 100.425000) rotate(-60.000000) translate(-130.000000, -100.425000) ">
                <path d="M234.4533,136.652583 C232.588415,136.853972 230.823644,137.064091 229.150254,137.26548 C222.950853,138.033203 217.931265,138.792194 213.09444,139.103008 C204.88406,139.624524 197.194615,138.883576 185.125252,134.769073 C170.760872,129.877536 157.594348,125.196118 153.607896,144.067884 C151.943819,151.922049 152.620742,159.428732 150.261698,164.430276 C148.332207,168.517422 144.382424,170.940491 135.458453,170.51967 C132.72457,170.391619 123.956006,168.014532 112.326091,164.44832 C76.9322898,153.568083 15.040721,131.52357 16.2019082,127.50918 C16.951587,124.921973 17.7379348,122.224759 18.5429082,119.435582 L18.5516389,119.435582 C35.2843756,62.262682 66.2342343,-31.8039581 143.19388,10.6943294 C170.696847,25.8811446 181.742385,52.3143053 189.422518,81.0157098 C193.555646,96.4493137 199.498364,119.225462 212.930302,130.307088 C215.544865,132.474055 218.45278,134.184114 221.68024,135.317945 C223.975258,136.113024 226.425684,136.625227 229.058872,136.780634 C230.777662,136.899372 232.579103,136.853972 234.4533,136.652583" id="Fill-1" fill="#60922E"></path>
                <path d="M226.937886,155.496992 C219.8788,153.137949 214.639779,146.81981 213.09444,139.103008 C204.88406,139.624524 197.194615,138.883576 185.125252,134.769073 C170.760872,129.877536 157.594348,125.196118 153.607896,144.067884 C151.943819,151.922049 152.620742,159.428732 150.261698,164.430276 C150.444461,164.539701 150.636537,164.649709 150.819301,164.759134 C159.121644,169.760678 158.015169,181.884753 153.982736,189.281428 C151.203453,194.39298 145.589593,198.598864 139.572955,198.461501 C136.190088,198.379432 132.916646,197.272957 129.707229,196.166483 C123.353004,193.981472 117.007508,191.787148 110.662013,189.592825 C110.780751,181.381863 111.164903,172.796063 112.326091,164.44832 C112.938406,160.077716 113.761423,155.762407 114.867897,151.601922 C119.046425,135.994286 127.27543,122.508217 143.468025,115.741901 C154.046761,111.325315 167.469386,113.739653 176.630833,120.039166 C183.781302,124.958642 189.01101,131.834384 197.148633,134.24814 C201.839364,135.63749 207.325173,136.725921 212.728913,136.671209 C215.791653,136.63454 218.82762,136.241075 221.68024,135.317945 C223.746513,134.659648 225.712674,133.726624 227.532158,132.474055 C228.235855,133.571217 228.738745,135.061844 229.058872,136.780634 C229.095541,136.936041 229.122897,137.100761 229.150254,137.26548 C230.037296,142.677951 229.204966,150.193947 226.937886,155.496992" id="Fill-3" fill="#577C2C"></path>
                <path d="M153.982736,189.281428 C151.203453,194.39298 145.589593,198.598864 139.572955,198.461501 C136.190088,198.379432 132.916646,197.272957 129.707229,196.166483 C123.353004,193.981472 117.007508,191.787148 110.662013,189.592825 C91.616215,182.991228 72.5890423,176.34365 53.5618695,169.68734 C39.983837,164.942479 3.67563768,159.282637 1.73741544,140.639035 C1.05176204,134.056064 10.1491836,119.50892 18.0213925,119.417538 C18.1954251,119.417538 18.3688756,119.417538 18.5429082,119.435582 L18.5516389,119.435582 C18.9817729,119.46352 19.4113249,119.536276 19.8228333,119.664327 C49.6574867,128.615654 78.3583092,140.849154 108.229632,149.718413 C110.433268,150.367397 112.645635,150.989607 114.867897,151.601922 C127.000703,154.93939 139.34421,158.00213 150.261698,164.430276 C150.444461,164.539701 150.636537,164.649709 150.819301,164.759134 C159.121644,169.760678 158.015169,181.884753 153.982736,189.281428" id="Fill-4" fill="#F7F5E7"></path>
                <path d="M254.09337,136.204406 C252.676081,148.639294 242.280109,157.673273 230.869044,156.365409 C229.50705,156.210002 228.190455,155.917814 226.937886,155.496992 C219.8788,153.137949 214.639779,146.81981 213.09444,139.103008 C212.920989,138.307348 212.802251,137.493643 212.728913,136.671209 C212.555463,134.988506 212.564193,133.260403 212.765582,131.504944 C212.810982,131.102748 212.866277,130.700553 212.930302,130.307088 C214.859211,118.493827 224.962413,110.082059 235.989326,111.334628 C247.400391,112.633178 255.510658,123.769517 254.09337,136.204406" id="Fill-5" fill="#F7F5E7"></path>
                <path d="M19.7861643,141.800222 C19.5504345,141.800222 19.3147048,141.710004 19.1360158,141.528987 C18.7990096,141.188489 18.4288266,140.854975 18.0557334,140.517969 C16.3881638,139.013955 14.4982516,137.309134 14.9336241,134.596205 C15.0133647,134.097971 15.4830781,133.756891 15.9813118,133.83896 C16.4795455,133.9187 16.8188799,134.387831 16.7385571,134.886647 C16.4609199,136.61766 17.7676193,137.795727 19.2803639,139.160631 C19.6802314,139.520919 20.0760245,139.878297 20.4368947,140.243242 C20.7919444,140.602366 20.7878701,141.180922 20.4293281,141.536554 C20.2512212,141.712333 20.0184017,141.800222 19.7861643,141.800222 M32.075541,134.778386 C32.0097695,134.778386 31.9428339,134.77082 31.8758983,134.756268 C31.3479801,134.638112 30.7729159,134.551387 30.1850467,134.461752 C27.9656949,134.122417 25.4500804,133.737683 24.2621189,131.689454 C24.0083457,131.252917 24.1573502,130.692986 24.5938867,130.439795 C25.0298412,130.184858 25.58919,130.334444 25.8435453,130.771563 C26.592642,132.062547 28.5593846,132.362884 30.4615199,132.653908 C31.0691787,132.747036 31.6966273,132.842492 32.2740196,132.971125 C32.7670149,133.081714 33.0772468,133.570053 32.9672396,134.063048 C32.8723657,134.489108 32.494616,134.778386 32.075541,134.778386 M17.5912585,154.089017 C17.4265387,154.089017 17.2594908,154.044199 17.1093222,153.951071 C15.6117108,153.019793 14.5651872,151.773045 13.5535865,150.567622 C12.8277718,149.702115 12.1415363,148.884919 11.2946554,148.166671 C10.9099212,147.840142 10.8627753,147.263331 11.1887226,146.878015 C11.5152519,146.492699 12.0920622,146.445553 12.4779605,146.772082 C13.4424152,147.591025 14.2113016,148.506587 14.9539958,149.391883 C15.9161223,150.538519 16.8247004,151.62113 18.074359,152.398165 C18.5039109,152.664743 18.6348719,153.228749 18.3682936,153.657136 C18.194843,153.935938 17.8962521,154.089017 17.5912585,154.089017 M38.658512,148.383775 L30.3195,148.383775 C29.8142817,148.383775 29.4051014,147.974595 29.4051014,147.469377 C29.4051014,146.96474 29.8142817,146.554978 30.3195,146.554978 L38.658512,146.554978 C39.1631483,146.554978 39.5729106,146.96474 39.5729106,147.469377 C39.5729106,147.974595 39.1631483,148.383775 38.658512,148.383775 M48.752401,144.872275 C48.5201635,144.872275 48.2879261,144.784386 48.1098192,144.608607 C46.4859032,143.003899 44.6454652,141.185578 42.3283292,140.439974 C41.8469749,140.285149 41.5827248,139.770036 41.7375498,139.289264 C41.8917927,138.808492 42.4069058,138.542495 42.887678,138.699066 C45.6209788,139.578542 47.713444,141.646561 49.3944007,143.307728 C49.7541068,143.662778 49.7575991,144.241334 49.4025494,144.600458 C49.2238604,144.782058 48.9881307,144.872275 48.752401,144.872275 M45.6815119,159.355976 L45.5441484,159.345499 C45.097717,159.278563 44.6216012,159.218612 44.1274418,159.156915 C41.4884329,158.825147 38.2027679,158.411892 36.2540687,156.452716 C35.8978549,156.094174 35.8996011,155.515618 36.257561,155.159404 C36.614939,154.80319 37.1940774,154.804354 37.5508733,155.162897 C39.0554692,156.676223 41.871421,157.030109 44.356187,157.342087 C44.8648975,157.406112 45.3561467,157.468391 45.8159651,157.537073 C46.315363,157.612158 46.6593537,158.077797 46.5842695,158.577776 C46.5161698,159.03061 46.1261971,159.355976 45.6815119,159.355976 M141.795217,176.032835 C141.553085,176.032835 141.310953,175.937379 141.1311,175.74705 C139.790642,174.332671 138.676018,172.819344 137.495623,171.216964 C137.0911,170.668092 136.676099,170.104669 136.238398,169.526695 C135.933405,169.123917 136.012563,168.550599 136.414759,168.246188 C136.817537,167.938866 137.391437,168.019771 137.695848,168.422548 C138.138205,169.006925 138.558444,169.576751 138.968207,170.132608 C140.113679,171.687842 141.196289,173.156933 142.458753,174.489824 C142.806236,174.856515 142.790521,175.435071 142.423248,175.782555 C142.246887,175.950185 142.021052,176.032835 141.795217,176.032835 M137.998514,187.528298 C136.726155,187.528298 135.482317,187.317014 134.463732,186.950905 C133.988198,186.780365 133.741409,186.256521 133.912532,185.78157 C134.083072,185.306036 134.608662,185.057501 135.081867,185.230369 C137.436837,186.076086 140.580482,185.751303 142.09148,184.506883 C142.480871,184.186174 143.057099,184.241469 143.37839,184.631441 C143.699681,185.021414 143.643804,185.597642 143.253831,185.918933 C141.874958,187.055092 139.904141,187.528298 137.998514,187.528298 M115.023886,184.810712 C114.969174,184.810712 114.912715,184.805474 114.856256,184.795579 C111.667211,184.2048 109.020054,181.558224 108.418797,178.359284 C108.32567,177.862797 108.652781,177.385517 109.149269,177.291807 C109.648666,177.196933 110.123036,177.525208 110.216746,178.021696 C110.680639,180.495403 112.725958,182.541304 115.18977,182.997048 C115.685676,183.089012 116.013951,183.566292 115.921988,184.06278 C115.840501,184.502808 115.455767,184.810712 115.023886,184.810712 M123.598628,172.140676 C121.216885,172.140676 118.704763,171.80658 116.522662,171.168654 C116.037815,171.027216 115.759596,170.519088 115.901034,170.034823 C116.042472,169.550559 116.551764,169.273504 117.034865,169.413195 C120.078397,170.302566 123.805838,170.555757 126.762645,170.074403 C127.261461,169.988842 127.731174,170.331668 127.812079,170.829902 C127.893566,171.328718 127.554813,171.798431 127.05658,171.879336 C125.976879,172.055115 124.804633,172.140676 123.598628,172.140676 M100.232864,165.516961 C100.031475,165.516961 99.8242661,165.511141 99.608326,165.498336 C99.1036897,165.468069 98.7201196,165.035607 98.7498041,164.531553 C98.7794886,164.026916 99.2113688,163.631123 99.716587,163.673031 C102.332896,163.824946 103.400373,162.816837 105.032438,161.286049 C105.493421,160.854751 105.982342,160.396679 106.538198,159.933368 C106.924096,159.610331 107.502071,159.662715 107.82569,160.05036 C108.148727,160.438004 108.096925,161.014814 107.708698,161.337851 C107.182526,161.776716 106.719797,162.211507 106.283261,162.620687 C104.632571,164.167772 103.192582,165.516961 100.232864,165.516961 M89.1291208,152.772422 C88.6244846,152.772422 88.2147223,152.363242 88.2147223,151.858024 L88.2147223,147.908241 C88.2147223,147.403605 88.6244846,146.993843 89.1291208,146.993843 C89.6343391,146.993843 90.0435193,147.403605 90.0435193,147.908241 L90.0435193,151.858024 C90.0435193,152.363242 89.6343391,152.772422 89.1291208,152.772422 M77.2791909,153.211869 C77.1878092,153.211869 77.0935173,153.197318 77.0009716,153.168216 C72.6367703,151.770717 70.2713243,147.431543 68.3709352,143.945071 L68.1381157,143.519012 C67.8959834,143.076073 68.0589571,142.520216 68.5018961,142.278084 C68.9454173,142.035952 69.5006917,142.198925 69.742824,142.641282 L69.9762255,143.06967 C71.8120072,146.436822 73.8916673,150.252733 77.5579922,151.426144 C78.0393465,151.579805 78.3041787,152.094918 78.1505178,152.57569 C78.0259594,152.963916 77.6668353,153.211869 77.2791909,153.211869 M59.2863187,154.527881 C58.9894739,154.527881 58.6978675,154.383533 58.5220887,154.116955 C56.9069035,151.670604 57.3265607,148.308109 57.9627399,145.917635 C58.0931188,145.429878 58.5907705,145.140018 59.0814376,145.269232 C59.5697764,145.399029 59.8596367,145.900173 59.7298398,146.38793 C59.2880649,148.048515 58.7415211,151.129881 60.0482205,153.110011 C60.3264398,153.531414 60.21003,154.098329 59.7886268,154.376549 C59.6338018,154.478989 59.4591872,154.527881 59.2863187,154.527881 M73.3288262,168.13327 C73.1914627,168.13327 73.0511889,168.10184 72.9196459,168.035486 C69.6659936,166.402839 66.9268723,164.961687 64.5445469,163.627631 C64.103936,163.381424 63.9462008,162.824404 64.1929894,162.383793 C64.4397781,161.943182 64.9985449,161.786611 65.4374096,162.032236 C67.795289,163.35174 70.5111283,164.781252 73.7397526,166.401675 C74.1914224,166.628092 74.3736036,167.177546 74.1466046,167.629216 C73.9865412,167.948761 73.6640863,168.13327 73.3288262,168.13327 M85.1799202,169.011 C84.9168342,169.011 84.6560764,168.898082 84.4756413,168.679814 C83.8726388,167.952835 83.2166699,167.242154 82.5217037,166.490729 C81.3506217,165.224191 80.1393783,163.913417 79.156298,162.466444 C78.8722582,162.048533 78.9811013,161.479289 79.3990123,161.195832 C79.8169233,160.912956 80.3861669,161.021217 80.6690426,161.438546 C81.5752925,162.773184 82.7393899,164.032155 83.8644901,165.249801 C84.5449051,165.986092 85.249184,166.747412 85.8836171,167.51397 C86.2060721,167.902779 86.1519416,168.479007 85.762551,168.80088 C85.5920107,168.942318 85.3853834,169.011 85.1799202,169.011 M90.2245365,178.669516 C90.1436317,178.669516 90.0615628,178.668352 89.979494,178.665442 C89.4748577,178.650309 89.0779005,178.228905 89.0930338,177.724851 C89.107585,177.219051 89.5307344,176.798812 90.0342066,176.837809 C92.0149184,176.890775 93.7028597,176.061938 95.6521408,174.791326 C96.0752902,174.516017 96.6416236,174.634754 96.9175147,175.058486 C97.1928238,175.481053 97.0740858,176.047969 96.6503544,176.32386 C94.7761575,177.54558 92.7028999,178.669516 90.2245365,178.669516 M250.700026,120.284791 C249.010338,120.284791 247.420181,119.932069 246.353286,119.121276 C245.95109,118.8157 245.873095,118.2418 246.178671,117.840186 C246.483665,117.439155 247.057565,117.359996 247.45976,117.66499 C249.418936,119.154452 254.678329,118.351225 256.502469,116.723817 C256.878473,116.386811 257.457029,116.419987 257.792871,116.797155 C258.129295,117.174323 258.096119,117.751715 257.719533,118.088139 C256.226578,119.420449 253.342527,120.284791 250.700026,120.284791 M259.085601,131.157461 L248.223408,131.157461 C247.71819,131.157461 247.30901,130.748281 247.30901,130.243063 C247.30901,129.737844 247.71819,129.328664 248.223408,129.328664 L259.085601,129.328664 C259.590238,129.328664 260,129.737844 260,130.243063 C260,130.748281 259.590238,131.157461 259.085601,131.157461 M255.135237,147.286613 C255.000784,147.286613 254.864584,147.256929 254.735951,147.19465 C252.278542,146.000286 250.021357,142.883415 249.075528,141.230396 C248.825247,140.792114 248.977161,140.233347 249.415444,139.982484 C249.854891,139.732203 250.412493,139.883536 250.663356,140.3224 C251.754698,142.229774 253.744722,144.679617 255.535104,145.54978 C255.989102,145.770376 256.17885,146.317502 255.958254,146.7715 C255.799936,147.096865 255.473989,147.286613 255.135237,147.286613 M245.26078,160.123698 C245.052407,160.123698 244.843451,160.05327 244.671747,159.90834 C242.439008,158.026576 242.139253,153.43072 243.135138,151.541389 C243.370868,151.094376 243.923232,150.923836 244.370246,151.158983 C244.816677,151.394131 244.988381,151.947077 244.753234,152.394091 C244.073983,153.682747 244.366171,157.259436 245.850396,158.510259 C246.236294,158.835624 246.285768,159.412434 245.960403,159.798915 C245.779386,160.013109 245.520956,160.123698 245.26078,160.123698 M229.132792,161.111434 L229.08681,161.11027 C228.582756,161.085242 228.193948,160.656272 228.218394,160.151636 C228.379039,156.894491 229.781777,153.551204 231.792755,151.635099 C232.158863,151.287616 232.736256,151.300421 233.086067,151.665948 C233.434132,152.031474 233.420163,152.610031 233.054636,152.95926 C231.364949,154.568625 230.18339,157.42823 230.045445,160.241854 C230.021581,160.730775 229.617639,161.111434 229.132792,161.111434 M215.965104,155.515618 C215.744507,155.515618 215.522747,155.435877 215.34755,155.27465 C214.975621,154.932987 214.950593,154.354431 215.292256,153.982502 C216.338197,152.844014 217.611138,151.802729 218.842171,150.795203 C220.223954,149.665446 221.52949,148.597969 222.505585,147.430961 C222.829787,147.043317 223.406597,146.993261 223.793659,147.316298 C224.181304,147.640499 224.232524,148.217309 223.908323,148.604372 C222.821056,149.904086 221.386888,151.076914 219.999866,152.211327 C218.818307,153.177528 217.596587,154.176906 216.639698,155.219355 C216.459263,155.416088 216.212475,155.515618 215.965104,155.515618 M210.369288,144.653425 C209.956615,144.653425 209.581776,144.371713 209.481081,143.95322 C209.362925,143.461971 209.664427,142.968394 210.155676,142.850238 C210.826778,142.688428 211.490895,142.508575 212.154431,142.328722 C214.094981,141.804878 216.100721,141.262409 218.23393,141.179176 C218.752535,141.159968 219.164044,141.552851 219.183251,142.056905 C219.203623,142.561542 218.810158,142.986437 218.305522,143.006227 C216.378359,143.081893 214.558292,143.573724 212.631711,144.094076 C211.951878,144.278003 211.271463,144.461931 210.584064,144.627815 C210.512472,144.645276 210.440297,144.653425 210.369288,144.653425 M217.612302,129.18257 C217.557589,129.18257 217.501713,129.177913 217.445254,129.167436 C215.604816,128.82752 214.139799,127.80486 212.722511,126.81596 C211.534549,125.987704 210.412941,125.204267 209.150478,124.873663 C208.662139,124.745612 208.36995,124.245632 208.498001,123.757294 C208.626052,123.268955 209.126031,122.975602 209.61437,123.104817 C211.191722,123.518072 212.501914,124.43247 213.769034,125.316602 C215.083882,126.234493 216.326556,127.101164 217.777604,127.369488 C218.274091,127.46087 218.601785,127.93815 218.510403,128.434637 C218.429498,128.874666 218.044764,129.18257 217.612302,129.18257 M223.208118,121.283005 C222.914184,121.283005 222.626652,121.141567 222.449709,120.880809 C221.13195,118.930364 220.310098,116.582379 219.516183,114.311807 C219.257754,113.574351 219.002234,112.843298 218.732164,112.136691 C218.552311,111.664649 218.788622,111.136149 219.260082,110.956296 C219.732705,110.777025 220.261206,111.012755 220.440477,111.484214 C220.716368,112.206537 220.97829,112.953887 221.241958,113.70764 C221.998039,115.868787 222.77973,118.10269 223.964782,119.856403 C224.247657,120.274896 224.13765,120.843558 223.719157,121.125851 C223.562004,121.231784 223.383897,121.283005 223.208118,121.283005 M237.361797,117.333222 C237.049237,117.333222 236.744825,117.172576 236.574285,116.88388 C235.194248,114.550447 236.89965,109.730501 238.243019,107.68751 C238.520074,107.266689 239.086989,107.149115 239.508975,107.425589 C239.93096,107.703226 240.048534,108.270141 239.770897,108.692127 C238.541028,110.562831 237.324546,114.560342 238.148145,115.953766 C238.40541,116.387975 238.261062,116.948488 237.826272,117.205753 C237.680178,117.291896 237.520114,117.333222 237.361797,117.333222 M228.804517,134.120089 L228.678212,134.111358 C228.178232,134.042095 227.828421,133.581112 227.897103,133.08055 C228.295224,130.191842 230.215403,126.748442 233.115752,125.757213 C233.592449,125.593075 234.113383,125.849177 234.276357,126.327039 C234.439912,126.804319 234.184975,127.324088 233.707113,127.487644 C231.530251,128.231502 230.022745,131.052692 229.70902,133.330831 C229.645577,133.788321 229.253858,134.120089 228.804517,134.120089 M234.728609,141.361357 L234.690193,141.360775 C234.185557,141.339821 233.793256,140.913762 233.81421,140.409126 C233.844477,139.691459 234.144232,139.061101 234.682045,138.586149 C235.985834,137.436021 238.411813,137.450572 239.741212,137.560579 C240.244102,137.603069 240.61836,138.044844 240.576452,138.547734 C240.534545,139.051206 240.090441,139.424881 239.589297,139.383556 C237.895536,139.242118 236.446816,139.467371 235.892124,139.958038 C235.725658,140.104132 235.650574,140.262449 235.641261,140.485374 C235.620889,140.976623 235.215783,141.361357 234.728609,141.361357 M236.702336,131.487483 C236.577195,131.487483 236.449727,131.461291 236.328661,131.406578 C235.867678,131.199951 235.661633,130.658645 235.868842,130.198245 C236.97066,127.741417 240.476922,127.697763 241.628796,127.68319 C242.154968,127.67972 242.548433,128.080752 242.554836,128.58597 C242.561238,129.090606 242.156714,129.505607 241.652078,129.512009 C239.335524,129.54053 237.95083,130.02363 237.536412,130.946759 C237.384497,131.286094 237.050983,131.487483 236.702336,131.487483 M225.418739,140.736237 C223.793659,140.736237 222.147625,140.622737 220.558632,139.977827 C220.091247,139.787497 219.865994,139.254341 220.055742,138.786374 C220.246072,138.318989 220.777483,138.093154 221.247196,138.283484 C222.924078,138.963899 224.765099,138.928976 226.715544,138.89056 C227.195152,138.88183 227.67185,138.872517 228.147966,138.874263 C228.652602,138.876009 229.060618,139.286936 229.058878,139.791572 C229.056544,140.29679 228.661915,140.747878 228.141563,140.70306 C227.67767,140.700732 227.216106,140.710045 226.750467,140.719357 C226.309856,140.728088 225.865171,140.736237 225.418739,140.736237 M132.579058,198.854966 C132.22459,198.854966 131.888166,198.648339 131.739162,198.302602 C131.049434,196.704878 130.583795,194.998311 130.35505,193.230047 C130.290442,192.729485 130.643746,192.270831 131.144308,192.206223 C131.637303,192.13696 132.103524,192.494919 132.168714,192.995481 C132.375341,194.594951 132.79558,196.136798 133.41779,197.577951 C133.618015,198.041844 133.404403,198.579657 132.941092,198.779882 C132.822354,198.83052 132.699542,198.854966 132.579058,198.854966 M149.694201,201.04929 C149.546942,201.04929 149.39852,201.013785 149.259992,200.939282 C147.430031,199.9498 145.386458,198.670456 144.099548,196.681596 C143.824821,196.257864 143.946469,195.691531 144.370201,195.417386 C144.795096,195.141495 145.360266,195.265471 145.634411,195.688039 C146.697232,197.331162 148.503329,198.451024 150.129573,199.329918 C150.573676,199.570304 150.738978,200.125578 150.499174,200.569681 C150.333872,200.875257 150.018984,201.04929 149.694201,201.04929 M153.205118,172.960782 C152.779641,172.960782 152.398399,172.662773 152.309928,172.229729 C152.208651,171.734406 152.528196,171.251887 153.022937,171.150611 C153.808121,170.990547 154.596797,170.848528 155.386055,170.706508 C156.766093,170.458555 158.193858,170.201871 159.55818,169.845658 C160.049429,169.716443 160.546499,170.010377 160.673386,170.498716 C160.801436,170.987055 160.508666,171.487035 160.020327,171.614504 C158.587323,171.988761 157.124052,172.252429 155.709674,172.506202 C154.934385,172.645894 154.159678,172.785004 153.389046,172.942739 C153.326767,172.954962 153.265652,172.960782 153.205118,172.960782 M17.1518117,122.489592 C16.6966496,122.489592 16.3026027,122.150257 16.2455619,121.687528 C16.0424269,120.038002 15.1484,118.422817 14.1717223,116.775037 C13.9144567,116.340829 14.0576407,115.779734 14.4924311,115.522468 C14.9260574,115.264621 15.4871524,115.408387 15.745,115.842595 C16.8247004,117.663243 17.8136011,119.464102 18.0609718,121.462858 C18.122669,121.964584 17.7658731,122.42091 17.2653112,122.482607 L17.1518117,122.489592 M33.6447443,127.322342 C33.5475422,127.322342 33.4515041,127.320596 33.3560482,127.316522 C32.8514119,127.296732 32.457947,126.871836 32.4783187,126.3672 C32.4975263,125.863146 32.9230039,125.469099 33.4270581,125.489471 C34.7314293,125.539527 36.1149591,125.154793 37.7953338,124.276481 C38.2423472,124.041915 38.7952935,124.215366 39.0292771,124.662961 C39.2632606,125.110557 39.0898101,125.662921 38.6427967,125.896905 C36.8099253,126.854375 35.1708761,127.322342 33.6447443,127.322342 M6.62022216,140.044763 L0.914398542,140.044763 C0.409180252,140.044763 0,139.635583 0,139.130364 C0,138.625728 0.409180252,138.215966 0.914398542,138.215966 L6.62022216,138.215966 C7.12485841,138.215966 7.53462071,138.625728 7.53462071,139.130364 C7.53462071,139.635583 7.12485841,140.044763 6.62022216,140.044763 M24.1753937,163.744623 C23.9274409,163.744623 23.6800702,163.643928 23.4996351,163.446614 C23.1591366,163.073521 23.1853288,162.494964 23.558422,162.154466 C24.0921607,161.667873 24.6957452,161.201652 25.2801221,160.749982 C26.3994018,159.885058 27.5570967,158.991031 28.2351835,157.943925 C28.5093285,157.519612 29.0750798,157.399128 29.4999754,157.673855 C29.9237068,157.948582 30.044773,158.514915 29.770628,158.938647 C28.922001,160.247674 27.6391656,161.238903 26.3976557,162.197537 C25.8173531,162.645715 25.2690632,163.068864 24.7912012,163.505401 C24.6160045,163.665464 24.394826,163.744623 24.1753937,163.744623 M46.1197946,172.521918 C45.8351728,172.521918 45.5540432,172.38921 45.3753543,172.140094 C45.0814197,171.730331 45.1762936,171.158759 45.5860559,170.864243 C46.614536,170.127951 47.2460589,169.134394 47.9148328,168.083214 C48.6778987,166.884776 49.4665747,165.645012 50.8780429,164.702675 C51.297118,164.420381 51.8663616,164.535627 52.145745,164.955866 C52.4262925,165.375523 52.313375,165.943021 51.8931359,166.223568 C50.8029586,166.951711 50.1493179,167.977863 49.457844,169.064548 C48.7250447,170.216423 47.9672172,171.407876 46.6517871,172.351377 C46.4905596,172.466623 46.304304,172.521918 46.1197946,172.521918 M68.0630314,176.910565 C67.8325401,176.910565 67.6020488,176.82384 67.424524,176.650971 C66.2714854,175.526453 65.871618,173.968309 66.2982597,172.263488 C66.421072,171.773985 66.9198877,171.475394 67.4070625,171.598206 C67.8965655,171.721019 68.1945744,172.217506 68.0723442,172.707591 C67.8028556,173.784963 68.0141393,174.672006 68.7015388,175.341944 C69.0629911,175.694665 69.0699757,176.273804 68.7172542,176.634674 C68.5385652,176.818019 68.3005073,176.910565 68.0630314,176.910565 M103.612821,153.211287 C103.309574,153.211287 103.012729,153.060537 102.838696,152.784645 C102.569208,152.357422 102.697259,151.792834 103.124482,151.523346 C103.769392,151.117076 104.492297,150.781234 105.191919,150.456451 C106.131346,150.019914 107.103367,149.568826 107.865269,148.953019 C108.256406,148.634056 108.833216,148.695753 109.151015,149.088636 C109.468813,149.480937 109.407698,150.057165 109.014815,150.374382 C108.077717,151.132791 107.002091,151.632189 105.96197,152.115289 C105.285047,152.429596 104.645376,152.725859 104.099414,153.070431 C103.948081,153.165887 103.779287,153.211287 103.612821,153.211287 M126.433787,159.355976 C126.224832,159.355976 126.014712,159.284384 125.843008,159.138871 C125.457692,158.81176 125.410546,158.23495 125.737075,157.849633 C126.310393,157.173875 127.048431,156.643628 127.761441,156.130844 C128.7614,155.411431 129.706065,154.731598 129.937139,153.825931 C130.061697,153.33701 130.558767,153.040747 131.049434,153.166469 C131.538355,153.291028 131.833453,153.789262 131.708895,154.278765 C131.313102,155.828178 129.993597,156.7775 128.828918,157.615068 C128.176441,158.084199 127.560052,158.52772 127.131664,159.032938 C126.950647,159.245968 126.693381,159.355976 126.433787,159.355976 M56.6513842,136.97271 C56.2224142,136.97271 55.8394262,136.669462 55.7544471,136.232926 C55.3080157,133.934998 55.1595933,131.98688 55.3021952,130.276821 C55.3435207,129.773931 55.7835495,129.400256 56.2893499,129.441581 C56.7922399,129.483489 57.1664973,129.925846 57.1245898,130.428736 C56.996539,131.968837 57.1350666,133.753398 57.5494853,135.884279 C57.6461054,136.379602 57.3224863,136.85921 56.8265808,136.95583 C56.7677939,136.967471 56.709007,136.97271 56.6513842,136.97271 M77.280355,181.299794 C76.9899126,181.299794 76.7047088,181.162431 76.527766,180.905747 C76.2402339,180.490165 76.3444206,179.920921 76.7594214,179.633389 C77.9468007,178.811536 79.3512843,176.430957 79.5049452,176.090458 C79.7074981,175.643445 80.2330881,175.419938 80.6888323,175.603866 C81.1445764,175.788957 81.37856,176.284863 81.21093,176.747009 C81.0927741,177.073539 79.4822453,179.972723 77.7995424,181.137403 C77.6412252,181.246828 77.459626,181.299794 77.280355,181.299794 M100.978469,188.760495 C100.849254,188.760495 100.718875,188.733139 100.594317,188.675516 C100.136244,188.46365 99.9371835,187.920017 100.149631,187.461944 C100.54135,186.616227 100.722949,185.156449 100.883595,183.868375 L100.949948,183.341039 C101.013974,182.839895 101.470882,182.483681 101.97319,182.550617 C102.474334,182.615224 102.827637,183.073297 102.763612,183.573859 L102.698423,184.09421 C102.512749,185.584255 102.320673,187.12552 101.80847,188.230249 C101.654227,188.564344 101.323624,188.760495 100.978469,188.760495" id="Combined-Shape" fill="#EEECDD"></path>
                <g id="Group-44" transform="translate(0.034923, 124.171915)"></g>
            </g>
        </g>
        <g id="Group" transform="translate(239.076088, 114.278519)">
            <g id="Christmas/Stuffs/Cookie-2" transform="translate(99.963269, 127.654821) rotate(15.000000) translate(-99.963269, -127.654821) ">
                <path d="M148.104576,255.619662 C130.253731,255.619662 109.926424,245.901667 106.412517,218.623719 C104.943089,207.22214 101.54046,203.380077 100.097297,202.685737 L99.5568024,202.769501 C98.0369198,203.656291 94.8167593,207.618114 93.3984787,218.623719 C89.8845709,245.901667 69.5572644,255.619662 51.7064196,255.619662 C47.2138153,255.619662 42.6831967,255.036776 38.2403566,253.887618 C26.7157898,250.906732 17.314497,242.564265 13.0921401,231.571122 C8.41983162,219.409438 10.4456506,205.293494 18.6498372,192.843828 C32.5893516,171.690334 36.7916645,158.353186 32.7013211,148.249601 C31.2830405,144.746056 27.0910951,142.073919 22.2370089,138.980194 C13.2808295,133.273174 1.0146374,125.456827 0.0179704172,106.82248 C-0.597861956,95.2997549 3.69292073,88.2089004 7.40173837,84.2906893 C13.1889039,78.1745418 22.1934652,74.8073724 32.7545412,74.8073724 C36.468197,74.8073724 40.2115731,75.2317299 43.2955732,76.0036036 C47.0935517,76.9554659 50.5908714,79.0156419 53.9478836,81.3208791 C49.2444725,73.1258645 46.7299964,63.7720008 46.7299964,54.0906965 C46.7299964,24.2652183 70.585034,0 99.905152,0 C129.225961,0 153.080999,24.2652183 153.080999,54.0906965 C153.080999,63.7720008 150.566523,73.1258645 145.863112,81.3201869 C149.220124,79.0142573 152.716061,76.9554659 156.512657,76.0036036 C159.598731,75.2317299 163.342107,74.8073724 167.056454,74.8073724 C177.61753,74.8073724 186.6214,78.1745418 192.409257,84.2906893 C196.117383,88.2102849 200.409548,95.2997549 199.793716,106.82248 C198.795667,125.456827 186.530166,133.273174 177.573986,138.980194 C172.7199,142.073919 168.527264,144.744671 167.109674,148.249601 C163.01864,158.353186 167.221644,171.690334 181.161849,192.843828 C189.365345,205.293494 191.390472,219.409438 186.718855,231.571122 C182.495807,242.564265 173.095205,250.906732 161.570639,253.887618 C157.127799,255.036776 152.59718,255.619662 148.104576,255.619662" id="Border" fill="#D77552"></path>
                <path d="M176.773612,205.280341 C173.657126,209.543299 169.922044,203.105249 164.830196,203.105249 C159.738347,203.105249 158.293802,209.347388 155.807664,210.598308 C153.310467,211.83746 149.988014,209.347388 146.66556,210.598308 C143.343106,211.83746 140.845909,222.244949 133.375745,215.589528 C125.895213,208.934107 117.437367,223.832309 117.437367,223.832309 C116.851255,221.831667 116.395083,219.689112 116.102027,217.372799 C112.779574,191.57837 99.9023873,192.828598 99.9023873,192.828598 C99.9023873,192.828598 87.0252011,191.57837 83.7027474,217.372799 C83.4421764,219.439205 83.0516654,221.374773 82.5519495,223.191273 C80.5212924,220.3523 76.0701583,215.45869 69.8268207,216.383554 C61.1084036,217.666318 56.5376972,221.494535 54.0398092,216.252716 C51.5536711,211.01159 49.3820153,208.510442 42.7806516,209.347388 C36.3645215,210.152491 28.6766388,208.520826 26.9507876,198.026804 C40.5661433,177.310821 47.9706463,159.911471 41.7604849,144.56676 C38.5140599,136.552426 30.316785,132.832894 23.0311631,127.809139 C23.0311631,127.809139 30.3706962,124.068147 30.3706962,118.65257 C30.3706962,113.248069 37.428232,111.583868 38.6764848,107.842876 C39.9254288,104.102577 34.1057783,98.6863077 38.6764848,96.196236 C43.2478825,93.6950882 44.0074782,89.3670572 40.9241693,85.49592 C49.2299579,87.5837865 60.0336345,101.307217 68.3394231,98.392788 C70.4785939,97.6423744 71.4013057,95.8051072 71.5969068,93.4991777 C71.8685365,90.1825435 70.5981663,86.9309821 68.3394231,84.494907 C60.99989,76.5567221 56.504521,65.86679 56.504521,54.089312 C56.504521,29.6212605 75.9395272,9.78583606 99.9023873,9.78583606 C123.875615,9.78583606 143.310621,29.6212605 143.310621,54.089312 C143.310621,65.86679 138.815943,76.5567221 131.475719,84.494907 C129.217667,86.9309821 127.936238,90.1825435 128.218927,93.4991777 C128.403469,95.8051072 129.33724,97.6423744 131.475719,98.392788 C138.381198,100.817787 147.00216,91.7484434 154.482691,87.4093361 C153.354011,90.1936197 151.084209,96.9577258 155.188376,98.2730264 C160.368003,99.9372277 162.028884,103.797981 162.028884,106.657721 C162.028884,109.507078 162.8652,115.32486 167.848535,115.32486 C172.83187,115.32486 173.548613,118.043378 174.080814,123.654866 C174.352443,126.493146 174.536986,128.233496 174.97104,129.016446 C168.185134,133.464239 161.030144,137.204538 158.055349,144.56676 C151.82307,159.965468 159.303601,177.430582 173.006044,198.233791 C174.558412,200.593717 175.807356,202.952951 176.773612,205.280341" id="Body" fill="#E2AA7D"></path>
                <path d="M159.130118,244.407071 C143.027933,248.57242 123.333047,244.124627 117.437367,223.832309 C117.437367,223.832309 125.895213,208.934107 133.375745,215.589528 C140.845909,222.244949 143.343106,211.83746 146.66556,210.598308 C149.988014,209.347388 153.310467,211.83746 155.807664,210.598308 C158.293802,209.347388 159.738347,203.105249 164.830196,203.105249 C169.922044,203.105249 173.657126,209.543299 176.773612,205.280341 C184.362657,223.538789 174.807924,240.362175 159.130118,244.407071 M38.6764848,107.842876 C37.428232,111.583868 30.3706962,113.248069 30.3706962,118.65257 C30.3706962,124.068147 23.0311631,127.809139 23.0311631,127.809139 C16.3212858,123.187588 10.3710042,117.467415 9.77383344,106.299129 C8.52558062,83.0051561 32.6183807,83.4184374 40.9241693,85.49592 C44.0074782,89.3670572 43.2478825,93.6950882 38.6764848,96.196236 C34.1057783,98.6863077 39.9254288,104.102577 38.6764848,107.842876 M82.5519495,223.191273 C76.8843564,244.037402 56.9606931,248.616032 40.6857157,244.407071 C22.9986781,239.840209 13.0962871,219.037 26.8097889,198.233791 C26.8526415,198.168026 26.8961852,198.091877 26.9507876,198.026804 C28.6766388,208.520826 36.3645215,210.152491 42.7806516,209.347388 C49.3820153,208.510442 51.5536711,211.01159 54.0398092,216.252716 C56.5376972,221.494535 61.1084036,217.666318 69.8268207,216.383554 C76.0701583,215.45869 80.5212924,220.3523 82.5519495,223.191273 M190.03025,106.299129 C189.433079,117.467415 183.483489,123.187588 176.773612,127.809139 C176.70795,127.863135 176.64298,127.906748 176.57801,127.95036 C176.296013,128.135195 176.024383,128.331105 175.742386,128.51594 C175.676725,128.559552 175.611755,128.592088 175.546785,128.635701 C175.351184,128.765847 175.166642,128.885608 174.97104,129.016446 C174.536986,128.233496 174.352443,126.493146 174.080814,123.654866 C173.548613,118.043378 172.83187,115.32486 167.848535,115.32486 C162.8652,115.32486 162.028884,109.507078 162.028884,106.657721 C162.028884,103.797981 160.368003,99.9372277 155.188376,98.2730264 C151.084209,96.9577258 153.354011,90.1936197 154.482691,87.4093361 C156.003265,86.528777 157.479604,85.8434362 158.880605,85.49592 C167.186394,83.4184374 191.279194,83.0051561 190.03025,106.299129 M107.816283,120.866428 C107.816283,125.235303 104.280257,128.776923 99.9182842,128.776923 C95.5563111,128.776923 92.0202859,125.235303 92.0202859,120.866428 C92.0202859,116.497554 95.5563111,112.955934 99.9182842,112.955934 C104.280257,112.955934 107.816283,116.497554 107.816283,120.866428 M107.816283,152.002361 C107.816283,156.371236 104.280257,159.912856 99.9182842,159.912856 C95.5563111,159.912856 92.0202859,156.371236 92.0202859,152.002361 C92.0202859,147.632795 95.5563111,144.091175 99.9182842,144.091175 C104.280257,144.091175 107.816283,147.632795 107.816283,152.002361" id="Decoration" fill="#F4F1D7"></path>
                <path d="M99.0163075,70.8566249 C93.6120501,70.8566249 89.6385144,63.1032743 89.4705602,62.7709879 C89.1540043,62.1424127 89.404899,61.3753848 90.0324813,61.0569436 C90.6593724,60.7391947 91.4272621,60.989794 91.7452003,61.6183692 C92.6927942,63.4895573 95.832779,68.3035573 99.0156164,68.3035573 L99.0930274,68.3028651 C101.759561,68.2371 103.907717,64.6622516 105.240292,61.6751348 C105.527819,61.0313298 106.282577,60.7405792 106.923982,61.029253 C107.568153,61.3172346 107.854988,62.0718018 107.568844,62.7156068 C105.192602,68.0404972 102.360879,70.7783991 99.1503945,70.8545481 L99.0163075,70.8566249" id="Mouth" fill="#302825"></path>
                <path d="M90.6082258,45.2684912 C90.6082258,47.6851829 88.652215,49.6435962 86.2400321,49.6435962 C83.827158,49.6435962 81.8718384,47.6851829 81.8718384,45.2684912 C81.8718384,42.8524918 83.827158,40.8933862 86.2400321,40.8933862 C88.652215,40.8933862 90.6082258,42.8524918 90.6082258,45.2684912 M116.55267,45.2684912 C116.55267,47.6851829 114.59735,49.6435962 112.184476,49.6435962 C109.772293,49.6435962 107.816283,47.6851829 107.816283,45.2684912 C107.816283,42.8524918 109.772293,40.8933862 112.184476,40.8933862 C114.59735,40.8933862 116.55267,42.8524918 116.55267,45.2684912" id="Eyes" fill="#302825"></path>
            </g>
        </g>
    </g>
</svg>