<?xml version="1.0" encoding="UTF-8"?>
<svg width="447px" height="165px" viewBox="0 0 447 165" version="1.1" xmlns="http://www.w3.org/2000/svg" xmlns:xlink="http://www.w3.org/1999/xlink">
    <title>decoration-9</title>
    <g id="decoration-9" stroke="none" stroke-width="1" fill="none" fill-rule="evenodd">
        <g id="Group" transform="translate(-0.245345, 5.852000)">
            <g id="Christmas/Stalactites/Stalactite-1" transform="translate(223.500000, 79.642140) scale(1, -1) translate(-223.500000, -79.642140) ">
                <path d="M447,0 C444.137589,1.61920927 442.889168,8.78368441 442.14334,16.6297941 L442.057847,17.5557174 C442.016193,18.019958 441.976127,18.4858973 441.937423,18.9525453 L441.861765,19.8864929 L441.861765,19.8864929 L441.789337,20.8205704 C441.363652,26.421905 441.090669,31.9352186 440.579489,35.6498752 C438.740448,48.928381 429.827552,51.3516901 427.536816,39.4024086 C422.640773,13.9314014 397.450751,13.1944698 393.054798,32.0565255 C389.021813,49.3380568 392.320795,102.36158 378.624779,95.5021362 C372.050692,92.2092155 371.280385,78.1929622 370.255181,63.9108625 L370.125264,62.1249719 C369.024259,47.2436196 367.372752,32.5466012 358.322735,29.853811 C342.174664,25.0370902 338.52078,37.693406 337.343149,52.7108118 C336.423628,89.5460803 333.342428,131.28049 323.921376,126.563158 C317.093775,123.139456 315.666727,106.801402 314.691839,89.9123981 L314.56946,87.7543147 C313.543637,69.4013612 312.802276,51.0191498 306.02299,48.4039637 C292.722207,43.2761478 292.601218,63.8092283 291.697829,71.9760791 C287.858428,106.319355 275.76754,87.9130334 274.299534,70.4408048 C272.767,52.2478055 260.692244,58.651515 259.667866,73.0014806 C259.022588,82.0636387 257.699769,160.330302 241.043543,159.563473 C225.508486,158.849166 229.791516,78.3870609 227.74276,52.2478055 C225.694003,26.10855 212.39322,44.0437849 207.787552,66.5977711 C204.058102,84.8781757 198.230039,95.4592686 190.46348,97.9348349 L190.463692,97.9427061 C189.916179,98.1049997 189.323664,98.1478272 188.693649,98.0629236 C181.450046,97.0972239 178.996555,85.3859149 176.941527,73.1381066 L176.691583,71.6363878 C174.661766,59.3617918 172.851159,46.9673948 166.868112,44.6623068 C154.665312,39.9580454 154.56781,58.8036424 153.727789,66.2909391 C150.210202,97.7946883 139.12493,80.9056312 137.774897,64.8783834 C136.357362,48.1869338 125.28709,54.0640672 124.349567,67.2301383 C123.757052,75.5439303 122.549522,128.740177 107.264147,128.0339 C92.9987958,127.37646 96.9288924,72.1680725 95.0538463,48.1869338 C93.1788002,24.2057951 78.3134347,30.9379756 76.7533963,61.3537563 C74.9083509,97.2785043 62.4130437,96.7841098 60.5079969,76.7874302 C59.9640835,71.0480585 59.6388732,60.7764209 58.9902391,50.2487825 L58.8821345,48.5400293 C57.7525086,31.1586241 55.6641528,13.7096722 50.1877431,15.3555325 C45.3876251,16.7966399 47.2026697,35.1335666 42.4175521,37.8316982 C37.6249342,40.5298299 34.932368,35.7339027 34.3323533,23.4431653 C33.7323385,11.1599415 14.8918752,12.96095 6.51416926,12.0570646 C-0.235996717,11.336511 -0.183495426,3.20605065 0.0865112128,0.0841522552 L190.381,0.084 L190.38119,0 L447,0 Z" id="Combined-Shape" fill="#A8CAD4"></path>
                <path d="M173.483275,41.5606951 L173.648279,41.2654108 L173.475775,41.5591923 L173.483275,41.5606951 L173.648279,41.2654108 L173.475775,41.5591923 C173.505775,41.5719654 175.118315,42.5149215 176.708354,44.7351886 C178.305893,46.9584611 179.895932,50.4477743 179.903433,55.6870035 C179.903433,55.9184223 179.895932,56.1535977 179.888432,56.39253 C179.873432,56.9117194 180.285942,57.3429997 180.803455,57.3565242 C181.320967,57.3700487 181.748478,56.9605578 181.763478,56.4413684 C181.770979,56.1874089 181.778479,55.9357035 181.778479,55.6870035 C181.778479,49.9691583 179.978434,46.013251 178.148389,43.5194891 C176.318344,41.0219704 174.488299,39.9715699 174.405797,39.9249856 C173.955786,39.6702748 173.378272,39.829563 173.130766,40.28113 C172.87576,40.732697 173.033264,41.3052329 173.483275,41.5606951 M93.7788149,26.6995571 L93.9513192,26.314861 L93.7713148,26.697303 L93.7788149,26.6995571 L93.9513192,26.314861 L93.7713148,26.697303 C93.7863151,26.7048166 95.6838618,27.5929234 97.5814084,30.3188554 C99.4789551,33.0470414 101.406502,37.6295826 101.406502,45.1484363 C101.406502,46.1342199 101.376502,47.1695931 101.3015,48.2583129 C101.271499,48.7759996 101.661509,49.2230584 102.179021,49.2568696 C102.696534,49.2906808 103.139045,48.8984712 103.176546,48.3807845 C103.251548,47.252994 103.281569,46.176296 103.281569,45.1484363 C103.289049,37.1847778 101.181497,32.1401506 99.0214438,29.1001504 C96.8538905,26.0578961 94.6563365,25.03755 94.5513339,24.9879603 C94.0788223,24.7745742 93.5238087,24.9849549 93.3063033,25.4575599 C93.0962982,25.930165 93.3063033,26.486171 93.7788149,26.6995571 M223.822698,35.5545266 L223.895292,35.2216145 L223.822698,35.5545266 L223.895292,35.2216145 L223.822698,35.5545266 C223.854962,35.5585668 225.847257,35.9916757 227.863749,37.6336111 C228.880061,38.4545788 229.904439,39.5729048 230.735234,41.1065629 C231.566029,42.6402211 232.195174,44.5948675 232.396824,47.1159494 C234.848878,78.0533408 235.332837,97.9238293 235.332837,108.812964 C235.332837,112.399041 235.284441,115.010623 235.227979,116.722858 C235.203781,117.579379 235.179583,118.210458 235.155385,118.626598 C235.147319,118.834264 235.139253,118.988599 235.131187,119.089604 C235.131187,119.191417 235.123121,119.236667 235.123121,119.236667 C235.090857,119.793406 235.510288,120.27419 236.06684,120.309743 C236.623392,120.345297 237.099284,119.922693 237.139614,119.365954 C237.139614,119.342521 237.349329,116.023904 237.349329,108.812964 C237.349329,97.8640344 236.865371,77.9402153 234.40525,46.9559577 C234.187469,44.1350933 233.453466,41.8620795 232.461351,40.0593443 C230.977213,37.3524135 228.928457,35.7274469 227.258801,34.7917377 C225.589146,33.8544124 224.298591,33.5893756 224.217931,33.5740228 C223.677511,33.4649376 223.145157,33.8196667 223.032233,34.3667092 C222.927376,34.9137516 223.282279,35.4454413 223.822698,35.5545266 M313.233967,45.0110077 L313.411418,44.6934483 L313.225901,45.0093916 L313.233967,45.0110077 L313.411418,44.6934483 L313.225901,45.0093916 C313.250099,45.0239363 315.016546,46.05257 316.75073,48.4742631 C318.492979,50.9008044 320.227162,54.7058603 320.235228,60.4195045 C320.235228,60.6716126 320.227162,60.9285691 320.219096,61.1887576 C320.21103,61.7463046 320.646593,62.210927 321.203145,62.2254717 C321.759696,62.2400165 322.219457,61.7996352 322.235589,61.2420882 C322.243655,60.9649308 322.251721,60.6910056 322.251721,60.4195045 C322.251721,54.1903314 320.29169,49.8818671 318.299396,47.1660478 C316.307101,44.4461884 314.306741,43.3020051 314.226081,43.2519066 C313.734057,42.9779814 313.121043,43.1492857 312.8468,43.6349171 C312.572557,44.1205486 312.741943,44.7362744 313.233967,45.0110077" id="Lights" fill="#F7F7F6"></path>
                <path d="M148.582662,48.854141 C150.075199,47.5670623 150.847718,46.1552579 150.847718,46.1552579 C150.847718,46.1552579 149.242679,46.1004087 147.375133,46.7225343 C147.082626,46.8194597 146.767618,46.7315506 146.565113,46.4993805 C145.282581,45.0071807 143.872547,44.2295237 143.872547,44.2295237 C143.872547,44.2295237 143.820045,45.8404383 144.43506,47.7098206 C144.532563,48.0005967 144.450061,48.3214271 144.217555,48.5220401 C142.725018,49.8091188 141.952499,51.2209231 141.952499,51.2209231 C141.952499,51.2209231 143.557539,51.2757724 145.425085,50.6528954 C145.717592,50.5559701 146.0326,50.6446305 146.235105,50.8768005 C147.517636,52.368249 148.927671,53.1466573 148.927671,53.1466573 C148.927671,53.1466573 148.980172,51.5357427 148.365157,49.6663605 C148.267655,49.374833 148.350157,49.0547539 148.582662,48.854141 M42.0800438,22.8894134 C43.5725805,21.6023347 44.3525996,20.1905304 44.3525996,20.1905304 C44.3525996,20.1905304 42.74006,20.1356811 40.8725141,20.7585581 C40.5875071,20.8554835 40.2649991,20.7668231 40.0624941,20.534653 C38.7799626,19.0432045 37.3699279,18.2647962 37.3699279,18.2647962 C37.3699279,18.2647962 37.3174267,19.8764621 37.939942,21.7458444 C38.0299442,22.0366205 37.9474421,22.357451 37.7149364,22.5573126 C36.2223997,23.8443913 35.4498807,25.2561956 35.4498807,25.2561956 C35.4498807,25.2561956 37.0549202,25.3110448 38.9224661,24.6889192 C39.2149733,24.5919939 39.5299811,24.6799029 39.732486,24.912073 C41.0150176,26.4042728 42.4250522,27.1819298 42.4250522,27.1819298 C42.4250522,27.1819298 42.4850537,25.5710152 41.8625384,23.701633 C41.765036,23.4108569 41.8550382,23.0900264 42.0800438,22.8894134 M65.5181201,13.4177766 C68.2106863,13.2629965 70.2282359,12.375641 70.2282359,12.375641 C70.2282359,12.375641 68.525694,10.9721016 65.9756313,10.088503 C65.5856217,9.95175554 65.3081149,9.58734622 65.2856143,9.16808767 C65.1281105,6.47070734 64.2430887,4.4457937 64.2430887,4.4457937 C64.2430887,4.4457937 62.8405542,6.15288231 61.9630326,8.70675298 C61.8205291,9.10422211 61.4605203,9.37921966 61.04051,9.40326316 C58.3479438,9.55879456 56.3303941,10.4453987 56.3303941,10.4453987 C56.3303941,10.4453987 58.032936,11.8496894 60.5829987,12.7325368 C60.9730083,12.8700355 61.2505151,13.2336935 61.2730157,13.6537034 C61.4305196,16.3510837 62.3155413,18.3759974 62.3155413,18.3759974 C62.3155413,18.3759974 63.7180758,16.6681574 64.5955974,14.1150381 C64.7381009,13.717569 65.0981097,13.4425714 65.5181201,13.4177766 M110.699231,106.817012 C113.391797,106.661481 115.416847,105.774125 115.416847,105.774125 C115.416847,105.774125 113.714305,104.370586 111.164242,103.487739 C110.766733,103.35024 110.489226,102.986582 110.466725,102.566572 C110.309221,99.8691916 109.4242,97.844278 109.4242,97.844278 C109.4242,97.844278 108.021665,99.5513666 107.144144,102.105237 C107.00914,102.502706 106.641631,102.777704 106.221621,102.801747 C103.529055,102.957279 101.511505,103.843883 101.511505,103.843883 C101.511505,103.843883 103.214047,105.248174 105.76411,106.131021 C106.161619,106.26852 106.431626,106.632178 106.461627,107.052188 C106.61163,109.749568 107.496652,111.774482 107.496652,111.774482 C107.496652,111.774482 108.899187,110.067393 109.784208,107.513522 C109.919212,107.116053 110.286721,106.841056 110.699231,106.817012 M338.22234,19.9141226 C339.827467,18.5299517 340.658262,17.0116463 340.658262,17.0116463 C340.658262,17.0116463 338.932145,16.9526594 336.923718,17.6217158 C336.617212,17.7259528 336.270375,17.6314122 336.052594,17.3817282 C334.673313,15.7769626 333.156911,14.9406422 333.156911,14.9406422 C333.156911,14.9406422 333.100449,16.6730779 333.769925,18.6834791 C333.866716,18.9961902 333.77799,19.3412229 333.527945,19.5569693 C331.922818,20.9411402 331.092023,22.4594456 331.092023,22.4594456 C331.092023,22.4594456 332.81814,22.5184325 334.826566,21.8485681 C335.141139,21.744331 335.47991,21.8396796 335.697691,22.0893637 C337.076972,23.6941293 338.593374,24.5304497 338.593374,24.5304497 C338.593374,24.5304497 338.649836,22.798014 337.988426,20.7876128 C337.883569,20.4740936 337.972294,20.129869 338.22234,19.9141226 M248.157728,130.477299 C249.754789,129.093128 250.59365,127.574822 250.59365,127.574822 C250.59365,127.574822 248.859467,127.515836 246.859106,128.184892 C246.544534,128.289129 246.197697,128.194588 245.979916,127.944904 C244.600635,126.340139 243.084233,125.503818 243.084233,125.503818 C243.084233,125.503818 243.027771,127.236254 243.697247,129.246655 C243.802104,129.559366 243.705313,129.904399 243.455267,130.120146 C241.858206,131.504316 241.019345,133.022622 241.019345,133.022622 C241.019345,133.022622 242.745462,133.081609 244.753889,132.411744 C245.068461,132.307507 245.415298,132.402856 245.625013,132.65254 C247.01236,134.256497 248.520696,135.093626 248.520696,135.093626 C248.520696,135.093626 248.585224,133.360382 247.915748,131.350789 C247.810891,131.03727 247.907682,130.692237 248.157728,130.477299 M437.272441,11.6697001 C438.869503,10.2863372 439.708364,8.76803181 439.708364,8.76803181 C439.708364,8.76803181 437.97418,8.70904496 435.97382,9.3781013 C435.659247,9.48233834 435.312411,9.38698973 435.102695,9.13730566 C433.715349,7.53334813 432.198947,6.69702771 432.198947,6.69702771 C432.198947,6.69702771 432.142485,8.42946345 432.81196,10.4398646 C432.916818,10.7525757 432.820026,11.0976084 432.569981,11.3133548 C430.972919,12.6967177 430.134058,14.2150231 430.134058,14.2150231 C430.134058,14.2150231 431.868242,14.274818 433.868602,13.6049536 C434.183175,13.5007166 434.530012,13.5952571 434.739727,13.8457493 C436.127074,15.4497068 437.643476,16.2860272 437.643476,16.2860272 C437.643476,16.2860272 437.699938,14.5535915 437.030462,12.5431903 C436.925604,12.2304792 437.022396,11.8854465 437.272441,11.6697001 M209.804044,32.6908362 C211.981856,30.7765916 213.111091,28.6853865 213.111091,28.6853865 C213.111091,28.6853865 210.739696,28.6231675 207.997267,29.5613009 C207.569771,29.707556 207.093878,29.5806938 206.803503,29.2405094 C204.891869,27.0547637 202.802783,25.923509 202.802783,25.923509 C202.802783,25.923509 202.738255,28.2999519 203.673907,31.0497088 C203.819095,31.4779695 203.698105,31.9514804 203.359335,32.2496468 C201.173457,34.1646994 200.044221,36.2550964 200.044221,36.2550964 C200.044221,36.2550964 202.415616,36.3181235 205.158046,35.3791821 C205.585542,35.232927 206.061434,35.3597892 206.359875,35.6999736 C208.27151,37.8857193 210.360596,39.0169739 210.360596,39.0169739 C210.360596,39.0169739 210.417058,36.6405311 209.481405,33.8907742 C209.336218,33.4625135 209.465273,32.9890026 209.804044,32.6908362 M382.923941,78.6529058 C384.504871,77.2646947 385.3276,75.7488134 385.3276,75.7488134 C385.3276,75.7488134 383.609548,75.7035632 381.617254,76.3839321 C381.310747,76.4897852 380.96391,76.3976688 380.746129,76.1512169 C379.366848,74.5666523 377.850446,73.7464926 377.850446,73.7464926 C377.850446,73.7464926 377.80205,75.4692319 378.487658,77.4634723 C378.592515,77.7737593 378.495724,78.1171759 378.253745,78.3329223 C376.672815,79.7211334 375.850086,81.2370147 375.850086,81.2370147 C375.850086,81.2370147 377.568137,81.2830729 379.560432,80.601896 C379.866938,80.4960429 380.213775,80.5881593 380.431556,80.8346112 C381.818903,82.4191758 383.327239,83.2401435 383.327239,83.2401435 C383.327239,83.2401435 383.375635,81.5165962 382.698094,79.5231639 C382.58517,79.2128769 382.681962,78.8694603 382.923941,78.6529058" id="Stars-White" fill="#F7F7F6"></path>
                <path d="M86.3011311,64.2757931 C88.1836774,63.7032572 89.4662089,62.7272413 89.4662089,62.7272413 C89.4662089,62.7272413 88.0186733,62.0247203 86.0611252,61.8368804 C85.7536176,61.8075774 85.4986113,61.5971968 85.4086091,61.3034152 C84.8385951,59.4182544 83.8635711,58.1356839 83.8635711,58.1356839 C83.8635711,58.1356839 83.1585538,59.5865589 82.9710492,61.547607 C82.9410485,61.852659 82.7310433,62.1103752 82.4385361,62.199787 C80.5559898,62.7723229 79.2809585,63.7483388 79.2809585,63.7483388 C79.2809585,63.7483388 80.7284941,64.4508598 82.6860422,64.6386997 C82.9860496,64.6680027 83.248556,64.8783834 83.3385582,65.1714135 C83.9085722,67.0573257 84.8835962,68.3398962 84.8835962,68.3398962 C84.8835962,68.3398962 85.5811134,66.8890212 85.768618,64.9279731 C85.7986187,64.6221698 86.0086239,64.3652049 86.3011311,64.2757931 M167.820635,87.0231996 C170.513202,86.8676682 172.530751,85.9803127 172.530751,85.9803127 C172.530751,85.9803127 170.828209,84.576022 168.278147,83.6931746 C167.880637,83.5556759 167.61063,83.1920179 167.58813,82.7727593 C167.430626,80.075379 166.545604,78.0504654 166.545604,78.0504654 C166.545604,78.0504654 165.14307,79.757554 164.258048,82.3114247 C164.123045,82.7088938 163.763036,82.9838913 163.343025,83.0079348 C160.650459,83.1634662 158.625409,84.0500704 158.625409,84.0500704 C158.625409,84.0500704 160.335451,85.4543611 162.878014,86.3372084 C163.275524,86.4747072 163.553031,86.8383652 163.575531,87.2583751 C163.733035,89.9557554 164.618057,91.9806691 164.618057,91.9806691 C164.618057,91.9806691 166.020591,90.2728291 166.898113,87.7197098 C167.040616,87.3222406 167.400625,87.0472431 167.820635,87.0231996 M272.129788,91.670415 C273.734916,90.2862441 274.565711,88.7679387 274.565711,88.7679387 C274.565711,88.7679387 272.839593,88.7089519 270.831167,89.3780082 C270.516594,89.4822452 270.177823,89.3877047 269.960042,89.1372126 C268.580762,87.533255 267.064359,86.6969346 267.064359,86.6969346 C267.064359,86.6969346 266.999832,88.4293703 267.669307,90.4397715 C267.774165,90.7524826 267.677373,91.0975153 267.435394,91.3132617 C265.830266,92.6966246 264.991405,94.215738 264.991405,94.215738 C264.991405,94.215738 266.725589,94.2747249 268.734015,93.6048605 C269.040522,93.5006235 269.387358,93.5959721 269.60514,93.8456561 C270.98442,95.4496137 272.500823,96.2867421 272.500823,96.2867421 C272.500823,96.2867421 272.557284,94.5534984 271.887809,92.5430972 C271.791017,92.2303861 271.879743,91.8853534 272.129788,91.670415 M348.08702,137.460372 C350.401953,139.207353 352.676556,139.886914 352.676556,139.886914 C352.676556,139.886914 352.24906,137.547641 350.772988,135.048376 C350.539074,134.659709 350.571338,134.170037 350.837515,133.808036 C352.587831,131.487348 353.265372,129.208677 353.265372,129.208677 C353.265372,129.208677 350.926241,129.633706 348.433856,131.11565 C348.04669,131.345941 347.554666,131.319275 347.191697,131.046966 C344.876764,129.299986 342.602161,128.620425 342.602161,128.620425 C342.602161,128.620425 343.029657,130.959698 344.505729,133.458963 C344.739643,133.84763 344.707379,134.337301 344.441202,134.699303 C342.690886,137.020799 342.013345,139.298661 342.013345,139.298661 C342.013345,139.298661 344.352476,138.873633 346.844861,137.391689 C347.232027,137.161398 347.724051,137.188063 348.08702,137.460372" id="Stars-Blue" fill="#A8CAD4"></path>
            </g>
        </g>
    </g>
</svg>