<?xml version="1.0" encoding="UTF-8"?>
<svg width="447px" height="427px" viewBox="0 0 447 427" version="1.1" xmlns="http://www.w3.org/2000/svg" xmlns:xlink="http://www.w3.org/1999/xlink">
    <title>decoration-14</title>
    <g id="decoration-14" stroke="none" stroke-width="1" fill="none" fill-rule="evenodd">
        <g id="Group" transform="translate(223.027628, 287.770142) scale(-1, 1) translate(-223.027628, -287.770142) translate(-0.472372, 0.266035)">
            <g id="Group-2-Copy-2" transform="translate(0.000000, 149.686099)">
                <path d="M193.796548,134.588606 C199.096067,129.202023 206.704662,130.280854 214.729648,134.363376 C201.367289,103.387687 191.847082,73.6327798 204.43344,61.1732318 C219.007117,46.7452911 234.962455,68.4241096 235.927725,71.3426305 C234.583918,67.2430739 220.464485,10.6347464 250.122865,0.656509001 C280.576173,-9.59048973 287.068084,103.506926 287.068084,103.506926 C287.068084,103.506926 294.468484,74.5885859 312.335434,89.3098929 C324.183645,99.0780423 329.237115,136.44533 320.530762,163.342282 C327.45799,161.343606 335.331562,160.259098 339.779372,174.475058 C347.179772,198.042776 276.109436,323.348013 272.210504,325.424289 C272.210504,325.424289 270.828843,324.375741 268.955085,322.193475 C248.551936,301.841429 178.011552,150.627222 193.796548,134.588606" id="Fill-636" fill="#6E9985"></path>
                <polyline id="Fill-637" fill="#A8CAD4" points="330.713409 128.140226 315.571926 343.143609 321.249982 350.195755 330.713409 350.70678 426.047973 182.140434 371.462926 189.400775 330.713409 128.140226"></polyline>
                <path d="M426.047973,182.140434 L391.809294,89.6808593 C391.430757,88.6569165 390.181584,88.2480964 389.273095,88.8556484 L330.713409,128.140226 L371.462926,189.400775 L426.047973,182.140434" id="Fill-638" fill="#D1DADF"></path>
                <path d="M387.891435,89.9912597 L369.15385,188.825398 L320.00081,347.362405 C319.622273,348.609685 320.322566,349.934565 321.571739,350.322565 C322.820911,350.708673 324.145791,350.010272 324.524328,348.762992 L373.715221,190.101068 L373.772002,189.84177 L392.547441,90.8732511 C392.774563,89.5900104 391.941782,88.3521941 390.654756,88.1080377 C389.36773,87.8638813 388.137484,88.708019 387.891435,89.9912597" id="Fill-639" fill="#F7F7F6"></path>
                <polyline id="Fill-640" fill="#A8CAD4" points="95.149785 174.796814 235.946652 365.017374 245.712908 366.851387 253.983943 360.524139 213.253354 151.83097 172.863447 196.844706 95.149785 174.796814"></polyline>
                <path d="M213.253354,151.83097 L118.713718,99.0950764 C117.653814,98.5121293 116.310008,99.0685788 115.988251,100.221224 L95.149785,174.796814 L172.863447,196.844706 L213.253354,151.83097" id="Fill-641" fill="#D1DADF"></path>
                <path d="M115.855763,102.041988 L170.74364,197.90461 L242.854953,365.284243 C243.384905,366.484206 244.766565,367.038762 245.977884,366.520167 C247.170276,366.003464 247.719155,364.61234 247.20813,363.412377 L175.040036,195.907827 L174.926474,195.669349 L119.962891,99.6912723 C119.300451,98.5575538 117.86201,98.1638752 116.726398,98.8130663 C115.590787,99.4622574 115.21225,100.908269 115.855763,102.041988" id="Fill-642" fill="#F7F7F6"></path>
                <polyline id="Fill-643" fill="#A8CAD4" points="246.848519 365.25396 106.373409 222.536018 102.966576 280.117186 45.5614276 296.797422 208.710909 403.120917 236.457677 388.537776 246.848519 365.25396"></polyline>
                <path d="M45.5614276,296.797422 L0.780491167,220.067956 C0.0612707168,218.847174 1.02654027,217.331133 2.46498117,217.403055 L106.373409,222.536018 L102.966576,280.117186 L45.5614276,296.797422" id="Fill-644" fill="#D1DADF"></path>
                <path d="M1.14010139,221.296309 L101.603842,282.055296 L233.334746,389.822909 C234.337869,390.650013 235.83309,390.500491 236.665872,389.489797 C237.479727,388.47721 237.328312,386.987667 236.325189,386.160563 L104.461797,278.286959 L104.196821,278.093905 L3.60059241,217.247855 C2.46498117,216.570274 1.02654027,216.929884 0.345173526,218.046568 C-0.336193216,219.165145 0.0234170089,220.62062 1.14010139,221.296309" id="Fill-645" fill="#F7F7F6"></path>
                <polyline id="Fill-646" fill="#9EAFB3" points="316.612903 357.760819 332.889998 193.805054 299.578735 225.301231 243.687735 182.747986 275.522703 350.668926 296.985756 365.770663 316.612903 357.760819"></polyline>
                <path d="M332.889998,193.805054 L283.755885,113.322393 C282.620273,111.478917 279.856953,111.562195 278.891683,113.468129 L243.687735,182.747986 L299.578735,225.301231 L332.889998,193.805054" id="Fill-647" fill="#D1DADF"></path>
                <path d="M279.062025,114.741907 L297.288585,223.467219 L294.847021,364.101315 C294.828094,365.407268 295.869071,366.484206 297.175024,366.507283 C298.480977,366.52963 299.559808,365.488653 299.578735,364.1827 L302.039226,223.334731 L302.001372,222.901306 L283.736958,113.958335 C283.509836,112.669416 282.298517,111.800673 281.011491,112.01644 C279.724465,112.232206 278.853829,113.452988 279.062025,114.741907" id="Fill-648" fill="#F7F7F6"></path>
                <path d="M268.841524,208.289775 C263.977322,207.284759 260.532635,205.12899 260.532635,205.12899 C260.532635,205.12899 264.015176,203.03568 268.879377,202.115835 C269.655378,201.973884 270.242111,201.385259 270.393526,200.630077 C271.415576,195.769661 273.55431,192.326866 273.55431,192.326866 C273.55431,192.326866 275.655191,195.807515 276.582607,200.684965 C276.715095,201.443932 277.301827,202.04202 278.058902,202.197221 C282.923103,203.204129 286.36779,205.358005 286.36779,205.358005 C286.36779,205.358005 282.885249,207.453208 278.002121,208.37116 C277.245047,208.515005 276.658314,209.101737 276.487973,209.858811 C275.484849,214.719227 273.327188,218.160129 273.327188,218.160129 C273.327188,218.160129 271.245234,214.681374 270.317818,209.803923 C270.18533,209.044956 269.598598,208.446868 268.841524,208.289775" id="Fill-654" fill="#F7F7F6"></path>
                <path d="M188.515956,167.536473 C188.932346,160.741732 191.184642,155.650409 191.184642,155.650409 C191.184642,155.650409 194.705037,159.965731 196.900552,166.40654 C197.241235,167.409663 198.149724,168.106171 199.209628,168.170523 C206.004369,168.588806 211.095692,170.842994 211.095692,170.842994 C211.095692,170.842994 206.78037,174.363389 200.345239,176.56269 C199.342116,176.905266 198.641822,177.81754 198.585042,178.875551 C198.168651,185.668399 195.897429,190.759723 195.897429,190.759723 C195.897429,190.759723 192.377034,186.4444 190.181519,180.003592 C189.840835,179.002361 188.932346,178.30396 187.872443,178.239609 C181.077702,177.821325 175.986378,175.567137 175.986378,175.567137 C175.986378,175.567137 180.301701,172.046742 186.736831,169.849335 C187.739955,169.506759 188.440248,168.592591 188.515956,167.536473" id="Fill-655" fill="#F7F7F6"></path>
                <path d="M345.495282,153.483284 C345.911673,146.690436 348.163969,141.599112 348.163969,141.599112 C348.163969,141.599112 351.684363,145.912542 353.879879,152.355243 C354.220562,153.356474 355.129051,154.052982 356.188955,154.119226 C362.983695,154.53751 368.075019,156.791698 368.075019,156.791698 C368.075019,156.791698 363.759696,160.312093 357.324566,162.509501 C356.321443,162.852077 355.621149,163.766244 355.564369,164.822362 C355.147978,171.617103 352.895682,176.708426 352.895682,176.708426 C352.895682,176.708426 349.375287,172.393104 347.160845,165.952295 C346.820162,164.949172 345.911673,164.252664 344.851769,164.188313 C338.057029,163.770029 332.965705,161.515841 332.965705,161.515841 C332.965705,161.515841 337.281028,157.995446 343.735085,155.796145 C344.719281,155.453569 345.419575,154.541295 345.495282,153.483284" id="Fill-656" fill="#F7F7F6"></path>
            </g>
            <g transform="translate(54.136482, 0.000000)" id="Christmas/Animals/Reindeer-1">
                <path d="M289.838653,1.7986506 L288.989272,1.17355177 C285.15336,-1.12577241 280.180373,0.0546658788 277.782928,3.8312477 L251.780922,49.1105625 L246.253098,14.9736003 C245.580443,10.8126579 241.655483,7.9839831 237.488038,8.65695603 L234.194633,9.18767452 C230.025818,9.85927961 227.194093,13.7781159 227.866748,17.9390583 L237.055128,74.7368792 L224.062345,104.659554 L217.498824,67.2863029 C216.727532,62.0215208 211.229848,58.860463 206.282891,60.836979 L204.811544,61.477124 C201.234556,62.9051397 199.126174,66.6188013 199.73444,70.4172684 L210.047565,134.770989 L193.370935,172.322057 L212.618996,176.130099 L243.487131,122.460508 L287.34531,90.6830549 C290.140046,88.6531934 291.373018,85.0886254 290.427739,81.7647957 L290.235944,81.0124886 C288.756378,75.8585008 282.824413,73.4661641 278.180219,76.156688 L250.141069,92.9687007 L292.715587,12.9970843 C294.989735,9.10560465 293.701965,4.11575658 289.838653,1.7986506" id="Fill-533" fill="#A8CAD4"></path>
                <path d="M107.242372,145.575487 L113.248315,81.1697892 C113.625056,77.307034 111.24816,73.7069024 107.545135,72.5305676 C102.695445,70.9903897 97.6197114,74.163758 96.890888,79.1932731 L90.4766944,123.434404 L73.9781611,98.2827248 L61.6909116,38.5194459 C60.7319335,34.1341792 56.4316017,31.3260218 52.0244123,32.2069051 L50.4475783,32.5215062 C45.9294215,33.422907 43.0291977,37.8492086 44.0128352,42.3452696 L55.7055183,95.8028469 L12.7748084,72.7767772 C8.60599358,70.6497997 3.50286009,72.4115663 1.54106488,76.6559464 L0.760182703,78.5914274 C-1.11530448,82.6484147 0.595786457,87.4590768 4.61390472,89.4273859 L56.9480799,118.209289 L74.8659008,143.273427 L42.1346081,139.522834 C36.7862502,138.910046 32.2954927,143.497752 33.0311659,148.82135 L33.5353144,152.47346 C34.0531626,156.224053 37.0684638,159.137533 40.8399877,159.531468 L90.2999685,164.705974 L126.667158,206.330444 L139.440747,194.285322 L107.242372,145.575487" id="Fill-534" fill="#A8CAD4"></path>
                <path d="M272.425066,447 L219.34224,447 C219.295123,446.561606 219.271564,446.342409 219.271564,446.342409 L214.409545,428.289773 L211.616179,418.486527 L252.575504,395.273065 L264.768225,428.806813 C266.534243,433.602271 269.086523,439.666667 272.425066,447 Z" id="Fill-535" fill="#9F5B41"></path>
                <path d="M260.384325,416.749382 C240.837612,430.059747 220.666192,429.024299 214.409545,428.289773 L211.616179,418.486527 L252.575504,395.273065 L260.384325,416.749382" id="Fill-536" fill="#131514"></path>
                <path d="M174.921567,168.425107 C174.921567,168.425107 117.443159,180.115959 115.314227,227.93944 C113.185296,275.764289 145.117897,265.136241 123.828583,320.399355 C102.540639,375.66247 107.862968,443.675138 203.66077,423.487318 C299.455833,403.295395 314.717285,303.395846 269.659014,278.951335 C241.580135,263.723271 231.335509,252.382583 233.46444,219.437002 C235.593371,186.49142 220.690852,158.859863 174.921567,168.425107" id="Fill-537" fill="#9F5B41"></path>
                <path d="M169.595128,386.688556 C154.029544,368.507345 161.60821,336.532924 186.519722,315.271356 C211.432603,294.009789 244.246094,291.512129 259.808939,309.693341 C275.371783,327.874552 263.740749,356.328176 238.821018,377.589744 C213.909506,398.851311 185.160713,404.869768 169.595128,386.688556" id="Fill-538" fill="#DC7049"></path>
                <path d="M204.55947,262.493591 C205.85957,267.917041 204.288216,272.941085 201.04824,273.715278 C197.808264,274.48947 194.128528,270.721095 192.827058,265.299013 C191.526957,259.875562 193.098312,254.851518 196.338288,254.077326 C199.578264,253.303133 203.258,257.071508 204.55947,262.493591" id="Fill-539" fill="#131514"></path>
                <path d="M172.626869,273.386998 C173.926969,278.810449 172.355615,283.833125 169.115639,284.608685 C165.875663,285.382877 162.194557,281.614503 160.894457,276.19242 C159.594356,270.768969 161.165711,265.744926 164.405687,264.970733 C167.645663,264.196541 171.325399,267.964916 172.626869,273.386998" id="Fill-540" fill="#131514"></path>
                <path d="M136.428185,245.517438 C134.496529,242.181298 142.166984,236.049311 148.962029,232.126371 C155.755704,228.203432 161.235579,226.567506 163.167235,229.903646 C165.100261,233.239786 163.496027,237.428085 156.702352,241.351025 C149.908678,245.273964 138.361211,248.853579 136.428185,245.517438" id="Fill-541" fill="#DC7049"></path>
                <path d="M213.202603,218.379668 C212.661465,214.564787 202.834679,214.467671 195.064217,215.568775 C187.293754,216.668511 181.970056,218.758557 182.512563,222.574806 C183.055071,226.389687 186.906053,228.697219 194.676516,227.597482 C202.446978,226.496378 213.74511,222.195917 213.202603,218.379668" id="Fill-542" fill="#DC7049"></path>
                <path d="M295.058234,139.418879 C226.598157,157.408594 225.658358,190.034103 225.658358,190.034103 L230.536817,213.237991 C301.620384,203.968199 297.894069,163.952299 300.880601,144.6905 C301.401189,141.352992 298.318759,138.558513 295.058234,139.418879" id="Fill-543" fill="#9F5B41"></path>
                <path d="M29.3527999,222.682865 C26.7032804,224.29417 26.1594028,228.96121 28.3349132,231.514951 C39.8029213,244.968938 67.2064057,278.363168 116.870512,246.098767 L117.444529,217.455014 C117.444529,217.455014 85.3886306,188.60472 29.3527999,222.682865" id="Fill-544" fill="#9F5B41"></path>
                <path d="M194.827212,353.649963 L195.223133,353.123348 L194.823102,353.647227 L194.827212,353.649963 L195.223133,353.123348 L194.823102,353.647227 C194.843652,353.660905 196.604062,355.008219 198.313782,357.441591 C200.028983,359.881801 201.685276,363.358828 201.685276,367.750934 C201.685276,368.309009 201.657876,368.884866 201.601707,369.477137 C201.50992,370.416837 202.200384,371.252582 203.141552,371.342859 C204.082721,371.433136 204.919772,370.745117 205.01019,369.805416 C205.077318,369.103719 205.110197,368.419804 205.110197,367.750934 C205.110197,362.391772 203.048394,358.176116 201.020841,355.340602 C198.986437,352.498249 196.976693,350.986795 196.882165,350.9143 C196.125942,350.348018 195.051887,350.501215 194.48472,351.256258 C193.917553,352.011301 194.070989,353.083681 194.827212,353.649963" id="Fill-545" fill="#131514"></path>
                <path d="M225.695347,330.623893 L226.099488,330.086335 L225.691237,330.621157 L225.695347,330.623893 L226.099488,330.086335 L225.691237,330.621157 C225.711787,330.633468 227.472197,331.982149 229.181918,334.415521 C230.897119,336.855732 232.553411,340.332759 232.553411,344.724864 C232.553411,345.28294 232.526011,345.858796 232.469843,346.449699 C232.378055,347.389399 233.068519,348.225144 234.009688,348.316789 C234.950856,348.407066 235.787907,347.719047 235.878325,346.777979 C235.945453,346.077649 235.978333,345.392366 235.978333,344.724864 C235.978333,339.365702 233.91653,335.150046 231.888976,332.314532 C229.854572,329.472179 227.844828,327.960726 227.7503,327.888231 C226.994078,327.321949 225.920022,327.475146 225.352855,328.230188 C224.785688,328.985231 224.939125,330.057611 225.695347,330.623893" id="Fill-546" fill="#131514"></path>
                <path d="M50.1160459,228.334743 C48.7501871,229.100729 48.9639022,231.233178 49.8324624,232.609216 C53.746463,238.806859 61.3059504,245.134446 72.3109092,247.466598 C88.8478016,249.687956 101.20218,243.960847 106.290243,241.00086 C107.794469,240.125448 108.17258,238.109265 107.084825,236.753744 C98.1334496,225.594978 72.0766445,216.025631 50.1160459,228.334743" id="Fill-547" fill="#F4EAC6"></path>
                <path d="M281.701039,159.974646 C283.660094,159.687401 284.564273,161.101739 284.454676,163.076887 C283.961487,172.596992 268.152048,202.988832 240.563618,201.570391 C238.852527,201.48285 237.627775,199.883855 237.946978,198.202791 C239.60464,189.495178 247.295644,165.031517 281.701039,159.974646" id="Fill-548" fill="#F4EAC6"></path>
                <path d="M271.59067,343.745497 L271.59067,343.749601 C271.604369,343.845349 271.768765,345.088707 271.768765,347.104891 C271.768765,350.509422 271.316676,356.106587 269.028828,362.101791 C266.74098,368.101099 262.658473,374.492974 255.274342,379.666111 C254.50716,380.207772 254.315364,381.274681 254.863351,382.047505 C255.397639,382.82033 256.466215,383.007723 257.247097,382.464694 C265.234015,376.868897 269.754911,369.830037 272.234555,363.317793 C274.714198,356.800078 275.179988,350.802138 275.193687,347.104891 C275.193687,344.767267 275.001892,343.346091 274.988192,343.28317 C274.864895,342.347574 274.001814,341.692383 273.056536,341.820959 C272.124957,341.948167 271.467372,342.809901 271.59067,343.745497" id="Fill-549" fill="#131514"></path>
                <path d="M180.200056,335.742317 C180.134298,335.817548 177.783431,338.49029 175.424345,343.05611 C173.070739,347.619195 170.699323,354.09314 170.696567,361.746155 C170.689733,368.980614 172.850174,377.24505 179.036953,385.703718 C179.59453,386.466968 180.665845,386.633843 181.430288,386.078504 C182.193361,385.521796 182.361867,384.452153 181.804289,383.688903 C176.027131,375.767793 174.128355,368.309009 174.121505,361.746155 C174.118765,354.811251 176.286055,348.848875 178.469786,344.622277 C179.558911,342.510346 180.650776,340.83612 181.461797,339.699453 C181.867308,339.131803 182.20295,338.6982 182.431735,338.410956 C182.546812,338.267334 182.63586,338.160643 182.693399,338.092251 L182.756418,338.018388 L182.770117,338.001974 C183.394823,337.293438 183.326325,336.214219 182.616681,335.58912 C181.907037,334.965389 180.824762,335.033781 180.200056,335.742317" id="Fill-550" fill="#F7F7F6"></path>
                <g id="Christmas/Stuffs/Lights-1" transform="translate(71.733621, 43.966280)">
                    <path d="M179.207255,1.01688576 C179.587241,0.155493839 180.602367,-0.234931026 181.466596,0.145937985 C182.330824,0.526806997 182.728644,1.53426696 182.344542,2.39702401 C180.407552,6.75537111 178.237922,10.9767696 175.860188,15.0601102 C176.12297,15.0621705 176.38941,15.1277965 176.63789,15.2605677 L176.63789,15.2605677 L182.742362,18.5204788 C183.579155,18.9668737 183.894667,20.000271 183.441975,20.8316302 C182.989284,21.6616243 181.960441,21.9728721 181.123648,21.5278424 L181.123648,21.5278424 L175.01506,18.2679313 C174.720392,18.1102206 174.49079,17.8790699 174.33678,17.6094555 C164.418616,33.8153923 151.209262,47.7803138 136.311366,59.4313257 L136.408961,59.4895343 C136.574991,59.5983283 136.724702,59.7379078 136.849078,59.9068796 L136.849078,59.9068796 L140.942504,65.4697514 C141.500823,66.2301243 141.334836,67.2976496 140.570748,67.8546193 C139.80666,68.4115891 138.733919,68.2464093 138.174228,67.4860364 L138.174228,67.4860364 L134.082174,61.9231646 C133.952185,61.7465657 133.861339,61.5533985 133.808039,61.3539073 C126.243875,67.0701381 118.275137,72.2028276 110.106003,76.742928 C101.774661,81.369366 93.2343664,85.382649 84.6917383,88.7699615 C84.7520256,88.8673454 84.8022239,88.973471 84.8417194,89.0863603 L84.8417194,89.0863603 L87.1188933,95.5979918 C87.4302899,96.4880513 86.9570219,97.4613832 86.0626138,97.7699007 C85.1682058,98.0797834 84.1914902,97.6101815 83.8800936,96.720122 L83.8800936,96.720122 L81.6029197,90.2084905 C81.5775279,90.1359134 81.5573533,90.0627916 81.5421989,89.9895287 C60.1104714,98.1047548 38.8219541,102.266836 20.9450442,102.273438 C20.6632939,102.273438 20.3823856,102.272403 20.1023314,102.27033 L20.1211693,102.410217 L20.1211693,102.410217 L20.1274565,102.557383 L20.1274565,109.451249 C20.1274565,110.394548 19.360625,111.157651 18.4127171,111.157651 C17.466181,111.157651 16.6979778,110.394548 16.6979778,109.451249 L16.6979778,109.451249 L16.6979778,102.557383 C16.6979778,102.432028 16.7115834,102.309816 16.7374044,102.192131 C11.194247,101.980057 6.02314667,101.334896 1.32431069,100.240771 C0.402466822,100.026447 -0.170942016,99.1090853 0.0458010379,98.1917234 C0.2611723,97.2729964 1.18301617,96.7037405 2.10623184,96.9180647 C7.65787194,98.2108351 14.0133819,98.8619983 20.9450442,98.8606331 C46.0611743,98.870189 78.6727731,90.3095095 108.433789,73.7628669 C138.211267,57.2203197 165.128559,32.7273025 179.207255,1.01688576 Z" id="Combined-Shape" fill="#131514"></path>
                    <path d="M29.4268309,119.969513 C29.4268309,127.975953 24.4966123,134.465743 18.4127171,134.465743 C12.3301937,134.465743 7.39997515,127.975953 7.39997515,119.969513 C7.39997515,111.964438 12.3301937,105.474649 18.4127171,105.474649 C24.4966123,105.474649 29.4268309,111.964438 29.4268309,119.969513" id="Fill-553" fill="#6E9985"></path>
                    <path d="M154.689226,68.489401 C159.441112,74.9477927 159.316279,83.0839193 154.408009,86.6591736 C149.501111,90.2357929 141.669553,87.8973391 136.916296,81.4389474 C132.16441,74.9791905 132.289243,66.8444291 137.197513,63.2678097 C142.104411,59.6925555 149.935969,62.0296442 154.689226,68.489401" id="Fill-555" fill="#122032"></path>
                    <path d="M196.213354,15.2155187 C203.305516,19.0010017 206.721277,26.394502 203.840515,31.7280332 C200.97347,37.0615645 192.893619,38.3161116 185.801457,34.5292609 C178.712038,30.7437804 175.297649,23.3516452 178.174296,18.018114 C181.055058,12.6845827 189.13491,11.4300356 196.213354,15.2155187" id="Fill-557" fill="#DC7049"></path>
                    <path d="M99.2866837,102.240675 C101.931498,109.80072 99.4170039,117.543692 93.6733129,119.532674 C87.9282502,121.521657 81.1282799,117.005833 78.4834659,109.444423 C75.8400237,101.883013 78.3531457,94.1414067 84.0982084,92.1524241 C89.8432711,90.1620764 96.6432415,94.6792647 99.2866837,102.240675" id="Fill-559" fill="#CF4D4D"></path>
                </g>
            </g>
        </g>
    </g>
</svg>