<?xml version="1.0" encoding="UTF-8"?>
<svg width="447px" height="447px" viewBox="0 0 447 447" version="1.1" xmlns="http://www.w3.org/2000/svg" xmlns:xlink="http://www.w3.org/1999/xlink">
    <title>decoration-19</title>
    <defs>
        <polygon id="path-1" points="-4.99339241e-15 -7.10182454e-14 253.585247 -7.10182454e-14 253.585247 559.6211 -4.99339241e-15 559.6211"></polygon>
        <polygon id="path-3" points="0 -7.10182454e-14 250.671096 -7.10182454e-14 250.671096 202.863216 0 202.863216"></polygon>
    </defs>
    <g id="decoration-19" stroke="none" stroke-width="1" fill="none" fill-rule="evenodd">
        <g id="Christmas/Misletoes/Misletoe-6" transform="translate(-0.127964, 0.047000)">
            <path d="M251.96449,0 C251.96449,0 247.516816,114.544391 161.970301,115.174071 C161.970301,115.174071 189.625839,181.320515 146.759505,195.242202 C146.759505,195.242202 191.687261,237.200916 168.059616,297.13676 C168.059616,297.13676 213.262229,298.993318 188.993669,363.219486 C188.993669,363.219486 222.245031,415.095669 223.144561,462.370436 C223.144561,462.370436 273.876781,427.124566 286.408978,381.407759 C286.408978,381.407759 246.120046,357.040121 298.708796,310.455004 C298.708796,310.455004 272.091465,273.762368 327.367559,232.027291 C327.367559,232.027291 279.892386,205.084709 328.018469,136.784358 C328.018469,136.784358 248.874856,94.5045571 251.96449,0" id="Fill-1" fill="#315C0F"></path>
            <path d="M252.158139,62.1921994 C261.240889,209.652392 259.80414,459.855462 172.141232,581.918538 L167.698555,578.592725 C180.892906,561.067866 191.318704,541.500292 200.057884,521.276802 C254.826743,390.37446 259.183215,203.580472 252.158139,62.1921994" id="Fill-2" fill="#60922E"></path>
            <path d="M200.154083,146.475692 C214.960091,158.630775 229.346318,172.090197 243.172837,185.328481 C247.759189,189.841192 252.419252,194.278941 256.944386,198.85412 L252.910245,199.036527 C267.809954,181.531657 283.014503,164.266666 299.365952,148.086125 C285.673113,167.783632 270.551021,186.410432 255.240277,204.852327 C236.208979,186.181798 217.367582,166.864098 200.154083,146.475692" id="Fill-3" fill="#60922E"></path>
            <path d="M194.215939,234.564753 C209.446724,248.182845 224.231492,263.116519 238.426569,277.794073 C243.135357,282.787789 247.931599,287.700297 252.567924,292.76148 L248.357626,293.01635 C262.765092,273.592454 277.496139,254.390945 293.429057,236.176436 C280.297174,257.789221 265.693561,278.443743 250.87381,298.914608 C231.27281,278.256338 211.906687,256.908418 194.215939,234.564753" id="Fill-4" fill="#60922E"></path>
            <path d="M203.707225,211.778813 C215.832135,229.809666 225.850646,249.097381 235.204504,268.664954 L228.240646,267.068264 C246.614788,251.99591 265.571125,237.550739 286.205334,225.654274 C269.09928,244.904508 249.49828,261.700987 229.407536,277.72161 C219.503965,256.302476 210.248804,234.497288 203.707225,211.778813" id="Fill-5" fill="#315C0F"></path>
            <path d="M281.242929,167.706171 C272.088966,180.400981 254.376978,183.272025 241.681118,174.117919 C228.986506,164.963812 226.115507,147.250299 235.26947,134.555489 C244.423433,121.860679 262.136671,118.989636 274.831282,128.143742 C287.525894,137.297848 290.396893,155.010112 281.242929,167.706171" id="Fill-6" fill="#B70A07"></path>
            <path d="M321.819211,224.463628 C314.010794,238.027996 296.683605,242.694379 283.119448,234.88584 C269.555291,227.077302 264.890231,209.751092 272.698648,196.186723 C280.507064,182.622354 297.833004,177.955971 311.397161,185.76451 C324.961318,193.573049 329.627628,210.899259 321.819211,224.463628" id="Fill-7" fill="#B70A07"></path>
            <path d="M222.436181,215.950447 C215.173729,226.022837 201.121078,228.300431 191.048845,221.036616 C180.976612,213.774051 178.699053,199.72118 185.961505,189.64879 C193.223957,179.576399 207.276609,177.298805 217.348842,184.56262 C227.421075,191.825185 229.698634,205.878056 222.436181,215.950447" id="Fill-8" fill="#B70A07"></path>
            <path d="M263.193618,254.328477 C255.931166,264.400867 241.878514,266.678462 231.806281,259.415896 C221.734048,252.153331 219.456489,238.10046 226.718942,228.028069 C233.982643,217.955679 248.035295,215.678085 258.106278,222.94065 C268.178511,230.203216 270.45607,244.256087 263.193618,254.328477" id="Fill-9" fill="#B70A07"></path>
            <path d="M236.262701,494.385444 C210.137613,488.301031 234.512366,423.447681 227.652204,408.556486 C227.652204,408.556486 290.403139,411.497494 247.741698,344.344061 C247.741698,344.344061 295.091937,342.306345 286.040421,263.005325 C286.040421,263.005325 327.107695,276.279841 341.797514,214.325021 C385.238547,252.448181 414.024744,229.848396 437.59242,185.624581 C437.59242,185.624581 416.965706,296.950604 447,320.282518 C447,320.282518 374.124359,344.848805 402.070995,416.251332 C402.070995,416.251332 333.488109,414.799569 338.734116,472.860114 C338.734116,472.860114 273.307079,503.013567 236.262701,494.385444" id="Fill-10" fill="#315C0F"></path>
            <path d="M202.983854,614.198412 C224.487609,552.374776 251.408531,491.703055 290.118288,438.571259 C317.13666,400.675484 347.959291,365.117273 372.812545,325.693523 C393.038218,294.361918 410.374153,261.231225 426.035963,227.345916 C410.927613,261.476101 394.116404,294.924133 374.347992,326.66553 C354.909407,358.471894 331.729029,388.230547 309.668065,418.152868 C287.564624,447.909022 267.360189,479.621684 251.131176,512.96227 C234.759737,546.341586 221.702815,581.240132 209.877748,616.502243 C208.428506,620.918753 201.473393,619.049701 202.983854,614.198412" id="Fill-11" fill="#60922E"></path>
            <path d="M366.728227,331.930359 L409.383421,322.721281 L368.849617,338.884331 C363.944682,340.633444 361.675869,333.220954 366.728227,331.930359" id="Fill-12" fill="#60922E"></path>
            <path d="M350.684117,266.086262 L371.318326,334.536537 C371.898023,336.460561 370.808593,338.490781 368.884599,339.071736 C366.838169,339.701417 364.65556,338.380837 364.260767,336.278153 L350.684117,266.086262" id="Fill-13" fill="#60922E"></path>
            <polyline id="Fill-14" fill="#60922E" points="325.403586 391.672551 372.167882 406.866093 323.674491 398.733969 325.403586 391.672551"></polyline>
            <path d="M276.822741,412.439516 C280.142255,428.886172 281.721429,445.611438 282.802114,462.32171 L279.355167,458.910941 C286.297786,459.032129 293.229161,459.456914 300.149293,460.217778 C307.125645,461.057352 314.03828,462.093076 320.849718,464.039589 C313.913345,465.475111 306.941991,465.996096 299.921912,466.314685 C291.868623,466.617031 283.78535,466.398392 275.754549,465.884903 C275.118632,448.078936 274.986201,430.198007 276.822741,412.439516" id="Fill-15" fill="#60922E"></path>
            <g id="Group-19" transform="translate(3.960429, 69.398544)">
                <mask id="mask-2" fill="white">
                    <use xlink:href="#path-1"></use>
                </mask>
                <g id="Clip-17"></g>
                <path d="M40.2889317,-7.10182454e-14 C40.2889317,-7.10182454e-14 88.6186586,103.97975 -4.99339241e-15,150.890952 C-4.99339241e-15,150.890952 59.321479,194.560048 21.2051612,230.132002 C21.2051612,230.132002 87.2968498,242.992978 90.4489515,308.943271 C90.4489515,308.943271 138.285186,286.096111 142.7541,356.198048 C142.7541,356.198048 201.294737,384.180102 224.08407,425.612833 C224.08407,425.612833 260.516268,366.870134 252.408008,319.540395 C252.408008,319.540395 199.269546,319.764031 232.389726,249.960693 C232.389726,249.960693 187.764312,231.847382 225.91936,164.888851 C225.91936,164.888851 164.122925,166.721671 182.565781,80.0806244 C182.565781,80.0806244 80.7665147,85.4741383 40.2889317,-7.10182454e-14" id="Fill-16" fill="#60922E" mask="url(#mask-2)"></path>
                <path d="M69.2412916,55.0433261 C149.473086,185.713286 260.526263,404.509789 226.181723,559.696062 L220.344775,558.271784 C225.665742,536.796429 227.67844,514.528975 227.615973,492.300252 C224.125298,344.943757 143.878512,180.331017 69.2412916,55.0433261" id="Fill-18" fill="#315C0F" mask="url(#mask-2)"></path>
            </g>
            <path d="M58.1158594,227.35591 C85.8675972,231.017803 113.618086,236.743648 140.896321,242.90927 L137.408145,244.934493 C144.796781,221.361452 152.596453,197.900853 161.974049,175.026208 C156.900452,199.222683 150.195208,223.01936 143.083927,246.677359 L142.315579,249.278539 L139.595751,248.702581 C112.302524,242.609422 84.7669228,235.915318 58.1158594,227.35591" id="Fill-20" fill="#315C0F"></path>
            <path d="M92.6677912,308.683402 C121.91,313.787063 151.088491,320.959674 179.760997,328.547075 L176.114155,330.743461 C182.101024,305.733649 188.506424,280.807544 196.524731,256.354949 C192.891631,281.830775 187.600648,307.016748 181.89738,332.092777 L181.241473,335.040031 L178.249288,334.289162 C149.559291,326.772975 120.630669,318.64335 92.6677912,308.683402" id="Fill-21" fill="#315C0F"></path>
            <path d="M296.518691,201.622715 C296.518691,201.622715 283.203154,283.716068 210.909709,275.802583 C210.909709,275.802583 228.744133,326.165783 191.38242,332.002822 C191.38242,332.002822 225.821911,366.627757 200.86746,407.500771 C200.86746,407.500771 238.88508,413.2591 213.0311,457.160579 C213.0311,457.160579 236.782429,497.789967 233.596595,531.938893 C233.596595,531.938893 279.380154,511.506758 293.778874,479.794096 C293.778874,479.794096 261.788103,458.296253 310.085347,429.875671 C310.085347,429.875671 290.670499,400.835403 340.831769,376.172914 C340.831769,376.172914 302.989058,352.116368 349.329825,307.613945 C349.329825,307.613945 286.024179,269.409576 296.518691,201.622715" id="Fill-22" fill="#60922E"></path>
            <path d="M215.156238,301.713188 C216.054518,317.601378 208.003728,330.870896 191.604804,333.428349 L192.405635,330.984589 C212.61007,351.931462 218.770598,383.350523 202.376671,408.421554 L201.132322,405.752908 C203.975835,406.311375 206.49077,407.18843 208.99571,408.376577 C230.247097,418.528927 223.812961,441.473537 213.0311,457.160579 C223.374441,438.178958 227.107489,414.825805 200.602599,409.248635 L198.070173,408.78512 L199.358249,406.578739 C210.090137,389.253778 210.617362,367.713456 201.377194,349.632628 C198.052682,342.822333 193.672473,336.464309 188.541406,330.978342 C205.93481,329.419133 214.164257,318.619612 215.156238,301.713188" id="Fill-23" fill="#315C0F"></path>
            <path d="M291.49257,246.451223 C286.618868,357.141319 263.735834,534.537575 180.27323,613.283876 L177.349758,610.053015 C189.267276,599.298471 199.508171,586.728598 208.489724,573.347886 C266.005897,485.180114 285.569417,350.564656 291.49257,246.451223" id="Fill-24" fill="#315C0F"></path>
            <path d="M240.542963,302.089248 C255.771249,315.637375 269.980069,330.259956 283.905287,345.124915 L280.986813,344.921269 C295.018226,333.778172 309.250783,322.868706 324.190471,312.954985 C311.297213,325.414914 297.583135,336.970302 283.684153,348.277066 L282.163698,349.526432 L280.765679,348.073419 C266.805479,333.240944 253.106393,318.139855 240.542963,302.089248" id="Fill-25" fill="#315C0F"></path>
            <path d="M228.178179,364.976095 C243.715054,380.003471 258.191234,396.062824 272.375067,412.354559 L269.291679,412.188393 C283.066976,399.612273 297.05716,387.256042 311.825687,375.841832 C299.273501,389.656074 285.844273,402.620747 272.213901,415.353038 L270.619735,416.854776 L269.130513,415.186872 C254.91045,398.925122 240.960245,382.407252 228.178179,364.976095" id="Fill-26" fill="#315C0F"></path>
            <path d="M174.676156,342.425035 C184.331108,369.983554 190.099341,398.866402 191.676017,428.027858 C181.988583,400.476835 176.284066,371.581494 174.676156,342.425035" id="Fill-27" fill="#315C0F"></path>
            <path d="M191.674767,428.027858 C169.771221,410.620439 150.273917,389.832235 134.379729,366.802668 C156.307012,384.186349 175.756841,405.017032 191.674767,428.027858" id="Fill-28" fill="#315C0F"></path>
            <path d="M148.274962,494.704033 C158.146051,485.857271 168.899177,476.951788 175.240861,465.323937 C180.092074,456.778273 180.555582,445.953764 184.258646,436.577271 C185.547971,433.251458 187.132143,430.03434 188.947444,426.990884 C195.826346,415.38802 202.341689,403.429087 209.03319,391.59634 C215.752177,379.76859 222.466166,367.927098 229.541216,356.263015 C218.839312,381.406509 207.246624,405.98654 193.931087,429.89691 C188.682582,438.512539 187.165875,448.453746 184.19243,458.112596 C178.612848,475.188933 163.178419,486.300796 148.274962,494.704033" id="Fill-29" fill="#315C0F"></path>
            <path d="M130.919038,371.938812 C121.671374,375.422045 111.43048,370.696942 108.043501,361.386666 C104.657771,352.076389 109.409037,341.7054 118.656701,338.222167 C127.904365,334.738934 138.14526,339.464037 141.530989,348.774314 C144.917968,358.08584 140.165453,368.456829 130.919038,371.938812" id="Fill-30" fill="#B70A07"></path>
            <path d="M176.415247,354.611353 C166.782784,356.742771 157.316484,350.598389 155.271304,340.888315 C153.227373,331.17949 159.379156,321.580609 169.012868,319.449191 C178.64658,317.317772 188.11288,323.462155 190.156811,333.172229 C192.200742,342.881054 186.048959,352.479934 176.415247,354.611353" id="Fill-31" fill="#B70A07"></path>
            <g id="Group-35" transform="translate(0.000000, 319.516657)">
                <mask id="mask-4" fill="white">
                    <use xlink:href="#path-3"></use>
                </mask>
                <g id="Clip-33"></g>
                <path d="M236.538807,46.9549294 C226.905094,49.0863481 217.438795,42.9419652 215.394863,33.2331406 C213.349683,23.5230666 219.502715,13.9241861 229.135178,11.7927674 C238.76889,9.66259808 248.23519,15.8057316 250.279121,25.5158056 C252.323053,35.2246303 246.171269,44.8235107 236.538807,46.9549294" id="Fill-32" fill="#B70A07" mask="url(#mask-4)"></path>
                <path d="M230.077186,193.25571 C224.361425,214.669846 171.445346,192.827177 158.965622,198.098253 C158.965622,198.098253 163.052235,146.352004 106.465576,179.81128 C106.465576,179.81128 106.034551,140.651147 40.3026745,146.032167 C40.3026745,146.032167 52.3513739,112.466695 1.57292747,98.69743 C1.57292747,98.69743 34.8492762,67.1296945 8.56302213,28.7679058 C-5.24100932,8.62187605 1.64039219,-7.10182454e-14 1.64039219,-7.10182454e-14 C1.64039219,-7.10182454e-14 71.7962056,38.7990669 91.8582145,14.6113375 C91.8582145,14.6113375 110.221112,75.4467253 169.928639,54.2512279 C169.928639,54.2512279 166.917714,110.855012 215.006317,108.056432 C215.006317,108.056432 238.180448,162.888615 230.077186,193.25571" id="Fill-34" fill="#315C0F" mask="url(#mask-4)"></path>
            </g>
            <path d="M232.014922,610.051766 C237.46957,564.616066 231.568906,516.086935 204.553033,478.0125 C159.771451,415.555435 82.039599,382.43099 18.3529027,342.29635 C71.6437853,374.05274 128.802645,400.280684 176.037944,441.268641 C228.012016,486.138378 244.858206,543.666693 237.986799,610.687693 C237.537035,614.59696 231.631373,614.094715 232.014922,610.051766" id="Fill-36" fill="#60922E"></path>
            <path d="M100.987191,392.520871 L98.3398251,360.682023 L106.899099,391.462658 C107.903574,395.69551 101.516914,396.844927 100.987191,392.520871" id="Fill-37" fill="#60922E"></path>
            <path d="M40.7249537,400.488079 L103.85694,390.084607 C105.496083,389.813494 107.042774,390.922932 107.312633,392.5621 C107.608728,394.29747 106.309408,395.936638 104.554075,396.05033 L40.7249537,400.488079" id="Fill-38" fill="#60922E"></path>
            <path d="M151.018528,420.886481 L161.386856,398.216731 L156.741785,422.709306 C155.719819,427.065846 149.33191,425.036875 151.018528,420.886481" id="Fill-39" fill="#60922E"></path>
            <path d="M78.5589191,439.814379 L152.775109,421.663587 C154.388016,421.268787 156.014665,422.257036 156.409459,423.868718 C156.831738,425.56036 155.692334,427.276989 153.971983,427.549351 L78.5589191,439.814379" id="Fill-40" fill="#60922E"></path>
            <path d="M163.472015,477.109209 C177.142367,474.804128 190.997621,473.943315 204.825391,473.488545 L201.918161,476.245897 C202.201763,470.513804 202.733984,464.800453 203.548558,459.105842 C204.453085,453.367503 205.443817,447.684136 207.249123,442.110714 C208.271089,447.880287 208.468485,453.644862 208.57468,459.454415 C208.61341,466.113537 208.217367,472.782653 207.582699,479.401795 C192.861647,479.456768 178.089372,479.091953 163.472015,477.109209" id="Fill-41" fill="#60922E"></path>
        </g>
    </g>
</svg>