<?xml version="1.0" encoding="UTF-8"?>
<svg width="252px" height="148px" viewBox="0 0 252 148" version="1.1" xmlns="http://www.w3.org/2000/svg" xmlns:xlink="http://www.w3.org/1999/xlink">
    <title>decoration-1</title>
    <g id="decoration-1" stroke="none" stroke-width="1" fill="none" fill-rule="evenodd">
        <g id="Group" transform="translate(126.000000, 86.000000) scale(1, -1) translate(-126.000000, -86.000000) translate(0.000000, 0.000000)" fill-rule="nonzero">
            <path d="M45.6133316,37.9333066 C45.6133316,37.9333066 57.7818298,37.1033151 60.0475286,45.6260988 C60.0475286,45.6260988 72.0541912,35.8122171 77.2406378,44.6039796 C77.2406378,44.6039796 95.4818254,29.9484804 100.706804,34.7670425 C100.706804,34.7670425 106.794907,12.2573638 120.566348,8.11509109 C120.566348,8.11509109 91.828964,12.3726404 91.5361185,5.84029938 C91.5361185,5.84029938 77.5103639,19.5966411 72.5319916,13.848181 C72.5319916,13.848181 61.9279045,30.7246762 56.5179706,27.5891525 C56.5179706,27.5891525 51.0463849,39.0860727 45.6133316,37.9333066 Z" id="Path" fill="#30825C" transform="translate(83.089840, 25.733199) rotate(-360.000000) translate(-83.089840, -25.733199) "></path>
            <path d="M100.421665,19.5505305 C100.421665,19.5505305 55.9476926,39.3550514 35.5409902,40.3003196 C35.5409902,40.3003196 98.3332151,18.013509 100.421665,19.5505305 Z" id="Path" fill="#C9FFD4" transform="translate(67.981328, 29.887426) rotate(-360.000000) translate(-67.981328, -29.887426) "></path>
            <path d="M125.945456,91.8289627 C125.945456,91.8289627 137.212299,100.205729 150.50594,100.2211 C150.50594,100.2211 146.637298,112.978377 159.769103,119.549144 C159.769103,119.549144 158.990751,137.278686 172.384576,138.808022 C172.384576,138.808022 163.922884,162.539633 167.136478,171.615745 C167.128771,171.60806 134.81559,136.779154 125.945456,91.8289627 Z" id="Path" fill="#2A9F6A" transform="translate(149.165016, 131.722354) rotate(-360.000000) translate(-149.165016, -131.722354) "></path>
            <path d="M130.885296,157.61348 C130.885296,157.61348 163.807288,165.436919 168.076666,172 L126.885644,92.2132181 C126.885644,92.2132181 121.545068,114.669101 112.235666,114.838173 C112.235666,114.838173 128.750607,119.510719 125.090039,130.876992 C125.090039,130.876992 135.046784,133.551409 132.133743,142.281691 C132.133743,142.281691 136.349175,148.091632 135.031371,151.227156 C133.713567,154.362679 130.885296,157.61348 130.885296,157.61348 Z" id="Path" fill="#277D54" transform="translate(140.156166, 132.106609) rotate(-360.000000) translate(-140.156166, -132.106609) "></path>
            <path d="M69.4956469,74.2915483 C69.4956469,74.2915483 67.0064608,88.0863156 57.3040293,97.1470568 C57.3040293,97.1470568 68.8637173,103.8331 63.7774546,117.574072 C63.7774546,117.574072 76.4854049,129.993205 67.7539872,140.229767 C67.7539872,140.229767 90.1951947,151.795853 94.0561305,160.618356 C94.0561305,160.618356 93.8018174,113.16282 69.4956469,74.2915483 Z" id="Path" fill="#2A9F6A" transform="translate(75.680080, 117.454952) rotate(-360.000000) translate(-75.680080, -117.454952) "></path>
            <path d="M111.364837,124.775017 C111.364837,124.775017 92.6766744,152.917879 94.0561305,160.618356 L69.4956469,74.2915483 C69.4956469,74.2915483 88.7772064,87.0488261 95.6976062,80.8392596 C95.6976062,80.8392596 86.8351788,95.4947588 97.2928431,101.312385 C97.2928431,101.312385 91.8520834,110.050352 99.9592778,114.438548 C99.9592778,114.438548 100.860933,121.554957 103.966636,122.945961 C107.072339,124.336966 111.364837,124.775017 111.364837,124.775017 Z" id="Path" fill="#277D54" transform="translate(90.430242, 117.454952) rotate(-360.000000) translate(-90.430242, -117.454952) "></path>
            <path d="M73.2486922,77.7267912 L87.0047209,133.320856 L68.2857329,79.4559403 C68.2857329,79.4559403 68.3165587,73.5230376 73.2486922,77.7267912 Z" id="Path" fill="#C9FFD4" transform="translate(77.645227, 104.770975) rotate(-360.000000) translate(-77.645227, -104.770975) "></path>
            <path d="M139.871027,78.8565019 C139.871027,78.8565019 151.338237,74.7219143 155.869635,82.2994299 C155.869635,82.2994299 164.708943,69.5728926 172.122556,76.6047656 C172.122556,76.6047656 185.624272,57.5149595 191.974394,60.7196492 C191.974394,60.7196492 191.627603,37.4107194 203.726743,29.6487612 C203.726743,29.6487612 177.270471,41.6144729 175.18202,35.4125915 C175.18202,35.4125915 165.487295,52.4812144 159.114054,48.3158863 C159.114054,48.3158863 153.57311,67.4441179 147.500421,65.9147816 C147.500421,65.9224667 145.411971,78.4799317 139.871027,78.8565019 Z" id="Path" fill="#30825C" transform="translate(171.798885, 55.974096) rotate(-360.000000) translate(-171.798885, -55.974096) "></path>
            <path d="M162.49719,96.5629887 C162.49719,96.5629887 174.365136,89.0546391 179.112314,76.6739315 C179.112314,76.6739315 189.685576,84.8201451 200.528563,74.9370973 C200.528563,74.9370973 216.858549,81.9766554 223.069954,70.0416841 C223.069954,70.0416841 242.289862,86.3879069 251.938348,86.6261452 C251.930642,86.6261452 207.78034,104.324947 162.49719,96.5629887 Z" id="Path" fill="#2A9F6A" transform="translate(207.217769, 84.286526) rotate(-360.000000) translate(-207.217769, -84.286526) "></path>
            <path d="M225.898225,115.406871 C225.898225,115.406871 244.332074,88.2553879 252,86.6184601 L163.206184,95.8175333 C163.206184,95.8175333 182.341321,108.797679 179.181672,117.535646 C179.181672,117.535646 189.446675,103.81773 198.79461,111.272284 C198.79461,111.272284 204.851886,102.949313 211.988067,108.774624 C211.988067,108.774624 218.931586,106.914828 221.405359,109.258786 C223.871426,111.610428 225.898225,115.406871 225.898225,115.406871 Z" id="Path" fill="#277D54" transform="translate(207.603092, 102.077053) rotate(-360.000000) translate(-207.603092, -102.077053) "></path>
            <path d="M225.489782,89.692503 C225.489782,89.692503 168.508227,105.546879 114.516778,86.7029963 C60.5253291,67.8591137 20.9064253,26.5439779 8.63003668,8.3456443 C-3.6463519,-9.85268931 -3.27644189,4.5568865 12.6528081,24.3537224 C28.5820581,44.1505583 69.5958308,74.1301611 99.1115674,87.5790985 C128.627304,101.028036 205.591706,103.656343 225.489782,89.692503 Z" id="Path" fill="#A8E5B2" transform="translate(112.744891, 49.496012) rotate(-360.000000) translate(-112.744891, -49.496012) "></path>
            <ellipse id="Oval" fill="#B11022" transform="translate(111.380250, 78.902613) rotate(-360.000000) translate(-111.380250, -78.902613) " cx="111.38025" cy="78.9026126" rx="9.03196951" ry="9.00694552"></ellipse>
            <ellipse id="Oval" fill="#F81132" transform="translate(80.985977, 62.379632) rotate(-360.000000) translate(-80.985977, -62.379632) " cx="80.9859767" cy="62.3796323" rx="8.52334324" ry="8.49972845"></ellipse>
            <ellipse id="Oval" fill="#F81132" transform="translate(66.459302, 73.968774) rotate(-360.000000) translate(-66.459302, -73.968774) " cx="66.4593022" cy="73.9687738" rx="10.904639" ry="10.8744265"></ellipse>
            <ellipse id="Oval" fill="#B11022" transform="translate(72.069604, 63.786007) rotate(-360.000000) translate(-72.069604, -63.786007) " cx="72.0696041" cy="63.7860069" rx="7.83746842" ry="7.81575392"></ellipse>
            <path d="M187.504648,46.1717414 C187.504648,46.1717414 150.197682,77.3963316 130.839058,83.8979322 C130.839058,83.8979322 185.077113,45.2725839 187.504648,46.1717414 Z" id="Path" fill="#C9FFD4" transform="translate(159.171853, 65.027108) rotate(-360.000000) translate(-159.171853, -65.027108) "></path>
            <path d="M25.8539717,47.4167288 C25.8539717,47.4167288 29.9075689,58.8829086 38.6621059,57.5841255 C38.6621059,57.5841255 34.3850214,72.4624928 44.5344274,73.7305355 C44.5344274,73.7305355 38.2690765,96.2402142 44.7733276,99.1067592 C44.7733276,99.1067592 26.4627819,113.600871 28.1042576,127.84906 C28.1042576,127.84906 20.6366992,99.8522145 14.5023582,102.165432 C14.5023582,102.165432 21.6154195,83.8748769 14.3405225,81.5924001 C14.3405225,81.5924001 25.6767232,65.2000666 20.6521121,61.4881599 C20.6444057,61.495845 29.067565,51.9278867 25.8539717,47.4167288 Z" id="Path" fill="#30825C" transform="translate(29.556925, 87.632894) rotate(-360.000000) translate(-29.556925, -87.632894) "></path>
            <path d="M31.2484927,104.778368 C31.2484927,104.778368 31.6261092,53.5417592 24.4051575,34.4826935 C24.4051575,34.4826935 29.0059133,103.4719 31.2484927,104.778368 Z" id="Path" fill="#C9FFD4" transform="translate(27.828518, 69.630531) rotate(-360.000000) translate(-27.828518, -69.630531) "></path>
            <path d="M130.399789,95.2027247 C130.399789,95.2027247 154.690547,140.752355 155.045044,145.309623 L127.15537,94.6186566 L130.399789,95.2027247 Z" id="Path" fill="#C9FFD4" transform="translate(141.100207, 119.964140) rotate(-360.000000) translate(-141.100207, -119.964140) "></path>
            <ellipse id="Oval" fill="#BF1E30" transform="translate(129.066572, 80.570281) rotate(-360.000000) translate(-129.066572, -80.570281) " cx="129.066572" cy="80.5702808" rx="11.4209717" ry="11.3893287"></ellipse>
            <ellipse id="Oval" fill="#EF355A" transform="translate(118.539550, 93.335244) rotate(-360.000000) translate(-118.539550, -93.335244) " cx="118.53955" cy="93.3352437" rx="9.88738641" ry="9.85999241"></ellipse>
        </g>
    </g>
</svg>