<?xml version="1.0" encoding="UTF-8"?>
<svg width="447px" height="212px" viewBox="0 0 447 212" version="1.1" xmlns="http://www.w3.org/2000/svg" xmlns:xlink="http://www.w3.org/1999/xlink">
    <title>decoration-22</title>
    <g id="decoration-22" stroke="none" stroke-width="1" fill="none" fill-rule="evenodd">
        <g id="Christmas/Stuffs/Candy-Cane-2" transform="translate(0.000000, 7.000000)">
            <g id="Candy-1" transform="translate(-0.039812, -0.000086)">
                <path d="M106.041429,63.31968 L138.268481,68.7930518 L125.31445,41.9281668 C125.001714,41.2593095 124.486892,40.2546991 124.019776,39.3428015 L123.307507,37.9587305 L122.538918,36.6031356 C121.529814,34.7872873 120.406747,33.033027 119.248564,31.3079049 C107.552103,29.9304562 96.6838632,32.0668262 88.0253153,36.7832635 C91.8695833,39.7348446 95.2288455,43.3599187 97.9420957,47.4604775 L98.9306596,49.020703 L99.849653,50.6279473 C100.146487,51.1703177 100.412843,51.7312307 100.701726,52.278899 L100.915076,52.6908091 L101.183419,53.2450998 L106.041429,63.31968 M55.5133557,29.31524 C57.2658702,19.1154973 62.2497696,8.94555526 70.2821829,0.517291104 C62.4551683,-0.498577303 54.5241292,-0.00852344311 47.012501,1.90202438 C39.4829832,3.7993275 32.4576861,7.15222303 26.187726,11.7044261 C25.6424256,23.8961714 28.4391604,35.4376021 33.5436487,44.767168 C36.097218,40.8818355 39.3279404,37.5395358 43.0569201,34.901854 C46.8071024,32.2972839 51.0807199,30.3787893 55.5133557,29.31524 M0.0941436855,61.538268 C-0.174862317,66.8368098 0.132573115,72.2095219 1.01711256,77.5153483 C1.92285444,82.8185258 3.41563899,88.0448839 5.42854598,93.0474067 C5.76844765,93.9208946 6.1454536,94.7659064 6.57347793,95.5718463 C6.78682752,95.9731607 6.99951453,96.3724884 7.21087639,96.7698294 C7.41892537,97.1406809 7.66805408,97.6035832 7.84628712,97.8618548 C8.61951373,99.0545399 9.44707161,100.166432 10.3157092,101.188261 C12.0529844,103.23258 13.9512657,104.915981 15.8939396,106.164294 C19.7792874,108.66092 23.8408805,109.415206 27.1424985,107.82518 L27.1431611,107.82518 C30.4441165,106.234491 32.3848027,102.588888 32.851919,97.9962885 C33.0851459,95.6996577 32.9506429,93.1659468 32.4325082,90.5348873 C32.1741034,89.2196887 31.819625,87.8793252 31.367748,86.5316771 C31.2325824,86.1581766 31.2021039,85.9674529 31.1100058,85.6873275 C31.0304966,85.4277314 30.9450242,85.1694598 30.8529261,84.9125127 C30.6614416,84.4019295 30.4679693,83.887373 30.2725092,83.3655318 L29.7961168,82.1735089 L29.3820066,80.9629434 C29.0778841,80.1629636 28.8810989,79.3351699 28.6266696,78.5226077 C18.7609075,76.1537933 8.6652315,70.3976471 0.0941436855,61.538268 M144.412551,142.897805 L176.640266,148.371176 L159.368225,112.550888 L127.140511,107.077516 L144.412551,142.897805 M177.346572,211.19873 C182.532557,221.955412 192.178344,228.153269 198.782242,224.972555 C205.384816,221.79184 206.544325,210.388817 201.357677,199.632797 L197.739347,192.129013 L165.512296,186.655641 L177.346572,211.19873" id="Combined-Shape" fill="#60922E"></path>
                <path d="M33.5436487,44.767168 C28.4391604,35.4376021 25.6424256,23.8961714 26.187726,11.7044261 C18.5475579,17.2850799 12.153696,24.704098 7.70515835,33.2965965 C3.24866974,41.8778369 0.583787617,51.5557384 0.0941436855,61.538268 C8.6652315,70.3976471 18.7609075,76.1537933 28.6266696,78.5226077 C27.0152838,72.7492434 26.6700816,66.6931048 27.5036026,60.878682 C28.3212219,55.0543256 30.4507423,49.5233394 33.5436487,44.767168 M88.0253153,36.7832635 C96.6838632,32.0668262 107.552103,29.9304562 119.248564,31.3079049 C113.521916,22.9094413 106.089135,15.7235299 97.667789,10.4388951 C89.2358423,5.17081607 79.8458101,1.74639916 70.2821829,0.517291104 C62.2497696,8.94555526 57.2658702,19.1154973 55.5133557,29.31524 C60.9497948,28.0490468 66.7102337,28.0649404 72.3129794,29.3390804 C77.9137374,30.6277896 83.316385,33.2058703 88.0253153,36.7832635 M127.140511,107.077516 L159.368225,112.550888 L138.268481,68.7930518 L106.041429,63.31968 L127.140511,107.077516 M165.512296,186.655641 L197.739347,192.129013 L176.640266,148.371176 L144.412551,142.897805 L165.512296,186.655641" id="Combined-Shape" fill="#F4F1D7"></path>
            </g>
            <g id="Candy-2" transform="translate(95.398984, -0.000086)">
                <path d="M98.5603077,63.31968 L66.3325935,68.7930518 L79.2866239,41.9281668 C79.59936,41.2593095 80.1141818,40.2546991 80.5812981,39.3428015 L81.2935677,37.9587305 L82.0621563,36.6031356 C83.0719227,34.7872873 84.1949896,33.033027 85.3531731,31.3079049 C97.048971,29.9304562 107.917211,32.0668262 116.576422,36.7832635 C112.732154,39.7348446 109.372229,43.3599187 106.659641,47.4604775 L105.671077,49.020703 L104.752084,50.6279473 C104.45525,51.1703177 104.188894,51.7312307 103.900011,52.278899 L103.685998,52.6908091 L103.417655,53.2450998 L98.5603077,63.31968 M149.087718,29.31524 C147.335204,19.1154973 142.351305,8.94555526 134.319554,0.517291104 C142.146569,-0.498577303 150.076945,-0.00852344311 157.589236,1.90202438 C165.118754,3.7993275 172.144051,7.15222303 178.414011,11.7044261 C178.959311,23.8961714 176.161914,35.4376021 171.057426,44.767168 C168.503856,40.8818355 165.273134,37.5395358 161.544817,34.901854 C157.793972,32.2972839 153.521017,30.3787893 149.087718,29.31524 M204.506931,61.538268 C204.775937,66.8368098 204.468501,72.2095219 203.583962,77.5153483 C202.678882,82.8185258 201.185435,88.0448839 199.172528,93.0474067 C198.833289,93.9208946 198.456283,94.7659064 198.028259,95.5718463 C197.814909,95.9731607 197.602222,96.3724884 197.39086,96.7698294 C197.182149,97.1406809 196.933683,97.6035832 196.754787,97.8618548 C195.982223,99.0545399 195.154003,100.166432 194.285365,101.188261 C192.548752,103.23258 190.650471,104.915981 188.707797,106.164294 C184.822449,108.66092 180.760194,109.415206 177.458576,107.82518 C174.156958,106.234491 172.216272,102.588888 171.749818,97.9962885 C171.515928,95.6996577 171.651094,93.1659468 172.168566,90.5348873 C172.427633,89.2196887 172.781449,87.8793252 173.233326,86.5316771 C173.368492,86.1581766 173.399633,85.9674529 173.491068,85.6873275 C173.570578,85.4277314 173.65605,85.1694598 173.748148,84.9125127 C173.939633,84.4019295 174.133105,83.887373 174.328565,83.3655318 L174.80562,82.1735089 L175.219068,80.9629434 C175.52319,80.1629636 175.720638,79.3351699 175.975067,78.5226077 C185.840167,76.1537933 195.935843,70.3976471 204.506931,61.538268 M60.1885229,142.897805 L27.9614712,148.371176 L45.2335118,112.550888 L77.4605635,107.077516 L60.1885229,142.897805 M27.2551648,211.19873 C22.068517,221.955412 12.4227304,228.153269 5.81949434,224.972555 C-0.783741686,221.79184 -1.94258774,210.388817 3.24339744,199.632797 L6.86172695,192.129013 L39.0894412,186.655641 L27.2551648,211.19873" id="Combined-Shape" fill="#F4F1D7"></path>
                <path d="M171.057426,44.767168 C176.161914,35.4376021 178.959311,23.8961714 178.414011,11.7044261 C186.054179,17.2850799 192.447378,24.704098 196.896578,33.2965965 C201.352405,41.8778369 204.017949,51.5557384 204.506931,61.538268 C195.935843,70.3976471 185.840167,76.1537933 175.975067,78.5226077 C177.586453,72.7492434 177.930993,66.6931048 177.098134,60.878682 C176.280515,55.0543256 174.150332,49.5233394 171.057426,44.767168 M116.576422,36.7832635 C107.917211,32.0668262 97.048971,29.9304562 85.3531731,31.3079049 C91.079158,22.9094413 98.5119396,15.7235299 106.933285,10.4388951 C115.365232,5.17081607 124.755927,1.74639916 134.319554,0.517291104 C142.351305,8.94555526 147.335204,19.1154973 149.087718,29.31524 C143.651279,28.0490468 137.891503,28.0649404 132.288095,29.3390804 C126.687999,30.6277896 121.285352,33.2058703 116.576422,36.7832635 M77.4605635,107.077516 L45.2335118,112.550888 L66.3325935,68.7930518 L98.5603077,63.31968 L77.4605635,107.077516 M39.0894412,186.655641 L6.86172695,192.129013 L27.9614712,148.371176 L60.1885229,142.897805 L39.0894412,186.655641" id="Combined-Shape" fill="#60922E"></path>
            </g>
            <g id="Christmas/Stuffs/Knot-1" transform="translate(49.127046, 68.268109)">
                <path d="M89.4173544,53.6818827 C89.4173544,53.6818827 47.3036941,-15.2495294 15.6322737,3.10953701 C-16.038485,21.4692656 12.9395083,68.2564483 12.9395083,68.2564483 C12.9395083,68.2564483 -4.00572711,85.3926363 0.886901962,95.438513 C5.78019264,105.48439 38.1132261,139.086732 88.1212543,85.0490121 L89.4173544,53.6818827" id="Fill-23" fill="#B70A07"></path>
                <path d="M110.93566,54.3393371 C110.93566,54.3393371 158.63532,-11.8483781 188.710268,8.39764202 C218.785877,28.6436622 186.017502,73.5445533 186.017502,73.5445533 C186.017502,73.5445533 201.504542,91.6718886 195.794821,101.393342 C190.084438,111.115457 155.057977,142.659364 109.638898,85.7064665 L110.93566,54.3393371" id="Fill-24" fill="#B70A07"></path>
                <path d="M64.1298391,77.3032327 C63.8036638,77.3032327 63.4821198,77.149628 63.2796662,76.8622814 C62.948198,76.3928603 63.0606723,75.744013 63.5304176,75.4129685 C69.4260522,71.251739 79.2159416,69.4554915 84.6934367,68.74507 C76.253238,64.4024281 63.2207827,54.2022846 62.5803412,53.7004212 C62.129121,53.3462035 62.050389,52.6920596 62.4043521,52.2398528 C62.7589767,51.787646 63.4113272,51.7088574 63.863209,52.063075 C64.0438294,52.2041 81.9398028,66.2125795 89.0700075,68.3703276 C89.5503386,68.5153251 89.8579887,68.983422 89.8017516,69.4832992 C89.7448529,69.9818523 89.3399457,70.3691743 88.8391045,70.403603 C88.6776709,70.4135343 72.5938558,71.5602725 64.7279374,77.1132131 C64.5459937,77.2409963 64.336924,77.3032327 64.1298391,77.3032327" id="Fill-25" fill="#C91111"></path>
                <path d="M137.674093,79.5497007 C137.44319,79.5497007 137.210963,79.4735605 137.018434,79.3159833 C129.636816,73.3028908 113.693263,71.1782471 113.532491,71.1577224 C113.034958,71.0928376 112.653869,70.6816804 112.628066,70.1791548 C112.602263,69.6772913 112.939024,69.2290571 113.427956,69.1131915 C120.722903,67.3957326 139.735017,54.5128044 139.925562,54.3830349 C140.401924,54.0586113 141.047658,54.1837461 141.369202,54.6591261 C141.692069,55.134506 141.568347,55.7807049 141.093971,56.1038043 C140.413833,56.5652804 126.565608,65.948406 117.791957,69.7613766 C123.203952,70.8088015 132.799327,73.1976186 138.330413,77.7031344 C138.775678,78.0659592 138.842501,78.7207652 138.480599,79.1656891 C138.275499,79.4186071 137.975788,79.5497007 137.674093,79.5497007" id="Fill-26" fill="#C91111"></path>
                <path d="M92.3780731,85.1787816 L106.784699,85.6190708 C113.786551,85.8329255 119.66366,81.1267967 119.912427,75.1077455 L120.308071,65.5379108 C120.556838,59.5188595 115.082651,54.4657961 108.081461,54.2519413 L93.6748349,53.8123142 C86.6736448,53.5977974 80.7958737,58.3039261 80.5471072,64.3229774 L80.1514626,73.8928121 C79.902696,79.9125255 85.376883,84.9649268 92.3780731,85.1787816" id="Fill-27" fill="#FD0E20"></path>
                <path d="M107.243197,85.6263537 C107.091026,85.6263537 106.938193,85.6237054 106.784699,85.6190708 L92.3780731,85.1787816 C90.8848123,85.1330974 89.4610209,84.8675997 88.1470572,84.4193654 C83.4343869,82.8104891 80.1395535,78.852521 80.1435196,74.2794721 C80.1435196,74.1510268 80.1461697,74.0225816 80.1514626,73.8928121 L80.5471072,64.3229774 C80.7905808,58.4356818 86.4182621,53.8050312 93.216337,53.8050312 C93.368508,53.8050312 93.5213406,53.8070175 93.6748349,53.8123142 L108.081461,54.2519413 C114.932465,54.4611614 120.321304,59.3043426 120.316675,65.1512508 C120.316011,65.279696 120.313364,65.4088034 120.308071,65.5379108 L119.912427,75.1077455 C119.698726,80.2832953 115.323478,84.4882227 109.650145,85.4290512 C108.870104,85.5581586 108.06492,85.6263537 107.243197,85.6263537" id="Fill-28" fill="#DB0C14"></path>
            </g>
        </g>
        <g id="Group" transform="translate(222.071151, 36.027892)">
            <g id="Christmas/Stuffs/Cookie-2" transform="translate(99.963269, 127.654821) rotate(15.000000) translate(-99.963269, -127.654821) ">
                <path d="M148.104576,255.619662 C130.253731,255.619662 109.926424,245.901667 106.412517,218.623719 C104.943089,207.22214 101.54046,203.380077 100.097297,202.685737 L99.5568024,202.769501 C98.0369198,203.656291 94.8167593,207.618114 93.3984787,218.623719 C89.8845709,245.901667 69.5572644,255.619662 51.7064196,255.619662 C47.2138153,255.619662 42.6831967,255.036776 38.2403566,253.887618 C26.7157898,250.906732 17.314497,242.564265 13.0921401,231.571122 C8.41983162,219.409438 10.4456506,205.293494 18.6498372,192.843828 C32.5893516,171.690334 36.7916645,158.353186 32.7013211,148.249601 C31.2830405,144.746056 27.0910951,142.073919 22.2370089,138.980194 C13.2808295,133.273174 1.0146374,125.456827 0.0179704172,106.82248 C-0.597861956,95.2997549 3.69292073,88.2089004 7.40173837,84.2906893 C13.1889039,78.1745418 22.1934652,74.8073724 32.7545412,74.8073724 C36.468197,74.8073724 40.2115731,75.2317299 43.2955732,76.0036036 C47.0935517,76.9554659 50.5908714,79.0156419 53.9478836,81.3208791 C49.2444725,73.1258645 46.7299964,63.7720008 46.7299964,54.0906965 C46.7299964,24.2652183 70.585034,0 99.905152,0 C129.225961,0 153.080999,24.2652183 153.080999,54.0906965 C153.080999,63.7720008 150.566523,73.1258645 145.863112,81.3201869 C149.220124,79.0142573 152.716061,76.9554659 156.512657,76.0036036 C159.598731,75.2317299 163.342107,74.8073724 167.056454,74.8073724 C177.61753,74.8073724 186.6214,78.1745418 192.409257,84.2906893 C196.117383,88.2102849 200.409548,95.2997549 199.793716,106.82248 C198.795667,125.456827 186.530166,133.273174 177.573986,138.980194 C172.7199,142.073919 168.527264,144.744671 167.109674,148.249601 C163.01864,158.353186 167.221644,171.690334 181.161849,192.843828 C189.365345,205.293494 191.390472,219.409438 186.718855,231.571122 C182.495807,242.564265 173.095205,250.906732 161.570639,253.887618 C157.127799,255.036776 152.59718,255.619662 148.104576,255.619662" id="Border" fill="#D77552"></path>
                <path d="M176.773612,205.280341 C173.657126,209.543299 169.922044,203.105249 164.830196,203.105249 C159.738347,203.105249 158.293802,209.347388 155.807664,210.598308 C153.310467,211.83746 149.988014,209.347388 146.66556,210.598308 C143.343106,211.83746 140.845909,222.244949 133.375745,215.589528 C125.895213,208.934107 117.437367,223.832309 117.437367,223.832309 C116.851255,221.831667 116.395083,219.689112 116.102027,217.372799 C112.779574,191.57837 99.9023873,192.828598 99.9023873,192.828598 C99.9023873,192.828598 87.0252011,191.57837 83.7027474,217.372799 C83.4421764,219.439205 83.0516654,221.374773 82.5519495,223.191273 C80.5212924,220.3523 76.0701583,215.45869 69.8268207,216.383554 C61.1084036,217.666318 56.5376972,221.494535 54.0398092,216.252716 C51.5536711,211.01159 49.3820153,208.510442 42.7806516,209.347388 C36.3645215,210.152491 28.6766388,208.520826 26.9507876,198.026804 C40.5661433,177.310821 47.9706463,159.911471 41.7604849,144.56676 C38.5140599,136.552426 30.316785,132.832894 23.0311631,127.809139 C23.0311631,127.809139 30.3706962,124.068147 30.3706962,118.65257 C30.3706962,113.248069 37.428232,111.583868 38.6764848,107.842876 C39.9254288,104.102577 34.1057783,98.6863077 38.6764848,96.196236 C43.2478825,93.6950882 44.0074782,89.3670572 40.9241693,85.49592 C49.2299579,87.5837865 60.0336345,101.307217 68.3394231,98.392788 C70.4785939,97.6423744 71.4013057,95.8051072 71.5969068,93.4991777 C71.8685365,90.1825435 70.5981663,86.9309821 68.3394231,84.494907 C60.99989,76.5567221 56.504521,65.86679 56.504521,54.089312 C56.504521,29.6212605 75.9395272,9.78583606 99.9023873,9.78583606 C123.875615,9.78583606 143.310621,29.6212605 143.310621,54.089312 C143.310621,65.86679 138.815943,76.5567221 131.475719,84.494907 C129.217667,86.9309821 127.936238,90.1825435 128.218927,93.4991777 C128.403469,95.8051072 129.33724,97.6423744 131.475719,98.392788 C138.381198,100.817787 147.00216,91.7484434 154.482691,87.4093361 C153.354011,90.1936197 151.084209,96.9577258 155.188376,98.2730264 C160.368003,99.9372277 162.028884,103.797981 162.028884,106.657721 C162.028884,109.507078 162.8652,115.32486 167.848535,115.32486 C172.83187,115.32486 173.548613,118.043378 174.080814,123.654866 C174.352443,126.493146 174.536986,128.233496 174.97104,129.016446 C168.185134,133.464239 161.030144,137.204538 158.055349,144.56676 C151.82307,159.965468 159.303601,177.430582 173.006044,198.233791 C174.558412,200.593717 175.807356,202.952951 176.773612,205.280341" id="Body" fill="#E2AA7D"></path>
                <path d="M159.130118,244.407071 C143.027933,248.57242 123.333047,244.124627 117.437367,223.832309 C117.437367,223.832309 125.895213,208.934107 133.375745,215.589528 C140.845909,222.244949 143.343106,211.83746 146.66556,210.598308 C149.988014,209.347388 153.310467,211.83746 155.807664,210.598308 C158.293802,209.347388 159.738347,203.105249 164.830196,203.105249 C169.922044,203.105249 173.657126,209.543299 176.773612,205.280341 C184.362657,223.538789 174.807924,240.362175 159.130118,244.407071 M38.6764848,107.842876 C37.428232,111.583868 30.3706962,113.248069 30.3706962,118.65257 C30.3706962,124.068147 23.0311631,127.809139 23.0311631,127.809139 C16.3212858,123.187588 10.3710042,117.467415 9.77383344,106.299129 C8.52558062,83.0051561 32.6183807,83.4184374 40.9241693,85.49592 C44.0074782,89.3670572 43.2478825,93.6950882 38.6764848,96.196236 C34.1057783,98.6863077 39.9254288,104.102577 38.6764848,107.842876 M82.5519495,223.191273 C76.8843564,244.037402 56.9606931,248.616032 40.6857157,244.407071 C22.9986781,239.840209 13.0962871,219.037 26.8097889,198.233791 C26.8526415,198.168026 26.8961852,198.091877 26.9507876,198.026804 C28.6766388,208.520826 36.3645215,210.152491 42.7806516,209.347388 C49.3820153,208.510442 51.5536711,211.01159 54.0398092,216.252716 C56.5376972,221.494535 61.1084036,217.666318 69.8268207,216.383554 C76.0701583,215.45869 80.5212924,220.3523 82.5519495,223.191273 M190.03025,106.299129 C189.433079,117.467415 183.483489,123.187588 176.773612,127.809139 C176.70795,127.863135 176.64298,127.906748 176.57801,127.95036 C176.296013,128.135195 176.024383,128.331105 175.742386,128.51594 C175.676725,128.559552 175.611755,128.592088 175.546785,128.635701 C175.351184,128.765847 175.166642,128.885608 174.97104,129.016446 C174.536986,128.233496 174.352443,126.493146 174.080814,123.654866 C173.548613,118.043378 172.83187,115.32486 167.848535,115.32486 C162.8652,115.32486 162.028884,109.507078 162.028884,106.657721 C162.028884,103.797981 160.368003,99.9372277 155.188376,98.2730264 C151.084209,96.9577258 153.354011,90.1936197 154.482691,87.4093361 C156.003265,86.528777 157.479604,85.8434362 158.880605,85.49592 C167.186394,83.4184374 191.279194,83.0051561 190.03025,106.299129 M107.816283,120.866428 C107.816283,125.235303 104.280257,128.776923 99.9182842,128.776923 C95.5563111,128.776923 92.0202859,125.235303 92.0202859,120.866428 C92.0202859,116.497554 95.5563111,112.955934 99.9182842,112.955934 C104.280257,112.955934 107.816283,116.497554 107.816283,120.866428 M107.816283,152.002361 C107.816283,156.371236 104.280257,159.912856 99.9182842,159.912856 C95.5563111,159.912856 92.0202859,156.371236 92.0202859,152.002361 C92.0202859,147.632795 95.5563111,144.091175 99.9182842,144.091175 C104.280257,144.091175 107.816283,147.632795 107.816283,152.002361" id="Decoration" fill="#F4F1D7"></path>
                <path d="M99.0163075,70.8566249 C93.6120501,70.8566249 89.6385144,63.1032743 89.4705602,62.7709879 C89.1540043,62.1424127 89.404899,61.3753848 90.0324813,61.0569436 C90.6593724,60.7391947 91.4272621,60.989794 91.7452003,61.6183692 C92.6927942,63.4895573 95.832779,68.3035573 99.0156164,68.3035573 L99.0930274,68.3028651 C101.759561,68.2371 103.907717,64.6622516 105.240292,61.6751348 C105.527819,61.0313298 106.282577,60.7405792 106.923982,61.029253 C107.568153,61.3172346 107.854988,62.0718018 107.568844,62.7156068 C105.192602,68.0404972 102.360879,70.7783991 99.1503945,70.8545481 L99.0163075,70.8566249" id="Mouth" fill="#302825"></path>
                <path d="M90.6082258,45.2684912 C90.6082258,47.6851829 88.652215,49.6435962 86.2400321,49.6435962 C83.827158,49.6435962 81.8718384,47.6851829 81.8718384,45.2684912 C81.8718384,42.8524918 83.827158,40.8933862 86.2400321,40.8933862 C88.652215,40.8933862 90.6082258,42.8524918 90.6082258,45.2684912 M116.55267,45.2684912 C116.55267,47.6851829 114.59735,49.6435962 112.184476,49.6435962 C109.772293,49.6435962 107.816283,47.6851829 107.816283,45.2684912 C107.816283,42.8524918 109.772293,40.8933862 112.184476,40.8933862 C114.59735,40.8933862 116.55267,42.8524918 116.55267,45.2684912" id="Eyes" fill="#302825"></path>
            </g>
        </g>
    </g>
</svg>