<?xml version="1.0" encoding="UTF-8"?>
<svg width="447px" height="447px" viewBox="0 0 447 447" version="1.1" xmlns="http://www.w3.org/2000/svg" xmlns:xlink="http://www.w3.org/1999/xlink">
    <title>decoration-17</title>
    <g id="decoration-17" stroke="none" stroke-width="1" fill="none" fill-rule="evenodd">
        <g id="Group" transform="translate(25.788116, -0.367044)">
            <g id="Christmas/Balls/Balls-1" transform="translate(197.000000, 223.500000) scale(1, -1) translate(-197.000000, -223.500000) ">
                <g id="Group" transform="translate(8.000000, 192.830539)">
                    <g id="Christmas/Balls/Ball-2" transform="translate(103.000000, 130.500000) rotate(20.000000) translate(-103.000000, -130.500000) ">
                        <path d="M98.5438717,32.7626983 C98.5438717,32.7626983 98.5562136,32.6745414 98.586187,32.4858857 C98.8065792,31.0841914 99.9226452,24.5376619 101.985516,18.5024423 C103.009899,15.4910034 104.288174,12.6082736 105.681052,10.6459016 C106.372202,9.66383403 107.08451,8.92155315 107.729818,8.47547936 C108.383942,8.0258793 108.91641,7.85838124 109.475324,7.85309183 C109.894951,7.85485497 110.374524,7.95359067 110.993385,8.26390286 C111.919033,8.73818685 112.416237,9.26183868 112.770628,9.89833132 C113.117966,10.5365871 113.310148,11.3546829 113.311911,12.3914077 C113.318964,14.0893091 112.752997,16.3002835 111.820297,18.5782572 C110.427418,22.0057965 108.262286,25.5832024 106.44978,28.2614083 C105.545291,29.6031559 104.727195,30.7245113 104.141833,31.5055812 C103.847389,31.8952346 103.612892,32.2002574 103.450683,32.4065445 L103.26908,32.6392786 L103.21266,32.7098041 L106.640199,35.4796931 C106.677225,35.4320884 109.373062,32.0979954 112.104162,27.6125737 C113.468831,25.3680996 114.844078,22.8344711 115.90196,20.2408958 C116.95279,17.6437943 117.710939,14.9920355 117.719755,12.3914077 C117.719755,10.8151628 117.423548,9.23010221 116.644241,7.79314515 C115.871987,6.3561881 114.604291,5.13962323 112.978678,4.32857999 C111.843218,3.75379717 110.649574,3.44348497 109.475324,3.44523373 C107.780949,3.44172183 106.227625,4.08703015 104.966982,5.03383498 C102.756007,6.70352619 101.181525,9.21776025 99.8362515,12.0264383 C97.842143,16.2456263 96.45808,21.2194371 95.5377223,25.1847333 C94.6226539,29.142977 94.1889221,32.0786009 94.1836327,32.1191531 L98.5438717,32.7626983" id="Fill-506" fill="#131514" transform="translate(105.951694, 19.462463) rotate(-19.000000) translate(-105.951694, -19.462463) "></path>
                        <path d="M201.981004,140.987044 C209.134053,199.334553 173.693227,244.872868 119.025386,253.4999 C64.3575446,262.125168 11.1636865,230.573823 4.01063775,172.226314 C-3.14064791,113.877042 36.1402922,65.7980458 90.8081332,57.171014 C145.475974,48.5457454 194.827956,82.6377719 201.981004,140.987044" id="Fill-507" fill="#122032" transform="translate(103.033053, 155.375439) rotate(-19.000000) translate(-103.033053, -155.375439) "></path>
                        <path d="M114.126602,102.046934 L84.1656064,210.968279 C83.8429523,212.142528 84.532339,213.355567 85.7048255,213.678221 C86.879075,214.000875 88.0921136,213.311489 88.4147678,212.137239 L118.377526,103.215894 C118.70018,102.041645 118.010794,100.828606 116.836544,100.505952 C115.662295,100.183298 114.449256,100.872685 114.126602,102.046934" id="Fill-509" fill="#F7F7F6" transform="translate(101.271562, 157.092087) rotate(-19.000000) translate(-101.271562, -157.092087) "></path>
                        <path d="M77.3087978,119.401694 L121.403103,196.960349 C122.004333,198.018231 123.349607,198.38849 124.40749,197.78726 C125.465372,197.186031 125.835631,195.840757 125.234401,194.782874 L81.1400955,117.224219 C80.5388657,116.166337 79.1935918,115.796078 78.1339461,116.397308 C77.0760636,116.998538 76.7058048,118.343811 77.3087978,119.401694" id="Fill-510" fill="#F7F7F6" transform="translate(101.270989, 157.092284) rotate(-19.000000) translate(-101.270989, -157.092284) "></path>
                        <path d="M46.2246508,144.235288 L155.147759,174.198047 C156.320245,174.520701 157.535047,173.831314 157.857701,172.657064 C158.180355,171.484578 157.490968,170.271539 156.316719,169.948885 L47.3953741,139.986127 C46.2211245,139.663473 45.0080859,140.352859 44.6854318,141.527109 C44.3627776,142.699595 45.0521644,143.912634 46.2246508,144.235288" id="Fill-511" fill="#F7F7F6" transform="translate(101.271562, 157.092087) rotate(-19.000000) translate(-101.271562, -157.092087) "></path>
                        <path d="M63.5810093,181.055086 L141.139664,136.96078 C142.197547,136.35955 142.567806,135.014276 141.966576,133.956394 C141.365346,132.898511 140.020072,132.528253 138.960426,133.129482 L61.4017714,177.223788 C60.3438889,177.825018 59.97363,179.170292 60.576623,180.228174 C61.1778529,181.286057 62.5231268,181.656316 63.5810093,181.055086" id="Fill-512" fill="#F7F7F6" transform="translate(101.270989, 157.092284) rotate(-19.000000) translate(-101.270989, -157.092284) "></path>
                        <path d="M120.972732,63.3145292 C114.235783,62.0891487 106.714239,60.33659 98.6461218,57.8117771 C91.1633663,55.4685674 84.4563913,52.8503082 78.5710384,50.2320491 C80.7009084,43.3276027 82.8325417,36.4213931 84.9624118,29.5169467 C86.5316041,24.4320582 91.9232786,21.582828 97.0064039,23.1520204 L120.999179,30.5536716 C126.082304,32.1228639 128.933298,37.5145384 127.364105,42.5976637 L120.972732,63.3145292" id="Fill-513" fill="#C1BFB9" transform="translate(103.183035, 43.017737) rotate(-19.000000) translate(-103.183035, -43.017737) "></path>
                        <path d="M74.1215453,85.4889685 C73.9840206,85.5101261 63.2535659,86.9365043 50.084692,92.8500675 C36.9334494,98.7583412 21.2679728,109.201405 11.6218476,127.326458 C11.0505911,128.401972 11.4578758,129.734904 12.5316266,130.307923 C13.6071404,130.87918 14.9418355,130.471895 15.5130921,129.396381 C24.5297772,112.433236 39.287238,102.533219 51.8919079,96.8700209 C58.1863087,94.0419484 63.9235581,92.2823372 68.0704575,91.2332704 C70.142144,90.7096186 71.8188878,90.3640436 72.9666903,90.1489408 C73.5414731,90.0431526 73.9840206,89.9691008 74.2784646,89.9214961 L74.6064082,89.8721283 L74.7016176,89.8580232 C75.9093668,89.6993408 76.7574359,88.5903273 76.5969904,87.3843413 C76.4365449,86.1765921 75.3292945,85.3285229 74.1215453,85.4889685" id="Fill-514" fill="#F7F7F6" transform="translate(43.989922, 108.017917) rotate(-19.000000) translate(-43.989922, -108.017917) "></path>
                    </g>
                </g>
                <g id="Group" transform="translate(155.267387, 134.885929)">
                    <g id="Christmas/Balls/Ball-1" transform="translate(117.500000, 145.000000) rotate(-19.000000) translate(-117.500000, -145.000000) ">
                        <path d="M124.85565,42.43191 L124.735757,42.2168073 C124.123948,41.1183726 121.297639,35.9576692 118.649406,29.8201876 C117.327053,26.7523283 116.047015,23.4411561 115.112553,20.297482 C114.174563,17.1590973 113.592728,14.1741055 113.599781,11.8820268 C113.596254,10.4556485 113.823699,9.3254774 114.186905,8.58495965 C114.562454,7.84091563 114.962686,7.4442097 115.719072,7.12331867 C116.050542,6.99108336 116.30796,6.94876806 116.545983,6.94876806 C116.817507,6.94876806 117.076688,7.00342532 117.397579,7.14976574 C117.989993,7.4159995 118.772826,8.07717605 119.568001,9.14916365 C120.971458,11.0145631 122.353758,14.0224757 123.520955,17.4200416 C125.28233,22.5207984 126.622314,28.5084133 127.505646,33.1895433 C127.948194,35.532753 128.2779,37.5515455 128.496529,38.9796868 C128.605844,39.6937575 128.688711,40.2614878 128.743369,40.6476149 C128.796263,41.0355051 128.82271,41.2329765 128.82271,41.2329765 L133.193528,40.6705357 C133.186475,40.6176416 132.017515,31.5110364 129.582622,22.2845379 C128.359005,17.6651177 126.837417,13.0245398 124.883861,9.36250328 C123.90003,7.53060343 122.812174,5.92967459 121.481005,4.68489953 C120.814539,4.06603827 120.077548,3.53533388 119.248873,3.15096991 C118.423725,2.76660594 117.499841,2.5391612 116.545983,2.54091084 C115.715546,2.5391612 114.878055,2.71018554 114.079354,3.03107656 C112.310927,3.72222646 110.958601,5.08689487 110.214557,6.67195548 C109.456408,8.26054235 109.195463,10.025443 109.191937,11.8820268 C109.197226,15.0697793 109.978296,18.6136857 111.094362,22.2316438 C114.451376,33.044966 120.987327,44.5335699 121.020826,44.6058586 L124.85565,42.43191" id="Fill-515" fill="#131514" transform="translate(121.192732, 23.573385) rotate(19.000000) translate(-121.192732, -23.573385) "></path>
                        <path d="M230.37469,152.910461 C229.530147,161.340021 227.13757,169.750187 223.389139,177.897645 C222.59749,179.641388 221.717685,181.365737 220.802617,183.090085 L220.802617,183.107717 C216.59577,190.902547 211.140623,198.399408 204.631119,205.40259 C188.59891,222.559681 176.316895,245.454021 166.533245,271.021278 C164.491531,276.353006 161.552381,279.854597 157.735189,281.122293 C153.88097,282.40762 149.446679,281.351501 144.606867,278.288931 C121.485082,263.647837 97.9577751,252.651149 74.8694897,248.479565 C68.1836723,247.266527 61.7958252,245.540415 55.7958684,243.288889 C54.0697567,242.655922 52.380671,241.968299 50.7268481,241.229544 C40.9608295,236.971567 32.3549554,231.304843 25.334142,224.354555 L25.3165106,224.354555 C17.8566759,216.998745 12.189952,208.235952 8.86291153,198.223094 C7.52645331,194.210193 6.61138496,190.12853 6.10183822,185.99221 C5.57289698,181.787127 5.46710873,177.546781 5.7668421,173.304672 C5.87263035,171.809532 6.01368135,170.314391 6.22349471,168.817487 C8.5649413,151.168481 17.5922052,133.641131 31.7396205,118.490491 C47.7700665,101.351031 60.036214,78.4584541 69.8198639,52.8894342 C71.8792085,47.5577065 74.7989642,44.0561154 78.6355514,42.7884196 C82.4897699,41.5207237 86.9064293,42.5592117 91.7286104,45.6217815 C114.868027,60.2628752 138.412965,71.2595637 161.481856,75.431147 C179.203151,78.6506361 194.880969,85.5674245 206.829752,95.6843074 C207.974028,96.6346385 209.083042,97.6378637 210.156792,98.6587203 C213.90346,102.213205 217.212869,106.120318 220.028599,110.360664 C223.159931,115.059425 225.675929,120.179577 227.488434,125.687618 C230.445215,134.5562 231.325021,143.742146 230.37469,152.910461" id="Fill-517" fill="#CF4D4D" transform="translate(118.171076, 161.959195) rotate(19.000000) translate(-118.171076, -161.959195) "></path>
                        <path d="M228.137019,152.623428 C225.993044,155.920495 223.20376,158.96367 217.602272,161.038883 C202.985862,166.411163 198.512783,154.261382 183.896373,159.631899 C169.279963,165.004179 173.753043,177.153959 159.136633,182.524476 C144.520223,187.896756 140.047143,175.746976 125.430734,181.142176 C110.814324,186.512693 115.264483,198.662474 100.648073,204.034754 C86.0316634,209.407034 81.5585835,197.257253 66.9421738,202.62777 C52.3275271,208.00005 56.7988438,220.14983 42.182434,225.520347 C33.7458211,228.634048 28.6732746,225.890606 23.0947075,224.069285 L23.0717868,224.069285 C15.624294,216.713475 9.95404384,207.954208 6.63405595,197.925482 C5.2958346,193.914344 4.37371369,189.832681 3.86769323,185.706939 C12.1667814,186.466852 17.4226942,192.507361 28.5357498,188.427461 C43.1503965,183.055181 38.6790798,170.9054 53.2954896,165.534883 C67.9348202,160.139683 72.3832161,172.289463 86.9996258,166.917183 C101.638956,161.546666 97.1676397,149.396886 111.782286,144.024606 C126.398696,138.654089 130.871776,150.802107 145.488186,145.43159 C160.104596,140.036389 155.631516,127.909529 170.247926,122.516092 C184.887256,117.143812 189.337415,129.293592 203.953825,123.921312 C212.621409,120.740612 214.582018,115.184966 217.785638,110.066578 C220.920497,114.768866 223.434731,119.887254 225.254289,125.397058 C228.205781,134.272693 229.08206,143.44806 228.137019,152.623428" id="Fill-518" fill="#DFD9D1" transform="translate(116.184082, 168.499813) rotate(19.000000) translate(-116.184082, -168.499813) "></path>
                        <path d="M140.405896,44.9611754 C135.520242,47.008178 130.162067,49.0304967 124.350766,50.9117644 C118.051076,52.9517145 112.079329,54.5473539 106.539551,55.8009447 C104.81344,50.4110334 103.089091,45.0211221 101.362979,39.6312108 C99.740893,34.5639536 102.533703,29.1423058 107.60096,27.5202193 L123.118333,22.553461 C128.18559,20.9313746 133.607238,23.7241843 135.229324,28.7896783 L140.405896,44.9611754" id="Fill-519" fill="#C1BFB9" transform="translate(120.653825, 38.946584) rotate(19.000000) translate(-120.653825, -38.946584) "></path>
                        <path d="M219.385138,96.7861277 C217.02606,100.622715 213.894727,104.56509 207.11899,107.045825 C199.059689,110.002606 193.604541,108.066681 188.78236,106.359964 C184.06773,104.669115 179.984304,103.226869 173.402512,105.637078 C166.857745,108.066681 164.674981,111.795717 162.176615,116.143614 C159.607724,120.560274 156.703837,125.574637 148.644535,128.54905 C140.585234,131.523463 135.130086,129.569906 130.307905,127.863189 C125.573881,126.191735 121.509849,124.730094 114.945688,127.142066 C108.381527,129.552275 106.218158,133.300705 103.702161,137.629208 C101.131506,142.063498 98.2293818,147.077861 90.152449,150.034643 C82.1107789,152.991425 76.6556315,151.0555 71.8334505,149.348783 C67.1170577,147.677328 63.0353944,146.233319 56.4536022,148.662922 C49.8894413,151.073131 47.7260716,154.80393 45.2259426,159.150064 C42.6570513,163.566723 39.7531639,168.582849 31.6938624,171.555499 C28.6683185,172.664513 26.0112703,173.087666 23.5992982,173.087666 C20.326915,173.087666 17.5464472,172.296017 14.9951872,171.43208 C15.1009755,169.936939 15.2420265,168.441798 15.4518399,166.944895 C19.903762,168.512324 23.9166629,169.725363 30.1810904,167.420942 C36.7452513,165.010733 38.908621,161.262303 41.40875,156.9338 C43.9776413,152.515377 46.8815287,147.483383 54.9408302,144.526602 C63.0001317,141.553952 68.4729104,143.488114 73.3109597,145.214225 C78.0273525,146.885679 82.0931475,148.327926 88.6379139,145.917717 C95.2197061,143.505745 97.384839,139.759078 99.9008362,135.428812 C102.469727,130.994521 105.373615,125.980158 113.432916,123.023377 C121.474586,120.048964 126.947365,122.00252 131.769546,123.709237 C136.501807,125.398323 140.567602,126.842333 147.131763,124.432124 C153.694161,122.00252 155.859294,118.25409 158.375291,113.925587 C160.926551,109.508928 163.830438,104.476933 171.88974,101.502521 C179.966673,98.5457389 185.42182,100.481664 190.244001,102.206012 C194.960394,103.877467 199.042057,105.321476 205.588587,102.909504 C211.465124,100.763766 213.824202,97.5425137 216.058097,93.8117148 C217.202373,94.7620459 218.311387,95.7652711 219.385138,96.7861277" id="Fill-520" fill="#F7F7F6" transform="translate(117.190162, 133.449690) rotate(19.000000) translate(-117.190162, -133.449690) "></path>
                        <path d="M207.030608,181.481338 C206.23896,183.225081 205.359154,184.94943 204.444086,186.673778 L204.444086,186.69141 C198.75973,187.641741 194.501753,186.127206 190.647535,184.755485 C185.913511,183.08403 181.849479,181.640021 175.285318,184.051993 C168.721157,186.462202 166.557787,190.193001 164.04179,194.539135 C161.488767,198.955794 158.569011,203.987788 150.527341,206.94457 C142.466277,209.901352 137.011129,207.965427 132.190711,206.258709 C127.456687,204.587255 123.392655,203.125614 116.828495,205.555218 C110.246702,207.965427 108.083333,211.713857 105.565572,216.042359 C102.996681,220.47665 100.092793,225.492776 92.033492,228.447795 C83.9741905,231.404576 78.5014118,229.468651 73.6809939,227.761934 C68.9646011,226.072849 64.898806,224.630602 58.3364083,227.040811 C51.7722474,229.45102 49.6071146,233.19945 47.0911174,237.527953 C45.2786121,240.661048 43.289793,244.092114 39.4373376,246.872582 C37.711226,246.239615 36.0221402,245.551992 34.3683173,244.813237 C39.1728669,242.420659 41.0911605,239.095382 43.289793,235.32932 C45.8410529,230.89503 48.7625717,225.878903 56.8042418,222.923885 C64.8635433,219.949472 70.3363221,221.903028 75.1585031,223.609745 C79.8748959,225.2812 83.9565592,226.741078 90.52072,224.330869 C97.0848809,221.903028 99.2482506,218.172229 101.764248,213.843727 C104.334902,209.409436 107.237027,204.39331 115.298091,201.436528 C123.357393,198.463879 128.830171,200.39804 133.650589,202.106521 C138.366982,203.777975 142.448645,205.220221 149.012806,202.810013 C155.559336,200.39804 157.724469,196.651373 160.240466,192.321108 C162.809357,187.904448 165.713245,182.872454 173.772546,179.915672 C181.814216,176.958891 187.286995,178.894816 192.107413,180.619164 C196.735649,182.257119 200.713287,183.664103 207.030608,181.481338" id="Fill-521" fill="#F7F7F6" transform="translate(120.699463, 212.628404) rotate(19.000000) translate(-120.699463, -212.628404) "></path>
                    </g>
                </g>
                <path d="M225.108116,1.49642106 L155.874997,205.241063 C155.48358,206.394155 156.098915,207.645983 157.252007,208.037399 C158.405099,208.428816 159.656927,207.811717 160.048343,206.658626 L229.281463,2.9139836 C229.672879,1.76089169 229.055781,0.509064068 227.904452,0.117647546 C226.751361,-0.273768977 225.499533,0.343329144 225.108116,1.49642106" id="Fill-508" fill="#131514"></path>
                <path d="M187.941178,3.10616559 L227.881532,145.886803 C228.209475,147.057526 229.42604,147.743386 230.598527,147.415443 C231.76925,147.087499 232.45511,145.870934 232.127167,144.698448 L192.18505,1.91957406 C191.857106,0.747087629 190.642305,0.0629902836 189.469818,0.390933857 C188.297332,0.71887743 187.613235,1.9354423 187.941178,3.10616559" id="Fill-516" fill="#131514"></path>
            </g>
        </g>
        <path d="M190.842006,447.976844 L273.150554,447.976844 C274.367119,447.976844 275.354476,446.989487 275.354476,445.772922 C275.354476,444.554594 274.367119,443.569 273.150554,443.569 L190.842006,443.569 C189.623678,443.569 188.638085,444.554594 188.638085,445.772922 C188.638085,446.989487 189.623678,447.976844 190.842006,447.976844" id="Fill-522" fill="#131514"></path>
    </g>
</svg>