<?xml version="1.0" encoding="UTF-8"?>
<svg width="447px" height="313px" viewBox="0 0 447 313" version="1.1" xmlns="http://www.w3.org/2000/svg" xmlns:xlink="http://www.w3.org/1999/xlink">
    <title>decoration-28</title>
    <g id="decoration-28" stroke="none" stroke-width="1" fill="none" fill-rule="evenodd">
        <g id="Christmas/Stuffs/Candy-Cane-2" transform="translate(2.036386, 0.792033)">
            <g id="Candy-1" transform="translate(-0.058790, -0.000126)">
                <path d="M156.587844,93.5502658 L204.176457,101.636778 L185.047672,61.945846 C184.585865,60.9576575 183.825645,59.473418 183.135869,58.1261551 L182.084085,56.0812899 L180.949135,54.078496 C179.459026,51.3957111 177.80063,48.8039177 176.090379,46.2551742 C158.818606,44.220093 142.769838,47.3764257 129.984049,54.344622 C135.660751,58.7053706 140.621262,64.0611564 144.627828,70.1194366 L146.087607,72.4245574 L147.444654,74.799145 C147.882979,75.6004582 148.276298,76.4291668 148.702882,77.2383072 L149.017929,77.8468748 L149.414182,78.6657993 L156.587844,93.5502658 M81.974722,43.3111553 C84.5626017,28.2417703 91.9221598,13.2164135 103.783357,0.764260342 C92.2254652,-0.73661205 80.5139642,-0.0125927732 69.4217932,2.810104 C58.3032053,5.61323269 47.9291831,10.5668943 38.670542,17.2924463 C37.8653152,35.3048719 41.9951603,52.3565042 49.532788,66.1402658 C53.3035586,60.399967 58.0742586,55.4619599 63.5807187,51.564975 C69.1184878,47.7169104 75.4291964,44.8824728 81.974722,43.3111553 M0.139018842,90.9183579 C-0.258213355,98.7465718 0.195766299,106.684367 1.50193621,114.523343 C2.83941506,122.358406 5.04376024,130.079974 8.01615289,137.470841 C8.51807436,138.761356 9.07478648,140.0098 9.70683574,141.200518 C10.021882,141.793431 10.3359498,142.383409 10.6480608,142.970452 C10.9552798,143.518358 11.3231599,144.202263 11.5863506,144.583841 C12.7281486,146.345947 13.9501757,147.988688 15.2328639,149.498366 C17.7982404,152.518701 20.601369,155.005805 23.4700508,156.850097 C29.2074144,160.538682 35.2050335,161.653084 40.0804228,159.303935 L40.0814012,159.303935 C44.9558121,156.953808 47.8215586,151.567692 48.5113338,144.782457 C48.8557321,141.38935 48.657116,137.645975 47.8920037,133.758774 C47.510426,131.815663 46.9869797,129.835372 46.3197078,127.844319 C46.1201133,127.292499 46.0751067,127.010719 45.9391085,126.596854 C45.8217,126.213319 45.6954858,125.831742 45.5594876,125.452121 C45.2767287,124.697771 44.9910346,123.937551 44.7024053,123.166568 L43.9989325,121.40544 L43.3874298,119.616917 C42.9383421,118.435004 42.647756,117.211999 42.2720487,116.011496 C27.7036068,112.511744 12.7956585,104.007452 0.139018842,90.9183579 M213.249201,211.121212 L260.838792,219.207725 L235.333746,166.285829 L187.744154,158.199317 L213.249201,211.121212 M261.881771,312.03091 C269.539743,327.923133 283.783354,337.08002 293.535111,332.380743 C303.284912,327.681467 304.997119,310.834321 297.338169,294.943076 L291.995103,283.856776 L244.40649,275.770263 L261.881771,312.03091" id="Combined-Shape" fill="#60922E"></path>
                <path d="M49.532788,66.1402658 C41.9951603,52.3565042 37.8653152,35.3048719 38.670542,17.2924463 C27.3885606,25.5374605 17.9469578,36.4985253 11.3779505,49.1933227 C4.79720232,61.8714873 0.862059714,76.1698896 0.139018842,90.9183579 C12.7956585,104.007452 27.7036068,112.511744 42.2720487,116.011496 C39.8925691,107.481766 39.3828204,98.534258 40.6136532,89.9438671 C41.8210043,81.3388002 44.9655961,73.1671664 49.532788,66.1402658 M129.984049,54.344622 C142.769838,47.3764257 158.818606,44.220093 176.090379,46.2551742 C167.63403,33.8470493 156.658289,23.2303828 144.222768,15.4227155 C131.771594,7.63950826 117.905646,2.58017896 103.783357,0.764260342 C91.9221598,13.2164135 84.5626017,28.2417703 81.974722,43.3111553 C90.0025303,41.440446 98.5087784,41.4639277 106.782166,43.3463778 C115.052619,45.2503529 123.030529,49.0592813 129.984049,54.344622 M187.744154,158.199317 L235.333746,166.285829 L204.176457,101.636778 L156.587844,93.5502658 L187.744154,158.199317 M244.40649,275.770263 L291.995103,283.856776 L260.838792,219.207725 L213.249201,211.121212 L244.40649,275.770263" id="Combined-Shape" fill="#F4F1D7"></path>
            </g>
            <g id="Candy-2" transform="translate(140.872499, -0.000126)">
                <path d="M145.540721,93.5502658 L97.9511297,101.636778 L117.079915,61.945846 C117.541722,60.9576575 118.301942,59.473418 118.991717,58.1261551 L120.043502,56.0812899 L121.178451,54.078496 C122.669539,51.3957111 124.327935,48.8039177 126.038186,46.2551742 C143.308981,44.220093 159.357748,47.3764257 172.144516,54.344622 C166.467813,58.7053706 161.506325,64.0611564 157.500737,70.1194366 L156.040957,72.4245574 L154.68391,74.799145 C154.245585,75.6004582 153.852267,76.4291668 153.425682,77.2383072 L153.109658,77.8468748 L152.713404,78.6657993 L145.540721,93.5502658 M220.152864,43.3111553 C217.564985,28.2417703 210.205427,13.2164135 198.345208,0.764260342 C209.9031,-0.73661205 221.613622,-0.0125927732 232.706772,2.810104 C243.825359,5.61323269 254.199382,10.5668943 263.458023,17.2924463 C264.26325,35.3048719 260.132426,52.3565042 252.594798,66.1402658 C248.824028,60.399967 244.053328,55.4619599 238.547846,51.564975 C233.009098,47.7169104 226.699368,44.8824728 220.152864,43.3111553 M301.988567,90.9183579 C302.3858,98.7465718 301.93182,106.684367 300.62565,114.523343 C299.28915,122.358406 297.083826,130.079974 294.111433,137.470841 C293.61049,138.761356 293.053778,140.0098 292.421729,141.200518 C292.106683,141.793431 291.792615,142.383409 291.480504,142.970452 C291.172307,143.518358 290.805405,144.202263 290.541236,144.583841 C289.400416,146.345947 288.177411,147.988688 286.894722,149.498366 C284.330324,152.518701 281.527196,155.005805 278.658514,156.850097 C272.92115,160.538682 266.922553,161.653084 262.047164,159.303935 C257.171774,156.953808 254.306028,151.567692 253.617231,144.782457 C253.271854,141.38935 253.471449,137.645975 254.235583,133.758774 C254.618139,131.815663 255.140607,129.835372 255.807878,127.844319 C256.007473,127.292499 256.053458,127.010719 256.188478,126.596854 C256.305886,126.213319 256.432101,125.831742 256.568099,125.452121 C256.850858,124.697771 257.136552,123.937551 257.425181,123.166568 L258.129632,121.40544 L258.740157,119.616917 C259.189244,118.435004 259.480809,117.211999 259.856516,116.011496 C274.42398,112.511744 289.331928,104.007452 301.988567,90.9183579 M88.8783854,211.121212 L41.2897725,219.207725 L66.7948191,166.285829 L114.383432,158.199317 L88.8783854,211.121212 M40.2467934,312.03091 C32.5878435,327.923133 18.3442318,337.08002 8.5934533,332.380743 C-1.15732522,327.681467 -2.86855457,310.834321 4.78941689,294.943076 L10.1324835,283.856776 L57.7220748,275.770263 L40.2467934,312.03091" id="Combined-Shape" fill="#F4F1D7"></path>
                <path d="M252.594798,66.1402658 C260.132426,52.3565042 264.26325,35.3048719 263.458023,17.2924463 C274.740004,25.5374605 284.180628,36.4985253 290.750614,49.1933227 C297.330384,61.8714873 301.266505,76.1698896 301.988567,90.9183579 C289.331928,104.007452 274.42398,112.511744 259.856516,116.011496 C262.235996,107.481766 262.744766,98.534258 261.514912,89.9438671 C260.30756,81.3388002 257.16199,73.1671664 252.594798,66.1402658 M172.144516,54.344622 C159.357748,47.3764257 143.308981,44.220093 126.038186,46.2551742 C134.493557,33.8470493 145.469298,23.2303828 157.904818,15.4227155 C170.355993,7.63950826 184.222919,2.58017896 198.345208,0.764260342 C210.205427,13.2164135 217.564985,28.2417703 220.152864,43.3111553 C212.125056,41.440446 203.619786,41.4639277 195.34542,43.3463778 C187.075946,45.2503529 179.098036,49.0592813 172.144516,54.344622 M114.383432,158.199317 L66.7948191,166.285829 L97.9511297,101.636778 L145.540721,93.5502658 L114.383432,158.199317 M57.7220748,275.770263 L10.1324835,283.856776 L41.2897725,219.207725 L88.8783854,211.121212 L57.7220748,275.770263" id="Combined-Shape" fill="#60922E"></path>
            </g>
            <g id="Christmas/Stuffs/Knot-1" transform="translate(72.544271, 100.861213)">
                <path d="M132.039627,79.3111146 C132.039627,79.3111146 69.8517882,-22.5300812 23.0836575,4.59411693 C-23.6834962,31.7192933 19.1073406,100.843985 19.1073406,100.843985 C19.1073406,100.843985 -5.9151237,126.161469 1.30965856,141.003528 C8.5354178,155.845587 56.2805306,205.490627 130.125719,125.653789 L132.039627,79.3111146" id="Fill-23" fill="#B70A07"></path>
                <path d="M163.814991,80.2824561 C163.814991,80.2824561 234.251489,-17.5051252 278.662162,12.4069111 C323.073812,42.3189475 274.685845,108.65678 274.685845,108.65678 C274.685845,108.65678 297.555041,135.438612 289.123686,149.801358 C280.691353,164.165083 228.968947,210.768934 161.900106,126.62513 L163.814991,80.2824561" id="Fill-24" fill="#B70A07"></path>
                <path d="M94.6983957,114.209958 C94.2167436,114.209958 93.7419303,113.983018 93.4429738,113.558484 C92.9535058,112.864948 93.1195927,111.906323 93.81325,111.417228 C102.519137,105.269312 116.97554,102.615485 125.063975,101.565889 C112.600615,95.1499482 93.3560224,80.079971 92.4103038,79.3385039 C91.744002,78.8151728 91.6277411,77.8487223 92.1504265,77.1806193 C92.6740889,76.5125163 93.6373932,76.3961119 94.304672,76.9194429 C94.5713881,77.1277971 120.997776,97.8243164 131.526711,101.012234 C132.236,101.226457 132.690297,101.918037 132.607253,102.656569 C132.523233,103.393145 131.92532,103.965386 131.185744,104.016252 C130.947361,104.030925 107.196927,105.725148 95.5815875,113.929217 C95.3129174,114.118008 95.0041911,114.209958 94.6983957,114.209958" id="Fill-25" fill="#C91111"></path>
                <path d="M203.298743,117.528952 C202.957777,117.528952 202.614856,117.416461 202.330554,117.183652 C191.430365,108.299741 167.887052,105.160733 167.649645,105.130409 C166.914955,105.034546 166.352213,104.427091 166.314111,103.684646 C166.276009,102.943179 166.773292,102.280945 167.495282,102.109762 C178.267486,99.5723399 206.342042,80.5387416 206.623413,80.3470165 C207.32684,79.867704 208.280375,80.0525817 208.755188,80.7549213 C209.231955,81.4572609 209.04926,82.4119732 208.348764,82.8893293 C207.344426,83.5711269 186.895215,97.4340191 173.939456,103.067409 C181.931169,104.614903 196.10034,108.144209 204.26791,114.800784 C204.925419,115.336831 205.024094,116.30426 204.489685,116.961603 C204.18682,117.335271 203.744247,117.528952 203.298743,117.528952" id="Fill-26" fill="#C91111"></path>
                <path d="M136.411621,125.845514 L157.685405,126.496009 C168.024806,126.811964 176.703338,119.858998 177.070683,110.966283 L177.654919,96.827542 C178.022264,87.9348273 169.938714,80.4692902 159.60029,80.1533352 L138.326506,79.5038178 C127.988082,79.1868846 119.308574,86.1398508 118.941228,95.0325655 L118.356993,109.171307 C117.989648,118.065 126.073197,125.529559 136.411621,125.845514" id="Fill-27" fill="#FD0E20"></path>
                <path d="M158.362454,126.506769 C158.137748,126.506769 157.912065,126.502857 157.685405,126.496009 L136.411621,125.845514 C134.206573,125.778019 132.104107,125.385765 130.163821,124.723531 C123.204778,122.346532 118.339407,116.498919 118.345264,109.742569 C118.345264,109.552801 118.349177,109.363032 118.356993,109.171307 L118.941228,95.0325655 C119.300758,86.3345104 127.610967,79.4930577 137.649458,79.4930577 C137.874163,79.4930577 138.099846,79.4959923 138.326506,79.5038178 L159.60029,80.1533352 C169.716939,80.4624428 177.674458,87.6178941 177.667624,96.2562797 C177.666642,96.4460484 177.662734,96.6367952 177.654919,96.827542 L177.070683,110.966283 C176.755118,118.612786 170.294336,124.825263 161.916715,126.215269 C160.764853,126.406016 159.575866,126.506769 158.362454,126.506769" id="Fill-28" fill="#DB0C14"></path>
            </g>
        </g>
    </g>
</svg>