<?xml version="1.0" encoding="UTF-8"?>
<svg width="318px" height="187px" viewBox="0 0 318 187" version="1.1" xmlns="http://www.w3.org/2000/svg" xmlns:xlink="http://www.w3.org/1999/xlink">
    <title>decoration-3</title>
    <g id="decoration-3" stroke="none" stroke-width="1" fill="none" fill-rule="evenodd">
        <g id="Group" transform="translate(-3.550765, 66.617112)" fill-rule="nonzero">
            <g id="Christmas/Stickers/Letter" transform="translate(135.000000, 111.000000) rotate(-30.000000) translate(-135.000000, -111.000000) ">
                <path d="M1.05628842,142.962487 C-0.975386648,149.543003 2.69841301,156.527156 9.27200116,158.581137 L210.80382,221.567932 C217.399857,223.615699 224.406569,219.926066 226.450234,213.328757 L268.100872,78.842636 C269.916984,72.4135335 266.345204,65.6622904 259.961169,63.5710773 L57.9569993,1.25084186 C48.8877296,-2.04288921 43,5 41.133098,13.4945743 L1.05628842,142.962487 Z" id="Path" fill="#F8FDF8"></path>
                <g id="Envelope" transform="translate(13.000000, 13.000000)">
                    <g id="Paper" transform="translate(8.850000, 1.540000)">
                        <polygon id="Path" fill="#A61010" points="37.24 6.91 0 126.08 102.71 157.17 164.66 90.11"></polygon>
                        <polygon id="Path" fill="#8C0809" points="36.3 16.71 106.98 114.48 135.65 111.37 86.62 154.13 188.63 183.77 223.05 83.66 226.22 61.27 40.6 7.86"></polygon>
                        <polygon id="Path" fill="#6F0404" points="219.45 71.2 219.2 71.29 109.38 108.31 40.43 11.59 32.16 4.4408921e-16 33.37 0.44 49.51 6.62 55.28 8.51 204.47 57.16 222.67 63.1 222.36 63.86 222.04 64.62"></polygon>
                        <polygon id="Path" fill="#E70A09" points="53.42 5.97 214.33 54.25 116.95 84.57"></polygon>
                    </g>
                    <path d="M40.69,0 L62.36,7.87 L64.41,10.38 L67.29,13.87 L72.17,19.77 L75.03,23.23 L79.51,28.66 L82.37,32.17 L85.78,36.29 L88.64,39.75 L92.92,44.96 L95.8,48.45 L100.65,54.33 L103.54,57.82 L108.02,63.29 L110.9,66.77 L115.88,72.81 L118.76,76.29 L125.57,84.55 L126.13,85.25 L129.29,84.28 L139.09,81.32 L143.43,79.99 L149.42,78.15 L153.73,76.85 L160.51,74.79 L164.82,73.48 L172.61,71.1 L176.93,69.8 L183.55,67.77 L187.86,66.47 L193.69,64.71 L198.03,63.38 L204.62,61.38 L208.91,60.06 L208.94,60.03 L215.94,57.91 L220.28,56.59 L222.83,55.83 L243.07,62.45 L237.49,80.49 L235.29,87.55 L233.87,92.17 L231.66,99.26 L229.88,105.04 L227.67,112.13 L226.4,116.28 L224.19,123.36 L222.75,128.06 L220.54,135.19 L218.79,140.79 L216.6,147.89 L215.29,152.1 L213.08,159.23 L212.01,162.7 L209.82,169.81 L208.76,173.28 L206.55,180.36 L201.51,196.63 L192.04,193.69 L185.61,191.66 L180.89,190.19 L174.47,188.16 L167.95,186.14 L161.48,184.11 L155.08,182.11 L148.63,180.1 L140.77,177.64 L134.3,175.61 L126.69,173.25 L120.25,171.25 L107.3,167.19 L99.54,164.78 L93.11,162.75 L84.63,160.1 L78.19,158.1 L70.39,155.66 L63.97,153.62 L58.19,151.85 L51.71,149.82 L44.34,147.49 L37.9,145.48 L32.87,143.93 L26.42,141.93 L21.96,140.51 L15.49,138.49 L0,133.65 L3.85,121.18 L5.9,114.69 L7.08,110.84 L9.08,104.35 L10.8,98.78 L12.83,92.26 L14.48,86.97 L16.5,80.45 L18.04,75.54 L20.04,69.09 L21.5,64.32 L23.53,57.85 L25.21,52.38 L27.22,45.93 L28.7,41.18 L30.71,34.74 L32.28,29.64 L34.3,23.17 L35.82,18.28 L37.83,11.79 L41.01,1.54 L42.55,2.44 L42.58,2.46 L42.587,2.464 L40.69,0 Z M49.715,11.723 L49.71,11.74 L49.28,13.13 L48.53,15.49 L46.4,22.18 L44.93,26.86 L42.83,33.52 L41.29,38.38 L39.18,45.05 L37.73,49.56 L35.65,56.24 L33.97,61.46 L31.86,68.12 L30.41,72.68 L28.31,79.35 L26.82,84.05 L24.7,90.73 L23.1,95.81 L20.98,102.54 L19.28,107.88 L17.16,114.57 L16.01,118.18 L13.89,124.91 L13.42,126.4 L19.03,128.12 L25.76,130.15 L30.03,131.44 L36.71,133.47 L41.52,134.93 L48.2,136.96 L55.4,139.15 L62.08,141.18 L67.67,142.88 L74.35,144.91 L81.93,147.21 L88.63,149.22 L96.87,151.74 L103.59,153.77 L111.15,156.09 L117.85,158.1 L124.1,160.03 L130.83,162.06 L138.19,164.3 L144.92,166.33 L152.56,168.64 L159.27,170.7 L165.45,172.56 L172.2,174.62 L178.48,176.52 L185.2,178.55 L189.64,179.89 L194.57,181.41 L195.39,178.72 L195.71,177.66 L197.85,170.81 L198.96,167.08 L201.1,160.23 L202.24,156.52 L204.38,149.63 L205.72,145.19 L207.83,138.32 L209.67,132.47 L211.79,125.6 L213.3,120.66 L215.42,113.79 L216.76,109.4 L218.88,102.53 L220.75,96.53 L222.84,89.69 L224.34,84.83 L226.48,77.98 L228.05,72.83 L230.009,66.442 L223.15,68.54 L218.78,69.85 L211.81,71.99 L207.47,73.32 L200.9,75.34 L196.54,76.65 L190.73,78.43 L186.4,79.76 L179.82,81.78 L175.51,83.08 L167.72,85.46 L163.38,86.79 L156.65,88.85 L152.29,90.2 L146.33,92.01 L141.97,93.32 L123.22,99.06 L121.75,99.51 L119.37,96.63 L108.55,83.52 L105.69,80.01 L100.73,73.99 L97.82,70.48 L93.34,65.01 L90.46,61.53 L85.63,55.67 L82.72,52.16 L78.47,46.97 L75.59,43.48 L72.17,39.37 L69.31,35.86 L64.86,30.45 L61.98,26.97 L57.12,21.08 L54.24,17.6 L49.715,11.723 Z" id="Border" fill="#FFEED0"></path>
                    <path d="M46.4,22.18 L35.82,18.28 L37.83,11.79 L48.53,15.49 L46.4,22.18 Z M42.83,33.52 L32.28,29.64 L34.3,23.17 L44.93,26.86 L42.83,33.52 Z M39.18,45.05 L28.7,41.18 L30.71,34.74 L41.29,38.38 L39.18,45.05 Z M35.65,56.24 L25.21,52.38 L27.22,45.93 L37.73,49.56 L35.65,56.24 Z M31.86,68.12 L21.5,64.32 L23.53,57.85 L33.97,61.46 L31.86,68.12 Z M28.31,79.35 L18.04,75.54 L20.04,69.09 L30.41,72.68 L28.31,79.35 Z M24.7,90.73 L14.48,86.97 L16.5,80.45 L26.82,84.05 L24.7,90.73 Z M20.98,102.54 L10.8,98.78 L12.83,92.26 L23.1,95.81 L20.98,102.54 Z M17.16,114.57 L7.08,110.84 L9.08,104.35 L19.28,107.88 L17.16,114.57 Z M13.89,124.91 L3.85,121.18 L5.9,114.69 L16.01,118.18 L13.89,124.91 Z M21.96,140.51 L15.49,138.49 L19.03,128.12 L25.76,130.15 L21.96,140.51 Z M32.87,143.93 L26.42,141.93 L30.03,131.44 L36.71,133.47 L32.87,143.93 Z M44.34,147.49 L37.9,145.48 L41.52,134.93 L48.2,136.96 L44.34,147.49 Z M58.19,151.85 L51.71,149.82 L55.4,139.15 L62.08,141.18 L58.19,151.85 Z M70.39,155.66 L63.97,153.62 L67.67,142.88 L74.35,144.91 L70.39,155.66 Z M84.63,160.1 L78.19,158.1 L81.93,147.21 L88.63,149.22 L84.63,160.1 Z M99.54,164.78 L93.11,162.75 L96.87,151.74 L103.59,153.77 L99.54,164.78 Z M113.78,169.22 L107.3,167.19 L111.15,156.09 L117.85,158.1 L113.78,169.22 Z M126.69,173.25 L120.25,171.25 L124.1,160.03 L130.83,162.06 L126.69,173.25 Z M140.77,177.64 L134.3,175.61 L138.19,164.3 L144.92,166.33 L140.77,177.64 Z M155.08,182.11 L148.63,180.1 L152.56,168.64 L159.27,170.7 L155.08,182.11 Z M167.95,186.14 L161.48,184.11 L165.45,172.56 L172.2,174.62 L167.95,186.14 Z M180.89,190.19 L174.47,188.16 L178.48,176.52 L185.2,178.55 L180.89,190.19 Z M197.85,170.81 L208.76,173.28 L206.55,180.36 L197.577,178.124 L192.04,193.69 L185.61,191.66 L189.64,179.89 L194.57,181.41 L195.733,177.665 L195.71,177.66 L197.85,170.81 Z M235.29,87.55 L224.34,84.83 L226.48,77.98 L237.49,80.49 L235.29,87.55 Z M231.66,99.26 L220.75,96.53 L222.84,89.69 L233.87,92.17 L231.66,99.26 Z M227.67,112.13 L216.76,109.4 L218.88,102.53 L229.88,105.04 L227.67,112.13 Z M224.19,123.36 L213.3,120.66 L215.42,113.79 L226.4,116.28 L224.19,123.36 Z M220.54,135.19 L209.67,132.47 L211.79,125.6 L222.75,128.06 L220.54,135.19 Z M216.6,147.89 L205.72,145.19 L207.83,138.32 L218.79,140.79 L216.6,147.89 Z M213.08,159.23 L202.24,156.52 L204.38,149.63 L215.29,152.1 L213.08,159.23 Z M209.82,169.81 L198.96,167.08 L201.1,160.23 L212.01,162.7 L209.82,169.81 Z M53.04,4.61 C53.04,4.61 48.57,14.5 39.15,8.49 L41.66,0.13 L53.04,4.61 Z M231.39,58.6 C231.39,58.6 228.01,67.72 240.16,71.57 L243.06,62.45 L231.39,58.6 Z" id="Lines" fill="#E5342B"></path>
                    <path d="M115.88,72.81 L118.76,76.29 L108.55,83.52 L105.69,80.01 L115.88,72.81 Z M108.02,63.29 L110.9,66.77 L100.73,73.99 L97.82,70.48 L108.02,63.29 Z M100.65,54.33 L103.54,57.82 L93.34,65.01 L90.46,61.53 L100.65,54.33 Z M92.92,44.96 L95.8,48.45 L85.63,55.67 L82.72,52.16 L92.92,44.96 Z M85.78,36.29 L88.64,39.75 L78.47,46.97 L75.59,43.48 L85.78,36.29 Z M79.51,28.66 L82.37,32.17 L72.17,39.37 L69.31,35.86 L79.51,28.66 Z M72.17,19.77 L75.03,23.23 L64.86,30.45 L61.98,26.97 L72.17,19.77 Z M64.41,10.38 L67.29,13.87 L57.12,21.08 L54.24,17.6 L64.41,10.38 Z M123.22,99.06 L121.75,99.51 L119.37,96.63 L125.57,84.55 L126.13,85.25 L129.29,84.28 L131.13,83.94 L123.22,99.06 Z M146.33,92.01 L141.97,93.32 L139.09,81.32 L143.43,79.99 L146.33,92.01 Z M156.65,88.85 L152.29,90.2 L149.42,78.15 L153.73,76.85 L156.65,88.85 Z M167.72,85.46 L163.38,86.79 L160.51,74.79 L164.82,73.48 L167.72,85.46 Z M179.82,81.78 L175.51,83.08 L172.61,71.1 L176.93,69.8 L179.82,81.78 Z M190.73,78.43 L186.4,79.76 L183.55,67.77 L187.86,66.47 L190.73,78.43 Z M200.9,75.34 L196.54,76.65 L193.69,64.71 L198.03,63.38 L200.9,75.34 Z M211.81,71.99 L207.47,73.32 L204.62,61.38 L208.91,60.06 L211.81,71.99 Z M223.15,68.54 L218.78,69.85 L215.94,57.91 L220.28,56.59 L223.15,68.54 Z" id="Lines-2" fill="#FD5455"></path>
                </g>
                <g id="Misletoe" transform="translate(105.490000, 61.940000)">
                    <path d="M11.28,5.93 C11.28,5.93 23.47,17.29 26.86,33.05 C30.25,48.81 26.1,64.42 23.52,70.05 C20.93,75.68 24.36,73.47 26.79,66.73 C29.22,59.99 30.43,45.71 29.34,36.63 C28.24,27.56 17.57,8.66 11.28,5.93 Z" id="Path" fill="#A8E5B2"></path>
                    <path d="M47.68,27.08 C46.12,29.31 46.63,36.41 46.63,36.41 C42.88,35.82 41.75,40.7 41.75,40.7 C37.69,41.51 37.78,45.27 37.78,45.27 C34.17,44.28 30.48,45.71 30.48,45.71 C36.28,34.14 47.68,27.09 47.68,27.08 Z M39.61,7.9 C39.6,7.9 35.95,20.8 26.42,29.55 C26.42,29.55 26.443125,29.30375 26.4473438,28.884375 L26.4475173,28.6388951 C26.4361157,27.2864153 26.2138636,24.6645455 24.84,22.41 C24.84,22.41 24.8569215,22.4055837 24.8883492,22.3960474 L25.0237359,22.3513749 C25.758719,22.0919628 28.4336364,20.8981818 28.14,17.34 C28.14,17.34 32.53,14.92 30.93,11.47 L31.0118975,11.4523655 C31.7971616,11.2809688 37.9997872,9.87531915 39.61,7.9 Z M22.19,20.07 C22.19,20.07 18.64,18.32 14.95,19 C14.95,19 15.36,15.26 11.39,14.11 C11.39,14.11 10.69,9.15 6.9,9.41 C6.9,9.41 8.02,2.38 6.66,0.03 C6.66,0.03 17.41,8.04 22.19,20.07 Z" id="Shadows" fill="#2A9F6A"></path>
                    <path d="M47.68,27.09 L30.47,45.71 C30.47,45.71 30.71,39.19 28.2,38.45 L28.2290778,38.4495032 C28.6297107,38.4403719 33.0336364,38.2668182 32.9,35.05 L32.9289945,35.0496703 C33.2317993,35.0432872 35.8017647,34.9170588 35.67,32.47 C35.67,32.47 37.25,31.21 37.13,30.25 C37.03,29.3 36.5,28.21 36.5,28.21 C36.5,28.21 46.03,28.56 47.68,27.09 Z M39.57,8.04 C38.61,10.03 41.55,18.68 41.55,18.68 C41.55,18.68 40.36,18.5 39.41,18.64 C38.46,18.78 37.68,20.65 37.68,20.65 C35.14,21.23 35.96,24.02 35.96,24.02 C32.68,24.81 33.98,29.47 33.98,29.47 C32.57,27.26 26.37,29.28 26.37,29.28 L26.37,29.28 Z M29.26,60.35 C29.26,60.35 31.43,57.69 29.83,55.77 C29.83,55.77 34.05,54.61 32.86,51.98 C32.86,51.98 39.21,50.17 38.94,48.18 C38.94,48.18 45.12,50.45 48.32,47.95 C48.32,47.95 42.67,53.87 44.13,55 C44.13,55 38.68,55.98 39.19,58.07 C39.19,58.07 33.57,57.76 33.42,59.51 C33.41,59.53 29.87,58.92 29.26,60.35 Z M25.22,56.8 C25.22,56.8 23.23,54 24.96,52.2 C24.96,52.2 20.83,50.76 22.19,48.22 C22.19,48.22 15.98,45.99 16.37,44.03 C16.37,44.03 10.05,45.88 7.03,43.18 C7.03,43.18 12.28,49.46 10.74,50.5 C10.74,50.5 16.12,51.85 15.46,53.89 C15.46,53.89 21.09,53.95 21.12,55.72 C21.12,55.71 24.7,55.33 25.22,56.8 Z M9.22,18.26 C9.37,20.26 15.96,20.69 15.96,20.69 C15.35,23.51 19.72,23.76 19.72,23.76 C18.85,25.41 20.14,27.031875 20.839375,27.7396875 L20.908,27.808 L20.8154726,27.7561886 C19.6219996,27.1662306 17.1762907,28.1105888 17.0090403,28.1764185 C16.48,26.5 11.05,27.98 11.05,27.98 C11.12,25.84 5.58,26.02 5.58,26.02 C6.77,24.61 0,20.01 0,20.01 C3.65,21.78 9.22,18.26 9.22,18.26 Z M6.65,0 C8.17,1.61 17.42,2.05 17.42,2.05 C17.42,2.05 16.8,3.09 16.6,4.03 C16.426087,4.83869565 17.5149338,6.00277883 17.8019397,6.29269417 L17.8619216,6.35221419 L17.8619216,6.35221419 L17.87,6.36 C17.51,8.94 20.41,9.17 20.41,9.17 C19.98,12.51 24.8,12.96 24.8,12.96 C22.23,13.49 21.91,20 21.91,20 L21.91,20 Z" id="Leaves" fill="#277D54"></path>
                    <path d="M26.57,27.98 C26.57,27.98 33.98,15.43 35.03,14.67 L27.24,28.81 L26.57,27.98 Z M42.4100049,50.74 C42.42,51.47 27.07,62.29 27.0799951,62.29 C30.61,57.74 42.4100049,50.74 42.4100049,50.74 Z M12.74,46.33 C12.74,46.33 12.8469039,46.4035378 13.042884,46.5406887 L13.2322656,46.6735938 C15.4410937,48.2278126 24.4525,54.7050008 27.27,58.8700063 C27.27,58.870417 27.2453425,58.8508484 27.1980589,58.8128912 L27.0739257,58.71293 C26.359471,58.1364259 23.7920156,56.050456 21.0232483,53.7483822 L20.4274616,53.2522443 L20.4274616,53.2522443 L19.8291239,52.7523191 C16.2386677,49.7470614 12.7054795,46.69 12.74,46.33 Z M30.55,44.07 L42.13,32.81 L31.42,45.11 C31.43,45.1 30.26,45.87 30.55,44.07 Z M6.37,21.47 C6.37,21.47 19.38,25.84 23.79,29.54 C23.78,29.54 6.51,22.19 6.37,21.47 Z" id="Combined-Shape" fill="#C9FFD4"></path>
                    <g id="Baies" transform="translate(20.020000, 27.240000)">
                        <circle id="Oval" fill="#EF355A" cx="7.85" cy="3.87" r="2.78"></circle>
                        <circle id="Oval" fill="#B11022" cx="5.53" cy="7.34" r="2.54"></circle>
                        <circle id="Oval" fill="#F81132" cx="5.49" cy="17.11" r="2.4"></circle>
                        <circle id="Oval" fill="#F81132" cx="10.82" cy="19.24" r="3.07"></circle>
                        <circle id="Oval" fill="#B11022" cx="7.34" cy="20.36" r="2.21"></circle>
                        <circle id="Oval" fill="#BF1E30" cx="3.22" cy="3.22" r="3.22"></circle>
                    </g>
                </g>
                <polygon id="Scotch" fill="#F8FDF8" opacity="0.47" points="118.9 120.15 146.78 128.37 143.2 130.08 147.12 133.06 143.9 135.09 145.46 138.12 115.39 129.06 119.88 127.5 115.94 125.76 118.45 124.79 114.8 122.47 114.51 119.91"></polygon>
            </g>
        </g>
        <g id="Group" transform="translate(130.014052, 8.574781)" fill-rule="nonzero">
            <g id="Christmas/Stickers/Tree" transform="translate(118.000000, 174.500000) rotate(-330.000000) translate(-118.000000, -174.500000) ">
                <path d="M54.3969923,2.95899227 L53.9740549,3.05737287 C49.1606719,4.24530777 45.6873319,7.89332819 44.3778731,12.2978716 L44.2677756,12.6916681 L42.602,19.338 L36.0559243,21.7901762 C30.860779,23.8156998 27.8640568,28.5847612 27.5799358,33.5568776 L27.5660761,33.8669838 L27.5594042,34.2067812 C27.5276355,38.7338092 29.7791745,43.1028122 33.8014265,45.6502384 L39.563,49.258 L39.6485428,51.2629158 L39.1936342,52.0828518 L38.7312634,52.9416413 L38.2617126,53.8384485 L37.7852644,54.7724375 L37.3022008,55.7427722 L36.8128045,56.7486168 C36.7307263,56.9191702 36.6483961,57.0911685 36.5658197,57.264594 L36.0674533,58.322136 L35.5634599,59.413098 L35.0541218,60.5366441 L34.5397213,61.6919384 L34.0205407,62.878145 L33.4968625,64.0944278 L32.9689688,65.3399511 L32.1698421,67.2612331 L31.6326452,68.5762001 L30.820887,70.5977294 L30.0028204,72.6756454 L29.4544086,74.0908554 L28.9038989,75.5290363 L28.0748185,77.7275496 L27.2426059,79.9730453 L26.686528,81.4947506 L26.0189455,83.3452519 L25.5446074,84.6768232 L24.750063,86.9394217 C24.6196996,87.3140525 24.4902224,87.6878543 24.3614153,88.0614346 L23.9067118,89.3875216 L23.4507677,90.7321555 C22.0477824,94.8941944 20.7595752,98.9367967 19.6294693,102.730263 L18.9158102,105.149981 L18.3739452,107.026931 L17.8652346,108.83687 L17.5447622,110.007022 L17.2393983,111.148521 L16.9492922,112.261821 L16.6745931,113.347374 L16.4154504,114.405632 C16.3735646,114.579758 16.3323333,114.752767 16.2917594,114.924666 L16.0562312,115.94283 L15.8366325,116.934829 C15.8013685,117.098007 15.7667744,117.260114 15.7328534,117.421159 L15.537429,118.37476 C15.5062127,118.531595 15.4756757,118.687387 15.445821,118.842145 L15.2749068,119.758367 C15.1664562,120.361013 15.0690235,120.947422 14.9828076,121.518198 L14.8619213,122.362712 C14.8431839,122.501536 14.8251539,122.639401 14.8078342,122.776317 L14.7124657,123.586505 C14.3797547,126.649157 14.4261265,129.219858 14.8894209,131.413267 C15.8697177,136.020728 17.5492347,139.982999 20.1767379,143.366618 L20.5115413,143.786889 C20.9628925,144.341253 21.4340021,144.871671 21.9245283,145.378628 L22.125,145.581 L21.7467457,146.702283 C19.7310583,152.673185 17.7768337,158.663805 15.9824315,164.438189 L15.1789384,167.044189 L14.3599946,169.738706 L13.3969085,172.965939 L12.8516919,174.828574 L12.3311704,176.636926 L11.9979641,177.81274 L11.5189994,179.532433 L11.2136633,180.649895 L10.7767527,182.283194 L10.4996187,183.343815 L10.2338582,184.382122 L9.85665927,185.898272 L9.61956514,186.881851 L9.28561438,188.317041 L9.07751823,189.247401 C9.0438084,189.400716 9.01058574,189.553161 8.97785136,189.704742 L8.78731319,190.603896 L8.60854668,191.482548 L8.44160491,192.340939 L8.28654093,193.17931 L8.14340781,193.997904 L8.01225863,194.796961 L7.89314645,195.576724 L7.78612434,196.337434 L7.69124537,197.079332 L7.6085626,197.80266 C7.59580144,197.921681 7.58355066,198.039938 7.57181138,198.157436 L7.50752243,198.853362 C7.49783353,198.967846 7.48865834,199.081581 7.47999796,199.194573 L7.43422222,199.86364 C7.4276255,199.973677 7.42154579,200.082982 7.41598422,200.191557 L7.3888411,200.834309 C7.38535644,200.939991 7.38239212,201.044954 7.37994925,201.149205 L7.37155815,201.766185 L7.37573474,202.366286 C7.3809738,202.662157 7.39094564,202.951789 7.40568011,203.235318 L7.44150808,203.794278 C7.49073655,204.436997 7.56600326,205.046981 7.66768742,205.625956 L7.73687133,205.994104 L7.86963451,206.612541 C8.24355202,208.255882 8.77662187,209.851985 9.47108973,211.385502 L9.6934421,211.86232 L9.92915825,212.348299 C12.0849796,216.691547 15.1650835,220.212242 18.8561108,223.132704 L19.087,223.313 L17.1765427,229.044853 L15.2555073,234.83804 L13.9992821,238.646624 L12.7677969,242.397738 L10.8864027,248.167185 L9.27155837,253.164711 L7.58155696,258.453138 L6.0626958,263.275943 L5.03986587,266.576873 L4.1198562,269.598532 L3.43375113,271.897882 L2.82262505,273.993822 L2.38880136,275.521226 L2.00483675,276.913488 C1.97494028,277.023817 1.94557184,277.132716 1.91673361,277.240179 C-1.60623772,290.380243 1.8036701,301.584226 8.84192992,309.871596 L9.14682577,310.224843 C10.1577958,311.381665 11.1138206,312.332267 11.97139,313.090075 L12.111,313.212 L12.1519139,313.254252 C20.3786104,321.776035 36.2492813,325.837573 54.8545238,325.893116 L55.5980132,325.893003 L56.3843903,325.888019 C64.7811257,325.805192 73.3528822,324.870548 81.5585222,323.098264 L82.8678351,322.811242 L84.3730516,322.47022 L85.9947866,322.092402 L88.3343772,321.532509 L90.2190477,321.071315 L93.066,320.36 L98.8214954,340.26217 C100.67807,346.682908 107.257086,350.507144 113.755208,348.942806 L163.685208,336.922806 L163.984733,336.846848 C170.535652,335.100704 174.520831,328.42429 172.902089,321.801934 L167.478,299.615 L174.781149,297.43472 L179.270221,296.078284 L185.295416,294.234139 L190.302419,292.676102 L194.889482,291.222082 L197.701774,290.314178 L199.888829,289.597001 L202.319005,288.785578 L204.876881,287.909512 L206.514856,287.332123 L207.708469,286.900211 L208.534113,286.594202 L209.77491,286.119144 L210.643311,285.771289 L211.035338,285.608315 C231.492443,277.000841 239.481177,261.172694 234.121982,238.227012 C232.501553,231.301933 228.185911,223.932945 221.601029,215.590238 L220.667524,214.419766 C220.5095,214.223617 220.350259,214.026927 220.189806,213.829691 C217.271721,210.242631 213.981877,206.529461 210.384108,202.721781 C205.576633,197.633814 200.457104,192.622545 195.340225,187.885035 L194.165874,186.802658 L193.031239,185.766374 L191.938972,184.777909 L190.891728,183.83899 L189.556051,182.654822 L189.353,182.477 L189.398411,182.332868 C191.41315,175.617714 190.989284,167.916839 188.651133,158.75804 C187.349069,153.686999 184.262726,148.458549 179.537632,142.730839 L178.75706,141.797591 C178.624578,141.641302 178.490904,141.484635 178.356043,141.327583 L177.532635,140.380599 C177.393031,140.22198 177.252244,140.062963 177.110278,139.903541 L176.244346,138.942091 C175.070953,137.653532 173.822421,136.338177 172.50022,134.992571 L171.49478,133.97764 C171.324912,133.807521 171.153899,133.636917 170.981743,133.465819 L169.935122,132.433265 L168.861221,131.388557 L167.760176,130.331371 L166.474131,129.113489 C160.862094,123.838388 154.754549,118.602018 148.689563,113.705491 L147.887,113.061 L147.910728,112.999901 C151.373144,103.352451 148.675725,94.6098383 140.523778,85.0321261 L140.022776,84.4508373 L139.727379,84.1207816 L139.405957,83.7727512 L138.875855,83.2176476 L138.491027,82.8259698 L137.867593,82.2067762 L136.952111,81.3236021 L136.459121,80.8579997 L135.404536,79.8802376 L134.555061,79.1073386 L133.346809,78.0259274 L132.385565,77.1779988 L131.37855,76.2995722 L130.327044,75.3916421 L128.858037,74.1368931 L126.517113,72.164896 L124.869309,70.7937535 L121.828145,68.2935698 L119.072347,66.0567035 L115.697681,63.3487054 L112.680035,60.952387 L109.557731,58.4950721 L108.254583,57.4758338 L106.272282,55.9329503 L104.189036,54.3213676 L102.388367,52.9365905 L100.608183,51.5752264 L98.8520104,50.2399541 L96.2704813,48.2918286 L94.5897563,47.0335072 L92.9453794,45.8106544 L91.3408756,44.6259495 L89.77977,43.4820714 L88.542,42.582 L87.085,38.974 L90.8027364,33.3598376 C90.8552303,33.2805383 90.9068175,33.2006425 90.957488,33.1201659 L91.1323292,32.8346896 C93.2440174,29.2888769 93.6978342,24.8324021 91.9964172,20.8038545 L91.9346117,20.6597381 C89.7647664,15.5427456 84.6069134,12.2563054 78.9619817,12.5128932 L78.6799417,12.5289087 L71.954,12.986 L67.6910025,7.62759219 C64.4687087,3.66169209 59.3303664,1.87599349 54.3969923,2.95899227 Z" id="Sticker" fill="#FFFFFF"></path>
                <g id="Tree" transform="translate(13.054100, 43.240000)">
                    <path d="M88.7654777,262.39 L97.7754777,293.55 L147.705478,281.53 L139.445478,247.74 C139.445478,247.75 90.2654777,254.51 88.7654777,262.39 Z" id="Wood" fill="#602E00"></path>
                    <g id="Level-1" transform="translate(0.000000, 141.140000)">
                        <path d="M193.125478,89.71 C178.845478,95.73 90.2654777,121.25 65.8654777,126.5 C41.4654777,131.77 15.1854777,128.39 7.68547766,119.75 C7.68547766,119.75 6.64547766,118.96 5.31547766,117.4 C2.38547766,113.95 -1.91452234,106.73 0.93547766,96.1 C5.06547766,80.71 20.8254777,34.16 20.8254777,34.16 L135.765478,12.65 L167.225478,6.77 C167.225478,6.77 204.765478,39.04 208.895478,56.69 C213.015478,74.33 207.385478,83.71 193.125478,89.71 Z" id="Path" fill="#62A000"></path>
                        <path d="M193.125478,89.71 C178.845478,95.73 90.2654777,121.25 65.8654777,126.5 C41.4654777,131.77 15.1854777,128.39 7.68547766,119.75 C7.68547766,119.75 6.64547766,118.96 5.31547766,117.4 C4.48547766,107.37 6.22547766,93.54 23.4454777,97.97 C49.7154777,104.74 50.4754777,113.75 62.4854777,92.36 C74.5054777,70.95 89.1454777,65.33 104.155478,66.82 C119.165478,68.32 127.055478,50.31 127.055478,38.67 C127.055478,27.04 127.055478,15.39 127.055478,15.39 L135.755478,12.65 L167.215478,6.77 C167.215478,6.77 204.755478,39.04 208.885478,56.69 C213.015478,74.33 207.385478,83.71 193.125478,89.71 Z" id="Path" fill="#4D7D02"></path>
                        <path d="M20.9459002,32.62 L18.9459002,39.62 C18.9459002,39.62 83.5154777,48.8 167.225478,6.76 L160.095478,0 L20.9459002,32.62 Z" id="Path" fill="#3A6900"></path>
                    </g>
                    <g id="Level-2" transform="translate(6.806862, 74.301357)">
                        <path d="M145.778616,73.5986428 C133.388616,80.3486428 56.0586156,106.628643 15.8886156,100.988643 C15.8886156,100.988643 4.83861558,96.7986428 1.12861558,88.9686428 C0.668615575,88.0186428 0.338615575,87.0186428 0.128615575,85.9786428 C-1.74138442,76.2186428 17.3986156,22.5286428 17.3986156,22.5286428 L113.508616,0.0186427657 C113.508616,0.0186427657 113.508616,0.0186427657 113.528616,0.0386427657 C114.728616,0.948642766 152.978616,29.8986428 156.678616,44.3086428 C160.418616,58.9586428 158.158616,66.8486428 145.778616,73.5986428 Z" id="Path" fill="#62A100"></path>
                        <path d="M145.778616,73.5986428 C133.388616,80.3486428 56.0586156,106.628643 15.8886156,100.988643 C15.8886156,100.988643 4.83861558,96.7986428 1.12861558,88.9686428 C66.6186156,84.7986428 87.6086156,64.9286428 96.2286156,48.0686428 C104.848616,31.1686428 95.0886156,10.5286428 95.0886156,10.5286428 L113.488616,0.0186427657 C113.488616,0.0186427657 113.488616,0.0186427657 113.508616,0.0386427657 C114.708616,0.948642766 152.958616,29.8986428 156.658616,44.3086428 C160.418616,58.9586428 158.158616,66.8486428 145.778616,73.5986428 Z" id="Path" fill="#4A7F00"></path>
                        <path d="M17.3886156,22.5386428 C15.8888972,27.1519761 15.1390381,29.4586428 15.1390381,29.4586428 C15.1390381,29.4586428 87.1090381,31.3586428 117.139038,2.45864277 C115.805705,1.12530943 114.588897,0.308642766 113.488616,0.00864276569 C112.388334,-0.291357234 80.3550006,7.21864277 17.3886156,22.5386428 Z" id="Path" fill="#3A6900"></path>
                    </g>
                    <g id="Level-3" transform="translate(13.937604, 0.000000)">
                        <path d="M104.107874,73.94 C97.4178735,82.37 58.1178735,93.06 34.9678735,97.09 C34.7978735,97.13 34.6178735,97.15 34.4678735,97.19 C27.9278735,98.31 22.7378735,98.91 20.0178735,98.73 C11.4878735,98.21 6.16787354,96.45 3.05787354,92.46 C1.66787354,90.67 0.72787354,88.41 0.12787354,85.59 C-0.51212646,82.56 1.30787354,74.23 4.29787354,64.14 C10.1778735,44.1 20.6578735,17.13 25.6578735,10.88 C33.1578735,1.5 39.5478735,0 39.5478735,0 C39.7978735,0.06 40.1278735,0.19 40.5278735,0.39 C40.5878735,0.41 40.6278735,0.43 40.6778735,0.47 C50.2278735,5.18 96.9278735,41.68 103.717874,49.55 C110.867874,57.81 112.737874,63.06 104.107874,73.94 Z" id="Path" fill="#62A001"></path>
                        <path d="M104.107874,73.94 C97.4178735,82.37 58.1178735,93.06 34.9678735,97.09 C34.7778735,97.26 34.6578735,97.34 34.6578735,97.34 C34.6578735,97.34 34.5778735,97.28 34.4678735,97.19 C27.9278735,98.31 22.7378735,98.91 20.0178735,98.73 C11.4878735,98.21 6.16787354,96.45 3.05787354,92.46 C7.93787354,89.22 18.1778735,83.43 28.4878735,84.43 C28.5478735,84.43 28.6078735,84.45 28.6578735,84.45 C31.8378735,84.78 35.7378735,84.93 39.9478735,84.82 C54.6078735,84.41 73.1278735,80.77 78.9578735,70.56 C79.8078735,69.06 80.4478735,67.49 80.8878735,65.89 C84.3178735,53.49 76.3178735,38.84 73.3278735,34.52 C69.9478735,29.64 61.6978735,19.13 65.4578735,28.52 C69.1978735,37.9 68.0778735,45.4 63.5678735,37.53 C59.1478735,29.76 40.1478735,0.92 39.5678735,0.01 L40.5278735,0.38 C40.5878735,0.4 40.6278735,0.42 40.6778735,0.46 C50.2278735,5.17 96.9278735,41.67 103.717874,49.54 C110.867874,57.81 112.737874,63.06 104.107874,73.94 Z" id="Path" fill="#4A7F00"></path>
                    </g>
                </g>
                <g id="Pink-Ball" transform="translate(121.719578, 170.702920)">
                    <path d="M2.14888964,2.07021474 C2.26185226,3.71043202 2.89747889,5.09571542 3.88268304,6.22969968 C4.26388336,6.66846677 4.67205368,7.03906176 5.08126992,7.34429358 L5.31239351,7.50983585 C5.3831236,7.55828751 5.44722942,7.60003857 5.50377144,7.63517456 L5.64976661,7.72082285 L6.22680513,8.03434711 L6.35322943,7.38991883 C6.88282732,4.69037557 6.2377579,2.2011359 4.93651866,0.815679398 C3.5738473,-0.635185162 1.99871263,-0.110355455 2.14888964,2.07021474 Z M4.36077106,1.61904588 C5.23390845,2.65409563 5.72648928,4.38728272 5.53272503,6.3502618 L5.51942249,6.46308042 L5.65793613,6.57117242 C5.3015569,6.30535139 4.94413177,5.98083009 4.61077631,5.59713313 C3.75571582,4.61294611 3.20868649,3.42075149 3.11111036,2.00394609 C3.02743544,0.788986214 3.45457577,0.646664457 4.23348134,1.47598143 L4.36077106,1.61904588 Z" id="Path" fill="#FFF064"></path>
                    <path d="M9.88,5.03708042 L11.8800153,7.53708042 C11.8811699,7.53823674 11.8169413,7.61453714 11.6973946,7.74548034 C12.1703964,7.69367266 12.6520927,7.66708042 13.14,7.66708042 C20.3970216,7.66708042 26.28,13.5500588 26.28,20.8070804 C26.28,28.064102 20.3970216,33.9470804 13.14,33.9470804 C5.88297839,33.9470804 0,28.064102 0,20.8070804 C0,17.0799305 1.55179428,13.7152215 4.04454023,11.3237962 C3.94460252,11.2794816 3.84659018,11.2266345 3.75,11.1670804 L2.37,8.28708042 L9.88,5.03708042 Z" id="Ball" fill="#E42A51"></path>
                    <circle id="Oval" fill="#FDFEFD" cx="6.5" cy="20.8070804" r="2"></circle>
                </g>
                <path d="M132.885707,98.3051268 L133.653448,100.074873 L131.724936,100.906129 L129.815005,101.718642 L127.923605,102.512484 L126.050686,103.287727 C125.429454,103.543049 124.811294,103.795284 124.196197,104.044443 L122.36009,104.782704 L120.542313,105.502583 L118.742817,106.204152 C118.444421,106.319558 118.146785,106.434205 117.849908,106.548093 L116.077739,107.222332 L114.323726,107.878442 L112.587818,108.516495 L110.869965,109.136562 L109.170118,109.738717 L107.488227,110.323031 L105.824241,110.889577 C104.996716,111.16842 104.175887,111.440627 103.361725,111.706239 L101.742284,112.22868 C101.473856,112.314292 101.206167,112.399174 100.939216,112.483327 L99.3463511,112.979522 C99.0823464,113.060769 98.8190773,113.14129 98.5565427,113.221088 L96.9901424,113.691199 L95.4413224,114.144011 L93.9100325,114.579597 L92.3962228,114.998029 L90.8998433,115.399378 C90.6518964,115.46485 90.4046737,115.529613 90.1581742,115.593669 L88.687846,115.969531 C88.4442348,116.030764 88.2013447,116.091293 87.9591745,116.151119 L86.5147852,116.501656 C86.0361966,116.615698 85.5604796,116.726942 85.087626,116.835399 L83.6776467,117.152421 C82.5098084,117.409659 81.3598138,117.649555 80.2275327,117.872296 L78.8772894,118.131364 L77.5440009,118.374035 C75.5567594,118.725782 73.6265716,119.022436 71.7526777,119.265095 L70.5117467,119.41888 C69.4845734,119.540388 68.4747227,119.645306 67.4820642,119.733823 L66.299118,119.832181 C66.103333,119.847266 65.9082335,119.861698 65.7138185,119.875479 C64.620031,119.953007 63.5532049,120.009698 62.5129573,120.04613 L62.3620963,122.372564 L60.4370587,122.247436 L60.5769462,120.091027 C50.0948913,120.206772 42.4671737,118.166736 37.2619869,114.626285 C35.4694086,113.407014 34.1005792,112.091611 33.1012745,110.766665 C32.5412331,110.024125 32.19258,109.414938 32.0120228,109.002933 L31.9628552,108.885311 L33.7562998,108.174689 L33.7965197,108.264149 L33.9297411,108.520748 C34.106915,108.843083 34.3418493,109.207847 34.6414266,109.605046 C35.5154498,110.763885 36.7312854,111.932266 38.3469327,113.031193 C43.9829568,116.864689 52.8154621,118.855788 65.577424,117.951206 L66.1544871,117.908509 L67.3210483,117.811443 C67.5168589,117.793965 67.7133619,117.775837 67.9105586,117.757056 L69.1020688,117.636525 C71.9017163,117.33696 74.8376943,116.908898 77.9127845,116.348145 L79.2392054,116.099686 C79.4616978,116.056918 79.6849019,116.01347 79.9088189,115.96934 L81.2608823,115.696371 C81.4876545,115.649509 81.7151415,115.601962 81.9433444,115.55373 L83.3211597,115.256086 C83.5522299,115.205102 83.7840181,115.15343 84.0165251,115.101066 L85.4202018,114.778583 C86.1263615,114.613184 86.8390094,114.441542 87.5581728,114.263613 L89.0051951,113.899363 L90.4696408,113.518279 L91.9515585,113.120285 L93.450997,112.70531 L94.9680048,112.27328 L96.5026306,111.824121 C96.7598725,111.74783 97.0178504,111.670822 97.2765655,111.593096 L98.8377096,111.118106 C99.0993773,111.037501 99.3617841,110.956174 99.624931,110.874124 L101.212703,110.37314 C101.478815,110.288192 101.745668,110.202519 102.013265,110.116118 L103.627775,109.588973 L105.260169,109.044295 L106.910498,108.482012 L108.57881,107.90205 L110.265154,107.304336 L111.969577,106.688795 C112.540738,106.480636 113.114919,106.269494 113.69213,106.055356 L115.43286,105.403944 C115.7245,105.293874 116.016898,105.183052 116.310057,105.071476 L118.078145,104.392968 L119.864532,103.696304 L121.669267,102.981411 L123.492399,102.248215 L125.333976,101.496643 L127.194046,100.726622 L129.072659,99.9380774 L130.969863,99.1309369 C131.287616,98.9948597 131.606145,98.8580047 131.925452,98.7203702 L132.885707,98.3051268 Z M165.38523,150.969463 L167.315176,150.930537 L167.315176,150.940739 C167.319733,151.499758 167.037255,152.379129 166.263487,153.56214 C165.083155,155.366744 162.995329,157.478991 159.780509,159.906457 L159.169091,160.362 C159.065415,160.438239 158.96085,160.514635 158.855394,160.591189 L158.211948,161.052403 L157.547001,161.517399 L156.860435,161.986177 L156.152132,162.458738 L155.421972,162.93508 L154.669838,163.415206 L153.895611,163.899115 L153.099173,164.386808 L152.280406,164.878285 L151.43919,165.373545 L150.575407,165.872591 L149.68894,166.375421 L148.779669,166.882037 L147.847476,167.392438 L146.892243,167.906625 L145.913851,168.424598 L144.912182,168.946358 L143.365775,169.736098 L142.305395,170.267325 L141.221323,170.802341 L140.113442,171.341144 L138.406716,172.156452 L136.645751,172.980285 L135.441444,173.534243 L133.589193,174.372286 L132.323659,174.93572 L131.033426,175.502943 L129.718376,176.073958 L128.378391,176.648763 L127.013353,177.22736 L124.918561,178.102365 L123.49037,178.690442 L122.036711,179.282311 L119.80821,180.177227 L118.290363,180.77858 L115.965025,181.687722 L113.58105,182.605401 L111.138041,183.531617 L109.476373,184.153839 C92.5843496,190.448273 77.530486,192.805721 64.2453826,191.85544 C53.6897139,191.100394 44.7620389,188.307717 37.3941635,184.119711 C34.3286207,182.377213 31.7423118,180.507583 29.6201934,178.634064 C28.8733695,177.974729 28.2369311,177.360579 27.7089523,176.806949 L27.3518131,176.423602 L27.1091226,176.148005 L27.0535015,176.081332 L28.5456535,174.858668 L28.7105976,175.049722 L28.8827682,175.239098 L29.1049906,175.475595 C29.5954622,175.989896 30.1921933,176.565728 30.8969343,177.187911 C32.9221441,178.975874 35.4008609,180.767726 38.3474518,182.44261 C45.4702228,186.491295 54.1204187,189.197174 64.3830192,189.931256 C77.3836965,190.861192 92.1623594,188.546841 108.802782,182.346161 L111.269379,181.420277 L113.676698,180.503061 L116.025134,179.59452 L118.315081,178.69466 L119.809414,178.099579 L121.278045,177.508361 L122.721091,176.921009 L124.837943,176.047231 L126.897886,175.182161 L128.239761,174.610288 L129.556635,174.04229 L130.848626,173.478169 L132.740213,172.639261 L134.576471,171.809087 L135.7701,171.260492 L136.93943,170.715785 L138.648123,169.906015 L139.757219,169.371032 L141.37611,168.575859 L142.425705,168.050613 L143.451704,167.529266 L144.454223,167.011819 L145.433381,166.498274 L146.389293,165.988633 L147.322078,165.482899 L148.231851,164.981073 L149.11873,164.483156 L149.982833,163.989152 L150.824275,163.499061 L151.643174,163.012887 C151.777785,162.932184 151.911462,162.851644 152.044207,162.771268 L152.829511,162.290971 L153.592564,161.814595 L154.333485,161.342141 L155.052388,160.873612 L155.749393,160.40901 L156.424614,159.948336 L157.078171,159.491593 L157.710179,159.038782 L158.320755,158.589906 C158.420739,158.515421 158.519834,158.4411 158.618043,158.366944 C161.667248,156.064532 163.601759,154.107393 164.649052,152.506191 C164.951762,152.043379 165.153007,151.650305 165.273212,151.326961 L165.343161,151.117138 L165.383922,150.962488 L165.38523,150.969463 Z M205.484958,220.861945 L207.394197,221.138055 C207.313718,221.694548 206.880192,222.6289 205.85778,223.967994 C205.263302,224.746605 204.521085,225.58892 203.618219,226.496589 L203.057118,227.049046 C201.702419,228.356474 200.027787,229.792646 197.997794,231.362093 L197.214266,231.961113 L196.513015,232.486613 L195.423208,233.285288 L194.671241,233.824703 L193.898816,234.369702 L193.105835,234.920295 L192.2922,235.476493 L191.457813,236.038306 L190.167106,236.891574 L189.280408,237.467468 L188.372614,238.049013 L187.443626,238.636219 L186.493345,239.229095 L185.027787,240.129066 L184.023847,240.736165 L182.477338,241.657517 L181.419124,242.278903 L180.339028,242.906021 L178.677643,243.857469 L176.966473,244.821873 L175.79787,245.472024 L174.002989,246.458098 L172.157439,247.457219 L170.260889,248.469424 L168.968026,249.151512 L167.652251,249.83944 L166.313465,250.533218 L163.566472,251.938367 L161.445094,253.007662 L159.270951,254.090224 L157.792043,254.819319 L155.529219,255.924069 L153.212744,257.042179 L151.638459,257.795024 L149.231831,258.935475 L147.597137,259.703247 L145.938107,260.477007 L142.546649,262.042534 L140.814024,262.834322 L138.168691,264.033312 L136.374062,264.840192 C115.42453,274.229364 95.4457294,278.386889 76.6238992,278.174072 C61.9208372,278.007826 48.7368865,275.20502 37.2514616,270.634803 C33.0965117,268.981488 29.4598113,267.20871 26.3649921,265.433771 L25.9642671,265.202128 L25.2035674,264.751748 C25.0813235,264.678176 24.961353,264.605369 24.8436618,264.533355 L24.1649114,264.111019 L23.5411393,263.709095 L22.9750768,263.330024 L22.5578817,263.036866 L23.7012734,261.483134 L24.0350415,261.718323 L24.4369299,261.98901 L24.8925793,262.286808 L25.5196033,262.683692 C25.6286521,262.751543 25.7399694,262.820226 25.8535492,262.889714 L26.5621312,263.316065 C26.8073438,263.461247 27.0615592,263.609419 27.3247299,263.760352 C30.3423338,265.491006 33.8970525,267.223821 37.9646878,268.842392 C49.2380306,273.328219 62.1896946,276.081643 76.64571,276.245095 C95.1881619,276.454753 114.890338,272.354793 135.585093,263.079808 L137.372276,262.27628 L140.00645,261.082376 L141.73164,260.29402 L145.108238,258.735454 L147.576509,257.582374 L149.191646,256.821181 L150.782594,256.066 L153.123875,254.94448 L155.41128,253.836435 L156.906448,253.105208 L159.104788,252.019552 L161.250129,250.947289 L163.342798,249.888387 L165.383124,248.842816 L166.714424,248.15316 L168.668243,247.12974 L170.570594,246.119569 L171.810399,245.453467 L173.027572,244.793231 L174.811114,243.813855 L175.972137,243.168243 L177.110871,242.528465 L178.227412,241.894512 L179.321858,241.266375 L180.394307,240.644044 L181.961947,239.721415 L182.979828,239.113561 L183.976052,238.511481 L184.950716,237.915167 L186.372502,237.031486 L187.293694,236.449546 L188.193667,235.87334 L189.504055,235.019761 L190.76725,234.179032 L191.983578,233.351122 L192.76859,232.806289 L193.533016,232.267129 L194.64127,231.46901 L195.703755,230.683608 L196.386812,230.167055 C197.106409,229.617743 197.780568,229.086114 198.410909,228.572056 L199.146391,227.963613 C199.2655,227.863609 199.382882,227.764306 199.498551,227.665703 L200.172102,227.08248 C202.022812,225.453776 203.38572,224.026876 204.3245,222.797319 C204.8254,222.141269 205.157727,221.601875 205.354817,221.177099 L205.447389,220.963812 L205.484958,220.861945 Z" id="Line" fill="#000000"></path>
                <path d="M192.150032,203.509427 C192.641882,203.714024 192.874747,204.278605 192.67015,204.770455 C192.465554,205.262304 191.900973,205.495169 191.409123,205.290573 C186.686842,203.32623 183.288702,206.17349 180.858956,213.04529 C179.105461,218.004516 178.136668,224.26571 177.721997,230.494076 C177.268986,237.298305 167.46524,243.713054 160.766994,242.857331 L160.647,242.84 L160.423274,242.999966 C156.244636,245.930296 149.831928,248.568482 142.400794,250.396635 L141.486775,250.616178 L140.558482,250.8282 L139.637959,251.027325 C139.485207,251.059434 139.332796,251.091005 139.180733,251.122034 L138.272594,251.301713 L137.373197,251.468363 L136.482931,251.621928 L135.602184,251.762358 L134.731345,251.889597 C134.587052,251.909701 134.443189,251.929254 134.299763,251.948253 L133.444515,252.055608 C133.30287,252.072391 133.161678,252.08862 133.020947,252.104292 L132.182165,252.191642 C132.043312,252.205085 131.904938,252.217969 131.767048,252.230294 L130.945607,252.297519 C130.809693,252.307601 130.674281,252.317121 130.539379,252.326079 L129.736153,252.373059 C120.305262,252.848857 113.527042,250.475896 112.300061,244.856999 L112.251528,244.617648 C111.014713,238.017179 104.237181,234.993153 93.8344924,235.275445 C90.7735032,235.35851 87.4975574,235.754575 84.3626803,236.354731 L83.3778236,236.550911 C78.3179161,237.598247 73.7333043,239.158364 71.1703288,240.758224 C69.607986,241.733469 68.8683711,243.398248 68.8826555,245.315115 L68.885,245.469 L69.2525266,245.533774 C70.8621019,245.81853 72.3281006,246.124679 73.6397976,246.453159 L74.0713003,246.563481 C76.8344388,247.284846 78.8509341,248.105346 80.0851702,249.074752 C81.6506814,250.304351 82.0334556,251.893933 80.9719946,253.485242 C77.8060888,258.231466 72.7527376,257.089042 69.366875,252.251865 C68.2686991,250.682968 67.5226751,248.99252 67.1716709,247.338738 L67.131,247.135 L66.6888828,247.067383 C65.3247642,246.858891 63.8708885,246.663118 62.333262,246.479768 L60.7679411,246.300548 L59.148121,246.129544 L57.4751365,245.96669 L55.7503224,245.811921 L54.1248518,245.677096 C48.3669153,245.217281 42.1940143,244.906283 36.0205933,244.716572 L34.4295418,244.670444 L32.1621807,244.61454 L29.6830486,244.567631 L27.7936297,244.544532 C27.2609336,244.541247 26.831761,244.106748 26.8345364,243.574052 C26.8383307,243.041356 27.2728292,242.612183 27.8055253,242.615468 L30.084604,242.644776 L32.2042893,242.685899 L33.7061169,242.721597 L36.079847,242.788383 C42.28239,242.978988 48.485453,243.291506 54.2784162,243.754118 C54.8846472,243.80253 55.4826173,243.852293 56.0721233,243.903424 L57.8150451,244.060941 C58.6736064,244.14177 59.5126656,244.225719 60.3315364,244.312846 L61.9421565,244.491358 C63.525452,244.674144 65.0261633,244.869807 66.4387989,245.078828 L66.942,245.154 L66.9433314,245.030123 C66.9917325,242.696477 67.942115,240.605222 69.9316762,239.262727 L70.1488262,239.121776 C73.4335735,237.071372 79.6052085,235.134691 86.0259979,234.102956 L87.0689744,233.943705 C89.3316834,233.616389 91.6075488,233.406066 93.7821626,233.347055 C104.867018,233.046251 112.481236,236.373638 114.085873,243.952759 L114.147627,244.262352 C114.678549,247.095703 117.236749,248.962331 121.185942,249.86041 L121.759507,249.982118 C122.925286,250.212355 124.202142,250.363521 125.575234,250.435571 L126.269732,250.465004 L126.979856,250.481249 C127.219123,250.484466 127.460926,250.485485 127.705196,250.484306 L128.445338,250.474173 L128.820832,250.464161 L128.820832,250.464161 L129.582405,250.434242 L130.357751,250.391131 L131.146456,250.334827 L131.948109,250.265328 L132.762298,250.182633 L133.173964,250.136337 L133.173964,250.136337 L134.006183,250.033846 L134.849907,249.918156 L135.704723,249.789267 L136.57022,249.647176 C136.715336,249.622394 136.860881,249.597062 137.006844,249.57118 L137.887589,249.409285 L138.777983,249.234186 L139.677614,249.045882 L140.586071,248.844371 L141.502941,248.629653 C148.070759,247.051257 153.795701,244.787455 157.772602,242.395138 L158.258,242.096 L158.122766,242.0254 C157.328944,241.586339 156.634815,240.978839 156.076696,240.18284 L155.92788,239.961061 C153.613698,236.356079 153.895165,231.766988 156.2581,229.483848 C158.964651,226.868698 162.638091,228.559753 165.127508,234.030506 C166.139567,236.254612 165.275875,238.596666 163.029041,240.846805 L162.908,240.965 L163.019044,240.955323 C168.374433,240.396111 175.260849,235.559457 175.778681,230.582394 L175.797158,230.365924 C176.222594,223.975877 177.214407,217.56591 179.040199,212.40221 C181.788554,204.629324 186.119173,201.00075 192.150032,203.509427 Z M69.193,247.483 L69.2572634,247.70836 C69.5968424,248.855545 70.1642105,250.026911 70.94728,251.145635 C73.6582019,255.018564 77.1098261,255.798882 79.3671604,252.414758 C79.8300892,251.72075 79.7132756,251.235647 78.8935976,250.591848 C77.9160712,249.82407 76.1119547,249.089985 73.5840079,248.430021 C72.49862,248.146662 71.2918855,247.879206 69.9716632,247.627266 L69.193,247.483 Z M157.598555,230.871152 C155.930735,232.48265 155.71173,236.053337 157.551275,238.918939 C158.138116,239.833107 158.99196,240.420559 160.014313,240.732878 L160.168,240.777 L160.25234,240.712108 C162.857561,238.686392 164.092675,236.661378 163.428072,234.9629 L163.371647,234.829494 C161.358869,230.406203 159.137901,229.383789 157.598555,230.871152 Z M162.716691,140.72046 C164.364706,153.915561 134.903398,165.077448 126.934439,153.91028 C124.685462,150.758715 122.771677,148.957094 120.890884,148.132085 C119.190876,147.386377 117.425128,147.376262 114.925863,148.017718 L114.64646,148.094191 L114.292919,148.19855 L113.644366,148.399864 L112.608756,148.73383 L108.22612,150.204777 L106.139214,150.91137 L105.557227,151.095087 L104.980194,151.272828 C103.240109,151.801959 101.994344,152.315425 101.162076,152.820614 L101.025,152.905 L101.408012,153.088235 C102.975812,153.841172 104.377784,154.590961 105.588958,155.315949 L106.230526,155.708807 L106.833349,156.095965 L107.396528,156.476642 C108.573149,157.293857 109.46426,158.059935 110.028646,158.739134 L110.153071,158.894314 C111.013867,160.009298 111.082258,161.243014 109.81113,161.716782 C109.048323,162.001092 107.897471,161.82194 106.370478,161.26667 C102.74418,159.950409 99.7665241,158.270635 98.5226951,156.464595 C97.9167246,155.584726 97.705642,154.735018 97.8806359,153.92902 L97.907,153.818 L97.8258297,153.8079 C94.8643917,153.468435 92.3493162,156.370608 90.8569713,161.729938 L90.6757966,162.412595 C90.4414438,163.339717 90.2361673,164.334186 90.0626355,165.392369 L89.9404184,166.184499 C88.5731777,175.625095 90.1102648,186.97363 94.2686297,195.414608 L94.5376145,195.949399 C98.1057493,202.89807 96.1291789,207.604057 90.1225415,210.105065 L89.612692,210.30838 C88.8340218,210.605697 87.9930393,210.868578 87.0927026,211.097096 L86.4837174,211.244351 C86.0719084,211.339129 85.648505,211.427122 85.2137669,211.508337 L84.5531912,211.625077 L83.8758082,211.731654 C79.1583903,212.42991 73.1286254,212.337755 68.0016587,211.764011 L66.9545153,211.638535 C64.3724944,211.308173 62.0728784,210.854664 60.3622036,210.320746 C58.4127428,209.7123 56.8876624,208.484656 55.8811283,206.95328 L55.83,206.873 L55.4943746,207.015377 C53.6982205,207.765131 51.6248321,208.52935 49.3096351,209.304027 L48.0230322,209.72759 C47.8046726,209.798349 47.5843677,209.869188 47.3621443,209.940105 L46.0870191,210.341378 C42.4205436,211.479554 38.495644,212.568341 34.5712153,213.5706 L32.862196,214.001398 L31.2764686,214.390507 L29.3338767,214.850443 C28.8144845,214.968797 28.2974889,214.643691 28.1791348,214.124299 C28.0607806,213.604907 28.3858861,213.087911 28.9052783,212.969557 L30.3283399,212.634586 L31.33306,212.391469 L32.9497126,211.991155 L34.0938646,211.701492 C37.9888796,210.706745 41.8834236,209.626379 45.5150956,208.499007 L46.9191038,208.056433 C47.6083743,207.835714 48.2783312,207.615885 48.9280148,207.397112 L50.2000665,206.961023 C51.651927,206.454012 52.9899269,205.953357 54.201874,205.46118 L54.98,205.138 L54.9126279,204.942966 C54.5521217,203.843908 54.4172053,202.674112 54.5321453,201.514873 L54.5606085,201.266656 C55.087088,197.225048 58.4669832,195.661569 62.2456406,198.631669 C63.5916772,199.689681 63.8089695,201.093208 62.8870204,202.42311 C62.1961315,203.41971 60.8676098,204.397373 58.9376488,205.415704 C58.6061874,205.590597 58.2571907,205.766496 57.8911526,205.943344 L57.619,206.073 L57.7253319,206.219669 C58.4461883,207.179084 59.4481059,207.954134 60.6861974,208.395479 L60.9369514,208.479254 C62.8822458,209.0864 65.6728458,209.587222 68.7803354,209.908171 L69.8271771,210.008391 C74.4080677,210.412936 79.5276232,210.42514 83.5933468,209.823346 L84.2542943,209.719654 C84.6883566,209.647582 85.1092531,209.569607 85.5168217,209.485643 L86.1181587,209.355194 C86.7094593,209.22023 87.2705902,209.071692 87.8010048,208.909285 L88.3211604,208.742245 C88.4061398,208.713631 88.4902609,208.684628 88.5735211,208.655237 L89.0627326,208.474205 C94.1703711,206.493131 95.7313452,202.906221 93.0822479,197.356636 L92.8215406,196.830601 C88.2693177,187.965494 86.5797439,175.930344 88.0312366,165.908001 L88.0896482,165.517051 L88.2152878,164.748264 C89.7491991,155.882297 93.6565258,150.656471 98.820199,152.015279 L99.045,152.078 L99.0935648,152.03423 C100.135212,151.096231 101.811284,150.250121 104.102685,149.525262 L104.983026,149.253425 L105.828516,148.982033 L110.691544,147.336049 L112.079617,146.877741 L113.267639,146.496805 L114.02666,146.265739 L114.322473,146.181974 L114.446288,146.14918 C117.327601,145.409668 119.515409,145.422201 121.665807,146.365472 C123.919129,147.353891 126.071807,149.380403 128.504716,152.78972 C135.318592,162.33823 162.200552,152.15357 160.802464,140.95954 C160.736444,140.43094 161.111438,139.948906 161.640038,139.882886 C162.168637,139.816866 162.650671,140.191861 162.716691,140.72046 Z M56.4735465,201.515844 C56.3639683,202.35704 56.4282948,203.210732 56.6503849,204.023218 L56.75,204.35 L57.0328011,204.2156 C57.2677771,204.102246 57.4950148,203.989476 57.7143497,203.877317 L58.0374043,203.709543 C59.7153452,202.824188 60.830632,202.003446 61.3016259,201.324042 C61.6400479,200.835872 61.6001206,200.577974 61.0535144,200.148331 C58.4913475,198.134416 56.8128868,198.910842 56.4735465,201.515844 Z M99.81,154.466 L99.8082286,154.493779 C99.8029681,154.785493 99.9095289,155.077201 100.11146,155.370405 C101.054707,156.739999 103.763733,158.268232 107.029206,159.453522 C107.509774,159.628274 107.928887,159.750627 108.266707,159.827525 L108.455,159.867 L108.407693,159.812725 C108.045254,159.410443 107.527062,158.957068 106.867705,158.46693 L106.407382,158.134882 L105.906192,157.792885 L105.365097,157.441881 L104.785059,157.082816 L104.167036,156.716631 C103.954805,156.593488 103.736403,156.469315 103.511991,156.344271 L102.820883,155.966679 C102.58461,155.840048 102.342487,155.712702 102.094673,155.584798 L101.334323,155.199573 L100.540792,154.811946 L99.81,154.466 Z M74.7266788,76.803753 C81.989803,76.3291112 86.7465386,78.9872896 87.1285889,85.4249139 L87.1434676,85.7343268 C87.6031572,98.1551397 94.5855216,104.073323 100.545297,98.5712871 C101.067368,98.0893135 101.586108,97.5730996 102.135882,96.992999 L102.504394,96.5993419 L104.995427,93.8298825 L105.910665,92.8324315 L106.251997,92.4722479 L106.341274,92.3810987 C110.644447,88.0435396 114.543354,87.798205 120.551529,92.7891736 L121.120842,93.2677836 L121.660731,93.7092227 C121.837612,93.8509508 122.011426,93.9872932 122.182226,94.1183473 L122.685627,94.4957423 C126.723682,97.4498307 128.981921,97.2881379 130.201114,95.4440121 C130.399623,95.1437512 130.554203,94.8160244 130.667415,94.4882316 L130.732867,94.2838929 L130.771541,94.1390147 L130.781548,94.0922445 C130.87972,93.5686623 131.383751,93.223799 131.907333,93.3219706 C132.430915,93.4201423 132.775779,93.9241733 132.677607,94.4477555 C132.575989,94.9897157 132.31561,95.7436215 131.810328,96.5078996 C129.71361,99.6793519 125.730245,99.6031675 119.893625,94.7558306 L119.595251,94.5052366 C114.283717,89.9949434 111.473557,90.0424309 107.899597,93.5518427 L107.622885,93.8295569 L107.279997,94.1922304 L106.171589,95.4049593 L103.8833,97.9497775 C103.175592,98.7118336 102.520049,99.3736886 101.853858,99.9887129 C94.428607,106.843668 85.898661,99.7452554 85.2334294,86.2175635 L85.2156874,85.8056732 C85.0176358,80.4543193 81.2801445,78.3087018 74.8524762,78.728747 C73.7694525,78.7995221 72.6149469,78.9560862 71.4519954,79.1733649 L70.6761349,79.3269369 C70.0296947,79.4619507 69.3849712,79.6139837 68.7527729,79.7787365 L68.0008389,79.9822703 C67.6285697,80.0868147 67.262366,80.1953192 66.9045626,80.3068551 L66.2008477,80.5336933 C64.2426428,81.1862942 62.6041566,81.9163539 61.7102108,82.5548866 C61.1343909,82.9661866 60.9480225,84.0867888 61.1321541,85.4811259 L61.174,85.767 L61.4759145,85.8561049 C62.957503,86.2991669 64.2552144,86.7549378 65.3475948,87.2237299 L65.6691275,87.3647585 L65.9003486,87.4703577 L66.3444902,87.6848374 C69.2948554,89.1652322 70.4940431,90.9464396 68.9066414,92.8901248 C66.3128209,96.0661138 62.9901884,94.5184929 60.8065119,90.4882512 C60.2639897,89.4869604 59.8400049,88.4401269 59.5542176,87.4156655 L59.524,87.305 L59.0725892,87.1837447 C57.8128319,86.8489332 56.4399443,86.5202551 54.9669479,86.1987421 L54.4099072,86.0785125 C51.3714072,85.429953 48.1118166,84.8496756 44.8516643,84.3462938 L43.2041451,84.0987277 L42.1840192,83.9525924 L40.5100501,83.7271154 C39.9814499,83.6611023 39.606449,83.1790729 39.6724621,82.6504726 C39.7384752,82.1218724 40.2205046,81.7468714 40.7491049,81.8128846 L41.9625499,81.9741724 L43.4824667,82.1898105 L45.1460374,82.4397862 C48.4397951,82.9483568 51.7341145,83.5348166 54.8125973,84.1919104 C56.0948716,84.4656084 57.3078185,84.7447743 58.4450811,85.0295006 L59.155,85.211 L59.1526983,85.177032 C59.0290722,83.4304134 59.4195028,81.9301921 60.4451365,81.0948616 L60.5889442,80.9851134 C61.707592,80.1860792 63.718745,79.3019834 66.0678876,78.5497398 L66.8203104,78.316825 C69.3615253,77.5567389 72.2125679,76.968049 74.7266788,76.803753 Z M62.1108822,88.0760209 L61.772,87.966 L61.7873947,88.0063931 C61.9858123,88.529457 62.2244646,89.0558364 62.5026431,89.5692488 C64.1382775,92.5880117 65.9670174,93.439805 67.4125136,91.6698752 C67.8578777,91.1245516 67.4920049,90.4786889 65.9494058,89.6469649 L65.5564017,89.443739 C65.4870731,89.4092587 65.415815,89.37447 65.3426039,89.3393677 L64.8797152,89.1249446 C64.0899764,88.7707608 63.1626915,88.4207756 62.1108822,88.0760209 Z" id="Lights" fill="#FFD262"></path>
                <g id="Balls" transform="translate(25.689578, 105.790000)">
                    <path d="M40.35,29.29 C39.06,31.99 37.03,33.88 36.28,34.54 C36.09,34.71 35.97,34.79 35.97,34.79 C35.97,34.79 35.89,34.73 35.78,34.64 C34.66,33.77 29.14,29.16 29.59,23.41 C29.63,22.87 29.71,22.37 29.8,21.89 C30.57,17.9 33.08,15.87 35.76,16.04 C36.59,16.08 37.42,16.33 38.23,16.77 C40.02,17.79 40.95,19.95 41.26,22.27 C41.6,24.79 41.19,27.53 40.35,29.29 Z" id="Path" fill="#E42A51"></path>
                    <circle id="Oval" fill="#0F7FDD" cx="18.07" cy="5.14" r="4.13"></circle>
                    <circle id="Oval" fill="#FFC63A" cx="55.55" cy="15.71" r="4.32"></circle>
                    <circle id="Oval" fill="#0F7FDD" cx="94.84" cy="4.57" r="4.57"></circle>
                    <circle id="Oval" fill="#FFC63A" cx="14.26" cy="84.66" r="4.57"></circle>
                    <circle id="Oval" fill="#0EFDE1" cx="71.13" cy="74.58" r="4.38"></circle>
                    <circle id="Oval" fill="#B9372A" cx="122.49" cy="68.14" r="4.19"></circle>
                    <circle id="Oval" fill="#B9372A" cx="4.34" cy="164.76" r="4.34"></circle>
                    <circle id="Oval" fill="#0EFDE1" cx="85.94" cy="159.53" r="4.55"></circle>
                    <circle id="Oval" fill="#FFC63A" cx="149.19" cy="144.8" r="5.49"></circle>
                    <circle id="Oval" fill="#0EFDE1" cx="169.84" cy="118.71" r="5.21"></circle>
                    <circle id="Oval" fill="#FFC63A" cx="47.79" cy="171.5" r="5.07"></circle>
                </g>
                <g id="Star" transform="translate(40.039578, 9.035576)">
                    <path d="M33.26,28.1044238 C33.08,28.3544238 33.06,28.6844238 33.17,28.9644238 L37.97,40.8444238 C38.03,40.9944238 38.06,41.1544238 38.05,41.2944238 C38.03,41.4344238 37.99,41.5444238 37.92,41.6544238 C37.8,41.8444238 37.64,41.9944238 37.42,42.0644238 C37.25,42.1444238 37.04,42.1444238 36.84,42.0944238 L24.52,38.6844238 C24.34,38.6244238 24.16,38.6244238 23.96,38.6844238 C23.85,38.7344238 23.75,38.7744238 23.65,38.8644238 L13.85,47.0744238 C13.43,47.4244238 12.85,47.3344238 12.54,46.9644238 C12.39,46.8144238 12.33,46.6344238 12.3,46.4044238 L11.75,33.6044238 C11.73,33.3044238 11.58,33.0144238 11.31,32.8544238 L0.45,26.0544238 C0.15,25.8644238 0.01,25.5444238 0.02,25.2344238 C0.04,24.8844238 0.24,24.5044238 0.63,24.3744238 L12.62,19.8844238 C12.77,19.8244238 12.9,19.7544238 12.99,19.6444238 C13.08,19.5344238 13.17,19.3944238 13.21,19.2444238 L16.32,6.82442384 C16.43,6.45442384 16.68,6.20442384 16.99,6.14442384 C17.32,6.05442384 17.69,6.15442384 17.95,6.47442384 L25.92,16.4944238 C26.01,16.5944238 26.1,16.6844238 26.23,16.7344238 C26.37,16.8244238 26.56,16.8544238 26.72,16.8344238 L39.49,15.9644238 C39.93,15.9444238 40.29,16.2144238 40.41,16.5644238 C40.54,16.8144238 40.51,17.1544238 40.34,17.4244238 L33.29,28.0744238 L33.26,28.1044238 Z" id="Path" fill="#F3B432"></path>
                    <path d="M17.94,6.48442384 L25.91,16.5044238 C26,16.6044238 26.09,16.6944238 26.21,16.7444238 L20.895,25.4758379 L20.9,25.4744238 L40.4,16.5644238 C40.53,16.8144238 40.5,17.1544238 40.33,17.4244238 L33.28,28.0744238 C33.14,28.0844238 33.02,28.0844238 32.89,28.0944238 L20.87,25.5244238 L20.866,25.5228379 L20.833,25.5778379 L38.04,41.2944238 L38.16,41.4144238 C38.09,41.5044238 38.01,41.5644238 37.91,41.6544238 C37.76,41.8044238 37.6,41.9344238 37.41,42.0644238 C37.24,42.1444238 37.03,42.1444238 36.83,42.0944238 L24.51,38.6844238 C24.33,38.6244238 24.15,38.6244238 23.95,38.6844238 L20.831,25.5808379 L20.83,25.5844238 L20.813,25.5058379 L20.81,25.5144238 L13.1,47.1844238 C12.9,47.1144238 12.7,47.0644238 12.51,46.9644238 C12.36,46.8144238 12.3,46.6344238 12.27,46.4044238 L11.72,33.6044238 L20.511,25.5038379 L0,25.2444238 C0.02,24.8944238 0.22,24.5144238 0.61,24.3844238 L12.6,19.8944238 C12.75,19.8344238 12.88,19.7644238 12.97,19.6544238 L13.06,19.6544238 L20.64,25.3844238 L20.641,25.3848379 L20.75,25.2844238 L20.765,25.2718379 L16.98,6.15442384 C17.31,6.06442384 17.68,6.16442384 17.94,6.48442384 Z" id="Shadow" fill="#FFD262"></path>
                    <path d="M3.33566609,16.8848892 C3.45850804,16.4057293 3.92044291,16.1032831 4.39896005,16.1684411 L4.50953465,16.1900899 L10.7895346,17.8000899 C11.305553,17.9323813 11.6166252,18.4579401 11.4843339,18.9739585 C11.361492,19.4531184 10.8995571,19.7555646 10.4210399,19.6904066 L10.3104654,19.6687578 L4.03046535,18.0587578 C3.51444698,17.9264664 3.20337476,17.4009076 3.33566609,16.8848892 Z M8.15605786,4.60458353 C8.56891551,4.33747714 9.10949203,4.42599641 9.41780832,4.79297931 L9.48984031,4.8904817 L13.7598403,11.4904817 C14.0492056,11.9377442 13.9212046,12.5348989 13.4739421,12.8242642 C13.0610845,13.0913705 12.520508,13.0028513 12.2121917,12.6358684 L12.1401597,12.538366 L7.87015969,5.93836599 C7.58079443,5.49110353 7.7087954,4.89394878 8.15605786,4.60458353 Z M21.1620893,0.00427996442 C21.6544855,0.0515066432 22.0247606,0.461084263 22.0344238,0.943920503 L22.0301439,1.05651311 L21.4201439,7.41651311 C21.3692844,7.94678594 20.8981836,8.33542722 20.3679107,8.28456772 C19.8755145,8.23734104 19.5052394,7.82776342 19.4955762,7.34492718 L19.4998561,7.23233457 L20.1098561,0.872334572 C20.1570828,0.37993838 20.5666604,0.00966325776 21.0494967,0 L21.1620893,0.00427996442 Z M26.6012437,7.39619959 C26.854314,6.92744444 27.4394691,6.75259729 27.9082243,7.00566756 C28.3409213,7.23927088 28.5231879,7.75583408 28.3496219,8.20261169 L28.2987563,8.3126481 L26.5387563,11.5726481 C26.285686,12.0414033 25.7005309,12.2162504 25.2317757,11.9631801 C24.7990787,11.7295768 24.6168121,11.2130136 24.7903781,10.766236 L24.8412437,10.6561996 L26.6012437,7.39619959 Z M33.6925252,8.4088009 C33.9662502,7.95179917 34.5586212,7.80322402 35.0156229,8.07694901 C35.4374707,8.32961824 35.5965171,8.85379653 35.4031975,9.2923885 L35.3474748,9.40004679 L31.8974748,15.1600468 C31.6237498,15.6170485 31.0313788,15.7656237 30.5743771,15.4918987 C30.1525293,15.2392294 29.9934829,14.7150512 30.1868025,14.2764592 L30.2425252,14.1688009 L33.6925252,8.4088009 Z" id="Combined-Shape" fill="#FFD262"></path>
                </g>
            </g>
        </g>
        <g id="Group" transform="translate(71.000000, 41.000000)" fill-rule="nonzero">
            <g>
                <path d="M99.5920116,1.50046174 C105.835585,1.53225867 112.599063,2.2902205 119.504318,4.1047873 C129.127232,6.63350202 137.936027,10.9561132 145.384228,17.4782115 C154.602009,25.5494562 161.488172,35.9367138 166.544014,47.3941632 L166.878364,48.159565 L167.069,48.604 L167.159086,48.666716 C173.417626,53.0095212 177.922504,61.1189777 177.249248,68.928502 L177.211254,69.3187094 L177.171034,69.6582516 L177.094338,70.2743922 L177.055336,70.6326082 L177.027911,70.9589619 L177.013669,71.2621734 C176.999438,71.8512674 177.073941,72.3538272 177.294991,73.0837709 L177.417996,73.4691448 L177.651813,74.1373379 L177.949619,74.9398496 L178.26,75.759 L178.96984,76.2324163 C184.972651,80.2642727 190.464645,84.4310996 194.986919,88.6176423 L195.626312,89.2158415 L196.252214,89.8142343 C200.718767,94.1322077 203.974668,98.3169317 205.842275,102.8198 C208.947694,110.307077 207.815272,118.392032 201.523726,124.152112 C196.923427,128.360709 191.420862,131.178508 185.325624,132.831024 C182.925132,133.481836 180.515228,133.93898 178.117125,134.230121 L177.218431,134.331572 L177.022,134.35 L178.460315,145.265518 L178.604268,146.339711 C179.60022,153.771603 173.879501,160.377395 166.425508,160.499739 L166.134227,160.499739 L133.451756,160.288487 L84.2948306,159.950598 L39.654514,159.666945 C32.8118562,159.623293 27.2968601,154.09212 27.2347557,147.287162 L27.2356328,146.981625 L27.251,145.924 L27.1287986,145.917798 C24.5796085,145.764759 22.1556957,145.510756 19.8850379,145.133393 L19.0407797,144.986055 L18.2935027,144.843346 C15.021036,144.191884 12.1434552,143.267319 9.57306043,141.860003 C5.21530703,139.474092 1.89417329,135.792163 0.808161848,130.504578 C0.44003127,128.68114 0.422562983,126.92361 0.633855413,125.180399 C1.18868818,120.604835 3.43291676,115.73054 7.28846094,109.793624 L7.91061012,108.847274 C8.01652959,108.68804 8.12356209,108.528043 8.23170619,108.367267 L8.89389861,107.393173 C9.11906823,107.06529 9.34867287,106.734184 9.58270115,106.399746 L10.2980455,105.38632 C10.4194776,105.215711 10.5420127,105.044242 10.6656495,104.871897 L11.4206785,103.827218 L12.2020786,102.760868 L13.0097814,101.672179 C13.1465866,101.488832 13.284485,101.304526 13.423475,101.119248 C15.459568,98.4050724 17.6312637,95.6444697 19.8616466,92.9076327 L20.333,92.331 L20.2870967,92.1594519 C19.524291,89.1816424 19.3046974,86.0597056 19.6774229,82.9447526 L19.7542622,82.3608177 L19.8231918,81.9098474 L19.932976,81.2832694 L19.960636,81.1404078 L19.9334819,80.6219865 L19.9041723,80.2345273 L19.7438806,78.5302972 L19.6516195,77.4546999 C19.3788307,73.9778517 19.462957,71.5230682 20.1869352,68.2095347 C21.4106089,62.6089737 24.7609676,58.5402492 29.3243536,55.0992188 C29.6127754,54.8817337 29.9028494,54.6698663 30.1942387,54.4634302 L30.6322671,54.1578262 L30.994,53.914 L31.0576762,53.7315224 C34.5179897,43.8245344 39.4825445,34.4290361 46.3212242,26.2391963 L46.9295102,25.5197099 L47.4984279,24.8626526 C59.0927449,11.6245653 74.5921496,3.34682184 93.8985684,1.72265431 L95.0202811,1.63381896 L95.3499796,1.61180601 L96.0530898,1.57268574 L96.8155764,1.54094366 L97.6387497,1.51758452 L98.5239203,1.50361308 L98.990164,1.50046174 L99.5920116,1.50046174 Z" id="Sticker" fill="#FFFFFF"></path>
                <g transform="translate(13.000000, 14.000000)">
                    <path d="M180.086261,100.929357 C168.713969,111.333333 149.706165,107.374512 149.706165,107.374512 L150.425931,112.842031 L153.071068,132.925808 L153.215022,134 L27,134 L26.9381887,119.43202 C26.9381887,119.43202 1.51247766,121.097622 0.0609508664,114.030884 C-0.0170237133,113.644657 -0.0170237133,113.179979 0.0429567326,112.685126 C1.08061845,104.127796 22.3076983,79.9584665 22.3076983,79.9584665 C22.3076983,79.9584665 23.0694499,79.9524317 23.7112407,80.1938232 C24.556965,80.4955627 24.7728946,81.9258076 26.6202923,82.5353213 L26.6382865,82.5353213 C29.1394711,83.3500177 32.4683858,84.3759318 36.4210972,85.4380547 C36.4870757,85.4682286 36.5650503,85.486333 36.6250307,85.5044373 C44.6084281,87.6226482 55.087012,89.8494853 66.3993241,90.7909123 L66.525283,90.7909123 C66.525283,90.8090167 66.525283,90.8090167 66.525283,90.8090167 C66.7472107,90.8090167 66.9691383,90.8391906 67.1790699,90.8391906 C67.9588157,90.9055733 68.7385615,90.9659212 69.5183073,91.0021299 C71.9235231,91.1650692 74.3587293,91.2435215 76.7999334,91.2435215 C77.4837105,91.2435215 78.1734856,91.2435215 78.8692588,91.2254171 C86.0369221,91.1107561 93.3005541,90.3262336 100.24629,88.5339013 C100.564186,88.4554491 100.870086,88.370962 101.187983,88.2925098 C104.930763,87.2847 108.577574,85.9691161 112.08643,84.3035144 C114.317702,83.2474263 116.417018,82.2335818 118.396373,81.3042244 C126.247813,77.5385162 132.047922,74.7021654 136.336524,72.5537806 C143.64814,68.914803 146.551194,67.2793752 147.69682,66.5612354 C148.428582,66.114661 148.46457,66.0181044 148.46457,66 C148.46457,66 149.676175,66.6879659 151.649532,67.9069933 C152.26733,68.2751154 152.957106,68.7096202 153.706861,69.1742989 C164.791248,76.1324104 188.945373,92.8186013 180.086261,100.929357 Z" id="Path" fill="#3D3D3E"></path>
                    <path d="M66,134 C66.0657589,131.86172 66.2869479,127.406475 66.5081368,123.660019 C66.74726,119.782526 67.0820325,115.368974 67.6021255,111.16389 C68.2537363,105.85095 69.1564264,100.835821 70.459648,97.494387 C71.0933245,95.850473 71.8286284,94.6294498 72.6536035,93.9683105 C73.813351,93.0331855 75.0687479,92.086148 76.413816,91.1688917 C77.0953172,90.7102635 77.7947526,90.2516353 78.5240784,89.8227881 C84.0358685,86.4992228 90.988376,84.3668995 99.4174693,87.6070779 C99.5310528,87.6547276 99.6386583,87.7023773 99.7522418,87.7500269 C100.087014,87.892976 100.403853,88.0478375 100.720691,88.2563048 C103.18366,89.7096201 105.497177,92.5269076 107.625374,96.1185024 C109.101959,98.6022421 110.482896,101.449311 111.756227,104.469109 C115.994686,114.547017 118.965792,126.441569 119.904351,132.516904 C119.912647,132.567875 119.94453,133.062241 120,134 L66,134 Z" id="Belly" fill="#FFFFFD"></path>
                    <g id="Scarf" transform="translate(19.000000, 43.961548)">
                        <path d="M27.6641491,76.6930381 L27.7201819,76.8137813 L27.8450917,77.1073501 C27.9551749,77.3799804 28.078331,77.7210096 28.2002618,78.1186243 C28.6455848,79.5708159 28.8450544,81.0612241 28.649053,82.5008689 C28.5415004,83.2908507 28.3149469,84.0363871 27.9547646,84.7230176 C27.6140483,85.3725394 26.8113017,85.6228757 26.1617799,85.2821594 C25.5122581,84.941443 25.2619219,84.1386964 25.6026382,83.4891747 C25.8130471,83.0880634 25.9497538,82.6381926 26.0172323,82.142558 C26.153763,81.1397299 26.002939,80.0127952 25.6608785,78.8973408 L25.6037604,78.7163225 L25.4931002,78.3928428 L25.3916975,78.1252761 C25.3758678,78.0856413 25.3606483,78.0485614 25.3461512,78.014149 L25.2687363,77.8405853 C24.9518499,77.1791103 25.2311941,76.3859917 25.8926691,76.0691053 C26.5541441,75.7522189 27.3472627,76.0315631 27.6641491,76.6930381 Z M18.9876655,72.6781577 C19.0815361,72.8860915 19.1174472,73.1054492 19.1022554,73.3180884 C19.4184779,73.2629185 19.7550108,73.322363 20.0458557,73.5097676 C20.6238754,73.8822123 20.8162375,74.6278372 20.5106809,75.2276106 L20.2934899,75.5952223 L20.1805947,75.7967933 C19.9686277,76.1830836 19.7555943,76.6174081 19.556896,77.0869915 C18.9373571,78.5511466 18.6006545,80.0085735 18.6806866,81.3095006 C18.7077335,81.7491497 18.782539,82.1632788 18.9072641,82.5509086 L19.0102017,82.836647 C19.2827476,83.5175911 18.9516755,84.2905475 18.2707314,84.5630935 C17.5897873,84.8356394 16.8168309,84.5045673 16.544285,83.8236232 C16.2476723,83.0825496 16.0802186,82.2954257 16.0295986,81.4725937 C15.9935339,80.8863608 16.0157785,80.293126 16.0893839,79.6962076 C15.925187,80.2142808 15.4479983,80.5959763 14.8732537,80.6152253 C14.1402029,80.6397762 13.5260455,80.0654235 13.5014946,79.3323728 C13.4207022,76.9200358 14.0946198,75.0066032 15.2817225,73.5881404 C15.9769316,72.7574386 16.6920185,72.257406 17.2308049,72.0141739 C17.8993026,71.7123843 18.6858759,72.0096599 18.9876655,72.6781577 Z M24.8100221,74.360301 C25.3853914,74.8151816 25.4830667,75.6503642 25.028186,76.2257334 L24.9598741,76.3176922 L24.8517986,76.4741091 C24.8308081,76.5053802 24.8084126,76.5392097 24.7847379,76.5755337 C24.5788067,76.8914937 24.3710927,77.2549587 24.1769593,77.6574239 C23.3391703,79.3942758 23.0386662,81.2111607 23.5543895,82.9531313 C23.762603,83.6564188 23.3612662,84.3953363 22.6579787,84.6035498 C21.9546912,84.8117633 21.2157737,84.4104265 21.0075602,83.707139 C20.278037,81.2430115 20.6848279,78.7835033 21.7846315,76.5034591 C22.2080664,75.6256204 22.6369229,74.9676264 22.9445897,74.5784649 C23.3994704,74.0030956 24.2346529,73.9054203 24.8100221,74.360301 Z M17.606789,74.9784295 L17.5888419,74.996122 C17.5010172,75.0844816 17.4103113,75.1832536 17.3186239,75.2928104 C16.5471811,76.2146034 16.097599,77.4908419 16.1560722,79.2424492 C16.3307218,78.1816994 16.6621956,77.1120536 17.1107681,76.051943 C17.2785807,75.6553517 17.4468586,75.2955166 17.606789,74.9784295 Z M17.2666544,69.2282096 C17.5868425,69.8880927 17.3114653,70.6825974 16.6515822,71.0027855 L16.5302384,71.0662846 L16.2607112,71.2250652 L16.0290589,71.3736733 C15.9872892,71.4013107 15.9439997,71.4303865 15.8992814,71.4609065 C15.2863848,71.8792056 14.6707333,72.3965475 14.0972436,73.014223 C12.836794,74.3717866 11.9648314,76.008357 11.6411145,77.9539663 C11.5207336,78.6774818 10.8366204,79.1664189 10.113105,79.046038 C9.38958953,78.9256571 8.90065238,78.241544 9.02103328,77.5180285 C9.43562925,75.0262164 10.5544816,72.9262633 12.1507669,71.2069887 C13.3818917,69.8810091 14.6185767,69.0369774 15.4920785,68.6131374 C16.1519616,68.2929493 16.9464663,68.5683265 17.2666544,69.2282096 Z M29.8791647,76.9557445 C30.5658885,76.698108 31.3314438,77.045952 31.5890802,77.7326758 L31.6673397,77.9548794 L31.7557485,78.2353177 L31.850618,78.5701162 L31.9482594,78.9554006 C32.2561559,80.2437969 32.3864777,81.5663188 32.2311934,82.8398779 C32.1275277,83.690088 31.8974004,84.4815703 31.5197433,85.1959571 C31.1769539,85.8443871 30.3734117,86.0921578 29.7249816,85.7493684 C29.1170784,85.4280033 28.8613172,84.7016798 29.1141715,84.0778547 L29.1715703,83.9546067 C29.3881186,83.5449778 29.5281892,83.0632298 29.5946197,82.5184019 C29.7062821,81.6026071 29.6054475,80.5793243 29.3649027,79.5727624 L29.3211088,79.3953992 L29.2371049,79.0851064 L29.1623559,78.8396309 L29.1022333,78.6656601 C28.8445968,77.9789363 29.1924408,77.213381 29.8791647,76.9557445 Z M33.1694778,77.2589744 C33.775107,76.8452362 34.6014677,77.0007946 35.0152059,77.6064238 C35.2070054,77.8871795 35.4689437,78.3443836 35.7269014,78.9399554 C36.3724429,80.4303796 36.6338863,81.9849745 36.2537799,83.5070818 C36.1674827,83.8526523 36.0482655,84.1893806 35.8948403,84.5153148 C35.5824604,85.1789298 34.7912602,85.4636622 34.1276451,85.1512823 C33.46403,84.8389024 33.1792977,84.0477021 33.4916776,83.3840871 C33.5706283,83.2163653 33.6319982,83.0430265 33.676817,82.8635528 C33.8924731,81.9999745 33.7240996,80.998792 33.2895976,79.9956151 C33.2435309,79.8892566 33.1977131,79.78982 33.1532891,79.6981356 L33.0253443,79.4471694 L32.9126337,79.2476979 C32.878366,79.1903434 32.8477825,79.1424015 32.8220283,79.1047026 C32.4082901,78.4990733 32.5638485,77.6727127 33.1694778,77.2589744 Z M39.5970604,77.747371 L39.7789939,78.1685442 L39.8678946,78.3664751 L40.0707933,78.7945817 C40.1073794,78.8692621 40.1453441,78.9455225 40.1846778,79.0232363 C40.6347578,79.912484 41.1661772,80.8014937 41.7713267,81.6245907 C42.4741321,82.5805147 43.2292818,83.3807442 44.0230393,83.9759227 C44.6098583,84.4159337 44.7288696,85.2483439 44.2888587,85.8351628 C43.8488477,86.4219818 43.0164375,86.5409931 42.4296186,86.1009821 C41.4078006,85.3347984 40.4779882,84.3494795 39.6313516,83.1979228 C38.9319688,82.2466539 38.3269722,81.2345572 37.8148345,80.2226986 L37.6231801,79.8354544 L37.4603033,79.490484 L37.3263134,79.1918732 L37.1797301,78.839819 C36.912283,78.1568562 37.2491251,77.3863967 37.9320879,77.1189496 C38.5723655,76.868218 39.2895445,77.1485999 39.5970604,77.747371 Z M45.4766598,75.3812379 L45.5458712,75.50067 L45.6498119,75.6682053 L45.7875733,75.8786131 C45.8133015,75.9169632 45.8404009,75.9568817 45.8688528,75.9982596 C46.2061196,76.4887515 46.5976706,76.9798321 47.0345125,77.4339771 C48.0934847,78.5348951 49.2201636,79.2168612 50.3516745,79.3395282 L50.5780225,79.3565627 C51.3108401,79.3872966 51.8799914,80.0062773 51.8492576,80.7390948 C51.8185238,81.4719124 51.1995431,82.0410637 50.4667255,82.0103299 C49.7526069,81.9803803 49.0670056,81.8306001 48.4097693,81.5769698 C48.5796814,81.867761 48.638222,82.2223932 48.5475139,82.5735407 C48.3640687,83.2836913 47.639666,83.7106704 46.9295153,83.5272251 C44.9995633,83.0286822 43.5203108,81.9190997 42.4581555,80.4064048 C41.5818466,79.1583877 41.1453219,77.9204982 40.9880312,77.036216 C40.8595837,76.314089 41.340856,75.6245621 42.0629829,75.4961146 C42.4119274,75.4340465 42.7532598,75.5143475 43.0273512,75.6953982 C43.11268,75.3519855 43.3369562,75.043106 43.6728025,74.8582346 C44.3153473,74.5045366 45.1229617,74.7386931 45.4766598,75.3812379 Z M44.2841402,78.3254594 L44.2990304,78.3524927 C44.4005842,78.5321081 44.5114416,78.7085148 44.6319083,78.8800804 C45.1628438,79.6362254 45.8286915,80.2287021 46.6581167,80.6197246 C46.1241392,80.2374882 45.6112095,79.7857054 45.1202529,79.2753021 C44.8118123,78.9546442 44.5328606,78.6346417 44.2841402,78.3254594 Z" id="Combined-Shape" fill="#27820D"></path>
                        <path d="M133.2289,28.1406585 C132.430238,30.1858271 127.692312,34.7393349 118.828969,40.0447429 C114.139083,42.8538421 108.302247,45.861443 101.270421,48.8149071 C101.030222,48.9111504 100.790023,49.0254392 100.537814,49.1036368 C95.4515997,51.1307598 88.9121816,52.4119978 81.8143007,53.1458524 C74.7824745,53.8676766 67.1741707,54.0421175 59.8841306,53.849631 C56.4733046,53.7714334 53.1045134,53.5969926 49.8978566,53.3563845 C49.8798417,53.3563845 49.8798417,53.3563845 49.8678317,53.3563845 C48.7028665,53.2781869 47.5559162,53.1819436 46.4209758,53.0857004 C46.4209758,53.0857004 46.4209758,53.0857004 46.4029609,53.0857004 C36.9931645,52.2255266 29.2887811,50.8480453 25.8419253,49.4404881 C22.4431092,48.0690221 19.2544673,46.5351456 16.5282085,45.1275884 C11.26785,42.3966868 7.69488969,40.1109101 7.69488969,40.1109101 L8.61965589,15.875662 L127.650278,7.62882032 C127.644273,7.62882032 134.47193,25.0428296 133.2289,28.1406585 Z" id="Path" fill="#D31111"></path>
                        <path d="M25.0732884,24.5676286 C25.0732884,24.5676286 10.1749445,46.487024 16.2279597,71.9794493 C16.2279597,71.9794493 19.1764026,78.3555632 30.6579155,80.0638805 C42.1394284,81.7721978 46.0186425,76.6412307 46.1747719,74.4697428 C46.3309012,72.2922398 44.7756126,56.2797726 47.7240555,46.0238535 C50.6724984,35.7619192 53.7770707,31.1001378 53.7770707,31.1001378 C53.7770707,31.1001378 28.6402438,22.3961408 25.0732884,24.5676286 Z" id="Path" fill="#BF0C0C"></path>
                        <path d="M126.407248,10.7326645 C126.407248,10.7326645 130.598721,29.3196381 129.667949,32.4294974 C129.667949,32.4294974 136.651736,27.677488 134.634064,22.3901256 C132.616392,17.1027632 132.154009,14.9312753 132.772522,10.1070835 C133.391034,5.28890682 128.274795,0.157939675 125.788735,0.00154442821 C123.302675,-0.148835617 126.407248,10.7326645 126.407248,10.7326645 Z M9.42432259,4.36256574 C9.42432259,4.36256574 1.48574515,7.94161082 0.398844613,12.9161827 C-0.688055929,17.8907546 1.01735708,21.4637845 0.242715254,25.5060001 C0.236710278,25.5481065 0.224700327,25.5841977 0.218695352,25.6263041 C-0.676045978,30.360268 1.22152624,35.1964902 5.05270052,38.1078479 L7.69488969,40.1169253 C7.69488969,40.1169253 8.16327777,19.4426767 10.3310739,16.8020031 C12.49887,14.1613295 9.42432259,4.36256574 9.42432259,4.36256574 Z M18.6359548,42.8478269 C24.7069849,43.744092 43.5505976,46.7877841 47.5739311,50.6856349 L49.9038616,38.558988 C49.9038616,38.558988 41.6770453,30.5587696 21.5003281,31.0279554 L17.4829995,40.7966431 C17.1046861,41.6989234 17.6751587,42.7034621 18.6359548,42.8478269 Z M14.9128701,54.0120415 C14.9128701,54.0120415 14.3303875,63.3356043 15.2611587,66.8905886 C15.2611587,66.8905886 25.9980546,68.4124346 29.2587562,69.9643567 C31.7928558,71.1734123 40.6802194,74.2531956 44.5173986,75.5645096 C45.3821151,75.8592545 46.2768564,75.1975823 46.2408266,74.2832716 L45.8625131,62.8122817 C45.8685181,62.8122817 32.2972738,53.8556462 14.9128701,54.0120415 Z M81.8082957,53.1458524 C74.7764695,53.8676766 67.1681657,54.0421175 59.8781256,53.849631 L60.4125685,32.3152086 C65.9971955,30.7632865 81.1357384,31.3768371 81.1357384,31.3768371 L81.8082957,53.1458524 Z M118.822964,40.0447429 C114.133078,42.8538421 108.296242,45.861443 101.264416,48.8149071 C101.024217,48.9111504 100.784018,49.0254392 100.531809,49.1036368 C101.060247,42.8418117 97.8535899,27.0579222 97.8535899,27.0579222 C97.8535899,27.0579222 115.538242,15.2380506 118.49269,20.525413 C120.786591,24.6157502 118.5047,35.2385966 118.822964,40.0447429 Z" id="Green" fill="#27820D"></path>
                        <path d="M53.4708169,31.8760988 C53.4708169,31.8760988 49.549568,48.9171656 51.0988517,53.4225517 L46.3309012,53.4827037 C46.3309012,53.4827037 50.0539859,32.0324941 53.4708169,31.8760988 Z" id="Path" fill="#990707"></path>
                        <path d="M53.4708169,31.8760988 L25.0732884,24.5676286 L22.1248455,30.9437425 C22.1248455,30.9437425 43.5385877,31.5633083 49.9038616,38.558988 L53.4708169,31.8760988 Z" id="Path" fill="#BF0C0C"></path>
                    </g>
                    <path d="M147.118666,52.6731042 C147.118666,52.6731042 144.104168,55.7889788 138.423461,59.7830728 C122.744471,70.7908921 86.6665787,88.3793422 37.4137707,64.7696751 C33.696691,62.9951905 29.9195615,60.9981435 26.0763772,58.7304124 C26.0763772,58.7304124 32.9040342,3.86575672 82.5531706,0.1303164 C82.5531706,0.1303164 106.921361,-2.2035819 124.149635,12.8825442 C141.371904,27.9626552 147.118666,52.6731042 147.118666,52.6731042 Z" id="Head" fill="#3D3C3E"></path>
                    <g id="Face" transform="translate(35.005776, 15.137523)">
                        <path d="M103.418398,43.9116953 L103.418398,44.6455499 C87.7386951,55.6533693 51.6608031,73.2418193 2.40799512,49.6321522 L0,48.4952791 C0,48.4952791 1.6093334,20.7411379 11.5475676,10.9483894 C21.4858019,1.15564085 31.7242849,-0.233870772 40.2573549,6.28059279 C48.7904249,12.813102 46.4604944,25.5653298 46.4604944,25.5653298 C50.8141016,34.7385126 55.6180819,25.2465241 55.6180819,25.2465241 C61.0585896,-6.46561985 81.2353068,0.692470307 81.2353068,0.692470307 C103.880069,9.56489298 103.418398,43.9116953 103.418398,43.9116953 Z" fill="#FFFFFF"></path>
                        <path d="M50.8080966,24.7893688 C50.8080966,24.7893688 43.3619271,25.1021593 43.4099669,29.5594238 C43.4640117,34.0166883 49.6191115,39.1476555 52.5135096,38.6243329 C55.4079077,38.1010104 59.1850372,31.8873069 59.0289079,29.1443749 C58.8787835,26.3954276 55.9303406,24.6871103 50.8080966,24.7893688 Z" id="Path" fill="#FC8C39"></path>
                        <path d="M48.8985144,26.8104766 C48.8985144,26.8104766 47.3972706,27.1713887 47.7095293,28.4165355 C48.021788,29.6616822 49.3068528,27.538316 48.8985144,26.8104766 Z" id="Path" fill="#A34200"></path>
                        <path d="M54.0147534,26.762355 C54.0147534,26.762355 52.2552957,26.4495645 52.8738081,27.3819207 C53.4923206,28.314277 55.095649,29.0421164 54.9935644,28.0014865 C54.8974848,26.9668718 54.0147534,26.762355 54.0147534,26.762355 Z" id="Path" fill="#A34200"></path>
                        <ellipse id="Oval" fill="#2B2C2D" cx="74.3175752" cy="27.4360576" rx="3.02650759" ry="3.88582037"></ellipse>
                        <ellipse id="Oval" fill="#2B2C2D" cx="28.5416479" cy="29.2225725" rx="3.02650759" ry="3.88582037"></ellipse>
                        <ellipse id="Oval" fill="#F13645" opacity="0.25" cx="74.3956398" cy="37.3852014" rx="6.98378635" ry="4.19861086"></ellipse>
                        <ellipse id="Oval" fill="#F13645" opacity="0.25" cx="27.4547474" cy="38.3957553" rx="6.98378635" ry="4.19861086"></ellipse>
                    </g>
                </g>
            </g>
        </g>
    </g>
</svg>