<?xml version="1.0" encoding="UTF-8"?>
<svg width="447px" height="338px" viewBox="0 0 447 338" version="1.1" xmlns="http://www.w3.org/2000/svg" xmlns:xlink="http://www.w3.org/1999/xlink">
    <title>decoration-25</title>
    <g id="decoration-25" stroke="none" stroke-width="1" fill="none" fill-rule="evenodd">
        <g id="Christmas/Ground/Snow-3" transform="translate(-0.000000, 295.845939)" fill="#E5ECEE">
            <path d="M0,42.0785153 C21,-7.97764062 112,-5.3431061 197,9.14683379 C282,23.6367737 414,-11.9294424 447,42.0785153 L0,42.0785153 Z" id="Path-2"></path>
        </g>
        <g id="Christmas/Snowman/Snowman-3" transform="translate(106.313532, 4.000000)">
            <g id="Stickers-07-Copy" transform="translate(0.000000, 46.995710)">
                <path d="M66.380735,123.564237 C66.380735,141.871124 51.520318,156.711033 33.1903675,156.711033 C14.8594157,156.711033 0,141.871124 0,123.564237 C0,105.25835 14.8594157,90.4174419 33.1903675,90.4174419 C51.520318,90.4174419 66.380735,105.25835 66.380735,123.564237" id="Mask" fill="#ECF0F2"></path>
                <path d="M66.380735,123.564237 C66.380735,141.871124 51.520318,156.711033 33.1903675,156.711033 C18.8566129,156.711033 6.64547491,147.637401 2.00157561,134.927613 C3.25088121,135.871821 4.57655195,136.734861 5.97649382,137.509843 C25.080897,148.085679 50.7838976,138.256044 63.3850464,115.552832 C63.8414462,114.730545 64.2743971,113.902647 64.684091,113.070121 C65.7842585,116.368286 66.380735,119.896722 66.380735,123.564237 Z" id="Combined-Shape" fill="#E5ECEE"></path>
                <path d="M215.40145,190.735823 C215.40145,244.082493 172.098869,277.00029 118.682073,277.00029 C65.2652775,277.00029 21.9626971,244.082493 21.9626971,190.735823 C21.9626971,137.389152 65.2652775,94.1434189 118.682073,94.1434189 C172.098869,94.1434189 215.40145,137.389152 215.40145,190.735823" id="Fill-3" fill="#ECF0F2"></path>
                <path d="M176.258304,57.5006451 C176.258304,89.257449 150.480622,106.234344 118.682073,106.234344 C86.8835246,106.234344 61.1058427,89.257449 61.1058427,57.5006451 C61.1058427,25.7438411 86.8835246,0 118.682073,0 C150.480622,0 176.258304,25.7438411 176.258304,57.5006451" id="Fill-4" fill="#ECF0F2"></path>
                <path d="M107.338251,49.5956939 L71.8598942,50.9586854 C70.3709487,51.0156851 69.8642867,52.5126758 71.1379509,53.1086722 C80.8035803,57.6316442 104.297278,68.4515775 109.260763,69.1445732 C113.726599,69.7685693 113.578405,59.5346325 113.116802,53.5566694 C112.938569,51.2426837 110.351188,49.4796946 107.338251,49.5956939" id="Fill-7" fill="#FD0E20"></path>
                <path d="M134.952333,42.3627385 C134.952333,44.6657243 133.830867,46.5327128 132.447059,46.5327128 C131.063251,46.5327128 129.941786,44.6657243 129.941786,42.3627385 C129.941786,40.0587527 131.063251,38.1917642 132.447059,38.1917642 C133.830867,38.1917642 134.952333,40.0587527 134.952333,42.3627385 M96.7544222,38.9597595 C96.7544222,41.2027457 95.6619948,43.0207344 94.3152351,43.0207344 C92.967474,43.0207344 91.8750466,41.2027457 91.8750466,38.9597595 C91.8750466,36.7177733 92.967474,34.8997846 94.3152351,34.8997846 C95.6619948,34.8997846 96.7544222,36.7177733 96.7544222,38.9597595 M124.798065,82.7294893 C121.660966,82.7294893 118.32761,79.6615083 117.581636,78.9325128 C116.960824,78.3285165 116.94981,77.3345226 117.555602,76.7145265 C118.165398,76.0935303 119.160699,76.0815304 119.779507,76.6855266 C121.331535,78.1915173 124.173248,80.0585058 125.267678,79.4885093 C125.473948,79.38051 127.239255,78.1905173 125.816395,69.4235715 C125.678215,68.5655768 126.259975,67.7605817 127.117095,67.6205826 C127.988233,67.4825834 128.782271,68.0645798 128.922454,68.9205746 C130.168081,76.6075271 129.468167,80.8505009 126.716572,82.2774921 C126.101768,82.5964901 125.453922,82.7294893 124.798065,82.7294893" id="Face" fill="#000000"></path>
                <path d="M234.798795,138.100148 C234.798795,155.699039 220.513129,169.965951 202.891103,169.965951 C185.269078,169.965951 170.983412,155.699039 170.983412,138.100148 C170.983412,120.501256 185.269078,106.234344 202.891103,106.234344 C220.513129,106.234344 234.798795,120.501256 234.798795,138.100148" id="Mask" fill="#ECF0F2"></path>
                <path d="M170.992281,137.321758 C174.080859,144.57206 179.220113,150.639161 186.211995,154.509738 C201.25708,162.838412 220.394526,158.511888 234.00246,145.208809 C230.767983,159.38537 218.066693,169.965951 202.891103,169.965951 C185.269078,169.965951 170.983412,155.699039 170.983412,138.100148 L170.987687,137.573191 L170.987687,137.573191 Z" id="Combined-Shape" fill="#E5ECEE"></path>
                <path d="M96.7544222,133.717175 C96.7544222,139.32514 92.2024745,143.870112 86.5881386,143.870112 C80.9738027,143.870112 76.421855,139.32514 76.421855,133.717175 C76.421855,128.110209 80.9738027,123.564237 86.5881386,123.564237 C92.2024745,123.564237 96.7544222,128.110209 96.7544222,133.717175" id="Fill-13" fill="#000000"></path>
                <path d="M78.292299,178.493898 C78.292299,184.101864 73.7413526,188.646836 68.1260155,188.646836 C62.5116796,188.646836 57.9597319,184.101864 57.9597319,178.493898 C57.9597319,172.886933 62.5116796,168.340961 68.1260155,168.340961 C73.7413526,168.340961 78.292299,172.886933 78.292299,178.493898" id="Fill-14" fill="#000000"></path>
                <path d="M78.292299,223.270622 C78.292299,228.877587 73.7413526,233.423559 68.1260155,233.423559 C62.5116796,233.423559 57.9597319,228.877587 57.9597319,223.270622 C57.9597319,217.663656 62.5116796,213.117684 68.1260155,213.117684 C73.7413526,213.117684 78.292299,217.663656 78.292299,223.270622" id="Fill-15" fill="#000000"></path>
            </g>
            <g id="Christmas/Stuffs/Beanie-1-Small" transform="translate(82.058742, 0.734676)">
                <path d="M145.906705,48.6265669 C141.959364,49.1147565 138.763244,49.5973943 135.683496,49.7950389 C130.455706,50.1266673 125.55961,49.6555033 117.874692,47.0391179 C108.728468,43.928621 100.344955,40.9517377 97.8066644,52.9521711 C96.7470974,57.9465839 97.178114,62.7200345 95.6760416,65.9004843 C94.4474777,68.499474 91.9325349,70.0402878 86.2503802,69.7726903 C84.5096366,69.6912637 78.926434,68.1796895 71.5213248,65.9119581 C48.9850511,58.9932861 9.57686935,44.9753232 10.3162314,42.4225986 C10.7935739,40.7774107 11.2942647,39.06227 11.8068149,37.2886501 L11.812374,37.2886501 C26.8735882,1.98361483 49.3676274,0 71.5635907,0 C88.4464806,0 105.32937,9.91807417 111.288037,19.8361483 C117.246704,29.7542225 127.026474,37.1550365 135.578984,44.2017703 C137.243754,45.5797308 139.095309,46.6671463 141.150328,47.388142 C142.611633,47.8937273 144.171891,48.2194338 145.848519,48.3182561 C146.942923,48.3937608 148.089954,48.3648913 149.28331,48.2368295 C148.095883,48.3648913 146.972201,48.498505 145.906705,48.6265669 Z" id="Fill-1" fill="#60922E"></path>
                <path d="M144.498025,60.2198671 C140.003297,58.7197667 136.667459,54.7021032 135.683496,49.7950389 C130.455706,50.1266673 125.55961,49.6555033 117.874692,47.0391179 C108.728468,43.928621 100.344955,40.9517377 97.8066644,52.9521711 C96.7470974,57.9465839 97.178114,62.7200345 95.6760416,65.9004843 C95.7924124,65.9700671 95.9147129,66.0400199 96.0310837,66.1096027 C101.31743,69.2900525 100.612905,76.999673 98.0453356,81.7031708 C96.2756846,84.9535734 92.7011749,87.6280678 88.8702048,87.5407193 C86.7162338,87.4885322 84.631937,86.7849322 82.5884071,86.0813321 C78.5424846,84.6918979 74.5021213,83.2965417 70.4617579,81.9011855 C70.5373618,76.6798885 70.7819628,71.2202335 71.5213248,65.9119581 C71.911204,63.1327194 72.435243,60.3886423 73.1397679,57.7430174 C75.8003595,47.8182226 81.0400088,39.2425189 91.3503105,34.9398622 C98.0861024,32.1313841 106.632683,33.666646 112.466045,37.6724656 C117.018959,40.8007284 120.348868,45.1729678 125.530332,46.7078596 C128.517058,47.5913384 132.010034,48.2834647 135.450754,48.2486733 C137.400891,48.2253557 139.33398,47.9751539 141.150328,47.388142 C142.465984,46.9695352 143.717897,46.3762312 144.876416,45.5797308 C145.32448,46.2774089 145.644685,47.2252888 145.848519,48.3182561 C145.871868,48.4170784 145.889286,48.5218226 145.906705,48.6265669 C146.471511,52.0683221 145.941542,56.8476947 144.498025,60.2198671" id="Fill-3" fill="#577C2C"></path>
                <path d="M98.0453356,81.7031708 C96.2756846,84.9535734 92.7011749,87.6280678 88.8702048,87.5407193 C86.7162338,87.4885322 84.631937,86.7849322 82.5884071,86.0813321 C78.5424846,84.6918979 74.5021213,83.2965417 70.4617579,81.9011855 C58.3347381,77.7032731 46.2195777,73.4761211 34.1044173,69.2434172 C25.4588847,66.2261908 2.34038659,62.6271342 1.1062635,50.7717882 C0.669687819,46.5857197 6.46228361,37.3352854 11.4747505,37.2771764 C11.5855622,37.2771764 11.6960032,37.2771764 11.8068149,37.2886501 L11.812374,37.2886501 C12.086253,37.3064159 12.3597613,37.3526811 12.6217809,37.4341077 C31.618382,43.1261986 49.8930396,50.9054019 68.912989,56.5453058 C70.3161091,56.9579907 71.7247884,57.3536501 73.1397679,57.7430174 C80.865082,59.8652912 88.7245561,61.8128679 95.6760416,65.9004843 C95.7924124,65.9700671 95.9147129,66.0400199 96.0310837,66.1096027 C101.31743,69.2900525 100.612905,76.999673 98.0453356,81.7031708" id="Mask" fill="#F7F5E7"></path>
                <g id="Fill-4-Copy" transform="translate(1.083004, 37.277176)"></g>
                <path d="M161.78872,47.9518363 C160.886291,55.8591015 154.26687,61.6037496 147.001109,60.7720877 C146.133887,60.6732654 145.295573,60.4874646 144.498025,60.2198671 C140.003297,58.7197667 136.667459,54.7021032 135.683496,49.7950389 C135.573055,49.2890835 135.497451,48.7716543 135.450754,48.2486733 C135.340313,47.1786535 135.345872,46.0797643 135.474103,44.9634793 C135.50301,44.7077257 135.538218,44.4519721 135.578984,44.2017703 C136.807178,36.6897944 143.240183,31.3408056 150.261343,32.137306 C157.527104,32.963046 162.691149,40.0445711 161.78872,47.9518363" id="Fill-5" fill="#F7F5E7"></path>
                <path d="M12.5984326,51.5101796 C12.4483365,51.5101796 12.2982405,51.4528109 12.184464,51.3377033 C11.9698822,51.1211825 11.7341758,50.9091031 11.4966164,50.6948031 C10.4348258,49.7384104 9.23146313,48.654326 9.50867757,46.929192 C9.5594508,46.6123684 9.85853108,46.3954775 10.1757711,46.4476645 C10.4930112,46.4983711 10.7090754,46.7966886 10.6579315,47.1138823 C10.4811517,48.2146222 11.3131657,48.9637471 12.2763746,49.8316809 C12.530982,50.0607858 12.7829952,50.2880401 13.0127718,50.520106 C13.2388424,50.7484706 13.2362482,51.1163709 13.0079539,51.3425148 C12.894548,51.4542914 12.746305,51.5101796 12.5984326,51.5101796 M20.4234401,47.0450398 C20.3815615,47.0450398 20.3389416,47.0402283 20.2963217,47.0309752 C19.9601807,46.9558407 19.5940205,46.9006926 19.2197068,46.843694 C17.8065803,46.6279135 16.2048145,46.3832635 15.4484046,45.0808077 C15.2868197,44.8032169 15.3816952,44.4471605 15.6596508,44.2861579 C15.9372359,44.1240449 16.2933897,44.219166 16.4553452,44.4971268 C16.9323171,45.3180552 18.1846,45.5090377 19.3957454,45.6940982 C19.7826597,45.7533175 20.1821746,45.8140174 20.5498173,45.8958141 C20.8637219,45.9661371 21.0612557,46.2766686 20.9912109,46.5901611 C20.9308018,46.8610897 20.6902776,47.0450398 20.4234401,47.0450398 M11.2008716,59.3245444 C11.0959896,59.3245444 10.9896253,59.2960451 10.8940085,59.2368257 C9.94043535,58.6446321 9.27408299,57.8518329 8.6299671,57.0853123 C8.1678195,56.5349424 7.73087321,56.0152925 7.19163925,55.5585632 C6.94666767,55.3509253 6.91664845,54.9841354 7.12418868,54.7391153 C7.3320995,54.4940952 7.69937157,54.4641154 7.94508437,54.6717533 C8.55918106,55.1925135 9.04875361,55.7747139 9.52164883,56.3376679 C10.1342631,57.0668063 10.7127815,57.7552314 11.5084758,58.2493429 C11.7819842,58.4188583 11.8653709,58.7775056 11.6956326,59.0499146 C11.5851916,59.2272026 11.3950699,59.3245444 11.2008716,59.3245444 M24.6150114,55.6966183 L19.3053172,55.6966183 C18.9836298,55.6966183 18.7230927,55.4364233 18.7230927,55.1151582 C18.7230927,54.7942633 18.9836298,54.5336981 19.3053172,54.5336981 L24.6150114,54.5336981 C24.9363281,54.5336981 25.1972358,54.7942633 25.1972358,55.1151582 C25.1972358,55.4364233 24.9363281,55.6966183 24.6150114,55.6966183 M31.0420873,53.4636783 C30.8942149,53.4636783 30.7463424,53.40779 30.6329365,53.2960135 C29.5989415,52.2755899 28.4270805,51.1193319 26.9516919,50.6452069 C26.6451994,50.5467547 26.4769436,50.2191976 26.5755252,49.9134776 C26.6737362,49.6077577 27.0017239,49.4386124 27.3078457,49.5381749 C29.0482187,50.0974278 30.3805528,51.4124677 31.4508674,52.468793 C31.6799028,52.6945669 31.6821265,53.0624671 31.4560559,53.2908318 C31.3422794,53.4063096 31.1921833,53.4636783 31.0420873,53.4636783 M29.0867619,62.6737694 L28.9992985,62.6671072 C28.7150425,62.6245433 28.4118856,62.5864208 28.0972398,62.547188 C26.4169052,62.336219 24.3248257,62.0734331 23.0840316,60.8276058 C22.8572198,60.5996113 22.8583316,60.231711 23.0862553,60.005197 C23.3138083,59.7786829 23.6825628,59.7794231 23.9097452,60.0074177 C24.8677657,60.9697323 26.660765,61.1947659 28.2428885,61.3931507 C28.5667995,61.433864 28.8795923,61.473467 29.1723722,61.5171413 C29.4903535,61.5648869 29.7093826,61.8609837 29.6615742,62.1789176 C29.6182131,62.4668718 29.3699061,62.6737694 29.0867619,62.6737694 M90.2851844,73.2784764 C90.1310117,73.2784764 89.9768389,73.2177766 89.8623212,73.096747 C89.0088121,72.197353 88.2990986,71.2350384 87.5475065,70.2160952 C87.2899343,69.8670711 87.0256911,69.508794 86.7469943,69.1412638 C86.5527959,68.8851401 86.6031985,68.5205709 86.8592883,68.3269976 C87.1157488,68.1315737 87.4811678,68.1830206 87.6749955,68.4391443 C87.9566573,68.8107458 88.2242359,69.1730943 88.4851436,69.5265598 C89.2144992,70.5155231 89.9038293,71.4497086 90.707677,72.2972857 C90.9289297,72.5304619 90.9189233,72.8983622 90.6850699,73.1193244 C90.5727759,73.2259193 90.4289801,73.2784764 90.2851844,73.2784764 M87.8677114,80.5883663 C87.0575634,80.5883663 86.2655751,80.4540124 85.6170119,80.2212063 C85.3142255,80.1127608 85.1570879,79.7796519 85.2660465,79.4776332 C85.3746345,79.1752443 85.7092932,79.0172026 86.0105971,79.1271286 C87.5100752,79.6649144 89.5117265,79.4583869 90.4738236,78.6670682 C90.7217601,78.4631315 91.0886615,78.498293 91.2932369,78.746274 C91.4978123,78.9942551 91.4622339,79.3606749 91.2139269,79.5649817 C90.3359576,80.2874579 89.0810805,80.5883663 87.8677114,80.5883663 M73.2390908,78.8602713 C73.2042537,78.8602713 73.1683047,78.8569402 73.1323558,78.8506482 C71.1017971,78.4749754 69.416274,76.7920351 69.0334364,74.7578501 C68.9741392,74.4421369 69.1824207,74.1386377 69.4985489,74.0790482 C69.8165302,74.0187184 70.1185753,74.2274667 70.1782431,74.5431799 C70.4736173,76.1161942 71.7759322,77.4171695 73.3447139,77.7069743 C73.6604715,77.7654534 73.8694942,78.0689526 73.8109382,78.3846658 C73.7590531,78.6644773 73.5140816,78.8602713 73.2390908,78.8602713 M78.698881,70.8034773 C77.182355,70.8034773 75.5828128,70.5910278 74.1934052,70.1853752 C73.8846891,70.0954358 73.7075387,69.7723202 73.7975963,69.4643795 C73.887654,69.1564388 74.2119355,68.9802612 74.5195398,69.0690902 C76.4574466,69.6346351 78.8308173,69.7956378 80.7135036,69.4895477 C81.0311142,69.4351399 81.3301945,69.6531412 81.381709,69.9699648 C81.433594,70.2871585 81.2179004,70.5858461 80.9006604,70.6372929 C80.2131834,70.7490695 79.4667798,70.8034773 78.698881,70.8034773 M63.821212,66.5915002 C63.6929818,66.5915002 63.5610456,66.587799 63.4235502,66.5796564 C63.1022334,66.5604101 62.8580031,66.2854102 62.876904,65.9648854 C62.895805,65.6439905 63.1707958,65.3923082 63.4924832,65.4189569 C65.158364,65.5155585 65.8380583,64.8745089 66.8772418,63.9010907 C67.170763,63.626831 67.4820733,63.3355458 67.8360035,63.0409294 C68.0817163,62.8355123 68.4497296,62.8688232 68.6557874,63.1153238 C68.8614745,63.3618243 68.8284905,63.7286143 68.5812952,63.9340314 C68.246266,64.2131027 67.951633,64.4895831 67.6736774,64.7497781 C66.6226344,65.7335597 65.7057514,66.5915002 63.821212,66.5915002 M56.7511321,58.4873307 C56.4298153,58.4873307 56.1689076,58.2271356 56.1689076,57.9058706 L56.1689076,55.3942295 C56.1689076,55.0733346 56.4298153,54.8127694 56.7511321,54.8127694 C57.0728194,54.8127694 57.3333565,55.0733346 57.3333565,55.3942295 L57.3333565,57.9058706 C57.3333565,58.2271356 57.0728194,58.4873307 56.7511321,58.4873307 M49.2059332,58.7667721 C49.1477479,58.7667721 49.0877094,58.757519 49.0287828,58.739013 C46.2499675,57.8503525 44.7438185,55.0911004 43.5337849,52.8740755 L43.3855419,52.603147 C43.2313691,52.3214849 43.3351392,51.9680193 43.6171716,51.814049 C43.8995745,51.6600787 44.2531341,51.7637125 44.4073069,52.0450045 L44.5559205,52.3174136 C45.7248166,54.4585636 47.0489974,56.8850769 49.3834542,57.6312408 C49.6899467,57.7289528 49.8585731,58.0565099 49.7607327,58.3622298 C49.6814227,58.6091005 49.4527579,58.7667721 49.2059332,58.7667721 M37.7493425,59.6036157 C37.5603326,59.6036157 37.3746582,59.5118257 37.2627348,59.3423102 C36.2342988,57.7866916 36.5015069,55.6485026 36.9065809,54.1284156 C36.989597,53.8182542 37.3064665,53.633934 37.6188886,53.7161008 C37.9298283,53.7986378 38.1143909,54.117312 38.0317454,54.4274734 C37.7504543,55.4834286 37.4024538,57.4428492 38.2344677,58.7020009 C38.4116181,58.9699685 38.3374966,59.3304664 38.0691768,59.5073842 C37.9705952,59.5725255 37.8594129,59.6036157 37.7493425,59.6036157 M46.6906199,68.2551942 C46.6031565,68.2551942 46.5138401,68.2352076 46.4300828,68.1930138 C44.3583867,67.1548244 42.6143076,66.2384048 41.0974109,65.3900875 C40.816861,65.2335263 40.7164264,64.8793205 40.873564,64.5991389 C41.0307016,64.3189573 41.3864848,64.2193947 41.6659229,64.3755858 C43.167254,65.2146501 44.8965088,66.1236673 46.9522688,67.1540842 C47.2398603,67.2980612 47.3558604,67.6474555 47.2113235,67.9346694 C47.1094064,68.1378658 46.9040898,68.2551942 46.6906199,68.2551942 M54.2365599,68.8133366 C54.0690453,68.8133366 53.9030132,68.7415332 53.7881248,68.6027378 C53.4041754,68.1404566 52.9865007,67.6885389 52.5439953,67.2107127 C51.798333,66.4053294 51.0270987,65.5718169 50.4011425,64.6516961 C50.2202861,64.3859492 50.2895897,64.0239708 50.5556859,63.8437219 C50.8217821,63.6638431 51.1842363,63.7326856 51.3643515,63.9980624 C51.9413875,64.8467498 52.6826025,65.6473216 53.3989869,66.4216147 C53.8322271,66.8898178 54.2806622,67.373936 54.6846244,67.8613854 C54.889941,68.1086262 54.8554745,68.475046 54.6075381,68.679723 C54.4989501,68.7696624 54.3673844,68.8133366 54.2365599,68.8133366 M57.4486155,74.9551246 C57.397101,74.9551246 57.3448453,74.9543844 57.2925897,74.9525337 C56.9712729,74.9429106 56.7185186,74.674943 56.7281544,74.3544182 C56.7374196,74.032783 57.0068513,73.7655557 57.3274268,73.7903538 C58.5886042,73.8240348 59.6633661,73.2969825 60.9045307,72.4890083 C61.1739624,72.3139411 61.5345635,72.3894458 61.7102315,72.6588939 C61.8855289,72.9276017 61.8099249,73.2880996 61.5401227,73.4635369 C60.3467664,74.2404209 59.0266623,74.9551246 57.4486155,74.9551246 M159.628078,37.8286567 C158.552204,37.8286567 157.539705,37.6043634 156.860381,37.0887848 C156.604291,36.8944713 156.55463,36.529532 156.749199,36.2741485 C156.943397,36.0191351 157.308816,35.9687986 157.564906,36.162742 C158.812371,37.1098817 162.161181,36.5991147 163.322665,35.5642564 C163.562077,35.3499563 163.930461,35.3710532 164.144302,35.6108916 C164.358513,35.85073 164.337388,36.2178901 164.097605,36.43182 C163.146997,37.279027 161.310636,37.8286567 159.628078,37.8286567 M164.967421,44.7425171 L158.051143,44.7425171 C157.729456,44.7425171 157.468919,44.482322 157.468919,44.161057 C157.468919,43.8397919 157.729456,43.5795969 158.051143,43.5795969 L164.967421,43.5795969 C165.288738,43.5795969 165.549645,43.8397919 165.549645,44.161057 C165.549645,44.482322 165.288738,44.7425171 164.967421,44.7425171 M162.452108,54.9989402 C162.366497,54.9989402 162.279775,54.9800641 162.197871,54.9404611 C160.633166,54.1809728 159.19595,52.1989748 158.593713,51.1478312 C158.434351,50.8691301 158.53108,50.5138139 158.810147,50.3542917 C159.089956,50.1951397 159.444998,50.2913712 159.60473,50.5704424 C160.299619,51.7833289 161.566726,53.3411683 162.706715,53.8944992 C162.995789,54.034775 163.116607,54.3826888 162.976147,54.6713831 C162.875341,54.8782808 162.667801,54.9989402 162.452108,54.9989402 M156.164751,63.161959 C156.032073,63.161959 155.899025,63.1171744 155.789696,63.0250142 C154.368045,61.828413 154.177182,58.9059376 154.811292,57.7045248 C154.961388,57.4202719 155.313095,57.3118264 155.597721,57.4613553 C155.881977,57.6108842 155.991306,57.9624991 155.841581,58.2467521 C155.409082,59.0662 155.595127,61.3405935 156.540176,62.1359836 C156.785889,62.3428812 156.817391,62.7096711 156.610221,62.9554315 C156.494962,63.091636 156.330412,63.161959 156.164751,63.161959 M145.895586,63.7900544 L145.866308,63.7893141 C145.545362,63.7733989 145.297797,63.5006197 145.313362,63.1797248 C145.41565,61.1085277 146.308814,58.9825526 147.589263,57.7641143 C147.822375,57.543152 148.190018,57.5512947 148.412753,57.7837307 C148.634376,58.0161667 148.625482,58.384067 148.39274,58.6061396 C147.316866,59.6295241 146.564533,61.4479286 146.476699,63.2370936 C146.461504,63.5479952 146.204303,63.7900544 145.895586,63.7900544 M137.511332,60.231711 C137.370872,60.231711 137.22967,60.1810044 137.118118,60.0784809 C136.881299,59.8612199 136.865363,59.4933196 137.08291,59.2568123 C137.748892,58.5328556 138.55941,57.8707091 139.343245,57.2300297 C140.223068,56.5116248 141.05434,55.8328229 141.675849,55.0907302 C141.882277,54.8442297 142.24955,54.8123993 142.496004,55.0178164 C142.742828,55.2239738 142.775442,55.5907637 142.569013,55.8368942 C141.876718,56.6633744 140.963541,57.4091682 140.080384,58.1305341 C139.32805,58.7449349 138.550145,59.3804327 137.940866,60.0433194 C137.825978,60.1684203 137.66884,60.231711 137.511332,60.231711 M133.948311,53.3245128 C133.685551,53.3245128 133.446879,53.1453742 133.382764,52.8792572 C133.307531,52.5668751 133.499506,52.2530125 133.812298,52.1778779 C134.239609,52.0749843 134.662472,51.9606169 135.084965,51.8462495 C136.32057,51.5131406 137.597684,51.1681878 138.95596,51.1152605 C139.286172,51.1030465 139.548191,51.3528782 139.560421,51.673403 C139.573393,51.9942979 139.322862,52.2644863 139.001545,52.2770704 C137.774464,52.3251861 136.615574,52.6379383 135.388863,52.9688265 C134.955993,53.0857848 134.522753,53.202743 134.085066,53.3082275 C134.039481,53.3193311 133.993525,53.3245128 133.948311,53.3245128 M138.560152,43.4866965 C138.525314,43.4866965 138.489736,43.4837355 138.453787,43.4770733 C137.281926,43.2609227 136.349107,42.6106201 135.446678,41.9817845 C134.690268,41.4551023 133.976107,40.9569194 133.172259,40.7466907 C132.861319,40.6652641 132.675274,40.3473301 132.756808,40.0367986 C132.838342,39.7262671 133.156694,39.5397261 133.467633,39.621893 C134.47198,39.8846789 135.306217,40.466139 136.11303,41.0283528 C136.950232,41.6120336 137.741479,42.1631438 138.665404,42.3337696 C138.981532,42.3918786 139.190184,42.6953778 139.131999,43.011091 C139.080484,43.2909025 138.835513,43.4866965 138.560152,43.4866965 M142.123172,38.4634142 C141.936016,38.4634142 141.752935,38.3734748 141.640271,38.2076606 C140.801215,36.9673851 140.277917,35.474317 139.772409,34.0304749 C139.607859,33.5615316 139.445162,33.0966596 139.2732,32.6473327 C139.158683,32.3471646 139.309149,32.0110947 139.609341,31.8967273 C139.910275,31.7827301 140.246786,31.9326291 140.360934,32.2324271 C140.536602,32.6917473 140.703375,33.1669826 140.87126,33.6462893 C141.352679,35.0205486 141.850405,36.441073 142.604962,37.5562476 C142.785077,37.8223646 142.715033,38.1839729 142.448566,38.3634815 C142.348502,38.4308436 142.235096,38.4634142 142.123172,38.4634142 M151.135236,35.9517731 C150.93622,35.9517731 150.742392,35.8496197 150.633804,35.6660397 C149.755093,34.1822245 150.840973,31.1172525 151.696336,29.8181278 C151.872745,29.5505303 152.233717,29.4757658 152.502407,29.6515733 C152.771098,29.828121 152.84596,30.1886189 152.66918,30.4569566 C151.886087,31.6465255 151.111517,34.1885166 151.635927,35.0745863 C151.799735,35.3506966 151.707824,35.7071231 151.430981,35.8707166 C151.337958,35.9254945 151.236041,35.9517731 151.135236,35.9517731 M145.686564,46.626433 L145.606142,46.6208812 C145.28779,46.5768368 145.065055,46.2837009 145.108787,45.9653969 C145.362282,44.1284863 146.584917,41.9388504 148.431654,41.3085344 C148.735181,41.2041603 149.066875,41.3670135 149.170645,41.6708828 C149.274786,41.9743821 149.11246,42.3049001 148.808191,42.4089041 C147.422119,42.8819188 146.462245,44.6758953 146.262488,46.1245489 C146.222092,46.415464 145.972673,46.626433 145.686564,46.626433 M149.458607,51.2311084 L149.434147,51.2307383 C149.112831,51.2174139 148.863041,50.9464854 148.876383,50.6255904 C148.895654,50.1692312 149.086517,49.7683902 149.428959,49.4663715 C150.25912,48.7350123 151.803812,48.7442654 152.650279,48.8142182 C152.970484,48.8412371 153.208785,49.1221589 153.182101,49.4419435 C153.155418,49.7620981 152.872644,49.9997158 152.553551,49.9734372 C151.475083,49.8834978 150.552641,50.0267347 150.199452,50.3387467 C150.093458,50.431647 150.04565,50.5323199 150.03972,50.6740763 C150.026749,50.9864584 149.768806,51.2311084 149.458607,51.2311084 M150.715337,44.9523757 C150.635657,44.9523757 150.554494,44.9357202 150.477407,44.9009289 C150.183886,44.7695359 150.052691,44.4253234 150.184628,44.1325576 C150.886188,42.5702769 153.118727,42.5425178 153.85216,42.5332504 C154.187189,42.5310441 154.43772,42.7860574 154.441796,43.1073225 C154.445873,43.4282174 154.188301,43.6921137 153.866984,43.696185 C152.391966,43.7143209 151.510291,44.0215213 151.246418,44.6085333 C151.14969,44.8243138 150.937331,44.9523757 150.715337,44.9523757 M143.53074,50.8335984 C142.496004,50.8335984 141.447925,50.7614248 140.436167,50.3513308 C140.138569,50.2303012 139.995144,49.8912704 140.115962,49.5936931 C140.237151,49.2964859 140.575515,49.152879 140.874596,49.2739085 C141.942316,49.70658 143.114548,49.6843727 144.356453,49.6599447 C144.661834,49.6543929 144.965362,49.648471 145.268519,49.6495814 C145.589835,49.6506917 145.849631,49.9119971 145.848523,50.2328921 C145.847037,50.5541571 145.595765,50.8410009 145.264442,50.8125015 C144.969068,50.8110211 144.675176,50.816943 144.37869,50.8228649 C144.09814,50.8284168 143.814996,50.8335984 143.53074,50.8335984 M84.4169847,87.7909211 C84.1912847,87.7909211 83.9770735,87.6595281 83.882198,87.4396762 C83.4430281,86.4236941 83.146542,85.3384993 83.0008933,84.2140717 C82.9597558,83.8957676 83.1847146,83.6041122 83.5034371,83.5630288 C83.8173417,83.5189844 84.1141983,83.7466088 84.1557064,84.0649129 C84.287272,85.0820054 84.5548507,86.062456 84.9510301,86.9788756 C85.0785191,87.273862 84.9425062,87.6158538 84.6475026,87.7431754 C84.5718986,87.775376 84.4937004,87.7909211 84.4169847,87.7909211 M95.3146993,89.1862772 C95.2209356,89.1862772 95.1264307,89.1636999 95.0382261,89.1163244 C93.873036,88.4871187 92.5718329,87.6735927 91.7524196,86.4088892 C91.5774929,86.1394411 91.6549499,85.7793134 91.9247522,85.6049864 C92.1952957,85.429549 92.5551556,85.5083848 92.7297117,85.7770927 C93.4064411,86.8219443 94.5564363,87.5340571 95.5919137,88.0929398 C95.8746873,88.2457998 95.9799398,88.5988952 95.8272495,88.8812975 C95.721997,89.0756111 95.5214983,89.1862772 95.3146993,89.1862772 M97.5502039,71.3249778 C97.2792898,71.3249778 97.0365419,71.1354758 96.9802096,70.8601058 C96.9157238,70.5451328 97.1191874,70.2383025 97.4342038,70.1739014 C97.9341534,70.0721182 98.4363266,69.9818086 98.9388704,69.8914991 C99.8175809,69.7338276 100.726681,69.5706042 101.595385,69.3440902 C101.908178,69.2619233 102.224677,69.4488344 102.305469,69.7593659 C102.387003,70.0698974 102.200587,70.3878314 101.889648,70.4688879 C100.977212,70.7068757 100.045504,70.8745405 99.1449282,71.0359133 C98.6512789,71.1247423 98.1580003,71.2132012 97.6673159,71.313504 C97.6276609,71.3212766 97.5887471,71.3249778 97.5502039,71.3249778 M10.9210629,39.2306751 C10.6312478,39.2306751 10.3803465,39.0148945 10.344027,38.7206483 C10.2146849,37.6717254 9.64543175,36.6446396 9.0235523,35.596827 C8.85974377,35.3207168 8.95091322,34.9639201 9.22775705,34.8003266 C9.50385967,34.636363 9.86112533,34.7277829 10.0253045,35.0038932 C10.7127815,36.1616317 11.3424437,37.3067861 11.4999519,38.5777816 C11.5392363,38.8968259 11.3120538,39.1870008 10.9933314,39.2262336 L10.9210629,39.2306751 M21.422598,42.3037898 C21.3607066,42.3037898 21.2995563,42.3026794 21.2387767,42.3000886 C20.91746,42.2875044 20.6669293,42.0173161 20.6799005,41.6964212 C20.6921306,41.3758964 20.9630447,41.1253245 21.2839908,41.1382787 C22.1145223,41.1701091 22.9954564,40.9254591 24.0654004,40.3669465 C24.350027,40.2177878 24.7021041,40.3280838 24.8510884,40.6127069 C25.0000726,40.8973299 24.8896315,41.2485748 24.605005,41.3973634 C23.4379618,42.0062125 22.394331,42.3037898 21.422598,42.3037898 M4.21529012,50.3938947 L0.58222444,50.3938947 C0.260537098,50.3938947 0,50.1336996 0,49.8124346 C0,49.4915397 0.260537098,49.2309745 0.58222444,49.2309745 L4.21529012,49.2309745 C4.53660685,49.2309745 4.79751456,49.4915397 4.79751456,49.8124346 C4.79751456,50.1336996 4.53660685,50.3938947 4.21529012,50.3938947 M15.393184,65.4644818 C15.2353052,65.4644818 15.077797,65.4004508 14.9629087,65.2749798 C14.7461033,65.0377323 14.7627806,64.669832 15.00034,64.4533112 C15.3401872,64.14389 15.7245072,63.8474231 16.0965971,63.5602092 C16.8092754,63.0102094 17.5464138,62.4417035 17.9781716,61.7758558 C18.1527277,61.5060376 18.5129583,61.4294226 18.7835018,61.6041197 C19.0533041,61.7788168 19.1303904,62.1389445 18.9558343,62.4083926 C18.4154885,63.2407948 17.5986695,63.8711109 16.8081636,64.4807001 C16.4386679,64.7656933 16.0895556,65.0347713 15.7852868,65.312362 C15.6737339,65.4141453 15.5329031,65.4644818 15.393184,65.4644818 M29.3658294,71.0459065 C29.1846023,71.0459065 29.0055988,70.9615189 28.8918223,70.8031072 C28.7046655,70.542542 28.7650746,70.1790831 29.0259823,69.9918019 C29.6808458,69.5235988 30.082955,68.8918023 30.508783,68.2233638 C30.9946495,67.4612846 31.4968227,66.6729269 32.395546,66.073701 C32.6623834,65.8941923 33.0248376,65.9674762 33.2027292,66.2347036 C33.381362,66.5015608 33.3094642,66.8624288 33.0418855,67.0408271 C32.3477376,67.5038485 31.9315453,68.1563718 31.4912636,68.8473878 C31.0246687,69.5798572 30.5421377,70.3374949 29.7045647,70.9374611 C29.6019064,71.010745 29.483312,71.0459065 29.3658294,71.0459065 M43.3377335,73.8366189 C43.1909729,73.8366189 43.0442123,73.7814709 42.931177,73.6715449 C42.1970035,72.9564712 41.9423961,71.9656572 42.2140515,70.8815728 C42.2922496,70.570301 42.6098603,70.380429 42.9200588,70.4585245 C43.2317397,70.53662 43.4214908,70.8523333 43.3436632,71.1639751 C43.1720719,71.8490691 43.3066025,72.4131335 43.74429,72.8391428 C43.9744372,73.0634361 43.9788845,73.4317065 43.7542964,73.6611816 C43.6405199,73.7777697 43.4889414,73.8366189 43.3377335,73.8366189 M65.97333,58.7664019 C65.7802435,58.7664019 65.5912336,58.6705406 65.480422,58.4951033 C65.3088307,58.2234344 65.3903644,57.8644171 65.6623903,57.693051 C66.0730234,57.4347066 66.533318,57.2211468 66.9787883,57.0146192 C67.5769488,56.7370285 68.1958634,56.4501847 68.6809887,56.0585967 C68.9300369,55.8557704 69.297309,55.8950032 69.4996607,56.1448349 C69.7020124,56.3942964 69.6630986,56.7607162 69.4129386,56.9624322 C68.8162604,57.4446998 68.1313777,57.7622637 67.469102,58.0694641 C67.0380855,58.2693294 66.6307878,58.457721 66.2831579,58.6768327 C66.1868,58.7375325 66.0793238,58.7664019 65.97333,58.7664019 M80.5041103,62.6737694 C80.3710622,62.6737694 80.2372729,62.6282445 80.1279437,62.5357143 C79.8826015,62.3277063 79.8525823,61.9609163 80.0604931,61.7158962 C80.4255415,61.2861858 80.8954719,60.9490055 81.3494661,60.6229289 C81.9861698,60.1654593 82.5876659,59.733158 82.7347971,59.1572497 C82.8141071,58.8463481 83.1306059,58.6579565 83.4430281,58.7379026 C83.7543384,58.8171085 83.9422364,59.1339321 83.8629264,59.4452039 C83.6109133,60.430466 82.770746,61.0341333 82.0291603,61.5667375 C81.6137093,61.865055 81.2212359,62.1470872 80.9484687,62.4683522 C80.8332098,62.6038165 80.6694013,62.6737694 80.5041103,62.6737694 M36.0716021,48.440396 C35.7984644,48.440396 35.5546046,48.247563 35.5004959,47.9699722 C35.2162399,46.5087345 35.121735,45.2699395 35.2125339,44.182524 C35.238847,43.8627394 35.5190263,43.6251217 35.8410843,43.6514003 C36.1612892,43.6780491 36.3995898,43.959341 36.3729061,44.2791256 C36.2913724,45.2584657 36.379577,46.3932567 36.6434496,47.7482697 C36.7049704,48.0632427 36.4989126,48.3682224 36.183155,48.4296625 C36.1457236,48.4370649 36.1082923,48.440396 36.0716021,48.440396 M49.2066745,76.6277014 C49.0217413,76.6277014 48.8401436,76.5403529 48.7274789,76.3771295 C48.5443988,76.1128631 48.6107375,75.7508848 48.8749807,75.568045 C49.6310201,75.0454341 50.5252961,73.5316392 50.6231365,73.3151184 C50.7521079,73.0308655 51.0867665,72.888739 51.3769522,73.0056973 C51.6671379,73.1233957 51.8161221,73.4387388 51.7093871,73.7326149 C51.6341538,73.9402528 50.6086828,75.7838255 49.5372564,76.5244377 C49.4364511,76.5940204 49.3208216,76.6277014 49.2066745,76.6277014 M64.2959603,81.3719125 C64.2136854,81.3719125 64.1306693,81.3545168 64.0513593,81.3178748 C63.7596912,81.1831507 63.6329434,80.8374577 63.7682152,80.5461725 C64.017634,80.0083867 64.1332636,79.0801232 64.2355513,78.2610454 L64.2778005,77.9257158 C64.3185674,77.6070416 64.6094943,77.3805275 64.9293286,77.4230915 C65.2484217,77.4641749 65.4733804,77.7554601 65.4326136,78.0737642 L65.3911056,78.4046524 C65.2728818,79.3521621 65.1505813,80.3322426 64.8244466,81.0347322 C64.7262357,81.2471817 64.5157306,81.3719125 64.2959603,81.3719125" id="Combined-Shape" fill="#EEECDD"></path>
                <g id="Group-44" transform="translate(0.022236, 40.300454)"></g>
            </g>
        </g>
    </g>
</svg>