<?xml version="1.0" encoding="UTF-8"?>
<svg width="447px" height="335px" viewBox="0 0 447 335" version="1.1" xmlns="http://www.w3.org/2000/svg" xmlns:xlink="http://www.w3.org/1999/xlink">
    <title>decoration-10</title>
    <g id="decoration-10" stroke="none" stroke-width="1" fill="none" fill-rule="evenodd">
        <g id="Christmas/Trees/Tree-2-back" transform="translate(-0.034503, 139.710143)">
            <path d="M70.7007299,195.645985 C70.9056588,181.85285 71.0462958,171.708383 71.122641,165.212584 L97.6048811,165.672032 L97.5182482,195.645985 L70.7007299,195.645985 Z" id="Fill-391" fill="#774330"></path>
            <path d="M162.393324,153.820927 L139.060323,126.110483 L135.739307,122.182523 C147.191087,117.481567 152.315758,107.223636 144.872101,98.3685474 L117.874531,66.3035647 C130.299712,64.5285388 137.313927,55.0607801 130.643265,47.121834 L104.304172,15.849887 C96.8032566,6.96330608 77.7646731,6.68273748 70.0347219,15.3488716 L42.7794866,45.8363717 C36.0801956,53.3573279 42.2355271,62.7077059 53.9449717,65.195605 L44.2968474,75.9774554 L25.8594824,96.6278769 C18.1295312,105.262519 22.967908,115.663597 34.2765403,120.696655 L30.8410065,124.527275 L6.70638111,151.544886 C-4.65951008,164.276402 4.78820804,179.979654 23.7409032,185.201666 C36.6241551,189.693626 84.1204107,176.123267 84.1204107,176.123267 C84.1204107,176.123267 130.557377,191.156591 143.612405,187.154194 C163.223578,182.71663 173.558809,167.056321 162.393324,153.820927" id="Fill-392" fill="#5C7E6E"></path>
            <path d="M42.7794866,45.8363717 C42.7794866,45.8363717 46.3009088,52.2808606 57.1800994,41.0896091 C57.1800994,41.0896091 76.8771602,46.6923922 89.3309704,24.6334019 C90.6192956,22.3745384 92.938281,20.7770151 95.5149314,20.6023755 C98.3778763,20.4076952 102.071075,21.564325 105.306203,26.9724279 C111.776458,37.7886336 121.682248,50.545916 127.751691,44.0126758 C133.849763,37.4794356 112.663971,12.574678 104.561837,6.15022973 C96.4597032,-0.274218589 85.666401,-2.11509215 75.8178706,2.78626949 C65.9693402,7.68763113 36.166084,36.8238212 42.7794866,45.8363717" id="Fill-393" fill="#A8CAD4"></path>
            <path d="M133.792504,85.4079959 C140.921237,83.1806248 152.659311,98.3599585 148.880224,110.381464 C147.391493,115.088145 139.375247,122.537528 133.076768,122.760838 C126.77829,122.984147 119.306003,126.345245 109.858285,125.260189 C104.275543,124.618889 99.2940186,122.337122 97.7193989,118.191578 C96.2879265,114.426805 97.7193989,109.743027 100.353308,106.834275 C105.363462,101.277299 111.833717,105.213849 119.048338,100.799188 C128.32428,95.116242 123.65768,88.568687 133.792504,85.4079959" id="Fill-394" fill="#A8CAD4"></path>
            <path d="M19.0170441,156.778349 C15.8105458,150.004621 6.64912221,148.679078 2.18292819,154.699851 L2.0111515,154.957516 C-4.23006835,163.695224 3.01318221,188.760306 38.5423282,186.386925 C52.7425348,185.43929 56.2925865,181.285157 57.0369522,177.829583 C58.4684246,171.353601 45.1843603,165.115244 35.3930888,165.109518 C23.5691265,165.103793 22.710243,164.597051 19.0170441,156.778349" id="Fill-395" fill="#A8CAD4"></path>
        </g>
        <g id="Group" transform="translate(278.965497, 140.710143)">
            <g id="Christmas/Trees/Tree-2-back-Copy" transform="translate(83.500000, 97.822993) scale(-1, 1) translate(-83.500000, -97.822993) ">
                <path d="M70.7007299,195.645985 C70.9056588,181.85285 71.0462958,171.708383 71.122641,165.212584 L97.6048811,165.672032 L97.5182482,195.645985 L70.7007299,195.645985 Z" id="Fill-391" fill="#774330"></path>
                <path d="M162.393324,153.820927 L139.060323,126.110483 L135.739307,122.182523 C147.191087,117.481567 152.315758,107.223636 144.872101,98.3685474 L117.874531,66.3035647 C130.299712,64.5285388 137.313927,55.0607801 130.643265,47.121834 L104.304172,15.849887 C96.8032566,6.96330608 77.7646731,6.68273748 70.0347219,15.3488716 L42.7794866,45.8363717 C36.0801956,53.3573279 42.2355271,62.7077059 53.9449717,65.195605 L44.2968474,75.9774554 L25.8594824,96.6278769 C18.1295312,105.262519 22.967908,115.663597 34.2765403,120.696655 L30.8410065,124.527275 L6.70638111,151.544886 C-4.65951008,164.276402 4.78820804,179.979654 23.7409032,185.201666 C36.6241551,189.693626 84.1204107,176.123267 84.1204107,176.123267 C84.1204107,176.123267 130.557377,191.156591 143.612405,187.154194 C163.223578,182.71663 173.558809,167.056321 162.393324,153.820927" id="Fill-392" fill="#5C7E6E"></path>
                <path d="M42.7794866,45.8363717 C42.7794866,45.8363717 46.3009088,52.2808606 57.1800994,41.0896091 C57.1800994,41.0896091 76.8771602,46.6923922 89.3309704,24.6334019 C90.6192956,22.3745384 92.938281,20.7770151 95.5149314,20.6023755 C98.3778763,20.4076952 102.071075,21.564325 105.306203,26.9724279 C111.776458,37.7886336 121.682248,50.545916 127.751691,44.0126758 C133.849763,37.4794356 112.663971,12.574678 104.561837,6.15022973 C96.4597032,-0.274218589 85.666401,-2.11509215 75.8178706,2.78626949 C65.9693402,7.68763113 36.166084,36.8238212 42.7794866,45.8363717" id="Fill-393" fill="#A8CAD4"></path>
                <path d="M133.792504,85.4079959 C140.921237,83.1806248 152.659311,98.3599585 148.880224,110.381464 C147.391493,115.088145 139.375247,122.537528 133.076768,122.760838 C126.77829,122.984147 119.306003,126.345245 109.858285,125.260189 C104.275543,124.618889 99.2940186,122.337122 97.7193989,118.191578 C96.2879265,114.426805 97.7193989,109.743027 100.353308,106.834275 C105.363462,101.277299 111.833717,105.213849 119.048338,100.799188 C128.32428,95.116242 123.65768,88.568687 133.792504,85.4079959" id="Fill-394" fill="#A8CAD4"></path>
                <path d="M19.0170441,156.778349 C15.8105458,150.004621 6.64912221,148.679078 2.18292819,154.699851 L2.0111515,154.957516 C-4.23006835,163.695224 3.01318221,188.760306 38.5423282,186.386925 C52.7425348,185.43929 56.2925865,181.285157 57.0369522,177.829583 C58.4684246,171.353601 45.1843603,165.115244 35.3930888,165.109518 C23.5691265,165.103793 22.710243,164.597051 19.0170441,156.778349" id="Fill-395" fill="#A8CAD4"></path>
            </g>
        </g>
        <g id="Christmas/Trees/Tree-1-front" transform="translate(65.612498, 14.000000)">
            <path d="M116.117444,321.094708 C116.367942,298.44107 116.555816,281.784244 116.681065,271.124231 L160.126808,271.878214 L159.984681,321.067354 L116.117444,321.094708 Z" id="Fill-391" fill="#9F5B41"></path>
            <path d="M266.41623,252.429805 L228.137008,206.955226 L222.688677,200.509197 C241.476026,192.794633 249.883364,175.960723 237.671588,161.428967 L193.380414,108.808315 C213.764687,105.895386 225.271938,90.3581996 214.328307,77.3298901 L171.117406,26.0106604 C158.811693,11.4272228 127.577727,10.9667921 114.896267,25.1884627 L70.1823776,75.2203658 C59.1917788,87.5627275 69.2899785,102.907285 88.5000422,106.990084 L72.6717012,124.683778 L42.4240705,158.572417 C29.7426104,172.742407 37.680265,189.81123 56.2327715,198.070793 L50.596567,204.357082 L11.0022305,248.694679 C-7.64421272,269.587896 7.85534962,295.35792 38.948411,303.927569 C60.0841779,311.299159 138.004705,289.029347 138.004705,289.029347 C138.004705,289.029347 214.187402,313.699976 235.604979,307.131791 C267.778313,299.849469 284.733895,274.149919 266.41623,252.429805" id="Fill-392" fill="#6E9985"></path>
            <path d="M70.1823776,75.2203658 C70.1823776,75.2203658 75.9594872,85.796177 93.8074681,67.4306301 C93.8074681,67.4306301 126.121707,76.6251493 146.552948,40.4249602 C148.666525,36.7180232 152.470963,34.0963872 156.698116,33.8097926 C161.394954,33.4903101 167.453873,35.3884121 172.761299,44.2634488 C183.376151,62.013522 199.627207,82.9490239 209.584502,72.2275663 C219.588765,61.5061086 184.832171,20.6358367 171.540122,10.0929134 C158.248073,-0.450009933 140.540997,-3.4709991 124.383877,4.57244329 C108.226758,12.6158857 59.3326839,60.4302042 70.1823776,75.2203658" id="Fill-393" fill="#C7D6DE"></path>
            <path d="M219.494828,140.159887 C231.189952,136.504631 250.446984,161.414872 244.247159,181.142918 C241.804804,188.866878 228.65366,201.091782 218.320619,201.458248 C207.987577,201.824713 195.728833,207.340485 180.22927,205.559839 C171.070438,204.507426 162.897941,200.762903 160.314681,193.959805 C157.966262,187.781577 160.314681,180.095203 164.635771,175.321758 C172.855236,166.202411 183.470088,172.662536 195.306117,165.4178 C210.523869,156.091729 202.868025,145.34678 219.494828,140.159887" id="Fill-394" fill="#C7D6DE"></path>
            <path d="M31.1986299,257.283121 C25.9381724,246.167008 10.9082937,243.991708 3.58122789,253.872175 L3.29941766,254.295019 C-6.93968715,268.634147 4.94331064,309.767522 63.2310587,305.872654 C86.5273706,304.317526 92.3514486,297.500333 93.5726262,291.829518 C95.9210447,281.202026 74.1277207,270.96449 58.0645379,270.955093 C38.6666008,270.945697 37.2575497,270.114103 31.1986299,257.283121" id="Fill-395" fill="#C7D6DE"></path>
        </g>
    </g>
</svg>