<?xml version="1.0" encoding="UTF-8"?>
<svg width="447px" height="313px" viewBox="0 0 447 313" version="1.1" xmlns="http://www.w3.org/2000/svg" xmlns:xlink="http://www.w3.org/1999/xlink">
    <title>decoration-24</title>
    <g id="decoration-24" stroke="none" stroke-width="1" fill="none" fill-rule="evenodd">
        <g id="Christmas/Stuffs/Beanie-1-Big" transform="translate(6.412500, 43.069802)">
            <path d="M395.865379,230.732631 C392.716594,231.072668 389.736845,231.427447 386.91139,231.767484 C376.44394,233.063754 367.968558,234.345282 359.801765,234.870079 C345.938856,235.750638 332.955523,234.499576 312.576868,227.552397 C288.323165,219.293224 266.091995,211.38883 259.361025,243.253081 C256.551294,256.514537 257.694252,269.189281 253.711098,277.634197 C250.453226,284.535186 243.78417,288.626445 228.716388,287.915904 C224.100332,287.699696 209.294949,283.686076 189.658284,277.664663 C129.897212,259.293802 25.395679,222.072489 27.3562989,215.294346 C28.6221026,210.925947 29.9498207,206.371805 31.3089873,201.662386 L31.3237288,201.662386 C59.5763111,105.128144 111.833957,-53.6997599 241.77736,18.0569638 C288.21506,43.6993173 306.865027,88.3306924 319.832636,136.79191 C326.811264,162.850957 336.845314,201.307607 359.524625,220.018506 C363.939214,223.677347 368.849117,226.564716 374.29856,228.479146 C378.173609,229.821606 382.311058,230.686441 386.757095,230.948839 C389.659206,231.149324 392.700869,231.072668 395.865379,230.732631" id="Fill-1" fill="#60922E"></path>
            <path d="M383.175893,262.550691 C371.256896,258.567537 362.411011,247.899602 359.801765,234.870079 C345.938856,235.750638 332.955523,234.499576 312.576868,227.552397 C288.323165,219.293224 266.091995,211.38883 259.361025,243.253081 C256.551294,256.514537 257.694252,269.189281 253.711098,277.634197 C254.019687,277.818957 254.344,278.0047 254.652589,278.189461 C268.670775,286.634376 266.802535,307.10541 259.993927,319.594412 C255.301215,328.225071 245.822428,335.326544 235.663567,335.094611 C229.951726,334.956041 224.424645,333.087801 219.005668,331.219561 C208.276802,327.530255 197.562678,323.825223 186.848553,320.120192 C187.049038,306.2563 187.697664,291.759506 189.658284,277.664663 C190.692154,270.285066 192.081787,262.998833 193.950027,255.974015 C201.00531,229.621121 214.899668,206.850413 242.240243,195.425748 C260.102031,187.968513 282.765618,192.04503 298.234369,202.681516 C310.30766,210.987861 319.13782,222.597286 332.877884,226.672821 C340.798002,229.018685 350.06058,230.856459 359.184588,230.764079 C364.355907,230.702165 369.482019,230.037814 374.29856,228.479146 C377.787382,227.367637 381.107169,225.792262 384.179298,223.677347 C385.367463,225.529863 386.216574,228.046729 386.757095,230.948839 C386.81901,231.211238 386.8652,231.489361 386.91139,231.767484 C388.409127,240.906233 387.00377,253.596702 383.175893,262.550691" id="Fill-3" fill="#577C2C"></path>
            <path d="M259.993927,319.594412 C255.301215,328.225071 245.822428,335.326544 235.663567,335.094611 C229.951726,334.956041 224.424645,333.087801 219.005668,331.219561 C208.276802,327.530255 197.562678,323.825223 186.848553,320.120192 C154.690455,308.97365 122.563806,297.74947 90.4371566,286.510548 C67.5111709,278.499032 6.20617285,268.942607 2.93355914,237.463601 C1.77585975,226.348508 17.1365061,201.786215 30.4284282,201.631921 C30.7222755,201.631921 31.01514,201.631921 31.3089873,201.662386 L31.3237288,201.662386 C32.0499935,201.709559 32.7752755,201.832405 33.4700917,202.048614 C83.8447564,217.162586 132.304991,237.81838 182.74157,252.793782 C186.462326,253.889567 190.197823,254.940144 193.950027,255.974015 C214.435802,261.6092 235.27734,266.78052 253.711098,277.634197 C254.019687,277.818957 254.344,278.0047 254.652589,278.189461 C268.670775,286.634376 266.802535,307.10541 259.993927,319.594412" id="Fill-4" fill="#F7F5E7"></path>
            <path d="M429.026882,229.9759 C426.633844,250.971732 409.080645,266.225257 389.8135,264.016979 C387.513826,263.754581 385.290807,263.261232 383.175893,262.550691 C371.256896,258.567537 362.411011,247.899602 359.801765,234.870079 C359.508901,233.526637 359.308416,232.152729 359.184588,230.764079 C358.891723,227.9229 358.906465,225.005065 359.246502,222.04104 C359.323158,221.361948 359.416521,220.682856 359.524625,220.018506 C362.781515,200.072269 379.840382,185.869323 398.458901,187.984237 C417.726045,190.17679 431.419919,208.980068 429.026882,229.9759" id="Fill-5" fill="#F7F5E7"></path>
            <path d="M33.4081773,239.424221 C33.0101568,239.424221 32.6121362,239.271892 32.3104267,238.966252 C31.7414047,238.391333 31.116365,237.828207 30.4864114,237.259185 C27.6707843,234.719716 24.4797402,231.841192 25.2148499,227.260515 C25.3494889,226.419267 26.1425818,225.843365 26.9838302,225.981936 C27.8250787,226.116575 28.3980318,226.908685 28.26241,227.750916 C27.7936301,230.673665 29.9999418,232.662785 32.5541529,234.967373 C33.2293138,235.575706 33.8975952,236.179125 34.5069107,236.79532 C35.1063985,237.401687 35.0995191,238.378557 34.4941347,238.979028 C34.1934081,239.275823 33.8003013,239.424221 33.4081773,239.424221 M54.1583173,227.568121 C54.0472646,227.568121 53.9342464,227.555345 53.8212282,227.530776 C52.9298587,227.331274 51.958885,227.184842 50.9662904,227.033496 C47.2190003,226.460543 42.9714819,225.810934 40.9656546,222.352577 C40.5371683,221.615502 40.7887566,220.670081 41.5258318,220.242577 C42.2619242,219.812125 43.2063631,220.064696 43.6358323,220.802754 C44.9006532,222.982531 48.2214225,223.489639 51.4331047,223.981022 C52.4591133,224.138265 53.518536,224.299439 54.4934408,224.51663 C55.3258443,224.703356 55.8496591,225.527897 55.6639161,226.360301 C55.5037251,227.079686 54.8659094,227.568121 54.1583173,227.568121 M29.7021634,260.173378 C29.4240404,260.173378 29.1419863,260.097705 28.8884325,259.940462 C26.3597733,258.368035 24.5927584,256.262949 22.8847096,254.227638 C21.6591993,252.766264 20.5005171,251.386459 19.0705913,250.173725 C18.4209824,249.622393 18.3413783,248.648471 18.8917277,247.997879 C19.44306,247.347287 20.4169819,247.267683 21.0685564,247.819016 C22.6970011,249.201769 23.9952362,250.747661 25.2492467,252.242449 C26.8737603,254.1785 28.4078594,256.006446 30.5178599,257.31844 C31.2431419,257.768548 31.4642644,258.720849 31.0141572,259.444165 C30.7212927,259.91491 30.2171333,260.173378 29.7021634,260.173378 M65.2734107,250.540297 L51.1933096,250.540297 C50.3402679,250.540297 49.6493828,249.849412 49.6493828,248.99637 C49.6493828,248.144311 50.3402679,247.452444 51.1933096,247.452444 L65.2734107,247.452444 C66.1254696,247.452444 66.8173374,248.144311 66.8173374,248.99637 C66.8173374,249.849412 66.1254696,250.540297 65.2734107,250.540297 M82.3165539,244.611265 C81.9244299,244.611265 81.5323059,244.462867 81.2315793,244.166071 C78.4896597,241.456583 75.3821508,238.386419 71.4697559,237.127495 C70.6570076,236.866079 70.2108315,235.99633 70.4722475,235.184565 C70.7326807,234.372799 71.6024294,233.923675 72.4141948,234.188039 C77.0292681,235.673 80.562315,239.16477 83.4005458,241.969587 C84.0078957,242.569075 84.0137923,243.545945 83.4143045,244.152312 C83.1125951,244.458936 82.7145745,244.611265 82.3165539,244.611265 M77.1314759,269.066436 L76.8995429,269.048746 C76.1457607,268.935728 75.3418574,268.834503 74.5074883,268.730329 C70.0516232,268.170152 64.5039042,267.472388 61.2136007,264.164394 C60.6121474,263.55901 60.6150957,262.58214 61.2194973,261.980686 C61.8229162,261.379233 62.8007692,261.381199 63.4032053,261.986583 C65.9436577,264.541777 70.6982839,265.139299 74.8937157,265.666062 C75.7526539,265.774167 76.5821092,265.879323 77.358495,265.995289 C78.201709,266.122066 78.7825242,266.908279 78.6557473,267.752476 C78.5407636,268.517069 77.8823097,269.066436 77.1314759,269.066436 M239.415771,297.224672 C239.00694,297.224672 238.598109,297.063498 238.294434,296.742134 C236.031122,294.35401 234.149123,291.798816 232.156072,289.093259 C231.473049,288.16651 230.772336,287.215192 230.033295,286.239304 C229.518326,285.559229 229.651982,284.591204 230.331074,284.077217 C231.011148,283.558316 231.980157,283.694921 232.494144,284.374995 C233.241047,285.361693 233.950604,286.323822 234.642472,287.262364 C236.576557,289.888317 238.404504,292.368821 240.536125,294.619357 C241.122837,295.2385 241.096302,296.215371 240.476176,296.802082 C240.178398,297.085119 239.797084,297.224672 239.415771,297.224672 M233.005182,316.634318 C230.856854,316.634318 228.756681,316.277574 227.036839,315.659413 C226.233919,315.371463 225.817226,314.486972 226.106159,313.685035 C226.39411,312.882114 227.281548,312.462473 228.080538,312.754354 C232.056812,314.182315 237.364736,313.633931 239.915999,311.532775 C240.57347,310.991271 241.546409,311.084634 242.088897,311.743087 C242.631384,312.401541 242.537038,313.37448 241.878585,313.916968 C239.55041,315.835329 236.222761,316.634318 233.005182,316.634318 M194.213408,312.04578 C194.121028,312.04578 194.0257,312.036935 193.930371,312.020228 C188.545792,311.022719 184.076168,306.554078 183.06097,301.152791 C182.903727,300.314491 183.456042,299.508622 184.294342,299.350397 C185.137556,299.190206 185.938511,299.744487 186.096736,300.582787 C186.880002,304.759546 190.333445,308.213971 194.493497,308.983478 C195.330814,309.138755 195.885095,309.944624 195.729817,310.782924 C195.59223,311.525896 194.942621,312.04578 194.213408,312.04578 M208.69153,290.65291 C204.670048,290.65291 200.428426,290.088802 196.744033,289.011689 C195.925388,288.772877 195.455626,287.914922 195.694438,287.09726 C195.93325,286.279597 196.793171,285.8118 197.608868,286.047664 C202.747756,287.549332 209.041395,287.976836 214.033851,287.164088 C214.876082,287.019621 215.669175,287.598471 215.805779,288.439719 C215.943367,289.28195 215.371396,290.075043 214.530148,290.211648 C212.707115,290.508443 210.727823,290.65291 208.69153,290.65291 M169.239336,279.469023 C168.899299,279.469023 168.549434,279.459195 168.184827,279.437574 C167.332768,279.386471 166.685125,278.656275 166.735246,277.805199 C166.785367,276.95314 167.51458,276.284858 168.367622,276.355618 C172.785159,276.61212 174.587554,274.909967 177.343232,272.325291 C178.121583,271.59706 178.947107,270.823623 179.88565,270.04134 C180.537224,269.495905 181.513112,269.584354 182.05953,270.238876 C182.604966,270.893399 182.5175,271.867321 181.861994,272.412757 C180.973573,273.153763 180.192273,273.88789 179.455198,274.578775 C176.668071,277.190969 174.236706,279.469023 169.239336,279.469023 M150.491092,257.950359 C149.639034,257.950359 148.947166,257.259474 148.947166,256.406433 L148.947166,249.737377 C148.947166,248.885318 149.639034,248.19345 150.491092,248.19345 C151.344134,248.19345 152.035019,248.885318 152.035019,249.737377 L152.035019,256.406433 C152.035019,257.259474 151.344134,257.950359 150.491092,257.950359 M130.482941,258.692348 C130.328647,258.692348 130.169439,258.667779 130.013179,258.618641 C122.644393,256.259018 118.650428,248.93249 115.441694,243.045717 L115.048588,242.326332 C114.639757,241.578446 114.914931,240.639904 115.662817,240.231073 C116.411685,239.822241 117.349245,240.097416 117.758076,240.844319 L118.152165,241.567635 C121.251812,247.252942 124.763238,253.695962 130.953687,255.67722 C131.766435,255.93667 132.213594,256.806419 131.954144,257.618184 C131.743831,258.27369 131.137464,258.692348 130.482941,258.692348 M100.102669,260.914384 C99.6014578,260.914384 99.1090916,260.670658 98.812296,260.220551 C96.0851179,256.089982 96.7936928,250.412537 97.867857,246.376314 C98.0879968,245.552755 98.9282625,245.063337 99.756735,245.281512 C100.581276,245.500669 101.070694,246.346831 100.851537,247.170389 C100.105617,249.974223 99.1827991,255.176991 101.389111,258.520364 C101.858873,259.231887 101.66232,260.189102 100.950797,260.658865 C100.689381,260.831832 100.394551,260.914384 100.102669,260.914384 M123.812903,283.88656 C123.58097,283.88656 123.344123,283.833491 123.122018,283.721455 C117.628351,280.964794 113.00345,278.531463 108.980985,276.278962 C108.23703,275.863251 107.970701,274.922743 108.387394,274.178789 C108.804087,273.434834 109.747543,273.17047 110.488549,273.585198 C114.469738,275.81313 119.055328,278.226806 124.506736,280.962829 C125.269363,281.345125 125.576969,282.272857 125.19369,283.035484 C124.923429,283.575023 124.378976,283.88656 123.812903,283.88656 M143.823019,285.368573 C143.378809,285.368573 142.938529,285.177916 142.633871,284.809378 C141.615725,283.581902 140.508146,282.381944 139.334723,281.113192 C137.357396,278.974691 135.312258,276.7615 133.652365,274.318342 C133.172774,273.612715 133.356552,272.651569 134.062178,272.172962 C134.767805,271.695337 135.728951,271.878132 136.206576,272.582775 C137.736744,274.83626 139.702278,276.961985 141.601966,279.017933 C142.75082,280.261133 143.939968,281.546592 145.011184,282.840896 C145.555637,283.497384 145.46424,284.470324 144.806769,285.013794 C144.518818,285.252606 144.169936,285.368573 143.823019,285.368573 M152.34066,301.676606 C152.204055,301.676606 152.065485,301.674641 151.926915,301.669727 C151.074856,301.644175 150.404609,300.932652 150.430161,300.081576 C150.45473,299.227551 151.169202,298.517993 152.019295,298.583839 C155.363651,298.673271 158.213675,297.273811 161.504961,295.12843 C162.219432,294.663582 163.175665,294.864066 163.641496,295.57952 C164.106345,296.293009 163.90586,297.250224 163.190406,297.716056 C160.025897,299.778883 156.525281,301.676606 152.34066,301.676606 M423.297351,203.096243 C420.444379,203.096243 417.759459,202.500686 415.958048,201.131692 C415.278956,200.61574 415.147265,199.646731 415.663218,198.968622 C416.178188,198.291496 417.147196,198.15784 417.826288,198.672809 C421.134281,201.18771 430.014562,199.831492 433.094554,197.083675 C433.729421,196.514653 434.706291,196.570671 435.273348,197.207504 C435.841387,197.844337 435.78537,198.819242 435.149519,199.387281 C432.628722,201.636834 427.759112,203.096243 423.297351,203.096243 M437.456073,221.454328 L419.115678,221.454328 C418.262636,221.454328 417.571751,220.763443 417.571751,219.910402 C417.571751,219.05736 418.262636,218.366475 419.115678,218.366475 L437.456073,218.366475 C438.308132,218.366475 439,219.05736 439,219.910402 C439,220.763443 438.308132,221.454328 437.456073,221.454328 M430.786034,248.687782 C430.559015,248.687782 430.329048,248.63766 430.111856,248.532504 C425.962615,246.515867 422.151445,241.25315 420.554448,238.462092 C420.131859,237.722069 420.388361,236.778612 421.128384,236.35504 C421.870373,235.93245 422.811864,236.18797 423.235436,236.928976 C425.078124,240.149503 428.438204,244.285969 431.461195,245.755205 C432.227753,246.127674 432.548135,247.051475 432.175667,247.818033 C431.908354,248.3674 431.358005,248.687782 430.786034,248.687782 M414.113394,270.362705 C413.761564,270.362705 413.40875,270.24379 413.118834,269.999081 C409.34894,266.821796 408.842816,259.061869 410.52433,255.871807 C410.92235,255.117042 411.854996,254.829092 412.609761,255.22613 C413.363543,255.623167 413.653459,256.556796 413.256422,257.311561 C412.109533,259.487407 412.602882,265.526509 415.108937,267.638475 C415.760512,268.187842 415.844047,269.161764 415.29468,269.814321 C414.98904,270.175979 414.552691,270.362705 414.113394,270.362705 M386.881907,272.03046 L386.804268,272.028495 C385.953192,271.986236 385.296704,271.261937 385.33798,270.409878 C385.609224,264.910314 387.977692,259.265301 391.373151,256.030033 C391.991312,255.443321 392.966217,255.464942 393.556859,256.08212 C394.144554,256.699297 394.120968,257.676167 393.50379,258.265828 C390.650818,260.983178 388.655801,265.811512 388.422885,270.562207 C388.382592,271.387731 387.700552,272.03046 386.881907,272.03046 M364.648772,262.58214 C364.276303,262.58214 363.901869,262.447501 363.606056,262.175274 C362.978068,261.59839 362.935809,260.62152 363.512693,259.993532 C365.278725,258.07124 367.428036,256.31307 369.506588,254.6119 C371.839677,252.70435 374.044023,250.901955 375.692123,248.931508 C376.239524,248.276985 377.213446,248.192467 377.866986,248.737903 C378.521509,249.285304 378.607992,250.259226 378.060591,250.912766 C376.224783,253.107284 373.803245,255.087559 371.461312,257.002972 C369.466295,258.634365 367.403467,260.321776 365.787798,262.081911 C365.483141,262.414087 365.066448,262.58214 364.648772,262.58214 M355.200451,244.241744 C354.503669,244.241744 353.870767,243.766085 353.700749,243.059476 C353.501247,242.23002 354.01032,241.396634 354.839775,241.197132 C355.972906,240.923923 357.094243,240.620248 358.214597,240.316573 C361.491142,239.432083 364.877756,238.516144 368.479597,238.375609 C369.355242,238.343177 370.050058,239.006545 370.08249,239.857621 C370.116887,240.70968 369.452536,241.4271 368.600477,241.460514 C365.346536,241.588274 362.273424,242.418712 359.020466,243.297305 C357.872594,243.60786 356.72374,243.918414 355.563092,244.198502 C355.442212,244.227985 355.320348,244.241744 355.200451,244.241744 M367.430002,218.1198 C367.337622,218.1198 367.243276,218.111938 367.147948,218.094249 C364.040439,217.520313 361.566815,215.793591 359.173777,214.12387 C357.16795,212.725393 355.274158,211.402589 353.142537,210.844377 C352.317996,210.628169 351.824647,209.783972 352.040855,208.95943 C352.257064,208.134889 353.101261,207.639574 353.925802,207.857749 C356.5891,208.555513 358.801309,210.09944 360.940792,211.592263 C363.160863,213.142086 365.25907,214.605426 367.709108,215.058482 C368.547408,215.212776 369.100706,216.018645 368.946411,216.856945 C368.809807,217.599917 368.160198,218.1198 367.430002,218.1198 M376.878323,204.781688 C376.382025,204.781688 375.896539,204.542876 375.597777,204.102596 C373.372793,200.809345 371.985126,196.844863 370.644632,193.011089 C370.208284,191.765924 369.776849,190.531569 369.320845,189.33849 C369.01717,188.541466 369.416174,187.649113 370.212215,187.345438 C371.010222,187.042746 371.902574,187.440767 372.205266,188.236808 C372.671098,189.456422 373.113343,190.718294 373.558536,191.990977 C374.83515,195.639991 376.155006,199.41185 378.15592,202.372927 C378.633544,203.079536 378.447801,204.039699 377.741192,204.516341 C377.475845,204.695205 377.175118,204.781688 376.878323,204.781688 M400.776265,198.112632 C400.248519,198.112632 399.734532,197.841389 399.446581,197.353936 C397.116441,193.414024 399.995948,185.275731 402.264174,181.82622 C402.731971,181.115679 403.689186,180.91716 404.401692,181.383974 C405.114198,181.852754 405.312717,182.809969 404.843937,183.522475 C402.767351,186.681088 400.713368,193.430731 402.103983,195.783475 C402.538366,196.516619 402.29464,197.463023 401.560513,197.897406 C401.313838,198.042856 401.043578,198.112632 400.776265,198.112632 M386.327626,226.456612 L386.114366,226.44187 C385.270169,226.324921 384.679526,225.54657 384.795493,224.70139 C385.467705,219.823918 388.709853,214.009869 393.606981,212.336217 C394.411867,212.059077 395.291443,212.491495 395.566618,213.298346 C395.842775,214.104215 395.412323,214.981826 394.605472,215.257983 C390.929924,216.513959 388.384557,221.27743 387.854846,225.12398 C387.747724,225.896435 387.086322,226.456612 386.327626,226.456612 M396.330228,238.683215 L396.265365,238.682232 C395.413306,238.646852 394.750921,237.927467 394.786301,237.075408 C394.837405,235.863656 395.34353,234.79932 396.251606,233.997382 C398.453004,232.055435 402.549176,232.080004 404.793816,232.265747 C405.642927,232.337489 406.274846,233.083409 406.204086,233.93252 C406.133327,234.782613 405.383476,235.413549 404.537314,235.343773 C401.677462,235.10496 399.231355,235.485291 398.294779,236.313764 C398.013707,236.560438 397.88693,236.827751 397.871206,237.204151 C397.836809,238.033606 397.152803,238.683215 396.330228,238.683215 M399.66279,222.011557 C399.451495,222.011557 399.236269,221.967333 399.031854,221.874953 C398.253502,221.52607 397.905603,220.612097 398.255468,219.834729 C400.115846,215.68647 406.036033,215.612762 407.980929,215.588155 C408.86935,215.582296 409.533701,216.259423 409.544511,217.112464 C409.555321,217.964523 408.872299,218.665236 408.02024,218.676047 C404.108827,218.724202 401.770825,219.539899 401.071095,221.098567 C400.814593,221.67152 400.251467,222.011557 399.66279,222.011557 M380.610871,237.627723 C377.866986,237.627723 375.087721,237.436084 372.404768,236.347178 C371.615606,236.025813 371.235275,235.125599 371.555657,234.335454 C371.877022,233.546292 372.774288,233.164979 373.567381,233.486343 C376.398732,234.635198 379.507224,234.576232 382.800476,234.511369 C383.610276,234.496628 384.415162,234.480903 385.219065,234.483852 C386.071124,234.4868 386.760044,235.180634 386.757105,236.032692 C386.753164,236.885734 386.086848,237.647378 385.208255,237.571705 C384.42499,237.567774 383.645655,237.583499 382.859442,237.599223 C382.115487,237.613964 381.364654,237.627723 380.610871,237.627723 M223.85464,335.758962 C223.256135,335.758962 222.688096,335.410079 222.436507,334.826316 C221.271929,332.128621 220.485715,329.247148 220.099488,326.261502 C219.990401,325.416323 220.58694,324.641903 221.43212,324.532816 C222.264523,324.415866 223.05172,325.020268 223.161789,325.865447 C223.510672,328.566091 224.220229,331.16944 225.270807,333.602771 C225.608879,334.386036 225.248203,335.294113 224.465921,335.632185 C224.265437,335.717685 224.058073,335.758962 223.85464,335.758962 M252.7529,339.463993 C252.50426,339.463993 252.253655,339.404044 252.019756,339.27825 C248.929937,337.607546 245.479442,335.447425 243.306545,332.08931 C242.842679,331.373856 243.048077,330.417624 243.763532,329.95474 C244.480951,329.488909 245.435218,329.698238 245.898101,330.411727 C247.692634,333.186078 250.742159,335.076921 253.48801,336.560899 C254.237861,336.966782 254.516967,337.904342 254.112067,338.654193 C253.832961,339.170145 253.301284,339.463993 252.7529,339.463993 M258.68095,292.037629 C257.962547,292.037629 257.318835,291.534452 257.169455,290.803273 C256.998453,289.966939 257.537992,289.152225 258.373344,288.981224 C259.699096,288.710963 261.030746,288.471168 262.363377,288.231372 C264.693518,287.812714 267.104245,287.379314 269.40785,286.77786 C270.237306,286.559686 271.076589,287.055983 271.290832,287.880525 C271.507041,288.705066 271.012709,289.549263 270.188167,289.764489 C267.768595,290.396408 265.297919,290.841601 262.909796,291.270088 C261.60075,291.505952 260.292688,291.740833 258.991504,292.007163 C258.886348,292.027801 258.783158,292.037629 258.68095,292.037629 M28.9601744,206.818964 C28.1916507,206.818964 27.5263176,206.246011 27.4300064,205.464711 C27.0870208,202.67955 25.5774908,199.952372 23.928408,197.170159 C23.494025,196.437015 23.7357857,195.489628 24.4699126,195.055245 C25.2020739,194.619879 26.1494612,194.862622 26.5848269,195.595766 C28.4078594,198.669861 30.0775804,201.710542 30.4952563,205.085363 C30.5994296,205.932508 29.9969935,206.702998 29.151814,206.807171 L28.9601744,206.818964 M56.8078568,214.978878 C56.6437347,214.978878 56.4815782,214.975929 56.3204044,214.96905 C55.4683455,214.935636 54.8039951,214.218216 54.8383919,213.366157 C54.8708232,212.515081 55.5892258,211.849748 56.4403019,211.884145 C58.6426825,211.968663 60.9787194,211.319054 63.8159674,209.836058 C64.5707324,209.440003 65.5043609,209.732868 65.8994332,210.488616 C66.2945055,211.244363 66.0016409,212.177009 65.246876,212.572081 C62.1521431,214.188733 59.3846715,214.978878 56.8078568,214.978878 M11.1779905,236.460196 L1.54392677,236.460196 C0.690885117,236.460196 0,235.769311 0,234.916269 C0,234.06421 0.690885117,233.372342 1.54392677,233.372342 L11.1779905,233.372342 C12.0300494,233.372342 12.7219173,234.06421 12.7219173,234.916269 C12.7219173,235.769311 12.0300494,236.460196 11.1779905,236.460196 M40.8192224,276.476498 C40.4005637,276.476498 39.9828878,276.306479 39.67823,275.973321 C39.1033114,275.343368 39.1475359,274.366497 39.7774895,273.791579 C40.6786867,272.969986 41.697816,272.182789 42.6845139,271.420162 C44.5743746,269.959771 46.529098,268.450241 47.6740214,266.682243 C48.1369046,265.965806 49.092154,265.762373 49.8095738,266.226239 C50.5250281,266.690105 50.7294436,267.646337 50.2665604,268.361792 C48.8336863,270.572034 46.6676681,272.245686 44.5714263,273.864303 C43.5916078,274.621034 42.6658414,275.335505 41.8589897,276.072581 C41.5631769,276.342842 41.1897255,276.476498 40.8192224,276.476498 M77.8714993,291.296622 C77.3909263,291.296622 76.9162499,291.072552 76.6145405,290.651927 C76.1182432,289.960059 76.2784342,288.994982 76.9703021,288.497702 C78.7068512,287.254502 79.7731532,285.576919 80.9023524,283.802042 C82.1907598,281.778525 83.5224089,279.685232 85.9056186,278.094132 C86.6132107,277.61749 87.5743567,277.812078 88.0460848,278.521636 C88.5197785,279.230211 88.3291217,280.188408 87.619564,280.662102 C85.7788416,281.891543 84.6751944,283.624161 83.5076674,285.458987 C82.2703639,287.403883 80.9908014,289.415607 78.7697482,291.008672 C78.4975218,291.20326 78.1830364,291.296622 77.8714993,291.296622 M114.921811,298.706685 C114.532635,298.706685 114.143459,298.560252 113.843715,298.268371 C111.896854,296.369665 111.221693,293.738798 111.942062,290.860274 C112.149425,290.033767 112.991657,289.529608 113.814232,289.736971 C114.640739,289.944335 115.143916,290.782635 114.937535,291.610125 C114.482514,293.429227 114.839258,294.926963 115.999906,296.058128 C116.610204,296.653685 116.621997,297.631538 116.026441,298.240853 C115.724731,298.550425 115.32278,298.706685 114.921811,298.706685 M174.946263,258.691366 C174.434242,258.691366 173.933031,258.436829 173.639184,257.970997 C173.184162,257.249647 173.400371,256.296363 174.121722,255.841342 C175.210628,255.15537 176.431224,254.588314 177.61251,254.03993 C179.198696,253.302855 180.839916,252.54121 182.126358,251.501443 C182.786778,250.962887 183.7607,251.06706 184.29729,251.730428 C184.833881,252.392813 184.730691,253.365752 184.067323,253.90136 C182.485068,255.181905 180.668915,256.025119 178.912711,256.840816 C177.769753,257.37151 176.689692,257.871738 175.767857,258.453536 C175.512337,258.61471 175.227335,258.691366 174.946263,258.691366 M213.478587,269.066436 C213.125774,269.066436 212.770995,268.945555 212.481079,268.699864 C211.830487,268.147549 211.750883,267.173627 212.302215,266.523035 C213.270241,265.382043 214.516389,264.486742 215.720279,263.620924 C217.408672,262.406224 219.003703,261.258353 219.393861,259.729167 C219.604173,258.903643 220.443456,258.403415 221.271929,258.615693 C222.097453,258.826005 222.595716,259.667253 222.385404,260.49376 C221.717122,263.109885 219.48919,264.712778 217.522673,266.12698 C216.420991,266.91909 215.380241,267.667958 214.656925,268.521 C214.351284,268.880693 213.916901,269.066436 213.478587,269.066436 M95.6536832,231.273152 C94.9293841,231.273152 94.2827235,230.761131 94.1392395,230.024056 C93.3854573,226.144092 93.1348517,222.854771 93.3756296,219.967402 C93.4454061,219.118292 94.1883778,218.487355 95.0424022,218.557132 C95.8915128,218.627891 96.5234319,219.374794 96.4526727,220.223904 C96.236464,222.824306 96.4703625,225.837469 97.1700925,229.435378 C97.3332318,230.271713 96.7868135,231.081513 95.9494961,231.244652 C95.8502366,231.264307 95.7509772,231.273152 95.6536832,231.273152 M130.484907,306.11773 C129.994506,306.11773 129.512951,305.885797 129.214189,305.452397 C128.728703,304.750701 128.904618,303.789555 129.605331,303.304068 C131.610175,301.916401 133.981592,297.896885 134.241042,297.321966 C134.583045,296.567201 135.470483,296.189819 136.23999,296.500373 C137.009496,296.812893 137.404569,297.65021 137.121532,298.430527 C136.92203,298.981859 134.202714,303.877021 131.361535,305.843538 C131.094222,306.028298 130.787599,306.11773 130.484907,306.11773 M170.498261,318.714836 C170.280086,318.714836 170.059947,318.668646 169.849634,318.571352 C169.076197,318.213624 168.740091,317.29572 169.098801,316.522283 C169.760203,315.094322 170.066826,312.629543 170.33807,310.45468 L170.450105,309.564293 C170.558209,308.718131 171.329681,308.116678 172.177809,308.229696 C173.023971,308.338783 173.620511,309.11222 173.512407,309.9574 L173.402337,310.835994 C173.088834,313.351877 172.764521,315.954243 171.899686,317.819535 C171.639253,318.383643 171.081041,318.714836 170.498261,318.714836" id="Combined-Shape" fill="#EEECDD"></path>
            <g id="Group-44" transform="translate(0.058966, 209.659503)"></g>
        </g>
        <g id="Christmas/Gifts/Gift-2" transform="translate(2.862240, 2.069598)">
            <path d="M273.3033,335.337821 C272.848086,343.980889 271.150287,352.012669 267.802711,358.974946 C258.986562,377.315578 238.334843,391.49225 216.567598,397.321993 C198.761218,402.11625 180.200483,401.345887 166.731144,392.732834 C122.254211,364.302453 123.747914,305.837938 108.392688,260.96782 C102.34184,243.318514 94.9393559,226.125422 86.2482656,209.591641 C74.1945928,186.59882 59.7037729,164.878598 43.0439322,144.950219 L42.8558437,144.730115 C21.7959321,119.58428 -10.5322826,88.3875982 3.36125616,52.2395857 C4.9319954,48.1696703 6.95994982,44.3038509 9.36408129,40.6571346 C18.9195784,26.1663148 34.4318791,15.1651372 50.7135418,8.62706019 C56.4502417,6.33298052 62.2659787,4.58815935 67.954656,3.44061927 C119.519924,-6.94726962 156.013099,33.7578876 178.864854,74.3840077 C184.883687,85.1030524 190.714431,95.9311485 196.310064,106.870297 C205.409347,124.581632 213.959371,142.577102 221.927121,160.807682 C223.592905,164.580457 225.211667,168.352232 226.799414,172.140015 C235.741622,193.340993 243.914469,214.856119 251.253923,236.639371 C258.467318,258.060452 270.28588,290.200578 272.911116,319.024144 C273.413352,324.618777 273.586433,330.088351 273.3033,335.337821" id="Fill-1" fill="#B70A07"></path>
            <path d="M273.3033,335.337821 C272.848086,343.980889 271.150287,352.012669 267.802711,358.974946 C258.986562,377.315578 238.334843,391.49225 216.567598,397.321993 C198.761218,402.11625 180.200483,401.345887 166.731144,392.732834 C122.254211,364.302453 123.747914,305.837938 108.392688,260.96782 C102.34184,243.318514 94.9393559,226.125422 86.2482656,209.591641 C74.1945928,186.59882 59.7037729,164.878598 43.0439322,144.950219 L42.8558437,144.730115 C21.7959321,119.58428 -10.5322826,88.3875982 3.36125616,52.2395857 C4.9319954,48.1696703 6.95994982,44.3038509 9.36408129,40.6571346 C1.2862796,84.6788528 54.4853169,136.935447 77.0229239,169.891957 C83.1838234,178.897195 90.6023148,186.503775 97.9727836,193.938274 C112.651692,208.758249 127.110497,222.902906 130.83525,246.24189 C137.059179,285.312278 135.911639,329.554099 167.328425,358.283621 C184.255391,373.747899 207.436301,378.463118 227.474732,372.757432 C244.935949,367.82311 266.246979,340.131077 272.911116,319.024144 C273.413352,324.618777 273.586433,330.088351 273.3033,335.337821" id="Fill-3" fill="#9E0504"></path>
            <path d="M46.1133768,6.16089953 C70.1827046,15.4502714 90.116086,31.3217411 107.125091,48.8790041 C132.939289,75.5252236 155.564674,107.235209 175.420085,144.726695 C175.64048,144.720525 175.861422,144.714957 176.082261,144.71021 C179.202756,138.95705 181.505042,132.851821 183.745151,126.911729 C184.055197,126.089692 184.364425,125.269946 184.674809,124.454606 L185.047952,123.478448 C190.844186,108.384967 197.313707,95.1082512 217.160878,97.2547714 C235.201368,99.208691 252.030288,121.806326 250.508572,142.028844 C249.316011,157.857293 244.411703,168.027079 235.929711,172.255069 C232.78223,173.824808 229.324602,174.525138 225.631864,174.525138 C215.263844,174.525138 203.0297,169.003971 190.510428,161.676692 C202.696759,171.518183 213.772836,183.385885 210.544764,198.453399 C209.532219,203.180239 207.627363,207.280778 205.406293,211.092712 C207.596862,216.772382 209.745872,222.556207 211.85338,228.444514 C235.747625,295.19793 255.915643,351.208712 211.047527,401.763505 C210.581307,402.288752 209.934003,402.556879 209.282696,402.556879 C208.727435,402.556879 208.168171,402.360786 207.71896,401.961598 C206.745502,401.097192 206.65646,399.60749 207.520867,398.634032 C250.760217,349.915104 230.819306,295.421035 207.415291,230.032261 C205.727527,225.316804 204.013126,220.669135 202.271617,216.088447 C201.827671,216.761997 201.382099,217.429597 200.938243,218.094643 C194.287112,228.059333 189.03464,235.931037 197.560653,248.875129 C198.27599,249.962641 197.974848,251.424329 196.888337,252.141667 C195.798824,252.854002 194.338136,252.554861 193.621799,251.46935 C184.40146,237.468661 189.096179,227.653592 195.015385,218.50579 L195.411674,217.896887 C195.942106,217.086231 196.479984,216.280229 197.016397,215.476411 C198.077612,213.886472 199.149326,212.280828 200.172042,210.635461 C192.726638,191.514982 184.793523,173.58434 176.338234,156.781874 C175.748915,156.340215 175.168523,155.90356 174.597846,155.47117 C174.602848,155.605233 174.608851,155.738296 174.614854,155.872359 C175.768397,181.977645 176.2006,191.745242 157.213664,215.639487 C140.03658,237.256661 135.179294,260.127425 141.928471,287.614361 C142.239617,288.878956 141.466253,290.155557 140.201658,290.465703 C140.013569,290.512725 139.82348,290.534736 139.638393,290.534736 C138.576893,290.534736 137.61444,289.814397 137.350316,288.73889 C130.223962,259.719233 135.36238,235.559863 153.521927,212.706107 C170.511682,191.325922 171.052111,183.117108 170.071235,159.903049 C165.496233,165.5486 161.394438,172.540964 157.824952,180.792087 L157.528813,181.477409 C153.489912,190.832812 147.081896,205.672797 132.951246,205.672797 C130.842253,205.672797 128.56218,205.342641 126.091017,204.614298 C118.06275,202.246902 111.318652,195.326662 106.354881,186.994823 C104.383203,189.444502 102.450649,191.941366 100.542017,194.456389 L99.6329213,195.65789 C98.7255181,196.860545 97.8230063,198.06632 96.9237159,199.272173 L96.0254374,200.477938 C95.5767731,201.080721 95.1287751,201.683269 94.6812345,202.285202 C92.2803114,205.513963 91.7053083,206.464463 91.1556721,207.279783 L91.037625,207.453206 C90.9384823,207.597303 90.8360474,207.741971 90.7200675,207.899412 L90.5737338,208.095255 C90.0342172,208.80763 89.1834229,209.831444 87.2617426,212.070808 C86.7965237,212.614063 86.1362129,212.892194 85.4729007,212.892194 C84.7458919,212.768136 84.2343178,212.578713 83.9381784,212.323927 C82.9497132,211.476528 82.83666,209.987827 83.6840588,209.000363 C86.1520678,206.124501 86.7419622,205.392641 87.2311194,204.677086 L87.3350446,204.523226 C87.8361589,203.773284 88.3653976,202.877803 90.8974537,199.472879 C91.512263,198.64597 92.127908,197.817935 92.7449466,196.98969 L93.6716196,195.747278 C97.008448,191.27948 100.393952,186.818849 103.915737,182.508926 C101.371759,177.375077 99.4734128,171.942337 98.3219479,166.850526 C95.0434049,152.348701 97.1714064,140.433093 104.162697,134.156138 C120.938491,119.100507 147.734101,130.395657 169.088962,142.890964 C149.968789,107.552925 128.308631,77.5208075 103.739498,52.1595481 C87.0886611,34.9724592 67.8175915,19.5912203 44.4165782,10.5599699 C43.2010061,10.0907491 42.5967217,8.7261068 43.0659425,7.51153519 C43.5351634,6.29696357 44.8968042,5.69367964 46.1133768,6.16089953 Z M184.703659,163.097556 L185.355556,164.450847 C191.573415,177.42725 197.499872,191.041238 203.14979,205.318282 C204.352883,202.851815 205.33594,200.255888 205.933594,197.464934 C208.84285,183.886706 196.870179,172.549689 184.703659,163.097556 Z M169.76881,149.793533 L169.691174,149.801744 C162.780094,150.46718 155.770335,151.941029 148.691654,154.135541 C132.835341,159.051635 120.67791,169.987618 109.893969,182.704645 L109.560669,183.100101 C114.120823,191.268698 120.355117,198.006989 127.424645,200.09117 C141.28917,204.184096 147.532108,192.736708 153.199775,179.60953 L153.498916,178.919206 C158.079512,168.328439 163.543186,159.662781 169.773552,153.091089 C169.737908,152.273399 169.702319,151.435984 169.667526,150.580869 C169.656368,150.309861 169.692001,150.044195 169.76881,149.793533 Z M107.312179,137.66479 C101.713544,142.691155 100.071771,153.213107 102.921112,165.811036 C103.86976,170.004659 105.344221,174.367532 107.248664,178.531388 C118.255845,165.735622 130.780467,154.751841 147.294996,149.632422 C153.07513,147.840271 158.820435,146.511144 164.512443,145.685225 C144.910812,134.485517 121.373739,125.041953 107.312179,137.66479 Z M188.156227,128.575512 C186.135305,133.933084 184.065252,139.42126 181.379227,144.75662 C196.842352,145.363169 211.753306,150.162528 225.714903,160.015309 C226.778404,160.765662 227.032524,162.236354 226.28117,163.300855 C225.530817,164.364355 224.058124,164.618475 222.995624,163.867121 C209.337522,154.22787 194.798813,149.729203 179.703831,149.414643 L179.072952,149.013131 C180.166467,149.708458 181.21496,150.380774 182.210429,151.019075 C194.375154,158.82775 219.687066,175.081399 233.825721,168.035083 C240.716964,164.599466 244.748861,155.731292 245.806359,141.674677 C247.135985,124.04438 232.149932,103.620767 216.654639,101.941977 C198.921293,100.016071 194.408169,111.996709 188.156227,128.575512 Z" id="Combined-Shape" fill="#E6B145"></path>
        </g>
    </g>
</svg>