<?xml version="1.0" encoding="UTF-8"?>
<svg width="447px" height="318px" viewBox="0 0 447 318" version="1.1" xmlns="http://www.w3.org/2000/svg" xmlns:xlink="http://www.w3.org/1999/xlink">
    <title>decoration-15</title>
    <g id="decoration-15" stroke="none" stroke-width="1" fill="none" fill-rule="evenodd">
        <g id="Group-14" transform="translate(0.000000, 240.901252)">
            <path d="M386.153427,42.3678056 C389.807876,39.3984791 402.694158,28.0135742 418.008039,36.5783651 C440.56991,49.2017328 447,76.9253938 447,76.9253938 L0,77 C13.3300372,61.0641174 43.4096315,27.2675123 86.6017363,22.4777948 C118.821794,18.8966975 144.420338,31.9378599 158.881514,41.4426888 C180.964826,26.7900327 207.738014,12.54025 238.670313,2.90112993 C319.033383,-13.1093589 386.153427,42.3678056 386.153427,42.3678056" id="Fill-737" fill="#D1DADF"></path>
            <path d="M70.8702042,58.8060654 C69.704261,57.8141436 69.0951862,56.717809 69.0951862,56.717809 C69.0951862,56.717809 70.3481401,56.6656026 71.8012185,57.1441613 C72.0274463,57.2224709 72.2797773,57.1528624 72.4363966,56.97014 C73.4370194,55.8041968 74.5333541,55.195122 74.5333541,55.195122 C74.5333541,55.195122 74.5768594,56.4480758 74.0983007,57.9098554 C74.0286921,58.1360832 74.0983007,58.3797131 74.2810231,58.5363323 C75.4469663,59.5369552 76.0560411,60.6332899 76.0560411,60.6332899 C76.0560411,60.6332899 74.7943862,60.6854963 73.3413077,60.2069375 C73.1150799,60.1286279 72.8627489,60.1982364 72.7061297,60.3809589 C71.7055068,61.5469021 70.6091721,62.1559769 70.6091721,62.1559769 C70.6091721,62.1559769 70.5656668,60.903023 71.0442256,59.4412435 C71.1225352,59.2150157 71.0529266,58.9626847 70.8702042,58.8060654" id="Fill-771" fill="#F7F7F6"></path>
            <path d="M209.41732,68.8645008 C208.773441,68.3163335 208.4341,67.7072587 208.4341,67.7072587 C208.4341,67.7072587 209.130185,67.6811555 209.930683,67.9421875 C210.052498,67.9856929 210.191715,67.9508886 210.278726,67.8464758 C210.826894,67.2025967 211.435968,66.8719561 211.435968,66.8719561 C211.435968,66.8719561 211.462072,67.5593405 211.201039,68.3685399 C211.157534,68.4903549 211.192338,68.629572 211.296751,68.7165826 C211.94063,69.26475 212.271271,69.8738248 212.271271,69.8738248 C212.271271,69.8738248 211.583886,69.899928 210.774687,69.6301948 C210.652872,69.5953906 210.513655,69.6301948 210.426644,69.7259066 C209.878477,70.3697857 209.269402,70.7091274 209.269402,70.7091274 C209.269402,70.7091274 209.243299,70.0130419 209.513032,69.2125436 C209.547836,69.0907286 209.513032,68.9515115 209.41732,68.8645008" id="Fill-772" fill="#F7F7F6"></path>
            <path d="M326.142156,67.2286999 C325.167637,66.3933973 324.654274,65.4797851 324.654274,65.4797851 C324.654274,65.4797851 325.707103,65.4362798 326.925253,65.8365289 C327.116676,65.8974364 327.325502,65.84523 327.456018,65.6886107 C328.29132,64.7140911 329.213634,64.200728 329.213634,64.200728 C329.213634,64.200728 329.248438,65.2535573 328.848189,66.4717069 C328.787281,66.6631304 328.839488,66.8719561 328.996107,67.0024721 C329.970627,67.8377747 330.48399,68.760088 330.48399,68.760088 C330.48399,68.760088 329.43116,68.8035933 328.213011,68.3946431 C328.021587,68.3337356 327.812762,68.3946431 327.682246,68.5425613 C326.846943,69.525782 325.92463,70.030444 325.92463,70.030444 C325.92463,70.030444 325.889825,68.9776147 326.290075,67.7594651 C326.350982,67.5680416 326.290075,67.3592159 326.142156,67.2286999" id="Fill-773" fill="#F7F7F6"></path>
            <path d="M401.676133,59.7196777 C400.692913,58.8843751 400.188251,57.9620618 400.188251,57.9620618 C400.188251,57.9620618 401.232379,57.9272575 402.45923,58.3275067 C402.650653,58.3884141 402.859479,58.3275067 402.989995,58.1795885 C403.825297,57.2050688 404.73891,56.6917058 404.73891,56.6917058 C404.73891,56.6917058 404.782415,57.7445351 404.382166,58.9626847 C404.321258,59.1541082 404.373465,59.3629338 404.530084,59.4934499 C405.504604,60.3287525 406.017967,61.2510657 406.017967,61.2510657 C406.017967,61.2510657 404.965137,61.28587 403.738287,60.8856209 C403.555564,60.8247134 403.346739,60.8856209 403.216223,61.033539 C402.38092,62.0080587 401.458607,62.5214218 401.458607,62.5214218 C401.458607,62.5214218 401.415101,61.4685925 401.824052,60.2504428 C401.884959,60.0590193 401.824052,59.8501937 401.676133,59.7196777" id="Fill-774" fill="#F7F7F6"></path>
            <path d="M366.924065,72.3623304 L366.854457,72.3275261 L366.924065,72.3623304 L366.854457,72.3275261 L366.924065,72.3623304 C366.958869,72.2927219 368.142215,70.1696611 370.839546,67.5419384 C373.528176,64.9055146 377.722091,61.7644288 383.795437,59.641368 C384.361007,59.4412435 384.656843,58.8234676 384.46542,58.2578981 C384.265295,57.6923287 383.638818,57.3877913 383.073249,57.5879158 C376.564849,59.8675958 372.057696,63.2697137 369.177642,66.1149631 C366.306289,68.9602126 365.053335,71.2485936 365.00983,71.3182022 C364.722695,71.8489674 364.914118,72.5015475 365.444883,72.7973838 C365.975649,73.0845191 366.63693,72.8843945 366.924065,72.3623304" id="Fill-775" fill="#F7F7F6"></path>
            <path d="M96.5992642,59.1019018 L96.6079653,59.1019018 C96.7819866,59.0409943 100.662663,57.7445351 105.709283,57.7445351 C108.685049,57.7445351 112.061063,58.1969906 115.332665,59.5891616 C118.604267,60.9813326 121.771456,63.2958169 124.416581,67.115586 C124.755922,67.6115469 125.434606,67.7333619 125.921866,67.3940202 C126.417826,67.0459775 126.548343,66.3759952 126.2003,65.8800343 C123.328947,61.7209234 119.787612,59.1193039 116.18537,57.5879158 C112.574426,56.0478267 108.902575,55.5692679 105.709283,55.5692679 C100.123197,55.577969 95.9553851,57.0223464 95.8857766,57.0484496 C95.3202071,57.2485742 95.0156697,57.86635 95.2157943,58.4319195 C95.4159189,58.997489 96.0336947,59.3020264 96.5992642,59.1019018" id="Fill-776" fill="#F7F7F6"></path>
        </g>
        <g id="Christmas/Stuffs/Candle-1" transform="translate(224.276410, 9.566000)">
            <path d="M174.736091,74.3189516 L174.736091,266.178049 C174.708102,266.907338 174.526176,267.552479 174.526176,267.552479 C171.265495,275.532583 133.508774,281.843738 87.3806403,281.843738 C41.2553055,281.843738 3.26068053,275.532583 0.013994337,267.552479 L0,267.552479 L0,74.3189516 L174.736091,74.3189516" id="Fill-618" fill="#CF4D4D"></path>
            <path d="M174.76408,74.2894996 C174.76408,82.7969359 135.649908,89.6943265 87.3876375,89.6943265 C39.1281663,89.6943265 0.00559773481,82.7969359 0.00559773481,74.2894996 C0.00559773481,65.7820632 39.1281663,58.8846726 87.3876375,58.8846726 C135.649908,58.8846726 174.76408,65.7820632 174.76408,74.2894996" id="Fill-619" fill="#DFD9D1"></path>
            <path d="M85.6383454,66.4468382 L85.6383454,79.3314108 C85.6383454,80.2991211 86.4220283,81.0845093 87.3876375,81.0845093 C88.3532468,81.0845093 89.1369296,80.2991211 89.1369296,79.3314108 L89.1369296,66.4468382 C89.1369296,65.4791278 88.3532468,64.6937397 87.3876375,64.6937397 C86.4220283,64.6937397 85.6383454,65.4791278 85.6383454,66.4468382" id="Fill-620" fill="#181F1F"></path>
            <path d="M108.840826,40.7532286 C108.840826,57.1117411 98.1547504,66.871591 87.0418473,66.871591 C75.9289443,66.871591 67.0047556,57.3361377 69.0157418,41.1038482 C71.5305242,20.7973579 93.539418,0 93.539418,0 C93.539418,0 108.840826,24.394716 108.840826,40.7532286" id="Fill-621" fill="#D56E4F"></path>
            <path d="M80.4729055,28.5446507 C80.4225259,28.6133722 79.1392452,30.3678731 77.8475679,33.185453 C76.5586895,36.0016304 75.2460207,39.8907041 75.2418195,44.2538156 C75.2404229,46.9563922 75.7582134,49.8426936 77.1142647,52.6841156 C78.4675171,55.5255376 80.6548319,58.3010431 83.8903226,60.8086752 C84.6544134,61.4005212 85.7529689,61.2616758 86.3449294,60.4959224 C86.9368898,59.730169 86.7969464,58.6292232 86.0328556,58.0359746 C83.1766115,55.8186557 81.3797386,53.4919434 80.2713871,51.170841 C79.164435,48.8497386 78.7418061,46.5160139 78.7404066,44.2538156 C78.7362083,40.6115782 79.8697496,37.1656878 81.0256819,34.6482384 C81.6022485,33.3902149 82.1802147,32.3664054 82.6084414,31.665166 C82.8225547,31.3159488 83.0002828,31.0466729 83.1192347,30.8685581 L83.2549797,30.672211 L83.2857673,30.6287342 L83.291365,30.6203193 L82.9513026,30.3706781 L83.291365,30.6217218 L83.291365,30.6203193 L82.9513026,30.3706781 L83.291365,30.6217218 C83.8637334,29.8419436 83.6958014,28.7452052 82.9177162,28.1715914 C82.1396311,27.5979775 81.0452739,27.7648725 80.4729055,28.5446507" id="Fill-622" fill="#F7F7F6"></path>
            <path d="M0,199.223712 L0,195.717515 L0.027988674,195.717515 C9.57212652,195.717515 14.3721841,199.462134 19.0043097,203.094554 C23.3565485,206.516602 27.4848779,209.742303 35.8255028,209.742303 C44.180122,209.742303 48.2944571,206.516602 52.6606902,203.094554 C57.2928158,199.462134 62.078879,195.717515 71.6370112,195.717515 C81.181149,195.717515 85.9812066,199.462134 90.6133322,203.094554 C94.965571,206.516602 99.0799061,209.742303 107.434525,209.742303 C115.77515,209.742303 119.90348,206.516602 124.258517,203.094554 C128.890643,199.462134 133.6907,195.717515 143.234838,195.717515 C152.79297,195.717515 157.579034,199.462134 162.211159,203.094554 C165.751727,205.871462 169.124362,208.522147 174.736091,209.419733 L174.736091,212.95398 C167.934843,212.028344 163.946457,208.900816 160.070026,205.857437 C155.703793,202.449413 151.589457,199.223712 143.234838,199.223712 C134.894213,199.223712 130.779878,202.449413 126.413645,205.857437 C121.78152,209.489857 116.978663,213.2485 107.434525,213.2485 C97.8763931,213.2485 93.0903299,209.489857 88.4582043,205.857437 C84.0919711,202.449413 79.9776361,199.223712 71.6370112,199.223712 C63.282392,199.223712 59.1680569,202.449413 54.8018238,205.857437 C50.1696982,209.489857 45.383635,213.2485 35.8255028,213.2485 C26.2813649,213.2485 21.4813073,209.489857 16.8491818,205.857437 C12.4829486,202.449413 8.36861354,199.223712 0.027988674,199.223712 L0,199.223712" id="Fill-623" fill="#F7F7F6"></path>
            <path d="M0,174.820581 L0,171.314384 L0.027988674,171.314384 C9.57212652,171.314384 14.3721841,175.073028 19.0043097,178.705448 C23.3565485,182.113471 27.4848779,185.339172 35.8255028,185.339172 C44.180122,185.339172 48.2944571,182.113471 52.6606902,178.705448 C57.2928158,175.073028 62.078879,171.314384 71.6370112,171.314384 C81.181149,171.314384 85.9812066,175.073028 90.6133322,178.705448 C94.965571,182.113471 99.0799061,185.339172 107.434525,185.339172 C115.77515,185.339172 119.90348,182.113471 124.258517,178.705448 C128.890643,175.073028 133.6907,171.314384 143.234838,171.314384 C152.79297,171.314384 157.579034,175.073028 162.211159,178.705448 C165.751727,181.468331 169.124362,184.119016 174.736091,185.016602 L174.736091,188.550849 C167.934843,187.625213 163.946457,184.51171 160.070026,181.468331 C155.703793,178.046283 151.589457,174.820581 143.234838,174.820581 C134.894213,174.820581 130.779878,178.046283 126.413645,181.468331 C121.78152,185.100751 116.978663,188.845369 107.434525,188.845369 C97.8763931,188.845369 93.0903299,185.100751 88.4582043,181.468331 C84.0919711,178.046283 79.9776361,174.820581 71.6370112,174.820581 C63.282392,174.820581 59.1680569,178.046283 54.8018238,181.468331 C50.1696982,185.100751 45.383635,188.845369 35.8255028,188.845369 C26.2813649,188.845369 21.4813073,185.100751 16.8491818,181.468331 C12.4829486,178.046283 8.36861354,174.820581 0.027988674,174.820581 L0,174.820581" id="Fill-624" fill="#F7F7F6"></path>
            <path d="M0,150.431475 L0,146.925278 L0.027988674,146.925278 C9.57212652,146.925278 14.3721841,150.669897 19.0043097,154.302317 C23.3565485,157.724365 27.4848779,160.950066 35.8255028,160.950066 C44.180122,160.950066 48.2944571,157.724365 52.6606902,154.302317 C57.2928158,150.669897 62.078879,146.925278 71.6370112,146.925278 C81.181149,146.925278 85.9812066,150.669897 90.6133322,154.302317 C94.965571,157.724365 99.0799061,160.950066 107.434525,160.950066 C115.77515,160.950066 119.90348,157.724365 124.258517,154.302317 C128.890643,150.669897 133.6907,146.925278 143.234838,146.925278 C152.79297,146.925278 157.579034,150.669897 162.211159,154.302317 C165.751727,157.079225 169.124362,159.72991 174.736091,160.627496 L174.736091,164.161743 C167.934843,163.236107 163.946457,160.108579 160.070026,157.0652 C155.703793,153.657177 151.589457,150.431475 143.234838,150.431475 C134.894213,150.431475 130.779878,153.657177 126.413645,157.0652 C121.78152,160.69762 116.978663,164.456263 107.434525,164.456263 C97.8763931,164.456263 93.0903299,160.69762 88.4582043,157.0652 C84.0919711,153.657177 79.9776361,150.431475 71.6370112,150.431475 C63.282392,150.431475 59.1680569,153.657177 54.8018238,157.0652 C50.1696982,160.69762 45.383635,164.456263 35.8255028,164.456263 C26.2813649,164.456263 21.4813073,160.69762 16.8491818,157.0652 C12.4829486,153.657177 8.36861354,150.431475 0.027988674,150.431475 L0,150.431475" id="Fill-625" fill="#F7F7F6"></path>
        </g>
        <g id="Group" transform="translate(33.909386, 130.943000)">
            <g id="Christmas/Balls/Ball-1" transform="translate(67.500000, 83.297872) rotate(20.000000) translate(-67.500000, -83.297872) ">
                <path d="M71.7255864,24.3757781 L71.6567115,24.2522084 C71.3052469,23.6211928 69.6816223,20.6565334 68.1602973,17.1307461 C67.4006476,15.3683588 66.6653067,13.4661961 66.1284877,11.6602556 C65.5896428,9.85735375 65.255397,8.14257124 65.2594484,6.82584516 C65.2574227,6.00643639 65.3880824,5.35718914 65.5967329,4.93178533 C65.8124734,4.50435579 66.042394,4.27646089 66.4769136,4.09211924 C66.6673325,4.01615427 66.8152109,3.99184548 66.9519479,3.99184548 C67.1079293,3.99184548 67.2568206,4.02324434 67.4411623,4.10731223 C67.7814853,4.26025503 68.2311979,4.64007986 68.6880006,5.25590252 C69.4942421,6.32751498 70.2883292,8.05546475 70.9588466,10.0072579 C71.9707,12.9374799 72.7404783,16.3771736 73.2479243,19.0663334 C73.5021537,20.4124326 73.6915597,21.5721644 73.8171551,22.392586 C73.8799528,22.8027969 73.9275575,23.1289398 73.9589564,23.3507575 C73.9893424,23.5735881 74.0045354,23.6870291 74.0045354,23.6870291 L76.5154307,23.3639248 C76.5113792,23.3335388 75.8398489,18.1020848 74.4410807,12.8017558 C73.7381515,10.1480463 72.864048,7.48218247 71.7417922,5.37845933 C71.1766129,4.32609133 70.5516744,3.40640881 69.7869604,2.69132526 C69.404097,2.33580922 68.9807189,2.03093649 68.5046718,1.81013165 C68.0306504,1.58932682 67.4999085,1.45866707 66.9519479,1.45967219 C66.4748879,1.45866707 65.9937764,1.5569151 65.5349481,1.74125675 C64.5190432,2.13830031 63.7421748,2.92225876 63.3147453,3.83282549 C62.8792128,4.74541795 62.7293086,5.75929703 62.7272829,6.82584516 C62.7303215,8.65710728 63.1790212,10.6929684 63.8201655,12.7713699 C65.7486628,18.9832784 69.5033579,25.5831146 69.5226023,25.6246421 L71.7255864,24.3757781" id="Fill-515" fill="#131514" transform="translate(69.621357, 13.542157) rotate(19.000000) translate(-69.621357, -13.542157) "></path>
                <path d="M132.342907,87.8421796 C131.857744,92.684693 130.483285,97.5160649 128.329931,102.19652 C127.875154,103.198244 127.369734,104.188828 126.844056,105.179411 L126.844056,105.189539 C124.427358,109.667421 121.293549,113.974128 117.554047,117.997233 C108.344055,127.853434 101.288429,141.005502 95.6680341,155.693075 C94.4951351,158.755982 92.8066871,160.767534 90.6138317,161.495785 C88.3997062,162.234165 85.8523476,161.627458 83.0720299,159.868109 C69.7893023,151.457268 56.2736155,145.140022 43.0101324,142.74358 C39.1693437,142.046728 35.4997294,141.055132 32.0529456,139.761702 C31.0613496,139.398083 30.0910238,139.003065 29.1409553,138.578674 C23.5306893,136.132602 18.5868893,132.87725 14.553656,128.884532 L14.5435274,128.884532 C10.2580904,124.658854 7.00273837,119.624909 5.09145982,113.872841 C4.32370722,111.567558 3.79802966,109.222773 3.50531132,106.846588 C3.20145145,104.430903 3.14067948,101.994959 3.31286674,99.5580032 C3.37363871,98.6990926 3.45466801,97.8401821 3.57519909,96.9802586 C4.92028542,86.8414678 10.1061605,76.7725648 18.233399,68.0690053 C27.4423786,58.2229329 34.4888889,45.0718779 40.1092835,30.383292 C41.2923113,27.3203846 42.9696177,25.3088323 45.1736146,24.5805815 C47.3877402,23.8523306 49.92497,24.4489088 52.6951592,26.2082575 C65.9880154,34.6190985 79.5138308,40.9363451 92.7661724,43.3327866 C102.946491,45.1822803 111.952897,49.1557545 118.817092,54.9675808 C119.474442,55.5135157 120.111535,56.0898366 120.72837,56.6762861 C122.880711,58.7182244 124.781861,60.962736 126.399408,63.3986792 C128.198258,66.0979677 129.643619,69.0393312 130.684845,72.2035252 C132.383422,77.2982423 132.888842,82.5752753 132.342907,87.8421796" id="Fill-517" fill="#CF4D4D" transform="translate(67.885512, 93.040388) rotate(19.000000) translate(-67.885512, -93.040388) "></path>
                <path d="M131.057436,87.6772882 C129.825791,89.571348 128.223437,91.3195551 125.005561,92.5116986 C116.6089,95.597902 114.039258,88.6182409 105.642597,91.7034314 C97.2459362,94.7896347 99.8155778,101.769296 91.4189169,104.854486 C83.0222559,107.94069 80.4526143,100.961029 72.0559534,104.060399 C63.6592925,107.14559 66.2157668,114.125251 57.8191058,117.211454 C49.4224449,120.297658 46.8528033,113.317996 38.4561424,116.403187 C30.0604943,119.48939 32.629123,126.469051 24.2324621,129.554242 C19.3858972,131.342964 16.4718811,129.766944 13.2671724,128.720653 L13.2540052,128.720653 C8.97565826,124.494975 5.71828051,119.463056 3.81105342,113.701873 C3.04228796,111.397602 2.51255893,109.052817 2.22186632,106.68271 C6.98942761,107.119255 10.0087818,110.589335 16.3928776,108.245562 C24.7885256,105.159359 22.2198969,98.179698 30.6165579,95.0945075 C39.0263861,91.9951368 41.5818475,98.9747979 49.9785085,95.8885946 C58.3883367,92.8034041 55.8197079,85.823743 64.215356,82.7375396 C72.6120169,79.6523491 75.1816585,86.6309974 83.5783195,83.5458069 C91.9749804,80.4464362 89.4053388,73.4799424 97.8019998,70.3815846 C106.211828,67.2953813 108.768302,74.2750424 117.164963,71.188839 C122.144214,69.3616284 123.270521,66.1700869 125.110899,63.2297363 C126.911775,65.9310505 128.356122,68.8714011 129.4014,72.036608 C131.096938,77.1353766 131.600333,82.4063324 131.057436,87.6772882" id="Fill-518" fill="#DFD9D1" transform="translate(66.744047, 96.797765) rotate(19.000000) translate(-66.744047, -96.797765) "></path>
                <path d="M80.6587062,25.8287603 C77.8520539,27.004698 74.7739535,28.1664556 71.4355465,29.2471838 C67.8165755,30.41907 64.3859976,31.335714 61.2035719,32.0558618 C60.2119759,28.9595298 59.2213927,25.8631978 58.2297967,22.7668658 C57.2979598,19.8558882 58.9023399,16.7413246 61.8133174,15.8094877 L70.727553,12.9562436 C73.6385305,12.0244067 76.7530941,13.6287867 77.684931,16.5387514 L80.6587062,25.8287603" id="Fill-519" fill="#C1BFB9" transform="translate(69.311772, 22.373569) rotate(19.000000) translate(-69.311772, -22.373569) "></path>
                <path d="M126.02976,55.6005415 C124.674545,57.8045384 122.875694,60.0693072 118.98325,61.49441 C114.353438,63.1929866 111.21963,62.0808595 108.449441,61.100405 C105.741037,60.1290663 103.395239,59.3005418 99.6142089,60.6851299 C95.8544495,62.0808595 94.6005211,64.2230716 93.1652897,66.7207997 C91.6895436,69.2580295 90.021353,72.1386211 85.3915415,73.8473264 C80.76173,75.5560317 77.6279219,74.4337759 74.8577328,73.4533214 C72.138187,72.4931242 69.8035304,71.6534581 66.0326295,73.0390591 C62.2617286,74.4236472 61.0189417,76.5770008 59.5735816,79.0635874 C58.0968227,81.6109459 56.4296449,84.4915374 51.7897047,86.1901141 C47.1700219,87.8886907 44.0362138,86.7765636 41.2660247,85.7961091 C38.5566076,84.835912 36.2118223,84.0063745 32.4307927,85.4021042 C28.6598918,86.7866923 27.417105,88.9299172 25.9808607,91.4266324 C24.5051146,93.9638623 22.8369239,96.8454667 18.2071124,98.5531591 C16.469034,99.190252 14.9426446,99.4333399 13.5570436,99.4333399 C11.6771639,99.4333399 10.0798739,98.9785629 8.6142565,98.4822585 C8.67502848,97.6233479 8.75605778,96.7644374 8.87658886,95.904514 C11.4340761,96.804952 13.7393596,97.501804 17.3380732,96.1779879 C21.1089742,94.7933997 22.351761,92.6400462 23.7880053,90.1534596 C25.2637514,87.6152169 26.931942,84.7244967 31.5617535,83.02592 C36.191565,81.3182276 39.3355017,82.4293418 42.1148066,83.4209378 C44.8242238,84.381135 47.1598933,85.2096596 50.9196527,83.8250715 C54.7006822,82.4394705 55.944482,80.2871298 57.3898421,77.7995303 C58.8655881,75.2521718 60.5337788,72.3715803 65.1635903,70.6730036 C69.7832731,68.9642983 72.9272098,70.0865541 75.6973989,71.0670086 C78.4159319,72.0373344 80.7516014,72.8668719 84.5225023,71.4822837 C88.2923903,70.0865541 89.5361901,67.9332005 90.9815501,65.446614 C92.4471676,62.9093841 94.1153582,60.0186639 98.7451697,58.3099586 C103.38511,56.6113819 106.518918,57.7235091 109.289107,58.7140922 C111.998524,59.6742894 114.343309,60.5038268 118.104082,59.1182258 C121.479965,57.8855676 122.83518,56.0350611 124.118481,53.8918362 C124.775831,54.437771 125.412924,55.0140919 126.02976,55.6005415" id="Fill-520" fill="#F7F7F6" transform="translate(67.322008, 76.662588) rotate(19.000000) translate(-67.322008, -76.662588) "></path>
                <path d="M118.932477,104.255237 C118.4777,105.256962 117.97228,106.247545 117.446602,107.238128 L117.446602,107.248257 C114.181122,107.794191 111.73505,106.924139 109.520924,106.136129 C106.801379,105.175932 104.466722,104.346395 100.695821,105.731996 C96.92492,107.116584 95.6821332,109.259809 94.2367731,111.756524 C92.7701428,114.293754 91.0928363,117.184474 86.4731535,118.883051 C81.8423292,120.581627 78.7085211,119.4695 75.9393449,118.489046 C73.2197991,117.528849 70.8851424,116.689183 67.1142415,118.084912 C63.3332119,119.4695 62.0904251,121.622854 60.6440521,124.109441 C59.168306,126.656799 57.5001154,129.538403 52.8703039,131.235967 C48.2404924,132.934544 45.0965557,131.822417 42.3273795,130.841962 C39.6179623,129.871636 37.2822928,129.043112 33.5124048,130.4277 C29.7415038,131.812288 28.4977041,133.965642 27.052344,136.452228 C26.0111176,138.252091 24.8686045,140.223129 22.6554918,141.820419 C21.6638958,141.4568 20.6935699,141.061782 19.7435014,140.637391 C22.5035619,139.262932 23.6055603,137.352666 24.8686045,135.189184 C26.3342219,132.641826 28.0125412,129.760221 32.632224,128.062657 C37.2620355,126.353952 40.4059722,127.476208 43.1761613,128.456662 C45.8855785,129.416859 48.2303638,130.255513 52.0012647,128.870925 C55.7721656,127.476208 57.0149525,125.332983 58.4603126,122.846396 C59.9370715,120.299038 61.6042493,117.417433 66.2350736,115.718857 C70.8648851,114.011164 74.0088219,115.122279 76.7779981,116.103746 C79.4874152,117.063943 81.8322005,117.892468 85.6031014,116.50788 C89.3638737,115.122279 90.6076734,112.969938 92.0530335,110.482338 C93.5287796,107.945109 95.1969703,105.054388 99.8267817,103.355812 C104.446465,101.657235 107.590401,102.769362 110.359578,103.759945 C113.018351,104.700898 115.303378,105.509165 118.932477,104.255237" id="Fill-521" fill="#F7F7F6" transform="translate(69.337989, 122.148232) rotate(19.000000) translate(-69.337989, -122.148232) "></path>
            </g>
        </g>
        <g id="Group" transform="translate(124.435581, 150.486949)">
            <g id="Christmas/Balls/Ball-2" transform="translate(61.500000, 77.919903) rotate(-20.000000) translate(-61.500000, -77.919903) ">
                <path d="M58.839302,19.5621936 C58.839302,19.5621936 58.8466713,19.5095563 58.864568,19.3969123 C58.9961613,18.5599784 59.6625503,14.6511282 60.8942644,11.0475747 C61.5059105,9.24948263 62.2691522,7.52824105 63.1008225,6.35653349 C63.5134993,5.77015333 63.9388092,5.32694678 64.3241146,5.06060176 C64.7146838,4.79215123 65.0326135,4.69214026 65.3663343,4.68898201 C65.6168881,4.69003476 65.9032353,4.7489886 66.2727496,4.9342721 C66.8254418,5.21746108 67.1223165,5.53012698 67.3339187,5.9101687 C67.5413099,6.29126316 67.6560593,6.77973784 67.6571121,7.39875316 C67.6613231,8.41254865 67.3233912,9.73269357 66.766488,11.0928429 C65.9348178,13.1393833 64.6420443,15.2754073 63.5598202,16.8745302 C63.0197609,17.6756708 62.5312862,18.3452179 62.1817742,18.8115849 C62.0059654,19.044242 61.8659501,19.2263673 61.7690973,19.3495387 L61.6606644,19.4885013 L61.6269765,19.5306112 L63.6735169,21.184477 C63.6956246,21.1560528 65.305275,19.165308 66.9359803,16.4871192 C67.7508066,15.1469721 68.5719493,13.6341745 69.2035976,12.0855834 C69.8310349,10.5348869 70.2837162,8.95155519 70.2889799,7.39875316 C70.2889799,6.45759721 70.1121184,5.51117753 69.6468042,4.65318861 C69.1857009,3.79519969 68.4287757,3.06880416 67.4581429,2.58454048 C66.7801737,2.24134491 66.0674639,2.05606141 65.3663343,2.05710557 C64.3546443,2.05500867 63.4271741,2.44031412 62.6744599,3.00563934 C61.3543149,4.00259088 60.4142117,5.5038083 59.6109657,7.1808345 C58.4203087,9.70005841 57.5939022,12.6698581 57.0443681,15.0374864 C56.4979924,17.4009037 56.2390166,19.1537277 56.2358583,19.1779409 L58.839302,19.5621936" id="Fill-506" fill="#131514" transform="translate(63.262419, 11.620791) rotate(-19.000000) translate(-63.262419, -11.620791) "></path>
                <path d="M120.600308,84.1815845 C124.871304,119.020146 103.710033,146.210499 71.0685555,151.361591 C38.4270776,156.51163 6.66569633,137.67272 2.39470118,102.834158 C-1.87524123,67.9945445 21.5789123,39.2871827 54.2203902,34.1360909 C86.8618681,28.9860519 116.329313,49.3419706 120.600308,84.1815845" id="Fill-507" fill="#122032" transform="translate(61.519736, 92.772713) rotate(-19.000000) translate(-61.519736, -92.772713) "></path>
                <path d="M68.1435535,60.9309365 L50.2542213,125.966497 C50.0615686,126.667626 50.4731927,127.391916 51.1732696,127.584569 C51.8743992,127.777222 52.5986892,127.365598 52.7913419,126.664468 L70.6817269,61.6289078 C70.8743796,60.9277782 70.4627554,60.2034882 69.7616259,60.0108354 C69.0604963,59.8181827 68.3362062,60.2298069 68.1435535,60.9309365" id="Fill-509" fill="#F7F7F6" transform="translate(60.467972, 93.797702) rotate(-19.000000) translate(-60.467972, -93.797702) "></path>
                <path d="M46.1601074,71.2932445 L72.4882607,117.602538 C72.8472475,118.234187 73.6504935,118.455264 74.2821418,118.096277 C74.9137901,117.73729 75.134867,116.934044 74.7758802,116.302396 L48.447727,69.9931017 C48.0887402,69.3614535 47.2854941,69.1403766 46.6527931,69.4993633 C46.0211448,69.8583501 45.8000679,70.6615962 46.1601074,71.2932445" id="Fill-510" fill="#F7F7F6" transform="translate(60.467629, 93.797820) rotate(-19.000000) translate(-60.467629, -93.797820) "></path>
                <path d="M27.6001556,86.1210701 L92.6367685,104.011455 C93.3368453,104.204108 94.0621881,103.792484 94.2548408,103.091354 C94.4474936,102.391277 94.0358694,101.666987 93.3347398,101.474334 L28.2991797,83.5839494 C27.5980501,83.3912967 26.8737601,83.8029208 26.6811073,84.5040504 C26.4884546,85.2041273 26.9000787,85.9284173 27.6001556,86.1210701" id="Fill-511" fill="#F7F7F6" transform="translate(60.467972, 93.797702) rotate(-19.000000) translate(-60.467972, -93.797702) "></path>
                <path d="M37.9634182,108.105706 L84.2727122,81.7775532 C84.9043605,81.4185665 85.1254374,80.6153204 84.7664506,79.9836721 C84.4074638,79.3520238 83.6042177,79.1309469 82.9715167,79.4899337 L36.6622227,105.818087 C36.0305744,106.177074 35.8094975,106.98032 36.169537,107.611968 C36.5285238,108.243616 37.3317699,108.464693 37.9634182,108.105706" id="Fill-512" fill="#F7F7F6" transform="translate(60.467629, 93.797820) rotate(-19.000000) translate(-60.467629, -93.797820) "></path>
                <path d="M72.2312913,37.8043063 C68.2087445,37.072647 63.7177252,36.0262164 58.9003543,34.5186825 C54.4324954,33.1195815 50.4278453,31.556252 46.9137753,29.9929225 C48.1854939,25.8703647 49.4582652,21.7467541 50.7299837,17.6241963 C51.6669287,14.5880736 54.8862294,12.8868342 57.9212994,13.8237792 L72.2470825,18.2432117 C75.2821526,19.1801566 76.9844447,22.3994574 76.0474997,25.4345274 L72.2312913,37.8043063" id="Fill-513" fill="#C1BFB9" transform="translate(61.609288, 25.685348) rotate(-19.000000) translate(-61.609288, -25.685348) "></path>
                <path d="M44.2570392,51.0443841 C44.1749249,51.057017 37.7679058,51.9086895 29.9049374,55.4396034 C22.0524965,58.9673591 12.6988382,65.2027804 6.93925854,76.025021 C6.59816847,76.6671968 6.84135306,77.4630736 7.48247606,77.8052164 C8.12465182,78.1463065 8.92158141,77.9031219 9.26267148,77.2609461 C14.6464204,67.1324659 23.4579139,61.2212907 30.9840033,57.8398669 C34.7423105,56.1512605 38.1679497,55.1006188 40.644011,54.4742343 C41.8809889,54.1615684 42.8821514,53.9552299 43.5674898,53.8267948 C43.9106854,53.7636299 44.1749249,53.7194146 44.3507337,53.6909904 L44.5465447,53.6615135 L44.603393,53.6530915 C45.3245248,53.5583443 45.8308962,52.8961663 45.7350962,52.1760873 C45.6392962,51.4549555 44.978171,50.9485841 44.2570392,51.0443841" id="Fill-514" fill="#F7F7F6" transform="translate(26.265827, 64.496135) rotate(-19.000000) translate(-26.265827, -64.496135) "></path>
            </g>
        </g>
    </g>
</svg>