<?xml version="1.0" encoding="UTF-8"?>
<svg width="447px" height="412px" viewBox="0 0 447 412" version="1.1" xmlns="http://www.w3.org/2000/svg" xmlns:xlink="http://www.w3.org/1999/xlink">
    <title>decoration-18</title>
    <g id="decoration-18" stroke="none" stroke-width="1" fill="none" fill-rule="evenodd">
        <g id="Group" transform="translate(0.374000, 0.405255)">
            <path d="M15,412 L405,412 C399.481719,360.455022 383.268144,330.418263 356.359275,321.889722 C355.864426,321.73302 355.367515,321.580441 354.870604,321.427863 C327.035344,312.953572 292.385599,314.221623 249.756412,333.848575 C249.756412,333.848575 125.53486,259.384097 42.1878412,333.999091 C27.314083,347.314586 18.2514692,373.314889 15,412 Z" id="Fill-576" fill="#D1DADF"></path>
            <path d="M289.957794,145.894128 C282.808932,140.74786 274.441016,143.551111 266.261378,149.906924 C274.655919,111.370769 279.127049,74.764941 262.041286,63.2001009 C239.168349,47.7156529 219.568407,82.8532924 219.110074,86.4248711 C219.737668,81.4136305 228.008592,5.69350076 192.366975,0.210614058 C155.770656,-5.41871117 154.833069,103.666581 154.833069,103.666581 C154.833069,103.666581 144.510104,45.4886462 111.666034,83.2583756 C103.969453,92.1093485 109.178481,122.627518 119.74868,159.88186 C112.715827,160.151915 106.972394,165.608177 104.159633,179.675785 C98.4960754,207.997376 161.37716,307.237055 178.694942,333.869849 C181.482979,338.154603 185.63841,341.347723 190.4899,342.955118 C190.767562,343.023208 191.817356,341.459929 193.462412,338.55398 C212.079123,310.86759 311.237024,161.215021 289.957794,145.894128" id="Fill-577" fill="#6E9985"></path>
            <polyline id="Fill-578" fill="#A8CAD4" points="122.926586 61.4409368 131.372476 339.19869 123.866075 347.878501 111.901857 347.878501 0 124.31061 68.5009005 137.448238 122.926586 61.4409368"></polyline>
            <path d="M0,124.31061 L47.7484691,7.69609518 C48.2771693,6.40477361 49.8860913,5.96545803 50.9967419,6.80985681 L122.926586,61.4409368 L68.5009005,137.448238 L0,124.31061" id="Fill-579" fill="#D1DADF"></path>
            <path d="M47.3814219,9.11673908 L66.1483751,137.792464 L66.2016255,138.049207 L120.39339,345.664807 C120.724303,346.935209 122.023232,347.695928 123.293633,347.365015 C124.564035,347.032201 125.324755,345.733272 124.993842,344.46287 L70.834408,136.976592 L52.0864728,8.43018962 C51.8962929,7.13126086 50.6905523,6.2317099 49.3916235,6.4218898 C48.0926948,6.61016791 47.1931438,7.81781032 47.3814219,9.11673908" id="Fill-580" fill="#F7F7F6"></path>
            <polyline id="Fill-581" fill="#9EAFB3" points="192.366975 366.411533 152.016505 176.861122 194.244051 209.70329 252.423888 153.400529 238.346771 353.275807 215.825667 373.450091 192.366975 366.411533"></polyline>
            <path d="M152.016505,176.861122 L197.463797,77.0566089 C198.504081,74.7706464 201.662969,74.5424305 203.022756,76.6534275 L252.423888,153.400529 L194.244051,209.70329 L152.016505,176.861122" id="Fill-582" fill="#D1DADF"></path>
            <path d="M197.91072,77.8705789 L191.868704,209.594888 L191.88582,210.011382 L212.999593,371.881107 C213.168854,373.181938 214.363183,374.100507 215.664014,373.931247 C216.966746,373.760085 217.883413,372.567657 217.714153,371.264924 L196.628907,209.604397 L202.659512,78.087384 C202.72037,76.7770444 201.704809,75.664492 200.394469,75.6011877 C199.082228,75.5446786 197.969675,76.5583375 197.91072,77.8705789" id="Fill-583" fill="#F7F7F6"></path>
            <polyline id="Fill-584" fill="#A8CAD4" points="269.313766 333.569365 339.16114 109.756142 372.086987 169.021906 439.73398 157.647246 325.991181 352.806063 289.957794 351.398731 269.313766 333.569365"></polyline>
            <path d="M439.73398,157.647246 L446.662234,53.7234362 C446.772538,52.0707728 445.007669,50.9525149 443.5604,51.7569759 L339.16114,109.756142 L372.086987,169.021906 L439.73398,157.647246" id="Fill-585" fill="#D1DADF"></path>
            <path d="M442.6095,52.4169002 L370.074884,167.75721 L369.915133,168.053891 L289.195173,349.021482 C288.658866,350.221518 289.198977,351.626947 290.39711,352.161353 C291.597145,352.695758 293.002575,352.157549 293.53698,350.959416 L374.188475,170.143968 L446.635609,54.9481947 C447.333569,53.8375441 447,52.3693552 445.888202,51.671395 C444.777551,50.9715329 443.309362,51.3056153 442.6095,52.4169002" id="Fill-586" fill="#F7F7F6"></path>
            <path d="M348.027327,359.538431 C347.839049,359.454752 329.328839,348.816088 306.69743,348.785655 C296.096802,348.781856 284.543373,351.168614 273.762074,358.203368 C272.662834,358.922248 272.352841,360.394241 273.069819,361.493481 C273.786797,362.594622 275.260691,362.904616 276.359931,362.185736 C286.241679,355.744342 296.789057,353.543961 306.69743,353.540157 C317.25812,353.536353 327.052385,356.071452 334.176525,358.621764 C337.740496,359.894068 340.635034,361.168273 342.62812,362.117271 C343.624662,362.592721 344.394891,362.986393 344.91218,363.25835 C345.170825,363.393378 345.364808,363.499879 345.492229,363.568343 L345.63106,363.646317 L345.667194,363.667237 C346.808274,364.317652 348.259347,363.922078 348.911664,362.7829 C349.562079,361.641821 349.166505,360.190748 348.027327,359.538431" id="Fill-587" fill="#F7F7F6"></path>
            <path d="M215.633585,370.401507 C215.435798,370.310221 203.266186,363.971525 186.492318,363.958173 C174.408287,363.9449 159.880444,367.326298 146.15516,378.778932 C145.147206,379.619528 145.010277,381.118145 145.850872,382.126099 C146.691467,383.135954 148.190085,383.270982 149.198038,382.432288 C162.012361,371.766999 175.260293,368.724121 186.492318,368.710808 C194.270676,368.710808 201.056295,370.201819 205.873552,371.694731 C208.28123,372.438334 210.198243,373.18384 211.499074,373.735361 C212.151391,374.011122 212.647761,374.239338 212.976772,374.393384 L213.340016,374.570251 L213.423695,374.612091 L213.438909,374.6216 C214.604712,375.226372 216.038668,374.773744 216.645342,373.607941 C217.252016,372.44404 216.797486,371.008181 215.633585,370.401507" id="Fill-588" fill="#F7F7F6"></path>
            <path d="M102.493657,103.31665 C108.621254,100.279477 112.455281,96.2039219 112.455281,96.2039219 C112.455281,96.2039219 107.086502,94.6292322 100.264749,95.1065838 C99.2035446,95.180754 98.2012965,94.6064107 97.7277486,93.6536093 C94.6905754,87.5260127 90.6169219,83.6919858 90.6169219,83.6919858 C90.6169219,83.6919858 89.0403304,89.0607646 89.517682,95.8825178 C89.5918522,96.9437217 89.0194106,97.9459698 88.0647075,98.4195178 C81.9390127,101.456691 78.103084,105.530344 78.103084,105.530344 C78.103084,105.530344 83.4718628,107.106936 90.293616,106.629584 C91.3567217,106.555414 92.357068,107.127856 92.830616,108.082559 C95.8677891,114.208254 99.9433445,118.044182 99.9433445,118.044182 C99.9433445,118.044182 101.519936,112.675404 101.040683,105.85365 C100.966512,104.790545 101.540856,103.790198 102.493657,103.31665" id="Fill-589" fill="#F7F7F6"></path>
            <path d="M263.376349,392.506118 C267.107679,389.238827 269.038005,385.671052 269.038005,385.671052 C269.038005,385.671052 264.981467,385.564551 260.289729,387.165866 C259.559438,387.415002 258.751174,387.200099 258.241491,386.618148 C254.976102,382.88872 251.406426,380.958394 251.406426,380.958394 C251.406426,380.958394 251.299925,385.01303 252.90124,389.70667 C253.152277,390.436961 252.935472,391.245225 252.355423,391.753006 C248.624094,395.020296 246.693768,398.588071 246.693768,398.588071 C246.693768,398.588071 250.750305,398.696474 255.442043,397.093257 C256.172334,396.844122 256.980599,397.060927 257.490281,397.640975 C260.75567,401.370403 264.325347,403.302631 264.325347,403.302631 C264.325347,403.302631 264.431847,399.246094 262.830533,394.554356 C262.581397,393.824065 262.7963,393.0158 263.376349,392.506118" id="Fill-590" fill="#F7F7F6"></path>
            <path d="M416.125046,161.882553 C419.854474,158.615262 421.7848,155.047487 421.7848,155.047487 C421.7848,155.047487 417.730165,154.939084 413.036525,156.542301 C412.306234,156.791436 411.497969,156.574631 410.990189,155.994583 C407.722898,152.265155 404.155123,150.332927 404.155123,150.332927 C404.155123,150.332927 404.04672,154.389464 405.649937,159.081203 C405.899073,159.811493 405.682268,160.62166 405.102219,161.12944 C401.370889,164.396731 399.440563,167.964506 399.440563,167.964506 C399.440563,167.964506 403.4971,168.071007 408.188839,166.469692 C408.91913,166.220556 409.727394,166.437361 410.237076,167.01741 C413.504367,170.746838 417.072142,172.677164 417.072142,172.677164 C417.072142,172.677164 417.178643,168.622528 415.577328,163.928888 C415.328192,163.198598 415.543096,162.390333 416.125046,161.882553" id="Fill-591" fill="#F7F7F6"></path>
        </g>
    </g>
</svg>