<?xml version="1.0" encoding="UTF-8"?>
<svg width="447px" height="133px" viewBox="0 0 447 133" version="1.1" xmlns="http://www.w3.org/2000/svg" xmlns:xlink="http://www.w3.org/1999/xlink">
    <title>decoration-27</title>
    <defs>
        <polygon id="path-1" points="0 0 119.332735 0 119.332735 372.449477 0 372.449477"></polygon>
        <polygon id="path-3" points="0 2.72120086e-14 27.8604571 2.72120086e-14 27.8604571 49.6710272 0 49.6710272"></polygon>
    </defs>
    <g id="decoration-27" stroke="none" stroke-width="1" fill="none" fill-rule="evenodd">
        <g id="Group" transform="translate(-3.190287, 0.568575)">
            <g id="Christmas/Misletoes/Misletoe-4.1" transform="translate(224.000000, 214.000000) scale(-1, -1) translate(-224.000000, -214.000000) ">
                <g id="Group-4" transform="translate(185.174416, 0.000000)">
                    <mask id="mask-2" fill="white">
                        <use xlink:href="#path-1"></use>
                    </mask>
                    <g id="Clip-2"></g>
                    <path d="M118.681297,192.239075 C120.444907,196.383822 118.504552,201.169094 114.346237,202.926949 C110.187923,204.685762 105.386985,202.750781 103.623376,198.606034 C101.858806,194.461288 103.800121,189.676015 107.958436,187.91816 C112.11579,186.159348 116.916727,188.094329 118.681297,192.239075" id="Fill-1" fill="#D8D2CE" mask="url(#mask-2)"></path>
                    <path d="M0.0324457747,2.83209993 C4.01113361,27.981109 4.80744752,53.5791563 4.72387779,79.001035 C4.64126863,104.355893 3.47993748,129.686815 2.60581727,155.023482 C1.92092967,174.903713 0.974766579,195.052026 2.91512134,214.892045 C5.43950368,240.694026 13.9347995,265.718569 24.4319267,289.295465 C35.4708162,314.090223 48.9735721,337.682439 61.1075134,361.941988 C62.6607578,365.046958 64.1909485,368.163417 65.6961643,371.292322 C66.9554737,373.909956 70.8601975,371.623596 69.6047304,369.015536 C57.7887383,344.460138 44.1908858,320.800902 32.5429938,296.164122 C21.044951,271.845211 11.6044526,246.236632 7.9677283,219.475298 C5.39723853,200.565909 6.30978161,181.096418 6.90053318,162.088413 C7.67475395,137.148125 8.8966011,112.222199 9.18765432,87.2694647 C9.48639211,61.7039703 9.00226399,35.9996475 5.68925231,10.6151088 C5.29829965,7.61545735 4.87084525,4.62059306 4.39824399,1.63243083 C3.94581474,-1.22743479 -0.417101765,-0.0134041241 0.0324457747,2.83209993" id="Fill-3" fill="#315C0F" mask="url(#mask-2)"></path>
                </g>
                <path d="M170.949097,287.960798 C161.355868,291.120341 149.372736,308.568681 154.629945,318.745284 C159.144632,327.484772 167.726379,323.310345 171.100867,315.597229 C173.761651,309.515587 173.703056,297.842509 170.949097,287.960798" id="Fill-5" fill="#315C0F"></path>
                <path d="M247.427892,296.75869 C246.962015,298.344207 247.854386,299.984297 249.40667,300.561632 C259.233318,304.214256 271.966656,318.509754 278.433224,311.570247 C295.78307,292.951919 252.736011,278.663123 247.427892,296.75869" id="Fill-6" fill="#315C0F"></path>
                <path d="M212.613893,353.786536 C210.075102,352.074638 206.59303,352.876013 204.755456,355.322266 C197.303341,365.242275 181.982223,389.881927 201.177327,388.405559 C212.839627,387.50844 222.480885,360.434982 212.613893,353.786536" id="Fill-7" fill="#315C0F"></path>
                <path d="M230.969457,252.106681 C237.589717,258.403747 267.839079,252.533698 257.846252,240.131053 C252.303754,233.251865 227.171357,240.024778 230.969457,252.106681" id="Fill-8" fill="#315C0F"></path>
                <path d="M247.079204,363.958351 C244.865087,371.342109 260.907594,391.783398 266.438566,379.525327 C269.505671,372.726564 254.744566,356.471191 247.079204,363.958351" id="Fill-9" fill="#315C0F"></path>
                <path d="M204.371228,205.385649 C208.752395,217.955845 229.685173,210.624746 226.518168,197.355621 C221.975624,178.318892 191.552399,174.917117 204.371228,205.385649" id="Fill-10" fill="#315C0F"></path>
                <path d="M169.338218,293.190321 C178.223506,290.370668 183.980212,281.235757 188.067445,273.454663 C192.430361,265.149851 195.876892,256.149939 198.036257,247.018858 C197.308144,247.5713 196.580991,248.122783 195.852878,248.675225 C208.579492,248.550758 220.753777,254.168043 233.518814,251.186583 C236.354422,250.524037 235.153707,246.172483 232.315218,246.835988 C220.120761,249.684364 208.069428,244.0441 195.852878,244.162822 C194.889425,244.172397 193.899075,244.854092 193.670459,245.819189 C191.673431,254.267617 188.567903,262.573387 184.613229,270.300864 C182.485563,274.4571 180.079331,278.570251 177.039121,282.135748 C174.630008,284.961146 171.753096,287.6908 168.134622,288.839725 C165.369136,289.717695 166.550639,294.074993 169.338218,293.190321" id="Fill-11" fill="#315C0F"></path>
                <path d="M208.5257,186.782639 C209.166401,181.592371 205.849547,176.227849 202.859288,172.269803 C199.681717,168.06378 195.733767,163.721801 190.9165,161.362675 C189.584187,160.710661 188.048233,161.246826 187.591962,162.710747 C182.146481,180.181108 173.420648,196.730414 163.91291,212.314623 C162.395206,214.802046 166.308575,217.07213 167.821476,214.592367 C177.528052,198.680714 186.397971,181.745561 191.956799,163.910416 C190.8483,164.360412 189.740761,164.80945 188.632261,165.258488 C192.755995,167.278681 196.202526,170.951411 198.950722,174.546589 C201.499118,177.883258 204.54317,182.366938 203.998526,186.782639 C203.644075,189.657824 208.174131,189.632931 208.5257,186.782639" id="Fill-12" fill="#315C0F"></path>
                <path d="M215.811636,361.315824 C212.461162,347.702979 210.08759,333.537692 210.853165,319.472936 C211.585121,306.037216 215.109458,292.390861 211.072176,279.140884 C209.810945,279.873324 208.550675,280.604806 207.289444,281.336288 C220.919956,292.049056 237.684813,295.550404 253.528483,301.700982 C256.244019,302.755121 257.420719,298.393993 254.731118,297.350387 C239.716423,291.521508 223.4136,288.302603 210.490069,278.146107 C208.859018,276.86314 205.985949,277.974725 206.707338,280.340553 C210.738857,293.574253 206.787065,307.383373 206.263554,320.812391 C205.716988,334.822573 208.108812,348.956264 211.445838,362.514536 C212.139371,365.333232 216.506129,364.140265 215.811636,361.315824" id="Fill-13" fill="#315C0F"></path>
                <path d="M220.845992,44.5409469 C211.5832,67.1785976 199.654821,88.6807275 186.987762,109.579672 C174.263069,130.572445 160.650808,151.00799 147.173988,171.523959 C136.216747,188.206349 125.025126,204.911717 115.764255,222.611863 C103.89255,245.2993 97.5009058,270.665648 93.8545757,295.871146 C89.6818524,324.712034 89.0584414,353.897599 86.7079225,382.908911 C86.4159087,386.520365 86.0960384,390.129904 85.7463903,393.736571 C85.4668639,396.6175 89.9460096,397.274302 90.2264965,394.377096 C93.0380898,365.38972 93.5683254,336.216602 96.9360896,307.279013 C100.040657,280.592359 105.667686,253.529433 117.491363,229.208607 C125.863705,211.988137 136.60866,195.899359 147.071207,179.897707 C160.319411,159.634501 173.809679,139.5264 186.53053,118.926176 C199.437731,98.0243594 211.757063,76.6352071 221.68169,54.1440444 C222.822849,51.5599207 223.926546,48.9595207 224.995662,46.3457165 C226.096477,43.6562747 221.946807,41.8486328 220.845992,44.5409469" id="Fill-14" fill="#315C0F"></path>
                <path d="M60.5688464,281.50001 C50.7201051,279.257691 31.4097329,288.012499 30.626867,299.432813 C29.9554274,309.238887 39.4660475,310.091964 46.3571886,305.230097 C51.7901819,301.397475 57.7975971,291.376934 60.5688464,281.50001" id="Fill-15" fill="#315C0F"></path>
                <path d="M121.456603,328.459444 C120.234755,329.576773 120.147343,331.439946 121.177076,332.735359 C127.690713,340.927194 131.168943,359.726478 140.30494,357.122248 C164.815847,350.132955 135.389695,315.710207 121.456603,328.459444" id="Fill-16" fill="#315C0F"></path>
                <path d="M58.7956311,364.324093 C51.6499385,368.326181 19.9376255,390.447773 40.8646398,396.227823 C53.7468664,399.786618 75.8246456,370.302332 58.7956311,364.324093" id="Fill-17" fill="#315C0F"></path>
                <path d="M130.54361,281.760433 C132.941197,290.563113 161.875537,301.135137 159.760358,285.368057 C158.58654,276.623781 133.562687,269.462149 130.54361,281.760433" id="Fill-18" fill="#315C0F"></path>
                <path d="M86.2843104,385.791755 C80.5573822,390.969576 83.6792401,416.734218 94.7738428,409.095782 C100.927265,404.859121 96.7295667,383.335928 86.2843104,385.791755" id="Fill-19" fill="#315C0F"></path>
                <path d="M132.025773,228.061597 C129.252602,241.078916 150.971128,245.597064 155.147693,232.60751 C161.138779,213.973862 136.868014,195.376598 132.025773,228.061597" id="Fill-20" fill="#315C0F"></path>
                <path d="M78.4470062,235.317058 C84.3794968,233.472076 105.358382,223.493663 97.4768915,213.795779 C88.1535829,202.324721 53.7420635,234.78951 78.4470062,235.317058" id="Fill-21" fill="#315C0F"></path>
                <path d="M56.7697854,285.20625 C65.7924351,287.357612 75.5480009,282.247769 83.0058793,277.74494 C91.0698785,272.876371 98.6151689,266.904834 105.214296,260.191282 C104.320965,260.41245 103.428594,260.634576 102.536222,260.855744 C113.313837,267.187278 120.62955,278.239935 132.91142,282.18362 C135.662497,283.067335 137.494307,278.93695 134.722097,278.04749 C122.599683,274.15455 115.053432,263.009021 104.3469,256.719614 C103.429554,256.180577 102.315291,256.726316 101.668826,257.384076 C95.5864864,263.571994 88.5464567,269.031302 81.1702269,273.596364 C74.5019384,277.723877 65.5590162,282.682445 57.4124079,280.739805 C54.579682,280.064811 53.9553105,284.535087 56.7697854,285.20625" id="Fill-22" fill="#315C0F"></path>
                <path d="M145.071296,214.519602 C148.429455,210.259963 148.42177,203.998322 147.925155,198.872202 C147.406446,193.521084 146.128886,187.754438 143.179931,183.175015 C142.55748,182.207046 140.879362,181.954282 140.011965,182.722147 C126.287317,194.864369 110.258258,204.589061 94.0332421,213.025042 C91.4733186,214.35588 93.1504767,218.551371 95.7401779,217.204256 C112.303315,208.592107 128.7118,198.731459 142.72558,186.332644 C141.669912,186.182326 140.613283,186.031051 139.557615,185.879776 C141.980177,189.643462 142.906168,194.571393 143.381651,198.943052 C143.814869,202.921205 144.174122,208.353705 141.525826,211.712395 C139.722833,213.999713 143.269264,216.805005 145.071296,214.519602" id="Fill-23" fill="#315C0F"></path>
                <path d="M60.791699,367.69906 C64.2276638,356.74406 68.4484157,346.055229 74.0696811,336.01937 C79.2385173,326.792545 86.4293568,319.050706 92.2139193,310.244197 C95.4625727,305.298075 98.0868545,300.096317 99.5469234,294.346905 C98.1003025,294.524031 96.6546421,294.7002 95.2089818,294.877326 C101.228884,310.854084 113.724001,322.392163 123.944483,335.636395 C125.721541,337.939032 129.347699,335.238101 127.567759,332.930677 C117.598947,320.012931 105.271931,308.753466 99.4028377,293.175959 C98.5450472,290.900131 95.5768807,291.693846 95.0658566,293.70638 C91.7979918,306.573381 81.6332224,316.152543 74.4039601,326.845204 C66.3687781,338.729875 60.912731,352.276657 56.6410688,365.89429 C55.7803966,368.641178 59.9233422,370.467969 60.791699,367.69906" id="Fill-24" fill="#315C0F"></path>
                <path d="M205.945605,80.4678292 C203.21566,95.8098066 203.656562,111.732949 210.028034,126.162488 C215.917299,139.500549 226.009065,150.3464 236.826062,159.908328 C243.859368,166.125927 251.286508,171.88587 258.729018,177.603687 C261.036311,179.376861 263.747044,175.762534 261.434948,173.985531 C239.194832,156.897187 213.820371,137.793438 209.5343,108.144473 C208.229844,99.1158381 208.843649,89.9933742 210.436277,81.0432491 C210.946341,78.175724 206.452786,77.6165805 205.945605,80.4678292" id="Fill-25" fill="#315C0F"></path>
                <path d="M283.06318,163.719886 C288.87848,168.86707 311.574868,196.468076 314.880195,171.021304 C316.122214,161.461292 294.783114,149.453111 283.06318,163.719886" id="Fill-26" fill="#315C0F"></path>
                <path d="M253.032828,215.101724 C251.192372,242.313053 281.067112,215.405231 263.30326,202.00015 C260.847078,202.453018 260.873014,203.437264 257.062426,206.869677 C254.709025,208.988486 253.246074,211.947925 253.032828,215.101724" id="Fill-27" fill="#315C0F"></path>
                <path d="M261.587679,143.995718 C263.62217,146.499417 267.010106,147.416642 270.162702,146.702393 C280.968173,144.250396 291.371164,131.347012 275.141345,128.719804 C268.05905,127.572794 255.493812,136.498025 261.587679,143.995718" id="Fill-28" fill="#315C0F"></path>
                <path d="M220.793161,166.169011 C219.025709,175.923384 210.67642,197.282856 224.529785,199.467728 C233.694599,185.747649 224.799705,178.735378 220.793161,166.169011" id="Fill-29" fill="#315C0F"></path>
                <path d="M267.225274,191.489402 C266.61435,185.746692 262.540831,177.066385 263.328864,176.66484 C271.656684,172.42136 280.041079,168.272356 288.597033,164.5069 C291.259738,163.334997 289.49997,159.177803 286.829581,160.352579 C277.463047,164.475305 268.303035,169.056643 259.197777,173.717448 C257.844331,174.410633 257.416877,175.934873 258.307327,177.196776 C261.017099,181.03227 262.053556,186.574875 262.632781,191.189724 C262.965139,193.830336 263.108264,196.509246 262.780709,199.157518 C262.554974,200.983351 262.11119,203.241946 260.702032,204.469381 C258.518652,206.371809 261.311995,209.92486 263.514586,208.006155 C267.99181,204.105555 267.796814,196.860626 267.225274,191.489402 Z" id="Fill-30" fill="#315C0F"></path>
                <path d="M261.480095,140.850536 C254.883849,141.906589 249.79474,146.235164 243.673978,148.514823 C240.750958,149.603429 237.91439,149.097902 234.879944,149.185029 C232.530386,149.253007 230.500698,150.01417 228.545935,151.293306 C221.375267,155.984749 215.424526,167.233682 219.370554,175.589238 C220.60777,178.209745 224.781454,176.460506 223.537514,173.826596 C220.413735,167.211661 226.082068,157.287822 232.249899,154.341787 C234.205623,153.407328 236.307354,153.703176 238.410045,153.758707 C241.134226,153.829558 243.530853,153.448498 246.067722,152.424997 C251.47478,150.242997 256.205596,146.264845 262.07661,145.323684 C264.952561,144.863156 264.358928,140.389051 261.480095,140.850536" id="Fill-31" fill="#315C0F"></path>
                <path d="M174.762567,189.4874 C168.137504,197.18041 164.404722,207.287119 161.354907,216.820324 C158.225365,226.601505 155.308109,236.81832 154.833586,247.124176 C154.55406,253.202946 155.179392,259.30278 157.537595,264.960278 C158.655701,267.64206 162.824582,265.883248 161.705516,263.198593 C156.693253,251.173179 160.154193,237.140976 163.555577,225.150987 C166.778295,213.792907 170.542775,201.300263 178.392567,192.184501 C180.289696,189.981438 176.655853,187.289124 174.762567,189.4874" id="Fill-32" fill="#315C0F"></path>
                <path d="M128.56003,247.390344 C121.179958,247.215133 110.418674,264.651983 114.422336,270.932773 C121.527685,282.080217 143.330741,247.095453 128.56003,247.390344" id="Fill-33" fill="#315C0F"></path>
                <path d="M146.437229,292.150544 L144.101119,288.795683 C135.547228,289.092489 130.726119,315.800206 139.705543,317.318702 C144.920487,318.200502 149.024049,296.699329 146.437229,292.150544" id="Fill-34" fill="#315C0F"></path>
                <path d="M171.702185,284.228707 C169.830031,290.136096 172.816448,300.339506 178.445398,303.777664 C184.330821,307.372842 184.979207,302.494698 186.418143,296.436034 C187.736047,290.881939 187.67361,288.773662 184.084915,284.037219 C181.114827,280.115555 172.410127,273.019987 171.702185,284.228707" id="Fill-35" fill="#315C0F"></path>
                <path d="M170.191206,238.249689 C172.498499,247.60864 182.386624,262.03052 182.555684,244.018249 C182.607555,238.480431 182.487484,234.611426 178.289786,230.907101 C174.258266,227.350221 170.085543,226.362145 170.191206,238.249689" id="Fill-36" fill="#315C0F"></path>
                <path d="M148.15185,206.299044 C138.396284,204.543104 123.414248,219.392001 129.940371,224.767055 C135.538583,229.377116 150.274713,213.541101 148.15185,206.299044" id="Fill-37" fill="#315C0F"></path>
                <path d="M144.57276,211.933563 C151.481191,209.397312 158.819959,205.742773 166.373894,207.247865 C165.775458,206.795954 165.177022,206.343086 164.578586,205.891176 C167.127943,214.09067 169.248885,222.406971 170.814617,230.848697 C171.342931,233.698989 175.833604,233.113037 175.303368,230.254129 C173.664633,221.416981 171.414014,212.711003 168.746506,204.128533 C168.505403,203.353009 167.686035,202.918332 166.951198,202.771845 C158.583658,201.104946 150.462985,204.968206 142.805308,207.7802 C140.0696,208.784552 141.843776,212.936 144.57276,211.933563" id="Fill-38" fill="#315C0F"></path>
                <path d="M132.243822,251.530303 C135.993894,249.869149 139.988912,248.67714 143.995456,247.816403 C146.187481,247.346302 148.413125,246.975773 150.652218,246.8312 C151.63008,246.768967 152.441763,246.75652 153.412901,246.840775 C154.364827,246.924072 154.924841,247.022688 155.578029,247.255345 C158.31758,248.230974 160.024515,244.051759 157.274399,243.071344 C153.015224,241.553805 148.028897,242.375287 143.723614,243.27432 C139.221415,244.214524 134.686556,245.510894 130.47541,247.375982 C127.816548,248.554588 129.576315,252.711781 132.243822,251.530303" id="Fill-39" fill="#315C0F"></path>
                <path d="M147.046232,293.094577 C151.676187,283.457012 157.759487,274.478164 160.672901,264.09667 C159.877548,264.561027 159.082195,265.025384 158.285881,265.488784 C161.571036,266.316967 164.362457,269.212258 166.477636,271.685319 C168.832958,274.439866 170.88762,277.496964 172.326557,280.828846 C173.477322,283.494352 177.647163,281.738412 176.493517,279.066204 C174.791384,275.124434 172.310227,271.416279 169.446763,268.220353 C166.555442,264.991874 163.149255,262.092753 158.863184,261.012764 C157.989064,260.792553 156.72111,261.532652 156.476164,262.405835 C153.56275,272.786372 147.47945,281.766177 142.848534,291.403743 C141.588264,294.027121 145.790765,295.705509 147.046232,293.094577" id="Fill-40" fill="#315C0F"></path>
                <path d="M206.178063,265.216871 C242.802739,271.82319 280.646381,280.448744 312.893733,299.744938 C321.755006,305.046269 330.096611,311.199719 337.549686,318.34699 C339.642772,320.353778 342.334294,316.721261 340.255617,314.728833 C312.625733,288.231752 274.214393,275.535175 237.647351,267.028343 C227.410539,264.647196 217.097842,262.606897 206.754406,260.740851 C203.879415,260.22192 203.319402,264.700813 206.178063,265.216871" id="Fill-41" fill="#315C0F"></path>
                <path d="M258.06142,288.545792 C257.115257,293.976377 253.472769,310.831106 263.896893,307.904219 C276.958747,304.236277 267.995652,272.766266 258.06142,288.545792" id="Fill-42" fill="#315C0F"></path>
                <path d="M289.242537,309.110591 C286.96214,313.453527 291.038806,320.90622 295.657235,323.787149 C300.685827,319.699849 307.430962,304.968716 298.734906,301.65694 C294.27209,300.85365 291.9696,303.91745 289.242537,309.110591" id="Fill-43" fill="#315C0F"></path>
                <path d="M315.188538,280.312787 C322.580137,282.197024 336.671724,283.516373 338.945397,274.891777 C333.200218,270.030867 310.953378,265.286764 315.188538,280.312787" id="Fill-44" fill="#315C0F"></path>
                <path d="M283.357114,263.618908 C297.927066,264.531346 298.43809,247.49279 281.445577,251.173179 C268.777558,253.917195 268.040799,262.907532 283.357114,263.618908" id="Fill-45" fill="#315C0F"></path>
                <path d="M350.740256,343.610891 C345.320711,356.062365 359.301832,359.544565 362.165296,346.862349 C364.325621,337.298506 350.951582,327.486687 350.05729,341.28719" id="Fill-46" fill="#315C0F"></path>
                <path d="M356.82932,316.31818 C362.898212,317.411573 378.427774,325.781491 380.766766,316.372754 C383.901111,303.76426 360.339249,304.557018 355.303932,312.557365 C355.575774,314.16969 354.866872,312.905873 356.82932,316.31818" id="Fill-47" fill="#315C0F"></path>
                <path d="M338.646659,314.531601 C337.196196,314.86479 336.293258,316.186053 336.861917,317.649975 C339.99242,325.708726 346.99979,331.588349 352.213773,338.262646 C354.001397,340.551879 357.556473,337.756161 355.762125,335.459269 C353.168581,332.139833 350.263813,329.079863 347.553079,325.858086 C344.992195,322.814393 341.260648,318.596326 342.276466,318.446949 C347.613724,317.662098 353.055294,317.690298 358.052128,315.301381 C360.670646,314.049053 358.916642,309.88803 356.283715,311.14706 C350.745059,313.795332 344.51287,313.185444 338.646659,314.531601 Z" id="Fill-48" fill="#315C0F"></path>
                <path d="M300.436079,302.887247 C296.720587,296.346035 293.70055,289.410358 289.240616,283.313396 C288.748803,284.52647 288.256991,285.739543 287.765178,286.952616 C292.385528,286.064114 297.063512,285.511673 301.683861,284.623171 C306.567408,283.683925 311.303026,282.227662 315.838845,280.189278 C318.490984,278.996311 316.732177,274.83816 314.070433,276.034957 C309.762269,277.971853 305.319625,279.357265 300.677182,280.227576 C296.189391,281.068206 291.652611,281.61586 287.167702,282.478511 C285.4502,282.808827 284.641399,284.680617 285.692264,286.117731 C289.911095,291.884376 292.752466,298.460057 296.269119,304.64989 C296.871397,305.709773 298.01928,306.359873 299.236325,305.844772 C300.263176,305.411052 301.042199,303.95479 300.436079,302.887247" id="Fill-49" fill="#315C0F"></path>
                <path d="M274.602464,256.450574 C267.947624,256.174832 261.176554,256.563552 254.681169,258.08875 C248.278958,259.592884 241.718254,262.198071 237.608928,267.565465 C237.0566,268.287373 236.964385,269.620126 237.649272,270.315226 C244.035153,276.786545 251.210623,282.400958 257.681994,288.777492 C258.558036,289.640143 259.811582,289.95514 260.862447,289.14419 C261.74041,288.467282 262.098703,286.829107 261.230346,285.974115 C254.758975,279.597582 247.579662,273.979339 241.198585,267.511849 C241.212033,268.429074 241.225481,269.345342 241.238929,270.262567 C244.78632,265.62857 250.806222,263.507846 256.32951,262.327325 C262.119836,261.089359 268.114763,260.68149 274.025161,260.926594 C276.921284,261.047231 277.514918,256.571211 274.602464,256.450574" id="Fill-50" fill="#315C0F"></path>
                <path d="M195.626183,337.505313 C185.865814,336.590002 174.451341,349.640832 183.335669,358.425321 C193.243005,368.22182 210.447804,339.669121 195.626183,337.505313" id="Fill-51" fill="#315C0F"></path>
                <path d="M218.65781,352.290061 C217.408106,357.459266 216.192022,368.155757 221.847868,371.540299 C227.39613,374.860692 230.742762,368.432457 232.791661,363.530377 C235.995168,355.867048 234.830955,352.473889 227.259729,348.704458 C222.298377,346.23427 212.34013,342.982812 218.65781,352.290061" id="Fill-52" fill="#315C0F"></path>
                <path d="M199.007395,342.049311 C202.374199,340.661984 205.28185,338.130519 207.902289,335.66799 C211.434311,332.348555 214.683925,328.719867 217.714529,324.943733 C220.697104,321.226004 223.504855,317.336893 225.915889,313.223742 C227.740976,310.109198 229.575667,306.785933 230.18467,303.18501 C230.669759,300.313655 226.177165,299.75164 225.693997,302.610548 C225.199303,305.536477 223.449141,308.603149 221.864198,311.236102 C219.545378,315.085958 216.896122,318.741454 214.084528,322.246632 C211.29791,325.719258 208.338389,329.078906 205.089735,332.131216 C202.751704,334.327578 200.192741,336.679044 197.238983,337.895947 C194.546501,339.005617 196.312031,343.160896 199.007395,342.049311" id="Fill-53" fill="#315C0F"></path>
                <path d="M216.975849,320.742498 C216.157442,325.242454 215.228569,329.749112 214.974978,334.325663 C214.710821,339.086042 215.241057,343.733443 216.777971,348.256378 C217.170845,349.412005 218.679903,349.90317 219.746138,349.452217 C220.94301,348.945733 221.339726,347.653192 220.945892,346.494693 C218.127574,338.20137 219.947858,329.66773 221.466521,321.31696 C221.987151,318.45135 217.493597,317.893164 216.975849,320.742498" id="Fill-54" fill="#315C0F"></path>
                <path d="M268.657486,356.252895 C259.108443,353.849727 251.929131,345.995868 246.949527,337.917011 C245.7613,335.989689 244.647037,333.968539 243.76235,331.881325 C241.432004,326.380847 239.255348,320.844944 236.708873,315.434465 C224.330946,289.136531 208.236568,264.77262 195.85672,238.475644 C189.819527,225.651727 184.641086,212.328028 181.611443,198.458589 C178.507835,184.24543 177.820066,169.775678 179.696063,155.348054 C182.855383,131.053079 191.878032,107.955858 205.858193,87.8209487 C219.689464,67.9005054 237.639667,51.219073 257.076834,36.8230437 C259.631955,34.9301899 262.216853,33.0775485 264.822884,31.2565025 C267.206062,29.5896039 264.392548,26.0537875 262.00937,27.7187712 C241.44257,42.0994814 222.162936,58.7311271 206.890807,78.7262505 C191.751237,98.5490351 181.183988,121.480619 176.592456,146.002507 C173.929751,160.227155 173.290971,174.717013 175.32258,189.067085 C177.365716,203.497582 181.821808,217.508721 187.506471,230.903271 C199.163969,258.375981 215.712697,283.389034 229.053117,310.023028 C232.322902,316.550837 235.401535,323.178219 238.135322,329.948259 C239.14008,332.437596 240.072795,334.83119 241.350355,337.190316 C245.819895,345.445341 252.02903,353.168989 260.372556,357.758944 C262.818171,359.103186 265.376173,360.048177 268.080183,360.728915 C270.905224,361.440291 271.448908,356.955654 268.657486,356.252895" id="Fill-55" fill="#315C0F"></path>
                <path d="M265.868947,356.042259 C269.340453,347.730744 287.866998,353.231222 287.559616,362.121986 C287.158097,373.747192 263.211045,366.598964 265.868947,356.042259" id="Fill-56" fill="#315C0F"></path>
                <path d="M195.535889,92.9298348 C196.518554,107.941496 194.466773,123.074752 186.663089,136.176326 C179.527002,148.158656 168.625474,157.331864 157.284965,165.214446 C149.897208,170.349183 142.214556,175.046371 134.518456,179.703347 C132.031536,181.208439 134.303288,185.111911 136.802695,183.600117 C162.021544,168.339522 190.110581,151.255008 197.888329,120.795094 C200.207149,111.711885 200.673027,102.253361 200.062103,92.9298348 C199.873831,90.0469907 195.345696,90.0259271 195.535889,92.9298348" id="Fill-57" fill="#5EAA1B"></path>
                <path d="M114.162982,167.113045 C107.811682,171.586192 82.1865117,196.510204 81.7302402,170.855668 C81.5592584,161.216188 104.101954,151.638941 114.162982,167.113045" id="Fill-58" fill="#5EAA1B"></path>
                <path d="M138.296384,221.495491 C137.099512,248.743203 110.400423,218.700731 129.545577,207.339779 C131.936439,208.060729 131.800999,209.036358 135.206225,212.86898 C137.309877,215.234808 138.434707,218.337862 138.296384,221.495491" id="Fill-59" fill="#5EAA1B"></path>
                <path d="M137.699869,149.883001 C135.3993,152.146383 131.929715,152.683505 128.877019,151.624579 C118.409669,147.994934 109.50613,134.022092 125.928064,133.202526 C133.093928,132.845401 144.589089,143.103386 137.699869,149.883001" id="Fill-60" fill="#5EAA1B"></path>
                <path d="M175.77693,176.425081 C176.450291,186.31541 182.373176,208.464767 168.362278,209.106251 C160.778564,194.458415 170.398689,188.471559 175.77693,176.425081" id="Fill-61" fill="#5EAA1B"></path>
                <path d="M130.384156,204.774804 C130.329403,202.049937 130.766463,199.347091 131.404283,196.704563 C132.496453,192.177799 134.096765,186.81615 137.260888,183.246823 C138.262764,182.117047 138.068729,180.540147 136.802695,179.703347 C128.271859,174.065955 119.677624,168.500372 110.827877,163.369464 C108.304455,161.9065 106.023098,165.804228 108.543638,167.265277 C116.616803,171.945938 124.477333,176.988336 132.271074,182.117718 C133.020776,182.611127 128.068217,190.786643 126.826198,196.426907 C125.661025,201.712919 124.642819,208.893699 128.661851,213.278763 C130.631023,215.427253 133.824923,212.229411 131.862475,210.088581 C130.599324,208.709871 130.419697,206.551807 130.384156,204.774804 Z" id="Fill-62" fill="#5EAA1B"></path>
                <path d="M137.009218,151.133414 C142.156922,152.537975 146.121201,156.31315 150.575372,159.042805 C152.777963,160.391834 155.103507,161.553206 157.680721,161.928521 C159.985132,162.263624 162.668969,161.938095 164.824492,162.909894 C168.343066,164.496368 170.830947,168.606647 172.177668,172.037145 C173.615644,175.698386 174.394668,180.172491 172.217052,183.699691 C170.6859,186.179454 174.60023,188.44858 176.125618,185.977434 C181.208963,177.745387 175.993059,165.260403 168.723452,160.007901 C166.581378,158.459725 164.238543,157.988666 161.641158,157.779945 C158.731586,157.544415 156.41949,157.193993 153.833631,155.723369 C148.580265,152.736164 144.180846,148.410462 138.212815,146.782818 C135.3993,146.015911 134.198586,150.367464 137.009218,151.133414" id="Fill-63" fill="#5EAA1B"></path>
                <path d="M179.253239,271.96489 C141.417282,274.532738 102.383492,279.116948 67.5195429,294.921368 C57.9743423,299.248028 48.8565961,304.501487 40.5351637,310.873233 C39.5582623,311.620992 39.0635679,312.806299 39.7225201,313.960011 C40.2690854,314.917449 41.8521075,315.510102 42.8194031,314.769046 C72.7959631,291.816398 111.785567,283.52882 148.565856,279.229926 C158.768088,278.036959 169.0049,277.172393 179.253239,276.477293 C182.143599,276.281018 182.165692,271.767658 179.253239,271.96489" id="Fill-64" fill="#5EAA1B"></path>
                <path d="M125.13271,293.931378 C125.469871,299.43377 127.21523,316.586262 117.181098,312.52577 C104.608176,307.437947 117.014919,277.152286 125.13271,293.931378" id="Fill-65" fill="#5EAA1B"></path>
                <path d="M91.8565867,310.924935 C93.6403682,315.493826 88.7606642,322.449609 83.8502218,324.803948 C79.3067179,320.185269 74.2416235,304.800207 83.2517857,302.469805 C87.7770388,302.163425 89.7241176,305.463711 91.8565867,310.924935" id="Fill-66" fill="#5EAA1B"></path>
                <path d="M69.2735468,279.439605 C61.7167295,280.494701 47.5655877,280.250554 46.2649737,271.426811 C52.5154135,267.230362 75.1522454,264.973682 69.2735468,279.439605" id="Fill-67" fill="#5EAA1B"></path>
                <path d="M102.764838,266.363881 C88.1833606,265.661122 89.5694655,248.672353 106.048072,254.206341 C118.332823,258.332896 118.064824,267.349085 102.764838,266.363881" id="Fill-68" fill="#5EAA1B"></path>
                <g id="Group-72" transform="translate(0.000000, 299.499013)">
                    <mask id="mask-4" fill="white">
                        <use xlink:href="#path-3"></use>
                    </mask>
                    <g id="Clip-70"></g>
                    <path d="M26.9027306,38.9216095 C30.9044722,51.8948868 16.6217321,53.8116765 15.1856775,40.8910584 C14.1031132,31.1472176 28.4857527,22.8730433 27.839288,36.6869506" id="Fill-69" fill="#5EAA1B" mask="url(#mask-4)"></path>
                    <path d="M23.885575,11.1243285 C17.7321529,11.5398564 1.36785405,18.1433023 0.0893331649,8.53446025 C-1.62336611,-4.34307324 21.7050774,-0.952787288 25.8192058,7.55500176 C25.3696583,9.12807146 26.2149613,7.95042342 23.885575,11.1243285" id="Fill-71" fill="#5EAA1B" mask="url(#mask-4)"></path>
                </g>
                <path d="M38.0756079,314.482381 C36.3573868,316.920113 34.2202649,319.059623 32.0600399,321.113984 C29.0044614,324.018849 25.7730984,326.741801 22.8251039,329.757729 C20.7906131,331.839198 23.9883562,335.033209 26.0257287,332.948868 C31.9370867,326.901693 39.567868,321.835892 43.5638462,314.185009 C44.2717875,312.82832 43.6301256,311.366313 42.2113613,310.870361 C36.5286193,308.885593 30.2464806,308.805168 25.0353793,305.562327 C22.5571044,304.020853 20.2815101,307.922411 22.7501793,309.459098 C28.3464699,312.94034 38.6548219,313.660619 38.0756079,314.482381 Z" id="Fill-73" fill="#5EAA1B"></path>
                <path d="M85.3515953,305.749028 C89.5387272,299.97951 93.0957241,293.74372 97.9350842,288.472069 C99.1002576,287.203465 98.6026815,285.218697 96.9360896,284.701681 C92.5741337,283.347864 88.1257263,282.302342 83.7570464,280.970547 C79.2327538,279.59088 74.9658945,277.734408 70.8921101,275.329326 C68.3802152,273.846255 66.1007786,277.74494 68.6078706,279.226096 C72.8804934,281.748944 77.4201551,283.730839 82.1615368,285.200506 C86.6541305,286.593577 91.2398997,287.659205 95.7334539,289.052276 C95.4001355,287.795161 95.0668172,286.539003 94.7344594,285.281888 C89.629021,290.842684 85.8587772,297.386769 81.4430292,303.471284 C80.7264428,304.45936 81.2720475,305.985515 82.2547123,306.558062 C83.3977926,307.224439 84.6330877,306.739018 85.3515953,305.749028" id="Fill-74" fill="#5EAA1B"></path>
                <path d="M112.300433,264.719004 C118.230042,265.12783 124.156769,266.1925 129.798207,268.078652 C135.138025,269.864273 140.891849,272.62265 143.88403,277.617601 C144.00218,276.706121 144.11937,275.79464 144.23752,274.884117 C137.177318,280.607678 129.415899,285.395823 122.27597,291.018853 C121.309635,291.780973 121.492144,293.410532 122.27597,294.209992 C123.213488,295.164557 124.522747,294.960623 125.476595,294.209992 C132.617485,288.586004 140.374101,283.801689 147.439106,278.074299 C148.199878,277.456752 148.268079,276.13453 147.792596,275.339857 C144.32205,269.546404 138.042793,266.210691 131.850949,264.020075 C125.590903,261.805522 118.913969,260.662342 112.300433,260.207559 C109.392783,260.007454 109.40527,264.519857 112.300433,264.719004" id="Fill-75" fill="#5EAA1B"></path>
                <path d="M181.740159,349.486685 C191.541832,349.654236 201.43476,363.885586 191.629244,371.634127 C180.693136,380.276915 166.768689,349.998914 181.740159,349.486685" id="Fill-76" fill="#5EAA1B"></path>
                <path d="M157.207159,361.636566 C157.873796,366.911089 157.893968,377.675558 151.895197,380.414786 C146.012657,383.102313 143.400862,376.343762 141.910055,371.246365 C139.578748,363.275699 141.112781,360.031901 149.056708,357.121291 C154.261085,355.215033 164.519991,353.083777 157.207159,361.636566" id="Fill-77" fill="#5EAA1B"></path>
                <path d="M180.126399,349.714555 C177.280225,348.152974 175.014236,345.543 172.938441,343.106322 C170.048081,339.712206 167.477591,336.045221 165.092492,332.283449 C162.688181,328.490082 160.461576,324.563631 158.585579,320.482075 C157.311861,317.711251 155.895018,314.32288 155.737484,311.522376 C155.575148,308.634744 151.047013,308.616553 151.21031,311.522376 C151.415872,315.185531 152.860572,318.692624 154.33601,322.006315 C156.274444,326.361698 158.632647,330.536126 161.183925,334.561192 C163.773627,338.646578 166.598668,342.610369 169.737816,346.296503 C172.059518,349.023285 174.660746,351.865917 177.842159,353.610368 C180.395359,355.011099 182.68248,351.116243 180.126399,349.714555" id="Fill-78" fill="#5EAA1B"></path>
                <path d="M157.858426,330.505488 C158.439572,338.966362 159.306008,347.661809 155.59532,355.590348 C155.079493,356.693316 155.284094,358.022239 156.407963,358.677127 C157.387746,359.247759 158.985177,358.976805 159.504846,357.867135 C161.521086,353.558666 162.587321,349.033817 162.860123,344.292587 C163.125241,339.694972 162.700668,335.089698 162.385601,330.505488 C162.187723,327.624558 157.659588,327.602537 157.858426,330.505488" id="Fill-79" fill="#5EAA1B"></path>
                <path d="M107.713704,364.483027 C118.593138,362.995169 127.595616,355.505136 134.129425,347.10841 C139.392397,340.346987 142.879272,332.428979 147.354575,325.15437 C161.340499,302.423848 178.242718,281.65703 192.698361,259.236717 C207.094448,236.910234 218.895071,212.572174 221.717231,185.877861 C224.604709,158.559299 218.881623,130.287129 207.122305,105.573754 C195.449438,81.0403768 177.760511,59.7900529 157.985222,41.3143827 C155.432022,38.9303635 152.838479,36.589429 150.214197,34.2820048 C148.036581,32.3680873 144.823469,35.5477371 147.013572,37.4731437 C167.162524,55.1866937 185.565155,75.2775609 198.586665,98.8477556 C211.570712,122.3471 218.360033,148.836522 217.827876,175.691684 C217.305325,202.012597 207.307695,226.52108 193.87314,248.816926 C180.323316,271.304259 163.774587,291.786718 149.322787,313.67661 C145.774435,319.050706 142.352879,324.510972 139.153214,330.099534 C137.309877,333.320354 135.73454,336.711597 133.75288,339.849119 C129.08066,347.248196 122.566063,354.10632 114.534723,357.833624 C111.997853,359.011272 109.279436,359.753286 106.510107,360.132431 C105.290181,360.299026 104.647559,361.841457 104.929967,362.907085 C105.274812,364.212072 106.508186,364.647706 107.713704,364.483027" id="Fill-80" fill="#5EAA1B"></path>
                <path d="M109.869227,360.149665 C107.342923,351.50592 88.3188012,354.925887 87.6358348,363.795587 C86.7425031,375.394942 111.33698,370.935198 109.869227,360.149665" id="Fill-81" fill="#5EAA1B"></path>
                <path d="M181.01877,255.273884 C182.78334,259.41863 180.842025,264.203903 176.68371,265.962715 C172.525395,267.72057 167.724458,265.785589 165.960848,261.6418 C164.197239,257.497053 166.137594,252.711781 170.295908,250.952969 C174.454223,249.195113 179.25516,251.129137 181.01877,255.273884" id="Fill-82" fill="#D8D2CE"></path>
                <path d="M80.5679484,246.269185 C82.3325186,250.413931 80.3912033,255.199204 76.2328885,256.958016 C72.0745738,258.715871 67.2736366,256.781848 65.510027,252.637101 C63.7464174,248.492354 65.6867722,243.707082 69.8450869,241.948269 C74.0034017,240.190414 78.8043389,242.124438 80.5679484,246.269185" id="Fill-83" fill="#D8D2CE"></path>
                <path d="M201.784408,270.120866 C203.548018,274.265613 201.607663,279.050885 197.449348,280.809697 C193.291033,282.567553 188.490096,280.633529 186.725526,276.488782 C184.961916,272.344036 186.903232,267.558763 191.060586,265.799951 C195.218901,264.042096 200.019838,265.976119 201.784408,270.120866 M165.498813,180.771847 C167.262423,184.916594 165.321108,189.701866 161.163753,191.459721 C157.005439,193.218534 152.204502,191.283553 150.439931,187.138806 C148.676322,182.995017 150.616677,178.209745 154.774991,176.450932 C158.933306,174.693077 163.734243,176.6271 165.498813,180.771847 M188.654354,388.127902 C190.417964,392.272649 188.477609,397.057921 184.319294,398.815776 C180.160979,400.574589 175.360042,398.639608 173.596433,394.494861 C171.831862,390.350114 173.773178,385.564842 177.931492,383.806987 C182.089807,382.048174 186.890744,383.983155 188.654354,388.127902 M165.652505,416.66241 C167.416114,420.807157 165.47576,425.592429 161.317445,427.350284 C157.15913,429.109097 152.358193,427.174116 150.594583,423.029369 C148.830013,418.884622 150.771329,414.09935 154.929643,412.341495 C159.087958,410.582682 163.888895,412.517663 165.652505,416.66241 M160.024515,393.695401 C161.789086,397.840147 159.84777,402.62542 155.689456,404.384232 C151.531141,406.142087 146.730204,404.207106 144.966594,400.063317 C143.202024,395.91857 145.143339,391.133298 149.301654,389.374486 C153.459969,387.61663 158.260906,389.550654 160.024515,393.695401 M138.475051,413.272124 C140.239621,417.416871 138.298306,422.202143 134.139991,423.959998 C129.981676,425.718811 125.180739,423.78383 123.417129,419.639083 C121.652559,415.494336 123.593874,410.709064 127.752189,408.951209 C131.910504,407.192396 136.711441,409.127377 138.475051,413.272124 M72.5279636,402.624462 C74.2925338,406.769209 72.3512184,411.554481 68.1929037,413.313294 C64.0355495,415.071149 59.2346123,413.137125 57.4700422,408.992379 C55.7064326,404.847632 57.6467874,400.06236 61.8051021,398.304505 C65.9634168,396.545692 70.764354,398.480673 72.5279636,402.624462 M64.1642661,322.911094 C65.9288363,327.054883 63.9875209,331.840155 59.8292062,333.598968 C55.6708914,335.356823 50.8699543,333.422799 49.1063447,329.278053 C47.3427351,325.133306 49.2830899,320.348034 53.4414046,318.590179 C57.5997194,316.831366 62.4006565,318.766347 64.1642661,322.911094 M304.517548,334.120771 C305.482922,338.519239 302.688619,342.865047 298.275753,343.827272 C293.862887,344.789497 289.503813,342.003354 288.538438,337.605844 C287.573064,333.207376 290.367366,328.861567 294.780233,327.899343 C299.193099,326.938076 303.552173,329.723261 304.517548,334.120771 M278.506228,245.844082 C278.8626,250.331592 275.501559,254.258043 270.998399,254.613252 C266.495239,254.968461 262.556896,251.61743 262.200524,247.129921 C261.844151,242.641454 265.206152,238.715003 269.708352,238.359794 C274.211512,238.004585 278.150816,241.355616 278.506228,245.844082 M398.257815,309.910051 C398.613227,314.39756 395.252187,318.324011 390.749027,318.67922 C386.246827,319.03443 382.307523,315.683399 381.951151,311.195889 C381.594779,306.707423 384.95678,302.780972 389.458979,302.42672 C393.962139,302.071511 397.901443,305.421584 398.257815,309.910051" id="Combined-Shape" fill="#B70A07"></path>
                <path d="M122.430622,375.575897 C124.195192,379.720644 122.253877,384.505916 118.095562,386.263771 C113.937248,388.022584 109.13631,386.087603 107.372701,381.942856 C105.609091,377.79811 107.549446,373.012837 111.707761,371.254982 C115.866075,369.49617 120.667013,371.431151 122.430622,375.575897" id="Fill-92" fill="#D8D2CE"></path>
                <path d="M48.5050268,352.580165 C50.2686364,356.724912 48.3282816,361.510184 44.1699669,363.268997 C40.0116522,365.026852 35.210715,363.092828 33.4471054,358.948081 C31.6825352,354.803335 33.6238506,350.018062 37.7821653,348.260207 C41.9404801,346.501395 46.7414172,348.436376 48.5050268,352.580165" id="Fill-94" fill="#D8D2CE"></path>
                <path d="M291.475866,351.604536 C292.441241,356.002046 289.646938,360.347855 285.234072,361.31008 C280.822166,362.272304 276.462131,359.486161 275.496757,355.088651 C274.531382,350.690184 277.325685,346.344375 281.738551,345.383108 C286.151417,344.420883 290.510492,347.206069 291.475866,351.604536" id="Fill-96" fill="#D8D2CE"></path>
                <path d="M237.228542,295.96689 C238.579106,302.197892 239.475319,308.61751 241.881551,314.562239 C244.208056,320.310694 247.778501,325.524898 251.358551,330.561019 C257.886596,339.743801 267.474062,347.124687 277.406373,352.336018 C279.982626,353.68792 282.272629,349.79498 279.691573,348.440206 C270.302946,343.51419 261.050719,336.584258 254.948207,327.826578 C251.634235,323.069071 248.13103,318.18231 246.004325,312.75364 C243.747942,306.996569 242.896875,300.77897 241.59338,294.768178 C240.978614,291.931291 236.613776,293.13096 237.228542,295.96689" id="Fill-98" fill="#5EAA1B"></path>
                <path d="M268.846719,344.463968 C273.444975,342.970365 277.120123,339.907523 281.041176,337.213294 C284.664453,334.722042 288.582624,332.657807 293.093469,333.741626 C295.924274,334.422364 297.131712,330.072726 294.297065,329.39103 C289.068674,328.133915 284.224511,329.736665 279.836619,332.592701 C275.869458,335.173952 272.221207,338.625514 267.643123,340.113372 C264.885321,341.009534 266.065864,345.367789 268.846719,344.463968" id="Fill-99" fill="#5EAA1B"></path>
                <path d="M157.630771,397.439939 C162.487421,389.91448 167.394982,381.84041 168.859854,372.868264 C169.59373,368.370223 169.44196,363.859735 168.184572,359.465098 C166.847456,354.788973 164.577625,350.435505 162.662245,345.982464 C161.518204,343.320788 157.617323,345.616723 158.753679,348.25925 C160.472142,352.257509 162.4855,356.154279 163.726559,360.338281 C164.946485,364.453347 165.118427,368.712028 164.265439,372.918051 C162.617098,381.052439 158.16773,388.27439 153.722205,395.162195 C152.141104,397.61132 156.058315,399.876617 157.630771,397.439939" id="Fill-100" fill="#5EAA1B"></path>
                <path d="M158.95732,346.655542 C162.178117,354.356211 163.72848,362.620811 166.961764,370.315736 C168.490034,373.953041 170.220023,377.526197 172.262199,380.906909 C174.211198,384.135388 177.186089,386.476323 179.286859,389.57076 C180.910225,391.962439 184.83416,389.706716 183.195425,387.293017 C181.226253,384.392939 178.402173,382.173599 176.529058,379.219904 C174.380259,375.835363 172.578227,372.151144 171.048996,368.450648 C167.954035,360.96253 166.45074,352.936332 163.322158,345.455873 C162.848596,344.323225 161.827508,343.541956 160.538421,343.880888 C159.469305,344.161418 158.487601,345.532468 158.95732,346.655542" id="Fill-101" fill="#5EAA1B"></path>
                <path d="M163.327921,419.145045 C165.263473,416.180819 167.549634,413.448292 168.737861,410.067581 C170.033672,406.381447 169.740698,402.308508 169.934733,398.469184 C170.330489,390.648835 172.614728,383.076462 169.595652,375.446643 C168.539023,372.77635 164.159777,373.939637 165.230814,376.645355 C167.994379,383.630818 165.920504,390.620112 165.445982,397.788446 C165.210642,401.35107 165.612161,405.13965 164.473883,408.580681 C163.457599,411.651182 161.164714,414.194136 159.419355,416.867302 C157.825767,419.308767 161.742978,421.572149 163.327921,419.145045" id="Fill-102" fill="#5EAA1B"></path>
                <path d="M135.63368,417.794101 C141.100293,415.48189 146.528484,413.004042 152.069061,410.870871 C157.183144,408.901422 162.549858,407.718029 167.563082,405.469009 C168.68599,404.965397 168.932857,403.360732 168.374765,402.382231 C167.717734,401.232348 166.386382,401.076286 165.277882,401.573196 C160.282909,403.8136 154.849916,404.867738 149.790585,406.949207 C144.28843,409.211632 138.827581,411.581289 133.34848,413.898288 C132.214045,414.377964 131.98735,416.022842 132.536797,416.985066 C133.203433,418.15314 134.514614,418.267075 135.63368,417.794101" id="Fill-103" fill="#5EAA1B"></path>
                <path d="M117.380897,376.989075 C121.096388,374.600269 122.733202,370.188397 124.15773,366.221734 C125.840652,361.53412 127.553351,356.807251 129.906751,352.405911 C131.276527,349.843809 127.369882,347.561278 125.998185,350.128168 C123.662075,354.497912 121.863885,359.19893 120.205938,363.860693 C119.112808,366.932152 117.965885,371.247323 115.095697,373.093262 C112.655845,374.662502 114.922794,378.569804 117.380897,376.989075" id="Fill-104" fill="#5EAA1B"></path>
                <path d="M67.4167618,403.740834 C82.3795866,387.786097 78.4758234,361.843372 70.7086409,343.446212 C70.2312368,342.315478 69.2168731,341.531337 67.9249042,341.871227 C66.8596302,342.150799 65.8702414,343.523764 66.3438032,344.645881 C70.1572727,353.678346 72.6326659,363.454739 72.9054683,373.276133 C73.1763495,383.044867 71.0947907,393.214767 64.2151764,400.550653 C62.2277536,402.670419 65.4216544,405.867303 67.4167618,403.740834" id="Fill-105" fill="#315C0F"></path>
                <path d="M61.502522,321.118771 C60.9040859,320.012931 61.226838,318.279011 61.5947369,316.858174 C62.0644565,315.046703 62.7570286,313.307039 63.3045545,311.519503 C64.3467747,308.111026 64.3217999,303.747026 66.7251502,300.909182 C67.5128189,299.978552 67.640575,298.631438 66.7251502,297.719 C65.9163488,296.912838 64.3160364,296.783584 63.5245254,297.719 C60.39018,301.419496 60.2547394,306.162641 58.8571077,310.581215 C57.5843502,314.606281 55.3788777,319.302512 57.5929954,323.396515 C58.9762186,325.95383 62.8857452,323.678001 61.502522,321.118771" id="Fill-106" fill="#5EAA1B"></path>
                <path d="M43.2881621,351.806556 C42.5168231,348.496694 43.1930655,344.800028 43.7396308,341.501656 C44.4475721,337.218081 45.6329175,333.025463 46.262092,328.730399 C46.8393956,324.788629 46.9047144,320.687924 48.7480515,317.063066 C50.7556462,313.114594 53.4039423,309.535693 55.7890418,305.815091 C57.3624582,303.361179 53.4462075,301.094924 51.8804757,303.537347 C49.379147,307.438905 46.5224069,311.193974 44.5349841,315.397125 C42.6003928,319.491127 42.4774396,323.857999 41.7867886,328.248807 C41.0961376,332.648232 39.8896596,336.948084 39.204772,341.351339 C38.6101781,345.173429 38.0328745,349.185092 38.9223639,353.006225 C39.5813161,355.833537 43.9471143,354.636741 43.2881621,351.806556" id="Fill-107" fill="#5EAA1B"></path>
                <path d="M79.7860431,250.490526 C84.616758,246.574607 89.736605,243.024429 95.1177275,239.900311 C100.032973,237.04619 105.94241,233.181972 111.882585,234.607597 C114.713389,235.28642 115.920828,230.936782 113.086181,230.256044 C106.150854,228.592017 99.7678549,232.066558 93.9141312,235.384078 C87.7991319,238.850002 82.0395442,242.877941 76.5854183,247.300345 C74.3242326,249.13288 77.5440688,252.3087 79.7860431,250.490526" id="Fill-108" fill="#315C0F"></path>
                <path d="M160.14939,180.643551 C160.104243,180.500892 160.067741,180.355362 160.038924,180.208874 C160.062938,180.447276 160.063899,180.430042 160.041806,180.15813 C160.041806,179.867069 160.042766,179.58271 160.062938,179.291649 C160.110006,178.605166 159.976487,179.707177 160.098479,179.025481 C160.14939,178.737293 160.202221,178.448146 160.255053,178.159958 C160.495196,176.831992 160.62103,175.596898 160.41835,174.256485 C160.093677,172.118528 158.978453,170.217057 158.376175,168.159524 C158.044777,167.027833 156.767217,166.204437 155.592438,166.583582 C154.439752,166.955068 153.655925,168.145162 154.011337,169.359193 C154.31968,170.413332 154.754819,171.419598 155.157299,172.439269 C155.346531,172.919903 155.530001,173.402451 155.684653,173.894574 C155.771104,174.169359 155.850832,174.447015 155.91615,174.727545 C155.935362,174.809884 156.044867,175.494452 156.023734,175.25988 C156.002602,175.02435 156.030458,175.738599 156.028537,175.822853 C156.025656,175.90998 155.933441,176.761142 156.001641,176.310189 C155.924796,176.817631 155.816251,177.320285 155.732681,177.82677 C155.507908,179.188246 155.403205,180.492275 155.783592,181.84322 C156.104423,182.97874 157.401194,183.795435 158.568289,183.418204 C159.730581,183.043846 160.492314,181.860453 160.14939,180.643551" id="Fill-109" fill="#5EAA1B"></path>
                <path d="M175.476271,261.378505 C178.29651,261.268399 181.126354,261.286591 183.943711,261.119997 C184.239567,261.102763 184.534462,261.07021 184.828397,261.034785 C185.015709,261.011806 185.20302,260.985955 185.390331,260.961062 C185.62375,260.930424 185.85813,260.898829 186.091549,260.867233 C186.445039,260.820319 185.73998,260.912233 186.111721,260.864361 C187.004092,260.749468 187.902226,260.631704 188.804203,260.619257 C188.993436,260.617342 189.182668,260.632661 189.37094,260.629789 C189.798395,260.622129 189.058755,260.511066 189.412245,260.631704 C189.810882,260.768617 189.036661,260.393302 189.341163,260.585747 C189.11735,260.444046 188.859916,260.249686 188.842626,260.115645 L189.021292,260.447876 C188.852232,260.22192 188.874325,260.041922 188.978067,260.3866 C189.074124,260.707341 189.167299,261.026168 189.242224,261.351697 C189.614926,262.960191 189.795513,264.611771 190.023169,266.244202 C190.264272,267.975249 190.485204,269.703423 191.206593,271.310003 C191.70513,272.422546 193.329456,272.686798 194.303476,272.119038 C195.45232,271.449789 195.615617,270.149589 195.115159,269.03226 C195.412936,269.696721 195.103632,268.935558 195.030629,268.664604 C194.93169,268.296948 194.853884,267.924504 194.781841,267.550146 C194.624307,266.720048 194.505196,265.88229 194.388006,265.04549 C194.145942,263.306784 193.968236,261.537439 193.530216,259.833201 C193.106604,258.182579 192.29396,256.617168 190.468874,256.251427 C189.462195,256.050365 188.440146,256.095365 187.424822,256.196853 C186.985841,256.239938 186.548781,256.295469 186.111721,256.352916 C185.737098,256.401745 185.362475,256.453447 184.987852,256.503233 C185.42107,256.445787 184.898519,256.513765 184.742906,256.532914 C181.693091,256.899612 178.544337,256.746422 175.476271,256.866102 C174.254424,256.913974 173.213164,257.868539 173.213164,259.121825 C173.213164,260.307132 174.248661,261.426377 175.476271,261.378505" id="Fill-110" fill="#5EAA1B"></path>
                <path d="M199.872149,77.652836 C197.828046,89.5706079 198.188988,105.405245 199.286922,113.922608 C200.309931,121.854977 203.065811,129.411073 206.941717,136.393665 C215.224727,151.319157 227.829348,163.50925 240.142916,175.124881 C247.40868,181.978218 254.794516,188.709961 261.836467,195.795955 C263.889209,197.862105 267.089833,194.671924 265.037092,192.605774 C252.913717,180.406106 239.735634,169.272066 227.978237,156.707615 C217.386013,145.388789 207.458505,132.352321 204.32416,116.857154 C203.656112,113.554727 202.902073,99.1012618 204.202198,85.7801412 C206.043919,66.9098077 216.490217,35.4544699 218.269267,29.9031243 C219.156835,27.1303855 214.788155,25.9441205 213.903469,28.7034552 C205.91199,53.3911945 201.234884,69.7076548 199.872149,77.652836 Z" id="Fill-111" fill="#5EAA1B"></path>
                <path d="M287.8353,185.308186 C292.905197,191.186852 311.680531,221.574001 318.381479,196.800307 C320.900097,187.4921 301.369754,172.73799 287.8353,185.308186" id="Fill-112" fill="#5EAA1B"></path>
                <path d="M251.159713,232.210173 C245.671967,258.92938 278.899101,236.260134 263.100579,220.600287 C260.605975,220.719967 260.499351,221.698468 256.261309,224.590886 C253.643751,226.376507 251.795611,229.112863 251.159713,232.210173" id="Fill-113" fill="#5EAA1B"></path>
                <path d="M269.209815,162.890746 C270.888894,165.644336 274.122178,167.005812 277.342015,166.719538 C288.380904,165.735292 300.426473,154.339872 284.697112,149.565131 C277.833827,147.481748 264.180262,154.645294 269.209815,162.890746" id="Fill-114" fill="#5EAA1B"></path>
                <path d="M238.507063,180.571743 C235.441879,190.001544 224.292523,210.050284 237.726118,214.068649 C248.656463,201.698557 240.785539,193.560339 238.507063,180.571743" id="Fill-115" fill="#5EAA1B"></path>
                <path d="M268.401974,210.698469 C268.567193,204.934696 265.738349,195.777799 266.589044,195.47988 C275.397586,192.39508 284.249251,189.410314 293.218343,186.827639 C296.012646,186.023391 294.824419,181.668009 292.015707,182.477043 C282.179454,185.309143 272.485364,188.623792 262.834501,192.025567 C261.416697,192.525349 260.774075,193.979697 261.482016,195.339258 C263.67404,199.547195 263.938198,205.149162 263.89209,209.808052 C263.865194,212.496537 263.643302,215.19651 262.942085,217.80074 C262.474286,219.542319 261.736567,221.683149 260.203495,222.69133 C257.782854,224.284506 260.047882,228.193723 262.488695,226.588101 C267.462535,223.31558 268.246362,216.11182 268.401974,210.698469 Z" id="Fill-116" fill="#5EAA1B"></path>
                <path d="M269.52104,159.759798 C265.654739,159.797265 261.762503,160.450238 257.946152,161.002679 C253.206691,161.688204 248.481639,162.473303 243.764272,163.28904 C240.796105,163.803183 237.808727,164.270413 234.856891,164.871684 C230.279767,165.80327 230.002161,170.093547 231.161571,173.844787 C232.903088,179.481221 236.172874,184.823722 236.280458,190.860365 C236.331368,193.760443 240.858542,193.770018 240.806671,190.860365 C240.714457,185.611693 238.611765,180.768975 236.726163,175.960724 C236.052802,174.243081 235.162352,172.260228 235.016345,170.474608 C235.004819,170.32812 234.976962,169.511425 234.999055,169.829295 C234.979844,169.543021 235.241119,169.245258 234.966396,169.654084 C235.042281,169.541106 235.163313,169.447277 235.131614,169.460681 C235.458208,169.32664 235.810738,169.273981 236.153662,169.206003 C243.244602,167.785166 250.422954,166.65539 257.572489,165.584975 C261.509873,164.996151 265.528904,164.310625 269.52104,164.272328 C272.431572,164.243605 272.439257,159.73216 269.52104,159.759798" id="Fill-117" fill="#5EAA1B"></path>
                <path d="M221.374307,214.472687 C218.475301,220.240291 214.808799,225.626834 212.419858,231.642413 C210.156751,237.342038 210.028034,243.227406 210.101038,249.276496 C210.242242,260.922765 211.496748,273.850085 218.831673,283.4168 C220.576072,285.692628 224.509613,283.447438 222.74024,281.139056 C215.853901,272.157335 214.760771,260.207559 214.628212,249.276496 C214.560011,243.608466 214.64262,238.18554 216.784695,232.841125 C219.041078,227.21618 222.566376,222.155165 225.282873,216.750431 C226.584447,214.16152 222.680684,211.874202 221.374307,214.472687" id="Fill-118" fill="#5EAA1B"></path>
                <path d="M186.482501,274.029126 C179.301268,275.735279 173.354368,295.330194 178.830588,300.386421 C188.551573,309.360482 200.690317,269.992569 186.482501,274.029126" id="Fill-119" fill="#5EAA1B"></path>
                <path d="M215.214161,312.770874 L212.097105,310.11973 C203.900547,312.580344 206.067597,339.630824 215.139236,338.817959 C220.407011,338.3469 218.877781,316.512539 215.214161,312.770874" id="Fill-120" fill="#5EAA1B"></path>
                <path d="M237.618534,298.692714 C237.319796,304.881589 242.816187,313.989692 249.13867,315.88446 C255.748364,317.865399 255.127834,312.983425 254.970301,306.760082 C254.825254,301.054712 254.224897,299.031647 249.544031,295.362746 C245.669085,292.324798 235.438036,287.674524 237.618534,298.692714" id="Fill-121" fill="#5EAA1B"></path>
                <path d="M224.402989,254.616124 C229.026221,263.079871 242.275385,274.514546 237.833702,257.05376 C236.467769,251.685408 235.363112,247.974381 230.355652,245.458235 C225.547991,243.043578 221.260959,243.147939 224.402989,254.616124" id="Fill-122" fill="#5EAA1B"></path>
                <path d="M194.922084,229.318712 C185.038762,230.098066 174.34856,248.262569 182.033133,251.802216 C188.624576,254.839207 198.825847,235.782372 194.922084,229.318712" id="Fill-123" fill="#5EAA1B"></path>
                <path d="M192.658017,235.840776 C199.326305,231.365713 208.574689,232.126876 216.23813,231.786986 C215.586862,231.414543 214.935595,231.0421 214.284327,230.669656 C217.706844,236.13088 220.512674,241.759654 223.252224,247.582789 C224.48848,250.209997 228.392243,247.921722 227.161751,245.305045 C224.422201,239.481911 221.61541,233.853136 218.192893,228.391913 C217.781769,227.736068 217.043089,227.239158 216.23813,227.274583 C207.758203,227.650856 197.746165,226.996926 190.373777,231.944963 C187.969466,233.558245 190.232573,237.46842 192.658017,235.840776" id="Fill-124" fill="#5EAA1B"></path>
                <path d="M191.318019,276.90814 C191.696484,276.60559 192.400583,276.079957 193.10084,275.587834 C193.939419,274.999967 194.793367,274.433164 195.658843,273.883595 C197.649147,272.619778 199.699007,271.445002 201.80362,270.380332 C203.743014,269.398958 205.727555,268.510456 207.801429,267.849824 C209.680307,267.251426 211.033753,266.897174 212.858839,267.054194 C214.078765,267.159512 215.122906,265.941652 215.122906,264.798471 C215.122906,263.490612 214.082607,262.647109 212.858839,262.541791 C208.395062,262.157859 203.680577,264.404964 199.806591,266.338988 C195.68766,268.396521 191.713775,270.841816 188.116434,273.717958 C187.162586,274.481036 187.319159,276.113467 188.116434,276.90814 C189.059715,277.848343 190.36129,277.673132 191.318019,276.90814" id="Fill-125" fill="#5EAA1B"></path>
                <path d="M215.980697,313.844161 C218.034399,303.14767 221.656715,292.729794 221.824815,281.743199 C221.070766,282.494787 220.315757,283.247333 219.561708,283.998922 C223.140798,283.966369 226.542182,285.955924 229.402765,287.914841 C232.451619,290.002054 235.25937,292.55554 237.542649,295.461363 C238.302461,296.427417 239.944078,296.239759 240.743274,295.461363 C241.703845,294.524031 241.49252,293.223831 240.743274,292.270224 C238.128598,288.944086 234.818468,286.103369 231.303736,283.759562 C227.863929,281.464585 223.794947,279.448221 219.561708,279.486519 C218.324492,279.498008 217.316852,280.511934 217.29764,281.743199 C217.136264,292.311393 213.591755,302.35204 211.615859,312.644492 C211.071215,315.482337 215.433171,316.698282 215.980697,313.844161" id="Fill-126" fill="#5EAA1B"></path>
                <path d="M265.802667,271.570426 C302.875931,268.658859 341.488991,267.417063 377.606485,277.698983 C387.615642,280.548317 397.317416,284.358918 406.417872,289.41323 C408.964347,290.828323 411.250508,286.93251 408.702111,285.517417 C375.070576,266.83877 334.586323,264.20486 296.881003,265.303041 C286.50779,265.605591 276.147064,266.246117 265.802667,267.058981 C262.91711,267.284936 262.893096,271.799254 265.802667,271.570426" id="Fill-127" fill="#5EAA1B"></path>
                <path d="M322.23145,280.932249 C322.704051,286.424111 323.490759,303.647453 332.822713,298.168996 C344.515752,291.304169 327.801805,263.149764 322.23145,280.932249" id="Fill-128" fill="#5EAA1B"></path>
                <path d="M357.640043,292.897345 C356.544991,297.676873 362.392951,303.847557 367.595407,305.460839 C371.41368,300.230358 374.16956,284.272749 364.913491,283.278929 C360.393041,283.635095 358.949302,287.183358 357.640043,292.897345" id="Fill-129" fill="#5EAA1B"></path>
                <path d="M375.366432,258.460235 C382.996253,258.404704 396.960083,256.10111 396.953362,247.183537 C390.154433,243.942612 367.430189,245.005367 375.366432,258.460235" id="Fill-130" fill="#5EAA1B"></path>
                <path d="M340.318054,250.402442 C354.640177,247.584704 350.777719,230.978909 335.28754,238.853832 C323.739547,244.724838 325.326412,253.60507 340.318054,250.402442" id="Fill-131" fill="#5EAA1B"></path>
                <g id="Group-135" transform="translate(422.402745, 269.442423)" fill="#5EAA1B">
                    <path d="M3.52529801,41.1952805 C1.46871408,54.6128087 15.8792102,54.4289807 15.4056484,41.4375121 C15.0483157,31.6400549 -0.392873811,25.5497954 2.27079142,39.121471" id="Fill-132"></path>
                    <path d="M2.43600974,13.2572561 C8.5836684,12.7727928 25.7404389,16.9213692 25.5963532,7.23018748 C25.4032783,-5.75936619 2.82215955,0.992482597 0,10.0077135 C0.674321309,11.4984436 -0.33427894,10.4567516 2.43600974,13.2572561" id="Fill-134"></path>
                </g>
                <path d="M406.517771,285.729968 C405.509171,286.258474 405.010634,287.858352 405.705128,288.816747 C410.914308,295.994655 419.281847,299.970893 426.200845,305.233926 C427.172944,305.974026 428.733873,305.385202 429.296768,304.424892 C429.977813,303.264478 429.460065,302.07917 428.485085,301.338114 C425.173994,298.819096 421.633327,296.624649 418.230021,294.234885 C415.111045,292.046183 410.613062,288.742484 411.541443,288.358074 C413.462663,287.562566 415.43548,286.894462 417.375113,286.130177 C420.509458,284.89604 423.396936,283.40531 425.975111,281.216608 C426.906865,280.426723 426.790636,278.839291 425.975111,278.026427 C425.052962,277.106329 423.708162,277.233669 422.774486,278.026427 C418.131083,281.967239 411.812442,282.9534 406.517771,285.729968 Z" id="Fill-136" fill="#5EAA1B"></path>
                <path d="M366.683825,283.822753 C361.560135,278.584613 356.998381,272.798818 351.285861,268.163864 C351.13313,269.345342 350.980399,270.525862 350.827668,271.70734 C355.071474,269.672785 359.455523,267.950355 363.698368,265.916758 C368.183277,263.766354 372.312775,261.110422 376.178115,257.986304 C377.135805,257.212694 376.970587,255.602285 376.178115,254.796122 C375.250203,253.850174 373.921732,254.033045 372.97749,254.796122 C365.640644,260.724575 356.948431,263.781673 348.543429,267.810569 C347.311976,268.401308 347.002672,270.476075 348.085236,271.354045 C353.797756,275.989 358.359511,281.775752 363.4832,287.012935 C365.520572,289.095361 368.720237,285.903265 366.683825,283.822753" id="Fill-137" fill="#5EAA1B"></path>
                <path d="M310.988919,252.427422 C305.116944,255.529519 299.600381,259.812137 297.006838,266.082395 C296.629333,266.993875 297.261389,268.164821 298.047137,268.630136 C305.871954,273.267005 314.25102,276.869842 322.138274,281.393734 C324.66746,282.845209 326.949778,278.947482 324.422514,277.497921 C316.53526,272.97403 301.827504,266.271637 302.098239,265.790914 C304.636575,261.283799 309.581407,258.191073 314.036813,255.927813 C319.346853,253.23167 325.102598,251.376156 330.915018,250.107551 C333.75927,249.487132 332.555674,245.136536 329.711421,245.756956 C323.244853,247.168218 316.845524,249.332984 310.988919,252.427422 Z" id="Fill-138" fill="#5EAA1B"></path>
                <path d="M274.374809,344.134609 C264.702813,345.727785 257.00191,361.247846 267.838119,367.484594 C279.924031,374.441334 289.259827,342.461009 274.374809,344.134609" id="Fill-139" fill="#5EAA1B"></path>
                <path d="M300.425512,352.581122 C300.53886,357.895858 302.096907,368.548307 308.432838,370.384672 C314.646776,372.186569 316.238443,365.119723 316.966556,359.859562 C318.104834,351.635174 316.111648,348.649884 307.826717,346.928412 C302.398527,345.799593 291.936941,345.184918 300.425512,352.581122" id="Fill-140" fill="#5EAA1B"></path>
                <path d="M278.561941,347.834148 C281.528186,345.587042 283.724053,342.489732 285.697067,339.375188 C288.258912,335.332887 290.434607,331.041652 292.375922,326.671908 C294.334527,322.264824 296.10294,317.752421 297.426608,313.111722 C298.391022,309.732925 299.359278,306.004664 299.035565,302.461188 C298.77429,299.592705 294.244234,299.565897 294.509352,302.461188 C294.799444,305.63988 293.926285,308.883678 293.06177,311.912053 C291.845686,316.174564 290.266506,320.345161 288.467356,324.395122 C286.638427,328.512103 284.597213,332.554404 282.229403,336.391813 C280.619485,339.002745 278.536005,342.226437 276.277701,343.937377 C273.987698,345.672254 276.2412,349.592003 278.561941,347.834148" id="Fill-141" fill="#5EAA1B"></path>
                <path d="M290.715093,322.209292 C291.44801,331.517499 292.097356,340.893684 297.412199,348.915095 C299.01059,351.326879 302.932604,349.070199 301.320765,346.637351 C296.447785,339.283274 295.913707,330.741975 295.241307,322.209292 C295.014612,319.33315 290.486477,319.309214 290.715093,322.209292" id="Fill-142" fill="#5EAA1B"></path>
                <path d="M350.081304,343.693231 C339.37093,343.798549 329.82669,337.402867 322.624324,329.998046 C321.665673,329.012843 320.73584,327.997001 319.854995,326.941905 C319.656157,326.703503 319.460201,326.463187 319.267126,326.219998 C319.084617,325.989255 319.664802,326.748503 319.525519,326.554143 C319.025062,325.854256 318.515959,325.160114 318.004934,324.467887 C314.386461,319.572509 310.57011,314.82362 306.618318,310.191537 C290.420198,291.206511 272.093451,274.172741 255.514945,255.530477 C239.184266,237.167784 224.401068,216.820324 216.974888,193.1563 C212.842509,179.986748 211.390125,166.083799 209.08091,152.518826 C206.766893,138.927044 204.415414,125.311326 203.230068,111.565397 C202.151346,99.04786 202.015906,86.3062827 204.303988,73.9084253 C206.616084,61.3803565 211.412218,49.535898 218.585767,38.9868523 C220.550136,36.0982636 222.675881,33.3322268 224.929382,30.6619338 C226.792891,28.4540831 223.606675,25.2457103 221.727797,27.4717523 C212.953935,37.8666505 206.17326,49.7206834 202.30792,62.7820449 C198.664471,75.0927754 197.63762,88.0402019 198.051627,100.825821 C198.496371,114.553559 200.49436,128.195128 202.704636,141.734251 C203.891902,149.002158 205.159857,156.255704 206.376901,163.518825 C207.578576,170.690031 208.477671,177.941662 210.090471,185.036273 C215.754002,209.936349 229.51227,231.741986 245.754576,251.132009 C262.187076,270.751817 281.016201,288.186753 298.060585,307.254119 C302.301509,311.999179 306.431006,316.845728 310.364547,321.847381 C312.669919,324.779054 314.730346,327.918492 317.171158,330.74006 C323.42448,337.964883 331.6585,344.300246 340.949149,346.966709 C343.909631,347.815956 347.000751,348.236271 350.081304,348.207195 C352.991836,348.17691 352.999521,343.665465 350.081304,343.693231" id="Fill-143" fill="#5EAA1B"></path>
                <path d="M347.037252,344.216949 C348.269666,335.297462 367.590604,335.911179 369.5665,344.585562 C372.150438,355.930239 347.16693,355.10014 347.037252,344.216949" id="Fill-144" fill="#5EAA1B"></path>
                <path d="M414.79982,261.438823 C415.155232,265.92729 411.794191,269.853741 407.291031,270.20895 C402.788832,270.564159 398.849528,267.213128 398.493155,262.724662 C398.136783,258.237153 401.498784,254.310702 406.000984,253.955492 C410.504144,253.600283 414.443448,256.951314 414.79982,261.438823" id="Fill-146" fill="#D8D2CE"></path>
                <path d="M389.869143,304.922759 C387.110381,298.849734 383.355507,293.291809 380.591942,287.223571 C378.156893,281.875325 376.423061,276.193892 372.215757,271.883508 C370.181266,269.79821 366.981602,272.990306 369.015132,275.07369 C373.029361,279.187798 374.560512,284.964976 376.935046,290.045139 C379.672675,295.903699 383.283464,301.308433 385.959616,307.199545 C387.15937,309.841115 391.062173,307.549968 389.869143,304.922759" id="Fill-148" fill="#5EAA1B"></path>
                <path d="M392.399289,282.436384 C396.205074,282.091706 399.685225,280.312787 402.530438,277.815791 C405.420798,275.279539 407.499475,271.862445 407.864493,268.004929 C407.975919,266.826324 406.743505,265.697505 405.600425,265.748249 C404.278679,265.80761 403.456429,266.742069 403.337318,268.004929 C403.327713,268.118864 403.315225,268.233757 403.301777,268.348649 C403.3402,268.063333 403.345964,268.005887 403.318107,268.176311 C403.262394,268.334288 403.252788,268.521945 403.215326,268.686625 C403.130795,269.055238 403.024172,269.419064 402.898337,269.776188 C402.839742,269.942783 402.773463,270.106504 402.710065,270.271184 C402.910825,269.752253 402.686051,270.303737 402.648588,270.382246 C402.492976,270.70586 402.321034,271.023729 402.137564,271.332982 C401.935844,271.673829 401.718755,272.005103 401.488218,272.326802 C401.425781,272.413929 401.006972,272.936689 401.34029,272.533608 C401.221179,272.677224 401.103989,272.82084 400.982957,272.96254 C400.470973,273.554237 399.917683,274.10955 399.328853,274.625609 C399.187649,274.750076 399.043563,274.871671 398.897556,274.99135 C398.817829,275.057413 398.273185,275.466239 398.689112,275.161774 C398.386532,275.3839 398.08107,275.601238 397.766963,275.807087 C397.12338,276.227402 396.453862,276.606547 395.759368,276.93782 C395.597032,277.01633 395.430853,277.088138 395.266595,277.163776 C395.114825,277.229839 395.15709,277.211648 395.395312,277.109202 C395.285807,277.153244 395.175341,277.196329 395.064875,277.237498 C394.738281,277.36005 394.407844,277.471113 394.073565,277.569729 C393.747931,277.664516 393.419416,277.747813 393.088019,277.815791 C392.925682,277.849301 392.762385,277.875152 392.600048,277.90579 C392.344536,277.944087 392.38392,277.940257 392.718199,277.892386 C392.611575,277.904832 392.505912,277.915364 392.399289,277.923981 C391.223549,278.030257 390.077587,278.885248 390.136182,280.179704 C390.186132,281.310437 391.136137,282.550319 392.399289,282.436384" id="Fill-149" fill="#5EAA1B"></path>
                <path d="M269.410574,241.582528 C265.569248,240.104245 261.252439,239.946268 257.190182,240.324456 C255.163376,240.512113 253.122161,240.784983 251.157792,241.328807 C249.102168,241.898483 247.085928,242.70656 244.93809,242.841559 C242.044848,243.023472 242.024676,247.536832 244.93809,247.353004 C249.008032,247.097368 252.743696,245.290684 256.799229,244.874198 C260.63191,244.481649 264.572175,244.534308 268.206978,245.934081 C269.347177,246.372588 270.690056,245.449618 270.991675,244.358139 C271.342284,243.08379 270.555576,242.023907 269.410574,241.582528" id="Fill-150" fill="#5EAA1B"></path>
                <path d="M270.803403,166.484966 C272.572776,168.831645 273.293205,171.66183 274.599583,174.251698 C276.025071,177.077096 278.119117,179.559731 280.132475,181.982048 C283.758633,186.34509 287.510626,190.972386 292.595893,193.712572 C295.158698,195.094154 297.44678,191.200256 294.881093,189.816759 C290.152198,187.26806 286.704707,182.847571 283.3331,178.791867 C281.463828,176.542846 279.582068,174.236379 278.316995,171.582363 C277.13165,169.093983 276.394891,166.439009 274.711969,164.20818 C273.979053,163.235423 272.757206,162.732768 271.616047,163.399145 C270.654515,163.959246 270.064724,165.505507 270.803403,166.484966" id="Fill-151" fill="#315C0F"></path>
                <g id="Group" transform="translate(124.281108, 76.961342)">
                    <g id="Christmas/Stuffs/Knot-1" transform="translate(76.170022, 44.726025) scale(1, -1) translate(-76.170022, -44.726025) ">
                        <path d="M67.5330479,40.382261 C67.5330479,40.382261 35.7264276,-11.4714769 11.806378,2.33915297 C-12.1131718,16.1502809 9.77264915,51.3459956 9.77264915,51.3459956 C9.77264915,51.3459956 -3.02535187,64.2367137 0.669838568,71.7937366 C4.3655287,79.3507595 28.7852659,104.628162 66.5541597,63.978222 L67.5330479,40.382261" id="Fill-23" fill="#B70A07"></path>
                        <path d="M83.7848902,40.8768319 C83.7848902,40.8768319 119.810374,-8.91295676 142.524677,6.31713634 C165.23948,21.5472294 140.490948,55.323979 140.490948,55.323979 C140.490948,55.323979 152.187637,68.9602888 147.875332,76.2732636 C143.562528,83.5867365 117.108562,107.315679 82.8055023,64.4727929 L83.7848902,40.8768319" id="Fill-24" fill="#B70A07"></path>
                        <path d="M48.4344848,58.1514501 C48.1881388,58.1514501 47.9452906,58.0359008 47.7923861,57.8197439 C47.5420426,57.4666213 47.6269895,56.9785252 47.9817678,56.7294966 C52.4344847,53.5992067 59.8283634,52.2479773 63.9652778,51.7135619 C57.590762,48.4468043 47.7479139,40.773734 47.2642162,40.3962066 C46.9234292,40.129746 46.8639664,39.6376654 47.1312993,39.2974923 C47.3991319,38.9573192 47.891824,38.8980504 48.2331107,39.164511 C48.3695254,39.2705972 61.8855776,49.8084928 67.2707118,51.4316614 C67.6334851,51.540736 67.8658399,51.8928625 67.8233664,52.2688957 C67.7803933,52.6439328 67.4745844,52.9352963 67.0963208,52.9611953 C66.974397,52.9686662 54.8269894,53.8313013 48.8862025,58.0085076 C48.7487884,58.1046327 48.5908871,58.1514501 48.4344848,58.1514501" id="Fill-25" fill="#C91111"></path>
                        <path d="M103.979268,59.8413584 C103.804877,59.8413584 103.629487,59.7840818 103.484078,59.6655441 C97.9090623,55.1421881 85.8675884,53.5439223 85.7461643,53.5284825 C85.3703992,53.4796729 85.0825791,53.1703794 85.0630913,52.7923539 C85.0436035,52.4148265 85.2979445,52.0776417 85.6672137,51.9904817 C91.1767701,50.6985212 105.535795,41.0073229 105.679706,40.9097037 C106.039481,40.6656556 106.527176,40.7597884 106.770024,41.1173935 C107.013872,41.4749987 106.92043,41.9611026 106.562154,42.2041545 C106.048475,42.5513004 95.5895121,49.609768 88.9631537,52.4780798 C93.0505989,53.2660064 100.297569,55.062997 104.474959,58.4522766 C104.811248,58.725212 104.861717,59.2177907 104.588388,59.5524851 C104.433484,59.742743 104.207126,59.8413584 103.979268,59.8413584" id="Fill-26" fill="#C91111"></path>
                        <path d="M69.7691503,64.0758412 L80.6498496,64.4070493 C85.9380444,64.5679218 90.3767701,61.0277308 90.5646527,56.4998922 L90.8634659,49.3009725 C91.0513485,44.7731339 86.9169326,40.9719608 81.6292375,40.8110883 L70.7485381,40.4803783 C65.460843,40.3190078 61.0216176,43.8591988 60.8337351,48.3870374 L60.5349218,55.5859571 C60.3470392,60.1142937 64.4814552,63.9149687 69.7691503,64.0758412" id="Fill-27" fill="#FD0E20"></path>
                        <path d="M80.9961332,64.4125279 C80.881205,64.4125279 80.7657772,64.4105357 80.6498496,64.4070493 L69.7691503,64.0758412 C68.6413552,64.0414753 67.5660273,63.8417543 66.5736475,63.5045695 C63.0143721,62.2942904 60.5259274,59.3169041 60.5289229,55.8768225 C60.5289229,55.7801994 60.5309243,55.6835763 60.5349218,55.5859571 L60.8337351,48.3870374 C61.0176201,43.9583122 65.2679636,40.4748997 70.4022546,40.4748997 C70.5171827,40.4748997 70.6326106,40.4763938 70.7485381,40.4803783 L81.6292375,40.8110883 C86.8035035,40.9684744 90.8734597,44.6117633 90.8699641,49.010107 C90.8694622,49.1067301 90.8674634,49.2038513 90.8634659,49.3009725 L90.5646527,56.4998922 C90.4032536,60.3932058 87.0988189,63.5563675 82.813997,64.2641069 C82.2248652,64.361228 81.6167453,64.4125279 80.9961332,64.4125279" id="Fill-28" fill="#DB0C14"></path>
                    </g>
                </g>
            </g>
        </g>
    </g>
</svg>