<?xml version="1.0" encoding="UTF-8"?>
<svg width="447px" height="292px" viewBox="0 0 447 292" version="1.1" xmlns="http://www.w3.org/2000/svg" xmlns:xlink="http://www.w3.org/1999/xlink">
    <title>decoration-12</title>
    <g id="decoration-12" stroke="none" stroke-width="1" fill="none" fill-rule="evenodd">
        <g id="Christmas/Santas/Santa-2" transform="translate(0.330000, -0.371788)">
            <g id="Christmas/Ground/Snow-1" transform="translate(0.000000, 248.119386)">
                <path d="M411.893718,21.0869747 C434.12557,28.3641899 440.461605,44.3465373 440.461605,44.3465373 L0,44.3895469 C13.135055,35.2027078 42.7746666,15.7193833 85.3349883,12.9581704 C117.083754,10.8937122 142.307861,18.4117809 156.557509,23.8911971 C178.317802,15.4441222 204.699372,7.22929887 235.179215,1.67246549 C314.366792,-7.55738314 380.505052,24.4245155 380.505052,24.4245155 C384.106046,22.7127355 396.803837,16.1494788 411.893718,21.0869747 Z" id="Fill-737" fill="#D1DADF"></path>
                <path d="M69.8335657,26.4029546 C68.6846771,25.4223369 68.0845114,24.3384964 68.0845114,24.3384964 C68.0845114,24.3384964 69.319138,24.2868849 70.7509619,24.7599899 C70.9738805,24.8374071 71.2225206,24.7685918 71.3768489,24.5879517 C72.3628354,23.4352959 73.4431337,22.8331623 73.4431337,22.8331623 C73.4431337,22.8331623 73.4860027,24.0718372 73.0144439,25.5169579 C72.9458535,25.7406076 73.0144439,25.981461 73.1944936,26.1362954 C74.3433822,27.125515 74.9435479,28.2093555 74.9435479,28.2093555 C74.9435479,28.2093555 73.7003476,28.260967 72.2685237,27.787862 C72.045605,27.7104448 71.7969649,27.7792601 71.6426366,27.9599002 C70.6566501,29.112556 69.5763519,29.7146897 69.5763519,29.7146897 C69.5763519,29.7146897 69.5334829,28.4760147 70.0050416,27.030894 C70.0822058,26.8072443 70.0136154,26.557789 69.8335657,26.4029546" id="Fill-771" fill="#F7F7F6"></path>
                <path d="M206.354114,36.3467617 C205.719653,35.8048414 205.385275,35.2027078 205.385275,35.2027078 C205.385275,35.2027078 206.071179,35.176902 206.859968,35.4349593 C206.980001,35.4779689 207.117182,35.4435612 207.20292,35.3403383 C207.743069,34.703797 208.343235,34.3769245 208.343235,34.3769245 C208.343235,34.3769245 208.368956,35.0564753 208.111742,35.8564529 C208.068873,35.9768796 208.103168,36.1145102 208.206054,36.2005292 C208.840515,36.7424495 209.166319,37.3445832 209.166319,37.3445832 C209.166319,37.3445832 208.488989,37.3703889 207.691626,37.1037297 C207.571593,37.0693221 207.434412,37.1037297 207.348674,37.1983507 C206.808525,37.834892 206.20836,38.1703665 206.20836,38.1703665 C206.20836,38.1703665 206.182638,37.4822137 206.448426,36.6908381 C206.482721,36.5704113 206.448426,36.4327808 206.354114,36.3467617" id="Fill-772" fill="#F7F7F6"></path>
                <path d="M321.371583,34.7296028 C320.411318,33.9038195 319.905464,33.000619 319.905464,33.000619 C319.905464,33.000619 320.942893,32.9576095 322.143225,33.3532973 C322.331848,33.4135106 322.537619,33.3618992 322.666226,33.2070648 C323.489311,32.243651 324.398133,31.7361383 324.398133,31.7361383 C324.398133,31.7361383 324.432428,32.7769694 324.038034,33.9812367 C323.978017,34.1704787 324.02946,34.3769245 324.183788,34.5059531 C325.144053,35.3317364 325.649907,36.2435388 325.649907,36.2435388 C325.649907,36.2435388 324.612478,36.2865483 323.412146,35.8822586 C323.223523,35.8220452 323.017752,35.8822586 322.889145,36.0284911 C322.066061,37.0005068 321.157238,37.4994175 321.157238,37.4994175 C321.157238,37.4994175 321.122943,36.4585865 321.517338,35.2543192 C321.577354,35.0650772 321.517338,34.8586314 321.371583,34.7296028" id="Fill-773" fill="#F7F7F6"></path>
                <path d="M395.800703,27.3061551 C394.831864,26.4803718 394.334584,25.5685694 394.334584,25.5685694 C394.334584,25.5685694 395.36344,25.5341618 396.572345,25.9298496 C396.760968,25.990063 396.966739,25.9298496 397.095346,25.7836171 C397.918431,24.8202033 398.818679,24.3126907 398.818679,24.3126907 C398.818679,24.3126907 398.861548,25.3535217 398.467154,26.557789 C398.407137,26.747031 398.45858,26.9534768 398.612908,27.0825054 C399.573173,27.9082887 400.079027,28.8200911 400.079027,28.8200911 C400.079027,28.8200911 399.041598,28.8544987 397.832693,28.4588109 C397.652643,28.3985975 397.446872,28.4588109 397.318265,28.6050434 C396.495181,29.5684572 395.586358,30.0759699 395.586358,30.0759699 C395.586358,30.0759699 395.543489,29.0351388 395.946458,27.8308715 C396.006474,27.6416295 395.946458,27.4351837 395.800703,27.3061551" id="Fill-774" fill="#F7F7F6"></path>
                <path d="M361.556963,39.8047292 L361.488373,39.7703216 L361.556963,39.8047292 L361.488373,39.7703216 L361.556963,39.8047292 C361.591259,39.7359139 362.757295,37.6370481 365.415171,35.0392715 C368.064474,32.432893 372.197044,29.3276037 378.181553,27.2287379 C378.73885,27.030894 379.030359,26.4201584 378.841735,25.8610343 C378.644538,25.3019102 378.027225,25.0008434 377.469928,25.1986873 C371.056729,27.4523875 366.615503,30.815734 363.777576,33.6285584 C360.948224,36.4413827 359.713597,38.7036848 359.670728,38.7725001 C359.387793,39.2972166 359.576417,39.9423598 360.099418,40.2348247 C360.62242,40.5186877 361.274028,40.3208438 361.556963,39.8047292" id="Fill-775" fill="#F7F7F6"></path>
                <path d="M95.1862795,26.6954195 L95.1948533,26.6954195 C95.3663292,26.6352062 99.1902421,25.3535217 104.163044,25.3535217 C107.095282,25.3535217 110.421914,25.800821 113.645662,27.1771264 C116.869409,28.5534319 119.99027,30.8415398 122.596704,34.6177779 C122.931082,35.1080868 123.599838,35.2285135 124.079971,34.893039 C124.568677,34.5489627 124.697284,33.8866157 124.354332,33.3963068 C121.52498,29.2845942 118.035445,26.7126233 114.485894,25.1986873 C110.927768,23.6761494 107.309627,23.2030444 104.163044,23.2030444 C98.6586668,23.2116463 94.5518186,24.6395632 94.4832283,24.6653689 C93.9259316,24.8632128 93.6258487,25.4739484 93.823046,26.0330725 C94.0202433,26.5921966 94.6289828,26.8932634 95.1862795,26.6954195" id="Fill-776" fill="#F7F7F6"></path>
            </g>
            <g id="Bag" transform="translate(68.668459, 45.736434)">
                <path d="M175.085331,19.3955003 C171.254853,28.9257978 162.951199,44.8632627 158.469455,53.0669359 C155.09315,59.264411 151.536889,65.0750253 147.860659,70.5158966 C145.281299,74.3203126 142.641954,77.956119 139.934055,81.398495 L139.934055,81.4070539 C138.545828,83.1958569 137.140462,84.908486 135.717958,86.5962945 C118.322276,107.219739 98.9813613,120.62977 80.4545308,127.179015 L80.4459615,127.179015 C70.265631,130.79 60.3509488,132.334876 51.1389493,131.856435 C50.2134647,131.814497 49.3051188,131.746882 48.3882035,131.663005 C47.7626444,131.603948 47.1370854,131.52863 46.528665,131.453312 C45.5260567,131.327497 44.5405869,131.176005 43.5636865,130.991134 L43.5551172,130.991134 C38.6963231,130.10957 34.1203159,128.615192 29.8699422,126.524261 C29.3643534,126.280334 28.8673339,126.020144 28.3788837,125.759955 C27.761894,125.424447 27.1449043,125.088084 26.5536224,124.726899 C26.4250829,124.66014 26.2965434,124.584822 26.1851425,124.508648 C11.548775,115.666484 1.66836998,99.0237682 0.203019373,75.1008812 C-1.83647446,41.6134611 11.720161,21.7380619 30.5212092,11.0488939 C31.1810454,10.670592 31.849451,10.3017049 32.5264258,9.94907958 C33.0748611,9.66321345 33.6232964,9.37820321 34.1803011,9.10945481 C34.9429689,8.73115292 35.7227754,8.35370692 36.5197204,8.00878461 C39.4846989,6.68216034 42.5439396,5.54896645 45.6545962,4.60834705 C46.3487096,4.39009596 47.0513924,4.18810672 47.7540751,4.00323521 C49.2108564,3.59240963 50.676207,3.2226666 52.1586963,2.89571791 C53.0670422,2.6851698 53.9668189,2.50029829 54.8837342,2.33254451 C76.8211469,-1.88269711 97.1646694,-1.43763607 133.327123,12.5937693 C158.966474,22.5443071 167.278697,17.472323 173.98846,12.988333 L175.085331,19.3955003" id="Fill-738" fill="#9F5B41"></path>
                <path d="M31.2410305,108.907547 C29.2872297,111.585616 27.4276912,114.113049 27.5733694,119.118274 C27.6847703,122.485332 28.6273935,124.677258 29.8699422,126.524261 C29.3643534,126.280334 28.8673339,126.020144 28.3788837,125.759955 C27.761894,125.424447 27.1449043,125.088084 26.5536224,124.726899 C25.945202,123.215404 25.5510141,121.427457 25.4824597,119.185034 C25.2939351,113.458296 27.4619684,110.511479 29.5528781,107.6648 C31.5152482,104.985874 33.3662174,102.458441 33.2205393,97.4540722 C33.0577225,92.4488472 31.0525059,90.0395263 28.9187497,87.4864165 C26.6564541,84.7741118 24.325604,81.9693714 24.1456486,76.2434899 C23.957124,70.5081936 26.1251574,67.5690789 28.216067,64.7224 C30.1784371,62.0434749 32.0294063,59.5160417 31.8837282,54.5116726 C31.7209114,49.4987446 29.7156948,47.0971267 27.5819387,44.5448728 C25.319643,41.8325681 22.9887929,39.0278276 22.8088376,33.3010902 C22.6288822,27.565794 24.7883463,24.6266793 26.8792559,21.7800004 C28.841626,19.1019311 30.6925952,16.5659391 30.5469171,11.5607141 C30.5383478,11.3844015 30.5297785,11.2166477 30.5212092,11.0488939 C31.1810454,10.670592 31.849451,10.3017049 32.5264258,9.94907958 C32.5864109,10.4360791 32.6206881,10.9564581 32.6378267,11.4939549 C32.8263514,17.2292512 30.658318,20.16751 28.5674084,23.0141889 C26.6136076,25.693114 24.7540691,28.2291061 24.8997472,33.2334752 C25.0625639,38.2378443 27.0763499,40.648021 29.2015367,43.2011308 C31.4638324,45.9134355 33.7946825,48.7173201 33.9746378,54.4440575 C34.1631625,60.1707949 31.9951291,63.1184685 29.9042195,65.9651474 C27.9504186,68.6440725 26.0908801,71.1715057 26.2365583,76.1758748 C26.399375,81.1802439 28.4131609,83.5904206 30.5383478,86.1426745 C32.8006435,88.8558351 35.1314936,91.6597197 35.3114489,97.3864571 C35.4999735,103.113195 33.3319402,106.060868 31.2410305,108.907547" id="Fill-777" fill="#F7F7F6"></path>
                <path d="M48.9880546,129.085074 C49.7250145,129.966637 50.4705438,130.856759 51.1389493,131.856435 C50.2134647,131.814497 49.3051188,131.746882 48.3882035,131.663005 C48.0540007,131.251323 47.7197979,130.840498 47.3770258,130.428816 C45.1147302,127.716511 42.7753108,124.911771 42.6039247,119.185034 C42.4239694,113.458296 44.5834335,110.511479 46.6657738,107.6648 C48.6367132,104.985874 50.4876824,102.458441 50.333435,97.4540722 C50.1791875,92.4488472 48.1654016,90.0395263 46.0402148,87.4864165 C43.7779191,84.7741118 41.4384997,81.9693714 41.2671137,76.2434899 C41.0871583,70.5081936 43.2466224,67.5690789 45.3289627,64.7224 C47.2999021,62.0434749 49.1508713,59.5160417 48.9966239,54.5116726 C48.8423765,49.4987446 46.8285905,47.0971267 44.7034037,44.5448728 C42.441108,41.8325681 40.1016886,39.0278276 39.9303026,33.3010902 C39.7503472,27.565794 41.9098113,24.6266793 43.9921516,21.7800004 C45.963091,19.1019311 47.8140602,16.5659391 47.6598128,11.5607141 C47.5569812,8.47096338 46.7514668,6.36291463 45.6545962,4.60834705 C46.3487096,4.39009596 47.0513924,4.18810672 47.7540751,4.00323521 C48.8595151,5.89303287 49.6650294,8.21933272 49.7592917,11.4939549 C49.9392471,17.2292512 47.779783,20.16751 45.6974427,23.0141889 C43.7265033,25.693114 41.8669648,28.2291061 42.0297815,33.2334752 C42.1840289,38.2378443 44.1892456,40.648021 46.3144324,43.2011308 C48.5852974,45.9134355 50.9247168,48.7173201 51.0961028,54.4440575 C51.2760582,60.1707949 49.1165941,63.1184685 47.0342538,65.9651474 C45.0633144,68.6440725 43.2037759,71.1715057 43.3665926,76.1758748 C43.52084,81.1802439 45.5260567,83.5904206 47.6512435,86.1426745 C49.9135392,88.8558351 52.2615279,91.6597197 52.4329139,97.3864571 C52.6128692,103.113195 50.4534052,106.060868 48.3710649,108.907547 C46.4001254,111.585616 44.5405869,114.113049 44.7034037,119.118274 C44.8576511,124.131202 46.8628677,126.541379 48.9880546,129.085074" id="Fill-778" fill="#F7F7F6"></path>
            </g>
            <g id="Santa" transform="translate(132.933157, -0.000000)">
                <g id="Leg-2" transform="translate(6.920160, 162.592601)">
                    <path d="M66.0498674,80.0784644 C66.0498674,80.0784644 47.4287746,112.448096 50.7793716,115.871643 C54.1299686,119.295189 124.612476,105.866328 128.957112,101.766631 C133.301748,97.6669345 129.822612,82.2609752 103.754795,84.6660167 L90.0353432,86.3007601 L66.0498674,80.0784644" id="Fill-740" fill="#8C9CA0"></path>
                    <path d="M237.675844,83.6475116 L1.5744406,127.59729 C0.854619245,127.725673 0.160505798,127.254935 0.0233969693,126.53599 C-0.11371186,125.808487 0.366169042,125.115219 1.08599039,124.978277 L237.195963,81.0370574 C237.915785,80.9001155 238.609898,81.379412 238.747007,82.0983568 C238.875546,82.8258604 238.404235,83.5191286 237.675844,83.6475116" id="Fill-742" fill="#744431"></path>
                    <path d="M78.4839244,87.3877361 L83.4369808,57.6028816 L69.70039,37.2533212 L120.833414,2.83870979e-14 C120.833414,2.83870979e-14 142.051005,23.6087766 143.173584,38.5285923 C144.296162,53.447552 103.394885,84.8457528 103.394885,84.8457528 C103.394885,84.8457528 93.068876,90.5373989 78.4839244,87.3877361" id="Fill-744" fill="#BB4748"></path>
                    <path d="M102.263737,92.1892601 L102.263737,92.1892601 C102.263737,92.069436 102.452262,90.3576627 103.549132,88.6801249 C104.106137,87.841356 104.877374,87.0025871 105.982814,86.3264367 C107.096823,85.6502863 108.553604,85.1196366 110.524544,84.9570181 C111.115826,84.9056649 111.55286,84.3835741 111.501444,83.8015712 C111.450028,83.2110094 110.93587,82.7745072 110.344588,82.8258604 C108.013738,83.0227143 106.162769,83.681747 104.731696,84.580428 C102.58937,85.9412877 101.423945,87.8071206 100.824094,89.3049222 C100.207104,90.8112826 100.129981,91.9667296 100.121411,92.0437594 C100.078565,92.6343211 100.532738,93.1392942 101.11545,93.1820886 C101.706732,93.2248829 102.22089,92.7798219 102.263737,92.1892601" id="Fill-767" fill="#F7F7F6"></path>
                    <path d="M109.084901,93.6357085 L109.084901,93.6271496 C109.09347,93.5158844 109.273426,91.8041111 110.378866,90.1265733 C110.927301,89.2878044 111.698538,88.4490355 112.812547,87.7728851 C113.926557,87.0967347 115.383338,86.566085 117.354277,86.4034665 C117.945559,86.3521133 118.382594,85.8300225 118.331178,85.2394607 C118.279762,84.6574578 117.757035,84.2209556 117.174322,84.2637499 C114.834903,84.4691627 112.983933,85.1281954 111.561429,86.0268764 C109.410535,87.3877361 108.253679,89.253569 107.645258,90.7513706 C107.036838,92.257731 106.959714,93.413178 106.951145,93.4902078 C106.908298,94.0807695 107.353902,94.5857426 107.945184,94.628537 C108.536466,94.6713313 109.050624,94.2262703 109.084901,93.6357085" id="Fill-768" fill="#F7F7F6"></path>
                </g>
                <g id="Leg-1" transform="translate(0.000000, 167.323086)">
                    <path d="M53.3806033,84.3775829 C53.3806033,84.3775829 45.9681572,108.496468 49.2759077,111.286658 C52.5922275,114.076849 107.324358,108.119878 110.152228,103.34403 C112.980097,98.5596242 111.891796,84.5658779 88.8832207,84.3176708 L73.9554969,86.3974753 L53.3806033,84.3775829" id="Fill-745" fill="#9EAFB3"></path>
                    <path d="M89.0203295,84.4717304 C89.0203295,84.4717304 129.835914,47.7293735 128.713336,32.8104137 C127.590757,17.8905981 108.52406,0 108.52406,0 L32.6686008,40.2035624 C35.7449802,41.9333093 39.404072,43.6904445 43.6287378,45.1942373 C52.1980397,48.2377702 59.9361192,49.1159098 65.7032593,49.2631223 C60.9472968,61.6024398 56.1999036,73.935766 51.4439411,86.2690923 C51.2211392,86.8596541 51.469649,87.5272456 52.0352229,87.8182471 C54.9659241,89.298931 65.1119775,92.5513001 89.0203295,84.4717304" id="Fill-746" fill="#CF4D4D"></path>
                    <path d="M245.075885,90.4201424 L1.49348083,120.453204 C0.765090181,120.547352 0.0966846396,120.025261 0.0109916215,119.297757 C-0.0832706984,118.570254 0.439456712,117.911221 1.16784737,117.817073 L244.750251,87.7840116 C245.478642,87.698423 246.138478,88.2119549 246.232741,88.9394586 C246.318434,89.6669622 245.804275,90.3345538 245.075885,90.4201424" id="Fill-747" fill="#9F5B41"></path>
                    <path d="M83.2531894,92.8936548 L83.2531894,92.8936548 C83.2617587,92.7738307 83.4417141,91.0620574 84.5385847,89.3845196 C85.0955893,88.5457507 85.8668265,87.7069818 86.9722664,87.0308314 C88.0862756,86.354681 89.5430569,85.8325901 91.5139964,85.6614128 C92.1052782,85.6100596 92.5423126,85.0965276 92.4908968,84.5059659 C92.4480503,83.9154041 91.9253228,83.4789019 91.334041,83.5302551 C89.0031909,83.727109 87.1522217,84.3861417 85.7211483,85.2933816 C83.5788229,86.6456824 82.4219671,88.5115153 81.8135467,90.0093169 C81.2051263,91.5156773 81.1194333,92.6711243 81.110864,92.7481541 C81.0765868,93.3387158 81.5221904,93.8522478 82.1134723,93.8864833 C82.6961848,93.9292776 83.2103429,93.4842165 83.2531894,92.8936548" id="Fill-765" fill="#F7F7F6"></path>
                    <path d="M90.0743537,94.3401032 L90.0743537,94.3401032 C90.082923,94.220279 90.2628783,92.5085058 91.3683182,90.830968 C91.9167535,89.9921991 92.6879907,89.1534302 93.8019999,88.4772798 C94.9160092,87.8011294 96.3727905,87.2704797 98.3437299,87.1078612 C98.9350117,87.056508 99.3720461,86.5344172 99.3206303,85.9524143 C99.2692145,85.3618525 98.7550564,84.9253503 98.1637746,84.9767035 C95.8329245,85.1735574 93.9819553,85.8325901 92.5508819,86.7312711 C90.3999871,88.0921308 89.2431314,89.9579637 88.634711,91.4557652 C88.0262905,92.9621257 87.9491668,94.1175727 87.9405975,94.1946024 C87.897751,94.7851642 88.3433547,95.2901373 88.9346365,95.3329317 C89.5259183,95.375726 90.0400764,94.9306649 90.0743537,94.3401032" id="Fill-766" fill="#F7F7F6"></path>
                </g>
                <g id="Coat" transform="translate(6.814846, 97.275613)">
                    <path d="M143.381729,2.93312346 C143.381729,2.93312346 159.32063,41.3222062 156.00431,58.385162 C152.69656,75.4481177 117.065403,77.9772627 117.065403,77.9772627 L107.150721,34.7960707 L143.381729,2.93312346" id="Fill-741" fill="#CF4D4D"></path>
                    <path d="M135.600803,4.51651372 C135.600803,4.51651372 145.429792,9.75710752 141.950655,22.8333434 C138.480088,35.9104351 134.28113,58.7874287 134.28113,58.7874287 L122.446924,54.5584929 L120.278891,11.354192 L135.600803,4.51651372" id="Fill-743" fill="#EEF3F7"></path>
                    <path d="M87.115693,91.4874331 C65.0754487,102.877572 53.1726885,97.8269853 53.1726885,97.8269853 L30.0355736,116.000882 C30.0355736,116.000882 0.908516766,138.120416 0.0258786796,106.663159 C0.00874007599,106.242918 0,105.810696 0,105.366491 C-0.119799451,72.0151565 63.010247,0 63.010247,0 L123.021068,3.74707164 C124.769205,6.04598311 132.721517,16.9722318 130.913395,32.1684988 C128.75393,50.3620808 114.383211,59.6801184 112.463688,60.8766479 C113.766222,61.827538 122.609741,73.1397915 87.115693,91.4874331" id="Fill-748" fill="#CF4D4D"></path>
                    <path d="M96.6704645,85.8882228 C66.4036905,100.245721 53.1726885,97.8269853 53.1726885,97.8269853 L30.0355736,116.000882 C30.0355736,116.000882 0.908516766,138.120416 0.0258786796,106.663159 C8.08959168,95.2113958 33.7632199,84.270597 33.7632199,84.270597 C52.5556988,64.1050523 75.4614425,69.5476353 75.4614425,69.5476353 C101.829184,58.1489373 127.897,65.5592037 127.897,65.5592037 C138.677182,73.4325047 110.398486,85.9729555 96.6704645,85.8882228" id="Fill-750" fill="#EEF3F7"></path>
                </g>
                <g id="Septer" transform="translate(143.408839, 14.949151)">
                    <path d="M71.3745636,22.6899941 C67.2270215,22.327954 62.4282125,27.5762508 62.4282125,27.5762508 C62.4282125,27.5762508 70.6376036,1.54445912 64.2191966,0.0594958294 C57.8007895,-1.42461158 52.9934112,25.3492338 52.9934112,25.3492338 C52.9934112,25.3492338 50.3283583,19.7055174 46.9263455,18.9643196 C43.618595,18.2419513 49.7456458,43.1242872 50.0712793,44.4218113 L0.617838535,259.526661 L0.000848804327,268.504912 C-0.0248591011,268.915738 0.540714818,269.044121 0.703531553,268.66753 L4.62827178,259.877575 L56.6182259,45.8383037 L56.7896119,45.8733951 C56.7896119,45.8733951 75.5221057,23.0520341 71.3745636,22.6899941" id="Fill-749" fill="#A8CAD4"></path>
                    <path d="M58.0064528,13.8230086 C57.0895375,13.0364488 56.6096566,12.1711475 56.6096566,12.1711475 C56.6096566,12.1711475 57.5951263,12.1343443 58.7434127,12.5126462 C58.9233681,12.5708465 59.120462,12.5160698 59.2490015,12.3731367 C60.0373773,11.4547703 60.9028768,10.9737621 60.9028768,10.9737621 C60.9028768,10.9737621 60.937154,11.963167 60.5601047,13.1117669 C60.5001196,13.2906472 60.5515354,13.4875011 60.6972135,13.6098929 C61.6141288,14.3964527 62.102579,15.2617541 62.102579,15.2617541 C62.102579,15.2617541 61.10854,15.2985572 59.9602536,14.9202553 C59.7802982,14.862055 59.5832043,14.9168317 59.4632341,15.0597648 C58.6748583,15.9781312 57.8093588,16.4591394 57.8093588,16.4591394 C57.8093588,16.4591394 57.7665123,15.4697345 58.1435616,14.3211347 C58.2035467,14.1422543 58.1521309,13.9454004 58.0064528,13.8230086" id="Fill-769" fill="#F7F7F6"></path>
                    <path d="M55.598479,40.6002776 C54.9643506,40.0576454 54.6301479,39.4619484 54.6301479,39.4619484 C54.6301479,39.4619484 55.315692,39.4362718 56.1040678,39.6964613 C56.2326073,39.7375438 56.3697161,39.6998848 56.4554091,39.600602 C56.9952752,38.9681018 57.5951263,38.6368737 57.5951263,38.6368737 C57.5951263,38.6368737 57.6208342,39.3181594 57.3551858,40.1098545 C57.3123393,40.2331022 57.3551858,40.3683323 57.4494481,40.4530651 C58.0835765,40.9948413 58.4177793,41.5913943 58.4177793,41.5913943 C58.4177793,41.5913943 57.7322351,41.6170709 56.9438593,41.3560255 C56.8153198,41.3157988 56.6867803,41.3534578 56.6010873,41.4518848 C56.052652,42.0852409 55.4613701,42.416469 55.4613701,42.416469 C55.4613701,42.416469 55.4356622,41.7351832 55.6927413,40.9434881 C55.7355878,40.8202404 55.7013106,40.6841545 55.598479,40.6002776" id="Fill-770" fill="#F7F7F6"></path>
                </g>
                <g id="Arm" transform="translate(69.816524, 107.665371)">
                    <path d="M41.7839156,0.479146537 L57.1058273,24.3301391 L87.8439129,19.6347451 C87.8439129,19.6347451 97.6643327,32.106725 95.4620222,49.4495556 C95.4620222,49.4495556 54.8692395,68.6539397 36.1281764,65.9835734 C24.5510497,64.3342799 0,21.7710381 0,21.7710381 C1.13114784,19.0809864 4.91020994,11.0322286 13.9851006,6.10060989 C27.2332412,-1.10937904 40.061486,-0.267186599 41.7839156,0.479146537" id="Fill-757" fill="#BB4748"></path>
                    <path d="M121.572685,14.7544795 C119.17328,11.8581592 113.766051,13.1034742 108.315975,15.5033803 C110.055543,12.0610043 112.823428,5.96794746 111.340938,4.80907697 C109.36143,3.2650575 95.0764036,22.0397865 93.4910828,24.1281499 C93.4053897,24.1914855 93.3454046,24.2351357 93.3454046,24.2351357 L93.3539739,24.3113096 L93.3454046,24.3258597 L93.3539739,24.3267156 L96.2332593,43.5815969 C96.2332593,43.5815969 114.648689,39.5837505 118.976186,36.1268244 C123.303684,32.6707543 123.732149,17.3572308 121.572685,14.7544795" id="Fill-758" fill="#EFADB1"></path>
                    <path d="M89.8234216,43.7305212 C89.8234216,43.7305212 91.5201433,50.3644984 96.6017393,49.6489772 C103.500027,48.6749782 103.174394,41.8912209 100.629311,37.4406104 C100.629311,37.4406104 100.39794,30.4437373 98.127075,25.7363608 C95.8476408,21.0298403 93.8509934,20.0823738 93.8509934,20.0823738 C93.8509934,20.0823738 91.7343759,12.4144855 85.3159688,17.2108742 C80.6885459,20.6669443 85.4702163,31.1207436 85.4702163,31.1207436 C85.4702163,31.1207436 84.724687,40.0245321 89.8234216,43.7305212" id="Fill-759" fill="#EEF3F7"></path>
                </g>
                <g id="Head" transform="translate(39.751740, -0.000000)">
                    <g id="Christmas/Stuffs/Beanie-3">
                        <path d="M21.9068088,28.5967024 C21.9068088,28.5967024 14.7257339,16.2822056 3.63705732,20.3699202 C-4.27240825,23.2876377 3.18288432,31.5905938 3.18288432,31.5905938 C3.18288432,31.5905938 -1.00750426,36.6129365 1.94890486,38.9674806 C7.8188766,43.6500363 21.6068832,32.9874008 21.6068832,32.9874008 L21.9068088,28.5967024" id="Fill-739" fill="#EEF3F7"></path>
                        <path d="M65.2074908,3.69382518 C65.2074908,3.69382518 40.7849807,12.4007598 15.951144,28.7636003 C14.9656743,29.4123624 14.8971199,30.8322783 15.8311738,31.5563583 C22.7208925,36.926191 48.0260407,54.8878277 76.1333506,53.0219949 C80.4254209,42.0639604 84.8193385,35.0436391 89.3151033,31.9610309 C94.8949331,28.1351124 105.614408,24.7926438 121.473527,21.933625 C121.473527,21.933625 107.034253,-10.7757941 65.2074908,3.69382518 Z" id="Fill-751" fill="#CF4D4D"></path>
                        <path d="M106.365847,11.8375864 C106.365847,11.8375864 116.331945,2.75748521 125.783885,7.99979078 C135.227256,13.2412405 130.556986,24.9403547 111.721661,33.6755336 C111.721661,33.6755336 99.6475148,49.1653698 83.9656925,44.5110583 C83.9656925,44.5110583 78.1471366,58.0837084 64.7447485,53.7974282 C54.0588292,50.3832964 55.104284,28.2252476 78.4813393,23.2422757 C78.4813393,23.2422757 88.2332048,7.00353875 106.365847,11.8375864" id="Fill-752" fill="#EEF3F7"></path>
                    </g>
                    <path d="M121.045061,27.1451187 C121.045061,27.1451187 122.510412,42.8694677 126.298043,47.9431637 C130.094244,53.0177155 120.548042,75.4744687 106.031645,77.2221892 C91.5066781,78.9699097 76.4932613,47.9337489 76.4932613,47.9337489 C76.4932613,47.9337489 90.5640549,18.9714014 121.045061,27.1451187" id="Fill-753" fill="#EFADB1"></path>
                    <path d="M95.4742648,51.0953941 C95.4999727,51.0988176 95.7313439,51.1219266 96.0912546,51.1219266 C96.785368,51.1210707 98.0107782,51.0380497 99.3647279,50.5219501 C100.710108,50.0101299 102.192597,49.0327073 103.272329,47.3106634 C103.589394,46.8108257 103.435146,46.1500812 102.938127,45.8359708 C102.441107,45.5210045 101.772702,45.6724964 101.464207,46.1723342 C100.650123,47.4535965 99.6132376,48.1314587 98.5934907,48.5243107 C97.5823131,48.9128832 96.6054127,48.9839218 96.0912546,48.98221 C95.9541457,48.98221 95.8513141,48.9779306 95.7827597,48.974507 L95.7142053,48.9693717 L95.705636,48.9676599 L95.6713588,49.3185735 L95.705636,48.9685158 L95.705636,48.9676599 L95.6713588,49.3185735 L95.705636,48.9685158 C95.1143542,48.9034684 94.5916267,49.3271323 94.5230723,49.9142706 C94.4630872,50.5014088 94.882983,51.0303467 95.4742648,51.0953941" id="Fill-754" fill="#181F1F"></path>
                    <path d="M117.50594,42.8874414 C117.514509,44.3963695 116.717564,45.622855 115.723525,45.6262857 C114.738055,45.6297021 113.932541,44.4092078 113.923972,42.9002797 C113.923972,41.3913515 114.720917,40.1657219 115.706386,40.1614353 C116.700425,40.1580189 117.50594,41.3785132 117.50594,42.8874414" id="Fill-755" fill="#181F1F"></path>
                    <path d="M109.699306,41.2398596 C109.64789,41.3288718 108.945207,42.4963012 108.936638,44.1772625 C108.936638,45.1281525 109.193717,46.2596347 109.956385,47.3080958 C110.779038,48.4293073 111.276057,49.7208402 111.258919,50.6914156 C111.258919,51.1108001 111.181795,51.4651371 111.027548,51.7638415 C110.8733,52.062546 110.650498,52.3210237 110.282018,52.5581043 C109.77643,52.8730706 109.630751,53.5338151 109.947816,54.0336529 C110.25631,54.5334907 110.924716,54.6832708 111.421736,54.3683045 C112.09871,53.9472083 112.612868,53.3780437 112.938502,52.734417 C113.264135,52.0907902 113.401244,51.3881073 113.401244,50.6914156 C113.392675,49.0703663 112.707131,47.4553083 111.695953,46.0516542 C111.224642,45.3969009 111.087533,44.7721037 111.078963,44.1772625 C111.078963,43.6577393 111.198934,43.1724516 111.327473,42.8275293 C111.387458,42.6546402 111.447443,42.5176983 111.49029,42.429542 L111.541706,42.3353945 L111.550275,42.3182768 L111.258919,42.1590818 L111.541706,42.3234121 L111.550275,42.3182768 L111.258919,42.1590818 L111.541706,42.3234121 C111.841631,41.8141595 111.670245,41.1585504 111.164656,40.8589901 C110.650498,40.5602856 109.999231,40.7297512 109.699306,41.2398596" id="Fill-756" fill="#181F1F"></path>
                    <path d="M77.9928891,44.2534364 C77.9928891,44.2534364 78.0119724,44.2745713 78.0486374,44.3157618 L78.1826059,44.4673471 C79.4852394,45.9501751 87.1274475,54.8786137 89.5700159,62.9605504 C89.5700159,62.9605504 110.813315,43.6654423 114.635224,57.7832922 C114.635224,57.7832922 122.518981,44.7541301 130.454155,48.3052037 C138.389328,51.8571332 143.368093,83.9759905 121.165032,87.9079337 C121.165032,87.9079337 111.267488,123.767016 71.6173286,108.434663 C71.6173286,108.434663 30.4332641,129.739392 14.6229022,102.421203 C1.96604347,80.5464528 25.4287918,64.1322592 42.9872912,67.4608022 C42.9872912,67.4608022 50.5882619,55.7223172 68.1381921,56.5859068 C70.8118142,56.7168574 73.4425899,57.309131 75.944826,58.2557416 L75.4649451,48.7853561 L77.9928891,44.2534364 Z M98.4392433,35.1699117 C99.6903613,35.9633186 100.6844,38.4573722 96.9310461,40.4550116 C96.8394205,40.5036984 96.7478171,40.5523073 96.6562632,40.6008133 L96.1077534,40.8904154 C91.6366881,43.2421532 87.41599,45.2269087 86.6650226,43.9042347 C85.8595082,42.5014365 87.5733686,38.6944528 91.2667376,36.5906835 C94.968676,34.48777 97.0767243,34.3037544 98.4392433,35.1699117 Z M123.898639,33.8509904 C124.079913,35.3924093 119.317358,36.3213501 114.212295,37.1057542 L113.598338,37.1992189 L113.598338,37.1992189 C109.390811,37.8342867 108.696698,35.2383826 109.227994,33.8561257 C109.802137,32.3480535 111.61026,31.2405362 115.826357,30.7261483 C120.051022,30.2117605 123.701545,32.2487706 123.898639,33.8509904 Z" id="Combined-Shape" fill="#EEF3F7"></path>
                    <path d="M104.069275,63.7359836 C104.103552,63.8113017 104.643418,64.9530544 105.868828,66.1273309 C106.477248,66.7127573 107.265624,67.3050309 108.251094,67.7526596 C109.236564,68.2002883 110.410558,68.4972809 111.764508,68.4964269 C112.450052,68.4964269 113.178442,68.4202511 113.958249,68.2533533 C114.532392,68.1292497 114.900872,67.5600851 114.780902,66.9823616 C114.652362,66.4046381 114.078219,66.0374628 113.504076,66.1615663 C112.869948,66.2985082 112.295804,66.3567085 111.764508,66.3567085 C110.727622,66.3558526 109.862123,66.134178 109.142301,65.8046616 C108.054,65.3116709 107.257055,64.555923 106.734327,63.9174316 C106.477248,63.5998977 106.288724,63.3131757 106.168753,63.1128982 C106.108768,63.0127595 106.065922,62.9348738 106.040214,62.8843765 L106.005937,62.8321674 L106.005937,62.8236085 L105.637457,63.0024888 L106.005937,62.8278879 L106.005937,62.8236085 L105.637457,63.0024888 L106.005937,62.8278879 C105.757427,62.2929588 105.114729,62.0627253 104.583433,62.3135001 C104.043567,62.5642749 103.820765,63.2010545 104.069275,63.7359836" id="Fill-763" fill="#181F1F"></path>
                    <path d="M52.1650135,81.2328739 C52.1478749,81.2953536 51.9165037,82.251379 51.9165037,83.7046745 C51.9165037,84.8798068 52.0707512,86.3827437 52.6363251,87.9909547 C53.484686,90.4019873 55.3013779,93.0346946 58.7719452,94.986972 C62.2339431,96.9443847 67.2984005,98.2479 74.7022772,98.2487559 L74.9336484,98.2487559 C75.5249302,98.2479 75.9962418,97.7686035 75.9962418,97.1771858 C75.9962418,96.5866241 75.5163609,96.1081834 74.9250791,96.1090393 L74.7022772,96.1090393 C69.9291761,96.1098952 66.2529457,95.5458659 63.4336454,94.6608792 C59.2089796,93.3265519 56.9295453,91.310083 55.6355807,89.2936141 C54.3501854,87.2754335 54.0588292,85.1887819 54.0588292,83.7046745 C54.0588292,83.0952832 54.1016757,82.591166 54.1530915,82.2479554 C54.1787994,82.0759222 54.2045073,81.9449716 54.2216459,81.8602388 L54.2387845,81.7686589 L54.2473538,81.7506853 L54.0845371,81.7138822 L54.2387845,81.7523971 L54.2473538,81.7506853 L54.0845371,81.7138822 L54.2387845,81.7523971 C54.3844626,81.1798089 54.0416906,80.5986619 53.4675474,80.454873 C52.8934041,80.311084 52.3106916,80.6594299 52.1650135,81.2328739" id="Fill-764" fill="#FFFFFF"></path>
                </g>
            </g>
            <path d="M381.265376,263.631728 C381.265376,263.631728 404.359645,252.556555 424.797429,258.171172 C450.265394,265.163765 454.704293,246.10317 433.520979,244.870694 C433.520979,244.870694 437.822768,239.564196 428.825001,238.237572 C419.827234,236.910948 403.211358,246.882027 403.211358,246.882027 C403.211358,246.882027 399.106663,244.271573 394.924843,246.197318 C386.509789,250.091602 381.265376,263.631728 381.265376,263.631728" id="Snow" fill="#D1DADF"></path>
        </g>
    </g>
</svg>