<?xml version="1.0" encoding="UTF-8"?>
<svg width="375px" height="187px" viewBox="0 0 375 187" version="1.1" xmlns="http://www.w3.org/2000/svg" xmlns:xlink="http://www.w3.org/1999/xlink">
    <title>decoration-5</title>
    <g id="decoration-5" stroke="none" stroke-width="1" fill="none" fill-rule="evenodd">
        <g id="Group" transform="translate(80.018690, 13.496751)" fill-rule="nonzero">
            <g>
                <path d="M125.818068,0.656044825 C130.013749,0.247542686 134.011777,0.648359794 137.582823,2.20701344 C143.401925,4.7468753 147.357914,10.2315641 147.070839,16.94966 L147.051387,17.3107282 L147.024,17.662 L147.304,17.727 L147.650382,17.8012306 C153.142983,19.0005301 161.431146,21.9275922 168.045275,25.1947862 L168.660308,25.5020397 L169.247098,25.8019217 C174.091642,28.3063049 178.026625,30.9866511 180.961978,34.1414283 C185.161002,38.6543402 187.357873,44.314206 186.093124,50.1771513 L186.00768,50.5516485 L185.958,50.747 L186.193281,50.8771085 C192.605849,54.4654674 197.337484,59.2040484 199.415264,65.9252201 L199.54984,66.3762446 L199.673877,66.8234136 C201.042565,72.0414709 201.410718,76.5296697 200.662136,80.4527336 L200.566,80.921 L192.459065,214.945706 C192.155855,219.958313 188.887113,224.280514 184.196927,225.958966 L183.895638,226.062492 L183.240008,226.263353 L182.37241,226.514467 L181.304583,226.813205 L179.34058,227.34236 L178.201061,227.639961 C174.079949,228.70528 169.499449,229.766785 164.565033,230.756615 C154.201945,232.835423 143.665348,234.324514 133.317089,234.966904 C110.89715,236.360013 91.7075493,233.715799 76.9580054,225.355558 C73.5536084,223.4259 71.2554644,220.017451 70.7341599,216.152771 L70.6916821,215.800208 L68.445,194.637 L68.2280214,194.644329 L67.3811014,194.658603 L66.5309267,194.660835 C57.6132943,194.620032 49.5510389,192.547813 43.0035655,187.483438 C34.822495,181.181203 26.6628069,170.773017 21.5448694,159.098434 C17.8452453,150.659182 15.7800511,141.825309 15.6170389,132.838875 L15.6073375,131.995957 L15.607,131.416 L15.4171876,131.402007 C14.8741451,131.355073 14.3313631,131.281581 13.7894216,131.180104 L13.2477817,131.069244 L12.8149599,130.966909 C7.96630256,129.7512 3.95059883,126.299427 2.28468455,121.317858 C-0.0546781274,114.322482 2.63424096,107.813641 8.0358741,101.565752 C9.93863798,99.3648889 12.205076,97.554353 14.8196028,96.0364308 L15.395,95.71 L15.2572644,95.4936305 L14.9542538,94.9966956 C10.9610809,88.2946154 10.2668789,80.5414887 13.7880982,73.1536635 C18.7525061,62.688155 29.0082602,59.1559602 38.5983984,63.6277029 L38.9214009,63.7814688 L39.359,64 L39.5026608,63.7448327 C40.9121022,61.2633283 42.4941726,58.9831566 44.2196585,56.9830261 L44.6937794,56.4445382 L45.0539578,56.0499987 C51.17167,49.4531485 59.0494648,46.5281235 66.4075676,48.2042035 L66.804,48.299 L66.8587272,48.269499 C68.1643875,47.5654749 69.5936692,47.0056304 71.1505173,46.610827 L71.6741968,46.4853672 L72.407651,46.3280906 L72.698,46.26 L73.5459256,44.6218076 L73.8366903,44.0732584 C74.7156168,42.4467469 75.6316193,40.9480845 76.7564413,39.3667628 C79.1749134,35.9870374 82.2183306,33.3212331 85.6761529,31.2959727 C87.202921,30.4017385 88.7603219,29.6590733 90.3309934,29.0480474 L91.0049002,28.7941805 L91.304,28.688 L91.6472006,28.0114972 L92.1016132,27.137338 L92.5710503,26.2577733 L93.0555062,25.3737893 C96.2551634,19.6122527 99.8688053,14.5405182 104.091122,10.5155231 L104.645313,9.99653937 C110.411731,4.7106561 118.341568,1.38397562 125.818068,0.656044825 Z" id="Sticker" fill="#FFFFFF"></path>
                <g id="Cup" transform="translate(28.119173, 78.520966)">
                    <path d="M160.072699,0 L151.862699,135.68 C151.862699,135.68 129.552699,142.42 104.422699,143.98 C87.2026985,145.05 68.6226985,143.69 55.0026985,135.97 L51.4026985,102.05 L51.4017187,102.040242 C46.3807704,103.280362 31.5621098,106.059545 22.5126985,99.06 C11.4526985,90.54 -6.83730149,65.63 2.63269851,36.9 C9.86269851,14.98 32.8826985,21.76 43.3926985,26.17 L43.3926985,26.17 L40.7926985,1.59 L160.072699,0 Z M45.2726985,43.98 C40.6026985,41.35 19.2026985,30.52 13.0426985,47.32 C6.10269851,66.25 25.3326985,89.28 35.7426985,91.19 C44.0126985,92.68 48.7226985,91.8 50.3026985,91.39 L50.3026985,91.39 Z" fill="#F43543"></path>
                    <path d="M160.072699,0 L151.862699,135.68 C151.862699,135.68 129.552699,142.42 104.422699,143.98 C110.032699,138.34 114.572699,132.18 118.172699,125.66 C146.972699,73.94 118.432699,0.94 118.432699,0.94 L160.072699,0 Z" id="Shadow" fill="#601706" opacity="0.32"></path>
                </g>
                <g id="Cream" transform="translate(68.285508, 13.000000)">
                    <path d="M118.646363,67.7309661 C118.646363,67.7309661 117.126363,67.8609661 114.466363,68.0909661 C96.6963628,69.5809661 27.3963628,74.9309661 6.44636276,70.0009661 C3.36636276,69.2909661 1.32636276,68.3509661 0.64636276,67.1109661 C0.64636276,67.1109661 -2.82363724,47.5209661 6.31636276,45.6409661 C15.4663628,43.7609661 13.9063628,40.2909661 18.6363628,33.6409661 C23.3663628,27.0209661 31.8663628,26.3809661 31.8663628,26.3809661 C31.8663628,26.3809661 36.9263628,13.4709661 44.8063628,6.21096613 C52.7163628,-1.04903387 66.8863628,-1.98903387 66.2763628,3.68096613 C66.1163628,5.01096613 66.1763628,6.37096613 66.4663628,7.67096613 C67.1463628,10.9509661 69.2263628,13.9609661 72.7863628,15.7109661 C73.8563628,16.2609661 75.0263628,16.6509661 76.3563628,16.9409661 C83.9463628,18.5009661 109.496363,27.6409661 105.086363,35.8509661 C100.646363,44.0509661 98.7663628,44.0509661 98.7663628,44.0509661 C98.7663628,44.0509661 116.766363,47.5209661 119.296363,56.9909661 C121.786363,66.4609661 118.646363,67.7309661 118.646363,67.7309661 Z" fill="#FAE8C2"></path>
                    <path d="M66.2763628,3.67096613 C66.1063628,5.01096613 66.1763628,6.37096613 66.4663628,7.67096613 C65.1063628,6.47096613 63.5763628,5.43096613 61.8663628,4.62096613 C61.8663628,4.62096613 41.6663628,15.6809661 40.3963628,25.1509661 C39.1263628,34.5909661 24.3163628,45.0309661 20.1963628,47.8509661 C16.1063628,50.7009661 10.1163628,59.5209661 10.7563628,66.4609661 C10.9463628,68.7009661 9.06636276,69.7009661 6.44636276,69.9909661 C3.36636276,69.2809661 1.32636276,68.3409661 0.64636276,67.1009661 C0.64636276,67.1009661 -2.82363724,47.5109661 6.31636276,45.6309661 C15.4663628,43.7509661 13.9063628,40.2809661 18.6363628,33.6309661 C23.3663628,27.0109661 31.8663628,26.3709661 31.8663628,26.3709661 L31.8982338,26.2908992 C32.3376113,25.1957831 37.2886616,13.127173 44.8063628,6.20096613 C52.7163628,-1.05903387 66.8863628,-1.99903387 66.2763628,3.67096613 Z M72.8063628,15.7309661 C73.8763628,16.2809661 75.0463628,16.6709661 76.3763628,16.9609661 C83.9663628,18.5209661 109.516363,27.6609661 105.106363,35.8709661 C100.862245,43.7092014 98.9572278,44.0550059 98.7973987,44.070262 L98.7863628,44.0709661 L98.7863628,44.0709661 C98.7863628,44.0709661 116.786363,47.5409661 119.316363,57.0109661 C121.786363,66.4609661 118.646363,67.7309661 118.646363,67.7309661 C118.646363,67.7309661 117.126363,67.8609661 114.466363,68.0909661 C110.736363,63.9709661 101.296363,54.2809661 93.4263628,51.3309661 C83.3063628,47.5409661 86.4863628,42.8009661 81.1063628,33.3709661 C78.1263628,28.1209661 76.0463628,21.5009661 72.8063628,15.7309661 Z M50.1942705,57.5368141 L51.5326522,57.5705363 L52.166192,57.58752 L52.166192,57.58752 L53.4305567,57.6233856 C60.7911565,57.8398706 67.8414993,58.1822319 71.9463628,58.5809661 C72.2457505,58.6097416 72.5460285,58.636165 72.8467441,58.6604256 L73.4486246,58.706119 L74.0508671,58.7463816 C76.4594885,58.8970188 78.8574858,58.9253927 81.0130861,58.9284425 L82.0696135,58.9283058 C82.1557953,58.9281933 82.2414892,58.928065 82.3266784,58.9279277 L82.8316239,58.9270533 L82.9558735,58.9268408 L82.9558735,58.9268408 L84.2657419,58.926514 C88.3719937,58.9356433 90.6155464,59.0823947 88.3563628,60.4709661 C86.895732,61.3700892 78.5430071,61.6705587 68.3813516,61.6843215 L66.9849363,61.6844504 C64.3278875,61.6814479 61.5661539,61.6603645 58.7866015,61.626531 L57.8049845,61.614069 L57.8049845,61.614069 L56.331641,61.5935047 L56.331641,61.5935047 L54.5098175,61.5651686 L54.0506621,61.5575445 L54.0506621,61.5575445 L53.1341658,61.5417687 L53.1341658,61.5417687 L52.2206726,61.5253253 C38.2403846,61.2682938 25.5663628,60.7909661 25.5663628,60.7909661 C20.2063628,58.8909661 20.5263628,58.2609661 28.0863628,57.6309661 C30.1320033,57.4609459 33.5556188,57.3826935 37.6566935,57.377733 L38.6148023,57.3778809 C42.169625,57.3831321 46.1709113,57.4398409 50.1942705,57.5368141 Z M53.3363628,52.9009661 C51.1263628,54.8009661 44.1863628,51.9609661 35.6663628,51.6409661 C27.1463628,51.3309661 23.6763628,54.8009661 21.7863628,52.5909661 C19.8963628,50.3809661 28.7263628,48.8009661 28.7263628,48.8009661 C37.8763628,47.8509661 55.5463628,51.0109661 53.3363628,52.9009661 Z M54.9063628,29.8709661 C55.5506809,29.8709661 62.0550521,30.9430865 68.5947247,32.4548415 L69.4663789,32.6589586 C75.4171233,34.0708021 81.1822719,35.8242616 82.3563628,37.4409661 C83.5404028,39.0649261 73.8039061,39.7908877 63.109162,40.1036912 L62.1195234,40.131406 C61.7889301,40.1402626 61.4577198,40.1487421 61.1261827,40.1568587 L60.1308813,40.1801339 C59.1351798,40.2023486 58.139149,40.2214242 57.1506245,40.2377421 L56.1648923,40.2531549 C52.7256183,40.3039813 49.4102916,40.3225827 46.5548639,40.3253092 L44.912144,40.3251849 C40.852769,40.3207137 38.0199769,40.2868195 37.6081826,40.2816315 L37.5621717,40.2810425 C37.5583076,40.280992 37.5563628,40.2809661 37.5563628,40.2809661 C37.5563628,40.2809661 45.1288628,39.4909661 53.2926128,38.5434661 L54.274654,38.4290506 L54.7669653,38.3713517 L54.7669653,38.3713517 L55.752494,38.2551236 C59.694344,37.7882396 63.61157,37.2996404 66.7321016,36.8592755 L67.4951899,36.7502296 C69.8562468,36.4083561 71.6776628,36.1003661 72.5763628,35.8609661 C74.7626739,35.2785661 70.883479,33.9548028 66.2033269,32.6994547 L65.6990569,32.5652518 C65.2766776,32.4536957 64.849412,32.3429155 64.4210072,32.2334877 L63.7977966,32.0754149 L63.1755397,31.9196413 C58.6220748,30.7866941 54.3519628,29.8709661 54.9063628,29.8709661 Z M56.4863628,14.0909661 C56.4863628,14.0909661 60.5963628,14.4109661 57.4363628,16.6109661 C54.2863628,18.8209661 52.3963628,23.5509661 49.8663628,27.0209661 C47.3363628,30.4909661 41.9763628,30.1809661 43.2363628,28.6009661 C44.4963628,27.0209661 48.2863628,23.5509661 50.1763628,21.0309661 C50.7393415,20.2803278 51.5268019,19.3611065 52.3550582,18.4403371 L52.7119874,18.0461138 C54.2051368,16.4071803 55.7446994,14.8394014 56.2847242,14.2939154 L56.4341457,14.143347 L56.4498917,14.127532 L56.4498917,14.127532 L56.4863628,14.0909661 Z" id="Shadow" fill="#E8BA97" opacity="0.36"></path>
                    <path d="M65.1742765,1.88257593 C66.8081503,2.61596246 67.5381395,4.53500612 66.804753,6.16887991 C66.5801661,6.66922537 66.1678837,7.37399712 65.5276234,8.20931744 C64.5339535,9.50571599 63.2350461,10.7784286 61.5971767,11.9468938 C58.6133639,14.0755623 54.8271312,15.6324026 50.1796179,16.4261456 L49.6604915,16.51 L50.2333826,16.6880912 L51.0458447,16.9278669 C51.324362,17.0080646 51.6105394,17.088521 51.9042668,17.1691947 L52.8079892,17.4118268 L53.756352,17.6555153 L54.7486954,17.9000126 L55.7843595,18.1450707 L56.8626844,18.3904419 C57.0459236,18.4313494 57.2309129,18.4722597 57.4176385,18.5131675 L58.5587176,18.7585437 C58.7523333,18.7994211 58.9476579,18.8402857 59.1446775,18.8811324 L60.9632496,19.2481291 C61.1703158,19.2888217 61.3790359,19.329481 61.589396,19.3701016 L62.8711277,19.6133213 L64.1915611,19.8553672 L65.5500365,20.0959917 L66.9458941,20.3349468 L70.0892527,20.8509808 L71.1750279,21.0368848 L72.2370623,21.2269 L73.2751354,21.4210681 C73.4461386,21.4537778 73.6161343,21.4866623 73.7851178,21.5197225 L74.7868364,21.720198 L75.7640435,21.9249305 L76.7165188,22.1339617 L77.6440421,22.3473332 C77.7965378,22.3832591 77.9479846,22.4193676 78.098378,22.4556595 L78.9880605,22.6756195 L79.8522407,22.9000239 C80.1360259,22.9755708 80.4155239,23.0518653 80.6906982,23.1289144 L81.503213,23.3623325 C81.769703,23.4408978 82.0318325,23.5202246 82.2895648,23.60032 L83.0495334,23.8429184 C83.173984,23.883738 83.2973262,23.9247515 83.4195552,23.9659597 L84.1395363,24.2155527 L84.8325838,24.4698607 C85.0590862,24.5554206 85.281063,24.6417732 85.4984775,24.7289255 L86.1369971,24.9927886 C89.6772999,26.501687 91.8884839,28.2437122 92.5902554,30.2529627 C93.2745338,32.2121289 92.6255989,34.1518713 91.0772692,35.5162801 C90.025281,36.4433063 88.564072,37.1290416 86.670895,37.6754512 C85.6740095,37.9631727 84.5331432,38.2169777 83.2516589,38.4361669 L82.3765405,38.5771571 C81.0327253,38.780927 79.5490392,38.9499258 77.928845,39.0834542 L76.828529,39.1672106 C76.6417847,39.1802916 76.4533644,39.1929328 76.2632726,39.2051332 L75.1027015,39.2730387 C74.7091832,39.2939056 74.3090161,39.3130017 73.902237,39.3303193 L72.6621006,39.376929 C72.4521175,39.3838055 72.2404907,39.3902355 72.0272247,39.3962179 L67.1595725,39.5168164 L63.1587357,39.6256425 L60.1130806,39.7167537 L57.201171,39.811937 L53.0759112,39.9633 L50.4820289,40.070569 L47.4089399,40.2125764 L44.517115,40.3641789 L42.3292644,40.492941 L40.2490214,40.6288239 L38.7572104,40.735671 L37.3222531,40.8469524 L35.9425741,40.9628517 L34.186268,41.124885 L32.7932844,41.2668734 L31.7360344,41.3848824 L31.0104915,41.471 L31.4613047,41.5480504 L32.4107771,41.6990708 L33.4193989,41.8480209 L34.4882409,41.9951189 L35.6183739,42.1405826 L37.2224102,42.3323688 L38.93985,42.5221538 L40.7732314,42.7104544 L42.2258809,42.8510164 L43.7462462,42.991252 L45.8805859,43.1781018 L48.7243434,43.4121801 L52.401284,43.6951628 L54.3504293,43.8380172 L59.1927733,44.1763852 L73.7723,45.1485973 L77.3973653,45.4068315 L81.0296385,45.6843599 L83.8226077,45.9179785 L85.9740301,46.1157556 L86.977293,46.2149454 L88.8605072,46.4160939 L90.324776,46.5885972 L90.8885866,46.6593273 C91.228595,46.7027488 91.5588497,46.7465233 91.8794835,46.7907235 L92.8126549,46.9246739 C93.1141795,46.9697982 93.4062159,47.0154209 93.6888968,47.0616148 L94.5090054,47.2019823 C94.6410567,47.2256867 94.7708022,47.249552 94.8982586,47.2735874 L95.6356602,47.419913 C96.4642239,47.5931764 97.1822459,47.7756627 97.7954155,47.9704893 C98.9089859,48.3243116 99.7683209,48.7337955 100.465322,49.3601013 C101.887813,50.6383125 102.278371,52.6735106 101.147121,54.3757736 C100.484918,55.3722317 99.3656174,56.0738889 97.5911881,56.5843584 L97.1526452,56.7032533 C97.0022038,56.7416967 96.8474682,56.7789696 96.688337,56.8151249 L96.1976551,56.9202915 L95.6799913,57.0190714 C95.5914316,57.0350202 95.5017224,57.0507161 95.410851,57.0661658 L94.8515734,57.1559625 L94.2637929,57.2401682 L93.6469012,57.3191013 L93.0002898,57.39308 L92.3233505,57.4624226 L91.6154749,57.5274475 L90.8760546,57.5884729 L89.7064471,57.6732083 L88.0308861,57.7751616 L87.1419864,57.8221284 L84.7657599,57.9304032 L82.8357755,58.0035465 L81.3509769,58.0500879 L79.8099868,58.0905044 L78.2136776,58.1248667 L76.5629219,58.1532455 L74.8585922,58.1757117 L73.1015609,58.192336 L71.2927006,58.2031893 L69.4328837,58.2083422 L67.7988591,58.2083422 L65.4504526,58.2013189 L63.0325097,58.1864653 C62.6238082,58.1833384 62.2122722,58.1798876 61.7979331,58.1761154 L59.2785123,58.1496459 L56.6933242,58.1155853 L53.5865153,58.0662454 L49.9559191,57.997975 C49.3455073,57.98559 48.7325406,57.9727094 48.1171711,57.9593447 L44.3973383,57.8734413 L40.62714,57.7764773 L36.8138767,57.6690085 L32.9648489,57.5515909 L27.4720955,57.3694935 L24.0194229,57.2465033 L18.5347052,57.0373542 L12.1684088,56.7703391 C10.3793525,56.6886263 8.99527706,55.1720684 9.0769898,53.3830121 C9.15588486,51.6556474 10.5723764,50.3058154 12.2802617,50.2883254 L12.6475697,50.299847 L17.744274,50.5150211 L22.0279807,50.6824208 L26.5379514,50.8473411 L31.2412173,51.0072912 L35.0894306,51.1289716 L38.9052611,51.2410121 L42.6813405,51.3428587 L46.4103001,51.4339571 C47.0274573,51.4482138 47.6423442,51.4619994 48.2548073,51.4753026 L51.8992714,51.5492398 L55.4781945,51.6110433 L57.745131,51.6441537 L61.0525901,51.68317 L64.245298,51.7091802 L66.3082321,51.7191686 L68.317485,51.7231873 L70.2719845,51.7211607 L72.1706583,51.7130131 L74.4034915,51.694 L57.4822165,50.5604057 L52.4940977,50.2072093 L48.4970215,49.9040341 L45.332311,49.6461243 L42.3991082,49.3880085 L41.0164377,49.2582782 L39.2573242,49.0840723 L37.9998287,48.9521852 L36.4034274,48.7742394 L34.8962441,48.5933806 L33.475544,48.4090445 L32.4651283,48.268171 L31.1891929,48.0763918 L30.2842099,47.9292879 L29.4224894,47.7791171 L28.871474,47.6771818 L28.0792938,47.5213705 L27.5735703,47.4154544 L26.8477255,47.2533412 L26.3851573,47.1430034 L25.7224428,46.9739271 L25.0960683,46.8003555 L24.6981044,46.6820261 L24.3154369,46.5615225 L23.7693686,46.3765361 L23.4234465,46.2502883 L23.0916243,46.1216194 C20.8342689,45.2183195 19.4264778,44.3138553 18.6897689,42.8333057 C17.4025696,40.2464459 18.8425758,38.1819008 21.125792,37.0695328 C22.0462364,36.6210983 23.2863075,36.2341636 24.8655089,35.8919158 L25.5631294,35.7479251 C25.6828789,35.7243663 25.8043729,35.7010232 25.9276186,35.6778898 L26.688168,35.5415554 L27.4910965,35.4099576 L28.3367453,35.2828023 L29.2254554,35.1597953 L30.1575682,35.0406427 L31.1334248,34.9250502 L32.1533662,34.8127237 L33.9865286,34.6286956 L35.3436561,34.5049398 L37.2347704,34.3477467 L38.7165191,34.2354581 L40.7799683,34.0928415 L42.947438,33.9579142 L45.8091958,33.7993587 L49.4772496,33.6227104 L52.7381536,33.4857848 L57.6311515,33.3079582 L62.144213,33.1667113 L66.140472,33.0556857 L71.8072306,32.9143228 L72.9335542,32.8780541 L74.0225918,32.8329927 C74.2009686,32.8247585 74.3777751,32.8161646 74.553003,32.8072143 L75.5853597,32.7492613 C75.7542396,32.7388984 75.9215241,32.7281856 76.0872049,32.7171263 L77.0619785,32.6466386 C77.2212111,32.6342064 77.3788232,32.6214343 77.5348066,32.6083255 L78.4510948,32.5256601 C78.7499646,32.4967761 79.0422525,32.466572 79.3278916,32.4350743 L80.164796,32.336727 C80.4370708,32.3026685 80.70263,32.2673429 80.9614069,32.2307766 L81.7173234,32.1173818 L82.4321445,31.9967012 C83.2419743,31.8517189 83.9670823,31.6921852 84.6046031,31.5192338 L84.7474915,31.479 L84.5545712,31.3862931 C84.0186454,31.1326061 83.4014646,30.8728944 82.7082663,30.6116953 L82.3553566,30.4809928 C79.6550703,29.4978099 76.0731162,28.5646351 71.7907125,27.7454906 L70.5482653,27.5146075 C70.3380663,27.4766625 70.1263182,27.43899 69.9130404,27.4015968 L68.6151747,27.1806444 L66.6637285,26.8630224 L64.7803581,26.5452516 L63.5586291,26.3314253 L62.3642941,26.1160993 L61.1976214,25.8993454 L60.0588791,25.6812354 L58.9483357,25.4618411 L57.8662593,25.2412342 L56.8129182,25.0194865 L55.7885807,24.7966698 L54.793515,24.5728557 L53.8279894,24.3481162 L52.8922722,24.1225228 L51.9866317,23.8961475 L51.111336,23.6690619 L50.2666535,23.4413379 L49.4528524,23.2130471 L48.670201,22.9842614 L47.9189676,22.7550525 L47.1994204,22.5254922 L46.5118277,22.2956522 L45.8564577,22.0656044 L45.2335788,21.8354203 C44.9303067,21.7203063 44.6393195,21.605168 44.3607678,21.490046 L43.82029,21.2598356 C43.2964825,21.0296708 42.8228199,20.7996785 42.4005094,20.5701817 C41.0900544,19.8580392 40.1248989,19.0952218 39.4966344,18.1038228 C38.4443728,16.443358 38.6114791,14.4258389 39.956512,12.9738501 C41.3015398,11.5218667 43.6280572,10.7807462 47.2551436,10.2961473 L47.6635215,10.2433356 C52.0467653,9.69456177 55.3758621,8.4184763 57.8306342,6.6672283 C58.9316228,5.88177688 59.7692851,5.06100755 60.3802375,4.26392412 L60.4817353,4.12926099 L60.6494346,3.89511558 L60.7717211,3.71148226 L60.850574,3.58268614 L60.8879726,3.51305234 C61.6213591,1.87917855 63.5404028,1.1491894 65.1742765,1.88257593 Z" id="Path" fill="#601706"></path>
                </g>
                <g id="Print" transform="translate(90.916050, 89.788016)" fill="#FFFFFF">
                    <path d="M65.0805238,100.051755 C67.5259575,96.9368218 71.6498078,98.1560294 74.6595843,101.746347 C77.5702969,105.218492 78.7157938,109.905765 76.9822081,113.713068 C73.0688394,122.334902 53.6722891,119.540786 47.758711,109.401083 L47.5836685,109.091575 C45.5953276,105.459885 42.3314711,104.851807 37.4125349,106.77997 C35.0198784,107.717862 32.6150185,109.058812 29.7244164,111.023403 L28.9236714,111.574829 L28.0967053,112.158173 L27.2413836,112.774431 L26.3555714,113.424595 L25.4371343,114.109662 L24.4839374,114.830625 L23.4938461,115.588478 C19.2460219,118.853249 14.5061665,118.928338 10.4618838,116.482879 C7.05861055,114.42502 4.67111934,110.786103 5.12641769,108.047086 C5.50704853,105.757259 6.99357137,104.470414 9.0020962,104.206099 C9.85211279,104.09424 10.7120922,104.169594 11.5452417,104.358361 C11.8839083,104.435093 12.1495259,104.51471 12.321578,104.576213 C13.1647715,104.877626 13.6039713,105.805513 13.3025583,106.648706 C13.0178904,107.445056 12.1744233,107.881053 11.3712593,107.673122 L11.1225891,107.595866 L10.9425812,107.547853 C10.9071268,107.539091 10.8690937,107.530055 10.8287035,107.520904 C10.3383592,107.409807 9.84160949,107.36628 9.42517651,107.421081 C8.76575424,107.507858 8.45912292,107.773301 8.32522508,108.578814 C8.1252545,109.781811 9.75524369,112.266175 12.1397589,113.708021 C15.0815788,115.486853 18.3726323,115.434716 21.5170397,113.018004 L22.5465585,112.230001 L23.5382397,111.48007 L24.4944971,110.76711 L25.4177451,110.090021 C25.720261,109.87018 26.0176777,109.656135 26.3103975,109.447701 L27.1748687,108.839052 L28.0135725,108.262971 L28.8289233,107.718359 C31.5105193,105.954212 33.8431311,104.696204 36.2291079,103.76093 C42.3975243,101.342986 47.3536817,102.204848 50.2757295,107.263583 L50.4276389,107.533712 C52.8023694,111.86671 58.385931,114.602678 63.5676229,115.392085 L64.1998618,115.478994 C68.7129933,116.031782 72.8031533,115.074545 74.0302359,112.371069 C75.1842229,109.83668 74.3505145,106.425218 72.1745585,103.829553 C70.2938022,101.586027 68.430989,101.03529 67.631119,102.054145 C66.3805511,103.647087 66.0528903,105.190081 66.4342031,106.117855 C66.6155388,106.559064 66.8187292,106.651981 67.2451069,106.397954 L67.3475553,106.333174 C68.0930157,105.837076 69.0994982,106.039223 69.5955969,106.784684 C70.0916955,107.530144 69.8895479,108.536627 69.1440875,109.032725 C66.9229483,110.510878 64.3990169,109.696247 63.4349397,107.350544 C62.5721181,105.251207 63.1555555,102.503732 65.0805238,100.051755 Z" id="Path"></path>
                    <path d="M0,25.1411325 L3.81909814,25.1411325 L3.81909814,36.6744289 L18.3354712,36.6744289 L18.3354712,25.1411325 L22.1545693,25.1411325 L22.1545693,53.0528498 L18.3354712,53.0528498 L18.3354712,39.9995144 L3.81909814,39.9995144 L3.81909814,53.0528498 L0,53.0528498 L0,25.1411325 Z M35.6259155,50.8487932 C37.8933071,50.8487932 39.4481804,49.9906045 40.2905354,48.274227 C41.1328904,46.5578496 41.5540679,44.6483005 41.5540679,42.5455798 C41.5540679,40.645531 41.2500601,39.1001579 40.6420444,37.9094607 C39.679353,36.0347458 38.0199771,35.0973884 35.6639165,35.0973884 C33.5738628,35.0973884 32.0538237,35.8954089 31.1037993,37.4914499 C30.1537749,39.0874909 29.6787627,41.0128738 29.6787627,43.2675984 C29.6787627,45.433654 30.1537749,47.2387004 31.1037993,48.6827375 C32.0538237,50.1267746 33.5611958,50.8487932 35.6259155,50.8487932 Z M35.7589189,32.1143117 C38.3809863,32.1143117 40.59771,32.9883342 42.4090898,34.7363791 C44.2204697,36.484424 45.1261597,39.0558235 45.1261597,42.4505774 C45.1261597,45.7313283 44.3281392,48.4420647 42.7320981,50.5827864 C41.1360571,52.723508 38.6596602,53.7938689 35.3029072,53.7938689 C32.503502,53.7938689 30.2804448,52.8470112 28.6337358,50.9532959 C26.9870269,49.0595805 26.1636724,46.5166819 26.1636724,43.3245998 C26.1636724,39.9045119 27.0313613,37.1811086 28.7667393,35.1543899 C30.5021172,33.1276711 32.8328438,32.1143117 35.7589189,32.1143117 Z M60.5545562,25.1411325 L64.3736543,25.1411325 L64.3736543,36.6744289 L78.8900273,36.6744289 L78.8900273,25.1411325 L82.7091255,25.1411325 L82.7091255,53.0528498 L78.8900273,53.0528498 L78.8900273,39.9995144 L64.3736543,39.9995144 L64.3736543,53.0528498 L60.5545562,53.0528498 L60.5545562,25.1411325 Z M96.1804717,50.8487932 C98.4478633,50.8487932 100.002737,49.9906045 100.845092,48.274227 C101.687447,46.5578496 102.108624,44.6483005 102.108624,42.5455798 C102.108624,40.645531 101.804616,39.1001579 101.196601,37.9094607 C100.233909,36.0347458 98.5745332,35.0973884 96.2184727,35.0973884 C94.1284189,35.0973884 92.6083799,35.8954089 91.6583555,37.4914499 C90.7083311,39.0874909 90.2333188,41.0128738 90.2333188,43.2675984 C90.2333188,45.433654 90.7083311,47.2387004 91.6583555,48.6827375 C92.6083799,50.1267746 94.115752,50.8487932 96.1804717,50.8487932 Z M96.3134751,32.1143117 C98.9355425,32.1143117 101.152266,32.9883342 102.963646,34.7363791 C104.775026,36.484424 105.680716,39.0558235 105.680716,42.4505774 C105.680716,45.7313283 104.882695,48.4420647 103.286654,50.5827864 C101.690613,52.723508 99.2142163,53.7938689 95.8574634,53.7938689 C93.0580581,53.7938689 90.835001,52.8470112 89.188292,50.9532959 C87.541583,49.0595805 86.7182285,46.5166819 86.7182285,43.3245998 C86.7182285,39.9045119 87.5859175,37.1811086 89.3212954,35.1543899 C91.0566733,33.1276711 93.3873999,32.1143117 96.3134751,32.1143117 Z" id="Ho-Ho"></path>
                    <path d="M0,64.8411325 L3.81909814,64.8411325 L3.81909814,76.3744289 L18.3354712,76.3744289 L18.3354712,64.8411325 L22.1545693,64.8411325 L22.1545693,92.7528498 L18.3354712,92.7528498 L18.3354712,79.6995144 L3.81909814,79.6995144 L3.81909814,92.7528498 L0,92.7528498 L0,64.8411325 Z M35.6259155,90.5487932 C37.8933071,90.5487932 39.4481804,89.6906045 40.2905354,87.974227 C41.1328904,86.2578496 41.5540679,84.3483005 41.5540679,82.2455798 C41.5540679,80.345531 41.2500601,78.8001579 40.6420444,77.6094607 C39.679353,75.7347458 38.0199771,74.7973884 35.6639165,74.7973884 C33.5738628,74.7973884 32.0538237,75.5954089 31.1037993,77.1914499 C30.1537749,78.7874909 29.6787627,80.7128738 29.6787627,82.9675984 C29.6787627,85.133654 30.1537749,86.9387004 31.1037993,88.3827375 C32.0538237,89.8267746 33.5611958,90.5487932 35.6259155,90.5487932 Z M35.7589189,71.8143117 C38.3809863,71.8143117 40.59771,72.6883342 42.4090898,74.4363791 C44.2204697,76.184424 45.1261597,78.7558235 45.1261597,82.1505774 C45.1261597,85.4313283 44.3281392,88.1420647 42.7320981,90.2827864 C41.1360571,92.423508 38.6596602,93.4938689 35.3029072,93.4938689 C32.503502,93.4938689 30.2804448,92.5470112 28.6337358,90.6532959 C26.9870269,88.7595805 26.1636724,86.2166819 26.1636724,83.0245998 C26.1636724,79.6045119 27.0313613,76.8811086 28.7667393,74.8543899 C30.5021172,72.8276711 32.8328438,71.8143117 35.7589189,71.8143117 Z" id="Ho"></path>
                    <path d="M68.6348236,0.426421557 C72.0939465,-0.855717572 75.1358075,0.773119651 77.2756177,5.04709409 C79.2816849,9.05393556 78.6901362,13.7555203 76.2776785,16.8623447 C73.6314271,20.2702548 69.5923416,20.3843702 67.7173213,16.218392 C65.9284703,12.2438675 66.1122061,9.3931358 67.806575,7.7013582 C68.3561641,7.15260958 68.9287575,6.85752908 69.3976909,6.72914675 C70.2613555,6.49269679 71.1531745,7.00115471 71.3896245,7.8648193 C71.6260744,8.72848389 71.1176165,9.62030295 70.2539519,9.85675291 L70.2608664,9.85669327 L70.1482396,9.9484898 C70.1323335,9.96263066 70.1153637,9.9784654 70.0977548,9.99604735 C69.4811901,10.6116691 69.3895804,12.0330301 70.6743215,14.8875076 C71.426464,16.5586412 72.4300062,16.5302884 73.7164643,14.8735549 C75.3832493,12.7270267 75.807212,9.35740316 74.3760251,6.49880556 C72.9155876,3.58178403 71.4988302,2.82314735 69.7618192,3.4669781 C67.9881987,4.12437834 65.8271434,6.18717779 63.4658268,9.45107523 L62.9568334,10.1687915 C57.3097267,18.2872062 37.91696,16.5294199 32.3213055,7.82383381 L32.1559917,7.55790453 C30.6523854,5.05506607 26.050349,3.77338332 20.4042186,4.05773701 L19.6453943,4.10496133 C19.3905107,4.12381636 19.1337451,4.14579507 18.8752777,4.17092775 L18.0949509,4.25581793 C17.9641058,4.27155336 17.8328802,4.28808486 17.7012969,4.3054162 C17.340411,4.35294985 16.9839342,4.40582262 16.632488,4.46365234 L15.9364874,4.58580778 C15.1327417,4.73576903 14.358641,4.91133088 13.6220812,5.10763818 L13.000122,5.28086887 L12.3976551,5.46358115 C12.0027535,5.58839889 11.6215834,5.71908474 11.2556181,5.85473278 L10.7182579,6.06181324 C8.00271863,7.14978734 6.24466209,8.50859738 6.12987893,9.71655349 C5.94991812,11.6075702 6.89131982,12.3512347 9.17684614,12.49334 C9.99667411,12.5443138 10.8905625,12.492135 11.7862716,12.3672303 L12.408878,12.2690158 L12.7220122,12.2111344 L13.1837629,12.1121447 C13.2122653,12.1052826 13.238134,12.0988431 13.2612643,12.0928831 C14.1283882,11.8694524 15.0124574,12.3912689 15.2358881,13.2583928 C15.4593188,14.1255167 14.9375023,15.0095858 14.0703784,15.2330165 L13.6913889,15.3221124 L13.3620691,15.3900677 L12.9767087,15.4616187 C12.9080637,15.4736887 12.8372725,15.4857924 12.7644295,15.4978718 C11.4987389,15.7077588 10.2090673,15.8064815 8.97561597,15.7297902 C5.07592047,15.487322 2.51580765,13.4649494 2.90174201,9.40957577 C3.29945078,5.22416451 9.50276402,2.11456902 17.2778459,1.09048346 C25.1310677,0.0561057901 32.0788747,1.49947104 34.7918883,5.65844728 L34.935651,5.88799513 C39.1437752,12.8926574 55.9971726,14.4954929 60.2948094,8.31710814 C63.2033498,4.13572137 65.9492932,1.4218252 68.6348236,0.426421557 Z" id="Path"></path>
                </g>
                <path d="M68.9218712,64.3209661 C59.7818712,52.3209661 46.8418712,69.3809661 44.9618712,87.0509661 C44.9618712,87.0509661 31.3718712,65.2609661 25.0818712,78.5209661 C18.7618712,91.7809661 42.7518712,101.220966 42.7518712,101.220966 C42.7518712,101.220966 23.4918712,102.810966 17.4918712,109.750966 C11.4918712,116.690966 14.0218712,120.160966 19.0818712,118.600966 C24.1418712,117.010966 38.6318712,105.660966 44.3118712,105.950966 C49.9818712,106.270966 52.8418712,100.920966 52.8418712,100.920966 C52.8418712,100.920966 78.0718712,76.3209661 68.9218712,64.3209661 Z M32.0218712,84.2009661 C35.0718712,79.9209661 45.0218712,94.7109661 45.5418712,95.5209661 C44.6318712,95.1609661 28.9418712,88.4809661 32.0218712,84.2009661 Z M49.9918712,93.6709661 C49.9918712,93.6709661 53.4618712,66.5309661 59.1718712,73.7909661 C64.8418712,81.0509661 49.9918712,93.6709661 49.9918712,93.6709661 Z" id="Knot" fill="#32875D"></path>
            </g>
        </g>
        <g id="Group" transform="translate(260.762827, 46.000000)">
            <g id="Christmas/Stickers/Candy-Cane" transform="translate(56.333333, 95.333333) scale(-1, 1) translate(-56.333333, -95.333333) ">
                <path d="M62.3416986,0.365846319 C62.826506,0.322894951 63.3141442,0.322498584 63.7990208,0.364661765 L64.4563112,0.430544244 L64.9185007,0.483086078 C68.3700971,0.886781564 72.4762536,1.65545033 76.8998594,2.92984304 C83.5236013,4.83807099 89.6277219,7.54835562 94.8228679,11.2708844 C98.9238321,14.1899113 102.339487,17.6677469 104.915799,21.7600245 C111.489073,32.2003724 113.554175,42.6771583 110.889308,51.2299935 C109.027445,57.22933 104.893991,61.8846372 99.4241666,63.8196613 C97.5926098,64.474909 95.7503495,64.822577 93.9169696,64.8895498 C94.4451176,66.3205345 94.8455896,67.8447224 95.1441169,69.4523098 C95.6032752,71.9249043 95.7902051,74.4042593 95.7948896,76.7674143 L95.7927764,77.3106391 L95.79,77.4726667 L96.1075953,77.9954417 L96.3465826,78.3957189 C97.7010449,80.6808972 98.9266792,83.0255662 99.922597,85.3682852 C101.345993,88.7165699 102.217341,91.8345718 102.334639,94.8618922 C102.52983,99.8995596 100.534782,104.484378 95.9023014,107.058994 C92.9014402,108.725152 89.2552187,109.48652 84.8374884,109.669633 L85.231799,110.142957 L85.5898515,110.561119 L85.8071453,110.80787 L86.0064275,111.028035 L86.1869395,111.220789 L86.3479225,111.385302 L86.4886178,111.520749 L86.6082667,111.6263 C86.6264122,111.641355 86.6436491,111.65513 86.6599617,111.667607 L90.913295,114.92094 L91.0760411,115.048412 C96.2163155,119.171076 94.7155864,127.320574 88.5785132,129.41571 L88.3911242,129.477336 L88.3086667,129.502 L94.8113267,146.736272 L100.894703,162.818025 C101.764483,165.14111 102.210441,167.569731 102.210441,170 C102.210441,177.868271 97.6548188,185.096515 90.4281134,188.461392 L90.334,188.504 L90.1653788,188.58598 L89.9548944,188.681626 L89.742571,188.773052 L89.3584797,188.929379 C79.397614,192.893511 68.0381107,188.425813 63.4364004,178.73393 L63.2990315,178.438641 L58.0251588,166.850789 L50.9634142,151.328532 C50.4529555,150.999431 49.9655932,150.617793 49.5080687,150.184528 C48.2295814,148.973831 47.3740923,147.615078 46.7199574,146.047992 C40.6478041,149.024495 33.7387126,143.877101 34.8393145,137.216177 L35.0815112,135.885295 L35.3167905,134.555556 L35.5387064,133.266395 L35.7286057,132.137214 C25.4162446,136.980031 12.3473001,131.278976 11.0017088,119.216285 L10.2633333,112.668 L10.1577287,112.602831 C9.85412049,112.411743 9.55199746,112.213418 9.25185238,112.007583 L8.80317981,111.693163 L8.35784374,111.367272 C2.78638382,107.20079 -0.579824205,101.340045 0.53141356,94.0165157 C1.40541123,88.2564991 4.05892108,83.6639659 7.95898716,80.4328537 C10.7323695,78.1351722 13.8136465,76.7639379 16.7252354,76.1178752 C17.0336478,76.0494405 17.3910001,75.99028 17.8092186,75.9390977 C17.6886442,75.5017905 17.5690668,75.058104 17.4509145,74.6086152 C16.991336,72.8602334 16.5678234,71.0767343 16.1873079,69.264645 L15.9642137,68.1740127 L15.93,67.986 L15.8148119,67.3926911 C14.5596554,60.814968 13.950438,54.3191591 14.1703759,47.9882258 L14.2007601,47.2293105 L14.2376078,46.5000289 C15.01912,32.9538173 19.6581244,21.3837141 29.15493,12.9931138 C37.1986232,5.89116344 48.2608115,1.61333835 62.3416986,0.365846319 Z" id="Sticker" fill="#FFFFFF" fill-rule="nonzero"></path>
                <g id="Christmas/Stuffs/Candy-Cane-1" transform="translate(8.666667, 8.666667)">
                    <g id="Candy-Cane" transform="translate(13.743502, 0.000000)">
                        <path d="M1.67508985,57.8787337 L1.67508985,57.8920698 C3.46905715,66.933955 6.0736319,73.3552937 6.0736319,73.3552937 L9.42901519,80.7501688 L18.9038203,101.614519 L28.2191616,122.158802 L28.2191616,122.172138 L32.5911264,131.780808 L43.0094253,154.7656 L48.2650851,166.354683 C50.9294588,172.222573 57.7133129,174.9098 63.6068277,172.555976 C63.7729358,172.489295 63.9257552,172.429283 64.0785747,172.349266 C68.5103383,170.355517 71.1813563,165.981272 71.1813563,161.366977 C71.1813563,159.953348 70.9222277,158.513048 70.3973262,157.106088 C69.7926927,155.512423 69.141549,153.758724 68.4372508,151.898336 C66.5037527,146.777268 64.2048168,140.682664 61.7065512,134.041279 C59.832852,129.060241 57.8461994,123.77914 55.8263251,118.351342 C53.9526259,113.323627 52.0324164,108.162551 50.1254956,103.041483 C48.0258895,97.3669666 45.9329276,91.7324585 43.9462749,86.3313324 C41.3284115,79.2165157 38.8833006,72.5151186 36.7836944,66.6405605 C32.7107242,55.3048638 29.8868868,47.0764816 29.5148046,45.0693965 C29.3885625,44.3759185 29.3088306,43.7091128 29.255676,43.0623113 C28.9832588,39.9216565 29.5613149,37.2210935 30.8835353,34.9939625 C32.5379718,32.1667064 35.3950308,30.0796046 39.242094,28.7926696 C44.9562121,26.8856053 48.776698,29.3594544 52.2649678,33.413633 L52.2649678,33.4269691 C53.3679254,34.6872319 54.3911512,36.0741877 55.454243,37.5544963 C59.9391612,43.8158018 66.9289894,49.823721 73.9121732,47.3165316 C76.7293663,46.3163231 79.0681681,43.7757934 80.2043474,40.1016941 C81.8853612,34.6872319 80.9485116,26.7722484 75.1546617,17.5369896 C73.0882771,14.2429695 70.3508159,11.5690787 67.3077158,9.39529214 C57.5804264,2.40050048 44.7635267,0.493436209 41.3549888,0.0933527963 C40.7902214,0.0266722275 40.4845825,0 40.4845825,0 C27.4351314,1.1602419 18.3589858,5.09439546 12.1731207,10.5755382 C3.78798467,18.0104216 0.678441346,28.2658931 0.100385215,38.3213229 C-0.284985539,45.2627701 0.532266232,52.0908603 1.67508985,57.8787337 Z" id="Cane"></path>
                        <path d="M38.4979298,20.164204 C38.6640379,25.1785828 39.242094,28.7926696 39.242094,28.7926696 C44.9562121,26.8856053 48.776698,29.3594544 52.2649678,33.413633 C52.4709418,30.7397422 53.1353741,28.2192167 54.098801,25.8520565 C57.1485454,18.4571814 63.1749467,12.7026484 67.3143601,9.4019602 C57.5870708,2.40716853 44.770171,0.500104266 41.3616332,0.100020853 C38.7039038,6.27464152 38.3052444,14.1962931 38.4979298,20.164204 Z M0.100385215,38.3279909 C1.67508985,39.7949635 4.85772073,40.8085081 8.58518612,41.501986 C15.6082359,42.8289293 24.5315621,43.0356391 28.0264762,43.0556433 L29.255676,43.0556433 C28.9832588,39.9149885 29.5613149,37.2144254 30.8835353,34.9872945 C29.6676241,33.9604137 28.1792957,32.36008 26.5780137,30.4463477 C20.9104059,23.6916061 13.8342016,13.0960637 12.1731207,10.5755382 C3.78798467,18.0170897 0.678441346,28.2658931 0.100385215,38.3279909 Z M1.67508985,57.8920698 C3.46905715,66.933955 6.0736319,73.3552937 6.0736319,73.3552937 L9.42901519,80.7501688 C12.6581563,81.943751 16.5450855,83.0506484 20.5449681,83.9775083 C29.9931959,86.164631 40.1191447,87.3448771 43.9529193,86.3313324 C41.3350559,79.2165157 38.8899449,72.5151186 36.7903387,66.6405605 C31.8203848,65.7803811 20.9236946,63.7999682 12.0535229,61.4194719 C7.85431055,60.3125745 4.12020084,59.0989881 1.67508985,57.8920698 Z M18.9038203,101.614519 L28.2191616,122.158802 L28.2191616,122.172138 C31.0762206,122.33884 34.6375779,122.452197 38.2786671,122.378848 C45.4146704,122.225483 52.8363796,121.298623 55.8263251,118.351342 C53.9526259,113.323627 52.0324164,108.162551 50.1254956,103.041483 C45.6804433,103.234857 37.1159105,103.454902 29.0164804,102.888118 C25.4152571,102.6414 21.9136987,102.247984 18.9038203,101.614519 Z M32.5911264,131.780808 L43.0094253,154.7656 C45.9595049,154.638907 49.9660319,154.418861 54.0855124,154.058786 C59.420904,153.618694 64.9157594,152.938553 68.4438951,151.898336 C66.510397,146.777268 64.2114611,140.682664 61.7131956,134.041279 C56.6635098,134.054616 49.8464341,133.961263 43.7403009,133.487831 C39.3218259,133.154428 35.2820773,132.614315 32.5911264,131.780808 Z" id="Red" fill="#D91739" fill-rule="nonzero"></path>
                        <path d="M12.1664764,10.5688702 C12.1664764,10.5688702 7.37591927,22.9314476 8.5785418,41.495318 C8.96391255,47.5365775 9.98713835,54.2513108 12.0402343,61.4061358 C12.1199661,61.6995303 12.2063423,62.012929 12.2993629,62.3196596 C13.9338664,67.880819 16.8573687,75.4157233 20.5383238,83.9708403 C23.049878,89.8920748 25.946803,96.2934094 29.0098361,102.88145 C31.9864929,109.302788 35.1359022,115.890829 38.2786671,122.37218 C40.125789,126.132964 41.9463336,129.860408 43.7403009,133.487831 C47.421256,140.90271 50.9560361,147.910838 54.0855124,154.058786 C58.1319053,162.020446 61.5205102,168.52847 63.6068277,172.555976 C57.7133129,174.9098 50.9294588,172.222573 48.2650851,166.354683 L48.2650851,166.354683 L43.0094253,154.7656 L32.5911264,131.780808 L28.2191616,122.172138 L28.2191616,122.158802 L18.9038203,101.614519 L9.42901519,80.7501688 L6.0736319,73.3552937 C6.0736319,73.3552937 3.46905715,66.933955 1.67508985,57.8920698 L1.67508985,57.8920698 L1.67508985,57.8787337 C0.532266232,52.0908603 -0.284985539,45.2627701 0.0937408915,38.3146548 C0.671797022,28.2592251 3.78134035,18.0037536 12.1664764,10.5688702 Z M38.4912855,20.1575359 C44.8764802,18.8372607 49.8597227,21.6378446 54.0921567,25.8453885 C57.7332459,29.4461392 60.7962789,34.0937748 63.6799153,38.0546006 C69.593363,46.182962 78.1778288,41.4019652 80.2043474,40.1016941 C79.0681681,43.7757934 76.7293663,46.3163231 73.9121732,47.3165316 C66.9289894,49.823721 59.9391612,43.8158018 55.454243,37.5544963 C54.3911512,36.0741877 53.3679254,34.6872319 52.2649678,33.4269691 L52.2649678,33.4269691 L52.2649678,33.413633 C48.776698,29.3594544 44.9562121,26.8856053 39.242094,28.7926696 C35.3950308,30.0796046 32.5379718,32.1667064 30.8835353,34.9939625 C29.5613149,37.2210935 28.9832588,39.9216565 29.255676,43.0623113 C29.3088306,43.7091128 29.3885625,44.3759185 29.5148046,45.0693965 C29.0164804,44.6293047 28.4982232,43.9491629 28.0264762,43.0623113 C26.4517716,40.1417024 25.308948,35.1206556 26.5713694,30.4463477 C27.6012395,26.6388872 30.2124586,23.0514726 35.4946957,21.0310514 C36.5179214,20.630968 37.5145699,20.3509096 38.4912855,20.1575359 Z" id="Shadow" fill="#512202" fill-rule="nonzero" opacity="0.37"></path>
                    </g>
                    <g id="Group" transform="translate(4.161706, 61.736335)" fill-rule="nonzero">
                        <g id="Christmas/Stuffs/Knot-2" transform="translate(42.523669, 36.674313) rotate(-18.000000) translate(-42.523669, -36.674313) ">
                            <path d="M75.7263543,8.06652934 C75.7263543,8.06652934 75.7443099,8.09256144 75.778354,8.14278332 L75.8412529,8.2360282 C77.0083951,9.973879 86.5447745,24.5618351 80.2179169,28.0907042 C75.7492705,30.5806791 65.4668238,29.6561562 59.0486117,28.7511794 L58.4674186,28.6677987 C57.5661169,28.5362787 56.7535918,28.4074294 56.0599925,28.2919488 C59.0832922,32.863397 66.6419927,44.0361244 69.9923033,46.6078981 C73.8989048,49.6066933 74.205305,49.8418929 74.2293363,49.8603399 L74.2313816,49.8619099 L66.7498735,51.8623269 L68.2448462,62.6245707 L68.1998478,62.5975835 C67.2385203,62.0164439 51.1547164,52.0686366 47.0428105,34.5920596 C46.6039874,32.7262669 46.338895,31.1582291 46.2162671,29.8462939 L44.5676474,30.3029541 C45.286385,30.8641617 45.7405231,31.2780353 45.7405231,31.2780353 C45.7405231,31.2780353 52.5376659,60.8775398 47.3019391,70.1394708 C42.0662123,79.4014018 41.3154037,61.8777484 41.3154037,61.8777484 L31.5881144,66.8854591 C31.5881144,66.8854591 35.8271927,44.3540949 35.3288684,32.8450287 L35.3282889,32.8427811 L35.3222241,32.8450287 C35.3222241,32.8450287 28.8373645,46.36118 23.1033135,51.3688907 C17.3692624,56.3766014 8.63862155,53.3693078 7.88781301,46.6145662 C7.19475898,40.3732649 6.71683948,36.2682671 6.64741432,35.6736597 L6.64087774,35.6177165 C6.63941739,35.6052294 6.63868022,35.5989362 6.63868022,35.5989362 C6.63868022,35.5989362 -3.83941768,31.8448202 -2.5902849,23.5830977 C-1.34115211,15.3213752 4.89122319,13.067572 7.13700448,12.5674677 C8.22204487,12.3258443 14.0810178,12.2585518 19.8476286,12.2535377 L21.4506004,12.253665 C27.0251897,12.2591377 32.0797943,12.3140816 32.0797943,12.3140816 L45.5478377,8.31324745 C45.5478377,8.31324745 56.0259356,-8.45691561 66.7498735,-9.45712414 C77.4738114,-10.4573327 75.7263543,8.06652934 75.7263543,8.06652934 Z" id="Combined-Shape" fill="#62A100" transform="translate(39.837122, 31.672466) rotate(18.000000) translate(-39.837122, -31.672466) "></path>
                            <path d="M53.5851143,5.64198855 C53.5851143,5.64198855 60.6613186,8.43590438 61.7310547,16.3975643 C61.7443433,16.477581 61.7509877,16.5575977 61.7642763,16.6376143 C62.621394,23.2923351 58.4421146,29.5669766 52.0303426,31.4740409 C47.8311303,32.7209675 43.4591655,33.6878358 42.2233214,32.7543078 C39.6519682,30.8205713 33.4328816,19.8449497 34.0773809,11.669912 L37.5058518,12.5300913 L53.5851143,5.64198855 Z M56.6547917,7.20898192 C52.6681977,0.947676507 71.8702921,-11.3148801 75.112714,-8.81435877 C76.6690841,-7.61090786 72.4786336,-3.87099213 67.6997226,-0.306892896 L67.099667,0.137507596 C62.0798817,3.82994409 56.6547917,7.20898192 56.6547917,7.20898192 Z M31.9644861,15.9641406 C31.9644861,15.9641406 15.7523372,21.4719556 10.0182861,20.4717471 C4.28423509,19.4715385 6.77585634,17.4711215 9.51996188,15.7174225 C12.2574231,13.9637235 31.7120018,13.4636193 31.9644861,15.9641406 Z" id="Shadow" fill="#5B7A05" transform="translate(40.995182, 11.990587) rotate(18.000000) translate(-40.995182, -11.990587) "></path>
                            <path d="M41.9494453,8.73808171 C41.9494453,8.73808171 50.7404073,6.38095415 54.1765763,12.6237332 C57.6127453,18.8665123 58.4771305,25.5332027 55.6946856,27.8966357 C52.9122407,30.2600688 44.1242012,35.4101626 39.8257821,30.8929165 C35.5340027,26.3690115 32.7327605,17.1206305 33.8059089,13.6822126 C34.8723967,10.2304561 41.9494453,8.73808171 41.9494453,8.73808171 Z" id="Path" fill="#62A100" transform="translate(45.464231, 20.494779) rotate(18.000000) translate(-45.464231, -20.494779) "></path>
                        </g>
                    </g>
                </g>
            </g>
        </g>
        <g id="Group" transform="translate(2.055696, 27.510966)" fill-rule="nonzero">
            <g id="Christmas/Stickers/Cookie">
                <path d="M70.6870201,0.384615385 C46.6711302,0.384615385 27.2024047,19.8533408 27.2024047,43.8692308 L27.206497,44.4696545 C27.3509461,55.0622793 31.311837,64.8581057 37.8743525,72.4075473 L37.9553846,72.4992308 L36.9557489,72.7680624 C36.058018,73.0118253 35.1672109,73.2599687 34.2845936,73.512467 C33.552746,73.7218333 32.8314704,73.9327671 32.1209872,74.1453434 L30.7144762,74.5727085 C24.6825182,76.4343071 19.4722428,78.4230399 15.2272532,80.5877606 C12.0102016,82.2282871 9.32128819,83.9803047 7.16167663,85.9631327 C4.10548494,88.7691478 2.04490214,92.077453 1.51111158,96.0503799 C0.296262679,105.092327 2.11049686,112.411749 8.1184145,117.229961 C13.4661588,121.518728 20.5942923,122.538385 29.9585004,121.442518 C31.652056,121.245266 33.3138907,121.020969 35.0664094,120.75825 L36.5554729,120.528513 L42.5884716,119.552783 L43.4333649,119.42752 L43.9398022,119.357503 L44.6196235,119.27194 L44.7284615,119.259231 L44.8803215,119.689827 L45.0917054,120.312114 L45.3132516,120.987232 L45.5425743,121.710597 C45.5813102,121.834923 45.6202708,121.961069 45.6594062,122.088939 L45.8959198,122.876081 C47.0039328,126.63271 48.0755629,131.157412 48.952661,135.936624 C51.1168033,147.7288 51.8648944,159.541282 50.7327722,169.53281 L50.6168625,170.524494 L50.497143,171.487804 L50.3736612,172.42315 L50.2464643,173.330945 L50.1155999,174.2116 L49.9811152,175.065527 C49.958402,175.205644 49.9355399,175.344664 49.91253,175.482596 L49.7727037,176.297204 L49.6293755,177.086113 L49.4825928,177.849736 L49.3324029,178.588484 L49.1788533,179.302769 C49.1529843,179.4198 49.1269773,179.53583 49.1008333,179.650866 L48.9423328,180.329229 C48.9156446,180.440325 48.8888214,180.550445 48.8618641,180.659597 L48.6985192,181.302963 L48.532004,181.923514 L48.3623658,182.521661 C48.3053045,182.717355 48.2477306,182.909384 48.189652,183.097816 L48.0139099,183.65239 C47.9843698,183.743043 47.9547055,183.832815 47.924918,183.921713 L47.7447224,184.444689 L47.5616168,184.947113 L47.3756487,185.429399 C47.3444181,185.508125 47.3130703,185.586028 47.2816061,185.663118 L47.091433,186.115967 L46.8985159,186.549707 C46.866137,186.620427 46.8336457,186.690368 46.8010431,186.759539 L46.6040986,187.165386 C46.5380102,187.297632 46.4714841,187.426864 46.4045284,187.553152 L46.2023798,187.923251 C45.755546,188.7171 45.3020372,189.365776 44.7233827,190.069506 L44.2863157,190.580384 L42.746891,192.353685 L42.5918825,192.537259 C41.6022095,193.729839 40.80857,194.864155 40.1105135,196.194891 C33.9120222,208.01135 44.1360604,227.043175 59.3498986,227.442838 C65.0848687,227.593494 72.9153226,226.350633 80.0580057,224.138993 C88.8749055,221.408954 96.0853017,217.499498 100.515861,212.121789 L100.833199,211.729237 C100.88519,211.663663 100.93674,211.598 100.987858,211.532228 L101.289496,211.136106 C101.388381,211.003512 101.485633,210.870309 101.581344,210.736326 L101.863944,210.331864 L102.137837,209.921699 C102.227743,209.783913 102.316289,209.645006 102.403564,209.504807 L102.661667,209.080166 C102.704079,209.008689 102.746196,208.936848 102.788029,208.864619 L103.035712,208.426436 C103.157941,208.204852 103.277818,207.979404 103.395649,207.749516 L103.628672,207.283648 C103.74391,207.047584 103.857303,206.806695 103.969158,206.560407 L104.190906,206.060463 C104.227552,205.975882 104.26405,205.890659 104.300411,205.804772 L104.517018,205.281312 L104.730875,204.740898 C104.801763,204.557821 104.872282,204.371747 104.942524,204.182506 L105.152506,203.605114 C105.187394,203.507242 105.222235,203.408535 105.257041,203.308973 L105.465537,202.701162 L105.67372,202.071793 C105.708421,201.965045 105.743132,201.857356 105.777864,201.748705 L105.986592,201.085083 L106.196362,200.397345 L106.407713,199.68447 L106.621188,198.945435 L106.946567,197.785594 L107.167721,196.976684 L107.507156,195.707235 L107.976961,193.90458 L109.079994,189.592529 L109.467336,188.121512 L109.830766,186.78404 L110.174476,185.567866 L110.421838,184.727968 L110.662235,183.944242 L110.897433,183.211521 L111.052218,182.748824 L111.206002,182.304969 L111.43595,181.671164 L111.589526,181.267713 L111.743937,180.877744 L111.899705,180.499727 L112.057355,180.13213 L112.162962,179.894472 C112.583149,178.96375 112.975487,178.27219 113.306556,177.828861 L113.394615,177.714615 L113.545085,177.659474 C116.130403,176.741797 119.652586,176.469238 123.372106,176.875017 C125.087291,177.062135 126.717927,177.382728 128.026313,177.765489 L128.213503,177.821376 C128.335143,177.858447 128.450364,177.895079 128.558489,177.930888 L128.860897,178.035464 C128.907524,178.052354 128.952209,178.068943 128.994865,178.085181 L129.176154,178.156923 L129.395775,178.308366 L129.792959,178.572155 C129.862244,178.617324 129.933047,178.663083 130.005332,178.70941 L130.456518,178.994043 L130.941461,179.291376 L131.458364,179.600451 L132.005432,179.920309 C132.099024,179.974464 132.193797,180.029028 132.289716,180.083982 L133.182876,180.588544 L134.131783,181.110905 L135.130375,181.64783 L135.820713,182.012277 L136.528643,182.380802 L137.252369,182.752448 L137.990096,183.126258 L139.119007,183.688934 L139.883877,184.063963 L140.656462,184.437802 L141.434964,184.809495 L142.609886,185.360913 L143.788021,185.902114 L144.572236,186.255642 L145.742258,186.77263 L146.505362,187.102798 L147.641137,187.583914 C153.27377,189.939596 158.209697,191.541611 162.309145,192.155505 C175.976961,194.202266 192.998163,189.543146 201.095966,179.338515 C205.651508,173.597746 207.615316,166.05802 206.876679,158.96301 C206.028527,150.816048 201.726227,143.819029 194.03987,142.039961 L192.398356,141.657267 L191.299626,141.393531 L190.296778,141.143862 L189.673655,140.982612 L189.081408,140.823686 L188.515341,140.665512 L187.970759,140.506519 C187.881525,140.479865 187.792991,140.453111 187.705058,140.426225 L187.1839,140.263057 C187.097983,140.235511 187.012472,140.207766 186.92727,140.179792 L186.418971,140.008914 C186.33461,139.979886 186.250362,139.950563 186.166129,139.92091 L185.660124,139.738787 L185.14978,139.547204 L184.630401,139.344588 L184.097291,139.129369 L183.261611,138.779471 C183.165867,138.738625 183.069062,138.697091 182.971098,138.654834 C177.660323,136.364059 172.599391,133.04189 167.772804,128.305138 C166.666327,127.219256 165.579385,126.064477 164.512902,124.837696 L163.379415,123.529428 L162.258819,122.227106 L160.603571,120.286286 L159.518151,119.001855 L158.447983,117.72579 L157.393739,116.458782 L156.356093,115.201522 L155.335721,113.954701 C155.167135,113.747806 154.999298,113.541374 154.832222,113.335421 L153.839023,112.105555 L152.864781,110.887856 L151.910172,109.683016 C151.595316,109.283622 151.283845,108.886487 150.97587,108.491725 L150.062547,107.314674 L149.170879,106.152555 C149.02411,105.960151 148.878271,105.768399 148.733377,105.577311 L147.875455,104.438886 C147.734394,104.250517 147.594306,104.062843 147.455204,103.875877 L146.632545,102.7627 C145.68685,101.474183 144.790871,100.221795 143.949427,99.0104758 L143.353584,98.1461042 L142.780151,97.3008051 C142.686462,97.1615363 142.593717,97.0230809 142.501924,96.8854483 L141.962617,96.0696011 L141.446402,95.2739506 L140.95355,94.4989465 C140.79319,94.2441029 140.63677,93.9927752 140.484335,93.7450386 L140.039028,93.0126764 L139.617903,92.3023098 C139.413431,91.9527003 139.218129,91.6115078 139.03215,91.2789851 L138.67267,90.6255746 L138.338324,89.9957336 C138.284709,89.8927492 138.232153,89.7907656 138.180662,89.6897922 L137.884529,89.0961484 C137.790106,88.9023578 137.699985,88.7126828 137.614212,88.5271984 L137.511375,88.3021549 L137.32,87.8684615 L137.531248,87.7467149 L137.930284,87.5226007 L138.371528,87.2833599 C138.448714,87.2421574 138.527754,87.2002733 138.608696,87.1576818 L139.117555,86.8934397 L140.15892,86.3714872 L143.500754,84.7200779 L144.323955,84.3058166 C144.619044,84.1548303 144.909797,84.0039901 145.196305,83.8531257 L146.043178,83.4002898 C151.88338,80.2275471 155.890577,76.9690625 158.894287,72.0480918 C167.275507,58.3171563 163.389284,44.6566108 150.145502,38.4477276 C146.59368,36.7825803 142.96523,36.803269 138.324813,37.966017 L137.638395,38.1442648 L136.936877,38.3384393 C136.700449,38.4057765 136.461396,38.4757051 136.219609,38.5481619 L135.485938,38.7730537 L134.735214,39.0127361 L133.966784,39.2668303 L133.179998,39.5349577 C132.230581,39.8629061 131.241175,40.2251394 130.213006,40.6204395 L129.171962,41.0267167 C128.469379,41.3048562 127.74975,41.5975115 127.013439,41.9043217 L125.896506,42.375108 C125.331829,42.6157641 124.757871,42.8642808 124.174785,43.1205058 L122.996487,43.6431884 C122.79809,43.7320001 122.598691,43.8216569 122.398295,43.9121534 L121.183996,44.4651615 C120.979633,44.5589936 120.774285,44.653654 120.567957,44.749137 L119.31827,45.3318616 L118.045334,45.9340588 L116.749419,46.5554577 L115.344376,47.2381096 L113.984615,47.9069231 L113.99669,47.7864765 C114.112751,46.4918495 114.171636,45.1850704 114.171636,43.8692308 C114.171636,19.8533408 94.70291,0.384615385 70.6870201,0.384615385 Z" id="Sticker" fill="#FFFFFF"></path>
                <g id="Christmas/Stuffs/Cookie-1" transform="translate(10.769231, 10.000000)">
                    <path d="M59.8276162,0 C78.5049251,0 93.6458756,15.1745406 93.6458756,33.893285 C93.6458756,43.3821707 89.7551541,51.9603137 83.4853408,58.1127309 L83.8452626,59.1573689 C83.8452626,59.1573689 127.702238,33.7085385 135.091101,37.1802332 C142.479964,40.6519278 145.48313,47.5953171 139.70722,57.0789708 C133.931311,66.5626245 119.161265,67.7172901 116.388521,74.6606794 C113.615777,81.6040687 132.418207,105.267016 146.266565,121.232193 C160.114923,137.19737 174.831204,140.122523 180.829855,141.508121 C186.836187,142.901418 188.748689,155.610438 182.519616,163.477559 C176.290543,171.344681 161.965979,174.154368 152.73374,172.768769 C143.501502,171.38317 126.319706,162.338289 123.546962,160.259891 C120.774218,158.181493 107.847548,155.171665 98.3848867,159.105226 C93.205325,161.258333 90.7849509,169.795405 88.5944343,178.372778 L88.3425586,179.362293 C86.6264115,186.120267 84.992683,192.751615 82.2015861,196.146899 C75.7344105,204.014021 57.5310776,208.209306 48.7596826,207.978373 C39.9882876,207.74744 35.2569572,195.654242 37.7992792,190.796948 C40.3416012,185.939655 46.6705237,185.254553 49.4432677,160.729455 C52.2160116,136.204357 44.3663044,107.514765 41.3631385,102.426539 C38.3599726,97.3383123 31.8927969,100.348141 18.0444386,101.964673 C4.19608034,103.588902 -1.34172684,99.4244082 0.271226709,87.3927924 C1.88418025,75.3611766 51.5170651,67.0321885 51.5170651,67.0321885 L51.5170651,67.0321885 L51.5473457,66.7632446 C36.8729454,63.0618296 26.0093569,49.7490354 26.0093569,33.893285 C26.0093569,15.1745406 41.1503073,0 59.8276162,0 Z" id="Body" fill="#F29777"></path>
                    <path d="M60.5880086,3.23306375 C77.6406504,3.23306375 91.4645479,17.0876295 91.4645479,34.1781025 C91.4645479,42.6618335 88.0581442,50.3481912 82.5413388,55.9382985 L82.547219,55.9550963 L84.2984257,61.0972072 C84.2984257,61.0972072 84.4426238,61.0135724 84.7151711,60.8570242 L85.0299145,60.6765685 C90.4939862,57.5490891 124.892319,38.1190533 131.08944,41.0368164 C137.848483,44.208298 140.575143,50.5435634 135.313842,59.18816 C130.052541,67.8481522 116.557497,68.9104446 114.022855,75.2534078 C111.488214,81.5886732 126.457959,105.036083 139.108123,119.607963 C151.758288,134.172146 172.204394,141.361864 177.688436,142.639694 C183.149436,143.909826 183.779256,152.785356 178.080153,159.975074 C172.381051,167.141698 154.277567,168.835208 145.828763,167.572773 C138.068193,166.395825 125.309961,156.984154 121.363395,154.025805 L121.04702,153.788379 C120.850919,153.641088 120.684879,153.516239 120.551477,153.416573 C118.016836,151.507526 106.211552,148.767119 97.5707292,152.354281 C93.3839389,154.099849 90.7822012,161.344867 88.5396625,169.168036 L88.2552378,170.1695 C88.0667963,170.83873 87.8805786,171.510632 87.6958292,172.182171 L87.4197117,173.188827 C85.4932753,180.22821 83.6870554,187.060355 81.1262838,190.173429 C75.235163,197.355449 58.575657,205.176384 50.5876966,204.960846 C48.1145012,204.899264 45.9101313,204.05251 44.1128402,202.766982 C40.0420527,199.926504 38.0297012,194.930651 39.6272932,191.866938 C41.9468741,187.417627 50.3726361,176.240463 52.9072774,153.832253 C55.4188765,131.447135 48.2681158,105.267016 45.518414,100.602167 C42.7917545,95.9604113 36.8775915,98.7162133 24.2274272,100.186488 C11.6003052,101.66446 6.53102261,97.8617607 8.005723,86.8770417 C9.48042338,75.8923227 54.7967373,68.2946229 54.7967373,68.2946229 L55.2098799,64.6553524 C40.7210813,62.1048275 29.7114693,49.4300337 29.7114693,34.1781025 C29.7114693,17.0876295 43.5353668,3.23306375 60.5880086,3.23306375 Z" id="Combined-Shape" fill="#D57E59"></path>
                    <g id="Face" transform="translate(43.753380, 16.519416)">
                        <ellipse id="Oval" fill="#150804" transform="translate(26.467724, 11.273196) rotate(-21.906740) translate(-26.467724, -11.273196) " cx="26.4677235" cy="11.273196" rx="1.91310974" ry="2.90888509"></ellipse>
                        <ellipse id="Oval" fill="#150804" transform="translate(4.669504, 16.332497) rotate(-21.906740) translate(-4.669504, -16.332497) " cx="4.66950355" cy="16.3324974" rx="1.91310974" ry="2.90888509"></ellipse>
                        <path d="M22.6796653,19.9218309 C22.572135,20.2913239 22.1112912,20.760888 21.4507483,21.2535453 C19.3615894,22.8007972 15.1602295,24.4943068 13.0941128,23.278059 C12.8713716,23.1548947 12.6639918,22.9855437 12.5026965,22.7777039 C10.2522422,20.0988797 10.7591705,17.4200554 12.8483294,17.4816376 C12.8483294,17.4816376 16.4813152,18.6901876 17.2340269,18.1205526 C17.9636963,17.5432198 19.6457765,15.2261907 20.9591815,15.7804302 C22.2802672,16.357763 23.1942743,18.2668102 22.6796653,19.9218309 Z" id="Path" fill="#150804"></path>
                        <path d="M21.4507483,21.2535453 C19.3615894,22.8007972 15.1602295,24.4943068 13.0941128,23.278059 C13.9927583,21.9925313 15.8130916,19.8063644 17.7255937,19.7139911 C19.3846316,19.6370134 20.6980366,20.5453504 21.4507483,21.2535453 Z" id="Path" fill="#C82A37"></path>
                        <path d="M23.9085823,0 C23.9085823,0 20.1757469,0.123164333 21.8962307,2.18616692 C23.6167145,4.24916951 28.1867495,2.61724209 28.1714267,1.37790098 C28.1560266,0.146257646 23.9085823,0 23.9085823,0 Z" id="Path" fill="#A35036"></path>
                        <path d="M3.96940413,3.1406905 C3.96940413,3.1406905 -1.19972795,5.84260807 0.259610977,7.25130013 C1.7189499,8.6599922 6.54244908,5.95807463 6.12768959,4.05672523 C5.70524938,2.16307361 3.96940413,3.1406905 3.96940413,3.1406905 Z" id="Path" fill="#A35036"></path>
                    </g>
                    <g id="Decorations" transform="translate(19.142312, 43.853960)">
                        <path d="M2.45628771,34.2697324 C2.99979966,33.4991193 4.06372572,33.3159948 4.83263307,33.8607126 C5.56659008,34.3806704 5.76643752,35.3758592 5.31037451,36.1354903 L5.17229326,36.3480709 L5.0553614,36.5453743 C5.03995913,36.5722853 5.0238008,36.6008427 5.00693365,36.6310301 C4.79616963,37.0082382 4.58214036,37.4549642 4.38061122,37.9655326 C2.73281033,42.1401898 3.0043425,47.0504147 6.60828998,52.4320482 C7.13302974,53.2156216 6.92460977,54.2771626 6.14277095,54.8030665 C5.36093214,55.3289704 4.30174092,55.120088 3.77700116,54.3365147 C-0.492443886,47.9611197 -0.829062255,41.8739152 1.20983732,36.7084205 C1.6581407,35.5726565 2.11872033,34.7483491 2.45628771,34.2697324 Z M13.250275,30.363841 C14.0964028,30.6731837 14.5499528,31.584057 14.3053909,32.4385471 L14.1839371,32.8047175 L14.0862694,33.1224071 C13.9379754,33.6204109 13.7885404,34.1952691 13.6484576,34.83683 C12.6851997,39.2484235 12.6870451,43.9511046 14.2759996,48.3040724 C14.6762295,49.4005092 15.1735376,50.4542907 15.7735321,51.4614289 C16.2562382,52.2716893 15.992157,53.3207138 15.1836902,53.8044908 C14.3752234,54.2882678 13.328521,54.0236008 12.8458148,53.2133404 C12.1348435,52.0199188 11.5462011,50.7726025 11.073705,49.4781914 C9.229668,44.4264205 9.22757683,39.0976208 10.3174213,34.1062777 L10.4268317,33.6225304 L10.5354704,33.1739582 L10.6421094,32.761634 L10.7455205,32.3866305 L10.8918983,31.8964487 L10.9818665,31.6194409 L11.0643083,31.3835088 C11.3869962,30.4969581 12.3656868,30.0404373 13.250275,30.363841 Z M90.92266,4.53161313 C91.039134,4.55843003 91.1700171,4.59412144 91.3141737,4.63954087 L91.619848,4.74360335 C92.0501135,4.90032199 92.5693829,5.13026408 93.1561184,5.44961499 C94.6859458,6.28227605 96.2013766,7.48783187 97.6017408,9.12958266 C100.257088,12.2426426 102.192149,16.5614315 103.136982,22.2430075 C103.291781,23.1738635 102.664334,24.0542393 101.735538,24.209382 C100.806743,24.3645246 99.9283157,23.7356848 99.7735165,22.8048288 C98.9280182,17.7205845 97.2509387,13.9775757 95.0098632,11.3501967 C93.8880961,10.0350659 92.7012432,9.09090045 91.5287871,8.45275098 L91.3779239,8.37213751 L91.0965568,8.23011262 L90.8439327,8.11261996 C90.8043304,8.09501084 90.7660056,8.07837036 90.7289982,8.06267177 L90.5230823,7.9795688 L90.3507014,7.91778651 L90.213772,7.8760403 L90.1592007,7.86227928 C89.2414986,7.6509881 88.6684602,6.73410775 88.8792836,5.81436969 C89.0901071,4.89463163 90.0049579,4.32032196 90.92266,4.53161313 Z M100.484874,0.142651886 L100.705307,0.243838981 L100.963881,0.372513321 C101.010032,0.396275936 101.05768,0.421203568 101.106778,0.447306075 L101.418403,0.618098483 L101.762619,0.817561066 L102.137207,1.046167 C102.202046,1.08672289 102.268058,1.1285128 102.335197,1.17154659 C103.654245,2.01701446 104.9693,3.07487652 106.197664,4.36417817 C109.594687,7.92972348 111.6904,12.557018 111.823584,18.2966041 C111.845475,19.2400449 111.100105,20.0226411 110.158753,20.0445816 C109.2174,20.0665221 108.436537,19.3194985 108.414645,18.3760576 C108.302234,13.5316844 106.56706,9.70045226 103.731497,6.72422091 C102.70206,5.64371493 101.598042,4.75561593 100.498017,4.05053508 C100.117508,3.80664085 99.767186,3.6041193 99.4571857,3.44161287 L99.1229105,3.27563972 L99.0129954,3.22296571 C98.2267928,2.81142056 97.881122,1.85418888 98.2408658,1.02665343 C98.6169616,0.161502729 99.6216382,-0.234278243 100.484874,0.142651886 Z M34.7968766,129.733627 L34.9933755,129.894558 L35.1587529,130.025131 C35.4824663,130.278009 35.8662756,130.562187 36.3072048,130.869925 C37.5779068,131.756787 39.0426372,132.646353 40.6770861,133.477199 C47.3810143,136.885034 54.6965681,138.270784 62.2008694,136.504094 C63.1175258,136.288292 64.0351779,136.858094 64.2505028,137.776784 C64.4658277,138.695474 63.8972862,139.615162 62.9806298,139.830965 C54.6017764,141.803545 46.4993783,140.268746 39.1346374,136.524998 C37.352802,135.61923 35.7538326,134.648138 34.3585715,133.674343 L33.8112058,133.284915 L33.3446858,132.939414 L32.9605961,132.642414 L32.7511133,132.473618 L32.5794398,132.329765 C31.8641232,131.716078 31.7806347,130.637421 32.3929629,129.920518 C33.0052912,129.203614 34.08156,129.119941 34.7968766,129.733627 Z M35.5739106,120.531589 L36.0186742,120.910915 L36.4211969,121.234785 C36.636745,121.403945 36.873616,121.583561 37.1313268,121.771919 C38.3711622,122.678103 39.8169062,123.587619 41.4503304,124.437632 C48.6548959,128.186798 56.8463255,129.546519 65.6904201,127.127808 C66.5988137,126.879378 67.5361591,127.416017 67.7840396,128.326426 C68.0319201,129.236835 67.4964684,130.17626 66.5880748,130.42469 C56.840279,133.090549 47.7925469,131.588687 39.8790032,127.470578 C38.0864452,126.537753 36.4958094,125.537086 35.1221418,124.533086 L34.7536562,124.259969 L34.420915,124.006154 L34.1242571,123.773034 L33.8640214,123.562002 L33.640547,123.374451 L33.3750041,123.140199 C32.6800303,122.503467 32.6316737,121.422656 33.2669966,120.726141 C33.872066,120.062792 34.8790362,119.987246 35.5739106,120.531589 Z M137.674545,91.7856112 C138.583893,92.0305117 139.122973,92.96785 138.878614,93.8792148 L138.791797,94.1857835 L138.661957,94.611818 L138.488052,95.1514166 C138.165795,96.1273051 137.766562,97.2109086 137.285476,98.3757313 C135.912445,101.700164 134.154121,105.024512 131.967165,108.136335 C128.730048,112.742434 124.832535,116.477408 120.208155,119.013393 C119.382123,119.466384 118.346082,119.16249 117.894093,118.334624 C117.442103,117.506759 117.745326,116.46842 118.571358,116.015428 C122.699234,113.751723 126.223406,110.374521 129.179405,106.168425 C131.209895,103.279237 132.852364,100.17393 134.134858,97.0687078 C134.583206,95.9831514 134.95386,94.9771172 135.250868,94.0776898 L135.366305,93.7215832 L135.465803,93.4019634 L135.585576,92.9923516 C135.829934,92.0809868 136.765198,91.5407107 137.674545,91.7856112 Z M130.50206,87.6074295 C131.372289,87.9678461 131.78622,88.9670463 131.426601,89.8392056 L131.226165,90.3059112 L130.915424,90.9974332 C130.761058,91.3341395 130.596251,91.6849302 130.421107,92.0485027 L130.057066,92.7923039 L129.665642,93.5678738 C129.598133,93.6996541 129.529491,93.8326617 129.459719,93.9668482 C127.865436,97.0330101 126.006905,100.099571 123.896436,102.970105 C120.481483,107.614921 116.737593,111.295835 112.658563,113.645852 C111.842223,114.116162 110.800031,113.834183 110.330762,113.016032 C109.861492,112.197882 110.142848,111.153378 110.959187,110.683067 C114.572653,108.601272 117.993464,105.238002 121.151318,100.942879 C123.148382,98.2265905 124.917675,95.3072713 126.435813,92.3875529 C126.891105,91.511925 127.295004,90.690807 127.645936,89.9400554 L127.914759,89.3560247 L128.088847,88.9664617 L128.275224,88.5340217 C128.634843,87.6618623 129.631831,87.2470129 130.50206,87.6074295 Z" id="Clothes" fill="#159B3E"></path>
                        <path d="M73.1524795,98.7824903 L72.9459513,98.5606775 L72.547922,98.1436452 C71.1882359,96.7451055 70.1678904,95.9809944 69.123691,95.6357813 L68.9529734,95.5826915 L68.9353921,95.6384904 C68.9189879,95.6932374 68.903216,95.7521076 68.8879879,95.8156918 L68.8438461,96.021177 L68.8024351,96.2584899 L68.7632231,96.5311748 L68.7256786,96.8427756 L68.6892699,97.1968365 L68.6356235,97.8152933 L68.4802295,99.9217439 L68.4570812,100.183458 C68.1579804,103.474549 67.4973835,105.610903 65.7500961,107.167099 C63.4054891,109.255289 60.823806,108.879918 58.5480238,106.744452 C57.9188748,106.154094 57.3000508,105.4365 56.5889604,104.50242 L56.1457605,103.909047 L55.7809285,103.40672 L54.3475779,101.391955 L54.1445823,101.110224 L53.7583144,100.582305 L53.3950093,100.098037 C53.3361498,100.020714 53.2780802,99.9450221 53.2207174,99.8708689 L52.8843536,99.4436592 L52.5609487,99.0488762 L52.3879405,98.8450067 L52.2800137,99.1272618 L52.1357511,99.5300292 L51.0792639,102.626164 L50.9493961,102.989988 C49.0054509,108.282523 46.4775047,111.132813 41.9615331,110.667524 C37.3272579,110.190046 35.0414151,107.226841 34.9374425,103.098516 C34.9001898,101.619365 35.1375124,100.092057 35.552157,98.5820584 L35.6147058,98.3589024 L35.7390847,97.9405854 L35.8604618,97.5617515 L35.976385,97.2249876 L36.0844021,96.932881 L36.182061,96.6880189 C36.6423525,95.5813726 37.9106209,95.0582263 39.0148176,95.519539 C40.0765452,95.9631089 40.5999883,97.155356 40.229485,98.2302158 L40.0829925,98.6159013 L40.0531367,98.6991673 C39.9434387,99.0081547 39.8326366,99.3568148 39.7290289,99.7341196 C39.4180684,100.866535 39.243127,101.992384 39.2682259,102.98896 C39.3208686,105.079185 40.1183304,106.112959 42.4045607,106.348513 C44.1055061,106.523765 45.3066984,105.368747 46.5050312,102.465522 L46.6942903,101.992529 L46.8839366,101.490114 L47.0714342,100.95903 L48.1541979,97.7905797 C48.758405,96.1346013 49.2776566,95.1501451 50.1554771,94.4589363 C51.7026313,93.2406843 53.4933421,93.6798996 54.918789,95.1787684 C55.4825602,95.7715783 56.0201603,96.4053456 56.606238,97.1607492 L57.0049574,97.6832572 L57.4229557,98.2471177 L58.1571916,99.2666694 L59.4088904,101.025392 L59.7374028,101.474569 L60.0044767,101.831052 L60.3157555,102.233624 C60.3659905,102.297299 60.4154305,102.359291 60.4641165,102.419643 L60.7475155,102.762419 C60.9766908,103.032235 61.1890751,103.263181 61.3898086,103.460569 L61.6124544,103.671577 L61.7967278,103.838427 C62.2505769,104.237549 62.4204756,104.274962 62.7005863,104.065056 L62.8115638,103.974972 C62.8311777,103.958101 62.8514146,103.940319 62.8723707,103.921654 C63.5167209,103.347773 63.9053585,102.151327 64.1172111,100.056214 L64.1832833,99.3135764 L64.3011278,97.6721519 L64.3405952,97.1712723 L64.3811857,96.7137215 L64.423971,96.2952557 C64.4313443,96.2285327 64.4388537,96.1632614 64.4465216,96.0993533 L64.4946083,95.7315572 C64.5029992,95.6727486 64.5115931,95.6151265 64.5204124,95.5586024 L64.5762119,95.2319268 L64.6384927,94.9273598 C64.7043715,94.6324325 64.7815797,94.3643019 64.87494,94.1038699 L64.9738629,93.8452968 C65.0087509,93.7594896 65.0456122,93.6738304 65.0846254,93.5876119 C65.9937126,91.5785454 67.8880152,90.7497976 70.1861119,91.4208347 C72.31833,92.0434358 73.956973,93.3027574 76.0743581,95.5568795 L77.9470353,97.5914611 L78.0729379,97.7242172 L78.3892647,98.0452618 C78.7924934,98.4442179 79.1238995,98.7287792 79.411545,98.9231754 L79.5865304,99.0368992 C79.7656059,99.1470689 79.8630928,99.1816789 79.9437847,99.1745211 L79.9556208,99.172162 L79.9611896,99.1606881 C80.047831,99.00074 80.1351502,98.7441859 80.2119012,98.3963591 L80.2641577,98.1368308 L80.3012894,97.923603 L80.334821,97.7024109 L80.3651595,97.4692226 L80.3927119,97.2200063 L80.4297072,96.8073101 L80.4627235,96.3358725 L80.5126401,95.382649 L80.5777404,93.7663535 L80.6190787,92.8781946 L80.6501485,92.3374243 L80.6849149,91.8338608 L80.7241388,91.3641943 C80.8492579,90.0027303 81.0448278,89.0541913 81.4033111,88.1164213 C82.3477833,85.6457407 84.4058333,84.4148606 87.1465972,85.0556797 C89.4869811,85.6028858 91.2309097,86.5002244 92.8325243,87.8049535 L93.0187974,87.9609592 L93.2449265,88.1566428 L94.7147285,89.4711391 C95.3547432,90.0116329 95.721843,90.1810558 96.3689803,90.130335 L96.5029881,90.1165044 L96.5193569,90.0943178 C96.6129044,89.9542269 96.7185578,89.7306495 96.8236836,89.4280083 L96.876144,89.2701195 C96.9196952,89.1331887 96.9610841,88.9899716 97.0007487,88.8385106 L97.0779089,88.5240168 L97.1512497,88.1840595 L97.2215501,87.815159 C97.2445633,87.6869817 97.2671996,87.5534005 97.2895887,87.4138354 L97.3561442,86.9766089 L97.4219955,86.4999995 L97.4879211,85.9805276 L97.5546998,85.4147132 L97.7817139,83.3629177 L97.8723694,82.6032895 L97.960719,81.9314433 L98.0197068,81.5265085 L98.0797235,81.1518803 L98.1415907,80.8040755 C98.1521018,80.7481498 98.1627241,80.6931967 98.173475,80.6391435 L98.2396582,80.3250432 C98.2509913,80.2742995 98.2624871,80.2243107 98.2741626,80.1750041 L98.3465104,79.8867715 C98.3589736,79.8399037 98.3716508,79.7935731 98.3845591,79.747707 L98.4649198,79.477505 C98.4788212,79.433207 98.492988,79.3892284 98.5074372,79.3454967 L98.5976593,79.0854885 C98.6133069,79.0424541 98.6292713,78.9995214 98.6455694,78.9566179 C99.5447109,76.5897077 101.613964,75.4983364 103.958191,76.8402841 C104.42583,77.107983 104.886725,77.4147699 105.382979,77.7880248 L105.762457,78.0808567 L106.159141,78.4011809 C106.226909,78.4570019 106.295557,78.5140754 106.36517,78.5724549 L106.795065,78.9388307 C106.868861,79.0026478 106.943785,79.0678778 107.019919,79.1345742 L107.491907,79.5527771 L109.483251,81.3634472 L110.146058,81.9548603 L110.579376,82.3321331 L110.964486,82.6575281 L111.307208,82.9354914 L111.515014,83.0966448 L111.708293,83.2400106 L111.888768,83.3669062 L112.058164,83.4786489 L112.218206,83.5765558 L112.370618,83.6619444 L112.438201,83.6965635 L112.456916,83.635499 L112.504297,83.4493839 L112.560333,83.1816867 C113.089327,80.3605522 112.602269,77.4902206 111.450201,74.7889855 C111.159093,74.1064282 110.848093,73.4919276 110.539973,72.9588743 L110.416676,72.7493854 L110.232664,72.4538336 L110.176318,72.3701663 C109.487368,71.3900052 109.721683,70.0356846 110.699675,69.3452068 C111.677666,68.6547289 113.028989,68.8895635 113.717938,69.8697247 C113.774871,69.9507221 113.834607,70.0387575 113.896779,70.1336698 L114.090229,70.4388765 C114.123565,70.4931291 114.157417,70.5490606 114.19174,70.6066509 L114.402951,70.9719378 C114.727127,71.5492437 115.081925,72.2576524 115.433713,73.0824843 C116.896275,76.5117301 117.524646,80.2148474 116.817965,83.9835863 C116.162906,87.4770308 113.850555,89.0217976 110.969178,87.7980964 L110.734784,87.6950312 C110.696298,87.6774955 110.658069,87.6597582 110.620049,87.6417858 L110.394057,87.53086 L110.170777,87.4126759 L109.947896,87.2856191 L109.723103,87.148075 L109.494086,86.9984292 L109.258532,86.8350675 L109.01413,86.6563752 L108.758568,86.4607381 L108.489533,86.2465416 L108.204715,86.0121715 L107.9018,85.7560132 L107.578477,85.4764523 L106.86136,84.8406651 L106.252756,84.2903857 L105.084858,83.2233011 L104.646973,82.827785 L104.240293,82.4668385 L103.862313,82.1386836 L103.510525,81.841542 C103.453938,81.7945041 103.398337,81.7486843 103.343671,81.7040456 L103.026476,81.4500903 C102.97534,81.4100279 102.925035,81.3710724 102.875508,81.3331869 L102.587266,81.1184171 L102.519305,81.0700841 L102.473034,81.2658236 L102.417386,81.5321358 C102.408217,81.5789553 102.399093,81.6270377 102.389999,81.6764518 L102.335699,81.9894681 L102.254219,82.5261457 L102.19894,82.9335165 L102.112967,83.6272084 L102.021395,84.4299719 L101.857404,85.9205647 L101.748282,86.8293339 L101.675245,87.3809079 L101.600698,87.8940596 L101.523546,88.373071 L101.442693,88.8222241 C101.428848,88.8948327 101.414804,88.9663755 101.400537,89.0369419 L101.312079,89.4493362 C101.220583,89.8514401 101.119429,90.2248138 101.003686,90.5887262 C100.336118,92.6876483 99.2094973,94.1046133 97.3050455,94.389698 C95.1177642,94.7171205 93.5412299,94.1577726 91.9232053,92.7913474 L91.7198942,92.6124039 L90.4799081,91.5012082 L90.1740966,91.2357111 C90.1467076,91.2125822 90.1218918,91.1919331 90.1000255,91.1741201 C89.0586223,90.325758 87.9781231,89.7502553 86.4698393,89.3596068 L85.9948228,89.2448904 L85.8662455,89.2192713 C85.680144,89.1900791 85.6243246,89.2342555 85.5384594,89.4393491 L85.4487395,89.6697448 L85.3801289,89.8638204 C85.3473039,89.9643866 85.3166537,90.0705203 85.2879733,90.1834575 L85.2331779,90.4187693 C85.2244628,90.4596219 85.2159514,90.501322 85.207636,90.5439154 L85.1600356,90.8105613 L85.1167761,91.1008432 L85.0774927,91.4169587 C85.0712566,91.4719194 85.0651709,91.5280482 85.0592281,91.5853907 L85.0252251,91.9443765 C85.0198234,92.006757 85.0145494,92.0704429 85.0093955,92.1354797 L84.9798522,92.5422802 L84.9401434,93.2180859 L84.9048677,93.97921 L84.8367798,95.6623595 L84.791022,96.544647 L84.7526187,97.11203 L84.723963,97.4549896 L84.6749223,97.9293181 L84.6373283,98.2262823 L84.5951249,98.5138313 L84.5218842,98.9387298 L84.4945256,99.0812159 C84.1183321,100.994359 83.3691936,102.377338 81.8827397,103.075958 C80.2168725,103.858901 78.549924,103.57755 76.9894888,102.522979 C76.4043503,102.127531 75.8404152,101.636035 75.2001806,100.989692 L74.8308885,100.607944 L73.1524795,98.7824903 Z" id="Path" fill="#F2C298"></path>
                        <path d="M58.3049016,40.0671379 C61.5075744,40.0671379 64.1038537,37.4650988 64.1038537,34.2553209 C64.1038537,31.045543 61.5075744,28.4435039 58.3049016,28.4435039 C55.1022289,28.4435039 52.5059496,31.045543 52.5059496,34.2553209 C52.5059496,37.4650988 55.1022289,40.0671379 58.3049016,40.0671379 Z M65.4710238,57.1715847 C68.554922,57.1715847 71.0549154,54.6660451 71.0549154,51.5753053 C71.0549154,48.4845656 68.554922,45.9790259 65.4710238,45.9790259 C62.3871322,45.9790259 59.8871322,48.4845656 59.8871322,51.5753053 C59.8871322,54.6660451 62.3871322,57.1715847 65.4710238,57.1715847 Z M71.3775061,74.4992669 C74.4614042,74.4992669 76.9613976,71.9937273 76.9613976,68.9029875 C76.9613976,65.8122477 74.4614042,63.3067081 71.3775061,63.3067081 C68.2936145,63.3067081 65.7936145,65.8122477 65.7936145,68.9029875 C65.7936145,71.9937273 68.2936145,74.4992669 71.3775061,74.4992669 Z" id="Buttons" fill="#C82A37"></path>
                    </g>
                    <path d="M62.2393658,171.082957 C58.9673743,186.909574 51.5861917,198.502417 44.1128402,202.759284 C40.0420527,199.918807 38.0297012,194.922953 39.6272932,191.85924 C41.9468741,187.409929 50.3726361,176.232766 52.9072774,153.824555 C55.4188765,131.439437 48.2681158,105.259319 45.518414,100.594469 C42.7917545,95.9527136 36.8775915,98.7085155 24.2274272,100.17879 C11.6003052,101.656762 6.53102261,97.854063 8.005723,86.869344 C9.48042338,75.884625 54.7967373,68.2869251 54.7967373,68.2869251 L55.2114968,64.6381818 C40.7179571,62.0748241 29.71915,49.4196888 29.71915,34.162707 C29.71915,20.8994478 38.0834663,9.56832916 49.7965813,5.18059978 C46.3556137,8.19812595 30.6715607,23.2241746 39.204853,39.8513597 C48.7596826,58.4337785 58.5910185,60.6892253 58.5910185,60.6892253 C58.5910185,60.6892253 59.005778,61.6668422 59.3514109,63.1448142 C59.5050255,63.7298448 59.6355979,64.3841553 59.7431282,65.100048 C60.1962913,68.4408806 59.7661704,72.8286099 55.234539,74.7607504 C47.3541088,78.1477696 48.4754955,95.3214963 54.3896586,104.889826 C60.2730986,114.47355 67.0321421,147.989644 62.2393658,171.082957 Z" id="Shadow" fill="#A35036" opacity="0.48"></path>
                    <path d="M96.1267517,66.7242777 C97.5944667,66.7242777 98.7842847,65.53182 98.7842847,64.060849 C98.7842847,62.5898779 97.5944667,61.3974202 96.1267517,61.3974202 C94.6590368,61.3974202 93.4692188,62.5898779 93.4692188,64.060849 C93.4692188,65.53182 94.6590368,66.7242777 96.1267517,66.7242777 Z M100.773594,83.0127608 C101.507452,83.0127608 102.102361,82.4165319 102.102361,81.6810464 C102.102361,80.9455609 101.507452,80.3493321 100.773594,80.3493321 C100.039737,80.3493321 99.4448276,80.9455609 99.4448276,81.6810464 C99.4448276,82.4165319 100.039737,83.0127608 100.773594,83.0127608 Z M53.8289652,86.3381978 C55.2033572,86.3381978 56.3175221,85.2215611 56.3175221,83.84412 C56.3175221,82.4666789 55.2033572,81.3500423 53.8289652,81.3500423 C52.4545732,81.3500423 51.3404083,82.4666789 51.3404083,83.84412 C51.3404083,85.2215611 52.4545732,86.3381978 53.8289652,86.3381978 Z M79.0985707,45.4399413 C79.8918155,45.4399413 80.5348675,44.7954627 80.5348675,44.0004581 C80.5348675,43.2054535 79.8918155,42.560975 79.0985707,42.560975 C78.305326,42.560975 77.662274,43.2054535 77.662274,44.0004581 C77.662274,44.7954627 78.305326,45.4399413 79.0985707,45.4399413 Z M74.5669393,52.3063529 C75.542588,52.3063529 76.3335075,51.5136787 76.3335075,50.5358656 C76.3335075,49.5580525 75.542588,48.7653783 74.5669393,48.7653783 C73.5912907,48.7653783 72.8003712,49.5580525 72.8003712,50.5358656 C72.8003712,51.5136787 73.5912907,52.3063529 74.5669393,52.3063529 Z M129.968053,146.742606 C130.884315,146.742606 131.627091,145.998181 131.627091,145.079887 C131.627091,144.161593 130.884315,143.417169 129.968053,143.417169 C129.051792,143.417169 128.309015,144.161593 128.309015,145.079887 C128.309015,145.998181 129.051792,146.742606 129.968053,146.742606 Z M136.381464,143.193933 C137.051692,143.193933 137.595019,142.649401 137.595019,141.977685 C137.595019,141.30597 137.051692,140.761438 136.381464,140.761438 C135.711236,140.761438 135.167908,141.30597 135.167908,141.977685 C135.167908,142.649401 135.711236,143.193933 136.381464,143.193933 Z M80.4273372,162.707782 C80.9787908,162.707782 81.4258323,162.259749 81.4258323,161.707072 C81.4258323,161.154395 80.9787908,160.706362 80.4273372,160.706362 C79.8758836,160.706362 79.4288422,161.154395 79.4288422,161.707072 C79.4288422,162.259749 79.8758836,162.707782 80.4273372,162.707782 Z M68.4838003,190.41206 C69.277045,190.41206 69.920097,189.767581 69.920097,188.972576 C69.920097,188.177572 69.277045,187.533093 68.4838003,187.533093 C67.6905555,187.533093 67.0475035,188.177572 67.0475035,188.972576 C67.0475035,189.767581 67.6905555,190.41206 68.4838003,190.41206 Z M64.6127117,115.043185 C65.2235526,115.043185 65.718737,114.546902 65.718737,113.934706 C65.718737,113.32251 65.2235526,112.826227 64.6127117,112.826227 C64.0018708,112.826227 63.5066865,113.32251 63.5066865,113.934706 C63.5066865,114.546902 64.0018708,115.043185 64.6127117,115.043185 Z M71.8018761,105.29011 C72.2303131,105.29011 72.57763,104.942022 72.57763,104.512635 C72.57763,104.083247 72.2303131,103.73516 71.8018761,103.73516 C71.3734391,103.73516 71.0261223,104.083247 71.0261223,104.512635 C71.0261223,104.942022 71.3734391,105.29011 71.8018761,105.29011 Z M171.774273,159.821118 C173.666183,159.821118 175.199879,158.28402 175.199879,156.387912 C175.199879,154.491805 173.666183,152.954707 171.774273,152.954707 C169.882363,152.954707 168.348667,154.491805 168.348667,156.387912 C168.348667,158.28402 169.882363,159.821118 171.774273,159.821118 Z M113.823156,108.176774 C114.862434,108.176774 115.704936,107.332403 115.704936,106.29082 C115.704936,105.249236 114.862434,104.404866 113.823156,104.404866 C112.783878,104.404866 111.941377,105.249236 111.941377,106.29082 C111.941377,107.332403 112.783878,108.176774 113.823156,108.176774 Z M56.5402633,13.5172856 C57.4565246,13.5172856 58.1993012,12.7728612 58.1993012,11.8545671 C58.1993012,10.936273 57.4565246,10.1918486 56.5402633,10.1918486 C55.6240019,10.1918486 54.8812253,10.936273 54.8812253,11.8545671 C54.8812253,12.7728612 55.6240019,13.5172856 56.5402633,13.5172856 Z M54.5432732,54.3000755 C55.8243423,54.3000755 56.862854,53.2592599 56.862854,51.9753487 C56.862854,50.6914376 55.8243423,49.6506219 54.5432732,49.6506219 C53.2622041,49.6506219 52.2236924,50.6914376 52.2236924,51.9753487 C52.2236924,53.2592599 53.2622041,54.3000755 54.5432732,54.3000755 Z M62.4006612,97.0919836 C63.2575352,97.0919836 63.9521689,96.3958089 63.9521689,95.5370339 C63.9521689,94.6782589 63.2575352,93.9820842 62.4006612,93.9820842 C61.5437871,93.9820842 60.8491535,94.6782589 60.8491535,95.5370339 C60.8491535,96.3958089 61.5437871,97.0919836 62.4006612,97.0919836 Z M113.823156,66.277807 C114.985451,66.277807 115.927677,65.3334908 115.927677,64.1686177 C115.927677,63.0037447 114.985451,62.0594285 113.823156,62.0594285 C112.660862,62.0594285 111.718636,63.0037447 111.718636,64.1686177 C111.718636,65.3334908 112.660862,66.277807 113.823156,66.277807 Z M129.968053,51.8675799 C131.130348,51.8675799 132.072574,50.9232638 132.072574,49.7583907 C132.072574,48.5935177 131.130348,47.6492015 129.968053,47.6492015 C128.805759,47.6492015 127.863533,48.5935177 127.863533,49.7583907 C127.863533,50.9232638 128.805759,51.8675799 129.968053,51.8675799 Z" id="Texture" fill="#F29777"></path>
                </g>
            </g>
        </g>
    </g>
</svg>