<?xml version="1.0" encoding="UTF-8"?>
<svg width="24px" height="24px" viewBox="0 0 24 24" version="1.1" xmlns="http://www.w3.org/2000/svg" xmlns:xlink="http://www.w3.org/1999/xlink">
    <g id="container-default" stroke="none" stroke-width="1">
        <path d="M21.5,4 C22.3284271,4 23,4.67157288 23,5.5 L23,18 C23,18.8284271 22.3284271,19.5 21.5,19.5 L2.5,19.5 C1.67157288,19.5 1,18.8284271 1,18 L1,5.5 C1,4.67157288 1.67157288,4 2.5,4 L21.5,4 Z M18.25,5.5 L5.75,5.5 C4.92157288,5.5 4.25,6.17157288 4.25,7 L4.25,7 L4.25,16.5 C4.25,17.3284271 4.92157288,18 5.75,18 L5.75,18 L18.25,18 C19.0784271,18 19.75,17.3284271 19.75,16.5 L19.75,16.5 L19.75,7 C19.75,6.17157288 19.0784271,5.5 18.25,5.5 L18.25,5.5 Z"></path>
        <polygon id="Line" points="18 11 18 12.5 6 12.5 6 11"></polygon>
    </g>
</svg>
