<?xml version="1.0" encoding="UTF-8"?>
<svg width="24px" height="24px" viewBox="0 0 24 24" version="1.1" xmlns="http://www.w3.org/2000/svg" xmlns:xlink="http://www.w3.org/1999/xlink">
    <g id="container-narrower" stroke="none" stroke-width="1">
        <path d="M21.5,4 C22.3284271,4 23,4.67157288 23,5.5 L23,18 C23,18.8284271 22.3284271,19.5 21.5,19.5 L2.5,19.5 C1.67157288,19.5 1,18.8284271 1,18 L1,5.5 C1,4.67157288 1.67157288,4 2.5,4 L21.5,4 Z M13.5,5.5 L10.5,5.5 C9.67157288,5.5 9,6.17157288 9,7 L9,7 L9,16.5 C9,17.3284271 9.67157288,18 10.5,18 L10.5,18 L13.5,18 C14.3284271,18 15,17.3284271 15,16.5 L15,16.5 L15,7 C15,6.17157288 14.3284271,5.5 13.5,5.5 L13.5,5.5 Z"></path>
        <polygon id="Line" points="14 11 14 12.5 10 12.5 10 11"></polygon>
    </g>
</svg>
