<?xml version="1.0" encoding="UTF-8"?>
<svg width="24px" height="24px" viewBox="0 0 24 24" version="1.1" xmlns="http://www.w3.org/2000/svg" xmlns:xlink="http://www.w3.org/1999/xlink">
    <g id="container-narrow" stroke="none" stroke-width="1">
        <path d="M21.5,4 C22.3284271,4 23,4.67157288 23,5.5 L23,18 C23,18.8284271 22.3284271,19.5 21.5,19.5 L2.5,19.5 C1.67157288,19.5 1,18.8284271 1,18 L1,5.5 C1,4.67157288 1.67157288,4 2.5,4 L21.5,4 Z M15.2567568,5.5 L8.74324324,5.5 C7.91481612,5.5 7.24324324,6.17157288 7.24324324,7 L7.24324324,7 L7.24324324,16.5 C7.24324324,17.3284271 7.91481612,18 8.74324324,18 L8.74324324,18 L15.2567568,18 C16.0851839,18 16.7567568,17.3284271 16.7567568,16.5 L16.7567568,16.5 L16.7567568,7 C16.7567568,6.17157288 16.0851839,5.5 15.2567568,5.5 L15.2567568,5.5 Z"></path>
        <polygon points="15 11 15 12.5 9 12.5 9 11"></polygon>
    </g>
</svg>
