<?xml version="1.0" encoding="UTF-8"?>
<svg width="24px" height="24px" viewBox="0 0 24 24" version="1.1" xmlns="http://www.w3.org/2000/svg" xmlns:xlink="http://www.w3.org/1999/xlink">
    <g id="container-full" stroke="none" stroke-width="1">
        <path d="M21.5,4 C22.3284271,4 23,4.67157288 23,5.5 L23,18 C23,18.8284271 22.3284271,19.5 21.5,19.5 L2.5,19.5 C1.67157288,19.5 1,18.8284271 1,18 L1,5.5 C1,4.67157288 1.67157288,4 2.5,4 L21.5,4 Z M20,5.5 L4,5.5 C3.17157288,5.5 2.5,6.17157288 2.5,7 L2.5,7 L2.5,16.5 C2.5,17.3284271 3.17157288,18 4,18 L4,18 L20,18 C20.8284271,18 21.5,17.3284271 21.5,16.5 L21.5,16.5 L21.5,7 C21.5,6.17157288 20.8284271,5.5 20,5.5 L20,5.5 Z"></path>
        <polygon points="20.25 10.75 20.25 12.25 3.75 12.25 3.75 10.75"></polygon>
    </g>
</svg>
