<?xml version="1.0" encoding="UTF-8"?>
<svg width="24px" height="24px" viewBox="0 0 24 24" version="1.1" xmlns="http://www.w3.org/2000/svg" xmlns:xlink="http://www.w3.org/1999/xlink">
    <g stroke="none" stroke-width="1">
        <path d="M19.4621212,4 C20.5771495,4 21.5,4.86484049 21.5,5.95689655 L21.5,5.95689655 L21.5,17.5431034 C21.5,18.6351888 20.5771603,19.5 19.4621212,19.5 L19.4621212,19.5 L5.03787879,19.5 C3.92287011,19.5 3,18.6351794 3,17.5431034 L3,17.5431034 L3,5.95689655 C3,4.86484986 3.92288092,4 5.03787879,4 L5.03787879,4 Z M19.4621212,5.5 L5.03787879,5.5 C4.73031666,5.5 4.5,5.71583427 4.5,5.95689655 L4.5,5.95689655 L4.5,17.5431034 C4.5,17.784187 4.730299,18 5.03787879,18 L5.03787879,18 L19.4621212,18 C19.7697246,18 20,17.7842043 20,17.5431034 L20,17.5431034 L20,5.95689655 C20,5.71581697 19.7697069,5.5 19.4621212,5.5 L19.4621212,5.5 Z M16.75,9 C17.3022847,9 17.75,9.44771525 17.75,10 L17.75,14 C17.75,14.5522847 17.3022847,15 16.75,15 L7.75,15 C7.19771525,15 6.75,14.5522847 6.75,14 L6.75,10 C6.75,9.44771525 7.19771525,9 7.75,9 L16.75,9 Z"></path>
    </g>
</svg>
