<svg xmlns="http://www.w3.org/2000/svg" viewBox="0 0 40 5">
	<path d="M4.03.17.11 4.1a.4.4 0 0 0 0 .56l.04.03.04.03a.4.4 0 0 0 .47-.06L4.31 1l3.64 3.65.04.03.05.03a.4.4 0 0 0 .47-.06L12.15 1l3.65 3.65.04.03.04.03a.4.4 0 0 0 .47-.06L20 1l3.64 3.65.04.03.04.03a.4.4 0 0 0 .47-.06L27.84 1l3.64 3.65.04.03.05.03a.4.4 0 0 0 .47-.06L35.68 1l3.65 3.65a.4.4 0 0 0 .55-.56L35.96.17l-.04-.03-.05-.03a.4.4 0 0 0-.47.06l-3.64 3.64L28.1.17l-.04-.03-.04-.03a.4.4 0 0 0-.47.06l-3.64 3.64L20.27.17l-.04-.03L20.2.1a.4.4 0 0 0-.47.06L16.08 3.8 12.43.17l-.04-.03-.04-.03a.4.4 0 0 0-.48.06L8.23 3.82 4.59.17a.4.4 0 0 0-.56 0Z"/>
</svg>
